<?xml version="1.0" encoding="utf-8"?>
<!-- Generator: Adobe Illustrator 23.0.1, SVG Export Plug-In . SVG Version: 6.00 Build 0)  -->
<svg version="1.2" baseProfile="tiny" id="Layer_1" xmlns="http://www.w3.org/2000/svg" xmlns:xlink="http://www.w3.org/1999/xlink"
	 x="0px" y="0px" viewBox="0 0 900 600" xml:space="preserve">
<g>
	<path d="M265.88,543.25c-2.11-1.26-8.94-1.42-15.65-4.95c-3.76-6.16-1.29-2.84-8.18-10.91c-10.94-12.82-6.5-8.46-12.73-4.85
		c-6.54-14.39-1.18-61.08-0.81-67.47c0.93-16.01-4.9-26.37-3.33-29.49c4.75-6.02,2.52-10.77,2.52-12.52
		c0-7.21,5.44,1.93,17.37-11.92c-2.57-29.5-2.33-33.39-1.81-32.1c-0.03-0.2-0.07-0.4-0.11-0.62c-3.17-18.79-1.21-17.22-2.12-20.3
		c-0.03-0.1-2.42-9.07-1.92-10.1c1.57-3.24,6.59-22.4,1.01-7.07c-0.4,0.91-1.01,1.62-2.32,1.72c-0.65-3.92,2.3-6.68,2.63-9.29
		c0.3-2.39,0.35-5.7,0.71-8.18c4.39,1.26-0.06,7.05,4.04,11.92c-0.3,3.13-1.2,5.67-3.03,7.88c-1.81,2.19-2.61,8.7,0,11.11
		c0.61-0.1,1.11-0.3,1.72-0.3s1.31,0.21,2.02,0.1c6.79-1.05,15.87-26.55,12.32-33.33c-2.54-4.85,1.35-6.7-8.38-26.16
		c3.6-21.17-4.82-24.17-4.55-39.39c0.66-36.63,1.29-37.23-7.57-52.22c-1.03-1.74-2.13-20.63-2.93-27.98
		c-0.75-6.92,0.51-9.21,2.52-16.46c2.98-10.73-1.21-28.38-4.95-32.12c-9.82-9.82-8.83-5.53-23.63-12.22
		c-4.01-1.81-3.07-3.01-6.16-5.86c-7.96-7.33-7.42-4.27-5.76-13.53c0.38-2.13,2.37-2.07,2.83-2.22c4.51-1.19,2.85-4.85,6.57-11.61
		c1.35-2.46,1.86-7.87,2.02-10.91c0.29-5.6,2.72-5.53,2.22-10c-0.75-6.73-1.05-7.08-2.12-7.37c0,6.38,0.11,9.26-1.31,12.02
		c-1.01,1.96,1.42,6.5-4.95,23.03c-2.36,6.11-7.81,3.07-16.46,3.94c2.42,3.63,6.01,1.3,8.48,2.42c1.06,2.12-4.09,18.98-1.62,19.29
		c1.62-2.42,1.72-5.55,3.23-8.38c6.92,7.38,8.04,6.44,12.52,39.39c0.57,4.19-6.25,7.67-10.2,9.09
		c-21.26-8.5-34.86-21.11-42.62-35.45c-1.73-3.19-8.79-17.26-8.79-20.5c17.71-10.63,10.08-8.6,14.65-26.87
		c0.97-3.89-0.08-4.49,0.3-5.66c2-1.67,1.01-1.99-1.31-2.32c-0.4-0.81-0.81-1.62-1.21-2.32c1.01-0.61,2.32,0.2,3.03-1.11
		c-0.1-1.85,0.19-3.78,1.02-5.53c1.1,1.71,1.81,3.52,1.71,5.53c1.79,0.15,1.59-1.06,5.25-10.6c2.05-5.35,3.4-4.2,5.66-10.3
		c2.59-5.17,4.34-0.22,4.34-3.64c0.81-0.81,2.53-0.2,2.83-2.02c-2.26-4.14-0.61-2.72-5.35-4.44c0,0.35-0.17,0.68-0.62,0.63
		c0.98-0.74,0.88-2.42,2.03-1.43c3.9,2.13,4.15,1.53,5.76,4.75c1.31-0.51,0.1-1.62,0.61-2.02c4.26-0.85,2.32-1.16,7.88-0.3
		c2.65,0-0.04-0.73,5.66,0.4c5.6,1.11,6.06-1.71,7.68-0.51c0.81,4.34,0.2,9.09,3.13,12.93c-0.3,1.01-0.61,1.92-0.81,2.63
		c-6.73,2.83-10.34,3.81-8.28,11.01c0.61-1.11,0.1-2.63,1.31-3.53c2.42,0.91,4.54-0.3,6.77-0.91c3.92-15.04,1.69-0.98-0.4-23.33
		c2.02-3.33,5.76-4.04,8.28-6.67c-0.1-0.51-0.3-1.01-0.4-1.62c0-1.74,2.85-2.63-4.5-2.63c0.41-1.07,1.55-0.79,3.29-2.52
		c1.34-1.34-1.38-2.98-4.54-0.61c-0.3,0.2-0.61,0.81-1.21,0.2c0.7-11.85-1.37-4.18-6.1-3.09c1.41-1.41-0.74-2.11-1.98-1.76
		c-2.83,0.61-5.66,1.41-8.59,2.12C191.85,3,190.94,2.99,189.93,3c-10.95,0.16-11.95-0.53-12.73,1.41c-0.47,1.17-1.61,2.07-2.73,1.52
		c-0.4-0.81,0.71-2.32-1.41-2.32c-2.32,3.13-5.66,4.65-9.8,5.05c-1.15-0.92-4.18-4.09-6.26-2.42c0,1.72,1.92,2.12,2.32,3.54
		c-0.51,0.81-1.94,0.81-1.82,2.02c0.26,2.57-2.92,3.86-2.22,5.25c0.2,0.2,0.2,0.71,0,0.91c-0.91,1.21-0.51,3.03-2.02,4.04
		c-0.85,0.57-1.02,5-2.02,7.17c-5.02,10.93,2.93,15.69,1.11,19.59c-0.6,1.57,0.11,3.09,0.91,4.75c3.03,6.3,2,10.05,3.54,14.14
		c-3.19,14.02-2.69,15.59-6.46,16.97c-3.33,1.21-6.52,2.58-9.29,5.05c-1.39,1.24-2.73,2.73-4.75,3.03c-2.54,0,3.53,1.9-17.07,6.67
		c-11.7,2.71-17.62,7.76-22.22,15.55c-2.93,4.97-2.99,2.72-4.65,7.17c-2.99,8.05-0.27,12.18-2.52,17.27
		c-6.11,13.79-5.63,44.31-3.74,58.18c0.87,6.39-2.2,6.02-2.02,13.23c0.25,9.95-7.33,16.59-0.3,47.77c3.4,15.1-0.84,53.66-1.72,56.26
		c-0.92,2.71,0.3,4.5,1.92,6.67c0.06,1.59,1.41,14.82,2.83,15.55c2.09,1.08,3.6,5.53,6.57,6.46c2.74,0.86,4.65,2.73,6.57,4.65
		c0.81,0,1.83,0.49,3.33,1.52c5.94,4.06,1.09-20.75,0.71-27.98c-0.31-2.47,1.34-2.42,2.73-2.22c0.74,5.16,0.37,5.35,1.82,8.08
		c5.26,9.91,5.34-5.1,1.31,26.16c-2.48,19.23-2.5,26.18-2.42,35.15c0.05,6.42-5.36,12.63-2.42,16.87c0.61-0.2,1.11-0.4,1.82-0.71
		c8.72,5.15,6.37,3.86,6.67,9.9c0.3,6.07-3.66,7.26-9.09,23.13c-1.05,3.06-6.26,9.52-6.06,21.92c0.72,45.18,2.81,18.63,1.92,51.91
		c-0.5,18.48,1.31,18.39,1.31,25.45c0,5.3-3.81,9.71-3.03,14.95c-3.76,3.08-4.88,3.24-4.95,5.86c-0.09,3.58,0.25,11.91,1.92,14.85
		c3.1,5.47-2.15,12.33,0.1,19.09c0.21,0.89,0.45,0.13-1.52-0.2c0.1,0.71,0,1.21,0.3,1.52c7.33,7.55,11.22,7.22,30.6,5.96
		c6-0.39,16.71-1.78,17.27-7.78c0.4-4.34-1.46-6.09-3.03-9.39c-2.05-4.3,0.86-3.79-1.92-8.18c-5.99-9.46-9.21-9.24-10.2-13.63
		c-0.09-0.41-0.51-0.71-0.91-1.21c-2.02,6.06,8.56,11.27,11.01,23.73c1.06,5.38,2.12,3.24,2.12,5.86c-0.2,3.33-1.42,4.94-4.65,5.96
		c-6.64,2.1-30.38,6.01-38.08-1.31c-0.66-0.63-0.43-0.35,0-0.4c2.98-3.35,0.14-2.69,2.12-8.58c2.32-6.92-1.48-10.35-2.93-24.74
		c-0.29-2.89-0.1-2.29,4.54-5.86c1.11,0,2.25,1.66,2.73-2.12c0.67-9.98-2.56-6.53,10.81-12.42c1.72,1.31,3.43,2.63,5.25,4.04
		c0.94-1.88,0.14-2.06,3.03,1.11c2.83,3.1,1.86,4.7,2.22,11.21c0,3.16,2.22,4.54,2.22,0.5c0-18.49-5.63-10.48-5.76-18.89
		c-0.55-35.33,25.31-55.98,21.41-92.31c-1.38-12.89,0.27-7.53,3.13-14.85c2.18-5.59,1.94-7.91,2.83-11.92
		c12.25-0.7,14.33-1.13,16.66,0.1c4.57-1.96,5.42-1.57,5.66-3.84c0.52-4.97,3.38-16.18,5.66-19.59c1.21,3.74,1.21,7.47,2.83,10.91
		c1.21-0.3,2.23-0.21,3.33,0.4c5.59,3.11,9.5,3.67,10.81,4.54c0.71,3.43,1.31,6.87,4.85,9.39c-1-5-3.47-7.8-2.02-8.89
		c16.79,2.24,15.2,0.77,18.89,1.72c0.2,3.74,0.2,3.74,1.52,5.35c0.67-3.69,0.36-3.03,0.1-5.66c3.13-0.2,6.06-1.01,9.09-1.11
		c1.44,12.26-4.01,13.55-2.93,18.89c3.19,15.74,3.59,16.33,3.13,21.11c-1.56,16.39-4.9,62.42,2.52,77.26
		c-8.45,5.98-7.09,5.8-7.47,4.24c-5.73-1.64-7.45,0.15-14.34-3.03c0.85-9.8,2.13-28.41-3.13-38.08
		c-1.15-2.11-15.43-38.25-14.14-43.83c5.45-23.62,8.17-29.81,4.75-28.78c-3.13,8.76-6.2,17.7-6.26,26.97
		c-0.02,2.38-1.05,1.23-0.4,5.25c3.59,22.16,4.05,13.37,12.52,38.78c3.58,10.73,5.81,35.22,4.04,37.87
		c-3.37,0.42-2.14-0.65-4.35,2.54c0-0.04,0.01-0.39,0.01-2.85c-2.66,1.9-2.22-0.48-2.22,15.05c0.77,5.93-2.65,13.23-5.15,18.58
		c0.65,3.67,6.47,3.34,8.58,4.14c14.62,5.55,20.75-2.53,27.98-0.91c14.04,3.15,8.66,3.13,15.55,4.14
		c20.84,3.05,49.87-4.25,36.56-20.7C278.07,544.68,273.58,547.85,265.88,543.25z M205.38,40.37c1.41,0,2.02,0,2.83,0
		C207.51,41.48,207.51,41.48,205.38,40.37z M214.07,11.08c-1.84,2.46-2.19,4.14-2.83,0.3C212.15,10.58,212.96,10.58,214.07,11.08z
		 M205.79,4.52c0.71-0.71,2.18,1.13-0.51,2.32C204.88,5.73,205.59,5.12,205.79,4.52z M203.67,18.96c-0.9,0.45-0.39,0.36-1.11,0
		C203.01,18.5,203.19,18.72,203.67,18.96z M198.01,16.84c0.13,0.25,0.16,0.2-0.1,0.2L198.01,16.84z M195.99,8.25
		c-0.65,0.32-0.61,0.2-0.81,0C195.83,7.93,195.79,8.06,195.99,8.25z M194.38,11.79c0.5-0.5,0.88-0.03,1.11,0.2
		c-0.4,0.1-0.71,0.3-1.01,0.4C194.48,12.19,194.27,11.89,194.38,11.79z M196.4,18.25c-1.62,0.3-2.93-0.2-3.64-1.72
		C193.97,17.04,195.18,17.65,196.4,18.25z M188.52,16.33c0.82-2.13,1.15-0.58,2.02,0C189.83,16.33,189.22,16.33,188.52,16.33z
		 M191.04,14.41c0.05-0.1,1.03-1.36,0.4,0.5C190.95,14.92,190.94,14.52,191.04,14.41z M190.74,7.44c-0.91,1.31-2.02,2.12-3.43,2.93
		C187.81,7.04,187.81,7.04,190.74,7.44z M183.67,9.87c0,0.1,0.1,0.2,0.1,0.3s-0.1,0.2-0.1,0.3c0-0.1-0.1-0.2-0.1-0.3
		S183.67,9.97,183.67,9.87z M181.85,5.42c0.66,0.66-0.2,0.71-0.2,0.61c-0.2-0.1-0.2-0.3-0.3-0.51
		C181.55,5.53,181.75,5.32,181.85,5.42z M152.66,30.98c0-0.24,0.2-0.8,0.2-0.2C152.76,30.78,152.76,30.88,152.66,30.98z
		 M160.34,50.07c-0.44-0.87-0.63-0.59,0.2-1.01c0,0.1,0.1,0.3,0.2,0.51C160.64,49.66,160.44,49.86,160.34,50.07z M159.73,41.99
		c-0.6-1.69,2.7-2.99,3.3,3.27C161.49,44.64,160.29,43.56,159.73,41.99z M160.54,30.37c0.63,1.05-0.18,0.71-0.61,4.54
		C159.12,33.04,158.49,30.37,160.54,30.37z M162.46,31.58c0.1-0.2,0.2-0.51,0.2-0.3C162.76,31.18,162.56,31.38,162.46,31.58z
		 M169.33,15.52c-0.26-0.13-0.25-0.05,0-0.3V15.52z M175.39,26.33c0,1.31-1.01,1.82-2.22,3.13
		C173.96,24.96,174.1,25.47,175.39,26.33z M173.77,15.22c0.1,0.51,0.4,0.91,0.4,1.01c-1.11,1.51-2.32,2.93-3.94,3.84
		C168.57,18.96,172.96,15.92,173.77,15.22z M172.66,8.66c-0.61,2.32-2.22,1.92-4.24,1.82C170.24,10.17,170.94,8.45,172.66,8.66z
		 M168.82,29.46c-0.1,0.1-0.1,0.2-0.1,0.3c-0.1,0-0.2,0.1-0.2,0.1C168.29,29.64,168.5,29.46,168.82,29.46z M168.52,31.99
		c0.91,1.52-0.61,1.82-1.21,2.73C166.5,33,166.5,33,168.52,31.99z M166.7,43.2c0.44-0.87,0.72,0.09,0.61,0.2
		C166.47,45.07,165.8,44.1,166.7,43.2z M165.69,47.54c-0.49-0.99-0.33-0.46,0-1.11C166.19,47.42,166.02,46.89,165.69,47.54z
		 M163.67,33.5c0.4-1.92,0.4-1.92,2.22-1.72C164.98,32.49,164.38,33,163.67,33.5z M162.96,8.76c0.74,0.74,0.71,0.71,0.3,1.11
		C162.3,9.23,162.51,9.21,162.96,8.76z M158.52,16.13c-0.75-1.12-1.24-0.96,1.31-1.92c2.77,3.17,2.09,2.17,5.15,1.62
		c0.71,1.21,0,1.92-0.71,2.53c-3.43-1.41-3.43-1.41-7.17,0.61C157.21,17.85,157.31,17.75,158.52,16.13z M153.98,41.38
		c-0.1,0-0.42-0.08-0.2-0.3C154.2,41.08,153.98,41.28,153.98,41.38z M156.4,43.91c1.31,0,1.82,1.01,2.53,2.02
		c-1.21,1.62-1.21,1.62-1.41,3.23C154.78,46.83,154.58,45.93,156.4,43.91z M156.5,53.5c0.45-0.45,0.09-0.36,0.81,0
		C157.11,53.9,157.17,53.83,156.5,53.5z M239.62,318.73c-0.48,2.14,0.63,3.81-1.31,5.76c-2.54,0-0.94-12.08-9.8-41.41
		c-1.98-6.56-2.01-3.12-4.24-6.77c-6.76-11.03-5.34-13.66-6.06-17.98c-4.49-2.99-0.08-6.21,0.3-9.49c0.13-1.11,0.1-2.12,0.2-3.23
		c0.91-0.2,1.01,0.4,1.21,0.91c9.18,23.06,15.3,32.69,16.06,37.57c3.51,22.66-0.62,17.73,3.03,28.99
		C239.64,314.98,239.93,316.81,239.62,318.73z M236.8,326.3c0-0.97-0.07-0.81,0.2-0.81C237,326.76,237.05,326.3,236.8,326.3z
		 M216.29,267.22c-0.2-0.3-0.61-0.51-0.61-0.71c-0.36-6.07,0.07-5.44,0.81-6.36C217.15,267.33,217.22,266.29,216.29,267.22z
		 M243.76,343.57c-3.74-3.99,0.81-4.98,3.03-15.15c1.01,0.4,1.82,0.81,2.73,1.21c-0.35,1.96-1.96,8.56-2.93,9.19
		C244.82,339.99,245.12,341.53,243.76,343.57z M144.89,90.47c1.58,2.84,3.67,10.88,9.29,21.51c8.97,16.96,27.01,33.98,45.75,35.15
		c3.23-2.12,6.46-4.24,9.49-6.26c1.72-4.46,1.35-21.05-5.05-35.45c0.75-0.87,1.1,0.14,2.73,1.11c9.7,4.71,29.48,44.63,24.24,31.11
		c-5.81-14.98-12.13-21.73-14.75-25.65c12.68,1.58,20.96,18.08,19.39,29.09c-0.4-2.22-0.61-4.54-1.01-6.87
		c-1.26-5.47-2.22-3.87-2.22-4.54c-0.94,0.94,2.2-0.55,1.52,20.2c-0.3,9.13-10.5,23.41-10.5,27.98c5.63-1.48,9.3-18.47,9.49-9.19
		c0.24,11.88-0.08,15.85,1.31,21.11c1.17,4.4-0.81,4.39-0.81,11.72c2.43-2.83,1.79-7.08,3.54-4.24c8,13.06,6.53,24.9,6.36,49.09
		c-0.09,13.01,4.33,16.1,4.04,25.75c-0.66,21.7,5.6,21.19,6.26,28.99c1.07,12.58,7.35,14.42-0.1,30.3
		c-4.8,10.25,0.48,4.37-7.07,12.42c-0.71-1.31-0.71-2.53,0.1-3.43c2.88-3.23,2.51-6.29,3.94-9.49c3.64-8.18-0.42-8.5,3.13-9.09
		c-0.83-1.24-1.83-1.11-1.62-3.13c0.15-1.45,0.61-2.35,0.61-4.24c0-12.32,0.82-10.92-2.63-5.76c-0.2,2.42,1.41,4.54,0.81,7.07
		c-2.09,8.76,3.03,11.43-5.35,8.08c0-11.21,1.18-8.28-6.67-17.98c0-2.93,0-5.76,0-8.89c1.72-1.52,2.73-3.43,3.13-6.06
		c-1.82,0.11-2.83,5.23-2.83,0.51c0-3.62-0.51-1.33-1.41-8.08c0.46-0.23,1.72-0.95,2.12-1.11c-1.02-6.63-3.38-11.31-3.84-3.13
		c-1.68-5.51-17.17-38.07-16.97-43.63c0.51-14.07,5.32-21.41,4.24-47.37c-0.71-17.08-2.18-8.84-1.62,5.15
		c0.18,4.46-7.21,64.49-6.97,66.05c-9.85,4.23-4.93,7.8-47.47,0.71c-0.76,0,0.44-2.32-4.34-12.02c-2.43-4.92-1.07,2.38,2.63,11.21
		c-1.53,0.92-2.55-0.34-17.88-3.84c-5.36-1.22-11.41-2.05-13.43-2.63c-0.3-2.83-1.31-5.35-0.71-8.18c0-0.4,0-0.81-0.1-1.11
		c-0.71-2.08-0.31-12.42-0.61-20.4c-0.41-10.95-2.22-12.34-1.92-15.25c0.38-3.71-1.11-6.38-5.45-16.06c-1-2.23,0.09-2.29,2.63-9.39
		c1.15-3.21-1.34-2.66,0.91-7.17c0.92-2.31,1.07-3.62,1.41-11.92c6.02-5.31,13.99-8.59,15.86-20.91c0.99-6.52,1.57-29.02-8.28-46.76
		C139.94,93.19,142.66,92.39,144.89,90.47z M211.85,268.02c-0.81-2.32-0.81-2.32,0.4-3.94
		C213.16,266.41,213.06,267.11,211.85,268.02z M210.13,265.3c0,6.77-2.68,2.31-1.21,0.2C209.02,265.3,209.53,265.4,210.13,265.3z
		 M127.31,258.43c-1.93,0.74-1.63,1.36-4.34,6.87c-8.14,16.54-1.04,0.63-8.18,39.89c-5.35-4.24-7.58-10.1-9.8-16.36
		c1.19-5.09,0.46-9.16,1.82-28.28c0.16-2.21,2.45-9.65,4.14-16.66c1.35-5.59-0.5-7.03-0.5-11.61c0-4.24-0.51-8.38-1.11-12.83
		c4.48-7.24-0.64-6.25,10.81-21.51c1.52-2.28,2.6,0.66,2.93-4.54c0-0.1,0.2-0.2,0.71-0.71c1.41,3.53,3.36,6.47,3.74,10.1
		c0.27,2.55,1.87,2.41,1.82,7.88c-0.27,29.96-0.51,4.08-0.51,28.28c0,4.46,3.21,5.8,2.32,8.99
		C128.09,250.11,128.93,248.7,127.31,258.43z M131.76,250.55c1.51,1.01,1.41,2.63,1.92,3.84c0.4,0.4,1.11,0.71,1.31,1.11
		c0.39,1.27,0.13,6.68-1.11,6.06c-1.21-0.51-2.42-1.01-3.64-1.41C129.13,256.61,131.96,253.88,131.76,250.55z M135.29,156.62
		c-1.21,1.52-2.32,2.93-4.14,3.53C130.42,149.27,129.17,148.75,135.29,156.62z M87.21,328.72c0.4,1.7,1.41,2.54,1.41,4.44
		C88.63,332.65,86.94,333.08,87.21,328.72z M111.76,327.92c-5.37-5.12-0.43-7.92-5.55-16.66c-0.61,0.1-0.3,0.61-0.4,1.01
		c0,3.6,3.19,2.53,0,4.44c-0.54-0.81-0.48-0.06-0.1-3.43c-3.1,4.34-2.15,10.79-2.42,11.61c-1.21,4.54-0.62,8.99,0.91,13.33
		c1,2.83,0.51,5.55,0.51,8.89c-5.34-9.68-4.67-7.82-5.76-12.42c-2.3-9.73-1.33-13.12-5.05-15.96c-1.22,1.22,1.44,1.76,1.72,7.07
		c0.39,7.34,1.11,6.05,5.15,17.67c0.58,0.58,0,1.97,0,0c-5.46,0-7.7-17.86-8.58-21.41c-0.15-0.46-1.72-1.01-1.72,0.1
		c0.74,8.84,2.65,11.69,4.24,16.46c-0.91,0.2-1.21-0.3-1.51-0.81c-4.18-7-3.69-7.51-5.35-16.26c-2.01,0-2.09,1.05-3.84-5.25
		c-0.22-1.11,0.45-2.11,1.72-6.67c0.99,2.47,2,0.51,1.31-0.2c-3.2-3.31,2.23-6.16,0-33.94c-0.64-7.93,0.84-8.32-1.82-20.3
		c-0.36-1.61-5.42-20.88-1.41-22.83c0.81-0.39-0.17-7.01,1.92-14.54c1.48-0.63,1.56,2.64,2.63,3.03c1.88-0.54-2.67-9.87-1.21-14.14
		c6.05-17.7,0.08-30.62,1.11-40.4c5.25,1.31-1.03,0.51,0.51-12.02c1.55-12.69,1.87-14.51,3.84-16.06
		c2.19-1.73,0.56-11.51,3.23-15.96c6.08-10.13,9.53-20.94,31.61-23.43c3.48-0.39,5.53-1.22,8.79-2.53
		c5.13,5.53,12.23,38.6,5.05,55.35c-3.33,1.85-2.45,3.36-7.57-3.23c-4.95-7.43-3.32,4.01-6.06-6.26c-1.82-0.91-0.71,4.81,0.3,6.57
		c2.46,4.26-2.8,34.54-4.44,37.27c-5.52,9.2-7.19,13.57-8.08,13.94c-2.52,1.05-5,9.84-5.55,12.52c-1.25,6.06-1.58,0.98-3.13,1.31
		c0,4.05,0.63,9.54,0.81,9.9c1.41,2.22,1.11,4.85,1.62,7.27c1.5,7.16-1.55,13.92-3.74,24.24c-0.99,4.69-0.4,8.32-0.4,11.72
		c0,17.83-5.66,23.92,8.99,41.71c0.4,3.17-0.82,7.18,1.62,13.74c1.1,2.98,2.93,7.71,0,7.37
		C114.08,329.56,112.84,328.95,111.76,327.92z M144.48,419.12c-4.85,18.04-5.32,13.85-3.64,38.99c0.49,7.27-3.78,9.71-8.69,28.68
		c-0.72,2.79-4,9.02-5.25,11.82c-3.93,8.79-3.11,10.91-5.86,20.6c-3.82,13.48-0.09,23.46-5.05,17.67
		c-4.52-3.55-10.71,4.47-10.71-0.2c0-7.25-1.03-3.52-1.72-9.8c-1.61-14.77,1.27-21.55-0.51-32.22c-0.55-3.33-1.71-23.52-1.72-23.63
		c-3.98-19.93,7.57-38.98,13.13-49.69c5.26-10.13-5.18-15.37,9.8-8.18c-1.01,2.73-3.03,5.15-2.02,8.48
		c1.92-1.28,0.74,0.22,4.85-6.97c1.38-0.86,5.99,1.91,14.95,2.53C144.97,417.56,144.81,417.9,144.48,419.12z M197,408.11
		c0.2-3.23,0.4-6.26,0.61-9.49c12.8-1.42,22.38-3.68,0.51-1.11c-0.91-2.02-0.91-2.02-0.81-5.35c4.75-3.32,16.03-10.92,16.97-16.56
		c-5.15,6.16-10.71,10.5-16.97,14.44c-1.92-2.69-1.13-3.8-2.49-4.38c1.2,6.59,2,4.5-3.57,8.32c3.43,1.8,6.57-7.51,5.05,13.33
		c-0.69,0.79-0.82,0.88-10.5-2.63c-6.11-2.21-5.1-2.14-5.66-4.85c-1.88-9.09-2.66-10.28-1.51-13.33c1.89-5.01,2-8.41-4.65,7.57
		c-5,12.03-3.42,13.42-5.55,10.6c-0.82-1.08-7.64-10.04-8.79-10.81c0.65,3.9-2.84-1.47,4.24,7.98c5.61,6.32,4.63,8.31,3.84,11.41
		c-2.89,1.99-4.76,1.95-16.66,1.62c-20.91-0.58-27.69-4.27-44.44-13.23c-0.45-5.87,5.42-12.6,3.03-15.86
		c-1.96-3.26,4.33-53.22,4.34-53.33c0.91,0,1.71-0.02,2.52-0.1c2.52-0.26,3.85-3.25,2.22-5.05c-2.55-2.82-1.04-3.36-2.32-6.46
		c-3.64-8.79,0.61-4.82,1.01-10.2c0.63-8.44,2.35-47.72,10.6-45.65c0.81-0.91-1.31-2.42,0.81-3.23c0.2,0,0.31-0.01,0.38-0.02
		c-0.09,0.19,1.53,1.52,28.81,8.9c4.49,1.22,5.19,0.38,3.43-0.1c-28-7.7-23.99-7.27-26.16-8.08c0.37-8.16-0.57-7.09,3.13-6.16
		c0.91,1.82,0.1,3.74,0.71,5.55c1.11-1.62-0.1-3.43,1.11-5.05c11.61,1.82,22.93,5.25,34.64,7.68c0.1,2.12,0.2,4.24,0.3,6.36
		c-0.81,0.61-1.72,0.61-2.83,0c1.14-10.26-1.71-4.13-0.61,0.71c2.78,0.38,1.74,1.16,12.83,1.72c1.58,0.08,9.56,0.26,4.04-0.4
		c-14.16-1.7-12.32-0.15-12.32-7.68c2.57-0.37-0.41-0.6,15.05,1.92c1.21,1.31-0.1,3.33,1.72,4.65c0.81-1.41,0.1-2.93,0.71-4.44
		c3.75-0.94,0.71,3.07,3.13,4.85c0.61-1.62,0-3.23,0.51-4.75c0.23-0.08,9.03-1.21,9.7-1.21c1.05,5.23-2.08,2.88-3.94,5.76
		c10.56-1.51,7.84-3.15,10.9-1.11c0.2-1.21,0.81-1.92,2.32-1.82c1.2,0.84,5.06,7.98,7.37,11.61c6.55,10.3,3.18,16.94,10.1,35.15
		c-1.25,13.78,0.26,17.39,6.06,51.41c1.24,7.27,0.28,15.42,1.62,33.63c0,1.86,0.42,1.27-2.12,2.73
		C226.19,411.12,210.01,409.48,197,408.11z M208.82,533.55c10.57,3.14,15.14-2.63,10.2,3.13c-9.27,2.22-6.21,3.06-10.6-2.93
		C208.62,533.65,208.72,533.55,208.82,533.55z M199.52,530.64C199.52,530.64,199.52,530.64,199.52,530.64
		C199.52,530.63,199.52,530.64,199.52,530.64z M237.5,563.75c-7.18-2.94-12.51,0.06-28.78-0.1c-6.23-0.06-9.57-2.19-13.33-3.53
		c0-3.37,1.67,4.58,4.65-23.73c-0.28-1.48-1.38-3.22-0.71-5.22c-0.01,0.63,0.01,1.21,0.91,1.48c1.11-0.61,0.71-2.12,1.92-2.93
		c3.96,1.32,0.03,0.99,2.63,4.75c1.65,2.39,2.53,2.44,2.53,4.55c0.23,3.23,3.98,1.51,5.66,1.01c3.66-1.35,6.29-2.03,8.79-3.94
		c11.65-8.9,10.33-8.82,8.48-10.3c0.61-1.92,1.92-3.23,3.64-4.34c1.72,1.31,2.63,3.13,4.04,4.85c-4.96,5.51-7.1,6.59-5.86,10.1
		c3.17,0.93,4.54-1.81,8.79-6.06c3.22,2.14-5.73,5.08-3.03,8.99c3.28-1.31,4.59-6.36,6.87-4.65c-0.35,1.64-2.93,3.44-3.74,4.85
		c-1.23,2.45-0.59,6.89,6.16-0.61c3.21,2,2.27,0.37,0.71,5.05c-0.32,1.62,1.53,2.51,2.52,1.52c4.14-4.14,0.5-3.94,6.97-1.52
		c-0.51,1.11-0.81,2.02-1.21,2.93c2.02,1.21,2.83-1.01,4.34-1.41c4.24,1.21,8.57,2.58,12.93,3.74c7.06,1.87,4.46-1.98,8.38,8.99
		C270.83,569.71,246.08,567.26,237.5,563.75z"/>
	<path d="M243.26,369.04C244.5,376.3,243.76,370.29,243.26,369.04L243.26,369.04z"/>
	<path d="M208.52,262.37l-0.2,0.1C208.44,262.43,208.36,262.49,208.52,262.37z"/>
	<path d="M162.56,271.26l0.1-0.1C162.46,271.18,162.39,271.17,162.56,271.26z"/>
	<path d="M194.68,385.59c0.16,0.06,0.14,0.12,0.1-0.1L194.68,385.59z"/>
	<path d="M211.24,396.19l-0.1-0.1C211.06,396.21,211.09,396.22,211.24,396.19z"/>
	<path d="M232.15,140.66c-0.18-0.26-0.19-0.37-0.1,0.1L232.15,140.66z"/>
	<path d="M818.76,250.95c-2.12,2.12-2.12,2.12-5.86,3.23c0.3-1.82,2.22-3.64,0-5.25c-7.91,0.3-6.57-0.34-13.63,1.52
		c-9.71,2.55-8.87-3.49-14.54,3.13c-5.44-1.3-10.58,4.38-14.85,7.57c-3.13,2.35-3.64,0.07-8.18,4.14c-3.27,2.93-4.4,2.31-8.64,2.81
		c3.27-2.84,4.61-3.77,2.98-8.67c9.55-6.74-1.09-2.54,11.82-5.76c5.88-1.47,3.06-9.78,0.91-7.27c1.33,4-0.18,6.64-4.54,6.87
		c11.36-15.63-8.7-2.15-24.14-5.66c-6.58-1.49-7.28-2.07-10-0.61c-6.62,3.57-25.63,13.04-32.32,11.61
		c-12.42-2.64-13.52,4.14-20.91,4.14c-5.28,0-10.41-0.4-22.02,2.42c-11.73,2.86-7.08-0.99-29.59,1.52c-8.92,0,0.28,0.75,1.72-5.25
		c1.8-7.52,4.14-7.56,4.44-13.23c0.32-5.86,0.55-8.1,1.82-10.5c2.89-4.81-2.55-21.41-1.21-4.04c-3.66,6.24,0.43,6.58-6.36,26.46
		c-2.71,7.94-15.35,2.1-16.26,5.15c3.64,4.5,13.64-3.72-2.22,8.79c-2.93,2.31-21.51,3.93-21.61,3.94
		c-3.23-4.44-7.27-8.48-11.72-12.32c5.25-5.25,7.97,3.94,9.19-12.22c0.69-9.11,2.64-10.51,1.82-15.45c1.98-2.16,0.96-1.93-1.41-2.52
		c-1.07-2.86-1.6-2.1,1.72-2.93c0.4-2.12,0.71-4.04,1.01-6.06c-1.21-1.41-3.23-2.32-3.13-4.75c4.52-1.13,2.33,5.5,5.15,7.39
		c-0.1,0.9-0.1,1.8-0.2,2.71c3.09,0.24,4.61-11.62,6.77-13.84c4.42-4.53,3.49-8.44,6.26-9.59c3.12,0,2.1,0.93,2.53-1.21
		c0.81-0.51,2.22-0.2,2.52-1.82c-2.53-4.65-0.7-3.64-6.67-3.64c3.05-2.29,1.03-3.44,6.46-0.61c2.26,1.18,1.21,1.72,2.53,3.03
		c1.21-0.51,0.1-1.62,0.71-2.22c10.42-1.67,11.82,1.66,21.31-0.71c0.32,5.17,0.35,10.32,2.93,13.13c-0.74,3.7,0.36,1.98-5.96,5.05
		c-3.66,1.77-4.65,5.25-2.73,8.79c0.2-1.21,0.4-2.32,0.61-3.74c2.73,1.01,4.95-0.2,7.37-0.91c3.34-12.95,2.02-2.27-0.5-23.13
		c1.92-3.43,5.86-4.04,8.28-6.77c-0.45-2.71-0.45-0.84,0.3-3.84c-3.65-1.64-10.32,2.14-2.52-2.42c1.61-0.94,0.65-2.59-1.01-2.22
		c-3.88,0.86-3.27,1.89-4.14,1.52c0-9.13-0.8-6.76-3.64-4.24c-2.32,1.84-1.31-0.81-3.43-0.61c-2.37,0.22-7.09,1.27-9.39,2.42
		c-0.91-0.81-1.72-1.11-2.73-1.01c-11.56,0.37-12.27-0.54-13.33,2.12c-0.47,1.18-2.22,0.97-2.22,0.3c0-5.34-2.74,1.35-8.38,2.63
		c-3.49,0.79-2.31,0.78-5.86-2.12c-1.01,0.1-2.12-0.71-3.43,0.4c2.6,3.9,3.31,3.08,0.81,4.75c-0.4,1.11,0.1,2.42-1.11,3.23
		c-0.2,0.2,0,1.01,0,1.62c0.91-0.3,1.82-0.5,2.93-0.91c2.45,2.86,2.14,2.16,4.85,1.62c0.61,1.31,0.1,1.92-0.71,2.52
		c-3.23-1.41-3.23-1.41-7.37,0.81c0-3.16,3.42-2.17,0.3-4.04c-2.5,0-1.81-0.08-0.91,1.72c-1.57,1.57-9.57,17.02-3.84,26.97
		c2.32,4.03-1.34,4.07,1.01,8.18c1.75,2.52,5.62,14.03,0.81,26.87c-8.09,2.11-12.08,7.19-15.86,7.47
		c-7.17,0.54-7.48,2.58-12.22,2.93c-4.56,0.33-13.44,6.73-16.87,14.34c-0.56,1.25-1.72,0.48-3.33,2.63
		c-3.78,4.34-7.34,9.94-7.78,15.65c3.06-4.59,18.85-31.44,22.02-26.16c1.72-0.71,3.64-0.8,5.05-2.02
		c9.83-8.55,23.41-3.03,35.25,3.74c-1.79,0.39-12.57,2.05-9.9,4.34c10.08-2.16,14.11-4.77,17.88-3.94
		c4.64,1.02,8.48-1.11,12.42-1.11c4.47,0,3.74-2.41,13.23-9.19c13.53,1.93,22.06-2.02,31.21-1.01c7.25,0.8,26.26-3.62,29.9-3.74
		c3.33-0.11,6.29-1.04,9.29-2.32c4.41-1.89,9.86-1.18,12.62-2.32c0.94-0.47,4.84,2.23,12.12-1.31c1.91-0.93,3.63-2.34,5.55-3.23
		c2.01-0.93,4.36-1.39,6.36-2.32c10.71-4.99,7.45-4.81,11.72-3.53c1.82,4.46,14.71-0.5,20.5,0.51c0.19,3.1-5.11,4.18-8.18,4.44
		c-6.28,0.55-6.13,1.68-12.02,2.02c-17.8,1.02,2.25,1.54,3.74,2.93c0,0.23,3.2-0.88,3.84-1.51c1.62-1.62,3.33-1.52,5.96-1.31
		c-1.82,0.71-3.03,1.11-4.75,1.72c2.38,0.2,0.83,0.58,5.96-0.61c-0.68,0.68,1.81-1.56,3.64-1.31c0,0.89-0.38,0.71,1.92,0.71
		c-1.8,2.16-9.24,2.4-10.6,3.53c-2.03,1.45-2.92,1.25-6.67,2.32c1.1,2.2,1.03,0.25-2.02,5.96c-0.2,0.51-0.4,1.21,0.5,1.31
		c5.77-7.42,5.86-9.61,15.86-9.29c1.7,4.15-1.2,6.05-5.15,6.97c-8.74,2.03-4.11-0.32-11.11,5.66c-4.42,3.77-20.35,6.92-24.44,2.83
		c8.22-5.14-3.16,0.69-6.36,0.2c-7.53-1.14-12.24,2.87-15.96,5.05c-4.56,2.67-47.77,18.58-48.18,19.39
		c-0.86,1.08-0.51,1.52-1.72,1.52c-7.59,0-11.15-4.32-8.69,0.61c-3.42,4.06-12.27,1.8-11.01,4.95c1.72,0.4,3.54,0.81,5.35,1.31
		c0.51,5.25-1.51,9.49-4.24,13.53c-0.64,1.28-6.57,3.7-9.8,4.14c0.91-4.54,0.71-9.09-0.51-13.53c24.75-19.25-17.5,11.46-42.22,10.6
		c-11.82-0.41-23.67-4.98-25.55-1.21c1.31,0.91,2.12-0.61,3.53-0.61c0.71,0.51,1.52,1.01,2.12,1.31c0.99,6.43,0.79,10.28,4.95,11.41
		c1.77-1.18,2.11-3.62,1.62-5.86c-1.34-8.7,2.27-2.13,10.3-1.21c1.89,0-13.73,14.87-29.19,11.92c-3.19-0.61-7.02-1.83-11.82-3.03
		c6.2,5.46,17.38,7.91,28.58,2.93c1.36,0,2.32,3.41,2.32-1.21c14.22-10.84,12.21-10.12,14.95-10.4c11.32-1.16,16.53-4.48,22.02-7.47
		c4.03,8.67,8.11,8.79,13.94,9.59c0.48,4.12-6.64,14.31,3.64-0.2c7.11-1.82,11.88-5.77,12.83-7.47c4.74-8.55,3.19-10.74,3.84-13.33
		c1.51-0.57,1.9-0.43,4.95-2.12c2.73,6.83,4.03,30.36,3.84,30.8c-2.32,5.5-1.03,3.05-8.28,10.6c-10.99,11.45-9.33,13.11-12.22,15.45
		c-6.21,5.04-4.33,9.76-16.46,28.38c-2.16,3.31-2.99,5.41-5.86,6.57c-10.82,4.34-17.12,15.11-28.38,21.61
		c-0.93,0.54-0.17,2.59,4.85-1.21c15.11-11.42,8.07-12.47,25.65-18.18c3.06-0.99,3.91-1.75,6.06-2.83c1.97,1.97,3.04-1.2,9.39-2.22
		c0.4,0.51,0.81,1.01,1.21,1.41c19.45,4.49,45.42-10.33,6.16,13.74c-1.51,1.14-0.85,1.27-0.71,1.11
		c29.99-16.36,19.52-13.96,24.54-15.15c1.81-0.43,6.06-0.1,8.48,0.61c-1.6,2.13-10.47,9.92-19.49,34.74
		c-2.76,7.6-12.2,14.51-12.02,32.02c0.02,2.02-0.51,3.94-0.81,5.86c-51.66-10.33-53.16-1.7-62.52-9.19
		c2.99-1.28,12.58-7.08,13.1-7.79c0.28-0.08,0.52-0.29,0.7-0.71c-0.65-0.09-1.18-0.12-1.37,0.73c0.09,0.02,0.18,0.02,0.27,0.03
		c-1.09,0.43-4.4,2.13-11.28,5.93c-0.5,0.2-1.01,0.71-1.62,0.3c0.3-1.21,0.3-1.21,4.04-3.74c-0.98-0.54-4.03,1.9-2.12-1.92
		c1.12-3.35,3.34-5.98,1.72-11.31c-0.71,2.53-0.28,5.16-1.52,7.58c-1.19,2.33-1.62,5.05-3.13,7.27c-5.73,1.91-5.38,1.95-6.77,3.43
		c0.62-0.14,4.95-1.34,5.76-1.52c0.51-0.26,0.93,0.79,0.51,1.21c-0.88,1.02-6.37,0.91-10.2,0.91c-2.38,0-0.9-0.84,0.2-3.74
		c1.54-4.03-0.52-3.52-1.01-6.77c-1.33-8.84,0.02-11.28-0.71-15.65c-0.86-3.46,0.4-5.43,1.82-8.89c4.6,0,5.95,0,13.33-1.01
		c1.72,2.73,2.15,5.67,2.73,8.58c0.44,2.21-3.03,1.75,1.11,3.13c1.56-2.28,27.49-15.04,26.97-19.52
		c-0.1,0.07-13.58,12.2-26.46,16.49c-0.91-3.23-1.72-6.16-2.63-9.19c31.8-6.81-6.07,0.6-14.54-0.61c0.35-4.91,0.67-3.5,4.04-2.52
		c6.3,1.82,12.98,2.34,16.56-2.53c-12.75,1.13-8.86,1.27-19.39-0.71c-1.52-3.42-3.23-6.51-3.94-7.68
		c-3.39-5.54-10.45-9.19-14.24-9.19c-3.98,0.27-15.93-4.95-20.2-6.56c-7.65-2.88-2.17,0.51-6.36-4.75
		c-5.28-6.62-8.03-0.9,9.49-18.68c2.11-2.14,5.35-5.58,5.35-8.58c0-6.13,5.72-0.06,8.89-26.97c0.2-1.11-0.62-2.22-0.81-3.43
		c-4.21-26.53-1.69-23.61-3.23-27.47c-4.42,7.23,1.71,25.28,1.52,31.41c-0.46,14.75-6.91,21.37-7.68,23.94
		c-2.97,10.01-15.95,11.85-18.48,23.84c-0.21,1.01-1.72,0.81-1.62,2.12c0,0.81,1.21,1.21,0.71,2.02c-5.11,4.38-1.79,3.73,8.18,6.67
		c16.5,4.85,10.79,4.04-1.01,4.04c0.95-3.78-7.71-3.49-12.83-5.35c0.02-0.03,4.04-7.1,4.14-7.27c-2.96,0,0.53-0.77-9.39,7.17
		c0.77,2.05,0.92,2.14,1.62,2.12c4.09-0.1,6.76,0.98,14.14,2.32c-17.66,5.22-23.17,8.22-18.79,7.07
		c16.31-4.26,17.74-5.41,19.69-5.25c16.01,1.26,12.88,0.83,3.03,2.52c4.18,1.63,14.4-1.62,15.86,0.81
		c-1.12,0.7-18.87-0.02-26.26,13.84c-2.8,5.26-2.73,8.22-3.33,14.54c-0.73,7.69,1.91,10.95,4.65,15.05
		c-3.11,6.22-2.27,6.55-6.16,0.91c-3.6-5.22-3.14-5.9-4.44-9.8c-1.32,3.64,0.54,9.04,2.42,12.12c4.59,7.52,4.56,2.11,3.94,6.97
		c-1.2,9.48,0.06,9.63-7.57,5.96c-8.41-4.04-15.86-12.29-15.86-22.83c0-33.72,8.47-31.73,10-34.44c0.51-0.91,0.51-2.02-0.3-3.03
		c-0.4-0.1-0.91-0.1-1.31-0.2c3.52-7.04,6.98-2.62,9.8-6.46c-1.38-0.31-2.95-1.16-4.44-0.91c-3.85,0.65-9.03,5.43-6.87,10.3
		c-0.86,0.94-5.1,4.14-6.16,12.32c-0.94,7.27-5.59,15.73-2.02,30.4c0.99,5.31,6.99,7.96,9.29,12.42c9.23,8,11.43,5.33,13.63,7.98
		c0,27.03,10.51,42.49,7.98,68.07c-1.1,11.14,1.38,12.49-2.52,15.25c-3.44,2.43-2.52,8.57-1.41,22.93
		c-3.1,2.33-3.33,11.37-3.33,15.25c0,0.98,2.16,4.4,5.55,5.05c4.82,0.92,6.37,2.57,9.9,2.83c13.04,0.97,37.03-4.18,28.99-4.34
		c-18.78-0.38-13.98,4.52-36.97,0c-2.72-0.54-4.54-1.82-6.36-3.94c2.71-8.58,5.07-9.65,4.34-15.96c-3.07-26.67-1.55-15.42,3.43-20.6
		c2.81-2.93,1.27-6.6,3.13-11.01c10.5-3.23,10.1-4.14,13.03-3.43c1.31,2.42,1.41,5.76,4.54,6.97c2.05,5.34,0.88,8.49,2.53,11.31
		c3.26,6.52,3.89,6.24,4.65,8.48c2.23,6.58,6.15,7.92,6.57,11.72c0.59,5.43,1.82,4.91,1.82,9.8c0,7.02,4.18,9.01,3.33,2.32
		c-0.57-4.49,0.83-1.91-1.01-5.76c-1.05-2.2-2.87-4.26-2.02-6.97c0.58-1.84-9.62-17.15-9.7-17.27c-4.06-6.01-0.15-3.17-3.74-13.94
		c-0.81-0.61-1.62-1.21-2.52-1.92c0-27.41,3.28-29.56,13.63-52.12c5.65-12.31,2.26-21.15,7.88-26.76
		c17.44-2.55,18.37,1.11,20.3,1.11c7.47,0.61,14.84,2.3,22.42,2.63c3.13,0.13,6.16,0.31,9.29,0.71c35.16,4.49,26.96,6.55,41.01-9.49
		c1.22,1.83-2.04,4.78-4.24,16.97c-1.21,6.68-1.09,8.4-1.3,10.03c3.56-15.48,2.83-20.02,7.66-28.11
		c10.95-18.31,32.19-24.11,23.03-21.82c-3.43,1.11-6.57,2.79-10.1,3.64c-1.16,0.28-3.38,0.54-4.14,1.11
		c-4.95,3.75-20.65,10.4-22.12,10.4c-0.51-0.61-0.1-1.01,0-1.41c2.9-8.52,8.68-14.41,10.2-16.36c0.39-0.59,6.74-17.86,14.54-28.68
		c5.66-7.86,3.62-9.72,31.11-1.51c2.18,0.65,3.5,3.74,10.1,8.48c1.99,1.43,4.29,5.36,2.93,7.88c-0.2,0.51-0.7,1.11-0.71,1.62
		c-0.19,15.08-17.87,46.51-20.5,49.19c-10.41,10.6-28.9,36.04-33.23,50.2c-0.51,1.68-2.43,1.62-3.13,4.14
		c-1.04,3.72-4.17,4.87-10,8.48c-23.46-7.47-7.9-2.54,1.41-35.75c0.95-3.39,1.72-6.39,2.38-9.09c-0.15,0.46-0.33,0.99-0.56,1.62
		c-1.56,4.28-9.47,27.88-17.07,37.37c-1.54-0.88-2.77-1.68-3.74-0.71c-0.88,0.88,4.07,14.76,9.7,12.83
		c0.1-0.03,12.87-0.35,12.42-5.76c3.84-2.22,7.68-4.34,8.79-8.99c1.11-0.51,2.32-0.41,3.03-1.72c0.6-1.11,1.72-0.91,2.73-0.4
		c2.86,6.08,3.37,6.95,1.72,8.89c-1.75,2.06-4.89,5.65-3.54,7.98c4.26-0.3,4.22-7.1,6.67-3.84c-2.16,2.38-4,3.74-3.53,6.06
		c0.45,2.23,2.77,1.09,4.34-0.3c4.58-4.06,2.24-4.43,4.95-2.63c-0.39,0.69-1.72,2.23-1.92,3.43c0,1.14,0.58,2.09,2.02,1.51
		c2.03-0.81,3-3.99,4.24-2.12c-1.89,5.67,0.21,6.26,3.33,3.13c1.63-0.98,0.9-1.89,3.13-0.1c-1.82,2.91-1.21,1.93-1.21,3.23
		c3.25,0.17,1.89-3.77,6.36-1.01c4.59,2.83,4.77,1.31,6.36,1.31c2.53,0.2,5.05,0.51,7.47,0.71c1.72,2.52,4.24,8.58,5.25,12.22
		c-11.93,7.29-3.89,2.71-23.13,4.54c-7.51,0.72-27.71,3.08-31.81-3.33c-7.87-0.79-3.85,3.47-26.26,3.13
		c-5.5-0.08-7.78-2.4-11.72-5.55c0-0.91,0.74-2.13,1.31-2.83c2-2.42,1.6-5.1,3.23-13.13c0.71-3.5,3.75-6.45,2.12-12.12
		c-1.07-3.73,3.14-4.58,3.03-5.76c-0.43-0.14-0.93-0.43-1.72,0.1c-5.4,2.93-1.89,7.09-3.74,12.63c-0.99,3.97-3.2,8.81-3.43,13.53
		c-0.11,2.22-1.82,4.04-2.02,6.36c0,0.2-0.3,0.3-0.4,0.51c-2.92,4.78,7.46,12.73,34.24,7.37c0.9,0,0.31-1.31,4.75-1.31
		c14.72,7.36,26.81,5.56,45.75,2.32c4.99-0.85,6.73-2.38,12.52-5.86c2.04-3.67-1.21-8.23-3.94-11.41c-3.21-3.74-2.26-3.3-10.3-3.64
		c-3.73-0.47-4.76,0.45-7.88-1.92c-4.71-3.58-8.34-4.73-14.75-8.28c-11.32-6.28-4.94-13.36-13.23-16.56
		c3.99-15.47,30.83-45.45,30.91-45.55c13.17-18.3,12.47-27.2,14.64-30.1c9.56-12.74,3.9-14.75,7.07-22.02
		c2.1-4.8-1.4-9.83-1.92-10.91c-2.58-5.37-7.37-8.28-12.32-10.6c-0.81,0.3-1.31,0.51-1.82,0.71c-4.9-2.8-11.74-5.08-17.98-4.75
		c-3.46,0-3.82-2.06-4.85-1.72c-2.1,0.7-7.86-1.95-13.84-1.52c-23.79,1.74-21.09,4.73-26.66,1.01c-2.18-2.02-4.2-0.87-8.48,0.91
		c-1.11-0.55,0.29-3.55-2.83-1.82c-4.89,3.32,9.8-11.79,9.7-20.4c-0.04-3.59,8.18-11.07,18.08-23.03
		c0.95-1.15,16.55-23.93,20.4-27.77c2.12,0.71,4.04,1.71,5.96,1.92c6.36,0.69,12.75,0.46,18.68-2.22
		c16.53-7.46,17.85-8.56,22.42-12.02c5.26-3.98,13.76-2.62,13.93-6.45c16.64,1.39,28.3-10.93,33.95-12.33
		c5.94-1.48,10.45-4.94,12.62-6.06c16.34-8.43,14.12-2.71,20.6-7.57c5.3-3.98,2.03-2.79,6.87-2.73c7.33,0.09,8.89-4.75,10.91-6.77
		c9.01-10.52,20-10.69,20-12.83C817.64,253.87,820.25,252.44,818.76,250.95z M628.07,222.07c0.62-1.11,2.22-0.61,2.22-0.2
		C629.68,222.47,630.16,222.77,628.07,222.07z M636.45,191.77c-0.51,1.31-0.91,2.32-2.42,3.33
		C633.47,191.78,632.46,192.1,636.45,191.77z M628.27,185.1c1.11,1.41,1.11,1.41-0.81,2.52
		C627.66,186.82,627.97,186.01,628.27,185.1z M625.24,199.85c0.77,0,0.32,0.51,0.2,0.51C625.17,200.35,624.85,199.85,625.24,199.85z
		 M610.59,197.32c0.3-0.4,0.4-0.91,0.61-0.91c0.91,0,1.11,0.51,1.21,1.21C611.81,197.53,611.3,197.53,610.59,197.32z M620.19,198.03
		c0.26,0,0.69,0.22,0.4,0.51C619.86,198.17,620.19,198.25,620.19,198.03z M617.77,189.14c0.2,0.1,0.4,0.2,0.51,0.2
		C617.87,189.74,617.5,189.41,617.77,189.14z M617.26,192.58c0.66,0.66,1,0.11-0.2,0.91C616.69,193.12,616.85,193.39,617.26,192.58z
		 M618.98,199.75c-2.12-0.1-3.13-0.81-4.54-1.51C616.25,198.13,616.25,198.13,618.98,199.75z M613.93,195.1
		c0.43,0.43,0.47,0.04-0.51,1.01C613.02,195.71,613.31,195.72,613.93,195.1z M612.82,188.64c-1.21,1.52-1.21,1.52-3.03,2.63
		C609.89,188.44,609.99,188.33,612.82,188.64z M603.93,186.52c0.2,0,0.2,0.3,0.3,0.51c-0.2,0-0.4,0.2-0.51,0.1
		C603.15,186.55,603.83,186.42,603.93,186.52z M584.94,190.35c-0.1,0,0.1-0.2,0.2-0.4c0.3,0.2,0.71,0.4,1.11,0.71
		C585.59,191.1,585.71,191.12,584.94,190.35z M588.32,228.99c0.11-0.54,0.29-1.11,0.56-2.07
		C589.07,228.15,589.07,228.23,588.32,228.99z M591.61,196.92c0.05-0.05-0.06-0.54,0.2-0.81
		C592.16,196.46,592.3,196.57,591.61,196.92z M597.87,207.42c-0.2,1.21-0.81,1.72-1.92,2.12c0-0.91,0.1-1.62,0.2-2.63
		C596.86,207.12,597.36,207.22,597.87,207.42z M592.21,201.06c0.2-1.72,0.2-1.72,3.84-4.75
		C596.35,198.03,595.04,199.55,592.21,201.06z M595.04,189.75c-0.71,2.12-2.02,2.02-3.94,1.82
		C592.72,191.16,593.22,189.75,595.04,189.75z M591.4,210.05c-0.2,0.4-0.3,0.91-0.4,0.91C590.31,210.84,590.83,210.44,591.4,210.05z
		 M589.18,213.99c0.3-0.3,0.71-0.61,1.31-1.11C591.86,216.07,587.75,215.99,589.18,213.99z M589.49,224.29
		c0.21-0.42,0.22-0.71,0.21-0.83c0.01,0.05,0.04,0.12,0.09,0.23C589.69,223.89,589.59,224.09,589.49,224.29
		c-0.2,0.3-0.2,0.71-0.3,1.01c-0.7,0-0.71,0.08-0.71-0.3C588.68,224.59,588.88,224.09,589.49,224.29z M588.58,212.98
		c-1.21,0.71-1.82,1.11-2.42,1.41C585.85,212.68,586.05,212.57,588.58,212.98z M584.84,212.57c-0.1,0.1-0.1,0.2-0.1,0.3
		C584.74,212.69,584.5,212.92,584.84,212.57z M575.35,211.77c0-0.25-0.03-0.24,0.1-0.1L575.35,211.77z M576.05,222.67
		c0-0.39-0.05-0.33,0.2-0.2L576.05,222.67z M582.52,230.96c0-0.56-0.3-0.41,0.1-0.81C582.72,230.36,583.15,230.96,582.52,230.96z
		 M582.92,211.87c-0.3,1.41-0.61,2.73-0.91,4.04C580.51,210.65,582.92,211.25,582.92,211.87z M578.98,234.9
		c-0.43-0.86,0.1-0.91,0.2-0.81C579.39,234.5,579.72,234.9,578.98,234.9z M579.39,230.35c-2.12-2.97-2.96-3.2-0.51-5.35
		c1.21,0.2,1.82,1.11,2.12,1.92C580.5,228.03,579.99,229.14,579.39,230.35z M568.38,268.43c0.21-0.85-0.24-0.64,2.52-2.02
		C576.7,272.21,577.01,271.72,568.38,268.43z M575.24,271.15c-0.06,0-0.09-0.04-0.13-0.1C575.3,271.19,575.68,271.15,575.24,271.15z
		 M754.81,255.61c0.61-0.61,0.56-0.67,0.82-0.41C755.34,255.48,755.6,255.7,754.81,255.61z M757.55,251.16
		c0.52-1.81-1.58-3.54,7.07-3.74c-1.41,4.24-3.54,5.76-7.98,5.96C756.94,252.57,757.35,251.86,757.55,251.16z M608.47,327.01
		c-3.41,0.78-8.33,0.09-11.21-3.03c-5.5-5.94-2-4.05,4.65-6.26c4.78-1.59,7.27-3.96,7.27-2.12
		C609.79,319.33,609.79,323.17,608.47,327.01z M494.85,390.64c1.51-0.91,2.52-0.3,3.64,1.01
		C497.07,391.75,495.96,391.85,494.85,390.64z M522.83,401.65c-0.12,0.06-0.61,0.3-0.61-0.2
		C522.88,401.44,522.83,401.1,522.83,401.65z M530.6,484.06c-10.03,32.38-12.94,21.76-14.14,53.53c-1.21,0-0.91-1.21-1.92-1.82
		c-4.41-1.05-6.01,0.15-15.86,3.43c-1.45-0.73,1.57-3.18-0.3-20.1c-2.1-18.92-13.13-47.52-5.45-64.84
		c4.21-9.5,6.69-11.64,4.95-21.21c-0.78,1.76-0.74,0.37-1.11,7.47c0,8.28-8.82-1.37-3.74-18.28c2.51-8.34,9.94-14.28,13.84-14.85
		c12.76-1.86,9.75-2.93,12.12-2.93c5.66,0,7.76-0.33,11.31,1.11c20.6,8.37,9.4,20.46,8.79,27.17c-0.46,5.04,0.46,7.78-3.23,12.52
		C529.94,443.8,536.8,464.05,530.6,484.06z M536.87,462.65c-0.81-2.32-1.11-5.25-1.11-12.63c6.29-11.54,1.43-6.13,6.87,4.75
		C541.61,457.7,540.3,459.42,536.87,462.65z M637.56,449.22c0.1-0.71,0.51-0.81,1.11-0.81
		C638.57,449.22,638.17,449.32,637.56,449.22c-13.11,15.61-13.75,16.92-15.86,18.38c-1.31-1.41-1.63-3.03-1.41-4.85
		C621.82,450.08,618.35,456.9,637.56,449.22z M613.52,536.18c-2.71-0.2-3.56-3.89-3.03-5.76c3.84,1.82,7.47,3.84,12.02,4.65
		C619.1,536.96,619.07,536.59,613.52,536.18z M600.53,396.26c0.16-0.16,0.32-0.32,0.48-0.48
		C600.99,396.06,600.81,396.22,600.53,396.26z M601.11,395.6c0.02-0.4,0.2-0.65,0.6-0.62C601.75,395.45,601.51,395.64,601.11,395.6z
		 M602.49,394.25c-0.1,0.41-0.29,0.66-0.68,0.63C601.84,394.39,602.03,394.15,602.49,394.25z M752.76,268.27
		c-0.13,0.38-0.48,0.45-1.58,0.36C752.13,268.38,752.49,268.34,752.76,268.27z M747.55,269.54c0.4-0.51,0.81-0.51,1.41-0.3
		c-3.37,0.67-0.95,1.22-6.26,1.52C744.22,269.13,745.93,269.54,747.55,269.54z M794.92,267.92c-2.29,1.15-1.76,4.95-9.7,4.95
		c-1.12,0,1.49-3.79-2.53-6.16c1.11-1.01,2.53-1.21,3.03-2.63c0.14-0.56,3.88-1.93,5.66-3.23c-2.95-1.24-5.83,1.4-7.78,3.94
		c-0.91-1.31-0.91-2.93-2.83-3.33c-16.41,4.47-13.77,5.87-6.46,4.44c1.76,2.65-0.78-0.35,5.76-3.33c2.47,2.47,0.89,3.57-1.01,7.37
		c-1.01,1.62-2.83,0.91-3.53,2.32c1.51,0.71,2.63,0,3.84-0.51c0.92-0.31,0.62-0.43,2.63-3.43c5.62,4.21-4.48,10.31-10.61,10.2
		c-5.18-0.1-5.93,3.42-10.1-5.55c-1.82,6.06,5.86,5.72,1.52,7.98c-9.81,5.11-11.56,7.15-18.48,9.39
		c-9.25,2.99-17.29,9.61-31.71,12.02c0,2.03-0.51,0.69-1.82,1.21c-8.09,2.49-6.89,0.56-11.01,2.83c-2.2,1.21-7.15,6.12-16.87,10.1
		c-4.1,1.68-16.12,4.52-22.32,4.14c-5.71-0.35-6.77-1.23-8.99,0.5c-3,2.35-5.74,3.74-7.78,6.26c-5.89,7.28-5.6,9.28-5.55,4.95
		c0.24-23.13-3.66-25.2-4.24-28.68c4.08-0.82,1.9,2.78,14.75-2.22c41.14-16.01,36.79-13.78,48.28-20.91
		c2.31-1.43,5.05-1.62,7.47-2.52c0.4-0.2,0.91,0.1,1.41,0.1c5.67,0.47,4.34-0.74,8.08,0.51c3.5,1.17,7.01,2.93,10.81,1.51
		c0.1-0.04,8.93-1.8,14.44-5.96c2.03-1.53,19.86-1.76,23.53-7.58c2.12-3.35,4.31-0.57,11.92-6.97c8.28-6.96,5.83-2.69,30.2-8.79
		c1.1,4.4-1.8,3.89-6.26,4.85c-6.12,5.51-5.38,3.02-6.46,4.65c2.23,1.55,4.68-1.58,3.23,1.82c2.74,0.27,2.62-2.72,8.99-1.92
		C797.78,263.56,805.12,260.69,794.92,267.92z M803.18,257.12c-1.89,1.6-0.38,0.67-6.2,2.45
		C799.45,256.79,798.55,257.15,803.18,257.12z M796.76,259.81c0.04,0.34-0.7,1.04-0.03,0.03
		C796.75,259.83,796.76,259.82,796.76,259.81z M803.91,257.82c0.71-1.11,1.41-1.52,2.83-1.01
		C805.83,257.62,805.12,258.13,803.91,257.82z M808.76,257.12c0.3-0.91,0.61-1.51,2.12-0.91
		C809.97,256.61,809.36,256.91,808.76,257.12z M808.86,254.19c-5.8,2.48-3.95-0.06-2.73-3.43c1.62-0.1,3.13-0.71,4.75-0.61
		C811.08,252.07,810.48,253.49,808.86,254.19z"/>
	<path d="M627.92,488.4c0.33-1.02,0.47-1.7,0.56-2.39C628.31,486.78,628.12,487.58,627.92,488.4z"/>
	<path d="M617.66,411.85l0.1,0.1C617.74,411.82,617.78,411.77,617.66,411.85z"/>
	<path d="M588.78,417.1h-0.1C588.68,417.2,588.66,417.18,588.78,417.1z"/>
	<path d="M569.29,452.85c0,0.16-0.09,0.05,0.1,0.1L569.29,452.85z"/>
	<path d="M105.09,568.4c1.92,0.1,3.54-0.68,5.15-1.31c6.51-2.56,9.52-2.3,11.72-3.03c-1.24-3.73-19.06-0.68,0.2-3.53
		c1.37-4.11-17.27-3-20.1,2.93c-1.89,3.96,4.53-0.2,7.37-0.2c-0.98,0.98-0.82-0.49-3.84,2.53
		C104.89,566.48,104.59,567.39,105.09,568.4z M111.86,562.13c0.31,0,1.12,0.81-0.91,0.3C111.35,562.34,111.66,562.24,111.86,562.13z
		"/>
	<path d="M501.82,566.38c2.76,0,16.24-3.09,15.45-5.45c-0.96-2.87-17.39,3.01,2.32-4.44c-4.78-1.74-21.89,2.36-19.9,5.15
		c1.92,0.81,3.84-0.1,6.06-0.1C501.82,564.15,501.82,564.15,501.82,566.38z M508.08,560.92c0.36,0.36,0.19,0.1-0.1,0.1
		C507.98,561.02,507.98,560.92,508.08,560.92z"/>
	<path d="M104.69,558.2c8.7-2.98,17.57-1.45,17.57-4.34c-0.87-3.48-22.81-3.66-20.91,4.34C102.67,558.5,103.68,558.4,104.69,558.2z"
		/>
	<path d="M195.39,40.88c-0.91-2.63-1.01-2.94-1.92-3.23c-1.91-0.62-3.84-1.32-5.96-0.81c-1.93,0.47-1.86-1.34-6.36,0.91
		c-1.59,0.79-2.97,1.55-1.62,2.22c7.18-3.59,1.3-0.93,9.29-0.5c0.51,0,1.11,0.61,2.12,1.11c-1.62,0-2.63-0.22-3.64,0
		c-5.32,1.16-6.64,0.66-6.46,2.42C197.55,45.02,186.94,41.64,195.39,40.88z"/>
	<path d="M602.72,224.09c3.94,0.71,7.27,1.11,10.71,0.4c1.01-1.82,1.01-1.82,4.14-2.73c-0.16-3.33-3.07-3.84-6.87-3.84
		c-4.06,0-6.33-0.58-9.59,3.13c1.92,0.4,2.93-1.52,4.85-1.62c1.82,1.62,4.75,0.61,7.07,2.42
		C612.86,221.88,606.39,221.64,602.72,224.09z"/>
	<path d="M517.98,550.82c-4.55-0.57-18.4,2.36-20.81,7.17c0.61,0.2,0.71,0.3,0.81,0.2C508.86,554.14,523.37,550.82,517.98,550.82z"
		/>
	<path d="M167,69.76c-1.68-5.3-1.59-3.36-2.83-12.02c-0.32,0.11-1,0.04-1.01,0.71c-0.05,2.73-0.6,5.55,0.81,8.08
		c0.51,0.91-0.3,1.52-0.1,2.53C179.13,81.41,184.88,81.85,167,69.76z"/>
	<path d="M600.8,259.54c-3.43-3.84-7.78-6.06-11.61-8.58c-1.11-4.04-2.93-7.78-2.42-11.92c-2.81-0.84-1.43,6.96-0.51,8.89
		c0.43,0.9,0.65,0.81-0.4,2.12c4.54,3.64,9.09,6.87,13.74,9.8C599.79,259.94,600.19,259.74,600.8,259.54z"/>
	<path d="M117.41,596.37c6.25-2.92,11.86-3.04,15.65-2.12c1.05,0,0.31-1.57-0.51-1.82C117.64,587.82,111.44,598.61,117.41,596.37z"
		/>
	<path d="M112.16,572.03c0.94-0.37,8.44-3.4,9.29-4.24c-0.3-3-13.38-1.05-12.73,4.14C110.04,572.44,111.15,572.43,112.16,572.03z"/>
	<path d="M112.16,577.28c2.6,0.31,7.35-1.81,8.69-4.75c-1.02-0.51-2.16-2.51-9.09,0.51C109.49,574.18,109.57,576.98,112.16,577.28z"
		/>
	<path d="M517.27,592.74c9.38-2.69,11.03-0.97,12.93-1.92c-0.32-3.53-15-2.4-17.78,2.22C514.25,593.35,512.42,594.13,517.27,592.74z
		"/>
	<path d="M508.38,575.16c2.23,1.41,7.14,0.46,9.9-3.53C515.94,567.82,504.75,572.87,508.38,575.16z"/>
	<path d="M513.53,568.9c1.31-0.61,2.63-1.21,3.23-2.93c-0.4-0.3-0.91-0.9-1.41-0.91C503.85,564.88,500.58,574.93,513.53,568.9z"/>
	<path d="M575.14,435.58c-0.04-0.1-0.01-0.19-0.1-0.1L575.14,435.58z"/>
	<path d="M575.1,435.44c2.56-1.59,2.76-3.55,14.38-10.26c9.1-5.26,9.17-6.04,10.71-7.57C600.09,417.67,573.74,431.5,575.1,435.44z"
		/>
	<path d="M610.09,397.4c-7.22,5.7-16.22,16.12-15.45,17.27c6.8-5.1,6.74-4.73,5.25-5.45C603.58,404.6,617.61,393.64,610.09,397.4z"
		/>
	<path d="M600.8,409.73l-0.1-0.1C600.7,409.68,600.68,409.65,600.8,409.73z"/>
	<path d="M698.26,272.97c2.13-1.64,3.12-1.09,3.74-2.32c-2.9-2.18-1.74-2.14-10.3,2.22C687.85,274.83,694.62,275.77,698.26,272.97z"
		/>
	<path d="M614.33,447.2c0.25-0.25,1.06,0.14-11.01,9.19c-3.92,2.61,6.79-0.24,17.17-14.14c0.41-0.55,0.31-1.74,0.61-1.51
		c-0.23-0.23,1.11-0.11,1.11-1.72c-1.01,0.1-2.02-0.2-2.53,1.01c3.73,0.93-13.5,10.37-17.07,13.23
		C607.21,452.49,615.35,446.18,614.33,447.2z"/>
	<path d="M616.55,441.24c-0.21,0.13-0.19,0.1,0.1,0.1L616.55,441.24z"/>
	<path d="M603.12,440.03c9.91-7.7-3.67,0.24-4.34,2.51c-0.17-0.03-0.7,0.21-1.72,0.82c-9.57,6.81-14.75,8.22-18.98,10.84
		c5.86,0.7,19.56-9.73,20.68-11.43c0.01,0.03,0,0.06,0.02,0.09c3.45-1.62,5.8-0.2,7.17-0.2c11.23-0.72,9.34-0.6,10.45-1.31
		C603.48,441.03,603.5,441.56,603.12,440.03z"/>
	<path d="M183.37,117.03c7.8,12.85,6.3,12.62,8.79,15.35C191.35,128.21,186.85,115.87,183.37,117.03z"/>
	<path d="M626.86,413.97c9.68-9.68,18.29-13.55,19.59-14.85C644.55,398.17,627.51,409.42,626.86,413.97z"/>
	<path d="M577.87,454.17v0.01c-0.03-0.01-0.06,0-0.1-0.01c0.16,0.07-0.08,0.33,0.31,0.03c-0.07-0.01-0.13-0.01-0.2-0.02
		L577.87,454.17z"/>
	<path d="M203.67,67.14c-0.87-2.27-4.77,0.26-13.03-0.2c-0.4,0-0.91,0.51-1.31,0.71c0.3,1.11,1.01,1.21,1.62,1.21
		C205.39,67.74,202.74,68.07,203.67,67.14z"/>
	<path d="M569.29,307.41c5.93-0.07,10.35-4.66,9.8-6.87C576.99,301.71,566.08,307.45,569.29,307.41z"/>
	<path d="M607.26,285.09c-2.79,4.18,10.61-0.63,7.57-4.04C612.21,281.56,608.68,283.48,607.26,285.09z"/>
	<path d="M625.95,248.03c-0.5-1.85-4.24,0-9.7,0c-4.21,0-3.42-0.32-4.54,0.81c0.55,0.55,0.35,1.37,3.74,1.01
		C623.52,248.99,626.29,249.32,625.95,248.03z"/>
	<path d="M193.26,73.3c2.18,1.31,2.65,1.09,7.47,0.4c0.96,0,0.8-1.79,0.4-1.92C195.94,68.89,194.75,70.86,193.26,73.3z"/>
	<path d="M208.11,437.91c-0.51,2.32-0.36,2.78,1.51,8.38c2.43,7.24,4.58,1.99-0.3-7.78C209.12,438.21,208.52,438.11,208.11,437.91z"
		/>
	<path d="M618.47,251.56c-2.01,0.12-5.47,4.23,0.91,3.74c1.41-0.2,2.93,0.1,4.14-0.81C624.54,253.73,623.44,251.27,618.47,251.56z"
		/>
	<path d="M615.14,300.44c-5.19,2.6,8.11,5.56,7.27,2.22C619.89,301.35,615.3,300.29,615.14,300.44z"/>
	<path d="M620.39,285.09c0.21,1.27,6.49,0.01,10-3.94C625.6,281.95,620.14,282.55,620.39,285.09z"/>
	<path d="M569.69,406.29c0,0-0.2-0.3-0.4-0.71C551.45,414.5,563.38,413.36,569.69,406.29z"/>
	<path d="M589.79,359.02c-0.47-0.47,0.28-1.06-13.13,7.88C579.05,368.58,588.11,361.39,589.79,359.02z"/>
	<path d="M589.49,415.08c4.99-8.22,9.87-11.04,8.69-12.22C585.34,415.31,587.41,419.92,589.49,415.08z"/>
	<path d="M544.64,344.88c-1.86-5.58-5.36,2.77,0.2,5.15C544.74,348.12,544.64,346.5,544.64,344.88z"/>
	<path d="M546.97,327.61c-0.61-0.71-1.12-0.71-1.62-0.2C534.31,338.74,545.2,333.51,546.97,327.61z"/>
	<path d="M211.34,529.21c0.16,0.31,1.31,0.53,1.31-0.2C211.68,516.35,207.91,520.28,211.34,529.21z"/>
	<path d="M736.74,261.46c-3.45,0-0.95,0.3-11.82,0.3C727.28,263.86,733.87,263.37,736.74,261.46z"/>
	<path d="M201.14,59.56c0.98,0.49,4.1-3.39-3.53-1.62c-1.77,0.41-1.04,2.34-1.01,2.52C198.21,59.86,199.63,59.36,201.14,59.56z"/>
	<path d="M619.58,241.46c1.83-1.22,3.72-0.3,4.75-0.81c3.42-3.42-6.75-2.08-5.55,0.3C618.88,241.26,619.48,241.56,619.58,241.46z"/>
	<path d="M608.88,365.99c0.4-3.84-0.2-5.66-2.22-6.97C606.76,364.28,607.16,365.39,608.88,365.99z"/>
	<path d="M170.14,78.04c-1.13-1.97-1.85-2.93-2.63-2.02C175.37,88.68,175.87,88.01,170.14,78.04z"/>
	<path d="M589.49,256.61c5.57,9.85,9.66,14.1,2.73,2.12C590.52,256.19,590.53,256.76,589.49,256.61z"/>
	<path d="M536.56,349.73c-0.38,0.58-2,2.05,0.3,4.75C541.98,360.48,540.73,359.46,536.56,349.73z"/>
	<path d="M174.88,92.59c2.15,5.16,1.01,5.19,2.42,7.17C178.43,94.51,175.64,90.81,174.88,92.59z"/>
	<path d="M591.61,347.61c-1.92,0.49-3.84,1.11-5.96,2.93C591.57,349.84,594.81,346.79,591.61,347.61z"/>
	<path d="M602.11,339.33c-2.42,2.42-2.93,3.23-3.53,5.45C600.29,343.57,602.62,341.37,602.11,339.33z"/>
	<path d="M577.16,437c0,0.2,0.1,0.51,0.1,0.71C587.44,426.98,579.63,432.09,577.16,437z"/>
	<path d="M582.66,431.35c0.09-0.03,0.17-0.08,0.26-0.11C582.8,431.12,582.85,431.09,582.66,431.35z"/>
	<path d="M606.05,405.79c-2.52,1.26,2.24,1.08,4.95-4.75C608.88,402.15,607.77,404.37,606.05,405.79z"/>
	<path d="M605.34,406.9c0.13-0.25,0.1-0.2-0.1-0.1L605.34,406.9z"/>
	<path d="M569.18,457.8c-2.42,0.3-4.85,1.01-7.17,2.02C564.64,459.92,567.06,459.62,569.18,457.8z"/>
	<path d="M721.69,263.07c-1.83,0.52-6.11,2.58-4.44,3.53C718.56,265.7,720.28,265.2,721.69,263.07z"/>
	<path d="M567.57,283.68c1.82,0,1.82,0,3.43-1.41C569.08,282.16,569.08,282.16,567.57,283.68z"/>
	<path d="M601.13,409.56c2.03-0.48,2.75-1.02,4.11-2.77C603.49,407.28,602.14,408.24,601.13,409.56z"/>
	<path d="M601,409.73c0.13-0.19,0.26-0.19-0.1-0.1L601,409.73z"/>
	<path d="M558.98,342.06c-1.39-0.92-2.28,1.65,0.71,2.02C559.51,343.43,559.33,342.23,558.98,342.06z"/>
	<path d="M572.32,369.02c-3.61,1.8-2.42,1.08-2.42,1.82C571.8,370.3,573.31,370.01,572.32,369.02z"/>
	<path d="M193.16,139.25c-0.1,1.31-0.1,1.31,1.11,2.73C193.67,140.76,194.17,139.75,193.16,139.25z"/>
	<path d="M814.01,249.34c-0.1,0.1-0.1,0.4-0.1,0.81c0.91-0.2,1.72-0.3,2.53-0.4C815.02,248.73,815.02,248.73,814.01,249.34z"/>
	<path d="M573.34,450.01c-3.05,1.35-2.67,1.28-3.24,2.13C571.45,451.85,572.69,451.37,573.34,450.01z"/>
	<path d="M573.53,449.92l-0.1-0.1C573.33,450.05,573.25,450.06,573.53,449.92z"/>
	<path d="M561,345.29c0,0.99,1.82,1.33,1.82,0.2c0-0.4-0.4-0.71-0.71-1.31C561.61,344.68,561.11,344.88,561,345.29z"/>
	<path d="M614.43,313.37c-1.37,1.83,0.14,2.44,1.52-0.3C615.14,312.46,614.74,312.97,614.43,313.37z"/>
	<path d="M688.16,275.5c-0.91-0.3-1.72,0-2.22,0.91C687.46,276.51,687.46,276.51,688.16,275.5z"/>
	<path d="M533.84,364.98c-0.3-0.81-0.81-1.21-2.12-1.21C532.72,365.19,532.72,365.19,533.84,364.98z"/>
	<path d="M615.04,278.93c-0.36,0,0.22,0.99,0.51,0.71c1.41-0.84,1.76-0.96,1.11-1.62C616.15,278.33,615.54,278.63,615.04,278.93z"/>
	<path d="M681.09,280.04c0.91-0.51,1.52-0.81,2.22-1.21C681.7,278.83,681.7,278.83,681.09,280.04z"/>
	<path d="M558.18,373.77c1.62-0.1,2.52-0.1,3.74-0.2C560.7,372.76,559.79,372.76,558.18,373.77z"/>
	<path d="M176.3,88.65c-0.2-0.3-0.51-0.71-0.81-1.11C174,89.03,175.31,89.63,176.3,88.65z"/>
	<path d="M188.42,93.4c-1.36,1.09-1.62,1.11-1.11,1.62C187.73,94.73,189.16,94.43,188.42,93.4z"/>
	<path d="M618.67,311.96c0.61-0.3,1.11-0.61,1.82-1.11C618.57,310.65,618.57,310.65,618.67,311.96z"/>
	<path d="M201.14,421.54c-0.2-0.39-0.91-0.29-0.91,0.3c0.1,0.51,0.4,0.91,0.61,1.41C201.62,422.87,201.93,423.51,201.14,421.54z"/>
	<path d="M734.72,270.45c-0.51,0.51-0.91,1.01-1.52,1.62C735.03,272.16,735.23,271.96,734.72,270.45z"/>
	<path d="M537.77,337.61c1.1-0.18,1.17-1.31,0.81-1.31C537.29,336.12,536.62,338.19,537.77,337.61z"/>
	<path d="M597.87,270.25c0.49,0,1.58-1.31-1.31-1.31C597.06,269.34,597.06,270.25,597.87,270.25z"/>
	<path d="M577.16,437.7c-3.4,1.94-3.05,1.21,0,1.21C577.16,438.41,577.16,438.01,577.16,437.7z"/>
	<path d="M637.26,277.62c-2.43,0.49-1.64,0.56-0.81,1.11C637.51,277.67,637.39,277.89,637.26,277.62z"/>
	<path d="M610.8,431.85c-0.58,0.77-1.24,1.43-1.91,2.1C610.15,433.87,610.71,433.09,610.8,431.85z"/>
	<path d="M608.78,434.07c0.04-0.04,0.08-0.08,0.11-0.12C608.6,433.95,608.68,433.97,608.78,434.07z"/>
	<path d="M586.25,296.81c-0.84-0.42-0.84-0.29-1.52,0.61C586.29,297.72,585.65,297.41,586.25,296.81z"/>
	<path d="M581.81,299.23l0.1,0.2C583.39,298.94,583.73,297.96,581.81,299.23z"/>
	<path d="M550.7,352.66c-0.87-0.87-0.94-0.37-1.21-0.1c0.3,0.3,0.61,0.61,1.01,0.91C550.6,353.07,550.8,352.76,550.7,352.66z"/>
	<path d="M554.74,354.18c0-1.13-1.17-0.79-2.12-0.4C553.69,354.38,553.59,354.56,554.74,354.18z"/>
	<path d="M542.62,358.92c0,0.99,0.77,1.14,1.21,0.71C542.85,358.65,543.57,358.92,542.62,358.92z"/>
	<path d="M192.66,106.93c-0.81,1.31-0.81,1.82,0.1,2.83C192.76,108.75,192.76,108.14,192.66,106.93z"/>
	<path d="M623.12,273.48c-1.27-0.42-0.78-0.04-1.52,0.2C622.81,274.28,621.97,274.25,623.12,273.48z"/>
	<path d="M611,401.14c0.81-0.91,0.81-0.91,0.91-2.42C611.4,399.93,611.2,400.54,611,401.14z"/>
	<path d="M714.83,270.14c0.71-0.3,1.11-0.51,1.62-0.71C715.63,269.03,715.03,269.03,714.83,270.14z"/>
	<path d="M632.81,279.94c0-0.83-0.39-0.46-0.91-0.2c0.2,0.1,0.3,0.3,0.4,0.4C632.51,280.04,632.71,279.94,632.81,279.94z"/>
	<path d="M677.66,281.25c-0.94,0.31-1.24-0.12-1.62,1.01C677.33,282.26,676.92,282.49,677.66,281.25z"/>
	<path d="M737.55,258.93c-2.09,0-1.82-0.09-1.82,0.2C737.83,259.14,737.55,259.22,737.55,258.93z"/>
	<path d="M570.8,402.25c0.81,0.4,1.31,0,1.72-0.81C571.81,401.24,571.31,401.44,570.8,402.25z"/>
	<path d="M553.73,376.4c-0.51,1.21-0.81,1.82-1.01,2.42C553.63,378.11,553.63,378.11,553.73,376.4z"/>
	<path d="M641.8,275.7c-0.1-0.11-1.11-1.11-1.72,0.1C640.43,276.49,640.74,276.12,641.8,275.7z"/>
	<path d="M209.53,508.3c0-1.43,0.1-1.21-0.3-1.21C209.53,508.34,209.06,508.3,209.53,508.3z"/>
	<path d="M596.56,347.11c0.81-0.27,0.91,0.24,0.91-0.71C597.32,346.4,597.22,346.12,596.56,347.11z"/>
	<path d="M210.43,515.17c-0.51,0-0.4-0.24-0.4,1.21C210.34,516.38,210.43,516.56,210.43,515.17z"/>
	<path d="M752.6,258.02c0-1.5,1.02,0,1.51-1.52c-2.67,0.38-0.06,0.85-3.68,0.9C750.95,258.3,751.82,258.13,752.6,258.02z"/>
	<path d="M750.28,257.42c0.21,0,0.16-0.02,0.1-0.1L750.28,257.42z"/>
	<path d="M571.91,437.91c0,0.2-0.24,0.4,1.21,0.4C573.12,438.11,573.37,437.91,571.91,437.91z"/>
	<path d="M576.36,454.87c-0.4,0.2-0.81,0.3-1.62,0.4C575.65,455.68,576.15,455.58,576.36,454.87z"/>
	<path d="M211.14,455.48c-0.4,0-0.3-0.22-0.3,1.21C211.24,456.69,211.14,456.91,211.14,455.48z"/>
	<path d="M618.3,440.56c0.44-0.2,0.83-0.45,1.28-0.64C619.11,439.93,618.46,439.67,618.3,440.56z"/>
	<path d="M616.86,411.95l-0.1-0.1C616.51,411.97,616.45,411.91,616.86,411.95z"/>
	<path d="M615.34,412.55c0.35-0.26,0.79-0.44,1.22-0.63C616.07,411.91,615.59,412.05,615.34,412.55z"/>
	<path d="M618.17,440.63c-0.02,0.03-0.04,0.05-0.06,0.08C618.27,440.77,618.33,440.79,618.17,440.63z"/>
	<path d="M616.79,441.33c0.53-0.01,1.03-0.13,1.32-0.61C617.78,440.61,617.03,440.38,616.79,441.33z"/>
	<path d="M616.76,441.44c0.01-0.04,0.02-0.07,0.03-0.11C616.61,441.33,616.65,441.33,616.76,441.44z"/>
	<path d="M211.65,461.74c-0.1,0.1-0.4,0.01,0,0.81C211.77,462.42,212.02,462.5,211.65,461.74z"/>
	<path d="M570.6,456.99c-0.34,0.34-0.77,0.55-1.14,0.73C569.99,457.76,570.52,457.85,570.6,456.99z"/>
	<path d="M569.28,457.8c0.07-0.03,0.13-0.06,0.18-0.08C569.09,457.68,569.16,457.68,569.28,457.8z"/>
	<path d="M203.36,426.29c0.1,0.3,0.1,0.71,0.2,1.41C204.17,426.9,204.17,426.39,203.36,426.29z"/>
	<path d="M571.1,456.89c0,0-0.3,0.1-0.51,0.2C570.8,456.99,571.1,456.99,571.1,456.89z"/>
	<path d="M575.14,449.32c0.1-0.1,0.3-0.3,0.4-0.4C575.45,449.02,575.24,449.12,575.14,449.32z"/>
	<path d="M574.91,449.41c-0.45,0.17-0.95,0.34-1.38,0.52C573.98,449.83,574.52,449.9,574.91,449.41z"/>
	<path d="M575.14,449.32l-0.1-0.1C574.93,449.42,574.79,449.47,575.14,449.32z"/>
	<path d="M569.99,452.05c-0.01,0.03-0.02,0.05-0.04,0.08C570.16,452.17,570.1,452.15,569.99,452.05z"/>
	<path d="M577.81,454.34c-0.45,0.2-0.9,0.45-1.35,0.64C576.92,454.88,577.56,455.03,577.81,454.34z"/>
	<path d="M671.5,283.58c0.8,0.4,0.11,0.45,1.01,0C671.91,282.98,671.81,283.42,671.5,283.58z"/>
	<path d="M619.18,275.8c0-0.49-0.95-0.11-0.3,0.1C618.98,275.9,619.08,275.8,619.18,275.8z"/>
	<path d="M552.32,379.22c0,0.1,0.4,1.16,0.4-0.51C552.62,378.92,552.32,379.02,552.32,379.22z"/>
	<path d="M606.96,354.78c-0.28,0.28-0.51,0.2,0,0.71C607.27,354.88,607.18,355,606.96,354.78z"/>
	<path d="M582.82,391.75c-0.1,0-0.3,0.1-0.4,0.1C582.42,392.53,582.72,391.85,582.82,391.75z"/>
	<path d="M173.97,85.52l-0.1,0.1C174,85.75,173.97,85.77,173.97,85.52z"/>
	<path d="M174.18,85.92c-0.44-0.44,0.04-0.04-0.4,0.4l0.2-0.1C173.97,86.02,174.07,86.02,174.18,85.92z"/>
	<path d="M600.29,417.5c-0.13,0.13-0.13,0.07,0,0.2V417.5z"/>
	<path d="M626.75,413.87l-0.1,0.3C626.9,413.92,626.89,414,626.75,413.87z"/>
	<path d="M615.14,412.76c0-0.1,0.1-0.1,0.1-0.3C615.19,412.5,615.05,412.76,615.14,412.76z"/>
	<path d="M615.04,412.86c0.02-0.02,0.03-0.06,0.05-0.09C615.05,412.77,615.04,412.79,615.04,412.86z"/>
	<path d="M596.35,347.21c0,0.3-0.02,0.24,0.05,0C596.38,347.21,596.37,347.21,596.35,347.21z"/>
	<path d="M596.45,347.01c0,0.05-0.02,0.12-0.05,0.2C596.49,347.2,596.54,347.17,596.45,347.01z"/>
	<path d="M546.46,350.44c0,0.1,0.07,0.33,0.4,0C546.76,350.33,546.46,350.08,546.46,350.44z"/>
	<path d="M577.06,396.9c0.13-0.13,0.13-0.07,0-0.2V396.9z"/>
	<path d="M577.87,395.99c-0.3,0.3-0.51,0.51-0.71,0.81C577.26,396.73,578.05,396.17,577.87,395.99z"/>
	<path d="M578.27,395.69c-0.1,0.1-0.33,0.43-0.1,0.2C578.27,395.89,578.27,395.79,578.27,395.69z"/>
	<path d="M578.06,395.97c-0.05,0.03-0.09,0.06-0.09,0.12C578,396.06,578.03,396.01,578.06,395.97z"/>
	<path d="M596.35,266.31c-0.2-0.1-0.3-0.2-0.51-0.3C595.85,266.21,595.85,266.61,596.35,266.31z"/>
	<path d="M595.85,268.02c-0.13-0.13-0.1-0.16-0.1,0.1C596.5,268.62,597.3,269.48,595.85,268.02z"/>
	<path d="M606.76,436.28c0.42-0.03,0.61-0.23,0.61-0.7C606.99,435.58,606.72,435.77,606.76,436.28z"/>
	<path d="M606.76,436.39c-0.01-0.04,0-0.07,0-0.11C606.61,436.28,606.65,436.28,606.76,436.39z"/>
	<path d="M574.97,435.68c-0.18,0.14-0.57,0.1-0.13,0.1C574.9,435.78,574.93,435.74,574.97,435.68z"/>
	<path d="M607.26,435.48l0.1,0.1C607.58,435.48,607.36,435.5,607.26,435.48z"/>
	<path d="M607.45,435.49c0.38,0.01,0.61-0.2,0.52-0.72C607.88,435.04,607.7,435.29,607.45,435.49z"/>
	<path d="M203.47,426.19c-0.1,0-0.2-0.1-0.3-0.1C203.26,426.19,203.26,426.19,203.47,426.19z"/>
	<path d="M205.99,430.13l-0.1,0.2C206.02,430.33,205.99,430.38,205.99,430.13z"/>
	<path d="M583.17,431.18c-0.08,0.05-0.15,0.08-0.15,0.16C583.07,431.29,583.12,431.24,583.17,431.18z"/>
	<path d="M583.32,430.94c-0.08,0.17-0.22,0.32-0.1,0.2C583.32,431.04,583.32,431.04,583.32,430.94z"/>
	<path d="M610.9,431.95l0.1-0.1C610.75,431.85,610.76,431.81,610.9,431.95z"/>
	<path d="M608.07,434.88c0.03-0.03,0.05-0.06,0.09-0.09C607.93,434.78,607.93,434.73,608.07,434.88z"/>
	<path d="M608.68,434.07c-0.09,0.27-0.27,0.46-0.52,0.72C608.61,434.8,608.77,434.6,608.68,434.07z"/>
	<path d="M216.6,294.89c1.51,5.05,3.23,10,4.95,14.95c0.1,0.5,0.1,1.41,1.21,1.41c0-13.33-10.59-38.67-12.12-40.2
		C206.2,271.05,212.09,279.77,216.6,294.89z"/>
	<path d="M189.43,351.15c2.43-4.85,4.19-6.7,1.92-12.22c-0.49,2.75-0.81,6.09-1.62,7.78c-1.06,2.23-13.66,27.79-11.11,33.73
		c1.89-1.21-0.18-1.67,2.93-10.6c1.17-3.35,4.91-13.83,7.78-16.26C192.23,365.21,191.54,356.08,189.43,351.15z"/>
	<path d="M166.9,282.26c-8.2,21.61-7,18.89-6.06,22.12c3.11-5.32,7.21-18.14,8.48-23.63C169.33,278.58,167.86,280.1,166.9,282.26z"
		/>
	<path d="M128.22,276c0.3,0.59-11.35,47.89-7.57,42.22c9.95-48.5,10.45-48.13,10.01-44.63c0.17-1.05,0.4-2.43,0.7-4.25
		C130.67,270.25,127.67,275.17,128.22,276z"/>
	<path d="M130.65,273.59C129.81,278.79,130.39,275.65,130.65,273.59L130.65,273.59z"/>
	<path d="M148.52,412.66c-10.54-23.18-6.6-20.87-8.89-25.25C137.95,392.05,144.27,411.65,148.52,412.66z"/>
	<path d="M188.92,286c-0.61,10.3-3.84,20.1-4.44,30.3C186.36,309.41,190.1,293.08,188.92,286z"/>
	<path d="M194.98,311.05c0.22,16.34,2.97-23.09-1.72-27.77C195.1,294.32,194.85,301.22,194.98,311.05z"/>
	<path d="M147.01,281.96c0.51-1.82,0.81-3.64,1.01-6.36C145.07,280.99,130.83,339.2,147.01,281.96z"/>
	<path d="M122.36,348.82c-4.25,3.4-3.35,2.85-3.74-0.2c-0.1,0.4-0.51,0.61-0.51,0.91c0.08,3.4-1.96,3.91-3.13,5.96
		c1.62-1.21,3.23-1.11,4.04-2.73c0.31-0.62,6.14-4.86,8.38-6.57C129.62,344.73,129.68,342.97,122.36,348.82z"/>
	<path d="M215.69,274.59c-2.54-1.9,1.81,6.25,3.23,9.09C219.43,279.55,217.01,275.44,215.69,274.59z"/>
	<path d="M181.14,292.77c7.1-10.65,6.15-8.94,5.96-10.5C178.16,294.9,180.87,293.32,181.14,292.77z"/>
	<path d="M115.39,385.08c0.21,0.68,1.29,20.11,0.91,3.33c-0.07-3.21,0.26-2.45,1.62-4.14C116.28,381.98,117.05,382.43,115.39,385.08
		z"/>
	<path d="M117.82,367c-6.63,6.63-5.25,5.48-5.25,6.36c1.62-1.31,3.43-2.42,4.85-3.94C121.14,366.17,118.27,366.55,117.82,367z"/>
	<path d="M200.64,280.75c0-0.2-0.4-0.3-0.91-0.71C199.89,285.27,205.77,297.43,200.64,280.75z"/>
	<path d="M153.67,385.39c0.12,0,0.14,0.03,0.1-0.1L153.67,385.39z"/>
	<path d="M153.79,385.39c0.4,1.88,3.51,6.22,4.63,7.78C162.13,396.87,154.68,385.39,153.79,385.39z"/>
	<path d="M160.14,278.93c-0.8-4-1.12-3.04-2.12-3.53c1.77,3.89,0.93,6.98,1.31,8.69C160.14,287.7,160.41,280.31,160.14,278.93z"/>
	<path d="M184.78,337.71c-0.4-3.64-1.52-7.57-2.73-9.49C182.48,330.11,183.81,337.71,184.78,337.71z"/>
	<path d="M119.94,341.05c0.87-6.99-1.73,3.26-1.21,7.68C119.64,346.2,119.43,343.57,119.94,341.05z"/>
	<path d="M176.5,352.96c0.4,1.41,0.3,3.03,1.62,4.85c-0.3-3.74-0.71-6.77-2.83-9.19C175.19,350.24,176.2,351.55,176.5,352.96z"/>
	<path d="M167,262.87c-0.61,3.23-1.01,5.86,0.81,8.18C167.31,268.53,168.12,265.9,167,262.87z"/>
	<path d="M144.48,299.74c-0.01,0.11-0.02,0.21-0.03,0.32C144.63,299.81,144.58,299.84,144.48,299.74z"/>
	<path d="M142.45,305.87c1.37-1.7,1.8-3.71,2-5.81C143.32,301.83,142.98,303.84,142.45,305.87z"/>
	<path d="M117.62,380.13c0-1.82,0-3.53,0-5.35C117.41,376.6,117.01,378.32,117.62,380.13z"/>
	<path d="M117.62,362.86c0-6.14,0.09-5.55-0.2-5.55C117.41,363.45,117.33,362.86,117.62,362.86z"/>
	<path d="M168.62,297.41c0-1.62,0-3.23,0-4.85C168.22,294.18,168.22,295.8,168.62,297.41z"/>
	<path d="M139.33,306.81c-0.81,2.22-0.81,2.32-0.81,4.34C139.43,309.84,139.53,308.32,139.33,306.81z"/>
	<path d="M202.35,314.69c0.3-1.72,1.21-2.83,0.71-5.05C202.56,311.55,201.75,312.77,202.35,314.69z"/>
	<path d="M149.63,263.58c0.51-1.11,0.61-2.22,0-3.43C149.63,261.36,149.63,262.47,149.63,263.58z"/>
	<path d="M174.07,345.69c0.3,1.21,0.3,2.32,1.31,2.93C175.49,347.51,175.08,346.6,174.07,345.69z"/>
	<path d="M146.5,290.95l0.1,0.1C146.64,290.76,146.63,290.82,146.5,290.95z"/>
	<path d="M146.62,290.83c0.95-0.95,0.49-1.01,0.79-4.02c-0.2,0.61-0.51,1.11-0.61,1.62C146.71,289.16,146.69,290,146.62,290.83z"/>
	<path d="M191.92,362.72c-0.12-1.14,0.17-2.35-0.68-3.39C191.35,360.48,190.99,361.73,191.92,362.72z"/>
	<path d="M191.92,362.72c0.03,0.24-0.01,0.21,0.14,0.36C192.06,362.91,192.08,362.85,191.92,362.72z"/>
	<path d="M145.79,294.59l0.1,0.1C145.94,294.36,145.91,294.47,145.79,294.59z"/>
	<path d="M146.5,290.95c-0.67,1.14-0.53,2.29-0.6,3.51C146.96,293.47,146.5,292.12,146.5,290.95z"/>
	<path d="M119.94,321.86c0-0.91,0-1.92,0-2.83C119.33,319.94,119.33,320.85,119.94,321.86z"/>
	<path d="M145.18,297.61c0,0.15-0.05,0.09,0.1,0.01c-0.1-0.1-0.11-0.09-0.08-0.21C145.06,297.54,145.07,297.5,145.18,297.61z"/>
	<path d="M145.2,297.4c0.86-0.8,0.6-1.85,0.6-2.82C145.05,295.43,145.25,296.46,145.2,297.4z"/>
	<path d="M192.06,363.08c0.02,0.88-0.32,1.95,0.7,2.61C192.47,364.92,192.81,363.88,192.06,363.08z"/>
	<path d="M167.71,301.15c0.27,0,0.2,0.2,0.2-1.31C167.66,299.84,167.71,299.63,167.71,301.15z"/>
	<path d="M152.39,383.19c0.19,0.95,0.42,1.7,1.48,1.99C153.87,384.21,153.49,383.44,152.39,383.19z"/>
	<polygon points="152.29,383.13 152.29,383.13 152.29,383.14 	"/>
	<path d="M152.29,383.14C152.24,383.18,152.26,383.18,152.29,383.14L152.29,383.14z"/>
	<path d="M152.06,382.25c0,0.26-0.39,0.55,0.23,0.88C152.36,383.03,152.51,382.7,152.06,382.25z"/>
	<path d="M147.71,284.79c-0.4,0-0.3-0.31-0.3,2.02C147.41,287.06,147.4,287.01,147.71,284.79z"/>
	<path d="M211.34,396.09c0.71-0.1,1.52-0.1,2.32-0.1C212.86,395.38,212.05,395.28,211.34,396.09z"/>
	<path d="M193.38,368.91c0.05,0.87-0.14,1.88,0.8,2.54C193.88,370.67,194.32,369.62,193.38,368.91z"/>
	<path d="M193.37,368.72c-0.13-0.09-0.1-0.2-0.1,0.1C193.36,368.88,193.42,369.02,193.37,368.72z"/>
	<path d="M193.26,368.62c0.02-1.03,0.15-1.97-0.61-2.83C192.76,366.76,192.4,367.82,193.26,368.62z"/>
	<path d="M194.58,383.67c-0.51,0.71-0.1,1.21,0.2,1.62C194.68,384.88,194.58,384.38,194.58,383.67z"/>
	<path d="M194.07,371.55c0.2,0.51-0.2,1.11,0.91,1.72C194.48,372.46,194.27,371.95,194.07,371.55z"/>
	<path d="M144.58,299.84c0.75-0.57,0.55-1.38,0.6-2.14C144.41,298.21,144.58,299.07,144.58,299.84z"/>
	<path d="M193.47,273.28c-0.79,0,0.61,0.27,0.71,0.3C194.17,273.3,193.6,273.28,193.47,273.28z"/>
	<path d="M194.98,320.64c0,0.2,0.1,0.4,0.2,0.61C195.64,319.87,194.98,320.4,194.98,320.64z"/>
	<path d="M185.49,339.63c-0.4-0.91-0.61-1.31-0.81-1.82C184.78,338.22,184.48,338.93,185.49,339.63z"/>
	<path d="M228.92,396.19c-0.2,0.1,0.1,0,0.3-0.2C229.02,396.19,228.72,396.19,228.92,396.19z"/>
	<path d="M229.32,396.09c0.2-0.2,0.4-0.3,0.2-0.2C229.73,395.79,229.42,395.89,229.32,396.09z"/>
	<path d="M215.38,394.98h0.3C215.69,394.85,215.75,394.86,215.38,394.98z"/>
	<path d="M185.79,341.55l0.1-0.3C185.63,341.25,185.66,341.17,185.79,341.55z"/>
	<path d="M141.45,308.32c0.1-0.2,0.2-0.4,0.2-0.61c0.04-0.12,0.07-0.16,0.08-0.17c0.5-0.22,0.54-0.67,0.53-1.14
		c-0.17,0.38-0.36,0.75-0.53,1.13c-0.01,0-0.05,0.03-0.17,0.07l0.02,0.02C141.51,307.59,141.45,307.65,141.45,308.32z"/>
	<path d="M142.26,306.41c0.03-0.07,0.16-0.44,0.19-0.56C142.21,306.18,142.26,306.02,142.26,306.41z"/>
	<path d="M180.13,294.08c0.1-0.3,0.1-0.61,0.2-0.91C179.81,294.23,180.13,293.82,180.13,294.08z"/>
	<path d="M181.45,267.62c0.25,0,0.1-0.24,0.1-0.4C181.55,267.32,181.45,267.52,181.45,267.62z"/>
	<path d="M164.18,388.72v0.3C164.3,388.78,164.3,388.85,164.18,388.72z"/>
	<path d="M194.98,375.08c0,0.56,0.32,0.34,0.1-0.1L194.98,375.08z"/>
	<path d="M195.79,378.11h0.1C195.89,377.73,195.93,377.69,195.79,378.11z"/>
	<path d="M164.88,391.75l0.1,0.1C164.98,391.45,165.02,391.48,164.88,391.75z"/>
	<path d="M162.76,383.16h0.1C162.86,382.78,162.9,382.74,162.76,383.16z"/>
	<path d="M163.47,385.89v0.3C163.59,385.83,163.6,385.89,163.47,385.89z"/>
	<path d="M119.33,366.6c0.1-0.1,0.2-0.1,0.2-0.2C119.53,365.95,119.59,366.35,119.33,366.6z"/>
	<path d="M163.17,270.95c-0.13,0.13-0.18,0.07,0.2,0.2L163.17,270.95z"/>
	<path d="M193.37,283.17c-0.03-0.03-0.06-0.06-0.09-0.09C193.28,283.13,193.3,283.17,193.37,283.17z"/>
	<path d="M193.26,282.97c0-0.1-0.34-0.24,0.01,0.11C193.26,283.05,193.26,283.01,193.26,282.97z"/>
	<path d="M157.71,274.99c0.2,0.1,0.3,0.2,0.4,0.3C158.01,275.19,158.11,274.99,157.71,274.99z"/>
	<path d="M199.83,165.91c1.73,1.4,3.74,1.92,6.67,1.31c-1.41-1.82-2.53-3.13-3.84-4.34c-2.95-2.73-2.63-4.05-4.24-6.46
		C196.53,154.06,193.29,160.64,199.83,165.91z"/>
	<path d="M186.7,176.32c1.72-5.17-13.27,11.14-11.61,13.13C185.72,177.04,186.37,177.29,186.7,176.32z"/>
	<path d="M143.37,178.34c-5.34,8.52-3.91,8.71-1.41,11.21c0.48,0.48,0.97,1.05,1.72,0.92c0.1,0.3,0.1,0.69,0.51,0.19
		c-0.6-0.28-0.49-0.16-0.4-0.2c-0.2-1.92-2.22-2.63-2.83-4.34c0.36-0.73,4.8-9.3,4.75-9.9
		C144.28,176.42,143.88,177.53,143.37,178.34z"/>
	<path d="M195.79,209.95c2.53-1.69-0.58-30.29-0.2-3.13C195.6,207.83,195.69,208.84,195.79,209.95z"/>
	<path d="M145.79,162.18c1.31,0.81,2.42,2.22,4.44,1.51c-0.2-0.4-0.2-0.91-0.3-1.11c-4.97-3.51-5.31-3.84-6.77-3.84
		C140.04,158.74,143.81,160.95,145.79,162.18z"/>
	<path d="M212.45,251.06c-1.01,1.01-0.41-1.28-4.44,10.81C208.01,263.83,212.8,256.61,212.45,251.06z"/>
	<path d="M202.66,173.79c5.99,5.39,5.52,4.95,5.76,4.95c1.18,0-1.5-3.81-4.44-5.15C203.67,173.49,203.36,173.69,202.66,173.79z"/>
	<path d="M152.36,186.82c-1.21-2.22-1.41-2.53-3.43-3.13C149.73,185.81,150.04,186.11,152.36,186.82z"/>
	<path d="M233.97,204.39c-1.41,2.02-1.31,3.43-0.91,5.25C234.17,208.03,234.47,206.72,233.97,204.39z"/>
	<path d="M210.64,169.25c0.81,0.3,1.52,0.51,2.42,0.91C211.95,168.64,211.95,168.64,210.64,169.25z"/>
	<path d="M213.87,186.62c0.1-1.21,0.1-1.21-1.01-1.51C213.26,185.71,213.46,186.11,213.87,186.62z"/>
	<path d="M147.01,194.09c-0.6,1.19,1.75,1.35,1.01,0.61C147.71,194.5,147.31,194.29,147.01,194.09z"/>
	<path d="M138.02,191.87c0,2.25,0.07,1.25,0.61,1.51C138.29,191.7,138.72,191.87,138.02,191.87z"/>
	<path d="M195.99,225.91c0.43-1.29,0.1-1.32-0.1-1.72c-0.68,0.34-0.3,0.35-0.3,1.72C195.69,225.91,195.89,225.91,195.99,225.91z"/>
	<path d="M231.24,210.76c-0.65,1.51-0.71,0.6-0.1,2.73C231.93,211.91,231.68,212.52,231.24,210.76z"/>
	<path d="M159.83,166.42c0,0,0-0.1,0-0.3c-1.18,0-0.94-0.27-1.31,0.1C158.81,166.51,158.49,166.87,159.83,166.42z"/>
	<path d="M153.77,165.31c0.1,0,0.2-0.3,0.3-0.4C152.77,164.25,152.33,165.31,153.77,165.31z"/>
	<path d="M142.56,202.47c-0.2-0.1-0.51,0-0.81,0c0.1,0.2,0.1,0.51,0.3,0.61C143.68,203.62,142.74,202.47,142.56,202.47z"/>
	<path d="M235.38,257.22c-0.3-0.59-0.26-0.55-0.71-0.1C235.09,257.32,234.98,257.61,235.38,257.22z"/>
	<path d="M236.09,266.21c0.51-0.51,0.51-1.01-0.2-1.41C235.38,265.4,235.58,265.8,236.09,266.21z"/>
	<path d="M155.9,190.47c0.28,0.28,0.06,0,0.09-0.01C154.56,188.54,154.17,190.68,155.9,190.47z"/>
	<path d="M232.45,141.57c0.27-0.27-0.12-0.56-0.4-0.71C232.35,141.07,232.45,141.27,232.45,141.57z"/>
	<path d="M154.08,233.08c0.23,0,0.26-0.4,0.1-0.4C153.8,232.67,154.08,232.95,154.08,233.08z"/>
	<path d="M158.22,242.47c0.01,0.03,0.01,0.04,0.02,0.06C158.26,242.56,158.27,242.56,158.22,242.47z"/>
	<path d="M158.24,242.53c-0.03-0.04-0.11-0.15-0.22-0.26C158.2,242.45,158.29,242.68,158.24,242.53z"/>
	<path d="M158.02,241.66c0-0.1-0.2-0.1-0.3-0.2c0,0.55,0.25,0.5,0.4,0.81C158.02,242.07,158.02,241.86,158.02,241.66z"/>
	<path d="M155.79,237.02C155.75,236.93,155.73,236.9,155.79,237.02L155.79,237.02z"/>
	<path d="M155.79,237.02c0.03,0.05,0.06,0.12,0.1,0.2C155.79,237.02,155.79,236.71,155.79,237.02z"/>
	<path d="M167.11,167.33c0.42-0.42-0.2-0.44-0.2-0.2C167,167.23,167,167.33,167.11,167.33z"/>
	<path d="M152.36,186.92l0.2,0.1C152.31,186.78,152.36,186.79,152.36,186.92z"/>
	<path d="M170.03,196.62c-0.1,0-0.2,0-0.2,0C169.59,196.86,169.73,196.76,170.03,196.62z"/>
	<path d="M168.92,197.63c0.03-0.03,0.06-0.06,0.09-0.09C168.79,197.54,168.78,197.48,168.92,197.63z"/>
	<path d="M169.53,196.82c-0.09,0.26-0.32,0.52-0.52,0.72C169.4,197.55,169.62,197.34,169.53,196.82z"/>
	<path d="M155.79,237.32c0.1,0,0.2,0,0.3,0C156.1,237.22,156,237.22,155.79,237.32z"/>
	<path d="M96,124.5c-0.81,3.53,0.1,7.37,2.42,8.79C96.41,123.57,96.81,124.91,96,124.5z"/>
	<path d="M91.56,308.12c-0.4,1.6-0.5,6.57,0.91,6.57C94.17,314.69,93.29,308.12,91.56,308.12z"/>
	<path d="M100.85,285.6c-0.4,2.52,0.3,4.04,2.32,5.66C103.48,289.44,102.47,286.91,100.85,285.6z"/>
	<path d="M130.64,140.97c-1.41,2.42-1.41,2.42-0.4,3.43C131.25,142.78,131.25,142.78,130.64,140.97z"/>
	<path d="M93.17,306.4c0-1.01,0.1-1.72,0.1-2.63C91.86,304.89,91.86,304.89,93.17,306.4z"/>
	<path d="M91.46,169.95c-0.2,1.31-0.2,1.31,0.61,2.22C92.37,170.96,92.37,170.96,91.46,169.95z"/>
	<path d="M86.41,312.56c-0.3,1.51-0.3,1.51,0.4,3.23C87.42,313.37,87.42,313.37,86.41,312.56z"/>
	<path d="M106.81,211.77c0.64,0,0.51,0.1,0.51-1.31C106.64,210.45,106.41,210.19,106.81,211.77z"/>
	<path d="M105.9,193.38c-0.25-0.5,0.04-0.67-0.71-0.3C105.6,193.89,105.32,193.97,105.9,193.38z"/>
	<path d="M85.09,243.38c0,1.03,0.51,0.35,0.81,0.2C85.65,243.09,85.54,242.93,85.09,243.38z"/>
	<path d="M100.14,134.81c-0.39,0.2-0.09,0.06,0.1,1.62C100.76,134.62,100.55,135.21,100.14,134.81z"/>
	<path d="M90.19,227.17c-0.28,0-0.28,1.72,0,1.72C90.47,228.89,90.47,227.17,90.19,227.17z"/>
	<path d="M84.29,237.82c0.25,0,0.2,0.11,0.2-0.61C84.23,237.22,84.29,237.12,84.29,237.82z"/>
	<path d="M102.47,138.85c0,0.1-0.2,0.1-0.2,0.2c0,0.2,0.1,0.4,0.1,0.61C102.73,139.29,102.98,139.88,102.47,138.85z"/>
	<path d="M101.76,282.37c0-0.33-0.3-0.1-0.3,0C101.46,282.52,101.76,282.89,101.76,282.37z"/>
	<path d="M101.76,277.32c-0.22-0.22-0.19-0.01-0.3,0.1C101.6,277.56,101.76,277.58,101.76,277.32z"/>
	<path d="M106.91,206.21c-0.1-0.1-0.1-0.2-0.2-0.4C106.29,206.23,106.91,206.81,106.91,206.21z"/>
	<path d="M101.05,272.27c-0.25-0.13-0.23-0.2-0.1,0.2L101.05,272.27z"/>
	<path d="M134.08,141.27l-0.1-0.2C133.85,141.32,133.82,141.27,134.08,141.27z"/>
	<path d="M117.72,532.24c1.49,0,1.06-0.92,1.21-10.4C118.99,517.93,115.99,528.1,117.72,532.24z"/>
	<path d="M106.71,450.43c0.51-0.71,1.01-1.01,1.11-1.52C113.03,432.71,106.46,442.91,106.71,450.43z"/>
	<path d="M138.42,437.2c-4.41,5.05-4.59,5.14-3.64,5.45C136.88,441.3,140.65,437.75,138.42,437.2z"/>
	<path d="M124.28,430.03c-0.1-1.72-0.51-3.33-1.41-4.75C122.36,427.7,122.67,428.71,124.28,430.03z"/>
	<path d="M123.57,451.64c0.71-1.82,1.01-3.64,0.2-5.35C123.47,448.11,122.67,449.82,123.57,451.64z"/>
	<path d="M126.3,439.12c0.51-2.02,0.4-3.54-0.3-5.66C125.59,435.68,125.49,437.2,126.3,439.12z"/>
	<path d="M121.66,457.2c0,0.81,0,1.62,0,2.42C122.97,458.41,123.07,457.9,121.66,457.2z"/>
	<path d="M105.29,464.77c0.61-0.81,0.61-1.52,0-2.42C104.59,463.36,104.69,464.06,105.29,464.77z"/>
	<path d="M119.43,514.16c0,2.12,0.51,0.47,0.51,0.1C119.94,513.27,119.43,513.96,119.43,514.16z"/>
	<path d="M105.9,456.09c0.2-0.1,0.4-0.2,0.4-0.4C106.3,453.21,105.44,455.16,105.9,456.09z"/>
	<path d="M132.56,260.25c0.71-2.42,1.51-4.04,1.11-5.86C132.03,255.49,132.47,258.87,132.56,260.25z"/>
	<path d="M667.86,442.55c-1.41,1.41-5.51,16.7-5.76,19.69C666.04,458.8,670.72,446.36,667.86,442.55z"/>
	<path d="M677.96,418.82c1.16-1.93,4.75-3.37,4.85-7.47c0.02-0.61-0.1-1.21-1.11-1.11c-1.21,2.93-2.52,5.96-5.45,8.89
		C677.46,418.92,677.96,419.02,677.96,418.82z"/>
	<path d="M614.63,526.48c-0.59,1.78,3.3,3.56,4.75-4.54C617.66,523.45,616.05,524.76,614.63,526.48z"/>
	<path d="M661.6,463.66c-1.41,1.62-2.22,3.33-2.63,5.25C661.8,466.29,662.1,465.58,661.6,463.66z"/>
	<path d="M683.01,437.3c1.62-0.91,1.31-2.02,1.01-3.53C682.61,434.77,682.51,435.89,683.01,437.3z"/>
	<path d="M623.02,516.79c0.5-0.61,0.91-1.01,1.31-1.51C622.82,515.57,622.82,515.57,623.02,516.79z"/>
	<path d="M621.6,518.5c-0.75,0.25-0.95,2.1,0.2,1.72C623.08,519.37,622.19,518.06,621.6,518.5z"/>
	<path d="M686.55,423.36c-0.81,1.08-0.46,1.09-0.2,1.62C687.41,424.44,686.86,424.15,686.55,423.36z"/>
	<path d="M651.7,477.6c0.33,0-0.2-0.62-0.2-0.91c0-0.1-0.2,0-0.3,0C650.35,476.69,650.36,479.6,651.7,477.6z"/>
	<path d="M628.47,507.9c-0.28-0.28-0.57,0.13-0.71,0.4C628.43,508.63,628.25,508.33,628.47,507.9z"/>
	<path d="M672.2,422.15c-0.51-0.51-0.91-0.4-1.31,0.2C671.4,422.86,671.8,422.76,672.2,422.15z"/>
	<path d="M682.51,429.42c-0.7,0.35-0.9-0.28,0.3,1.41C682.61,430.03,682.51,429.72,682.51,429.42z"/>
	<path d="M626.75,511.63c0.1-0.1,0.2-0.1,0.2-0.1C626.54,511.12,626.34,511.63,626.75,511.63z"/>
	<path d="M661.6,435.28c-0.48,0.48-0.1,0.3,0,0.2C661.6,435.48,661.6,435.38,661.6,435.28z"/>
	<path d="M666.04,423.77l-0.1-0.1C665.82,423.79,665.78,423.77,666.04,423.77z"/>
	<path d="M668.16,429.62v-0.3C668.04,429.56,668.04,429.5,668.16,429.62z"/>
	<path d="M529.29,452.75c-12,20.78,3.88,0.78,1.41-3.33C529.8,450.43,529.88,451.73,529.29,452.75z"/>
	<path d="M495.56,458.21c-0.28,1.02-0.61,2.12,0,3.43C498.98,452.97,498.64,446.98,495.56,458.21z"/>
	<path d="M529.69,431.64c0-0.71-0.1-1.52-1.21-1.62c-1.1,6.58-0.87,5.7-0.51,6.97C529.69,435.08,529.9,434.37,529.69,431.64z"/>
	<path d="M506.06,439.12c-0.1-0.1-0.51,0.1-1.01,0.2c1.62,1.92,3.03,3.64,4.44,5.35C509.19,441.95,508.28,440.73,506.06,439.12z"/>
	<path d="M532.72,419.73c1.75,4.19,1.71,3.64,2.52,3.64c0.21-0.85,0.86-0.86-0.91-3.74C534.03,419.12,533.43,418.92,532.72,419.73z"
		/>
	<path d="M512.83,420.53c-1.52,3.74-1.52,3.74-1.21,5.15C513.43,423.26,513.74,422.45,512.83,420.53z"/>
	<path d="M522.83,469.52c0.4-1.31,1.41-2.12,0.71-3.33C522.02,467.9,522.02,467.9,522.83,469.52z"/>
	<path d="M495.76,468.81c0-1.01,0-1.92,0-3.33C494.48,466.57,494.01,467.94,495.76,468.81z"/>
	<path d="M514.75,455.58c-0.4-1.31-0.61-1.92-0.81-2.52C513.23,454.17,513.64,454.67,514.75,455.58z"/>
	<path d="M494.24,474.06c-0.71,1.01-0.71,1.82,0.1,2.83C494.95,475.78,494.85,474.97,494.24,474.06z"/>
	<path d="M525.55,440.53c0.9-1.79,0.81-0.79,0.81-1.92C525.56,438.61,524.52,440.01,525.55,440.53z"/>
	<path d="M511.21,447.4c-0.2,0.71-0.1,1.21,0.91,1.41C512.12,448.21,511.82,447.7,511.21,447.4z"/>
	<path d="M494.55,482.04c0.38,1.91-0.13,1.31,0.71,1.31C495.13,482.76,495.19,481.4,494.55,482.04z"/>
	<path d="M521.41,475.38c0.4,0,0.3,0.25,0.3-1.31C521.3,474.06,521.04,473.87,521.41,475.38z"/>
	<path d="M520.81,480.12c0.34,0.68,0.3,0.5,0.71,0.1C521.41,480.12,521.04,479.77,520.81,480.12z"/>
	<path d="M530.91,416.59c0.1,0,0.1-0.1,0.2-0.2C530.56,415.3,530.65,416.07,530.91,416.59z"/>
	<path d="M513.23,434.88c0.03,0.03,0.06,0.06,0.09,0.09C513.31,434.92,513.29,434.88,513.23,434.88z"/>
	<path d="M513.33,435.08c0,0.1,0.34,0.24-0.01-0.11C513.33,435,513.33,435.04,513.33,435.08z"/>
	<path d="M513.03,434.67c0,0.1,0.1,0.2,0.3,0.1C513.23,434.77,513.13,434.67,513.03,434.67z"/>
	<path d="M650.19,305.39c-3.62,0.91-7.1,11.36-5.86,13.43c1.17-0.29,0.5-0.02,6.16-11.92C650.78,306.3,650.59,305.39,650.19,305.39z
		"/>
	<path d="M751.19,280.85c-0.72,0,0.1,2.22,5.76-0.61c0.81-0.4,2.02-0.61,2.32-1.82C758.83,277.99,759.89,277.72,751.19,280.85z"/>
	<path d="M685.03,290.24c1.51,2.32,3.84,3.13,7.07,3.64C687.21,290.21,686.52,288.57,685.03,290.24z"/>
	<path d="M766.34,269.54c0.12-1.01,0.3-2.02-0.91-3.23C763.75,270.29,765.93,272.88,766.34,269.54z"/>
	<path d="M641.8,325.19c0.91-1.11,0.91-2.22,0.71-4.14C641.1,323.37,641.1,323.37,641.8,325.19z"/>
	<path d="M790.27,263.98c1.62-0.1,1.62-0.1,3.43-1.41C791.18,262.97,791.28,262.97,790.27,263.98z"/>
	<path d="M766.94,274.69c-0.61-0.61-1.31-1.11-1.92-1.72C765.83,275.19,766.13,275.4,766.94,274.69z"/>
	<path d="M739.27,287.01c0.57,0.57,0.72,0.22,1.51-0.1C739.51,286.27,740.13,286.15,739.27,287.01z"/>
	<path d="M748.46,283.38c0.39,0.79,0.42,0.39,1.01-0.2C749.31,283.01,749.31,282.81,748.46,283.38z"/>
	<path d="M779.06,258.43c-1.39,0,0.2,3.27,0.2,0.2C779.26,258.53,779.16,258.43,779.06,258.43z"/>
	<path d="M698.57,292.87c0,0.24,0.23,0.3,0.4,0.3C698.97,292.51,698.75,292.87,698.57,292.87z"/>
	<path d="M744.52,285.09c0.38-0.13,0.4-0.07,0-0.2V285.09z"/>
	<path d="M703.92,292.97c0.26,0,0.23,0.05,0.1-0.2L703.92,292.97z"/>
	<path d="M500.3,403.97c0.2-0.1,0.3-0.5,0.61-0.91c-1.72-0.51-2.93,0.21-3.84,1.01c-4.17,3.67-8.79,0.47-14.24,7.37
		c-3.35,4.25-5.93,11.16-4.44,16.26c0.52-0.73,2.88-18.17,10.99-19.26c-0.97,1-8.41,9.1-7.76,11.38
		c0.27-0.43,9.79-13.28,11.21-11.61c-2.53,4.85-3.13,6.46-3.74,10.1C493.14,411.37,494.77,406.37,500.3,403.97z"/>
	<path d="M472.73,439.22c-4.42-16.19,0.84-17.75,3.84-23.73C469.48,418.32,466.23,431.91,472.73,439.22z"/>
	<path d="M486.87,459.72c-4.14-1.92-5.66-6.16-8.99-9.8C479.25,453.58,483.44,460.95,486.87,459.72z"/>
	<path d="M472.63,433.26c1.01-2.54-0.21-1.97,1.82-10.6C473.19,424.33,471.04,425.91,472.63,433.26z"/>
	<path d="M481.52,419.73c-0.1,0.3-0.3,0.4-0.51,0.61C481.01,420.76,481.52,420.65,481.52,419.73z"/>
	<path d="M474.55,422.45c-0.12,0.24-0.1,0.18-0.1,0.3L474.55,422.45z"/>
	<path d="M477.17,414.68c0.04,0.16-0.05,0.1,0.1,0.1L477.17,414.68z"/>
	<path d="M477.18,414.79c-0.42,0.03-0.62,0.23-0.62,0.7C477.03,415.48,477.22,415.22,477.18,414.79z"/>
	<path d="M477.44,414.65c0.37-0.05,0.54-0.24,0.44-0.69C477.71,414.22,477.55,414.42,477.44,414.65z"/>
	<path d="M477.38,414.78c0.08-0.19,0.12-0.1-0.1-0.1L477.38,414.78z"/>
	<path d="M477.98,413.97l0.1-0.1C477.83,413.99,477.84,413.97,477.98,413.97z"/>
<path fill="#e6e6e6" d="m206.8 163.6c0-5.1 4.1-9.2 9.3-9.2s9.2 4.2 9.2 9.2-4.1 9.2-9.3 9.2-9.2-4.1-9.2-9.2zm17.3-.1c0-4.5-3.5-8.2-8.2-8.2s-8.2 3.7-8.2 8.3c0 4.5 3.5 8.2 8.2 8.2s8.2-3.7 8.2-8.3zm-13 0c0-2.8 2.1-5.1 5.1-5.1 1.9 0 2.9.6 3.9 1.5l-1.4 1.7c-.8-.7-1.5-1.1-2.5-1.1-1.7 0-2.8 1.4-2.8 3.1s1.1 3 2.8 3c1.1 0 1.7-.5 2.5-1.1l1.4 1.4c-1.1 1.1-2.1 1.7-4 1.7-2.9 0-5-2.3-5-5.1z"/><path fill="#e6e6e6" d="m226.6 154.7h3.4l4.2 13.2 4.4-13.3h2.6l4.4 13.3 4.2-13.2h3.3l-6.2 18h-2.7l-4.4-12.8-4.4 12.8h-2.7z"/><path fill="#e6e6e6" d="m252.8 165.8c0-3.9 3.1-7 7.2-7 4.2 0 7.2 3.2 7.2 7s-3.1 7-7.3 7c-4 0-7.1-3.1-7.1-7zm11.3 0c0-2.3-1.7-4.3-4.2-4.3s-4.1 2-4.1 4.3 1.7 4.3 4.1 4.3c2.7.1 4.2-1.9 4.2-4.3z"/><path fill="#e6e6e6" d="m269.5 159.1h3.1v3c.8-2 2.4-3.4 4.8-3.3v3.2h-.2c-2.7 0-4.6 1.7-4.6 5.4v5.1h-3.1z"/><path fill="#e6e6e6" d="m279.1 153.9h3.1v11.1l5.6-6h3.8l-5.4 5.5 5.5 8h-3.5l-4.1-5.8-1.9 2v3.9h-3.1z"/><path fill="#e6e6e6" d="m291.7 165.8c0-3.9 3.1-7 7.2-7 4.2 0 7.2 3.2 7.2 7s-3.1 7-7.3 7c-4 0-7.1-3.1-7.1-7zm11.3 0c0-2.3-1.7-4.3-4.2-4.3s-4.1 2-4.1 4.3 1.7 4.3 4.1 4.3c2.6.1 4.2-1.9 4.2-4.3z"/><path fill="#e6e6e6" d="m308.2 167.6v-8.6h3.1v7.6c0 2.1 1.1 3.3 2.9 3.3s3-1.3 3-3.3v-7.6h3.1v13.4h-3.1v-2.1c-.8 1.3-2.1 2.3-4.2 2.3-3.1.2-4.8-1.8-4.8-5z"/><path fill="#e6e6e6" d="m323.9 168.8v-7.1h-1.7v-2.6h1.7v-3.7h3.1v3.7h3.6v2.6h-3.6v6.6c0 1.2.6 1.7 1.7 1.7.7 0 1.3-.2 1.9-.5v2.5c-.8.5-1.7.7-2.8.7-2.3 0-3.9-.9-3.9-3.9z"/><path fill="#e6e6e6" d="m333.2 154.7h3.2v15h9.4v2.9h-12.5v-17.9z"/><path fill="#e6e6e6" d="m356 172.5v-1.7c-.9 1.1-2.3 2-4.4 2-2.6 0-4.8-1.4-4.8-4.2 0-3 2.3-4.4 5.4-4.4 1.7 0 2.6.2 3.7.5v-.2c0-1.9-1.2-2.9-3.3-2.9-1.5 0-2.6.3-3.9.8l-.8-2.5c1.5-.7 2.9-1.1 5.1-1.1 4 0 5.9 2.1 5.9 5.7v8zm.1-5.6c-.8-.3-1.9-.5-3.1-.5-2 0-3.1.8-3.1 2.1s1.1 2 2.6 2c2 0 3.5-1.1 3.5-2.9z"/><path fill="#e6e6e6" d="m364.9 170.5v2.1h-3.1v-18.7h3.1v7.4c1-1.4 2.4-2.5 4.5-2.5 3.2 0 6.3 2.5 6.3 7s-3.1 7-6.3 7c-2.1 0-3.5-1.1-4.5-2.3zm7.7-4.7c0-2.6-1.7-4.3-3.9-4.3s-3.9 1.7-3.9 4.4c0 2.6 1.8 4.3 3.9 4.3s3.9-1.7 3.9-4.4z"/><path fill="#e6e6e6" d="m376.9 170.8 1.4-2.1c1.4 1.1 3 1.7 4.4 1.7s2.1-.5 2.1-1.5-1.3-1.4-2.8-1.8c-.1 0-.2-.1-.2-.1-2-.6-4.2-1.4-4.2-4s2.1-4.1 4.8-4.1c1.7 0 3.5.6 5 1.5l-1.2 2.2c-1.3-.8-2.6-1.3-3.8-1.3s-1.9.5-1.9 1.4 1.3 1.4 2.8 1.8c.1 0 .2.1.2.1 2 .6 4.2 1.5 4.2 4 0 2.9-2.2 4.2-5 4.2-1.9 0-4-.7-5.8-2z"/><path fill="#e6e6e6" d="m505.6 163.6c0-5.1 4.1-9.2 9.3-9.2s9.2 4.2 9.2 9.2-4.1 9.2-9.3 9.2-9.2-4.1-9.2-9.2zm17.4-.1c0-4.5-3.5-8.2-8.2-8.2s-8.2 3.7-8.2 8.3c0 4.5 3.5 8.2 8.2 8.2s8.2-3.7 8.2-8.3zm-13.1 0c0-2.8 2.1-5.1 5.1-5.1 1.9 0 2.9.6 3.9 1.5l-1.4 1.7c-.8-.7-1.5-1.1-2.5-1.1-1.7 0-2.8 1.4-2.8 3.1s1.1 3 2.8 3c1.1 0 1.7-.5 2.5-1.1l1.4 1.4c-1.1 1.1-2.1 1.7-4 1.7-2.9 0-5-2.3-5-5.1z"/><path fill="#e6e6e6" d="m525.4 154.7h3.4l4.2 13.2 4.4-13.3h2.6l4.4 13.3 4.2-13.2h3.3l-6.2 18h-2.7l-4.4-12.8-4.4 12.8h-2.7z"/><path fill="#e6e6e6" d="m551.7 165.8c0-3.9 3.1-7 7.2-7 4.2 0 7.2 3.2 7.2 7s-3.1 7-7.3 7c-4.1 0-7.1-3.1-7.1-7zm11.2 0c0-2.3-1.7-4.3-4.2-4.3s-4.1 2-4.1 4.3 1.7 4.3 4.1 4.3c2.7.1 4.2-1.9 4.2-4.3z"/><path fill="#e6e6e6" d="m568.3 159.1h3.1v3c.8-2 2.4-3.4 4.8-3.3v3.2h-.2c-2.7 0-4.6 1.7-4.6 5.4v5.1h-3.1z"/><path fill="#e6e6e6" d="m577.9 153.9h3.1v11.1l5.6-6h3.8l-5.4 5.5 5.5 8h-3.5l-4.1-5.8-1.9 2v3.9h-3.1z"/><path fill="#e6e6e6" d="m590.6 165.8c0-3.9 3.1-7 7.2-7 4.2 0 7.2 3.2 7.2 7s-3.1 7-7.3 7c-4.1 0-7.1-3.1-7.1-7zm11.2 0c0-2.3-1.7-4.3-4.2-4.3s-4.1 2-4.1 4.3 1.7 4.3 4.1 4.3c2.6.1 4.2-1.9 4.2-4.3z"/><path fill="#e6e6e6" d="m607 167.6v-8.6h3.1v7.6c0 2.1 1.1 3.3 2.9 3.3s3-1.3 3-3.3v-7.6h3.1v13.4h-3.1v-2.1c-.8 1.3-2.1 2.3-4.2 2.3-3 .2-4.8-1.8-4.8-5z"/><path fill="#e6e6e6" d="m622.7 168.8v-7.1h-1.7v-2.6h1.7v-3.7h3.1v3.7h3.6v2.6h-3.6v6.6c0 1.2.6 1.7 1.7 1.7.7 0 1.3-.2 1.9-.5v2.5c-.8.5-1.7.7-2.8.7-2.3 0-3.9-.9-3.9-3.9z"/><path fill="#e6e6e6" d="m632 154.7h3.2v15h9.4v2.9h-12.6z"/><path fill="#e6e6e6" d="m654.8 172.5v-1.7c-.9 1.1-2.3 2-4.4 2-2.6 0-4.8-1.4-4.8-4.2 0-3 2.3-4.4 5.4-4.4 1.7 0 2.6.2 3.7.5v-.2c0-1.9-1.2-2.9-3.3-2.9-1.5 0-2.6.3-3.9.8l-.8-2.5c1.5-.7 2.9-1.1 5.1-1.1 4 0 5.9 2.1 5.9 5.7v8zm.1-5.6c-.8-.3-1.9-.5-3.1-.5-2 0-3.1.8-3.1 2.1s1.1 2 2.6 2c2 0 3.5-1.1 3.5-2.9z"/><path fill="#e6e6e6" d="m663.7 170.5v2.1h-3.1v-18.7h3.1v7.4c1-1.4 2.4-2.5 4.5-2.5 3.2 0 6.3 2.5 6.3 7s-3.1 7-6.3 7c-2.1 0-3.5-1.1-4.5-2.3zm7.8-4.7c0-2.6-1.7-4.3-3.9-4.3-2.1 0-3.9 1.7-3.9 4.4 0 2.6 1.8 4.3 3.9 4.3s3.9-1.7 3.9-4.4z"/><path fill="#e6e6e6" d="m675.8 170.8 1.4-2.1c1.4 1.1 3 1.7 4.4 1.7s2.1-.5 2.1-1.5-1.3-1.4-2.8-1.8c-.1 0-.2-.1-.2-.1-2-.6-4.2-1.4-4.2-4s2.1-4.1 4.8-4.1c1.7 0 3.5.6 5 1.5l-1.2 2.2c-1.3-.8-2.6-1.3-3.8-1.3s-1.9.5-1.9 1.4 1.3 1.4 2.8 1.8c.1 0 .2.1.2.1 2 .6 4.2 1.5 4.2 4 0 2.9-2.2 4.2-5 4.2-2 0-4.1-.7-5.8-2z"/><path fill="#e6e6e6" d="m61 298.6c0-5.1 4.1-9.2 9.3-9.2s9.2 4.2 9.2 9.2-4.1 9.2-9.3 9.2c-5.1 0-9.2-4.2-9.2-9.2zm17.4-.1c0-4.5-3.5-8.2-8.2-8.2s-8.2 3.7-8.2 8.3c0 4.5 3.5 8.2 8.2 8.2s8.2-3.7 8.2-8.3zm-13.1-.1c0-2.8 2.1-5.1 5.1-5.1 1.9 0 2.9.6 3.9 1.5l-1.4 1.7c-.8-.7-1.5-1.1-2.5-1.1-1.7 0-2.8 1.4-2.8 3.1s1.1 3 2.8 3c1.1 0 1.7-.5 2.5-1.1l1.4 1.4c-1.1 1.1-2.1 1.7-4 1.7-2.8.1-5-2.2-5-5.1z"/><path fill="#e6e6e6" d="m80.9 289.7h3.4l4.2 13.2 4.4-13.3h2.6l4.4 13.3 4.2-13.2h3.3l-6.2 18h-2.7l-4.4-12.8-4.4 12.8h-2.7z"/><path fill="#e6e6e6" d="m107.1 300.8c0-3.9 3.1-7 7.2-7s7.2 3.2 7.2 7-3.1 7-7.3 7c-4 0-7.1-3.1-7.1-7zm11.3 0c0-2.3-1.7-4.3-4.2-4.3s-4.1 2-4.1 4.3 1.7 4.3 4.1 4.3c2.6.1 4.2-1.9 4.2-4.3z"/><path fill="#e6e6e6" d="m123.7 294h3.1v3c.8-2 2.4-3.4 4.8-3.3v3.2h-.2c-2.7 0-4.6 1.7-4.6 5.4v5.1h-3.1z"/><path fill="#e6e6e6" d="m133.4 288.9h3.1v11.1l5.6-6h3.8l-5.4 5.5 5.5 8h-3.5l-4.1-5.8-1.9 1.9v3.9h-3.1z"/><path fill="#e6e6e6" d="m146 300.8c0-3.9 3.1-7 7.2-7s7.2 3.2 7.2 7-3.1 7-7.3 7c-4.1 0-7.1-3.1-7.1-7zm11.2 0c0-2.3-1.7-4.3-4.2-4.3s-4.1 2-4.1 4.3 1.7 4.3 4.1 4.3c2.6.1 4.2-1.9 4.2-4.3z"/><path fill="#e6e6e6" d="m162.4 302.6v-8.6h3.1v7.6c0 2.1 1.1 3.3 2.9 3.3s3-1.3 3-3.3v-7.6h3.1v13.4h-3.1v-2.1c-.8 1.3-2.1 2.3-4.2 2.3-3 .2-4.8-1.8-4.8-5z"/><path fill="#e6e6e6" d="m178.1 303.8v-7.1h-1.7v-2.7h1.7v-3.7h3.1v3.7h3.6v2.6h-3.6v6.6c0 1.2.6 1.7 1.7 1.7.7 0 1.3-.2 1.9-.5v2.5c-.8.5-1.7.7-2.8.7-2.3.1-3.9-.9-3.9-3.8z"/><path fill="#e6e6e6" d="m187.4 289.7h3.2v15h9.4v2.9h-12.5v-17.9z"/><path fill="#e6e6e6" d="m210.2 307.5v-1.7c-.9 1.1-2.3 2-4.4 2-2.6 0-4.8-1.4-4.8-4.2 0-3 2.3-4.4 5.4-4.4 1.7 0 2.6.2 3.7.5v-.2c0-1.9-1.2-2.9-3.3-2.9-1.5 0-2.6.3-3.9.8l-.8-2.5c1.5-.7 2.9-1.1 5.1-1.1 4 0 5.9 2.1 5.9 5.7v8zm.1-5.6c-.8-.3-1.9-.5-3.1-.5-2 0-3.1.8-3.1 2.1s1.1 2 2.6 2c2 0 3.5-1.1 3.5-2.9z"/><path fill="#e6e6e6" d="m219.2 305.5v2.1h-3.1v-18.7h3.1v7.4c1-1.4 2.4-2.5 4.5-2.5 3.2 0 6.3 2.5 6.3 7s-3.1 7-6.3 7c-2.2 0-3.6-1.1-4.5-2.3zm7.7-4.7c0-2.6-1.7-4.3-3.9-4.3s-3.9 1.7-3.9 4.4c0 2.6 1.8 4.3 3.9 4.3s3.9-1.7 3.9-4.4z"/><path fill="#e6e6e6" d="m231.2 305.8 1.4-2.1c1.4 1.1 3 1.7 4.4 1.7s2.1-.5 2.1-1.5-1.3-1.4-2.8-1.8c-.1 0-.2-.1-.2-.1-2-.6-4.2-1.4-4.2-4s2.1-4.1 4.8-4.1c1.7 0 3.5.6 5 1.5l-1.2 2.2c-1.3-.8-2.6-1.3-3.8-1.3s-1.9.5-1.9 1.4 1.3 1.4 2.8 1.8c.1 0 .2.1.2.1 2 .6 4.2 1.5 4.2 4 0 2.9-2.2 4.2-5 4.2-2 0-4.1-.7-5.8-2z"/><path fill="#e6e6e6" d="m360.6 298.6c0-5.1 4.1-9.2 9.3-9.2s9.2 4.2 9.2 9.2-4.1 9.2-9.3 9.2-9.2-4.2-9.2-9.2zm17.4-.1c0-4.5-3.5-8.2-8.2-8.2s-8.2 3.7-8.2 8.3c0 4.5 3.5 8.2 8.2 8.2s8.2-3.7 8.2-8.3zm-13.1-.1c0-2.8 2.1-5.1 5.1-5.1 1.9 0 2.9.6 3.9 1.5l-1.4 1.7c-.8-.7-1.5-1.1-2.5-1.1-1.7 0-2.8 1.4-2.8 3.1s1.1 3 2.8 3c1.1 0 1.7-.5 2.5-1.1l1.4 1.4c-1.1 1.1-2.1 1.7-4 1.7-2.8.1-5-2.2-5-5.1z"/><path fill="#e6e6e6" d="m380.5 289.7h3.4l4.2 13.2 4.4-13.3h2.6l4.4 13.3 4.2-13.2h3.3l-6.2 18h-2.7l-4.4-12.8-4.4 12.8h-2.7z"/><path fill="#e6e6e6" d="m406.7 300.8c0-3.9 3.1-7 7.2-7 4.2 0 7.2 3.2 7.2 7s-3.1 7-7.3 7c-4.1 0-7.1-3.1-7.1-7zm11.3 0c0-2.3-1.7-4.3-4.2-4.3s-4.1 2-4.1 4.3 1.7 4.3 4.1 4.3c2.7.1 4.2-1.9 4.2-4.3z"/><path fill="#e6e6e6" d="m423.3 294h3.1v3c.8-2 2.4-3.4 4.8-3.3v3.2h-.2c-2.7 0-4.6 1.7-4.6 5.4v5.1h-3.1z"/><path fill="#e6e6e6" d="m433 288.9h3.1v11.1l5.6-6h3.8l-5.4 5.5 5.5 8h-3.5l-4.1-5.8-1.9 2v3.9h-3.1z"/><path fill="#e6e6e6" d="m445.6 300.8c0-3.9 3.1-7 7.2-7 4.2 0 7.2 3.2 7.2 7s-3.1 7-7.3 7c-4.1 0-7.1-3.1-7.1-7zm11.3 0c0-2.3-1.7-4.3-4.2-4.3s-4.1 2-4.1 4.3 1.7 4.3 4.1 4.3c2.6.1 4.2-1.9 4.2-4.3z"/><path fill="#e6e6e6" d="m462.1 302.6v-8.6h3.1v7.6c0 2.1 1.1 3.3 2.9 3.3s3-1.3 3-3.3v-7.6h3.1v13.4h-3.1v-2.1c-.8 1.3-2.1 2.3-4.2 2.3-3.1.2-4.8-1.8-4.8-5z"/><path fill="#e6e6e6" d="m477.8 303.8v-7.1h-1.8v-2.7h1.7v-3.7h3.1v3.7h3.6v2.6h-3.6v6.6c0 1.2.6 1.7 1.7 1.7.7 0 1.3-.2 1.9-.5v2.5c-.8.5-1.7.7-2.8.7-2.2.1-3.8-.9-3.8-3.8z"/><path fill="#e6e6e6" d="m487.1 289.7h3.2v15h9.4v2.9h-12.5v-17.9z"/><path fill="#e6e6e6" d="m509.9 307.5v-1.7c-.9 1.1-2.3 2-4.4 2-2.6 0-4.8-1.4-4.8-4.2 0-3 2.3-4.4 5.4-4.4 1.7 0 2.6.2 3.7.5v-.2c0-1.9-1.2-2.9-3.3-2.9-1.5 0-2.6.3-3.9.8l-.8-2.5c1.5-.7 2.9-1.1 5.1-1.1 4 0 5.9 2.1 5.9 5.7v8zm.1-5.6c-.8-.3-1.9-.5-3.1-.5-2 0-3.1.8-3.1 2.1s1.1 2 2.6 2c2 0 3.5-1.1 3.5-2.9z"/><path fill="#e6e6e6" d="m518.8 305.5v2.1h-3.1v-18.7h3.1v7.4c1-1.4 2.4-2.5 4.5-2.5 3.2 0 6.3 2.5 6.3 7s-3.1 7-6.3 7c-2.2 0-3.5-1.1-4.5-2.3zm7.7-4.7c0-2.6-1.7-4.3-3.9-4.3s-3.9 1.7-3.9 4.4c0 2.6 1.8 4.3 3.9 4.3s3.9-1.7 3.9-4.4z"/><path fill="#e6e6e6" d="m530.8 305.8 1.4-2.1c1.4 1.1 3 1.7 4.4 1.7s2.1-.5 2.1-1.5-1.3-1.4-2.8-1.8c-.1 0-.2-.1-.2-.1-2-.6-4.2-1.4-4.2-4s2.1-4.1 4.8-4.1c1.7 0 3.5.6 5 1.5l-1.2 2.2c-1.3-.8-2.6-1.3-3.8-1.3s-1.9.5-1.9 1.4 1.3 1.4 2.8 1.8c.1 0 .2.1.2.1 2 .6 4.2 1.5 4.2 4 0 2.9-2.2 4.2-5 4.2-1.9 0-4.1-.7-5.8-2z"/><path fill="#e6e6e6" d="m659.5 298.6c0-5.1 4.1-9.2 9.3-9.2s9.2 4.2 9.2 9.2-4.1 9.2-9.3 9.2-9.2-4.2-9.2-9.2zm17.3-.1c0-4.5-3.5-8.2-8.2-8.2s-8.2 3.7-8.2 8.3c0 4.5 3.5 8.2 8.2 8.2 4.8 0 8.2-3.7 8.2-8.3zm-13-.1c0-2.8 2.1-5.1 5.1-5.1 1.9 0 2.9.6 3.9 1.5l-1.4 1.7c-.8-.7-1.5-1.1-2.5-1.1-1.7 0-2.8 1.4-2.8 3.1s1.1 3 2.8 3c1.1 0 1.7-.5 2.5-1.1l1.4 1.4c-1.1 1.1-2.1 1.7-4 1.7-2.9.1-5-2.2-5-5.1z"/><path fill="#e6e6e6" d="m679.3 289.7h3.4l4.2 13.2 4.4-13.3h2.6l4.4 13.3 4.2-13.2h3.3l-6.2 18h-2.6l-4.4-12.8-4.4 12.8h-2.7z"/><path fill="#e6e6e6" d="m705.5 300.8c0-3.9 3.1-7 7.2-7 4.2 0 7.2 3.2 7.2 7s-3.1 7-7.3 7c-4 0-7.1-3.1-7.1-7zm11.3 0c0-2.3-1.7-4.3-4.2-4.3s-4.1 2-4.1 4.3 1.7 4.3 4.1 4.3c2.7.1 4.2-1.9 4.2-4.3z"/><path fill="#e6e6e6" d="m722.1 294h3.1v3c.8-2 2.4-3.4 4.8-3.3v3.2h-.2c-2.7 0-4.6 1.7-4.6 5.4v5.1h-3.1z"/><path fill="#e6e6e6" d="m731.8 288.9h3.1v11.1l5.6-6h3.8l-5.4 5.5 5.5 8h-3.5l-4.1-5.8-1.9 2v3.9h-3.1z"/><path fill="#e6e6e6" d="m744.4 300.8c0-3.9 3.1-7 7.2-7 4.2 0 7.2 3.2 7.2 7s-3.1 7-7.3 7c-4.1 0-7.1-3.1-7.1-7zm11.3 0c0-2.3-1.7-4.3-4.2-4.3s-4.1 2-4.1 4.3 1.7 4.3 4.1 4.3c2.6.1 4.2-1.9 4.2-4.3z"/><path fill="#e6e6e6" d="m760.9 302.6v-8.6h3.1v7.6c0 2.1 1.1 3.3 2.9 3.3s3-1.3 3-3.3v-7.6h3.1v13.4h-3.1v-2.1c-.8 1.3-2.1 2.3-4.2 2.3-3.1.2-4.8-1.8-4.8-5z"/><path fill="#e6e6e6" d="m776.6 303.8v-7.1h-1.7v-2.7h1.7v-3.7h3.1v3.7h3.6v2.6h-3.6v6.6c0 1.2.6 1.7 1.7 1.7.7 0 1.3-.2 1.9-.5v2.5c-.8.5-1.7.7-2.8.7-2.3.1-3.9-.9-3.9-3.8z"/><path fill="#e6e6e6" d="m785.9 289.7h3.2v15h9.4v2.9h-12.5v-17.9z"/><path fill="#e6e6e6" d="m808.7 307.5v-1.7c-.9 1.1-2.3 2-4.4 2-2.6 0-4.8-1.4-4.8-4.2 0-3 2.3-4.4 5.4-4.4 1.7 0 2.6.2 3.7.5v-.2c0-1.9-1.2-2.9-3.3-2.9-1.5 0-2.6.3-3.9.8l-.8-2.5c1.5-.7 2.9-1.1 5.1-1.1 4 0 5.9 2.1 5.9 5.7v8zm.1-5.6c-.8-.3-1.9-.5-3.1-.5-2 0-3.1.8-3.1 2.1s1.1 2 2.6 2c2 0 3.5-1.1 3.5-2.9z"/><path fill="#e6e6e6" d="m817.6 305.5v2.1h-3.1v-18.7h3.1v7.4c1-1.4 2.4-2.5 4.5-2.5 3.2 0 6.3 2.5 6.3 7s-3.1 7-6.3 7c-2.1 0-3.5-1.1-4.5-2.3zm7.7-4.7c0-2.6-1.7-4.3-3.9-4.3-2.1 0-3.9 1.7-3.9 4.4 0 2.6 1.8 4.3 3.9 4.3 2.2 0 3.9-1.7 3.9-4.4z"/><path fill="#e6e6e6" d="m829.6 305.8 1.4-2.1c1.4 1.1 3 1.7 4.4 1.7s2.1-.5 2.1-1.5-1.3-1.4-2.8-1.8c-.1 0-.2-.1-.2-.1-2-.6-4.2-1.4-4.2-4s2.1-4.1 4.8-4.1c1.7 0 3.5.6 5 1.5l-1.2 2.2c-1.3-.8-2.6-1.3-3.8-1.3s-1.9.5-1.9 1.4 1.3 1.4 2.8 1.8c.1 0 .2.1.2.1 2 .6 4.2 1.5 4.2 4 0 2.9-2.2 4.2-5 4.2-1.9 0-4-.7-5.8-2z"/><path fill="#e6e6e6" d="m206.3 434.2c0-5.1 4.1-9.2 9.3-9.2s9.2 4.2 9.2 9.2-4.1 9.2-9.3 9.2-9.2-4.1-9.2-9.2zm17.4-.1c0-4.5-3.5-8.2-8.2-8.2s-8.2 3.7-8.2 8.3c0 4.5 3.5 8.2 8.2 8.2s8.2-3.7 8.2-8.3zm-13.1-.1c0-2.8 2.1-5.1 5.1-5.1 1.9 0 2.9.6 3.9 1.5l-1.4 1.7c-.8-.7-1.5-1.1-2.5-1.1-1.7 0-2.8 1.4-2.8 3.1s1.1 3 2.8 3c1.1 0 1.7-.5 2.5-1.1l1.4 1.4c-1.1 1.1-2.1 1.7-4 1.7-2.9.1-5-2.2-5-5.1z"/><path fill="#e6e6e6" d="m226.1 425.3h3.4l4.2 13.2 4.4-13.3h2.6l4.4 13.3 4.2-13.2h3.3l-6.2 18h-2.7l-4.4-12.8-4.4 12.8h-2.7z"/><path fill="#e6e6e6" d="m252.4 436.4c0-3.9 3.1-7 7.2-7 4.2 0 7.2 3.2 7.2 7s-3.1 7-7.3 7c-4.1 0-7.1-3.1-7.1-7zm11.2 0c0-2.3-1.7-4.3-4.2-4.3s-4.1 2-4.1 4.3 1.7 4.3 4.1 4.3c2.7.1 4.2-1.9 4.2-4.3z"/><path fill="#e6e6e6" d="m269 429.7h3.1v3c.8-2 2.4-3.4 4.8-3.3v3.2h-.2c-2.7 0-4.6 1.7-4.6 5.4v5.1h-3.1z"/><path fill="#e6e6e6" d="m278.6 424.5h3.1v11.1l5.6-6h3.8l-5.4 5.5 5.5 8h-3.5l-4.1-5.8-1.9 2v3.9h-3.1z"/><path fill="#e6e6e6" d="m291.3 436.4c0-3.9 3.1-7 7.2-7 4.2 0 7.2 3.2 7.2 7s-3.1 7-7.3 7c-4.1 0-7.1-3.1-7.1-7zm11.2 0c0-2.3-1.7-4.3-4.2-4.3s-4.1 2-4.1 4.3 1.7 4.3 4.1 4.3c2.6.1 4.2-1.9 4.2-4.3z"/><path fill="#e6e6e6" d="m307.7 438.2v-8.6h3.1v7.6c0 2.1 1.1 3.3 2.9 3.3s3-1.3 3-3.3v-7.6h3.1v13.4h-3.1v-2.1c-.8 1.3-2.1 2.3-4.2 2.3-3 .2-4.8-1.8-4.8-5z"/><path fill="#e6e6e6" d="m323.4 439.4v-7.1h-1.7v-2.6h1.7v-3.7h3.1v3.7h3.6v2.6h-3.6v6.6c0 1.2.6 1.7 1.7 1.7.7 0 1.3-.2 1.9-.5v2.5c-.8.5-1.7.7-2.8.7-2.3 0-3.9-.9-3.9-3.9z"/><path fill="#e6e6e6" d="m332.7 425.3h3.2v15h9.4v2.9h-12.5v-17.9z"/><path fill="#e6e6e6" d="m355.5 443.1v-1.7c-.9 1.1-2.3 2-4.4 2-2.6 0-4.8-1.4-4.8-4.2 0-3 2.3-4.4 5.4-4.4 1.7 0 2.6.2 3.7.5v-.2c0-1.9-1.2-2.9-3.3-2.9-1.5 0-2.6.3-3.9.8l-.8-2.5c1.5-.7 2.9-1.1 5.1-1.1 4 0 5.9 2.1 5.9 5.7v8zm.1-5.6c-.8-.3-1.9-.5-3.1-.5-2 0-3.1.8-3.1 2.1s1.1 2 2.6 2c2 0 3.5-1.1 3.5-2.9z"/><path fill="#e6e6e6" d="m364.4 441.1v2.1h-3.1v-18.7h3.1v7.4c1-1.4 2.4-2.5 4.5-2.5 3.2 0 6.3 2.5 6.3 7s-3.1 7-6.3 7c-2.1 0-3.5-1.1-4.5-2.3zm7.7-4.7c0-2.6-1.7-4.3-3.9-4.3-2.1 0-3.9 1.7-3.9 4.4 0 2.6 1.8 4.3 3.9 4.3 2.2 0 3.9-1.7 3.9-4.4z"/><path fill="#e6e6e6" d="m376.5 441.4 1.4-2.1c1.4 1.1 3 1.7 4.4 1.7s2.1-.5 2.1-1.5-1.3-1.4-2.8-1.8c-.1 0-.2-.1-.2-.1-2-.6-4.2-1.4-4.2-4s2.1-4.1 4.8-4.1c1.7 0 3.5.6 5 1.5l-1.2 2.2c-1.3-.8-2.6-1.3-3.8-1.3s-1.9.5-1.9 1.4 1.3 1.4 2.8 1.8c.1 0 .2.1.2.1 2 .6 4.2 1.5 4.2 4 0 2.9-2.2 4.2-5 4.2-2 0-4.1-.7-5.8-2z"/><path fill="#e6e6e6" d="m505.1 434.2c0-5.1 4.1-9.2 9.3-9.2s9.2 4.2 9.2 9.2-4.1 9.2-9.3 9.2-9.2-4.1-9.2-9.2zm17.4-.1c0-4.5-3.5-8.2-8.2-8.2s-8.2 3.7-8.2 8.3c0 4.5 3.5 8.2 8.2 8.2s8.2-3.7 8.2-8.3zm-13.1-.1c0-2.8 2.1-5.1 5.1-5.1 1.9 0 2.9.6 3.9 1.5l-1.4 1.7c-.8-.7-1.5-1.1-2.5-1.1-1.7 0-2.8 1.4-2.8 3.1s1.1 3 2.8 3c1.1 0 1.7-.5 2.5-1.1l1.4 1.4c-1.1 1.1-2.1 1.7-4 1.7-2.9.1-5-2.2-5-5.1z"/><path fill="#e6e6e6" d="m525 425.3h3.4l4.2 13.2 4.4-13.3h2.6l4.4 13.3 4.2-13.2h3.3l-6.2 18h-2.7l-4.4-12.8-4.4 12.8h-2.7z"/><path fill="#e6e6e6" d="m551.2 436.4c0-3.9 3.1-7 7.2-7 4.2 0 7.2 3.2 7.2 7s-3.1 7-7.3 7c-4.1 0-7.1-3.1-7.1-7zm11.2 0c0-2.3-1.7-4.3-4.2-4.3s-4.1 2-4.1 4.3 1.7 4.3 4.1 4.3c2.7.1 4.2-1.9 4.2-4.3z"/><path fill="#e6e6e6" d="m567.8 429.7h3.1v3c.8-2 2.4-3.4 4.8-3.3v3.2h-.2c-2.7 0-4.6 1.7-4.6 5.4v5.1h-3.1z"/><path fill="#e6e6e6" d="m577.5 424.5h3.1v11.1l5.6-6h3.8l-5.4 5.5 5.5 8h-3.5l-4.1-5.8-1.9 2v3.9h-3.1z"/><path fill="#e6e6e6" d="m590.1 436.4c0-3.9 3.1-7 7.2-7 4.2 0 7.2 3.2 7.2 7s-3.1 7-7.3 7c-4.1 0-7.1-3.1-7.1-7zm11.2 0c0-2.3-1.7-4.3-4.2-4.3s-4.1 2-4.1 4.3 1.7 4.3 4.1 4.3c2.6.1 4.2-1.9 4.2-4.3z"/><path fill="#e6e6e6" d="m606.5 438.2v-8.6h3.1v7.6c0 2.1 1.1 3.3 2.9 3.3s3-1.3 3-3.3v-7.6h3.1v13.4h-3.1v-2.1c-.8 1.3-2.1 2.3-4.2 2.3-3 .2-4.8-1.8-4.8-5z"/><path fill="#e6e6e6" d="m622.2 439.4v-7.1h-1.7v-2.6h1.7v-3.7h3.1v3.7h3.6v2.6h-3.6v6.6c0 1.2.6 1.7 1.7 1.7.7 0 1.3-.2 1.9-.5v2.5c-.8.5-1.7.7-2.8.7-2.3 0-3.9-.9-3.9-3.9z"/><path fill="#e6e6e6" d="m631.5 425.3h3.2v15h9.4v2.9h-12.5v-17.9z"/><path fill="#e6e6e6" d="m654.3 443.1v-1.7c-.9 1.1-2.3 2-4.4 2-2.6 0-4.8-1.4-4.8-4.2 0-3 2.3-4.4 5.4-4.4 1.7 0 2.6.2 3.7.5v-.2c0-1.9-1.2-2.9-3.3-2.9-1.5 0-2.6.3-3.9.8l-.8-2.5c1.5-.7 2.9-1.1 5.1-1.1 4 0 5.9 2.1 5.9 5.7v8zm.1-5.6c-.8-.3-1.9-.5-3.1-.5-2 0-3.1.8-3.1 2.1s1.1 2 2.6 2c2 0 3.5-1.1 3.5-2.9z"/><path fill="#e6e6e6" d="m663.3 441.1v2.1h-3.1v-18.7h3.1v7.4c1-1.4 2.4-2.5 4.5-2.5 3.2 0 6.3 2.5 6.3 7s-3.1 7-6.3 7c-2.2 0-3.6-1.1-4.5-2.3zm7.7-4.7c0-2.6-1.7-4.3-3.9-4.3s-3.9 1.7-3.9 4.4c0 2.6 1.8 4.3 3.9 4.3s3.9-1.7 3.9-4.4z"/><path fill="#e6e6e6" d="m675.3 441.4 1.4-2.1c1.4 1.1 3 1.7 4.4 1.7s2.1-.5 2.1-1.5-1.3-1.4-2.8-1.8c-.1 0-.2-.1-.2-.1-2-.6-4.2-1.4-4.2-4s2.1-4.1 4.8-4.1c1.7 0 3.5.6 5 1.5l-1.2 2.2c-1.3-.8-2.6-1.3-3.8-1.3s-1.9.5-1.9 1.4 1.3 1.4 2.8 1.8c.1 0 .2.1.2.1 2 .6 4.2 1.5 4.2 4 0 2.9-2.2 4.2-5 4.2-2 0-4.1-.7-5.8-2z"/></g>
</svg>
