<?xml version="1.0" encoding="utf-8"?>
<!-- Generator: Adobe Illustrator 23.0.1, SVG Export Plug-In . SVG Version: 6.00 Build 0)  -->
<svg version="1.2" baseProfile="tiny" id="Layer_1" xmlns="http://www.w3.org/2000/svg" xmlns:xlink="http://www.w3.org/1999/xlink"
	 x="0px" y="0px" viewBox="0 0 900 600" xml:space="preserve">
<g>
	<path d="M769.17,487.49c-14.38-4.22-14.44-13.86-19.79-17.49c-8.25-5.61,0.19-14.83-10.2-14.3c-1.86,0.27-2.32,0.9-2.3-1.8
		c0.04-6.18,1.8-30.14,4-37.59c8.11-27.46,0-38.23,4.8-49.09c5.52-12.49-1.31-20.44-3.1-25.69c-8.51-24.96-5.37-22.95-7.8-27.29
		c-2.89-5.17,1.07-4.67-4.8-12.5c-1.06,2.12,2.34,4.99,2,8.9c-0.27,3.11,2.03,3.68,2.6,9.5c0.75,7.58,4.43,17.33,5.3,20.39
		c-15.9,3.6-31.49,4.6-47.49,2.7c-0.8-1.8-1.4-3.6-2.3-5.8c2.65,1.77,4.29,2.97,5.22,3.68c-2.28-2.12-7.73-8.19-7.62-15.98
		c1.7,0.6,2.3,2.7,4.5,3c-0.7-1.5-1.7-2.4-2.7-3.1c-3.66-2.57-6.32-9.04-2.7-11.7c6.86,3.68,12.44,8.84,18.39,13.52
		c0.26-2.52-13.41-12.41-17.19-14.62c2.82-6.77,5.81-4.93,20.99-2.4c-5.1-3.1-11.1-2.5-16.7-5c-4.6,4.7-11.7,4.1-17.59,6.5
		c3.3,0.6,6.5-1,9.8-0.9c-0.4,1.4-1.39,2.3-1.2,3.6c0.21,1.5-1.1,2-1.5,3.1c0.6,0.7,1.2-0.6,2.1,0.4c0.2,10.7,4.4,21.19,4.7,32.39
		c-16.99,3.2-33.99,3.7-51.08,6.1c-1.21-11.99-8.99-28.51-9.3-35.39c-1.31-28.96-15.27-37.96-3.4-36.09c2,7.5,4.71,14.8,3.6,22.99
		c-0.79,5.8-0.3,11.7,3.1,17.19c3.21,5.18,16.53,23.89,22.59,24.49c-5.67-5.21-21.47-21.09-23.19-28.59
		c-4.65-20.28,3.48-6.89-4.9-36.59c15.93-1.9,22.64-3.3,29.19,1.2c7.6-2.67,10.74-16.21,3.9-4.7c-0.89,1.5-1.9,3.2-4.5,2.2
		c1.2-2.3,3.4-3.9,3.8-7c-3.3,1.5-3.4,7.1-8.1,5.6c-1.2-3.1,1.2-5.5,0.9-8.2c-0.82-1.48-0.93,2.36-3.5-3.3
		c-6.02-13.24,2.92-13.79-5.5-26.09c-14.49-21.16-17.98-25.94-20.89-35.29c-6.97-22.34-6.11-21.39-8.1-21.39
		c1.1,8.2,4.89,15.5,6.9,23.19c2.09,8,6.8,14.7,11.2,21.59c-2.49,1.99-8.64,3.3-8.1,10.5c0,1.74-1.05,0.01-3.2,9.7
		c-0.78,3.5-1,7.2-2.6,10.5c-1.5,3.1-1,6.7-2.3,10.2c-3.8-0.1-7.4,1.1-11,0.7c-0.88-1.39-6.35-47.6-35.79-56.18
		c-28.96-8.44-55.61,7.08-62.18,49.88c-1.27,8.29-0.42,16.1-2.1,16.1c-11.1,0.9-21.99,2.5-33.09,2.8c-3.13,0.26-10.4,5.37-2.4,12.7
		c12.5,0,24.79-2.3,37.29-2.9c4.51,36.07,26.4,64.56,61.88,56.58c27.21-6.12,34.99-38.34,37.09-66.28c4.1-0.4,7.9-0.7,11.9-1.1
		c10.17,37.11,10.1,44.51,16.3,62.78c3.48,10.27-1.87,12.18,5,11.1c3.8-0.6,7.6-1.8,11.9-1.3c2.8,5.9,6.51,11.89,1.2,18.49
		c-1.49,1.85-1.71,6.65-2.7,9.2c-7.17,18.35-1.46,32.57,11.3,80.78c0.2,1,0.4,2.2,1.9,2.3c2.38-2.78-6.06-19.27-12.8-57.28
		c-4.18-23.6,8.84-32.17,7.6-40.19c-0.76-4.9-0.6-10.2-5-14.4c3.77,0,1.69,3.83,7.6,5.7c-1-2.1-1.6-3.7-1.9-5.6
		c2.1-0.5,4-0.7,5.8-0.7c1.09,0.99,3.54,6.7,2-0.5c7.8-1.5,15.6-1.8,23.29-4.1c1.25,25.66,1.42,13.72-7.5,30.79
		c-0.58,1.11,0.02,2.31-0.7,3.4c-2.03,3.04-2.1,6-0.2,9.1c0-7.98,1.58-3.17,0,0c0.87,5.83-3,14.96-3,16.59
		c0,10.19-3.18,20.33-2.9,26.29c0.82,17.51,3.62,20.99,4,27.79c-2.2,1.2-5.19,0.31-7,1.7c-2.89,2.22-6.2,2.3-9.4,3.3
		c-4.99,2.14-7.16,18.07-11.7,28.19c9.29,11.1,12.98,5.45,22.29,9.1c11.94,4.67,27.93,4.11,28.49,1.3c-1.15-1.49-10.33,0.19,4.1-2.7
		c-0.08,0.63-4.71,2.64,3.2,1.5c8.66-1.25,4.8-9.47,0.5-10.7c-16.96-4.84-16.28-18.01-23.39-21.09c-0.6-3.7,0.8-7.3-0.8-10.5
		c-1.4-0.5-2.7,0.2-4-0.5c-0.41-6.84-1.33-6.25-3.2-16c-2.11-11.04,2.34-37.58,4.3-43.29c2.91-8.46-0.21-18.17,2.9-24.39
		c2.6-5.2,7.52-5.45,7.3-12.8c-0.09-3.1,0.56-6.09-0.3-9.2c-0.63-2.29,1.2-5-1-7.5c2.9-1.7,0.6-4.2,1.1-6.3c5-0.1,7.48,2.96,9.4,6.9
		c3.49,7.2,10.79,10.52,7.4,18.99c-3.71,9.27-3.18,26.26-1.1,31.09c8.39,19.44,6.24,41.15,7.4,53.78
		c1.22,13.23-4.91,15.47-4.7,23.39c0.25,9.62-8.54,11.53,1,15.6c6.57,2.8,20.57,2.26,21.26,0.66c3.23,3.14,9.78,3.95,14.23,4.14
		c13.37,0.57,24.51,4.22,26.69-6.3C773.54,490.48,772.27,488.4,769.17,487.49z M638.71,243.36c-0.5,0.2-0.7-0.1-0.7-1
		C638.41,242.86,638.61,243.16,638.71,243.36z M636.81,241.06c-2.3-1.5-3.1-4.2-4.5-6.6C634.71,236.06,635.31,238.86,636.81,241.06z
		 M630.92,235.86c1.2,3.6,1.1,7.9,4.2,10.9c-3-1.5-6-2.9-9-4.3C626.02,238.96,627.42,236.86,630.92,235.86z M621.12,258.86
		c2.51-3.24-0.11-9.09,4.4-14c12.6,6.18,18.09,11.99,14.1,6c-4.62-6.16,1.09-0.21,3.6,1.1c2.26,1.18,0.2,6.3-0.8,7.9
		c-5.7-1-11.5-1.3-17.39-1.2c-0.9-1.1,0.3-1.9-0.6-3.2c-5.4,10.22-0.38,17.89-6.2,16.59C617.48,270.57,617.94,262.95,621.12,258.86z
		 M644.71,269.75c-7.2,0.8-14.6,1-22.19,2.2c-0.5-4.2,0.2-7.8,1.1-11.6c6.2-0.1,12.2,0.36,18.19,1.4
		C643.66,262.08,643.58,263.51,644.71,269.75z M468.46,295.64c-2.2-2.7-2-3.7,0.9-6.7C473.45,291.6,472.4,295.97,468.46,295.64z
		 M478.26,295.74c-1.4,0.3-2.9,0.4-5.4,0.5c2.7-2.9,0.3-5.2,0.3-7.8c81.64-7.62,77.69-8.44,79.88-5.9
		C554.16,290.23,558.47,288.51,478.26,295.74z M550.74,293.95c-0.7-1-0.5-1.8,0.5-2.7c3.3,7.1,7.23,13.79,6.7,21.99
		c-0.47,7.37-3.48,6.34-4.1,2.9C549.34,291.21,552.32,296.2,550.74,293.95z M552.94,290.95c4.7-5.2,4.1-12.8-4.9-12.3
		c2.5-3.6,5.59-3.99,9.1-1.1c5.74,4.74,2.73,15.02-2.4,16.59C553.64,293.15,553.34,291.95,552.94,290.95z M549.04,291.75
		c-4.7,8.3-5.9,17.49-7.5,26.59c-11.15-4.78-4.12-14.27,3.6-25.39C546.04,291.65,547.24,291.45,549.04,291.75z M527.15,340.23
		c-11.33-11.58-18.08-30-19.09-44.49c1.2-0.8,2.3-0.6,3.5-0.9c0.17,0.33,9.36,50.76,36.49,50.48c2.5-0.03,5.1,0.5,7.2-1.6
		c-0.9-0.5-1.6-0.01-2.3,0.1c-23.77,3.89-39.81-39.1-38.69-49.19c29.56-2.86,30.32-3.64,26.79-0.2c-3.95,3.85-5.91,8.99-8.7,13.5
		c-3.49,5.64,10.42,18.82,11.9,11c1.36-7.25,2.92-19.86,4.8-22.49c-0.31,16.53,1.45,15.22,0.6,18.19c-1.27,6.99,8.03,11.58,11,4.6
		c2.54-5.98-0.55-18.02-5.2-23.39c18.12-8.31-1.58-33.5-9.8-17.89c-1,1.9,2.41,1.19-32.59,4.4c-2.29-24.74,16.78-61.31,34.89-57.48
		c2.59,0.55,5.2,0.7,7.8,1c0.2-0.6,0.1-0.9-0.2-1c-5.4-2.2-10.88-3.77-16.59-0.8c-28.88,15.02-28.13,56.86-28.49,58.18
		c-5.06,2.76-3.91-2.64-3.2-10.4c5.64-61.85,57.51-72.06,75.78-18.99C605.31,317.59,561.05,374.89,527.15,340.23z M556.54,352.03
		c0.98-1.23,2.27-0.96,5-2.3c43.84-21.44,37.29-122.21-10.1-133.06C614.83,212.5,622.3,349.24,556.54,352.03z M604.62,283.65
		c-0.2-2.7-0.4-4.9-0.6-7.6c14-1.3,27.79-2.6,41.39-3.9c2.2,3.2,2.3,3.5,1.8,7.4C633.21,280.85,619.12,282.25,604.62,283.65z
		 M662.11,472.59c9.62-2.96,7.26-2.64,8.5-1.4c-4.1,2.1-5,7.4-10.5,9.1C662.21,477.79,662.11,475.29,662.11,472.59z M658.11,480.19
		c0.7,0.6,1,1.1,0.6,2C657.61,481.69,657.71,481.09,658.11,480.19z M704.19,506.08c1.7-0.5,3.2-1.9,5.3-1.2
		C707.82,506.03,706.12,506.24,704.19,506.08z M693.7,491.09c-0.5,0.5-0.9,0.4-1.4,0.2C692.7,489.79,693.1,490.79,693.7,491.09z
		 M682.7,477.29c-3.8,1.6-8.5,0.5-11.2,4.6c2.13,0.57,5-1.8,8.4-1.4c-1.6,0.6-3.2,1.2-4.9,1.1c-0.7,1.3-2.9,1.1-3.4,3.1
		c2.4,0.6,4.6-0.5,6.9-0.3c0,1-1.5,1-1.2,2.4c3.9,0.7,7.5-1.4,11.4-1.5c-3,1.8-7.5,0.7-9.9,4.8c2.5,0.6,4.6,0.1,6.9-0.3
		c0.1,1.2-1.7,1.1-1.5,2.2c3.3,1.5,6.6,2.8,10.5,2.7c1.2-0.5-0.4-1.5,0.2-2.2c2.09,0.7,6.22,4.81,11.7,6.1c2.2,0.52,3.6,2,3.9,4.2
		c-13.66,4.94-15.55,1.83-16.2,6c-7.4,0-14.59-0.51-21.29-3.3c-7.87-3.27-15.65-1.47-20.89-6.9c2.1-4.5,2.9-9.5,5-13.3
		c4.6-3.3,9.61-5.19,12.3-10.1c0.6-1.1,1.8-1,2.7-1.2c1-1.6-0.2-3.1,0-4.6C688.03,467.34,678.04,467.3,682.7,477.29z M754.18,480.99
		c-0.7,0.5-1,0.5-1.6,0.2C752.98,480.39,753.28,480.09,754.18,480.99z M746.88,471.29c-0.4,0.4-0.9,0.4-1.4,0.1
		C745.98,470.99,746.48,470.89,746.88,471.29z M711.29,406.81c-9.97-27.93,7.23-44.09-7.3-51.88c-1.75-8.26-9.03-8.28-1.6-8.9
		c2.5,1.8,2.7,5.9,7,6.8c-9.07-10.03-2.21-4.55,13.7-7.3c5.7-0.98,11.6-1.2,17.49-3.5c1,5.1,3.37,9.51,4.9,14.2
		c0.94,2.87-3.6,14.54-4,19.19c-0.65,7.61,2.51,16.68-1.6,33.99c-2.44,10.28-6.53,38.26-5.3,47.29c-2,1.2-4.1,1.9-4.8,4
		c-4.4,1-8.7,1.8-13.2,3.2C717.09,461,718.49,426.97,711.29,406.81z M730.69,466.69c-3,1-5.7,2.6-8.1,4.7c-2.5,2.2-5.8,0.2-6.9-4.4
		c4.5-2.6,9.5-3.1,14.1-4.1C730.79,464.09,730.69,465.39,730.69,466.69z M766.57,498.88c-8.33,0.24-25.45-1.33-27.09-1.7
		c-7.77-1.74-6.12-3.8-7.43-3.15c-0.95,3.34-0.64-0.24-9.87,0.56c-4.9,0.42-9.7,0-13.9-3.8c3.9-6.5,3.9-14,5.5-21.39
		c1.5,4,5.1,4.5,8.5,5.5c3-1.9,5.5-4.6,8.7-6.4c2.5-1.4,0.7-3.8,0.9-6c2.5-1.3,4.1-4.4,7.9-4c0.4,2.8,1.2,5.5,3.8,7.8
		c-4.16,1.29-8.49,0.29-11.89,3.77c-0.95,2.36,2.99-1.12,9.58-1.16c-1.51,1.38-8.06,1.04-6.99,5.3c1.6,0.1,2.6-1.6,4.1-0.9
		c-0.4,1-1.7,1.4-1.9,3c4.5-0.1,8.8-1.6,13.9-2c-2.08,1.75-7.34,2.16-7.34,3.93c2.88,1.64,5.76,0.07,8.64,0.07
		c-1.22,0.55-6.08,1.24-6.08,3.09c3.69-1.27,6.09,4.6,10.28,1.1c3.4,4.5,8.4,6.1,13.6,7.4
		C772.37,494.08,768.57,496.18,766.57,498.88z M743.28,468.91c-0.38,0-1.43,0-1.9,0C741.98,468.71,742.58,468.41,743.28,468.91z"/>
	<path d="M695.32,341.12C696.44,342.16,696.78,342.25,695.32,341.12L695.32,341.12z"/>
	<path d="M705.19,326.94h0.1C705.17,326.82,705.19,326.86,705.19,326.94z"/>
	<path d="M893.54,245.96c-4.4,0.51-8.9,0.9-13.5,1.3c-14.89-64.54-78.35-57.37-88.57-4.5c-0.81,4.2-0.9,8.5-1.5,13
		c-6.1,0.5-12.1,1.5-18.09,1.6c-2.92-7.14-4.16-8.22-3.5-12.1c1.77-10.32-1.4,1.53-1.4-29.89c0-2.58,3.79-9.42,5.3-11.5
		c3.91-5.39-0.6-1.89,4-10.9c2.26-4.42,2.99-9.41,6.3-13.4c4.94-5.96,2.96-18.86-2.8-23.79c2.5-3.3,2.82-7,3-10.6
		c0.45-8.94,4.29-5.42,0.3-16.4c0.5,5.9-2.2,11.4-2.3,17.19c-0.1,6.1-3.2,11.4-5,16.69c-19.07,0-0.75-0.22,2.8,5.1
		c0.3-2.5-1.1-3.2-1.9-4.6c1.8-0.9,1.6-3,2.4-4.9c2.62,2.62,7.44,14.38-1.68,24.56c-0.09-0.47,0.2-1.07-0.32-1.67
		c-0.7,0.6-1.3,1.1-0.8,2.2c2.31-0.56,0.03-0.34-1.3,5.3c-0.81,3.45-4.38,15.42-7.5,18.09c-0.6-12.8,2.3-25.09-0.2-37.09
		c0.7-1.1,1.9-0.9,2.1-1.9c-0.8-0.8-2-0.4-2.8-1c-0.9-0.9-0.2-3.1-2.4-3.1c-0.71,1.42,1.97,7.74,1.5,14.1
		c-2.14,28.65,2.75,34.26-8.3,40.99c-22.74,13.86-19.99,11-21.49,13c-5.41,7.16-13.27,8.72-16.89,13.1
		c-13.65,16.46-39.84,17.24-41.49,15.6c-4.95-4.36-11.67-0.47-13.1-9.3c6.3,3,12.6,4.8,19.19,5.4c-1.84-1.84-11.3-1.6-20.59-7.2
		c-3.43-2.07-5.32-3.99-12.2-28.29c-0.2-0.7-0.5-1.4,0.1-2.1c12.55-11,14.1-21.47,18.89-20.59c-1.1,5.1,0.9,9.7,1,14.6
		c3.8-1.09-3.29-4.55,10.1,1.9l-0.1,0.1c2.21-1.47,7.26,3.43,21.19-1.6c8.35-3.01,27.09-25.34,18.59-44.59
		c-4.88-11.06,1.73,1.83-10.1-20.69c2.4-0.5,4.39-0.7,5.7,2c5.47,11.31,8.49,23.29,11.2,35.39c3.55,15.88,9.98,14.06,13.2,16.79
		c-0.3,1.4-1.5,2.3-1.6,4c1.8-1.2,2.3-3,3.5-4.2c10.81-0.72,23.44-12.52,21.09-25.29c-0.77-4.2-0.9-8.5-2.7-12.5
		c5.99-1.8,5.2-1.41,5.2-2.3c-1.6,0.1-2.8-1.1-4.5-1c-0.6,0.6-0.31,1.58-1.8,2c-1.99,0.56-3.75,2.17-3.6,4.8
		c1.24,0.13,2.13-0.82,3.3-1.3c0.6,1.8,1.4,3.3,1.2,4.2c-3.8,4.2-9,4.7-12.6,8c4.9-0.3,8.4-3.7,12.7-5.5
		c1.3,9.5,0.02,14.81-5.8,20.09c-3.09,2.81-6.7,5.2-11.7,4.9c1.6-3.4,2.1-6.7,2.2-10.1c-1.9,3.1-2,6.9-3.9,10
		c-2.4-0.2-4.97,0.38-6.6-1.7c-5.31-6.77-6-14.9-6.8-23.49c8.51,4.02,17.48,3.28,3.7,0.3c-3.89-0.84-5.1-2.5-4.6-6.5
		c3.1-0.4,6.4,0,9.2-1.8c-3.6-1.4-6.8,0.9-10.4,0.8c-1.4-6.2-5.6-11.2-8-17.49c10.97,0,17.28,0.54,20.09-11.2
		c1.3,0.7,1.5,2.1,2.9,2.7c0.7-0.3,2.1,0.3,2.3-1.6c-1.2-0.6-3.4-0.1-2.9-2.5c0.7-0.2,1.6,0.1,2.3-0.9c0.3-1.2-0.1-2.8,0.7-4.2
		c1.3,1.3,1.1,3,2.1,4.5c3.2-7.1,5.9-14.4,10.4-20.69c2.5,0.7,3.1-1.8,5-2.4c-0.7-1.4-1.3-2.6-1.8-3.6c-1.1-0.4-2.3,0.2-2.9-1.2
		c1.3-1.9,2.3,0.2,3.4,0.4c1.7,0.3,2,2,2.7,3.1c1.5-0.3,0.6-1.5,0.9-1.8c6-2.2,12,1.6,18.19-0.8c-0.2,4.9,1.5,9.2,2.3,13.5
		c-8.9,3.8-9.2,6-7.4,10.4c0.8-0.9,0-2.2,1.1-3.3c1.9,0.8,3.8-0.3,5.6-0.8c0.9-1.3,1-2.6,1.3-3.9c0.5-1.6,1.59-3.19,0.8-4.8
		c-1.92-3.89-1.3-8.2-2-11.9c1.9-2.9,5-3.5,7.3-5.8c-0.4-1.1,0.1-2.3,0.1-3.4c-1.3-1-2.8,0-4-0.7c0.6-1.3,2.6-1.1,2.6-2.9
		c-1.9-2-3.5,0.1-5.4,0.7c0.54-11.37-1.66-3.64-4.7-2.8c-0.3-0.5,0.3-1.2-0.1-1.4c-3.9-1.4-7.01,1.93-10.9,1
		c-3.61-0.87-7.5-0.2-11.2-0.2c-1.1,1-1.1,3-2.9,2.7c-0.4-0.8,0.5-2.1-1.4-2.3c-2,2.7-4.8,4.4-8.5,4.5c-1.7-1-2.9-3.4-5.5-2.1
		c-0.1,1.7,1.4,2.1,1.8,3.4c-2.1,0.9-1.2,3.8-3,5c1.2,0.2,2.3,0,3.3-0.2c2.14,1.61,1.18,2.32,1.5,2c0,0.05,0.03,0.07,0.05,0.09
		c-0.14-0.01-1.71,0.13-4.05,1.91c-0.1-1.4,1.3-1.6,1.3-2.8c-0.3-0.9-1.4-0.6-2.1-1c-1.9,0.4,0.3,1.4-0.2,2.4
		c-1.29,1.9-3.94,9.41-4.9,17.69c-0.36,3.1,1.1,6.6-1.1,9.3c1.1,5.2,1,10-2.5,14.5c-5.1-1.2-10.09-0.13-15.1,0.3
		c-1.4,0.12-3.08-1.05-4.9-0.5c-7.18,2.19-9.87,3.74-16,1.1c-2.3-0.99-4.8-2.27-7.2-2.2c-5.7,0.17-11.01,2.09-14.6,6.7
		c-4.91,6.32-14-0.96-27.39,11.1c-0.66,0.66-17.59,10.35-17.69,10.4c-6.77,3.48-16.36,17.57-8.7,10.7
		c12.65-11.35,23.81-16.07,32.09-22.29c8.89-6.68,13.5-2.85,23.17-7.3c-1.02,1.71-2.69,3.09-2.98,5.3c2.3-3.4,6.9-4.5,9.4-8.6
		c-2.52,0-3.57,1.56-5,2.17c8.38-9.93,17.39-3.57,27.69-2.37c2.1-0.8,4.4-2.1,7.2-2.5c3.4,6.5,6.7,13.1,9.1,20.39
		c-1.8-0.4-2.9-0.6-4-0.9c3.91,4.89,5.35-2.36,6.2,14.7c-0.94,0.47-1.44-0.46-2.16-0.33c0.45,1.01,1.97,0.97,2.26,2.73
		c-1.6,5.3-4.31,10.59-7.4,15.7c-0.6,1-1.5,0.5-2.3,0.6c0.5,7.6-18.49,15.5-29.59,10.4c-0.6-0.9-0.2-2.5-1.6-2.9
		c-1.3,0.3,0,1.7-0.9,2.1c-4.5-1.8-5.3-2.9-5.7-6.5c-0.61-5.5,1.2-9.3,6.9-11.3c3.05,0.34,3.53,0.15,5.9,3.9
		c0.5,0.8,1.89,1.1,1.7,2.3c-0.42,2.7,1.9,4.8,1.8,7.5c-0.1,0.9,0.8,2,2,2.3c2.79-3.55-0.46-5.53-1.4-13
		c-0.54-4.32-7.98-6.71-12.3-5.7c-0.87,6.09-24.47,9.23-31.09,8.3c-0.8-1.6-1.5-3.3-2.4-5c-1.82-3.03-2.29-1.69-2.8-2.2
		c1.2,3.5,3.11,6.8,4.2,10.4c4.75,15.67,4.68,34.12,18.89,53.78c3.53,4.88,4.9,10.6,8.4,15.5c-2.7,2.2-3.9,5.3-6.2,8.1
		c-0.2-1.7,1.1-2.3,0.7-3.8c-2.8,2.4-3.8,5.8-7.1,7.2c0.2,0.4,0.5,0.9,0.7,1.3c10.19-5.79,10.98-5.05,33.59-7
		c-0.33,1.15-1.83,1.15-0.7,1.9c4.6-2.1,9.5-3.3,15.4-3c-4.5,2.7-9,3.5-12.6,6.2c5.5-1.9,11.8-1.9,16-6.9c1.1,0,2.3-0.4,3.7,0.2
		c1.7,2.4,4.3,4.5,3.2,8.2c2.21,4.42,3.16,3.21-2.4,5.2c2.2,0.5,4.1-0.2,6-0.9c4.57,2.81-1.41,2.12,6.3,12.4
		c0.46-3.22-2.4-6.39-2-8.7c1.03-5.86-6.12-4.55-4.5-10.3c0.86-3.04-4.11-5.19-4.3-6.5c30.78-3.01,27.06-2.86,28.19-2.3
		c2.29,1.8,3.79,4.98,7.58,4.1c-0.05,0.45-0.14,0.94,0.42,1.1c7.58,2.1,10.47-5.05,14.2-4.2c0.9-1.3,1-2.8,2.3-4
		c6.4-0.6,13-1.5,19.49-1.8c2.17,2.41,5.86,53.75,56.68,46.19c17.55-2.61,28.1-19.57,32.19-36.99c5.23-22.27-4-16.78,10.3-18.89
		c7.08-1.05,8.49,0.74,10.2-5.2C900.95,248.93,897.84,245.47,893.54,245.96z M780.17,125.7c0.8-0.3,1.4-0.6,2.1-0.1
		C781.67,126.4,781.07,126.1,780.17,125.7z M785.37,99.9c1.34-1.12,3.04-0.01,0.4,2.1C785.27,101.2,785.27,100.5,785.37,99.9z
		 M780.97,93.51c0.8,1.3,0,1.8-0.7,2.6C779.97,95.01,780.27,94.31,780.97,93.51z M771.77,105.9c-1.3,0-2-0.4-3-1.2
		C770.07,104.7,770.87,105.1,771.77,105.9z M765.67,104.1c-0.51-0.51,1-1.17,1,0.6C766.17,104.4,765.87,104.3,765.67,104.1z
		 M767.17,96.61c-0.5,1-1.5,1.6-2.4,2.2C765.07,96.71,765.07,96.71,767.17,96.61z M740.68,125.8c2.3,0.2,2.3,0.2,2.6,3.4
		C741.68,128.6,740.78,127.6,740.68,125.8z M753.38,112.6c1.3,1,0.4,1.4-0.3,2.1C752.78,113.8,752.58,113.2,753.38,112.6z
		 M751.88,97.6c-0.4,0.9-0.8,1.5-2,1.4C750.18,98,750.68,97.6,751.88,97.6z M752.98,103.2c-0.6,2.3-2,3.2-3.4,4
		C749.88,105.3,751.38,104.7,752.98,103.2z M748.08,118.4c0.3,1-0.3,1.3-0.8,1.7C746.38,118.4,747.58,118.7,748.08,118.4z
		 M743.98,119c0.2-1,0.5-1.7,2-1.1C745.18,118.7,744.78,119.1,743.98,119z M742.24,104.79c0.25,0.17,1.56-0.79,2.65-0.59
		c0.61,0.78-0.06,2.95-2.8,0.6C742.17,104.8,742.22,104.8,742.24,104.79z M740.98,116.4c0.8,1.3-0.5,2.2-0.5,3.2
		C740.38,118.6,739.78,117.5,740.98,116.4z M737.48,128.7c1.3,0,1.8,0.7,2.3,1.6c-0.5,0.9-1.1,1.7-1.2,3
		C737.48,131.79,735.98,130.59,737.48,128.7z M735.98,133.29c1.42,0,0.45,2.21-0.2,0.9C735.58,133.89,735.58,133.59,735.98,133.29z
		 M733.88,132.59c0.4,0.6-0.12,1.18-0.3,0.9C733.27,133,733.28,132.69,733.88,132.59z M646.71,200.97c5.6,1.7,10.8,0,16.49-0.9
		c-4.3,5.4-6.8,11.7-12.8,16.1C649.61,210.67,647.31,206.17,646.71,200.97z M715.49,252.26c6.4-3.73,5.41-6.17,7.9-7.3
		c5.01-2.27,9.22-5.78,13.1-9.5c3.22-3.08,6.9-4,10.6-5.8c4.75,12.46,5.29,12.97,3.9,14.8c-3.85,5.04-7.4,10.1-9.4,16.3
		c-8.6,0.8-16.99,1.6-25.79,2.5c-0.4-4-3.3-5.2-6.7-5.6C710.79,255.06,713.09,253.66,715.49,252.26z M702.69,259.26
		c0.31,0,13.21-2.74-1.7,3.1C701.39,261.16,703.19,260.96,702.69,259.26z M708.69,261.16c1.8-0.69,3.2-0.5,3.7,2.2
		c-5.6,0.6-11,1.1-16.3,1.6C703.82,259.29,696.93,265.68,708.69,261.16z M669.8,261.36c0.8-0.5,1.2,0.2,1.8,0.6
		C670.8,262.25,669.9,263.05,669.8,261.36z M670.5,263.55c4,1.2,7.6,1.9,11.3,0.8c-1.6-0.4-3.2-0.8-5.2-1.3
		c16.02,0.3,21.22-0.42,7.5,1.3c-1.12,2.02,5.02,1.38-11.2,2.7C671.6,266.25,671.3,265.05,670.5,263.55z M670.7,277.25
		c3.1-4.5,3.1-4.5,3-7.6c3.8-1,7.8-0.96,11.8-1.3c61.86-5.3,68.71-8.86,64.38,1.3C723.39,272.25,697,274.75,670.7,277.25z
		 M767.47,267.35c1.5,0.9,1.9-0.7,3.1-1.2c-1.1,2.3-1.5,4.6-3.3,6.8c-0.7-2,1.3-2.9,1.1-5c-3.4,2.3-3.7,6.8-7.5,8.5
		c0.5-2.8,2.7-4.5,2.9-7.1c-2.8,1.8-3.5,5.3-6,7.7c-0.65,0.18-3.7-0.11-3.65-0.16c1.12-1.43,3.69-4.1,5.05-7.14
		c-3.1,0.7-3.7,4.1-5.7,5.8c-2.3,0.8-2.7-1.7-4.5-2c6.55-7.41,0.87-13.54-5.7-13.1c4.84-3.68,1.94-7.55,5.6-10
		c7.59-5.08,5.04-17.13-0.8-21.69c16.14-6.7,16.59-15.07,16.59-9.1c0,23.93,2.94,20.51,1.1,26.59c-0.5,1.64-0.29,1.63,5.9,17.09
		C770.07,264.55,768.27,265.35,767.47,267.35z M771.87,267.45c1.2-2.4,2.6-4.5,1-7c2.72-0.88,31.8-3.53,50.78-5.2
		c7.14-0.63,8.15,7.19,1.2,7.5C818.22,263.05,777.08,267.45,771.87,267.45z M834.05,271.25c-5.85,6.03-13.4,2.28-16.4-5.5
		c2.69-0.84,15.71-0.47,14.2-8.8c-1.06-5.83-8.87-3.94-14.4-3.5c-1.92,0,0.75-5.65,3.6-8.3
		C832.32,234.71,845.55,259.42,834.05,271.25z M834.75,245.06c7,4.6,8.4,17.99,2.3,25.29C841.15,261.06,840.75,252.76,834.75,245.06
		z M793.37,271.65c-0.55-4.91-4.23-3.53,22.19-6c3.05,5.42,5.78,10.13,12.9,10c14.3-0.26,17.16-16.96,11.3-27.59
		c-5.48-9.93-18.97-9.79-23.69,1.5c-2.22,5.3,2.9,3.66-23.89,6.1c-0.81-7.94,2.06-23.63,10.1-35.59
		c23.02-34.27,68.4-9.64,67.68,42.29C869.09,324.15,806.43,333.08,793.37,271.65z M873.44,288.55
		c-8.76,21.01-21.31,22.26-28.59,24.69c30.23-16.35,33.73-60.18,17.89-87.87c-10.34-18.09-22.04-19.76-26.29-22.19
		C872.74,204.73,887.61,254.58,873.44,288.55z M881.14,257.06c-0.7-2.4-0.7-4.6-0.7-7.1c12.81-1.36,16.58-2.89,17.29,1.4
		C898.59,256.46,893,255.77,881.14,257.06z"/>
	<path d="M756.08,167.78l0.1,0.1C756.18,167.76,756.2,167.78,756.08,167.78z"/>
	<path d="M717.69,182.68c0.17-0.07,0.16,0.03,0.1-0.1L717.69,182.68z"/>
	<path d="M427.58,328.73c-4.4,0.68-8.9,1.1-13.5,1.6c-15.18-65.77-88.42-58.55-89.67,10.1c-6.6,0.9-12.9,1.8-19.19,2.1
		c-1.1-2.5-2.02-4.59-3-6.7c-3.04-6.56,1.91-6.24-1-12.7c-2.47-5.47-1.53-20.28-0.3-28.89c2.31-16.24-1.12-13.67,0.4-22.59
		c0.32-1.9,1.49-7.77,0.2-9.1c-1.99-2.06-0.84-4.25-2.8-11.1c-2.14-7.49-2.5-15.49,0.4-24.39c2.45-7.53-4.76-5.77,0-15.1
		c5.59-10.95,6.37-24.5,4.5-30.29c-1.26-3.91-4.6-6-6.8-9.3c1.8-2.3,1.78-5.21,3.1-7.6c3.95-7.15,1.5-10.6,4.3-17.49
		c1.33-3.29,0.1-6.5-1.1-9.5c-1.6,11.5-2.2,23.19-7.6,33.89c-2.6,0-5,0-7.5,0c1.1,0.9,2.4,1.82,3.5,1.7
		c9.7-1.11,10.94,13.39,10.3,23.19c-0.71,10.79-8.27,16.6-5.2,23.89c1.66,3.95-0.14,10.28-0.7,10c-0.4-0.3-0.5-1.1-1.2-1
		c-0.6,0.3-0.59,1-0.4,1.4c1.73,3.65-0.64,6.79,0.2,12.3c2.23,14.53,7.11,19.31,4.9,26.69c-2.02,6.75,2.5,4.26-0.9,25.59
		c-3.04,19.07,2.32,26.83-0.4,27.99c0.5,1.3,1.3,2.5,2.6,3.4c-2.7,7.9,2.6,14.2,4.2,21.09c-5.4,2.8-5.2,9.9-10.5,12.8
		c0.1-2.8,2.7-4.3,2.9-7.6c-3.2,2.6-3.9,6.3-6.4,8.6c-6.69,0-1.14,0.64,1.8-7.2c-3.1,1.2-3.7,4.5-5.9,6.3c-2,0.1-2.5-1.8-4-2.4
		c2-2.6,3.88-5.09,2.2-8.5c-1.62-3.29-3.7-5.6-8.2-3.9c2.6-2.7,3.17-5.91,4-9.1c0.44-1.67,7.03-3.31,6.4-10.5
		c-3.69-42.29-18.24-55.23-10.1-79.38c-1.9-4.1-3.9-7.7-3.2-11.8c16.42-11.86,12.19-13.65,19.79-24.89c0.61-0.9,0.9-2-0.8-2.7
		c-1.8,3-3.2,6.4-5.8,9.1c-0.3-12.7,2.6-25.09,0-37.39c0.4-1.2,2-0.8,2.2-2c-0.7-1-1.9-0.3-2.9-1c-0.67-1.25-0.72-3.22-2.76-3.55
		c1.99,7.62,2.63,15.23,1.46,23.04c-2.97,19.92,10.8,25.87-26.59,42.99c-4.43,2.03-0.55,3.82-16.59,12.3
		c-4.8,2.54-4.37,11.31-30.69,12.7c-3.6,0.19-3.6,0.2-6.5-2.8c7-10.3,11.3-21.49,10.7-34.49c5.4,1.6,10.1,6.4,16.49,3.5
		c-6.1,0.4-10.6-4.1-16.49-5.3c1.7-0.6,3.28-1.04,4.8-1.7c12.75-5.55,21.13-23.84,21.79-28.29c2-13.33-3.93-25.33-11.6-37.49
		c3.4-1.3,4.51-0.91,6,2.2c13.87,28.96,6.93,45.88,23.49,50.88c6.33,1.91,23.91-5.48,23.59-22.89c-0.09-4.7-0.3-9.7-2.6-14
		c0.9-0.9,1.9-0.7,2.6-1.2c0.04,0.13,0.06,0.27,0.1,0.4c0.63-0.7,1.84,0.04,2.6-1.2c-1.8-0.1-3.1-1.4-4.6-1.2
		c-1,2.9-5.9,2.5-5.3,6.4c1.3,0.7,2-0.6,3.1-0.5c0.7,1.5,1.2,3,1.2,4.1c-3.8,3.8-9,4.7-12.7,7.9c4.8-0.4,8.4-3.7,12.5-5.4
		c4.64,14.44-8.98,25.87-17.19,24.69c1.6-3.4,2-6.6,2.2-9.9c-2,3-1.9,6.8-3.9,9.8c-2.5,0.1-5.1,0.6-6.8-1.6
		c-5.22-6.78-6-14.8-6.6-23.39c10.79,4.5,14.61,2.56,4.7,0.4c-4.69-1.02-5.3-1.5-6.1-6.4c3-1.5,6.9,0.2,10.2-2.4
		c-4.1-1.2-7.2,1.3-10.9,0.9c-1.5-6.1-5.6-11.1-7.9-17.09c9.95-0.36,11.28,0.48,14.3-2.4c1.08-1.03,2-1.8,4-1.4
		c-0.7-3.1,1.5-5.1,1.7-7.9c3.1,3.6,3.3,3.7,5.3,1.4c-1.2-0.6-3.1-0.5-3.1-2.5c0.8-0.2,1.8,0.2,2.5-1c-0.4-1.5,0.7-3.1,0.4-4.9
		c-0.8-1.4-3.1-2-2-4.3c3,2.3,2.6,6.2,4.1,9.8c2.6-3.4,3.06-7.32,4.6-10.7c1.65-3.62,4.3-6.6,5.7-10.4c2.7,0.6,3.7-1.5,5.5-2.6
		c-0.98-1.27-1.47-2.54-1.87-3.91c2.17-0.47,2.48,1.51,3.67,3.31c1.22-6.74,10.34-0.11,19.09-3.2c-0.9,5,1.4,9.3,1.9,13.6
		c-8.3,3.9-9.4,5.4-7.3,10.4c1-1,0.1-2.5,1-3.4c2.5,0.4,2.5,0.4,6.2-1.1c0.3-2.7,2.61-5.6,1.6-8.2c-1.59-4.1-1.1-8.3-2.1-12.1
		c1.8-3,5.1-3.6,7.3-5.9c-0.5-1.2,0.3-2.4,0-3.5c-1.6-1.1-3.1,0.1-4.6-0.4c0.9-1.4,3.3-1,3.2-3.3c-2-1.5-3.5,0.2-5.1,0.9
		c-0.4-2.2,0.8-4.5-1-6.4c-1.4,1.4-2.3,3.1-4.5,3.8c2.24-2.74-2.45-2.37-3.8-1.6c-1.52,0.87-3.7,1.6-4.9,1.3
		c-4.3-1.09-8.5-0.1-12.7-0.3c-1.3,0.4-1,2.4-2.7,2.3c-0.9-0.5,0.1-2.2-1.7-2.2c-2.2,2.5-4.8,4.4-8.6,4.4c-1.7-0.9-2.9-3.4-5.5-2
		c-0.1,1.6,1.4,2,1.8,3.1c-3.5,5.4-10.1,21.79-8,32.59c-3.26,2.17,2.63,8.83-3.8,16.2c-10.64-1.99-12.65,1.48-15.2,0.4
		c-6.82-2.9-28.92,8.53-28.92,11.42c-0.59-1.33-24.27,9.28-23.66,33.17c-5.62,7.31-13.61,18.46-21.99,22.39
		c-2.19,1.03-4.7,2.4-5.3,4.8c-1.39,5.55-12.4,5.55-12.7,10.3c-0.29,4.6-2.98,8.5-3.7,13c-1.86,11.69-2.89,10.02-3.9,15.9
		c-2.47,14.44,3.45,26.58,6.6,40.59c9.89,44,12.38,43.08,11.3,49.88c-0.99,3.97,9.75-1.52,15.6,0.2c0.38,1.15,2.63,0.77-27.69,4.1
		c-0.88-1.17-0.17,1.22-1.8-6.5c-15.97-75.84-96.56-65.24-97.37,12.2c-0.02,1.9,0.4,3.8-0.5,5.7c-11.3,1-22.39,3.2-33.69,3.4
		c-3.33,0.06-9.99,7.06-2.1,12.8c12.4-0.3,24.69-2.8,36.89-3.6c1.32,1.48,6.71,51.13,43.29,55.98
		c40.53,5.37,53.56-26.68,55.78-67.48c42.86-4.9,30.15-5.39,27.39,4.2c-6.4,22.21-8.64,21.18,9.5,87.17c0.3,1.1,0.3,2.5,1.9,2.7
		c1.83-4.57-17.39-58.01-13-73.88c2.27-8.21,7-15.5,8.5-23.69c1.6-1,2.7,0,4,0.4c2.73-4.27,7.26,2.91,7.8-7.3c-1-0.5-1.3,1-2.3,0.5
		c0.2-1.2-0.38-2.31-0.9-3.4c-7.1-15.04,3.9-16.89,0.8-26.89c-0.08-0.3,1.25-4.66-1.4-10.1c-4.17-8.55-0.77-19.84-3.4-21.99
		c0,3.2,0,6.5,0,10.1c-1.7-3.7-2.8-21.89-1.7-25.79c0.8,1.4,0,3.4,2.2,4.9c0.2-3.4-0.65-6.39-0.3-9.4c0.36-3.09,1.4-6.1,1.2-9
		c-0.5-0.9-1.4-0.3-1.9-1.1c0.8-3.4,1.9-6.9,0.4-10.7c2.1-3.7,1.25-8.29,2.2-12.6c1.76-7.95-7.92-19.94,4.3-8.4
		c0.3-2.7,0.1-3.5-1.3-4.2c-6.73-3.37-5.02-17.35-1.6-23.99c3.26-6.31-0.53-5.7,1.9-15.9c4.99-20.96,16.74-21.71,20.78-28.28
		c2.11,0.6,15.92-7.93,24-9.81c13.67,27.34,7.52,18.18,5.3,19.99c1.2,1.3,3,1.5,4.3,2.4c3.7,12.7,2.13,17.25-5.3,29.39
		c-3.84,6.27-9.1,11.4-16.89,12.5c-0.4-1.4,1.3-2.3,0.3-3.6c-6.56,3.86,1.17,23.03-13.4,41.19c-3.98-6.63,2.43,10.59-1.1,24.69
		c-0.03,0.1-5.19,25.19-5.2,25.29c-0.7,6.49-1.45,32.37,2.9,36.39c4.72,4.37,1.27,4.4,5.5,11.8c0.8,1.4,2,2.7,2,4.8
		c-2.5,1.7-3.3,5-5.6,7.3c-0.6-1.3,1.3-2,0.3-3.3c-2.5,2.1-3.5,5.5-7,7.1c3.71,2.14,8.5-6.88,4.3,7.4c-0.94,3.19-3.29,5.8-3.1,9.4
		c0.1,1.9,1.11,3.5,1.3,5.2c0.72,6.57-3.27,11.52-3.5,15.8c-0.79,14.72-3.72,22.37-2.6,31.99c0.86,7.39,2.9,14.6,3.9,21.99
		c-2.3,1.1-5.29,0.31-7.1,1.7c-3.18,2.44-10.21,3.11-11,3.9c-5,9-6.2,18.79-10.3,27.79c4,4,8.1,7.5,14.2,7.3
		c9.47-0.32,14.31,6.53,33.79,4.3c1.1-0.13,2.4-0.1,2.8-1.5c-0.9-1.5-2.4-0.1-3.5-1.2c6.72-1.46,7.36-2.09,6.1-0.2
		c0.62,0.74,4,0.26,4.9,0.1c8.75-1.52,3.8-9.83,0.9-10.5c-7.43-1.7-14.83-8.42-17.19-13c-1.74-3.38-3.3-7.1-7.1-8.4
		c-0.3-3.8,0.8-7.2-0.5-10.4c-1.4-0.6-2.7,0.2-4.1-0.6c-0.81-11.36-6.82-18.38-2.8-38.09c1.31-6.4,1.01-12.99,3.3-19.19
		c3.27-8.84,0.05-18.82,4.1-29.69c5.29-14.23-2.33-10.38,23.79-13.5c0.8,2.2,0.12,4.1-0.5,5.8c-3.75,10.34-3.22,27.5-1,32.39
		c7.78,17.13,6.18,35.92,7.3,57.18c0.41,7.74-4.5,12.44-4.7,20.09c-0.23,8.79-8.28,11.86,0.8,15.1c8.84,3.16,13.92,1.88,20.99,1
		c-7.46-4.3-14,2.28-22.69-5c1.8-6.92,3.65-7.1,3.4-9.3c-0.5-4.31,1.5-8.1,1.8-12.4c1.7,4,5.3,4.5,8.5,5.5c2.9-1.5,4.7-4.2,7.6-5.5
		c3.41-1.53,2.3-3.07,2.3-6.8c2.5-1.4,4.1-4.3,7.8-3.9c0.1,3,1.8,5.4,3.4,7.9c-10.9,2.3-10.9,2.3-11.2,4.6c4.9-1.7,5.9-1.8,8.2-1.5
		c-5.8,1.7-6.3,2.2-5.3,4.9c9.25-3.96,1.81-0.34,1.7,1.9c4.4-0.1,8.7-1.8,13.2-1.5c-2.2,1.4-5.2,0.9-6.8,3.5
		c1.24,0.78,3.09,0.9,4.72,0.79c-0.01,0-0.02,0-0.02,0.01c-0.3,0.9-2.2,0.8-1.9,2.6c1.2,1.1,3.02-0.22,4.3,1.1
		c1.73,1.78,3.7,1.7,5.8,0c7.19,10.36,21.41,2.88,10.6,16.4c-5.2,0.7-10.3-0.06-15.5-0.5c-6.4-0.55-13.3,0.3-18.99-4.5
		c-1.85,3.71,6.35,5.61,10.1,5.9c14.39,1.12,29.12,4.59,30.49-6.4c1.14-9.1-10.16-2.69-18.49-16.79c-5.18-8.77-9.64-7.62-9-14.5
		c0.74-7.87-7.45-5.77-8.3-6.3c-0.41-4.64,1.25-29.79,3.9-39.39c9.21-33.35-2.21-30.96,7.1-56.38c14.08-1.5,15.66-2.56,17.39-0.1
		c1.68,2.38,4.81,2.18,4.4,2.6c0.54-0.48,1.87,1.63,4.8,0.4c2.48-1.04,5.48-1.11,7.1-3.8c0.79-1.31,2.3,0,3.2-0.6
		c3.93-4.37-5.37-2.62,22.89-5.9c1.91,1.74,2.14,17.32,15.1,32.39c12.9,15,25.38,15.52,42.29,12.8
		c18.81-3.03,29.16-22.18,32.29-40.99c3.04-18.24-5.98-13.65,17.49-16.69c0.7-1.7,1.48-3.11,1.9-4.7
		C434.92,331.52,431.57,328.12,427.58,328.73z M299.62,135.09c1-0.8,1.7-1.2,2.9-0.7C301.51,135.39,300.72,134.79,299.62,135.09z
		 M307.21,108.4c0.1,1-0.8,1.4-1.3,2.1C305.31,108.7,305.31,108.7,307.21,108.4z M300.62,102.3c1.3,1.2,0.3,1.7-0.8,2.1
		C300.02,103.8,300.32,103.1,300.62,102.3z M291.82,114.9c-1,0.2-1.3-0.4-2-0.6C290.82,113.8,291.22,114.1,291.82,114.9z
		 M286.22,113.2c-1.55-0.52-0.58-1.07-0.3-1c0.2,0,0.4,0.4,0.6,0.7C286.42,113,286.32,113.1,286.22,113.2z M286.82,105.4
		c-0.6,1.2-1.4,1.7-2.3,2.3C284.32,106,284.82,105.1,286.82,105.4z M279.02,116.5c-1,0.7-2,0.7-3.2-0.4
		C277.22,114.6,278.12,114.7,279.02,116.5z M260.33,128.6c-0.3-1.1-0.6-2.3,0.6-3.5C261.53,126.6,260.53,127.6,260.33,128.6z
		 M273.22,121.4c1.8,1.1-0.1,1.5-0.4,2.1C272.52,122.7,272.42,122,273.22,121.4z M271.22,106.2c0.69,0.81-0.3,2.05-1.4,1.5
		C269.92,106.8,270.72,106.7,271.22,106.2z M272.42,112.3c0.67,1.01,1.16-0.13-3.2,3.9C269.52,114.1,271.42,113.6,272.42,112.3z
		 M268.23,126.9c0,1.3-0.5,1.9-1.5,2C266.33,127.6,267.13,127.3,268.23,126.9z M263.93,127.8c-0.1-0.9,0.3-1.3,1.5-1.2
		C265.13,127.4,264.63,127.7,263.93,127.8z M259.93,111.5c1.5-0.2,1.5,1.3,2.4,1.7c0.9,0.6,1.6-0.6,2.5-0.2c0.6,0.7,0.1,1.2-0.6,1.9
		c-2.2-1.7-4.2-1.1-6.3,0.3C259.33,114.2,259.13,112.5,259.93,111.5z M257.63,137.39c1.1,0.1,1.5,0.8,2,1.6c0,1.1-2,1.4-1.2,2.9
		C257.33,140.39,255.43,139.09,257.63,137.39z M255.83,142.09c0.7,0.3,1.1,0.6,0.7,1.5C255.53,143.39,255.83,142.79,255.83,142.09z
		 M3.71,386.32c-2.3-3-2.2-3.8,0.9-6.8C7.61,381.62,8.87,385.52,3.71,386.32z M8.7,386.62c1.2-3,1.2-3.1-0.7-7.7
		c83.82-9.31,81.72-12.03,79.98-2.8C83.64,379.09,8.81,386.61,8.7,386.62z M88.18,380.02c5.1-7.5,3.5-11.2-5-12.5
		c7.96-10.82,19.43,10.57,6.7,15.4C88.88,382.12,88.78,380.92,88.18,380.02z M89.58,405.41c-0.02-0.11-3.4-19.72-3.6-24.99
		C100.39,404.08,90.5,411.78,89.58,405.41z M84.28,380.82c-4.6,8.3-5.5,17.49-7.1,26.49c-10.75-3.98-4.87-13.46,3.3-25.39
		C81.3,380.73,82.48,380.32,84.28,380.82z M43.19,385.32c4.83-0.69,3.77-1.33,4.9,4.3c3.7,18.36,17.91,45.73,36.59,44.79
		c2.3-0.12,4.7,0.2,7-1.8c-1.8,0.2-3.3,0.22-4.6,0.5c-18.29,3.97-36.65-30.9-37.69-48.59c9.5-1.1,18.99-2.2,29.29-3.4
		c-10.14,11.76-7.07,12.89-10.7,15.8c-0.95,0.76-0.22,10.12,8,13.4c6.4,2.55,2.47-4.18,7.7-23.19c1.66-6.04,0.02,2.21,1.8,14.3
		c0.29,1.95-1.71,6.76,3.5,9.4c9.9,5.02,11.29-14.1,2-26.09c17.69-8.49-1.71-34.68-10.9-16.3c-10.4,1.2-20.89,2.4-31.59,3.6
		c-0.8-3.2-0.22-6.2,0-9.1c2.58-33.47,22.39-51.87,34.49-48.89c3.7,0.91,7.6,0.6,11.3,1.7c-1.3-2.1-3.51-1.77-5.2-2.3
		c-25.95-8.14-42.54,26.7-42.69,53.88c-0.03,6.14,0.59,4.76-3.9,5.4c-0.83-4.7-0.27-27.04,10.2-45.49
		c31.41-55.34,91.79,13.85,65.58,84.27C101.34,457.01,52.74,445.94,43.19,385.32z M92.88,440.6c49.53-17.21,41.34-123.9-7.2-134.96
		C149.44,301.17,157.81,437.87,92.88,440.6z M155.06,235.26c-0.9-0.3-1-1-1.1-1.7C155.16,233.56,155.26,234.26,155.06,235.26z
		 M153.96,231.26c0.1,0.95,0.1,1.62,0.1,2.21c-0.49,0.05-1.62,0.35-0.9,1.79c2.37,4.71,4.38,9.54,9.9,11.7
		c2.09,0.82,3.6,2.9,5.6,3.7c0.4,0.9-0.7,0.8-0.6,1.9c2.4,2.4,5.3,4.9,8.4,7c0.4,1-0.4,1.4-0.4,2.2c-8.84-1.77-13.64-2.11-17.49-9.6
		c-1.01-1.96-1.79-2.73-1.69-2.83c6.17,0.12-5.55-0.18-6.01-14.17c-4.01,3.28-0.91,6.96,1.3,11.2c-2.9-1.3-5.8-2.7-8.6-4
		C142.83,235.02,150.16,236.47,153.96,231.26z M182.35,366.62c-14.3,1.8-28.39,3.4-42.69,5c-0.2-2.5-0.4-4.8-0.6-7.6
		C185.6,358.85,179.68,356.7,182.35,366.62z M170.35,266.95c1.6,1.4,3.6,1.4,5.4,2.2c0.4,2.4-0.6,4.5-0.8,7.2
		c-2.14,0.05-12.3,0.29-12.3,2.5c2.38,0,9.22,0,11.7,0c-0.45,14.32-2.89,7.83-8.2,12.9c2.6,0.3,4.5-1.4,7-1.5
		c0.35,18.36,4.39,14.64-4.7,20.69c2.9,1,4.4-1.2,6.3-1.9c5.62,21.9,9.08,29.54,4.3,36.79c-2.38,3.61-0.6,7.2-0.1,11.1
		c-3.4,0.1-6.8,1.7-10.4-0.1c1.9-2,3,0.2,4.4,0.2c1.2-0.1,0.4-1.1,0.8-1.7c1.2-0.6,3.1-0.2,4.4-2.5c-8.2,0.3-15.8,2.6-23.89,2.6
		c-1.43-14.49-7.75-20.74-10.2-44.39c-1.82-17.61-11.68-26.23-8.4-45.19c1.59-9.19,2.98-2.53,4.3-14c0.3-2.6,0.9-4.9,3-7.2
		c5.4,3.2,11.79,5.01,15.7,10.5c7.36,10.34,10.14,3.3-16.49,3.3c-1-1,1.04-2.18-0.7-2.7c-3,6.4-2.8,13.1-2.9,20.39
		c5.84-7.55,29.32-3.43,31.09-4.4c-10.04-2.28-19.9-1.52-30.09,0.7c-0.4-4.2,0.3-8.2,1.4-12.2c23.33,0,25.31,4.67,24.99,1.8
		c5.39,1.22,10.26,1.52,10.7,5.6C174.55,267.05,172.65,266.45,170.35,266.95z M177.85,257.76c-1.2-0.3-1.7-1.1-2.7-2
		c1-0.3,1.7-0.5,2.4-0.8C178.45,255.86,177.75,256.76,177.85,257.76z M177.05,219.87c-0.59,4.7-0.1,9.7-2.2,13.8
		c3.1,5.6,2.9,11.7,4.2,17.39c0.1,1,0,1-1.2,2.9c-5.5-4.5-11.65-7.53-16-13.1c-3.5-4.49-6.18-13.07-1.2-15.8
		c2.59-1.42,4.78-3.21,6.8-5.6c1.78-2.11,4.39-3.5,6.2-5.8c5-6.36,4.91-8,7.3-8C180.45,210.67,177.66,214.97,177.05,219.87z
		 M179.15,472.49c2.6-0.8,5.2-1.6,8.2-2.6c0.2,3.7-5.7,3.1-4.3,6.9c-5.87,3.59-4.82,3.48-5.6,2.7
		C179.35,477.59,179.35,475.19,179.15,472.49z M175.55,480.19c0.5,0.4,0.6,1,0.1,1.8C174.85,481.19,174.85,480.69,175.55,480.19z
		 M222.14,505.88c1.8-0.9,3-1.9,5.4-1.3C225.64,505.68,224.14,505.98,222.14,505.88z M198.95,467.89c-1,3.3-0.1,6.2,0.6,9.2
		c-3.7,1.4-8.2,0.4-11.2,4.8c3.5-0.1,6-1.8,9.3-1.5c-3.3,1.2-6.7,1.2-9.2,4.1c2.9,0.9,5.4-0.4,7.9-0.5c-0.1,1.3-2.3,0.9-2,2.8
		c3.9,0.5,7.6-1.4,11.5-1.6c-3,2-7.6,0.8-10,4.9c2.6,0.5,4.8,0.1,7.1-0.4c0,1.2-1.4,1.1-1.5,2.2c3.3,1.8,6.9,2.7,10.9,2.7
		c0.2-1.5-1.9-2-1-3.3c-0.7,0.3-1.4,0.4-1.9-0.5c1-0.9,1.3,0.2,1.9,0.5c12.14,9.52,14.94,5.48,16.4,11.3
		c-14.95,5.2-14.53,1.42-16.4,5.9c-7.3,0-14.4-0.5-21.19-3.3c-7.85-3.24-15.69-1.5-20.99-6.8c2-4.5,2.8-9.5,5.3-13.8
		c4.4-1.6,7.41-5.08,11.1-7.6c1.3-0.89,1-3.8,3.5-3.1c1.2-1.7-0.2-3.2,0.4-4.8C192.45,468.69,195.45,468.29,198.95,467.89z
		 M197.75,392.72c-1-0.8-0.2-1.5,0.1-2C197.85,391.32,197.75,391.92,197.75,392.72z M271.72,481.19c-1,0.1-1.4,0.1-1.8,0.1
		C270.32,480.39,270.32,480.39,271.72,481.19z M263.93,471.19c-0.4,0.4-0.9,0.4-1.4,0C263.03,470.89,263.53,470.69,263.93,471.19z
		 M261.03,468.59c-0.4,0.2-0.8,0.3-1.2-0.1C260.23,468.39,260.63,468.09,261.03,468.59z M216.44,266.15
		c-12.35,4.8-11.44,5.63-11.8,0.3C208.64,266.65,212.44,266.05,216.44,266.15z M204.04,262.95c1.17,0,1.57,1,1,1
		C204.44,263.95,203.94,263.85,204.04,262.95z M221.24,325.84c-2.4-4-13.5-12.5-21.19-16.3c-0.2-1.2-0.1-2.3,0.4-3.8
		c8.6,1.2,17.19,2.4,25.69,3.8c-8-3.5-16.69-3.8-25.39-5.3c0.6-10.3,5.4-19.99,4.2-30.29c6.2-3.4,13-5.1,19.09-8.8
		c1.7,1.8,4.3,1.8,7.1,1.8c-1.1,4.8-2.6,9.5,4.3,11.8c-5.6,1.7-9.9,4-13.8,7.4c-5.2-1.6-10.3-3.2-15.7-4
		c-0.51,3.21,5.81,2.79,14.6,6.8c1.59,0.73,2.69-0.01,3.9-0.9c17.46-12.9,11.2-5.57,11.8-4.2c2.42,5.54,5.94,4.05,5.5,7
		c-0.61,4.1,2.1,6.7,4.2,10.1c1.13-2.59-2.21-5.83-1.8-10.3c0.41-4.39-6.22-3.68-4.7-8.6c1.44-4.66-6.5-6.54-7.7-8.7
		c0.1-2.4,1.4-4.7,1.8-6.9c-0.6-1.8-2.3-1.3-3.6-2c2.65-2.49,8.58-4.13,11.3-9c1.58-2.82-0.58,1.67,16.3-12.3
		c1.19-0.99,1.58-1.38,1.68-1.51c0.06,0.13,1.28-0.01,12.01-5.78c1.18,8.29,3.26,8.78,1.6,20.49c-3.67,25.92,19.61,62.66,8.8,76.48
		c-13.08,16.72,2.46,12.13-19.09,14.9c-3.2-2.3-2.88-6.01-4.1-8.9c-2.66-6.31-4.72-12.8-5.5-19.69c-0.61-5.4-2.46-4.59-2.7-9.9
		c-0.13-2.9-1.6-5.5-4.3-7.3c5,12.6,5.5,25.89,10.6,38.39c-15.9,3.7-31.59,4.6-47.39,2.8c-3.3-5.8-3.6-12.2-5.4-18.69
		c2.3,1.5,3.6,3.7,6.2,4.6c-1.3-1.9-2.8-3.4-4.4-4.6c-5.34-4-2.28-9.89-6.3-11.9C199.25,309.13,200.81,310.37,221.24,325.84z
		 M222.54,346.23c12.6,0,26.09-1.6,34.69-4.2c1.3,1.6,1.1,3.7,2.3,6c-50.66,5.76-35.87,5.43-43.79-1.7c1.5-0.2,2.5-0.3,3.5-0.4
		c1.5,0.6,1.8,2.5,3.4,2.7C223.64,347.83,222.04,347.03,222.54,346.23z M200.25,342.83c-2.4-11.38-2.92-26.64-1.1-30.29
		c-0.22,3.93,4.04,19.9,5.9,32.89C205.94,351.71,201.47,348.61,200.25,342.83z M205.64,353.93c-0.9-1.1-1.3-2.1-1.6-3.6
		c7.4,1.59,2.95-2.33,4.2-5.3c1.4,0.5,2.9,0.8,4.5,0.8c1.8,2.1,3.8,4,5.2,6.5C215.66,353.24,207.6,353.93,205.64,353.93z
		 M239.73,471.29c-2.52,2.07-5.5,0.3-6.8-4.4c4.5-2.6,9.5-3.1,14.2-4.1c0.8,1.3,0.6,2.5,0.8,3.8
		C244.83,467.59,242.21,469.26,239.73,471.29z M260.43,367.22c-5.11,11.43,1.87,19.6-4,43.49c-3.42,13.9-5.25,39.45-4.7,45.89
		c-8.82,5.57,0.5,2.57-17.99,7c0.17-1.28,1.91-36.5-5.7-57.68c-4.08-11.36-2.13-12.87-2.8-20.99c-0.95-11.58,0.95-9.33,2.5-20.69
		c11.3-2.1,22.39-2.6,33.69-4.2C261.93,362.72,261.32,365.22,260.43,367.22z M208.54,363.72c1.22-10.94-20.17-5.33,73.38-15.9
		c2.7,3.1,2.7,3.1,1.2,7.3C258.53,357.93,233.74,360.83,208.54,363.72z M300.62,356.83c0.3-2,1.3-3.7,2.5-5.3
		C303.01,353.73,302.21,355.43,300.62,356.83z M307.51,352.33c-4.97,0.7,0.42-0.9-0.7-7.2c50.48-6.01,57.45-8.03,57.08-2.3
		C363.65,346.68,366.39,344.07,307.51,352.33z M369.19,354.63c-6.23,7.34-14.65,1.82-16.69-4.9c3.4-0.8,6.69-0.71,9.8-2
		c4.59-1.91,5.54-7.25,1.7-10.3c-2.21-1.75-4.37-0.72-12.8,0.1c1.55-8.86,8.9-14.07,15.6-8.6
		C373.67,334.56,374.98,347.81,369.19,354.63z M369.09,328.53c7.35,4.01,8.81,21.26,1.9,26.79c0.19-1.31,6.96-8.41,0.4-24.09
		C370.29,330.63,369.69,329.53,369.09,328.53z M327.71,353.73c0-2.03-1.91-0.66,22.69-3.9c1.4,2.6,2.57,4.93,4.6,6.8
		c5.82,5.38,15.09,4.1,19.29-2.7c4.39-7.1,3.69-17.89-1.7-24.29c-6.21-7.39-16.89-6.25-21.29,2.3c-3.79,7.37,3.52,5.3-24.89,8.5
		c0.47-17.59,5.63-36.02,19.19-45.99c43.47-31.95,83.34,58.85,42.29,95.07C366.76,408.16,335.73,393.83,327.71,353.73z
		 M403.78,381.22c-7.33,11.7-19.12,15.38-20.69,14.4c0-1.55,18.04-8.2,22.49-37.89c4.42-29.48-8.16-63.36-36.09-70.78
		C408.97,287.26,425.91,345.93,403.78,381.22z M429.18,338.03c-4.5,0.59-9,1-13.7,1.6c-0.3-2.6-0.6-4.6-0.8-6.9
		c4.7-0.9,9.3-1.28,13.9-1.7C433.6,330.58,433.31,337.49,429.18,338.03z"/>
	<path d="M181.85,370.02c0.2,2,1.5,3.3,3.2,3.5c3.6,0.2,3.7,3.6,5.5,5.3c-0.1,1-1.4,1.4-0.9,2.8c4.1,3.3,1.6,8.9,3.7,13.2
		c0.9-6.8-1.3-13-3.1-19.29c4.3-1.5,5.1-5.8,7.2-9c-4.55,2.15-3.76,8.49-8.4,6.6c1.4-2.3,3.6-3.9,3.7-7c-1.6,0.9-2.09,2.2-2.8,3.2
		C185.4,375.75,184.2,368.68,181.85,370.02z"/>
	<path d="M692,282.25c-0.7,0.6,0.1,1.8-1.1,2.3c-6.4-0.6-12.6-3.3-19.19-4c0,2.78,26.62,7.81,30.89,10.1c1.1,0.59,2.4,0.6,3.6-0.3
		c-4.2-2.3-9-2.9-13-5.2C692.7,284.15,692.9,283.05,692,282.25z"/>
	<path d="M658.91,294.05c17.26-1.04,37.73,9.62,59.78,9.2c-10.12-2.81-20.56-2.09-30.59-5.6c-2.14-0.75-22.9-4.84-25.29-5.2
		C659.1,291.88,656.36,294.05,658.91,294.05z"/>
	<path d="M662.41,456.6c0.4,0,0.8-0.1,1.2-0.1c-1.3-12.8,1.5-25.79-1.4-38.59c-2.2,8,0.77,15.99-0.1,23.99
		C661.59,446.7,662.31,451.7,662.41,456.6z"/>
	<path d="M287.82,137.09c-0.1-2.3,2.1-1.7,3.5-2.3c0.21-4.51-6.14-3.46-8-3.7c-2.8-0.37-4.7,0.7-6.6,2.7c1.9,0.6,2.7-0.9,4.5-1.2
		c1.4,1.2,3.7,0.1,5.2,1.6c-2.6,1-5.7,0.3-7.9,2.5C281.52,137.29,284.42,137.49,287.82,137.09z"/>
	<path d="M768.07,128.1c-0.2-2.3,1.8-1.7,3.5-2.1c-1.6-5.1-9.9-5.5-14.6-1c1.8,0.6,2.8-1.2,4.5-1.3c1.3,1.5,3.7,0.4,5.5,1.7
		C751.82,127.35,761.94,129,768.07,128.1z"/>
	<path d="M179.55,455.7c0,0.2,0.4,0.4,1.2,1.1c0-10.88-0.89-10.68-0.7-14.4c0.12-2.3,0.9-4.5,0.9-6.8c0-18.4-0.82-17.5-2.1-18.09
		c-1.4,8.3,1.24,16.1,0.6,23.99C179.07,446.2,179.5,451,179.55,455.7z"/>
	<path d="M694.5,293.45c-2.24-0.97-17.17-6.6-18.69-4.7c1.33,0.95,9.35,2.35,15.4,4.8c1.7,0.69,3.1,2.27,5.1,2.1
		c5.49-0.47,10.9-0.9,16-3.4C698.07,293.86,697.39,294.69,694.5,293.45z"/>
	<path d="M756.88,158.59c-2.7-3.2-6.5-5.1-9.8-7.4c-1.2-3.4-2.5-6.7-2.5-10.3c-1.3,4.2-0.6,8.3-0.3,12.4c0.9-0.1,0.7-1.3,1.4-1.2
		C757.3,160.48,756.11,159.74,756.88,158.59z"/>
	<path d="M276.72,167.48c-7.74-8.57-11.04-2.9-12.3-17.59c-1.2,4-0.6,8-0.1,12.2c0.8,0,0.7-1.4,1.4-1
		C277.93,169.8,275.69,168.52,276.72,167.48z"/>
	<path d="M632.02,198.97c-0.9-1.8-2.2-2.7-4-2.7c-2.5-4.4-5.3-8.4-4.8-13.6C620.82,192.68,626.02,199.17,632.02,198.97z"/>
	<path d="M699.59,247.16c5.36-1.57,12.62-7.76,8.6-9C701.99,242.56,700.49,244.06,699.59,247.16z"/>
	<path d="M661.41,343.43c-7.2-5.2-15.7-8.1-22.19-14.4C642.51,334.13,655.11,342.33,661.41,343.43z"/>
	<path d="M187.25,272.75c-0.5,0.4-1.2,0.5-1.2,1.4c-0.34-0.34,0.95,1.92,1.5,2.3c4.95,3.48,0.99,15.32,4.1,16.1
		c0.8-1.3-0.29-2.6-0.1-3.8C193.43,277.16,188.48,275.22,187.25,272.75z"/>
	<path d="M639.61,349.83c-0.4-8.6-6.1-15.1-8.5-22.99C632.22,335.23,637.41,341.93,639.61,349.83z"/>
	<path d="M696.2,216.17c1.7,4.3,11.5,7.3,15.8,5C706.19,221.77,701.79,217.47,696.2,216.17z"/>
	<path d="M223.64,206.37c-1.5,4.6-4.9,7.5-6.4,11.8C222.04,215.97,225.34,210.27,223.64,206.37z"/>
	<path d="M211.94,174.48c6.2-1.7,6.2-1.7,10.1,0C216.98,166.79,210.48,171.12,211.94,174.48z"/>
	<path d="M286.52,492.89c0.2,0.1,0.3-0.2,0.2-0.5c-4.9-2.7-7.8-0.2-17.19,4.7C272.58,498.72,278.86,490.93,286.52,492.89z"/>
	<path d="M765.97,149.39c2.3,1.4,10.8,0.8,12.8-0.7C777.17,147.89,768.77,148.19,765.97,149.39z"/>
	<path d="M286.12,157.59c0,0.5,0.1,1,0.1,1.5c4.3,0.4,8.4-0.5,12.5-1.4C294.42,156.39,290.32,157.79,286.12,157.59z"/>
	<path d="M672.8,382.12c2.48,2.18,1.81,3.86,2.8,12.8c1.7-4,0.2-12.2-2.2-15.1C672.2,380.32,671.9,381.32,672.8,382.12z"/>
	<path d="M772.27,151.69c-3.01,0-5.12,5.93,4.8,2.5C776.07,151.49,774.07,151.69,772.27,151.69z"/>
	<path d="M696.4,154.49c-4.48-4.98-12.41-1.19-17.89,2.1c2.4-0.5,5.1-0.2,6.8-2.4C684.43,153.32,693.33,155.1,696.4,154.49z"/>
	<path d="M289.42,163.58c2.7,0.6,5.1,0.6,7.6-0.7c-1.1-2.4-3-2.4-4.8-2.4C290.62,160.49,289.92,161.69,289.42,163.58z"/>
	<path d="M184.65,264.95c-0.89,4.75,3.53,9.66,5.7,8.4C189.25,270.65,185.85,265.75,184.65,264.95z"/>
	<path d="M659.81,231.76c0.2,4,0.3,7.9-0.5,11.9C662.01,239.86,662.41,233.96,659.81,231.76z"/>
	<path d="M698.1,162.69c4.1-0.6,4.3-0.6,7.5,1.8C706.95,161.22,701.23,157.67,698.1,162.69z"/>
	<path d="M661.41,402.21c-0.7,3.5-0.9,6.9,0.3,10.3C663.41,405.11,663.31,403.41,661.41,402.21z"/>
	<path d="M209.54,220.87c2.4,0.8,4.4-0.8,7.3-6.2C212.74,216.77,210.54,218.57,209.54,220.87z"/>
	<path d="M198.65,248.46c2.7-3.1,2.6-7.9,0.2-11.3C199.25,240.66,198.75,244.26,198.65,248.46z"/>
	<path d="M281.82,266.35c-1.7-2.5-4.1-3.9-6.3-5.5C276.32,265.15,277.02,265.75,281.82,266.35z"/>
	<path d="M179.15,413.21c1.1-10.1,1.1-10.1-0.5-11.1C177.85,405.71,177.55,409.21,179.15,413.21z"/>
	<path d="M718.59,281.85c-4,1.4-7.2,4-10.1,7C711.99,286.65,715.79,284.95,718.59,281.85z"/>
	<path d="M187.95,203.67c0.8,4,3.2,6.6,7.1,7.9C192.65,208.97,191.15,205.57,187.95,203.67z"/>
	<path d="M626.72,215.67c-0.9-3.3-1.7-6.6-3.9-9.4C623.12,209.77,624.42,212.87,626.72,215.67z"/>
	<path d="M181.55,251.96c-0.2,2.6,1,6,2.6,7.7C184.35,255.46,183.65,253.46,181.55,251.96z"/>
	<path d="M658.81,182.78c-2.5-0.8-4.2,0.9-6.1,1.8C655.41,186.08,657.31,185.08,658.81,182.78z"/>
	<path d="M639.31,218.97c-1.3-2.9-2.9-5.6-5.9-7C635.41,214.27,636.61,217.27,639.31,218.97z"/>
	<path d="M631.82,209.77c-1.6-3-1.9-6.5-4.2-9.2C628.22,204.07,629.12,207.47,631.82,209.77z"/>
	<path d="M668.4,178.58c-2.5,1.6-5,2.6-8,3.7C665.7,182.68,667.9,181.58,668.4,178.58z"/>
	<path d="M195.75,396.31c-1.3,2.8-2.4,5.7-1.8,8.9C194.45,402.21,196.45,399.51,195.75,396.31z"/>
	<path d="M289.52,259.26c-1.8,1.6-4.2,2.8-4.2,5.6C287.32,263.45,289.22,261.86,289.52,259.26z"/>
	<path d="M298.02,150.19c-2.8-1.9-5.2-1.2-5.9,1.9C293.92,150.59,296.42,152.29,298.02,150.19z"/>
	<path d="M678.1,396.21c-0.6,3.2-2.3,5.9-1.6,9.6C678.6,401.41,679.2,397.91,678.1,396.21z"/>
	<path d="M674.1,183.08c0.9,2.7,2.5,4.8,5.5,5.4C678.4,185.98,676.4,184.38,674.1,183.08z"/>
	<path d="M778.27,141.29c-1.83-1.93-8.06-0.79-5.6,1.9C773.97,141.19,776.57,143.69,778.27,141.29z"/>
	<path d="M655.61,263.75c0.4,3.4,3.1,5.6,3.2,8.7C659.91,270.25,658.21,265.75,655.61,263.75z"/>
	<path d="M190.65,354.23c0.3,3.2,2.9,5.4,3.1,8.5C194.75,360.43,192.95,355.83,190.65,354.23z"/>
	<path d="M189.75,337.43c-1.7,1-3.5-0.4-5.2,0.5C186.35,340.73,187.75,340.63,189.75,337.43z"/>
	<path d="M276.92,243.66c0.4-2.6,1.6-5,0-8.1C275.62,239.56,275.62,241.26,276.92,243.66z"/>
	<path d="M183.75,281.05c0.8-2.4,1.5-4.7,2.2-7C183.05,274.75,182.45,276.65,183.75,281.05z"/>
	<path d="M683.9,372.92c-2-1.2-2-1.2-5.3,0.5C680.3,373.32,682.3,375.72,683.9,372.92z"/>
	<path d="M718.49,229.76c-2.3,1.9-3.8,4.4-5.8,6.4C715.59,234.86,717.69,232.86,718.49,229.76z"/>
	<path d="M179.15,299.74c0.3-2.3,0.4-4.5-0.7-6.7C178.05,295.34,177.45,297.64,179.15,299.74z"/>
	<path d="M721.89,219.47c-2.2,1.4-4.2-0.4-6.3,1.2C718.59,222.47,719.89,222.37,721.89,219.47z"/>
	<path d="M640.21,212.27c-0.4-2.4,0.5-5.1-2.4-6.5C638.81,207.87,638.11,210.57,640.21,212.27z"/>
	<path d="M692.2,254.66c1.6-1,3.2-1.9,3.5-4.1C694,251.36,692.8,252.76,692.2,254.66z"/>
	<path d="M687.3,180.08c4.1,0.1,5.1-0.2,6.4-2.3C691.5,178.58,689.4,178.68,687.3,180.08z"/>
	<path d="M188.05,203.67c-1.3-2.7-0.6-5.8-1.7-8.8C185.35,198.87,185.85,201.17,188.05,203.67z"/>
	<path d="M171.65,385.92c-0.4,2.2-0.5,3.9,0,6.3C173.05,388.82,173.05,387.92,171.65,385.92z"/>
	<path d="M664.11,283.85c1.8,1.3,3.7,1.9,5.9,1.9C668.2,284.65,666.4,283.35,664.11,283.85z"/>
	<path d="M745.58,156.59c-1.9,2.5-1.9,2.5-0.4,4.9C745.38,159.79,746.78,158.59,745.58,156.59z"/>
	<path d="M743.68,169.58c0.5-2,2.3-3.6,1.3-5.9C744.48,165.68,742.78,167.38,743.68,169.58z"/>
	<path d="M292.92,318.84c-1.4-1.9-3.3-3.2-5.4-4.3C289.12,316.34,290.72,317.94,292.92,318.84z"/>
	<path d="M740.58,177.18c1.8,1,3.5,1.7,5.6,1C744.28,176.88,743.08,176.58,740.58,177.18z"/>
	<path d="M265.43,165.58c-1.7,1.5-2.1,2.9-0.8,4.9C265.43,168.78,266.33,167.48,265.43,165.58z"/>
	<path d="M195.55,341.13c-2.3,0-4,0.5-5.6,1.7C191.85,343.03,193.85,343.43,195.55,341.13z"/>
	<path d="M196.45,212.17c0.7,2.2,1.6,3.8,3.2,4.9C199.25,215.17,199.15,213.07,196.45,212.17z"/>
	<path d="M294.62,218.77c-0.7,1.7-0.5,3.5,0.1,5.9C296.12,222.17,295.52,220.47,294.62,218.77z"/>
	<path d="M260.83,186.08c1.6,1.2,3.3,1.3,5,0.8C263.53,185.48,263.53,185.48,260.83,186.08z"/>
	<path d="M263.33,179.08c1.3-2.4,2.2-4.3,1.5-6.5C264.73,174.58,262.73,176.18,263.33,179.08z"/>
	<path d="M673.5,219.27c0.19-0.19-0.11,1.44,1.3,0.8c0.1-0.7-0.3-1-1-1.1c-0.4-1.7-0.1-3.7-1.8-5
		C672.2,215.87,671.4,217.97,673.5,219.27z"/>
	<path d="M187.25,382.12c1.5,3.6,1.5,3.6,3.1,4.9C189.55,385.22,189.05,383.32,187.25,382.12z"/>
	<path d="M736.68,220.47c1.7,1.8,3,2.5,5.5,2.2C740.28,221.67,739.28,220.27,736.68,220.47z"/>
	<path d="M654.61,385.82c-0.6,2.3-0.8,4,0.2,5.9C654.71,390.02,656.51,388.22,654.61,385.82z"/>
	<path d="M637.91,187.38c-1.26,1.26-1.92,0.11,3.2,4.5C641.21,189.38,639.31,188.68,637.91,187.38z"/>
	<path d="M206.24,178.98c1.4-0.9,3.5-0.7,3.9-3C208.44,176.38,207.24,177.48,206.24,178.98z"/>
	<path d="M293.72,345.03c0.9-1.9-0.2-3.4-0.9-5C291.92,341.93,293.12,343.43,293.72,345.03z"/>
	<path d="M732.28,147.69c-0.7,1.2-1.1,2.4,0.2,4.3C733.66,147.57,733.5,147.99,732.28,147.69z"/>
	<path d="M655.11,398.81c-1.1,1.7-0.8,3.2-1,5C656.31,402.31,656.01,400.91,655.11,398.81z"/>
	<path d="M172.35,398.81c-1.3,1.5-1.1,3-0.9,4.7C173.55,402.11,173.15,400.71,172.35,398.81z"/>
	<path d="M290.62,175.08c1,1.9,2.3,1.5,3.7,0.8C293.22,175.28,292.22,174.18,290.62,175.08z"/>
	<path d="M682.1,198.77c-2.59,1.09-1.31,3.58-2.49,4.88c-0.03-0.1-2.83,2.22-0.71,4.72c1.28-1.57,1.01-3.14,0.72-4.71
		C681.31,202.56,682.4,201.26,682.1,198.77z"/>
	<path d="M179.25,380.22c-0.3,2.2,0.8,3.6,1.8,5C180.75,383.52,181.05,381.62,179.25,380.22z"/>
	<path d="M695.3,223.07c-0.7,2.1-1.2,3.9-0.8,6.2C695.4,227.17,695.8,225.37,695.3,223.07z"/>
	<path d="M770.57,166.48c1.3,1.4,2.5,1.8,4,0.4C773.37,166.78,772.37,165.18,770.57,166.48z"/>
	<path d="M663.51,384.32c0-1.5,0-2.9-1.5-4.1C661.61,382.02,662.31,383.22,663.51,384.32z"/>
	<path d="M283.12,272.15c1.6-1.3,2.5-2.5,2.7-4.2C284.32,268.85,283.42,270.05,283.12,272.15z"/>
	<path d="M224.74,204.27c1.2-1.2,1.9-2.6,2-4.3C225.14,200.97,224.94,202.57,224.74,204.27z"/>
	<path d="M670.2,382.52c0.6,1.7,1.1,3.4,2.7,4.4C672.4,385.12,671.9,383.42,670.2,382.52z"/>
	<path d="M629.02,220.47c0.4,2.3,1.1,3.7,3,4.4C631.22,223.47,631.02,221.77,629.02,220.47z"/>
	<path d="M196.25,356.23c0.4,1.4,0.1,3,1.4,4C197.65,358.73,197.45,357.33,196.25,356.23z"/>
	<path d="M661.41,265.95c0.4,1.4,0.1,2.9,1.4,4C662.81,268.45,662.71,267.05,661.41,265.95z"/>
	<path d="M252.83,156.49c-1.3,1.5-1.3,1.5-0.5,3.8C252.93,158.99,253.43,157.89,252.83,156.49z"/>
	<path d="M293.82,205.37c1.4-1.7,1.4-1.7,1.4-3.7C294.42,202.77,293.22,203.67,293.82,205.37z"/>
	<path d="M666.6,361.72c0.3,1.9,0.9,2.8,2,3.4C668.9,363.72,668.5,362.62,666.6,361.72z"/>
	<path d="M668.4,381.22c-0.6-3-0.6-3-2.8-3.8C666.6,378.72,667.3,379.82,668.4,381.22z"/>
	<path d="M640.71,175.28c1.3,1.2,2.2,2.1,4.2,2.8C643.71,176.18,642.61,175.58,640.71,175.28z"/>
	<path d="M182.75,377.02c1,1.4,1.8,2.5,2.8,3.9C184.95,378.22,184.95,378.22,182.75,377.02z"/>
	<path d="M649.31,292.45c1.2-0.5,2.3-0.3,2.9-2.1C650.91,290.65,649.91,290.75,649.31,292.45z"/>
	<path d="M182.85,283.85c-0.4,1.4,0.2,2.1,1.3,3.3C184.75,285.25,184.25,284.55,182.85,283.85z"/>
	<path d="M293.72,346.83c0,1.53-0.28,2.85,1.1,2.7C295.22,348.53,295.22,347.73,293.72,346.83z"/>
	<path d="M682.9,217.87c0.1-1.5-0.7-2.3-1.9-2.8C681,216.37,680.9,217.67,682.9,217.87z"/>
	<path d="M733.08,154.49c-0.2,1-1.3,1.8-0.4,3.3C733.88,156.59,733.38,155.49,733.08,154.49z"/>
	<path d="M685.3,223.37c0.1-1.5-0.3-2.3-2-2.3C683.4,222.47,683.8,223.27,685.3,223.37z"/>
	<path d="M192.25,298.34c0.7-1.5,0.2-2.4-0.8-3.5C191.15,296.24,191.05,297.34,192.25,298.34z"/>
	<path d="M693.2,211.07c0.6-1.3,0.6-2-0.6-2.4C691.2,209.77,691.9,210.37,693.2,211.07z"/>
	<path d="M282.12,278.65c0.5-1.1,0.2-2-0.2-2.9C281.02,276.75,280.82,277.75,282.12,278.65z"/>
	<path d="M228.04,176.68c1,0.4,1.7,0.6,2.1-0.8C229.34,175.68,228.74,175.58,228.04,176.68z"/>
	<path d="M294.42,351.93c-1.2-0.2-2.1-0.5-2.7,0.9C292.72,353.53,293.42,353.53,294.42,351.93z"/>
	<path d="M669.4,368.72c0.4-1.6-0.4-2.5-0.9-3.5C668.2,366.32,667.9,367.52,669.4,368.72z"/>
	<path d="M198.35,235.76c-0.4-2.2-0.4-2.2-1.7-3.1C196.75,233.86,197.15,234.76,198.35,235.76z"/>
	<path d="M659.21,368.42c0,1.4,0.3,2.2,1.9,2.4C661.11,369.42,660.61,368.72,659.21,368.42z"/>
	<path d="M723.09,220.67c1.2,0.9,1.7,0.1,2.6-1.1C724.39,219.57,723.39,219.47,723.09,220.67z"/>
	<path d="M670.5,176.08c-1.41-1.87-1.75,0.98,0,1.3C671,176.78,670.6,176.38,670.5,176.08z"/>
	<path d="M204.84,179.88c-1.2,1-1.9,1.6-1.5,3C204.14,182.08,204.84,181.48,204.84,179.88z"/>
	<path d="M252.53,163.68c0.2,1-0.8,1.7,0.3,2.9C253.23,165.38,253.53,164.58,252.53,163.68z"/>
	<path d="M192.85,340.43c1.1-0.2,1.8,0.1,2.4-1C194.25,339.03,193.55,339.13,192.85,340.43z"/>
	<path d="M661.31,348.23c-0.6,0.7-1.2,1.3-0.2,2.2C662.01,349.83,662.01,349.13,661.31,348.23z"/>
	<path d="M203.04,219.17c-0.3-0.6-0.2-1.4-1.3-1.4C200.96,218.4,202.11,220.11,203.04,219.17z"/>
	<path d="M294.62,214.37c-0.9,0.8-1.3,1.5-0.1,2.6C295.12,215.97,295.22,215.17,294.62,214.37z"/>
	<path d="M665.8,220.97c-0.5-1.1-0.4-2.1-1.9-2.2C663.81,220.07,664.41,220.57,665.8,220.97z"/>
	<path d="M186.85,242.86c0.1-1.1-0.2-1.8-1.6-2.4C185.25,241.96,185.35,242.86,186.85,242.86z"/>
	<path d="M746.08,223.07c-1-0.4-1.7-0.8-2.6,0.2C744.48,223.97,745.18,224.07,746.08,223.07z"/>
	<path d="M297.72,197.57c-1.2,1.1-1.2,1.1-1,2.4C297.62,199.57,298.02,198.87,297.72,197.57z"/>
	<path d="M277.52,252.66c0.8-0.8,1.2-1.4,0.3-2.4C276.82,250.86,276.82,251.46,277.52,252.66z"/>
	<path d="M171.65,408.81c0.9-0.5,1.3-1.1,0.1-2.1C171.05,407.61,171.15,408.21,171.65,408.81z"/>
	<path d="M185.25,290.55c0.4-1.2,0.3-2-1.2-1.7C183.95,289.55,184.25,290.05,185.25,290.55z"/>
	<path d="M192.55,301.34c-0.2,0.7-0.3,1.3,0.6,1.6c0.9-0.5,0.2-1.1,0-1.6C192.95,301.44,192.75,301.44,192.55,301.34z"/>
	<path d="M654.31,407.31c-1.07,1.78,1.12,1.89,0.8,0.6C655.11,407.41,654.81,407.21,654.31,407.31z"/>
	<path d="M274.62,178.68c0.65,0,1.61-1.55,0.4-1.7C274.62,177.48,274.22,177.98,274.62,178.68z"/>
	<path d="M189.55,216.87c-0.3,1.1-0.5,1.9,0.7,2.1C190.75,218.17,190.75,217.57,189.55,216.87z"/>
	<path d="M298.82,348.23c0.6-1.1,0.4-1.7-0.4-2.2C297.92,346.83,297.92,347.53,298.82,348.23z"/>
	<path d="M636.71,303.94c1.08,2.67,9.46,13.49,24.09,16.79C639.69,310.83,638.85,304.25,636.71,303.94z"/>
	<path d="M754.68,169.98c1.1-0.4,0.8-1.6,1.5-2.1C754.88,167.98,754.48,168.68,754.68,169.98z"/>
	<path d="M200.05,253.46c-0.4,0.8-0.2,1.3,1.7,1.5C200.85,254.16,200.95,253.36,200.05,253.46z"/>
	<path d="M636.61,203.17c-0.4,1.3,0,2.1,1.2,2.6C637.71,204.87,637.71,203.87,636.61,203.17z"/>
	<path d="M672.6,430.1c0,0.7,0,1.1,0,1.8C673,431.2,672.9,430.8,672.6,430.1z"/>
	<path d="M632.91,227.47c0.5-1.3-0.7-1.8-0.9-2.6C631.82,225.87,631.62,226.87,632.91,227.47z"/>
	<path d="M646.01,183.08c0.41-0.41,0.21-1.56-1.1-0.9C645.01,183.08,645.41,183.28,646.01,183.08z"/>
	<path d="M674.2,378.72c-0.2-0.9-0.3-1.6-1.7-1.3C672.8,378.32,673,378.92,674.2,378.72z"/>
	<path d="M299.02,343.93c0.8-0.4-0.08-1.22-0.3-1c-0.3,0.1-0.4,0.5-0.2,0.8C298.52,343.83,298.82,343.83,299.02,343.93z"/>
	<path d="M667.8,163.48c-0.8,0.2-0.8,0.6-0.4,1.1C668,164.38,668.4,164.08,667.8,163.48z"/>
	<path d="M227.54,173.98c0.6,1,1.1,0.8,2,0C228.74,173.48,228.24,173.38,227.54,173.98z"/>
	<path d="M633.71,199.67c0.2,0.9,0.5,1.4,1.4,1.7C635.11,200.17,634.91,199.67,633.71,199.67z"/>
	<path d="M194.25,306.04c0.2-0.7-0.2-0.9-0.7-1.1C193.15,305.74,193.35,306.14,194.25,306.04z"/>
	<path d="M295.82,258.46c-0.3,0.5-0.3,1,0.4,1.3C296.62,259.16,296.32,258.76,295.82,258.46z"/>
	<path d="M727.79,218.27c0.9,0.4,1.3,0.1,1.5-1.4C728.29,217.27,727.59,217.27,727.79,218.27z"/>
	<path d="M200.45,357.23c0.2,1,0.4,1.5,1.2,1.5C201.85,357.83,201.45,357.53,200.45,357.23z"/>
	<path d="M666.8,268.35c0.3-0.8-0.3-1.1-1.4-1.6C665.9,267.85,665.9,268.55,666.8,268.35z"/>
	<path d="M192.25,221.67c-0.3,0.7-0.3,1.1,0.7,0.8C192.95,221.97,192.75,221.77,192.25,221.67z"/>
	<path d="M267.93,199.87c-0.08,0-0.15,0-0.2,0C267.43,200.07,267.73,200.37,267.93,199.87z"/>
	<path d="M297.92,351.53c-1.42-0.35-0.84,1.94,0.3,0.8C298.32,352.13,298.12,351.53,297.92,351.53z"/>
	<path d="M266.23,190.98c-0.4,0.3-0.9,0.4-0.3,1.5C266.13,191.88,266.73,191.88,266.23,190.98z"/>
	<path d="M679,319.24c-0.5-0.1-0.5,0.2-0.6,0.5C678.9,319.94,678.9,319.44,679,319.24z"/>
	<path d="M705.79,327.34c0.28-0.28,0.05-0.11-1.1-0.4C705.19,327.04,705.49,327.24,705.79,327.34z"/>
	<path d="M651.31,184.08c-0.5-0.6-1.1-0.6-2,0C650.01,184.78,650.71,184.98,651.31,184.08z"/>
	<path d="M715.49,181.28c0.06-0.01,0.11,0.01,0.17,0C715.59,181.14,715.59,181.18,715.49,181.28z"/>
	<path d="M717.59,182.48c-0.28-0.85-0.93-1.24-1.93-1.2C716.07,182.01,716.73,182.38,717.59,182.48z"/>
	<path d="M713.79,179.98c0.6,1,1.1,1.3,1.8,1.2C715.39,180.28,714.79,180.28,713.79,179.98z"/>
	<path d="M776.37,178.08c0.56,0.14,1.01-0.65,0.3-1C775.89,176.88,776,178.08,776.37,178.08z"/>
	<path d="M556.94,225.77c1.3,0.9,2.2,1.1,3.6,1.1C559.54,225.57,558.64,225.27,556.94,225.77z"/>
	<path d="M558.74,342.43c0,0.2,0,0.4,0.1,0.8C562.09,342.3,559.68,341.48,558.74,342.43z"/>
	<path d="M727.79,384.62c-0.42,3.9-0.4,7.8,0.1,12c4.6-6.4,2.4-21.09-3.6-23.49C725.15,378.71,728.28,380.04,727.79,384.62z"/>
	<path d="M734.08,363.22c1.2,4.6,4.7,7.3,6.1,11.2c1.3-2.2-0.71-3.8-1.7-5.5C737.38,367.03,736.58,364.92,734.08,363.22z"/>
	<path d="M733.98,352.53c-0.5,2.2-2.3,4.1-0.2,6.6C736.38,357.43,736.38,355.63,733.98,352.53z"/>
	<path d="M726.19,404.11c1-1.6,3-3,1.7-6.1C726.39,400.11,725.99,402.01,726.19,404.11z"/>
	<path d="M723.29,460.7c1.4-1.6,1.3-3.2-0.1-4.7C723.29,457.5,721.29,459.1,723.29,460.7z"/>
	<path d="M721.09,371.32c-0.7-1.5-1.7-2.6-3.7-3.5C718.29,369.92,719.29,371.02,721.09,371.32z"/>
	<path d="M726.29,405.81c-2.6,2.2-2.6,2.2-2.4,4.2C724.79,408.91,725.69,407.91,726.29,405.81z"/>
	<path d="M711.29,362.52c0.9,1.1,1.5,2,3.1,1.3C713.69,362.52,712.99,361.92,711.29,362.52z"/>
	<path d="M723.89,440.4c-0.7,1.3-0.8,2.6,0,4.3C724.59,443,724.49,441.7,723.89,440.4z"/>
	<path d="M731.39,456.8c0.6-1.2,0.2-2.3-0.3-3.3C730.89,454.6,730.49,455.7,731.39,456.8z"/>
	<path d="M730.39,450.8c1.1-0.6,1.4-1.2,0.7-2.3C729.89,448.9,729.99,449.8,730.39,450.8z"/>
	<path d="M737.98,361.72c0.86-0.65-0.34-2.22-1.3-1.4C736.68,361.13,737.08,361.62,737.98,361.72z"/>
	<path d="M719.59,414.01c0.8-0.9,1.6-1.1,1.6-2C720.09,411.91,719.69,412.41,719.59,414.01z"/>
	<path d="M723.99,450.8c0.5-1,0.6-1.8-0.2-2.7C723.29,449.1,722.89,450,723.99,450.8z"/>
	<path d="M752.66,497.08c-0.81,0.44,0.82,0.63,1.96,0.15c5.21-2.19,9.04-5.75,14.25-4.05c0.12,0,0.29-0.29,0.51-0.4
		C765.5,489.21,759.24,493.53,752.66,497.08z"/>
	<path d="M671.4,495.28c1.09,2.5,3.2,1.7,5.3,1.7C678.54,488.27,669.71,491.38,671.4,495.28z M675.8,494.08c-0.7,0.5-1.4,1-2.1,1.5
		C671.15,494.31,674.28,491.04,675.8,494.08z"/>
	<path d="M667.7,491.49c-3.85,0.21-3.79,5.5,0.1,5.5C671.64,497.2,671.73,491.49,667.7,491.49z M667.6,495.88
		c-1.9-0.21-1.71-2.9,0.1-2.9C669.59,492.99,670.01,495.62,667.6,495.88z"/>
	<path d="M664.01,492.09c-1.1-1.8-2.7-1.4-4.3-1c-0.49,8.88,0.42,3.76,1.5,3.9c0.9-0.1,0.9,1.5,2.3,1.2
		C662.71,494.78,664.21,493.78,664.01,492.09z M660.81,492.99c0.6-1.4,1.3-1,2.2-0.5C662.31,493.59,661.61,493.49,660.81,492.99z"/>
	<path d="M229.74,292.05c-28.18,3.4-25.16,2.82-24.79,4.3C213.24,295.44,221.74,295.34,229.74,292.05z"/>
	<path d="M203.74,299.04c0,0.3-0.1,0.6-0.1,1C246.72,304.39,240.14,301.98,203.74,299.04z"/>
	<path d="M213.74,278.25c5.3-0.6,9-4.7,14.3-6.1C224.94,270.15,217.24,273.55,213.74,278.25z"/>
	<path d="M219.14,255.56c3.94-0.25,13.23-6.12,8.6-8.8C225.44,250.16,220.94,251.26,219.14,255.56z"/>
	<path d="M238.23,238.46c-2,2.2-4.1,4.4-5.9,6.7C235.33,243.86,237.43,241.76,238.23,238.46z"/>
	<path d="M241.43,229.16c-3.6-0.5-3.9-0.5-5.6,0.4C238.13,231.36,239.13,231.26,241.43,229.16z"/>
	<path d="M261.33,231.16c-1.4-0.9-2.4-2-4.7-2.1C258.93,231.46,258.93,231.46,261.33,231.16z"/>
	<path d="M263.73,231.96c0.6,0.9,1.2,0.9,2-0.1C265.03,231.76,264.33,231.06,263.73,231.96z"/>
	<path d="M245.53,228.17c-1.2,0.3-2.1,0.1-2.4,1.3C244.13,229.86,244.83,229.76,245.53,228.17z"/>
	<path d="M249.03,225.87c-0.9,0.2-1.6,0.2-1.6,1.3C248.53,227.37,249.03,227.17,249.03,225.87z"/>
	<path d="M244.93,387.82c-0.4,2.8,0.1,5.5,0.1,8.8c5.3-6.6,1.2-21.19-3.1-23.49C240.58,377.17,246.35,377.87,244.93,387.82z"/>
	<path d="M251.73,363.72c0.9,4.1,4.4,6.9,5.5,11.3C258.13,372.32,255.53,367.12,251.73,363.72z"/>
	<path d="M243.63,404.41c0.8-2,2.7-3.4,1.7-6.2C243.23,400.71,243.03,401.51,243.63,404.41z"/>
	<path d="M240.13,460.7c1.7-1.8,1.5-3.3,0.2-5.5C239.83,457.3,239.13,458.8,240.13,460.7z"/>
	<path d="M234.74,367.92c0.7,1.6,1.6,3.1,3.6,3.2C237.53,369.72,236.43,368.52,234.74,367.92z"/>
	<path d="M240.43,410.21c1.5-1.4,2.4-2.4,2.7-4.4C241.33,406.91,240.63,408.01,240.43,410.21z"/>
	<path d="M241.03,444c0.8-1.2,1-2.5,0.1-4.6C240.23,441.4,240.23,442.7,241.03,444z"/>
	<path d="M241.03,451.1c0.9-1.3,0.8-2.2-0.1-3.6C240.33,448.9,240.23,449.9,241.03,451.1z"/>
	<path d="M248.43,457.1c1.1-1.7,0.5-2.7-0.4-3.9C247.93,454.6,247.53,455.6,248.43,457.1z"/>
	<path d="M248.13,448.3c-0.8,0.8-1.2,1.5-0.2,2.6C248.53,449.8,248.93,449.1,248.13,448.3z"/>
	<path d="M236.93,413.21c0.9,0.1,1.2-0.5,1.2-1.4C237.63,412.21,236.53,412.11,236.93,413.21z"/>
	<path d="M188.35,495.18c1.2,2.4,3.3,1.6,5.3,1.6C195.68,488.25,186.39,491.26,188.35,495.18z M192.55,493.88
		c-0.5,0.9-1.7,0.7-1.9,1.7C187.59,493.84,191.53,491.03,192.55,493.88z"/>
	<path d="M184.85,491.39c-3.89-0.23-4.43,5.36-0.2,5.6C188.57,496.77,188.53,491.6,184.85,491.39z M184.75,495.68
		c-2.19,0-2.05-3.12-0.1-2.9C186.73,492.79,186.47,495.68,184.75,495.68z"/>
	<path d="M176.55,490.89c-0.1,1.6-0.2,3.3-0.4,4.9c1.4,0.5,1.1-1.2,2-1c0.9,0,0.9,1.5,2,1.2
		C180.45,490.49,180.45,490.49,176.55,490.89z M177.75,492.89c0.4-1.6,1.2-1.1,2.2-0.2C179.05,493.39,178.45,493.39,177.75,492.89z"
		/>
	<path d="M758.68,255.76c0.4,1.7,0.6,3.4,1.5,5.2C760.88,258.06,760.38,256.26,758.68,255.76z"/>
	<path d="M758.18,267.85c0.89,1.57,2.67,0.7,2.4-0.4C759.58,266.55,758.88,267.25,758.18,267.85z"/>
	<path d="M760.48,262.55c-0.4,0.9-0.5,1.6,0.6,2.5C761.88,263.85,761.68,263.15,760.48,262.55z"/>
	<path d="M765.27,258.06c-0.4,0.6-0.6,1.1,0.2,1.3C765.97,258.96,765.97,258.56,765.27,258.06z"/>
	<path d="M764.97,261.56c-0.6,0.6-0.3,1.2-0.1,1.8C766.05,263.35,765.95,262.04,764.97,261.56z"/>
	<path d="M763.98,266.95c-1.1,0.37-0.18,1.19,0,1.1C765.25,267.8,764.56,266.81,763.98,266.95z"/>
	<path d="M94.68,432c1-0.2,1.9-0.1,2.1-1.3C96.18,431.1,95.08,430.5,94.68,432z"/>
	<path d="M142.86,284.45c-0.96-2.51-1.3-2.8-3.2-3.4c3.5,5.2,4.32,11.32,5.7,17.19c1.7,7.23-1.83,3.35,0.8,21.39
		c1.52,6.08,18.54,28.03,24.89,29.39C132.15,311.45,155.53,317.58,142.86,284.45z"/>
	<path d="M178.55,343.53c-6.8-5.3-15.1-8.1-21.59-13.9C162.76,336.33,170.45,340.13,178.55,343.53z"/>
	<path d="M152.16,280.55c-4.5-1.7-8.2-4.7-13.8-3C141.26,279.85,149.66,281.65,152.16,280.55z"/>
	<path d="M156.86,349.73c-0.4-8.4-6-14.9-8.4-22.59C149.56,335.33,154.66,342.03,156.86,349.73z"/>
	<path d="M171.85,240.46c-5.45,9.84,5.08,0.06,2.9-4.7C174.35,237.66,172.74,238.86,171.85,240.46z"/>
<path fill="#e6e6e6" d="m206.8 163.6c0-5.1 4.1-9.2 9.3-9.2s9.2 4.2 9.2 9.2-4.1 9.2-9.3 9.2-9.2-4.1-9.2-9.2zm17.3-.1c0-4.5-3.5-8.2-8.2-8.2s-8.2 3.7-8.2 8.3c0 4.5 3.5 8.2 8.2 8.2s8.2-3.7 8.2-8.3zm-13 0c0-2.8 2.1-5.1 5.1-5.1 1.9 0 2.9.6 3.9 1.5l-1.4 1.7c-.8-.7-1.5-1.1-2.5-1.1-1.7 0-2.8 1.4-2.8 3.1s1.1 3 2.8 3c1.1 0 1.7-.5 2.5-1.1l1.4 1.4c-1.1 1.1-2.1 1.7-4 1.7-2.9 0-5-2.3-5-5.1z"/><path fill="#e6e6e6" d="m226.6 154.7h3.4l4.2 13.2 4.4-13.3h2.6l4.4 13.3 4.2-13.2h3.3l-6.2 18h-2.7l-4.4-12.8-4.4 12.8h-2.7z"/><path fill="#e6e6e6" d="m252.8 165.8c0-3.9 3.1-7 7.2-7 4.2 0 7.2 3.2 7.2 7s-3.1 7-7.3 7c-4 0-7.1-3.1-7.1-7zm11.3 0c0-2.3-1.7-4.3-4.2-4.3s-4.1 2-4.1 4.3 1.7 4.3 4.1 4.3c2.7.1 4.2-1.9 4.2-4.3z"/><path fill="#e6e6e6" d="m269.5 159.1h3.1v3c.8-2 2.4-3.4 4.8-3.3v3.2h-.2c-2.7 0-4.6 1.7-4.6 5.4v5.1h-3.1z"/><path fill="#e6e6e6" d="m279.1 153.9h3.1v11.1l5.6-6h3.8l-5.4 5.5 5.5 8h-3.5l-4.1-5.8-1.9 2v3.9h-3.1z"/><path fill="#e6e6e6" d="m291.7 165.8c0-3.9 3.1-7 7.2-7 4.2 0 7.2 3.2 7.2 7s-3.1 7-7.3 7c-4 0-7.1-3.1-7.1-7zm11.3 0c0-2.3-1.7-4.3-4.2-4.3s-4.1 2-4.1 4.3 1.7 4.3 4.1 4.3c2.6.1 4.2-1.9 4.2-4.3z"/><path fill="#e6e6e6" d="m308.2 167.6v-8.6h3.1v7.6c0 2.1 1.1 3.3 2.9 3.3s3-1.3 3-3.3v-7.6h3.1v13.4h-3.1v-2.1c-.8 1.3-2.1 2.3-4.2 2.3-3.1.2-4.8-1.8-4.8-5z"/><path fill="#e6e6e6" d="m323.9 168.8v-7.1h-1.7v-2.6h1.7v-3.7h3.1v3.7h3.6v2.6h-3.6v6.6c0 1.2.6 1.7 1.7 1.7.7 0 1.3-.2 1.9-.5v2.5c-.8.5-1.7.7-2.8.7-2.3 0-3.9-.9-3.9-3.9z"/><path fill="#e6e6e6" d="m333.2 154.7h3.2v15h9.4v2.9h-12.5v-17.9z"/><path fill="#e6e6e6" d="m356 172.5v-1.7c-.9 1.1-2.3 2-4.4 2-2.6 0-4.8-1.4-4.8-4.2 0-3 2.3-4.4 5.4-4.4 1.7 0 2.6.2 3.7.5v-.2c0-1.9-1.2-2.9-3.3-2.9-1.5 0-2.6.3-3.9.8l-.8-2.5c1.5-.7 2.9-1.1 5.1-1.1 4 0 5.9 2.1 5.9 5.7v8zm.1-5.6c-.8-.3-1.9-.5-3.1-.5-2 0-3.1.8-3.1 2.1s1.1 2 2.6 2c2 0 3.5-1.1 3.5-2.9z"/><path fill="#e6e6e6" d="m364.9 170.5v2.1h-3.1v-18.7h3.1v7.4c1-1.4 2.4-2.5 4.5-2.5 3.2 0 6.3 2.5 6.3 7s-3.1 7-6.3 7c-2.1 0-3.5-1.1-4.5-2.3zm7.7-4.7c0-2.6-1.7-4.3-3.9-4.3s-3.9 1.7-3.9 4.4c0 2.6 1.8 4.3 3.9 4.3s3.9-1.7 3.9-4.4z"/><path fill="#e6e6e6" d="m376.9 170.8 1.4-2.1c1.4 1.1 3 1.7 4.4 1.7s2.1-.5 2.1-1.5-1.3-1.4-2.8-1.8c-.1 0-.2-.1-.2-.1-2-.6-4.2-1.4-4.2-4s2.1-4.1 4.8-4.1c1.7 0 3.5.6 5 1.5l-1.2 2.2c-1.3-.8-2.6-1.3-3.8-1.3s-1.9.5-1.9 1.4 1.3 1.4 2.8 1.8c.1 0 .2.1.2.1 2 .6 4.2 1.5 4.2 4 0 2.9-2.2 4.2-5 4.2-1.9 0-4-.7-5.8-2z"/><path fill="#e6e6e6" d="m505.6 163.6c0-5.1 4.1-9.2 9.3-9.2s9.2 4.2 9.2 9.2-4.1 9.2-9.3 9.2-9.2-4.1-9.2-9.2zm17.4-.1c0-4.5-3.5-8.2-8.2-8.2s-8.2 3.7-8.2 8.3c0 4.5 3.5 8.2 8.2 8.2s8.2-3.7 8.2-8.3zm-13.1 0c0-2.8 2.1-5.1 5.1-5.1 1.9 0 2.9.6 3.9 1.5l-1.4 1.7c-.8-.7-1.5-1.1-2.5-1.1-1.7 0-2.8 1.4-2.8 3.1s1.1 3 2.8 3c1.1 0 1.7-.5 2.5-1.1l1.4 1.4c-1.1 1.1-2.1 1.7-4 1.7-2.9 0-5-2.3-5-5.1z"/><path fill="#e6e6e6" d="m525.4 154.7h3.4l4.2 13.2 4.4-13.3h2.6l4.4 13.3 4.2-13.2h3.3l-6.2 18h-2.7l-4.4-12.8-4.4 12.8h-2.7z"/><path fill="#e6e6e6" d="m551.7 165.8c0-3.9 3.1-7 7.2-7 4.2 0 7.2 3.2 7.2 7s-3.1 7-7.3 7c-4.1 0-7.1-3.1-7.1-7zm11.2 0c0-2.3-1.7-4.3-4.2-4.3s-4.1 2-4.1 4.3 1.7 4.3 4.1 4.3c2.7.1 4.2-1.9 4.2-4.3z"/><path fill="#e6e6e6" d="m568.3 159.1h3.1v3c.8-2 2.4-3.4 4.8-3.3v3.2h-.2c-2.7 0-4.6 1.7-4.6 5.4v5.1h-3.1z"/><path fill="#e6e6e6" d="m577.9 153.9h3.1v11.1l5.6-6h3.8l-5.4 5.5 5.5 8h-3.5l-4.1-5.8-1.9 2v3.9h-3.1z"/><path fill="#e6e6e6" d="m590.6 165.8c0-3.9 3.1-7 7.2-7 4.2 0 7.2 3.2 7.2 7s-3.1 7-7.3 7c-4.1 0-7.1-3.1-7.1-7zm11.2 0c0-2.3-1.7-4.3-4.2-4.3s-4.1 2-4.1 4.3 1.7 4.3 4.1 4.3c2.6.1 4.2-1.9 4.2-4.3z"/><path fill="#e6e6e6" d="m607 167.6v-8.6h3.1v7.6c0 2.1 1.1 3.3 2.9 3.3s3-1.3 3-3.3v-7.6h3.1v13.4h-3.1v-2.1c-.8 1.3-2.1 2.3-4.2 2.3-3 .2-4.8-1.8-4.8-5z"/><path fill="#e6e6e6" d="m622.7 168.8v-7.1h-1.7v-2.6h1.7v-3.7h3.1v3.7h3.6v2.6h-3.6v6.6c0 1.2.6 1.7 1.7 1.7.7 0 1.3-.2 1.9-.5v2.5c-.8.5-1.7.7-2.8.7-2.3 0-3.9-.9-3.9-3.9z"/><path fill="#e6e6e6" d="m632 154.7h3.2v15h9.4v2.9h-12.6z"/><path fill="#e6e6e6" d="m654.8 172.5v-1.7c-.9 1.1-2.3 2-4.4 2-2.6 0-4.8-1.4-4.8-4.2 0-3 2.3-4.4 5.4-4.4 1.7 0 2.6.2 3.7.5v-.2c0-1.9-1.2-2.9-3.3-2.9-1.5 0-2.6.3-3.9.8l-.8-2.5c1.5-.7 2.9-1.1 5.1-1.1 4 0 5.9 2.1 5.9 5.7v8zm.1-5.6c-.8-.3-1.9-.5-3.1-.5-2 0-3.1.8-3.1 2.1s1.1 2 2.6 2c2 0 3.5-1.1 3.5-2.9z"/><path fill="#e6e6e6" d="m663.7 170.5v2.1h-3.1v-18.7h3.1v7.4c1-1.4 2.4-2.5 4.5-2.5 3.2 0 6.3 2.5 6.3 7s-3.1 7-6.3 7c-2.1 0-3.5-1.1-4.5-2.3zm7.8-4.7c0-2.6-1.7-4.3-3.9-4.3-2.1 0-3.9 1.7-3.9 4.4 0 2.6 1.8 4.3 3.9 4.3s3.9-1.7 3.9-4.4z"/><path fill="#e6e6e6" d="m675.8 170.8 1.4-2.1c1.4 1.1 3 1.7 4.4 1.7s2.1-.5 2.1-1.5-1.3-1.4-2.8-1.8c-.1 0-.2-.1-.2-.1-2-.6-4.2-1.4-4.2-4s2.1-4.1 4.8-4.1c1.7 0 3.5.6 5 1.5l-1.2 2.2c-1.3-.8-2.6-1.3-3.8-1.3s-1.9.5-1.9 1.4 1.3 1.4 2.8 1.8c.1 0 .2.1.2.1 2 .6 4.2 1.5 4.2 4 0 2.9-2.2 4.2-5 4.2-2 0-4.1-.7-5.8-2z"/><path fill="#e6e6e6" d="m61 298.6c0-5.1 4.1-9.2 9.3-9.2s9.2 4.2 9.2 9.2-4.1 9.2-9.3 9.2c-5.1 0-9.2-4.2-9.2-9.2zm17.4-.1c0-4.5-3.5-8.2-8.2-8.2s-8.2 3.7-8.2 8.3c0 4.5 3.5 8.2 8.2 8.2s8.2-3.7 8.2-8.3zm-13.1-.1c0-2.8 2.1-5.1 5.1-5.1 1.9 0 2.9.6 3.9 1.5l-1.4 1.7c-.8-.7-1.5-1.1-2.5-1.1-1.7 0-2.8 1.4-2.8 3.1s1.1 3 2.8 3c1.1 0 1.7-.5 2.5-1.1l1.4 1.4c-1.1 1.1-2.1 1.7-4 1.7-2.8.1-5-2.2-5-5.1z"/><path fill="#e6e6e6" d="m80.9 289.7h3.4l4.2 13.2 4.4-13.3h2.6l4.4 13.3 4.2-13.2h3.3l-6.2 18h-2.7l-4.4-12.8-4.4 12.8h-2.7z"/><path fill="#e6e6e6" d="m107.1 300.8c0-3.9 3.1-7 7.2-7s7.2 3.2 7.2 7-3.1 7-7.3 7c-4 0-7.1-3.1-7.1-7zm11.3 0c0-2.3-1.7-4.3-4.2-4.3s-4.1 2-4.1 4.3 1.7 4.3 4.1 4.3c2.6.1 4.2-1.9 4.2-4.3z"/><path fill="#e6e6e6" d="m123.7 294h3.1v3c.8-2 2.4-3.4 4.8-3.3v3.2h-.2c-2.7 0-4.6 1.7-4.6 5.4v5.1h-3.1z"/><path fill="#e6e6e6" d="m133.4 288.9h3.1v11.1l5.6-6h3.8l-5.4 5.5 5.5 8h-3.5l-4.1-5.8-1.9 1.9v3.9h-3.1z"/><path fill="#e6e6e6" d="m146 300.8c0-3.9 3.1-7 7.2-7s7.2 3.2 7.2 7-3.1 7-7.3 7c-4.1 0-7.1-3.1-7.1-7zm11.2 0c0-2.3-1.7-4.3-4.2-4.3s-4.1 2-4.1 4.3 1.7 4.3 4.1 4.3c2.6.1 4.2-1.9 4.2-4.3z"/><path fill="#e6e6e6" d="m162.4 302.6v-8.6h3.1v7.6c0 2.1 1.1 3.3 2.9 3.3s3-1.3 3-3.3v-7.6h3.1v13.4h-3.1v-2.1c-.8 1.3-2.1 2.3-4.2 2.3-3 .2-4.8-1.8-4.8-5z"/><path fill="#e6e6e6" d="m178.1 303.8v-7.1h-1.7v-2.7h1.7v-3.7h3.1v3.7h3.6v2.6h-3.6v6.6c0 1.2.6 1.7 1.7 1.7.7 0 1.3-.2 1.9-.5v2.5c-.8.5-1.7.7-2.8.7-2.3.1-3.9-.9-3.9-3.8z"/><path fill="#e6e6e6" d="m187.4 289.7h3.2v15h9.4v2.9h-12.5v-17.9z"/><path fill="#e6e6e6" d="m210.2 307.5v-1.7c-.9 1.1-2.3 2-4.4 2-2.6 0-4.8-1.4-4.8-4.2 0-3 2.3-4.4 5.4-4.4 1.7 0 2.6.2 3.7.5v-.2c0-1.9-1.2-2.9-3.3-2.9-1.5 0-2.6.3-3.9.8l-.8-2.5c1.5-.7 2.9-1.1 5.1-1.1 4 0 5.9 2.1 5.9 5.7v8zm.1-5.6c-.8-.3-1.9-.5-3.1-.5-2 0-3.1.8-3.1 2.1s1.1 2 2.6 2c2 0 3.5-1.1 3.5-2.9z"/><path fill="#e6e6e6" d="m219.2 305.5v2.1h-3.1v-18.7h3.1v7.4c1-1.4 2.4-2.5 4.5-2.5 3.2 0 6.3 2.5 6.3 7s-3.1 7-6.3 7c-2.2 0-3.6-1.1-4.5-2.3zm7.7-4.7c0-2.6-1.7-4.3-3.9-4.3s-3.9 1.7-3.9 4.4c0 2.6 1.8 4.3 3.9 4.3s3.9-1.7 3.9-4.4z"/><path fill="#e6e6e6" d="m231.2 305.8 1.4-2.1c1.4 1.1 3 1.7 4.4 1.7s2.1-.5 2.1-1.5-1.3-1.4-2.8-1.8c-.1 0-.2-.1-.2-.1-2-.6-4.2-1.4-4.2-4s2.1-4.1 4.8-4.1c1.7 0 3.5.6 5 1.5l-1.2 2.2c-1.3-.8-2.6-1.3-3.8-1.3s-1.9.5-1.9 1.4 1.3 1.4 2.8 1.8c.1 0 .2.1.2.1 2 .6 4.2 1.5 4.2 4 0 2.9-2.2 4.2-5 4.2-2 0-4.1-.7-5.8-2z"/><path fill="#e6e6e6" d="m360.6 298.6c0-5.1 4.1-9.2 9.3-9.2s9.2 4.2 9.2 9.2-4.1 9.2-9.3 9.2-9.2-4.2-9.2-9.2zm17.4-.1c0-4.5-3.5-8.2-8.2-8.2s-8.2 3.7-8.2 8.3c0 4.5 3.5 8.2 8.2 8.2s8.2-3.7 8.2-8.3zm-13.1-.1c0-2.8 2.1-5.1 5.1-5.1 1.9 0 2.9.6 3.9 1.5l-1.4 1.7c-.8-.7-1.5-1.1-2.5-1.1-1.7 0-2.8 1.4-2.8 3.1s1.1 3 2.8 3c1.1 0 1.7-.5 2.5-1.1l1.4 1.4c-1.1 1.1-2.1 1.7-4 1.7-2.8.1-5-2.2-5-5.1z"/><path fill="#e6e6e6" d="m380.5 289.7h3.4l4.2 13.2 4.4-13.3h2.6l4.4 13.3 4.2-13.2h3.3l-6.2 18h-2.7l-4.4-12.8-4.4 12.8h-2.7z"/><path fill="#e6e6e6" d="m406.7 300.8c0-3.9 3.1-7 7.2-7 4.2 0 7.2 3.2 7.2 7s-3.1 7-7.3 7c-4.1 0-7.1-3.1-7.1-7zm11.3 0c0-2.3-1.7-4.3-4.2-4.3s-4.1 2-4.1 4.3 1.7 4.3 4.1 4.3c2.7.1 4.2-1.9 4.2-4.3z"/><path fill="#e6e6e6" d="m423.3 294h3.1v3c.8-2 2.4-3.4 4.8-3.3v3.2h-.2c-2.7 0-4.6 1.7-4.6 5.4v5.1h-3.1z"/><path fill="#e6e6e6" d="m433 288.9h3.1v11.1l5.6-6h3.8l-5.4 5.5 5.5 8h-3.5l-4.1-5.8-1.9 2v3.9h-3.1z"/><path fill="#e6e6e6" d="m445.6 300.8c0-3.9 3.1-7 7.2-7 4.2 0 7.2 3.2 7.2 7s-3.1 7-7.3 7c-4.1 0-7.1-3.1-7.1-7zm11.3 0c0-2.3-1.7-4.3-4.2-4.3s-4.1 2-4.1 4.3 1.7 4.3 4.1 4.3c2.6.1 4.2-1.9 4.2-4.3z"/><path fill="#e6e6e6" d="m462.1 302.6v-8.6h3.1v7.6c0 2.1 1.1 3.3 2.9 3.3s3-1.3 3-3.3v-7.6h3.1v13.4h-3.1v-2.1c-.8 1.3-2.1 2.3-4.2 2.3-3.1.2-4.8-1.8-4.8-5z"/><path fill="#e6e6e6" d="m477.8 303.8v-7.1h-1.8v-2.7h1.7v-3.7h3.1v3.7h3.6v2.6h-3.6v6.6c0 1.2.6 1.7 1.7 1.7.7 0 1.3-.2 1.9-.5v2.5c-.8.5-1.7.7-2.8.7-2.2.1-3.8-.9-3.8-3.8z"/><path fill="#e6e6e6" d="m487.1 289.7h3.2v15h9.4v2.9h-12.5v-17.9z"/><path fill="#e6e6e6" d="m509.9 307.5v-1.7c-.9 1.1-2.3 2-4.4 2-2.6 0-4.8-1.4-4.8-4.2 0-3 2.3-4.4 5.4-4.4 1.7 0 2.6.2 3.7.5v-.2c0-1.9-1.2-2.9-3.3-2.9-1.5 0-2.6.3-3.9.8l-.8-2.5c1.5-.7 2.9-1.1 5.1-1.1 4 0 5.9 2.1 5.9 5.7v8zm.1-5.6c-.8-.3-1.9-.5-3.1-.5-2 0-3.1.8-3.1 2.1s1.1 2 2.6 2c2 0 3.5-1.1 3.5-2.9z"/><path fill="#e6e6e6" d="m518.8 305.5v2.1h-3.1v-18.7h3.1v7.4c1-1.4 2.4-2.5 4.5-2.5 3.2 0 6.3 2.5 6.3 7s-3.1 7-6.3 7c-2.2 0-3.5-1.1-4.5-2.3zm7.7-4.7c0-2.6-1.7-4.3-3.9-4.3s-3.9 1.7-3.9 4.4c0 2.6 1.8 4.3 3.9 4.3s3.9-1.7 3.9-4.4z"/><path fill="#e6e6e6" d="m530.8 305.8 1.4-2.1c1.4 1.1 3 1.7 4.4 1.7s2.1-.5 2.1-1.5-1.3-1.4-2.8-1.8c-.1 0-.2-.1-.2-.1-2-.6-4.2-1.4-4.2-4s2.1-4.1 4.8-4.1c1.7 0 3.5.6 5 1.5l-1.2 2.2c-1.3-.8-2.6-1.3-3.8-1.3s-1.9.5-1.9 1.4 1.3 1.4 2.8 1.8c.1 0 .2.1.2.1 2 .6 4.2 1.5 4.2 4 0 2.9-2.2 4.2-5 4.2-1.9 0-4.1-.7-5.8-2z"/><path fill="#e6e6e6" d="m659.5 298.6c0-5.1 4.1-9.2 9.3-9.2s9.2 4.2 9.2 9.2-4.1 9.2-9.3 9.2-9.2-4.2-9.2-9.2zm17.3-.1c0-4.5-3.5-8.2-8.2-8.2s-8.2 3.7-8.2 8.3c0 4.5 3.5 8.2 8.2 8.2 4.8 0 8.2-3.7 8.2-8.3zm-13-.1c0-2.8 2.1-5.1 5.1-5.1 1.9 0 2.9.6 3.9 1.5l-1.4 1.7c-.8-.7-1.5-1.1-2.5-1.1-1.7 0-2.8 1.4-2.8 3.1s1.1 3 2.8 3c1.1 0 1.7-.5 2.5-1.1l1.4 1.4c-1.1 1.1-2.1 1.7-4 1.7-2.9.1-5-2.2-5-5.1z"/><path fill="#e6e6e6" d="m679.3 289.7h3.4l4.2 13.2 4.4-13.3h2.6l4.4 13.3 4.2-13.2h3.3l-6.2 18h-2.6l-4.4-12.8-4.4 12.8h-2.7z"/><path fill="#e6e6e6" d="m705.5 300.8c0-3.9 3.1-7 7.2-7 4.2 0 7.2 3.2 7.2 7s-3.1 7-7.3 7c-4 0-7.1-3.1-7.1-7zm11.3 0c0-2.3-1.7-4.3-4.2-4.3s-4.1 2-4.1 4.3 1.7 4.3 4.1 4.3c2.7.1 4.2-1.9 4.2-4.3z"/><path fill="#e6e6e6" d="m722.1 294h3.1v3c.8-2 2.4-3.4 4.8-3.3v3.2h-.2c-2.7 0-4.6 1.7-4.6 5.4v5.1h-3.1z"/><path fill="#e6e6e6" d="m731.8 288.9h3.1v11.1l5.6-6h3.8l-5.4 5.5 5.5 8h-3.5l-4.1-5.8-1.9 2v3.9h-3.1z"/><path fill="#e6e6e6" d="m744.4 300.8c0-3.9 3.1-7 7.2-7 4.2 0 7.2 3.2 7.2 7s-3.1 7-7.3 7c-4.1 0-7.1-3.1-7.1-7zm11.3 0c0-2.3-1.7-4.3-4.2-4.3s-4.1 2-4.1 4.3 1.7 4.3 4.1 4.3c2.6.1 4.2-1.9 4.2-4.3z"/><path fill="#e6e6e6" d="m760.9 302.6v-8.6h3.1v7.6c0 2.1 1.1 3.3 2.9 3.3s3-1.3 3-3.3v-7.6h3.1v13.4h-3.1v-2.1c-.8 1.3-2.1 2.3-4.2 2.3-3.1.2-4.8-1.8-4.8-5z"/><path fill="#e6e6e6" d="m776.6 303.8v-7.1h-1.7v-2.7h1.7v-3.7h3.1v3.7h3.6v2.6h-3.6v6.6c0 1.2.6 1.7 1.7 1.7.7 0 1.3-.2 1.9-.5v2.5c-.8.5-1.7.7-2.8.7-2.3.1-3.9-.9-3.9-3.8z"/><path fill="#e6e6e6" d="m785.9 289.7h3.2v15h9.4v2.9h-12.5v-17.9z"/><path fill="#e6e6e6" d="m808.7 307.5v-1.7c-.9 1.1-2.3 2-4.4 2-2.6 0-4.8-1.4-4.8-4.2 0-3 2.3-4.4 5.4-4.4 1.7 0 2.6.2 3.7.5v-.2c0-1.9-1.2-2.9-3.3-2.9-1.5 0-2.6.3-3.9.8l-.8-2.5c1.5-.7 2.9-1.1 5.1-1.1 4 0 5.9 2.1 5.9 5.7v8zm.1-5.6c-.8-.3-1.9-.5-3.1-.5-2 0-3.1.8-3.1 2.1s1.1 2 2.6 2c2 0 3.5-1.1 3.5-2.9z"/><path fill="#e6e6e6" d="m817.6 305.5v2.1h-3.1v-18.7h3.1v7.4c1-1.4 2.4-2.5 4.5-2.5 3.2 0 6.3 2.5 6.3 7s-3.1 7-6.3 7c-2.1 0-3.5-1.1-4.5-2.3zm7.7-4.7c0-2.6-1.7-4.3-3.9-4.3-2.1 0-3.9 1.7-3.9 4.4 0 2.6 1.8 4.3 3.9 4.3 2.2 0 3.9-1.7 3.9-4.4z"/><path fill="#e6e6e6" d="m829.6 305.8 1.4-2.1c1.4 1.1 3 1.7 4.4 1.7s2.1-.5 2.1-1.5-1.3-1.4-2.8-1.8c-.1 0-.2-.1-.2-.1-2-.6-4.2-1.4-4.2-4s2.1-4.1 4.8-4.1c1.7 0 3.5.6 5 1.5l-1.2 2.2c-1.3-.8-2.6-1.3-3.8-1.3s-1.9.5-1.9 1.4 1.3 1.4 2.8 1.8c.1 0 .2.1.2.1 2 .6 4.2 1.5 4.2 4 0 2.9-2.2 4.2-5 4.2-1.9 0-4-.7-5.8-2z"/><path fill="#e6e6e6" d="m206.3 434.2c0-5.1 4.1-9.2 9.3-9.2s9.2 4.2 9.2 9.2-4.1 9.2-9.3 9.2-9.2-4.1-9.2-9.2zm17.4-.1c0-4.5-3.5-8.2-8.2-8.2s-8.2 3.7-8.2 8.3c0 4.5 3.5 8.2 8.2 8.2s8.2-3.7 8.2-8.3zm-13.1-.1c0-2.8 2.1-5.1 5.1-5.1 1.9 0 2.9.6 3.9 1.5l-1.4 1.7c-.8-.7-1.5-1.1-2.5-1.1-1.7 0-2.8 1.4-2.8 3.1s1.1 3 2.8 3c1.1 0 1.7-.5 2.5-1.1l1.4 1.4c-1.1 1.1-2.1 1.7-4 1.7-2.9.1-5-2.2-5-5.1z"/><path fill="#e6e6e6" d="m226.1 425.3h3.4l4.2 13.2 4.4-13.3h2.6l4.4 13.3 4.2-13.2h3.3l-6.2 18h-2.7l-4.4-12.8-4.4 12.8h-2.7z"/><path fill="#e6e6e6" d="m252.4 436.4c0-3.9 3.1-7 7.2-7 4.2 0 7.2 3.2 7.2 7s-3.1 7-7.3 7c-4.1 0-7.1-3.1-7.1-7zm11.2 0c0-2.3-1.7-4.3-4.2-4.3s-4.1 2-4.1 4.3 1.7 4.3 4.1 4.3c2.7.1 4.2-1.9 4.2-4.3z"/><path fill="#e6e6e6" d="m269 429.7h3.1v3c.8-2 2.4-3.4 4.8-3.3v3.2h-.2c-2.7 0-4.6 1.7-4.6 5.4v5.1h-3.1z"/><path fill="#e6e6e6" d="m278.6 424.5h3.1v11.1l5.6-6h3.8l-5.4 5.5 5.5 8h-3.5l-4.1-5.8-1.9 2v3.9h-3.1z"/><path fill="#e6e6e6" d="m291.3 436.4c0-3.9 3.1-7 7.2-7 4.2 0 7.2 3.2 7.2 7s-3.1 7-7.3 7c-4.1 0-7.1-3.1-7.1-7zm11.2 0c0-2.3-1.7-4.3-4.2-4.3s-4.1 2-4.1 4.3 1.7 4.3 4.1 4.3c2.6.1 4.2-1.9 4.2-4.3z"/><path fill="#e6e6e6" d="m307.7 438.2v-8.6h3.1v7.6c0 2.1 1.1 3.3 2.9 3.3s3-1.3 3-3.3v-7.6h3.1v13.4h-3.1v-2.1c-.8 1.3-2.1 2.3-4.2 2.3-3 .2-4.8-1.8-4.8-5z"/><path fill="#e6e6e6" d="m323.4 439.4v-7.1h-1.7v-2.6h1.7v-3.7h3.1v3.7h3.6v2.6h-3.6v6.6c0 1.2.6 1.7 1.7 1.7.7 0 1.3-.2 1.9-.5v2.5c-.8.5-1.7.7-2.8.7-2.3 0-3.9-.9-3.9-3.9z"/><path fill="#e6e6e6" d="m332.7 425.3h3.2v15h9.4v2.9h-12.5v-17.9z"/><path fill="#e6e6e6" d="m355.5 443.1v-1.7c-.9 1.1-2.3 2-4.4 2-2.6 0-4.8-1.4-4.8-4.2 0-3 2.3-4.4 5.4-4.4 1.7 0 2.6.2 3.7.5v-.2c0-1.9-1.2-2.9-3.3-2.9-1.5 0-2.6.3-3.9.8l-.8-2.5c1.5-.7 2.9-1.1 5.1-1.1 4 0 5.9 2.1 5.9 5.7v8zm.1-5.6c-.8-.3-1.9-.5-3.1-.5-2 0-3.1.8-3.1 2.1s1.1 2 2.6 2c2 0 3.5-1.1 3.5-2.9z"/><path fill="#e6e6e6" d="m364.4 441.1v2.1h-3.1v-18.7h3.1v7.4c1-1.4 2.4-2.5 4.5-2.5 3.2 0 6.3 2.5 6.3 7s-3.1 7-6.3 7c-2.1 0-3.5-1.1-4.5-2.3zm7.7-4.7c0-2.6-1.7-4.3-3.9-4.3-2.1 0-3.9 1.7-3.9 4.4 0 2.6 1.8 4.3 3.9 4.3 2.2 0 3.9-1.7 3.9-4.4z"/><path fill="#e6e6e6" d="m376.5 441.4 1.4-2.1c1.4 1.1 3 1.7 4.4 1.7s2.1-.5 2.1-1.5-1.3-1.4-2.8-1.8c-.1 0-.2-.1-.2-.1-2-.6-4.2-1.4-4.2-4s2.1-4.1 4.8-4.1c1.7 0 3.5.6 5 1.5l-1.2 2.2c-1.3-.8-2.6-1.3-3.8-1.3s-1.9.5-1.9 1.4 1.3 1.4 2.8 1.8c.1 0 .2.1.2.1 2 .6 4.2 1.5 4.2 4 0 2.9-2.2 4.2-5 4.2-2 0-4.1-.7-5.8-2z"/><path fill="#e6e6e6" d="m505.1 434.2c0-5.1 4.1-9.2 9.3-9.2s9.2 4.2 9.2 9.2-4.1 9.2-9.3 9.2-9.2-4.1-9.2-9.2zm17.4-.1c0-4.5-3.5-8.2-8.2-8.2s-8.2 3.7-8.2 8.3c0 4.5 3.5 8.2 8.2 8.2s8.2-3.7 8.2-8.3zm-13.1-.1c0-2.8 2.1-5.1 5.1-5.1 1.9 0 2.9.6 3.9 1.5l-1.4 1.7c-.8-.7-1.5-1.1-2.5-1.1-1.7 0-2.8 1.4-2.8 3.1s1.1 3 2.8 3c1.1 0 1.7-.5 2.5-1.1l1.4 1.4c-1.1 1.1-2.1 1.7-4 1.7-2.9.1-5-2.2-5-5.1z"/><path fill="#e6e6e6" d="m525 425.3h3.4l4.2 13.2 4.4-13.3h2.6l4.4 13.3 4.2-13.2h3.3l-6.2 18h-2.7l-4.4-12.8-4.4 12.8h-2.7z"/><path fill="#e6e6e6" d="m551.2 436.4c0-3.9 3.1-7 7.2-7 4.2 0 7.2 3.2 7.2 7s-3.1 7-7.3 7c-4.1 0-7.1-3.1-7.1-7zm11.2 0c0-2.3-1.7-4.3-4.2-4.3s-4.1 2-4.1 4.3 1.7 4.3 4.1 4.3c2.7.1 4.2-1.9 4.2-4.3z"/><path fill="#e6e6e6" d="m567.8 429.7h3.1v3c.8-2 2.4-3.4 4.8-3.3v3.2h-.2c-2.7 0-4.6 1.7-4.6 5.4v5.1h-3.1z"/><path fill="#e6e6e6" d="m577.5 424.5h3.1v11.1l5.6-6h3.8l-5.4 5.5 5.5 8h-3.5l-4.1-5.8-1.9 2v3.9h-3.1z"/><path fill="#e6e6e6" d="m590.1 436.4c0-3.9 3.1-7 7.2-7 4.2 0 7.2 3.2 7.2 7s-3.1 7-7.3 7c-4.1 0-7.1-3.1-7.1-7zm11.2 0c0-2.3-1.7-4.3-4.2-4.3s-4.1 2-4.1 4.3 1.7 4.3 4.1 4.3c2.6.1 4.2-1.9 4.2-4.3z"/><path fill="#e6e6e6" d="m606.5 438.2v-8.6h3.1v7.6c0 2.1 1.1 3.3 2.9 3.3s3-1.3 3-3.3v-7.6h3.1v13.4h-3.1v-2.1c-.8 1.3-2.1 2.3-4.2 2.3-3 .2-4.8-1.8-4.8-5z"/><path fill="#e6e6e6" d="m622.2 439.4v-7.1h-1.7v-2.6h1.7v-3.7h3.1v3.7h3.6v2.6h-3.6v6.6c0 1.2.6 1.7 1.7 1.7.7 0 1.3-.2 1.9-.5v2.5c-.8.5-1.7.7-2.8.7-2.3 0-3.9-.9-3.9-3.9z"/><path fill="#e6e6e6" d="m631.5 425.3h3.2v15h9.4v2.9h-12.5v-17.9z"/><path fill="#e6e6e6" d="m654.3 443.1v-1.7c-.9 1.1-2.3 2-4.4 2-2.6 0-4.8-1.4-4.8-4.2 0-3 2.3-4.4 5.4-4.4 1.7 0 2.6.2 3.7.5v-.2c0-1.9-1.2-2.9-3.3-2.9-1.5 0-2.6.3-3.9.8l-.8-2.5c1.5-.7 2.9-1.1 5.1-1.1 4 0 5.9 2.1 5.9 5.7v8zm.1-5.6c-.8-.3-1.9-.5-3.1-.5-2 0-3.1.8-3.1 2.1s1.1 2 2.6 2c2 0 3.5-1.1 3.5-2.9z"/><path fill="#e6e6e6" d="m663.3 441.1v2.1h-3.1v-18.7h3.1v7.4c1-1.4 2.4-2.5 4.5-2.5 3.2 0 6.3 2.5 6.3 7s-3.1 7-6.3 7c-2.2 0-3.6-1.1-4.5-2.3zm7.7-4.7c0-2.6-1.7-4.3-3.9-4.3s-3.9 1.7-3.9 4.4c0 2.6 1.8 4.3 3.9 4.3s3.9-1.7 3.9-4.4z"/><path fill="#e6e6e6" d="m675.3 441.4 1.4-2.1c1.4 1.1 3 1.7 4.4 1.7s2.1-.5 2.1-1.5-1.3-1.4-2.8-1.8c-.1 0-.2-.1-.2-.1-2-.6-4.2-1.4-4.2-4s2.1-4.1 4.8-4.1c1.7 0 3.5.6 5 1.5l-1.2 2.2c-1.3-.8-2.6-1.3-3.8-1.3s-1.9.5-1.9 1.4 1.3 1.4 2.8 1.8c.1 0 .2.1.2.1 2 .6 4.2 1.5 4.2 4 0 2.9-2.2 4.2-5 4.2-2 0-4.1-.7-5.8-2z"/></g>
</svg>
