<?xml version="1.0" encoding="utf-8"?>
<!-- Generator: Adobe Illustrator 23.0.1, SVG Export Plug-In . SVG Version: 6.00 Build 0)  -->
<svg version="1.2" baseProfile="tiny" id="Layer_1" xmlns="http://www.w3.org/2000/svg" xmlns:xlink="http://www.w3.org/1999/xlink"
	 x="0px" y="0px" viewBox="0 0 900 600" xml:space="preserve">
<g>
	<path d="M415.26,515.91c-3.36-2.85,0-7.13-2.85-9.88c3.49-6.5,7.45-3.36,8.25,0c1.15,4.8,7,10.75,10.9,9.88
		c7.77-2.3,21.96-9.57,23.02-15.38c-0.51-2.44-2.85-1.73-4.07-2.55c-1.32,0.51-1.63,1.53-2.55,2.55c-0.92-1.63-1.53-3.87-3.97-2.44
		c-0.31-10.59-1.03-20.98-2.65-31.27c-1.78-11.33,5.5-16.53,3.26-45.94c-0.46-6.06-1.83-48.68-1.83-48.79
		c-0.77-10.28-17.34-21.19-26.18-24.34c-5.01-1.79-11.71-3.65-16.2-4.99c-1.02-1.32-0.41-3.16-1.94-4.38c-2.75,0-5.4-1.43-7.95-2.85
		c-0.71-0.4-24.49-4.79-33.21-4.79c-8.66,0-21.45,7.94-44.21-4.18c-2.98-1.59-8.22-1.75-14.36-6.42
		c-8.39-6.38-14.68-3.55-34.63,0.41c-2.04,0.4-4.07,0.51-5.4,2.44c-7.33-1.43-14.36-3.34-21.49-4.18
		c-7.36-0.86-16.23-7.68-21.7-6.32c-0.71-0.71-0.71-1.83-2.14-2.14c8.01-8.01,1.7-1.44,7.95-20.27c7.14-21.54-0.94-36.4-0.1-46.45
		c0-7.43,10.01,12.9,60.3,8.15c16.86-1.59,43.55-30.47,44.92-50.93c0.61-9.15,0.14-3.71,11.2-6.01c4.35-0.91,10.15-6.61,8.05-10.29
		c-5.01-11.26-8.84-9.07-20.58-9.07c-1.8-3.98-1.97-20.64-14.26-30.35c-18.23-14.41-17.04-17.4-36.16-21.59
		c-13.61-2.98-26.33-1.02-33.61,2.34c-20.33,9.38-18.5,5.16-26.18,15.18c-7.15,9.32-5.35-5.13-17.21,37.59
		c-5.62-1.67-5.61,2.34-8.66,2.34c-4.65-0.47-0.66,1.78-10.8,2.24c-13.46,0.61-61.81,3.26-66.82,3.26c-2.04-3.16-5.4-2.85-8.66-2.95
		c-0.92-1.02-1.73-1.94-2.75-2.95c-3.36,0.31-6.42,2.22-9.98,1.94c-1.43-0.11-2.14,1.83-3.46,2.85c-2.65-0.51-4.48,0.81-6.01,2.85
		c-6.32,0.31-12.53,0.71-18.64,1.02c-2.34,3.97-4.69,7.74,0.41,11.61c1.53,0,3.46,0,5.5,0c-1.43,4.38-4.18,5.4-9.27,3.87
		c-1.75,1.25,5.04,1.63-9.07,1.63c4.06,5.6,17.88,3.66,20.17-5.5c3.67,0,7.33,0,11.51,0c1.82,2.07,5.59,13.71,4.69,18.03
		c-0.91,4.32,2.74,4.62,3.36,23.63c1.43,43.5-1.41,43.01,7.74,63.15c2.41,5.29-3.23,10.26,1.63,25.67c-3.77,0.1-6.42-3.36-9.57-2.65
		c-1.73-1.53,0-3.67-1.63-4.69c-1.32-0.2-1.43,1.32-2.25,1.53c0.31,2.14,0.82,4.18,2.55,5.19c-0.41,1.12-1.53,2.14-0.2,3.26
		c0.92-0.1,1.94,0.2,2.55-0.2c1.02-1.22-0.81-2.04,0.1-3.06c7.68,1.02,4.43,7.92,7.95,6.01c0.92-1.63-1.02-2.44-1.02-4.18
		c3.08,2.88,12.02-2.74,11.92,7.33c-0.02,2.04-0.65,4.1,0.71,6.01c1.22,1.71-2.83,4.92-4.28,8.45c2.04,0.41,2.14-2.14,4.18-1.94
		c1.94,0.2,1.83-2.34,2.85-3.57c1.12,0.51,1.73,1.63,3.06,1.53c-0.51-2.24-0.51-2.24-2.65-4.07c-0.1-1.22-0.61-2.44-0.1-3.67
		c6.82-3.57,6.82-3.57,18.84-2.95c-2.32-5.79-9.07-1.93-14.57-1.73c6.21-11.41,41.35-23.33,55.51-18.74
		c-4.58,6.32-7.13,13.45-7.84,21.39c-1.43-1.02,0-2.04-1.43-2.75c-9.44,6.29-17.21,2.29-28.93,26.08
		c1.12,7.64,0.31,14.36,2.75,20.27c-3.06,4.58,0.71,7.44,2.24,10.9c-0.92,0.2-1.83-0.2-2.14-0.81c-1.32-2.65-3.57-4.79-3.67-8.25
		c-0.11-4.07-1.39-8.15-1.43-12.22c-0.11-11.28-1.75-11.16,5.7-22.82c2.75-4.3,0.53-12.75-5.5-11.41c8.44,8.24-6.18,18.4-3.67,32.39
		c1.28,7.14,1.22,14.57,5.09,21.7c-2.65-0.92-4.69-1.53-7.03-2.34c0.61-0.81,1.32-1.32,0.61-2.44c-3.64-1.2-6.76-4.01-10.49-5.95
		c-0.15,1.59,1.43,2.51,1.83,4.22c-7.95-2.44-15.69-4.89-23.43-9.07c4.48-2.44,3.67-7.23,7.13-9.78c-2.44-1.32-3.97-2.95-6.42-2.34
		c-0.2,2.44,2.34,2.04,2.95,3.06c-1.94,4.97-4.79,8.6-10.05,8.95c0.71-0.14,1.46-0.78,2.34-1.95c1.53-2.02-1.19-0.19-2.28-0.39
		c-0.41-0.92-2.14-1.53-1.12-3.67c3.57,3.46,5.5,0.41,7.74-1.83c-0.31-1.02-1.22-1.43-2.34-2.04c-0.56,0.42-11.57,1.18-7.33,7.64
		c1.85,2.82,3.76,2.41,1.22,2.24c-7.44-7.97-2.51-4-2.24-8.35c-1.73-1.32-2.14-2.24-1.22-3.06c0.71-0.1,1.02,0.92,2.04,0.61
		c5.73-5.09,8.05-2.04,7.74-7.54c-4.07,1.73-7.23-0.81-10.7-2.24c-6.78-2.79-4.61-5.62-9.37-6.42c-1.85-4.16-1.53-11.76-5.6-10.08
		c-0.81-1.32-0.51-3.16-2.44-3.46c-1,1.27,0.75,9.52-2.34-1.63c6.14-4.14,10.49-0.57,16.3,6.52c4.43-7.25-5.17-6.07-7.33-8.96
		c10.12-6.55,10.35-8.21,13.25-7.84c-0.64-3.98-2.62-1.08-14.16,6.62c-3.9,2.23,0.21-2.25-13.04,1.43
		c-2.24-1.32-4.07-3.46-6.11-4.48c-1.43-0.61-1.73,0.51-2.34,0.71c-3.77-1.53-3.87-1.43-5.19,1.63c-0.92,0.2-1.53-0.2-2.24-0.92
		c1.43-2.95,1.63-5.91-1.22-8.56c-2.24,1.94-0.1,4.48-1.32,6.42c-1.53-0.71-1.32-2.95-3.36-3.57c-2.04,2.44,0.61,4.48,0.61,6.82
		c-1.02,0.2-1.53-1.43-2.95-0.81c-1.02,2.44,1.83,3.16,2.55,4.99c-1.83,0.31-3.87-2.24-5.5,0.41c1.63,3.16,0,6.72,1.43,9.88
		c-0.92,0.81-1.94-0.41-2.95,1.02c-0.81,2.85,3.36,3.67,3.46,6.62c-2.44,0.61-4.18-2.44-6.72-1.22c-3.63,6.22-5.18,3.83,1.53,12.94
		c-1.73,2.44-0.1,4.28,1.43,6.11c-0.81,1.32-2.55-0.2-2.85,0.92c-0.61,1.53,0.01,2.44,0.61,3.16c1.96,2.33,2.7,5.45,4.89,7.74
		c2.62,2.75,3.74,11.2,10.19,16.91c-3.32,3.98-0.06,4.66-1.02,8.96c-1.14,6.82,5.99,9.87,12.83,10.8c3.05,0.42,7.14,0.4,9.47,3.77
		c0.92,1.32,2.64,1.82,4.38,1.22c2.86-0.98,2.63,1.6-0.92,2.85c-14.88,5.23-31.53,29.6-29.03,51.03c0.51,4.38-0.94,8.76-0.51,13.24
		c0.97,10.09,0.08,20.06-0.61,30.15c-0.44,6.39,0.59,10.92-0.41,21.9c-2.55-0.41-5.39-0.22-7.23-1.43
		c-5.56-3.62-12.02-2.12-17.93-3.36c-3.91-0.82-3.23,0.28-2.13,12.32c0.11,1.22,0.31,2.44,0.71,3.57c3.36-4.18,2.14-8.86,1.63-13.85
		c3.97,0.71,7.96-0.24,11.82,1.32c7.18,2.91,12.18,0.67,13.85,5.19c2.39-0.51,0.1,1.1,2.75-38.6c0.99-14.79-5.56-47.9,12.43-67.94
		c16.73-18.65,20.93-15.87,70.79-15.69c6.67,0.02-6.11-1.21,52.56-5.09c48.26-3.2,40.82,0.26,83.12-5.7
		c53.43-7.54,75.47-3.59,85.97-5.81c8.95-1.89,35.06,19.5,32.9,48.18c-0.65,8.66,0.74,17.32-0.2,25.97
		c-1.51,13.94-3.52,5.52-9.68,10.08c5.55,3.88,13.86-2.58,12.63,2.85c-2.61,11.49-0.75,19.65-1.12,23.02
		c-4.89-0.31-9.57,3.36-14.57-0.2c1.94-7.23,2.04-14.67,2.44-22.1c0-0.92,1.22-0.31,1.43-1.32c-2.4-4-0.61-0.13-11.51-3.77
		c8.95-58.49-17.03-70.94-5.81-64.78c27.85,15.28,10.23,65.7,15.79,65.7c0.61,0,0.81-0.51,0.81-0.92
		c0.15-10.39,2.64-20.68,2.24-31.07c-1.57-40.88-17.5-40.73-50.01-41.56c-0.1,0-234.58,16.28-234.68,16.3
		c-20.72,3.18-29.94,38.48-27.4,63.56c0.72,7.16,0.98,30.6-0.1,51.24c-2.85,0.31-5.6,0.41-8.56,1.73c0.2-25.67,2.34-51.13-0.1-76.5
		c0.81,25.16-0.81,50.22-1.53,75.27c-1.32,0.61-2.44-0.92-3.67-0.31c3.26,3.06,5.4,3.67,10.7,3.06c-0.41-0.61-1.32-0.1-1.73-1.02
		c3.26-1.63,6.11-0.01,8.96,1.22c26.78,11.55,24.49,7.1,27.4,10.29c1.12,1.22,2.85,1.63,4.79,1.02c-3.46-1.02-5.89-3.72-9.37-4.69
		c-2.29-0.63-24.96-8.25-23.94-10.29c0.81-8.76-1.34-17.42-0.41-26.28c3.18-30.19-8.54-59.02,17.93-81.9
		c12.09-10.45,194.1-15.69,206.27-17.52c16.45-2.48,43.15-4.63,59.18,0.71c-1.24,5.11,0.43,9.15,4.28,26.28
		c5.62,25.01-1.47,27.9,3.77,32.9c-0.41,2.75-2.14,5.4-0.41,8.15c-0.3,0.91,0.67,1.58-0.31,0.61c-0.31,0.1-0.92,0.1-0.92,0.31
		c-1.55,5.92-8.08,9.02-6.21,18.74c-10.59,0.24-9.21-5.35-24.96-0.1c-0.76,3.91-2.98,13.94,0.44,16.08c1.27-4.55,0.18-9.5,1.8-14.25
		c8.45,1.32,16.4,4.38,24.85,5.7c-6.93-2.14-13.55-4.99-21.08-6.72c6.51-3.98,13.49,3.74,20.47-0.2c-0.11-2.93,4.42-13.51,1.73-1.43
		c-0.31,1.94-0.71,3.87,1.32,5.19c9.69-24.22-7.08-25.17,16.4-20.07c-0.2,7.64-1.02,15.28-2.75,22.92
		c-3.27-1.06-13.53-4.31-11.66-1.44c2.37,0.41,4.48,3.21,10.78,4.54c-2.17-0.23-4.37-0.42-6.56-0.56
		c3.11,2.72,13.47,1.31,47.87,10.29c7.98,2.08-11.91-5.74-35.98-9.08c4.23,0.2,9.73-0.19,17.05-1.62c3.16,1.02,6.31,3.28,10.29,3.57
		c7.94,0.56,15.38,3.77,23.94,5.19c-13.49,6.74-11.71-3.11-11.71,18.03c-0.13,0-55.82-13.83-55.92-13.85
		c-21.91-5.61-25.88-8.35-30.29-6.4c0.09,0.22,0.13,0.36,0.13,0.45c0.34-0.31,2.33-0.75,12.03,2.58
		c22.12,7.6,44.93,12.57,67.53,18.33c6.73,1.71,13.71,2.16,20.17-1.43c3.97-2.2,3.36,6.07,5.81-8.86c0.52-3.16,0.41-6.32,1.32-9.88
		c-5.09-1.32-10.29-2.55-15.48-3.87C412.41,522.02,412.31,518.46,415.26,515.91z M61.7,195.97c-0.25-5.48,6.03-5.09,18.44-5.09
		c0,2.85,0,5.19,0,8.15C66.73,199.03,61.9,200.28,61.7,195.97z M38.57,340.1c-1.43,1.02-1.94-0.1-2.65-0.81
		C35.45,338.34,37.95,338.86,38.57,340.1z M34.6,343.16c-0.51-0.2-0.71-0.51-0.71-1.32C34.81,342.14,35.11,342.44,34.6,343.16z
		 M27.27,359.05c4.8-2.18,1.84-2.14,4.38,3.26C28.49,362.82,28.29,360.58,27.27,359.05z M31.95,370.56
		c-1.02-0.71-1.73-1.22-2.44-1.63c0.41-1.22,0.81-2.04,1.73-2.34c4.18,1.39-0.74,4.52,2.44,9.07
		C30.83,374.53,31.04,372.8,31.95,370.56z M35.11,380.23c-0.92-0.81-2.24-1.02-0.81-2.75C35.21,378.1,35.93,378.6,35.11,380.23z
		 M35.82,366.18c-1.12-0.61-1.43-1.12-0.41-1.73C35.62,364.96,36.03,365.36,35.82,366.18z M32.56,357.93
		c2.34-1.32,3.36-0.1,3.97,1.83C35.42,359.15,33.69,359.56,32.56,357.93z M35.11,346.42c2.24,0.41,2.85,1.83,3.67,3.57
		C34.42,351.8,35.11,353.39,35.11,346.42z M352.61,476.08c0.31,2.24,0,3.97-0.81,5.6C351.69,479.85,351.59,478.12,352.61,476.08z
		 M352.4,491.06c-0.41-1.02-0.2-1.53,0.61-1.73C353.32,489.94,353.42,490.55,352.4,491.06z M354.24,486.27
		c0.41-4.38-0.2-8.96,0.31-14.16C356.48,477.31,354.95,481.79,354.24,486.27z M355.05,470.38c-1.41,0-2.46,0.26-2.04-1.02
		c-0.48-20.54-9.03-30.07-6.62-42.48C354.14,440.94,357.7,455,355.05,470.38z M417.08,546.57c1.53-1.12,2.55-1.53,4.69-1.22
		C419.94,546.06,419.02,546.57,417.08,546.57z M421.26,543.21c-4.28,1.02-8.66,1.12-12.83,4.38c2.73-20.03-6.32-6.43,14.16-15.99
		C422.18,535.77,421.97,539.44,421.26,543.21z M443.67,502.06c1.53,0.71,1.63,2.34,2.65,2.95c1.22,0.41,1.12-2.14,2.55-0.81
		c-4.38,6.11-11.1,7.64-18.03,9.27c-1.94-1.32-3.97-2.14-5.3-3.97C431.55,506.64,438.27,505.83,443.67,502.06z M399.77,346.21
		c12.12,1.94,22.1,7.03,30.97,14.26c-0.2,2.55,0.2,4.69,1.63,7.33c0.51-1.94,0.81-3.26,1.22-4.99c11.84,8.33,4.95,25.22,6.11,35.85
		c5.9,53.9-6.94,66.57,1.63,101.96c-4.58,1.63-8.96,3.26-13.85,4.38c0.5-15.89-1.41-6.02-3.57,1.43c-0.92-3.26-3.36-4.38-5.19-6.01
		c-0.2-6.01-0.03-12.02-0.61-17.93c-2.71-27.39-17.86-47.94-11.31-73.64c1.14-4.48,1.94-8.86,2.04-13.65
		c-0.2-0.92-1.24-1.32-1.63-2.34c-2.95-7.67-13.84-4.32-11.51-8.05c6.11,1.63,7.44,1.63,9.98,0c-3.46-1.32-7.13-0.61-10.7-2.85
		C397.83,370.35,399.97,358.44,399.77,346.21z M214.08,315.04c7.78-1.33,10.89,5.17,16.5,5.91c11.23,1.48,27.54,7.01,31.78,6.93
		c2.45-0.05,4.18,0.41,5.7,1.94c1.53,7.95,1.22,15.69-1.12,23.33c3.57-7.03,4.38-14.36,2.65-22.71c5.19,3.16,9.98,5.19,13.95,9.17
		c-1.02,0.31-1.43,1.12-2.55,0.71c-1.03-5.13-4.06-5.05-3.26-1.02c0.85,4.29,0.63,8.56,0.31,12.94
		c-0.77,10.49-5.81,17.93-15.99,22.51c4.18-4.28,8.25-7.95,9.68-13.24c1.32-4.89,3.57-9.98,0.81-15.58
		c-1.53,1.79,0.33,6.45-2.14,9.17c-5.01,5.52-17.45,19.91-25.06,24.65c3.9,3.41,22.24-19.38,24.85-22.41
		c-2.35,14.07-16.63,20.07-21.29,22.92c-10.65,6.5-15.57-0.33-18.84,6.21c-9.96-0.53-25.44,8.57-31.17,8.86
		c5.09-3.16,8.61-6.51,9.47-12.63c0.65-4.58,3.14-8.76,3.26-13.75c0.15-6.06-5.04-12.01-8.05-8.15c-0.44,0.44-1.83-0.61-1.63-1.53
		C216.11,340.24,209.2,323.89,214.08,315.04z M274.99,369.74c-0.2,0.92-0.71,1.22-1.43,1.12
		C273.77,370.35,274.07,369.95,274.99,369.74z M243.11,385.63c-3.06,0.2-6.11,1.32-9.17,0.51
		C237,385.02,240.05,385.63,243.11,385.63z M209.9,368.21c-1.12-2.14-2.24-4.38-3.36-6.52C209.29,363.02,210.62,365.16,209.9,368.21
		z M336.21,177.23c3.88,1.79,10.97,9.48,4.18,14.57C333.81,196.72,321.77,184.14,336.21,177.23z M331.83,193.22
		c-1.63,0.51-3.06,0.39-4.28,0.41c-65.38,0.74-63.9,2.95-65.6-1.94c-3.57-12.48,2.59-10.41,21.59-11.51
		C362.97,175.59,313.32,177.22,331.83,193.22z M268.17,197.7c-0.92,3.87,1.39,6.74,3.06,9.68c2.5,4.41,3.67,9.27,6.21,13.65
		c2.24,3.87,0.81,8.56,2.55,12.53c0.1,0.1-0.2,0.31-0.31,0.51c-0.41-0.1-0.81-0.2-1.32-0.31c-1.03,3.09-0.83,7.72-4.07,8.25
		c-7.39,1.2-9.34-14.87-7.95-21.9C269.82,202.5,264.31,203.28,268.17,197.7z M272.75,197.4c-0.31,1.02-0.81,1.63-1.94,1.63
		c-0.31-0.51-0.51-0.92-1.12-2.04C271.12,197.19,271.93,196.58,272.75,197.4z M260.63,195.26c2.24-0.61,2.34,1.43,3.46,2.24
		c-1.43,1.73-2.75-0.31-3.97,0.31C260.63,196.99,260.02,195.97,260.63,195.26z M310.34,148.3c5.28,6.04,14.3,23.96,11.92,27.4
		c-15.48,0.81-31.07,1.63-46.55,2.44c-6.82-11.2-25.28-1.37-18.23,11.51c0.1-6.42,0.22-12.23,7.64-13.85
		c3.07-0.67,5.81-1.12,8.35,2.75c-4.58-0.81-8.49-1.26-11.92,1.83c-8.19,7.39,7.48,3.25-14.77,41.15c-1.53-0.61-2.24-1.73-2.95-2.65
		c-10.18-12.97,11.78-19,13.34-26.18c-9.15,6.1-13.45,7.82-17.83,15.18c-3.61,6.07,1.31,13.31,6.82,17.72
		c8.05-8.78,13-20.89,14.06-27.81c0.1,3.06,2.44,3.67,5.19,3.26c1.21,7.24-5.15,15.55,0.2,35.24c2,7.36,8.49,9.18,11.31,6.62
		c3.68-3.34,6-7.43,5.5-12.43c-0.97-9.83-6.3-21.62-11.82-29.03c2.85-0.81,4.28-2.85,5.5-5.3c16.4-0.31,32.8-0.61,49.2-0.92
		c0,15.27-31.03,83.62-94.22,38.6c-3.98-2.84-8.65-5.2-10.59-9.98c-2.85-7.03-6.89-13.46-9.57-20.47
		c-2.11-5.52-0.94-12.82-2.14-17.52c-0.81-3.17-0.32-3.34,0.61-11.1C216.21,118.11,277.47,110.65,310.34,148.3z M205.01,162.46
		c7.37-17.45,6.1-14.77,16.2-26.48c2.34,0.1,4.07-1.53,6.52-1.83c-0.97,2.9-8.11,4.72-13.65,16.71c-4.4,9.52-3.67,12.29-4.48,13.14
		c-3.74,3.89-3.57,17.67-3.57,23.02c0,3.57-1.1,7.33,0,10.49c12.2,35,10.29,30.8,36.67,48.38c0.98,0.65,1.92,0.68,1.22,1.73
		c-33.49-12.04-35.98-24.21-42.98-59.69C199.66,181.46,202.42,168.59,205.01,162.46z M178.63,185.48c8.5-0.52,1.86,1.54,7.44,11.1
		c-27.71,0.61-54.8,1.12-82,1.63C103.56,187.99,96.73,190.49,178.63,185.48z M97.96,183.65c1.82,1.56,0.79,3.08-2.85,2.04
		C96.02,184.56,96.74,183.95,97.96,183.65z M91.64,184.66c-0.71,1.32-1.12,2.24-2.75,2.44C89.2,185.68,89.91,184.97,91.64,184.66z
		 M139.21,360.27c4.97-8.06,10.39-16.09,21.39-17.21c1.43,2.55,4.18,0.31,6.32,1.32c1.55-3.61,1.05-16.66,14.46-32.29
		c1.65-1.92,4.06-3.87,4.18-6.52c0.18-3.87,1.32-7.64,1.53-11.51c0.82-15.32,1.82-7.77,9.27-39.93c0.87-3.77,6.92-33.56,3.77-35.45
		c-2.83,3.12-2.12,11.59-2.44,14.57c-3.16,28.95-14.16,45.16-13.65,64.17c0.08,2.95,0.22,6.43-1.53,8.96
		c-2.53,3.68-4.58,7.84-9.07,10.29c-12.34-1.28-8.38,1.13-11-0.1c-4.17-1.97-20.31,1.05-30.97,8.66c-0.83,0.59-1.63,1.32-3.06,1.02
		c-1.02-3.16-2.82-6-1.94-9.88c1.24-5.47-0.68-16.95-5.5-19.76c0,1.83,0.31,3.46-2.34,4.18c6.34,3.84,2.79,19.24,8.05,26.99
		c-6.42,2.44-11.1,6.62-14.26,12.94c-1.12-7.13-5.5-9.98-11.1-9.17c-1.02-7.23-1.57-14.46-1.43-21.8
		c0.24-12.17-7.33-11.73-7.33-34.84c0-33.32,0.12-44.05-4.07-55.11c-0.19-0.51-0.2-1.12,0-1.63c2.53-6.52-7.86-16.88-5.6-28.93
		c2.24,2.55,5.4-0.31,7.33,2.14c-0.31,3.57,1.02,6.82,0.71,10.29c2.34-3.77,0.71-7.64,1.02-11.71c5.4,0.71,9.88-4.69,16.09-3.06
		c-3,4.62-11.5,4.45-7.54,13.45c2.07,4.69,8.97,1.4,9.27,1.02c1.09-1.21-4.75-0.99,75.27-2.34c1.12-0.1,2.36-0.42,3.26,0.51
		c2.48,2.56,8.99,4.45,10.29,10.9c0.2,0.98,0.22,2.23,1.77,2.23c0.09,1.54-1.18,3.07,0.06,4.59c1.96-1.95,2.02-2.88,0.41-4.93
		c-0.06-14.49-13.79-8.42-14.97-27.36c1.16-1.88,5.76-1.18,6.62-2.14c1.73-1.93,3.77-1.43,6.11-0.61
		c-1.18,13.39,5.19,34.49,8.76,40.23c0.94,1.51,1.53,3.26,0.31,5.09c-1.1,2.21,2.98,2.36-0.51,12.33
		c-5.03,14.39,4.69,27.5,2.34,40.44c-0.29,1.14,0.23,1.83,1.29,2.09c-0.19,1.62,0.47,2.99,1.05,4.84c0.89-2.95,0.81-3.43-0.84-4.93
		c2.9-8.25-2.5-17.43-2.12-20.53c0.94-7.64-1.43-15.58,1.94-23.02c0.42-1.13-0.23-3.85,1.22-6.21c1.83,3.06,4.28,5.19,6.42,7.54
		c-3.86,7.72,9.2,33.6-1.83,55.21c-2.23,4.37,2.14,1.85-4.28,13.34c-0.92-3.06,2.65-6.21-0.92-8.76c-1.83,2.14,0,4.48-0.71,6.42
		c-1.43,2.04-5.09,2.75-3.87,6.21c2.04,1.12,3.77-2.44,5.81,0.2c-0.71,1.53-0.61,3.36-0.61,5.19c-0.81-0.41-0.92-1.73-2.14-1.02
		c-1.84,2.17,1.44,14.01-1.43,21.49c-11.56,30.17-3.85,4.66-20.68,48.99c2.66,2.66,11.61-21.86,13.24-25.87
		c2.95,3.46,6.32,5.91,7.54,9.78c-5.24,8.73-0.15,6.93-5.5,13.75c-5.23,6.67,0.62,3.06,1.43,3.26c-2.14,3.42-4.13,0.4-8.35,5.7
		c-5.36,6.74-11.59,4.25-24.85,5.91c-10.1,1.27-7.52,1.21-23.73-1.63c-0.91-1.44-6.56-3.34-7.64-7.54
		C138.46,385,135.61,366.11,139.21,360.27z M101.73,384.61c-1.02,0.92-1.63,0.92-2.04-0.71C100.61,383.7,101.32,383.7,101.73,384.61
		z M114.46,389.5c-5.81,0.31-10.9,0.61-15.89,0.92C102.64,386.14,107.64,385.94,114.46,389.5z M97.45,382.78
		c-0.51,0.61-1.12,0.61-2.24,0C96.33,382.17,96.84,381.46,97.45,382.78z M95.72,391.74c-0.81,0.51-1.63,1.02-2.95,0.92
		C95.43,389.33,95.08,390.47,95.72,391.74z M86.96,393.78c-1.73,1.02-3.46,0.81-5.19,0.71C83.29,393.88,84.72,391.74,86.96,393.78z
		 M73.21,361.08c0.1-1.02,0.61-1.53,1.53-1.73C80.09,362.48,80.8,361.98,73.21,361.08z M69.03,378.91c1.43-0.31,2.85,0,4.79,0.41
		C71.78,379.72,70.46,379.72,69.03,378.91z M73.82,389.91c-0.31,0-0.61,0.1-0.92,0.1c0-0.2,0-0.31-0.1-0.31
		C73.67,389.42,73.82,389.23,73.82,389.91z M70.35,399.28c-1.83,1.43-3.67,0.92-5.4,0.81C66.59,399.38,68.22,398.87,70.35,399.28z
		 M66.28,381.35c0.71-0.2,1.32-0.1,2.04,0.2c0,1.02,0.1,2.04,0.1,3.26C66.18,383.39,66.18,383.39,66.28,381.35z M68.62,392.56
		c1.43-0.51,2.24-1.12,3.36-0.2C71.07,392.56,70.05,393.78,68.62,392.56z M70.86,386.24c0.1-0.51,0.31-0.71,0.81-0.51
		C71.78,386.45,71.47,386.55,70.86,386.24z M68.83,373.21c0.81-1.12,1.43-1.02,2.24,0.2C70.15,373.61,69.54,373.82,68.83,373.21z
		 M76.98,355.69c-4.99-0.51-8.86-3.26-13.14-5.5C69.23,349.88,72.19,354.67,76.98,355.69z M62.21,359.05
		c-2.24,0.81-3.26-0.2-4.48-1.83C60.07,356.3,60.98,357.52,62.21,359.05z M56.4,362.1c2.44-1.43,3.97,0.1,5.6,1.22
		C60.07,363.73,58.03,364.45,56.4,362.1z M57.52,395.51c-1.73,0.1-2.34-0.41-1.53-2.14C57.62,393.68,57.72,394.39,57.52,395.51z
		 M56.4,336.33c2.04,0.81,2.04,0.81,2.14,2.85C50.04,330.68,56.4,333.09,56.4,336.33z M57.57,351.64l-0.05-0.03
		c1.48-3.5,0.81-3.65,1.12-4.38c0,2.66,0.99,3.57-0.87,4.45l0.05,0.03c-0.61,1.32,0.71,3.77-2.24,3.77
		C45.99,349.09,53.85,354.35,57.57,351.64z M49.07,374.33c1.83-0.71,3.57-0.31,5.5,1.02C52.33,375.96,50.7,374.94,49.07,374.33z
		 M49.47,380.85c0-1.43,0-2.55,0-3.87c1.12,0.31,2.25,0.1,2.44,1.53C52.14,380.13,50.8,380.23,49.47,380.85z M54.77,364.34
		c1.02,0.71,0.71,1.22-0.2,1.53C54.06,365.26,54.06,364.75,54.77,364.34z M53.96,369.34c-2.44,0.61-2.44,0.61-3.36-0.81
		C51.92,367.91,52.94,368.83,53.96,369.34z M49.68,336.64c-0.41-0.2-0.92-0.2-0.92-0.81C49.27,335.72,49.58,335.93,49.68,336.64z
		 M48.05,332.05c0.71,0.71,0.61,1.22,0,1.73C47.95,333.28,47.33,332.87,48.05,332.05z M48.15,333.89c0,0.58,0.63,1.16,0.44,1.91
		c0.02,0.01,0.05,0.02,0.07,0.02c-0.13,0.13-0.11,0.14-0.07-0.02C46.06,335.39,46.94,333.72,48.15,333.89z M45.81,342.65
		c-1.53-0.41-2.44-0.92-2.75-2.75C44.48,340.61,45.2,341.32,45.81,342.65z M43.67,332.97c-1.12,0.71-1.94,1.12-3.06,0.2
		C41.63,331.34,42.55,332.46,43.67,332.97z M40.41,393.37c2.14,0.92,2.95,2.04,2.55,3.87C41.83,396.33,41.02,395.31,40.41,393.37z
		 M59.66,419.25c-4.89-2.65-10.7-1.43-14.77-5.6c0.85-7.21,1.54-8.64,1.02-11.1c-1.73,1.12-0.92,3.06-1.83,4.79
		c-0.71-2.14-2.24-4.07-0.1-6.11c2.51,0.28,1.52,1.74,2.14,1.12c1.22,0.1,2.34,0.31,3.26,1.02c1.02,0.92,2.65,0.71,3.06-0.1
		c1.43-2.85,3.77-1.43,6.21-2.24C58.74,407.13,60.07,412.83,59.66,419.25z M269.39,410.89c-16.5,1.22-32.39,5.5-48.79,4.89
		c-1.22-1.73,0.1-4.07-1.32-6.01c-0.81,2.24-0.31,4.18-0.2,6.52c-21.46-0.35-100.3,7.14-110.62,7.03c1.02-1.63,2.95-0.61,4.07-1.94
		c-2.04-0.41-3.77,0.71-5.6,0.1c0.81-3.77,0.81-7.33-0.2-10.8c-1.43,3.67-0.51,7.74-2.34,11.31c-10.44,2.18-18.39-0.31-25.97,0.41
		c-0.61-0.92-0.92-1.94-0.81-2.95c0.41-0.41,1.22,0.61,1.32-0.71c-0.92-1.83-1.94-4.07-0.81-6.42c0.92-0.2,1.83,0.81,2.55,0
		c-0.31-1.73-3.97-1.32-2.44-4.18c1.73-0.51,3.57-0.41,5.4,0.2c0.2,3.97-1.02,7.74-0.92,11.71c2.14-2.75,3.36-13.34,1.73-14.26
		c-1.31-0.26-0.26,2.12-3.77,0.71c-0.81-0.32-1.94,0.2-2.55-0.71c1.12-1.53,5.7-1.63,14.77-0.41c0.54,0.9-0.89,6.82,1.63-0.1
		c9.47-0.92,18.84-0.81,28.42-2.04c0.31,5.3,0.71,10.49,0.31,15.79c2.44-4.89,2.04-10.08,2.55-15.28c4.07-0.71,8.15,0.31,11.92-1.22
		c-28.3-1.25-37.54,1.91-56.84,0.41c-4.43-0.35-4.82-2.85-7.44-1.43c0.41,1.32,1.73,1.53,2.04,3.16c-1.43,2.65-0.2,5.5,1.32,8.35
		c-3.06,2.75-2.85,6.11-1.63,9.47c-0.92,0.92-1.82,2.32-2.85,1.73c-4.03-2.3-3.14,1.34-11-5.81c0.61-5.19-0.81-10.39-0.71-15.89
		c1.73,0,3.26-0.1,4.69-0.2c1.94,0,4.18,0.51,5.7-0.51c4.06-2.72,19.53-3.52,26.28-6.21c0.81-0.92-0.1-1.73,1.12-2.34
		c8.92,0.98,20.58-1.99,24.34,0.31c4.88,2.97,10.31,4.16,15.79,5.5c1.54,0.38,3.16,0.71,4.18-1.43c1.63,1.73,3.36,1.32,4.99,0.71
		c0.34,2.76,6.75,3.85,10.19,5.19c0.31,1.83-0.41,3.46,0.51,5.19c0.92-1.63,1.12-3.57,2.34-4.89c7.84-0.61,15.58-1.67,23.33-1.94
		c11.83-0.4,9.68-3.54,15.99-3.87c7.03,2.75,14.16,2.55,21.7,0.41c-6.42-0.31-12.53-0.2-18.95-1.32
		c12.85-5.59,21.43-8.61,28.62-7.74c10.12,1.23,10.14-4.27,23.63,1.63c15.62,6.83,16.43,3.59-4.18,6.42
		c-5.19,0.71-10.59-1.73-15.69,0.51c5.5-0.31,10.8,0.41,16.09,0.71c0.85,4.26-0.86,8.35,0.92,8.35c0.61-2.75,1.22-5.4,1.83-8.25
		c5.3-1.73,10.7-0.81,16.5-1.63C268.88,401.83,268.78,406.31,269.39,410.89z M322.46,404.99c-5.83,0.8-16.96-0.57-17.21-0.92
		c-2.96-4-20.89,0.82-24.96-5.5c-0.61,2.55-2.34,1.32-3.67,1.63c-0.1,3.06,3.77,2.65,3.67,4.99c1.32,0.2,1.32-1.12,2.34-1.02
		c27.73,2.69,26.86,1.76,26.59,3.67c-14.98,2.57-26.61-0.35-32.7,2.95c-1.32,0.61-2.95,0.51-4.58-0.2
		c0.61-3.87,1.22-7.74,1.73-11.41c1.32-0.81,2.24,0.71,3.16-0.1c0.61-1.73-1.32-2.55-1.53-3.87c2.88-2.06,9.3-1.62,12.22-8.76
		c3.52-8.6,8.82-14.66,11.2-21.19c4.53-12.41-5.19-21.87-3.67-25.87c-3.87,0.53-1.21,3.45,0.61,8.05c7.4,18.71-3.95,23.49-9.57,38.2
		c-2.39,6.26-6.47,3.94-14.57,7.54c-22.59-8.47-14.21-4.59-10.8-6.01c0.71-0.92,1.32-1.73,2.04-2.75c-1.12-1.32-1.62-4.27-3.87-2.14
		c-3.6,3.4-7.68-0.89-7.44,4.28c-1.22-0.41-2.14-0.71-3.46-1.12c2.55-1.73,4.79-3.14,7.54-3.87c13.92-3.72,10.01-5.7,12.12-5.7
		c3.06,0.92-0.61,3.87,2.14,4.99c0.2-4.18,4.28-4.58,6.32-6.72c-0.1-1.32-1.53-0.71-1.73-1.43c0.41-2.44,3.97-1.53,4.28-3.77
		c-0.41-1.43-1.94-0.51-2.24-1.53c1.43-2.85,4.38-4.89,3.77-8.66c1.43,0.71,2.55,2.24,4.38,1.53c0.2-1.02,1.83-1.32,1.63-2.44
		c-0.41-1.32-1.94-1.63-2.55-2.75c0.61-1.02,2.24-0.61,2.75-2.14c-1.63-1.32-2.55-3.46-4.58-4.38c0-1.83,0-3.77,0-5.81
		c1.12,1.12,1.22,1.32,1.22,2.75c7.6,1.27,1.05-3.18,0.92-3.46c0-0.92,1.63-1.32,1.22-2.55c-0.61-1.22-2.44-2.04-1.43-3.36
		c-5.7-5.19-12.83-7.74-19.86-11.82c14.72-2.86,5.65-4.52,37.89,12.83c0,6.28,6.25,5.81,3.97,14.16c-2.35,8.64-7.82,17.15-6.21,27.4
		c1.41,9.03-6.59,10.29-6.32,12.22c12.86,1.22,8.76-13.8,11-20.98c1.65-5.29,3.5-10.58,4.99-15.99c3.17-11.55-4.45-12.69-3.67-15.99
		c1.24-5.27-5.29-3.88-17.52-12.33c-1.02-0.71-2.14-1.35-3.46-1.22c-2.55,0.25-4.38-1.22-6.62-2.24
		c11.31-3.06,20.58,0.41,28.42,8.35c1.73-1.22,3.46-0.61,4.79,0.31c6.61,4.54,15.54,3.25,17.52,6.93c0.1,0.02,15.93-0.32,17.62-0.51
		c9.73-1.07,5.56-4.54,40.95,2.65c3.99,0.81,8.92,0.94,8.86,4.48c-0.27,15.01-2.73,40.72-12.22,52.66c-1.2,3.6,5.15-4.94,7.44-7.95
		c-2.34,6.62-4.99,12.94-8.45,19.05c-1.53-1.02-3.06-1.41-4.69-1.53c-14.55-1.07-16.41-4.59-23.53-3.06
		C326.61,409.59,328.89,404.1,322.46,404.99z M372.16,425.05c-5.6-7.03-11.71-13.14-20.17-16.91c7.23-3.87,13.45,0.61,20.07,0.92
		C372.47,414.66,371.55,419.86,372.16,425.05z M402.11,523.86c1.83-1.12,4.48-0.51,5.6-2.85c-2.59-5.18-13.73,5.47-19.86-2.14
		c-0.1-0.2-0.41-0.1-0.31-0.1c-1.32,0-0.81,1.43-1.83,1.73c-1.22-0.2-2.55-0.41-3.57-1.63c0-19.15-0.57-10.11,3.46-21.39
		c0.71,2.24-0.92,4.38,0.61,5.91c0.71,0.61,1.43-0.1,2.14,0.2c0.41,1.53,0,3.77,2.24,4.07c1.53-0.2,1.63-1.94,2.95-1.94
		c1.22,0.31,0.1,2.14,1.53,2.34c1.12-0.1,1.22-1.73,2.55-1.73c1.02,0.41,2.54,0.21,3.26,1.32c2.52,3.89,5.91,1.63,8.96,1.83
		c-11.65-8.89-14.23-3.95-18.64-9.47c-10.55-13.2-11.13-5.91-13.14-9.07c2.61-9.01,2.55-43.7,0.41-50.52
		c-1.32-4.18-3.06-8.15-4.99-12.02c2.44,1.02,2.93-0.2,2.75-1.94c-0.58-5.49,1.22-11.1-0.81-16.5c9.92-4.14,9.02,9.63,19.46-20.37
		c10.48,0.7,12.79,5.77,10.9,11.41c-9.56,28.56,3.29,55.09,6.11,64.07c3.58,11.4,3.97,23.02,4.48,34.53
		c-0.92,1.22-2.14,1.12-2.95,1.73c-4.78,3.18-0.4,1.93-5.4,24.24C406.19,524.87,403.94,525.28,402.11,523.86z"/>
	<path d="M319.81,528.4C319.66,528.54,319.83,528.65,319.81,528.4L319.81,528.4z"/>
	<path d="M509.06,309.03l0.1-0.1C508.93,308.93,508.95,308.84,509.06,309.03z"/>
	<path d="M816.58,265.03c-3.16-2.34,0.1-6.62-3.26-9.57c-1.12,3.26-0.4,6.22-1.12,9.07c-0.7,2.75-1.73,5.4-1.53,8.56
		c-2.24,0.1-4.18-0.41-6.32-1.12c1.94-1.32,4.48-0.51,5.5-2.75c-1.96-5.22-12.79,5.37-18.84-2.14c-2.03-0.51-0.32,3.21-5.3,0.31
		c-0.1-6.82-1.32-13.85,3.16-20.17c1.32,1.43-2.24,5.4,2.34,5.6c0.71,1.22,0.31,3.26,2.24,3.77c1.32,0.1,1.53-1.63,2.65-1.73
		c1.43,0.1,0.41,1.82,1.12,1.94c1.64,0.27,1.73-1.22,3.46-1.32c3.06,1.22,6.11,5.3,11.2,2.75c-3.26-2.14-6.22-4.56-10.08-5.09
		c-11.39-1.56-10.6-13.78-20.17-11.2c3.54-12.86,1.13-24.79,1.83-39.42c0.34-7.03-2.44-13.34-5.6-19.76c1.94,0,2.33-1.12,2.14-2.85
		c-0.55-5.09,1.02-10.19-0.61-15.28c9.74-3.04,8.68,8.27,18.13-18.84c2.24,0.41,4.39-0.32,6.42,0.71
		c9.25,4.68,0.28,10.35,0.81,34.22c0.5,22.39,11.83,30.85,12.83,60.71c0.09,2.65,0.51,5.19,0.1,8.05c-2.44,1.12-5.3,2.14-4.99,5.81
		c1.73,0.62,2.79-4.03,5.7-2.85c6.03,2.45,0.43,6.49,10.8,12.33c3.76,2.12,17.15-5.84,22.41-10.9c4.97-4.79-1.13-5.2-1.73-5.81
		c-1.43,0.51-1.63,1.63-2.55,2.34c-0.92-1.32-1.32-3.57-3.87-1.94c-0.33-32.71-5.02-26.76-0.81-44.11
		c1.22-5.05,2.52-14.68,1.63-24.55c-4.29-47.59,3.13-51.02-8.45-61.42c-16.22-14.57-30.16-14.51-33.61-16.7
		c-0.81-1.12-0.1-2.85-1.94-3.97c-57.66-17.15-51.97,6.57-49.2-14.26c6.57-1.75,12.94,3.26,18.23-7.03
		c2.06-3.43-4.24-11.29-9.27-11.71c-13.4-1.14-8.79,2.44-11.2-9.68c-1.58-7.93-4.4-15.05-10.7-20.47
		c-11.44-9.87-21.44-25.31-52.56-23.53c-10.48,0.6-20.01,6.47-29.64,8.66c-3.49,0.79-7.55,7.4-12.63,11.1
		c-5.82,4.24-10.69,23.44-12.53,30.35c-1.94,0-3.76,0.62-5.4,2.04c-1.52,1.32,4.07,0.92-78.94,0.92c-1.02-3.06-4.07-2.95-6.42-3.87
		c-4.81-6.19-0.99-7.82-14.45-24.79c-0.54,0.36-0.89-0.15-1.23-0.67c0.41,0,0.71-0.1,1.02-0.1c-19.22-21.78-53.89-17.25-68.76,4.89
		c-5.45,8.12-15.44,12.69-11.1,38.1c1.07,6.26-1.3,4.05,0.71,8.56c5.11,11.45,10.18,13.26,9.98,19.15
		c-0.51,0.71-1.94-0.71-2.65,0.92c-0.41,2.44,3.16,3.36,3.26,6.01c-2.34,0.51-3.87-2.14-6.32-1.32c-3.11,6.22-5.34,2.67,1.12,12.12
		c-0.92,2.14-0.41,4.28,1.53,5.91c-0.71,1.43-2.24-0.41-2.75,1.43c0.2,2.04,12.22,23.02,14.87,25.46c-1.22,1.73-1.94,3.67-0.81,5.91
		c0.39,0.96-1.38,12.1,10.8,12.83c13.39,0.81,7.11,6.01,16.09,4.38c-0.77,4.64-3.67,0.97-11.61,8.56
		c-16.31,15.58-17.39,24.05-18.54,42.68c-0.22,3.5-0.37,58.39-1.73,61.12c-2.95-1.12-6.2-0.32-8.96-2.85
		c-1-0.91-0.53,0.03-14.57-1.63c-1.53-0.18-2.92,0.2-2.65,1.73c0.8,4.47,0.61,9.07,1.43,14.16c3.57-4.48,2.04-9.07,1.83-13.75
		c3.87,0.71,7.53,0.01,11.2,1.43c7,2.7,11.28,0.82,12.94,4.89c0.61-0.31,1.03-0.61,1.02-1.12c-0.2-14.98,1.9-29.95,1.32-44.92
		c-0.43-11.2,0.33-22.41,1.63-33.51c0.93-7.94,4.79-14.67,10.08-20.58c22.6-25.2,14.45-7.75,127.22-20.27
		c4.26-0.47,7.12,2.55,12.43,6.21c-107.24,11.29-109.53,0.68-123.66,18.84c-15.9,20.45-9.25,44.63-10.8,97.17
		c-2.75,0.41-5.5,0.31-8.15,1.83c0.2-24.24,2.04-48.08-0.1-71.91c0.35,40.61-1.56,55.35-1.43,70.89c-1.73-0.41-3.16-0.71-5.4-1.12
		c6.32,3.77,9.17,5.6,10.9,2.14c7.1-0.95,18.04,8.34,33.23,9.96c-1.41-2.25-5.87-1.36-26.81-10.98c0.01-0.1-0.58-50.26,0.1-59.08
		c0.87-11.2-1.84-27.01,16.3-43.29c2.95-2.65,6.73-3.44,10.49-3.87c24.02-2.75,107.93-11.89,129.06-6.21
		c10.26,2.76,8.07-0.34,19.66-0.2c4.18,0.05,4.58-0.31,5.5-4.69c4.28-1.12,8.76-0.39,13.14-0.61c27.2-1.37,49.28-7.35,72.32-0.61
		c-0.81,6.32,1.1,12.23,2.55,18.13c7.93,32.43-0.07,29.14,5.09,37.99c-0.31,2.44-2.04,4.89,0.1,7.33c0,0.2,0,0.31,0,0.51
		c0.17,0.17-1.12-0.21-1.22,0.51c-0.68,4.92-6.97,7.08-5.6,17.01c-7.04,1.35-9.39-5.54-23.43,0.31c-0.85,3.58-2.87,14.66,0.77,14.37
		c-0.48,2.74-0.64-0.36,8.29,2.74c22.01,7.63,44.62,12.72,67.13,18.33c15.6,3.89,16.22-3.46,21.59-1.22
		c2.65-5.7,1.83-11.92,3.26-18.03c-4.79-1.22-9.57-2.44-14.46-3.67C814.13,270.74,813.83,267.48,816.58,265.03z M783.17,268.19
		c-4.89-0.51-9.37,3.16-13.95-0.41c1.73-6.93,1.94-13.95,2.24-21.08c0.61-0.51,1.63-0.41,1.83-1.32
		C792.9,243.53,779.38,240.68,783.17,268.19z M843.98,251.48c0.92,1.22,1.63,2.04,2.04,2.75c1.22,0.71,1.12-1.63,2.44-0.51
		c-3.97,6.01-10.49,7.13-16.91,8.76c-1.43-1.32-3.36-1.83-4.58-3.67C832.37,255.76,838.78,255.35,843.98,251.48z M802.62,105.21
		c11.31,1.73,20.58,6.52,28.83,13.04c1.11,13.31,2.56,3.03,2.85,2.55c11.24,6.48,4.99,24.12,5.91,33.82
		c5.78,61.25-6.25,52.06,1.22,95.65c-4.28,1.43-8.35,3.06-12.94,3.97c0.32-9.34,0.08-12.01-3.26,0.92
		c-0.92-2.44-3.16-3.57-4.99-4.99c0-46.18-14.51-46.07-12.33-76.9c0.75-10.55,4.44-18.3,2.14-23.43c-3.81-8.5-11.79-4.73-11.61-8.35
		c3.16,0.31,6.11,1.94,9.27,0.2c-3.06-1.02-6.21-1.22-9.78-2.85C800.79,127.93,802.72,116.83,802.62,105.21z M761.27,66.3
		c12.65,7.3,3.02,19.23-3.87,13.04c-3.54-3.18-4.27-6.51-1.63-8.96C757.4,68.86,759.03,67.32,761.27,66.3z M756.48,81.48
		c-70.17-2.28-64.31-0.77-66-6.52c-1.59-5.38,0.92-8.56,6.52-8.56C793.09,66.41,738.76,63.03,756.48,81.48z M706.06,116.11
		c-2.75,0.61-3.06,2.24-2.24,4.28c-8.75,11.33-12.84-7.57-10.39-17.21c3.53-13.87-0.18-15.89,2.34-21.49
		c0.41,0.81,0.92,1.32,0.81,1.53c-1.02,2.34,0.2,4.18,1.22,6.11c1.19,2.25,7.93,17.83,7.33,21.59
		C704.85,112.75,704.74,114.48,706.06,116.11z M700.86,81.89c-0.58,1.46-2.27,2.79-2.65-0.2C699.23,81.48,700.05,81.28,700.86,81.89
		z M692.82,81.89c-3.46,0.31-3.67,0.1-3.26-2.55C691.39,79.04,691.6,80.77,692.82,81.89z M706.98,16.09
		c19.25,4.71,41.65,29.39,41.97,48.18c-14.97,0-29.74,0-44.51,0c-5.34-10.04-23.11-3.97-17.62,10.08
		c0.31-6.62,1.22-12.14,8.66-12.94c2.95-0.31,5.09,0.2,7.03,3.16c-4.07-0.51-7.83-1.82-11.31,1.12c-3.86,3.27-3.16,6.93-2.24,9.37
		c-2.44,11.61-8.35,19.96-13.95,28.83c-5.62-6.32-6.92-9.99-0.92-15.99c7.01-7.01,10.71-6.31,12.02-10.49
		c-2.73,0.91-11.1,5.58-14.67,9.37c-6.68,7.1-4.38,14.29,2.95,20.47c6.72-7.03,11.31-15.18,14.46-24.55
		c0.92,2.14,2.65,2.55,4.38,2.75c0.96,5.77-0.57,4.39-1.43,8.66c-1.74,8.63-1.7,22.23,1.12,27.81c5.83,11.5,20.69-1.77,13.04-19.35
		c-2.35-5.4-4.18-11.1-7.64-16.3c2.55-0.71,4.18-2.44,5.3-4.69c15.48,0.61,30.76,1.12,46.14,1.63
		c1.01,10.44-11.54,25.21-18.23,32.29c-13.22,13.99-29.58,20.41-55.11,10.49c-6.39-2.48-24.92-16.12-26.89-22.51
		c-3.15-10.24-8.82-16.52-8.56-26.79c0-0.11-1.48-23.21,6.42-34.43C654.23,32.54,663.97,5.58,706.98,16.09z M633.64,64.16
		c3.25-26.53,20.41-40.88,21.8-42.48c1.3,0.19,10.29-3.14,5.09,0c-14.12,8.54-16.63,24.65-17.32,25.36
		c-4.2,4.36-4.08,17.6-4.69,21.49c-1.77,11.29,0.23,12.7,2.24,20.68c3.02,11.98,8.06,22.5,19.25,29.03
		c4.18,2.44,6.82,6.52,11.1,8.76c-20.27-5.29-28.67-17.25-33.72-35.24C636.35,88,633.08,68.71,633.64,64.16z M631.4,64.27
		c-1.94,1.63-4.48,1.53-6.52,2.55C627.42,63.35,628.85,62.74,631.4,64.27z M523.02,33.81c-0.61-0.2-1.02-0.41-0.92-0.92
		C522.61,33,523.02,33.1,523.02,33.81z M450.7,86.17c-6.93-12.02-6.32-30.15,1.63-37.69C441.71,74.56,453.59,79.97,450.7,86.17z
		 M454.87,94.82c-0.41-0.41-0.81-0.71-0.92-1.83C454.77,93.6,455.59,93.81,454.87,94.82z M451.92,117.33
		c1.02-0.61,1.83-1.12,3.06-1.73c-0.31,1.73,0.41,2.95,0.81,4.58C453.14,120.59,452.94,118.56,451.92,117.33z M455.89,128.34
		c-0.51-1.12-1.63-1.32-1.83-2.34c0.31-0.71,0.61-1.43,1.43-1.73c4.03,1.01-0.44,4.06,2.24,8.35
		C455.18,131.9,455.69,129.86,455.89,128.34z M457.83,134.55c1.53,0.41,1.94,1.02,1.94,2.14
		C458.24,136.79,457.83,136.18,457.83,134.55z M459.76,123.55c-0.71-0.31-1.32-0.61-0.31-1.43
		C459.97,122.43,460.07,122.94,459.76,123.55z M456.4,116.42c2.75-1.43,3.77-0.41,4.69,1.73
		C459.46,117.54,458.24,117.13,456.4,116.42z M458.34,101.04c0.51,0.2,0.92,0.51,0.31,1.12
		C458.03,101.85,458.13,101.44,458.34,101.04z M459.05,105.01c2.14,0.61,2.95,1.94,3.67,3.67
		C459.43,109.5,459.05,112.57,459.05,105.01z M460.07,98.19c0.81,0.41,2.04,0,2.44,1.22C460.99,100.32,460.68,99,460.07,98.19z
		 M463.33,88.41c-1.53-0.81-1.32-3.16-3.57-3.26c-1.43,2.24,1.02,4.07,0.61,6.11c-0.92,0-1.53-1.22-2.55-0.31
		c-0.61,2.04,1.83,2.75,2.34,4.48c-4.19,0-15.42-29.33-7.64-40.95c0.92-1.38,1.81-15.52,14.06-21.8c3.3-1.69,7.75-7.7,13.45-6.42
		c2.08,0.47-0.13-1.89,12.22-2.65c24.38-1.5,28.26,14.93,36.87,17.72c-1.81,3.82,5.41,9.61,7.44,19.35
		c-0.71,0.81-1.83,1.32-2.24,1.12c-2.85-1.73-5.39,0.02-8.05,0.61c-17.11,3.81-11.76,0.58-23.63,1.94
		c-2.44,3.57-4.69,7.03,0.31,11.1c20.94,0,8.72-1.16,17.52,7.64c2.04,2.04,2.14,5.3,4.07,7.74c1.84-2.75-2.03-8.82-4.38-11.41
		c-4.53-4.97-2.08-8.24,1.73-13.75c3.16,0.1,5.81-2.34,9.57-2.65c-8.56,7.13-8.66,7.23-6.82,9.88c1.73-2.24,2.55-5.09,5.6-6.72
		c-0.51,2.24-0.41,4.07-0.2,6.21c3.16-2.04,2.34-5.19,2.95-8.15c2.44,0.51,4.07-1.12,6.21-2.04c1.63,0.92,4.18,0.31,5.19,2.95
		c-2.75-0.31-3.36,0-6.93,2.65c-1.11,7.2,0.17,12.87,6.52,10.39c1.02-0.4,1.43-2.04,3.26-1.12c-3.67,3.87-10.29,6.11-7.54,13.24
		c-3.36,2.44-6.01,5.4-8.15,9.68c-1.02-6.62-3.67-9.06-9.57-8.56c-4.89,0.41-8.66-2.24-12.73-2.75c-0.81-1.73,0.61-3.57-1.63-4.38
		c-2.34,2.65-0.61,4.69,1.02,6.62c-0.2,1.02-1.32,1.94-0.1,3.16c0.81-0.31,1.83,0.2,2.65-0.41c0.61-1.02-0.81-1.73-0.2-2.55
		c4.48-0.61,4.58,4.18,7.03,6.11c1.83-2.04-0.41-2.95-0.51-4.38c1.73,1.02,3.46,0.92,5.3,0.51c2.24-0.5,5.43,1.42,5.81,3.67
		c0.55,3.25-0.81,6.72,1.53,9.98c-4.18-0.1-4.28,0-4.18,6.62c1.63-2.55,5.6-1.83,5.81-5.4c1.32-0.1,1.83,1.32,3.06,1.02
		c0.61-2.14-1.63-2.44-2.44-3.87c0.2-1.02-0.51-2.04,0.1-3.36c11.93-5.05,6.95-3.19,18.13-2.55c-3.03-6.05-9.72-1.32-14.16-2.34
		c12.02-10.19,25.36-17.21,41.76-17.72c-2.11,3.69-0.7-2.55,36.36-0.71c3.87,2.65,5.3,7.33,8.96,9.27
		c-1.12,11-6.11,20.07-11.92,28.72c7.37-5.39,12.1-17.67,12.94-26.69c2.14,1.73,3.26,3.36,3.97,4.99c0.2,10.7-0.41,21.29-1.73,31.88
		c2.75-9.88,3.36-19.96,2.55-30.56c2.24,1.53,1.71,3.05,1.63,4.48c-1.55,26.69,4.21,28.05-1.32,38.2c-8.33,1.31-2.63,1.4-13.75-2.55
		c-3.46-1.23-7.13-1.73-10.29-3.77c4.38,0,6.43-3.02,4.79-7.13c-0.88-2.19-0.3-7.5-5.6-12.22c-17.64-15.71-16.8-10.8-22.82-12.73
		c-13.31-4.26-23.9,10.2-30.05,22.82c2.71,1.19,0.21,2.68,2.14,13.14c1.96,10.64-2.89,4.06,3.06,14.46
		c-0.61,0.31-1.23,0.21-1.43-0.1c-2.7-4.27-3.88-3.05-4.89-16.3c-1.58-20.73,2.52-17.95,5.6-25.87c2.55-6.56-3.55-11.52-5.09-9.98
		c0,2.21,3.99,2.99,0.51,11.82c-2.5,6.34-5.99,12.42-4.38,19.96c1.34,6.31,1.12,12.94,4.69,19.35c-10.1-3.23-4.3-2.15-6.21-4.48
		c-3.16-1.02-5.91-3.67-9.68-5.4c0.31,2.04,1.63,2.65,2.34,4.18c-7.74-3.06-15.48-4.79-22.71-9.17c3.97-2.24,3.06-6.72,6.21-8.76
		c-4.82-4.32-7.32-1.93-4.69-0.61c0.71,0.41,1.53,0.41,1.83,1.22c-5.7,7.03-6.72,7.95-8.05,7.54c0-0.92,1.63-1.12,1.02-2.24
		c-0.92-0.51-1.63,0.81-2.75,0.31c0.31-1.02-2.04-1.32-0.71-3.26c3.36,2.95,5.19,0.31,7.23-1.83c-1.53-1.73-5.19-1.83-7.74-0.31
		c-2.55,1.53-2.75,2.75-1.02,7.13c-5.84-6.29-1.78-2.82-1.22-7.03c-0.51-0.81-2.04-1.22-1.43-2.65c0.81-0.61,1.32,0.92,2.55,0.1
		c1.53-1.43,3.57-2.75,6.11-3.16c3.53-8.47-4.01,2.05-17.83-12.32c-2.24-2.75-0.2-8.15-5.81-9.57c-0.51-0.81-0.31-2.55-2.04-2.65
		c-0.91,1,0.6,8.12-2.14-1.73c7.74-5.19,10.9,2.55,15.58,5.81c3.11-7.05-4.76-5.21-7.33-8.25c4.79-2.04,7.95-5.91,12.33-8.15
		c-3.61-1.2-13.3,8.53-14.87,7.74c-3.67-1.83-7.13-0.1-10.49,0.81c-2.34-1.43-3.97-3.57-6.72-4.58c-1.32,2.55-3.06-0.61-4.79,0.41
		c-1.22,0.2-0.61,1.73-1.43,2.34c-4.75-0.59,2.27-4.87-3.57-8.76C462.41,84.23,464.35,86.68,463.33,88.41z M515.58,72.92
		c-9.38,0-12.97,0.81-13.14-2.85c-0.1-2.14,1.12-3.97,3.26-4.07C521.3,65.23,518.53,65.93,515.58,72.92z M549.5,77
		c18.84,0,17.52-0.33,17.52,0.81c-9.17,1.53-16.6,7.23-24.96,11.2C540.03,80.07,547.97,83.32,549.5,77z M627.53,144.33
		c-0.51-0.71-1.32-1.02-0.81-1.83C628.14,142.29,628.54,142.7,627.53,144.33z M533.82,145.75c-5.5,0.31-10.19,1.02-15.58,0.81
		C522.71,142.7,527.4,142.49,533.82,145.75z M520.27,140.56c0.71-0.31,1.22-0.1,1.63,0.71
		C520.88,142.09,520.27,142.09,520.27,140.56z M516.09,139.44c0.71-0.61,1.22-0.71,1.73-0.2
		C517.42,139.85,517.01,140.46,516.09,139.44z M516.4,146.98c-0.51,1.73-1.73,1.43-2.65,1.73
		C514.46,147.99,514.77,146.67,516.4,146.98z M502.85,150.85c1.53-1.02,2.85-2.75,4.79-1.43
		C507.64,150.49,508.36,150.16,502.85,150.85z M492.46,155.12c-1.83,1.02-3.26,0.92-5.09,0.71
		C489,155.02,490.42,154.62,492.46,155.12z M488.49,138.22c2.32-0.77,2.07,1.28,2.24,3.46C489.4,140.66,487.77,140.36,488.49,138.22
		z M490.93,130.37c0.92-0.92,1.53-0.81,1.94,0.2C492.26,131.09,491.75,131.19,490.93,130.37z M491.14,148.61
		c0.92-0.81,1.83-0.81,2.75-0.1C492.97,148.71,492.15,149.93,491.14,148.61z M491.44,135.57c1.12,0.1,2.34,0.2,3.46,0.31
		C493.68,136.89,492.56,136.38,491.44,135.57z M496.03,145.75c-0.51,0.51-0.81,0.81-1.22,0.31
		C495.01,145.75,495.21,145.45,496.03,145.75z M486.65,109.19c4.48-1.43,6.21,3.87,10.08,3.97
		C492.56,113.57,490.12,110.1,486.65,109.19z M472.29,131.49c1.83-0.81,3.26-0.2,5.3,0.81C475.35,133.12,473.92,132,472.29,131.49z
		 M475.04,135.87c-0.1,1.43-1.22,1.43-2.34,1.63c0-1.12,0-2.14,0-3.16C473.92,134.24,475.15,134.24,475.04,135.87z M473.62,126.5
		c1.43-0.92,2.44-0.31,4.18,0.61C475.96,127.22,474.74,127.83,473.62,126.5z M477.39,123.45c-0.2-0.41-0.1-0.81,0.51-1.53
		C478.51,123.04,478.51,123.55,477.39,123.45z M474.23,110.2c8.04,1.9,6.61-2.92,6.11,3.06C478.3,112.24,476.16,112.04,474.23,110.2
		z M481.66,107.05c-0.61-0.1-0.81-0.51-0.71-1.22C481.87,106.03,482.07,106.44,481.66,107.05z M480.64,110.1
		c0-0.61-0.1-1.32,1.02-1.43C481.97,109.59,481.66,110.1,480.64,110.1z M477.59,93.19c1.22,1.63,3.36,2.65,3.97,4.79
		C479.52,96.96,477.69,95.84,477.59,93.19z M478.91,149.32c1.32,0.31,1.63,1.02,1.43,2.14C478.91,151.46,478,151.15,478.91,149.32z
		 M479.32,120.09c3.06-0.61,3.26-0.61,5.3,1.43C482.78,121.51,480.95,122.12,479.32,120.09z M470.87,95.03
		c-0.61-1.32,0.51-2.04,0.71-2.85C471.58,93.09,471.99,94.21,470.87,95.03z M469.03,101.55c-1.02-0.41-2.04-0.71-2.14-2.34
		C468.22,99.82,468.73,100.63,469.03,101.55z M466.69,92.68c-0.51,0.41-1.02,1.02-2.04,0.31C465.57,91.97,465.57,91.97,466.69,92.68
		z M464.55,149.73c1.94,1.32,1.94,1.32,1.94,3.46C465.57,152.07,464.75,151.05,464.55,149.73z M468.42,168.67
		c0.2-3.46,1.32-6.62,1.12-10.39c-1.73,1.32-0.71,3.16-1.94,4.07c-0.71-1.94-1.83-3.67,0-5.4c7.33,2.65,7.33,2.65,9.17,0.2
		c1.43,0.2,2.85-0.41,4.48,0c0.51,5.4,1.32,10.7,1.32,16.6C477.69,171.52,472.5,172.44,468.42,168.67z M565.29,175.09
		c-11.91,1.07-23.73,3.77-35.96,2.55c0.61-1.32,2.04-0.2,2.55-1.43c-1.63-0.51-3.16,0.71-4.79,0c0.61-3.46,0.61-6.82-0.31-10.08
		c-1.22,3.46-0.41,7.23-2.24,10.39c-8.35,2.04-16.4-0.1-24.55,0.31c-0.61-1.22-1.32-2.34,0.61-3.26c-1.12-1.83-1.94-3.87-1.02-5.91
		c0.81-0.61,1.83,0.81,2.44-0.31c-0.51-1.43-2.44-1.12-2.75-3.16c1.63-1.73,3.46-1.22,5.4-0.31c0.41,3.57-0.81,6.82-0.2,10.29
		c1.53-4.18,1.94-8.35,1.53-13.45c-2.34,2.65-4.28,0.92-6.32,0.31c2.34-1.73,4.99-0.24,7.44-0.51c2.14-0.24,4.38-0.2,6.42,0.61
		c0.63,6.29-0.23,1.96,2.04-0.31c8.76-0.51,17.52-1.12,26.38-1.63c0.61,4.89,0.41,9.78,0.41,14.67c2.34-4.58,1.73-9.68,2.55-14.57
		c3.77-0.41,7.44,0.1,11-0.81c-31.88-0.95-53.49,2.65-57.65-1.02c-0.61-0.61-1.83-0.81-2.75-0.1c0,1.22,1.63,1.32,1.73,2.85
		c-0.92,2.55-0.41,5.19,1.32,7.95c-2.95,2.65-2.55,5.91-1.53,9.07c-3.16,2.44-3.77,2.24-12.83-3.97c0.1-4.89-0.81-9.68-1.02-15.08
		c5.7,0.61,10.8-1.32,15.99-2.65c15.21-3.88,19.92-1.88,19.15-6.21c10.29,0.78,20.13-1.76,23.02,0c3.57,2.18,15.88,7.34,19.56,4.69
		c1.94,4.89,7.33,6.82,8.96,11.82c0.29,1.43,9.38,3.5,10.8,6.62c0.81-0.31,0.71-1.32,1.73-1.12c9.43,1.82,14.33-4.44,18.64,1.22
		C589.13,174.58,577.11,174.02,565.29,175.09z M662.46,159.2c-0.72,5.81-0.41,11.61-1.53,17.42c-0.41,2.14-0.92,4.18,0,6.52
		c-6.11,1.43-12.22,0.51-18.03,1.43c-1.42,0-5.46-2.51-13.04-2.65c-9.47-0.18-17.08-4.63-24.45-9.78
		c-13.36-9.34-19.22,1.84-26.38-5.7c-9.4-2.99-20.99-16.8-21.59-19.66c-1.37-6.44-3.92-22.78-0.71-28.52
		c4.06-7.26,11.13-16.28,19.46-16.09c4.89,0.11,9.88,0.31,14.06,3.97c3.26,2.85,7.14,4.88,10.39,7.84
		c10.68,9.71,4.47,18.54,4.89,18.54c-0.1,0.1,0.45,0.27-5.6-1.63c-1.23-4.29-1.68-7-4.07-7.84c0.89,4.09,1.43,9.8,5.5,10.9
		c7.94,2.15,15.08,6.52,22.71,9.47c1.12,0.51,2.24,1.12,2.85,2.65c-2.29,8.39,1.04,1.73-11.51-0.31
		c13.15,7.52,9.52,5.65,10.19,23.53c0.16-0.72,2.26-10.39,1.83-11c-2.61-3.73,7.78-21.95,6.72-26.89
		c-2.35-10.93,0.86-31.47-3.57-37.99c-5.42-8-15.62-16.65-15.89-20.37c0.41-1.43,1.83-2.04,1.43-3.57c-16,8.47,32.49,8.32-76.6,4.69
		c-1.53-4.07-0.41-7.38,2.34-7.33c95.55,1.77,75.49-2.21,75.78,1.63c2.75,1.22,4.79-1.32,7.23-1.53c-0.2,0.61-1.43,1.43,0,1.94
		c1.53-1.53,3.57-1.73,6.01-1.73c-1.11,14.4,7.21,36.06,7.23,36.16c4.28,19.72,19.63,18.39,20.47,24.85
		C659.94,138.51,663.78,148.5,662.46,159.2z M663.07,136.38c-1.02-2.75-1.83-5.81-1.53-9.27c15.63,6.25,45.95,11.69,59.49,1.22
		c3.96-3.07,8.35-5.81,12.12-9.78c1.12,6.11-0.61,11.41-2.24,16.7c7.74-4.99,4.89-12.43,4.48-19.35c5.6-5.7,10.19-12.22,14.06-19.05
		c17.11-4.79,33.31,0.2,49.71,3.97c0.1,7.03-0.8,13.45-1.53,19.76c-1.66,14.32-3.04,21.02-10.08,32.29
		c1.33,0.67-0.04,1.85,7.33-7.64c-2.24,6.11-4.58,12.12-7.95,17.83c-1.32-0.92-2.55-1.33-3.77-1.43c-11.68-0.88-18.3-4.29-21.7-3.16
		c-2.71,0.9-17.73,4.41-25.36,2.34c-5.29-1.44-8.44-0.29-13.65-0.41c-7.68-0.17-11.1-3.46-27.3-3.46c-1.94,0-3.57-0.61-4.79-2.44
		c-1.12,1.22-2.55,1.22-3.87,1.22c0.1,2.75,3.46,2.44,3.46,4.38c6.86-1.46,53.06,2.87,7.13,3.87c-17.01,0.37-15.95,8.24-13.24-9.07
		c1.12-1.02,2.24,0.71,2.95-0.51c0.41-1.53-1.43-2.04-1.22-3.57c2.55-1.43,5.8-1.53,8.05-3.67c5.61-5.34,5.19-11.1,1.83-4.79
		c-3.2,6.02-4.79,3.34-13.75,6.93c-20.25-7.65-12.94-4.18-10.08-5.6c0.61-0.71,1.22-1.63,1.94-2.55c-0.92-1.53-1.93-3.77-3.77-1.83
		c-1.93,2.04-3.77,1.02-5.81,0.92c0.41-1.53,2.24-0.92,2.65-2.24C665.52,137.4,664.09,137.71,663.07,136.38z M776.34,178.96
		c-5.19-6.52-10.9-12.12-19.25-15.89c8.67-1-1.95-3.16,19.46,1.32C776.65,169.39,776.14,174.17,776.34,178.96z M679.88,166.02
		c-5.09,0.51-9.88,1.12-14.97,1.63c3.58-19.69-4.43-11.35,16.5-14.57C679.27,157.47,679.88,161.75,679.88,166.02z M665.32,146.87
		c13.63,5.32,11.61,4.6,11.61,5.5C668.52,150.74,665.32,157.15,665.32,146.87z M695.47,176.52c-10.59,1.65-21.08,1.22-31.88,1.94
		c0-2.75,0.41-5.19,1.12-7.84c7.14-0.82,53.35-6.3,62.64-4.99c5.18,0.73,6.87-1.08,10.59-0.51c8.29,1.26,12.21-2.05,17.21,0.41
		c31.57,15.52,25.95,44.19,26.18,58.67c0.09,5.91,0.1,11.82-1.83,17.83c-2.21,0.19-4.52,0.79-6.93,0.61
		c-0.43,1.06,0.26,2.25,0.52,2.61c-1.17-0.17-1.72-1.77-3.37-1.39c-2.65,0.62-5.09-0.81-7.64-1.43c2.04-21.39,4.79-42.58-7.84-61.93
		c30.66,12.03,10.05,62.47,18.31,62.13c-3.48,0,13.93-55-17.5-66.21C750.96,174.95,725.74,171.81,695.47,176.52z M752,183.75
		c-1.54-9.25,12.27,14.85,8.76,36.06c-0.19,1.12-0.1,2.55-2.34,2.04C758.42,202.78,754.12,204.27,752,183.75z M759.64,236.82
		c0-14.02-0.27-12.33,0.81-12.33C761.17,228.67,760.66,232.84,759.64,236.82z M758.52,239.67c0.2,0.51,0.41,1.02-0.41,1.63
		C757.29,240.38,757.91,240.08,758.52,239.67z M757.19,232.44c0.1-1.32,0.31-2.65,0.41-3.97
		C758.21,229.99,758.11,231.32,757.19,232.44z M819.63,293.14c0.61-0.71,1.32-1.12,2.75-0.81
		C821.57,293.14,820.75,293.65,819.63,293.14z M822.89,290.29c-4.58,1.43-9.68,0.81-12.83,5.3c1.94-4.07,0.61-8.25,1.12-12.22
		c4.28-1.02,8.56-1.94,12.94-4.18C823.71,283.26,823.3,286.73,822.89,290.29z M819.23,278.06c-3.77,2.14-7.95,1.83-11.1,4.38
		c0.2,4.07,0.41,8.25,0.61,12.73c-3.83-0.48-66.28-16.86-67.84-17.32c-14.73-4.32-13.74-1.42-13.74-2.33
		c1-19.05-2.21-12.32,24.64-7.44c-6.42-2.14-12.63-4.79-19.46-6.32c3.88-4.14,13.32,3.54,18.95-0.31c-0.1-2.55,0.92-4.58,2.34-6.93
		c-1.07,25.24,5.31-2.31,3.06-11.32c3.87,1.83,8.15,1.94,12.73,2.95c-0.41,7.23-0.92,14.36-2.65,21.49
		c-3.87-1.02-7.23-2.24-11.1-2.55c0.86,2.99,6.4,2.01,3.86,4.21c6.41,0.77,13.06,3.97,27.72,0.48c2.55,0.71,5.09,3.05,8.56,3.26
		C803.74,273.56,810.97,276.73,819.23,278.06z"/>
	<path d="M39.49,246.8c8.21,1.41,23.21,6.83,37.28-2.75c8.54-5.82,11.16-4.28,9.68-10.59c-5.88,3.4-8.71,9.23-17.21,10.59
		c-5.32,0.85-6.35,5.67-26.28,0c-26.88-7.65-37.48-36.36-37.48-53.48c0-4.98,2.28-4.66,4.48-15.99c1.58-8.13,7.32-13.55,18.54-21.7
		c5.61-4.07,5.32-1.07,8.56-2.65c11.6-5.66,29.23-5,41.97,6.82c2.85,2.65,5.19,5.81,9.47,6.62c-0.83,2.72-0.1,2.72,7.74,15.79
		c2.14-0.1,2.56-1.33,1.53-3.16c-2.61-4.61-4.57-9.49-8.45-13.24c-2.44-2.35-3.46-6.01-6.93-7.23c0,0.41,0.1,0.71,0.31,1.12
		c-1.06,0.27-1.96-1.09-0.45-1.09c0.56-0.11-9.51-11.41-28.38-12.05c-35.61-1.21-44.49,28.82-50.01,32.9
		c-1.18,0.87-5.62,12.03-3.06,24.96c3.7,18.66-1.92,10.16,9.98,26.28C18.05,237.82,27.31,244.71,39.49,246.8z M25.03,237.43
		c-0.71,0.1-1.22-0.2-1.43-1.02C24.31,236.41,24.72,236.71,25.03,237.43z M18.3,231.42c3.22,3.58,3.04,3.07,2.85,3.26
		C17.93,231.45,17.87,231.85,18.3,231.42z M15.35,228.16c-1.12-1.53-3.06-2.44-3.57-5.09C13.62,224.8,14.64,226.43,15.35,228.16z
		 M7.1,176.62c-1.1,4.41-6.7,15.8-1.02,30.86c1.15,3.05,2.04,6.11,2.34,9.47C3.43,214.04-3.69,185.9,7.1,176.62z"/>
	<path d="M487.47,523.75c-5.53-0.07-0.16-0.81-12.43-4.07c-4.99-1.33-9.38-3.46-11.51-8.66c-0.92-2.24-3.77-3.16-4.07-5.81
		c-1.63-0.31-2.95-0.61-5.3-1.02c1.73,3.77,0.41,7.23,1.12,10.59c0.92,0.61,1.22-0.61,1.94-0.31c0.41,1.43-0.41,2.95,0.31,4.48
		c2.65,1.12,5.09,4.89,7.74,0.41c2.85,0.31,1.32,3.77,3.57,4.38c1.02,0.2,0.81-1.02,1.22-1.53c3.62,0.34-0.4,4.11,3.67,6.01
		c1.32-1.73,4.58-0.71,5.3-4.18c6.01,4.07,12.22,2.95,18.44,0.71c1.83,3.06,2.65,5.91,3.36,8.96c-18.26,11.62-20.59,7.68-28.52,9.27
		c-2.51,0.28-14-2.25-15.99-2.95c-1.06-0.53-3.68,4.09-13.55,1.73c-0.82-0.19-1.83,0-2.14,0.71c-1.98,3.95-9.93,0.15-13.85,4.89
		c1.75,2.71,3.7,1.26,18.74,0.31c7.34-0.46,9.54-5.7,13.65-3.26c1.61,0.95,3.26,1.63,5.19,0.81c1.18-0.79,2.5,2.13,7.54,1.63
		c7.65-0.76,15.74,0.08,22.61-4.38c4.91-3.19,5.04-5.89,8.76-7.13C501.66,517.34,496.67,523.87,487.47,523.75z"/>
	<path d="M896.64,271.45c-2.65,0-5.3-0.92-8.15,0.31c-1.43,0.61-3.78,0.83-4.99,0.1c-5.25-3.18-11.66-3.24-16.7-6.72
		c-4.03-2.78-7.78-14.42-13.24-10.59c2.65,2.75-0.31,6.11,1.22,9.07c1.02,0.61,1.02-1.02,1.94-0.81c0.41,1.43-0.71,2.85,0.1,4.58
		c0.81,1.02,2.75,0.92,3.36,2.34c2.14,0.51,2.95-1.22,4.18-2.04c2.44,0.41,1.11,3.5,3.26,4.18c1.01,0.32,0.81-1.12,1.53-1.43
		c3.15,0.53-0.68,3.87,3.36,5.6c1.22-1.73,4.28-0.92,4.99-3.97c5.5,4.18,11.41,2.55,17.21,0.92c1.63,2.65,2.34,5.4,3.06,8.25
		c-7.23,4.52-20.1,12.56-40.54,6.01c-3.66-1.17-4.6,3.57-11.82,1.63c-1.93-0.52-3.77-0.71-5.09,1.43
		c-1.38,2.24-8.34-0.92-12.53,4.07c5.09,2.14,9.88-0.2,14.57,0c4.99,0.21,9.37-1.63,13.85-4.38c5.05,4.55,33.66,5.14,40.03-4.58
		c0.93-1.42,2.85-1.43,3.77-2.85C899.9,278.58,899.29,274.81,896.64,271.45z"/>
	<path d="M319.3,528.24c-0.02-0.01-0.04-0.03-0.06-0.04C319.14,528.3,319.2,528.24,319.3,528.24z"/>
	<path d="M319.3,528.13c-0.03,0.02-0.06,0.03-0.09,0.04C319.24,528.21,319.26,528.17,319.3,528.13z"/>
	<path d="M95.82,564.5c-1.73,0.51-0.31,2.04-1.73,2.95c-5.81-0.81-12.12-1.22-18.54-1.02c2.04,6.21,1.32,12.22,2.44,18.64
		c-4.18-1.73-7.74-3.57-12.43-4.28c2.24,2.44,5.09,1.94,6.82,3.87c0.2,0.61-1.12,0.71-0.51,1.73c5.73-4.2-3.04,2.75,20.07,2.75
		c1.53,0,2.85-0.41,3.87-2.24c-5.7-0.31-10.9-1.32-16.71-1.22c1.12-5.7,0.92-11,0-16.91c5.4,0.71,10.9-1.43,16.3,1.22
		c0.1,5.81,0.81,11.41,1.43,17.11c1.73,0.31,2.34-0.81,2.14-1.94C97.39,576.29,98.31,565.56,95.82,564.5z"/>
	<path d="M516.4,310.36c-1.53,0.31-0.31,1.94-1.94,2.75c-5.3-0.92-11.1-0.81-17.21-1.12c1.73,6.01,1.43,11.61,2.14,17.62
		c-3.77-1.63-7.03-3.26-10.8-3.67c1.32,1.83,3.97,1.43,5.4,3.06c0,0.92-0.31,0.92-0.81,0.61c0.2,0.41,0.31,0.81,0.51,1.43
		c1.63-1.02,3.16-1.63,4.18,0.51c0,1.3,18.69,3.78,18.13-0.1c-4.99-0.41-9.98-0.81-15.38-1.32c1.02-5.09,0.92-10.08,0-15.48
		c19.53,0.95,13.63-5.03,16.7,17.01c1.94,0.2,2.24-1.12,2.04-2.14C517.64,320.8,518.85,311.06,516.4,310.36z"/>
	<path d="M70.35,584.87c-20.58-9.47-41.46-17.93-61.93-27.2C10.77,561.65,65.87,585.68,70.35,584.87z"/>
	<path d="M434.6,304.04c-0.2-0.2-1.16,0.88-0.1,1.43C459.4,318.43,551.92,355.37,434.6,304.04z"/>
	<path d="M62.41,185.38c1.22,0.71,2.75,1.63,4.18,2.44c-3.15-5.89-15.4-8.21-21.39,2.55c-4.14,7.43,1.63,12.02,1.32,12.32
		c0.42,2.12,1.99,1.38,0.31-0.31c-4.41-11.42,3.87-18.96,11.92-17.42c-8.05,5.6-9.27,13.85-2.34,18.44
		c-1.63-3.67-3.62-6.8-1.94-10.59C56.04,189.27,58.64,186.9,62.41,185.38z"/>
	<path d="M74.63,566.74c-71.82-30.22-63.27-23.14-59.79-22.1C50.41,555.19,70.8,569.61,74.63,566.74z"/>
	<path d="M495.82,312.5c-18.74-8.05-37.08-16.91-56.94-21.7C480.98,306.29,493.41,314.31,495.82,312.5z"/>
	<path d="M435.11,526.81c-3.04,1.76-1.63,4.48-1.22,6.93c2.75,0.2,5.6,1.22,7.23-2.04C442.75,528.45,438.88,524.64,435.11,526.81z
		 M437.46,532.51c0.71-2.65-1.73-1.43-2.44-2.24C435.69,524.5,443.29,530.13,437.46,532.51z"/>
	<path d="M834.91,282.65c5.4,0.41,7.52-0.61,7.64-3.57C842.74,274.27,833.05,271.68,834.91,282.65z M838.68,281.13
		c-0.71-1.53-0.71-1.53-2.65-2.04c0.1-1.73,1.12-2.44,2.65-2.34C841.13,276.74,841.3,280.97,838.68,281.13z"/>
	<path d="M843.26,278.27c0,5.16,7.89,5.46,8.25,0.31C851.9,273.1,843.26,273.11,843.26,278.27z M849.68,278.07
		c0.42,2.95-4.03,3.83-4.48,0.2C845.2,275.29,849.47,275.29,849.68,278.07z"/>
	<path d="M442.24,529.36c-0.23,4.83,7.95,5.8,8.35,0.31C450.98,524.41,442.5,524.01,442.24,529.36z M448.76,529.36
		c0,3.21-4.7,3.16-4.48,0.1C444.28,526.49,448.76,526.4,448.76,529.36z"/>
	<path d="M856.3,279.19c1.53-0.2,0.81,1.83,2.55,2.04c0.51-2.44,0.31-4.79-0.51-7.13c-2.63-1.23-7.85,0.63-5.7,3.36
		c1.22,1.32,0.92,2.55,0.31,3.97C855.08,281.43,855.08,279.6,856.3,279.19z M857.12,276.24c-0.92,1.63-1.83,1.63-3.06,0.1
		C855.18,275.52,856,274.91,857.12,276.24z"/>
	<path d="M455.28,530.38c1.53-0.1,0.71,1.94,2.14,1.94c1.02-0.31,1.02-2.95-0.1-7.03c-2.09-1.34-7.78,0.45-5.81,3.16
		c0.99,1.35,1.12,2.65,0.51,4.07C454.16,532.92,453.96,530.58,455.28,530.38z M456.1,527.42c-0.92,1.63-1.83,1.63-3.06,0.1
		C454.16,526.61,454.98,526,456.1,527.42z"/>
	<path d="M61.39,445.32c4.58-4.89,10.08-8.76,15.79-12.22C70.05,434.73,64.65,438.7,61.39,445.32z"/>
	<path d="M483.39,199.03c10.89-10.44,7.28-6.36,15.58-12.43C491.95,188.43,486.55,192.41,483.39,199.03z"/>
	<path d="M55.69,452.96c-2.34,3.16-5.3,14.67-5.4,21.19C52.22,466.71,53.85,460.09,55.69,452.96z"/>
	<path d="M478.3,205.95c-2.85,5.91-4.07,12.33-4.79,18.84C475.45,218.58,476.67,212.27,478.3,205.95z"/>
	<path d="M509.57,309.14c0.2,3.16,2.75,1.94,4.38,2.55C513.24,309.54,510.79,310.36,509.57,309.14z"/>
	<path d="M106.21,213.08c0.33-5.96,5.28-5.02,7.64-9.47c-1.08-4.88-0.68-1.32-7.03,2.65c-5.71,3.57-1.82,10.13-2.34,11
		c-0.71,1.71-2.44-2.57-2.44,3.26c0,0.92,0.41,2.14,0,2.65c-2.04,2.85-0.72,5.71-0.2,8.56c0.5,2.75,0,5.6,0.51,8.96
		c5.08-7.73-1.54-11.16,1.32-18.33c2.04,3.87,3.37,7.23,3.97,10.9c2.33,14.17,12.29,36.65,14.46,46.75c2,9.28-1.51,11.29,1.22,15.58
		C133.98,292.45,105.36,228.24,106.21,213.08z"/>
	<path d="M201.86,309.85c3.16-1.73,2.65-4.69-2.04-9.78c3.37-8.17-0.61-10.09,0.71-12.73c1.22-2.45,0.61-4.28-0.92-17.42
		c0-0.91-2.43-0.42-1.83,2.85c1.29,11.08-0.84,13.69,0.31,14.87c2.19,2.26-0.12,8.74-0.92,10.8c-2.04-3.16-1.83-7.13-4.48-10.08
		c-0.41,3.36-0.9,6.3,1.53,9.57C202.96,309.73,199.94,308.78,201.86,309.85z"/>
	<path d="M183.21,345.09c-1.24-16.03,22.59-25.32,19.86-34.43c-2.24,3.67-3.67,7.33-6.21,10.39c-8.44,0.38-12.98,12.99-15.58,18.33
		c-1.28,2.62-0.61,5.6-0.41,8.76C182.81,347.64,183.31,346.32,183.21,345.09z"/>
	<path d="M197.58,344.07c-0.31-3.97-4.07-6.62-2.55-10.8c-2.85,1.02-2.65,3.16-2.44,5.09c0.59,5.47,7.94,6.33,3.87,14.46
		c1.27,4.45,0.23,4.22,1.32,5.09c1.73-0.31,2.34-1.63,1.83-2.85C198.15,350.92,203.68,347.94,197.58,344.07z"/>
	<path d="M180.57,362.51c2.14,5.09,0.31,11.2,4.07,15.99C190.8,377.04,184.7,365.73,180.57,362.51z"/>
	<path d="M111.2,277.05c1.22,5.41-9.21,18.38-7.03,20.78c3.21,1.15,7.37-14.55,8.35-16.09C113.64,280.21,113.85,278.27,111.2,277.05
		z"/>
	<path d="M176.7,355.69c0.68,2.05,0.51,4.69,3.16,6.32c1.73-2.95-0.8-4.89-1.32-7.13c-0.69-2.96-2.85-3.97-5.5-4.99
		C172.93,352.73,175.95,353.46,176.7,355.69z"/>
	<path d="M206.24,316.06c-2.34,2.14-1.83,4.48-2.34,7.33C206.03,321.16,206.74,319.22,206.24,316.06z"/>
	<path d="M202.87,331.44c0.51-1.83,1.63-3.57,1.94-6.01c-1.94,2.34-2.65,4.48-3.57,9.17C202.57,333.68,202.67,332.46,202.87,331.44z
		"/>
	<path d="M95.11,232.95c1.32-1.94,1.73-3.87,1.43-6.72C95,229.38,94.9,229.99,95.11,232.95z"/>
	<path d="M120.67,294.77c0.92-2.75-0.81-3.87-2.44-5.7C118.33,291.51,118.94,293.14,120.67,294.77z"/>
	<path d="M118.84,297.42c-0.41-1.73-0.41-3.67-1.83-5.6C116.29,294.67,118.02,295.89,118.84,297.42z"/>
	<path d="M115.07,283.67c0.31,1.53,0.81,2.85,1.63,4.18C117.82,284.59,117.82,284.59,115.07,283.67z"/>
	<path d="M209.6,289.58c-0.41,0.71-0.2,1.02,0.1,1.32C210.72,290.5,210.31,290.09,209.6,289.58z"/>
	<path d="M194.22,286.52c0.81,0,0.7-0.92-0.2-1.22C193.29,285.3,193.34,286.74,194.22,286.52z"/>
	<path d="M336.82,391.74c1.02,1.02-1.12,2.04,0.2,3.16c2.04-0.51,1.43-2.85,3.06-4.28c7.52-2.39,47.67-14.46,50.22-27.2
		c-13.75,14.46-32.09,19.35-50.01,24.85c-1.29-0.5-1.37-5.76-1.94,0.41c-2.55,2.04-6.62,1.63-9.27,5.09
		C332.13,393.07,334.17,391.34,336.82,391.74z"/>
	<path d="M325.41,400.91c23.53-4.07,44.31-13.85,61.73-30.35C369.21,386.04,347.51,393.88,325.41,400.91z"/>
	<path d="M311.56,336.84c11.44,11.04,20.2,20.6,11.71,41.25C339.66,372.63,319.34,332.95,311.56,336.84z"/>
	<path d="M366.15,401.32c7.95,0.2,21.39-11.2,21.49-17.93C382.86,391.85,375.32,396.94,366.15,401.32z"/>
	<path d="M284.36,367.5c-4.48,6.82-10.49,12.73-15.08,19.66C275.81,381.76,280.69,375.04,284.36,367.5z"/>
	<path d="M318.18,395.72c5.09-1.02,7.13-5.3,4.89-9.57C321.54,389.4,321.03,392.97,318.18,395.72z"/>
	<path d="M345.88,363.63c4.28-0.41,10.59-3.26,12.94-5.6C354.44,359.86,350.16,361.8,345.88,363.63z"/>
	<path d="M388.67,351.51c-0.92,2.65,1.02,4.18,1.22,6.11C391.11,355.38,390.6,353.55,388.67,351.51z"/>
	<path d="M281.31,365.06c2.35-0.47,2.91-1.12,3.19-4.02C284.57,360.25,285.25,358.95,281.31,365.06z"/>
	<path d="M284.16,346.11c-0.81,1.63-0.81,1.63,1.02,2.65C285.99,347.33,285.07,346.72,284.16,346.11z"/>
	<path d="M434.3,431.27c-2.55,2.34-7.74,20.58-6.93,24.55C430.73,447.77,435.01,440.23,434.3,431.27z"/>
	<path d="M408.22,378.6c3.77,0.2,6.01,3.36,9.27,4.38C419.53,384,416.66,375.85,408.22,378.6z"/>
	<path d="M430.43,403.25c-0.81,2.95,0,6.52,2.75,12.22C432.57,411.3,432.46,407.02,430.43,403.25z"/>
	<path d="M436.84,392.36c1.94-2.55,1.43-4.18-2.85-8.86C434.3,386.96,435.42,389.61,436.84,392.36z"/>
	<path d="M404.56,379.32c-4.07-3.46-6.42-3.67-7.84-0.41C399.56,379.01,402.01,378.6,404.56,379.32z"/>
	<path d="M412.91,402.75c2.85-2.65,3.87-6.21,6.42-8.76C415.86,395,412.81,399.18,412.91,402.75z"/>
	<path d="M427.27,484.84c-1.53,2.14-2.44,3.87-1.53,6.01C428.09,489.33,428.09,489.22,427.27,484.84z"/>
	<path d="M428.19,474.15c-1.63,2.14-1.02,4.28-0.61,6.32C429.51,477.71,429.51,477.41,428.19,474.15z"/>
	<path d="M432.16,375.24c0.61,2.24,0.51,4.69,2.24,6.93C435.22,380.03,435.22,380.03,432.16,375.24z"/>
	<path d="M432.67,417.21c-0.51,2.44-0.41,4.38,0.81,6.62C434.71,421.28,434.71,420.67,432.67,417.21z"/>
	<path d="M422.89,385.12c-1.53,2.24-2.55,3.87-2.75,6.42C422.69,390.01,423.2,388.08,422.89,385.12z"/>
	<path d="M428.39,467.43c-1.53,1.53-1.32,2.85-1.02,4.18C428.39,470.58,428.49,469.36,428.39,467.43z"/>
	<path d="M430.63,370.76c0.92-0.31,1.53-0.92,1.02-1.94C429.5,368.83,430,371.39,430.63,370.76z"/>
	<path d="M66.99,419.35c1.73-5.3,2.75-10.59,2.14-16.09C66.48,408.45,65.97,413.85,66.99,419.35z"/>
	<path d="M228.54,414.05c3.36-1.32,3.87-7.74,1.02-12.32C227.73,405.9,230.58,410.18,228.54,414.05z"/>
	<path d="M239.03,412.73c2.04-2.44,2.75-5.19,2.24-8.96C238.25,406.03,240.12,407.67,239.03,412.73z"/>
	<path d="M164.27,417.72c0.51-1.43,0.41-2.95-0.1-4.69C163.25,415.48,163.25,415.48,164.27,417.72z"/>
	<path d="M243.11,375.35c2.75,1.6,26.17-19.55,17.42-30.05C263.06,362.64,242.53,372.14,243.11,375.35z"/>
	<path d="M236.18,328.29c2.85,4.18,6.82,7.54,8.45,12.53C243.72,335.42,241.27,331.04,236.18,328.29z"/>
	<path d="M250.65,353.85c-2.75,6.01-5.4,12.02-8.05,18.03C246.78,366.48,248.3,359.96,250.65,353.85z"/>
	<path d="M109.47,379.72c6.25,2.03,4.25,3.61,6.32,3.61c0.87,0,1.1-0.05,0.65-0.72C113.02,375.75,102.46,377.45,109.47,379.72z"/>
	<path d="M147.26,326.96c3.87-2.04,8.15-3.46,12.02-5.5C154.59,321.77,150.52,323.5,147.26,326.96z"/>
	<path d="M114.56,353.04c-4.38,1.22-7.23,4.28-9.78,7.64C106.72,360.47,111.71,356.3,114.56,353.04z"/>
	<path d="M120.37,347.94c-3.36,0.2-3.46,3.97-5.81,4.99C118.43,352.63,119.76,351.51,120.37,347.94z"/>
	<path d="M130.35,351.2c-3.77-1.53-5.5-1.32-7.33,0.92C125.66,353.04,127.91,351.1,130.35,351.2z"/>
	<path d="M166.2,326.66c-1.22-0.61-2.04-0.2-2.95,1.22C164.88,327.98,165.7,327.88,166.2,326.66z"/>
	<path d="M160.94,320.23c0.1-0.13,0.16-0.12-0.33,0C158.29,320.78,159.36,322.42,160.94,320.23z"/>
	<path d="M353.01,507.15c-1.9,1.9-1.9,2.07-0.31,4.48C355.36,509.8,355.36,509.39,353.01,507.15z"/>
	<path d="M361.88,499.82c0-1.63-0.92-2.34-2.44-2.65C357.13,498.4,359.85,502.52,361.88,499.82z"/>
	<path d="M351.28,521c0.92,1.02,2.04,0.92,3.06,0.92C353.52,521,352.51,520.6,351.28,521z"/>
	<path d="M48.45,404.99c-1.43,1.83-1.73,3.67-2.34,5.81C48.15,408.86,48.35,408.45,48.45,404.99z"/>
	<path d="M487.27,71.6c-1.8-5.68,6.11-15.28,12.63-11.82c-4.18,1.94-6.18,5.3-6.62,9.68c-0.47,4.69,3.36,6.93,6.32,10.39
		c-3.77,0-6.62-0.1-9.37-0.92c-0.1,1.22,0.93,1.71,1.83,2.24c6.71,3.9,18.66-1.71,16.91-5.5c-1.32-0.1-1.43,1.11-2.04,1.63
		c-8.3,7.05-18.44-9.72-6.01-16.2c3.34-1.74,1.59-1.85,6.52,1.32c-1.02-3.06-4.28-4.79-9.68-5.19c-7.27-0.55-17.66,9.93-8.81,19.7
		C488.36,75.17,487.83,73.39,487.27,71.6z"/>
	<path d="M526.58,135.26c3.16,1.53,6.32,2.44,8.96,4.58C534.63,136.08,529.94,133.73,526.58,135.26z"/>
	<path d="M534.22,111.43c-4.18,1.02-6.93,3.97-9.78,7.54C526.79,118.46,530.76,115.2,534.22,111.43z"/>
	<path d="M564.88,86.98c3.26-1.63,6.62-2.75,9.57-4.79C570.69,82.6,567.33,83.93,564.88,86.98z"/>
	<path d="M539.42,106.84c-3.16,0-3.16,3.57-5.3,4.58C537.89,111.02,538.91,110.1,539.42,106.84z"/>
	<path d="M548.48,109.7c-2.24-1.43-4.48-1.12-6.82,0.61C544.31,111.83,546.34,109.7,548.48,109.7z"/>
	<path d="M613.37,87.18c1.53-0.1,2.24-0.51,3.46-1.32C615.2,85.55,614.49,86.06,613.37,87.18z"/>
	<path d="M519.96,71.09c-0.61,0.81-0.61,0.81,0.2,2.14C520.47,72.21,520.68,71.6,519.96,71.09z"/>
	<path d="M581.79,87.18c-0.71-0.81-1.12-0.71-1.63,0.41C581.18,88.1,581.49,87.69,581.79,87.18z"/>
	<path d="M647.8,141.68c2.14,9.98,2.75,20.07-0.1,30.35C655.13,172.03,652.25,144.28,647.8,141.68z"/>
	<path d="M655.03,179.16c3.26-4.18,4.58-24.04,1.94-28.93C657.88,160.12,657.17,169.39,655.03,179.16z"/>
	<path d="M637.51,148.3c1.32,6.62,4.69,12.12,4.48,19.15C644.54,163.68,641.58,151.76,637.51,148.3z"/>
	<path d="M643.31,180.18c1.83-3.46,2.04-6.93,0.2-10.29C642.8,173.36,641.89,176.72,643.31,180.18z"/>
	<path d="M590.14,114.69c1.12,2.75,1.94,5.3,3.77,7.95C595.13,119.27,593.81,116.72,590.14,114.69z"/>
	<path d="M645.56,130.58l0.1-0.1C645.53,130.44,645.56,130.4,645.56,130.58z"/>
	<path d="M645.56,130.44c0-2.56-0.29-8.03-2.75-8.73C644.25,129.69,644.27,130.15,645.56,130.44z"/>
	<path d="M656.05,145.75c1.32-2.65,0.51-5.6,0.81-8.45C655.13,139.95,655.44,142.9,656.05,145.75z"/>
	<path d="M647.59,139.23c0.1-3.16,0-6.11-2.04-8.66C645.86,133.53,645.35,136.69,647.59,139.23z"/>
	<path d="M641.07,178.55c0.71-1.73-0.31-2.95-0.71-4.18C639.95,175.8,639.85,177.13,641.07,178.55z"/>
	<path d="M655.03,128.03c-0.92,1.32-0.51,1.94,0.41,2.55C656.15,129.66,655.84,129.05,655.03,128.03z"/>
	<path d="M648.2,175.8c1.22-0.51,0.81-1.32,0.71-2.14C647.69,174.27,648.1,175.09,648.2,175.8z"/>
	<path d="M642.7,121.82c0-0.71,0.1-1.53-0.92-1.94C641.79,120.7,641.99,121.41,642.7,121.82z"/>
	<path d="M743.34,150.74c1.83-0.41,1.32-2.44,2.44-3.77c16.32-5.29,30.11-8.9,43.49-20.07c1.83-1.53,3.67-2.95,4.18-5.6
		c-12.94,13.55-30.15,18.23-47.06,23.33c-1.12-0.61-0.1-1.94-1.22-2.44c-0.92,0.81,0.2,2.04-0.71,2.85
		c-2.44,1.94-6.21,1.43-8.56,4.99C747.99,145.28,741.47,149.18,743.34,150.74z"/>
	<path d="M789.28,128.74c-16.6,13.95-36.36,21.39-56.74,27.5C745.58,157.16,782.66,139.03,789.28,128.74z"/>
	<path d="M712.17,134.65c-1.83,0-2.75,0.71-3.77,1.43c-1.02,4.79-1.02,4.79-6.21,10.7C712.5,148.25,710.33,138.7,712.17,134.65z"/>
	<path d="M771.76,156.96c8.56-1.43,18.64-10.19,19.56-16.81C781.72,153.2,779.25,151.61,771.76,156.96z"/>
	<path d="M730.3,142.39c-1.32,3.36-2.04,6.52-4.18,8.96C730.2,151.05,732.24,147.08,730.3,142.39z"/>
	<path d="M763.71,117.03c-0.5-0.99,1.03-1.07-11.92,4.38C752.37,123.12,762.15,117.87,763.71,117.03z"/>
	<path d="M792.03,110.51c-0.2,2.34-0.2,2.34,1.53,5.5C793.96,113.57,794.17,111.73,792.03,110.51z"/>
	<path d="M683.45,139.44c-2.44,0.71-3.06,2.44-3.77,4.07C681.51,142.9,682.84,141.78,683.45,139.44z"/>
	<path d="M834.91,185.07c-2.14,2.24-7.03,19.15-6.52,23.33C831.75,200.45,835.73,193.53,834.91,185.07z"/>
	<path d="M810.47,135.47c3.36,0.71,5.81,3.46,9.27,3.97C818,135.57,815.15,134.35,810.47,135.47z"/>
	<path d="M833.89,170.2c-0.41-3.87-0.71-7.74-2.55-11.41C830.53,161.44,831.86,166.53,833.89,170.2z"/>
	<path d="M837.56,148.3c1.63-2.34,1.32-3.46-2.85-8.25C835.22,143.51,835.93,145.96,837.56,148.3z"/>
	<path d="M814.85,158.28c2.65-2.44,3.67-5.7,6.52-8.45C817.49,151.25,814.74,154.92,814.85,158.28z"/>
	<path d="M806.9,136.08c-3.77-3.16-5.7-3.26-7.33-0.51C802.01,136.08,804.46,135.26,806.9,136.08z"/>
	<path d="M828.39,231.62c2.04-2.24,2.14-2.75,0.71-6.32C827.88,227.55,828.19,229.48,828.39,231.62z"/>
	<path d="M828.39,235.9c-1.63,1.53-2.14,3.16-1.32,5.5C829.11,239.26,829.11,239.26,828.39,235.9z"/>
	<path d="M834.1,177.84c1.43-2.04,1.32-2.65-0.71-5.91C832.67,174.27,833.28,176.01,834.1,177.84z"/>
	<path d="M824.01,142.19c-0.92,1.63-2.14,3.26-2.44,5.7C824.22,146.36,824.42,144.43,824.01,142.19z"/>
	<path d="M833.08,132.41c0.41,2.14,0.41,4.38,2.04,6.32C835.73,136.89,835.73,136.89,833.08,132.41z"/>
	<path d="M829.41,219.6c-1.63,1.02-1.22,2.14-1.12,3.77C829.62,222.05,829.51,220.93,829.41,219.6z"/>
	<path d="M832.77,126.81c-1.15-1.15-1.7,0.36-1.94,1.53C832.06,128.23,832.67,127.72,832.77,126.81z"/>
	<path d="M489.3,173.97c1.73-4.89,2.55-9.88,1.94-15.08C488.79,163.68,488.28,168.67,489.3,173.97z"/>
	<path d="M772.17,272.87c11.12,1.1,21.68,4.67,32.49,6.93c2.79,0.58,9.12-1.26-42.98-9.17
		C764.95,272.33,768.57,272.52,772.17,272.87z"/>
	<path d="M758.11,256.27c-1.25,1.57-1.21,2.83-0.51,3.97C759.78,261.34,761.61,258.14,758.11,256.27z"/>
	<path d="M766.97,249.24c-0.51-1.22-1.12-2.24-2.75-2.04C762.58,249.14,765.56,252.07,766.97,249.24z"/>
	<path d="M761.67,270.74v-0.1C761.55,270.63,761.58,270.64,761.67,270.74z"/>
	<path d="M760.54,270.12c-1.31-0.34-0.87-0.71-1.21-0.71c-0.04,0-0.94,0-2.03,0C759.5,271.31,763.44,270.87,760.54,270.12z"/>
	<path d="M471.68,160.83c-1.12,1.43-1.43,3.06-1.94,4.79C471.58,163.88,471.58,163.88,471.68,160.83z"/>
<path fill="#e6e6e6" d="m206.8 163.6c0-5.1 4.1-9.2 9.3-9.2s9.2 4.2 9.2 9.2-4.1 9.2-9.3 9.2-9.2-4.1-9.2-9.2zm17.3-.1c0-4.5-3.5-8.2-8.2-8.2s-8.2 3.7-8.2 8.3c0 4.5 3.5 8.2 8.2 8.2s8.2-3.7 8.2-8.3zm-13 0c0-2.8 2.1-5.1 5.1-5.1 1.9 0 2.9.6 3.9 1.5l-1.4 1.7c-.8-.7-1.5-1.1-2.5-1.1-1.7 0-2.8 1.4-2.8 3.1s1.1 3 2.8 3c1.1 0 1.7-.5 2.5-1.1l1.4 1.4c-1.1 1.1-2.1 1.7-4 1.7-2.9 0-5-2.3-5-5.1z"/><path fill="#e6e6e6" d="m226.6 154.7h3.4l4.2 13.2 4.4-13.3h2.6l4.4 13.3 4.2-13.2h3.3l-6.2 18h-2.7l-4.4-12.8-4.4 12.8h-2.7z"/><path fill="#e6e6e6" d="m252.8 165.8c0-3.9 3.1-7 7.2-7 4.2 0 7.2 3.2 7.2 7s-3.1 7-7.3 7c-4 0-7.1-3.1-7.1-7zm11.3 0c0-2.3-1.7-4.3-4.2-4.3s-4.1 2-4.1 4.3 1.7 4.3 4.1 4.3c2.7.1 4.2-1.9 4.2-4.3z"/><path fill="#e6e6e6" d="m269.5 159.1h3.1v3c.8-2 2.4-3.4 4.8-3.3v3.2h-.2c-2.7 0-4.6 1.7-4.6 5.4v5.1h-3.1z"/><path fill="#e6e6e6" d="m279.1 153.9h3.1v11.1l5.6-6h3.8l-5.4 5.5 5.5 8h-3.5l-4.1-5.8-1.9 2v3.9h-3.1z"/><path fill="#e6e6e6" d="m291.7 165.8c0-3.9 3.1-7 7.2-7 4.2 0 7.2 3.2 7.2 7s-3.1 7-7.3 7c-4 0-7.1-3.1-7.1-7zm11.3 0c0-2.3-1.7-4.3-4.2-4.3s-4.1 2-4.1 4.3 1.7 4.3 4.1 4.3c2.6.1 4.2-1.9 4.2-4.3z"/><path fill="#e6e6e6" d="m308.2 167.6v-8.6h3.1v7.6c0 2.1 1.1 3.3 2.9 3.3s3-1.3 3-3.3v-7.6h3.1v13.4h-3.1v-2.1c-.8 1.3-2.1 2.3-4.2 2.3-3.1.2-4.8-1.8-4.8-5z"/><path fill="#e6e6e6" d="m323.9 168.8v-7.1h-1.7v-2.6h1.7v-3.7h3.1v3.7h3.6v2.6h-3.6v6.6c0 1.2.6 1.7 1.7 1.7.7 0 1.3-.2 1.9-.5v2.5c-.8.5-1.7.7-2.8.7-2.3 0-3.9-.9-3.9-3.9z"/><path fill="#e6e6e6" d="m333.2 154.7h3.2v15h9.4v2.9h-12.5v-17.9z"/><path fill="#e6e6e6" d="m356 172.5v-1.7c-.9 1.1-2.3 2-4.4 2-2.6 0-4.8-1.4-4.8-4.2 0-3 2.3-4.4 5.4-4.4 1.7 0 2.6.2 3.7.5v-.2c0-1.9-1.2-2.9-3.3-2.9-1.5 0-2.6.3-3.9.8l-.8-2.5c1.5-.7 2.9-1.1 5.1-1.1 4 0 5.9 2.1 5.9 5.7v8zm.1-5.6c-.8-.3-1.9-.5-3.1-.5-2 0-3.1.8-3.1 2.1s1.1 2 2.6 2c2 0 3.5-1.1 3.5-2.9z"/><path fill="#e6e6e6" d="m364.9 170.5v2.1h-3.1v-18.7h3.1v7.4c1-1.4 2.4-2.5 4.5-2.5 3.2 0 6.3 2.5 6.3 7s-3.1 7-6.3 7c-2.1 0-3.5-1.1-4.5-2.3zm7.7-4.7c0-2.6-1.7-4.3-3.9-4.3s-3.9 1.7-3.9 4.4c0 2.6 1.8 4.3 3.9 4.3s3.9-1.7 3.9-4.4z"/><path fill="#e6e6e6" d="m376.9 170.8 1.4-2.1c1.4 1.1 3 1.7 4.4 1.7s2.1-.5 2.1-1.5-1.3-1.4-2.8-1.8c-.1 0-.2-.1-.2-.1-2-.6-4.2-1.4-4.2-4s2.1-4.1 4.8-4.1c1.7 0 3.5.6 5 1.5l-1.2 2.2c-1.3-.8-2.6-1.3-3.8-1.3s-1.9.5-1.9 1.4 1.3 1.4 2.8 1.8c.1 0 .2.1.2.1 2 .6 4.2 1.5 4.2 4 0 2.9-2.2 4.2-5 4.2-1.9 0-4-.7-5.8-2z"/><path fill="#e6e6e6" d="m505.6 163.6c0-5.1 4.1-9.2 9.3-9.2s9.2 4.2 9.2 9.2-4.1 9.2-9.3 9.2-9.2-4.1-9.2-9.2zm17.4-.1c0-4.5-3.5-8.2-8.2-8.2s-8.2 3.7-8.2 8.3c0 4.5 3.5 8.2 8.2 8.2s8.2-3.7 8.2-8.3zm-13.1 0c0-2.8 2.1-5.1 5.1-5.1 1.9 0 2.9.6 3.9 1.5l-1.4 1.7c-.8-.7-1.5-1.1-2.5-1.1-1.7 0-2.8 1.4-2.8 3.1s1.1 3 2.8 3c1.1 0 1.7-.5 2.5-1.1l1.4 1.4c-1.1 1.1-2.1 1.7-4 1.7-2.9 0-5-2.3-5-5.1z"/><path fill="#e6e6e6" d="m525.4 154.7h3.4l4.2 13.2 4.4-13.3h2.6l4.4 13.3 4.2-13.2h3.3l-6.2 18h-2.7l-4.4-12.8-4.4 12.8h-2.7z"/><path fill="#e6e6e6" d="m551.7 165.8c0-3.9 3.1-7 7.2-7 4.2 0 7.2 3.2 7.2 7s-3.1 7-7.3 7c-4.1 0-7.1-3.1-7.1-7zm11.2 0c0-2.3-1.7-4.3-4.2-4.3s-4.1 2-4.1 4.3 1.7 4.3 4.1 4.3c2.7.1 4.2-1.9 4.2-4.3z"/><path fill="#e6e6e6" d="m568.3 159.1h3.1v3c.8-2 2.4-3.4 4.8-3.3v3.2h-.2c-2.7 0-4.6 1.7-4.6 5.4v5.1h-3.1z"/><path fill="#e6e6e6" d="m577.9 153.9h3.1v11.1l5.6-6h3.8l-5.4 5.5 5.5 8h-3.5l-4.1-5.8-1.9 2v3.9h-3.1z"/><path fill="#e6e6e6" d="m590.6 165.8c0-3.9 3.1-7 7.2-7 4.2 0 7.2 3.2 7.2 7s-3.1 7-7.3 7c-4.1 0-7.1-3.1-7.1-7zm11.2 0c0-2.3-1.7-4.3-4.2-4.3s-4.1 2-4.1 4.3 1.7 4.3 4.1 4.3c2.6.1 4.2-1.9 4.2-4.3z"/><path fill="#e6e6e6" d="m607 167.6v-8.6h3.1v7.6c0 2.1 1.1 3.3 2.9 3.3s3-1.3 3-3.3v-7.6h3.1v13.4h-3.1v-2.1c-.8 1.3-2.1 2.3-4.2 2.3-3 .2-4.8-1.8-4.8-5z"/><path fill="#e6e6e6" d="m622.7 168.8v-7.1h-1.7v-2.6h1.7v-3.7h3.1v3.7h3.6v2.6h-3.6v6.6c0 1.2.6 1.7 1.7 1.7.7 0 1.3-.2 1.9-.5v2.5c-.8.5-1.7.7-2.8.7-2.3 0-3.9-.9-3.9-3.9z"/><path fill="#e6e6e6" d="m632 154.7h3.2v15h9.4v2.9h-12.6z"/><path fill="#e6e6e6" d="m654.8 172.5v-1.7c-.9 1.1-2.3 2-4.4 2-2.6 0-4.8-1.4-4.8-4.2 0-3 2.3-4.4 5.4-4.4 1.7 0 2.6.2 3.7.5v-.2c0-1.9-1.2-2.9-3.3-2.9-1.5 0-2.6.3-3.9.8l-.8-2.5c1.5-.7 2.9-1.1 5.1-1.1 4 0 5.9 2.1 5.9 5.7v8zm.1-5.6c-.8-.3-1.9-.5-3.1-.5-2 0-3.1.8-3.1 2.1s1.1 2 2.6 2c2 0 3.5-1.1 3.5-2.9z"/><path fill="#e6e6e6" d="m663.7 170.5v2.1h-3.1v-18.7h3.1v7.4c1-1.4 2.4-2.5 4.5-2.5 3.2 0 6.3 2.5 6.3 7s-3.1 7-6.3 7c-2.1 0-3.5-1.1-4.5-2.3zm7.8-4.7c0-2.6-1.7-4.3-3.9-4.3-2.1 0-3.9 1.7-3.9 4.4 0 2.6 1.8 4.3 3.9 4.3s3.9-1.7 3.9-4.4z"/><path fill="#e6e6e6" d="m675.8 170.8 1.4-2.1c1.4 1.1 3 1.7 4.4 1.7s2.1-.5 2.1-1.5-1.3-1.4-2.8-1.8c-.1 0-.2-.1-.2-.1-2-.6-4.2-1.4-4.2-4s2.1-4.1 4.8-4.1c1.7 0 3.5.6 5 1.5l-1.2 2.2c-1.3-.8-2.6-1.3-3.8-1.3s-1.9.5-1.9 1.4 1.3 1.4 2.8 1.8c.1 0 .2.1.2.1 2 .6 4.2 1.5 4.2 4 0 2.9-2.2 4.2-5 4.2-2 0-4.1-.7-5.8-2z"/><path fill="#e6e6e6" d="m61 298.6c0-5.1 4.1-9.2 9.3-9.2s9.2 4.2 9.2 9.2-4.1 9.2-9.3 9.2c-5.1 0-9.2-4.2-9.2-9.2zm17.4-.1c0-4.5-3.5-8.2-8.2-8.2s-8.2 3.7-8.2 8.3c0 4.5 3.5 8.2 8.2 8.2s8.2-3.7 8.2-8.3zm-13.1-.1c0-2.8 2.1-5.1 5.1-5.1 1.9 0 2.9.6 3.9 1.5l-1.4 1.7c-.8-.7-1.5-1.1-2.5-1.1-1.7 0-2.8 1.4-2.8 3.1s1.1 3 2.8 3c1.1 0 1.7-.5 2.5-1.1l1.4 1.4c-1.1 1.1-2.1 1.7-4 1.7-2.8.1-5-2.2-5-5.1z"/><path fill="#e6e6e6" d="m80.9 289.7h3.4l4.2 13.2 4.4-13.3h2.6l4.4 13.3 4.2-13.2h3.3l-6.2 18h-2.7l-4.4-12.8-4.4 12.8h-2.7z"/><path fill="#e6e6e6" d="m107.1 300.8c0-3.9 3.1-7 7.2-7s7.2 3.2 7.2 7-3.1 7-7.3 7c-4 0-7.1-3.1-7.1-7zm11.3 0c0-2.3-1.7-4.3-4.2-4.3s-4.1 2-4.1 4.3 1.7 4.3 4.1 4.3c2.6.1 4.2-1.9 4.2-4.3z"/><path fill="#e6e6e6" d="m123.7 294h3.1v3c.8-2 2.4-3.4 4.8-3.3v3.2h-.2c-2.7 0-4.6 1.7-4.6 5.4v5.1h-3.1z"/><path fill="#e6e6e6" d="m133.4 288.9h3.1v11.1l5.6-6h3.8l-5.4 5.5 5.5 8h-3.5l-4.1-5.8-1.9 1.9v3.9h-3.1z"/><path fill="#e6e6e6" d="m146 300.8c0-3.9 3.1-7 7.2-7s7.2 3.2 7.2 7-3.1 7-7.3 7c-4.1 0-7.1-3.1-7.1-7zm11.2 0c0-2.3-1.7-4.3-4.2-4.3s-4.1 2-4.1 4.3 1.7 4.3 4.1 4.3c2.6.1 4.2-1.9 4.2-4.3z"/><path fill="#e6e6e6" d="m162.4 302.6v-8.6h3.1v7.6c0 2.1 1.1 3.3 2.9 3.3s3-1.3 3-3.3v-7.6h3.1v13.4h-3.1v-2.1c-.8 1.3-2.1 2.3-4.2 2.3-3 .2-4.8-1.8-4.8-5z"/><path fill="#e6e6e6" d="m178.1 303.8v-7.1h-1.7v-2.7h1.7v-3.7h3.1v3.7h3.6v2.6h-3.6v6.6c0 1.2.6 1.7 1.7 1.7.7 0 1.3-.2 1.9-.5v2.5c-.8.5-1.7.7-2.8.7-2.3.1-3.9-.9-3.9-3.8z"/><path fill="#e6e6e6" d="m187.4 289.7h3.2v15h9.4v2.9h-12.5v-17.9z"/><path fill="#e6e6e6" d="m210.2 307.5v-1.7c-.9 1.1-2.3 2-4.4 2-2.6 0-4.8-1.4-4.8-4.2 0-3 2.3-4.4 5.4-4.4 1.7 0 2.6.2 3.7.5v-.2c0-1.9-1.2-2.9-3.3-2.9-1.5 0-2.6.3-3.9.8l-.8-2.5c1.5-.7 2.9-1.1 5.1-1.1 4 0 5.9 2.1 5.9 5.7v8zm.1-5.6c-.8-.3-1.9-.5-3.1-.5-2 0-3.1.8-3.1 2.1s1.1 2 2.6 2c2 0 3.5-1.1 3.5-2.9z"/><path fill="#e6e6e6" d="m219.2 305.5v2.1h-3.1v-18.7h3.1v7.4c1-1.4 2.4-2.5 4.5-2.5 3.2 0 6.3 2.5 6.3 7s-3.1 7-6.3 7c-2.2 0-3.6-1.1-4.5-2.3zm7.7-4.7c0-2.6-1.7-4.3-3.9-4.3s-3.9 1.7-3.9 4.4c0 2.6 1.8 4.3 3.9 4.3s3.9-1.7 3.9-4.4z"/><path fill="#e6e6e6" d="m231.2 305.8 1.4-2.1c1.4 1.1 3 1.7 4.4 1.7s2.1-.5 2.1-1.5-1.3-1.4-2.8-1.8c-.1 0-.2-.1-.2-.1-2-.6-4.2-1.4-4.2-4s2.1-4.1 4.8-4.1c1.7 0 3.5.6 5 1.5l-1.2 2.2c-1.3-.8-2.6-1.3-3.8-1.3s-1.9.5-1.9 1.4 1.3 1.4 2.8 1.8c.1 0 .2.1.2.1 2 .6 4.2 1.5 4.2 4 0 2.9-2.2 4.2-5 4.2-2 0-4.1-.7-5.8-2z"/><path fill="#e6e6e6" d="m360.6 298.6c0-5.1 4.1-9.2 9.3-9.2s9.2 4.2 9.2 9.2-4.1 9.2-9.3 9.2-9.2-4.2-9.2-9.2zm17.4-.1c0-4.5-3.5-8.2-8.2-8.2s-8.2 3.7-8.2 8.3c0 4.5 3.5 8.2 8.2 8.2s8.2-3.7 8.2-8.3zm-13.1-.1c0-2.8 2.1-5.1 5.1-5.1 1.9 0 2.9.6 3.9 1.5l-1.4 1.7c-.8-.7-1.5-1.1-2.5-1.1-1.7 0-2.8 1.4-2.8 3.1s1.1 3 2.8 3c1.1 0 1.7-.5 2.5-1.1l1.4 1.4c-1.1 1.1-2.1 1.7-4 1.7-2.8.1-5-2.2-5-5.1z"/><path fill="#e6e6e6" d="m380.5 289.7h3.4l4.2 13.2 4.4-13.3h2.6l4.4 13.3 4.2-13.2h3.3l-6.2 18h-2.7l-4.4-12.8-4.4 12.8h-2.7z"/><path fill="#e6e6e6" d="m406.7 300.8c0-3.9 3.1-7 7.2-7 4.2 0 7.2 3.2 7.2 7s-3.1 7-7.3 7c-4.1 0-7.1-3.1-7.1-7zm11.3 0c0-2.3-1.7-4.3-4.2-4.3s-4.1 2-4.1 4.3 1.7 4.3 4.1 4.3c2.7.1 4.2-1.9 4.2-4.3z"/><path fill="#e6e6e6" d="m423.3 294h3.1v3c.8-2 2.4-3.4 4.8-3.3v3.2h-.2c-2.7 0-4.6 1.7-4.6 5.4v5.1h-3.1z"/><path fill="#e6e6e6" d="m433 288.9h3.1v11.1l5.6-6h3.8l-5.4 5.5 5.5 8h-3.5l-4.1-5.8-1.9 2v3.9h-3.1z"/><path fill="#e6e6e6" d="m445.6 300.8c0-3.9 3.1-7 7.2-7 4.2 0 7.2 3.2 7.2 7s-3.1 7-7.3 7c-4.1 0-7.1-3.1-7.1-7zm11.3 0c0-2.3-1.7-4.3-4.2-4.3s-4.1 2-4.1 4.3 1.7 4.3 4.1 4.3c2.6.1 4.2-1.9 4.2-4.3z"/><path fill="#e6e6e6" d="m462.1 302.6v-8.6h3.1v7.6c0 2.1 1.1 3.3 2.9 3.3s3-1.3 3-3.3v-7.6h3.1v13.4h-3.1v-2.1c-.8 1.3-2.1 2.3-4.2 2.3-3.1.2-4.8-1.8-4.8-5z"/><path fill="#e6e6e6" d="m477.8 303.8v-7.1h-1.8v-2.7h1.7v-3.7h3.1v3.7h3.6v2.6h-3.6v6.6c0 1.2.6 1.7 1.7 1.7.7 0 1.3-.2 1.9-.5v2.5c-.8.5-1.7.7-2.8.7-2.2.1-3.8-.9-3.8-3.8z"/><path fill="#e6e6e6" d="m487.1 289.7h3.2v15h9.4v2.9h-12.5v-17.9z"/><path fill="#e6e6e6" d="m509.9 307.5v-1.7c-.9 1.1-2.3 2-4.4 2-2.6 0-4.8-1.4-4.8-4.2 0-3 2.3-4.4 5.4-4.4 1.7 0 2.6.2 3.7.5v-.2c0-1.9-1.2-2.9-3.3-2.9-1.5 0-2.6.3-3.9.8l-.8-2.5c1.5-.7 2.9-1.1 5.1-1.1 4 0 5.9 2.1 5.9 5.7v8zm.1-5.6c-.8-.3-1.9-.5-3.1-.5-2 0-3.1.8-3.1 2.1s1.1 2 2.6 2c2 0 3.5-1.1 3.5-2.9z"/><path fill="#e6e6e6" d="m518.8 305.5v2.1h-3.1v-18.7h3.1v7.4c1-1.4 2.4-2.5 4.5-2.5 3.2 0 6.3 2.5 6.3 7s-3.1 7-6.3 7c-2.2 0-3.5-1.1-4.5-2.3zm7.7-4.7c0-2.6-1.7-4.3-3.9-4.3s-3.9 1.7-3.9 4.4c0 2.6 1.8 4.3 3.9 4.3s3.9-1.7 3.9-4.4z"/><path fill="#e6e6e6" d="m530.8 305.8 1.4-2.1c1.4 1.1 3 1.7 4.4 1.7s2.1-.5 2.1-1.5-1.3-1.4-2.8-1.8c-.1 0-.2-.1-.2-.1-2-.6-4.2-1.4-4.2-4s2.1-4.1 4.8-4.1c1.7 0 3.5.6 5 1.5l-1.2 2.2c-1.3-.8-2.6-1.3-3.8-1.3s-1.9.5-1.9 1.4 1.3 1.4 2.8 1.8c.1 0 .2.1.2.1 2 .6 4.2 1.5 4.2 4 0 2.9-2.2 4.2-5 4.2-1.9 0-4.1-.7-5.8-2z"/><path fill="#e6e6e6" d="m659.5 298.6c0-5.1 4.1-9.2 9.3-9.2s9.2 4.2 9.2 9.2-4.1 9.2-9.3 9.2-9.2-4.2-9.2-9.2zm17.3-.1c0-4.5-3.5-8.2-8.2-8.2s-8.2 3.7-8.2 8.3c0 4.5 3.5 8.2 8.2 8.2 4.8 0 8.2-3.7 8.2-8.3zm-13-.1c0-2.8 2.1-5.1 5.1-5.1 1.9 0 2.9.6 3.9 1.5l-1.4 1.7c-.8-.7-1.5-1.1-2.5-1.1-1.7 0-2.8 1.4-2.8 3.1s1.1 3 2.8 3c1.1 0 1.7-.5 2.5-1.1l1.4 1.4c-1.1 1.1-2.1 1.7-4 1.7-2.9.1-5-2.2-5-5.1z"/><path fill="#e6e6e6" d="m679.3 289.7h3.4l4.2 13.2 4.4-13.3h2.6l4.4 13.3 4.2-13.2h3.3l-6.2 18h-2.6l-4.4-12.8-4.4 12.8h-2.7z"/><path fill="#e6e6e6" d="m705.5 300.8c0-3.9 3.1-7 7.2-7 4.2 0 7.2 3.2 7.2 7s-3.1 7-7.3 7c-4 0-7.1-3.1-7.1-7zm11.3 0c0-2.3-1.7-4.3-4.2-4.3s-4.1 2-4.1 4.3 1.7 4.3 4.1 4.3c2.7.1 4.2-1.9 4.2-4.3z"/><path fill="#e6e6e6" d="m722.1 294h3.1v3c.8-2 2.4-3.4 4.8-3.3v3.2h-.2c-2.7 0-4.6 1.7-4.6 5.4v5.1h-3.1z"/><path fill="#e6e6e6" d="m731.8 288.9h3.1v11.1l5.6-6h3.8l-5.4 5.5 5.5 8h-3.5l-4.1-5.8-1.9 2v3.9h-3.1z"/><path fill="#e6e6e6" d="m744.4 300.8c0-3.9 3.1-7 7.2-7 4.2 0 7.2 3.2 7.2 7s-3.1 7-7.3 7c-4.1 0-7.1-3.1-7.1-7zm11.3 0c0-2.3-1.7-4.3-4.2-4.3s-4.1 2-4.1 4.3 1.7 4.3 4.1 4.3c2.6.1 4.2-1.9 4.2-4.3z"/><path fill="#e6e6e6" d="m760.9 302.6v-8.6h3.1v7.6c0 2.1 1.1 3.3 2.9 3.3s3-1.3 3-3.3v-7.6h3.1v13.4h-3.1v-2.1c-.8 1.3-2.1 2.3-4.2 2.3-3.1.2-4.8-1.8-4.8-5z"/><path fill="#e6e6e6" d="m776.6 303.8v-7.1h-1.7v-2.7h1.7v-3.7h3.1v3.7h3.6v2.6h-3.6v6.6c0 1.2.6 1.7 1.7 1.7.7 0 1.3-.2 1.9-.5v2.5c-.8.5-1.7.7-2.8.7-2.3.1-3.9-.9-3.9-3.8z"/><path fill="#e6e6e6" d="m785.9 289.7h3.2v15h9.4v2.9h-12.5v-17.9z"/><path fill="#e6e6e6" d="m808.7 307.5v-1.7c-.9 1.1-2.3 2-4.4 2-2.6 0-4.8-1.4-4.8-4.2 0-3 2.3-4.4 5.4-4.4 1.7 0 2.6.2 3.7.5v-.2c0-1.9-1.2-2.9-3.3-2.9-1.5 0-2.6.3-3.9.8l-.8-2.5c1.5-.7 2.9-1.1 5.1-1.1 4 0 5.9 2.1 5.9 5.7v8zm.1-5.6c-.8-.3-1.9-.5-3.1-.5-2 0-3.1.8-3.1 2.1s1.1 2 2.6 2c2 0 3.5-1.1 3.5-2.9z"/><path fill="#e6e6e6" d="m817.6 305.5v2.1h-3.1v-18.7h3.1v7.4c1-1.4 2.4-2.5 4.5-2.5 3.2 0 6.3 2.5 6.3 7s-3.1 7-6.3 7c-2.1 0-3.5-1.1-4.5-2.3zm7.7-4.7c0-2.6-1.7-4.3-3.9-4.3-2.1 0-3.9 1.7-3.9 4.4 0 2.6 1.8 4.3 3.9 4.3 2.2 0 3.9-1.7 3.9-4.4z"/><path fill="#e6e6e6" d="m829.6 305.8 1.4-2.1c1.4 1.1 3 1.7 4.4 1.7s2.1-.5 2.1-1.5-1.3-1.4-2.8-1.8c-.1 0-.2-.1-.2-.1-2-.6-4.2-1.4-4.2-4s2.1-4.1 4.8-4.1c1.7 0 3.5.6 5 1.5l-1.2 2.2c-1.3-.8-2.6-1.3-3.8-1.3s-1.9.5-1.9 1.4 1.3 1.4 2.8 1.8c.1 0 .2.1.2.1 2 .6 4.2 1.5 4.2 4 0 2.9-2.2 4.2-5 4.2-1.9 0-4-.7-5.8-2z"/><path fill="#e6e6e6" d="m206.3 434.2c0-5.1 4.1-9.2 9.3-9.2s9.2 4.2 9.2 9.2-4.1 9.2-9.3 9.2-9.2-4.1-9.2-9.2zm17.4-.1c0-4.5-3.5-8.2-8.2-8.2s-8.2 3.7-8.2 8.3c0 4.5 3.5 8.2 8.2 8.2s8.2-3.7 8.2-8.3zm-13.1-.1c0-2.8 2.1-5.1 5.1-5.1 1.9 0 2.9.6 3.9 1.5l-1.4 1.7c-.8-.7-1.5-1.1-2.5-1.1-1.7 0-2.8 1.4-2.8 3.1s1.1 3 2.8 3c1.1 0 1.7-.5 2.5-1.1l1.4 1.4c-1.1 1.1-2.1 1.7-4 1.7-2.9.1-5-2.2-5-5.1z"/><path fill="#e6e6e6" d="m226.1 425.3h3.4l4.2 13.2 4.4-13.3h2.6l4.4 13.3 4.2-13.2h3.3l-6.2 18h-2.7l-4.4-12.8-4.4 12.8h-2.7z"/><path fill="#e6e6e6" d="m252.4 436.4c0-3.9 3.1-7 7.2-7 4.2 0 7.2 3.2 7.2 7s-3.1 7-7.3 7c-4.1 0-7.1-3.1-7.1-7zm11.2 0c0-2.3-1.7-4.3-4.2-4.3s-4.1 2-4.1 4.3 1.7 4.3 4.1 4.3c2.7.1 4.2-1.9 4.2-4.3z"/><path fill="#e6e6e6" d="m269 429.7h3.1v3c.8-2 2.4-3.4 4.8-3.3v3.2h-.2c-2.7 0-4.6 1.7-4.6 5.4v5.1h-3.1z"/><path fill="#e6e6e6" d="m278.6 424.5h3.1v11.1l5.6-6h3.8l-5.4 5.5 5.5 8h-3.5l-4.1-5.8-1.9 2v3.9h-3.1z"/><path fill="#e6e6e6" d="m291.3 436.4c0-3.9 3.1-7 7.2-7 4.2 0 7.2 3.2 7.2 7s-3.1 7-7.3 7c-4.1 0-7.1-3.1-7.1-7zm11.2 0c0-2.3-1.7-4.3-4.2-4.3s-4.1 2-4.1 4.3 1.7 4.3 4.1 4.3c2.6.1 4.2-1.9 4.2-4.3z"/><path fill="#e6e6e6" d="m307.7 438.2v-8.6h3.1v7.6c0 2.1 1.1 3.3 2.9 3.3s3-1.3 3-3.3v-7.6h3.1v13.4h-3.1v-2.1c-.8 1.3-2.1 2.3-4.2 2.3-3 .2-4.8-1.8-4.8-5z"/><path fill="#e6e6e6" d="m323.4 439.4v-7.1h-1.7v-2.6h1.7v-3.7h3.1v3.7h3.6v2.6h-3.6v6.6c0 1.2.6 1.7 1.7 1.7.7 0 1.3-.2 1.9-.5v2.5c-.8.5-1.7.7-2.8.7-2.3 0-3.9-.9-3.9-3.9z"/><path fill="#e6e6e6" d="m332.7 425.3h3.2v15h9.4v2.9h-12.5v-17.9z"/><path fill="#e6e6e6" d="m355.5 443.1v-1.7c-.9 1.1-2.3 2-4.4 2-2.6 0-4.8-1.4-4.8-4.2 0-3 2.3-4.4 5.4-4.4 1.7 0 2.6.2 3.7.5v-.2c0-1.9-1.2-2.9-3.3-2.9-1.5 0-2.6.3-3.9.8l-.8-2.5c1.5-.7 2.9-1.1 5.1-1.1 4 0 5.9 2.1 5.9 5.7v8zm.1-5.6c-.8-.3-1.9-.5-3.1-.5-2 0-3.1.8-3.1 2.1s1.1 2 2.6 2c2 0 3.5-1.1 3.5-2.9z"/><path fill="#e6e6e6" d="m364.4 441.1v2.1h-3.1v-18.7h3.1v7.4c1-1.4 2.4-2.5 4.5-2.5 3.2 0 6.3 2.5 6.3 7s-3.1 7-6.3 7c-2.1 0-3.5-1.1-4.5-2.3zm7.7-4.7c0-2.6-1.7-4.3-3.9-4.3-2.1 0-3.9 1.7-3.9 4.4 0 2.6 1.8 4.3 3.9 4.3 2.2 0 3.9-1.7 3.9-4.4z"/><path fill="#e6e6e6" d="m376.5 441.4 1.4-2.1c1.4 1.1 3 1.7 4.4 1.7s2.1-.5 2.1-1.5-1.3-1.4-2.8-1.8c-.1 0-.2-.1-.2-.1-2-.6-4.2-1.4-4.2-4s2.1-4.1 4.8-4.1c1.7 0 3.5.6 5 1.5l-1.2 2.2c-1.3-.8-2.6-1.3-3.8-1.3s-1.9.5-1.9 1.4 1.3 1.4 2.8 1.8c.1 0 .2.1.2.1 2 .6 4.2 1.5 4.2 4 0 2.9-2.2 4.2-5 4.2-2 0-4.1-.7-5.8-2z"/><path fill="#e6e6e6" d="m505.1 434.2c0-5.1 4.1-9.2 9.3-9.2s9.2 4.2 9.2 9.2-4.1 9.2-9.3 9.2-9.2-4.1-9.2-9.2zm17.4-.1c0-4.5-3.5-8.2-8.2-8.2s-8.2 3.7-8.2 8.3c0 4.5 3.5 8.2 8.2 8.2s8.2-3.7 8.2-8.3zm-13.1-.1c0-2.8 2.1-5.1 5.1-5.1 1.9 0 2.9.6 3.9 1.5l-1.4 1.7c-.8-.7-1.5-1.1-2.5-1.1-1.7 0-2.8 1.4-2.8 3.1s1.1 3 2.8 3c1.1 0 1.7-.5 2.5-1.1l1.4 1.4c-1.1 1.1-2.1 1.7-4 1.7-2.9.1-5-2.2-5-5.1z"/><path fill="#e6e6e6" d="m525 425.3h3.4l4.2 13.2 4.4-13.3h2.6l4.4 13.3 4.2-13.2h3.3l-6.2 18h-2.7l-4.4-12.8-4.4 12.8h-2.7z"/><path fill="#e6e6e6" d="m551.2 436.4c0-3.9 3.1-7 7.2-7 4.2 0 7.2 3.2 7.2 7s-3.1 7-7.3 7c-4.1 0-7.1-3.1-7.1-7zm11.2 0c0-2.3-1.7-4.3-4.2-4.3s-4.1 2-4.1 4.3 1.7 4.3 4.1 4.3c2.7.1 4.2-1.9 4.2-4.3z"/><path fill="#e6e6e6" d="m567.8 429.7h3.1v3c.8-2 2.4-3.4 4.8-3.3v3.2h-.2c-2.7 0-4.6 1.7-4.6 5.4v5.1h-3.1z"/><path fill="#e6e6e6" d="m577.5 424.5h3.1v11.1l5.6-6h3.8l-5.4 5.5 5.5 8h-3.5l-4.1-5.8-1.9 2v3.9h-3.1z"/><path fill="#e6e6e6" d="m590.1 436.4c0-3.9 3.1-7 7.2-7 4.2 0 7.2 3.2 7.2 7s-3.1 7-7.3 7c-4.1 0-7.1-3.1-7.1-7zm11.2 0c0-2.3-1.7-4.3-4.2-4.3s-4.1 2-4.1 4.3 1.7 4.3 4.1 4.3c2.6.1 4.2-1.9 4.2-4.3z"/><path fill="#e6e6e6" d="m606.5 438.2v-8.6h3.1v7.6c0 2.1 1.1 3.3 2.9 3.3s3-1.3 3-3.3v-7.6h3.1v13.4h-3.1v-2.1c-.8 1.3-2.1 2.3-4.2 2.3-3 .2-4.8-1.8-4.8-5z"/><path fill="#e6e6e6" d="m622.2 439.4v-7.1h-1.7v-2.6h1.7v-3.7h3.1v3.7h3.6v2.6h-3.6v6.6c0 1.2.6 1.7 1.7 1.7.7 0 1.3-.2 1.9-.5v2.5c-.8.5-1.7.7-2.8.7-2.3 0-3.9-.9-3.9-3.9z"/><path fill="#e6e6e6" d="m631.5 425.3h3.2v15h9.4v2.9h-12.5v-17.9z"/><path fill="#e6e6e6" d="m654.3 443.1v-1.7c-.9 1.1-2.3 2-4.4 2-2.6 0-4.8-1.4-4.8-4.2 0-3 2.3-4.4 5.4-4.4 1.7 0 2.6.2 3.7.5v-.2c0-1.9-1.2-2.9-3.3-2.9-1.5 0-2.6.3-3.9.8l-.8-2.5c1.5-.7 2.9-1.1 5.1-1.1 4 0 5.9 2.1 5.9 5.7v8zm.1-5.6c-.8-.3-1.9-.5-3.1-.5-2 0-3.1.8-3.1 2.1s1.1 2 2.6 2c2 0 3.5-1.1 3.5-2.9z"/><path fill="#e6e6e6" d="m663.3 441.1v2.1h-3.1v-18.7h3.1v7.4c1-1.4 2.4-2.5 4.5-2.5 3.2 0 6.3 2.5 6.3 7s-3.1 7-6.3 7c-2.2 0-3.6-1.1-4.5-2.3zm7.7-4.7c0-2.6-1.7-4.3-3.9-4.3s-3.9 1.7-3.9 4.4c0 2.6 1.8 4.3 3.9 4.3s3.9-1.7 3.9-4.4z"/><path fill="#e6e6e6" d="m675.3 441.4 1.4-2.1c1.4 1.1 3 1.7 4.4 1.7s2.1-.5 2.1-1.5-1.3-1.4-2.8-1.8c-.1 0-.2-.1-.2-.1-2-.6-4.2-1.4-4.2-4s2.1-4.1 4.8-4.1c1.7 0 3.5.6 5 1.5l-1.2 2.2c-1.3-.8-2.6-1.3-3.8-1.3s-1.9.5-1.9 1.4 1.3 1.4 2.8 1.8c.1 0 .2.1.2.1 2 .6 4.2 1.5 4.2 4 0 2.9-2.2 4.2-5 4.2-2 0-4.1-.7-5.8-2z"/></g>
</svg>
