<?xml version="1.0" encoding="utf-8"?>
<!-- Generator: Adobe Illustrator 23.0.1, SVG Export Plug-In . SVG Version: 6.00 Build 0)  -->
<svg version="1.2" baseProfile="tiny" id="Layer_1" xmlns="http://www.w3.org/2000/svg" xmlns:xlink="http://www.w3.org/1999/xlink"
	 x="0px" y="0px" viewBox="0 0 900 600" xml:space="preserve">
<g>
	<path d="M711.61,426.79c0.51-0.51,1.43,0,1.94-0.92c-1.43-0.61,0.41-2.04-0.31-2.65c-1.43-0.82-2.55,0.1-3.77-0.2
		c2.06-4.11-1.66-6.06-3.57-8.87c0.51-0.51,1.43-0.31,1.33-1.22c-0.45-1.5-4.76-2.21-5.91-4.59c-1.29-2.67-3.16-4.69-5.4-6.02
		c-0.31-0.92,1.12-1.22,0-2.34c-2.73,1.56-4.49-4.62-10.2-4.18c-0.41-0.71-0.71-1.33-0.92-1.84c-2.55-0.1-4.59-1.73-7.04-1.73
		c0,2.07-0.02,2.19-0.61,2.45c-7.89,0.79-12.69,7.14-21.1,15.4c-4.41,4.33-1.83,5.86-9.89,12.85c-13.55,0.27-13.69-6.42-21.51-7.34
		c-13.19-1.55-15.25,0.6-28.45,2.45c-6.07,0.85-9.77,1.38-23.35,9.99c-18.23,11.56-17.16,7.95-29.67,16.11
		c-28.7,18.73-23.89,11.72-27.32,11.72c-3.88,0-8.11-4.57-14.38-4.18c-13.3,0.82-15.4,0.52-39.76,18.56c0,3.8,0.4-1.71-10.91,13.66
		c-3.22,4.37-9.68,7.74-14.68,9.89c-4.49,1.93-8.13,5.13-12.23,7.65c-2.03,1.24-3.16,3.06-2.14,5.61
		c-15.99,4.76-16.83,5.82-21.51,4.69c-47.08-11.36-37.51-2.54-87.07-1.84c-17.18,0.25-8.61-0.98-12.85-3.36
		c-2.55-0.82-5.41-3.07-9.07-2.04c-1.82,0.51,0.93-0.71-15.19-2.24c-3.16,5.51-4.59,11.11-3.47,17.54
		c-3.06-1.02-5.71-0.41-8.26,0.31c-2.55,0.71-5.3-0.92-7.95,0.71c-1.07,13.94,0.9,13.2,0.41,19.27c-0.16,1.97,2.59,4.67,4.59,6.42
		c5.96,5.23-0.72,4.36,3.98,15.29c0.43,1.01,0.7,2.04,0.92,3.06c1.6,7.61,14.4,24.85,28.14,23.35c15.4-1.68-9.15-14.77,7.44-39.66
		c0.31-0.41,0.31-1.12,0.51-1.63c0.1-1.12-1.43-1.43-1.22-2.55c9.07-2.9,36.18-0.29,45.68,0.71c46.64,4.91,48.38-0.82,52.3,0.1
		c6.21,1.45,33.48-0.39,40.48-3.57c2.52,5.25,6.62,12.22,7.34,17.64c0.47,3.56,4.27,6.54,7.34,2.35
		c6.34-8.67,39.03-16.63,42.82-24.57c1.08-2.26,2.95-3.58,5.1-4.59c5.08-2.38,10-5.08,15.29-7.14c6.53-2.54,10.45-11.06,10.6-17.84
		c2.04-0.1,3.67-1.12,5.1-2.24c1.73,0.51,3.37,0.34,5,0c5.9-1.22,8.71-0.21,11.93-0.61c23.53-1.59,28.19-9.15,26.2-4.18
		c-4.82,15.66-6.3,19.43-6.12,25.49c0.53,18-3.1,21.95,3.57,43.64c4.28,2.24,8.36,3.26,12.44,0.1c-7.88-1.43-10.61,1.06-12.03-5.1
		c-4.43-19.16-1.09-26.59-1.84-37.01c-0.83-11.63,7.85-24.68,5.4-29.57c1.63-1.73,1.63-1.84,2.55-1.84c7.38,0,14.45-4.76,16.72-4.59
		c2.4,5.76-2.75,3.14-2.75,10.5c0,10.27-2.97,15.89-7.04,26.2c-4.13,10.48-2.12,18.99-3.77,30.28c-1.22,1.33-1.22,1.33-1.84,3.26
		c1.73-0.31,3.06-1.43,4.89-1.12c1.25,10.03,0.51,13.74,1.33,20.9c1.17,10.29-1.22,5.55-0.61,13.05c0.26,3.16,2.96,5.93,5.51,5.3
		c2.86-0.7,5.61-0.55,8.36-0.51c3.77,0.05,7.33-1.45,11.11-1.02c1.12,0.13,2.34,0.4,3.47,0.1c5.71-1.49,11.26,1.39,14.58,0.92
		c0.82-0.82,2.24-1.22,3.47-1.53c0.82-0.71,0.51-2.14,1.84-2.45c1.33-0.31,1.53-1.53,1.63-2.85c-1.84-0.31-3.57-0.29-5.2-0.92
		c-7.85-3.02-14.62-3.38-14.89-3.77c-2.9-3.39-6.89-0.16-16.52-3.36c0.2-4.49,0.92-8.77,1.43-12.85c3.06-1.63,6.02-1.88,9.07-1.53
		c3.17,0.36,6.32-0.92,9.38,0.41c0.92-0.82,2.14-1.12,2.34-2.65c-12.87-6.32-21.18-2.1-17.64-9.48
		c21.11-44.01,9.48-37.21,15.4-49.04c9.19-18.38,5.91-24.84,10.91-40.48c1.79-5.61,4.44-3.72,10.5-13.87
		c2.83-4.73,3.89-0.83,12.54-2.85c12.67-2.96,15.4,14.4,21.82,3.16c2.24-0.31,4.18-1.02,5-3.57c2.14,1.63,2.45-1.02,3.77-1.53
		c1.02-0.2,2.04,0.51,3.57-0.31c2.24-2.55,2.45-6.73,4.79-9.79c4.76,0.92,5.26-6.32,9.28-9.38c5.96,3.58,6.05,5.2,11.72-0.1
		C715.08,428.01,712.33,428.22,711.61,426.79z M705.82,422.23c0.16-0.31,0.61-0.53,0.9-0.53c-0.77-2.3-0.92-2.03-0.31-1.76
		c1.66,0.71-0.64,0.9,1.34,2.88C706.96,424.39,705.02,423.51,705.82,422.23z M702.41,412.75c0.82-0.09,0.49,1.75-0.58,0.68
		C702.02,412.99,702.22,412.77,702.41,412.75z M700.4,424.55c-1.43-1.02-2.34-1.63-2.75-2.75
		C698.77,422.2,699.89,422.51,700.4,424.55z M692.92,420.26c0.17,0,0.78,0.11,1.37,0.41C692.17,421.45,690.6,420.09,692.92,420.26z
		 M691.32,413.03c0.41,0.82,1.43,1.63,0.51,2.85C690.81,414.96,691.22,413.94,691.32,413.03z M689.39,421.28
		c-1.22,0.41-2.24,0-3.36-0.51C687.65,420.26,687.65,420.26,689.39,421.28z M686.63,407.83c0.1,0.67-0.26,1.12-0.92,1.12
		C684.14,409.34,684.88,406.32,686.63,407.83z M683.68,402.12c0.22,0.31,0.42,0.8,0.39,1.26c-0.18,2.94-1.79-0.46-1.91-0.54
		C682.19,402.82,683.65,402.13,683.68,402.12z M679.6,399.26c-0.51,0.61-0.82,0.92-1.33,0.82
		C678.48,399.36,678.48,399.36,679.6,399.26z M673.07,407.01c-0.11,0.52,1.12,1.2,0.31,2.65
		C672.56,408.54,673.07,407.52,673.07,407.01z M669.51,413.84c0.31-0.51,0.71-0.41,1.02,0C671.37,414.68,669.3,415.31,669.51,413.84
		z M669.1,404.05c-0.51,1.53-1.12,0.82-2.34,0.61C667.98,403.85,668.49,403.85,669.1,404.05z M666.14,414.96
		c6.26-0.77-1.73,1.77-4.17,1.66C662.86,415.08,664.54,415.05,666.14,414.96z M665.02,420.26c0.2-1.84,0.61-2.85,2.14-3.16
		C667.47,419.04,667.47,419.04,665.02,420.26z M661.04,411.29c0,0.61-0.31,0.92-1.22,0.92
		C660.02,411.39,660.23,410.88,661.04,411.29z M659,418.94c0.52,1.05,0.37,1.5-0.1,2.04C658.19,420.06,658.9,419.75,659,418.94z
		 M300.9,523.36c0.83,0.08,1.4-0.55,1.97-0.94c0.2-0.92-0.82-1.63-0.61-2.65c0.71-0.82,1.94-0.71,2.96-1.22
		c-1.12-0.71-2.55-0.2-3.57-1.12c-0.61-1.43-0.1-2.96,0-4.28c0.34-0.58,0.81-0.62,1.31-0.61c63.08,0.64,55.04-9.15,96.57,1.02
		c-11.36,4.55-26.58-2.57-52.29,1.85c-6.22,1.07,1.83,1.58-21.82,6.42c-5.42,1.11-6.66-0.11-20.6,2.35
		c-2.44,0.43-4.87,0.39-7.24,0.2c0-5.05-6.6-2.87,1.73-10.51C298.09,518.03,300.64,523.32,300.9,523.36z M276.97,505.3
		c1.63-1.22,2.65,0.01,3.87,0.2c12.64,1.98,10.85,1.82,11.42,1.63c3.06-1.43,5.3,0.71,8.16,1.53c-2.86,5.01-11.95,8.86-4.69,15.6
		c-2.46,0.62-4.55-0.3-6.92-0.45c-2.04-0.13-3.11,0.95-1.04-1.81c0.5-0.67-0.46-2.7-4.38-2.62c-2.45,0.05-4.89,0.31-7.24,0
		C273.09,513.5,276.97,507.32,276.97,505.3z M289.51,537.72c-5.71-2.75-8.16-5.3-6.73-12.44c2.14,0.61,4.28,0.41,6.63,0.71
		C287.68,529.87,288.09,533.74,289.51,537.72z M289.31,550.56c1.88,2.83,4.38,3.78,7.65,3.67c0.33,0.87-0.43,1.85-0.53,1.85
		c-6.87-0.49-8.94,1.13-8.81,1.25c4.9,3.43,9.63-1.17,7.4,4.97c-4.58-2.3-10.08,2.82-0.51,1.33c0.29,0.95-0.1,3.56-0.2,3.66
		c-1.11,1.07-3.04-0.01-3.66,1.64c0.92,1.12,2.45,0.1,3.67,1.02c2.22,13.87,5.93,14.38,4.58,15.04c-6.12,2.97-13.54,0.58-16.1-2.91
		c-2.38-3.25-7.52-4.74-9.28-8.97c-1.06-2.55-2.66-2.94-3.98-6.63c-1.02-2.85-1.28-5.84-2.85-8.56c-0.89-1.54-0.69-3.46-0.2-5.2
		c1.16-4.19-2.24-6.9-6.02-10.81c-2.09-2.16-0.32-1.35-1.53-11.22c-0.29-2.35-0.51-4.79-0.31-7.24c9.18-0.41,17.94-2.34,27.63-2.65
		c-2.88,3.5-5.81,1.1-5.81,5.91c0,11.29,9.1,12.5,20.29,21.21C297.29,554.2,298.97,549.98,289.31,550.56z M429.81,542.61
		c-8.66,0-9.94,1.67-20.8,1.65c-5.61-0.01-7.65-0.7-9.49-0.74c-1.84-0.04-2.05,1.12-10.08,1.44c-19.13,0.76-41.94-2.46-54.52-3.29
		c-42.6-2.83-37.03,7.41-42.74-5.27c4.82-3.34,1.18-3.99,5.37-3.99c1.6,0,5.08-1.48,0.21-1.48c-1.11,0-2.22,0.07-3.04-0.04
		c-1.86,0-4.65,8.57-3.67-4.17c0-0.1-0.11-0.01,0.36,0.03c3.52,0.34,6.93-0.7,10.14,0.77c2.59,0.95,4.28-2.28,18.77-2.44
		c4.58-0.05,16.45-2.94,21.04-4.6c15.23-5.5,13.54-4.56,51.44-2.96c0.76,0.25,1.27,1.7,2.34,1.33c3.67-1.27,8.01-0.47,12.94-0.42
		c0.75,0.01-2.91-1.19-4.68-1.43c-6.86-0.92-6.18-0.18-0.04-1.8c31.25-8.26,10.75-14.35,33.69,19.44c-9.21,0.44,1.55,1.29-16.28-0.4
		c-3.01,0,9.52,4.86,17.4,2.23c1.02,1.22,1.33,2.35,1.43,3.98C436.43,541.9,433.07,542.82,429.81,542.61z M526.77,507.13
		c0.45,10.84-7.38,15.27-16.32,19.08c-22.87,9.72-8.34,8.15-21.7,14.57c-24.62,11.83-26.68,10.69-32.93,15.7
		c-4.85,3.88-4.82,8.07-5.81-1.33c-6.1-13.61-6.4-13.18-7.54-17.43c-1.61-5.97-2.87-2.59-15.29-27.94c-0.8-1.64-1.33-3.26-2.55-4.79
		c31.2-19.64,21.58-10.05,32.22-23.14c8.5-10.46,9.29-8.38,10.81-10.91c3.94-6.55,10.95-6.35,18.35-13.15
		c4.61-4.23,16.75-4.54,22.84-3.67c1.73,3.16,5.1,3.57,8.67,4.28c-1.79,3.97-1.32,7.84-2.55,13.05c2.2-1.8,1.38-3.77,2.65-5.4
		c0.7-0.1,0.82,0.69,1.41,0.81c0.9,0,2.29-1.02,2.57-3.15c2.92,4.58-2.33,2.83-3.47,6.63c1.4,0.41,2.31-0.64,3.26-1.09
		c1.12-0.53,0.67-0.76,1.34,4.56c-1.16,1.16-6.63,4.33-2.33,3.35c5.35-1.21-0.21-6.68,6.31,20.2c-0.88,0.79-1.83,0.21-2.55,0.61
		c0.88,1.76,2.45,1.26,3.67,2.04c-0.11,1.73-1.74,0.39-1.94,0.92c-0.81,0.81,1.02,1.62-0.61,2.14c-1.83-0.46-0.91-2.65-2.75-3.26
		c-0.22,1.97,1.25,3.45,1.63,4.79c2.14,0.82,3.98-0.41,6.22-0.41C529.52,505.91,527.68,506.01,526.77,507.13z M586.41,559.54
		c-1.42-2.55-1.43-3.13,0.2-5.3C586.82,556.07,586.82,557.7,586.41,559.54z M586.42,548.91c-0.24,0.24,0.28-7.53,0.5-9.26
		c2.1-16.73,9.87-18.92,8.97-33.44c-0.1-1.63,0.5-3.16,0.31-4.89c-0.1-0.92,0.31-2.24,1.63-3.16c0.1,1.99,0.1,3.76-0.71,5.61
		c3.16,3.36,1.62,6.83,0.1,10.09C583.9,542.48,589.01,546.31,586.42,548.91z M598.54,468.69c-5.61-2.55-7.54-5.81-7.34-12.44
		c3.47-0.92,6.73,1.73,10.4,0.41C599.66,460.65,599.35,464.78,598.54,468.69z M607.03,568.59c-1.27,0.96-3.08,0.76-4.4,1.75
		c-0.38-1.44,0.12-2.34,0.92-3.36C605.2,567.87,609.33,566.86,607.03,568.59z M617.2,567.59c0.15,0,0.29,0.08,0.39,0.22
		c0.97,1.35-4.1,0.69-7.73,0.69c-0.53-0.6-0.05-1.13,0.08-1.55c0.43-1.39-4.25-0.49-6.09-1.41
		C604.31,562.93,612.91,567.64,617.2,567.59z M632.09,465.33c-5.57,6.64-9.33,42.28-15.8,46.9c-4.05,13.17,8.49-6.16-10.5,38.23
		c-2.94,6.87-5.95,17.82-6.63,29.47c-0.33,5.64-1.97,5.18-1.22,8.16c1.13,0.61,1.63-0.49,2.45-0.76c1.39-0.46,7.38,2.13,12.44,1.16
		c0.82,1.33,2.96,1.22,2.75,3.26c5.81,1.84,11.93,0.61,17.64,2.75c-4.26,2.69-1.98-0.4-17.94-1.62c2.17,3.47,9.47,1.73,11.52,3.77
		c-0.04,0.01-26.56,1.02-36.7,1.02c-1.84-4.28-0.82-7.85,1.94-11.22c0.51-1.69-0.2-3.33-0.2-3.47c-2.5,0.89-0.96,12.04-2.65-16.92
		c-2.34-39.96,8.62-42.6,11.32-55.36c1.43-6.78-2.63-8.76-0.41-12.85c1.01-1.86-1.13-3.79-0.1-10.81
		c1.91-13.03-0.43-11.37,1.94-19.68c4.07-14.25,10.54-23.86,0.82-14.07c-2.55,0.92-5.49,0.66-8.16,1.53
		c-1.32,0.43-2.45-0.41-3.77-1.12c2.7-17.58,33.33-27.78,40.68-23.35C646.55,439.45,643.32,451.94,632.09,465.33z M621.47,427.61
		c-13.33,3.05-30.97,11.22-32.93,24.78c-0.1,0.41-0.1,0.92-0.31,1.33c-0.1,0.31-0.51,0.41-0.61,0.51c-0.2,1.12,1.1,1.42,0.71,2.45
		c-0.96,2.53,0.27,4.9,0.41,7.34c0.22,4,8.88,7.09,8.88,7.6c1.8,6.2-0.11,12-0.42,18.1c-5,2.14-10.1,4.02-15.6,4.79
		c-9.91,1.39-6.42,6.69-32.52,8.26c-15.27,0.92-16.33,1.52-17.83-1.12c-2.84-5-5.74-14.46-6.83-19.78c-0.42-2.04,0.19-3.87,0-5.91
		c-2.35-25.04-2.49-14.22,16.01-26.3c17.78-11.62,18.92-9.44,31.81-17.23c3.76-2.27,1.34-2.04,7.03-5.61
		c11.35-7.11,27.34-9.62,31.3-9.28c-1.49,1.49-5.84,1.63-9.28,4.18c-1.34,1-1.73,2.96-3.87,3.57c0.92,0.46,2.19,0.37,2.75-0.61
		c2.91-5.82,15.28-5.11,16.11-6.22c-0.56-0.87-1.76-0.24-2.86-1.02c3.77-0.82,7.14,0.61,10.6,0.82c7.63,8.22,9.91,3.49,14.91,11.75
		c1.99,3.28,3.23,6.87,3.85,10.68C636.9,428.88,628.61,425.97,621.47,427.61z M709.51,432.03c-1.64,0.02-4.8-1.98-5.87-2.34
		c-2.58-0.89-5.19,4.95-7.42,8.83c-8.34-0.26-5.41,19.22-12.64,6.93c-1.82,1.52-0.53,2.48,0.51,3.77c-2.1,4.72-4.51-0.2-6.83,0.61
		c0.11,1.72,1.95,1.08,2.45,2.24c-0.82,1.63-0.82,1.63-3.36,2.34c-1.53,1.12-1.84,3.67-4.69,3.87c-3.57-1.02-5.4-4.79-8.36-7.14
		c-5.9-1.53-18.17,1.71-17.64-0.27c2-7.43,0.66-10.48,0.47-10.29c-0.5,0.59-0.89,5.06-1.16,2.82c-2.32-19.17-10.96-18.6-17.66-24.08
		c2.03,0,3.36,0.55,4.28,1.33c2.6,2.19,12.31,4.87,14.78,4.69c4.54-0.33,2.5-0.26,11.01-3.57c3.61,1.48,0.91,5.95,4.38,7.78
		c0.53,0.28,0.72-0.98-4.38,11.48c1.94-0.82,1.63-2.75,2.65-3.98c3.11,0.78,0.05-2.5,3.06-5.51c2.28-2.28-4.92-6.08-1.52-14.12
		c-0.08,1.15-0.14,2.83,0.6,1.95c0.49-0.58,0.41-1.89,1.73-1.39c0.61,1.58-2.29,3.16-0.31,3.16c0.25,0,0.59-0.5,0.64,0.1
		c0.08,0.4-0.83,1.01-0.97,1.16c-0.89,0.89,1.21,3.34,2.67,2.51c1.33-1.33-0.71-2.46,0.31-3.77c0.38-1.11,1.44,0.19,2.34-0.2
		c0-2.04,0-3.63,0-5.68c3.63,7.27,1.66,3.61-0.2,11.08c0.52,0.52,0.64,0.24,1.53-0.2c1.56,0.23,0.22,5.05,2.35-0.62
		c4.08-3.53,13.44-2.77,17.13-1.94c3.36,0.75,3.9-1,4.84,0.09c1.13,1.3,1.86,2.67,3.53,2.76c0.92-0.31-1.33-2.79,3.29,0.66
		c0.75,0.75-0.18,2.23,1.39,2.29c0-3.45,3.96,2.19,8.75,1.56C712.1,430.86,710.44,432.02,709.51,432.03z"/>
	<path d="M123.86,476.28c0.01-0.02,0.01-0.03,0.02-0.05C123.82,476.23,123.84,476.24,123.86,476.28z"/>
	<path d="M221.2,573.71c-3.61-2.1-5.63-7.89-14.99-15.6c-7.17-5.9-12.34-9.28-7.24-15.29c3.06,2.24,6.83,3.57,8.87,7.14
		c2.04,3.58,4.38,3.17,6.73,2.65c11.77,7.85,1.88-6.6-6.53-12.13c-2.21-1.46-5.36-7.28-11.93-10.2c-4.27-1.9-3.52-2.69-5.81-13.46
		c-2.37-11.14,11.82-7.73,9.18-21.1c-0.42-2.14-0.61-4.18,0.1-6.12c-0.2-1.02-1.22-1.63-1.12-2.55c1.22-6.42,2.85-5.1-2.96-17.03
		c-14.69-7.02-9.5-3.21-16.11-5.1c0.35-21.78-10.5-30.14-6.42-42.52c1.8-5.46,3.88-7.75,4.18-19.78c0.14-5.69-1.81-7.5-5.3-12.54
		c5-2.55,8.26-7.14,13.05-9.38c7.32,2.44,11.72,3,11.72-4.59c1.43-1.43,3.16-2.85,2.14-5.51c2.45,0,1.84-2.04,2.35-3.26
		c6.08-3.32,1.85-2.12,2.14-12.85c2.14-1.12,2.6-3.06,2.55-5.51c-0.19-8.92-0.82-7.44,7.44-7.44c2.24-1.73,2.24-4.08,3.26-5.81
		c-0.81-3.36-5.01-0.99-4.38-2.24c0.2-0.51,1.02-0.41,1.22-1.33c-0.92-0.51-1.22-1.63-1.94-2.45c-1.43,0.1-1.94,1.53-3.26,1.84
		c-0.1-0.82,0.39-1.72-0.2-2.34c-1.99-2.09-4.79-2.45-7.34-3.26c-0.1-0.82,1.22-1.02,0.71-1.73c-0.41-0.51-0.92-0.71-1.33-0.61
		c-7.37,1.23-7.96-3.08-12.54-2.75c-4.25,0.61,1.44-3.98-4.49-1.02c-9.33-2.33-8.14,2.15-10.91-0.61c-2.04,1.63-4.89,0.51-6.73,2.14
		c-0.31,1.12,1.12,1.43,0.61,2.45c-1.02,0.51-2.42,0.72-2.75,1.94c-0.65,2.36-2.32,4.09-3.26,6.22c-1.22,2.75-5.55,17.86-4.89,21.41
		c0.88,4.8-1.84,9.07-0.92,13.56c-18.92,11.04-12.08,5.33-26.3,13.25c-13.42,7.47-14.73,14.62-23.04,22.33
		c-10.52,9.76-14.58,20.48-18.45,25.9c-6.95,9.72-6.21,9.69-15.6,32.22c-6.01,14.41-8.85,12.97-10.3,16.41
		c1.91,1.43,18.73,3.48,20.49,3.67c9.02,0.95,6.46-1.12,14.27-1.12c12.78,0,12.64-2.95,18.25-2.34c0.31,0,0.71-0.11,1.02-0.31
		c3.01-1.91,6.53-1.02,9.99-1.94c-1.24,2.85,0.49-0.03,1.22-0.2c0.37-0.06,18.87-0.62,19.07-0.61c-4.4,7.7-6.06,7.1-12.64,21.72
		c-2.49,5.53-4.65,16.73-1.43,17.54c9.89-4.08,19.17-9.79,30.28-11.32c1.22,3.06,2.45,6.12,3.67,9.28
		c-1.73,1.73-4.49,1.43-6.32,3.47c2.75,0.1,4.79-1.22,6.93-1.94c5.05,9.77,5.55,8.76,0.92,10.4c-28.85,10.2-40.9,8.95-50.16,16.41
		c-2.84,2.29-5.92,4.59-8.05,3.87c0.92-0.82,1.73-1.53,2.55-2.24c-2.14,0.31-4.18,0.82-5,2.96c-5.89,0.59-3.87,2.92-11.42-3.77
		c-3.07-2.72-7.62-8.27-5.81-9.18c1.12-0.31,0.41,1.31,1.33,1.22c2.65-0.25,5-1.12,7.34-2.55c1.63,0.71,3.77-0.31,5.1,1.73
		c2.47-3.84,9.98,3.85,18.66-0.71c0.82-3.16,1.12-6.63,2.75-9.69c1.63-3.06,5.1-4.18,7.65-7.03c-18.85,7.97-4.23,20.91-22.53,15.7
		c-4.07-1.16-8.16-1.63-12.34-1.33c-0.41-0.41-0.41-1.12-1.12-1.22c-12.41,1.49-7.82,6.04-24.37-3.26c-0.41-2.24-2.34-3.57-3.98-5
		c-8.32-7.28-9.15-8.25-12.54-20.29c-0.92-3.26-1.02-6.83,0.41-10.4c3.67-1.94,7.75-3.47,9.79-7.65c-2.34,1.02-4.08,3.06-6.93,4.18
		c1.02-2.45,3.06-3.87,3.06-6.63c-2.14,1.12-2.96,3.06-4.28,4.38c-13.08,13.08,4.77,44.23,25.49,48.74
		c-7.67,6.13-15.42,18.86-19.98,21c-1.33,8.66,17.33,14.17,21,17.64c14.31,13.52,31.05,13.97,50.77,13.97
		c2.35,0,1.56-2.73,2.14-5.61c1.23-6.11-2.3-8.51-8.16-9.89c-8.61-2.03-3.78,0.84-10.6-8.26c8.67,0.51,17.13,2.24,25.39,0.61
		c0.61-0.82,0.31-1.71,1.12-2.04c0.72-0.29,1.63,0,2.04-1.02c-0.71-4.89-1.53-6.73-4.49-10.09c-12.12-0.84-11.26-6.59-15.4-8.87
		c2.24-0.51,3.16-2.55,5.2-3.06c5.3-1.33,10.4-3.13,15.7-3.98c29.15-4.64,21.2-16.29,28.65-0.82c8.61,17.87,6.84,21.28,10.81,26
		c-1.42,13.23,8.75,11.3,9.38,19.17c0.46,5.75,4.14,12.8,5.2,8.56c-1.84-0.51-2.34-2.14-2.85-3.67c-2.43-7.28,0.35-8.03-4.79-11.83
		c-3.36-2.48-6.7-8.3-4.49-11.32c-7.59-12.08-2.41-8.95-11.32-26.71c-10.95-21.83-14.27-24.75-17.43-40.07
		c-1.32-6.37-1.43-7.34-2.57-8.24c-1.72-1.35,1.03,10.12,2.06,15.27c-0.61,1.02-1.94,0.31-2.55,1.12c0.62,0.77,1.59,0.37,2.43,0.61
		c4.37,1.24-7.11,1.99-13.54,5.1c-4.32,2.09-10.56,3.87-14.48,6.32c-2.17-7.33,6.6-23.04,10.81-29.47
		c6.85-10.47,2.66-4.85,12.23-6.32c1.34,2.68,1.23,5.02,3.98,6.53c-5.5-22.01-6.64-17.98-7.34-24.37c-0.13-1.15-0.54-1.6-1.21-1.92
		c-0.56-0.27,0.04-0.72-0.72-1.65c-4.79-5.8-2.97-12.96-5.91-24.88c-0.69-2.78,1.53-4.83,0-8.67c-3.51,3.51-1.34,15.05-0.31,17.13
		c3.89,6.22-14.96,5.32-17.43-6.02c0.48-1.14,2.25-1.67,2.25-3.22c0-1.16-3.18,3.44-1.74-4.41c4.45-24.29,23.72-59.67,46.29-30.08
		c3.71,4.86,2.65,7.37,1.43,20.09c-0.5,5.17-6.02,9.58-2.55,20.7c8.17,26.14,4.83,25.6,6.63,31.61c-0.61,1.63-1.84,0.61-2.96,1.02
		c4.49,2.65,4.38,7.55,6.32,11.42c1.09,2.17,0.82,4.83,0.16,7.78c-0.08,0.37-3.85-6.18-7.43-6.18c-0.26-0.05,0.1,1.64,0.95,1.97
		c2.87,0.72,3.92,3.72,6.63,6.02c1.16,7.49,6.61,12.81,6.93,24.47c0.26,9.46,6.08,32.85,6.22,33.34
		c2.71,9.64,19.38,19.21,20.19,23.25c-2.54-1.11-4.29-3.47-6.93-4.59c0.51,2.24,1.22,2.85,7.24,7.14c0.92,4.18,5.2,6.32,7.65,9.69
		c-1.78,2.14-8.2-3.58-9.48-6.32c-2.59-5.55-5.81-8.05-8.87-10.6c-0.82,1.43,0.31,2.45,1.02,2.96c3.57,2.55,5.27,6.39,7.14,10.2
		c1.26,2.56,4.03,5.32,1.89,4.9c-0.29-0.06-4.12-3.21-5.15-5.21c-1.69-3.28-4.59-5.3-7.03-7.95c-0.49-2.65-1.28-5.2-3.62-7.02
		c-0.38-0.29-0.55-1.03,1.58,3.76c1.41,3.18-0.88,20.11,2.85,19.58c1.17-2.14-0.31-0.89-0.82-13.97c8.02,6.97,4.41,8.06,11.32,12.23
		c1.53,0.92,3.26,1.53,5,1.02c0.71-1.22-0.82-1.84-0.2-2.85c5.02,3.01,4.47,2.04,8.36-2.55
		C224.87,577.58,223.65,575.13,221.2,573.71z M94.78,529.56c-0.71,1.33-1.84,1.33-3.26,1.22C92.43,529.36,93.45,529.26,94.78,529.56
		z M84.4,534.8c2.63-2.07,1.33,2.35,11.16,10.45c0.46,0.38-4.52-0.93-8.73,0.12C83,540.76,83.34,534.8,84.4,534.8z M117.21,565.04
		c0,0.9-0.71,0.93-0.71,2.04c0.72,0.62,0.94-0.41,1.73-0.41c2.42,5.71,11,1.77,15.29,7.65c0.65,1.18,0.2,0.98,0.2,7.65
		c-46.95,0-42.67-11.23-53.73-16.21c-4.62-2.08-10.63-4.41-17.23-11.01c0.92-1.63,2.35-0.92,3.16-1.53
		c2.85-3.06,5.06-6.56,8.26-9.38c3.72-3.29,0.55-2.72,7.95-10.1c1.17-1.17-1.99,7.19,3.23,12.43c1.8,1.8,4.92,0.23,6.96,0.73
		c8.98,2.22,18.38-2.23,20.19-1.33c2.13,7.47-4.88,3.95-9.77,8.15c-0.01,0.01-0.02,0.01-0.02,0.01c2.57,2.25,7.83-0.41,9.89,0
		c-1.15,2.61-6.1,3.93-4.96,5.2c1.37,1.52,3.01,0.5,4.65,0.2c3.37,2.01,0.41,1.87-0.31,3.67c1.1,1.8,2.43,0.23,3.74,0.1
		C115.86,562.9,115.81,562.95,117.21,565.04z M126.59,541.9c0.22,0.89-1.17,1.24-1.17,2.04c0,1.58,2,0.08,3.01,0.32
		c2.55,4.69,8.36,4.59,12.85,7.44c0.71,1.43,1.53,3.16,2.45,5c-5.61,5.62-27.83,1.67-27.94,1.63c-2.34-4.49-0.21-9.2-1.62-13.97
		c1.24-0.89,8.3-4.91,8.05-3.3c-0.08,0.5-0.73,0.92-0.41,1.37C124.52,542.96,125.63,539.5,126.59,541.9z M210.91,331.66
		c0.17,0.42,0.24,0.8-0.18,0.95C209.49,333.03,210.06,331.8,210.91,331.66z M209.04,339.34c1.63-0.01,3.76-1.03,5.43-1.66
		C208.85,342.53,200.26,339.42,209.04,339.34z M203.06,330.54c1.62,0,1.64,0.08,1.95,1.63c0.17,0.05,1.1,0.27,1.33,0.31
		c0.4,1.73-2.44,2.48-1.33-0.31c-0.8-0.2-1.02-1.17-2.08-1.6C202.85,330.54,202.8,330.54,203.06,330.54z M200.71,337.37
		c-1.43,0.51-2.45-0.1-3.98-0.51C198.98,336.56,198.98,336.56,200.71,337.37z M192.55,334.32c0.41,0.71,0.61,1.12,1.12,1.94
		C192.09,336.06,192.63,335.17,192.55,334.32z M194.19,337.27c-0.71,1.33-1.73,1.33-3.06,1.84
		C192.04,337.68,193.06,337.58,194.19,337.27z M189.8,334.72c-1.84-0.41-2.24-1.33-3.26-2.85
		C188.37,332.48,188.88,333.3,189.8,334.72z M189.9,340.43c-0.79,0.9-2.11,1.3-3.26,1.63C187.56,340.23,188.88,340.64,189.9,340.43z
		 M183.89,343.7c0.08,0.64,0,1.01-1.12,0.92C183.07,344,183.17,343.59,183.89,343.7z M180.73,341.04c-0.4-0.9,0.18-0.82,0.61-1.12
		C181.54,340.84,181.24,340.94,180.73,341.04z M180.63,330.24c0.91,1.59-0.35,2.41-1.33,1.63
		C178.99,330.85,179.62,330.54,180.63,330.24z M177.16,340.94c0.72-0.72,1.19,0.61,0.41,0.61
		C177.22,341.55,176.94,341.26,177.16,340.94z M175.73,326.87c0,0.1,0.87,2.14,0.92,2.24c-1.15,0.38-1.54-0.51-2.35-0.82
		C174.41,327.59,174.81,327.08,175.73,326.87z M170.23,338.09c-1.13-0.3-1.15-0.22-1.71-1.6
		C167.73,334.57,169.27,337.49,170.23,338.09z M170.02,350.22c-0.41,0.51-0.92,1.22-1.43,1.84c-0.35-0.92-0.56-1.49-0.61-1.92
		C167.87,349.2,169.57,347.07,170.02,350.22z M166.56,340.4c0.37-0.45,0.81,0.04,0.77,0.32
		C167.22,341.58,166.01,341.06,166.56,340.4z M167.57,345.43c1.04-0.13,1,0.57,1.27,0.9c-2.01,0.89-2.56,3.41-4.74,3.89
		c0,0.83,0,1.49,0,2.13C162.22,348.52,165.23,347.3,167.57,345.43z M163.6,355.93c-1.02-0.31-0.82-0.92-0.61-1.63
		C163.7,354.6,164.01,355.11,163.6,355.93z M163.9,336.05c0.1,1.22-0.41,1.53-1.63,1.53C162.48,336.46,162.99,336.05,163.9,336.05z
		 M160.14,340.01c0.31-1.39,2.03-0.22-0.01,0.62C160.09,340.15,160.14,340.12,160.14,340.01z M73.14,477.73
		c-0.29,1.16-0.3,0.67-1.61,0.35c-0.1-1.02,0.2-1.84,1.12-2.75C73.19,476.24,73.33,476.98,73.14,477.73z M77.24,478.38
		c-2.7,1.54-2.26-3.43,0.1-1.43C77.65,477.26,77.45,477.87,77.24,478.38z M80.71,479.2c-0.71-0.51-1.02-0.92-0.51-1.73
		c1.22-0.2,2.45,0.41,4.28,0.71C82.75,478.58,81.63,478.89,80.71,479.2z M123.52,473.49c2.96-3.26,6.73-5.4,9.18-8.87
		c18.94-0.97,9.57,0.58,10.09,8.16C136.29,474.31,129.92,472.66,123.52,473.49z M150.96,465.02c0.36,1.17,4.49,9.37,3.26,9.37
		c-13.03-1.43-10.28-0.17-8.3-5.15C147.52,465.2,145.8,463.55,150.96,465.02z M148.16,455.42c1.64,1.22,0.29,1.5,1.76,6.85
		c-5.5,0.3-10.69-0.55-16.29,0.07c-0.62,0.07-0.25,0.4,0.08-3.64c4.19-1.43,7.96-3.67,11.43-6.32
		C146.12,453.06,147.14,454.66,148.16,455.42z M154.76,380.82c-18.65-0.36-31.44,30.09-31.44,48.93c-0.87,1.13-5.66,3.43-3.38,3.28
		c3.96-0.25,3.61-2.43,3.98,0.91c1.48,8.68,12.67,10.55,18.95,8.87c0.13,0-0.18-0.62,1.14,6.93c-6.31,7.26-10.66,4.04-13.04,9.99
		c-1.85,4.64,1.62,1.67-4.42,7.72c-0.82,0.82-1.48,1.68-1.81,2.78c-3.67,1.84-6.63,4.59-11.32,5.4c-3.54-1.67-6.65,2.52-11.32,1.84
		c-3.69-0.54-7.84,2.07-11.32-1.02c-4.83,1.99-14.65-1.8-14.75-1.86c-12.29-2.61-8.27-1.19-1.97-14.75c1.54,0,4.79-19.68,26.7-48.72
		c0-0.92,6.07-6.11,14.79-17.15c8.97-11.35,22.01-15.76,22.01-17.03c3.5,1.52,20.61,0,23.65,4.78
		C159.76,383,161.22,380.94,154.76,380.82z M162.85,377.75c-1.33-1.14,0.01,1.95,0.18,2.83c0.32,1.66-1.36-3.04-11.8-4.2
		c-10.57-1.18-16.1,1.74-1.2-4.65c1.71-0.74,7.73-4.2,7.95-7.04c0.26-3.27,2.65-5.2,4.28-7.65c3.8-0.58,3.91,4.13,7.31,4.53
		c1.28,0.15,1.36-0.15,1.56-0.55c0-2.11-1.6-0.24-3.26-1.92c-0.84-0.85-4.3-6.58-3.69-6.58l0.03,0.03c0-0.01-0.01-0.02-0.01-0.02
		c2.78,1.18,0-1.91,2.26-1.91c0.86,0.98,0.27,2.95,0.81,2.95c2.27,0,0.24,1.14,0.82,1.84c2.57,1.12,2.55,1.12,3.77-0.41
		c-0.2-1.12-2.04-1.12-1.94-2.55c0.2-1.22,1.33-1.02,2.14-1.43c-0.37-0.63-1.99-3.62-2.06-3.69c1.8,0.45,2.85,1.41,2.98,3.69
		c0.45,7.86,1.9,2.68,2.93,3.7c4.89,3.63-3.64-1.87,5.94-7.98c8.32-5.31,10.89-4.19,12.23-7.04c1.05,0.26,2.28,1.12,3.48,1.24
		c2.79,0.28,1.42-1.59,1.42-1.86c3.18,0.5,2.49,0.22,2.71,0.33c1.88,0.42,1.99,1.62,2.9,1.81c-1.49,8.96,1.08,9.58-1.73,11.52
		c-2.3,1.59-1.36,2.95-0.2,10.3c0.89,3.98-3.41,2.56-5.3,0.82c-0.92,1.94-0.92,1.94,2.04,2.96c-0.2,0.92,0.1,2.04-0.61,2.65
		c-1.53,1.32-3.67-0.31-4.89,1.43c0.29,0.45,0.68,0.56,1.1,0.57c5.16,0.16,0.76,2.9,0.33,3.92c-0.74,1.72,0.41,4.18-2.34,5.71
		c-3.75,0.42-7.72-1.06-10.81-3.26c-0.51,1.02,1.12,1.12,0.82,2.24c-4.73,1.75-8.26,5.88-12.44,8.67
		C163.24,381.46,166.48,380.87,162.85,377.75z M178.38,469.82c0.74-5.68,10.17-0.73,15.07,2.23c0.29,0,1.38,0.69,3.28,5.31
		c1.45,3.53,1.32,2.97-0.41,8.16c-1.72-2.31-2.71-5.21-5.61-6.12C181.33,476.45,184.39,479.69,178.38,469.82z M184.09,479.18
		c4.08,0.51,8.19,1.01,9.99,6.02c0.68,1.89,3.06,4.3,3.06,4.79c0,10.03,1.97,8.81-1.33,13.23c0-0.6,0.48-1.42,0.48-2.13
		c0-3.67-3.98,2.13-0.57,2.24c0,1.8-1.08,2.42-6.13,6.03C187.66,499.26,182.26,490.09,184.09,479.18z M208.36,549.04
		c1.53,0.51,3.16,0.71,4.18,2.24C210.6,551.48,210.6,551.48,208.36,549.04z M193.08,530.95c4.12,2.06,7.33,3.12,9.46,6.46
		c4.69,7.35,11.24,8.5,12.74,13.76c-2.34-2.34-5.32-3.17-8.26-4.69c-5.98-3.1-5.11-8.73-11.72-3.16
		C194.9,541.23,192.57,530.69,193.08,530.95z M216.41,573.3c0.41-0.82,0.44-0.47,2.41,1.64
		C222.76,579.18,220.54,577.14,216.41,573.3z M222.43,579.21c-1.23-1.34,0.3-1.44,0.92,0.61
		C222.93,579.64,222.64,579.45,222.43,579.21z"/>
	<path d="M173.28,480.42c-0.03,0.03-0.08,0.08-0.1,0.1C173.31,480.55,173.35,480.62,173.28,480.42z"/>
	<path d="M847.11,109.6c-0.92-0.41-1.94,0.51-2.96-0.2c1.25-1.56,1.68-0.88-0.71-3.67c-1.22,0-1.63,1.43-2.75,1.53
		c-0.22-1.3,0.35-2.59-5.3-4.59c1.3-16.84-0.65-12.24,0.41-13.87c3.09-4.76-0.98-11.47-0.31-18.96c0.44-4.89,0.1-9.79,1.33-14.68
		c2.24-1.94,4.47-5.71,4.28-8.36c-0.35-4.97,0.63-6.49,3.16-13.15c1.55-4.08-4.93-2.93-7.14,2.35c-0.69,1.64-1.43,2.85-2.85,3.87
		c-0.82-4.08,1.64-6.83,3.67-9.58c3.6-4.88,6.69-2.44,9.58-7.34c-1.63-1.12-1.12-4.08-3.36-3.98c-6.22,1.53-9.18,7.03-14.07,9.69
		c-1.43-2.24-2.65-4.18-4.08-6.32c1.33-1.12,0-2.55,0.41-3.98c0.92-1.43,2.24-2.65,2.24-4.79c-0.92-1.43-0.82-3.57-2.45-4.79
		c0.51-1.73,2.14-2.65,2.65-4.59c-1.73-0.51-0.82-1.94-0.82-3.06c-2.64-1.89-2.04-1.92-7.75,4.08c-5.77,6.06-2.35,11.97-5.4,16.92
		c1.34,3.69,3.1,8.4,1.73,12.13c-1.58,4.31-2.07,24.02-9.58,37.93c-3.71,6.88-2.83,15.1-3.57,21.31c-0.92,7.77-2.63,3.08-3.77,5.81
		c0,0.71,1.12,0.92,0.71,1.84c-0.71,0.61-1.84,0.61-2.14,1.53c-5.1,6.83-5.3,15.29-7.65,23.45c-5.1,4.49-8.67,10.6-10.6,17.43
		c-2.82,9.97-11.13,18.06-11.72,26c-1.47,19.49,2.76,24.79,3.87,36.5c1.98,20.81-0.3,16.24,0.51,21.72
		c0.87,5.86,0.47,12.08,0.92,13.66c1.61,7.25,1.98,14.97-0.2,24.67c-2.67,11.87-8.32,7.77-11.32,15.6
		c-6,15.68-8.23,13.42-10.09,25.18c-2.47,15.62,0.37,24-3.47,29.47c-3.84,5.46-0.56,15.78,1.63,24.37c1.02,0.71,1.94,1.43,2.65,1.94
		c5-0.2,9.69,0,14.38,1.02c1.38,13.53,7.33,20.47,3.87,31.1c-6.97,21.44-10.22,25.8-9.89,38.13c0.75,28.11,5.89,51.17,1.73,61.48
		c-1.53,0.31-3.27,1.43-3.36,2.96c-0.36,5.5-8.42,7.84-9.58,12.34c-0.2,0.61-1.43,0.1-1.73,1.53c0.31,1.02-0.31,2.45-0.92,3.67
		c0.61,1.73,1.43,2.96,2.85,3.67c3.08,1.8,2.96,4.06,7.04,6.22c8.45,4.48,9.86,4.22,13.25,9.79c7.95,13.02,29.17,20.97,36.5,15.4
		c1.27-6.37,2.54-4.46-5-15.29c6.42,0.16,12.02-1.93,11.22-8.36c-4.12-6.75-10.16-9.03-12.95-16.82
		c-4.66-13.02-4.96-23.71-6.93-26.41c-2.11,0.7-4.79,7.1-3.98-9.38c3.08-62.54,7.53-44.54,6.02-71.57
		c-2.14,0.61-0.71,2.85-1.94,3.77c-0.82-0.1-0.71-1.43-1.73-1.33c-0.2,1.84,0.82,3.26,1.73,4.49c-1.9,28.43-2.79,14.04-10.09,53.93
		c-0.55,2.98-5.12,34.21-0.82,33.85c0.99-2.31-1.99-5.87,1.02-6.12c-2.84-6.29,0.85-11.78,1.33-24.06
		c0.09-2.28,2.06-17.15,3.97-18.37c1.2-0.9-3.51,20.78-1.21,37.95c-1.53,1.12-1.84,3.67-4.08,4.49c0.1,0.82-1.33,1.94,1.02,2.75
		c3.26-1.53,5.2-4.79,7.95-8.26c-0.1,4.38,1.33,7.54,2.65,10.71c-1.84,1.33-3.98,1.84-5.1,3.77c2.04,0.61,3.87,0.1,6.12,0.2
		c-6.34,4.93-6.62,4.06,0.2,3.57c1.81,2.85,0.99,11.37,10.91,18.45c1.91,1.36,3.26,3.26,4.38,5.3c-0.71,1.53-1.33,3.06-1.94,4.38
		c-4.89,3.01-5.75-2.52-9.58-0.51c-14.2-16.38-11.21-14.38-12.95-27.73c-0.4-3.09-0.11-4.98-3.77-5.71
		c-1.53,0.92-2.45,2.55-3.67,3.06c-4.28-0.82-8.36-0.41-12.13-2.24c-3.64-4.55-1.76-2.83-1.84-6.02c-0.14-5.55,1.92-7.11,1.33-13.15
		c-5.7-57.6-5.03-52.44,6.12-82.18c4.16-11.1,0.11-15.59-4.18-32.73c39.9,10.69,26.6,5.74,27.32,12.64c2.75-0.41,3.06-3.67,5.3-4.59
		c0.31,0.51,0.61,0.71,0.61,1.02c0.75,13.57-4.59,17.39-2.92,20.67c0.3-0.18,0.67-0.29,0.77-0.48c0.71-2.96,2.77-5.51,2.14-8.77
		c-0.32-1.67,1.53-4.41,2.75-11.52c5.47-5.47,1.71,1.1,4.38-10.5c4.1-17.8,4.22-10.81,5.2-18.25c1.07-8.06,2.33-16.01,5.61-23.55
		c2.13-4.9,1.89-10.38,3.16-15.5c1.86-7.52-3.48-14.15-4.89-23.65c-1.33-0.31-2.24-1.02-2.45-2.65c1.33-1.53,1.92-3.05,1.02-5.3
		c-1.42-3.57,1.03-5.76,2.24-10.81c4.95-20.59,6.1-21.35,8.05-30.59c4.01-18.97-1.29-27.1-0.61-45.88
		c0.19-5.16-4.11-13.94-6.73-17.54c-7.53-10.34-2.74-3.52,0.31-14.17c3.13-0.45,10.09,3.6,10.09-5.1c2.14-2.75,2.85-5.91,4.38-8.77
		c5.27-2.63,1.43-3.38,1.43-11.83c5-3.05,0.44-7.65,2.96-12.23c2.24-0.1,4.28-0.2,6.22-0.31
		C848.44,113.38,849.05,110.72,847.11,109.6z M783.9,499.07c1.64,4.21,0.4,7.98,0.71,12.04c-4.98,2.87-5.78,3-8.46,4.08
		c2,1.83,4.74,5.83,9.28-0.41c0.43,1.08,1.45,3.57,1.63,3.98c-1.07,1.7-2.82,1.66-3.77,3.57c2.94,2.5,5.08-2.36,6.28,0.27
		c0.56,1.21-2.61,1.82-2.61,4.32c2.86,1.06,3.96-3.74,5.1-0.71c-0.1,1.24-2.05,1.95-1.33,3.77c2.74,0.86,1.7-3.61,4.54-0.73
		c0.64,0.65,0.88,1.39,0.76,2.16c3.59,3.34,5.96,7.04,8.61,11.22c0.59,0.93-0.68,4.06,0.67,5.8c-7.1,3.55-21.23-2.56-28.14-7.65
		c-3.27-2.41-3.04-3.1-5.91-8.16c-4.1-7.22-19.38-10.47-21.53-18.43c-0.58-2.13,0.04-2.56,11.81-14.87
		c0.11-0.11-0.17-0.41,1.42,7.12c0.18,0.87,5.58,3.38,12.08-0.12C778.11,504.65,779.16,503.37,783.9,499.07z M765.84,500.8
		c3.32,2.04,7.18,1.05,10.71,2.05c-3.57,3.06-7.34,4.38-11.83,2.65C762.44,495.91,763.87,499.59,765.84,500.8z M835.89,106.46
		c0.93-0.17,0.89,0.75,1.01,1.48c0.07,0.27,0.84,0.44,1.24,0.54c0.15,1.49-1.21,1.59-1.53,1.07c-0.36-0.58,0.16-1.08,0.32-1.48
		C836.29,107.99,834.54,106.63,835.89,106.46z M844.36,23.76c0,1.12-0.82,0.92-1.53,1.02C843.14,23.96,843.44,23.35,844.36,23.76z
		 M773.81,161.7c4.47-6.67,7-14.29,9.99-21.61c3.12-7.64,7.97-11.66,11.83-16.62c2.49-3.21,3.02-4.33,8.67-26.92
		c2.27-9.06-1.86-8.92,5.71-26.51c5.13-11.92,6.47-20.51,6.63-29.26c0.1-5.24,3.66-8.99-0.51-18.66c2.47-6.58-0.75-12.98,6.53-16.41
		c0.61-1.83-2.8-1.13,3.26-4.59c0.82,2.87-2.44,3.24-2.55,5.4c1.36,1.09,4.82-5.47-2.34,7.34c0,1.21,1.3,2.42,1.37,2.29
		c1.26-1.23,0.81-3.63,3.32-3.93c2.29,3.05-2.79,4.19-0.82,8.36c-1.61-0.75-1.8-2.4-2.85-2.85c-1.12,1.53,0.82,2.34,0.61,3.57
		c0.2,1.12-1.33,0.82-1.43,1.84c4.82,5.51,4.92,3,6.93,10.3c0.2,1.22-1.22,2.04-0.82,3.36c0.87,0.12,1.66-0.38,1.84-1.63
		c0.76-5.45,11.55-15.88,13.76-13.66c-5.88,6.59-10.83,10.6-11.72,19.07c0.61,1.3,1.83,0.51,2.55,1.02c4.2-2.1,2.17-7.33,8.56-8.56
		c-2.11,3.16-3.82,6.06-3.87,9.99c-0.17,11.87-2.71,9.26-5.71,11.01c-0.41,1.22,0.51,1.33,1.02,2.14
		c-2.18,32.03,1.33,18.78-0.2,27.43c-1.1,6.23,0.06,15.31-0.82,16.62c-2.37,0.44-4.82,0.96-7.2-0.21
		c-2.18-1.07-0.62,1.63,2.81-14.88c1.67-8.02,0.33-22.05,0.51-28.04c-0.09-0.63,2.29-0.87,1.21-1.69c-0.42-0.32-0.99,0.17-1.52-0.24
		c-0.7-4.86,0.38-10.74-0.51-16.11c-2.55,3.16-0.2,7.24-3.16,9.58c-0.13,1.02,1.02,0.39,1.02,0.75c0.15,17.86,1.43,15.23,1.43,18.41
		c-1.53,10.09-1.22,20.39-4.08,30.28c-0.41,1.12-1.12,2.04-1.43,3.16c1.22,2.85,1.63,2.34-1.12,4.89
		c-4.83,16.24-4.51,31.44-16.01,47.61c-2.33,3.27-2.91,7.05-4.38,10.6c-1.63,3.95,3.91,9.66,5.91,11.42c0-2.05-0.79-4.17-2.55-5.71
		c-0.41-2.85-0.2-5.71-1.22-8.36c0.51-1.63,0.92-3.36,2.04-5c11.72,14.07-4.69,30.27-5.81,34.56c-2.16-0.62-2.35-1.69-3.87,3.26
		c-2.41,7.84-21.34,4.38-23.35-9.38C770.8,180.58,770.39,166.81,773.81,161.7z M832.64,113.48c-1.02-0.2-2.04-0.41-3.16-0.61
		C830.8,112.27,831.8,112.29,832.64,113.48z M826.42,113.27c-0.1,1.22-1.02,1.12-2.04,1.33
		C824.88,113.59,825.65,113.51,826.42,113.27z M825.18,111.22c0-0.68,0.47-0.59,0.93,1.03
		C825.55,112.09,825.14,111.83,825.18,111.22z M823.26,115.92c-0.11,0.17-0.22,0.3-0.33,0.44
		C821.54,118.05,820.56,116.19,823.26,115.92z M773.81,271.41c0.41,0.41,0.71,0.82,0.2,1.33
		C773.09,272.43,773.2,272.02,773.81,271.41z M817.55,287.01c2.01,9.24,4.91,11.67,3.77,18.05c-2.27,12.77-1.26,11.35-3.77,16.72
		c-5.32,11.36-3.04,17.47-7.95,30.79c-2.11,5.72-3.36,11.83-3.87,18.25c-16.06-1.07-30.34-10.15-52.71-9.69
		c-1.75-2.62-6.76-19-3.16-23.25c6.61-7.8-1.05-26.55,7.75-42.92c7.41-13.8,5.46-14.48,9.89-17.43c9.77-6.53-1.65-4.07,14.07-2.04
		c0.79-0.97,0.51-1.86,0.51-3.36c-1.17,0.21-2.06,4.05-2.14,1.26c-0.09-2.98-1.23-1.37,20.67,2.3c0.62,0-0.13,1.19,0.23,1.62
		c0.43,0.57,1.7-2.52,3.76-1.37c0.7,0.47-1.19,1.6-0.57,2.78c0.35,0.67,1.81-2.04,2.41-2.63c1.34,0.09,4.73,0.49,4.79,0.51
		c-1.57,4.41-1.52,4.16-2.01,3.66c-0.7-0.71,0.95-1.44-0.03-2.23c-1.61-0.4-1.63,2.66-4.18,1.96c-0.1-0.03,3.66,3.28,7.65,1.2
		C815.34,282.4,816.92,284.12,817.55,287.01z M778.4,271.78c0.45-0.92,0.42-1.09,0.1,2.39C777.86,273.06,777.82,272.97,778.4,271.78
		z M813.16,276.71c0.41,1.43,0.92,2.85-0.92,4.18C811.87,279.19,812.32,278.16,813.16,276.71z M823.66,191.88
		c-0.64,5.5,1.14-0.62,2.24,21.31c0.68,13.4-2.39,17.66-2.35,21.21c0.07,6.09-3.13,13.21-3.35,12.61c-1.02-2.69,2.34-4.99,0.19-7.92
		c-1.12,4.18-2.65,7.85-1.22,11.62c-0.31,1.22-1.12,0.31-1.53,0.92c0,11.8-1.32,6.69-3.47,23.45c-13.24,0.09-25.8-2.82-38.44-6.93
		c0-8.12,3.4-7.5,1.02-22.33c-5.09-31.76,1.28-16.09-2.56-42.78c-1.14-7.93-2.74-8.07-1.82-10.13c3.36,4.69,8.45,6.35,13.56,7.95
		c13.88,4.36,20.1-22.42,23.96-22.63c-0.2-1.02-0.8-2.03-0.31-3.16c2.29-5.18,2.24-10.4,0.1-15.7
		C811.06,162.18,825.3,177.78,823.66,191.88z M813.67,161.8c-0.1-2.65,1.84-4.38,3.87-6.02
		C814.05,163.12,814.76,162.35,813.67,161.8z M836.4,116.35c1.23,1.74-0.42,2.17,0.52,9.05c-0.51,1.84-2.04,2.24-2.65,3.87
		c-0.48,2.99,3.29,10.2,0.28,10.28c-2.03,0.05-4.26-1.78-4.25-1.37c0.05,1.99,0.11,2,2.24,2.61c0.45,4.95-3.61,2.12-5.2,3.98
		c0.82,1.43,2.34,0,3.16,1.02c0.61,1.73-1.53,2.14-1.63,2.75c-0.71,2.45,0.2,4.59-2.04,5.81c-3.95,1.08-5.96-2-9.47-0.3
		c-2.25,1.09-3.93,2.53-5.1,4.78c-2.71-2.71-2.36-4.65-4.79-5.1c-0.98,0.98,0.7,1.64,0.41,2.55c-0.6,0.6-1-0.18-2.14-2.45
		c1.93-1.32,2.55-3.84,4.26-5.37c0.51-0.51,3.2,2.62,5.12,2.62c-0.92-2.14-2.96-2.65-4.28-3.98c4.16-5.94,7.87-19.4,9.99-27.53
		c2.23-1.52,4.87-1.73,6.4-3.96c0.25-0.25,2.82,1.63,4.81,0.69c0-0.31-0.1-0.61-0.1-1.12c0.71-0.04,3.24-0.44,4.29,0.61
		c1.83-2.08,4.19,0.27,9.18-2.65C843.51,117.76,835.11,114.54,836.4,116.35z"/>
	<path d="M799.4,394.27c-0.06-0.12-0.04-0.16-0.1-0.1L799.4,394.27z"/>
	<path d="M96.51,522.83c1.84,0.2,3.47,0,5,0.61c8.4,2.22,6.5-4.64,21.41-7.95c1.02-0.31,1.94-0.41,2.85-1.02
		c-0.31-0.71-0.82-0.62-1.22-0.61c-13.5,0.13-14.78,7.75-21.61,7.75C100.79,521.61,98.75,521.81,96.51,522.83z"/>
	<path d="M91.52,501.63c3.04-3.72,3.35-3.92,9.07-14.48c-3.26,2.75-5.2,6.32-7.34,9.89c1.18-15.94,7.56-11.03,16.62-18.15
		c-0.23,0.02-13.56,5.36-13.66,5.4C91.82,493.16,90.5,498.36,91.52,501.63z"/>
	<path d="M62.76,509.99c1.08-0.63,15.37-16.32,15.91-18.05C72.25,496.94,66.33,502.44,62.76,509.99z"/>
	<path d="M74.59,520.39c0.75-3.01,0.97-11.44,8.16-22.84c0.2-0.41,0.2-0.92,0.31-1.33C78.89,500.05,71.27,519.18,74.59,520.39z"/>
	<path d="M777.17,407.72c-0.41,5.81-1.02,10.91-0.71,16.01C778.4,418.12,778.8,410.78,777.17,407.72z"/>
	<path d="M109.56,487.05c20.18-13.72,17.95-13.93,1.84-2.24C110.68,485.21,109.97,485.72,109.56,487.05z"/>
	<path d="M62.15,489.19c2.96-1.73,6.53-2.65,8.46-5.81C66.94,483.99,64.6,486.54,62.15,489.19z"/>
	<path d="M766.67,490c2.04,1.43,1.53,4.59,3.77,6.42c1.22-2.96-1.02-4.38-1.94-6.12C768,483.72,767.36,487.47,766.67,490z"/>
	<path d="M100.18,531.91c-3.26,1.12-3.36,4.08-4.08,6.73C99.57,537.62,98.04,533.74,100.18,531.91z"/>
	<path d="M94.78,480.93c-4.08,0.2-7.65,1.63-10.6,4.59C87.54,483.78,91.21,482.46,94.78,480.93z"/>
	<path d="M593.65,495.41c-2.75,1.53-3.16,4.08-4.28,6.22C593.45,498.46,593.85,497.85,593.65,495.41z"/>
	<path d="M775.95,383.76c-0.41,3.06-0.61,5.51,0,7.95C776.97,389.17,777.58,386.72,775.95,383.76z"/>
	<path d="M774.62,435.56c0.51-2.14,1.33-4.28,0.92-7.34C774.11,431.07,774.11,433.31,774.62,435.56z"/>
	<path d="M798.79,394.06c-1.84,2.14-1.94,4.89-2.55,7.54C797.87,399.36,799.09,396.92,798.79,394.06z"/>
	<path d="M92.13,523.65c-1.84,0.82-3.47,1.73-4.89,3.36C90.9,526.5,92.03,525.69,92.13,523.65z"/>
	<path d="M586.51,518.96c-0.61,2.96-0.82,5.2-0.2,7.44C587.33,524.16,586.82,521.91,586.51,518.96z"/>
	<path d="M90.6,522.83c-2.24,0.41-2.24,0.41-3.87,1.43C88.25,524.57,89.48,524.06,90.6,522.83z"/>
	<path d="M587.23,517.43c1.22-1.73,1.22-1.73,0.61-3.57C587.64,515.19,586.62,515.9,587.23,517.43z"/>
	<path d="M120.27,511.31c1.12-0.2,2.34-0.1,3.47-1.63C122,509.78,120.98,510.19,120.27,511.31z"/>
	<path d="M150.96,517.12c1.33,0.31,2.24,0.31,3.47-0.92C152.89,516,151.98,516.21,150.96,517.12z"/>
	<path d="M790.83,389.58c-0.31,1.53,0,2.45,0.92,3.57C791.85,391.82,792.26,390.7,790.83,389.58z"/>
	<path d="M795.32,506.52c-1.02-0.1-1.53,0.2-1.73,1.33C794.71,508.25,795.22,507.74,795.32,506.52z"/>
	<path d="M797.26,510.8c-0.61,0.2-1.02,0.51-0.92,1.43C797.26,512.23,797.67,512.03,797.26,510.8z"/>
	<path d="M794.61,378.26c-1.02,0.2-1.53,0.51-1.53,1.53C794.2,379.89,794.61,379.38,794.61,378.26z"/>
	<path d="M588.14,509.07c-0.71,0.31-0.71,0.82-0.2,1.43C588.14,510.09,589.06,509.78,588.14,509.07z"/>
	<path d="M775.23,377.24c-0.92,0.51-0.92,1.02-0.1,1.63C775.85,378.36,775.95,377.85,775.23,377.24z"/>
	<path d="M791.75,381.62c-1.35,0-0.85,1.97,0.1,1.02C792.16,382.34,792.36,381.93,791.75,381.62z"/>
	<path d="M786.55,395.49c0,0.71,0.31,0.92,0.92,0.82C787.57,395.49,787.16,395.28,786.55,395.49z"/>
	<path d="M83.15,496.32c0.82-0.31,1.12-0.92,1.12-1.84C83.46,494.9,83.05,495.51,83.15,496.32z"/>
	<path d="M127.4,428.42l-0.1-0.1C127.33,428.48,127.23,428.46,127.4,428.42z"/>
	<path d="M170.74,361.64c-1,1.99,1.09,6.48,1.48,6.77c0.53,0.4,1.27,0.47,1.89,0.47C170.31,365.08,173.58,360.22,170.74,361.64z"/>
	<path d="M470.89,491.63c2.28-4.9,0-2.65-0.31-2.04c-8.77,17.21-11.44,18.83-9.69,24.98c1.25,4.38,1.73,8.87,1.43,13.76
		c2.01-3.88,1.39-6.88-0.1-12.64C460.12,507.56,464.42,505.58,470.89,491.63z"/>
	<path d="M516.06,486.94c-2.39,2.39-16.9,33.39-15.6,35.99c0.96-1.91,10.68-27.44,15.7-33.95
		C516.37,488.72,516.73,487.17,516.06,486.94z"/>
	<path d="M497.61,492.35c0.1,0,0.3-0.04,0.41-0.1C517.19,473.47,519.17,471.22,497.61,492.35z"/>
	<path d="M520.95,486.08c-0.61-0.11-0.32-3.15-1.97-4.77c-0.31-0.31,0.23-0.78-2.81,5.64c0.89,0.89,1.71-2.29,2.75-3.16
		c1.11,2.6,0.31,5.29,1.22,8.26c1.65-2.31-0.02-5.26,2.35-6.73C521.93,485.59,521.54,486.18,520.95,486.08z"/>
	<path d="M461.92,533.74c-1.84,5.81-2.96,11.83-6.02,17.23C460.39,546.08,461.31,539.96,461.92,533.74z"/>
	<path d="M478.85,511.62c-9.39,4.43-11.51,10.31-10.67,9.47c0.11-0.09,11.05-9.09,10.95-9.2
		C484.25,509.93,482.06,508.41,478.85,511.62z"/>
	<path d="M499.34,498.46c-5.97,2.46-14.45,8.96-14.67,9.7c0,0,0,0-0.01-0.01c-0.09,0.22-0.13,0.1,0.1,0.1
		c-0.01-0.01-0.02-0.02-0.02-0.02c0.03,0,0.07-0.01,0.12-0.03c3.55-2.26,10.77-6.73,15.2-9.46
		C500.29,498.62,499.46,498.4,499.34,498.46z"/>
	<path d="M448.05,507.13c-0.54-7.38-9.92-13.17-2.54-4.69C446.54,503.63,446.85,505.35,448.05,507.13z"/>
	<path d="M438.68,512.03c-0.51-2.14-1.22-4.08-3.36-6.22C435.52,508.86,437.25,510.39,438.68,512.03z"/>
	<path d="M505.25,495.61c2.72-2.72,1.19-1.41-0.2-0.19C505.15,495.51,505.25,495.61,505.25,495.61z"/>
	<path d="M509.42,490.72c-0.93,1.07-1.83,2.14-2.73,3.21C509.83,491.01,510.2,490.98,509.42,490.72z"/>
	<path d="M521.06,470.83c-1.94,0.31-3.16,1.02-3.67,2.75C518.81,473.08,520.34,472.77,521.06,470.83z"/>
	<path d="M464.68,474.61c1.02,1.02,2.24,2.04,4.38,2.75C467.63,475.32,466.51,474.51,464.68,474.61z"/>
	<path d="M482.42,509.58c-0.02,0.04-0.05,0.08-0.07,0.12C482.56,509.66,482.55,509.71,482.42,509.58z"/>
	<path d="M459.27,525.8c-1.2,0.08-3.55,1.49-3.43,2.11c-0.14-0.15-1.1,0.36-13.39,6.65C446.63,535.01,458.34,527.04,459.27,525.8z
		 M455.87,527.98c0.01,0.02,0.02,0.04,0.03,0.06C455.89,528.01,455.88,527.99,455.87,527.98z"/>
	<path d="M464.67,482.6c1.32,0.14,0.03-1.57-1.11-1.06C463.79,482.16,464.08,482.54,464.67,482.6z"/>
	<path d="M482.62,509.68c1,0,1.71-0.63,1.97-1.4C483.7,508.43,483.04,508.73,482.62,509.68z"/>
	<path d="M460.8,524.67c-0.48,0.25-1.15,0.29-1.37,0.92C459.23,526.19,460.8,525.81,460.8,524.67z"/>
	<path d="M501.89,497.45c0.93,0.35,2.06-0.99,1-0.91C502.41,496.57,502.12,496.99,501.89,497.45z"/>
	<path d="M550.15,499.2c-0.35,0-0.59,0.25-2.58,0.46c-3.02,0.31-5.5-0.14-8.87,0.23c-1.13,0.23-3.12,1.45,0.11,1.28
		c1.78-0.09,3.4-0.84,5.09-0.88c1.85-0.04,2.96,0.31,4.25,0.25C549.71,500.49,551.47,499.68,550.15,499.2z"/>
	<path d="M529.83,494.9c2.14-3.16,2.24-6.22,0.71-8.67C530.54,489.08,530.34,491.74,529.83,494.9z"/>
	<path d="M527.38,470.32c0-1.94,0-3.77,0-6.32C526.1,466.3,525.62,468.35,527.38,470.32z"/>
	<path d="M555.21,499.08c2.03,0.51,4.07,1,5.9,0C561.51,498.86,562.19,499.08,555.21,499.08z"/>
	<path d="M539.31,454.93c0.2-0.82,0.41-1.53-0.82-1.63C538.39,454.01,538.7,454.52,539.31,454.93z"/>
	<path d="M569.08,449.42c0.71,0.51,1.33,0.71,2.14,0.1C570.51,448.71,569.79,449.12,569.08,449.42z"/>
	<path d="M561.43,499.08c0.61-0.1,1.33-0.2,2.45-0.31C562.76,498.36,562.04,498.46,561.43,499.08z"/>
	<path d="M602.32,511.41c2.75,4.57,5.23,8.3,7.65,10.5C612.6,518.49,605.03,512.77,602.32,511.41z"/>
	<path d="M618.73,454.32c-2.04-2.35-3.16-5.2-4.89-7.75C614.04,450.04,615.57,452.69,618.73,454.32z"/>
	<path d="M605.89,482.15c-1.36-4.27-3.48-8.59-3.51-4.23C602.37,479.72,603.43,480.85,605.89,482.15z"/>
	<path d="M621.49,479.47c-0.13,11.99,3.28,3.85-0.01-0.99C621.49,478.82,621.5,479.14,621.49,479.47z"/>
	<path d="M607.82,487.76c0-1.62,0.68-4.7-2.04-5.61C605.38,484.38,607.3,485.88,607.82,487.76z"/>
	<path d="M592.02,578.6c1.02-2.45,1.22-4.28,0.61-6.12C593.04,574.32,591.71,576.05,592.02,578.6z"/>
	<path d="M620.87,453.91c-0.41,1.73,0.1,2.85,1.43,3.77C621.89,456.46,622.61,454.83,620.87,453.91z"/>
	<path d="M616.28,511.11c0.41-1.84,0-2.75-1.02-3.77C614.76,508.86,615.37,509.68,616.28,511.11z"/>
	<path d="M635.19,437.04c0.28-1.07,0.04-1.38-0.96-2.59C634.82,439.21,634.65,439.09,635.19,437.04z"/>
	<path d="M615.98,501.63c-0.2,1.02-1.43,1.73-0.31,2.75C616.28,503.05,616.28,503.05,615.98,501.63z"/>
	<path d="M609.15,497.34c1.82-2.55-0.6-1.76-0.29-0.62C608.91,496.9,608.99,497.12,609.15,497.34z"/>
	<path d="M618.05,470.09c0.09,0.6,0.2,0.68,0.68,1.16C618.53,470.45,617.95,469.41,618.05,470.09z"/>
	<path d="M414.92,539.45c3.16,1.63,6.02,1.22,8.56,1.63C421.14,539.45,418.39,539.25,414.92,539.45z"/>
	<path d="M370.57,528.03c1.68,0.6,3.45,0.11,5.2-0.31C374.05,526.92,372.34,527.41,370.57,528.03z"/>
	<path d="M389.74,525.28c-2.65,0.1-4.49,0.41-6.32,1.02C385.35,526.5,387.39,526.91,389.74,525.28z"/>
	<path d="M411.86,540.67c-1.73,0.31-3.16,0.61-4.59,0.82C408.7,542,410.23,542.2,411.86,540.67z"/>
	<path d="M411.17,517.49c0.51,0.01,1.04-0.2,1.71-0.57C411,515.33,409.09,517.44,411.17,517.49z"/>
	<path d="M315.47,528.91c-0.89,0.37-1.36,0.35-1.28,1.06C316.86,530.55,316.81,528.36,315.47,528.91z"/>
	<path d="M342.57,528.02c-2.62-0.13,0.1,1.81,1.79,1.03C343.8,528.35,343.23,528.05,342.57,528.02z"/>
	<path d="M420.73,534.15c-0.92-0.41-1.73-1.22-2.55,0C419.1,535.17,419.92,534.35,420.73,534.15z"/>
	<path d="M412.08,534.35c1.33-0.1,2.04,0.2,2.75-0.51C413.9,532.82,413.2,533.39,412.08,534.35z"/>
	<path d="M309.4,529.66c0.82,1.22,1.33,1.02,1.94,0.1C310.72,529.36,310.21,529.26,309.4,529.66z"/>
	<path d="M394.12,524.16c0.58,0,0.89-0.44,1.22-0.92C394.33,523.04,393.61,522.83,394.12,524.16z"/>
	<path d="M422.57,538.94c0.61,0.37,1.25,0.24,1.94,0C423.69,538.53,423.18,538.23,422.57,538.94z"/>
	<path d="M279.12,557.29c-2.04,2.24-0.51,4.08,0.71,6.22c2.39-0.55,4.5-0.39,4.89-3.16C285.41,556.92,281.3,554.89,279.12,557.29z
		 M281.97,561.58c-0.88-0.29-0.37-0.47-0.52-0.85c-0.64-1.07-1.06,0.36-1.83-0.28C277.2,556.82,287.16,556.37,281.97,561.58z"/>
	<path d="M279.08,548.53c-4.43,0.06-3.95,6.87,0.08,6.83C283.77,555.32,283.41,548.47,279.08,548.53z M280.13,550.26
		c1.7,0.64,1.43,3.31-0.31,3.67C275.8,554.76,276.82,548.71,280.13,550.26z"/>
	<path d="M278.1,547.51c1.04,0.4,1.84-0.6,2.24-1.63c0.09-1.55-0.59-2.7-1.12-4.08c-1.74,0.33-3.72,0.52-5.28,1.62
		c-2.03,1.43,1.67,0.46,1.67,1.87c-0.06,0.82-1.03,1.56-0.79,2.55C275.17,549.27,275.39,546.46,278.1,547.51z M276.97,544.04
		c1.49-1.49,2.88,0.68,1.43,2.14C276.97,545.98,276.87,545.06,276.97,544.04z"/>
	<path d="M685.21,429.24c5.33,0.79,6.24,7.23,8.13,6.93C696.47,435.67,690.46,427.64,685.21,429.24z"/>
	<path d="M685.11,433.62c1.76,1.18,2.18,3.38,4.21,3.86c0.1,0.03,1.51-0.78,1.6-1.71C689.29,434.54,687.86,433.21,685.11,433.62z"/>
	<path d="M658.09,425.16c-1.32,0.22-2.18,0.63-2.85,1.94C656.56,426.79,657.78,426.89,658.09,425.16z"/>
	<path d="M655.32,444.3c-0.51,1.58,1.24,0.5,1.09-0.15C656.26,443.43,655.51,443.72,655.32,444.3z"/>
	<path d="M671.04,433.93c-0.41,0.92-0.1,1.22,0.61,1.22C672.26,434.23,671.85,434.03,671.04,433.93z"/>
	<path d="M309.6,518.35c-0.61-0.51-1.22-1.12-2.04-0.31C308.38,519.16,308.38,519.16,309.6,518.35z"/>
	<path d="M312.16,517.74c0.36,0.32,0.78,0.58,1.25,0.58C315.64,518.33,313.71,516.34,312.16,517.74z"/>
	<path d="M133.83,419.55c-1.29,3.37-4.13,5.89-6.16,8.85c-0.1,0.1,4.66-0.74,8.2-8.02C135.06,420.46,134.87,419.76,133.83,419.55z"
		/>
	<path d="M127.64,428.44l-0.03,0.01c-0.07,0.02-0.13,0.05-0.2,0.07C127.58,428.69,127.47,428.6,127.64,428.44z"/>
	<path d="M141.88,413.84c-0.44,3.04-2.26,1.96,0.1,6.22c1.02-1.33,1.53-2.55,1.63-3.98c-0.1,0-0.92,0.17-1.02,0.2
		C141.92,415.61,142.87,414.66,141.88,413.84z"/>
	<path d="M157.18,452.79c-2.14-0.71-3.26-2.96-5.61-3.87C152.29,451.94,154.13,452.95,157.18,452.79z"/>
	<path d="M163.36,390.57c-0.19-2-0.73-3.11-2.72-2.94C163.66,394.34,163.8,395.12,163.36,390.57z"/>
	<path d="M168.12,477.26c-0.82-0.24,0.53,3.27,5.17,3.47C171.95,479.01,170.23,477.86,168.12,477.26z"/>
	<path d="M164.01,420.16c0.82,2.55,1.84,4.08,3.26,5.51C167.07,423.63,166.15,421.9,164.01,420.16z"/>
	<path d="M137.13,418.92c0.84,0.62,1.7-1.35-0.65-2.53C136.83,417.19,136.36,418.34,137.13,418.92z"/>
	<path d="M133.73,433.34c-0.14,2.86,1.66,0.71,1.53-2.26C134.21,431.85,133.76,432.54,133.73,433.34z"/>
	<path d="M184.4,543.73c0.2,1.53,0.51,2.65,1.63,3.77C185.83,545.26,185.83,545.26,184.4,543.73z"/>
	<path d="M161.46,456.46c-0.51-0.82-0.61-2.04-2.34-2.04C159.61,455.53,160.25,456.36,161.46,456.46z"/>
	<path d="M148.14,447.95c0.58,0.6,2-0.42-0.04-1.58C147.48,446.86,147.77,447.56,148.14,447.95z"/>
	<path d="M159.21,415.27c0.53,1.27,0.52,2.03,1.94,2.14C161.05,416.39,160.74,415.78,159.21,415.27z"/>
	<path d="M189.6,550.77c0.82,0.51,0.92,1.73,2.14,0.82C191.33,550.97,191.13,550.26,189.6,550.77z"/>
	<path d="M161.97,484.9c-0.31-1.12-0.82-1.84-2.14-2.14C160.34,484.09,160.74,484.7,161.97,484.9z"/>
	<path d="M164.65,399.81c0.08-0.75-1.04-0.71-0.85,0.06C163.8,400.36,164.59,400.38,164.65,399.81z"/>
	<path d="M182.74,539.49c-0.05,0.56,0.79,1.15,0.85,0.34C183.6,539.56,182.81,538.58,182.74,539.49z"/>
	<path d="M117.82,433.62c-2.24,0.2-2.24,0.2-3.77,1.53C116.6,435.15,116.6,435.15,117.82,433.62z"/>
	<path d="M75.71,472.06c0.51-1.02,1.22-1.63,0.82-2.85C76.02,470.12,75.2,470.83,75.71,472.06z"/>
	<path d="M97.12,469.2c0.79,0.22,1.38,0.17,2.04-0.1C98.55,468.79,97.78,469.01,97.12,469.2z"/>
	<path d="M105.69,436.78c0.51,0.41,1.02,0.41,1.53,0C106.71,436.27,106.2,436.37,105.69,436.78z"/>
	<path d="M192.35,349.4c4.1-1.67,8.14,4.53,9.18,0.71c-4.23-2.93-8.03-3.31-11.11-1.19C190.25,349.04,191.69,349.68,192.35,349.4z"
		/>
	<path d="M193.17,353.38c1.14-0.08,5.46,2.84,5.5-0.27C198.69,350.06,191.78,353.38,193.17,353.38z"/>
	<path d="M172.77,373.98c0.11-1.86-0.37-4.31-1.02-6.02C170.63,370.2,171.86,372.04,172.77,373.98z"/>
	<path d="M163.5,362.86c1.12-0.62,1.74-1.26,1.94-2.75C163.9,360.62,163.7,361.54,163.5,362.86z"/>
	<path d="M178.48,358.38c0.41,0.61,0.51,1.33,1.33,0.82C179.67,358.48,179.53,358.07,178.48,358.38z"/>
	<path d="M106.81,562.6c-1.69-1.22-3.81-1.11-5.08,0.92c-2.04,3.27,3.15,5.21,4.06,6.12C106.05,568.84,110.79,565.48,106.81,562.6z
		 M106.6,566.67c-1.03-0.61-2.15-0.89-2.96,0C100.49,562.47,108.64,561.61,106.6,566.67z"/>
	<path d="M99.76,557.17c-2.1-0.96-4.53,0.56-4.67,2.64c0,2.21,2.05,3.8,3.76,3.8C102.33,563.61,103.58,558.91,99.76,557.17z
		 M98.75,562.39c-1.53-0.47-2.43-1.22-2.04-2.75C97.73,555.67,103.78,560.95,98.75,562.39z"/>
	<path d="M96.1,554.93c-0.12-1.67-1.91-2.29-3.36-3.34c-0.04,0.04-2.71,3.8-3.47,4.89c-0.08,0.08,0.23,0.69,0.59,0.69
		c0.73,0.04,1.16-1.41,2.06-0.69c0.61,0.82-0.08,2.06,0.71,2.85C94.72,555.78,96.28,557.28,96.1,554.93z M94.06,555.87
		c-0.82,0-1.22-0.51-2.04-1.22C94.75,552.45,95.07,555.87,94.06,555.87z"/>
	<path d="M790.63,279.26c-0.97,1.5-3.92,16.59-2.24,25.59c0.61,3.28-2.18,4.08-2.65,8.26c-1.58,13.98-1.22,20.63-3.98,29.16
		c-0.93,2.87-0.45,4.88-0.73,10.52c-0.21,4.08-0.49,4.92-0.49,5.28c1.68-1.3,1.41-3.17,1.33-5.3c-0.52-13.62,3.32-13.21,3.67-26.41
		c0.67-25.2,3.97-9.65,3.57-25.59C788.77,287.68,792.38,281.74,790.63,279.26z"/>
	<path d="M771.67,275.69c-1.16,1.55-1.31,2.27,0.1,4.59c2.37,3.91,6.31,2.5,5.49,2.4C773.52,281.84,773.77,277.79,771.67,275.69z"/>
	<path d="M817.95,311.99c-0.1-2.65-2.24-7.34-4.28-9.58C814.59,305.67,815.81,308.72,817.95,311.99z"/>
	<path d="M800.72,290.07c-0.61-3.26-1.12-5.81-1.63-8.36C797.52,281.71,797.18,286.09,800.72,290.07z"/>
	<path d="M768.31,337.2c0.14,0.13-0.89-0.64-2.46-0.85C768.37,339.77,775.76,341.41,768.31,337.2z"/>
	<path d="M758.51,316.68c-1.94,0.1-3.26,0.41-4.28,1.33C755.56,317.9,756.98,317.9,758.51,316.68z"/>
	<path d="M780.43,358.07c-0.8,1.6-0.04,3.4-0.3,5.01c0,0.21,1.33-0.83,0.82-1.95C780.53,360.22,780.43,359.07,780.43,358.07z"/>
	<path d="M785.23,276.3c-0.17-0.68-0.06-1.86-0.92-2.14C783.66,274.65,783.85,276.47,785.23,276.3z"/>
	<path d="M762.39,336.05c0.43,0.04,3.42,0.2,3.47,0.2C764.73,335.33,763.61,335.74,762.39,336.05z"/>
	<path d="M758.82,335.23c0,0.18-0.09,0.05,0.61,0.15C760.34,335.52,760.35,335.23,758.82,335.23z"/>
	<path d="M762.9,357.05c0,0.14-0.2,0.1,1.33,0.1C764.22,356.83,764.09,357.05,762.9,357.05z"/>
	<path d="M792.76,278.06c-1.01,0.32,0.47,0.44,1.23,0.18C793.53,278.09,793.18,277.93,792.76,278.06z"/>
	<path d="M798.97,181.78c-0.69,7.84,5.02-6.45-0.18-9.78C799.95,175.57,799.24,178.67,798.97,181.78z"/>
	<path d="M822.13,7.34c-2.96,2.85-3.67,5.91-2.24,9.38C819.99,13.56,821.01,10.71,822.13,7.34z"/>
	<path d="M810,95.84c1.53-2.55,1.84-4.38,0.61-6.83C809.59,91.25,808.88,93.09,810,95.84z"/>
	<path d="M794.61,157.52c1.94-2.04,2.35-4.69,2.75-8.26C793.38,158.74,793.78,156.7,794.61,157.52z"/>
	<path d="M820.4,100.53c-2.14-1.63-2.14-1.63-3.77-0.51C818.28,101.87,818.25,101.83,820.4,100.53z"/>
	<path d="M825.81,39.87c-1.02,1.94-1.02,1.94-0.61,4.38C826.31,41.9,826.31,41.9,825.81,39.87z"/>
	<path d="M810,129.38c1.05-1.59,0.56-2.74-0.31-4.49C809.41,126.61,809.35,127.76,810,129.38z"/>
	<path d="M833.76,42.62c-1.21-0.15-1.51,0.19-2.04,1.12C832.85,44.12,833.45,43.82,833.76,42.62z"/>
	<path d="M809.29,85.54c0.02,0.28,0.02,0.35,0.02,0.57C809.34,89.81,811.73,88.21,809.29,85.54z"/>
	<path d="M798.38,142.54c-0.31,0.61-0.71,1.33,0.2,2.24C798.79,143.86,799.4,143.25,798.38,142.54z"/>
	<path d="M793.48,207.07c2.06,2.16,2.13,2.23,6.22,1.94C794.9,205.57,794.97,205.7,793.48,207.07z"/>
	<path d="M823.37,226.46c0.02-5.9-1.78,8.7-1.78,9.13C821.5,240.74,823.36,231.13,823.37,226.46z"/>
	<path d="M795.01,270.59c0.41-2.55,0.41-5.1-1.63-7.75C793.38,265.9,793.59,268.25,795.01,270.59z"/>
	<path d="M789.2,213.5c0.41,1.33,1.12,1.84,2.75,1.73C791.24,214.11,791.04,212.99,789.2,213.5z"/>
	<path d="M805.11,210.74c0.9,0.5,1.66,0.51,2.55-0.1C805.92,209.72,805.92,209.72,805.11,210.74z"/>
	<path d="M791.03,202.89c-1.78,0.12-3.81,3.22-1.24,1.83C790.44,204.3,790.77,203.62,791.03,202.89z"/>
	<path d="M789.1,226.34c0.51,1.02,1.12,1.22,2.34,0.51C790.53,226.45,790.12,225.63,789.1,226.34z"/>
	<path d="M784.79,209.99c-0.75-0.02-1.04,0.47-1.4,1.37C785.01,211.21,785.51,210,784.79,209.99z"/>
	<path d="M816.22,222.47c-0.2,0.51-1.22,0.71-0.82,1.53C816.25,223.77,816.49,223.26,816.22,222.47z"/>
	<path d="M778.78,529.36c2.55-2.45,3.06-3.77,2.24-5.51c0.1,0-1.45-2.42-3.76-1.94c-1.52,0.32-2.55,1.12-2.74,2.75
		C774.18,527.65,776.54,528.38,778.78,529.36z M775.74,524.77c0.91-2.85,4.18-1.32,4.18-0.07c0.19,0.69-0.16,1.93-0.71,2
		c-0.54,0.06-0.69-0.57-1.19-0.69c-0.75,0-0.58,1-1.27,1C776.14,527,775.33,526.06,775.74,524.77z"/>
	<path d="M767.08,514.37c-2.42-1.84-1.6-1.55-5.51,3.98c1.25,1.16,1.81-0.74,2.53-0.46c1.65,0.66-0.06,2.98,1.75,3.21
		c0.71-0.51,0.2-1.63,1.22-2.24C769.63,517.12,769.58,516.27,767.08,514.37z M764.73,516.51c0.85-1.99,1.99-1.63,2.96,0.31
		C766.26,518.55,765.55,517.33,764.73,516.51z"/>
	<path d="M771.16,517.63c-4.48,0-4.36,6.83,0.3,6.83C775.95,524.46,775.83,517.63,771.16,517.63z M771.26,523.14
		c-3.92-0.45-1.24-6.1,1.51-3.67C773.89,520.46,773.72,523.14,771.26,523.14z"/>
	<path d="M796.07,531.94c0.14-0.99-1.12-0.44-1.1,0.41C794.99,533.07,795.99,532.52,796.07,531.94z"/>
	<path d="M823.56,124.08c1.14,1.14,2.48,0.24,3.81,0.22c1.83-0.02,5.25,3.44,6.42,1.41C834.29,124.86,828.32,120.89,823.56,124.08z"
		/>
	<path d="M826.12,128.16c1.41,0.08,2.41,1.37,3.72,1.32c1.11-0.04,1.79-0.93,1.48-2.33C829.28,126.87,827.56,126.72,826.12,128.16z"
		/>
<path fill="#e6e6e6" d="m206.8 163.6c0-5.1 4.1-9.2 9.3-9.2s9.2 4.2 9.2 9.2-4.1 9.2-9.3 9.2-9.2-4.1-9.2-9.2zm17.3-.1c0-4.5-3.5-8.2-8.2-8.2s-8.2 3.7-8.2 8.3c0 4.5 3.5 8.2 8.2 8.2s8.2-3.7 8.2-8.3zm-13 0c0-2.8 2.1-5.1 5.1-5.1 1.9 0 2.9.6 3.9 1.5l-1.4 1.7c-.8-.7-1.5-1.1-2.5-1.1-1.7 0-2.8 1.4-2.8 3.1s1.1 3 2.8 3c1.1 0 1.7-.5 2.5-1.1l1.4 1.4c-1.1 1.1-2.1 1.7-4 1.7-2.9 0-5-2.3-5-5.1z"/><path fill="#e6e6e6" d="m226.6 154.7h3.4l4.2 13.2 4.4-13.3h2.6l4.4 13.3 4.2-13.2h3.3l-6.2 18h-2.7l-4.4-12.8-4.4 12.8h-2.7z"/><path fill="#e6e6e6" d="m252.8 165.8c0-3.9 3.1-7 7.2-7 4.2 0 7.2 3.2 7.2 7s-3.1 7-7.3 7c-4 0-7.1-3.1-7.1-7zm11.3 0c0-2.3-1.7-4.3-4.2-4.3s-4.1 2-4.1 4.3 1.7 4.3 4.1 4.3c2.7.1 4.2-1.9 4.2-4.3z"/><path fill="#e6e6e6" d="m269.5 159.1h3.1v3c.8-2 2.4-3.4 4.8-3.3v3.2h-.2c-2.7 0-4.6 1.7-4.6 5.4v5.1h-3.1z"/><path fill="#e6e6e6" d="m279.1 153.9h3.1v11.1l5.6-6h3.8l-5.4 5.5 5.5 8h-3.5l-4.1-5.8-1.9 2v3.9h-3.1z"/><path fill="#e6e6e6" d="m291.7 165.8c0-3.9 3.1-7 7.2-7 4.2 0 7.2 3.2 7.2 7s-3.1 7-7.3 7c-4 0-7.1-3.1-7.1-7zm11.3 0c0-2.3-1.7-4.3-4.2-4.3s-4.1 2-4.1 4.3 1.7 4.3 4.1 4.3c2.6.1 4.2-1.9 4.2-4.3z"/><path fill="#e6e6e6" d="m308.2 167.6v-8.6h3.1v7.6c0 2.1 1.1 3.3 2.9 3.3s3-1.3 3-3.3v-7.6h3.1v13.4h-3.1v-2.1c-.8 1.3-2.1 2.3-4.2 2.3-3.1.2-4.8-1.8-4.8-5z"/><path fill="#e6e6e6" d="m323.9 168.8v-7.1h-1.7v-2.6h1.7v-3.7h3.1v3.7h3.6v2.6h-3.6v6.6c0 1.2.6 1.7 1.7 1.7.7 0 1.3-.2 1.9-.5v2.5c-.8.5-1.7.7-2.8.7-2.3 0-3.9-.9-3.9-3.9z"/><path fill="#e6e6e6" d="m333.2 154.7h3.2v15h9.4v2.9h-12.5v-17.9z"/><path fill="#e6e6e6" d="m356 172.5v-1.7c-.9 1.1-2.3 2-4.4 2-2.6 0-4.8-1.4-4.8-4.2 0-3 2.3-4.4 5.4-4.4 1.7 0 2.6.2 3.7.5v-.2c0-1.9-1.2-2.9-3.3-2.9-1.5 0-2.6.3-3.9.8l-.8-2.5c1.5-.7 2.9-1.1 5.1-1.1 4 0 5.9 2.1 5.9 5.7v8zm.1-5.6c-.8-.3-1.9-.5-3.1-.5-2 0-3.1.8-3.1 2.1s1.1 2 2.6 2c2 0 3.5-1.1 3.5-2.9z"/><path fill="#e6e6e6" d="m364.9 170.5v2.1h-3.1v-18.7h3.1v7.4c1-1.4 2.4-2.5 4.5-2.5 3.2 0 6.3 2.5 6.3 7s-3.1 7-6.3 7c-2.1 0-3.5-1.1-4.5-2.3zm7.7-4.7c0-2.6-1.7-4.3-3.9-4.3s-3.9 1.7-3.9 4.4c0 2.6 1.8 4.3 3.9 4.3s3.9-1.7 3.9-4.4z"/><path fill="#e6e6e6" d="m376.9 170.8 1.4-2.1c1.4 1.1 3 1.7 4.4 1.7s2.1-.5 2.1-1.5-1.3-1.4-2.8-1.8c-.1 0-.2-.1-.2-.1-2-.6-4.2-1.4-4.2-4s2.1-4.1 4.8-4.1c1.7 0 3.5.6 5 1.5l-1.2 2.2c-1.3-.8-2.6-1.3-3.8-1.3s-1.9.5-1.9 1.4 1.3 1.4 2.8 1.8c.1 0 .2.1.2.1 2 .6 4.2 1.5 4.2 4 0 2.9-2.2 4.2-5 4.2-1.9 0-4-.7-5.8-2z"/><path fill="#e6e6e6" d="m505.6 163.6c0-5.1 4.1-9.2 9.3-9.2s9.2 4.2 9.2 9.2-4.1 9.2-9.3 9.2-9.2-4.1-9.2-9.2zm17.4-.1c0-4.5-3.5-8.2-8.2-8.2s-8.2 3.7-8.2 8.3c0 4.5 3.5 8.2 8.2 8.2s8.2-3.7 8.2-8.3zm-13.1 0c0-2.8 2.1-5.1 5.1-5.1 1.9 0 2.9.6 3.9 1.5l-1.4 1.7c-.8-.7-1.5-1.1-2.5-1.1-1.7 0-2.8 1.4-2.8 3.1s1.1 3 2.8 3c1.1 0 1.7-.5 2.5-1.1l1.4 1.4c-1.1 1.1-2.1 1.7-4 1.7-2.9 0-5-2.3-5-5.1z"/><path fill="#e6e6e6" d="m525.4 154.7h3.4l4.2 13.2 4.4-13.3h2.6l4.4 13.3 4.2-13.2h3.3l-6.2 18h-2.7l-4.4-12.8-4.4 12.8h-2.7z"/><path fill="#e6e6e6" d="m551.7 165.8c0-3.9 3.1-7 7.2-7 4.2 0 7.2 3.2 7.2 7s-3.1 7-7.3 7c-4.1 0-7.1-3.1-7.1-7zm11.2 0c0-2.3-1.7-4.3-4.2-4.3s-4.1 2-4.1 4.3 1.7 4.3 4.1 4.3c2.7.1 4.2-1.9 4.2-4.3z"/><path fill="#e6e6e6" d="m568.3 159.1h3.1v3c.8-2 2.4-3.4 4.8-3.3v3.2h-.2c-2.7 0-4.6 1.7-4.6 5.4v5.1h-3.1z"/><path fill="#e6e6e6" d="m577.9 153.9h3.1v11.1l5.6-6h3.8l-5.4 5.5 5.5 8h-3.5l-4.1-5.8-1.9 2v3.9h-3.1z"/><path fill="#e6e6e6" d="m590.6 165.8c0-3.9 3.1-7 7.2-7 4.2 0 7.2 3.2 7.2 7s-3.1 7-7.3 7c-4.1 0-7.1-3.1-7.1-7zm11.2 0c0-2.3-1.7-4.3-4.2-4.3s-4.1 2-4.1 4.3 1.7 4.3 4.1 4.3c2.6.1 4.2-1.9 4.2-4.3z"/><path fill="#e6e6e6" d="m607 167.6v-8.6h3.1v7.6c0 2.1 1.1 3.3 2.9 3.3s3-1.3 3-3.3v-7.6h3.1v13.4h-3.1v-2.1c-.8 1.3-2.1 2.3-4.2 2.3-3 .2-4.8-1.8-4.8-5z"/><path fill="#e6e6e6" d="m622.7 168.8v-7.1h-1.7v-2.6h1.7v-3.7h3.1v3.7h3.6v2.6h-3.6v6.6c0 1.2.6 1.7 1.7 1.7.7 0 1.3-.2 1.9-.5v2.5c-.8.5-1.7.7-2.8.7-2.3 0-3.9-.9-3.9-3.9z"/><path fill="#e6e6e6" d="m632 154.7h3.2v15h9.4v2.9h-12.6z"/><path fill="#e6e6e6" d="m654.8 172.5v-1.7c-.9 1.1-2.3 2-4.4 2-2.6 0-4.8-1.4-4.8-4.2 0-3 2.3-4.4 5.4-4.4 1.7 0 2.6.2 3.7.5v-.2c0-1.9-1.2-2.9-3.3-2.9-1.5 0-2.6.3-3.9.8l-.8-2.5c1.5-.7 2.9-1.1 5.1-1.1 4 0 5.9 2.1 5.9 5.7v8zm.1-5.6c-.8-.3-1.9-.5-3.1-.5-2 0-3.1.8-3.1 2.1s1.1 2 2.6 2c2 0 3.5-1.1 3.5-2.9z"/><path fill="#e6e6e6" d="m663.7 170.5v2.1h-3.1v-18.7h3.1v7.4c1-1.4 2.4-2.5 4.5-2.5 3.2 0 6.3 2.5 6.3 7s-3.1 7-6.3 7c-2.1 0-3.5-1.1-4.5-2.3zm7.8-4.7c0-2.6-1.7-4.3-3.9-4.3-2.1 0-3.9 1.7-3.9 4.4 0 2.6 1.8 4.3 3.9 4.3s3.9-1.7 3.9-4.4z"/><path fill="#e6e6e6" d="m675.8 170.8 1.4-2.1c1.4 1.1 3 1.7 4.4 1.7s2.1-.5 2.1-1.5-1.3-1.4-2.8-1.8c-.1 0-.2-.1-.2-.1-2-.6-4.2-1.4-4.2-4s2.1-4.1 4.8-4.1c1.7 0 3.5.6 5 1.5l-1.2 2.2c-1.3-.8-2.6-1.3-3.8-1.3s-1.9.5-1.9 1.4 1.3 1.4 2.8 1.8c.1 0 .2.1.2.1 2 .6 4.2 1.5 4.2 4 0 2.9-2.2 4.2-5 4.2-2 0-4.1-.7-5.8-2z"/><path fill="#e6e6e6" d="m61 298.6c0-5.1 4.1-9.2 9.3-9.2s9.2 4.2 9.2 9.2-4.1 9.2-9.3 9.2c-5.1 0-9.2-4.2-9.2-9.2zm17.4-.1c0-4.5-3.5-8.2-8.2-8.2s-8.2 3.7-8.2 8.3c0 4.5 3.5 8.2 8.2 8.2s8.2-3.7 8.2-8.3zm-13.1-.1c0-2.8 2.1-5.1 5.1-5.1 1.9 0 2.9.6 3.9 1.5l-1.4 1.7c-.8-.7-1.5-1.1-2.5-1.1-1.7 0-2.8 1.4-2.8 3.1s1.1 3 2.8 3c1.1 0 1.7-.5 2.5-1.1l1.4 1.4c-1.1 1.1-2.1 1.7-4 1.7-2.8.1-5-2.2-5-5.1z"/><path fill="#e6e6e6" d="m80.9 289.7h3.4l4.2 13.2 4.4-13.3h2.6l4.4 13.3 4.2-13.2h3.3l-6.2 18h-2.7l-4.4-12.8-4.4 12.8h-2.7z"/><path fill="#e6e6e6" d="m107.1 300.8c0-3.9 3.1-7 7.2-7s7.2 3.2 7.2 7-3.1 7-7.3 7c-4 0-7.1-3.1-7.1-7zm11.3 0c0-2.3-1.7-4.3-4.2-4.3s-4.1 2-4.1 4.3 1.7 4.3 4.1 4.3c2.6.1 4.2-1.9 4.2-4.3z"/><path fill="#e6e6e6" d="m123.7 294h3.1v3c.8-2 2.4-3.4 4.8-3.3v3.2h-.2c-2.7 0-4.6 1.7-4.6 5.4v5.1h-3.1z"/><path fill="#e6e6e6" d="m133.4 288.9h3.1v11.1l5.6-6h3.8l-5.4 5.5 5.5 8h-3.5l-4.1-5.8-1.9 1.9v3.9h-3.1z"/><path fill="#e6e6e6" d="m146 300.8c0-3.9 3.1-7 7.2-7s7.2 3.2 7.2 7-3.1 7-7.3 7c-4.1 0-7.1-3.1-7.1-7zm11.2 0c0-2.3-1.7-4.3-4.2-4.3s-4.1 2-4.1 4.3 1.7 4.3 4.1 4.3c2.6.1 4.2-1.9 4.2-4.3z"/><path fill="#e6e6e6" d="m162.4 302.6v-8.6h3.1v7.6c0 2.1 1.1 3.3 2.9 3.3s3-1.3 3-3.3v-7.6h3.1v13.4h-3.1v-2.1c-.8 1.3-2.1 2.3-4.2 2.3-3 .2-4.8-1.8-4.8-5z"/><path fill="#e6e6e6" d="m178.1 303.8v-7.1h-1.7v-2.7h1.7v-3.7h3.1v3.7h3.6v2.6h-3.6v6.6c0 1.2.6 1.7 1.7 1.7.7 0 1.3-.2 1.9-.5v2.5c-.8.5-1.7.7-2.8.7-2.3.1-3.9-.9-3.9-3.8z"/><path fill="#e6e6e6" d="m187.4 289.7h3.2v15h9.4v2.9h-12.5v-17.9z"/><path fill="#e6e6e6" d="m210.2 307.5v-1.7c-.9 1.1-2.3 2-4.4 2-2.6 0-4.8-1.4-4.8-4.2 0-3 2.3-4.4 5.4-4.4 1.7 0 2.6.2 3.7.5v-.2c0-1.9-1.2-2.9-3.3-2.9-1.5 0-2.6.3-3.9.8l-.8-2.5c1.5-.7 2.9-1.1 5.1-1.1 4 0 5.9 2.1 5.9 5.7v8zm.1-5.6c-.8-.3-1.9-.5-3.1-.5-2 0-3.1.8-3.1 2.1s1.1 2 2.6 2c2 0 3.5-1.1 3.5-2.9z"/><path fill="#e6e6e6" d="m219.2 305.5v2.1h-3.1v-18.7h3.1v7.4c1-1.4 2.4-2.5 4.5-2.5 3.2 0 6.3 2.5 6.3 7s-3.1 7-6.3 7c-2.2 0-3.6-1.1-4.5-2.3zm7.7-4.7c0-2.6-1.7-4.3-3.9-4.3s-3.9 1.7-3.9 4.4c0 2.6 1.8 4.3 3.9 4.3s3.9-1.7 3.9-4.4z"/><path fill="#e6e6e6" d="m231.2 305.8 1.4-2.1c1.4 1.1 3 1.7 4.4 1.7s2.1-.5 2.1-1.5-1.3-1.4-2.8-1.8c-.1 0-.2-.1-.2-.1-2-.6-4.2-1.4-4.2-4s2.1-4.1 4.8-4.1c1.7 0 3.5.6 5 1.5l-1.2 2.2c-1.3-.8-2.6-1.3-3.8-1.3s-1.9.5-1.9 1.4 1.3 1.4 2.8 1.8c.1 0 .2.1.2.1 2 .6 4.2 1.5 4.2 4 0 2.9-2.2 4.2-5 4.2-2 0-4.1-.7-5.8-2z"/><path fill="#e6e6e6" d="m360.6 298.6c0-5.1 4.1-9.2 9.3-9.2s9.2 4.2 9.2 9.2-4.1 9.2-9.3 9.2-9.2-4.2-9.2-9.2zm17.4-.1c0-4.5-3.5-8.2-8.2-8.2s-8.2 3.7-8.2 8.3c0 4.5 3.5 8.2 8.2 8.2s8.2-3.7 8.2-8.3zm-13.1-.1c0-2.8 2.1-5.1 5.1-5.1 1.9 0 2.9.6 3.9 1.5l-1.4 1.7c-.8-.7-1.5-1.1-2.5-1.1-1.7 0-2.8 1.4-2.8 3.1s1.1 3 2.8 3c1.1 0 1.7-.5 2.5-1.1l1.4 1.4c-1.1 1.1-2.1 1.7-4 1.7-2.8.1-5-2.2-5-5.1z"/><path fill="#e6e6e6" d="m380.5 289.7h3.4l4.2 13.2 4.4-13.3h2.6l4.4 13.3 4.2-13.2h3.3l-6.2 18h-2.7l-4.4-12.8-4.4 12.8h-2.7z"/><path fill="#e6e6e6" d="m406.7 300.8c0-3.9 3.1-7 7.2-7 4.2 0 7.2 3.2 7.2 7s-3.1 7-7.3 7c-4.1 0-7.1-3.1-7.1-7zm11.3 0c0-2.3-1.7-4.3-4.2-4.3s-4.1 2-4.1 4.3 1.7 4.3 4.1 4.3c2.7.1 4.2-1.9 4.2-4.3z"/><path fill="#e6e6e6" d="m423.3 294h3.1v3c.8-2 2.4-3.4 4.8-3.3v3.2h-.2c-2.7 0-4.6 1.7-4.6 5.4v5.1h-3.1z"/><path fill="#e6e6e6" d="m433 288.9h3.1v11.1l5.6-6h3.8l-5.4 5.5 5.5 8h-3.5l-4.1-5.8-1.9 2v3.9h-3.1z"/><path fill="#e6e6e6" d="m445.6 300.8c0-3.9 3.1-7 7.2-7 4.2 0 7.2 3.2 7.2 7s-3.1 7-7.3 7c-4.1 0-7.1-3.1-7.1-7zm11.3 0c0-2.3-1.7-4.3-4.2-4.3s-4.1 2-4.1 4.3 1.7 4.3 4.1 4.3c2.6.1 4.2-1.9 4.2-4.3z"/><path fill="#e6e6e6" d="m462.1 302.6v-8.6h3.1v7.6c0 2.1 1.1 3.3 2.9 3.3s3-1.3 3-3.3v-7.6h3.1v13.4h-3.1v-2.1c-.8 1.3-2.1 2.3-4.2 2.3-3.1.2-4.8-1.8-4.8-5z"/><path fill="#e6e6e6" d="m477.8 303.8v-7.1h-1.8v-2.7h1.7v-3.7h3.1v3.7h3.6v2.6h-3.6v6.6c0 1.2.6 1.7 1.7 1.7.7 0 1.3-.2 1.9-.5v2.5c-.8.5-1.7.7-2.8.7-2.2.1-3.8-.9-3.8-3.8z"/><path fill="#e6e6e6" d="m487.1 289.7h3.2v15h9.4v2.9h-12.5v-17.9z"/><path fill="#e6e6e6" d="m509.9 307.5v-1.7c-.9 1.1-2.3 2-4.4 2-2.6 0-4.8-1.4-4.8-4.2 0-3 2.3-4.4 5.4-4.4 1.7 0 2.6.2 3.7.5v-.2c0-1.9-1.2-2.9-3.3-2.9-1.5 0-2.6.3-3.9.8l-.8-2.5c1.5-.7 2.9-1.1 5.1-1.1 4 0 5.9 2.1 5.9 5.7v8zm.1-5.6c-.8-.3-1.9-.5-3.1-.5-2 0-3.1.8-3.1 2.1s1.1 2 2.6 2c2 0 3.5-1.1 3.5-2.9z"/><path fill="#e6e6e6" d="m518.8 305.5v2.1h-3.1v-18.7h3.1v7.4c1-1.4 2.4-2.5 4.5-2.5 3.2 0 6.3 2.5 6.3 7s-3.1 7-6.3 7c-2.2 0-3.5-1.1-4.5-2.3zm7.7-4.7c0-2.6-1.7-4.3-3.9-4.3s-3.9 1.7-3.9 4.4c0 2.6 1.8 4.3 3.9 4.3s3.9-1.7 3.9-4.4z"/><path fill="#e6e6e6" d="m530.8 305.8 1.4-2.1c1.4 1.1 3 1.7 4.4 1.7s2.1-.5 2.1-1.5-1.3-1.4-2.8-1.8c-.1 0-.2-.1-.2-.1-2-.6-4.2-1.4-4.2-4s2.1-4.1 4.8-4.1c1.7 0 3.5.6 5 1.5l-1.2 2.2c-1.3-.8-2.6-1.3-3.8-1.3s-1.9.5-1.9 1.4 1.3 1.4 2.8 1.8c.1 0 .2.1.2.1 2 .6 4.2 1.5 4.2 4 0 2.9-2.2 4.2-5 4.2-1.9 0-4.1-.7-5.8-2z"/><path fill="#e6e6e6" d="m659.5 298.6c0-5.1 4.1-9.2 9.3-9.2s9.2 4.2 9.2 9.2-4.1 9.2-9.3 9.2-9.2-4.2-9.2-9.2zm17.3-.1c0-4.5-3.5-8.2-8.2-8.2s-8.2 3.7-8.2 8.3c0 4.5 3.5 8.2 8.2 8.2 4.8 0 8.2-3.7 8.2-8.3zm-13-.1c0-2.8 2.1-5.1 5.1-5.1 1.9 0 2.9.6 3.9 1.5l-1.4 1.7c-.8-.7-1.5-1.1-2.5-1.1-1.7 0-2.8 1.4-2.8 3.1s1.1 3 2.8 3c1.1 0 1.7-.5 2.5-1.1l1.4 1.4c-1.1 1.1-2.1 1.7-4 1.7-2.9.1-5-2.2-5-5.1z"/><path fill="#e6e6e6" d="m679.3 289.7h3.4l4.2 13.2 4.4-13.3h2.6l4.4 13.3 4.2-13.2h3.3l-6.2 18h-2.6l-4.4-12.8-4.4 12.8h-2.7z"/><path fill="#e6e6e6" d="m705.5 300.8c0-3.9 3.1-7 7.2-7 4.2 0 7.2 3.2 7.2 7s-3.1 7-7.3 7c-4 0-7.1-3.1-7.1-7zm11.3 0c0-2.3-1.7-4.3-4.2-4.3s-4.1 2-4.1 4.3 1.7 4.3 4.1 4.3c2.7.1 4.2-1.9 4.2-4.3z"/><path fill="#e6e6e6" d="m722.1 294h3.1v3c.8-2 2.4-3.4 4.8-3.3v3.2h-.2c-2.7 0-4.6 1.7-4.6 5.4v5.1h-3.1z"/><path fill="#e6e6e6" d="m731.8 288.9h3.1v11.1l5.6-6h3.8l-5.4 5.5 5.5 8h-3.5l-4.1-5.8-1.9 2v3.9h-3.1z"/><path fill="#e6e6e6" d="m744.4 300.8c0-3.9 3.1-7 7.2-7 4.2 0 7.2 3.2 7.2 7s-3.1 7-7.3 7c-4.1 0-7.1-3.1-7.1-7zm11.3 0c0-2.3-1.7-4.3-4.2-4.3s-4.1 2-4.1 4.3 1.7 4.3 4.1 4.3c2.6.1 4.2-1.9 4.2-4.3z"/><path fill="#e6e6e6" d="m760.9 302.6v-8.6h3.1v7.6c0 2.1 1.1 3.3 2.9 3.3s3-1.3 3-3.3v-7.6h3.1v13.4h-3.1v-2.1c-.8 1.3-2.1 2.3-4.2 2.3-3.1.2-4.8-1.8-4.8-5z"/><path fill="#e6e6e6" d="m776.6 303.8v-7.1h-1.7v-2.7h1.7v-3.7h3.1v3.7h3.6v2.6h-3.6v6.6c0 1.2.6 1.7 1.7 1.7.7 0 1.3-.2 1.9-.5v2.5c-.8.5-1.7.7-2.8.7-2.3.1-3.9-.9-3.9-3.8z"/><path fill="#e6e6e6" d="m785.9 289.7h3.2v15h9.4v2.9h-12.5v-17.9z"/><path fill="#e6e6e6" d="m808.7 307.5v-1.7c-.9 1.1-2.3 2-4.4 2-2.6 0-4.8-1.4-4.8-4.2 0-3 2.3-4.4 5.4-4.4 1.7 0 2.6.2 3.7.5v-.2c0-1.9-1.2-2.9-3.3-2.9-1.5 0-2.6.3-3.9.8l-.8-2.5c1.5-.7 2.9-1.1 5.1-1.1 4 0 5.9 2.1 5.9 5.7v8zm.1-5.6c-.8-.3-1.9-.5-3.1-.5-2 0-3.1.8-3.1 2.1s1.1 2 2.6 2c2 0 3.5-1.1 3.5-2.9z"/><path fill="#e6e6e6" d="m817.6 305.5v2.1h-3.1v-18.7h3.1v7.4c1-1.4 2.4-2.5 4.5-2.5 3.2 0 6.3 2.5 6.3 7s-3.1 7-6.3 7c-2.1 0-3.5-1.1-4.5-2.3zm7.7-4.7c0-2.6-1.7-4.3-3.9-4.3-2.1 0-3.9 1.7-3.9 4.4 0 2.6 1.8 4.3 3.9 4.3 2.2 0 3.9-1.7 3.9-4.4z"/><path fill="#e6e6e6" d="m829.6 305.8 1.4-2.1c1.4 1.1 3 1.7 4.4 1.7s2.1-.5 2.1-1.5-1.3-1.4-2.8-1.8c-.1 0-.2-.1-.2-.1-2-.6-4.2-1.4-4.2-4s2.1-4.1 4.8-4.1c1.7 0 3.5.6 5 1.5l-1.2 2.2c-1.3-.8-2.6-1.3-3.8-1.3s-1.9.5-1.9 1.4 1.3 1.4 2.8 1.8c.1 0 .2.1.2.1 2 .6 4.2 1.5 4.2 4 0 2.9-2.2 4.2-5 4.2-1.9 0-4-.7-5.8-2z"/><path fill="#e6e6e6" d="m206.3 434.2c0-5.1 4.1-9.2 9.3-9.2s9.2 4.2 9.2 9.2-4.1 9.2-9.3 9.2-9.2-4.1-9.2-9.2zm17.4-.1c0-4.5-3.5-8.2-8.2-8.2s-8.2 3.7-8.2 8.3c0 4.5 3.5 8.2 8.2 8.2s8.2-3.7 8.2-8.3zm-13.1-.1c0-2.8 2.1-5.1 5.1-5.1 1.9 0 2.9.6 3.9 1.5l-1.4 1.7c-.8-.7-1.5-1.1-2.5-1.1-1.7 0-2.8 1.4-2.8 3.1s1.1 3 2.8 3c1.1 0 1.7-.5 2.5-1.1l1.4 1.4c-1.1 1.1-2.1 1.7-4 1.7-2.9.1-5-2.2-5-5.1z"/><path fill="#e6e6e6" d="m226.1 425.3h3.4l4.2 13.2 4.4-13.3h2.6l4.4 13.3 4.2-13.2h3.3l-6.2 18h-2.7l-4.4-12.8-4.4 12.8h-2.7z"/><path fill="#e6e6e6" d="m252.4 436.4c0-3.9 3.1-7 7.2-7 4.2 0 7.2 3.2 7.2 7s-3.1 7-7.3 7c-4.1 0-7.1-3.1-7.1-7zm11.2 0c0-2.3-1.7-4.3-4.2-4.3s-4.1 2-4.1 4.3 1.7 4.3 4.1 4.3c2.7.1 4.2-1.9 4.2-4.3z"/><path fill="#e6e6e6" d="m269 429.7h3.1v3c.8-2 2.4-3.4 4.8-3.3v3.2h-.2c-2.7 0-4.6 1.7-4.6 5.4v5.1h-3.1z"/><path fill="#e6e6e6" d="m278.6 424.5h3.1v11.1l5.6-6h3.8l-5.4 5.5 5.5 8h-3.5l-4.1-5.8-1.9 2v3.9h-3.1z"/><path fill="#e6e6e6" d="m291.3 436.4c0-3.9 3.1-7 7.2-7 4.2 0 7.2 3.2 7.2 7s-3.1 7-7.3 7c-4.1 0-7.1-3.1-7.1-7zm11.2 0c0-2.3-1.7-4.3-4.2-4.3s-4.1 2-4.1 4.3 1.7 4.3 4.1 4.3c2.6.1 4.2-1.9 4.2-4.3z"/><path fill="#e6e6e6" d="m307.7 438.2v-8.6h3.1v7.6c0 2.1 1.1 3.3 2.9 3.3s3-1.3 3-3.3v-7.6h3.1v13.4h-3.1v-2.1c-.8 1.3-2.1 2.3-4.2 2.3-3 .2-4.8-1.8-4.8-5z"/><path fill="#e6e6e6" d="m323.4 439.4v-7.1h-1.7v-2.6h1.7v-3.7h3.1v3.7h3.6v2.6h-3.6v6.6c0 1.2.6 1.7 1.7 1.7.7 0 1.3-.2 1.9-.5v2.5c-.8.5-1.7.7-2.8.7-2.3 0-3.9-.9-3.9-3.9z"/><path fill="#e6e6e6" d="m332.7 425.3h3.2v15h9.4v2.9h-12.5v-17.9z"/><path fill="#e6e6e6" d="m355.5 443.1v-1.7c-.9 1.1-2.3 2-4.4 2-2.6 0-4.8-1.4-4.8-4.2 0-3 2.3-4.4 5.4-4.4 1.7 0 2.6.2 3.7.5v-.2c0-1.9-1.2-2.9-3.3-2.9-1.5 0-2.6.3-3.9.8l-.8-2.5c1.5-.7 2.9-1.1 5.1-1.1 4 0 5.9 2.1 5.9 5.7v8zm.1-5.6c-.8-.3-1.9-.5-3.1-.5-2 0-3.1.8-3.1 2.1s1.1 2 2.6 2c2 0 3.5-1.1 3.5-2.9z"/><path fill="#e6e6e6" d="m364.4 441.1v2.1h-3.1v-18.7h3.1v7.4c1-1.4 2.4-2.5 4.5-2.5 3.2 0 6.3 2.5 6.3 7s-3.1 7-6.3 7c-2.1 0-3.5-1.1-4.5-2.3zm7.7-4.7c0-2.6-1.7-4.3-3.9-4.3-2.1 0-3.9 1.7-3.9 4.4 0 2.6 1.8 4.3 3.9 4.3 2.2 0 3.9-1.7 3.9-4.4z"/><path fill="#e6e6e6" d="m376.5 441.4 1.4-2.1c1.4 1.1 3 1.7 4.4 1.7s2.1-.5 2.1-1.5-1.3-1.4-2.8-1.8c-.1 0-.2-.1-.2-.1-2-.6-4.2-1.4-4.2-4s2.1-4.1 4.8-4.1c1.7 0 3.5.6 5 1.5l-1.2 2.2c-1.3-.8-2.6-1.3-3.8-1.3s-1.9.5-1.9 1.4 1.3 1.4 2.8 1.8c.1 0 .2.1.2.1 2 .6 4.2 1.5 4.2 4 0 2.9-2.2 4.2-5 4.2-2 0-4.1-.7-5.8-2z"/><path fill="#e6e6e6" d="m505.1 434.2c0-5.1 4.1-9.2 9.3-9.2s9.2 4.2 9.2 9.2-4.1 9.2-9.3 9.2-9.2-4.1-9.2-9.2zm17.4-.1c0-4.5-3.5-8.2-8.2-8.2s-8.2 3.7-8.2 8.3c0 4.5 3.5 8.2 8.2 8.2s8.2-3.7 8.2-8.3zm-13.1-.1c0-2.8 2.1-5.1 5.1-5.1 1.9 0 2.9.6 3.9 1.5l-1.4 1.7c-.8-.7-1.5-1.1-2.5-1.1-1.7 0-2.8 1.4-2.8 3.1s1.1 3 2.8 3c1.1 0 1.7-.5 2.5-1.1l1.4 1.4c-1.1 1.1-2.1 1.7-4 1.7-2.9.1-5-2.2-5-5.1z"/><path fill="#e6e6e6" d="m525 425.3h3.4l4.2 13.2 4.4-13.3h2.6l4.4 13.3 4.2-13.2h3.3l-6.2 18h-2.7l-4.4-12.8-4.4 12.8h-2.7z"/><path fill="#e6e6e6" d="m551.2 436.4c0-3.9 3.1-7 7.2-7 4.2 0 7.2 3.2 7.2 7s-3.1 7-7.3 7c-4.1 0-7.1-3.1-7.1-7zm11.2 0c0-2.3-1.7-4.3-4.2-4.3s-4.1 2-4.1 4.3 1.7 4.3 4.1 4.3c2.7.1 4.2-1.9 4.2-4.3z"/><path fill="#e6e6e6" d="m567.8 429.7h3.1v3c.8-2 2.4-3.4 4.8-3.3v3.2h-.2c-2.7 0-4.6 1.7-4.6 5.4v5.1h-3.1z"/><path fill="#e6e6e6" d="m577.5 424.5h3.1v11.1l5.6-6h3.8l-5.4 5.5 5.5 8h-3.5l-4.1-5.8-1.9 2v3.9h-3.1z"/><path fill="#e6e6e6" d="m590.1 436.4c0-3.9 3.1-7 7.2-7 4.2 0 7.2 3.2 7.2 7s-3.1 7-7.3 7c-4.1 0-7.1-3.1-7.1-7zm11.2 0c0-2.3-1.7-4.3-4.2-4.3s-4.1 2-4.1 4.3 1.7 4.3 4.1 4.3c2.6.1 4.2-1.9 4.2-4.3z"/><path fill="#e6e6e6" d="m606.5 438.2v-8.6h3.1v7.6c0 2.1 1.1 3.3 2.9 3.3s3-1.3 3-3.3v-7.6h3.1v13.4h-3.1v-2.1c-.8 1.3-2.1 2.3-4.2 2.3-3 .2-4.8-1.8-4.8-5z"/><path fill="#e6e6e6" d="m622.2 439.4v-7.1h-1.7v-2.6h1.7v-3.7h3.1v3.7h3.6v2.6h-3.6v6.6c0 1.2.6 1.7 1.7 1.7.7 0 1.3-.2 1.9-.5v2.5c-.8.5-1.7.7-2.8.7-2.3 0-3.9-.9-3.9-3.9z"/><path fill="#e6e6e6" d="m631.5 425.3h3.2v15h9.4v2.9h-12.5v-17.9z"/><path fill="#e6e6e6" d="m654.3 443.1v-1.7c-.9 1.1-2.3 2-4.4 2-2.6 0-4.8-1.4-4.8-4.2 0-3 2.3-4.4 5.4-4.4 1.7 0 2.6.2 3.7.5v-.2c0-1.9-1.2-2.9-3.3-2.9-1.5 0-2.6.3-3.9.8l-.8-2.5c1.5-.7 2.9-1.1 5.1-1.1 4 0 5.9 2.1 5.9 5.7v8zm.1-5.6c-.8-.3-1.9-.5-3.1-.5-2 0-3.1.8-3.1 2.1s1.1 2 2.6 2c2 0 3.5-1.1 3.5-2.9z"/><path fill="#e6e6e6" d="m663.3 441.1v2.1h-3.1v-18.7h3.1v7.4c1-1.4 2.4-2.5 4.5-2.5 3.2 0 6.3 2.5 6.3 7s-3.1 7-6.3 7c-2.2 0-3.6-1.1-4.5-2.3zm7.7-4.7c0-2.6-1.7-4.3-3.9-4.3s-3.9 1.7-3.9 4.4c0 2.6 1.8 4.3 3.9 4.3s3.9-1.7 3.9-4.4z"/><path fill="#e6e6e6" d="m675.3 441.4 1.4-2.1c1.4 1.1 3 1.7 4.4 1.7s2.1-.5 2.1-1.5-1.3-1.4-2.8-1.8c-.1 0-.2-.1-.2-.1-2-.6-4.2-1.4-4.2-4s2.1-4.1 4.8-4.1c1.7 0 3.5.6 5 1.5l-1.2 2.2c-1.3-.8-2.6-1.3-3.8-1.3s-1.9.5-1.9 1.4 1.3 1.4 2.8 1.8c.1 0 .2.1.2.1 2 .6 4.2 1.5 4.2 4 0 2.9-2.2 4.2-5 4.2-2 0-4.1-.7-5.8-2z"/></g>
</svg>
