<?xml version="1.0" encoding="utf-8"?>
<!-- Generator: Adobe Illustrator 23.0.1, SVG Export Plug-In . SVG Version: 6.00 Build 0)  -->
<svg version="1.2" baseProfile="tiny" id="Layer_1" xmlns="http://www.w3.org/2000/svg" xmlns:xlink="http://www.w3.org/1999/xlink"
	 x="0px" y="0px" viewBox="0 0 900 600" xml:space="preserve">
<g>
	<path d="M347.87,164.68l0.1-0.1C347.81,164.58,347.84,164.58,347.87,164.68z"/>
	<path d="M435.9,178.54l0.1,0.1C436.01,178.58,435.97,178.57,435.9,178.54z"/>
	<path d="M263.15,337.43l-0.1-0.1C263.05,337.43,263.03,337.43,263.15,337.43z"/>
	<path d="M212.98,492.08l0.1,0.1C213.08,492.01,213.07,492.08,212.98,492.08z"/>
	<path d="M549.69,122.27c-1.13-3.58-1.83-2.33-46.45,13.03c-55.99,19.28-52.96,18.94-57.93,18.83c-1.48-0.15-4.48,1.1-3,4.66
		c0.83-0.1,1.55-0.31,2.28-0.41c0.52,0.52,0.1,1.55,1.24,1.45c1.86-0.72,1.24-2.79,2.07-4.03c1.86-0.1,3.62-0.93,5.9-0.21
		c-1.76,1.34-3.31,0.93-4.55,1.03c-1.03,1.45-0.62,3.31-2.59,4.86c-3.21-2.07-6.62-1.03-9.93,1.34c0.93-2.07,2.9-2.48,4.76-3.72
		c-3-2.07-6.1-0.31-8.9-1.45c2.38-1.14,5.28,0.72,7.34-1.55c-0.66-0.44,0.42-0.22-6-0.31c-3.73-0.05-4.66,0.83-5.17,4.76
		c-2.79-1.03-4.03,1.24-5.48,2.9c-5.8-2.11-0.46-2.56-7.45-6.1c-11.34-5.75-14.21-10.45-21.31-8.79c-5.65,1.32-8.73-6.64-17.48-3.52
		c-4.4,1.57-4.95-2.33-17.59-2.9c-12.11-0.55-22.54-8.52-33.72-15.72c-12.63-8.14-17.86,0.37-23.79-4.14
		c-7.69-5.84-11.37-14.24-20.48-11.07c-5.17-2.11-4.62-6.47-5.38-17.59c-0.4-5.96,4.03-2.68,4.03-5.69
		c-0.25-4.2,7.25-11.42,3.41-14.79c-1.76-1.55-1.45-3.1-1.55-4.55c-0.83-0.83-2.07,0.1-2.48-0.93c0.62-1.24,1.97-1.55,2.17-2.69
		c0.1-1.55-0.21-2.79-1.14-3.72c0.72-1.24,1.14-2.59,1.34-4.14c-2.69-1.03-1.66-4.86-4.55-5.79c1.03-8.9-10.86-18.31-20.28-16.34
		c-0.41-1.14,1.55-1.34,0.93-2.59c-1.76-0.93-2.48,0.93-3.93,1.66c-2.92-2.13-6.21,4.98-10.65,1.45c-0.83,2.48-2.27,4.36-4.55,4.86
		c-6.97,1.53-6.77,9.63-7.86,15.21c-1.2,6.09-2.59,12.1-0.52,18.1c-0.52,1.34-1.86,1.97-2.17,4.03c2.48,3.93,2.87,9.65,7.14,13.45
		c3.37,3,3.73,13.39,3.93,14.69c-2.17,1.24-4,2.74-5.9,4.24c-4.65,3.68-0.98-0.09-14.48,5.69c-11.99,5.14-9.63,8.46-13.97,7.86
		c-6.44-0.89-19.96,0.04-24.62,4.97c-3.42,3.61-7.55,6.42-10.76,10.14c-1.96,2.28-4.34,3.52-7.45,3.52c-4.6,0-7.44,2.07-19.55,6.21
		c-8.48,2.9-4.01,4.99-10.45,3.83c-8.02-1.45-8.76,4.29-13.97,4.86c-13.33,1.47-18.8,10.68-29.17,17.69
		c-5.6,3.79-3.78-0.6-10.86,2.59c-11.74,5.28-5.4-0.58-10.24-1.55c-1.66,0.41-2.9,1.97-4.86,1.86c-3.31-3.83-7.56-5.62-12.72-4.97
		c-7.89,1-2.13-1.97-11.69-1.14c-2.7,0,1.63,0.82-38.58-10.97c0,6.96-1.46,5.04,7.24,7.65c37,11.11,33.79,11.52,37.76,10.14
		c0.27-0.27,8.44,3.35,12.31,5.79c-2.28,0.83-3.52,2.37-5.28,3.21c-7.94,3.79-4.04,12.37-8.38,22.45c-0.93,2.17,0.1,4.03,1.97,5.38
		c5.78,4.18,9.84-2.02,12.72-4.03c4.45,1.34,13.76,0.62,17.59-1.45c0.93,0.31,1.66,1.03,3,1.03c5.41-3.54,8.26,1.89,13.03-11.9
		c1.24-1.34,2.79-0.52,3.93-1.76c0.21-0.62,0.41-1.45,0.72-2.28c41.34-5.17,33.69-17.51,41.9-15.41
		c14.34,3.67,52.95-7.68,56.27-17.17c12.65,12.88,11.2,35.01,18,48.41c2.96,5.84-0.55,11.6,2.79,16.76
		c-0.72,1.45-2.07,2.17-2.28,3.93c2.43,4.58-1.47,4.86-0.21,9.62c0.88,3.32-1.14,6.21-0.83,9.41c0.35,2.1-3.71-0.12-2.48,8.79
		c1.76-1.76,0.41-4.97,3.62-5.38c-2.59,9.07,21.29,15.65,30.62,16.65c0,2.38-0.72,4.45,0.52,6.93c0.52-2.59-0.21-5.07,1.45-6.72
		c9.31-1.34,18.62-1.24,28.34-3.31c-1.24,1.45-2.28,2.59-0.52,3.62c4.27-0.9,2.97-5.09,8.79-6.93c2.17-3.1,14.77-7.61,19.24-18.1
		c0.21,1.55,0.83,2.9,0.52,4.34c-2.66,12.12,7.55,11.54,6.21,21.1c-0.41,2.9,1.76,5.79-0.1,8.69c-0.46,0.23-3.15,6.61,0,10.55
		c1.15,1.44,1.97,3.41,1.45,4.66c-7.03,5.9-7.14,14.38-11.48,20.69c1.26,0.84,0.28,2.3,8.17-13.14c2.76,4.14,5.61,5.59,2.9,10.65
		c-1.44,2.68,0.68,1.72,0.21,7.65c-0.71,8.8-0.52,17.69-1.76,26.59c-5.38-1.66-11.17-2.17-16.96-2.48
		c-9.52-0.51-19.14-4.03-29.17,1.24c1.33-3.48,1.14-6.35,1.14-9.11c-1.89-0.09-0.14-2.69-2.28-3.09c-1.76,3.1-1.86,6.93-3.83,10.14
		c5.51-23.6-1.75,3.04-4.76,17.9c0.84,0,0.18,2.26,4.14-14.28c4.42,7.07,4.43,3.45,2.69,19.45c-0.65,5.99-8.15,6.62-18.52,9
		c-7.17,1.64-4.93,2.04-21.72,0.1c-3.82-0.44-7.24-1.97-10.65-4.03c-0.52-4.55-1.16-9.21-0.21-13.86c1.62-7.87,0.74-15.93,1.86-23.9
		c1.88-13.34,1.92-26.68-0.41-40.03c-4.36-24.98-2.24-18.41-0.83-31.86c0.45-2.69-1.75-2.58-2.17,1.24
		c-2.36,21.58-2.18,9.74,1.14,36.93c0.52,4.24,1.66,8.38,1.14,12.62c-1.03,8.48,0.17,17.06-1.76,25.55
		c-1.69,7.44-0.85,15.22-1.86,22.86c-0.58,4.35,1.76,8.79,0.21,13.34c4.66,0.21,6.59,1.56,7.03,4.55
		c1.16,7.77,0.72,15.31-2.28,22.76c-8.32,20.68-3.86,27.27-4.55,39c-1.19,20.32,6.83,38.46,7.64,50.25c2.89-0.65,2.28-3.1,1.98-4.84
		c-3.76-21.79-5.63,0.88-7.76-61.76c-0.7-20.51,5.71-16.31,7.86-33.41c1.78-14.17-3.06-11.61-0.72-13.65
		c10.45,1.34,20.9,1.86,31.14-0.72c0.52,1.55,0.52,2.69,0.1,3.52c-2.36,4.73-1.19,11.01-1.97,12.83c-2.07,5.9-5.07,11.48-5.9,17.79
		c0,0.1,0,0.21-0.1,0.31c-3.98,3.79,2.23,9.21,0,19.55c-0.07,0.34-6.75,23.47-7.45,25.24c-1.27-1.81,2.23-20.21,3.72-32.17
		c0.21-1.03,0.52-2.17-0.93-3.21c-5.16,29.64-5.57,60.91-4.14,70.34c1.66-1.45,1.03-3.83,2.9-4.86
		c-4.14-10.97-1.06-21.52,1.45-31.86c6.14-25.32,9.89-20.9,5.17-40.34c2.9-2.48,3.37-5.9,3.52-9.31c0.22-4.84,5.28-7.3,5.28-16.03
		c0-4.03,0.62-7.97,1.03-12.1c3.93-0.62,7.24-2.38,10.76-4.14c1.5,12.03,5.06,15.11,5.48,18.41c1.83,14.45,6.33,13.81,3.72,27.21
		c-5.31,27.28,6.14,60.22,6.1,65.48c-0.17,24.86-2.96,26.36-0.41,27.21c1.24-2.79,0-6.1,1.55-8.79c0.72,0.83-0.21,2.17,0.93,3.1
		c1.77-3.19-0.77-13.12-0.52-18c0.86-16.8-10.3-31.01-4.86-73.03c1.22-9.45-3.82-9.69-4.65-24c-0.57-9.77-7.78-11.28-4.24-28.96
		c0.62-4.55,0.62-9.1,1.66-13.45c3.72-1.45,7.35-2.6,11.38-2.07c13.52,1.79,25.55,2,27.83,3.41c-0.41,3.72-0.62,7.55-3.93,10.03
		c-2.17,7.34-4.92,14.58-3.21,22.65c2.34,11.06-2.11,13.84,1.03,15.31c3.86-9.79-0.8-16.54,0.62-23.48
		c3.48-16.98,7.17-16.53,7.34-25.03c2.28,1.03,4.24,0.31,6.31,0.52c0.21-0.62,0.52-1.03,0.41-1.45c-1.62-6.56,3.49-25.66-0.72-34.24
		c7.07-8.29-4.17-9.02,0.21-14.28c5.58-6.7-2.56-9.96-1.03-16.34c1.03-4.34,0.73-8.79,1.45-13.24c0.42-2.59,0.13-5.2-2.17-7.14
		c-9.28-7.82,0.61-14.67-6.62-19.65c-2.46-0.62-2.09,5.38-4.65-6.41c1.03-1.86,3.5-3.2,2.79-5.38c-1.17-3.61-0.83-7.14,0.52-11.38
		c-6.89,8.55-1.35,9.3-4.76,14.69c-4.6,7.27,6.03,9.51-0.93,16.55c-20.3,20.52-57.83,20.87-79.65,5.28
		c-1.63-8.14,3.69-1.31-0.41-9.52c0.72-6.72,1.76-12.52,0.83-18.83c19.65-1.31,17.59-0.73,17.59-2.17
		c-5.28-0.1-10.45-1.24-15.72-0.21c-4.85-4.85-0.06-7.34-1.76-12.52c-2.41-7.33-4.65-14.79-6.1-22.55
		c11.74-3.3,23.15-28.74,17.48-48.62c-3.35-11.76-2.44-22.83-3.1-26.9c4.96-2.98,3.6,3.99,3.72,4.45
		c5.63,21.43,9.26,43.86,34.34,43.86c5.64,0,0.83,1.06,0,2.17c7.31,0,15.33-4.16,14.69-7.55c-0.59-3.12,5.19-8.72,5.38-16.34
		c0.24-9.78,3.13-23.12,1.55-30.21c2.28,1.34,4.34,1.14,5.79,2.9c-1.34,1.14-1.26,2.69-1.24,4.14c0.1,6.52-0.22,13.04,0.31,19.55
		c0.5,6.1,2.17,11.9,3,17.9c1.73,12.53,7.3,17.79,16.34,27.21c-0.69,4.88-5.76,17.52-5.17,19.14c1.36,3.72-0.57,11.51-5.79,12.21
		c-2.8,0.38-5.48,0.83-8.07,2.17c4.54,0.34,27.46-4.38-4.45,5.48c0.62,0.62,1.14,0.41,1.55,0.31c17.15-3.28,18.1-2.65,17.48-7.65
		c-0.55-4.47,1.75-9.74,5.79-23.69c3.74-12.91,1.38-16.17,2.69-17.48c3.41-3.41,6.52-7.24,8.59-11.79
		c14.83,10.34,26.61,14.96,50.48,6.31c-9.02-3.22-18.1,11.28-49.03-8.69c18.39,7.3,31.42,4.69,21.83,3.21
		c-7.43-1.15-14.59-3.31-22.24-5.28c3-3.41,7.65-4.34,9.52-8.38c-16.43,8.88-10.46,8.4-17.07,17.38c-6.47,8.8-4.36,11.9-6.21,13.14
		c-6.5-7.42-11.24-11.12-12.62-18.31c-3.18-16.59-4.93-14.51-3.93-32.48c11.73,7.41,2.49,0.08,1.76-1.66
		c2.48-0.72,5.17-0.31,7.97-1.66c-7.22-4.21-11.1,6.62-10.55-7.55c0.72,0.41,1.14,0.51,1.45,0.83c3.23,3.28,8.09,3.49,11.38,6.72
		c0.94,0.92,2.48,1.35,3.83,1.24c4.41-0.37,10.23,3.82,11.48,2.69c-2.28-2.17-5.48-2.59-8.07-4.24c3.83-1.34,7.04-0.63,10.24,1.45
		c36.27,23.56,32.36,14.82,47.79,19.65c3.31,1.04,6.63,1.57,10.03,0.52c3.23-0.99,11.62,3.82,12.21,4.24
		c1.75,1.25,4.76,0.93,7.24,1.24c0.41-1.03-1.14-0.93-0.93-2.07c7.24,2.17,12.41,7.65,19.55,10.55c-1.86,0.83-2.69,0-3.62-0.31
		c-5.26-2.08-4.34-1.6-10.55,10.34c-2.28,0.52-4.55-0.31-6.72,1.76c2.28,0.1,4.03,0.21,5.79,0.83c-0.31,1.03-0.41,2.17-1.24,2.69
		c-22.04,2.59-19.84-5.1-27.93-8.69c1.34,3.21,3.82,5.49,6.41,7.65c6.09,5.09,13.45,3.72,20.59,3.72c-0.33,6.51-3.91,3.9,6.1,9.62
		c0.52,6.41,3,9.43,9.1,10.86c3.33,0.78,6.03,2.32,7.03-0.21c1.76-4.42,4.84-1.08,2.9-9.83c-0.41-1.86,1.03-4.03-0.93-6.1
		c-2.07,3.62-0.41,7.34-0.72,10.76c-3.93,1.66-7.03,0.83-8.69-2.17c1.24-0.83,1.03,1.45,2.38,0.72c1.14-2.38,0.41-4.76-0.62-7.03
		c-1.03-2.28-1.34-4.97-4.14-6.1c6.1-3.1,7.34-3.31,11.59-1.76c3.52-2.48,7.24-0.41,10.86-0.41c0.5,0,0.89,0.58,1.01,1.17
		c4.2,1.38,4.13,6.84,4.57,11.76c0.37,4.14,0,7.86-4.55,9.93c2.28,1.76,3.31-0.52,4.86-0.83c16.75,5.1,11.24-4.47,11.79-4.65
		c-0.28-8.32-3.7-13.08-4.55-18.21c-1.09-6.55-7.16-5.18-12.62-10.14c0.52-1.76,2.17-1.55,3.1-2.28c6.93-5.43,7.18,5.21,11.79-5.17
		c2.28-0.62,4.85,0.4,6.72-1.24C462.85,152.75,551.44,127.78,549.69,122.27z M281.46,78.1c0.52,1.66-0.93,2.79-1.34,4.24
		C278.88,80.27,280.63,79.34,281.46,78.1z M39.09,175.13c1.76-0.41,2.38,0.52,3.52,1.45C41.06,176.78,40.02,176.89,39.09,175.13z
		 M44.06,175.03c0.83,0.31,1.45,0.52,1.55,1.55C44.68,176.27,44.37,175.85,44.06,175.03z M260.26,350.47
		c-0.62-1.34-1.03-2.17-1.45-3.1c0.21-1.34,1.66-2.07,1.34-3.52C260.57,346.02,261.5,348.09,260.26,350.47z M68.06,178.65
		c0.83,3.21-1.14,3.93-8.07,3.21C62.68,179.68,66.09,181.44,68.06,178.65z M57.3,178.13c3.12,0.52,0.84,2.39,0.52,2.07
		c0.63-0.31-0.25-1.31-0.69-1.82c-0.08,0.13-1.58-0.25-2.52-1.08C55.85,176.78,56.57,177.51,57.3,178.13z M56.57,181.13
		c-18.28-7.15-0.25-1.07,1.24-0.83C57.92,181.34,57.4,181.45,56.57,181.13z M45.5,211.54c6.12-10.5-3.19-19,16.03-25.96
		c-2.63,3.83-9.16,3.05-10.03,8.79c-0.51,3.31-1.24,6.52-1.24,9.72c-0.41,1.14-2.17,1.03-1.97,2.9c8.93,1.65,7.23-7.27,8.59,2.9
		C51.61,213.82,48.71,214.23,45.5,211.54z M58.54,208.44c0.52-2.38-0.31-4.86-0.62-7.45c3.26,3.26,1.8,5.92,3.41,8.79
		C59.88,209.78,59.16,209.37,58.54,208.44z M73.12,191.37c0.62,5.79-4.55,10.97-1.97,16.96c-1.55-1.55-2.41-3.31-2.28-5.48
		c0.49-7.77-3.49-10.31-2.9-10.73c-3.54,0.83,1.59,4.06,0.72,9.69c-0.41,2.69,1.55,4.97,0.21,7.76c-6.85,2.28-0.16-7.25-8.69-12.52
		c-0.31-1.97,1.34-2.9,2.28-4.34c-4.23-1.41-5.25,5.94-4.34,9.83c-4.57,1.9-4.14,4.34-1.86-10.45c8.28-4.66,16.65-8.9,26.48-8.59
		c-2.9,1.14-5.79,2.5-9.1,2.28c-7.21-0.48-5.08,5.54-5.51,6.21c1.8-1.38,2.17-4.92,5-4.14c2.9,0.8,5.9-1.55,8.17,0.21
		c1.86-0.21,0.83-1.86,2.07-2.17c1.86,0.62,2.17,2.59,3.62,4.34c-3.93,3.41-5.17,8.07-5.9,12.72c-1.86,1.97-4.55,0.83-6.72,3.1
		C72.71,201.11,77.54,193.58,73.12,191.37z M73.64,206.99c0.72-0.93,1.66-0.72,2.38-1.14c0.1,0.41,0.31,0.62,0.31,0.72
		C75.61,208.54,74.68,207.82,73.64,206.99z M78.5,208.96c-0.83-0.72-1.24-2.16,0.1-2.48c4.15-1,6.72-4.97,10.86-6.1
		C88.23,206.47,83.68,207.92,78.5,208.96z M82.02,200.58c-0.52-3.62,0.31-6.41,3.93-7.86c0.41,0.31,0.21,1.34,1.86,1.03
		c0.41-5.79-4.14-9.21-6.52-13.76c-1.97,0.62-3.62,1.66-5.59,1.24c1.84-1.7,7.25-4.07,9.21-1.76c4.09,4.82,8.59,9.31,8.69,16.45
		C89.68,197.68,86.26,199.96,82.02,200.58z M217.12,183.92c-10.42,17.7-9.95-27.65-30.41-29.48c-5.49-0.49-10.48-5.37-12.31-3.72
		c4.76,6,13.14,5.38,18.62,10.03c-6.92,7.57-27.58,14.47-35.17,15.62c-20.6,3.14-19.9-2.31-24.72,2.17
		c-11.74,10.91-20.69,12.1-37.24,13.86c-0.65-3.37-1.98-4.46-8.59-13.55c11.72-6.9,18.03-18.34,30.41-18.93
		c-1.03,3.21-6.52,1.76-6.31,6.41c13.07-5.97,12.23-12.92,21.21-11.48c7.18,1.15,5.65-2.29,17.69-6.21
		c18.69-6.08,15.5-2.53,19.96-6.62c13.4-12.28,16.23-17.3,34.34-15.83c5.92,0.48,9.04-6.53,17.69-8.59
		c1.89,21.25,1.01,11.36-2.17,13.97c0.62,1.66,2.69,1.03,3.72,2.69C223.65,145.24,233.83,155.51,217.12,183.92z M272.05,56.38
		c-0.72,0.41-1.14,0.31-1.55-0.62C271.43,55.55,271.84,55.75,272.05,56.38z M267.39,53.38c-1.03,0.72-1.86,1.86-3.31,1.86
		C264.81,54,266.05,53.58,267.39,53.38z M263.05,56.38c-0.21-1.14,0.52-1.03,1.03-1.24C264.19,55.96,263.36,55.75,263.05,56.38z
		 M267.08,50.69c0.41,0.62-0.1,0.72-0.62,1.14C266.36,50.89,266.57,50.69,267.08,50.69z M266.57,40.55
		c-3.34,2.59-3.05,1.1-3.52-1.24C264.39,39.82,265.74,39.41,266.57,40.55z M263.98,48.2c0,0.62-0.31,0.83-1.24,0.62
		C263.26,48.31,263.46,47.89,263.98,48.2z M260.36,52.44c-0.52,1.24-1.14,1.97-2.69,2.59C258.19,53.48,259.01,52.96,260.36,52.44z
		 M253.12,55.34c-1.03,1.45-2.48,1.97-4.03,2.48C250.22,55.03,250.22,55.03,253.12,55.34z M246.5,46.55c0.72-0.1,1.45-0.62,2.59,0
		c-2.38,2.38-2.59,2.38-4.55-0.31C245.36,45.41,245.88,46.55,246.5,46.55z M239.46,58.75c0,0.93-0.52,1.14-1.34,1.14
		C238.12,58.65,238.64,58.65,239.46,58.75z M236.88,53.58c0.93,1.34,0.62,2.07-0.1,2.9C235.43,55.13,236.77,54.72,236.88,53.58z
		 M232.84,83.37c-1.55-0.93-1.97-2.38-1.76-3.93C232.22,80.58,234.39,81.2,232.84,83.37z M233.05,75.62
		c-0.72-0.72-1.14-1.55-1.24-2.59C233.77,74.06,233.77,74.06,233.05,75.62z M235.53,47.48c-0.52,0.41-1.03,0.93-1.66,1.55
		C233.77,47.79,234.5,47.38,235.53,47.48z M234.19,65.58c-0.52-1.03-0.21-1.45,0.62-1.55C235.33,64.86,235.22,65.37,234.19,65.58z
		 M236.46,83.89c-1.07-9.7-4.88-2.24,8.9-24.62c0.32-0.51,0.93-0.62,1.66-0.31c0.1,1.03-1.76,1.03-1.24,2.48
		c2.69-1.14,5.9,0.41,8.48-1.97c0.21,2.69,2.69,4.52,5.69,4.03c2.69-0.44,4.34-2.9,6.72-4.03c1.76,0.31,2.59,1.34,2.07,3
		c5.76,1.53,6.36,8.89,8.48,11.79c1.58,2.15,0.22,4.55-0.21,6.62c-0.8,3.83-0.87,7.8-3.1,11.48c-2.76,4.55,3.21,12.01-4.66,18.83
		c-1.87,1.62-4.08,7.07-10.24,5.9c-2.69-0.51-5.58,1.03-8.17-1.24c-4.24-3.73-7.86-7.65-9.1-13.34c-0.62-2.07-1.86-4.03-0.21-5.9
		C239.25,92.06,237.73,95.35,236.46,83.89z M280.84,132.2c0.93,9.52-2.25,18.01-6.1,26.38c-1.34,2.9-4.66,3.1-6.31,4.24
		c-16.34-0.93-28.65-6.41-32.07-23.79c3.62,0.41,7.24,3.52,12.21,1.97c-4.45-4.55-10.97-3-14.69-7.03c0.62-1.76,2.17-1.03,2.9-2.17
		c-0.83-0.83-2.17-0.21-3.31-0.93c-1.86-4.45-3.62-9.41-2.07-15.52c3.93-1.34,6-5.79,10.24-7.86c1.97,5.48,7.14,7.65,9.62,11.79
		c2.48,0.62,4.86-0.93,7.03,0.62c0.26,0.81-2.3,13.95,2.48-0.41c3.31-0.93,5.79-3,8.17-5.38c1.03,0.31,0.1,0.93,0.41,1.97
		c1.66-3.52,2.28-7.14,5.59-9c1.14,3.41,3.72,5.79,7.65,7.14c1.31,20.89-3.26,12.98-9.1,21.1
		C276.5,134.68,278.46,132.82,280.84,132.2z M432.59,165.72c-2.48,0.93-6.21-0.31-6.62-3.1
		C428.25,164.89,430.42,165.2,432.59,165.72z M415.73,196.96c-1.66,0.83-2.79-0.41-4.14-0.31c-4.77-9.97-4.18-7.24,1.03-5.38
		C412.11,193.96,414.39,195.09,415.73,196.96z M415.42,189.61c-5.07-2.28-9.72-4.34-14.69-6.52c3.21-7.14,5.69-14.48,9.93-21.31
		c1.34,0.83,2.9,0.83,3.83,2.07c-3.88,0.37-7.22,10.19-9.72,16.65C408.93,184.48,412.92,178.37,415.42,189.61z M408.6,177.2
		c0.38-3.44,3.15-4.33,5.48-0.93C412.32,177.41,410.97,179.16,408.6,177.2z M410.77,172.23c0.62-1.24,1.34-2.79,1.97-4.14
		c7.45-0.21,11.69,1.55,15.93,6.52C422.35,175.65,416.35,176.58,410.77,172.23z M445.63,175.75c1.41,5.49,3.93,10.76,4.86,16.34
		c0.13,1.74,0.98,2.57,2.08,2.79c-2.82,1.88,1.8,5.42-10.76,2.59c1.45-1.76,0.72-3.72,1.03-5.59c1.81-0.54,3.38,1.97,4.97-0.52
		c-4.34-1.95-1.58-8.82-4.66-17.79C444.59,173.89,445.31,174.51,445.63,175.75z M443.04,189.61c-1.24-3.41-1.17-7.22-3.31-10.14
		c-2.1-2.87-5.9-3.72-8.48-6.31c4.03-0.21,7.14,2.38,10.76,3.52C443.15,180.92,443.56,185.16,443.04,189.61z M439.42,171.51
		c0.73,0.4,1.45,0.72,0.83,2.07c-8.17-3-16.14-6.41-24.62-7.34c-0.93-0.83-0.41-1.86-1.24-2.28
		C416.59,163.08,439.32,171.45,439.42,171.51z M432.49,160.75c1.24-0.62,2.38-0.31,3.62-0.31
		C434.56,162.3,434.56,162.3,432.49,160.75z"/>
	<path d="M655.62,535.74l-0.1-0.1C655.48,535.71,655.45,535.7,655.62,535.74z"/>
	<path d="M773.69,210.18c1.08-0.43-2.4,0.84-3.07,1.09c0,0,0,0,0,0.01C770.92,211.18,771.81,210.86,773.69,210.18z"/>
	<path d="M899.85,167.37c-0.94-2.92-3.67-1.66-6.52-0.62c-82.92,30.16-111.21,40.4-119.64,43.43c-0.37,0.15-1.28,0.49-3.04,1.15
		c-0.01-0.02-0.02-0.04-0.03-0.06c-0.16,0.05-0.14,0.04,0-0.01c-0.79-1.62-0.81-2.97,0.03-4.38c5.13-8.68,8.25-19.36,9.52-22.65
		c2.19-5.68,1.28-11.7,0.1-17.59c-1.97-9.79,5.33-8.32,2.38-26.48c-2.6-15.98-19.51-11.77-27.1-18.52
		c-4.44-3.94-10.4-5.53-14.59-9.83c-0.41-0.42-1.24-0.61-1.86-0.62c-2.79-0.05-5.42-2.23-8.28-0.41c-0.31,0.2-1.14-0.21-1.55-0.52
		c-1.24-1.24-3-1.45-4.34-2.38c1.4-6.63-3.1-15.3,2.17-15.83c0.52-0.1,1.34-0.93,1.34-1.45c0.05-3.73,2.93-6.3,4.03-9.62
		c1.5-4.51-0.87-4.84-2.28-7.65c-0.31-0.52,0.62-1.34,0.31-2.17c-0.72-0.83-1.86,0.1-2.48-0.72c0.21-1.34,1.86-1.66,2.28-3.52
		c-1.14-1.97-0.93-4.45,0.21-7.14c-2.9-1.03-1.76-5.07-5.07-5.79c1.03-1.34,0.52-2.38,0-3.41c-2.63-5.26-0.56-5.87-5.07-8.38
		c-2.59-1.44-5.38-2.59-7.55-4.86c-2.28,0.52-4.76-0.93-6.93,0.31c-0.93-1.34,1.55-1.55,0.41-2.9c-1.76-0.62-2.48,1.14-3.72,1.66
		c-0.72,0-1.24-0.83-1.97-0.52c-2.69,1.66-5.07,4.03-8.79,2.48c-2.81,7.37-6.29,1.3-10.45,9.93c-2.03,4.21-1.45,9-2.59,13.45
		c-1.24,4.86-1.55,9.93,0.31,14.69c-1.03,1.24-2.28,2.17-2.28,3c0.52,3.41,2.62,5.48,3.21,8.17c1.4,6.42,6.18,2.64,7.55,21.41
		c-3.1,1.45-5.69,3.62-8.69,4.66c-3.41-1.55-7.14-0.73-9.21,2.79c-1.45,2.48-3.62,3.72-5.9,4.86c-9.7,4.85-7.8,6-11.79,6
		c-11.27,0-22.42,9.09-21.72,20.17c1.23,19.44,5.92,16.32,4.86,29.9c-2.59,33.24,21.27,38.52,26.38,58.96
		c-1.28,0.18,7.65,4.29-138.41-49.45c-1.77-0.65-4.06-1.85-5.28,0.83c-1.72,3.79-8.97-0.39,143.79,54.83
		c0.93,8.33-5.87,5.84-2.9,13.86c1.66-5.79,2.59-5.69,3.21-5.17c0.62,1.03-0.83,1.86-0.21,3.1c3.51,4.91,14,7.74,17.17,12.1
		c0-5.48,1.24-10.76,0.83-16.14c-2.79,2.9-1.34,6.93-2.9,10.14c-4.66-1.55-8.69-3.83-12.52-6.72c-1.21-7.26,0.37-1.31,0.83-9.52
		c1.03-0.21,1.97-0.1,2.9,0.21c1.14,6.31,5.07,10.86,9.31,10.55c-0.93-1.03-1.34-2.07-0.83-3.21c-2.63-1.76-7.01-4.89-5.59-7.97
		c0.95-2.06,2.17-3.72,4.76-3.93c17.03-1.42,6.74,0.04,32.9-14.48c7.68-4.26,9.37,3.05,15.93,4.97c3-3.21,3-3.21,4.55-2.9
		c-0.1,1.24-2.17,1.14-1.55,3.31c0.93,0.83,2.07,2.38,4.14,3c0.93-0.93,2.15-1.36,2.9-2.48c0.7-1.05,1.45-2.28,2.79-0.72
		c-0.45,2.26-8.7,2.99-1.86,9.83c7.44,8.97,0.18,16.42-21.93,34.86c-4.15,3.46-5.04-1.55-6.31,6.93c-2.48-2.28-4.86-4.45-7.34-6.31
		c2.48-5.48,3.31-6.31,6.93-6.41c-0.72,3.31,1.76,3.83,4.14,4.86c0.5-0.53,29.47-22.47,22.34-31.14
		c-4.62-5.61-9.98-10.37-16.14-14.28c-6.28-3.98-8.79,1.84-23.59,10.45c-2.62,1.52-0.26,4.64-6.93,6.31c-0.31,0-0.72,0-0.83-1.03
		c-0.1-0.62,1.76-0.72,1.45-1.97c-0.93-0.31-1.76,0.62-2.69,0.21c-0.72-0.52-0.52-2.17-2.17-1.97c-0.41,2.28,0.62,4.14,1.66,5.9
		c-0.72,1.14-2.69,0.72-3.21,3.21c3.41-1.34,6.83-0.73,9.93-1.86c2.27-0.83,4.45-1.15,6.72-0.52c12.22,3.41,12.57-9.65,23.07-13.45
		c6.21,3.52,11.69,10.24,11.48,14.07c-14.94,7.11-20.14,25.09-24.83,17.28c-1.24,0-1.34,1.14-2.17,1.24
		c-1.03-0.83-0.72-2.69-2.28-3.31c-1.41,5.62,4.1-0.12-6.21,13.45c-1.45-0.36-2.1-1.75-3.28-2.23c1.47-2.89,3.97-5.43,3.07-9.14
		c-1.73,2.88-4.51,5.31-3.84,8.95c-0.09-0.04-0.18-0.09-0.3-0.16c0,5.18,3.47,3.56,5.69,4.97c0.83,1.86,0.62,4.24,2.9,6
		c-0.52-2.17-0.93-3.93-1.34-5.9c2.45,1.05,7.32,8.82,10.65,3.41c2.05-3.32,4.87-5.78,7.86-8.07c8.72-6.68,15.2-15.83,24.83-21.62
		c3.62-2.18,6.52-5.38,7.76-9.93c1.03,1.45,1.26,2.8,1.03,4.14c-1.91,11.46,6.35,14.17,6.31,17.07c-0.05,3.73-0.1,7.55,0.52,11.28
		c0.1,0.93-0.81,1.35-1.03,2.07c-3.72,12.03,3,9.35,1.66,15.41c-5.72,3.58-19.68,40.09-3.31,7.34c3.31,3.52,5.69,7.24,2.79,11.07
		c0.83,12-0.72,22.86-1.03,33.72c-8.17-2.17-16.66-2.34-25.03-3.31c-21.75-2.53-17.84,2.56-20.9,1.03
		c1.03-3.83,1.03-7.55-1.03-11.38c-2.4,1.9-2.07,7.04-3.42,7.04c-0.36-2.34,1.03-4.39,0.73-6.63c-5.47,19.37-10.67,47.01-2.28,12.83
		c4.12,10.76,3.87,1.27,2.79,18.72c-0.22,3.52-1.55,6-5.17,7.14c-22.31,6.99-38.12,4.86-45.93-0.52
		c-2.07-14.23,0.97-14.71,0.62-23.28c-0.25-6,1.11-11.9,1.45-17.79c2.19-38.4-2.71-35.56-2.48-50.17c0.02-1.45-0.72-2.48-1.45-3.41
		c0.41-5.79,2.28-11.17,2.07-17.07c-3.48,1.23-3.17,13.12-3.93,23.17c0,0.11,4.98,21.27,4.03,30.62
		c-0.82,8.17,0.41,16.34-1.76,24.52c-1.45,5.48-0.01,11.69-1.24,17.38c-1.36,6.31,1.14,12.41,0.21,18.62c0,1.36,5.73-1.39,6.62,5.48
		c3.1,23.87-9.63,26.74-7.45,49.24c1.73,17.83-1.81,18.62,4.45,44.27c4.45,18.25,2.71,16.24,4.86,18.52
		c0.72-2.07,1.64-3.72,0.93-5.48c-1.16-2.89-1.33-6-2.28-8.9c-5.97-18.33-4.33-26.45-5.59-54.1c-0.73-16.09,5.93-17.83,7.34-28.55
		c2.38-18-1.44-13.56,0-17.17c4.97,1.55,10.45,0.1,16.86,1.66c3.83-0.83,9.21-1.24,14.28-2.07c1.23,1.23-2.09,7.5-1.55,11.48
		c0.92,6.77-4.79,11.11-6,21.21c-0.19,1.55-1.24,2.59-2.28,3.72c3.22,17.16,4.05,8.01-5.59,43.34c-1.35-4.05,2.53-23.24,3.52-32.38
		c0.88-4.86-3.79-17.35-6,67.34c-4.24,1.45-9.31-2.28-13.55,1.66c4.14,0.41,8.28,0.72,12.31,1.14c0.93,2.59-0.83,4.76-0.52,6.72
		c1.98,1.44,10.37,5.17,4.66,5.17c-0.52-0.52,0.1-1.34-0.52-1.76c-5.69-1.55-11.28-3.83-17.07-1.14c0.31,1.76,2.07,0.62,2.38,1.86
		c-0.52,0.83-1.86,0.21-2.48,1.45c2.59,0.52-0.52,1.76,0.31,2.69c1.55,0.93,3.41,0.21,5.17,0.93c-1.76,1.66-4.86,0.62-6.31,3.1
		c1.24,1.03,2.69,0.1,3.72,0.83c-0.34,1.71-3.62,0.99,5.38,2.79c-0.1,0.72-1.24,0.83-1.03,1.66c1.14,0.83,2.79,0,4.03,0.93
		c-0.72,1.14-2.59,0.1-2.69,1.86c3.62,1.66,5.38,1.34,7.65-1.45c-1.55-4.34-0.41-8.9,2.9-10.65c-1.34,2.79-0.01,4.97,1.14,7.24
		c2.05,4.04,3,8.59,5.9,12.21c0.21,0.21,0.41,0.72,0.31,0.93c-1.98,5.73,5.84,8.41-2.9,10.65c-9.43,2.42-18.85,2-28.24,0.41
		c-2.26-0.38-2.98-1.83-2-3.96c-2.46-0.76-3.02,3.77-0.9,5c7.97,4.6,41.03,3.82,37.86-5.28c-1.66-4.76-0.9-10.16-4.97-14.07
		c-1.03-0.99,1.83-0.77-2.79-7.45c-3.86-5.58,1.13-5.84-0.21-11.17c-1.11-2.5-5.75-1.61-3.52-7.14c0.92-2.28,1.14-4.55-1.97-5.28
		c0-2.17,0.21-4.03,1.97-5.28c-6.03-15.17,4.2-39.42,7.34-51.31c2.92-11.06,0.23-17.33-0.72-21c5.1-4.25,1.83-8.79,5.59-14.69
		c3.34-5.23,2.98-7.64,4.14-22.76c3.83-0.62,7.14-2.38,10.86-4.14c0.31,2.59,0.33,4.96,1.14,7.03c12.93,33.22,7.69,37.63,6.72,45.62
		c-2.57,21.32,7.6,49.19,7.86,67.76c0.1,6.87-4.5,17.54-0.52,17.79c0.72-2.9-0.21-6.31,0.83-10.14c1.14,1.03-0.31,2.38,0.83,3.21
		c0.72-0.41,0.63-1.03,0.62-1.55c-1.32-60.63-11.79-43.68-5.79-89.89c1.1-8.48-3.94-8.76-4.76-23.28c-0.8-14.32-7.7,0.38-3-41.9
		c5.73-3.7,7.96-2.99,39,0.21c0.79,1.89-0.03,8.42-3.31,10.24c-1.97,6.93-4.91,13.64-3.62,21.21c2.52,14.8-1.53,14.15,1.14,17.48
		c2.07-5.38,2.06-10.34,0.93-15.21c-3.22-13.92,7.18-24.77,6.93-33.21c2.38,0,4.34,0,6.41,0c1.03-2.48-0.72-4.65-0.1-6.93
		c1.77-6.51,0.78-13.14,1.45-19.76c0.29-2.9,0.31-6-1.86-8.79c4.24-4.24,2.79-8.07-0.62-11.28c-0.25-3.68,5.99-5.92,1.45-12.72
		c-4.34-6.5,3.54-23.59-2.07-27c-2.26-1.37-3.1-3.52-4.03-5.79c3.62,0.21,5.58-0.93,5.69-3.31c0.1-2.28-1.45-3.31-5.48-3.83
		c-0.62-2.59-0.1-5.79-3.31-7.34c2.54-4.57,10.59-9.34,15-17.9c2.87-5.57-4.32-0.64,130.55-50.48
		C897.07,171.1,900.77,170.24,899.85,167.37z M731.34,80.79c-0.62,1.66-1.34,3.21-2.38,5.38C728.24,83.17,729.79,81.93,731.34,80.79
		z M706.62,244.64c-3.19,3.4-7.84,0.32-14.59,1.24c2.9-2.9,4.55-6.21,8.28-7.55c1.34,1.03,1.55,3.52,4.03,3.93
		c-0.1-2.07-1.55-3.62-2.07-5.48c3.31-2.9,7.45-4.45,11.07-6.72c2.17,0.31,3.72,1.66,5.59,3.21
		C714.17,236.47,710.42,240.59,706.62,244.64z M722.55,258.92c0.58-1.15,5.94-2.69,8.17-7.76c-2.8,7.64-12.18,12.86-16.55,19.96
		c-1.24,0.21-2.59,1.66-4.97,0.41C715.41,268.75,718.72,263.57,722.55,258.92z M706.92,339.05c-0.08,0.2-0.12,0.39-0.12,0.58
		C706.79,339.43,706.81,339.23,706.92,339.05z M706.62,342.4c-0.38-1.42,0.07-2.5,0.18-2.61C707.88,337.53,707.5,341.3,706.62,342.4
		z M679.1,493.53c-0.1,1.24-0.21,2.48-0.41,3.62C677.97,495.81,677.45,494.46,679.1,493.53z M709.62,340.02
		c0.41,0.83,0.31,1.34-0.1,1.86C709.52,341.37,709.62,340.74,709.62,340.02z M709.52,348.09c-1.03-0.72-1.14-1.97-1.66-3.1
		c0.62-1.14,1.14-2.07,1.55-3.1C709.41,343.95,710.86,345.92,709.52,348.09z M721,59.17c0,0.65-1.14,0.94-1.14-0.21
		C720.48,58.65,720.79,58.75,721,59.17z M713.34,45c-0.93-0.41-0.83-1.45-1.34-2.69C716.57,43.61,716.4,42.82,713.34,45z
		 M716.76,56.06c-0.21,1.14-1.03,1.24-1.76,1.24C715.21,56.38,716.03,56.27,716.76,56.06z M714.9,57.2
		c-0.21,0.83-0.83,1.03-1.45,1.24C713.45,57.41,714.17,57.31,714.9,57.2z M712.41,52.03c-0.46-0.91,0.08-0.87,1.03-0.52
		C712.93,51.82,712.62,51.93,712.41,52.03z M709.52,55.55c-0.72,1.34-1.24,2.17-2.69,2.28C707.45,56.69,708.17,56.06,709.52,55.55z
		 M702.59,58.24c-1.45,1.55-2.79,2.38-4.97,2.69C698.96,59.06,699.9,57.51,702.59,58.24z M693.38,48.93
		c1.76,0.62,3.1,0.62,4.45,0.62C695.55,51.82,695.55,51.82,693.38,48.93z M694.83,44.38c0,1.45-1.34,1.03-1.86,1.66
		C693.17,45.1,694,45,694.83,44.38z M688.52,61.75c0.21,1.03-0.41,1.24-1.45,1.45C687.17,61.96,687.38,61.44,688.52,61.75z
		 M686.34,56.79c0.31,1.03,0.62,1.97-1.14,2.9C685.21,58.24,685.31,57.41,686.34,56.79z M684.9,50.06
		c-0.41,1.03-1.03,1.45-2.38,1.86C683.24,50.79,683.66,50.17,684.9,50.06z M681.69,86.48c-1.03-1.14-1.97-2.17-1.76-3.83
		C682.52,84.31,682.52,84.31,681.69,86.48z M682.21,79.13c-0.62-1.34-1.14-2.17-1.55-3.1C682.93,77.06,682.93,77.06,682.21,79.13z
		 M683.14,68.89c-0.62-1.03-0.1-1.45,0.72-1.76C684.48,68.06,684.28,68.58,683.14,68.89z M685.41,85.96
		c-1.07-8.11-4.96-1.71,8.79-23.48c0.31-0.41,0.83-0.72,1.66-0.62c0.62,1.24-1.55,1.14-1.14,2.59c2.9-0.62,6.21,0.52,9.1-2.17
		c-1.14,1.97-0.51,3.08,1.34,3.62c5.31,1.55,5.94-0.09,10.65-3.52c4.15,2.37,1,1.68,1.86,3.41c0.62,0.41,1.44-0.19,2.28,0.62
		c3.47,3.36,4.13,8.07,6.41,11.9c0.62,1.04,0.01,2.48-0.31,3.72c-1.11,4.35-0.43,9.2-3.52,13.03c-0.42,0.52-0.52,1.34-0.41,1.97
		c0.53,3.21-0.05,6.41,0,9.62c0.03,2.07,0.21,4.54-2.79,4.97c-0.72,0.1-0.5,0.94-0.72,1.45c-1.16,2.7-6.82,10.13-9.72,5.38
		c-11.49,7.56-21.29-15.53-18.62-18.21c0.72-0.62-0.1-1.87-0.72-2.38C685.66,94.7,685.97,90.2,685.41,85.96z M690.59,111.2
		c1.97,4.97,6.93,7.34,9.72,11.59c9.86,0,4.59,0.58,6.72,2.48c0.83-3.21,3.93-2.28,5.79-3.72c1.03,0.31,0,1.34,1.14,1.76
		c2.17-4.76,6-8.28,9.41-12.31c2.59,1.45,4.97,2.79,7.76,4.34c1.03,6.52,0.86,13.35-0.93,20.07c-2,7.48-0.21,15.31-7.65,20.9
		c-3.16,2.37,2.68-1.3-12,4.03c-1.34-1.76-0.93-4.14-2.9-5.17c-1.03,1.55,0.1,3.21-0.62,5.17c-8.45,0.87-7.14-2.45-10.03-3.41
		c-2.69-1.14-4.96-2.38-4.45-5.9c0.18-1.24-4.76-3.94-4.76-10.55c2.48-0.52,4.45,2.38,6.72,0.21c4.24,1.76,8.38,4.14,13.76,4.76
		c-1.76-3.21-4.86-2.38-6.93-4.34c-0.84-2.3-11.04-17.57-3.21-1.24c-2.28-0.31-4.45-1.66-6.1,0.21c-5.69-2.07-5.09-3.61-12.41-21.93
		C682.72,115.13,686.45,113.06,690.59,111.2z M671.03,241.85c-1.03-2.48-2.79-3.41-4.97-2.9c-4.74-17.17-17.31-19.8-26.48-44.69
		c-4.06-11,2.02-19.42-3.1-31.76c-0.21-0.41-0.31-0.83,0.1-1.55c1.55,4.03,4.86,6,8.38,7.86c-2.41-5.01-6.71-1.99-9-15.72
		c-0.93-0.52-0.52,0.83-1.03,0.83c-3.1-6-1.02-14.98,4.45-18.41c15.19-9.52,9.84,0.73,25.03-10.76c1.35-1.02,2.69-2.07,4.45-2.69
		c1.45,0.93,2.39,2.07,2.9,3.93c2.39,8.84,4.74,7.19,4.24,16.24c-0.31,5.59,0.63,11.17-0.83,16.65c-0.82,3.1-2.69,5.69-3.52,8.9
		c-0.68-3.94-0.84-8.6-6.72-16.45c4.34,8.17,3.21,17.28,5.48,26.38c0.21,0.41,0.93-1.03,1.45-0.21c7.21,9.98,5.52,9.62,6.1,22.14
		c0.49,10.4,7.69,12.8-3.93,4.34c-1.67,3.81,14.94,11.39,16.45,18c0.85,3.72,3.62,5.59,5.79,8.48
		C675.36,244.42,675.36,234.07,671.03,241.85z M696.79,228.2c1.86-0.41,3.41-0.21,4.65-1.03
		C698.55,229.44,698.55,229.44,696.79,228.2z M717.48,223.23c3-0.93,5.59-1.03,8.28-0.93C724.23,229.18,725.93,229.47,717.48,223.23
		z M715.52,222.61c-1.03,0.42-1.86-0.52-2.59-1.14c-5.28,3.62-11.17,4.34-16.86,4.86c-2.48-1.97-4.14-4.24-4.97-7.34
		c3.72,0.21,7.55,1.14,10.97-0.62c-3.88,0-11.46,0.27-13.55-3c-2.99-4.66-6.32-2.98-7.34-11.38c-1.65-13.54,4.15-12.33-9-30.41
		c7.73-19.97,6.06-13.3,6.31-35.38c0.02-1.86-0.45-3.5-1.45-5.17c-2.68-4.5-4.14-9.52-6.21-14.17c1.97-1.97,3.93-3.31,6.52-3.52
		c0.44,7.42,3.88,10.15,8.79,28.65c0.88,3.32,2.64,6.33,3.83,9.52c0.7,1.87,2.07,3.67,4.55,3.72c2.61,0.05,3.72,7.67,19.03,5.38
		c11.93-1.78,17.79-8.95,18.31-18.93c0.33-6.3,5.04-18.97,1.86-27c-0.41-1.04,0.83-2.28,0.1-3.62c2.07,0.93,4.34,0.1,5.79,1.55
		c-6.05,31.83-1.9,39.79,0.72,50.79c0.54,2.27,2.48,3.83,3.72,5.9c-1.03,2.17-2.07,4.45-3.21,6.83c-9.56-6.09-10.97,9.63-0.72,5.69
		c1.76,3.52,2.48,6.83,2.9,10.34c-4.34,6.1-9.62,11.59-12.72,18.52c-1.49,3.87-15.67,2.92-18.21,6.21
		c17.9-2.98,17.32-4.01,14.38,1.45C722.96,221.47,719.04,221.18,715.52,222.61z M737.24,182.78c-6.37,0,0.37-8.88,2.17-1.97
		C737.45,180.3,736.72,181.03,737.24,182.78z M733.93,230.78c-5.69-4.49,4.48-11.92,12.31-10.65c2.07,0.33,4.03,0.85,6,1.24
		c1.13,0.22,2.28,0.31,2.69,1.76c-1.45,1.14-2.17-0.73-3.31-0.83C729.8,220.51,736.57,226.39,733.93,230.78z M755.65,225.09
		c-0.52,0.93-0.93,1.34-2.07,0.93C754,225.2,754.62,225.09,755.65,225.09z M736.83,227.78c0.93-3.1,5.38-4.34,11.79-3.1
		C744.17,225.51,740.55,226.65,736.83,227.78z M751.2,225.3c-0.83,1.97-2.28,1.66-3.41,1.66c-1.66,1.66-3.84,2.26-5.79,3.31
		c-1.14,0.61-2.17,0.72-2.69-1.03C745.76,226.25,744.62,228.59,751.2,225.3z M739.41,252.09c4.74-8.07-2.02-3.49,7.14-8.07
		C747.27,247.02,743.34,251.68,739.41,252.09z M754.31,232.54c-6.97,6.79-7.34,10.05-13.76,11.07c-5.74-9.71-8.16-3.79,1.45-10.86
		c3.7-2.72,7.66-3.39,11.9-3.72c2.48-0.19,3.52-2.59,6.41-3.72C758.14,228.2,756.35,230.55,754.31,232.54z M759.07,215.78
		c-3.21-0.88-9.42,7.11-3-2.28c-2.9,1.14-4.45,2.9-6,4.76c-4.03-1.45-8.07-1.55-12.21,1.03c0.83-2.79,2.17-4.34,3.21-6
		c-9.4,4.07-7.14,11.1-13.45,11.59c9.56-20.7,14.01-26.86,23.28-33.62c3.23-2.35,3.93-5.79,5.59-8.79
		c-7.49,9.36,1.17,2.52-10.86,10.34c-5.59-10.86-0.41-19.55,4.97-28.45c2.48,1.03,5.07-1.03,7.86,1.24
		c-2.38-4.45-6.28-4.94-8.9-1.66c-2.48,3.12-4.79,12.15-8.79-6c-2.67-12.14-0.62-25.97,1.34-40.24
		c7.61,1.23,12.45,10.35,27.72,12.21c-5.28,1.86-6.1,2.79-5.28,6.1c1.55-0.93,1.55-0.93,2.79-3.21c1.34-0.52,3-0.62,4.14-1.55
		c3.93,1.66,6.25,4.63,8.17,8.17c1.06,1.95-0.49,3.51,0.21,5.48c1.39,3.91,0.41,8.17,0.31,12.31c-0.08,3.02-3.37,0.12-1.76,9.72
		c4.27,25.49-9.29,32.95-10.55,46.45C764.86,214.44,762.57,216.75,759.07,215.78z"/>
	<path d="M296.36,399.19c8.79,25.45,9.31,50.79-0.31,76.14c1.2-5.01-1.03-24.88-1.03-6.62c0,27.74-3.81,32.05-3.41,48.31
		c-2.38-2.17-4.76-2.59-7.03-3.21c-7.12-1.94-11.53-3.22-14.28,2.07c-1.34,2.59-0.83,5.28-0.1,7.76
		c-2.38,4.24-2.79,17.17-0.83,18.21c1.03,0.1,0.83-1.55,1.86-1.34c2.28,2.38,5.36,2.64,8.17,1.66c6.9-2.43,9.59,3.42,10.14-0.72
		c-1.03-1.76-3.1-1.24-4.55-2.17c1.45-1.14,3.83,0.83,4.76-1.86c-1.03-2.28-3.52-1.76-5.28-2.38c-0.95-2.85,4.65-3.53-13.24-1.34
		c-0.62-2.38-0.62-4.45,0-6.52c1.55,0,2.79,0.21,3.83,1.24c-0.93,1.03-2.79,0.62-3.31,2.9c4.97,2.17,9.93-0.41,15.52,0.21
		c-1.55-3.21,1.76-2.38,2.48-4.03c0.52-0.72-1.24-1.66,0.1-2.79c1.97,0.1,4.14,0,6.1-0.93c-5.56-16.69,1.51-25.92,2.17-40.14
		c1.05-22.68,14.12-33.49,3.1-76.86C300.46,403.75,298.84,401.36,296.36,399.19z M287.25,525.39c-1.24,0.72-2.28,0.52-3.41,0.31
		c-0.31-0.83,0.72-1.45-0.21-2.69c-3.31-1.03-6.93-0.62-10.55,0.62c-2.07-5.28-1.66-6.93,2.59-9.83
		C293.98,518.72,286.82,513.52,287.25,525.39z M289.94,520.32c1.03-1.76,1.86-0.41,2.69,0.1
		C291.7,521.15,290.77,521.46,289.94,520.32z"/>
	<path d="M744.38,521.88l0.1-0.1C744.39,521.77,744.38,521.77,744.38,521.88z"/>
	<path d="M745.62,396.19c0.32,7.41,1.18,2.95,3.41,15.83c3.57,20.58,6.57,26.47-3.62,61.14c0.21-4.55-0.1-9.1-0.93-13.55
		c-0.83,5.79-0.1,11.59-0.83,17.38c-0.1,0.52,1.14,0,1.14,0.31c-1.97,12.52-4.03,24.41-4.14,36.62c-5.69-2.69-11.38-4.03-17.38-4.45
		c-8.24,4.67-2.99,9-5.69,14.69c-1.66,3.5-0.75,7.62,0.31,14.48c0.68,2.05,1.09-0.83,2.28-0.83c4.49,5.77,8.97-0.94,15.72,2.17
		c0.93,0.43,1.76,0.72,2.59-0.52c-0.31-3-3.83-1.34-4.97-3c1.66-0.83,3.93,0.93,5.38-1.34c-1.14-2.48-3.72-1.86-5.79-2.79
		c0.83-1.03,0.31-2.07-0.1-3.21c1.03-0.21,1.86-0.31,3.21-0.62c-1.03-2.59,2.07-2.07,2.69-3.41c0.1-1.14-1.24-1.97,0.1-3.21
		c1.73,0.91,3.56-0.06,5.39-0.09c0.05-0.78,0.69-1.29,0.2-2.39c-4.89-9.24,1.68-27.78,2.07-33.93c1.29-20.26,10.28-40.16,8.07-55.34
		C750.97,404.41,750.43,402,745.62,396.19z M726.07,530.67c-6.36,0.36-6.74,2.62-6-5.9c1.76-0.1,3.1,0,4.03,1.24
		c-0.83,0.93-2.48,0.52-3.21,2.59c3.1,2.9,7.14-0.21,10.65,1.14C729.69,530.46,727.83,530.57,726.07,530.67z M736.1,522.91
		c-1.03,0.52-2.07,0.41-3.21,0.21c2.26-4.77-8.02-2.98-10.86-1.66c-0.93-3.31-1.94-6.08,0.72-8.69c0.84-0.82,1.77-1.48,3-1.14
		C740.87,515.77,737.03,510.9,736.1,522.91z M738.89,517.84c1.03-1.03,1.86-0.72,3.1,0C740.65,518.77,739.83,518.67,738.89,517.84z"
		/>
	<path d="M238.74,524.98c-2.4-2.4,1.76-0.93-3.1-7.86c-5.25-7.49,5.07-9.33-3.93-14.17c-0.97-4.07,2.82-10.15-2.79-9.52
		c-8.25,0.93-11.97-2.25-15.21,1.24c4.34,1.14,8.59,0.93,12.52,1.45c1.03,2.59-0.83,4.86-0.31,7.14c5.87,2.72,4.62,3.27,0,1.76
		c-3.33-1.09-11.93-2.35-13.03,0.52c1.54,1.88,6.32-0.24-0.21,2.48c1.03,0.93,0.21,2.07,0.52,3c1.86,0.62,3.52,0.31,5.07,1.14
		c-1.86,1.24-4.55,0.72-6,2.59c0.83,1.66,2.28,0.1,3.1,0.93c0.21,0.52-0.62,1.03,0,1.66c1.86,0.41,3.83,0.93,5.79,0.93
		c0.57,1.57-4.38,2.15,3.21,2.69c-0.52,1.34-2.38,0.41-2.59,1.97c3.72,1.76,5.07,1.45,7.65-1.34c-1.55-4.55-0.52-8.79,3.21-10.97
		c-1.76,1.55-1.13,3.41-0.31,4.66c2.51,3.81,2.79,8.69,5.59,12.31c0.72,0.93,1.88,2.28,1.66,3.21c-1.55,6.47,6.05,9.24-3.93,11.17
		c-8.7,1.69-34.18,2.18-29.07-3.31c1.65-1.77,1.52-3.73,1.66-5.69c1.45-20.71,3.33-12.54,1.86-20.28c-0.55-2.89-0.52-5.9-0.52-8.69
		c1.55-1.45,2.79-2.59,4.24-3.93c-0.83-2.59-1.24-5.17-0.62-7.76c-3,0.41-5.07,2.48-6.41,6.41c0.31,1.34,1.66,1.66,2.38,2.69
		c-2.28,0.62-1.97,2.38-1.97,4.14c0,25.1-4.36,25.51-1.24,31.76c-3.84,3.97-1.85,6.54,3.52,7.65c8.45,1.75,36.54,1.92,33.72-5.79
		C241.48,534.48,243.08,528.81,238.74,524.98z M229.64,499.22c-0.72-1.24-0.83-2.38,0.21-3.52
		C229.74,496.84,229.64,498.08,229.64,499.22z M230.98,507.7c-0.38-1.55-0.21-0.75-0.62-2.29
		C233.22,505.42,234.17,507.7,230.98,507.7z"/>
	<path d="M746.86,531.08c-1.77-5.68,2.06-9.48-2.48-9.1c0.51,6.64-1.51,4.37-0.31,10.24c1.28,6.29-1.87,8.46,0.21,13.03
		c2.24,4.94,1.55,10.24,1.24,15.41c-12.21,1.86-24,3.31-35.69,1.97c-2.18-3.96,1.66-3.75,1.66-13.24c0.72,0.31,1.03,1.45,2.07,1.55
		c2.38-1.66,1.35-4.24,1.45-6.41c0.11-2.38,3-4.14,1.34-6.83c-2.29,0.86-1.22,4.93-3.1,6.21c-1.96,1.33-2.28,3.3-1.76,5.46
		c-0.99-0.24-1.86,0.36-1.97,1.26c-0.52,4.55-4.14,8.69-1.55,13.55c6.1,2.9,36.72,1.14,40.86-2.28
		c-0.93-12.07-0.45-14.02-2.17-17.17C744.2,540.22,748.61,536.69,746.86,531.08z"/>
	<path d="M297.6,533.46c-1.75-7.19,2.08-7.06-1.76-9.62c0,3.52-1.77,6.83-0.93,10.55c0.61,2.69,0.44,5.49-0.31,8.17
		c-1.41,5.01,2.9,2.84,1.86,20.17c-12.1,2.07-24,3.41-36.52,1.97c0.21-4.66,2.69-8.48,2.69-12.72c1.94,1.94,1.68,1.69,3.62-1.03
		c-1.86-3.83,1.97-7.03,1.34-11.17c-2.53,1.33-1.51,5.22-3.41,6.52c-2.8,1.91-1.74,4.96-2.07,5.07c-2.7,0.58-1.85,2.49-3.21,6.31
		c-1.06,2.99-2.17,5.9-0.1,8.9c6.21,2.69,36.72,0.93,40.76-2.38c-0.72-11.83-0.67-14.56-2.17-17.07
		C294.61,542.49,299.2,540.01,297.6,533.46z"/>
	<path d="M679.31,269.16c1.86,1.97,3.62,3.1,5.69,3.93c-2.07,5.48-4.86,10.45-6.1,16.03c3.62-4.14,5.28-9.41,7.97-14.07
		c2.79,2.48,2.79,2.48,4.66,0.83c-1.03-1.24-2.9-1.76-3.41-3.52c1.03-3.83,4.03-7.24,2.69-11.69c-5.75,5.96-1.82,14.83-8.07,8.59
		c0.62-6,1.55-11.9,2.9-17.9c-1.66,0.1-2.16,0.93-2.28,1.66c-2.47,15.97-1.2,14.87-2.79,15.93c-1.55,0.52-2.69-1.45-4.03-0.1
		c0,3.31,0,6.62-0.1,10.45C679.1,276.09,678.28,272.57,679.31,269.16z"/>
	<path d="M655.83,535.63c2.89-0.8,0.26-11.85,3.62-19.96c1.13-2.74-1.36-7.02-0.72-14.28c1.34-1.24,2.69-2.38,4.14-3.72
		c-0.62-2.59-0.83-5.07-1.34-7.76c-2.69,2.38-8.07,3.62-3,8.79c-0.62,0.41-1.24,0.93-1.97,1.45c-0.1,8.28,0.97,16.67-1.55,24.83
		C653.88,528.61,654.17,532.22,655.83,535.63z"/>
	<path d="M211.33,353.99c5.29,0,25.23-8.52,34.03-24.1c2.99-5.3,13.96-13.9,17.69-16.55c14.91-10.58,8.27-11.78,7.65-9.93
		c-0.13,2.52-3.69,4.96-9.62,9.62C230.49,337.03,252.14,332.76,211.33,353.99z"/>
	<path d="M674.76,343.85c-5.94,3.36-24.01,12.74-6.72,5.38c22.99-9.79,24.54-21.71,30.83-27.31c15.2-13.52,17.13-12.63,20.69-17.69
		c-1.19-0.66-0.23-1.01-11.07,7.86c-5.12,4.19-10.95,7.87-14.38,13.65C689.37,333.72,682.62,339.4,674.76,343.85z"/>
	<path d="M257.05,322.85c2.02,2.7-5.41,3.81,42.72-35.79C295.01,287.06,261.48,317.24,257.05,322.85z"/>
	<path d="M711.27,322.23c-0.84,1.13-0.31,1.86,0.93,2.28c-0.31,1.14-1.45,1.86-1.03,3.52c2.28,1.76,1.34,4.86,1.86,7.65
		c1.76-1.66,1.76-1.66,2.38-4.03c0.52-0.52,1.24,1.03,1.76-0.1c-3.31-2.48-3.41-2.79-2.59-5.9c7.72-2.58,15.43-3.2,23.36-0.86
		c-2.99-6.19-22.18-0.79-24.24-1.57c6.04-6.77,21.36-18.84,28.91-13.81C738.57,298.77,715.92,315.93,711.27,322.23z"/>
	<path d="M293.15,311.37c0-3.18-5.67-3.42-9.72-2.07c-11.45,3.8-26.95,18.67-19.96,17.28C268.98,319.58,285.47,306.94,293.15,311.37
		z"/>
	<path d="M666.79,295.13c2.17,5.07,6,8.9,9.72,13.03c-6.93,6.1-9.21,27.41-3,29.9c-1.52-2.23-4.78-20.83,4.97-30
		C674.45,303.82,670.31,299.78,666.79,295.13z"/>
	<path d="M212.67,260.78c-0.69,6.23-0.7,0.74-1.55-0.1c-1.34,0.31-1.64,1.13-1.14,2.28c0.86,1.95,1.14,4.95,3.41,5.07
		c1.66,0.09,1.97,1.55,2.79,1.86c2.9-0.72,3.83,0.1,4.76,3.52c7.95-3.18,6.52-1.71,6.52,7.76c2.48-2.9,2.48-6.31,2.07-10.34
		c-2.38,0.62-4.86,0.62-6.31-0.83c-1.76-1.76-4.34-0.72-5.48-2.38c-0.83-0.93,0.21-2.07-0.31-2.38c-1.34-0.52-1.34,0.83-2.28,0.41
		C215.46,263.47,215.26,261.51,212.67,260.78z"/>
	<path d="M217.43,297.82c7.07,10.61,4.67,6.26,9.93,12.62c-7.03,6.31-9.31,27.1-3.52,29.79c-1.34-10.45-3.21-20.9,5.38-29.9
		C215.74,296.85,219.46,297.82,217.43,297.82z"/>
	<path d="M724.1,463.02c4.23-1.41-0.73-40.28-0.83-41.9c0-1.24,0.1-2.69-1.55-3.83c-0.78,6.73,2.19,9.52,1.24,11.69
		c-2.76,6.35,2.86,12.83,1.24,23.17C723.67,455.57,724.1,459.29,724.1,463.02z"/>
	<path d="M439.63,196.34c-0.31-1.55-1.76-0.31-2.17-1.34c-0.62-2.9,1.45-5.79,0-8.79c-3.29,6.06-1.03,13.61-4.24,11.69
		c-1.24-4.45,0.52-8.59,0-12.72c-2.48,3.72-2.17,7.97-2.07,11.9c-2.38,1.34-4.76,0.93-7.24,1.24c3.52,3.41,4.97,3.52,8.38,0.62
		C436.01,201.51,436.84,196.34,439.63,196.34z"/>
	<path d="M672.9,366.81c8.07-15.62,19.55-28.14,33-39.21C691.52,337.85,679.1,349.74,672.9,366.81z"/>
	<path d="M263.46,326.57l-0.1,0.1C263.43,326.68,263.42,326.63,263.46,326.57z"/>
	<path d="M287.88,326.57c-5.72-4.96-30.07-1.32-25.55,4.24c1.76,2.17,1.45,4.45,1.03,6.83c3.52,1.03,1.66-2.79,3.52-3.72
		c0.21-0.1,0.72,1.03,1.45,0.31c-0.24-0.94-3.81-1.82-3.41-4.76C265.41,325.76,280.66,324.9,287.88,326.57z"/>
	<path d="M223.95,369.4c14.73-25.35,17.24-24.44,33-39.41C244.95,335.68,224.26,360.5,223.95,369.4z"/>
	<path d="M737.96,324.81h0.1C737.95,324.79,737.91,324.77,737.96,324.81z"/>
	<path d="M706.52,320.99c0.72-0.21,26.48-23.17,27.21-24.31C729.27,297.71,708.17,316.54,706.52,320.99z"/>
	<path d="M660.79,258.4c-0.02,0-0.04,0-0.07,0.01C660.83,258.44,660.92,258.46,660.79,258.4z"/>
	<path d="M663.38,265.54c1.34,0.21,0.93,1.86,2.07,1.86c2.79-0.62,3.41-0.1,4.76,3.72c1.66-2.07,4.45-0.83,6.31-2.28
		c-3.62-0.83-6.62-2.9-9.72-3.72c-0.72-1.14,0.62-2.28-0.83-2.69c-0.62,0-0.72,1.24-1.66,0.72c0-1.86,0.52-4.14-2.28-4.55
		c-0.41,0.41-0.04,1.22-1.14,2.07c-0.1-0.83-0.1-1.54-0.21-2.27C656.97,258.86,660.29,265.28,663.38,265.54z"/>
	<path d="M254.26,240.2c-26.56-0.29-22.47-1.73-28.45-1.34C243.4,243.57,294.1,240.63,254.26,240.2z"/>
	<path d="M275.88,443.78c0.85-7.34-1.55-14.48-1.97-21.72c0-0.83,0.1-1.86-1.34-2.07c-1.09,3.06,1.95,8.64,1.03,11.28
		c-1.08,3.09-0.92,6.1,0.1,9c1.46,4.13,1.14,8.48,1.97,12.72C277.96,450.88,275.78,444.6,275.88,443.78z"/>
	<path d="M732.89,406.64c1.97-1.66,1.97-1.66,0-8.79c2.28-1.76,2.28-4.65,3.93-6.72c2.59-2.9,2.17-6.31-1.24-9.31
		c0.8,4.27,1.84,7.1-0.31,8.59c-2.2,1.52-2.48,4.55-4.55,6.21C729.18,397.84,732.89,400.74,732.89,406.64z"/>
	<path d="M283.32,409.12c5.42-2.17-1.1-6.91,1.03-9.41c1.76-2.07,1.97-4.76,3.93-6.72c2.28-2.28,1.45-6.31-1.66-8.38
		c0.31,2.59,1.55,4.97,0.41,7.45c-2.79,1.97-3.52,5.48-5.9,7.55C281.88,402.92,284.36,405.29,283.32,409.12z"/>
	<path d="M246.91,248.99c13.86,0.31,27.62-0.52,40.86-4.86C274.22,246.61,260.57,248.06,246.91,248.99z"/>
	<path d="M230.46,291.3c3.62-5.69,6.41-11.8,8.69-18.1c0.41-1.14,0.31-2.28-1.45-2.69C235.57,277.97,226.5,295.26,230.46,291.3z"/>
	<path d="M279.39,228.09c-11.89,4.81-15.11,6.02-35.59,8.07C269.63,237.3,293.27,222.48,279.39,228.09z"/>
	<path d="M220.74,530.05c4.76,0.62,9.21,0.93,14.17,0.72C232.43,526.22,224.46,526.01,220.74,530.05z"/>
	<path d="M683.86,528.08c-2.07-4.14-8.79-4.55-13.65-0.72C674.66,527.88,679.1,528.91,683.86,528.08z"/>
	<path d="M742.1,256.64c2.07,0.31,3.31-1.34,5.28-1.55c1.94,4.13,4.33,13.03,6.93,13.03c-1.34-5.48-4.24-10.45-5.48-16.14
		C745.93,252.92,744.38,255.3,742.1,256.64z"/>
	<path d="M298.22,257.47c2.17,4.14,2.9,9.1,6.41,12.72c-0.83-5.48-3.72-10.34-5.07-16.24C286.32,263.34,296.16,257.69,298.22,257.47
		z"/>
	<path d="M296.15,186.51c1.33-11.96-11.12-6.65-7.45-1.24C290.75,188.28,293.46,187.13,296.15,186.51z M294.6,182.99
		c-0.31,1.03-3.41,0-1.76,2.69C286.14,184.46,293.17,177.26,294.6,182.99z"/>
	<path d="M257.15,222.3c-1.24-7.65,3.21-15,0.83-22.65c-1.24,0.72-2.08,1.97-1.55,3.52C258.35,208.82,252.68,217.08,257.15,222.3z"
		/>
	<path d="M270.7,185.58c1.03,0.41,0.72,1.97,1.76,2.17c1.45,0.1,0.83-1.97,2.17-1.86c1.24,0.1,1.45,1.86,3.1,1.66
		c-0.85-3.61,2.49-7.35-2.59-7.45C268.4,179.96,273.52,183.11,270.7,185.58z M276.5,182.78c-1.03,1.14-1.97,0.83-3,0.62
		C274.32,181.65,274.32,181.65,276.5,182.78z"/>
	<path d="M287.88,303.61c5.07-4.03,11.17-5.79,16.96-9.72C297.6,294.4,287.88,299.99,287.88,303.61z"/>
	<path d="M252.08,273.4c9.21,1.76,12,1.66,15.31-0.83c-3.41-0.62-6.31-1.14-9-2.38C257.26,272.26,257.26,272.26,252.08,273.4z"/>
	<path d="M717.69,390.81c6.07,13.85,0.97,12.65,6.83,16.65c-1.97-7.03-3.21-13.76-6.83-19.96
		C716.24,388.85,717.28,389.88,717.69,390.81z"/>
	<path d="M736.93,300.82c5.17-3.72,11.28-5.59,16.76-9.1C748.1,291.51,737.76,296.99,736.93,300.82z"/>
	<path d="M287.36,183.2c-0.13-5.39-8.28-4.83-8.28,0.21C279.08,188.56,287.48,188.39,287.36,183.2z M280.84,183.09
		c0-3.01,4.55-2.85,4.55,0.21C285.15,186.43,280.84,186.09,280.84,183.09z"/>
	<path d="M268.84,393.5c5.92,14.21,0.88,11.88,6.62,16.34c-2.07-6.93-3.21-13.76-6.83-19.96
		C267.39,391.43,268.32,392.47,268.84,393.5z"/>
	<path d="M666.28,412.33c2.59,1.86,5.59,3.1,8.07,5.38c3-1.76,5.9-3.41,7.97-6.21c-3.31,0.1-4.86,3-7.55,4.45
		C668.14,411.09,668.14,411.09,666.28,412.33z"/>
	<path d="M217.22,414.91c2.59,1.86,5.69,2.9,8.07,5.38c2.69-1.97,5.9-3.31,7.76-6.41c-3.1,0.41-4.86,2.9-7.34,4.65
		C219.39,413.47,219.39,413.47,217.22,414.91z"/>
	<path d="M266.15,275.06c-0.41,5.28-1.66,10.14-4.66,14.38C267.6,285.51,269.88,278.68,266.15,275.06z"/>
	<path d="M288.91,286.02c5.9-4.55,11.79-9.1,17.07-14.48c-0.21-0.31-0.52-0.62-0.83-0.83C286.58,286.88,288.26,285.37,288.91,286.02
		z"/>
	<path d="M271.53,198.72c7.14,1.55,14.28,0.93,21.31-0.62C285.7,197.58,278.67,199.03,271.53,198.72z"/>
	<path d="M728.45,549.81c-3.52-2.28-7.34-1.76-11.17-1.14C720.9,550.22,724.62,551.15,728.45,549.81z"/>
	<path d="M249.7,305.26c-2.79-5.9-2.38-12.31-3.62-18.52C244.74,293.99,246.39,302.26,249.7,305.26z"/>
	<path d="M665.24,385.85c1.97,3.83,3.62,7.24,5.17,10.65C671.14,390.81,669.07,386.47,665.24,385.85z"/>
	<path d="M216.91,388.33c0.93,3.72,2.69,7.14,4.66,10.45C222.29,394.12,220.33,389.57,216.91,388.33z"/>
	<path d="M238.84,402.5c-3.21-1.76-3.21-6.52-7.03-7.76C231.6,399.29,234.6,402.6,238.84,402.5z"/>
	<path d="M688.1,399.92c-3.41-1.55-3.31-6.31-7.65-7.65C682.31,397.74,684.38,401.57,688.1,399.92z"/>
	<path d="M695.24,284.37c-0.83,10.24,0.41,15.93,3.83,18.72C696.28,296.88,696.28,290.57,695.24,284.37z"/>
	<path d="M294.29,231.4c-5.59,2.28-11.28,4.45-16.86,6.62C282.48,237.25,295.32,233.47,294.29,231.4z"/>
	<path d="M279.39,552.81c-1.55-2.38-5.17-2.9-11.17-1.66C271.74,553.01,275.36,553.12,279.39,552.81z"/>
	<path d="M377.77,155.68c-3,2.79-3.72,6.62-2.28,10.03C376.53,162.51,378.29,159.82,377.77,155.68z"/>
	<path d="M697.31,251.58c3.62,3,6.41-0.41,9.52-0.93C703.52,249.3,700.52,251.27,697.31,251.58z"/>
	<path d="M285.5,368.57c1.97,3.41,4.24,6.62,5.9,10.34C291.6,373.95,289.22,370.02,285.5,368.57z"/>
	<path d="M358.42,165.41c-8.22-1.32-8.71-2.13-10.65-0.62C351.29,166.85,356.05,167.27,358.42,165.41z"/>
	<path d="M302.05,329.78c2.9-3.31,5.07-7.03,6.52-11.17C305.36,321.71,303.7,325.75,302.05,329.78z"/>
	<path d="M217.43,242.27c3.83,2.28,7.97,1.86,12.1,1.34C225.5,242.99,221.46,243.09,217.43,242.27z"/>
	<path d="M751.1,327.81c3.1-3.72,5.07-7.55,7.24-11.48C755.96,316.85,752.14,323.06,751.1,327.81z"/>
	<path d="M734.86,366.71c2.69,2.9,3.83,6.52,5.59,10.24C741.27,372.71,738.89,368.26,734.86,366.71z"/>
	<path d="M665.24,450.19c-0.1-4.03-1.03-8.07-0.41-12.21C661.93,442.22,664.1,446.16,665.24,450.19z"/>
	<path d="M290.88,268.13c1.03-0.72-0.21-1.66,0.41-2.28c0.93,0.41,0.83,1.97,2.38,1.97c-0.62-2.48-2.07-4.45-3.1-6.83
		C288.81,263.68,289.01,265.95,290.88,268.13z"/>
	<path d="M276.29,465.4c0-4.45,1.14-8.48-0.72-12.41C274.74,455.47,275.05,463.43,276.29,465.4z"/>
	<path d="M295.84,456.09c1.18,0,0.83,1.8,0.83-10.97C294.81,448.74,295.32,452.36,295.84,456.09z"/>
	<path d="M273.6,256.54c-4.34,2.07-8.17,4.86-12.1,7.65C266.05,262.54,270.39,260.37,273.6,256.54z"/>
	<path d="M669.28,527.57c-3.1-0.31-5.79,0.41-8.28-0.72C662.76,530.26,665.24,530.46,669.28,527.57z"/>
	<path d="M713.76,247.44c3-0.21,3.93-1.14,7.34-7.45C717.79,241.64,716.86,245.58,713.76,247.44z"/>
	<path d="M220.43,530.26c-3.1-0.83-6,0.52-8.48-1.45C212.88,532.53,215.26,532.95,220.43,530.26z"/>
	<path d="M663.9,428.78c1.97-6.93,1.97-8.59,0.1-10.45C664.31,421.95,662.97,425.36,663.9,428.78z"/>
	<path d="M215.98,452.67c0.1-4.03-1.24-8.07-0.31-12.21C212.88,444.71,215.15,448.64,215.98,452.67z"/>
	<path d="M745.1,453.6c1.1,0,0.83,1.62,0.83-10.76C744.17,446.36,744.07,449.98,745.1,453.6z"/>
	<path d="M296.98,434.16c-1.34,2.59-3,5.07-0.62,7.86C296.36,439.43,298.22,436.84,296.98,434.16z"/>
	<path d="M250.12,275.68c-0.83,4.14-1.34,8.28,1.66,11.9C250.64,283.64,250.22,279.71,250.12,275.68z"/>
	<path d="M275.46,211.85c-4.45-0.21-8.79,0.21-13.14,0.31C266.67,213.09,271.01,212.37,275.46,211.85z"/>
	<path d="M251.36,197.47c-2.59,1.97-5.9,2.38-8.69,4.65C247.74,201.61,250.53,200.16,251.36,197.47z"/>
	<path d="M278.15,366.19c-1.04-0.35-0.4-1.6-4.03,7.86C276.19,371.67,278.67,369.5,278.15,366.19z"/>
	<path d="M215.36,420.81c-0.31,3.41-1.45,6.72-0.41,10.03C215.46,427.53,216.91,424.22,215.36,420.81z"/>
	<path d="M746.34,431.67c-2.48,3.62-2.69,5.38-0.62,7.97C746.42,434.72,747.36,433.33,746.34,431.67z"/>
	<path d="M254.36,232.75c0,0.93,0.31,1.76,1.55,1.76C256.67,231.36,254.36,220.75,254.36,232.75z"/>
	<path d="M723.27,371.57c4.03-4.24,4.45-5.28,3.31-8.59C725.34,366.19,724.31,368.88,723.27,371.57z"/>
	<path d="M267.7,546.7c2.38-0.41,4.97,0.31,7.14-1.24C272.15,544.22,269.88,545.05,267.7,546.7z"/>
	<path d="M262.95,183.51c-2.07-0.72-3.93-1.97-7.14-1.03C258.5,184.34,260.67,184.34,262.95,183.51z"/>
	<path d="M285.6,368.47c-1.97-1.97-1.34-5.07-3.21-7.14C281.98,365.78,282.81,367.43,285.6,368.47z"/>
	<path d="M271.63,380.16c-2.28,2.07-2.59,4.45-3,6.83C270.19,385.12,271.63,383.26,271.63,380.16z"/>
	<path d="M734.45,366.09c-1.66-2.48-1.14-5.17-3.21-7.86C731.14,362.88,731.55,364.02,734.45,366.09z"/>
	<path d="M226.33,407.05c1.97,1.14,3.83,1.97,6.1,0.41C230.36,405.6,228.29,407.26,226.33,407.05z"/>
	<path d="M664.93,277.54c4.1,8.55,3.1,8.02,4.24,7.45C667.73,281.98,666.72,276.64,664.93,277.54z"/>
	<path d="M216.08,279.82c1.45,2.59,1.76,5.59,3.72,7.76C218.88,284.88,218.57,281.88,216.08,279.82z"/>
	<path d="M230.15,419.26c-1.86,0.72-3,2.28-4.86,2.79C228.5,422.88,229.12,422.47,230.15,419.26z"/>
	<path d="M720.69,378.3c-2.07,1.55-2.79,3.72-2.69,6.21C719.55,382.74,720.58,380.67,720.69,378.3z"/>
	<path d="M716.76,544.22c2.38-0.31,4.76,0.1,7.03-1.24C721.21,541.94,718.93,542.67,716.76,544.22z"/>
	<path d="M281.15,269.78c-2.97-1.62-3.09,3,0,4.03C281.15,272.37,281.15,271.13,281.15,269.78z"/>
	<path d="M280.01,233.27h0.1C280.19,233.23,280.24,233.22,280.01,233.27z"/>
	<path d="M289.43,229.75c-3.19,0.82-6.36,1.85-9.25,3.49C283.44,232.62,286.68,231.89,289.43,229.75z"/>
	<path d="M318.39,146.89c-1.97-1.03-4.03-1.24-6.21-1.34C314.87,147.51,316.01,147.72,318.39,146.89z"/>
	<path d="M433.73,179.89c0.77,4.22,3.78,3.46,2.07-1.03C435.18,179.06,434.25,178.65,433.73,179.89z"/>
	<path d="M674.86,404.47c2.38,1.76,4.24,1.76,7.03,0.62C679.31,403.74,677.45,404.36,674.86,404.47z"/>
	<path d="M427.22,178.13c-1.55,2.07-0.93,3.41,0.72,5.38C428.46,181.34,428.97,179.89,427.22,178.13z"/>
	<path d="M301.01,134.27c2.48,0.83,4.66,1.55,6.83,2.28C304.74,133.96,303.5,133.54,301.01,134.27z"/>
	<path d="M297.08,425.88c-1.45,1.76-1.76,3.41-0.83,5.28C296.98,429.6,298.01,427.95,297.08,425.88z"/>
	<path d="M363.8,166.03c1.76,0.52,3.31,0.62,5.59,0.21C366.29,164.47,366.29,164.47,363.8,166.03z"/>
	<path d="M679.1,417.19c-1.45,0.83-3,1.66-4.45,2.59C677.24,420.71,678.59,419.57,679.1,417.19z"/>
	<path d="M284.25,266.99c-0.93,1.86-0.93,1.86,0.31,4.24C285.5,269.16,285.5,269.16,284.25,266.99z"/>
	<path d="M754.2,268.13c-1.03,1.34-3.31,1.97-3.62,4.55c1.97-0.72,2.9-2.07,4.03-3.21C755.14,268.95,754.62,268.54,754.2,268.13z"/>
	<path d="M278.15,485.05c-0.93,1.66,0,3.31,0,4.97C279.6,488.26,278.15,486.71,278.15,485.05z"/>
	<path d="M258.19,173.27c1.66,1.14,3,1.55,4.55,0.83C261.39,173.47,260.26,172.54,258.19,173.27z"/>
	<path d="M248.88,182.16c4.03,0.41,4.03,0.41,5.48-1.24C252.6,180.92,250.95,180.72,248.88,182.16z"/>
	<path d="M727.31,487.74c1.03-1.76,0.52-3.31-0.41-5.59C726.27,484.64,727,486.08,727.31,487.74z"/>
	<path d="M745.52,428.67c0.41-1.55,1.66-3,0.62-5.28C745,425.36,744.27,426.91,745.52,428.67z"/>
	<path d="M210.4,285.4c0.21,1.66,0.93,3.1,2.38,4.03C212.15,287.88,212.05,286.13,210.4,285.4z"/>
	<path d="M218.88,197.27c1.03,0.93,2.07,1.86,3.83,1.76C221.67,197.27,220.33,197.16,218.88,197.27z"/>
	<path d="M296.05,422.36c0.21-1.66,0.31-2.69-0.62-4.34C294.7,419.78,294.5,420.81,296.05,422.36z"/>
	<path d="M341.05,142.54c-0.21-1.86-1.86-2.17-3-3.1C339.29,141.92,339.29,141.92,341.05,142.54z"/>
	<path d="M691.72,259.33c0.72-0.72,1.14-1.55,0.93-2.9C690.17,257.06,690.17,257.26,691.72,259.33z"/>
	<path d="M294.08,411.29c-0.72,1.34-0.83,2.38,0.62,3.31C295.12,413.36,295.32,412.33,294.08,411.29z"/>
	<path d="M231.39,272.06c1.24,0.72,2.38,1.86,4.55,1.66C234.5,272.37,232.95,272.16,231.39,272.06z"/>
	<path d="M256.84,175.34c0.41-1.14,0.52-1.97-0.83-2.59C256.01,173.68,255.6,174.51,256.84,175.34z"/>
	<path d="M757.83,291.4c-1.34-0.31-2.28,0.1-3.31,1.76C756.07,292.64,757.1,292.44,757.83,291.4z"/>
	<path d="M659.55,282.61c0.31,1.97,0.31,1.97,1.76,3.21C661.1,284.47,660.9,283.33,659.55,282.61z"/>
	<path d="M279.5,477.29c-0.31,1.76-0.52,2.79-0.72,3.83C280.12,480.29,280.01,479.15,279.5,477.29z"/>
	<path d="M744.89,419.78c0.41-1.55,0.52-2.59-0.21-3.83C743.45,417.5,743.76,418.43,744.89,419.78z"/>
	<path d="M701.76,256.95c1.24,0.41,2.07,0.21,3.1-1.03C703.52,255.82,702.48,255.51,701.76,256.95z"/>
	<path d="M239.26,248.78c0-0.14,0.4-0.1-2.69-0.1C236.6,248.68,235.97,248.78,239.26,248.78z"/>
	<path d="M728.96,477.71c0.33-1.67-1.19-2.14-0.83,1.14C728.86,478.53,728.96,478.12,728.96,477.71z"/>
	<path d="M743.76,412.12c0.52-1.24,0.52-2.17-0.41-3.1C742.2,410.26,742.52,411.09,743.76,412.12z"/>
	<path d="M671.35,399.09c-0.31,0.83-0.72,1.66,0.31,2.69C672.48,400.54,672.07,399.81,671.35,399.09z"/>
	<path d="M418.32,181.44c0.52-1.03,0.72-1.86-0.31-2.38C417.53,178.58,416.27,180.32,418.32,181.44z"/>
	<path d="M305.87,295.33c3.24-0.32,3.28-2.62,0.72-1.34C306.19,294.3,305.46,294.4,305.87,295.33z"/>
	<path d="M402.49,154.85c-0.83-1.14-1.55-1.86-2.9-1.03C400.22,155.06,401.15,155.16,402.49,154.85z"/>
	<path d="M689.76,251.99c1.03,0.72,1.66,0.52,2.48-0.31C691.31,250.95,690.59,250.75,689.76,251.99z"/>
	<path d="M336.29,146.89c0.21,0.1,0.41,0.21,0.83,0.41c0.21-0.62,1.45-0.52,0.72-1.86C336.91,145.54,336.39,145.96,336.29,146.89z"
		/>
	<path d="M250.12,213.61c0.93,0.41,1.45,0.62,2.07,0C251.67,212.78,251.05,212.68,250.12,213.61z"/>
	<path d="M359.87,164.89c0.21,0.83,0.72,1.03,1.66,0.52C361.01,164.47,360.49,164.37,359.87,164.89z"/>
	<path d="M289.53,229.85c0.93,0,1.86-0.31,2.69-1.14C290.98,228.61,290.15,229.02,289.53,229.85z"/>
	<path d="M696.48,261.3c-0.83,1.03-0.93,1.55,0.21,1.97C697.31,262.75,697.31,262.13,696.48,261.3z"/>
	<path d="M740.65,325.43c-0.83-0.62-1.66-0.72-2.59-0.62C739,324.71,739.52,325.75,740.65,325.43z"/>
	<path d="M222.5,401.57c-0.62,0.93-1.03,1.55-0.1,2.48C223.22,403.12,222.91,402.5,222.5,401.57z"/>
	<path d="M391.73,171.72c-0.52-0.52-1.03-0.41-1.66,0C390.7,172.44,391.11,173.27,391.73,171.72z"/>
	<path d="M261.54,195.93c-0.04-0.15-2.73-2.91-2.83-3.01c0.24,1.93,1.47,3.18,2.5,3.43C263.64,198.42,264.24,196.73,261.54,195.93z"
		/>
	<path d="M719.76,375.3c-1.03,0.21-1.55,0.41-1.66,1.45C719.24,376.85,719.55,376.33,719.76,375.3z"/>
	<path d="M286.74,267.51c0.63-1.89-2.05-2.23-1.24-0.62C285.81,267.2,286.01,267.92,286.74,267.51z"/>
	<path d="M270.7,377.78c-1.24,0-1.76,0.31-1.55,1.45C270.08,379.23,270.5,378.81,270.7,377.78z"/>
	<path d="M257.15,169.44c0.69-1.39-1.62-1.17-0.83-0.1C256.53,169.65,256.95,169.85,257.15,169.44z"/>
	<path d="M272.26,271.33c-0.1-0.52-0.31-0.83-1.03-0.52C271.43,271.13,271.53,271.95,272.26,271.33z"/>
	<path d="M388.22,171.72c0.41-0.41,0.2-1.53-1.14-0.72C387.18,171.61,387.39,172.13,388.22,171.72z"/>
	<path d="M286.32,217.75c-0.02,0-0.06,0.01-0.08,0.02C286.29,217.8,286.32,217.81,286.32,217.75z"/>
	<path d="M285.81,217.85c0.17,0,0.32-0.06,0.43-0.08C286.12,217.7,285.88,217.48,285.81,217.85z"/>
	<path d="M217.64,221.99c0.21,0,0.41,0,0.41,0C218.05,221.89,217.64,221.47,217.64,221.99z"/>
	<path d="M282.6,264.2c0.1,0.41-0.72,0.62-0.21,1.45C283.94,265.13,284.02,264.2,282.6,264.2z"/>
	<path d="M273.7,256.54c0.88,0,1.55-0.38,1.89-1.28C274.84,255.48,274.18,255.87,273.7,256.54z"/>
	<path d="M275.6,255.26c0.22-0.07,0.2-0.04,0.07-0.17C275.65,255.15,275.62,255.2,275.6,255.26z"/>
	<path d="M277.32,234.09c0.23-0.23,0.43-0.25-0.1-0.1L277.32,234.09z"/>
	<path d="M280.01,233.27c-0.85,0.09-1.69,0.02-2.45,0.63C278.38,233.64,279.2,233.45,280.01,233.27z"/>
	<path d="M275.67,233.99c0,0.72-0.2,0.35,1.55,0C276.81,234.09,276.19,234.09,275.67,233.99z"/>
	<path d="M272.46,234.92c-0.21,0-0.31,0-0.62,0C272.15,234.92,272.36,235.23,272.46,234.92z"/>
	<path d="M688.72,240.61c0.72,0.1,0.93-0.31,1.24-1.03C689.03,239.78,688.62,239.99,688.72,240.61z"/>
	<path d="M229.53,254.68c4.48,9.7,8.18,9.62,0.41-0.31C228.71,251.48,227.38,252.89,229.53,254.68z"/>
	<path d="M277.01,254.26c-0.52,0.21-1.03,0.31-1.24,0.93C276.29,255.2,277.01,255.3,277.01,254.26z"/>
	<path d="M185.15,132.2c8.69-4.86,17.79-3.62,27.1-1.24C207.47,125.58,181.63,127.67,185.15,132.2z"/>
	<path d="M136.54,164.27c-2.48,1.86-8.58,11.09-3.21,11.69C132.47,169.97,140.58,166.64,136.54,164.27z"/>
	<path d="M146.05,154.23c4.14,0.62,6.83-3,10.55-3.72C152.47,150.2,149.47,152.79,146.05,154.23z"/>
	<path d="M157.74,150.61c2.9,0,5.07-0.1,6.83-1.97C162.09,148.13,160.12,148.75,157.74,150.61z"/>
	<path d="M135.4,158.58c1.24,1.45,0.21,3.31,1.24,5.07C139.52,161.92,138.63,157.68,135.4,158.58z"/>
	<path d="M194.26,144.51c-2.38,0.41-4.45,0.62-6.62,2.07C191.15,146.48,192.09,146.27,194.26,144.51z"/>
	<path d="M203.67,143.37c2.17,0.1,3.62-0.52,4.86-1.24C206.98,141.92,205.43,141.3,203.67,143.37z"/>
	<path d="M211.33,142.34c1.14-0.21,2.28-0.52,3.93-0.83C213.29,140.37,212.15,140.68,211.33,142.34z"/>
	<path d="M213.6,130.65c1.03,0.72,1.76,0.62,2.48-0.41C214.74,129.72,214.74,129.72,213.6,130.65z"/>
	<path d="M106.02,169.23c1.14,0.41,1.86-0.31,2.9-1.34C107.26,167.47,106.54,168.1,106.02,169.23z"/>
	<path d="M179.47,137.17c1.66-0.52,2.69-0.93,2.79-2.48C180.91,134.89,180.29,135.72,179.47,137.17z"/>
	<path d="M216.6,141.41c0.52,0.62,1.03,0.52,1.76-0.21C217.43,140.48,216.91,140.68,216.6,141.41z"/>
	<path d="M257.98,142.13c-0.37,1.11,3.99,6.09,4.76-14.79C261.93,126.93,262.05,125.49,257.98,142.13z"/>
	<path d="M244.43,128.58c-0.52,3.21,3.62,8.48,7.14,9.21C251.05,135.3,248.05,131.48,244.43,128.58z"/>
	<path d="M243.81,124.86c-0.52-3.72-0.52-7.65-3.41-10.45C240.19,118.34,241.64,121.75,243.81,124.86z"/>
	<path d="M264.6,142.34c0.99,1.48-0.3,1.37,7.55-3.41C271.43,137.84,272.36,137.75,264.6,142.34z"/>
	<path d="M264.7,124.13c1.45-1.45,1.76-3.21,1.97-5.59C264.81,120.3,264.7,122.17,264.7,124.13z"/>
	<path d="M264.29,103.03c-4.96,1.38-10.34-0.31-15.52,1.66c1.45,2.9,3.83,1.97,5.17,1.66c4.03-0.62,8.28,0.1,12.1-1.45
		C265.84,103.44,265.02,102.83,264.29,103.03z"/>
	<path d="M273.5,77.17c-0.21-0.83-0.72-1.14-1.24-0.93c-12.24,1.48-14.65,1.69-13.55,7.97C262.22,78.72,268.74,79.75,273.5,77.17z"
		/>
	<path d="M253.01,79.65c-3.62-2.9-11.38-3-14.17-0.41C243.7,80.37,248.36,80.06,253.01,79.65z"/>
	<path d="M241.53,82.86c3.1,2.17,8.17,2.07,11.48-0.31C248.57,81.31,245.05,82.03,241.53,82.86z"/>
	<path d="M271.53,80.68c-3.21,0.1-6.41-0.31-10.03,1.55c4.03,2.69,7.03,0.41,10.24-0.1C271.74,81.62,271.63,81.2,271.53,80.68z"/>
	<path d="M253.01,99.1c3-0.94,7.17,2.71,9.1-3.1c-3.41-0.52-6.31,3.31-9.21,0.1C252.29,97.34,251.98,98.06,253.01,99.1z"/>
	<path d="M253.22,110.27c4.55,1.55,7.03,1.14,8.79-1.34C259.01,108.3,256.12,107.17,253.22,110.27z"/>
	<path d="M271.22,96.2c0.72-0.62,1.24-1.14,0.31-2.07C270.6,94.86,270.7,95.48,271.22,96.2z"/>
	<path d="M61.95,193.85c0.62-1.97,1.55-3.52,3.72-4.66C61.54,188.68,60.71,189.82,61.95,193.85z"/>
	<path d="M709.62,190.65c-0.41-1.55,1.03-2.9-0.21-4.14c-2.28,1.34-1.14,4.03-2.48,5.59c4.03,4.34,9.31,4.34,14.38,5.07
		C721.31,196.22,723.75,197.52,709.62,190.65z"/>
	<path d="M716.24,178.03c0.1,2.38-0.31,4.86,0.72,7.03c1.97,0.1,0.83-2.17,1.97-2.28c1.55,0.21,1.55,2.38,3.62,1.97
		c-0.21-1.34-0.93-2.48-0.1-3.93C724.25,177.64,718.73,176.49,716.24,178.03z M721.1,179.99c-0.93,1.14-1.86,1.14-3.31,0.31
		C719.03,178.44,719.96,178.75,721.1,179.99z"/>
	<path d="M727.83,184.44c5.24,0,5.57-8.09,0-7.97C722.15,176.6,722.54,184.44,727.83,184.44z M727.83,178.34
		c3.06-0.24,3.04,4.55,0,4.55C724.93,182.89,724.57,178.34,727.83,178.34z"/>
	<path d="M710.34,176.37c-0.13-2.33,2.04-12.38-2.38-11.28C709.83,178.49,708.86,176.37,710.34,176.37z"/>
	<path d="M694.31,221.99c5.28,1.97,10.34,0.52,15.31-0.83C704.45,221.06,699.48,222.92,694.31,221.99z"/>
	<path d="M733,196.13c-3.1,0-5.79-0.93-9.1-1.45C725.65,198.09,728.86,198.51,733,196.13z"/>
	<path d="M686.34,202.85c2.9-0.41,6.21,1.34,9.31-1.66C691.83,200.37,689.03,201.2,686.34,202.85z"/>
	<path d="M709.52,186.61c1.45-3,1.34-5.9,0-9.62C707.76,180.82,709.52,183.72,709.52,186.61z"/>
	<path d="M693.38,198.61c-2.79,0-5.69,0-8.48,0c-0.31-0.62-0.72-1.14-1.34-0.31c0.1,0.62,0.62,0.52,1.03,0.62
		C687.69,201.4,690.48,198.51,693.38,198.61z"/>
	<path d="M729.69,208.23c-1.97,0.31-3.93,0.83-6.41,2.28C726.27,210.4,728.24,210.09,729.69,208.23z"/>
	<path d="M714.27,170.99c2.38-0.31,3.93-1.14,5.48-2.17C718.1,169.23,716.03,168.41,714.27,170.99z"/>
	<path d="M704.76,171.72c-1.55-1.03-2.79-1.34-4.14-0.31C701.86,171.92,703.1,172.44,704.76,171.72z"/>
	<path d="M740.03,195.09c-1.45-0.72-2.48-0.72-4.14,0C737.55,196.34,738.69,196.13,740.03,195.09z"/>
	<path d="M699.48,197.58c0.72,0.72,1.34,0.52,2.07-1.24C700.41,196.96,699.48,196.34,699.48,197.58z"/>
	<path d="M707.03,194.06c-1.03,0-1.24,0.62-1.55,1.66C706.72,195.51,707.24,195.09,707.03,194.06z"/>
	<path d="M732.17,167.68c0-0.72-0.52-0.83-1.34-0.21C731.45,167.89,732.17,167.89,732.17,167.68z"/>
	<path d="M673.52,214.02c-4.45,0.41-8.79-4.03-13.86-0.93c-0.62-0.52-0.83-1.55-2.17-1.86c-0.62,2.38,0.32,4.39,2.28,4.03
		c1.98-0.36,3.83,0.3,5.69,0.21c9.39-0.46,12.31,8.68,17.38,9.1C678.38,222.2,677.34,217.13,673.52,214.02z"/>
	<path d="M670.93,222.51c-16.4-19.85-0.31,8.99,5.19,14.07c-2.1-2.41-0.03-4.07-4.26-9.72C666.77,220.04,669.89,223.8,670.93,222.51
		z"/>
	<path d="M677.24,237.51c-0.35-0.25-0.73-0.57-1.12-0.93C676.42,236.92,676.78,237.24,677.24,237.51z"/>
	<path d="M658.72,194.16c0.62-0.52,0.93-1.34,0-2.28c-2.07,1.45-3.62,3.1-3.62,6c0.27,3.24-3.14,7.32-0.41,13.76
		C659.35,210.28,653.38,199.51,658.72,194.16z"/>
	<path d="M670.83,138.82c0.1,1.86-1.76,3.62,0.62,5.07c1.86-1.45,2.17-3.31,1.66-5.69c-5.42-1.74-8.03-8.39-12.41-3.41
		C665.45,133.13,667.72,137.06,670.83,138.82z"/>
	<path d="M665.14,171.2c-2.28,0.72-3.31,1.76-4.66,4.45C664.52,174.92,665.55,173.89,665.14,171.2z"/>
	<path d="M670.21,203.06c-2.48-2.17-4.76-3.31-8.28-3.52C666.28,202.96,666.9,203.27,670.21,203.06z"/>
	<path d="M650.86,152.89c-0.1-2.28,1.86-4.45,0.41-7.45C650.04,148.34,648.9,150.51,650.86,152.89z"/>
	<path d="M651.38,144.3c-0.1-2.17,2.07-3.41,2.17-5.48C650.97,139.65,650.55,140.58,651.38,144.3z"/>
	<path d="M669.9,152.89c1.66-1.76,0.93-3.72,0.72-5.48C669.48,150.61,669.48,150.61,669.9,152.89z"/>
	<path d="M656.97,175.85c-1.66,0-1.97,1.14-2.69,2.69C656.04,177.92,656.97,177.41,656.97,175.85z"/>
	<path d="M683.86,225.92c-0.1,0.83,0.21,1.03,0.93,0.93C684.69,226.33,684.38,226.02,683.86,225.92z"/>
	<path d="M751.83,126.1c-4.09,2.52-8.41,4.97-9.41,9.83c-0.64,3.1,0.62,6.31,3.62,7.55c-4.24-4.03,0.41-7.55,0-11.59
		C750.69,129.56,754.79,128.57,751.83,126.1z"/>
	<path d="M766.31,188.47c0.52,1.03,1.14,1.34,1.97,1.55c0.49,0.32-2.75,3.66-1.45,6.62c2.95-1.73,3.49-3.96,1.93-6.68
		c1.83-5.48,8.2-0.5,8.2-5.63C773.03,185.16,768.89,184.65,766.31,188.47z"/>
	<path d="M749.86,205.75c-3.68,2.65-9.95,2.93-8.79,7.55C745.52,212.58,746.65,208.03,749.86,205.75z"/>
	<path d="M754.83,141.2c-0.56,4.17-3.41,10.09-0.31,10.65c2.07-3.72,0-8.69,3.1-12.31C756.07,139.54,755.03,140.27,754.83,141.2z"/>
	<path d="M749.03,162.3c-0.62-2.79-0.41-5.28,0.83-8.48C745.83,156.92,745.62,160.65,749.03,162.3z"/>
	<path d="M759.07,180.3c0.52,0,0.34,0.5,3.83-4.03C759.48,177.51,759.17,177.92,759.07,180.3z"/>
	<path d="M760.72,164.16c0.62,1.24,1.45,1.76,2.9,1.66C762.89,164.37,762.17,163.75,760.72,164.16z"/>
	<path d="M761.14,158.48c1.76-0.31,2.17-1.34,2.59-3.21C762.17,156.2,761.34,156.92,761.14,158.48z"/>
	<path d="M755.45,203.27c0.83-0.1,1.55-0.1,1.14-1.14C755.86,202.03,755.45,202.13,755.45,203.27z"/>
	<path d="M761.45,201.4c0.83,0.41,1.24,0.21,1.03-0.83C761.76,200.37,761.55,200.78,761.45,201.4z"/>
	<path d="M751.41,204.92c0.72,0.31,0.93-0.1,1.03-1.03C751.51,203.99,751.1,204.2,751.41,204.92z"/>
	<path d="M757.2,212.58c0.62-0.1,1.03-0.41,0.93-1.34C756.89,211.23,756.69,211.65,757.2,212.58z"/>
	<path d="M712.31,83.99c0.86-1.43,7.85-1.83,10.14-4.24c-4.86-0.41-9.52,0.21-14.07,2.17c-0.52,1.66-1.45,3.21-0.83,5.17
		C709.41,86.17,709.72,83.37,712.31,83.99z"/>
	<path d="M707.86,106.75c-2.79-0.37-5.49,0.68-8.17,0.41c-0.83-0.08-1.55,0.31-1.34,1.97c5.59,1.24,10.97-0.72,16.55-0.93
		C713.66,104.28,712.38,107.35,707.86,106.75z"/>
	<path d="M702.79,82.75c-4.14-2.79-12.21-2.9-14.79-0.31C692.97,83.06,697.62,83.79,702.79,82.75z"/>
	<path d="M690.59,86.27c3.72,1.03,7.45,2.28,10.97-0.31C697.83,83.99,694.31,85.34,690.59,86.27z"/>
	<path d="M701.76,99.82c-0.72,0.72-0.52,1.34,0.1,2.28c3.1-0.72,7.14,2.38,9.1-2.48c-1.86-2.07-3.21,0.21-4.45,0.72
		C704.65,100.96,703.31,99.2,701.76,99.82z"/>
	<path d="M712.21,84.1c-0.1,0.52-1.03,0.72-0.62,1.97c3.31,1.97,6.31-0.41,9.41-1.34C718.1,83.17,715.1,84.51,712.21,84.1z"/>
	<path d="M702.28,113.06c3.62,1.97,6.72,1.66,9.1-1.14C708.07,111.51,705.07,110.48,702.28,113.06z"/>
	<path d="M720.17,99.41c1.24-0.52,1.14-1.24,0.62-2.07C719.65,97.75,719.55,98.48,720.17,99.41z"/>
	<path d="M707.65,89.68c0.82-0.16,0.74-1.03,0.21-1.03C707.34,88.86,707.24,89.27,707.65,89.68z"/>
	<path d="M718.41,141.41c-6.21,1.34-8.79,3.41-7.45,6c7.14-2.9,12.52-8.59,19.24-12C726.07,134.79,720.69,137.48,718.41,141.41z"/>
	<path d="M690.48,113.48c-1.66,1.86-1.03,5.28,1.86,10.86C692.76,120.2,692.34,116.79,690.48,113.48z"/>
	<path d="M711.9,133.44c-1.45,2.28-1.97,4.45-2.38,6.93C712.1,139.03,712.41,138.2,711.9,133.44z"/>
	<path d="M695.03,130.96c-0.1-1.66-0.52-2.69-1.66-3.21C693.38,128.99,693.79,129.92,695.03,130.96z"/>
	<path d="M708.38,149.79c1.66-1.03,1.55-1.97,0-3.1C707.76,147.82,707.76,148.75,708.38,149.79z"/>
	<path d="M707.14,153.51c1.14-0.72,1.76-1.24,0.83-2.69C707.24,151.65,706.41,152.16,707.14,153.51z"/>
<path fill="#e6e6e6" d="m206.8 163.6c0-5.1 4.1-9.2 9.3-9.2s9.2 4.2 9.2 9.2-4.1 9.2-9.3 9.2-9.2-4.1-9.2-9.2zm17.3-.1c0-4.5-3.5-8.2-8.2-8.2s-8.2 3.7-8.2 8.3c0 4.5 3.5 8.2 8.2 8.2s8.2-3.7 8.2-8.3zm-13 0c0-2.8 2.1-5.1 5.1-5.1 1.9 0 2.9.6 3.9 1.5l-1.4 1.7c-.8-.7-1.5-1.1-2.5-1.1-1.7 0-2.8 1.4-2.8 3.1s1.1 3 2.8 3c1.1 0 1.7-.5 2.5-1.1l1.4 1.4c-1.1 1.1-2.1 1.7-4 1.7-2.9 0-5-2.3-5-5.1z"/><path fill="#e6e6e6" d="m226.6 154.7h3.4l4.2 13.2 4.4-13.3h2.6l4.4 13.3 4.2-13.2h3.3l-6.2 18h-2.7l-4.4-12.8-4.4 12.8h-2.7z"/><path fill="#e6e6e6" d="m252.8 165.8c0-3.9 3.1-7 7.2-7 4.2 0 7.2 3.2 7.2 7s-3.1 7-7.3 7c-4 0-7.1-3.1-7.1-7zm11.3 0c0-2.3-1.7-4.3-4.2-4.3s-4.1 2-4.1 4.3 1.7 4.3 4.1 4.3c2.7.1 4.2-1.9 4.2-4.3z"/><path fill="#e6e6e6" d="m269.5 159.1h3.1v3c.8-2 2.4-3.4 4.8-3.3v3.2h-.2c-2.7 0-4.6 1.7-4.6 5.4v5.1h-3.1z"/><path fill="#e6e6e6" d="m279.1 153.9h3.1v11.1l5.6-6h3.8l-5.4 5.5 5.5 8h-3.5l-4.1-5.8-1.9 2v3.9h-3.1z"/><path fill="#e6e6e6" d="m291.7 165.8c0-3.9 3.1-7 7.2-7 4.2 0 7.2 3.2 7.2 7s-3.1 7-7.3 7c-4 0-7.1-3.1-7.1-7zm11.3 0c0-2.3-1.7-4.3-4.2-4.3s-4.1 2-4.1 4.3 1.7 4.3 4.1 4.3c2.6.1 4.2-1.9 4.2-4.3z"/><path fill="#e6e6e6" d="m308.2 167.6v-8.6h3.1v7.6c0 2.1 1.1 3.3 2.9 3.3s3-1.3 3-3.3v-7.6h3.1v13.4h-3.1v-2.1c-.8 1.3-2.1 2.3-4.2 2.3-3.1.2-4.8-1.8-4.8-5z"/><path fill="#e6e6e6" d="m323.9 168.8v-7.1h-1.7v-2.6h1.7v-3.7h3.1v3.7h3.6v2.6h-3.6v6.6c0 1.2.6 1.7 1.7 1.7.7 0 1.3-.2 1.9-.5v2.5c-.8.5-1.7.7-2.8.7-2.3 0-3.9-.9-3.9-3.9z"/><path fill="#e6e6e6" d="m333.2 154.7h3.2v15h9.4v2.9h-12.5v-17.9z"/><path fill="#e6e6e6" d="m356 172.5v-1.7c-.9 1.1-2.3 2-4.4 2-2.6 0-4.8-1.4-4.8-4.2 0-3 2.3-4.4 5.4-4.4 1.7 0 2.6.2 3.7.5v-.2c0-1.9-1.2-2.9-3.3-2.9-1.5 0-2.6.3-3.9.8l-.8-2.5c1.5-.7 2.9-1.1 5.1-1.1 4 0 5.9 2.1 5.9 5.7v8zm.1-5.6c-.8-.3-1.9-.5-3.1-.5-2 0-3.1.8-3.1 2.1s1.1 2 2.6 2c2 0 3.5-1.1 3.5-2.9z"/><path fill="#e6e6e6" d="m364.9 170.5v2.1h-3.1v-18.7h3.1v7.4c1-1.4 2.4-2.5 4.5-2.5 3.2 0 6.3 2.5 6.3 7s-3.1 7-6.3 7c-2.1 0-3.5-1.1-4.5-2.3zm7.7-4.7c0-2.6-1.7-4.3-3.9-4.3s-3.9 1.7-3.9 4.4c0 2.6 1.8 4.3 3.9 4.3s3.9-1.7 3.9-4.4z"/><path fill="#e6e6e6" d="m376.9 170.8 1.4-2.1c1.4 1.1 3 1.7 4.4 1.7s2.1-.5 2.1-1.5-1.3-1.4-2.8-1.8c-.1 0-.2-.1-.2-.1-2-.6-4.2-1.4-4.2-4s2.1-4.1 4.8-4.1c1.7 0 3.5.6 5 1.5l-1.2 2.2c-1.3-.8-2.6-1.3-3.8-1.3s-1.9.5-1.9 1.4 1.3 1.4 2.8 1.8c.1 0 .2.1.2.1 2 .6 4.2 1.5 4.2 4 0 2.9-2.2 4.2-5 4.2-1.9 0-4-.7-5.8-2z"/><path fill="#e6e6e6" d="m505.6 163.6c0-5.1 4.1-9.2 9.3-9.2s9.2 4.2 9.2 9.2-4.1 9.2-9.3 9.2-9.2-4.1-9.2-9.2zm17.4-.1c0-4.5-3.5-8.2-8.2-8.2s-8.2 3.7-8.2 8.3c0 4.5 3.5 8.2 8.2 8.2s8.2-3.7 8.2-8.3zm-13.1 0c0-2.8 2.1-5.1 5.1-5.1 1.9 0 2.9.6 3.9 1.5l-1.4 1.7c-.8-.7-1.5-1.1-2.5-1.1-1.7 0-2.8 1.4-2.8 3.1s1.1 3 2.8 3c1.1 0 1.7-.5 2.5-1.1l1.4 1.4c-1.1 1.1-2.1 1.7-4 1.7-2.9 0-5-2.3-5-5.1z"/><path fill="#e6e6e6" d="m525.4 154.7h3.4l4.2 13.2 4.4-13.3h2.6l4.4 13.3 4.2-13.2h3.3l-6.2 18h-2.7l-4.4-12.8-4.4 12.8h-2.7z"/><path fill="#e6e6e6" d="m551.7 165.8c0-3.9 3.1-7 7.2-7 4.2 0 7.2 3.2 7.2 7s-3.1 7-7.3 7c-4.1 0-7.1-3.1-7.1-7zm11.2 0c0-2.3-1.7-4.3-4.2-4.3s-4.1 2-4.1 4.3 1.7 4.3 4.1 4.3c2.7.1 4.2-1.9 4.2-4.3z"/><path fill="#e6e6e6" d="m568.3 159.1h3.1v3c.8-2 2.4-3.4 4.8-3.3v3.2h-.2c-2.7 0-4.6 1.7-4.6 5.4v5.1h-3.1z"/><path fill="#e6e6e6" d="m577.9 153.9h3.1v11.1l5.6-6h3.8l-5.4 5.5 5.5 8h-3.5l-4.1-5.8-1.9 2v3.9h-3.1z"/><path fill="#e6e6e6" d="m590.6 165.8c0-3.9 3.1-7 7.2-7 4.2 0 7.2 3.2 7.2 7s-3.1 7-7.3 7c-4.1 0-7.1-3.1-7.1-7zm11.2 0c0-2.3-1.7-4.3-4.2-4.3s-4.1 2-4.1 4.3 1.7 4.3 4.1 4.3c2.6.1 4.2-1.9 4.2-4.3z"/><path fill="#e6e6e6" d="m607 167.6v-8.6h3.1v7.6c0 2.1 1.1 3.3 2.9 3.3s3-1.3 3-3.3v-7.6h3.1v13.4h-3.1v-2.1c-.8 1.3-2.1 2.3-4.2 2.3-3 .2-4.8-1.8-4.8-5z"/><path fill="#e6e6e6" d="m622.7 168.8v-7.1h-1.7v-2.6h1.7v-3.7h3.1v3.7h3.6v2.6h-3.6v6.6c0 1.2.6 1.7 1.7 1.7.7 0 1.3-.2 1.9-.5v2.5c-.8.5-1.7.7-2.8.7-2.3 0-3.9-.9-3.9-3.9z"/><path fill="#e6e6e6" d="m632 154.7h3.2v15h9.4v2.9h-12.6z"/><path fill="#e6e6e6" d="m654.8 172.5v-1.7c-.9 1.1-2.3 2-4.4 2-2.6 0-4.8-1.4-4.8-4.2 0-3 2.3-4.4 5.4-4.4 1.7 0 2.6.2 3.7.5v-.2c0-1.9-1.2-2.9-3.3-2.9-1.5 0-2.6.3-3.9.8l-.8-2.5c1.5-.7 2.9-1.1 5.1-1.1 4 0 5.9 2.1 5.9 5.7v8zm.1-5.6c-.8-.3-1.9-.5-3.1-.5-2 0-3.1.8-3.1 2.1s1.1 2 2.6 2c2 0 3.5-1.1 3.5-2.9z"/><path fill="#e6e6e6" d="m663.7 170.5v2.1h-3.1v-18.7h3.1v7.4c1-1.4 2.4-2.5 4.5-2.5 3.2 0 6.3 2.5 6.3 7s-3.1 7-6.3 7c-2.1 0-3.5-1.1-4.5-2.3zm7.8-4.7c0-2.6-1.7-4.3-3.9-4.3-2.1 0-3.9 1.7-3.9 4.4 0 2.6 1.8 4.3 3.9 4.3s3.9-1.7 3.9-4.4z"/><path fill="#e6e6e6" d="m675.8 170.8 1.4-2.1c1.4 1.1 3 1.7 4.4 1.7s2.1-.5 2.1-1.5-1.3-1.4-2.8-1.8c-.1 0-.2-.1-.2-.1-2-.6-4.2-1.4-4.2-4s2.1-4.1 4.8-4.1c1.7 0 3.5.6 5 1.5l-1.2 2.2c-1.3-.8-2.6-1.3-3.8-1.3s-1.9.5-1.9 1.4 1.3 1.4 2.8 1.8c.1 0 .2.1.2.1 2 .6 4.2 1.5 4.2 4 0 2.9-2.2 4.2-5 4.2-2 0-4.1-.7-5.8-2z"/><path fill="#e6e6e6" d="m61 298.6c0-5.1 4.1-9.2 9.3-9.2s9.2 4.2 9.2 9.2-4.1 9.2-9.3 9.2c-5.1 0-9.2-4.2-9.2-9.2zm17.4-.1c0-4.5-3.5-8.2-8.2-8.2s-8.2 3.7-8.2 8.3c0 4.5 3.5 8.2 8.2 8.2s8.2-3.7 8.2-8.3zm-13.1-.1c0-2.8 2.1-5.1 5.1-5.1 1.9 0 2.9.6 3.9 1.5l-1.4 1.7c-.8-.7-1.5-1.1-2.5-1.1-1.7 0-2.8 1.4-2.8 3.1s1.1 3 2.8 3c1.1 0 1.7-.5 2.5-1.1l1.4 1.4c-1.1 1.1-2.1 1.7-4 1.7-2.8.1-5-2.2-5-5.1z"/><path fill="#e6e6e6" d="m80.9 289.7h3.4l4.2 13.2 4.4-13.3h2.6l4.4 13.3 4.2-13.2h3.3l-6.2 18h-2.7l-4.4-12.8-4.4 12.8h-2.7z"/><path fill="#e6e6e6" d="m107.1 300.8c0-3.9 3.1-7 7.2-7s7.2 3.2 7.2 7-3.1 7-7.3 7c-4 0-7.1-3.1-7.1-7zm11.3 0c0-2.3-1.7-4.3-4.2-4.3s-4.1 2-4.1 4.3 1.7 4.3 4.1 4.3c2.6.1 4.2-1.9 4.2-4.3z"/><path fill="#e6e6e6" d="m123.7 294h3.1v3c.8-2 2.4-3.4 4.8-3.3v3.2h-.2c-2.7 0-4.6 1.7-4.6 5.4v5.1h-3.1z"/><path fill="#e6e6e6" d="m133.4 288.9h3.1v11.1l5.6-6h3.8l-5.4 5.5 5.5 8h-3.5l-4.1-5.8-1.9 1.9v3.9h-3.1z"/><path fill="#e6e6e6" d="m146 300.8c0-3.9 3.1-7 7.2-7s7.2 3.2 7.2 7-3.1 7-7.3 7c-4.1 0-7.1-3.1-7.1-7zm11.2 0c0-2.3-1.7-4.3-4.2-4.3s-4.1 2-4.1 4.3 1.7 4.3 4.1 4.3c2.6.1 4.2-1.9 4.2-4.3z"/><path fill="#e6e6e6" d="m162.4 302.6v-8.6h3.1v7.6c0 2.1 1.1 3.3 2.9 3.3s3-1.3 3-3.3v-7.6h3.1v13.4h-3.1v-2.1c-.8 1.3-2.1 2.3-4.2 2.3-3 .2-4.8-1.8-4.8-5z"/><path fill="#e6e6e6" d="m178.1 303.8v-7.1h-1.7v-2.7h1.7v-3.7h3.1v3.7h3.6v2.6h-3.6v6.6c0 1.2.6 1.7 1.7 1.7.7 0 1.3-.2 1.9-.5v2.5c-.8.5-1.7.7-2.8.7-2.3.1-3.9-.9-3.9-3.8z"/><path fill="#e6e6e6" d="m187.4 289.7h3.2v15h9.4v2.9h-12.5v-17.9z"/><path fill="#e6e6e6" d="m210.2 307.5v-1.7c-.9 1.1-2.3 2-4.4 2-2.6 0-4.8-1.4-4.8-4.2 0-3 2.3-4.4 5.4-4.4 1.7 0 2.6.2 3.7.5v-.2c0-1.9-1.2-2.9-3.3-2.9-1.5 0-2.6.3-3.9.8l-.8-2.5c1.5-.7 2.9-1.1 5.1-1.1 4 0 5.9 2.1 5.9 5.7v8zm.1-5.6c-.8-.3-1.9-.5-3.1-.5-2 0-3.1.8-3.1 2.1s1.1 2 2.6 2c2 0 3.5-1.1 3.5-2.9z"/><path fill="#e6e6e6" d="m219.2 305.5v2.1h-3.1v-18.7h3.1v7.4c1-1.4 2.4-2.5 4.5-2.5 3.2 0 6.3 2.5 6.3 7s-3.1 7-6.3 7c-2.2 0-3.6-1.1-4.5-2.3zm7.7-4.7c0-2.6-1.7-4.3-3.9-4.3s-3.9 1.7-3.9 4.4c0 2.6 1.8 4.3 3.9 4.3s3.9-1.7 3.9-4.4z"/><path fill="#e6e6e6" d="m231.2 305.8 1.4-2.1c1.4 1.1 3 1.7 4.4 1.7s2.1-.5 2.1-1.5-1.3-1.4-2.8-1.8c-.1 0-.2-.1-.2-.1-2-.6-4.2-1.4-4.2-4s2.1-4.1 4.8-4.1c1.7 0 3.5.6 5 1.5l-1.2 2.2c-1.3-.8-2.6-1.3-3.8-1.3s-1.9.5-1.9 1.4 1.3 1.4 2.8 1.8c.1 0 .2.1.2.1 2 .6 4.2 1.5 4.2 4 0 2.9-2.2 4.2-5 4.2-2 0-4.1-.7-5.8-2z"/><path fill="#e6e6e6" d="m360.6 298.6c0-5.1 4.1-9.2 9.3-9.2s9.2 4.2 9.2 9.2-4.1 9.2-9.3 9.2-9.2-4.2-9.2-9.2zm17.4-.1c0-4.5-3.5-8.2-8.2-8.2s-8.2 3.7-8.2 8.3c0 4.5 3.5 8.2 8.2 8.2s8.2-3.7 8.2-8.3zm-13.1-.1c0-2.8 2.1-5.1 5.1-5.1 1.9 0 2.9.6 3.9 1.5l-1.4 1.7c-.8-.7-1.5-1.1-2.5-1.1-1.7 0-2.8 1.4-2.8 3.1s1.1 3 2.8 3c1.1 0 1.7-.5 2.5-1.1l1.4 1.4c-1.1 1.1-2.1 1.7-4 1.7-2.8.1-5-2.2-5-5.1z"/><path fill="#e6e6e6" d="m380.5 289.7h3.4l4.2 13.2 4.4-13.3h2.6l4.4 13.3 4.2-13.2h3.3l-6.2 18h-2.7l-4.4-12.8-4.4 12.8h-2.7z"/><path fill="#e6e6e6" d="m406.7 300.8c0-3.9 3.1-7 7.2-7 4.2 0 7.2 3.2 7.2 7s-3.1 7-7.3 7c-4.1 0-7.1-3.1-7.1-7zm11.3 0c0-2.3-1.7-4.3-4.2-4.3s-4.1 2-4.1 4.3 1.7 4.3 4.1 4.3c2.7.1 4.2-1.9 4.2-4.3z"/><path fill="#e6e6e6" d="m423.3 294h3.1v3c.8-2 2.4-3.4 4.8-3.3v3.2h-.2c-2.7 0-4.6 1.7-4.6 5.4v5.1h-3.1z"/><path fill="#e6e6e6" d="m433 288.9h3.1v11.1l5.6-6h3.8l-5.4 5.5 5.5 8h-3.5l-4.1-5.8-1.9 2v3.9h-3.1z"/><path fill="#e6e6e6" d="m445.6 300.8c0-3.9 3.1-7 7.2-7 4.2 0 7.2 3.2 7.2 7s-3.1 7-7.3 7c-4.1 0-7.1-3.1-7.1-7zm11.3 0c0-2.3-1.7-4.3-4.2-4.3s-4.1 2-4.1 4.3 1.7 4.3 4.1 4.3c2.6.1 4.2-1.9 4.2-4.3z"/><path fill="#e6e6e6" d="m462.1 302.6v-8.6h3.1v7.6c0 2.1 1.1 3.3 2.9 3.3s3-1.3 3-3.3v-7.6h3.1v13.4h-3.1v-2.1c-.8 1.3-2.1 2.3-4.2 2.3-3.1.2-4.8-1.8-4.8-5z"/><path fill="#e6e6e6" d="m477.8 303.8v-7.1h-1.8v-2.7h1.7v-3.7h3.1v3.7h3.6v2.6h-3.6v6.6c0 1.2.6 1.7 1.7 1.7.7 0 1.3-.2 1.9-.5v2.5c-.8.5-1.7.7-2.8.7-2.2.1-3.8-.9-3.8-3.8z"/><path fill="#e6e6e6" d="m487.1 289.7h3.2v15h9.4v2.9h-12.5v-17.9z"/><path fill="#e6e6e6" d="m509.9 307.5v-1.7c-.9 1.1-2.3 2-4.4 2-2.6 0-4.8-1.4-4.8-4.2 0-3 2.3-4.4 5.4-4.4 1.7 0 2.6.2 3.7.5v-.2c0-1.9-1.2-2.9-3.3-2.9-1.5 0-2.6.3-3.9.8l-.8-2.5c1.5-.7 2.9-1.1 5.1-1.1 4 0 5.9 2.1 5.9 5.7v8zm.1-5.6c-.8-.3-1.9-.5-3.1-.5-2 0-3.1.8-3.1 2.1s1.1 2 2.6 2c2 0 3.5-1.1 3.5-2.9z"/><path fill="#e6e6e6" d="m518.8 305.5v2.1h-3.1v-18.7h3.1v7.4c1-1.4 2.4-2.5 4.5-2.5 3.2 0 6.3 2.5 6.3 7s-3.1 7-6.3 7c-2.2 0-3.5-1.1-4.5-2.3zm7.7-4.7c0-2.6-1.7-4.3-3.9-4.3s-3.9 1.7-3.9 4.4c0 2.6 1.8 4.3 3.9 4.3s3.9-1.7 3.9-4.4z"/><path fill="#e6e6e6" d="m530.8 305.8 1.4-2.1c1.4 1.1 3 1.7 4.4 1.7s2.1-.5 2.1-1.5-1.3-1.4-2.8-1.8c-.1 0-.2-.1-.2-.1-2-.6-4.2-1.4-4.2-4s2.1-4.1 4.8-4.1c1.7 0 3.5.6 5 1.5l-1.2 2.2c-1.3-.8-2.6-1.3-3.8-1.3s-1.9.5-1.9 1.4 1.3 1.4 2.8 1.8c.1 0 .2.1.2.1 2 .6 4.2 1.5 4.2 4 0 2.9-2.2 4.2-5 4.2-1.9 0-4.1-.7-5.8-2z"/><path fill="#e6e6e6" d="m659.5 298.6c0-5.1 4.1-9.2 9.3-9.2s9.2 4.2 9.2 9.2-4.1 9.2-9.3 9.2-9.2-4.2-9.2-9.2zm17.3-.1c0-4.5-3.5-8.2-8.2-8.2s-8.2 3.7-8.2 8.3c0 4.5 3.5 8.2 8.2 8.2 4.8 0 8.2-3.7 8.2-8.3zm-13-.1c0-2.8 2.1-5.1 5.1-5.1 1.9 0 2.9.6 3.9 1.5l-1.4 1.7c-.8-.7-1.5-1.1-2.5-1.1-1.7 0-2.8 1.4-2.8 3.1s1.1 3 2.8 3c1.1 0 1.7-.5 2.5-1.1l1.4 1.4c-1.1 1.1-2.1 1.7-4 1.7-2.9.1-5-2.2-5-5.1z"/><path fill="#e6e6e6" d="m679.3 289.7h3.4l4.2 13.2 4.4-13.3h2.6l4.4 13.3 4.2-13.2h3.3l-6.2 18h-2.6l-4.4-12.8-4.4 12.8h-2.7z"/><path fill="#e6e6e6" d="m705.5 300.8c0-3.9 3.1-7 7.2-7 4.2 0 7.2 3.2 7.2 7s-3.1 7-7.3 7c-4 0-7.1-3.1-7.1-7zm11.3 0c0-2.3-1.7-4.3-4.2-4.3s-4.1 2-4.1 4.3 1.7 4.3 4.1 4.3c2.7.1 4.2-1.9 4.2-4.3z"/><path fill="#e6e6e6" d="m722.1 294h3.1v3c.8-2 2.4-3.4 4.8-3.3v3.2h-.2c-2.7 0-4.6 1.7-4.6 5.4v5.1h-3.1z"/><path fill="#e6e6e6" d="m731.8 288.9h3.1v11.1l5.6-6h3.8l-5.4 5.5 5.5 8h-3.5l-4.1-5.8-1.9 2v3.9h-3.1z"/><path fill="#e6e6e6" d="m744.4 300.8c0-3.9 3.1-7 7.2-7 4.2 0 7.2 3.2 7.2 7s-3.1 7-7.3 7c-4.1 0-7.1-3.1-7.1-7zm11.3 0c0-2.3-1.7-4.3-4.2-4.3s-4.1 2-4.1 4.3 1.7 4.3 4.1 4.3c2.6.1 4.2-1.9 4.2-4.3z"/><path fill="#e6e6e6" d="m760.9 302.6v-8.6h3.1v7.6c0 2.1 1.1 3.3 2.9 3.3s3-1.3 3-3.3v-7.6h3.1v13.4h-3.1v-2.1c-.8 1.3-2.1 2.3-4.2 2.3-3.1.2-4.8-1.8-4.8-5z"/><path fill="#e6e6e6" d="m776.6 303.8v-7.1h-1.7v-2.7h1.7v-3.7h3.1v3.7h3.6v2.6h-3.6v6.6c0 1.2.6 1.7 1.7 1.7.7 0 1.3-.2 1.9-.5v2.5c-.8.5-1.7.7-2.8.7-2.3.1-3.9-.9-3.9-3.8z"/><path fill="#e6e6e6" d="m785.9 289.7h3.2v15h9.4v2.9h-12.5v-17.9z"/><path fill="#e6e6e6" d="m808.7 307.5v-1.7c-.9 1.1-2.3 2-4.4 2-2.6 0-4.8-1.4-4.8-4.2 0-3 2.3-4.4 5.4-4.4 1.7 0 2.6.2 3.7.5v-.2c0-1.9-1.2-2.9-3.3-2.9-1.5 0-2.6.3-3.9.8l-.8-2.5c1.5-.7 2.9-1.1 5.1-1.1 4 0 5.9 2.1 5.9 5.7v8zm.1-5.6c-.8-.3-1.9-.5-3.1-.5-2 0-3.1.8-3.1 2.1s1.1 2 2.6 2c2 0 3.5-1.1 3.5-2.9z"/><path fill="#e6e6e6" d="m817.6 305.5v2.1h-3.1v-18.7h3.1v7.4c1-1.4 2.4-2.5 4.5-2.5 3.2 0 6.3 2.5 6.3 7s-3.1 7-6.3 7c-2.1 0-3.5-1.1-4.5-2.3zm7.7-4.7c0-2.6-1.7-4.3-3.9-4.3-2.1 0-3.9 1.7-3.9 4.4 0 2.6 1.8 4.3 3.9 4.3 2.2 0 3.9-1.7 3.9-4.4z"/><path fill="#e6e6e6" d="m829.6 305.8 1.4-2.1c1.4 1.1 3 1.7 4.4 1.7s2.1-.5 2.1-1.5-1.3-1.4-2.8-1.8c-.1 0-.2-.1-.2-.1-2-.6-4.2-1.4-4.2-4s2.1-4.1 4.8-4.1c1.7 0 3.5.6 5 1.5l-1.2 2.2c-1.3-.8-2.6-1.3-3.8-1.3s-1.9.5-1.9 1.4 1.3 1.4 2.8 1.8c.1 0 .2.1.2.1 2 .6 4.2 1.5 4.2 4 0 2.9-2.2 4.2-5 4.2-1.9 0-4-.7-5.8-2z"/><path fill="#e6e6e6" d="m206.3 434.2c0-5.1 4.1-9.2 9.3-9.2s9.2 4.2 9.2 9.2-4.1 9.2-9.3 9.2-9.2-4.1-9.2-9.2zm17.4-.1c0-4.5-3.5-8.2-8.2-8.2s-8.2 3.7-8.2 8.3c0 4.5 3.5 8.2 8.2 8.2s8.2-3.7 8.2-8.3zm-13.1-.1c0-2.8 2.1-5.1 5.1-5.1 1.9 0 2.9.6 3.9 1.5l-1.4 1.7c-.8-.7-1.5-1.1-2.5-1.1-1.7 0-2.8 1.4-2.8 3.1s1.1 3 2.8 3c1.1 0 1.7-.5 2.5-1.1l1.4 1.4c-1.1 1.1-2.1 1.7-4 1.7-2.9.1-5-2.2-5-5.1z"/><path fill="#e6e6e6" d="m226.1 425.3h3.4l4.2 13.2 4.4-13.3h2.6l4.4 13.3 4.2-13.2h3.3l-6.2 18h-2.7l-4.4-12.8-4.4 12.8h-2.7z"/><path fill="#e6e6e6" d="m252.4 436.4c0-3.9 3.1-7 7.2-7 4.2 0 7.2 3.2 7.2 7s-3.1 7-7.3 7c-4.1 0-7.1-3.1-7.1-7zm11.2 0c0-2.3-1.7-4.3-4.2-4.3s-4.1 2-4.1 4.3 1.7 4.3 4.1 4.3c2.7.1 4.2-1.9 4.2-4.3z"/><path fill="#e6e6e6" d="m269 429.7h3.1v3c.8-2 2.4-3.4 4.8-3.3v3.2h-.2c-2.7 0-4.6 1.7-4.6 5.4v5.1h-3.1z"/><path fill="#e6e6e6" d="m278.6 424.5h3.1v11.1l5.6-6h3.8l-5.4 5.5 5.5 8h-3.5l-4.1-5.8-1.9 2v3.9h-3.1z"/><path fill="#e6e6e6" d="m291.3 436.4c0-3.9 3.1-7 7.2-7 4.2 0 7.2 3.2 7.2 7s-3.1 7-7.3 7c-4.1 0-7.1-3.1-7.1-7zm11.2 0c0-2.3-1.7-4.3-4.2-4.3s-4.1 2-4.1 4.3 1.7 4.3 4.1 4.3c2.6.1 4.2-1.9 4.2-4.3z"/><path fill="#e6e6e6" d="m307.7 438.2v-8.6h3.1v7.6c0 2.1 1.1 3.3 2.9 3.3s3-1.3 3-3.3v-7.6h3.1v13.4h-3.1v-2.1c-.8 1.3-2.1 2.3-4.2 2.3-3 .2-4.8-1.8-4.8-5z"/><path fill="#e6e6e6" d="m323.4 439.4v-7.1h-1.7v-2.6h1.7v-3.7h3.1v3.7h3.6v2.6h-3.6v6.6c0 1.2.6 1.7 1.7 1.7.7 0 1.3-.2 1.9-.5v2.5c-.8.5-1.7.7-2.8.7-2.3 0-3.9-.9-3.9-3.9z"/><path fill="#e6e6e6" d="m332.7 425.3h3.2v15h9.4v2.9h-12.5v-17.9z"/><path fill="#e6e6e6" d="m355.5 443.1v-1.7c-.9 1.1-2.3 2-4.4 2-2.6 0-4.8-1.4-4.8-4.2 0-3 2.3-4.4 5.4-4.4 1.7 0 2.6.2 3.7.5v-.2c0-1.9-1.2-2.9-3.3-2.9-1.5 0-2.6.3-3.9.8l-.8-2.5c1.5-.7 2.9-1.1 5.1-1.1 4 0 5.9 2.1 5.9 5.7v8zm.1-5.6c-.8-.3-1.9-.5-3.1-.5-2 0-3.1.8-3.1 2.1s1.1 2 2.6 2c2 0 3.5-1.1 3.5-2.9z"/><path fill="#e6e6e6" d="m364.4 441.1v2.1h-3.1v-18.7h3.1v7.4c1-1.4 2.4-2.5 4.5-2.5 3.2 0 6.3 2.5 6.3 7s-3.1 7-6.3 7c-2.1 0-3.5-1.1-4.5-2.3zm7.7-4.7c0-2.6-1.7-4.3-3.9-4.3-2.1 0-3.9 1.7-3.9 4.4 0 2.6 1.8 4.3 3.9 4.3 2.2 0 3.9-1.7 3.9-4.4z"/><path fill="#e6e6e6" d="m376.5 441.4 1.4-2.1c1.4 1.1 3 1.7 4.4 1.7s2.1-.5 2.1-1.5-1.3-1.4-2.8-1.8c-.1 0-.2-.1-.2-.1-2-.6-4.2-1.4-4.2-4s2.1-4.1 4.8-4.1c1.7 0 3.5.6 5 1.5l-1.2 2.2c-1.3-.8-2.6-1.3-3.8-1.3s-1.9.5-1.9 1.4 1.3 1.4 2.8 1.8c.1 0 .2.1.2.1 2 .6 4.2 1.5 4.2 4 0 2.9-2.2 4.2-5 4.2-2 0-4.1-.7-5.8-2z"/><path fill="#e6e6e6" d="m505.1 434.2c0-5.1 4.1-9.2 9.3-9.2s9.2 4.2 9.2 9.2-4.1 9.2-9.3 9.2-9.2-4.1-9.2-9.2zm17.4-.1c0-4.5-3.5-8.2-8.2-8.2s-8.2 3.7-8.2 8.3c0 4.5 3.5 8.2 8.2 8.2s8.2-3.7 8.2-8.3zm-13.1-.1c0-2.8 2.1-5.1 5.1-5.1 1.9 0 2.9.6 3.9 1.5l-1.4 1.7c-.8-.7-1.5-1.1-2.5-1.1-1.7 0-2.8 1.4-2.8 3.1s1.1 3 2.8 3c1.1 0 1.7-.5 2.5-1.1l1.4 1.4c-1.1 1.1-2.1 1.7-4 1.7-2.9.1-5-2.2-5-5.1z"/><path fill="#e6e6e6" d="m525 425.3h3.4l4.2 13.2 4.4-13.3h2.6l4.4 13.3 4.2-13.2h3.3l-6.2 18h-2.7l-4.4-12.8-4.4 12.8h-2.7z"/><path fill="#e6e6e6" d="m551.2 436.4c0-3.9 3.1-7 7.2-7 4.2 0 7.2 3.2 7.2 7s-3.1 7-7.3 7c-4.1 0-7.1-3.1-7.1-7zm11.2 0c0-2.3-1.7-4.3-4.2-4.3s-4.1 2-4.1 4.3 1.7 4.3 4.1 4.3c2.7.1 4.2-1.9 4.2-4.3z"/><path fill="#e6e6e6" d="m567.8 429.7h3.1v3c.8-2 2.4-3.4 4.8-3.3v3.2h-.2c-2.7 0-4.6 1.7-4.6 5.4v5.1h-3.1z"/><path fill="#e6e6e6" d="m577.5 424.5h3.1v11.1l5.6-6h3.8l-5.4 5.5 5.5 8h-3.5l-4.1-5.8-1.9 2v3.9h-3.1z"/><path fill="#e6e6e6" d="m590.1 436.4c0-3.9 3.1-7 7.2-7 4.2 0 7.2 3.2 7.2 7s-3.1 7-7.3 7c-4.1 0-7.1-3.1-7.1-7zm11.2 0c0-2.3-1.7-4.3-4.2-4.3s-4.1 2-4.1 4.3 1.7 4.3 4.1 4.3c2.6.1 4.2-1.9 4.2-4.3z"/><path fill="#e6e6e6" d="m606.5 438.2v-8.6h3.1v7.6c0 2.1 1.1 3.3 2.9 3.3s3-1.3 3-3.3v-7.6h3.1v13.4h-3.1v-2.1c-.8 1.3-2.1 2.3-4.2 2.3-3 .2-4.8-1.8-4.8-5z"/><path fill="#e6e6e6" d="m622.2 439.4v-7.1h-1.7v-2.6h1.7v-3.7h3.1v3.7h3.6v2.6h-3.6v6.6c0 1.2.6 1.7 1.7 1.7.7 0 1.3-.2 1.9-.5v2.5c-.8.5-1.7.7-2.8.7-2.3 0-3.9-.9-3.9-3.9z"/><path fill="#e6e6e6" d="m631.5 425.3h3.2v15h9.4v2.9h-12.5v-17.9z"/><path fill="#e6e6e6" d="m654.3 443.1v-1.7c-.9 1.1-2.3 2-4.4 2-2.6 0-4.8-1.4-4.8-4.2 0-3 2.3-4.4 5.4-4.4 1.7 0 2.6.2 3.7.5v-.2c0-1.9-1.2-2.9-3.3-2.9-1.5 0-2.6.3-3.9.8l-.8-2.5c1.5-.7 2.9-1.1 5.1-1.1 4 0 5.9 2.1 5.9 5.7v8zm.1-5.6c-.8-.3-1.9-.5-3.1-.5-2 0-3.1.8-3.1 2.1s1.1 2 2.6 2c2 0 3.5-1.1 3.5-2.9z"/><path fill="#e6e6e6" d="m663.3 441.1v2.1h-3.1v-18.7h3.1v7.4c1-1.4 2.4-2.5 4.5-2.5 3.2 0 6.3 2.5 6.3 7s-3.1 7-6.3 7c-2.2 0-3.6-1.1-4.5-2.3zm7.7-4.7c0-2.6-1.7-4.3-3.9-4.3s-3.9 1.7-3.9 4.4c0 2.6 1.8 4.3 3.9 4.3s3.9-1.7 3.9-4.4z"/><path fill="#e6e6e6" d="m675.3 441.4 1.4-2.1c1.4 1.1 3 1.7 4.4 1.7s2.1-.5 2.1-1.5-1.3-1.4-2.8-1.8c-.1 0-.2-.1-.2-.1-2-.6-4.2-1.4-4.2-4s2.1-4.1 4.8-4.1c1.7 0 3.5.6 5 1.5l-1.2 2.2c-1.3-.8-2.6-1.3-3.8-1.3s-1.9.5-1.9 1.4 1.3 1.4 2.8 1.8c.1 0 .2.1.2.1 2 .6 4.2 1.5 4.2 4 0 2.9-2.2 4.2-5 4.2-2 0-4.1-.7-5.8-2z"/></g>
</svg>
