<?xml version="1.0" encoding="utf-8"?>
<!-- Generator: Adobe Illustrator 23.0.1, SVG Export Plug-In . SVG Version: 6.00 Build 0)  -->
<svg version="1.2" baseProfile="tiny" id="Layer_1" xmlns="http://www.w3.org/2000/svg" xmlns:xlink="http://www.w3.org/1999/xlink"
	 x="0px" y="0px" viewBox="0 0 900 600" xml:space="preserve">
<g>
	<path d="M710.31,295.13c-2.56-4.21-6.67-6.16-10.98-7.08c-2.16-6.67-3.49-12.83-2.57-19.5c0.01-0.1,2.15-40.76,0.21-45.27
		c-4.87-11.31,0.49-14.16-5.54-23.51c-3.43-5.31-2.4-11.46-0.51-17.45c7.66-24.31-2.8-32.87,0.31-43.22
		c0.7-3.05-1.28-9.48-1.85-20.12c-0.8-15.09-15.59-14.15-35.11-29.46c-5.01-3.93-9.65-8.31-15.91-10.47
		c-0.68-5.48,1.03-5.35,2.16-9.24c6.61-22.79,8.59-14.11,8.01-21.25c-0.33-4.02,2.06-6.81-2.46-8.31c7.03-5.71,1.43-1.4,4.52-12.32
		c0.38-1.33-1.2-3.18-1.03-5.95c0.11-1.74,0.1-4.82-3.18-5.13c0.31-1.33,2.46-1.85,1.75-3.59c-1.64-1.54-2.87,0.92-4.41,0.41
		c0.41-1.33,2.46-1.54,1.85-3.49c-1.44-0.72-3.18,0.1-4.72-0.31c-1.23-1.75-1.95-3.49-1.33-6.16c-5.34,2.16-10.57,2.77-15.91,0.51
		c-0.41-1.44,0.31-3.59-1.95-4.21c-1.44,0.51-1.33,2.05-2.57,2.67c-0.72-0.62-0.92-2.05-2.57-2.16c-0.72,1.13-2.57,0.41-3.59,1.33
		c-0.82,1.33,0.31,2.36,0,3.49c-3.65,2.01-8.25,1.08-9.55,2.36c-13.28,13.09-9.87,20.01-8.93,28.44
		c-4.11,6.06-4.52,14.47,2.98,19.61c-0.61,7.7,7.1,16.53-11.7,26.48c-15.35,8.12-13.03,12.51-25.56,15.3
		c-19.37,4.3-20.56,29.75-22.07,33.88c-19.91,54.41-8.18,42.5-9.24,65.08c-1.03,0.21-1.44,0.82-1.64,1.95
		c-2.22,12.5-6.47,17.33-5.75,30.9c0.46,8.66,3.05,36.03,2.87,43.83c-0.03,1.23-0.31,2.67,1.13,3.49c3-1.71-0.77-22.01-0.21-30.69
		c0.11-1.64,0.12-3.29-0.1-4.93c-3.88-28.53,2.12-29.08,3.8-41.57c0.92-0.72,1.54,1.13,2.36-0.31c0.1-2.16-0.82-4.52-0.31-7.08
		c2.14,1.46,8.82,4.03,4.72,0.72c-4.23-3.41-7.01-3.77-7.08-18.58c-0.1-20.99,8.55-22.24,14.78-55.23
		c1.72-9.11,7.39-17.01,17.35-19.4c10.32-2.48,12.32-6.26,21.76-13.34c0.83-0.83,1.44,0.9,0.82,2.77c-0.51,0.51-1.54-0.1-1.64,0.82
		c0.31,10.68-0.31,21.35-4.82,31.51c-3.08-1.03-6.57-0.41-8.93-3.39c-0.92,0.92-2.26,0.1-4.11,1.54c5.13,0,8.01,3.39,12.73,4.31
		c-5.44,11.5-9.44,23.2-15.71,33.98c-1.13-0.1-1.64-1.33-2.77-0.41c1.23,3.59,0.1,6.78-2.05,9.96c-3.9-9.24-6.16-18.68-9.44-28.02
		c-1.44,1.23-1.01,2.15-0.82,3.08c6.38,31.37,16.87,34.66,9.24,42.6c-1.78,1.85-1.99,11.48-7.8,16.32
		c-1.38,1.38-2.29,14.02-2.16,14.78c3.04,16.76-2.9,36.52-3.18,41.47c-0.31,5.34-0.02,10.98-1.75,16.12
		c-3.28,9.74,6.01,10.48,10.16,18.48c-1.13,0.31-1.64,1.33-2.46,2.46c-8.71-8.54-22.9-19.44-33.67-13.65
		c-5.62,3.02-10.26,6.78-12.52,13.34c-11.41,33.01,13.48,44.97,21.87,43.63c5.76-0.92,5.51,4.88,13.96-0.62
		c9.62-6.25,10.85-15.64,13.55-22.99c0.75,2.25-13.72,62.3-13.76,62.41c-0.18,0.68-0.54,1.55,0.99,2.42
		c-0.1,0.1,10.39,3.42,15.95,3.74c-0.62,9.55-0.57,19.11-4.21,28.23c-5.05,12.68-3.24,34.76-1.75,44.14
		c4.75,29.92,1.9,40.44,5.54,59.03c2.26-0.31,3.29-2.58,5.44-2.16c3.6,0.7,7.5,0.4,10.88,2.46c1.34,0.82,3.18,1.23,5.13-0.82
		c-14.41-4.37-6.31-2.27-8.89-10.33c-2.79,1.55-1.68,4.39-2.09,7.04c-1.75-0.31-3.7,0.62-5.34-1.13c0.21-2.05,0.92-4.21,0.1-6.67
		c-2.36,2.57-0.62,6.47-3.8,8.52c-2.46-17.05-3.04-40.67-2.87-43.22c1.09-16.49-8.51-36.81,0.72-58.1
		c5.14-11.85,2.83-24.03,3.9-27.41c7.08,2.16,14.27,1.33,21.45,1.64c0.62,0.72-0.72,1.75,0.31,2.46c0.92-0.92,1.13-2.05,2.36-2.57
		c2.46-0.1,5.13-0.41,7.9,0.1c-3.42,13.68-5.34,14.98-4.31,23.41c1.06,8.66,4.18,22.53-3.7,45.78c-0.62,1.84-1.33,4-3.59,4.93
		c0.29,0.48-9.68,56.26-1.95,53.69c1.69-3.95-1.89-3.53-0.92-12.11c3.76-33.38,4.47-36.23,6.47-40.55
		c14.24-30.81,1.7-44.81,7.7-65.19c4.48-15.22,2.06-8.08,9.03-9.85c4.99-1.27,4.69,2.58,16.42,1.44c3.29,2.11,2.55,4.48,5.85,14.58
		c1.25,3.81-5.11,42.6-5.13,42.7c-2.97,16.32,4.2,17.72,3.59,24.43c2.05,0.82,2.77,3.7,5.34,3.28c-8.86-18.95-9.97-12.42-1.64-57.38
		c0.95-5.13,1.37-10.28-0.31-15.3c-1.31-3.91-0.62-8.21-2.98-12.42c13.22,1.72,21.33-2.83,25.77-0.92c8.68,3.74,10.29-3.57,7.49,7.9
		c-1.87,7.65-4.16,21.87,0.62,28.13c-0.1-3.08-1.13-5.34-0.21-8.42c8.17,51.75-6.08,52.31-6.57,104.3c0,0.31-0.21,0.62-0.31,0.92
		c-1.13,0-2.16,0.51-2.87,0c-0.62-2.67-0.51-5.24-1.75-7.7c-3.75,4.85,4.93,9.32-9.34,6.67c-0.21-2.36-0.31-4.62-1.44-6.98
		c-1.03,2.46-0.31,4.62-0.62,6.78c-1.03,0.72-1.95,1.33-3.28,2.16c0.41-8.21,2.05-15.91,0.92-23.92
		c-3.92-27.81-8.09-31.94-2.87-3.39c2.33,12.73-0.03,25.87-0.1,25.97c-2.67,3.82-1.66,9.21-3.9,13.24
		c-0.92,0.21-2.14,0.32-2.87,1.44c-15.01,22.86-0.63,20.59,2.16,28.54c-2.05,2.46-3.39,5.44-4.21,8.73
		c-8.21-1.85-16.42-2.46-24.64-3.59c-0.51-0.72-0.01-1.84-0.72-2.57c-3.11-3.16-6.06-6.46-6.16-11.29c-0.01-0.42-5.08-5.44-4-14.68
		c0.17-1.47,0.27-7.48-0.92-8.73c-1.34-1.39-1.03-1.52-1.03-14.68c-3.8,2.87-1.75,6.47-2.67,9.24c-0.72,0-0.82-0.51-1.03-0.92
		c-4.97-9.79-20.25-9.43-21.35-5.34c-2.94,10.91-15.4,15.49-11.5,24.33c2.59-4.71-3.81-0.96,10.88-16.53
		c1.94-2.06,2.98-4.31,2.46-7.08c4.41-2.87,8.6-0.96,12.73,0.21c5.31,1.49,3.98,7.04,7.49,9.55c5.65,4.02,0.34,13.12,3.7,19.4
		c2.64,4.94,3.39,10.57,5.34,14.88c4,1.13,4.41,3.9,4.72,7.08c3.36-2.07,1.86-0.61,14.27,0.41c21.62,1.79,16.8,9.94,26.9,7.39
		c4.42-1.12,8.71-1.08,12.93,0.21c1.74,0.53,3.9-0.31,5.24,1.33c2.67-0.82,4.62-2.36,6.67-4.21c11.81,1.54,23.82,1.23,36.24,2.36
		c-3.4,3.22-20.98,16.36-4.31,5.75c2.26-1.44,3.8-3.9,7.08-4.31c-1.73,7.17,7.85,5.71-13.24,17.76c-0.82-2.87,0.1-5.34-0.41-7.6
		c-1.56-1.9-42.01-1.76-51.63-3.18c-64.74-9.57-101.41-6.46-121.75-13.24c6.57-2.57,11.81-5.95,16.84-9.14
		c7.9,0.92,15.6,1.95,23.3,2.05c2.05,6.89,1.2,11.7,32.23,9.85c3.29-0.2,6.67-1.44,8.52-4.93c-5.65,2.57-11.59,3.54-17.55,2.67
		c-6.05-0.88-12.32,0.41-18.27-2.05c1.81-8.26-8.62-17.7-6.06-31.93c5.54-1.23,10.87-2.22,16.53-0.21
		c17.83,6.35-1.84,22.57,15.71,28.33c-2.57-2.26-3.7-5.13-6.36-6.78c3.08-5.34,2.14-17.22-4.82-21.97
		c-1.65-1.12-3.59-1.03-5.34-1.85c-7.07-3.32-17.68-0.74-17.86,1.85c-0.84,11.99-4.84-0.63,4.31,24.53
		c-2.32,3.1-21.7-3.66-28.44,1.23c-8.09,5.87-12.69,5.45-14.68,8.93c0.92,4,0,8.01,1.23,12.42c17.04,0.21,33.67,4.11,51.12,4.31
		c-1.85,0.62-3.39-0.1-4.82,0.82c5.75-0.31,11.39,1.04,17.04,1.13c101.82,1.53,110.46,7.02,111.03,7.71
		c-0.02-0.17,0.13-0.65,1.48-1.55c5.04-3.38,10.78-6.16,14.78-11.19c-0.21-3.28-1.64-6.57-0.72-10.27
		c-13.04-2.05-25.97-1.33-38.7-3.08c1.95-5.75,0.82-8.93-4.82-12.93c0.76-5.78-0.82-15.15-5.03-23.1
		c-1.55-2.93,1.65-5.92,1.13-17.04c-0.94-20.27,4.31-31.63,4.93-42.91c0.99-18.13,9.34-28.42,4.72-56.56
		c-1.97-12.01,0.1-23.3,3.28-34.7c3.08-0.92,6.67-0.41,9.14-2.46c2.27-7.32-3.11-13.77-3.39-39.93c9.58,6.72,14.4,5.66,25.36,6.26
		c9.66,0.53,13.06-4.92,18.48-13.04C718.58,324.17,719.64,310.44,710.31,295.13z M541.65,330.24c-2.72,4.44-8.23,6.45-12.73,8.11
		c-2.74-3.57-8.04,1.77-22.28-10.98c-1.71-1.53-8.46-14.05-3.7-27.72c3.74-10.71,5.33-12.06,13.04-16.01
		c2.45-1.26,4.21,1.13,6.36,0.92c0.21-0.82-0.82-0.72-0.92-1.44c10.83-2.01,18.76,8.24,24.02,13.24c1.32,1.25,0.09,2.57,0.62,3.9
		C550.31,311.07,547.36,320.93,541.65,330.24z M676.95,594.47c-14.42-4.38-129.28-8.7-144.23-10.98
		c-27.23-4.16-25.97,1.31-25.56-10.68c2.13-0.38,21.87,3.64,45.48,5.24c81.47,5.49,42.38,4.86,101.32,8.52
		c33.23,2.06,22.06-2.73,24.84,7.29C678.18,594.57,677.67,594.69,676.95,594.47z M649.13,551.05c-2.53,4.95,0.49,8.48,2.57,12.42
		c1.21,2.3,3.8,0.01,3.8,4.31c-2.16,1.95-4.41,3.8-6.57,5.75c-6.35,0.6-10.27-2.44-16.84-0.51c-3.49,1.03-6.98,1.03-10.68-0.51
		c-8.26-9.91,7.46-9.07-3.08-18.58c-2.93-2.64-8.12-8.12-5.65-11.19c2.8-3.47,4.21-7.9,8.21-10.57c4.6-3.06,1.75-7.57,5.85-12.22
		c2.16-0.21,4,0,5.65,1.03c0.92,4.11,6.16,11.7,9.14,12.93c-1.44-5.95-7.49-9.55-7.29-15.81c3.49,0.21,7.19,1.64,11.29,0.51
		c0.31,5.54-0.72,10.78-1.54,16.32C647.57,536.61,649.9,549.54,649.13,551.05z M652.52,91.88c3.07,3.69,19.2,10.1,29.05,17.04
		c6.81,4.8,5.28,24.2,8.73,48.35c3.3,23.14-9.62,30.18-1.13,43.42c4.34,6.77,1.51,11.68,5.75,23.71c1.15,3.26-0.56,44.21-1.03,47.43
		c-2.28,15.61,10.62,16.91-9.55,11.6c-8.59-18.13-1.75-7.79-8.01-19.2c-1.64-2.98-1.48-6.65-2.98-9.55
		c-7.64-14.75-7.97-18.35-8.52-25.66c-1.59-21.17-0.41-22.29-1.03-23.82c-3.06-7.63-0.82-15.71-1.95-23.51
		c-1.95-13.37,4.47-30.58,3.9-40.45c-3.28,7.08-2.87,15.3-6.06,22.58c-9.03-6.02-11.27-17.64-12.93-33.57
		c2.36-3.08,6.26-5.13,7.9-9.03c-1.85,1.64-4.93,1.44-6.06,4.11c-5.77-2.16-0.18-21.56,1.03-34.59
		C651.39,90.34,652.01,91.26,652.52,91.88z M659.3,241.75c-0.24-2.94,0.18-26.56,2.05-28.85c2.91,6.99-3.04,17.25,10.37,45.37
		c11.5,24.13,7.13,21.78,10.47,25.87c-3.39,0.21-6.06,1.9-9.14,2.05c-1,0.05-1.11-0.02-9.75,9.03c-1.27-39.32,0.44-36.87-2.77-40.34
		C656.51,250.56,659.66,246.28,659.3,241.75z M659.6,198.02c0.72,0.72,1.13,1.23,0.72,2.16C659.09,199.87,659.4,199.05,659.6,198.02
		z M661.04,204.9c0.62,1.64,0.51,3.28-0.1,5.03C660.22,208.28,660.84,206.64,661.04,204.9z M649.24,28.54
		c-1.54-1.13-1.75-2.26-2.05-3.8C648.41,25.77,648.93,26.69,649.24,28.54z M646.98,35.52c1.23,0.62,0.51,1.03,0.41,1.54
		C646.36,36.44,646.87,36.03,646.98,35.52z M646.36,28.23c-1.13,0-0.51-1.23-1.03-1.64C646.16,26.9,646.57,27.51,646.36,28.23z
		 M641.23,22.28c1.03,0.41,1.03,1.03,0.72,1.85C641.33,23.71,641.02,23.2,641.23,22.28z M641.64,42.91
		c0.41-1.03,1.13-1.44,2.16-1.54c0.72,0.92-0.92,1.64,0.1,2.87c1.03,0.31,1.23-1.33,2.57-1.13c-0.51,2.67,1.03,5.65-0.51,7.8
		c-1.44,2.26-2.46,4.82-4.21,6.88c-0.1,0.1-0.72-0.51-1.33-0.21c0.92,4.93-1.75,9.14-3.08,13.76c1.44-5.13-1.03-10.27,0.21-15.5
		C643.9,54.05,645.47,45.1,641.64,42.91z M637.43,28.85c1.44,0.51,0.82,1.85,1.23,2.67C637.84,30.8,637.22,29.97,637.43,28.85z
		 M637.94,43.73c-0.31,2.16-0.31,2.16-2.98,2.26C635.99,45.48,636.92,44.86,637.94,43.73z M634.97,45.89
		c-0.1,1.33-1.33,2.05-1.85,4.11C629.89,41.11,632.82,46.08,634.97,45.89z M631.99,60.98c-0.51-0.31-0.82-0.62-0.62-1.23
		C632.71,59.64,631.99,60.57,631.99,60.98z M633.94,19.3c1.55,0.19,0.92,2.5-0.21,0.82C633.53,19.91,633.53,19.61,633.94,19.3z
		 M633.94,28.23c2.55,3.83,1.03,3.84-1.33,5.34C633.02,31.62,633.43,30.08,633.94,28.23z M632.19,15.6c0,0.72-0.51,1.03-1.13,1.03
		C630.76,15.5,631.17,15.3,632.19,15.6z M628.4,49.48c-0.82-0.82-0.72-1.64-0.21-2.87C630.04,48.25,630.04,48.25,628.4,49.48z
		 M626.86,56.87c0.21-1.13,0.41-2.26,0.72-4.11C628.81,54.92,627.68,55.84,626.86,56.87z M627.47,11.5c1.09,0,1.88,1.23,0.21,2.16
		C626.65,13.04,626.45,12.32,627.47,11.5z M623.06,25.05c0.41,2.26,3.18,3.28,1.23,5.75C621.87,28.68,620.88,28.75,623.06,25.05z
		 M621.93,66.52c0.82,1.23,0.82,2.16-0.62,2.87C620.49,68.37,619.88,67.34,621.93,66.52z M619.77,49.48c0.6-0.6,1.29,0.24,0.62,0.92
		C619.88,50.3,619.57,50.1,619.77,49.48z M619.36,71.96c-0.82-0.72-0.72-1.23-0.51-1.85C619.67,70.73,619.26,71.14,619.36,71.96z
		 M618.34,11.6c0.53,0.8,1.73,3.88-1.23,2.77C617.31,13.35,617.52,12.42,618.34,11.6z M617,66.01c1.13,0.62,2.16,1.03,1.23,2.46
		C616.59,68.47,616.8,67.44,617,66.01z M615.67,12.11c0.82,0.62-0.1,1.13,0,1.75C615.05,12.93,615.05,12.93,615.67,12.11z
		 M615.36,54.61c-0.29,0.57-0.98,0.32-0.51-0.62C615.26,54,615.56,54.3,615.36,54.61z M614.74,31.62c0.8,1.6-0.72,1.63-0.72,1.23
		C613.92,32.23,614.23,31.82,614.74,31.62z M612.9,11.19c0.92,0.82,0.62,1.33-0.1,1.85C611.97,12.52,612.38,11.91,612.9,11.19z
		 M612.38,26.59c-0.51,2.16-0.82,3.49-1.13,4.82C609.82,29.15,609.82,29.15,612.38,26.59z M610.53,67.34
		c-0.51-0.41-0.21-0.82,0-1.23C610.84,66.52,610.74,66.93,610.53,67.34z M611.36,11.29c-0.31,1.03-0.72,1.44-1.64,1.13
		C609.92,11.7,610.33,11.39,611.36,11.29z M607.97,68.26c1.13-0.31,1.56,0.51,1.64,1.33c0.13,1.33-0.92,1.13-1.54,1.33
		C608.69,70.01,607.66,69.19,607.97,68.26z M607.35,10.78c0,0.34,0.77-0.05,0.1,0.62C606.99,10.93,607.24,10.78,607.35,10.78z
		 M607.04,47.63c-2.16,0.96-3.73,0.03-0.82-2.16C607.35,45.78,607.04,46.71,607.04,47.63z M605.61,32.03
		c0.82,2.67,0.41,5.13-1.33,7.29C604.89,36.96,604.17,34.29,605.61,32.03z M594.52,38.91c-0.21,4.93,0.1,9.75,2.98,14.06
		C593.49,50.92,592.06,43.83,594.52,38.91z M598.11,23.3c0.21-3.49,3.08-3.8,4.72-5.24C601.81,20.02,599.96,21.25,598.11,23.3z
		 M601.71,52.15c-1.23-2.05-2.67-3.18-1.95-5.13C601.6,48.04,601.5,49.68,601.71,52.15z M591.24,80.99
		c6.06-1.44,7.08-6.88,9.03-11.91c1.13-0.41,2.26-0.82,3.7-1.44c1.37,8.24,3.73,3.47,4,3.28c1.72,4.31,3.84-3.35,4.52-4.52
		c3.49,1.64,2.36,7.08,7.29,7.8c3.59-1.64,4.62-6.57,8.93-8.52c2.16,0.82,4.31-1.23,6.88-0.72c-0.72,5.03-0.31,10.27,1.13,15.5
		c3.29,2.63,7.88,2.44,6.26,6.47c-5.88,14.64-12.96,27.51-28.74,27.51c-1.03-1.44-0.1-3.28-1.54-4.52
		c-1.23,1.44-0.21,3.08-0.72,4.41c-2.55,1.92-13.04-2.25-16.42-9.65C591.61,96.1,590.94,81.89,591.24,80.99z M543.6,261.36
		c3.74-25.89,6.92-18.73,4.11-50.4c-0.63-7.06,7.41-13.37,11.19-26.18c0.31-0.72,0.41-1.44,1.23-2.05
		c1.83,4.09,5.87,58.2,3.08,72.17c-0.2,0.99-4.12,6.05-6.26,10.27c-1.56,3.07-1.33,6.57-1.85,10.78c-3.59-4.41-7.7-5.34-12.52-3.18
		C544.02,268.85,543.07,265.05,543.6,261.36z M550.38,294.1c0.52-1.02,1.03,1.23,1.54,0.1c0.72-4.21-1.75-7.07-4.62-9.03
		c-3.29-2.25-4.31-5.34-5.44-9.14c4.52-1.33,8.62-0.21,12.83,1.54c-1.03,7.29-1.95,14.47-2.98,22.38
		C550.28,297.59,549.37,296.06,550.38,294.1z M550.79,305.81c-0.41-2.05-0.41-3.39,0.21-4.72
		C551.61,302.42,551.3,303.75,550.79,305.81z M656.83,386.8c-7.18,38.53-1.2,4.16-0.72-2.36
		C657.24,385.16,657.04,386.08,656.83,386.8z M667.51,374.17c0.63,2.67,0.72,5.03-0.82,7.9c-19.61,0.92-39.42,0.72-59.44,0.51
		c-0.72-1.64-1.14-3.49-1.03-5.54c0.46-8.11-0.82-16.12-1.44-24.12c-0.1-0.72-0.21-1.44-1.33-1.64c0,41.69,4.57,28.1-29.15,30.18
		c-17.53,1.08-32.07-5.38-35.89-2.44c-0.55-2.54,2.05-3.28,2.11-5.26c0.15-4.41,2.13-8.42,2.46-12.73
		c0.67-8.83,3.8-17.04,6.16-25.46c5.56-19.84,3.76-25.93,4.82-32.85c8.5-55.47,3.11-27.85,12.34-49.26
		c-0.56,3.64-0.93,7.44-2.89,10.77c3.9-2.57,4.11-6.88,4.93-10.68c1.13-0.51,2.05-1.03,2.98-1.44c5.2,2.08-0.3,5.39-1.64,12.11
		c2.05-4.11,7.19-6.47,6.57-11.81c1.64-0.51,2.87,0.82,4.31,0.21c-0.41-1.75-0.41-1.75,1.23-3.18c1.33-0.31,1.54,1.54,2.87,1.13
		c0.21-0.51,0.3-1.32,1.03-1.13c8.36,2.22,18.47-1.73,16.53,2.16c-10.33-0.4-12.77-0.71,1.64,1.54c0.82-1.13-0.21-2.36,0.92-3.18
		c5.44-1.09,1.8,3.19,5.44,4.52c2.16-3.39,6.06,0.21,8.73-2.05c-0.21-0.82-0.31-1.75-0.41-2.77c2.24-0.25,1.88-0.87,3.08,4.52
		c1.03-1.33,2.05-1.33,3.49-1.75c-2.98,0.31-2.67-1.33-2.36-3.08c4-0.72,7.9-0.31,12.52-0.51c-2.05,2.46-3.28,0.92-4.93,0.31
		c0.72,2.57-1.54,2.05-2.57,2.87c3.9,0.1,7.49-0.82,10.88-3.9c0.41,4.52,4.41,3.8,5.85,5.85c1.44,0,0.41-1.33,1.23-1.54
		c1.03,0.1,2.05,0.1,3.18,0.21c0.62,1.03,0.92,2.46,2.57,2.46c0.51-1.95,2.57-3.49,1.75-5.03c-1.06-0.18-2.67,3.14-2.67-0.82
		c0.72-1.13,2.87-0.31,3.18-2.26c-24.94,0.51-49.89,3.7-74.63,0.72c-1.33-0.41-1.54-1.95-2.87-2.16c-0.82,0.51,0.62,1.23-0.21,1.75
		c-2.87,0.21-5.65-0.62-8.11-1.44c-1.54,0.62-1.13,2.16-2.05,2.87c1.71-32.4-4.92-28.95,6.16-28.95c-2.93-1.89-6.38,1.96-6.88-8.52
		c-0.09-1.95-1.44-4.11,0.31-6.06c-2.57-4.11-0.85-8.72-1.33-13.04c-1.07-9.56-2.17-10.15-7.6-21.45c2.46-4.25,2.28-8.44,4.93-11.09
		c4.51-4.51,15.33-31.17,16.73-35.11c0.63-1.77,1.22-2.19,1.45-2.27c0.46-0.51,0.43-1.23-0.21,2.68c0.93-1.03,0.77-2.14,0.65-3.24
		c1.51-2.07,1.64-4.67,2.02-7.02c4.36-27.01,1.05-28.38,4.52-29.77c2.64-1.59,2.21-0.03,2.26,2.87c0.29,15.63,6.6,25.84,10.98,27.2
		c26.21,8.15,36.78-3.87,45.27-27.92c2.26,0.92,2.86,2.36,2.26,4.41c-9.11,31.32-0.75,72.62,12.42,76.79
		c-0.92,2.57-1.61,4.92-1.23,7.29c1.23,7.68-1.75,14.88-1.85,22.58c-3.59,0.22-11.86,0.84-15.38,1.94c4.99-0.3,10.08,0.1,15.07-0.81
		c0.51,3.8,1.2,6.97,0.41,10.37c-1.07,4.61,0.28,9.34-0.21,14.06c-1.77,17.37,0.85,20.27-1.33,23.92c-3.13,5.22,3,7.32,3.39,9.65
		c1.18,7.14,1.45,30.25,2.77,38.8c0.32,3.56-2.74,3.35-5.65,15.5c-2.41,10.08-0.76,22.52,9.24,28.85
		C665.07,340.51,662.83,354.42,667.51,374.17z M566.09,250.77c0.94,0.78,0.74,1.41,0.41,2.01
		C566.5,253.47,565.13,252.37,566.09,250.77z M569.88,248.63c1.03-0.21,1.13,0.31,0.72,1.03
		C569.88,249.65,569.68,249.35,569.88,248.63z M573.89,248.83c0.68,0.34,0.6-0.16,0.21,1.03
		C573.26,249.45,573.34,249.11,573.89,248.83z M610.33,250.27c1.75-0.51,2.16,0.31,2.36,1.54
		C611.25,252.43,610.43,252.12,610.33,250.27z M614.95,249.96c1.75,0,1.54,1.23,2.36,2.36
		C615.05,252.43,615.26,250.99,614.95,249.96z M641.64,248.83c1.81,0,0.47,1.68,0.41,2.16
		C641.33,250.17,641.02,249.55,641.64,248.83z M644.51,248.73c1.44,0.31,1.03,1.13,0.92,1.95
		C644.31,250.37,644.21,249.65,644.51,248.73z M699.84,344.1c-4.21,3.29-9.44,2.35-14.27,1.95c-12.97-1.07-15.96-7.43-18.89-9.14
		c-22.67-13.24,2.15-64.13,31.41-47.32c3.09,1.77,15.9,5.47,15.81,26.38C713.86,327.67,708.89,337.02,699.84,344.1z"/>
	<path d="M680.4,597.97C680.41,598.07,680.48,598.06,680.4,597.97L680.4,597.97z"/>
	<path d="M579.65,122.25c0,0-0.01,0.01-0.01,0.01C579.78,122.26,579.77,122.21,579.65,122.25z"/>
	<path d="M641.23,200.07h0.1C641.38,200.07,641.33,200.05,641.23,200.07z"/>
	<path d="M566.39,503.41l-0.1-0.1C566.37,503.5,566.29,503.47,566.39,503.41z"/>
	<path d="M387.34,581.98c0-0.01,0.01-0.02,0.02-0.03C387.31,581.89,387.34,581.91,387.34,581.98z"/>
	<path d="M330.39,69.19C330.39,69.19,330.39,69.2,330.39,69.19C330.4,69.2,330.4,69.19,330.39,69.19z"/>
	<path d="M384.49,315.97c-1.64-5.85-3.44-11.59-2.57-17.96c0.01-0.1,2.04-41.29,0.1-47.12c-4.69-11.39,0.39-13.8-5.44-23.2
		c-3.57-5.76-2.41-11.39-0.62-17.45c7.5-25.34-2.93-32.55,0.31-43.22c0.77-2.53-1.28-9.61-1.85-20.12
		c-0.8-14.95-15.65-13.84-35.72-29.77c-4.81-3.82-9.34-8.01-15.09-9.85c-1.84-2.75,1.31-7.49,1.85-9.34
		c6.12-21.28,8.43-15.13,8.01-20.53c-0.42-5.36,2.19-7.94-3.08-8.2c-0.46,1.15-1.85,1.86-1.44,3.27c1.44,0.72,1.54-0.92,2.87-1.03
		c0,2.16,0.21,4.31,0,6.47c-0.3,2.98-3.22,4.84-4.11,7.7c-0.29,0.93-1.33-0.21-1.85,0.41c0.92,4.93-1.64,9.14-3.08,13.65
		c1.54-5.03-0.92-10.27,0.21-15.09c5.86-2.77,8.53-9.75,4.32-13.55c2.3-2.03,3.03-1.89,3.08-1.85c0.77-1.54,2.51-1.7,3.59-2.67
		c1.75-2.36-0.15-5.15,0.92-7.6c2.31-5.27-2.2-7.11-2.46-10.06c0.31-1.03,1.64-1.13,1.75-2.57c-1.33-1.13-0.72-3.49-2.57-4.72
		c1.64-2.05,1.33-3.49-1.33-3.9c0.31-1.23,2.05-1.64,1.44-3.18c-1.85-2.26-3.9,0.1-5.85-0.21c-0.1-0.62,0.21-1.23,0-1.44
		c-7.19-3.39-14.78-0.21-21.87-2.36c-0.72-1.54,1.54-3.28,0.31-5.13c-2.26,0.31-1.13,2.77-2.57,3.7c-1.44-1.13-2.05,0-2.46,1.33
		c-1.75-1.23-2.67-3.39-4.82-2.98c-1.54,1.44,1.23,2.87-0.72,4.21c-1.44-0.31-2.67-1.75-4.62-1.75c-2.87,1.95-0.21,6.26-3.59,8.52
		c-0.31,0.31-1.03-1.23-1.95-0.51c0.31,1.23,1.64,1.03,2.26,2.16c-1.85,1.03,0.41,3.8-2.05,4.82c-0.41-0.31,0.1-1.13-1.03-1.54
		c-5.95,6.36-4.52,13.96-3.18,21.56c-3.9,4.82-4.62,15.09,2.77,19.2c0.64,6.35,2.65,12.47-1.23,19.2c-0.53,0.92-0.71,1.97-1.85,2.46
		c-3.46,1.5-6.47,3.89-9.75,5.75c-14.81,8.37-10.95,10.67-21.87,13.96c-2.15,0.65-4.42,0.91-6.47,1.95
		c-9.08,4.64-14.12,12.22-15.5,22.28c-0.8,5.84-0.87,6.79-10.78,34.49c-7.33,20.5-0.59,26.68-1.13,40.75
		c-2.01,0-0.69,1.77-5.13,15.81c-5.24,16.55,1.2,43.62,0.82,60.98c-0.03,1.23-0.31,2.67,1.13,3.59c2.05-1.42,0.74-3.21-0.21-23.61
		c-1.43-30.74-4.05-29.32,4.11-54c3.91,1.3,0.77-1.65,1.64-7.29c1.85,1.54,3.9,1.95,6.06,2.36c-2.16-1.64-3.39-4.11-5.95-4.82
		c-5.84-14.75-1.1-31.65,5.65-45.89c8.3-17.53,3.88-39.13,23.71-43.73c13.58-3.15,15.64-10.06,23.2-13.96
		c0.46,6.47-1.43,2.09-1.95,4c1.44,5.95-0.82,25.97-4.82,31.51c-2.98-0.62-6.26-0.21-8.83-3.18c-0.72,1.13-2.26,0.1-3.7,1.33
		c2.26,0.72,4.41,0.31,5.95,1.85c1.54,1.54,3.8,1.75,6.26,2.67c-5.24,11.5-9.34,23.3-15.6,33.88c-1.33,0-1.95-1.23-2.98,0.1
		c2.05,3.39-0.31,6.16-1.85,9.65c-5.34-12.14-10.47-35.19-10.47-26.79c2.07,12.43,5.81,23.93,11.29,35
		c3.02,6.09-1.67,5.68-4.11,15.6c-2.4,9.77-4.45,6.54-6.47,11.91c-1.4,3.71,0.1,7.8-1.54,11.5c3.68,16.24-2.65,38.51-2.87,42.5
		c-1.16,20.99-4.35,20.83-0.72,24.94c5.7,5.7,7.6,6.08,9.44,10.78c1.37,1.85,1.12,1.95,1.29,1.38c0.77-4.62-2.51-8.15-4.58-9.28
		c-3.51-1.91-4.31-5.34-5.44-9.14c4.62-1.23,8.62-0.21,12.83,1.64c-1.03,7.29-1.95,14.47-2.98,22.07c-1.95-2.46-2.16-4.52-1.13-6.67
		c-1.54-0.92-1.85,1.23-3.49,1.64c-5.13-4.93-10.57-9.14-16.84-12.42c-10.37-5.44-23.8-0.75-28.13,10.27
		c-7.15,18.17-6.59,30.69,9.24,42.4c7.86,5.82,13.19,2.29,15.19,3.59c7.79,5.06,17.85-5.84,20.94-14.88
		c10.62-31.04-6.3,29.19-10.88,54.2c-0.09,0.51-0.21,1.23,0.92,1.33c0.31-2.05,2.35-3.39,2.46-5.24c0.27-4.31,2.14-8.21,2.46-12.42
		c1.16-15.17,9.81-30.3,10.37-48.76c0.51-16.89,4.05-26.65,5.95-45.37c0.32-3.17,6.27-11,6.37-11.11c0.56,2.95-1.36,5.39-2.47,8.64
		c4.11-3.18,4.52-7.19,5.13-11.09c1.13-0.62,2.16-1.23,3.18-1.85c0.92,0.72,1.75,1.23,2.16,2.26c-0.82,3.49-3.18,6.47-4,10.16
		c1.95-4.21,7.29-6.57,6.57-12.22c9.15,1.14,0.74,0.49,5.54-2.87c1.44-0.1,1.64,1.54,2.87,1.44c0.51-0.41,0.21-1.23,1.23-1.44
		c7.92,2.64,18.05-1.9,16.63,2.57c-3.28-0.72-6.47-0.72-9.65-0.31c3.8,0.21,7.39,1.13,11.09,1.64c1.03-1.03,0.1-2.26,0.92-3.18
		c5.8-1.58,1.88,2.87,5.54,4.52c1.23-0.72,2.17-2.49,4.21-1.44c1.55,0.8,3.18-0.41,4.93,0c-0.58-2.53-1.33-4.11,1.13-3.7
		c1.13,1.13,0.41,3.08,1.64,4.31c2.51-2.51-3.73-5.73,7.9-4.62c0.91,1.68-1.81,2.76-1.63,2.95c-0.03,0-0.07,0.01-0.12,0.02
		c-0.67,0-1.41,0-2.16,0c0.96,0.53,2.21,0.11,2.33,0c0.33,0.07,2.16-0.28,7.53-1.13c0.31-1.44,0.72-2.67,2.57-1.95
		c1.03,0.72,0.82,2.26,2.26,2.98c1.64-0.31,2.77,1.23,4,2.16c1.89-0.84-1.55-1.99,4-1.44c0.82,0.62,0.72,2.16,2.57,2.05
		c0.72-1.75,2.57-3.08,2.26-5.54c-1.23-0.31-1.23,1.33-2.26,0.92c-0.62-0.51-0.62-1.23-0.41-1.95c0.92-0.92,3.08-0.1,3.18-2.16
		c-1.22-0.41-53.78,4.11-75.35,0.51c-0.82-0.51-1.23-1.95-2.46-2.16c-0.82,0.62,0.41,1.13-0.31,1.75c-2.67,0.31-5.44-0.21-7.7-1.33
		c-3.48,0.82-2.46,15.53-2.46-26.07c2.36-0.1,4.52,0.72,7.39,0c-6.23-1.3-5.89-0.74-6.36-2.16c-0.82-4.11-2.87-8.01-1.03-12.32
		c-5.12-8.61,4.73-7.27-8.93-34.59c2.49-4.53,2.23-8.8,4.72-11.09c5.07-4.66,21.73-43.85,21.87-50.71c0.16-7.7,1.64-15.3,1.85-22.99
		c4.65-2.71,3.9-3.28,4,2.16c0.18,9.96,3.85,24.34,11.29,27c13.21,4.72,13.21,1.4,17.96,1.44c13.71,0.11,22.4-15.9,26.48-28.85
		c0.53-1.69,2.45,0.37,2.98,1.85c-9.09,31.18-1.28,74.24,11.29,78.43c0,10.57-0.62,20.33-2.46,30.08
		c-7.19,0.51-14.06,1.95-21.04,1.85c6.98,0.51,14.06-0.41,20.94-0.31c0.92,4.21,1.33,8.01-0.1,11.81c-1.13,0.82-2.67-0.1-3.8,0.72
		c1.33,0.62,2.67-0.31,4.11,0.62c-0.72,3.59,0.64,7.29,0.1,11.09c-1.95,13.79,0.97,19.54-1.54,23.92c-3,5.24,3.1,6.95,3.49,9.75
		c1.08,7.66,1.26,29.79,2.67,38.5c0.59,3.62-3.39,4.97-5.34,15.19c-2.21,11.62-0.91,22.94,9.14,29.36
		c0.02,0.1-1.88,14.88,2.36,33.47c0.63,2.77,0.82,5.34-0.82,8.11c-19.61,0.82-39.52,1.13-59.44,0.51c-0.9-2.52-3.7-68.41-3.7-2.26
		c-7.83,4.48-6.7,0.07-24.84,1.03c-29.04,1.53-37.89-5.6-40.03-2.16c3.28,2.05,7.08,1.75,10.68,3.28
		c-0.14,8.77,2.36,15.07,2.36,19.91c0.56,9.35-7.84,22.22-8.21,26.69c-1.9,22.49-3.3,11.27,0.31,37.26c7.87,56.68,12.8,55,6.98,58
		c0.69,6.86,3.77,6.92-14.37,4.72c-9.62-1.17-7.3,1.43-18.68,6.67c-2.25,1.04-4.72,1.75-6.16,3.9c1.9,19.05-7.28,9.41,35.93,16.12
		c-1.64,2.57-2.05,5.13-2.36,7.7c3.03,4.45,4.35,1.86,13.96,3.28c4.31,0.64,8.12,1.76,12.52-0.92c3.19-1.94,6.16-3.18,7.39-6.88
		c44.09,0,30.77-1.4,30.39,6.98c1.19,2.68,22.4,11.24,32.03,3.18c2.68-2.25,5.85-4.11,6.98-7.49c3.67-0.32,26.36,0.34,35.93,3.8
		c2.76,1.38,11.63-5.75,12.52-6.26c5.21-3,7.03-6.83,2.36-3.59c-15.09,10.48-12.01,9.31-12.01-0.51
		c-11.39-0.92-22.79-0.31-34.08-1.44c1.03-4.31,5.95-6.57,5.65-11.91c48.83,6.15,44.97-4.23,27.92,12.32
		c5.13-1.75,8.93-5.75,13.55-8.62c0.16,1.02,1.43,8.72,1.75,9.03c3.7-0.25-0.66-4.03,0.51-11.29c-14.88-2.05-29.77-1.33-44.24-3.7
		c-1.64-2.57-2.12-5.26-3.59-7.6c-4.11-6.52-11.02-7.6-13.34-6.06c-0.51,1.03,0.92,1.33,0.21,2.16c-0.82,0.21-1.64,0.41-2.26-0.41
		c-1.3-2.75,14.84-64.46,13.45-74.42c-1.03-7.39-1.27-14.78-2.36-22.17c-0.42-2.87-1.53-5.65-1.75-8.62
		c-0.89-12.53,2.36-24.53,4.62-36.85c6.06-0.72,12.11,0.1,17.66-2.87c-0.51-2.36,0.85-4.42,0.21-6.78
		c-1.38-5.05-2.23-10.17-2.77-15.4c-2.19-21.13-1.61-17.65,3.28-14.88c7.17,4.06,13.1,3.03,22.17,3.49
		c9.12,0.46,13.29-7.54,17.04-13.04C408.88,344.88,399.94,319.36,384.49,315.97z M334.6,57.18c-1.54-1.23-1.75-2.36-2.16-4.11
		C333.78,54.3,334.29,55.33,334.6,57.18z M332.55,64.47c0.62,0.62,0.09,1.09-0.31,0.82C331.54,64.59,332.44,64.57,332.55,64.47z
		 M326.8,51.12c0.72,0.62,0.92,1.44,1.03,2.46C326.8,52.87,326.7,52.05,326.8,51.12z M282.56,81.82
		c-5.54-3.89-4.39-14.47-2.26-14.47c0,2.57,0.15,5.14,0,7.7C280.14,77.61,283.38,79.04,282.56,81.82z M226.51,359.6
		c-1.35,2.25-6.67,5.24-12.11,7.19c-4.09-3.5-8.48,1.75-22.69-10.98c-7.14-6.4-7.61-31.83,3.9-40.24c8.72-6.37,8.4-2.2,12.01-2.36
		c-0.21-0.51-0.31-0.82-0.62-1.44c10.37-1.9,18.19,7.62,24.53,13.76C229.53,331.15,239.56,337.76,226.51,359.6z M236.26,333.42
		c-0.62-1.33-0.41-2.57-0.41-4.62C237.39,330.85,236.16,332.19,236.26,333.42z M329.67,277.06c1.54,0.31,1.13,1.33,1.13,2.36
		C329.57,278.91,329.57,278.09,329.67,277.06z M327.52,277.17c0.82,0.92,0.21,1.64-0.41,2.57
		C326.59,278.5,326.08,277.58,327.52,277.17z M320.13,277.99c-1.23,1.13-2.16,1.54-3.39,0.21
		C317.87,277.37,318.79,277.58,320.13,277.99z M302.68,280.96c-2.16,0.1-2.16-1.23-2.77-2.46
		C302.27,278.4,301.85,279.94,302.68,280.96z M298.06,280.35c-1.75,0.51-2.46,0.1-2.36-1.54
		C297.34,277.99,297.75,278.91,298.06,280.35z M259.56,277.17c0.93,0.93-0.62,1.35-0.62,0.82
		C258.74,277.47,259.05,277.27,259.56,277.17z M255.46,277.17c0.72-0.18,0.93,1.03,0.31,1.03
		C255.01,278.38,255.01,277.17,255.46,277.17z M251.86,279.63c0.41,1.85-0.62,3.49-1.13,5.24
		C251.11,278.4,251.02,279.63,251.86,279.63z M250.72,282.95c0.01,0.44,0.17,1.01-0.12,1.55
		C250.82,283.93,250.71,283.38,250.72,282.95z M245.19,211.57c1.13,1.85,1.78,4,1.85,8.52c0.19,12.94,6.38,58.22-1.44,68.06
		c-3.59,4.52-4.93,9.75-5.34,15.81c-3.49-3.9-7.6-4.52-12.32-2.67c2.06-6.03-1.29-5.67,4.72-29.87c4.98-20.05-3.11-30.2,3.08-40.45
		C247.04,212.26,243.5,212.92,245.19,211.57z M324.23,60.16c-1.33-0.51-1.33-1.54-1.54-2.87C323.93,58,323.82,59.03,324.23,60.16z
		 M323.41,72.68c0.21,2.57-1.13,2.05-2.46,1.33C321.77,73.6,322.49,73.09,323.41,72.68z M319,47.84c0.92,0,1.33,0.51,1.33,1.75
		C319.51,49.17,318.79,48.97,319,47.84z M320.85,60.05c-0.72,0.92-1.64,1.33-2.87,1.95C319.63,55.03,319.43,56.16,320.85,60.05z
		 M320.85,73.91c-0.82,1.23-1.54,2.46-2.57,4.21c-0.51-1.75-1.44-2.87-1.33-4.52C318.38,73.19,319.61,75.04,320.85,73.91z
		 M316.94,88.28c0.92,0.41,0.72,0.92,0.31,1.54C316.84,89.41,316.02,89,316.94,88.28z M313.66,78.12c-0.82-0.92-0.41-1.85-0.41-3.59
		C315.1,76.17,316.02,77.09,313.66,78.12z M313.04,84.07c-0.92-0.72-0.51-1.44,0.21-2.46C313.97,82.74,313.66,83.46,313.04,84.07z
		 M312.94,39.93c1.23,0.62,1.33,1.23,0.21,2.16C311.81,41.47,311.91,40.75,312.94,39.93z M308.12,54.1
		c2.36,3.28,2.36,3.28,1.44,5.34C307.8,57.9,306.04,56.96,308.12,54.1z M307.3,95.16c1.28,1.83-0.22,2.94-0.72,2.46
		C305.37,96.47,305.65,95.67,307.3,95.16z M303.91,40.34c0.1,1.23,1.54,2.77-1.54,3.08C302.68,41.99,302.78,41.06,303.91,40.34z
		 M302.27,94.54c1.23,0.72,1.85,1.13,1.44,2.36C301.96,97.11,302.06,95.98,302.27,94.54z M300.83,40.86c1.13,0.62-0.1,1.13,0,1.64
		C300.11,41.78,299.9,41.27,300.83,40.86z M299.9,60.16c0.72,0.72,0.62,1.13-0.21,1.75C299.08,61.08,299.49,60.67,299.9,60.16z
		 M298.36,39.83c0.82,0.62,0.62,1.03-0.31,1.64C297.54,40.65,297.65,40.24,298.36,39.83z M298.06,54.71
		c-0.62,2.05-1.03,3.59-1.54,5.44C295.39,57.28,295.39,57.28,298.06,54.71z M294.67,99.37c-1.33-0.72-1.33-1.64-1.75-2.77
		C294.77,97.01,295.08,97.73,294.67,99.37z M292.41,43.32c-0.41,0.31-0.72,0.72-0.92,0.62C290.92,43.71,291.51,43.32,292.41,43.32z
		 M292.21,76.17c-0.72,0.1-1.54,0.51-2.26-0.1C290.15,73.81,293.51,72.7,292.21,76.17z M289.54,67.75c0.62-2.36,0-4.93,1.13-7.39
		C292,62.82,291.69,64.88,289.54,67.75z M290.36,33.05c0,2.6-0.31,3.44-0.31,0C290.15,33.05,290.25,33.05,290.36,33.05z
		 M289.54,40.04c0.31,2.16-0.62,3.18-2.16,4C288,42.81,288.72,41.57,289.54,40.04z M283.07,51.43c1.13-2.98,3.59-3.8,5.65-5.03
		C287.07,47.84,285.33,49.38,283.07,51.43z M285.12,75.55c1.64,1.23,1.95,2.67,1.64,4.52C285.84,78.74,284.4,77.71,285.12,75.55z
		 M284.71,85.31c-0.62-0.21-0.41-0.72-0.21-1.13C284.81,84.48,285.22,84.79,284.71,85.31z M284.92,56.87
		c0.21-0.82,0.51-0.92,1.03-0.21C285.74,57.18,285.33,57.08,284.92,56.87z M328.03,116.2c-6.9,16.34-13.56,26.79-28.44,26.79
		c-1.13-1.23,0-3.28-1.64-4.52c-1.03,1.33-0.31,2.77-0.51,4.11c-2.2,2.57-14.42-2.16-17.66-11.7c-2.13-6.29-3.18-14.67-3.49-21.25
		c6.06-1.44,7.29-6.88,9.24-12.01c6.06-2.2,2.42-2.11,5.44,3.18c4.52,0.51,5.95-2.36,6.57-6.06c3.9,1.54,2.36,7.39,8.11,7.6
		c2.98-1.44,4.21-6.47,8.21-8.42c0.98-0.62,2.03,2.63,3.18-0.82c1.33,0.72,2.57,0.72,4-0.21
		C317.83,118.7,331.81,107.25,328.03,116.2z M200.23,577.94c-1.13-2.98-0.92-5.65-0.82-8.62c11.29,1.33,22.17,3.7,33.57,3.8
		c-0.1,2.77,1.64,5.03,0.62,7.9C222.4,579.99,211.31,577.94,200.23,577.94z M260.69,588.62c-9.63,7.07-6.59,2.56-24.23,2.77
		c-3.61,0.04-5.7,0.32-1.13-8.01c3.76-6.85-3.17-4.28,3.7-16.63c-0.1-1.64,0-3.9-2.05-6.16c-5.96,10.13,9.75,15.09-37.37,6.67
		c5.65-2.87,11.09-5.95,16.22-9.34c8.76,0.38,20.77,3.4,23.3,0.51c0.1-1.33,0.21-2.87,0.31-4.21c7.08-1.23,14.78-0.1,20.22-6.47
		c9.01,13.52-7.31,16.83-8.21,17.35c2.79,0,11.81,2.24,13.35-9.75c0.11-0.82,0-1.64,0-2.46c1.75-0.31,3.08,1.44,5.54,0.92
		c0.41,0,0.31-1.33,1.03-2.05c5.65,0,5.95-2.4,7.6,3.7c1.55,5.75-0.73,11.28-5.85,14.27c-2.98,1.74-5.1,4.59-8.32,5.85
		C261.95,576.69,264.41,585.89,260.69,588.62z M281.32,563.26c6.88,0.82,13.55,1.54,20.53,2.36c-1.44,4.11-1.54,7.8-3.8,11.29
		C253.94,571.72,276.76,578.38,281.32,563.26z M265.93,583.38c-0.79-1.97-0.67-7.71,3.08-7.39c30.29,2.59,29.79,0.72,28.44,8.42
		C286.87,584.72,276.5,582.87,265.93,583.38z M370.22,583.59c0.51,2.77,0.72,5.13,0.1,7.8c-11.6-3.39-23.3-3.08-34.8-4.21
		C335.53,580.35,339.85,584.42,370.22,583.59z M327.21,561.41c1.64-2.57,4.11-0.62,6.36-1.64c-1.44-2.05-2.57-4.11-5.44-5.03
		c6.8-1.46,16.67,11.61,12.11,18.79c-3.09,4.86-6.67,9.44-9.24,14.68c-2.67,5.44-7.29,8.11-13.14,8.83
		c-1.58,0.32-1.34-0.14-19.91-4.62c-0.21-0.51-0.21-0.72-0.21-0.72c2.77-4,2.4-8.82,3.49-13.24c0.85-3.48,2.26-6.78,2.46-10.47
		c2.67-0.31,4.72,2.26,7.6,0.82c-1.75-2.67-5.03-2.26-7.19-4.31c1.03-1.85-0.41-4.11,0.31-6.67c3.22,2.6,7.6,8.73,16.84-0.51
		c3.8,5.95,5.44,11.7-1.54,16.53C326.42,574.88,327.66,566.31,327.21,561.41z M334.6,418.83c-5.65,30.2-1.44,29.71,0.72,65.49
		c0.27,4.55-13.6,68.52-13.96,69.8c-1.81,6.43-15.34,7.9-15.09,0.92c0.38-10.48-3.25-17.61-2.36-34.29
		c0.24-4.52-0.41-9.14-3.7-13.65c2.26,1.13,2.67,3.7,5.13,3.28c-10.38-15.41-9.77-11.55-10.47-26.69
		c-0.21-4.66,7.9-26.31,8.52-43.73c0.24-6.79-2.77-5.61-2.77-18.38c-0.7-9.13-2.75-6.96-2.46-6.67c1.64,6.26,1,12.84,2.36,19.2
		c3.11,14.49-4.21,24.89-4.21,33.05c0,3.08-3.89,11.37-3.59,13.14c1.73,32.14,8.77,25.26,8.73,36.03
		c-0.05,11.7,1.13,23.41,3.18,35.21c-5.78,0.8-2.03,8.71-3.28,11.91c-6.47,0.31-12.52-1.95-19.09-1.95
		c-0.83-6.63-0.67-13.51-8.73-12.42c-4.14,0.56-6.11-2.83-10.98-0.1c-0.72-6.78-4.89-12.21-4.72-18.89
		c0.49-20.11,16.98-52.56,12.42-88.18c-0.18-1.44,0.51-2.98,0.82-4.72c5.65-1.65,3.93-14.58,7.19-22.38c0.3-0.72-0.1-1.33-0.92-1.95
		c-5.85,8.1-2.64,12.95-7.39,22.28c-4.81,9.44-1.67,22.07-2.57,28.74c-5.46,40.8-15.5,60.3-9.03,80.79
		c-0.51,2.05-2.16,3.39-4.31,4.82c-0.72-3.49,0-6.88-0.51-10.16c-0.92,3.8-2.77,7.39-1.64,11.7c-3.39,0.62-6.57,1.03-10.06,0.41
		c-2.08-21.73-18.72-78.57-8.11-99.47c11.56-22.76,4.72-26.67,5.13-40.65c26.69,0.82,53.17,1.95,79.86,3.18
		c1.95,2.36,2.57,5.54,4,8.32c0-2.77,0.41-5.65-1.23-8.62C339.96,413.05,335.86,412.12,334.6,418.83z M332.14,159.01
		c2.67-3.18,6.26-5.24,7.9-9.03c-1.75,1.64-5.03,1.13-5.85,4.41c-0.82-1.03-1.64-1.75-2.57-1.85c0.32-8.56,1.27-38.3,6.67-31.93
		c2.85,3.36,20.22,10.66,29.36,17.25c4.97,3.58,6.18,25.87,6.16,25.97c-1.03,8.11,1.43,15.81,2.26,23.71
		c2.36,22.44-9.43,29-1.23,41.88c4.35,6.83,1.21,11.74,5.65,23.71c1.03,2.78-0.71,44.43-1.13,47.53c-0.64,4.72,0.21,9.44,2.05,14.17
		c-3.9-0.31-7.39-2.26-11.5-2.36c-1.95-4.21-4.41-8.01-5.13-12.83c-0.51-3.39-3.3-6.36-4.11-9.75c-1.77-7.39-5.92-13.66-8.31-20.74
		c-3.53-10.43-2.43-31.97-3.08-35.21c-2.98-7.7-0.82-15.71-1.95-23.51c-1.89-12.99,4.2-29.92,3.8-40.45
		c-3.18,7.08-2.98,15.19-6.06,22.58C335.59,186.25,334.04,174.23,332.14,159.01z M344.87,226.76c0.62,0.51,1.33,0.92,0.72,1.75
		C344.15,228.4,345.07,227.28,344.87,226.76z M346.1,233.33c0.82,1.75,0.72,3.49,0.41,5.13
		C345.01,238.46,345.75,239.18,346.1,233.33z M345.69,283.43c-3.99-4.52-0.54-7.81-1.13-14.68c-0.3-3.56,0.6-23.98,1.85-27.1
		c2.42,5.19-1.38,5.95,3.49,27.82c2.03,9.12,11.86,25.06,15.91,40.55c0.31,0.92,0.92,1.75,1.85,2.87c-3.49,0-5.95,2.05-9.03,1.75
		c-1.38-0.14-6.03,5.75-8.93,9.34c-1.29-0.65-1.31,0.9-1.64-17.86C347.72,287.37,348.99,287.17,345.69,283.43z M385.21,372.63
		c-4.9,3.81-18.27,2.01-24.02-0.41c-5.85-2.47-5.45-4.37-9.14-6.57c-17.89-10.68-7.14-47.43,19.61-50.92
		c0.88-0.11,27.96,2.55,27.72,29.87C399.27,356.21,394.28,365.59,385.21,372.63z"/>
	<path d="M558.8,565.21c2.57-0.51,5.65-0.2,6.47-3.7c0.62-2.67-1.44-3.59-3.39-4.52c4.33-6.84-3.64-8.67-6.06-4.62
		c-1.34,2.25-0.41,4,2.98,5.85C556.23,560.49,557.46,562.85,558.8,565.21z M563.62,560.28c0.21,1.33-0.51,2.16-1.95,2.67
		c-0.31-1.33-1.23-1.75-2.77-0.82C560.13,558.74,561.06,558.44,563.62,560.28z M558.69,555.97c-2.05,0-2.75-3,0.92-4
		C562.94,552.52,562.13,555.97,558.69,555.97z"/>
	<path d="M624.6,385.98c-0.77,4.63,1.44,9.22,1.44,14.68c0,2.05,1.64,3.49,4.31,4.82C624.81,393.37,629.9,385.73,624.6,385.98z"/>
	<path d="M605.5,344.2c0,10.68,15.3,24.23,25.77,24.12C623.25,366.72,612.35,360.25,605.5,344.2z"/>
	<path d="M655.7,272.24c1.54,3.39,1.23,7.19,2.77,10.68c0.95-20.95,0.4-17.88-5.24-26.79c-0.4-0.63-1.23-0.62-1.85-0.92
		c1.93,5.5,5.85,5.32,5.85,15.09C657.24,271.52,656.63,271.72,655.7,272.24z"/>
	<path d="M343.94,311.66c0-18.34,1.55-19.08-6.26-27.41c0-0.1-0.41,0.21-0.62,0.31c2.87,5.03,7.8,9.75,4.21,16.94
		C342.71,304.37,342.3,308.17,343.94,311.66z"/>
	<path d="M290.77,373.66c-1.19,1.78,2.88,8.71,5.34,11.5c11.76,13.31,19.72,10.88,17.45,10.88
		C293.1,387.86,293.21,373.66,290.77,373.66z"/>
	<path d="M572.66,414.72c2.13-1.31-0.81-5.33,0.72-11.19c0.67-2.58,0-4.41-1.64-6.88C569.47,403.12,571.53,408.77,572.66,414.72z"/>
	<path d="M626.45,449.32c0.41,6.57,2.98,12.63,5.44,18.79C634.41,460.53,633.91,470.48,626.45,449.32z"/>
	<path d="M593.19,362.98c2.36-4.52,6.16-23.61,5.44-28.23C596.88,344.2,595.03,353.54,593.19,362.98z"/>
	<path d="M278.55,391.62c3.18-9.14,4.93-18.58,6.26-28.02C283.58,363.19,284.61,360.65,278.55,391.62z"/>
	<path d="M600.68,315.15c-3.18-7.7-6.98-15.19-8.01-23.51C592.16,300.57,595.86,308.06,600.68,315.15z"/>
	<path d="M286.15,343.58c-3.59-7.6-7.19-15.19-8.11-23.71C277.01,326.64,280.71,337.42,286.15,343.58z"/>
	<path d="M661.25,350.97c2.58,22.36,8.74,33.64,2.77,11.29C663.03,358.56,663.5,354.36,661.25,350.97z"/>
	<path d="M554.28,550.02c1.44-0.92,2.56-1.53,4.21-1.23c3.32,0.6,3.37-4.39,1.33-6.06c-2.16,0.82-4.52,1.13-6.78,2.36
		c0.82,1.64,2.36-0.1,2.67,1.33C555.51,547.66,553.77,548.17,554.28,550.02z M558.9,544.78c1.81,1.45-0.04,3.23-0.92,2.05
		C557.26,545.71,557.57,544.99,558.9,544.78z"/>
	<path d="M346.3,379.51c1.03,7.7,1.95,15.3,5.24,22.38C346.82,377.29,347.61,379.08,346.3,379.51z"/>
	<path d="M272.8,362.88c-4.31-4.21-9.55-7.29-13.45-11.7C260.9,355.9,269.52,363.5,272.8,362.88z"/>
	<path d="M574.09,322.64c1.64,4.62,9.55,11.7,13.76,12.01C583.13,330.13,577.99,327.06,574.09,322.64z"/>
	<path d="M548.53,138.38c-0.51-5.13-3.7-9.14-4.72-13.96C543.09,129.55,545.66,137.04,548.53,138.38z"/>
	<path d="M643.23,458.83c0.16-0.05,0.31-0.11,0.46-0.14C643.56,458.63,643.4,458.69,643.23,458.83z"/>
	<path d="M634.15,468.31c4.81-1,7.66-8.28,9.09-9.47C639.58,460.08,633.95,465.58,634.15,468.31z"/>
	<path d="M649.75,448.7c0.62-0.92,0.72-2.87-1.23-4.62c0.73,8.05-7.01,12.47-4.79,14.6c-0.01,0-0.02,0.01-0.03,0.01
		c0.04,0.02,0.07,0.04,0.1,0.07C648.11,456.71,647.6,451.89,649.75,448.7z"/>
	<path d="M234,166.81c-0.92-5.03-3.59-9.14-4.62-13.65C227.49,153.16,230.06,165.4,234,166.81z"/>
	<path d="M223.32,211.06c0.62-0.41,1.23-0.72,1.33-1.44c-2.57-2.98-2.46-6.98-4-10.47C219.42,201.61,221.68,210.75,223.32,211.06z"
		/>
	<path d="M535.08,170.82c-1.64,4.52,1.44,7.9,2.77,11.7c0.72-0.31,1.23-0.72,1.54-1.54C536.62,178.1,536.83,174.1,535.08,170.82z"/>
	<path d="M572.66,464.3c4.16-2.08-0.68-4.95-4.11-7.19C568.55,461.44,567.73,460.13,572.66,464.3z"/>
	<path d="M639.79,402.81c3.39-4.82-0.51-8.93,0.21-13.14C639.07,392.14,639.07,400.66,639.79,402.81z"/>
	<path d="M294.67,361.03c5.75,0,10.27-2.67,14.27-6.26C304.32,357.24,299.49,359.08,294.67,361.03z"/>
	<path d="M646.36,257.46c-0.62,3.39,1.03,8.93,2.77,10.47C647.8,264.54,649.85,260.23,646.36,257.46z"/>
	<path d="M609.51,332.6c5.44-0.51,10.27-2.36,14.17-6.36C618.85,328.18,614.33,330.65,609.51,332.6z"/>
	<path d="M330.8,286.2c0.72,3.7,1.54,7.19,3.08,10.47C334.29,288.66,333.78,287.02,330.8,286.2z"/>
	<path d="M562.7,445.62c0.41,8.21,1.75,11.09,5.44,12.01C564.75,453.94,564.24,449.52,562.7,445.62z"/>
	<path d="M636.71,201.71c5.34,0.51,10.68,1.13,15.91,0C647.28,201.71,642.05,201.71,636.71,201.71z"/>
	<path d="M601.71,246.37c-4.21-2.67-8.42-5.24-13.24-6.47C593.19,241.24,596.78,245.24,601.71,246.37z"/>
	<path d="M337.78,230.15c-5.54,0-10.98,0-16.53,0C326.8,230.87,332.24,231.48,337.78,230.15z"/>
	<path d="M598.11,257.15c-2.93,0-2.21,9.34-2.16,11.6C596.68,264.85,597.4,261.05,598.11,257.15z"/>
	<path d="M563.31,399.53c-0.41,3.08-0.62,5.75-1.03,9.24C565.16,406.1,565.47,402.81,563.31,399.53z"/>
	<path d="M561.98,457.12c-1.23,0.51-1.64,2.05-2.98,2.36c-1.13-1.85-1.44-2.05-4-2.26c0.92,1.44,2.57,2.05,3.18,3.49
		C562.6,460.3,563.42,459.38,561.98,457.12z"/>
	<path d="M282.66,285.58c-2.16,3.7-1.44,7.9-1.44,12.01C283.55,284.64,283.67,285.58,282.66,285.58z"/>
	<path d="M650.78,173.9c-3.7-1.85-7.08-3.59-10.47-5.34C644.62,172.77,647.7,174.31,650.78,173.9z"/>
	<path d="M556.03,489.86c0.91,2.73,0.67,11.21,3.18,9.96C556.77,488.32,557.11,489.5,556.03,489.86z"/>
	<path d="M326.18,197.4c4.21,4.21,7.08,5.54,9.85,5.03C332.65,200.69,329.37,199.05,326.18,197.4z"/>
	<path d="M551.92,149.36c-0.41,2.87,0.31,5.34,2.67,7.19C553.66,154.08,553.87,151.31,551.92,149.36z"/>
	<path d="M218.19,198.84c-0.51-2.67,0.31-5.44-1.44-7.9C215.42,193.91,216.96,196.38,218.19,198.84z"/>
	<path d="M531.29,161.89c-1.23,2.98,0,4.93,1.13,6.98C532.21,166.71,533.44,164.25,531.29,161.89z"/>
	<path d="M629.42,415.44c1.33-2.87-2.05-5.24-0.41-8.01C626.65,409.59,626.65,409.59,629.42,415.44z"/>
	<path d="M286.76,275.11c0.41-0.82,1.45-0.03-8.62-5.24C280.81,271.93,283.27,274.5,286.76,275.11z"/>
	<path d="M237.18,178c-0.1,2.67,0.1,5.24,2.67,6.88C239.13,182.52,239.13,179.85,237.18,178z"/>
	<path d="M561.77,442.54c0.31-2.16,0.21-4.31-0.72-6.36C559.93,438.43,560.85,440.49,561.77,442.54z"/>
	<path d="M214.39,263.41c1.95-1.95,3.8-3.9,5.75-5.95C217.88,259.2,215.42,260.64,214.39,263.41z"/>
	<path d="M331.01,270.18c-0.31-2.26-0.62-4.11-0.82-5.95C329.67,268.03,329.67,268.03,331.01,270.18z"/>
	<path d="M231.84,146.28c-1.76,6.75-1.88,5.74-0.62,6.16C232.87,150.9,232.36,148.85,231.84,146.28z"/>
	<path d="M248.99,146.18c-3.28-2.16-3.49-2.16-5.13-1.13C245.29,145.87,246.63,147.1,248.99,146.18z"/>
	<path d="M546.38,118.57c-0.62,2.16-1.33,3.59-1.03,5.65C547.09,121.95,547.09,121.95,546.38,118.57z"/>
	<path d="M563.52,117.74c-1.54-1.75-3.08-2.16-5.34-1.85C559.72,117.33,561.06,118.26,563.52,117.74z"/>
	<path d="M645.64,241.44c-0.31-1.95-0.51-3.8-0.82-5.75C644.51,237.64,644.1,239.59,645.64,241.44z"/>
	<path d="M654.47,211.06c-6.39,0.35-5.75,0.25-5.75,0.41C655.34,211.47,654.47,211.6,654.47,211.06z"/>
	<path d="M316.94,281.68c-0.31,2.36-0.41,3.8,0.51,5.24C316.84,285.58,318.69,283.84,316.94,281.68z"/>
	<path d="M650.36,443.26c1.44-2.46,0.82-3.7-0.82-5.13C649.24,439.97,649.85,441.21,650.36,443.26z"/>
	<path d="M266.44,242.47c7.27,0,5.52-0.1,0-0.1V242.47z"/>
	<path d="M641.64,199.05c-2.16-0.21-4.31-0.1-6.57,0.21C637.33,199.46,639.48,199.56,641.64,199.05z"/>
	<path d="M631.68,253.86c-0.41,1.54-0.62,3.08,0.51,5.24C632.74,253.34,633.1,253.86,631.68,253.86z"/>
	<path d="M566.6,222.14c2.26,1.23,4.11,0.82,5.75,1.13C570.81,222.14,569.06,222.04,566.6,222.14z"/>
	<path d="M212.65,266.8c0.82-1.03,1.64-2.05,1.75-3.39C212.96,264.13,212.75,265.46,212.65,266.8z"/>
	<path d="M561.57,393.78c-0.51,1.23-0.72,2.05,0,3.08C562.6,395.94,562.7,395.11,561.57,393.78z"/>
	<path d="M589.49,214.14c-4.04,0-3,0.1,0,0.1V214.14z"/>
	<path d="M648.82,435.05c0.82-1.23,1.23-2.05-0.1-3.28C648.72,432.99,648.21,434.02,648.82,435.05z"/>
	<path d="M308.32,193.19c-0.31-0.72-1.03-0.92-2.16-1.33C306.88,192.99,307.3,193.71,308.32,193.19z"/>
	<path d="M265.21,151c-0.21,1.13-0.31,1.85-0.51,2.67C265.52,152.95,265.62,152.24,265.21,151z"/>
	<path d="M628.5,467.38c-0.1-1.13-0.62-1.54-1.44-1.54C627.16,466.77,627.37,467.28,628.5,467.38z"/>
	<path d="M572.24,223.27c1.03,0.21,2.05,0.62,3.28,0c-1.06,0-2.12,0-3.18,0C572.31,223.27,572.28,223.27,572.24,223.27z"/>
	<path d="M570.19,209.62c0.72-0.1,1.23-0.21,1.75-0.21C571.42,209.31,570.81,208.8,570.19,209.62z"/>
	<path d="M554.18,481.75c0.41,1.03,0.62,1.54,1.03,2.46C555.31,483.09,555.41,482.58,554.18,481.75z"/>
	<path d="M258.74,251.6c-1.03-0.1-1.95-0.21-2.98-0.31C256.58,252.22,257.61,251.91,258.74,251.6z"/>
	<path d="M529.54,234.05c-0.82,0.51-1.23,1.03-1.23,1.85c-0.78,0.78-1.41,1.5-0.82,2.77c1.38-2.07,0.88-2.72,1.03-2.57
		C529.23,235.69,529.64,235.08,529.54,234.05z"/>
	<path d="M313.97,396.55c0.72,0.72,1.75,0.72,2.77,0.82C316.02,396.45,314.99,396.45,313.97,396.55z"/>
	<path d="M568.04,500.23c-1.23,0.62-1.23,1.54-1.23,2.46C567.73,502.18,568.55,501.67,568.04,500.23z"/>
	<path d="M642.56,495.82c0.21-0.92,1.33-1.64,0.51-2.87C642.05,493.76,641.74,494.69,642.56,495.82z"/>
	<path d="M629.42,504.65c1.19,0.6,1.16-1.21,0.31-1.85C629.12,503.31,629.32,504.03,629.42,504.65z"/>
	<path d="M626.96,469.85c-0.31-1.13-0.82-1.54-1.75-2.05C625.32,469.03,625.62,469.64,626.96,469.85z"/>
	<path d="M273.52,268.44c0.41,0.51,0.82,0.72,1.44,0.31C274.45,268.54,274.14,267.82,273.52,268.44z"/>
	<path d="M252.48,250.99c1.23,0.51,2.26,0.62,3.28,0.31C254.84,250.48,253.81,250.48,252.48,250.99z"/>
	<path d="M560.54,278.19c0.62-0.62,0.62-1.13,0.21-1.75C559.93,277.06,560.03,277.58,560.54,278.19z"/>
	<path d="M245.6,310.22c0-1.18,0-1.98,0-2.77c0.82-0.72,1.33-1.44,0.1-2.36c-0.49,0.79-0.23,1.59-0.11,2.29
		C245.28,308.19,244.99,309.01,245.6,310.22z"/>
	<path d="M622.75,164.45c-0.31-0.31-0.72-0.62-1.03-0.82C621.72,164.45,621.93,164.96,622.75,164.45z"/>
	<path d="M571.83,393.68c-0.38-0.38-1.25,1.33,0.41,1.33C572.55,394.5,572.66,393.99,571.83,393.68z"/>
	<path d="M574.91,389.06c-0.72,0.51-1.13,0.92-0.51,1.75C574.61,390.29,575.22,390.08,574.91,389.06z"/>
	<path d="M625.73,444.29c-0.1-0.41-0.32-1.14-0.82-0.41C624.5,444.46,625.73,445.53,625.73,444.29z"/>
	<path d="M312.53,352.72c0.51,0,0.72-0.21,0.72-0.72C312.84,352,312.53,352.21,312.53,352.72z"/>
	<path d="M625.11,325.1c-0.72,0.51-1.33,0.51-1.44,1.23C624.39,326.23,624.91,326.13,625.11,325.1z"/>
	<path d="M560.23,281.37c0-0.41,0-0.72,0-1.13C559.82,280.66,559.82,280.96,560.23,281.37z"/>
	<path d="M644.51,486.99c0.31-0.41,0.51-0.82-0.1-1.03C644.51,486.37,644.51,486.68,644.51,486.99z"/>
	<path d="M221.89,255.61c0.28,0,1.2-0.72,0.41-0.72C222.09,254.89,221.78,255.2,221.89,255.61z"/>
	<path d="M255.46,238.16c0.21,0.1,0.41,0.1,0.62,0.1C255.87,238.05,255.56,237.75,255.46,238.16z"/>
	<path d="M323.41,196.07c-0.31-0.21-0.41-0.72-1.03-0.41C322.69,195.86,322.8,196.38,323.41,196.07z"/>
	<path d="M680.54,237.23c8.01,8.42,6.98,20.02,11.19,29.77C690.24,258.06,688.19,241.9,680.54,237.23z"/>
	<path d="M676.75,183.65c0-8.26-2.04-1.13-4.21-12.93c-0.21-1.13,0-2.57-1.44-3.8C668.84,174.2,674.08,178.52,676.75,183.65z"/>
	<path d="M671.72,105.73c-2.77-2.46-7.7-3.18-10.37-1.44C664.94,104.09,668.02,106.04,671.72,105.73z"/>
	<path d="M684.14,189.4c-2.16-1.75-1.75-4.82-3.8-7.29C680.44,185.6,681.26,188.06,684.14,189.4z"/>
	<path d="M680.03,210.34c-2.26-1.54-3.49,0.51-5.03,1.03C676.64,211.47,678.49,212.29,680.03,210.34z"/>
	<path d="M674.59,228.1c-1.13-1.95-2.26-3.9-3.39-5.85C671.1,225.02,672.33,226.86,674.59,228.1z"/>
	<path d="M660.22,120.31c-1.85,0.31-2.98,0.82-3.8,2.36C658.58,123.39,659.5,122.36,660.22,120.31z"/>
	<path d="M666.58,139.92c1.54-1.23,1.75-2.26,1.64-3.8C667.1,137.15,666.58,138.07,666.58,139.92z"/>
	<path d="M668.94,133.35c1.13-0.62,1.85-1.54,1.54-3.18C669.46,131.09,668.84,132.01,668.94,133.35z"/>
	<path d="M685.37,309.19c-8.4-0.35-11.42,12.3,1.23,12.42C693.44,321.68,693.71,309.55,685.37,309.19z M683.83,319.56
		c-3.02,0-5.12-6.57,0-6.57C689.8,315.29,686.32,319.56,683.83,319.56z"/>
	<path d="M514.86,308.47c4.11-1.03,4.62-0.92,7.19,2.16c0.1,1.33-0.72,2.36-1.54,3.28c-4.2,0.1-5.74-1.43-5.65-5.41
		c-4.61,1.27-2.09,5.69,1.75,7.05c3.18,1.13,6.06-0.21,8.93-1.33c-0.23-2.74,0.98-3.12,1.03-3.7c0.59,2.02-0.56,3.31-0.31,3.7
		c0.41-0.41,1.03-0.72,1.33-1.13C532,307.21,517.9,297.7,514.86,308.47z"/>
	<path d="M545.76,313.61c0.31-4,1.13-8.01-1.44-11.5C545.35,305.91,544.63,309.91,545.76,313.61z"/>
	<path d="M527.9,285.79c3.18,1.44,5.54,3.28,8.31,5.34C533.34,287.02,531.39,285.79,527.9,285.79z"/>
	<path d="M544.22,299.85c-0.21-2.87-1.85-4.72-3.59-6.57C539.89,294.02,539.21,292.69,544.22,299.85z"/>
	<path d="M537.75,331.78c1.03-0.62,1.44-1.23,1.95-2.57C538.57,330.13,538.06,330.65,537.75,331.78z"/>
	<path d="M545.04,318.33c0.31-0.41,0.41-0.72,0-1.13C545.04,317.61,545.04,317.92,545.04,318.33z"/>
	<path d="M618.23,94.65c4.21-0.62,6.98-3.08,10.68-4.93C623.88,89,619.77,90.85,618.23,94.65z"/>
	<path d="M640.72,88.49c-3.7-0.51-7.39-1.03-10.37,2.16C633.94,90.64,637.02,88.18,640.72,88.49z"/>
	<path d="M613.41,76.48c-1.54,2.05-1.33,4.11,0.1,7.08C613.92,80.69,614.03,78.53,613.41,76.48z"/>
	<path d="M603.55,90.03c-1.64-1.85-3.49-1.95-5.54-1.85C599.35,89.62,600.99,90.64,603.55,90.03z"/>
	<path d="M614.23,68.37c-1.54,2.16-1.23,4.31-1.54,6.26C613.82,72.88,615.05,71.24,614.23,68.37z"/>
	<path d="M613.2,89.41c0-1.23,0-2.57,0-4.31C611.05,86.64,611.77,88.08,613.2,89.41z"/>
	<path d="M633.02,540.16c-7.45-2.27-10.91-6.63-15.71-2.36c2.78,1.39,5.6-2.2,13.34,5.54c3.21,3.21,4.03,4.38,4.52,2.67
		c-0.11-0.09-2.99-3.49-3.08-3.59c2.72,0.91,1.27,0.52,9.34,17.04c2.46,6.32,2.07,9.85,7.19,9.85c-1.23-1.75-3.28-2.16-3.59-3.8
		c-0.31-1.64-0.81-3.08-1.44-4.62C635.73,541.62,635.9,541.04,633.02,540.16z"/>
	<path d="M240.57,439.26c-0.92,4.62-2.98,9.14-2.57,14.06c3.39-5.24,5.34-12.32,4.21-14.99
		C241.49,438.33,240.67,438.54,240.57,439.26z"/>
	<path d="M323.21,443.77c4.21,5.85,5.75,12.83,8.83,19.09C332.34,456.91,326.29,443.88,323.21,443.77z"/>
	<path d="M321.87,424.06c-0.82,2.36-0.62,8.42,0.41,12.01C324.03,432.38,323.82,425.6,321.87,424.06z"/>
	<path d="M256.07,426.42c-0.51,3.8-0.51,7.08-0.31,10.68C258.53,434.12,258.74,429.61,256.07,426.42z"/>
	<path d="M248.99,436.38c3.08-2.87,1.85-6.47,1.23-9.85C249.6,429.71,247.96,432.89,248.99,436.38z"/>
	<path d="M318.79,440.18c0.31,2.67,1.23,4.11,3.39,4.52C321.87,442.95,321.26,441.31,318.79,440.18z"/>
	<path d="M319.31,555.36c0.82-4,0.82-5.13-0.41-6.88C318.18,551.97,318.18,552.28,319.31,555.36z"/>
	<path d="M236.26,462.25c-1.64,2.77-1.64,3.8-0.1,5.65C236.67,465.95,236.36,464.1,236.26,462.25z"/>
	<path d="M319.31,526.82c-0.92,3.59-1.03,6.47-0.62,9.44C318.28,533.39,319.92,530.62,319.31,526.82z"/>
	<path d="M310.48,433.2c0.31-2.67-0.1-4.31-1.44-5.75C309.25,429.2,307.91,431.25,310.48,433.2z"/>
	<path d="M258.53,445.11c0.41-2.26-0.31-3.7-1.33-5.13C256.79,441.62,257.2,443.16,258.53,445.11z"/>
	<path d="M253.2,532.16c1.95-1.85,1.13-4.11,1.13-6.16C252.48,527.74,253.61,530.1,253.2,532.16z"/>
	<path d="M249.6,420.78c0.31-1.23,0.1-2.46-1.23-3.49C248.68,420.97,248.46,421.16,249.6,420.78z"/>
	<path d="M254.43,526c0.72-1.54,1.64-3.08,0.51-4.82C254.22,522.71,253.71,524.25,254.43,526z"/>
	<path d="M237.8,493.25c-0.31,0.41-0.31,0.72,0.1,1.44C238.31,494.07,238.41,493.56,237.8,493.25z"/>
	<path d="M237.49,484.42c-0.92,1.33-0.92,2.16-0.1,3.18C238.11,486.58,238,485.66,237.49,484.42z"/>
	<path d="M263.87,419.55c1.33-0.82,1.44-1.75,1.54-2.98C264.39,417.29,263.77,417.9,263.87,419.55z"/>
	<path d="M304.52,504.85c0.41,1.64,0.62,2.57,2.26,2.57C306.58,506.19,306.17,505.47,304.52,504.85z"/>
	<path d="M236.26,474.67c-0.92,0.82-0.62,1.54-0.21,2.46C237.08,476.31,237.29,475.6,236.26,474.67z"/>
	<path d="M256.89,425.5c0.21-0.82,0.82-1.54-0.31-2.16C256.07,424.06,255.66,424.78,256.89,425.5z"/>
	<path d="M316.02,504.03c-0.72,0.92-0.1,1.33,0.62,1.75C317.05,504.95,317.05,504.34,316.02,504.03z"/>
	<path d="M256.79,515.12c0.31-0.41,0.51-0.82,0.1-1.23C256.38,514.3,256.28,514.6,256.79,515.12z"/>
	<path d="M365.91,265.77c5.32,6.94,5.27,7.17,8.52,20.94c2.64,11.19,4.9,17.29,0.62-2.05C373.15,276.08,371.75,269.57,365.91,265.77
		z"/>
	<path d="M362.42,212.6c-1.99-10.96-2.85-1.62-4.41-12.11c-0.24-1.64-0.21-3.28-1.13-4.82C354.62,199.76,356.77,206.44,362.42,212.6
		z"/>
	<path d="M357.49,134.27c-3.59-2.77-7.08-2.46-10.68-1.64C354.53,133.99,355.07,134.8,357.49,134.27z"/>
	<path d="M369.4,217.83c-2.36-1.54-1.54-4.93-3.8-7.19C365.91,214.03,366.42,216.5,369.4,217.83z"/>
	<path d="M365.6,239.08c-2.87-0.82-2.87-0.82-5.65,1.33C362.01,240.21,363.65,240.52,365.6,239.08z"/>
	<path d="M341.79,151.31c2.57,0,2.57,0,3.59-3.08C343.84,149.46,342.3,149.57,341.79,151.31z"/>
	<path d="M359.03,255.51c-0.92-1.75-1.64-3.18-2.36-4.62C356.67,253.76,356.67,253.76,359.03,255.51z"/>
	<path d="M353.39,165.07c-1.23,0.72-1.44,1.64-1.13,2.77C353.18,167.22,353.8,166.4,353.39,165.07z"/>
	<path d="M354,162.3c1.64-0.82,1.85-1.95,1.85-3.28C354.72,159.73,354,160.55,354,162.3z"/>
	<path d="M359.65,256.94c0.21,0.41,0.41,0.62,0.82,1.03C360.47,257.25,360.47,256.84,359.65,256.94z"/>
	<path d="M353.49,208.49c-0.31,0.21-0.31,0.51,0.1,1.33C353.9,209,354.31,208.59,353.49,208.49z"/>
	<path d="M370.53,337.63c-8.02-0.11-11.26,12.19,1.44,12.52C378.9,350.33,378.97,337.75,370.53,337.63z M371.97,346.35
		c-1.85,3.09-7.25,2.09-5.24-4.21C369.84,340.59,373.5,342.97,371.97,346.35z"/>
	<path d="M209.67,333.21c-2.76-1.65-4.62-2.39-9.85,3.08c-3.37,3.52-1.86,6.2,2.16,7.7c2.98,1.11,5.54-0.32,8.32-0.82
		C214.23,342.46,215.68,336.81,209.67,333.21z M205.46,342.76c-3.9-0.51-4.93-1.54-5.24-5.03c0.85-0.85,0.83-0.54,2.77-1.64
		C208.13,338.24,208.44,339.17,205.46,342.76z M211.21,342.15c-0.51-1.13-0.1-1.95,0.72-2.77
		C212.34,340.5,212.24,341.43,211.21,342.15z"/>
	<path d="M231.13,341.94c0.31-3.9,0.92-7.8-1.54-11.39C230.82,334.24,229.79,338.24,231.13,341.94z"/>
	<path d="M225.58,322.13c0.92,2.46,2.87,4.21,4.11,6.36C229.28,325.72,227.94,323.67,225.58,322.13z"/>
	<path d="M214.19,313.81c-0.3,0.89-1.46-0.06,4.93,3.7C217.99,315.35,216.34,314.22,214.19,313.81z"/>
	<path d="M230.51,347.07c0-0.26,0-0.48,0-0.62C230.41,346.15,230,346.56,230.51,347.07z"/>
	<path d="M222.4,361.03c0.62,0,0.92-0.41,0.92-1.13C223.02,360.11,222.3,360.31,222.4,361.03z"/>
	<path d="M224.76,358.36c0.31-0.21,0.51-0.51,0.72-0.82C224.86,357.44,224.66,357.75,224.76,358.36z"/>
	<path d="M303.29,123.18c4.41-0.31,7.08-3.39,10.47-4.72C309.76,117.44,305.45,119.28,303.29,123.18z"/>
	<path d="M315.2,119.8c4-0.41,6.98-3.18,10.78-2.36C323,115.59,317.56,116.72,315.2,119.8z"/>
	<path d="M298.57,111.28c0.72-2.05,0.72-4.11,0.1-6.26C297.13,107.07,297.44,109.22,298.57,111.28z"/>
	<path d="M282.35,116.82c1.95,1.23,3.8,2.05,5.95,1.95C286.35,116.61,285.43,116.41,282.35,116.82z"/>
	<path d="M297.95,103.37c1.13-1.75,2.26-3.49,1.54-5.75C297.95,99.37,298.16,101.42,297.95,103.37z"/>
	<path d="M298.16,118.36c0.92-1.54,0.41-2.77,0.41-4.72C296.41,115.49,297.13,116.72,298.16,118.36z"/>
	<path d="M249.3,561.11c-3.08-0.62-9.03-0.21-10.57,0.92c4.45,3.18,7.13-1.19,9.75,3.28c0.6,1.03,2.16,2.46,2.98-0.21
		C249.71,564.29,250.12,562.23,249.3,561.11z"/>
	<path d="M315.41,570.86c-0.21-1.03,1.22-2.34-0.41-3.39c-0.93-0.6-1.54-0.1-2.16,0.51c0.51,5.24,1.33,6.26,4.82,5.54
		C317.46,572.29,316.12,572.19,315.41,570.86z"/>
<path fill="#e6e6e6" d="m206.8 163.6c0-5.1 4.1-9.2 9.3-9.2s9.2 4.2 9.2 9.2-4.1 9.2-9.3 9.2-9.2-4.1-9.2-9.2zm17.3-.1c0-4.5-3.5-8.2-8.2-8.2s-8.2 3.7-8.2 8.3c0 4.5 3.5 8.2 8.2 8.2s8.2-3.7 8.2-8.3zm-13 0c0-2.8 2.1-5.1 5.1-5.1 1.9 0 2.9.6 3.9 1.5l-1.4 1.7c-.8-.7-1.5-1.1-2.5-1.1-1.7 0-2.8 1.4-2.8 3.1s1.1 3 2.8 3c1.1 0 1.7-.5 2.5-1.1l1.4 1.4c-1.1 1.1-2.1 1.7-4 1.7-2.9 0-5-2.3-5-5.1z"/><path fill="#e6e6e6" d="m226.6 154.7h3.4l4.2 13.2 4.4-13.3h2.6l4.4 13.3 4.2-13.2h3.3l-6.2 18h-2.7l-4.4-12.8-4.4 12.8h-2.7z"/><path fill="#e6e6e6" d="m252.8 165.8c0-3.9 3.1-7 7.2-7 4.2 0 7.2 3.2 7.2 7s-3.1 7-7.3 7c-4 0-7.1-3.1-7.1-7zm11.3 0c0-2.3-1.7-4.3-4.2-4.3s-4.1 2-4.1 4.3 1.7 4.3 4.1 4.3c2.7.1 4.2-1.9 4.2-4.3z"/><path fill="#e6e6e6" d="m269.5 159.1h3.1v3c.8-2 2.4-3.4 4.8-3.3v3.2h-.2c-2.7 0-4.6 1.7-4.6 5.4v5.1h-3.1z"/><path fill="#e6e6e6" d="m279.1 153.9h3.1v11.1l5.6-6h3.8l-5.4 5.5 5.5 8h-3.5l-4.1-5.8-1.9 2v3.9h-3.1z"/><path fill="#e6e6e6" d="m291.7 165.8c0-3.9 3.1-7 7.2-7 4.2 0 7.2 3.2 7.2 7s-3.1 7-7.3 7c-4 0-7.1-3.1-7.1-7zm11.3 0c0-2.3-1.7-4.3-4.2-4.3s-4.1 2-4.1 4.3 1.7 4.3 4.1 4.3c2.6.1 4.2-1.9 4.2-4.3z"/><path fill="#e6e6e6" d="m308.2 167.6v-8.6h3.1v7.6c0 2.1 1.1 3.3 2.9 3.3s3-1.3 3-3.3v-7.6h3.1v13.4h-3.1v-2.1c-.8 1.3-2.1 2.3-4.2 2.3-3.1.2-4.8-1.8-4.8-5z"/><path fill="#e6e6e6" d="m323.9 168.8v-7.1h-1.7v-2.6h1.7v-3.7h3.1v3.7h3.6v2.6h-3.6v6.6c0 1.2.6 1.7 1.7 1.7.7 0 1.3-.2 1.9-.5v2.5c-.8.5-1.7.7-2.8.7-2.3 0-3.9-.9-3.9-3.9z"/><path fill="#e6e6e6" d="m333.2 154.7h3.2v15h9.4v2.9h-12.5v-17.9z"/><path fill="#e6e6e6" d="m356 172.5v-1.7c-.9 1.1-2.3 2-4.4 2-2.6 0-4.8-1.4-4.8-4.2 0-3 2.3-4.4 5.4-4.4 1.7 0 2.6.2 3.7.5v-.2c0-1.9-1.2-2.9-3.3-2.9-1.5 0-2.6.3-3.9.8l-.8-2.5c1.5-.7 2.9-1.1 5.1-1.1 4 0 5.9 2.1 5.9 5.7v8zm.1-5.6c-.8-.3-1.9-.5-3.1-.5-2 0-3.1.8-3.1 2.1s1.1 2 2.6 2c2 0 3.5-1.1 3.5-2.9z"/><path fill="#e6e6e6" d="m364.9 170.5v2.1h-3.1v-18.7h3.1v7.4c1-1.4 2.4-2.5 4.5-2.5 3.2 0 6.3 2.5 6.3 7s-3.1 7-6.3 7c-2.1 0-3.5-1.1-4.5-2.3zm7.7-4.7c0-2.6-1.7-4.3-3.9-4.3s-3.9 1.7-3.9 4.4c0 2.6 1.8 4.3 3.9 4.3s3.9-1.7 3.9-4.4z"/><path fill="#e6e6e6" d="m376.9 170.8 1.4-2.1c1.4 1.1 3 1.7 4.4 1.7s2.1-.5 2.1-1.5-1.3-1.4-2.8-1.8c-.1 0-.2-.1-.2-.1-2-.6-4.2-1.4-4.2-4s2.1-4.1 4.8-4.1c1.7 0 3.5.6 5 1.5l-1.2 2.2c-1.3-.8-2.6-1.3-3.8-1.3s-1.9.5-1.9 1.4 1.3 1.4 2.8 1.8c.1 0 .2.1.2.1 2 .6 4.2 1.5 4.2 4 0 2.9-2.2 4.2-5 4.2-1.9 0-4-.7-5.8-2z"/><path fill="#e6e6e6" d="m505.6 163.6c0-5.1 4.1-9.2 9.3-9.2s9.2 4.2 9.2 9.2-4.1 9.2-9.3 9.2-9.2-4.1-9.2-9.2zm17.4-.1c0-4.5-3.5-8.2-8.2-8.2s-8.2 3.7-8.2 8.3c0 4.5 3.5 8.2 8.2 8.2s8.2-3.7 8.2-8.3zm-13.1 0c0-2.8 2.1-5.1 5.1-5.1 1.9 0 2.9.6 3.9 1.5l-1.4 1.7c-.8-.7-1.5-1.1-2.5-1.1-1.7 0-2.8 1.4-2.8 3.1s1.1 3 2.8 3c1.1 0 1.7-.5 2.5-1.1l1.4 1.4c-1.1 1.1-2.1 1.7-4 1.7-2.9 0-5-2.3-5-5.1z"/><path fill="#e6e6e6" d="m525.4 154.7h3.4l4.2 13.2 4.4-13.3h2.6l4.4 13.3 4.2-13.2h3.3l-6.2 18h-2.7l-4.4-12.8-4.4 12.8h-2.7z"/><path fill="#e6e6e6" d="m551.7 165.8c0-3.9 3.1-7 7.2-7 4.2 0 7.2 3.2 7.2 7s-3.1 7-7.3 7c-4.1 0-7.1-3.1-7.1-7zm11.2 0c0-2.3-1.7-4.3-4.2-4.3s-4.1 2-4.1 4.3 1.7 4.3 4.1 4.3c2.7.1 4.2-1.9 4.2-4.3z"/><path fill="#e6e6e6" d="m568.3 159.1h3.1v3c.8-2 2.4-3.4 4.8-3.3v3.2h-.2c-2.7 0-4.6 1.7-4.6 5.4v5.1h-3.1z"/><path fill="#e6e6e6" d="m577.9 153.9h3.1v11.1l5.6-6h3.8l-5.4 5.5 5.5 8h-3.5l-4.1-5.8-1.9 2v3.9h-3.1z"/><path fill="#e6e6e6" d="m590.6 165.8c0-3.9 3.1-7 7.2-7 4.2 0 7.2 3.2 7.2 7s-3.1 7-7.3 7c-4.1 0-7.1-3.1-7.1-7zm11.2 0c0-2.3-1.7-4.3-4.2-4.3s-4.1 2-4.1 4.3 1.7 4.3 4.1 4.3c2.6.1 4.2-1.9 4.2-4.3z"/><path fill="#e6e6e6" d="m607 167.6v-8.6h3.1v7.6c0 2.1 1.1 3.3 2.9 3.3s3-1.3 3-3.3v-7.6h3.1v13.4h-3.1v-2.1c-.8 1.3-2.1 2.3-4.2 2.3-3 .2-4.8-1.8-4.8-5z"/><path fill="#e6e6e6" d="m622.7 168.8v-7.1h-1.7v-2.6h1.7v-3.7h3.1v3.7h3.6v2.6h-3.6v6.6c0 1.2.6 1.7 1.7 1.7.7 0 1.3-.2 1.9-.5v2.5c-.8.5-1.7.7-2.8.7-2.3 0-3.9-.9-3.9-3.9z"/><path fill="#e6e6e6" d="m632 154.7h3.2v15h9.4v2.9h-12.6z"/><path fill="#e6e6e6" d="m654.8 172.5v-1.7c-.9 1.1-2.3 2-4.4 2-2.6 0-4.8-1.4-4.8-4.2 0-3 2.3-4.4 5.4-4.4 1.7 0 2.6.2 3.7.5v-.2c0-1.9-1.2-2.9-3.3-2.9-1.5 0-2.6.3-3.9.8l-.8-2.5c1.5-.7 2.9-1.1 5.1-1.1 4 0 5.9 2.1 5.9 5.7v8zm.1-5.6c-.8-.3-1.9-.5-3.1-.5-2 0-3.1.8-3.1 2.1s1.1 2 2.6 2c2 0 3.5-1.1 3.5-2.9z"/><path fill="#e6e6e6" d="m663.7 170.5v2.1h-3.1v-18.7h3.1v7.4c1-1.4 2.4-2.5 4.5-2.5 3.2 0 6.3 2.5 6.3 7s-3.1 7-6.3 7c-2.1 0-3.5-1.1-4.5-2.3zm7.8-4.7c0-2.6-1.7-4.3-3.9-4.3-2.1 0-3.9 1.7-3.9 4.4 0 2.6 1.8 4.3 3.9 4.3s3.9-1.7 3.9-4.4z"/><path fill="#e6e6e6" d="m675.8 170.8 1.4-2.1c1.4 1.1 3 1.7 4.4 1.7s2.1-.5 2.1-1.5-1.3-1.4-2.8-1.8c-.1 0-.2-.1-.2-.1-2-.6-4.2-1.4-4.2-4s2.1-4.1 4.8-4.1c1.7 0 3.5.6 5 1.5l-1.2 2.2c-1.3-.8-2.6-1.3-3.8-1.3s-1.9.5-1.9 1.4 1.3 1.4 2.8 1.8c.1 0 .2.1.2.1 2 .6 4.2 1.5 4.2 4 0 2.9-2.2 4.2-5 4.2-2 0-4.1-.7-5.8-2z"/><path fill="#e6e6e6" d="m61 298.6c0-5.1 4.1-9.2 9.3-9.2s9.2 4.2 9.2 9.2-4.1 9.2-9.3 9.2c-5.1 0-9.2-4.2-9.2-9.2zm17.4-.1c0-4.5-3.5-8.2-8.2-8.2s-8.2 3.7-8.2 8.3c0 4.5 3.5 8.2 8.2 8.2s8.2-3.7 8.2-8.3zm-13.1-.1c0-2.8 2.1-5.1 5.1-5.1 1.9 0 2.9.6 3.9 1.5l-1.4 1.7c-.8-.7-1.5-1.1-2.5-1.1-1.7 0-2.8 1.4-2.8 3.1s1.1 3 2.8 3c1.1 0 1.7-.5 2.5-1.1l1.4 1.4c-1.1 1.1-2.1 1.7-4 1.7-2.8.1-5-2.2-5-5.1z"/><path fill="#e6e6e6" d="m80.9 289.7h3.4l4.2 13.2 4.4-13.3h2.6l4.4 13.3 4.2-13.2h3.3l-6.2 18h-2.7l-4.4-12.8-4.4 12.8h-2.7z"/><path fill="#e6e6e6" d="m107.1 300.8c0-3.9 3.1-7 7.2-7s7.2 3.2 7.2 7-3.1 7-7.3 7c-4 0-7.1-3.1-7.1-7zm11.3 0c0-2.3-1.7-4.3-4.2-4.3s-4.1 2-4.1 4.3 1.7 4.3 4.1 4.3c2.6.1 4.2-1.9 4.2-4.3z"/><path fill="#e6e6e6" d="m123.7 294h3.1v3c.8-2 2.4-3.4 4.8-3.3v3.2h-.2c-2.7 0-4.6 1.7-4.6 5.4v5.1h-3.1z"/><path fill="#e6e6e6" d="m133.4 288.9h3.1v11.1l5.6-6h3.8l-5.4 5.5 5.5 8h-3.5l-4.1-5.8-1.9 1.9v3.9h-3.1z"/><path fill="#e6e6e6" d="m146 300.8c0-3.9 3.1-7 7.2-7s7.2 3.2 7.2 7-3.1 7-7.3 7c-4.1 0-7.1-3.1-7.1-7zm11.2 0c0-2.3-1.7-4.3-4.2-4.3s-4.1 2-4.1 4.3 1.7 4.3 4.1 4.3c2.6.1 4.2-1.9 4.2-4.3z"/><path fill="#e6e6e6" d="m162.4 302.6v-8.6h3.1v7.6c0 2.1 1.1 3.3 2.9 3.3s3-1.3 3-3.3v-7.6h3.1v13.4h-3.1v-2.1c-.8 1.3-2.1 2.3-4.2 2.3-3 .2-4.8-1.8-4.8-5z"/><path fill="#e6e6e6" d="m178.1 303.8v-7.1h-1.7v-2.7h1.7v-3.7h3.1v3.7h3.6v2.6h-3.6v6.6c0 1.2.6 1.7 1.7 1.7.7 0 1.3-.2 1.9-.5v2.5c-.8.5-1.7.7-2.8.7-2.3.1-3.9-.9-3.9-3.8z"/><path fill="#e6e6e6" d="m187.4 289.7h3.2v15h9.4v2.9h-12.5v-17.9z"/><path fill="#e6e6e6" d="m210.2 307.5v-1.7c-.9 1.1-2.3 2-4.4 2-2.6 0-4.8-1.4-4.8-4.2 0-3 2.3-4.4 5.4-4.4 1.7 0 2.6.2 3.7.5v-.2c0-1.9-1.2-2.9-3.3-2.9-1.5 0-2.6.3-3.9.8l-.8-2.5c1.5-.7 2.9-1.1 5.1-1.1 4 0 5.9 2.1 5.9 5.7v8zm.1-5.6c-.8-.3-1.9-.5-3.1-.5-2 0-3.1.8-3.1 2.1s1.1 2 2.6 2c2 0 3.5-1.1 3.5-2.9z"/><path fill="#e6e6e6" d="m219.2 305.5v2.1h-3.1v-18.7h3.1v7.4c1-1.4 2.4-2.5 4.5-2.5 3.2 0 6.3 2.5 6.3 7s-3.1 7-6.3 7c-2.2 0-3.6-1.1-4.5-2.3zm7.7-4.7c0-2.6-1.7-4.3-3.9-4.3s-3.9 1.7-3.9 4.4c0 2.6 1.8 4.3 3.9 4.3s3.9-1.7 3.9-4.4z"/><path fill="#e6e6e6" d="m231.2 305.8 1.4-2.1c1.4 1.1 3 1.7 4.4 1.7s2.1-.5 2.1-1.5-1.3-1.4-2.8-1.8c-.1 0-.2-.1-.2-.1-2-.6-4.2-1.4-4.2-4s2.1-4.1 4.8-4.1c1.7 0 3.5.6 5 1.5l-1.2 2.2c-1.3-.8-2.6-1.3-3.8-1.3s-1.9.5-1.9 1.4 1.3 1.4 2.8 1.8c.1 0 .2.1.2.1 2 .6 4.2 1.5 4.2 4 0 2.9-2.2 4.2-5 4.2-2 0-4.1-.7-5.8-2z"/><path fill="#e6e6e6" d="m360.6 298.6c0-5.1 4.1-9.2 9.3-9.2s9.2 4.2 9.2 9.2-4.1 9.2-9.3 9.2-9.2-4.2-9.2-9.2zm17.4-.1c0-4.5-3.5-8.2-8.2-8.2s-8.2 3.7-8.2 8.3c0 4.5 3.5 8.2 8.2 8.2s8.2-3.7 8.2-8.3zm-13.1-.1c0-2.8 2.1-5.1 5.1-5.1 1.9 0 2.9.6 3.9 1.5l-1.4 1.7c-.8-.7-1.5-1.1-2.5-1.1-1.7 0-2.8 1.4-2.8 3.1s1.1 3 2.8 3c1.1 0 1.7-.5 2.5-1.1l1.4 1.4c-1.1 1.1-2.1 1.7-4 1.7-2.8.1-5-2.2-5-5.1z"/><path fill="#e6e6e6" d="m380.5 289.7h3.4l4.2 13.2 4.4-13.3h2.6l4.4 13.3 4.2-13.2h3.3l-6.2 18h-2.7l-4.4-12.8-4.4 12.8h-2.7z"/><path fill="#e6e6e6" d="m406.7 300.8c0-3.9 3.1-7 7.2-7 4.2 0 7.2 3.2 7.2 7s-3.1 7-7.3 7c-4.1 0-7.1-3.1-7.1-7zm11.3 0c0-2.3-1.7-4.3-4.2-4.3s-4.1 2-4.1 4.3 1.7 4.3 4.1 4.3c2.7.1 4.2-1.9 4.2-4.3z"/><path fill="#e6e6e6" d="m423.3 294h3.1v3c.8-2 2.4-3.4 4.8-3.3v3.2h-.2c-2.7 0-4.6 1.7-4.6 5.4v5.1h-3.1z"/><path fill="#e6e6e6" d="m433 288.9h3.1v11.1l5.6-6h3.8l-5.4 5.5 5.5 8h-3.5l-4.1-5.8-1.9 2v3.9h-3.1z"/><path fill="#e6e6e6" d="m445.6 300.8c0-3.9 3.1-7 7.2-7 4.2 0 7.2 3.2 7.2 7s-3.1 7-7.3 7c-4.1 0-7.1-3.1-7.1-7zm11.3 0c0-2.3-1.7-4.3-4.2-4.3s-4.1 2-4.1 4.3 1.7 4.3 4.1 4.3c2.6.1 4.2-1.9 4.2-4.3z"/><path fill="#e6e6e6" d="m462.1 302.6v-8.6h3.1v7.6c0 2.1 1.1 3.3 2.9 3.3s3-1.3 3-3.3v-7.6h3.1v13.4h-3.1v-2.1c-.8 1.3-2.1 2.3-4.2 2.3-3.1.2-4.8-1.8-4.8-5z"/><path fill="#e6e6e6" d="m477.8 303.8v-7.1h-1.8v-2.7h1.7v-3.7h3.1v3.7h3.6v2.6h-3.6v6.6c0 1.2.6 1.7 1.7 1.7.7 0 1.3-.2 1.9-.5v2.5c-.8.5-1.7.7-2.8.7-2.2.1-3.8-.9-3.8-3.8z"/><path fill="#e6e6e6" d="m487.1 289.7h3.2v15h9.4v2.9h-12.5v-17.9z"/><path fill="#e6e6e6" d="m509.9 307.5v-1.7c-.9 1.1-2.3 2-4.4 2-2.6 0-4.8-1.4-4.8-4.2 0-3 2.3-4.4 5.4-4.4 1.7 0 2.6.2 3.7.5v-.2c0-1.9-1.2-2.9-3.3-2.9-1.5 0-2.6.3-3.9.8l-.8-2.5c1.5-.7 2.9-1.1 5.1-1.1 4 0 5.9 2.1 5.9 5.7v8zm.1-5.6c-.8-.3-1.9-.5-3.1-.5-2 0-3.1.8-3.1 2.1s1.1 2 2.6 2c2 0 3.5-1.1 3.5-2.9z"/><path fill="#e6e6e6" d="m518.8 305.5v2.1h-3.1v-18.7h3.1v7.4c1-1.4 2.4-2.5 4.5-2.5 3.2 0 6.3 2.5 6.3 7s-3.1 7-6.3 7c-2.2 0-3.5-1.1-4.5-2.3zm7.7-4.7c0-2.6-1.7-4.3-3.9-4.3s-3.9 1.7-3.9 4.4c0 2.6 1.8 4.3 3.9 4.3s3.9-1.7 3.9-4.4z"/><path fill="#e6e6e6" d="m530.8 305.8 1.4-2.1c1.4 1.1 3 1.7 4.4 1.7s2.1-.5 2.1-1.5-1.3-1.4-2.8-1.8c-.1 0-.2-.1-.2-.1-2-.6-4.2-1.4-4.2-4s2.1-4.1 4.8-4.1c1.7 0 3.5.6 5 1.5l-1.2 2.2c-1.3-.8-2.6-1.3-3.8-1.3s-1.9.5-1.9 1.4 1.3 1.4 2.8 1.8c.1 0 .2.1.2.1 2 .6 4.2 1.5 4.2 4 0 2.9-2.2 4.2-5 4.2-1.9 0-4.1-.7-5.8-2z"/><path fill="#e6e6e6" d="m659.5 298.6c0-5.1 4.1-9.2 9.3-9.2s9.2 4.2 9.2 9.2-4.1 9.2-9.3 9.2-9.2-4.2-9.2-9.2zm17.3-.1c0-4.5-3.5-8.2-8.2-8.2s-8.2 3.7-8.2 8.3c0 4.5 3.5 8.2 8.2 8.2 4.8 0 8.2-3.7 8.2-8.3zm-13-.1c0-2.8 2.1-5.1 5.1-5.1 1.9 0 2.9.6 3.9 1.5l-1.4 1.7c-.8-.7-1.5-1.1-2.5-1.1-1.7 0-2.8 1.4-2.8 3.1s1.1 3 2.8 3c1.1 0 1.7-.5 2.5-1.1l1.4 1.4c-1.1 1.1-2.1 1.7-4 1.7-2.9.1-5-2.2-5-5.1z"/><path fill="#e6e6e6" d="m679.3 289.7h3.4l4.2 13.2 4.4-13.3h2.6l4.4 13.3 4.2-13.2h3.3l-6.2 18h-2.6l-4.4-12.8-4.4 12.8h-2.7z"/><path fill="#e6e6e6" d="m705.5 300.8c0-3.9 3.1-7 7.2-7 4.2 0 7.2 3.2 7.2 7s-3.1 7-7.3 7c-4 0-7.1-3.1-7.1-7zm11.3 0c0-2.3-1.7-4.3-4.2-4.3s-4.1 2-4.1 4.3 1.7 4.3 4.1 4.3c2.7.1 4.2-1.9 4.2-4.3z"/><path fill="#e6e6e6" d="m722.1 294h3.1v3c.8-2 2.4-3.4 4.8-3.3v3.2h-.2c-2.7 0-4.6 1.7-4.6 5.4v5.1h-3.1z"/><path fill="#e6e6e6" d="m731.8 288.9h3.1v11.1l5.6-6h3.8l-5.4 5.5 5.5 8h-3.5l-4.1-5.8-1.9 2v3.9h-3.1z"/><path fill="#e6e6e6" d="m744.4 300.8c0-3.9 3.1-7 7.2-7 4.2 0 7.2 3.2 7.2 7s-3.1 7-7.3 7c-4.1 0-7.1-3.1-7.1-7zm11.3 0c0-2.3-1.7-4.3-4.2-4.3s-4.1 2-4.1 4.3 1.7 4.3 4.1 4.3c2.6.1 4.2-1.9 4.2-4.3z"/><path fill="#e6e6e6" d="m760.9 302.6v-8.6h3.1v7.6c0 2.1 1.1 3.3 2.9 3.3s3-1.3 3-3.3v-7.6h3.1v13.4h-3.1v-2.1c-.8 1.3-2.1 2.3-4.2 2.3-3.1.2-4.8-1.8-4.8-5z"/><path fill="#e6e6e6" d="m776.6 303.8v-7.1h-1.7v-2.7h1.7v-3.7h3.1v3.7h3.6v2.6h-3.6v6.6c0 1.2.6 1.7 1.7 1.7.7 0 1.3-.2 1.9-.5v2.5c-.8.5-1.7.7-2.8.7-2.3.1-3.9-.9-3.9-3.8z"/><path fill="#e6e6e6" d="m785.9 289.7h3.2v15h9.4v2.9h-12.5v-17.9z"/><path fill="#e6e6e6" d="m808.7 307.5v-1.7c-.9 1.1-2.3 2-4.4 2-2.6 0-4.8-1.4-4.8-4.2 0-3 2.3-4.4 5.4-4.4 1.7 0 2.6.2 3.7.5v-.2c0-1.9-1.2-2.9-3.3-2.9-1.5 0-2.6.3-3.9.8l-.8-2.5c1.5-.7 2.9-1.1 5.1-1.1 4 0 5.9 2.1 5.9 5.7v8zm.1-5.6c-.8-.3-1.9-.5-3.1-.5-2 0-3.1.8-3.1 2.1s1.1 2 2.6 2c2 0 3.5-1.1 3.5-2.9z"/><path fill="#e6e6e6" d="m817.6 305.5v2.1h-3.1v-18.7h3.1v7.4c1-1.4 2.4-2.5 4.5-2.5 3.2 0 6.3 2.5 6.3 7s-3.1 7-6.3 7c-2.1 0-3.5-1.1-4.5-2.3zm7.7-4.7c0-2.6-1.7-4.3-3.9-4.3-2.1 0-3.9 1.7-3.9 4.4 0 2.6 1.8 4.3 3.9 4.3 2.2 0 3.9-1.7 3.9-4.4z"/><path fill="#e6e6e6" d="m829.6 305.8 1.4-2.1c1.4 1.1 3 1.7 4.4 1.7s2.1-.5 2.1-1.5-1.3-1.4-2.8-1.8c-.1 0-.2-.1-.2-.1-2-.6-4.2-1.4-4.2-4s2.1-4.1 4.8-4.1c1.7 0 3.5.6 5 1.5l-1.2 2.2c-1.3-.8-2.6-1.3-3.8-1.3s-1.9.5-1.9 1.4 1.3 1.4 2.8 1.8c.1 0 .2.1.2.1 2 .6 4.2 1.5 4.2 4 0 2.9-2.2 4.2-5 4.2-1.9 0-4-.7-5.8-2z"/><path fill="#e6e6e6" d="m206.3 434.2c0-5.1 4.1-9.2 9.3-9.2s9.2 4.2 9.2 9.2-4.1 9.2-9.3 9.2-9.2-4.1-9.2-9.2zm17.4-.1c0-4.5-3.5-8.2-8.2-8.2s-8.2 3.7-8.2 8.3c0 4.5 3.5 8.2 8.2 8.2s8.2-3.7 8.2-8.3zm-13.1-.1c0-2.8 2.1-5.1 5.1-5.1 1.9 0 2.9.6 3.9 1.5l-1.4 1.7c-.8-.7-1.5-1.1-2.5-1.1-1.7 0-2.8 1.4-2.8 3.1s1.1 3 2.8 3c1.1 0 1.7-.5 2.5-1.1l1.4 1.4c-1.1 1.1-2.1 1.7-4 1.7-2.9.1-5-2.2-5-5.1z"/><path fill="#e6e6e6" d="m226.1 425.3h3.4l4.2 13.2 4.4-13.3h2.6l4.4 13.3 4.2-13.2h3.3l-6.2 18h-2.7l-4.4-12.8-4.4 12.8h-2.7z"/><path fill="#e6e6e6" d="m252.4 436.4c0-3.9 3.1-7 7.2-7 4.2 0 7.2 3.2 7.2 7s-3.1 7-7.3 7c-4.1 0-7.1-3.1-7.1-7zm11.2 0c0-2.3-1.7-4.3-4.2-4.3s-4.1 2-4.1 4.3 1.7 4.3 4.1 4.3c2.7.1 4.2-1.9 4.2-4.3z"/><path fill="#e6e6e6" d="m269 429.7h3.1v3c.8-2 2.4-3.4 4.8-3.3v3.2h-.2c-2.7 0-4.6 1.7-4.6 5.4v5.1h-3.1z"/><path fill="#e6e6e6" d="m278.6 424.5h3.1v11.1l5.6-6h3.8l-5.4 5.5 5.5 8h-3.5l-4.1-5.8-1.9 2v3.9h-3.1z"/><path fill="#e6e6e6" d="m291.3 436.4c0-3.9 3.1-7 7.2-7 4.2 0 7.2 3.2 7.2 7s-3.1 7-7.3 7c-4.1 0-7.1-3.1-7.1-7zm11.2 0c0-2.3-1.7-4.3-4.2-4.3s-4.1 2-4.1 4.3 1.7 4.3 4.1 4.3c2.6.1 4.2-1.9 4.2-4.3z"/><path fill="#e6e6e6" d="m307.7 438.2v-8.6h3.1v7.6c0 2.1 1.1 3.3 2.9 3.3s3-1.3 3-3.3v-7.6h3.1v13.4h-3.1v-2.1c-.8 1.3-2.1 2.3-4.2 2.3-3 .2-4.8-1.8-4.8-5z"/><path fill="#e6e6e6" d="m323.4 439.4v-7.1h-1.7v-2.6h1.7v-3.7h3.1v3.7h3.6v2.6h-3.6v6.6c0 1.2.6 1.7 1.7 1.7.7 0 1.3-.2 1.9-.5v2.5c-.8.5-1.7.7-2.8.7-2.3 0-3.9-.9-3.9-3.9z"/><path fill="#e6e6e6" d="m332.7 425.3h3.2v15h9.4v2.9h-12.5v-17.9z"/><path fill="#e6e6e6" d="m355.5 443.1v-1.7c-.9 1.1-2.3 2-4.4 2-2.6 0-4.8-1.4-4.8-4.2 0-3 2.3-4.4 5.4-4.4 1.7 0 2.6.2 3.7.5v-.2c0-1.9-1.2-2.9-3.3-2.9-1.5 0-2.6.3-3.9.8l-.8-2.5c1.5-.7 2.9-1.1 5.1-1.1 4 0 5.9 2.1 5.9 5.7v8zm.1-5.6c-.8-.3-1.9-.5-3.1-.5-2 0-3.1.8-3.1 2.1s1.1 2 2.6 2c2 0 3.5-1.1 3.5-2.9z"/><path fill="#e6e6e6" d="m364.4 441.1v2.1h-3.1v-18.7h3.1v7.4c1-1.4 2.4-2.5 4.5-2.5 3.2 0 6.3 2.5 6.3 7s-3.1 7-6.3 7c-2.1 0-3.5-1.1-4.5-2.3zm7.7-4.7c0-2.6-1.7-4.3-3.9-4.3-2.1 0-3.9 1.7-3.9 4.4 0 2.6 1.8 4.3 3.9 4.3 2.2 0 3.9-1.7 3.9-4.4z"/><path fill="#e6e6e6" d="m376.5 441.4 1.4-2.1c1.4 1.1 3 1.7 4.4 1.7s2.1-.5 2.1-1.5-1.3-1.4-2.8-1.8c-.1 0-.2-.1-.2-.1-2-.6-4.2-1.4-4.2-4s2.1-4.1 4.8-4.1c1.7 0 3.5.6 5 1.5l-1.2 2.2c-1.3-.8-2.6-1.3-3.8-1.3s-1.9.5-1.9 1.4 1.3 1.4 2.8 1.8c.1 0 .2.1.2.1 2 .6 4.2 1.5 4.2 4 0 2.9-2.2 4.2-5 4.2-2 0-4.1-.7-5.8-2z"/><path fill="#e6e6e6" d="m505.1 434.2c0-5.1 4.1-9.2 9.3-9.2s9.2 4.2 9.2 9.2-4.1 9.2-9.3 9.2-9.2-4.1-9.2-9.2zm17.4-.1c0-4.5-3.5-8.2-8.2-8.2s-8.2 3.7-8.2 8.3c0 4.5 3.5 8.2 8.2 8.2s8.2-3.7 8.2-8.3zm-13.1-.1c0-2.8 2.1-5.1 5.1-5.1 1.9 0 2.9.6 3.9 1.5l-1.4 1.7c-.8-.7-1.5-1.1-2.5-1.1-1.7 0-2.8 1.4-2.8 3.1s1.1 3 2.8 3c1.1 0 1.7-.5 2.5-1.1l1.4 1.4c-1.1 1.1-2.1 1.7-4 1.7-2.9.1-5-2.2-5-5.1z"/><path fill="#e6e6e6" d="m525 425.3h3.4l4.2 13.2 4.4-13.3h2.6l4.4 13.3 4.2-13.2h3.3l-6.2 18h-2.7l-4.4-12.8-4.4 12.8h-2.7z"/><path fill="#e6e6e6" d="m551.2 436.4c0-3.9 3.1-7 7.2-7 4.2 0 7.2 3.2 7.2 7s-3.1 7-7.3 7c-4.1 0-7.1-3.1-7.1-7zm11.2 0c0-2.3-1.7-4.3-4.2-4.3s-4.1 2-4.1 4.3 1.7 4.3 4.1 4.3c2.7.1 4.2-1.9 4.2-4.3z"/><path fill="#e6e6e6" d="m567.8 429.7h3.1v3c.8-2 2.4-3.4 4.8-3.3v3.2h-.2c-2.7 0-4.6 1.7-4.6 5.4v5.1h-3.1z"/><path fill="#e6e6e6" d="m577.5 424.5h3.1v11.1l5.6-6h3.8l-5.4 5.5 5.5 8h-3.5l-4.1-5.8-1.9 2v3.9h-3.1z"/><path fill="#e6e6e6" d="m590.1 436.4c0-3.9 3.1-7 7.2-7 4.2 0 7.2 3.2 7.2 7s-3.1 7-7.3 7c-4.1 0-7.1-3.1-7.1-7zm11.2 0c0-2.3-1.7-4.3-4.2-4.3s-4.1 2-4.1 4.3 1.7 4.3 4.1 4.3c2.6.1 4.2-1.9 4.2-4.3z"/><path fill="#e6e6e6" d="m606.5 438.2v-8.6h3.1v7.6c0 2.1 1.1 3.3 2.9 3.3s3-1.3 3-3.3v-7.6h3.1v13.4h-3.1v-2.1c-.8 1.3-2.1 2.3-4.2 2.3-3 .2-4.8-1.8-4.8-5z"/><path fill="#e6e6e6" d="m622.2 439.4v-7.1h-1.7v-2.6h1.7v-3.7h3.1v3.7h3.6v2.6h-3.6v6.6c0 1.2.6 1.7 1.7 1.7.7 0 1.3-.2 1.9-.5v2.5c-.8.5-1.7.7-2.8.7-2.3 0-3.9-.9-3.9-3.9z"/><path fill="#e6e6e6" d="m631.5 425.3h3.2v15h9.4v2.9h-12.5v-17.9z"/><path fill="#e6e6e6" d="m654.3 443.1v-1.7c-.9 1.1-2.3 2-4.4 2-2.6 0-4.8-1.4-4.8-4.2 0-3 2.3-4.4 5.4-4.4 1.7 0 2.6.2 3.7.5v-.2c0-1.9-1.2-2.9-3.3-2.9-1.5 0-2.6.3-3.9.8l-.8-2.5c1.5-.7 2.9-1.1 5.1-1.1 4 0 5.9 2.1 5.9 5.7v8zm.1-5.6c-.8-.3-1.9-.5-3.1-.5-2 0-3.1.8-3.1 2.1s1.1 2 2.6 2c2 0 3.5-1.1 3.5-2.9z"/><path fill="#e6e6e6" d="m663.3 441.1v2.1h-3.1v-18.7h3.1v7.4c1-1.4 2.4-2.5 4.5-2.5 3.2 0 6.3 2.5 6.3 7s-3.1 7-6.3 7c-2.2 0-3.6-1.1-4.5-2.3zm7.7-4.7c0-2.6-1.7-4.3-3.9-4.3s-3.9 1.7-3.9 4.4c0 2.6 1.8 4.3 3.9 4.3s3.9-1.7 3.9-4.4z"/><path fill="#e6e6e6" d="m675.3 441.4 1.4-2.1c1.4 1.1 3 1.7 4.4 1.7s2.1-.5 2.1-1.5-1.3-1.4-2.8-1.8c-.1 0-.2-.1-.2-.1-2-.6-4.2-1.4-4.2-4s2.1-4.1 4.8-4.1c1.7 0 3.5.6 5 1.5l-1.2 2.2c-1.3-.8-2.6-1.3-3.8-1.3s-1.9.5-1.9 1.4 1.3 1.4 2.8 1.8c.1 0 .2.1.2.1 2 .6 4.2 1.5 4.2 4 0 2.9-2.2 4.2-5 4.2-2 0-4.1-.7-5.8-2z"/></g>
</svg>
