<?xml version="1.0" encoding="utf-8"?>
<!-- Generator: Adobe Illustrator 23.0.1, SVG Export Plug-In . SVG Version: 6.00 Build 0)  -->
<svg version="1.2" baseProfile="tiny" id="Layer_1" xmlns="http://www.w3.org/2000/svg" xmlns:xlink="http://www.w3.org/1999/xlink"
	 x="0px" y="0px" viewBox="0 0 900 600" xml:space="preserve">
<g>
	<path d="M430.29,489.83c-0.37,0.75-0.12,0.69-0.42-0.32C430.42,489.87,430.54,489.83,430.29,489.83z"/>
	<path d="M122.28,440.44c-0.2-7.35,3.89-11.05,15.9-25.65c-3.18-7.31-7.31-13.99-4.03-22.15c-1.8,0.11-3.18,1.48-5.83,1.48
		c3.6-2.23,5.94-4.56,7-7.84c-1.59-1.17-4.02-1.17-4.13-3.71c-0.1-2.12,1.91-2.12,3.29-2.97c-2.01-2.44-3.82-4.77-2.76-8.59
		c2.76,2.44,3.39,6.15,7,7.31c1.85-9.7,18.24-9.11,25.23-15.79c1.67-1.25-3.85,1.72,15.05-3.82c6.24-1.83,4.17-6.27,7.63-6.04
		c2.23,0.74,0.64,2.54,1.8,4.03c1.27-2.86,4.59-3.16,6.15-5.62c1.73-2.73,5.62,0.11,6.68-2.97c2.33,0,3.07,2.12,5.09,2.54
		c0.11-2.54-1.38-5.09,0.64-7.74c2.01,1.91,4.13,0.42,6.04,0.53c1.4,2.49-2.98,9.36,4.45-1.17c7.02-1.87,4.54,5.87,8.69,6.15
		c0.53,1.48-0.53,2.44-0.42,3.39c0.53,0.53,1.48-0.42,1.91,0.85c-2.44,4.24-5.3,8.37-8.69,12.08c7.42,9.81,19.25,10.02,16.43,19.5
		c4.66,2.65,9.14,5.78,14.2,7.84c4.58,1.86,5.3,4.03,3.6,8.69c-1.14,1.71,3.01,3.4,3.82,6.36c0.12,0.42-1.59,1.27-1.06,2.76
		c1.06,0.42,2.75,0.32,3.29,1.8c1.79,4.99,4.3,9.48,7.95,13.35c1.08,1.15,0.32,3.39,1.7,4.13c-5.41,9.82-17.05,12.7-13.46,20.99
		c31.95,6.7,33.44,6.07,38.79,9.43c18.02,11.3,57.11,24.13,78.43,22.68c18.67-1.27,22.87,7.47,34.76,4.24
		c9.83-2.67,14.33,2.99,21.83-0.11c4.57-1.88,9.65-1.7,13.88,2.01c0,15.64-4.1,12.39-3.07,13.67c-0.6,1.41-1.41,2.49-1.91,1.05
		c-3.57-0.01-7.14-0.11-10.81-0.31c1.48,2.54,4.66,1.59,6.68,4.13c-7.44-0.93-6.71-1.5-7.35,2.87c1.8,0.04,2.95,0.67,4.59,1.79
		c-2.02,0.11-3.48,0.37-4.61-1.56c-1.02,7.74,3.01,4.83,4.19,6.75c-1.27,1.7-3.18-0.95-4.35,0.74c0.21,1.8,2.65,0.42,2.97,2.12
		c-0.74,1.06-2.44-0.11-3.18,1.38c-0.25,5.92-0.9,11.85-1.67,17.92c1.92-3.23,4.91-2.15,7.08-2.98c-1.17-1.91-4.24-1.17-4.45-3.6
		c1.06-1.8,2.65-0.53,3.82-1.38c-0.74-1.8-3.82-1.38-3.5-4.13c1.8-2.01,4.35-0.95,6.57-1.17c-1.38,0.64-2.76,1.38-4.13,2.01
		c1.7,2.33,4.88,2.33,5.94,4.66c-1.06,1.59-2.54,0.42-3.82,1.17c1.06,1.8,3.92,1.17,4.45,4.03c-3.89,0.64-7.58,1.78-11.99,1.59
		c-0.2,1.58-0.41,3.17-0.63,4.77c4.66,0,8.8,0,12.93,0c-3.82,3.39-8.8,0.85-12.93,2.76c0,5.3,1.17,10.18,2.23,15.16
		c3.71,0.32,7.42-0.32,11.13,1.27c-3.6,1.27-7.1,0.53-10.49,1.59c0.42,1.8,0.21,3.71,1.38,5.09c2.33-0.64,4.35-2.12,7.1-0.42
		c-7.69,4.35-6.68-2.13-6.68,13.78c4.77,0.42,9.12,0.21,13.88-0.21c-0.95-6.57-1.8-12.93-2.76-19.18c2.86,3.07,5.3,21.94,3.6,22.79
		c-1.06-0.42-0.21-1.91-1.7-2.33c-3.92,2.01-8.59,1.27-13.04,2.01c1.91,1.17,3.82,1.06,5.83,1.06c11.57,0,4.88-0.21,4.24,1.91
		c0.53,0.64,1.91,0,2.23,1.17c-3.39,2.44-12.41,3.52-16.22,1.8c-5.54-2.5-23.35-3.35-31.59-0.11c-0.63,0.31-6.48-0.2-20.77,2.12
		c-29.39,4.78-68.88-4.61-69.74-2.44c-1.34,3.38-37.47,0.93-52.04-7c-3.51-1.91-18.92-3.36-33.28-11.45
		c-15.66-8.82-15.69-13.88-26.29-21.62c-5.75-4.2-15.64-14.11-17.06-21.41c-1.37-7-6.72-19.02-13.46-22.58
		c-17.93-9.45-24.5-20.66-32.65-23.64C113.97,479.05,122.68,455.3,122.28,440.44z M440.57,496.08c1.27-0.74,0.42-1.7,1.17-3.29
		C437.95,495.9,426.37,492.7,440.57,496.08z M427.43,499.58c3.39,1.59,7.74,0.11,10.92,2.86c1.02-1.02,1.38,0.15,1.38-2.87
		c-4.02-0.78-8.3,0.41-11.68-2.15c-1.36-0.68-0.45-0.75,0.52-1.69c-0.12,0.46-0.26,0.9-0.43,1.35c0.19-0.45,0.36-0.91,0.48-1.39
		c2.66-2.66,0.98-4.75,1.83-5.86c3.83,2.13,7.47,1.37,11.31,1.37c-1.8-2.23-7.53-3.07-12.61-2.12
		C427.24,491.52,426.84,496.65,427.43,499.58z M429.02,589.35c0-1.06-0.64-1.06-1.17-1.48
		C427.32,589.67,428.27,589.14,429.02,589.35z M138.28,394.54c-2.14,0.71-1.86,3.61-0.11,1.27
		C138.39,395.39,139.03,395.07,138.28,394.54z M148.56,386.38c-1.06,0.85-0.95,1.38-0.11,1.8
		C149.41,387.76,148.99,387.23,148.56,386.38z M154.61,401.86c1.06,2.23,3.07,2.01,4.98,2.23
		C158.1,403.02,157.68,399.84,154.61,401.86z M165.74,403.13c0,2.23,0,2.23,3.07,2.65C168.07,404.61,167.01,403.98,165.74,403.13z
		 M171.03,390.62c-1.06,2.33,1.17,2.76,2.12,3.6C173.15,392.74,172.62,391.58,171.03,390.62z M173.15,389.24
		c1.59,2.97,3.07,5.83,4.98,9.33C178.45,390.94,177.61,389.46,173.15,389.24z M181.74,415c1.48,2.23,2.76,3.6,5.83,4.03
		C185.56,417.22,184.18,416.06,181.74,415z M184.5,362.11c0.11,1.06,1.06,0.85,1.59,1.27C187.73,361.53,185.96,359.54,184.5,362.11z
		 M187.68,381.51c-1.17,2.01-4.24-0.85-5.3,2.44C186.11,383.94,189.96,384.44,187.68,381.51z M188.74,401.22
		c-1.7,0.64-1.06,1.48,0,2.86C189.27,402.81,189.48,402.07,188.74,401.22z M191.38,377.69c5.11,2.55,3.58,1.93,4.45,1.06
		C194.88,377.27,193.19,377.48,191.38,377.69z M190.33,410.55c0.53,2.54,0.11,5.51,3.5,6.89
		C193.4,414.58,191.49,412.77,190.33,410.55z M196.26,358.4c-1.17,0.21-1.38,0.74-1.38,1.48
		C196.37,360.1,196.26,359.35,196.26,358.4z M196.79,403.87c1.06-0.64,0.32-1.59,0.64-2.33
		C195.6,401.54,195.44,403.68,196.79,403.87z M197.21,395.39c0.64-2.44,1.27-4.88,1.91-7.42
		C196.9,390.09,195.62,392.32,197.21,395.39z M199.02,377.8c-2.23,2.54-1.48,4.88-2.23,6.89
		C198.59,382.99,198.91,380.87,199.02,377.8z M204.85,353.63c-1.59-0.53-0.21,2.12-1.48,1.59c-2.51,0.78-3.35-4.41-6.15,1.59
		c3.07-1.17,5.62-0.95,7.42,1.8C206.44,356.49,206.75,355.01,204.85,353.63z M206.01,368.26c-3.29,0.42-4.35,3.07-5.83,5.41
		C202.94,372.81,204.21,370.16,206.01,368.26z M202.73,375.57c1.48-0.11,2.01-0.74,2.23-1.91
		C203.68,373.98,203.26,374.62,202.73,375.57z M209.19,346.11c-1.91,0.53-1.06,1.59-0.74,2.86
		C209.72,348.12,209.93,347.27,209.19,346.11z M424.78,491.31c-7.95-0.28-10.11-5.04-11.61-1.49c-0.34-0.2-5.12-1.42-6.52,2.66
		c-1.45-2.46-8.47-3.42-5.09,2.97c3.29-1.7,6.89-1.17,10.28-1.38c1.08-0.87,0.73-3.07,1.32-4.25c1.97,1.17,0.37,2.81,0.37,4.36
		c3.39,1.38,7.21,1.48,10.18,4.66C424.14,495.98,424.35,493.86,424.78,491.31z M132.24,483.15c2.3,1.08,8.69,7.24,8.69,5.42
		c-1.82-2.6-4.76-4.5-4.56-8.28c1.7,4.24,5.83,6.57,7.95,10.49c-0.61-0.09-1.15-0.26-2.12-0.42c0.83,0.52,1.26,1.83,2.57,1.49
		c21.16,17.73,21.25,10.5,27.11,24.16c6.3,14.69,3.58,18.67,19.93,31.37c14.59,11.34,14.69,17.48,32.01,25.33
		c5.27,2.39,0.72-0.68,19.82,1.8c7.69,1,28.29-5.53,32.96-7.21c9.12-3.27,15.67-9.12,17.17-19.5c1.57-10.81,1.04-21.47-2.97-31.8
		c-2.54-6.54-23.07-25.73-29.47-30.31c-9.05-6.48-33.56-17.25-43.56-15.16c-2.01,0.42-4.03-0.32-6.04-0.85
		c-0.95-0.32-1.8-0.85-1.06-2.86c4.77,1.48,9.76,0.78,14.52-0.11c8.28-1.53,16.21,0.66,24.27,1.7c1.52,0.2,30.07,1.65,30.95,1.7
		c0.21,2.12,1.69,2.66,3.5,3.07c4.23,0.97,8.48,2.08,12.82,2.65c7.97,1.06-8.01,3.02-23.42-3.5c-5.75-2.43-15.69,1.84-24.59,0.21
		c-1.7-0.31-3.39-1.06-6.25-0.32c19.82,5.62,34.87,16.11,44.3,33.07c1.27,0.95,1.8-0.42,2.86,0.11c0.85,1.59,1.72,3.38,2.76,5.09
		c9.56,15.79,11.73,40.07-2.23,53.1c-9.84,9.19-18.26,9.71-29.78,13.14c-4.47,1.33-8.8,2.76-13.46,2.44
		c-0.42,0.95,0.21,1.06,0.74,1.17c27.24,5.64,20.26,6.55,65.08,7.95c22.15,0.69,36.01,4.9,41.97,1.48c1.48-0.85,3.82-0.97,5.62-0.74
		c6.79,0.88,13.25-0.81,19.82-1.27c2.76-0.2,4.66-1.7,5.41-4.77c9.33,3.82,18.97,2.22,28.51,2.54c3.07,0.1,6.04,1.48,9.65,0.95
		c2.66-20.52-0.18-11.63-3.6-36.46c-7.94-1.48-14.57-6.78-22.6-7.8c7.49,0.65,14.99,1.12,22.39,3.99
		c1.38-12.93,3.71-25.86,3.5-38.79c-0.53-1.17-1.91-0.85-2.33-1.91c0-2.44,2.89,1.52,2.33-4.03c-1.38-0.85-2.86-2.03-4.45-2.65
		c-6.19-2.42-17.99-2.17-18.52,0.27c-0.05-0.11-12.52-3.18-14.23-3.44c-5.62-0.85-10.92-0.95-14.84,4.45
		c0.85-5.62,2.54-7.84,8.06-7.74c6.36,0.11,13.04,0.64,18.97,3.92c1.8-1.7,0.42-3.6-0.11-5.51c-6.89-3.29-14.2-5.3-21.94-5.3
		c-0.95,0.64-0.64,2.33-2.23,2.86c-1.38,0.11-0.11-1.7-1.06-2.12c-9.43-0.42-18.76-2.44-28.41-2.65c-1.28,2.02,8.88,2.59-12.82,0.74
		c2.12-0.85,4.35-0.11,5.94-1.8c-7.84-5.51-17.96-5.65-25.86-11.02c-2.02-1.37-8.86-1.7-13.04-4.77
		c-11.33-8.33-19.58-7.33-42.4-13.67c-0.85,2.44,1.38,2.01,2.01,2.86c-0.21,2.33-0.11,2.54,5.41,10.07
		c-3.71-2.33-8.7,0.85-11.55-2.12c-2.44-2.54-6.04-3.29-8.06-6.04c0.92-0.92-1.48-1.91,10.92,4.98c-0.73-6.97-3.79-13.13-3.31-19.67
		c-1.92,0.3-3.7,1.62-6.66,0.91c5.21-2.13,6.96-3.15,6.89-1.55c3.92-4.99,19.44-12.21,10.28-19.33c-8.92-6.94-0.23-9.77-8.48-10.6
		c-1.27,1.38-0.74,3.92-3.29,4.56c-1.59-1.06-1.14-2.1,0-3.5c5.21-6.42,3.25-6.86-0.74-10.28c-2.47,4.63-7.1,2.86-6.68-0.32
		c0.95-1.17,1.7,0.32,2.76,0c1.27-0.64,2.13-2.11,3.5-2.97c6.12-3.84-3.7-7.68-11.34-10.92c-11.18-4.73-1.56-9.09-9.12-12.93
		c-2.51-1.27-11.2-7.28-11.87-10.18c-1.38-0.53-2.12,1.27-3.71,0.74c3.92-5.62,9.22-10.49,8.06-18.12
		c-0.89,7.01-10.86,19.25-14.63,24.27c1.38,0.95,1.91-0.95,2.97-0.53c-1.17,4.35-1.38,4.56-7.1,7.74c1.98,7.68-1.41,2.78-3.92,36.99
		c-0.45,6.13,4.24,14.21,2.76,16.85c-6.08-3.98-10.1-15.39-14.94-11.45c1.8,2.12,0.96,6.13,5.07,6.67c0-0.35,0.2-1.39,1.72-0.63
		c1.48,0.85,2.65,1.91,2.65,4.03c-2.44,1.48-2.65,4.24-3.29,6.47c13.33,19.75,7.04,10.95,5.19,10.81
		c-2.75,6.42,8.1,1.85,17.81,35.82c2.41,8.44,6.27,6.22,7.74,12.08c-5.09-2.76-8.69-5.94-11.55-10.6c2.33-1.38,1.39-3.4,0.42-5.09
		c-3.93-6.84-17.47-30.61-25.65-34.66c-2.43-1.2-0.27-4.06-1.59-6.04c-0.74-4.03-3.5-7.31-4.66-11.55c1.17-0.32,0.74-3.29,3.39-1.8
		c-0.11,3.39,0.95,6.25,2.97,8.8c-0.42-6.15-1.51-12.06-6.15-16.64c-2.03-2-3.29-4.66-5.41-6.68c-6.25-5.94-19.07-6.99-26.5-1.48
		c-11.13,8.25-8.26,3.69-11.76,8.69c-8.33,11.86-10.51,12.7-11.34,20.77C123.24,465.2,118.54,476.69,132.24,483.15z M189.69,435.99
		c0.74-0.53,0.21-0.95-0.21-1.48C189.27,435.03,189.37,435.56,189.69,435.99z M192.76,431.43c-0.32-0.85-0.64-1.38-0.74-2.12
		C191.91,430.05,191.7,430.79,192.76,431.43z"/>
	<path d="M80.41,239.8c3.79-4.97,6.1-12,9.22-15.9c3.21-4.01,3.18-3.92-0.11-7.74c0.64-1.59,0.11-3.29-0.32-4.98
		c-1.98-7.93,4.02-4.96,0-15.16c-0.9-2.7-4.6-6.81-2.65-8.16c2.01-0.95,2.44,1.17,4.03,0.53c-1.91-5.09-1.48-10.28-0.42-15.69
		c0.85-1.38,2.86-1.27,4.35-2.44c-2.01-1.8-5.3-1.59-6.25-4.88c2.97-0.42,2.23-3.5,3.6-4.88c1.59,0.11,2.01,2.01,3.6,2.01
		c-0.45-3.77-5.23-7.27,0-9.65c2.54-0.64,5.3,1.06,7.53-0.95c5.21,3.72,2.74-5.02,10.39,14.31c12.21-1.2,17.35-11.19,25.33-4.24
		c19.42-11.24,17.88-12.6,23.85-6.36c2.01,0.53,3.6-1.38,6.04-0.85c0.95,0.21,0.95,2.01,2.54,2.44c1.06-1.48,2.85-2.51,4.66-1.91
		c9.91,3.32,11.95-2.22,15.79,0.32c1.08,0.71,2.01-0.21,3.07,0.21c0.32,2.86,2.65,5.09,2.76,8.06c0.52,14.45,10.8,16.65,15.16,14.1
		c2.12,2.33,5.72,2.44,7.95,4.77c9.64-7.37,41.35-21.68,41.35-18.26c-4.62,2.83,6.35-3.28-41.45,20.38
		c21.3-5.41,41.23-3.29,58.82,10.92c10.14-6.34,7.27-5.46,9.01-6.04c0.64,2.65-1.88,2.78-2.86,3.92c-5.11,5.92-6.34-0.38,6.68,15.16
		c1.91,0.32,2.44-1.38,3.82-1.91c0.74,2.01-1.27,2.76-1.8,4.56c4.45,5.09,5.66,11.96,8.27,18.23c0.97,2.33,0.12,5.51-0.21,8.37
		c-2.64,23.08-6.66,23.3-19.29,29.04c18.23,0.96,101.38-8.48,119.35-11.24c-0.61-1.23-11.57-7.14,4.35-1.38
		c1.17,0.42,2.12,1.06,3.39,1.06c31.75,0,25.77,1.85,30.84,1.27c2.89-19.9-0.6-13.06-3.6-37.1c-5.83,0.42-9.96-4.35-15.47-5.41
		c5.19,0.53,10.39,0,15.37,2.44c1.27-13.35,3.71-26.39,3.5-39.96c-7.31-1.59-14.52,0.74-21.73-0.74
		c26.7-6.47,20.34,7.32,22.89-15.16c-3.6-0.32-7.1-0.21-10.6,0.42c-28.33,5.14-33.49-5.4-60.63-6.36
		c-7.21-0.25-14.31-2.21-21.62-1.38c-12.18,1.38-19.31,6.46-33.92,3.5c-9.65-1.96-21.01-2.01-22.05-1.27
		c-7.84,4.77-17.25,5.09-25.54,8.37c-2.5,0.99-7.95,0.64-3.07-1.38c8.98-3.71,34.93-11.87,44.62-9.96
		c20.8,4.09,38.32-3.14,48.12-2.44c47.95,3.44,56.97,13.34,75.68,7.1c5.18-1.73,8.21,0.63,13.04-1.17
		c4.96-1.85,10.07-2.01,14.63,1.7c0.26,11.93-4.18,16.98-3.39,11.45c-5.38-1.04-6.81,0.91-12.19-2.67
		c-0.76-0.76,3.26-1.43,2.34-7.18c3.82,2.01,7.63,1.59,11.66,1.38c-1.8-2.12-7.42-2.97-12.61-2.01c-1.94,2.71-2.12,9.32-1.37,10.49
		c3.27,1.47,7.92,0.08,10.71,2.86c1.55-1.21,1.17-0.7,1.7-0.43c-1.17,2.12-1.17,2.12-2.01,0.74c0.7-0.7-0.7,0.3-10.81-0.53
		c1.38,2.65,4.66,1.59,6.36,3.82c-2.33,0.42-4.45-1.06-6.57,0.11c-0.21,1.42-0.34,2.6-0.42,3.61c1.89,0.11,2.95,0.74,4.43,1.69
		c-2.11,0.32-3.48,0.52-4.43-1.66c-0.63,8.26,2.78,3.96,4.03,6.64c-1.48,1.17-3.29-1.06-4.45,0.64c0.64,1.48,2.54,0.42,3.07,1.91
		c-0.74,1.17-2.44-0.11-3.18,1.38c-0.32,7.53-1.38,15.05-2.33,23.11c14.82,0,12.93-0.32,12.93,0.95c-4.03,2.01-8.8,0-12.93,1.7
		c-0.21,5.3,1.17,10.28,2.12,15.26c22.46,1.25,4.99,1.85,0.42,2.86c1.06,1.8,0.32,3.82,1.91,5.19c2.12-1.17,4.24-1.7,7.42-0.85
		c-8.23,4.99-7.21-2.77-7.21,14.2c4.77,0.32,9.22,0.11,13.57-0.21c0.27-4.65-3.01-16.05-2.01-19.82c2.44,4.03,4.77,22.58,3.07,23.42
		c-0.95-0.42-0.21-1.91-1.59-2.33c-4.03,2.01-8.69,1.27-13.14,2.01c3.92,1.91,8.16,0.32,12.19,1.27c-0.74,0.85-1.91,0.74-2.23,1.8
		c0.53,0.64,1.91,0,2.33,1.48c-5.41,2.97-11.02,2.76-16.32,1.27c-11.92-3.35-40.54-2.77-52.36-0.74
		c-16.11,2.77-32.54,1.68-48.76,4.88c-39.96,7.87-79.96,3.9-72.07,1.27c5.94-1.27,11.24-3.91,16.85-6.04
		c7.75-2.95,13.82-11.55,12.82-21.09c-1.88-18.01-11.15-28.45-23.85-41.55c-16.58-17.11-57.61-18.09-82.99,6.25
		c-0.74,0.64-1.38,1.7-3.07,1.06c7.53-9.86,18.55-14.84,28.62-21.3c-3.17-2.61-13.55-2.99-18.34-7.63
		c-4.16-9.37-0.74-23.63-14.2-17.59c-5.62,2.52-8.76-4.84-11.34,1.27c0.74,1.8,3.6,2.65,1.91,5.62c-4.03-1.48-2.76-7.53-7.31-8.48
		c-1.27,0.42-2.86,0.85-4.77,1.48c3.2,4.11-0.63,8.13-3.39,5.83c0.64-1.27,0.84-3.28,0.53-5.94c-0.94-8.16-4.25-4.02-16.32,4.03
		c-8.78,5.85-6.44-4.08-15.79,1.17c-4.22,2.37-8.69,4.35-13.78,4.88c-0.94,0.63,0.89,3.2-1.69,3.07c0.13,3.14,1.39,5.97,2.85,8.8
		c1.27-0.85-0.32-2.12,1.06-2.86c2.97,2.65,3.5,6.15,2.54,10.39c7.38,0.63,30.23,31.42,41.34,16.53c1.27,2.33-1.7,3.71-0.64,5.62
		c2.97,0.21,5.93,0.23,8.8,0.64c13.75,1.96,15.83-8.77,18.44-8.06c-0.32,4.35-3.39,6.78-6.36,9.43c1.48,1.59,4.77,0.21,5.3,3.07
		c-1.99,3.08-13.26-2.84-22.36-0.95c-10.38,2.15-21.08,1.85-31.48,4.45c-19.56,4.89-37.27-3.83-44.62,16.11
		c-1.55,4.2-5.51,5.21-5.3,13.25c0.26,9.99,10.48,18.17,18.23,22.15c11.62,5.98,12.34,9.3,18.76,8.59
		c2.23-4.03,7.53-1.48,10.18-4.66c-1.8-0.85-4.03,0.42-5.94-2.23c4.13,1.06,6.89-1.17,9.65-1.48c1.8,0.53,0.32,2.01,1.48,2.44
		c6.71-1.92,14.15-2.39,22.26-4.98c22.55-7.2,32.23,2.29,35.29,2.33c39.25,0.58,24.35-3.99,45.58-3.39
		c22.68,0.64,22.28,0.09,23.42,1.8c-8.06,0.64-15.78,1.93-23.74,0.42c-2.96-0.56-6.24-0.08-9.12,1.38
		c-31.08,15.77-45.46-8.03-65.61,0.11c-8.6,3.47-17.38,5.3-26.6,5.83c-3.82,4.35-9.43,4.45-14.52,5.51
		c-9.52,1.99-10.93-2.66-25.86-11.02C82.87,264.39,74.1,248.08,80.41,239.8z M458.48,163.17c-2.44,1.91-5.09,0.21-8.06,0.74
		c2.54,1.59,5.19,1.06,7.42,2.33C458.8,165.18,458.59,164.33,458.48,163.17z M446.19,258.98c-0.11-0.64-0.42-0.95-1.17-1.06
		C444.6,259.09,445.13,259.3,446.19,258.98z M92.71,164.97c-0.32,2.12,1.17,1.91,2.23,2.44C94.93,165.82,94.3,165.18,92.71,164.97z
		 M136.38,205.24c0-1.27-0.85-1.48-2.01-1.91C134.47,205.03,135.21,205.46,136.38,205.24z M132.14,211.92
		c-0.11-1.17-1.17-1.17-2.01-2.33C130.44,211.92,130.44,211.92,132.14,211.92z M128.74,201c0.98-0.98,1.38,0.32-5.09-6.15
		C124.61,197.72,125.88,200.26,128.74,201z M119.74,195.07c-0.95-2.65-2.44-3.5-4.24-4.13
		C116.34,192.63,117.62,193.69,119.74,195.07z M114.54,183.09c-0.42,0.95-0.21,1.59,0.64,2.23
		C115.5,184.58,115.6,183.83,114.54,183.09z M111.79,207.58c1.48-1.48,1.59-3.5,3.39-4.77c-1.06-0.74-1.48-1.06-1.8-1.27
		C112.42,201.75,111.36,205.99,111.79,207.58z M114.97,193.58c-2.23,0.11-2.23,0.11-3.82,3.07
		C112.32,195.7,113.48,194.75,114.97,193.58z M112.32,187.12c0.32-3.07-0.95-5.3-1.7-8.06
		C109.45,181.82,109.98,184.05,112.32,187.12z M109.24,167.83c1.18,3.4,2.96,3.48,2.96,3.93c1.01-1.01-3.4-14.5-11.87-16
		C105.21,158.82,107.6,163.08,109.24,167.83z M97.9,184.47c0.53-1.06-0.21-1.38-1.06-1.8C96.63,183.94,96.74,184.68,97.9,184.47z
		 M101.19,175.35c-0.42-2.65-1.8-3.39-4.13-2.76c-0.95,1.06,1.48,1.27,0.74,2.12c-0.53,1.8-2.23,1.48-2.97,2.54
		c0.11,1.17,0,2.44,1.38,3.5C96.63,177.79,97.8,175.57,101.19,175.35z M94.3,194.75c1.82,0.4,2.5-2.44-0.32-2.44
		C93.56,193.37,93.77,194.01,94.3,194.75z"/>
	<path d="M795.32,268.63c-13.81-2.56-23.84,4.95-54.48-1.59c-15.33-3.27-12.76,3.51-30.21,1.48c-10.68-1.24-28.89,0.56-43.46-3.6
		c-9.03-2.58,1.9-15.77,0-23.74c-5.94-0.74-11.55-2.12-16-6.36c1.17-3.6,2.9-6.78,2.86-10.39c-0.11-9.89,7.97-13.12,7.21-18.65
		c-0.55-4.02,0.9-7.62,1.48-11.45c0.35-2.33-0.32-4.88,0.85-7c2.23-0.53,2.65,2.23,5.19,2.33c-3.07-3.07-2.55-6.99-4.66-10.07
		c-6.79-9.85-14.81-18.87-20.77-29.36c-1.46-2.56-26.26-19.41-30.84-38.69c-0.61-2.55-2.12-4.56-3.71-6.78
		c-0.32,11.34-2.23,22.26-7,31.8c2.44,7.31,10.07,7.95,13.99,12.51c-0.85,2.86-3.16,4.35-3.71,6.78
		c-3.66,16.13-15.48,23.78-32.96,46.21c-7.71,9.89-7.49,17.36-9.01,30.74c-2.15,18.96-14.65,17.66-21.41,25.54
		c-0.32,0.32-0.95,0.64-1.7-0.11c2.86-4.77,5.19-9.96,11.02-12.4c-13.46,2.44-26.92,4.35-37.94,13.57
		c-0.55-5.79,32.52-17.74,39.96-15.9c4.41,1.09,6.56-7.44,6.68-12.29c0.95-38.56,37.29-52.86,44.73-81.29
		c-18.45-10.85,0.12-2.42-35.08-26.39c-10.52,9.2-5.76,13.2-11.13,20.35c-14.24,18.96-20.08,26.22-26.82,30.63
		c-10.68,7-16.07,18.88-20.56,31.16c-0.85-0.64-1.48-1.17-2.12-1.59c2.12-0.32,2.03-2.32,2.54-3.5
		c12.4-28.61,22.17-25.77,29.25-35.82c9.94-14.11,17.94-20.57,19.08-26.82c2.85-15.64,12.38-12.66,6.15-17.38
		c-10.82-8.21-24.3-26.85-29.57-32.65c-11.37-12.49-5.03-15.94-9.01-14.94c-10.08,8.91-2.9,3.35-13.78,18.02
		c-5.25,7.08-14.57,16.57-14.2,21.41c0.11,1.48-0.42,3.5-2.23,3.92c-4.86,0.86-5.42,21.99-15.9,22.47
		c-6.38,0.29-18.02,2.68-17.38,8.69c0.46,4.31,0.87,2.69-10.71,9.96c0.85-4.98,4.98-5.62,7.53-7.84c0.21-2.33-0.75-5.2,1.91-6.68
		c5.39-2.99,10.7-6.63,17.28-6.36c8.67,0.36,0.07-7.07,28.3-43.35c2.55-3.28,5.83-6.15,7.21-9.86c2.44-6.57,7.74-10.71,11.55-15.47
		c1.48-0.74,2.12,0.64,3.18,0.21c15.07-26.37,38.18-53.55,50.13-60.41c21.42-12.3,19.38-5.83,24.59-7
		c10.92-2.44,15.16,7.47,21.52,14.41c24.91,27.22,21.43,34.16,24.91,41.44c48.86,102.24,49.24,132.28,55.22,122.53
		c3.37-5.49,4.29-1.12,11.23,5.83c0.95,0.85,2.33,1.8,0.64,3.5c-3.39-1.48-5.51-4.88-8.59-7.42c-1.79,5.68-6.3,0.98,1.59,13.57
		c1.06,1.69,2.44,3.82-1.17,5.94c-0.95-5.94-5.06-9.77-7.74-14.41c-4.1-7.12-6.9-14.94-10.81-22.05
		c-6.02-10.95,5.59,4.43-29.68-73.03c-6.76-14.85-11.44-30.58-18.34-45.36c-1.04-2.23-2.98-3.81-4.13-5.62
		c-5.34-8.35-10.03-17.1-16.96-24.38c-2.46-2.58-5.23-12.29-14.41-12.29c-11.33,0-10.67-1.12-15.16,0.74
		c-15.21,6.3-20.5,12.88-23.32,16.85c-8.48,11.98-18.88,20.09-31.9,40.91c-1.92,3.07-3.92,6.25-7,8.8
		c10.18,19.82,25.76,34.76,42.61,48.97c1.59-5.09,3.39-9.54,7.53-12.72c3.71,6.25-0.11,10.71-3.71,15.37
		c5.83,3.39,10.92,7.21,15.37,12.4c9.67-22.86,5.79-12,5.72-21.94c-0.05-7.42,1.7-14.84-0.21-22.36c-1.16-4.56,0.42-9.22,2.44-13.78
		c4.7,6.04-2.82,2.42,6.78,29.25c13.6,37.99,23.28,23.83,43.14,57.45c0.84,1.42,15.94,18.99,19.71,39.32
		c0.43,2.33,1.27,4.66,2.97,6.78c2.33-0.74,4.88,0.11,7.31-0.74c0.85-2.97-0.21-6.04,0.64-9.33c2.12,2.86,2.54,5.83,3.07,8.9
		c6.57,0,12.61-1.7,18.34-4.13c-0.21-2.65-2.01-4.56-1.91-7.31c2.12,1.7,2.33,4.35,3.92,5.94c3.07,0.11,5.51-3.29,9.33-1.17
		c-11.23,8.9-23.85,11.66-37.84,11.66c4.66,4.35,10.49,6.99,16.53,8.37c8.01,1.84,7.58-1.63,15.79-7.21
		c3-2.04,7.91-10.02,6.15-20.03c-1.07-6.07,7.04-6.55,9.75-5.41c1.59,3.18,4.24,5.83,6.47,8.59c3.07-0.42,5.83,1.59,8.9-0.32
		c1.06,5.73,6.63,3.75,12.82,10.92c3.92,4.53,7.21,1.01,11.87,1.59c5.94,0.74,11.87,1.7,17.81,2.44s10.74,7.22,9.01,13.99
		c-0.62,2.44-2.76,3.29-4.03,5.09c6.47,1.59,12.93-1.17,18.87,0.95c1.48,5.09,6.47,6.36,9.01,10.49
		C818.22,260.98,800.71,269.63,795.32,268.63z M665.91,190.72c-0.41,5.22-2.38,18.49-5.72,23c-6.63,8.94-1.41,12.2-5.72,19.4
		c3.07,3.18,5.94,4.24,12.93,4.98c0.32-5.3,1.87-9.88,4.35-14.2c4.06-7.09-2.58-15.05,2.76-21.41
		C674.28,196.87,669.19,195.07,665.91,190.72z M743.49,203.12c-1.91-0.85-1.27-4.35-4.66-3.5c3.07,3.07,5.09,6.89,9.22,9.33
		c0.42-2.12,0.42-3.71,1.17-4.88C747.41,201.53,745.29,202.49,743.49,203.12z M794.26,224.11c0.67-4.13-1.07-7.27-5.09-8.27
		c-2.87-0.71-6.04-1.99-8.8-1.48c-9.33,1.72-16.55-0.32-18.44-0.32c-2.44-2.23-5.3-4.13-7.53-7.21c-1.17,1.48-2.23,2.76-3.39,4.24
		c13.9,9.73,12.06,8.9,15.05,9.65c14.83,2.54,20.75,8.81,23.32,9.33C791.4,228.46,793.76,227.19,794.26,224.11z M818.74,242.87
		c-2.97-2.97-8.06-3.39-9.22-7.84c-6.25-0.85-11.99,0.46-17.59-0.74c-9.88-2.12-10.15-7.41-14.2-4.03c-1.8-4.03-5.51-4.35-8.69-5.19
		c-1.59,0.11-0.74,2.65-2.65,2.23c-1.17-0.74,0.42-1.59-0.11-2.65c-1.7-0.74-3.5-0.85-4.98,0.32c-2.01-0.74-0.85-3.07-2.76-3.92
		c-1.38-0.11-2.01,2.33-3.82,1.8c-4.03-0.95,0.21-5.3-3.07-6.78c-1.48-0.11-2.97,1.8-4.66,0.64c-1.59-1.48,0.95-4.66-2.33-5.62
		c-1.7,0.85-2.76,3.18-5.41,2.44c-0.85-2.23,1.17-3.6,1.7-5.83c-2.97-5.94-9.01-9.86-11.98-15.69c-1.59-0.74-2.65-0.11-3.82,0.42
		c-1.05,2.28,2.51,9.69-2.01,15.79c-14.78,19.94-16.83,21.42-36.57,11.55c-4.88-2.44-8.27-5.72-10.39-10.71
		c-0.74,2.65-0.55,5.2-0.11,7.63c1.73,9.44-6.07,11.68-4.56,23.64c0.79,6.3-4.54,16.32-3.5,20.24c7.08,3.63,40.51,4.09,48.44,3.6
		c13.22-0.81,6.2-4.68,35.93,0.53c18.99,3.33,29.83-2.18,43.56,0.11C798.48,265.23,813.93,261.22,818.74,242.87z"/>
	<path d="M529.81,588.19c3.07-4.56,5.19-9.86,11.02-12.19c-11.29,1.37-29.91,5.61-37.73,13.78c-1.9-5.69,30.11-17.13,40.7-16.11
		c1.27,0.12,1.91-1.17,2.65-2.23c4.87-6.95,1.6-20.31,7-30.42c4.93-9.25,9.35-18.84,16.96-26.39
		c10.97-10.89,20.35-21.87,23.64-34.87c-15.34-8.33-0.03-1.67-35.08-26.29c-11.7,9.94-2.88,11.02-16.53,27.45
		c-6.69,8.05-11.96,17.2-20.99,23.21c-10.64,7.09-16.52,19.15-20.67,31.27c-1.17,0.11-1.38-1.06-2.23-1.17
		c2.12-0.64,2.01-2.65,2.76-3.71c12.96-29.7,21.48-24.5,29.15-35.4c11.06-15.74,18.36-20.3,19.71-29.15
		c1.1-7.22,7.74-11.61,7.74-13.25c-13.83-11.23-19.4-20.48-26.5-28.51c-5.42-6.13-10.99-11.96-12.72-20.24
		c-0.11-0.53-0.74-0.85-1.38-0.74c-9.78,8.28-3.24,3.67-13.99,18.23c-5.54,7.51-14.38,16.4-13.99,21.2c0.11,1.38-0.42,3.2-1.59,3.6
		c-6.96,2.39-5.58,22.47-16.64,23c-6.47,0.31-18.36,2.66-17.38,9.01c0.65,4.23-0.44,3.18-10.18,9.22c0.21-4.56,4.45-5.09,7-7.31
		c0.21-2.33-0.85-5.09,1.8-6.68c5.3-3.18,10.6-6.68,17.17-6.47c3.18,0.1,4.97-1.8,5.51-4.45c3.36-16.57,23.72-38.87,28.83-47.06
		c4.22-6.78,11.77-19.71,15.79-16.75c12.11-21.43,49.54-74.17,73.24-67.73c2.01,0.55,9.19-4.1,17.28,6.89
		c9.59,13.04,10.72,9.78,19.5,24.06c14.65,23.82,0.87,1.8,18.12,40.38c31.73,70.95,36.01,93.52,46.21,109.59
		c1.59-1.06,1.7-2.54,2.54-3.6c3.37-4.24,3.98-0.05,11.13,7.1c0.85,0.85,1.7,1.91-0.11,3.07c-3.29-1.7-5.41-4.77-8.59-7.63
		c-0.32,2.33-2.33,3.18-3.07,4.88c3.82,9.12,9.09,12.15,3.39,14.52c-0.95-5.72-4.86-9.44-7.53-13.99
		c-4.22-7.22-7.1-15.26-11.13-22.68c-2.76-5.09-3.42-10.91-5.41-16.22c-11.82-31.62-20.74-47.29-27.03-63.06
		c-21.2-53.21-13-33.98-19.5-44.2c-21.08-33.13-14.37-18.76-20.35-29.57c-4.8-8.68-11.02-6.64-21.2-7.31
		c-5.47-0.36-23.15,8.52-30.53,20.88c-3.51,5.87-16.62,16.58-29.25,37.2c-2.06,3.36-4.03,6.78-7.31,9.43
		c10.18,19.93,25.76,34.87,42.71,49.07c1.48-5.19,3.39-9.65,7.53-12.82c3.6,6.25,0.21,10.71-3.82,15.37
		c5.83,3.39,11.02,7.31,15.79,12.93c1.59-6.25,4.45-11.13,6.36-16.64c-3.05-3.81,1.21-17.75-1.27-27.98
		c-1.1-4.55,0.53-9.12,2.44-13.78c1.8,2.01,2,3.81,1.8,5.94c-1.03,10.85,9.26,42.81,25.33,54.8c14.47,10.8,21.15,24.02,24.27,27.77
		c22.06,30.94,15.16,36.01,21.09,44.3c2.44-0.95,5.09,0.21,7.74-1.17c0-2.86,0-5.72,0-9.12c2.54,2.97,2.54,6.25,3.5,9.12
		c6.57-0.11,12.51-1.8,18.23-4.13c-0.21-2.76-1.91-4.77-1.91-7.53c2.23,1.8,2.33,4.66,4.13,6.15c2.97-0.32,5.51-3.29,9.33-1.27
		c-11.55,8.8-24.06,11.76-37.52,11.98c6.41,5.7,20.37,12.44,26.29,5.09c3.08-3.83,5.31-2.64,8.59-7.84
		c8.09-12.83-1.81-20.36,7.21-22.05c1.9-0.35,3.82-0.74,5.83,0.11c1.59,3.29,4.35,5.72,6.47,8.59c2.97-0.42,5.83,1.59,8.16,0.11
		c1.8,0.42,1.16,2.13,1.8,2.44c5.45,2.57,9.76,6.77,14.84,9.75c1.69,0.99,43.15-4.02,35.29,17.81c-0.61,1.7-2.86,1.8-3.39,3.6
		c6.36,1.27,12.82-1.27,18.76,0.85c1.48,5.09,6.47,6.47,8.8,10.18c-1.06,12.08-12.56,23.31-23.42,26.18
		c-4.19,1.11,0.17-1.61-22.79,0.85c-27.62,2.96-37.64-6.65-50.24-1.8c-4.16,1.6-44.05,1.18-57.98-2.76
		c-8.83-2.5,1.9-16.33,0.11-23.85c-6.04-0.53-11.55-2.12-16.11-6.25c5.61-15.89,1.15-14.48,7.74-22.68c1.37-1.7,2.56-3.71,2.44-5.94
		c-0.28-5.09,1.32-9.86,2.01-14.73c0.2-1.38-0.95-2.97,0.64-4.13c2.01-0.53,2.33,2.33,4.77,2.23c-2.97-3.07-2.56-7.09-4.77-10.28
		c-34.62-50.01-14.65-18.82-42.08-50.24c-10.69-12.24-6.44-14.84-13.04-24.27c-2.28,15.1,0.87,10.72-7,32.01
		c2.12,7.21,10.18,7.53,13.99,12.61c-1.27,2.54-3.3,4.24-3.92,6.68c-4.16,16.38-15.36,23.64-32.75,45.89
		c-9.81,12.55-6.92,20.98-9.33,32.75c-3.66,17.93-12.51,14.57-21.73,24.06C530.77,588.93,530.24,588.82,529.81,588.19z
		 M726.64,533.28c-2.23-0.74-1.48-4.35-5.09-3.5c3.29,3.18,5.19,7,9.22,9.33c0.64-1.8,0.32-3.6,1.38-4.88
		C730.35,532.12,728.44,531.91,726.64,533.28z M777.09,554.27c0.73-4.14-1.05-7.35-5.09-8.37c-3.07-0.77-6.36-2.24-9.22-1.59
		c-7.35,1.67-13.89-0.21-18.23-0.21c-11.71-10.24-4.88-7.68-11.02-3.07c6.47,3.82,11.33,9.48,19.18,10.71
		c7.09,1.1,13.35,4.56,19.29,8.59C774.33,558.62,776.55,557.34,777.09,554.27z M650.64,590.94c7.08,3.63,40.51,4.04,48.44,3.6
		c13.17-0.73,4.56-4.67,35.61,0.42c21.56,3.54,29.95-2.1,43.99,0.21c2.56,0.42,17.77-3.68,22.89-22.15
		c-3.18-2.65-8.06-3.5-9.33-7.84c-6.36-0.74-12.2,0.57-18.02-0.85c-9.34-2.27-9.6-6.92-13.78-4.03c-1.91-3.92-5.51-4.35-8.9-5.09
		c-1.27,0.42-0.74,2.23-2.23,2.33c-1.91-0.53,0.32-1.8-0.32-2.54c-1.8-1.06-3.6-0.53-5.3,0.11c-1.7-0.85-0.64-3.07-2.54-3.82
		c-1.38-0.11-1.9,2.08-3.6,1.8c-4.44-0.73,0.11-5.51-3.39-6.89c-1.38-0.11-2.76,1.59-4.77,0.53c-1.7-1.17,0.95-4.35-2.12-5.51
		c-0.77,0.24-8.91,7.91-3.71-3.18c-3.07-6.04-9.01-9.96-12.08-15.9c-8.5-3.03,0.9,8.8-6.15,17.17
		c-13.75,16.33-14.74,22.09-35.93,10.92c-4.78-2.52-8.69-5.62-10.6-10.92c-0.74,2.76-0.61,5.29-0.11,7.74
		c1.93,9.4-6.07,11.68-4.56,23.64C654.93,577,649.6,587.02,650.64,590.94z M648.63,520.88c-0.53,5.44-2.68,18.82-5.94,23.21
		c-6.46,8.71-1.31,10.79-5.72,19.61c3.82,3.07,8.16,3.92,13.04,4.66c0.67-12.3,7.48-14.9,5.62-21.94c-0.84-3.18-0.37-6.46-0.42-9.75
		c-0.03-1.91,1.48-2.97,2.01-3.92C656.9,526.93,651.91,525.23,648.63,520.88z"/>
	<path d="M445.02,588.72c6.3,2.5,13.27,0.97,16.53,1.91c32.43,7.4,68.1-5.38,69,0c-2.95,7.38-90.8,8.03-88.61-1.48
		C442.79,588.08,443.96,588.3,445.02,588.72z"/>
	<path d="M461.13,261.63c-1.07-0.41-2.33-0.95-1.91-2.97c27.01,1.96,31.53,8.07,88.5,0.11
		C546.74,268.91,479.26,268.57,461.13,261.63z"/>
	<path d="M477.77,522.37c-3.98-18.53-3.86-50.49,3.18-56.92C472.31,504.72,487.01,565.34,477.77,522.37z"/>
	<path d="M495.05,192.21c-3.78-18.57-3.86-50.49,3.18-56.92C490.04,172.57,503.47,233.58,495.05,192.21z"/>
	<path d="M458.16,487.39c5.3,2.89,10.08-2.47,10.49-8.48c0-1.06-0.64-2.54,0.95-3.5c0.95,7.42-1.05,11.37-7,14.31
		c-4.76,2.35-4.95,2.43-4.13,7.84c1.1,7.31,0.53,14.31-4.35,20.46c-4.54-4.54,3.72-5.85,1.59-22.89c-4.03,3.5-7.95,6.25-12.51,8.8
		C442.05,497.14,457.5,493.32,458.16,487.39z"/>
	<path d="M475.33,156.59c2.83,5.01,10-0.96,10.49-7.31c0.1-1.27-0.42-2.65,0.74-4.03c1.59,6.57-0.63,11.36-6.47,14.31
		c-5.08,2.56-5.28,2.54-4.45,8.06c1.09,7.31,0.42,14.2-4.35,20.35c-4.51-4.51,3.59-5.96,1.48-23.11c-3.92,3.92-8.06,6.15-12.4,9.22
		C459.21,166.8,474.77,164.15,475.33,156.59z"/>
	<path d="M209.3,208.64c22.18-1.32,28.67,4.76,40.49,3.29c0.53-0.11,1.27-0.11,1.8,0.42c-1.17,3.51-27.02-0.95-43.99,0.32
		C203.32,212.98,202.86,209.02,209.3,208.64z"/>
	<path d="M437.92,512.62c4.13,5.19,11.13,3.29,16.11,7.42c-5.09,1.91-9.54,1.27-14.52-0.53c0.11,8.27,0.74,15.9-1.38,23.42
		C437.81,532.97,435.69,523.11,437.92,512.62z"/>
	<path d="M455.2,182.24c4.13,5.51,11.34,3.29,16,7.74c-5.19,1.7-9.65,1.06-14.52-0.53c0.32,8.06,0.64,15.69-1.27,23.21
		C455.09,202.81,452.97,192.95,455.2,182.24z"/>
	<path d="M278.83,220.51c-22.88-2.95-6.57-2.59-35.72,0.42c-0.85,0.09-2.01,0.64-2.44-1.27c4.62-2.57,15.27,0.31,22.36-2.01
		c6.52-2.14,24.09,3.63,29.25,7C284.46,225.24,282.11,220.93,278.83,220.51z"/>
	<path d="M535.75,178.64c3.5,19.29,3.71,38.79,3.71,58.29C537.23,217.54,537.97,198.04,535.75,178.64z"/>
	<path d="M518.58,508.8c3.6,19.29,3.71,38.79,3.82,58.4C520.06,547.81,520.8,528.2,518.58,508.8z"/>
	<path d="M138.28,189.56c-6.36-5.09-9.01-15.37-5.72-21.62c7.03,0-0.94,10.19,4.98,16.64C138.81,185.96,138.81,187.65,138.28,189.56
		z"/>
	<path d="M579.42,484c0.83,1.86-6.13,10.17-19.61,15.9c-13.05,5.55-2.9,24.25-13.04,31.27c7.65-13.22,0.56-27.22,11.45-31.9
		C573.53,492.68,574.4,488.68,579.42,484z"/>
	<path d="M595.85,154.58c0.32-0.64,1.68-0.79,0.21,1.17c-10.96,16.44-24.83,9.85-25.97,24.06c-1.15,14.39-1.81,17.98-6.04,21.2
		c4.22-7.47,3.31-11.26,5.09-23.64C570.76,166.02,584.47,169.9,595.85,154.58z"/>
	<path d="M454.03,207.47c-4.24,0.53-7.84,1.8-12.4,1.59c2.12-3.29,4.98-2.33,7.31-3.07c-1.17-1.91-4.35-1.06-4.45-3.6
		c0.85-1.91,2.76-0.53,3.82-1.48c-1.17-1.59-3.71-1.48-3.6-4.03c1.7-2.12,4.24-0.95,6.78-1.8c-1.27,1.59-3.18,1.38-4.24,2.76
		c1.59,2.12,4.56,2.23,5.83,4.35c-0.74,2.23-2.86,0.21-3.92,1.59C450.53,205.14,452.86,204.82,454.03,207.47z"/>
	<path d="M503.74,223.05c-11.42,7.81-12.54,4.49-25.12,5.41c-6.57,0.48-13.35,0.21-20.24,3.18
		C461.48,223.57,490.76,230.52,503.74,223.05z"/>
	<path d="M484.24,554.06c6.17-2.98-1.84,4.45-13.35,4.45c-9.16,0-21.43-0.22-30,3.18C445.61,553.5,470.87,560.52,484.24,554.06z"/>
	<path d="M465.16,216.27c7.95-5.83,10.07-13.04,4.66-22.05C479.86,198.76,475.93,215.79,465.16,216.27z"/>
	<path d="M447.56,546.85c8.16-6.25,10.6-13.35,4.88-22.68C461.33,528.51,460.86,543.75,447.56,546.85z"/>
	<path d="M493.88,492.37c1.06-13.14,0.64-26.18,0.11-39.32C496.96,459.41,496.96,483.68,493.88,492.37z"/>
	<path d="M511.26,162.21c0.74-13.14,0.53-26.18,0.11-39.32C513.91,136.03,514.13,149.07,511.26,162.21z"/>
	<path d="M210.36,235.66c-6.27-9.77-25.52-10.06-27.35-16.32c5.94,1.27,10.61,3.89,15.47,5.94
		C206.67,228.72,207.39,229.41,210.36,235.66z"/>
	<path d="M593.3,88.97c0-1.48,0.95-3.07,3.29-3.5c-1.17,6.36-2.65,12.51-6.25,18.65C586.68,100.04,593.3,95.9,593.3,88.97z"/>
	<path d="M572.42,433.44c-2.43-2.43,3.6-8.16,3.6-14.2c0-1.48,1.06-3.07,2.97-4.03C579.84,419.98,575.6,431.43,572.42,433.44z"/>
	<path d="M462.93,231.95c4.78-3.75,25.33,10.28,17.7,17.91C481.59,241.39,474.17,234.81,462.93,231.95z"/>
	<path d="M445.76,562.22c1.83-4.87,26.02,9.73,17.7,17.59C464.42,570.91,455.83,564.55,445.76,562.22z"/>
	<path d="M141.99,170.48c3.5,3.29,1.17,7.21,1.91,10.71c-3.71-2.65-5.19-6.15-5.83-10.6C139.56,171.96,140.83,170.69,141.99,170.48z
		"/>
	<path d="M597.12,338.69c1.52-0.73,1.78-0.39,7.74,7.31C597.25,348.28,593.88,340.24,597.12,338.69z"/>
	<path d="M615.14,8.1c2.86,2.01,4.45,5.19,7.1,7.95C613.6,17.74,611.01,10.08,615.14,8.1z"/>
	<path d="M443.85,491.84c2.86-3.18,14.94-11.66,17.17-11.87C456.26,485.48,451.17,489.83,443.85,491.84z"/>
	<path d="M244.38,263.64c-5.83-3.29-11.66-1.48-17.91-2.44C233.04,257.71,241.73,258.77,244.38,263.64z"/>
	<path d="M461.13,161.05c2.76-2.01,5.63-3.69,8.27-5.72C487.62,141.31,473.27,158.9,461.13,161.05z"/>
	<path d="M630.08,422.84c-1.7-4.35-6.78-6.25-8.16-10.81C625.52,410.23,628.7,414.36,630.08,422.84z"/>
	<path d="M647.36,92.79c-1.8-4.24-6.36-6.36-8.37-10.92C642.8,80.28,646.19,84.84,647.36,92.79z"/>
	<path d="M630.4,63.43c3.18,2.97,5.72,6.25,7.1,10.49C630.06,67.72,626.36,65.45,630.4,63.43z"/>
	<path d="M620.22,403.98c-7.36-6.4-11.23-8.32-7.1-10.39C616.3,396.56,618.85,399.84,620.22,403.98z"/>
	<path d="M668.55,526.5c-1.27-6.36-2.54-12.61-3.92-18.97C667.92,513.36,669.4,519.61,668.55,526.5z"/>
	<path d="M500.98,439.06c4.45,4.56,7.84,9.65,8.8,16.11C507.45,449.45,503.63,444.57,500.98,439.06z"/>
	<path d="M518.26,109c4.45,4.56,7.84,9.65,8.8,16.11C524.62,119.39,520.8,114.52,518.26,109z"/>
	<path d="M685.73,196.34c-0.53-6.36-2.12-12.61-3.82-18.97C685.09,183.3,686.68,189.56,685.73,196.34z"/>
	<path d="M473.53,247.75c-3.5-0.95-7.63,1.59-11.66-1.38C465.58,244.57,468.55,244.99,473.53,247.75z"/>
	<path d="M445.23,575.57c4.13-1.06,7.63,0.53,11.13,2.01C446.61,577.8,446.61,577.8,445.23,575.57z"/>
	<path d="M207.5,224.96c3.82,0.32,7.53-1.48,11.34-0.32C215.13,226.34,211.42,227.61,207.5,224.96z"/>
	<path d="M468.23,205.88c-3.18-1.7-7,0.32-10.71-1.38C461.13,201.96,464.42,202.38,468.23,205.88z"/>
	<path d="M451.59,536.89c-3.82-2.76-7.74-0.42-11.23-2.44C444.28,532.01,448.41,532.75,451.59,536.89z"/>
	<path d="M438.87,574.51c-2.65,1.91-5.51,2.65-8.8,1.7C432.73,574.3,435.8,574.2,438.87,574.51z"/>
	<path d="M457,244.04c-3.29,2.44-6.36,2.54-9.54,2.33C450,243.93,453.08,244.04,457,244.04z"/>
	<path d="M453.5,222.2c-3.07,1.8-6.36,2.23-9.75,1.59C446.72,221.99,450.11,221.99,453.5,222.2z"/>
	<path d="M436.01,552.26c-3.5,2.01-6.25,2.44-10.39,1.27C429.44,552.26,432.73,552.15,436.01,552.26z"/>
	<path d="M176.44,224.11c3.29,1.17,7.21,0,10.92,2.97C183.44,227.4,180.57,226.55,176.44,224.11z"/>
	<path d="M600.51,383.73c-3.29,0-6.47,0-9.75,0C593.73,381.4,597.65,381.4,600.51,383.73z"/>
	<path d="M439.4,579.71c-2.76,1.06-5.62,1.27-8.48,0.21C433.15,578.22,437.39,578.33,439.4,579.71z"/>
	<path d="M617.68,52.62c-0.61,1.21,1.19,0.85-9.54,0.85C611.32,51.45,614.39,51.56,617.68,52.62z"/>
	<path d="M457,249.44c-3.07,1.17-5.94,1.7-9.75,0.21C450.53,248.28,453.92,248.28,457,249.44z"/>
	<path d="M559.91,221.78c-0.32,3.39-0.42,6.78-2.86,9.65C557.26,228.03,558.43,224.85,559.91,221.78z"/>
	<path d="M539.67,561.48c0.74-3.29,1.27-6.57,3.07-9.54C542.32,555.33,542.32,558.93,539.67,561.48z"/>
	<path d="M106.8,238.21c-2.97,1.91-6.25,3.07-9.75,3.18C96.63,240.12,95.5,240.76,106.8,238.21z"/>
	<path d="M90.16,250.5c3.5-0.11,6.78,0.64,10.07,2.01C96.74,252.62,93.24,252.52,90.16,250.5z"/>
	<path d="M606.66,55.16c-2.44,2.12-4.35,4.66-5.72,7.42C601.14,58.13,602.73,56.11,606.66,55.16z"/>
	<path d="M589.06,385.11c-1.91,2.44-4.13,4.66-5.3,7.63C583.44,388.82,585.88,386.59,589.06,385.11z"/>
	<path d="M252.65,265.66c2.23-0.53,4.56-0.64,6.78,0C257.1,266.82,254.87,266.82,252.65,265.66z"/>
	<path d="M492.29,543.67c0.36-2.15,2.45-5.71,3.29-4.88c-0.32,1.59-2.12,2.44-1.8,4.35c0.42,0.95,1.91,0.95,2.33,2.97
		C494.84,544.84,493.35,545.37,492.29,543.67z"/>
	<path d="M580.05,413.2c-1.06-0.53-1.29,0.84,1.06-5.83c0.32,0.11,0.64,0.21,1.06,0.32C582.6,410.02,581.64,411.71,580.05,413.2z"/>
	<path d="M262.93,211.5c-2.76,1.59-4.88,2.01-7.74,0.64C257.95,211.29,260.07,210.54,262.93,211.5z"/>
	<path d="M596.8,82.93c0.42-3.5,0.42-3.71,2.23-5.51C599.34,80.7,599.34,80.7,596.8,82.93z"/>
	<path d="M613.65,15.63c-2.12,1.7-4.13,2.44-7.1,3.07C608.88,16.47,610.47,14.78,613.65,15.63z"/>
	<path d="M596.27,346.21c-2.12,1.06-4.03,2.23-6.57,2.44C592.88,345.36,593.2,345.26,596.27,346.21z"/>
	<path d="M467.81,587.87c1.8-0.11,3.29,0.53,5.41,2.01C470.25,590.73,468.66,589.99,467.81,587.87z"/>
	<path d="M484.98,257.6c1.8,0.32,3.6,0.53,4.98,2.23C486.67,260.15,486.67,260.15,484.98,257.6z"/>
	<path d="M650.85,102.11c-1.8-0.95-3.18-2.23-3.39-4.45C649.37,98.4,650.22,100.21,650.85,102.11z"/>
	<path d="M224.24,250.61c2.65,2.65,2.65,3.39-0.21,5.51c-0.74-0.95,0.32-1.7,0.21-2.54C224.35,252.62,223.39,251.67,224.24,250.61z"
		/>
	<path d="M633.47,432.28c-1.48-1.17-3.29-2.23-3.6-4.98C632.41,428.57,633.05,430.37,633.47,432.28z"/>
	<path d="M583.02,402.39c1.27-1.8,2.33-3.29,3.39-4.88C585.88,401.11,585.88,401.11,583.02,402.39z"/>
	<path d="M600.4,72.23c0.95-1.59,2.01-3.18,2.97-4.77C603.9,69.89,602.73,71.38,600.4,72.23z"/>
	<path d="M227.95,232.06c-2.33-0.64-3.82-1.17-5.72-2.65C225.09,228.77,226.26,229.94,227.95,232.06z"/>
	<path d="M196.47,177.58c0.19-1.28,1.17-0.85,1.91-0.74c-1.27,1.59-0.42,4.03-2.33,5.51C195.31,180.65,196.23,179.17,196.47,177.58z
		"/>
	<path d="M608.56,69.58c0.21,2.54-0.42,4.03-1.48,6.04C606.66,73.18,606.66,71.48,608.56,69.58z"/>
	<path d="M591.08,400.16c0.11,2.65,0.11,2.65-1.27,4.98C589.59,403.23,589.38,401.54,591.08,400.16z"/>
	<path d="M629.02,20.18c-1.48-1.38-3.39-1.91-5.94-2.97C626.58,16.58,628.17,17.75,629.02,20.18z"/>
	<path d="M608.67,68.09c-0.11-3.29-0.11-3.29,1.48-5.09C610.26,64.81,609.84,66.08,608.67,68.09z"/>
	<path d="M705.12,192.84c-1.7-1.17-2.01-2.33-2.33-4.35C704.59,189.66,705.02,190.93,705.12,192.84z"/>
	<path d="M634.64,435.56c1.59,1.8,2.33,3.18,2.33,4.98C635.8,439.38,634.32,438.32,634.64,435.56z"/>
	<path d="M623.93,54.31c-1.7,0.32-3.18,0.64-4.45-1.06C621.18,53.15,622.66,52.51,623.93,54.31z"/>
	<path d="M687.85,522.58c-1.59-1.7-1.59-1.7-1.59-3.6C687.32,519.93,687.95,520.99,687.85,522.58z"/>
	<path d="M611.85,350.34c-1.48-1.38-3.5-1.91-5.83-2.97C609.41,346.74,611,347.91,611.85,350.34z"/>
	<path d="M606.87,384.58c-1.8,0.21-3.29,0.53-4.77-1.38C604.01,383.31,605.49,382.78,606.87,384.58z"/>
	<path d="M652.13,106.25c1.17,1.17,2.23,2.44,2.33,4.98C653.08,109.32,651.7,108.37,652.13,106.25z"/>
	<path d="M591.5,397.62c-0.21-1.59-0.64-3.18,1.38-4.77C593.2,395.07,592.56,396.34,591.5,397.62z"/>
	<path d="M192.34,189.66c2.01,1.17,3.5,1.91,3.82,4.77C194.67,192.63,192.66,192.42,192.34,189.66z"/>
	<path d="M171.99,223.05c-2.33,0.95-4.13,0.85-5.62-0.64C168.07,222.1,169.87,222.2,171.99,223.05z"/>
	<path d="M495.68,538.8c-0.54-0.54-0.62,0.21,2.97-4.45C498.97,536.68,497.06,537.63,495.68,538.8z"/>
	<path d="M168.07,193.69c-0.11,1.7-0.32,2.76-2.12,3.07C165.95,195.39,166.27,194.43,168.07,193.69z"/>
	<path d="M231.56,220.4c1.17-0.53,2.12-2.12,3.71-0.64C234.1,220.61,233.04,221.25,231.56,220.4z"/>
	<path d="M165.1,199.1c0.53,1.38,0,2.23-1.8,3.5C163.19,200.58,163.51,199.52,165.1,199.1z"/>
	<path d="M613.97,355.01c-1.59-1.17-2.12-2.86-2.12-4.77C613.44,351.51,613.86,353.21,613.97,355.01z"/>
	<path d="M607.5,37.46c-0.95,1.38-2.01,2.23-3.5,2.44C604.64,38.41,605.6,37.46,607.5,37.46z"/>
	<path d="M590.02,367.83c-0.95,1.17-1.7,2.33-3.82,2.54C587.37,368.68,588.43,367.83,590.02,367.83z"/>
	<path d="M629.13,20.08c1.48,1.27,1.91,2.97,2.76,5.51C629.55,23.68,629.13,21.99,629.13,20.08z"/>
	<path d="M511.05,212.87c0.42,1.17,1.91,1.06,2.33,3.07c-1.27-1.27-2.76-0.74-3.71-2.23c-0.13-2.82,1.37-3.55,6.04-9.54
		C516.44,207.52,510.48,209.58,511.05,212.87z"/>
	<path d="M272.89,206.2c-0.32,1.91-1.38,2.12-2.76,2.23C270.45,206.83,271.62,206.62,272.89,206.2z"/>
	<path d="M215.23,239.58c1.38,0.21,1.91,0.74,2.23,1.8C216.19,241.6,215.55,241.17,215.23,239.58z"/>
	<path d="M699.61,178.75c0.53,0.85,2.01,1.48,1.17,3.29C699.72,180.97,699.19,180.02,699.61,178.75z"/>
	<path d="M694.84,166.13c0.85,1.59,1.7,2.54,0.95,4.13C695.26,168.99,694.52,168.15,694.84,166.13z"/>
	<path d="M677.67,496.4c0.85,1.48,1.7,2.44,0.74,4.24C678.31,499.05,677.14,498.2,677.67,496.4z"/>
	<path d="M682.23,509.01c0.44,0,2.04,0.97,1.38,3.5C682.76,511.03,681.59,510.39,682.23,509.01z"/>
	<path d="M120.05,238.52c1.38-0.85,2.65-0.32,3.92,0C122.7,239.16,121.43,239.27,120.05,238.52z"/>
	<path d="M166.37,222.52c-1.17-0.21-2.44,0.21-3.92-0.64C164.25,221.25,165.31,221.67,166.37,222.52z"/>
	<path d="M656.37,128.72c1.06,0.64,1.7,1.17,1.38,2.65C656.58,130.52,655.73,129.99,656.37,128.72z"/>
	<path d="M638.98,458.88c1.38,0.42,1.7,1.27,1.7,2.54C639.51,460.89,638.88,460.36,638.98,458.88z"/>
	<path d="M581.43,357.87c-0.32,1.48-0.95,2.23-2.44,3.07C579.1,358.93,579.84,358.29,581.43,357.87z"/>
	<path d="M599.13,27.39c-1.17,1.7-1.17,3.07-2.86,2.97C596.38,28.98,597.01,28.24,599.13,27.39z"/>
	<path d="M264.73,211.39c0.11-1.48,0.95-1.38,1.91-1.06C266.32,211.39,265.79,211.92,264.73,211.39z"/>
	<path d="M663.04,501.38c0.42,0.42,1.27,0.74,0.53,1.59C662.62,502.76,662.73,502.12,663.04,501.38z"/>
	<path d="M680.43,171.33c0.32,0.42,1.17,0.74,0.32,1.48C679.9,172.49,679.68,172.07,680.43,171.33z"/>
	<path d="M112,236.62c-0.64,0.53-1.17,0.64-1.91,0.11C110.73,236.51,110.94,235.56,112,236.62z"/>
	<path d="M113.38,272.02c0.64-0.32,1.17-0.42,2.01,0.32C114.33,272.97,113.59,273.29,113.38,272.02z"/>
	<path d="M652.97,115.26c0.74,0.53,1.17,0.74,1.06,1.38C653.4,116.74,653.19,116.32,652.97,115.26z"/>
	<path d="M622.24,383.94c0.11,0.53,0.74,0.74,0.32,1.7C622.34,385,621.49,385,622.24,383.94z"/>
	<path d="M156.51,220.19c0.95,0.21,1.48,0.42,0.85,1.27C156.73,221.46,156.41,221.14,156.51,220.19z"/>
	<path d="M639.3,53.89c0.42,0.42,0.85,0.64,0.64,1.27C639.09,55.05,638.88,54.74,639.3,53.89z"/>
	<path d="M654.78,122.57c0.64-0.11,1.06,0,1.17,1.38C655.31,123.31,654.56,123.31,654.78,122.57z"/>
	<path d="M118.36,272.87c-0.74,0,0.18-1.74,1.06-0.64C119.31,272.87,118.89,273.18,118.36,272.87z"/>
	<path d="M246.29,264.7c0.64-0.53,1.27-0.42,1.8,0.11C247.45,265.45,246.82,265.34,246.29,264.7z"/>
	<path d="M107.44,253.47c-0.85-0.42-1.39-0.65-0.64-1.17C107.12,252.09,107.44,252.62,107.44,253.47z"/>
	<path d="M224.24,222.2c-0.42,0.64-0.85,1.38-2.44,0.64C222.86,222.31,223.18,221.14,224.24,222.2z"/>
	<path d="M637.61,452.63c0.74,0,1.38,0,0.95,1.27C638.03,453.58,637.5,453.47,637.61,452.63z"/>
	<path d="M636.76,446.8c-0.53,0.11-0.85-0.32-0.74-0.95C636.33,446.05,636.97,446.16,636.76,446.8z"/>
	<path d="M266,509.75c-8.03,4.32-9.92,0.33-26.6-3.5c-3.28-0.75-5.92-2.48-9.01-3.5c-1.69-0.55-3.18-1.48-2.97-4.45
		C240.14,502.87,252.86,507.21,266,509.75z"/>
	<path d="M227.32,385.11c-1.91,1.06-3.7,2.25-5.72,3.18c-9.24,4.26-4.44,8.3-10.28,9.33C212.45,386.1,229.47,376.51,227.32,385.11z"
		/>
	<path d="M400.93,505.52c0.11,7.21,2.12,14.31-1.06,21.2c0.21-6.04-0.32-11.98-0.85-18.02c-1.59,3.39-2.86,6.68-5.62,9.22
		c0.18-2.4,7.21-16.03,7.21-18.65C403.9,501.28,403.9,502.34,400.93,505.52z"/>
	<path d="M341.36,502.76c4.54,2.65-0.65,8.55-4.24,9.12c-6.07,0.95-9.84,6.68-15.37,5.3C329.07,512.83,337.33,510.6,341.36,502.76z"
		/>
	<path d="M258.9,524.81c-7.74-2.97-15.26-5.19-22.79-8.8C240.03,513.89,254.34,519.72,258.9,524.81z"/>
	<path d="M221.49,398.46c-0.21-4.77,2.44-7.63,6.04-11.02c-0.21,2.23,1.27,2.86,1.91,3.92
		C228.38,395.71,223.82,395.71,221.49,398.46z"/>
	<path d="M225.2,445.74c-6.78,3.07-10.6,1.59-12.51-4.66C215.55,445.31,220.32,444.78,225.2,445.74z"/>
	<path d="M175.7,460.68c-2.65-6.78-8.48-10.92-13.35-15.9C168.07,449.02,174.32,452.84,175.7,460.68z"/>
	<path d="M144.01,434.5c0.53-1.48,1.48-1.27,2.23-1.27c0.5,2.98,5.69,2.84,9.86,8.06C151.96,439.16,146.66,438.85,144.01,434.5z"/>
	<path d="M216.5,516.43c0-5.09-1.7-9.96-1.06-15.47C218.2,507.21,218.73,513.36,216.5,516.43z"/>
	<path d="M129.38,461.85c3.82,3.71,4.13,8.9,5.3,13.67C132.03,471.28,130.65,466.62,129.38,461.85z"/>
	<path d="M359.17,488.13c7.1,0.64,9.65,1.48,11.66,3.6C367.65,492.27,361.5,490.36,359.17,488.13z"/>
	<path d="M232.51,449.87c4.03,0,6.04,3.6,9.12,5.19C238.23,454.11,234.63,453.37,232.51,449.87z"/>
	<path d="M418.1,512.19c-0.64-6.04-0.21-9.54,1.38-11.23C420.11,504.99,419.48,508.59,418.1,512.19z"/>
	<path d="M313.06,479.02c-3.39-0.42-6.47-0.85-10.39-1.27C305.96,475.52,309.88,476.05,313.06,479.02z"/>
	<path d="M182.91,441.39c-2.27-2.72-5.09-4.77-7.63-7.21c4.24,1.06,7.21,4.03,9.86,7.21C184.39,442.66,183.53,442.14,182.91,441.39z
		"/>
	<path d="M145.17,450.08c-1.59-3.29-2.86-6.57-2.65-10.28C144.64,442.98,145.17,446.48,145.17,450.08z"/>
	<path d="M306.17,506.04c-3.18,1.59-6.15,2.54-10.39,2.12C299.39,505.94,299.39,505.94,306.17,506.04z"/>
	<path d="M350.79,518.66c-0.95,3.71-2.86,5.09-7.53,5.72C346.56,523,347.51,519.61,350.79,518.66z"/>
	<path d="M267.7,530.53c-6.47-1.27-7.1-1.59-7.21-5.19C262.93,527.56,266,527.88,267.7,530.53z"/>
	<path d="M346.24,549.5c-2.54,2.01-4.88,3.5-7.84,3.82C340.73,552.04,342,548.87,346.24,549.5z"/>
	<path d="M150.05,433.76c-1.45,0.52-2.49-0.87-3.83-0.65c-1.27-1.37-3.07-0.1-4.97-0.73C146.34,430.37,148.14,430.79,150.05,433.76z
		"/>
	<path d="M146.23,433.12h-0.11C146.14,433.12,146.23,433.11,146.23,433.12z"/>
	<path d="M364.36,534.13c-0.64,2.86-2.76,3.39-4.66,3.92C360.86,536.46,360.86,533.5,364.36,534.13z"/>
	<path d="M301.09,554.91c3.6,0.64,6.25,1.8,8.9,3.92C305.01,557.98,303.95,557.56,301.09,554.91z"/>
	<path d="M349.52,486.54c1.27-0.11,2.01,0.53,2.76,1.06c0.74,0.53,2.01-0.32,2.76,1.06c-1.27,1.27-2.76,1.27-3.71,1.38
		C350.69,488.77,350.16,487.71,349.52,486.54z"/>
	<path d="M170.5,503.29c-2.76-1.48-2.54-4.45-3.39-6.89C169.23,498.2,169.87,500.75,170.5,503.29z"/>
	<path d="M316.03,480.61c3.18-0.42,5.3,0.42,7.21,1.91C320.91,482.62,318.57,482.3,316.03,480.61z"/>
	<path d="M328.96,529.36c-2.33,2.01-4.35,2.54-7.21,2.65C323.98,530.32,325.46,528.52,328.96,529.36z"/>
	<path d="M180.89,524.81c-2.12-1.27-3.71-2.01-4.88-3.92C179.62,521.2,179.62,521.2,180.89,524.81z"/>
	<path d="M217.99,523.64c-0.32,2.65-0.74,4.56-2.12,6.25C215.97,527.88,215.13,525.44,217.99,523.64z"/>
	<path d="M357.68,539.43c-1.48,2.76-2.44,4.66-4.98,5.41C354.19,543.35,354.29,540.6,357.68,539.43z"/>
	<path d="M342.42,524.7c-1.8,1.48-2.12,3.6-4.88,3.5C338.61,526.4,339.03,524.49,342.42,524.7z"/>
	<path d="M145.81,454.53c2.23,2.12,2.12,4.45,2.54,6.68C147.08,459.3,146.34,457.29,145.81,454.53z"/>
	<path d="M271.94,535.62c-3.07-0.95-3.71-2.97-4.13-5.19C269.29,531.8,270.98,532.97,271.94,535.62z"/>
	<path d="M200.08,536.57c-1.7-0.74-3.29-1.59-4.03-3.5C198.06,533.5,199.76,534.24,200.08,536.57z"/>
	<path d="M317.3,498.63c-0.95,1.7-2.01,3.29-4.77,3.29C313.7,499.69,315.71,499.47,317.3,498.63z"/>
	<path d="M335.85,528.62c-1.17,1.17-2.76,1.7-4.24,2.33C332.88,527.99,333.52,527.67,335.85,528.62z"/>
	<path d="M156.83,422.95c1.48-1.91,2.65-3.5,3.82-4.98C159.59,421.78,159.59,421.78,156.83,422.95z"/>
	<path d="M139.98,434.18c-0.32,2.12-1.8,2.76-3.29,3.39C137.12,435.99,137.54,434.29,139.98,434.18z"/>
	<path d="M185.45,526.29c3.18,0.21,4.66,1.59,6.68,3.29C189.16,529.68,187.78,528.09,185.45,526.29z"/>
	<path d="M222.23,448.81c2.12,0.11,3.82,0.42,5.94,1.17C224.14,450.72,224.14,450.72,222.23,448.81z"/>
	<path d="M238.13,444.68c0.53,1.91,0.21,3.29-1.27,4.77C236.54,447.54,236.11,445.95,238.13,444.68z"/>
	<path d="M176.97,425.39c-1.7-1.38-2.54-2.23-2.76-3.92C176.02,421.89,176.86,422.74,176.97,425.39z"/>
	<path d="M390.97,542.51c-1.7,1.7-1.7,1.7-3.82,1.27C388.21,542.72,389.38,542.4,390.97,542.51z"/>
	<path d="M213.64,495.13c-0.85-1.17-1.7-2.33-1.17-4.24C213.75,492.27,214.07,493.54,213.64,495.13z"/>
	<path d="M307.97,522.05c1.48-1.7,1.48-1.7,3.07-1.48C310.52,521.52,309.67,522.16,307.97,522.05z"/>
	<path d="M280.74,544.84c-1.8-1.48-3.5-1.48-4.35-4.24C278.19,541.98,279.89,542.08,280.74,544.84z"/>
	<path d="M208.34,482.41c-0.21-1.48-1.7-2.76-0.85-4.56C208.98,479.23,209.19,480.71,208.34,482.41z"/>
	<path d="M216.72,425.92c-1.48,0.64-2.44,1.17-3.82,0C214.17,424.54,215.23,424.43,216.72,425.92z"/>
	<path d="M277.77,510.5c-1.59,0.32-2.65-0.21-3.6-1.17C275.44,509.22,276.81,508.8,277.77,510.5z"/>
	<path d="M318.68,517.92c-1.17,0.53-2.12,1.27-3.92,0.74C316.88,517.39,316.88,517.39,318.68,517.92z"/>
	<path d="M166.69,430.79c1.38-0.53,2.44-0.42,3.82,1.27C168.91,432.38,167.64,432.49,166.69,430.79z"/>
	<path d="M218.94,424.96c1.38-0.32,2.33-0.74,3.5,0.42C220.96,426.55,220,426.66,218.94,424.96z"/>
	<path d="M351.32,546.22c-0.64,1.48-1.59,2.12-3.71,2.44C348.89,547.06,349.42,545.69,351.32,546.22z"/>
	<path d="M164.89,490.46c-1.59-0.21-2.33-0.64-1.91-2.44C164.15,488.13,164.68,488.87,164.89,490.46z"/>
	<path d="M289.74,551.73c-1.48,0.21-2.33,0.11-2.76-1.17C288.15,550.14,288.79,550.77,289.74,551.73z"/>
	<path d="M320.48,563.92c-1.17,0.32-1.48-0.32-1.8-1.48C319.95,562.54,320.48,562.96,320.48,563.92z"/>
	<path d="M381.11,512.4c-0.21,0.95-0.53,1.59-1.7,1.59C379.31,512.93,379.84,512.51,381.11,512.4z"/>
	<path d="M305.85,212.13c1.8-2.86,5.41-3.6,7.1-6.68c-0.32-1.8-0.95-3.82,1.38-5.83C313.8,206.73,311.79,213.51,305.85,212.13z"/>
	<path d="M419.9,213.83c-2.54,1.27-2.54,1.27-6.15-0.21C416.09,212.98,417.99,211.5,419.9,213.83z"/>
	<path d="M299.5,171.33c-1.06,2.33-2.65,4.45-4.56,6.04C295.36,174.61,297.27,172.07,299.5,171.33z"/>
	<path d="M385.67,246.16c-2.01-0.21-3.29-0.85-4.56-2.76C383.55,243.29,384.82,243.93,385.67,246.16z"/>
	<path d="M412.8,164.86c0.32,2.86-0.64,4.45-2.54,6.47C410.79,168.78,410.89,166.98,412.8,164.86z"/>
	<path d="M298.44,198.57c0.21-2.86,0.21-2.86,2.97-4.45C300.77,196.02,299.92,197.4,298.44,198.57z"/>
	<path d="M312.96,238.1c-1.8-0.21-3.07-0.74-4.03-2.23C311.47,236.09,311.47,236.09,312.96,238.1z"/>
	<path d="M325.89,212.24c0.53-2.23,1.38-3.6,2.97-4.56C328.54,209.38,328.11,210.97,325.89,212.24z"/>
	<path d="M405.17,213.19c1.59-0.85,2.65-0.85,4.03,0.64C407.61,214.68,406.55,214.46,405.17,213.19z"/>
	<path d="M318.57,192.84c-0.81,0-0.19-2.24,2.12-2.86C320.69,191.68,319.85,192.42,318.57,192.84z"/>
	<path d="M301.72,192.1c0.11-1.91,0.32-3.07,1.91-3.71C303.95,189.98,303.42,190.93,301.72,192.1z"/>
	<path d="M396.05,184.26c1.59-2.54,1.59-2.54,3.18-2.54C398.81,182.99,397.75,183.41,396.05,184.26z"/>
	<path d="M391.39,249.44c-1.59-0.64-2.44-1.48-2.76-3.18C390.97,246.26,391.28,247.53,391.39,249.44z"/>
	<path d="M318.04,242.02c-1.48,0.21-2.23-0.42-2.76-2.23C316.67,240.33,317.94,240.11,318.04,242.02z"/>
	<path d="M386.62,195.07c0.53-1.48,0.21-2.65,1.91-2.65C389.06,193.69,388.63,194.33,386.62,195.07z"/>
	<path d="M295.26,203.65c-0.42-1.38,0.11-2.33,1.38-2.97C296.32,201.64,297.06,203.23,295.26,203.65z"/>
	<path d="M304.79,232.06c1.38-0.53,1.8,0,1.48,1.38C305.43,233.44,304.79,233.12,304.79,232.06z"/>
	<path d="M316.45,195.07c1,0.67,0.48,2.29-1.06,2.65C314.97,196.55,315.5,195.7,316.45,195.07z"/>
	<path d="M333.62,159.77c-1.14,1.14-1.42,1.51-2.44,0.32C332.03,159.35,332.67,159.24,333.62,159.77z"/>
	<path d="M330.55,205.14c-0.53-1.27-0.11-1.91,0.95-2.33C331.82,203.87,332.03,204.82,330.55,205.14z"/>
	<path d="M343.69,157.23c-0.64,0.85-1.38,1.48-2.65,0.64C341.89,156.7,342.74,156.7,343.69,157.23z"/>
	<path d="M390.01,172.6c-1.27,0.32-2.01,0.21-2.86-0.74C388.21,171.64,389.06,171.64,390.01,172.6z"/>
	<path d="M399.02,173.76c0.74-0.11,1.27,0.21,1.59,0.85C399.66,175.14,398.91,175.14,399.02,173.76z"/>
	<path d="M387.15,160.3c-0.55,0-0.5-1.3,0.85-0.85C388,160.3,387.57,160.41,387.15,160.3z"/>
	<path d="M411.74,176.31c0.95-0.74,1.7-0.53,2.33,0C413.33,177.16,412.69,176.73,411.74,176.31z"/>
	<path d="M292.08,181.61c0.26,1.25-0.8,1.42-1.06,1.8c-1.17,2.23-2.44,4.35-5.94,4.56c1.59-2.44,3.5-3.82,5.41-4.98
		C290.7,182.24,291.02,181.5,292.08,181.61z"/>
	<path d="M718.48,247.75c-1.59-0.24-3.07-0.32-5.3,0c0.64-2.23-0.4-3.92-0.64-5.72c-1.38-10.61,14.91-10.78,14.52-0.95
		C726.9,245.1,722.83,248.41,718.48,247.75z M723.46,238.63c-2.33-4.33-9.79-1.91-7.63,3.92c1.27-0.32,2.54-2.44,3.82-0.11
		c0.64,0.95-1.06,1.48-0.64,2.54C721.02,246.34,725.85,243.09,723.46,238.63z"/>
	<path d="M752.29,241.81c-4.39-1.72-3.12,6.55-7.95,4.03c0.74-1.38,1.48-2.76,2.23-4.13c-1.8-2.01-4.13-4.03-2.23-6.89
		c2.54-3.82,6.57-2.01,10.28-2.65c0.85,4.66,0.74,8.9,0.85,13.14C752.19,246.29,752.95,245.13,752.29,241.81z M751.65,235.13
		c-4.45-0.42-4.56-0.32-4.24,2.97C749.54,239.58,753.65,238.8,751.65,235.13z"/>
	<path d="M735.33,247.11c-9.37,0.25-10.09-14.1,0-14.1C744.89,233.01,744.89,246.85,735.33,247.11z M735.12,235.66
		c-6.01,0.13-5.26,8.92,0.21,8.8C741.03,244.34,741,235.54,735.12,235.66z"/>
	<path d="M705.33,563.17c10.37-0.51,10.06,14.52,0.11,13.99c-1.91-0.1-3.82-0.64-6.04,0C699.54,574.11,695.46,563.66,705.33,563.17z
		 M701.94,571.97c1.27-0.53,2.52-2.42,3.71-0.21c0.52,0.96-1.06,1.48-0.74,2.54c2.19,1.34,6.74-2.1,4.45-6.36
		C707.09,563.72,699.79,565.96,701.94,571.97z"/>
	<path d="M730.56,564.13c2.48-3.89,6.47-2.12,10.07-2.76c1.17,4.45,0.64,8.69,1.17,13.25c-2.78,0.23-2.72,1.06-3.18-3.5
		c-4.37-1.9-3.19,6.52-7.74,4.13c0-1.7,1.59-2.76,1.8-4.45C730.56,569,728.79,566.9,730.56,564.13z M733.53,567.52
		c1.49,1.14,5.95,1.15,4.35-2.86C735.79,563.27,731.42,564.62,733.53,567.52z"/>
	<path d="M721.13,562.33c9.87-0.25,10.22,13.84,0.32,14.1C712.18,576.67,711.32,562.57,721.13,562.33z M721.44,573.77
		c5.34,0,5.86-8.8,0-8.8C715.5,564.98,715.87,573.77,721.44,573.77z"/>
<path fill="#e6e6e6" d="m206.8 163.6c0-5.1 4.1-9.2 9.3-9.2s9.2 4.2 9.2 9.2-4.1 9.2-9.3 9.2-9.2-4.1-9.2-9.2zm17.3-.1c0-4.5-3.5-8.2-8.2-8.2s-8.2 3.7-8.2 8.3c0 4.5 3.5 8.2 8.2 8.2s8.2-3.7 8.2-8.3zm-13 0c0-2.8 2.1-5.1 5.1-5.1 1.9 0 2.9.6 3.9 1.5l-1.4 1.7c-.8-.7-1.5-1.1-2.5-1.1-1.7 0-2.8 1.4-2.8 3.1s1.1 3 2.8 3c1.1 0 1.7-.5 2.5-1.1l1.4 1.4c-1.1 1.1-2.1 1.7-4 1.7-2.9 0-5-2.3-5-5.1z"/><path fill="#e6e6e6" d="m226.6 154.7h3.4l4.2 13.2 4.4-13.3h2.6l4.4 13.3 4.2-13.2h3.3l-6.2 18h-2.7l-4.4-12.8-4.4 12.8h-2.7z"/><path fill="#e6e6e6" d="m252.8 165.8c0-3.9 3.1-7 7.2-7 4.2 0 7.2 3.2 7.2 7s-3.1 7-7.3 7c-4 0-7.1-3.1-7.1-7zm11.3 0c0-2.3-1.7-4.3-4.2-4.3s-4.1 2-4.1 4.3 1.7 4.3 4.1 4.3c2.7.1 4.2-1.9 4.2-4.3z"/><path fill="#e6e6e6" d="m269.5 159.1h3.1v3c.8-2 2.4-3.4 4.8-3.3v3.2h-.2c-2.7 0-4.6 1.7-4.6 5.4v5.1h-3.1z"/><path fill="#e6e6e6" d="m279.1 153.9h3.1v11.1l5.6-6h3.8l-5.4 5.5 5.5 8h-3.5l-4.1-5.8-1.9 2v3.9h-3.1z"/><path fill="#e6e6e6" d="m291.7 165.8c0-3.9 3.1-7 7.2-7 4.2 0 7.2 3.2 7.2 7s-3.1 7-7.3 7c-4 0-7.1-3.1-7.1-7zm11.3 0c0-2.3-1.7-4.3-4.2-4.3s-4.1 2-4.1 4.3 1.7 4.3 4.1 4.3c2.6.1 4.2-1.9 4.2-4.3z"/><path fill="#e6e6e6" d="m308.2 167.6v-8.6h3.1v7.6c0 2.1 1.1 3.3 2.9 3.3s3-1.3 3-3.3v-7.6h3.1v13.4h-3.1v-2.1c-.8 1.3-2.1 2.3-4.2 2.3-3.1.2-4.8-1.8-4.8-5z"/><path fill="#e6e6e6" d="m323.9 168.8v-7.1h-1.7v-2.6h1.7v-3.7h3.1v3.7h3.6v2.6h-3.6v6.6c0 1.2.6 1.7 1.7 1.7.7 0 1.3-.2 1.9-.5v2.5c-.8.5-1.7.7-2.8.7-2.3 0-3.9-.9-3.9-3.9z"/><path fill="#e6e6e6" d="m333.2 154.7h3.2v15h9.4v2.9h-12.5v-17.9z"/><path fill="#e6e6e6" d="m356 172.5v-1.7c-.9 1.1-2.3 2-4.4 2-2.6 0-4.8-1.4-4.8-4.2 0-3 2.3-4.4 5.4-4.4 1.7 0 2.6.2 3.7.5v-.2c0-1.9-1.2-2.9-3.3-2.9-1.5 0-2.6.3-3.9.8l-.8-2.5c1.5-.7 2.9-1.1 5.1-1.1 4 0 5.9 2.1 5.9 5.7v8zm.1-5.6c-.8-.3-1.9-.5-3.1-.5-2 0-3.1.8-3.1 2.1s1.1 2 2.6 2c2 0 3.5-1.1 3.5-2.9z"/><path fill="#e6e6e6" d="m364.9 170.5v2.1h-3.1v-18.7h3.1v7.4c1-1.4 2.4-2.5 4.5-2.5 3.2 0 6.3 2.5 6.3 7s-3.1 7-6.3 7c-2.1 0-3.5-1.1-4.5-2.3zm7.7-4.7c0-2.6-1.7-4.3-3.9-4.3s-3.9 1.7-3.9 4.4c0 2.6 1.8 4.3 3.9 4.3s3.9-1.7 3.9-4.4z"/><path fill="#e6e6e6" d="m376.9 170.8 1.4-2.1c1.4 1.1 3 1.7 4.4 1.7s2.1-.5 2.1-1.5-1.3-1.4-2.8-1.8c-.1 0-.2-.1-.2-.1-2-.6-4.2-1.4-4.2-4s2.1-4.1 4.8-4.1c1.7 0 3.5.6 5 1.5l-1.2 2.2c-1.3-.8-2.6-1.3-3.8-1.3s-1.9.5-1.9 1.4 1.3 1.4 2.8 1.8c.1 0 .2.1.2.1 2 .6 4.2 1.5 4.2 4 0 2.9-2.2 4.2-5 4.2-1.9 0-4-.7-5.8-2z"/><path fill="#e6e6e6" d="m505.6 163.6c0-5.1 4.1-9.2 9.3-9.2s9.2 4.2 9.2 9.2-4.1 9.2-9.3 9.2-9.2-4.1-9.2-9.2zm17.4-.1c0-4.5-3.5-8.2-8.2-8.2s-8.2 3.7-8.2 8.3c0 4.5 3.5 8.2 8.2 8.2s8.2-3.7 8.2-8.3zm-13.1 0c0-2.8 2.1-5.1 5.1-5.1 1.9 0 2.9.6 3.9 1.5l-1.4 1.7c-.8-.7-1.5-1.1-2.5-1.1-1.7 0-2.8 1.4-2.8 3.1s1.1 3 2.8 3c1.1 0 1.7-.5 2.5-1.1l1.4 1.4c-1.1 1.1-2.1 1.7-4 1.7-2.9 0-5-2.3-5-5.1z"/><path fill="#e6e6e6" d="m525.4 154.7h3.4l4.2 13.2 4.4-13.3h2.6l4.4 13.3 4.2-13.2h3.3l-6.2 18h-2.7l-4.4-12.8-4.4 12.8h-2.7z"/><path fill="#e6e6e6" d="m551.7 165.8c0-3.9 3.1-7 7.2-7 4.2 0 7.2 3.2 7.2 7s-3.1 7-7.3 7c-4.1 0-7.1-3.1-7.1-7zm11.2 0c0-2.3-1.7-4.3-4.2-4.3s-4.1 2-4.1 4.3 1.7 4.3 4.1 4.3c2.7.1 4.2-1.9 4.2-4.3z"/><path fill="#e6e6e6" d="m568.3 159.1h3.1v3c.8-2 2.4-3.4 4.8-3.3v3.2h-.2c-2.7 0-4.6 1.7-4.6 5.4v5.1h-3.1z"/><path fill="#e6e6e6" d="m577.9 153.9h3.1v11.1l5.6-6h3.8l-5.4 5.5 5.5 8h-3.5l-4.1-5.8-1.9 2v3.9h-3.1z"/><path fill="#e6e6e6" d="m590.6 165.8c0-3.9 3.1-7 7.2-7 4.2 0 7.2 3.2 7.2 7s-3.1 7-7.3 7c-4.1 0-7.1-3.1-7.1-7zm11.2 0c0-2.3-1.7-4.3-4.2-4.3s-4.1 2-4.1 4.3 1.7 4.3 4.1 4.3c2.6.1 4.2-1.9 4.2-4.3z"/><path fill="#e6e6e6" d="m607 167.6v-8.6h3.1v7.6c0 2.1 1.1 3.3 2.9 3.3s3-1.3 3-3.3v-7.6h3.1v13.4h-3.1v-2.1c-.8 1.3-2.1 2.3-4.2 2.3-3 .2-4.8-1.8-4.8-5z"/><path fill="#e6e6e6" d="m622.7 168.8v-7.1h-1.7v-2.6h1.7v-3.7h3.1v3.7h3.6v2.6h-3.6v6.6c0 1.2.6 1.7 1.7 1.7.7 0 1.3-.2 1.9-.5v2.5c-.8.5-1.7.7-2.8.7-2.3 0-3.9-.9-3.9-3.9z"/><path fill="#e6e6e6" d="m632 154.7h3.2v15h9.4v2.9h-12.6z"/><path fill="#e6e6e6" d="m654.8 172.5v-1.7c-.9 1.1-2.3 2-4.4 2-2.6 0-4.8-1.4-4.8-4.2 0-3 2.3-4.4 5.4-4.4 1.7 0 2.6.2 3.7.5v-.2c0-1.9-1.2-2.9-3.3-2.9-1.5 0-2.6.3-3.9.8l-.8-2.5c1.5-.7 2.9-1.1 5.1-1.1 4 0 5.9 2.1 5.9 5.7v8zm.1-5.6c-.8-.3-1.9-.5-3.1-.5-2 0-3.1.8-3.1 2.1s1.1 2 2.6 2c2 0 3.5-1.1 3.5-2.9z"/><path fill="#e6e6e6" d="m663.7 170.5v2.1h-3.1v-18.7h3.1v7.4c1-1.4 2.4-2.5 4.5-2.5 3.2 0 6.3 2.5 6.3 7s-3.1 7-6.3 7c-2.1 0-3.5-1.1-4.5-2.3zm7.8-4.7c0-2.6-1.7-4.3-3.9-4.3-2.1 0-3.9 1.7-3.9 4.4 0 2.6 1.8 4.3 3.9 4.3s3.9-1.7 3.9-4.4z"/><path fill="#e6e6e6" d="m675.8 170.8 1.4-2.1c1.4 1.1 3 1.7 4.4 1.7s2.1-.5 2.1-1.5-1.3-1.4-2.8-1.8c-.1 0-.2-.1-.2-.1-2-.6-4.2-1.4-4.2-4s2.1-4.1 4.8-4.1c1.7 0 3.5.6 5 1.5l-1.2 2.2c-1.3-.8-2.6-1.3-3.8-1.3s-1.9.5-1.9 1.4 1.3 1.4 2.8 1.8c.1 0 .2.1.2.1 2 .6 4.2 1.5 4.2 4 0 2.9-2.2 4.2-5 4.2-2 0-4.1-.7-5.8-2z"/><path fill="#e6e6e6" d="m61 298.6c0-5.1 4.1-9.2 9.3-9.2s9.2 4.2 9.2 9.2-4.1 9.2-9.3 9.2c-5.1 0-9.2-4.2-9.2-9.2zm17.4-.1c0-4.5-3.5-8.2-8.2-8.2s-8.2 3.7-8.2 8.3c0 4.5 3.5 8.2 8.2 8.2s8.2-3.7 8.2-8.3zm-13.1-.1c0-2.8 2.1-5.1 5.1-5.1 1.9 0 2.9.6 3.9 1.5l-1.4 1.7c-.8-.7-1.5-1.1-2.5-1.1-1.7 0-2.8 1.4-2.8 3.1s1.1 3 2.8 3c1.1 0 1.7-.5 2.5-1.1l1.4 1.4c-1.1 1.1-2.1 1.7-4 1.7-2.8.1-5-2.2-5-5.1z"/><path fill="#e6e6e6" d="m80.9 289.7h3.4l4.2 13.2 4.4-13.3h2.6l4.4 13.3 4.2-13.2h3.3l-6.2 18h-2.7l-4.4-12.8-4.4 12.8h-2.7z"/><path fill="#e6e6e6" d="m107.1 300.8c0-3.9 3.1-7 7.2-7s7.2 3.2 7.2 7-3.1 7-7.3 7c-4 0-7.1-3.1-7.1-7zm11.3 0c0-2.3-1.7-4.3-4.2-4.3s-4.1 2-4.1 4.3 1.7 4.3 4.1 4.3c2.6.1 4.2-1.9 4.2-4.3z"/><path fill="#e6e6e6" d="m123.7 294h3.1v3c.8-2 2.4-3.4 4.8-3.3v3.2h-.2c-2.7 0-4.6 1.7-4.6 5.4v5.1h-3.1z"/><path fill="#e6e6e6" d="m133.4 288.9h3.1v11.1l5.6-6h3.8l-5.4 5.5 5.5 8h-3.5l-4.1-5.8-1.9 1.9v3.9h-3.1z"/><path fill="#e6e6e6" d="m146 300.8c0-3.9 3.1-7 7.2-7s7.2 3.2 7.2 7-3.1 7-7.3 7c-4.1 0-7.1-3.1-7.1-7zm11.2 0c0-2.3-1.7-4.3-4.2-4.3s-4.1 2-4.1 4.3 1.7 4.3 4.1 4.3c2.6.1 4.2-1.9 4.2-4.3z"/><path fill="#e6e6e6" d="m162.4 302.6v-8.6h3.1v7.6c0 2.1 1.1 3.3 2.9 3.3s3-1.3 3-3.3v-7.6h3.1v13.4h-3.1v-2.1c-.8 1.3-2.1 2.3-4.2 2.3-3 .2-4.8-1.8-4.8-5z"/><path fill="#e6e6e6" d="m178.1 303.8v-7.1h-1.7v-2.7h1.7v-3.7h3.1v3.7h3.6v2.6h-3.6v6.6c0 1.2.6 1.7 1.7 1.7.7 0 1.3-.2 1.9-.5v2.5c-.8.5-1.7.7-2.8.7-2.3.1-3.9-.9-3.9-3.8z"/><path fill="#e6e6e6" d="m187.4 289.7h3.2v15h9.4v2.9h-12.5v-17.9z"/><path fill="#e6e6e6" d="m210.2 307.5v-1.7c-.9 1.1-2.3 2-4.4 2-2.6 0-4.8-1.4-4.8-4.2 0-3 2.3-4.4 5.4-4.4 1.7 0 2.6.2 3.7.5v-.2c0-1.9-1.2-2.9-3.3-2.9-1.5 0-2.6.3-3.9.8l-.8-2.5c1.5-.7 2.9-1.1 5.1-1.1 4 0 5.9 2.1 5.9 5.7v8zm.1-5.6c-.8-.3-1.9-.5-3.1-.5-2 0-3.1.8-3.1 2.1s1.1 2 2.6 2c2 0 3.5-1.1 3.5-2.9z"/><path fill="#e6e6e6" d="m219.2 305.5v2.1h-3.1v-18.7h3.1v7.4c1-1.4 2.4-2.5 4.5-2.5 3.2 0 6.3 2.5 6.3 7s-3.1 7-6.3 7c-2.2 0-3.6-1.1-4.5-2.3zm7.7-4.7c0-2.6-1.7-4.3-3.9-4.3s-3.9 1.7-3.9 4.4c0 2.6 1.8 4.3 3.9 4.3s3.9-1.7 3.9-4.4z"/><path fill="#e6e6e6" d="m231.2 305.8 1.4-2.1c1.4 1.1 3 1.7 4.4 1.7s2.1-.5 2.1-1.5-1.3-1.4-2.8-1.8c-.1 0-.2-.1-.2-.1-2-.6-4.2-1.4-4.2-4s2.1-4.1 4.8-4.1c1.7 0 3.5.6 5 1.5l-1.2 2.2c-1.3-.8-2.6-1.3-3.8-1.3s-1.9.5-1.9 1.4 1.3 1.4 2.8 1.8c.1 0 .2.1.2.1 2 .6 4.2 1.5 4.2 4 0 2.9-2.2 4.2-5 4.2-2 0-4.1-.7-5.8-2z"/><path fill="#e6e6e6" d="m360.6 298.6c0-5.1 4.1-9.2 9.3-9.2s9.2 4.2 9.2 9.2-4.1 9.2-9.3 9.2-9.2-4.2-9.2-9.2zm17.4-.1c0-4.5-3.5-8.2-8.2-8.2s-8.2 3.7-8.2 8.3c0 4.5 3.5 8.2 8.2 8.2s8.2-3.7 8.2-8.3zm-13.1-.1c0-2.8 2.1-5.1 5.1-5.1 1.9 0 2.9.6 3.9 1.5l-1.4 1.7c-.8-.7-1.5-1.1-2.5-1.1-1.7 0-2.8 1.4-2.8 3.1s1.1 3 2.8 3c1.1 0 1.7-.5 2.5-1.1l1.4 1.4c-1.1 1.1-2.1 1.7-4 1.7-2.8.1-5-2.2-5-5.1z"/><path fill="#e6e6e6" d="m380.5 289.7h3.4l4.2 13.2 4.4-13.3h2.6l4.4 13.3 4.2-13.2h3.3l-6.2 18h-2.7l-4.4-12.8-4.4 12.8h-2.7z"/><path fill="#e6e6e6" d="m406.7 300.8c0-3.9 3.1-7 7.2-7 4.2 0 7.2 3.2 7.2 7s-3.1 7-7.3 7c-4.1 0-7.1-3.1-7.1-7zm11.3 0c0-2.3-1.7-4.3-4.2-4.3s-4.1 2-4.1 4.3 1.7 4.3 4.1 4.3c2.7.1 4.2-1.9 4.2-4.3z"/><path fill="#e6e6e6" d="m423.3 294h3.1v3c.8-2 2.4-3.4 4.8-3.3v3.2h-.2c-2.7 0-4.6 1.7-4.6 5.4v5.1h-3.1z"/><path fill="#e6e6e6" d="m433 288.9h3.1v11.1l5.6-6h3.8l-5.4 5.5 5.5 8h-3.5l-4.1-5.8-1.9 2v3.9h-3.1z"/><path fill="#e6e6e6" d="m445.6 300.8c0-3.9 3.1-7 7.2-7 4.2 0 7.2 3.2 7.2 7s-3.1 7-7.3 7c-4.1 0-7.1-3.1-7.1-7zm11.3 0c0-2.3-1.7-4.3-4.2-4.3s-4.1 2-4.1 4.3 1.7 4.3 4.1 4.3c2.6.1 4.2-1.9 4.2-4.3z"/><path fill="#e6e6e6" d="m462.1 302.6v-8.6h3.1v7.6c0 2.1 1.1 3.3 2.9 3.3s3-1.3 3-3.3v-7.6h3.1v13.4h-3.1v-2.1c-.8 1.3-2.1 2.3-4.2 2.3-3.1.2-4.8-1.8-4.8-5z"/><path fill="#e6e6e6" d="m477.8 303.8v-7.1h-1.8v-2.7h1.7v-3.7h3.1v3.7h3.6v2.6h-3.6v6.6c0 1.2.6 1.7 1.7 1.7.7 0 1.3-.2 1.9-.5v2.5c-.8.5-1.7.7-2.8.7-2.2.1-3.8-.9-3.8-3.8z"/><path fill="#e6e6e6" d="m487.1 289.7h3.2v15h9.4v2.9h-12.5v-17.9z"/><path fill="#e6e6e6" d="m509.9 307.5v-1.7c-.9 1.1-2.3 2-4.4 2-2.6 0-4.8-1.4-4.8-4.2 0-3 2.3-4.4 5.4-4.4 1.7 0 2.6.2 3.7.5v-.2c0-1.9-1.2-2.9-3.3-2.9-1.5 0-2.6.3-3.9.8l-.8-2.5c1.5-.7 2.9-1.1 5.1-1.1 4 0 5.9 2.1 5.9 5.7v8zm.1-5.6c-.8-.3-1.9-.5-3.1-.5-2 0-3.1.8-3.1 2.1s1.1 2 2.6 2c2 0 3.5-1.1 3.5-2.9z"/><path fill="#e6e6e6" d="m518.8 305.5v2.1h-3.1v-18.7h3.1v7.4c1-1.4 2.4-2.5 4.5-2.5 3.2 0 6.3 2.5 6.3 7s-3.1 7-6.3 7c-2.2 0-3.5-1.1-4.5-2.3zm7.7-4.7c0-2.6-1.7-4.3-3.9-4.3s-3.9 1.7-3.9 4.4c0 2.6 1.8 4.3 3.9 4.3s3.9-1.7 3.9-4.4z"/><path fill="#e6e6e6" d="m530.8 305.8 1.4-2.1c1.4 1.1 3 1.7 4.4 1.7s2.1-.5 2.1-1.5-1.3-1.4-2.8-1.8c-.1 0-.2-.1-.2-.1-2-.6-4.2-1.4-4.2-4s2.1-4.1 4.8-4.1c1.7 0 3.5.6 5 1.5l-1.2 2.2c-1.3-.8-2.6-1.3-3.8-1.3s-1.9.5-1.9 1.4 1.3 1.4 2.8 1.8c.1 0 .2.1.2.1 2 .6 4.2 1.5 4.2 4 0 2.9-2.2 4.2-5 4.2-1.9 0-4.1-.7-5.8-2z"/><path fill="#e6e6e6" d="m659.5 298.6c0-5.1 4.1-9.2 9.3-9.2s9.2 4.2 9.2 9.2-4.1 9.2-9.3 9.2-9.2-4.2-9.2-9.2zm17.3-.1c0-4.5-3.5-8.2-8.2-8.2s-8.2 3.7-8.2 8.3c0 4.5 3.5 8.2 8.2 8.2 4.8 0 8.2-3.7 8.2-8.3zm-13-.1c0-2.8 2.1-5.1 5.1-5.1 1.9 0 2.9.6 3.9 1.5l-1.4 1.7c-.8-.7-1.5-1.1-2.5-1.1-1.7 0-2.8 1.4-2.8 3.1s1.1 3 2.8 3c1.1 0 1.7-.5 2.5-1.1l1.4 1.4c-1.1 1.1-2.1 1.7-4 1.7-2.9.1-5-2.2-5-5.1z"/><path fill="#e6e6e6" d="m679.3 289.7h3.4l4.2 13.2 4.4-13.3h2.6l4.4 13.3 4.2-13.2h3.3l-6.2 18h-2.6l-4.4-12.8-4.4 12.8h-2.7z"/><path fill="#e6e6e6" d="m705.5 300.8c0-3.9 3.1-7 7.2-7 4.2 0 7.2 3.2 7.2 7s-3.1 7-7.3 7c-4 0-7.1-3.1-7.1-7zm11.3 0c0-2.3-1.7-4.3-4.2-4.3s-4.1 2-4.1 4.3 1.7 4.3 4.1 4.3c2.7.1 4.2-1.9 4.2-4.3z"/><path fill="#e6e6e6" d="m722.1 294h3.1v3c.8-2 2.4-3.4 4.8-3.3v3.2h-.2c-2.7 0-4.6 1.7-4.6 5.4v5.1h-3.1z"/><path fill="#e6e6e6" d="m731.8 288.9h3.1v11.1l5.6-6h3.8l-5.4 5.5 5.5 8h-3.5l-4.1-5.8-1.9 2v3.9h-3.1z"/><path fill="#e6e6e6" d="m744.4 300.8c0-3.9 3.1-7 7.2-7 4.2 0 7.2 3.2 7.2 7s-3.1 7-7.3 7c-4.1 0-7.1-3.1-7.1-7zm11.3 0c0-2.3-1.7-4.3-4.2-4.3s-4.1 2-4.1 4.3 1.7 4.3 4.1 4.3c2.6.1 4.2-1.9 4.2-4.3z"/><path fill="#e6e6e6" d="m760.9 302.6v-8.6h3.1v7.6c0 2.1 1.1 3.3 2.9 3.3s3-1.3 3-3.3v-7.6h3.1v13.4h-3.1v-2.1c-.8 1.3-2.1 2.3-4.2 2.3-3.1.2-4.8-1.8-4.8-5z"/><path fill="#e6e6e6" d="m776.6 303.8v-7.1h-1.7v-2.7h1.7v-3.7h3.1v3.7h3.6v2.6h-3.6v6.6c0 1.2.6 1.7 1.7 1.7.7 0 1.3-.2 1.9-.5v2.5c-.8.5-1.7.7-2.8.7-2.3.1-3.9-.9-3.9-3.8z"/><path fill="#e6e6e6" d="m785.9 289.7h3.2v15h9.4v2.9h-12.5v-17.9z"/><path fill="#e6e6e6" d="m808.7 307.5v-1.7c-.9 1.1-2.3 2-4.4 2-2.6 0-4.8-1.4-4.8-4.2 0-3 2.3-4.4 5.4-4.4 1.7 0 2.6.2 3.7.5v-.2c0-1.9-1.2-2.9-3.3-2.9-1.5 0-2.6.3-3.9.8l-.8-2.5c1.5-.7 2.9-1.1 5.1-1.1 4 0 5.9 2.1 5.9 5.7v8zm.1-5.6c-.8-.3-1.9-.5-3.1-.5-2 0-3.1.8-3.1 2.1s1.1 2 2.6 2c2 0 3.5-1.1 3.5-2.9z"/><path fill="#e6e6e6" d="m817.6 305.5v2.1h-3.1v-18.7h3.1v7.4c1-1.4 2.4-2.5 4.5-2.5 3.2 0 6.3 2.5 6.3 7s-3.1 7-6.3 7c-2.1 0-3.5-1.1-4.5-2.3zm7.7-4.7c0-2.6-1.7-4.3-3.9-4.3-2.1 0-3.9 1.7-3.9 4.4 0 2.6 1.8 4.3 3.9 4.3 2.2 0 3.9-1.7 3.9-4.4z"/><path fill="#e6e6e6" d="m829.6 305.8 1.4-2.1c1.4 1.1 3 1.7 4.4 1.7s2.1-.5 2.1-1.5-1.3-1.4-2.8-1.8c-.1 0-.2-.1-.2-.1-2-.6-4.2-1.4-4.2-4s2.1-4.1 4.8-4.1c1.7 0 3.5.6 5 1.5l-1.2 2.2c-1.3-.8-2.6-1.3-3.8-1.3s-1.9.5-1.9 1.4 1.3 1.4 2.8 1.8c.1 0 .2.1.2.1 2 .6 4.2 1.5 4.2 4 0 2.9-2.2 4.2-5 4.2-1.9 0-4-.7-5.8-2z"/><path fill="#e6e6e6" d="m206.3 434.2c0-5.1 4.1-9.2 9.3-9.2s9.2 4.2 9.2 9.2-4.1 9.2-9.3 9.2-9.2-4.1-9.2-9.2zm17.4-.1c0-4.5-3.5-8.2-8.2-8.2s-8.2 3.7-8.2 8.3c0 4.5 3.5 8.2 8.2 8.2s8.2-3.7 8.2-8.3zm-13.1-.1c0-2.8 2.1-5.1 5.1-5.1 1.9 0 2.9.6 3.9 1.5l-1.4 1.7c-.8-.7-1.5-1.1-2.5-1.1-1.7 0-2.8 1.4-2.8 3.1s1.1 3 2.8 3c1.1 0 1.7-.5 2.5-1.1l1.4 1.4c-1.1 1.1-2.1 1.7-4 1.7-2.9.1-5-2.2-5-5.1z"/><path fill="#e6e6e6" d="m226.1 425.3h3.4l4.2 13.2 4.4-13.3h2.6l4.4 13.3 4.2-13.2h3.3l-6.2 18h-2.7l-4.4-12.8-4.4 12.8h-2.7z"/><path fill="#e6e6e6" d="m252.4 436.4c0-3.9 3.1-7 7.2-7 4.2 0 7.2 3.2 7.2 7s-3.1 7-7.3 7c-4.1 0-7.1-3.1-7.1-7zm11.2 0c0-2.3-1.7-4.3-4.2-4.3s-4.1 2-4.1 4.3 1.7 4.3 4.1 4.3c2.7.1 4.2-1.9 4.2-4.3z"/><path fill="#e6e6e6" d="m269 429.7h3.1v3c.8-2 2.4-3.4 4.8-3.3v3.2h-.2c-2.7 0-4.6 1.7-4.6 5.4v5.1h-3.1z"/><path fill="#e6e6e6" d="m278.6 424.5h3.1v11.1l5.6-6h3.8l-5.4 5.5 5.5 8h-3.5l-4.1-5.8-1.9 2v3.9h-3.1z"/><path fill="#e6e6e6" d="m291.3 436.4c0-3.9 3.1-7 7.2-7 4.2 0 7.2 3.2 7.2 7s-3.1 7-7.3 7c-4.1 0-7.1-3.1-7.1-7zm11.2 0c0-2.3-1.7-4.3-4.2-4.3s-4.1 2-4.1 4.3 1.7 4.3 4.1 4.3c2.6.1 4.2-1.9 4.2-4.3z"/><path fill="#e6e6e6" d="m307.7 438.2v-8.6h3.1v7.6c0 2.1 1.1 3.3 2.9 3.3s3-1.3 3-3.3v-7.6h3.1v13.4h-3.1v-2.1c-.8 1.3-2.1 2.3-4.2 2.3-3 .2-4.8-1.8-4.8-5z"/><path fill="#e6e6e6" d="m323.4 439.4v-7.1h-1.7v-2.6h1.7v-3.7h3.1v3.7h3.6v2.6h-3.6v6.6c0 1.2.6 1.7 1.7 1.7.7 0 1.3-.2 1.9-.5v2.5c-.8.5-1.7.7-2.8.7-2.3 0-3.9-.9-3.9-3.9z"/><path fill="#e6e6e6" d="m332.7 425.3h3.2v15h9.4v2.9h-12.5v-17.9z"/><path fill="#e6e6e6" d="m355.5 443.1v-1.7c-.9 1.1-2.3 2-4.4 2-2.6 0-4.8-1.4-4.8-4.2 0-3 2.3-4.4 5.4-4.4 1.7 0 2.6.2 3.7.5v-.2c0-1.9-1.2-2.9-3.3-2.9-1.5 0-2.6.3-3.9.8l-.8-2.5c1.5-.7 2.9-1.1 5.1-1.1 4 0 5.9 2.1 5.9 5.7v8zm.1-5.6c-.8-.3-1.9-.5-3.1-.5-2 0-3.1.8-3.1 2.1s1.1 2 2.6 2c2 0 3.5-1.1 3.5-2.9z"/><path fill="#e6e6e6" d="m364.4 441.1v2.1h-3.1v-18.7h3.1v7.4c1-1.4 2.4-2.5 4.5-2.5 3.2 0 6.3 2.5 6.3 7s-3.1 7-6.3 7c-2.1 0-3.5-1.1-4.5-2.3zm7.7-4.7c0-2.6-1.7-4.3-3.9-4.3-2.1 0-3.9 1.7-3.9 4.4 0 2.6 1.8 4.3 3.9 4.3 2.2 0 3.9-1.7 3.9-4.4z"/><path fill="#e6e6e6" d="m376.5 441.4 1.4-2.1c1.4 1.1 3 1.7 4.4 1.7s2.1-.5 2.1-1.5-1.3-1.4-2.8-1.8c-.1 0-.2-.1-.2-.1-2-.6-4.2-1.4-4.2-4s2.1-4.1 4.8-4.1c1.7 0 3.5.6 5 1.5l-1.2 2.2c-1.3-.8-2.6-1.3-3.8-1.3s-1.9.5-1.9 1.4 1.3 1.4 2.8 1.8c.1 0 .2.1.2.1 2 .6 4.2 1.5 4.2 4 0 2.9-2.2 4.2-5 4.2-2 0-4.1-.7-5.8-2z"/><path fill="#e6e6e6" d="m505.1 434.2c0-5.1 4.1-9.2 9.3-9.2s9.2 4.2 9.2 9.2-4.1 9.2-9.3 9.2-9.2-4.1-9.2-9.2zm17.4-.1c0-4.5-3.5-8.2-8.2-8.2s-8.2 3.7-8.2 8.3c0 4.5 3.5 8.2 8.2 8.2s8.2-3.7 8.2-8.3zm-13.1-.1c0-2.8 2.1-5.1 5.1-5.1 1.9 0 2.9.6 3.9 1.5l-1.4 1.7c-.8-.7-1.5-1.1-2.5-1.1-1.7 0-2.8 1.4-2.8 3.1s1.1 3 2.8 3c1.1 0 1.7-.5 2.5-1.1l1.4 1.4c-1.1 1.1-2.1 1.7-4 1.7-2.9.1-5-2.2-5-5.1z"/><path fill="#e6e6e6" d="m525 425.3h3.4l4.2 13.2 4.4-13.3h2.6l4.4 13.3 4.2-13.2h3.3l-6.2 18h-2.7l-4.4-12.8-4.4 12.8h-2.7z"/><path fill="#e6e6e6" d="m551.2 436.4c0-3.9 3.1-7 7.2-7 4.2 0 7.2 3.2 7.2 7s-3.1 7-7.3 7c-4.1 0-7.1-3.1-7.1-7zm11.2 0c0-2.3-1.7-4.3-4.2-4.3s-4.1 2-4.1 4.3 1.7 4.3 4.1 4.3c2.7.1 4.2-1.9 4.2-4.3z"/><path fill="#e6e6e6" d="m567.8 429.7h3.1v3c.8-2 2.4-3.4 4.8-3.3v3.2h-.2c-2.7 0-4.6 1.7-4.6 5.4v5.1h-3.1z"/><path fill="#e6e6e6" d="m577.5 424.5h3.1v11.1l5.6-6h3.8l-5.4 5.5 5.5 8h-3.5l-4.1-5.8-1.9 2v3.9h-3.1z"/><path fill="#e6e6e6" d="m590.1 436.4c0-3.9 3.1-7 7.2-7 4.2 0 7.2 3.2 7.2 7s-3.1 7-7.3 7c-4.1 0-7.1-3.1-7.1-7zm11.2 0c0-2.3-1.7-4.3-4.2-4.3s-4.1 2-4.1 4.3 1.7 4.3 4.1 4.3c2.6.1 4.2-1.9 4.2-4.3z"/><path fill="#e6e6e6" d="m606.5 438.2v-8.6h3.1v7.6c0 2.1 1.1 3.3 2.9 3.3s3-1.3 3-3.3v-7.6h3.1v13.4h-3.1v-2.1c-.8 1.3-2.1 2.3-4.2 2.3-3 .2-4.8-1.8-4.8-5z"/><path fill="#e6e6e6" d="m622.2 439.4v-7.1h-1.7v-2.6h1.7v-3.7h3.1v3.7h3.6v2.6h-3.6v6.6c0 1.2.6 1.7 1.7 1.7.7 0 1.3-.2 1.9-.5v2.5c-.8.5-1.7.7-2.8.7-2.3 0-3.9-.9-3.9-3.9z"/><path fill="#e6e6e6" d="m631.5 425.3h3.2v15h9.4v2.9h-12.5v-17.9z"/><path fill="#e6e6e6" d="m654.3 443.1v-1.7c-.9 1.1-2.3 2-4.4 2-2.6 0-4.8-1.4-4.8-4.2 0-3 2.3-4.4 5.4-4.4 1.7 0 2.6.2 3.7.5v-.2c0-1.9-1.2-2.9-3.3-2.9-1.5 0-2.6.3-3.9.8l-.8-2.5c1.5-.7 2.9-1.1 5.1-1.1 4 0 5.9 2.1 5.9 5.7v8zm.1-5.6c-.8-.3-1.9-.5-3.1-.5-2 0-3.1.8-3.1 2.1s1.1 2 2.6 2c2 0 3.5-1.1 3.5-2.9z"/><path fill="#e6e6e6" d="m663.3 441.1v2.1h-3.1v-18.7h3.1v7.4c1-1.4 2.4-2.5 4.5-2.5 3.2 0 6.3 2.5 6.3 7s-3.1 7-6.3 7c-2.2 0-3.6-1.1-4.5-2.3zm7.7-4.7c0-2.6-1.7-4.3-3.9-4.3s-3.9 1.7-3.9 4.4c0 2.6 1.8 4.3 3.9 4.3s3.9-1.7 3.9-4.4z"/><path fill="#e6e6e6" d="m675.3 441.4 1.4-2.1c1.4 1.1 3 1.7 4.4 1.7s2.1-.5 2.1-1.5-1.3-1.4-2.8-1.8c-.1 0-.2-.1-.2-.1-2-.6-4.2-1.4-4.2-4s2.1-4.1 4.8-4.1c1.7 0 3.5.6 5 1.5l-1.2 2.2c-1.3-.8-2.6-1.3-3.8-1.3s-1.9.5-1.9 1.4 1.3 1.4 2.8 1.8c.1 0 .2.1.2.1 2 .6 4.2 1.5 4.2 4 0 2.9-2.2 4.2-5 4.2-2 0-4.1-.7-5.8-2z"/></g>
</svg>
