<?xml version="1.0" encoding="utf-8"?>
<!-- Generator: Adobe Illustrator 23.0.1, SVG Export Plug-In . SVG Version: 6.00 Build 0)  -->
<svg version="1.2" baseProfile="tiny" id="Layer_1" xmlns="http://www.w3.org/2000/svg" xmlns:xlink="http://www.w3.org/1999/xlink"
	 x="0px" y="0px" viewBox="0 0 900 600" xml:space="preserve">
<g>
	<path d="M434.18,461.22c-2.14-9.19-2.59-18.87-13.41-29.28c-7.21-6.94-24.41-10.57-33.58-0.92
		c-16.65,17.51-10.63,30.41-13.21,33.68c-13.31,0.31-26.72,0.72-40.03,2.15c0.31-3.99-1.32-7.48-2.97-10.54
		c-4.88-9.06,0.14-15.84-1.02-24.67c-0.69-5.19,2.31-9.3,1.33-12.59c-2.02-6.76,4.66-16.81-0.31-29.69
		c-2.45-6.35,2.18-9.89-2.15-14.13c-0.9-0.88-2.15-17.2-0.51-28.87c2.4-17.06-7.75-20.02-6.55-32.25
		c0.75-7.61-2.82-21.95-10.24-24.37c-12.78-4.16-12.79-11.72-22.73-14.74c1.74-5.02,4.25-9.32,4.2-14.33
		c-0.04-4.31,4.4-10.17,0.1-14.74c-1.13,10.65-1.74,21.4-6.86,31.43c-13.19,0-11.47-0.31-11.47,0.92c3.99,1.33,8.19,1.33,12.8-0.31
		c-1.02,4.81,1.43,9.42-0.31,14.13c-5.73,1.64-11.36,2.15-16.99,3.07c5.63,1.23,11.06-1.02,16.99-1.33
		c-8.8,20.01-6,17.32-23.03,19.25c2.2-13.19-1.83-1.19-2.76-0.2c-3.07-1.95-6.96-2.66-9.32-5.43c-9.91-11.65-3.15-18.42-10.14-36.14
		c4.46,0.1,7.13-3.51,10.95-4.58c0.18,1.12-0.61,2.33,0.1,3.55c1.83-2.14,1.84-2.15-0.07-3.56c0.02-0.01,0.05-0.02,0.07-0.02
		c0.2-0.92,1.43-0.51,1.54-1.23c0.92-3.69-0.61-7.68,1.23-11.47c-1.02-0.51-2.66-0.31-2.56-2.15c0.72-0.2,1.64,0,2.15-0.82
		c0.41-1.13-0.1-2.46,0.72-3.58c1.95,0.61,0.72,2.56,2.15,4.3c2.87-7.06,5.32-13.62,9.52-19.66c2.25,0.72,3.17-1.23,4.61-2.46
		c-0.31-1.43-1.33-2.35-1.33-3.69c-0.01,0-0.02-0.01-0.02-0.01c1.97-0.43,1.88,1.86,2.99,2.67c2.37-5.38,11.36,0.46,17.71-2.56
		c-0.31,4.61,1.33,8.5,2.15,12.59c-1.84,0.82-3.27,1.34-4.61,2.05c-2.75,1.45-4.5,6.86-2.35,7.27c0.92-0.61,0.1-2.05,1.23-2.66
		c1.84,0.61,3.58-0.31,5.53-0.92c0.1-2.76,2.36-5.33,1.33-7.99c-1.43-3.69-1.02-7.47-1.84-10.85c1.74-2.76,4.81-3.38,6.65-5.43
		c0-1.13,0-2.25,0-3.28c-1.13-1.02-2.56-0.1-3.89-0.41c0.82-1.23,2.97-1.02,2.66-2.97c-1.64-1.43-3.07,0.31-4.5,0.41
		c-0.61-1.64,0.61-3.58-1.02-5.22c-1.02,0.92-1.95,1.74-3.07,2.76c-0.92-1.43-2.36-1.64-3.58-1.13c-4.21,1.78-7.03,1.13-17.81,1.13
		c-0.92,0.72-0.82,2.35-2.25,2.25c-0.82-0.41,0-2.05-1.64-1.95c-2.05,2.35-4.61,4.2-8.09,3.99c-1.54-1.02-2.76-2.97-5.02-1.64
		c-0.1,1.43,1.43,1.74,1.54,2.66c-1.64,3.07-2.79,6.03-3.89,9.11c-2.41,6.74-5.84,13.1-1.33,20.27c1.19,1.19-2.13-1.09,1.64,9.11
		c1.17,3.16,0.31,6.76,2.56,9.52c-11.04,9-20.28-0.42-31.33,12.29c-8.18,9.41-18.57,2.48-23.03,24.57
		c-1.91,9.44-8.98,14.99-5.63,20.58c1.33-4.61,4.14-8.28,5.02-12.39c0.97-4.5,5.32-6.86,6.24-11.26c-1.84-0.41-1.54,1.64-2.66,1.54
		c-0.98-4.15,1.61-6.59,5.12-9.62c11.05-9.55,10.15-3.65,15.87-10.14c3.88-4.99,8.24-7.12,12.49-7.68
		c6.14,10.65,4.93,22.11,5.22,33.17c0.21,8.09-1.92,16.02-9.62,20.99c-3.37,2.17-6.06,5.39-9.32,7.78c-2.06,1.51-4.18,3.38-4.4,6.35
		c-1.67,22.17-14.51,33.36-11.88,45.56c0.07,0.2-1.58,15.41-6.65,27.64c-4.48,10.79-4.38,27.18-3.58,41.46
		c0.8,14.24,7.8,13.86,6.96,19.25c-0.71,4.61-3.17,8.6-4.91,12.69c-1.33,0.31-2.25,0.51-3.38,0.72c0-4,5.6-7.24,4.2-11.16
		c-4.63,5.14-5.7,11.99-9.21,8.09c0.61-2.76,2.66-4.91,3.38-8.09c-5.44,1.65-3.19,8.35-8.09,9.62c2.56,1.54,5.43-0.31,6.96,2.05
		c-1.56,1.39-2.79-5-5.73,7.47c-0.7,2.97-0.43,6.54-2.35,8.91c-2.48,3.05-1.54,6.86-3.79,9.93c15.04,8.94,7.48,21.06,46.48,11.98
		c1.78,0-0.53-9.96-1.02-11.67c-1.37-4.74-2.13-0.13-7.17-7.99c-5.91-9.21,1.37-11.27-2.66-15.46c-0.7-0.73-1.84-0.92-2.35-2.15
		c4.08-9.51-14.28-6.18,56.31-10.54c1.95,6.34-4.8,1.21-3.07,6.24c-1.54-1.43-2.46-0.72-3.07,0.41c-3.23,5.17,0.67,4.25-0.72,13.21
		c-0.74,4.81-3.48,9.11-3.38,14.23c13.17,5.27,15.47-0.42,30.3,6.35c7.58,3.46,15.66,1.89,23.55,1.95c2.66,0.02,4.95-1.41,6.14-3.79
		c1.27-2.54-1.66-9.38-4.3-10.54c-23.09-10.19-19.15-20.26-25.59-29.28c6.24-0.41,11.98-0.82,17.81-1.13
		c2.05,3.69,5.43,5.32,9.01,6.35c1.23-0.2,1.43-1.43,1.95-1.64c6.35,0.31,11.57-1.13,15.05-6.65c14.33-0.41,28.46-1.64,42.79-2.46
		c4.59,27.54,12.85,44.76,39.31,36.14c16.01-5.21,19.05-26.53,20.78-39.72c42.04-2.59,39.56-1.64,40.54-5.12
		C477.39,454.36,452.06,463.07,434.18,461.22z M292.39,242.65c-0.27,0.27-0.72,0.32-0.72-0.31
		C292.28,241.73,292.68,242.21,292.39,242.65z M297.1,218.29c-0.2,0.72-0.31,1.33-1.33,1.95
		C295.25,218.9,295.15,218.08,297.1,218.29z M291.06,212.55c0.92,0.92,0.51,1.43-0.41,2.05
		C290.34,213.78,290.65,213.27,291.06,212.55z M282.05,223.3c1.85,1.85-1.29,0.12-1.43,0.1C281.02,222.38,281.53,223.2,282.05,223.3
		z M278.16,215.52c-0.41,0.82-1.02,1.33-2.05,1.74C275.9,215.62,276.72,215.32,278.16,215.52z M271.09,225.76
		c-1.05,0.26-2.12,0.77-3.07-0.72C269.56,224.02,270.38,224.53,271.09,225.76z M265.97,230.57c0.2,0.82-0.2,1.13-0.92,1.43
		C264.66,231.09,264.83,230,265.97,230.57z M264.03,222.99c0.36-1.8,1.95-0.67,0.2,0.2c-0.41,0.82-0.92,1.54-2.15,1.84
		C262.39,223.81,262.9,223.2,264.03,222.99z M260.55,235.79c0.31,0.92-0.31,1.13-1.23,1.43
		C259.42,236.1,259.63,235.48,260.55,235.79z M253.89,233.95c0.82,1.23-0.31,1.84-0.61,3.07
		C253.18,235.69,252.56,234.67,253.89,233.95z M253.79,242.34c2.35-0.1,1.95,1.64,2.76,2.87
		C254.41,244.6,254.41,244.6,253.79,242.34z M258.09,235.07c0,0.72-0.51,0.82-1.33,1.02C257.07,235.28,257.27,234.77,258.09,235.07z
		 M257.48,222.59c-0.51,1.43-0.51,1.43-2.56,0.61C255.84,223.1,256.45,222.18,257.48,222.59z M252.77,220.95
		c1.64,0.41,2.25,1.02,2.25,2.15c-1.23,0.1-2.35,0.61-3.48,1.43C251.85,223.2,253.18,222.48,252.77,220.95z M251.44,248.9
		c-2.51-2.77-1.07-5.38,1.43-2.46C252.36,247.26,251.95,247.97,251.44,248.9z M220.01,338.68c2.66,1.23,5.63,1.64,9.32,2.56
		c-2.97-2.25-5.94-3.38-6.86-6.86c5.84-2.25,9.68-6.9,13.62-11.36c5.56-6.32,3.69-10.76,3.99-11.36c3.07-8.29,0.87-16.69,0.92-25.08
		c0.08-12.88-7.85-15.49-1.13-14.74c2.63,2.1,4.16,17.43,4.2,19.66c0.46,26.61,34.17,29.35,40.03,14.33
		c7.07-18.12,6.36-9.59,5.12-28.26c2.05,0.1,2.35,1.23,2.46,2.87c1.65,24.1-11.09,28.7-4.71,48.12c1.76,5.36,7.33,3.28-16.89,13.51
		c-3.43,1.45-8.77-2.21-11.16-0.82c2.28,4.56,24.91,2.86,38.19-12.29c-1.95,11.67-0.61,22.93,2.05,34.5
		c-1.74-0.61-3.69-0.2-4.61-2.35c-0.35-1.05-9.68-2.13-12.69-1.43c-3.6,0.84-2.49-3.01-9.42-0.51c-2.46-3.58-5.12-1.33-7.78-0.31
		c-2.05-1.23-2.15-4.5-5.43-4.3c4.3-2.46,5.84-6.35,7.78-10.75c-1.84,0.61-9.62,9.32-10.34,11.26c-4.5-1.33-9.21-0.61-14.44-1.02
		c31.72-6.07-1.73-0.1-9.32-1.95c-0.31,1.54,1.02,1.13,1.23,2.05c-5.32-0.31-9.93-3.28-15.25-3.07c3.28,1.64,6.86,2.05,10.34,3.79
		c-4.3,1.23-8.19,0.92-12.39-0.72C219.93,342.87,216.51,341.3,220.01,338.68z M311.74,450.58c-1.83,6.25-5.73,11.36-8.91,17.51
		c-3.17,0-6.65,0-10.54,0c5.32-12.8,11.16-25.29,19.66-36.55C311.12,437.88,313.59,444.23,311.74,450.58z M306.72,433.99
		c-6.7,9.88-9.49,18.39-16.58,34.6c-5.84,0.51-11.57,1.02-17.51,0.92c9.51-35.66,4.16-30.82,2.56-19.76
		c-0.98,6.75-2.76,13.31-5.12,20.07c-19.04,1.02-38.08,2.15-57.33,3.17c1.51-18.85,23.3-43,18.33-51.9
		c-1.88-3.36-0.31-5.73,1.95-8.19c14.84,1.24,17.07,0.82,21.29,3.17c2.47,1.37,11.42,2.74,12.69,1.54c4.2-4,10.21-5.45,14.33-9.62
		c1.22-1.24,2.97-1.54,5.02-2.66c-14.41,19.98-11.31,29.22-8.91,36.55c0-2.84-0.02-5.66-0.61-8.5
		c-2.01-9.52,14.33-29.92,14.33-33.68c-0.96-0.84-1.51,0.29-1.97,0.17c0-2.41-2.07-0.45-6.12,1.98c2.32,0.1,4.26-0.3,5.89-1.6
		c2.6,2.6-14.34,6.5-22.98,9.99c-2.98,1.2-6.14,0.2-9.32,0.2c-1.74-2.05-2.35-4.5-2.87-7.06c1.54-0.72,3.07-0.1,4.71-0.61
		c-1.74-0.82-3.48-0.92-5.02-2.15c-0.31-2.97,0.11-5.63,2.46-8.09c18.98-19.85,14.58-19.5,19.14-22.63
		c6.37-4.37,8.91-10.03,18.12-5.53c5.81,2.84,4.98-0.21,19.35,8.91c4.7,2.98,7.59,6.76,6.65,13.21
		C316.59,404.62,317.99,417.36,306.72,433.99z M239.37,402.14c1.34-3.75-0.55-11.23,6.23-17.4c11.37-10.35,23.14-14.98,23.96-18.22
		c-9.21,5.32-17.51,10.95-25.29,17.81c-0.31-3.58-1.13-6.45-3.79-8.5c0.41-1.74,2.35-2.25,2.87-4.2c-1.95,0.1-2.87,1.84-4.5,2.05
		c-2.35-1.64-4.81-3.28-7.47-5.12c1.39-5.84-19.47-10.88,5.32-3.89c-0.31,1.54-2.35,1.23-2.46,2.87c2.97,0.82,4.61-3.89,7.58-1.64
		c2.48-2.48-6.89-0.92,10.44-4.2c-1.43,1.84-3.69,1.02-5.32,2.66c6.35-0.92,12.18-2.46,18.22-3.48c-2.15,1.95-4.91,2.66-6.76,4.91
		c3.38-1.84,7.58-1.95,9.83-5.73c1.43,0,1.02,2.05,3.17,2.25c2.56-1.33,6.04-0.92,9.62,0c0.38,1.13-5.47,3.55-9.73,9.11
		c-5.06,6.61-25.53,14.17-30.41,23.34c7.27-6.55,15.66-11.26,24.16-16.18c-15.03,17.34-16.78,20.23-9.73,35.22
		c-25.39-5.6-21.82,0.48-16.07-11.46c2.46,2.46,5.84,1.07,8.5-0.21C244.99,402.14,242.22,402.14,239.37,402.14z M232.29,357.62
		c5.12,0.31,9.52,3.07,14.64,2.46c-2.46,1.33-5.43,1.13-7.58,3.28C230.03,360.37,231.67,361.37,232.29,357.62z M251.23,359.67
		c2.15-3.48,5.52-1.46,8.19-2.25c0.71-0.21,1.23,0.82,1.23,1.95c-1.33,1.02-3.17,0.92-5.02,1.84
		C254.51,359.67,252.97,359.36,251.23,359.67z M257.27,413.41c4.61-0.1,9.21-0.1,13.72-1.33c-1.54,1.74-4.1,2.25-4.81,4.71
		C262.7,416.38,259.83,415.26,257.27,413.41z M229.22,357.93c0.61,0.51,0.72,1.13,0.51,1.84c-1.31,1.02-5.43-2.19-5.12,1.33
		c-3.38-1.33-7.37-3.99-8.39-5.53C222.57,358.13,222.57,358.13,229.22,357.93z M215.4,361.61c-0.72,0.61-1.13,0.61-1.84,0.61
		C213.76,360.49,214.48,360.9,215.4,361.61z M204.55,398.16c1.13-0.1,1.74,0.61,2.56,1.23c-0.82,1.33-1.64,1.84-3.07,1.23
		C203.63,399.7,204.14,398.98,204.55,398.16z M202.5,405.02c0.82,0.31,0.51,0.72,0.31,1.23
		C202.19,405.94,202.09,405.53,202.5,405.02z M196.36,432.15c-0.06-6.19,2.98-17.73,4.1-18.22c0,1.33-0.72,2.46,0.31,4.1
		c1.13-7.37,6.86-11.98,8.8-18.43c-0.82-2.25-2.97-2.76-4.3-4.5c1.23-5.22,1.92-10.56,0.92-15.97c-0.72-3.89,1.52-3.48,6.76-15.25
		c8.2-1.32,18.97,7.16,21.7,9.62c5.53,4.98,9.02,8.77,5.53,14.84c-4.12,7.17-2.48,14.06-6.24,18.12c-2.27,2.44-2.54,6.06-5.43,8.19
		c-1.12,0.83-1.09,2.96-0.92,4.61c0.26,2.55-0.86,5.08,0.72,7.58c0.32,0.5-0.3,1.74-0.51,2.66c-3.27,14.23-13.7,20.18-17.2,43.41
		c-2.05,0.82-4.2,0.72-6.24,0.72c-0.72-0.92-0.81-2.06-1.64-2.97C193.53,460.6,196.48,445.71,196.36,432.15z M209.15,481.9
		c0.7,5.92,0.13,4.98-9.21,2.15C202.91,481.6,206.08,482.72,209.15,481.9z M222.26,523.88c-6.42,5.13-25.09,5.9-32.86-1.95
		c-1.12-1.13-0.93-2.86-1.95-3.79c-1.65-1.52-3.38-3.17-5.53-3.69c-0.51-6.65,3.84-6.47,6.45-23.24c11.52-0.46,4.35,3.22,10.44-3.89
		c2.66,0.72,5.63,0.41,8.29,2.05c-0.82,1.95-1.23,4.1,0.82,5.73c-4.5-0.61-8.91-0.51-13.21,0.41c-0.2,1.13,0.72,0.82,1.13,1.33
		c-0.51,0.61-1.54,0.1-1.95,0.92c0.1,1.33,1.43,0.61,2.25,1.33c-0.92,0.82-2.66-0.2-3.07,1.43c0.72,1.43,2.35,1.23,3.48,1.84
		c-0.2,0.72-1.43,0.31-1.23,1.54c1.54,1.02,3.58,0.82,5.53,1.23c-0.61,1.23-2.35,0.92-2.56,2.66c0.82,1.23,3.28,1.54,2.76,4.3
		c4.4-0.92,9.52,2.05,11.88-3.99C218.06,512.31,224.31,515.79,222.26,523.88z M208.34,504.02c0.61-1.13,1.02-2.15,2.46-2.56
		c0.31,1.84,1.84,3.38,0.51,6.04C210.49,505.76,210.49,503.81,208.34,504.02z M210.79,500.13c-0.51-2.46-2.46-3.17-2.97-4.91
		c1.02-0.41,1.33-1.54,1.95-2.25C213.79,493.13,212.47,494.76,210.79,500.13z M267.92,485.08c3.28-1.23,6.76-0.72,10.34-1.02
		c0,1.84-0.92,2.76-2.35,3.17C272.29,484,266.35,492.14,267.92,485.08z M269.25,481.9c0.94-3.78,1.16-3.05,16.28-3.99
		C280.82,481.49,275.39,482.52,269.25,481.9z M289.21,487.53c-3.58,1.74-7.78,1.13-11.06,3.89c13.93-0.66,2.02,0.2-0.31,2.76
		c4.81,1.23,8.7-1.02,12.9-1.64c-3.07,2.15-7.17,2.05-10.24,4.4c2.46,1.74,5.73,1.13,11.67-2.25c-1.67,3.76-5.79,2.34-7.68,4.91
		c-6.83-3.19-7.47,8.73,0,6.65c0.2-1.54,0.51-3.07,0.82-4.71c1.43,0.51,2.87-0.1,4.3-0.1c1.84,3.69,4.91,3.99,10.14,1.02
		c4.5,1.84,8.2,5.2,12.8,6.86c2.4,0.86,1.49,4.67,3.38,7.88c-2.76,1.33-5.23,2.6-8.29,2.25c-5.02-0.56-10.15,1.96-22.01-3.17
		c-14.53-6.29-18.59-0.39-25.49-5.22c1.74-7.68,4.91-15.36,2.35-23.75c1.94,5.64,5.39,1.85,16.28,0.92
		c2.66-2.46,2.35-7.99,8.09-7.27C288.39,482.62,288.5,485.08,289.21,487.53z M281.84,505.14c-1.74-1.95-1.84-3.38,0.1-4.81
		C285.63,502.38,281.53,503.3,281.84,505.14z M308.05,473.51c-118.63,7.24-106.45,6.71-105.86,4.91c1.94-3.88-6.79-0.77,108.01-7.68
		C310.51,472.9,309.69,473.41,308.05,473.51z M331.6,465.83c-0.88,3.91,0.22,7.7-3.89,10.44c-0.51-1.33,1.23-2.05,0.51-3.58
		c-3.69,0.51-2.56,5.84-6.24,6.35c-0.31-1.84,1.43-3.28,0.92-5.32c-3.17,1.02-1.95,5.12-4.61,6.14c-0.51-2.56,2.46-4.3,1.23-7.06
		c-3.07,1.84-2.66,5.73-5.12,7.78c-1.13,0.31-2.05-0.61-3.17-1.23c-0.72-4.2,4.4-8.91-0.61-13.1c-1.23,0.61-1.95,2.87-4.3,1.13
		c2.35-5.63,7.47-10.03,7.99-17.2c1.23,1.74,0.72,3.48,2.56,4.3c1.23-2.35-0.1-4.61-0.92-6.35c-1.78-4.44,0.53-9.15-1.54-18.84
		c-0.29-1.34,0.22-2.45,0.72-3.69c5.42-13.36,4.61-30.37,6.45-39.01c1.05-4.91-0.65-8.97-4.3-12.39
		c-11.94-11.19-20.19,1.84-18.43-41.67c-0.1-1.33,0.41-1.84,1.43-2.15c-2.15-6.45-2.35-6.76-5.22-6.55
		c-0.41,1.13,0.92,1.43,1.23,2.35c-1.33,2.25-3.17,3.99-5.84,4.81c-8.02-13.85,2.07-25.06,2.87-36.45c1.64-1.13,3.28,0,5.12-0.31
		c-1.13-2.15-3.17-2.05-4.91-3.07c0-18.3-3.9-11.46,19.55,1.95c5.24,3,8.79,25.5,5.12,35.22c2.56-1.54,1.84-3.69,2.97-5.22
		c1.64,1.33,1.37,3.46,2.15,4.91c6.71,12.43,1.66,19.39,3.07,27.13c0.43,2.35-1.05,4.51-0.82,6.86c2.01,20.75,3.76,16.56,2.97,19.35
		c-1.7,7.94,4.47,8.59,1.23,26.31c-2.13,11.67,0.87,14.88-1.84,21.5c-1.27,3.09-0.12,9.88-1.23,11.57
		c-2.65,4.03-0.82,8.5-1.95,12.69c1.74,0,1.43-1.54,2.25-2.15c0.1,0.1,0.31,0.31,0.31,0.41
		C326.32,456.46,332.97,459.76,331.6,465.83z M326.27,446.69c-0.88-0.88-0.57-2.44,0.61-1.84
		C326.79,445.46,327.09,446.17,326.27,446.69z M358.42,470.23c-11.51,0.67-21.02,1.54-25.18,1.54c-0.5-2.72-0.78-2.33,23.96-3.48
		c36.1-1.68,33.06-2,34.19-1.43C390.87,469.55,391.33,468.32,358.42,470.23z M393.74,476.79c-2.46-0.92-4.5-2.15-5.63-4.81
		c1.84-1.34,7.83-2.03,6.45-6.65c-0.52-1.74-1.33-2.05-4.5-1.95c0.72-1.74,0.72-1.74,2.25-2.97
		C398.35,463.48,399.27,472.08,393.74,476.79z M395.17,459.79c15.56-1.99,14.98,18.23,1.64,17.2
		C399.78,470.85,400.91,465.11,395.17,459.79z M395.17,508.01c-12.67-5.79-17.4-23.09-18.43-35.63c1.17-0.26,8.32-1.38,8.91-0.2
		c4.72,8.07,17.8,9.22,22.63,0.41c3.47-6.35-1.84-14.9-9.11-14.84c-6.21,0.04-11.09-0.04-12.39,5.94c-3.38,0.2-6.65,0.41-10.34,0.61
		c0.5-33.59,25.02-45.43,37.06-32.25c20.36,22.3,12.57,56.81,4.81,68.18C414.04,506.49,401.92,511.1,395.17,508.01z M419.64,502.69
		c9.72-18.72,7.65-22.41,9.01-36.65c1.8-18.91-11.39-33.07-12.59-35.22C436.46,444.78,436.74,483.62,419.64,502.69z M472.67,463.58
		c-41.92,2.37-38.29,2.92-38.29,0.92c1.34-0.58,15.25-1.22,15.36-1.23C475.69,462.25,472.67,461.38,472.67,463.58z"/>
	<path d="M183.15,475.97c-2.56,2.46-1.33,5.84-2.05,8.7c-4.26-1.07-3.6-9.3-2.76-16.89c1.37-12.48,2.46-4.99-2.35-51.09
		c-0.64-6.13-3.82-3.65-1.33-16.07c3.61-18.05,3.86-19.01,3.48-22.11c-3.17,0.51-6.24-1.54-9.93-0.41c2.66,1.43,5.53,0.92,7.78,2.66
		c-1.63,8.58-0.87,9.75-2.46,12.49c-6.65-3.89-7.47-11.36-10.75-18.33c3.89-3.89,4.81-9.42,3.99-15.25c2.15-1.64,4.4-2.87,4.3-6.04
		c3.28,1.54,6.24,2.56,9.01,0.1c0.92-0.72,1.74-1.64,0.51-3.07c-1.64,0.31-2.87,2.07-4.91,1.84c-1.64-0.18-3.38-0.72-5.22-0.1
		c-0.41,2.25-0.92,4.5-3.79,5.22c-0.72-1.64,0.41-3.58-1.54-4.91c10.59-6.71,11.51-2.43,16.79-9.73c0.28,6.33,0.8,27.08-5.12,29.38
		c0.2,1.33,1.23,0.51,1.84,1.13c0,1.43-1.02,3.17-0.51,5.02c1.78-0.59,4.44-10.91,5.02-14.23c4.01-23.09-0.41-24.02,4.1-34.4
		c2.52-5.8,5.66-7.2,2.25-8.39c-2.46,5.84-6.45,10.85-7.78,17.3c-0.72,0.31-1.33,0.51-1.74,1.13c-7.68,11.59-15.5,3.54-16.48,15.25
		c-0.47,5.63,0.51,11.51-2.56,16.89c-0.64,1.11-0.43,2.47,0.2,3.69c3.11,5.95,1.05,12.74,11.57,20.07c0,12.55-3.25-0.15,1.64,33.17
		c0.02,0.1,3.43,23.92,2.76,28.56c-2.13,14.88,0.15,15.16-2.15,17.61c-18.33-0.31-36.55,2.35-55.08,2.66
		c-1.02-7.58-2.43-14.66-5.84-21.29c-8.93-17.39-14.49-19.55-29.79-19.55c-0.51,1.33-1.13,2.46-2.46,2.76
		c-8.58,1.98-16.69,22.28-17.81,41.05c-4.81,0.82-9.52,0.63-14.23,0.92C4.98,484.44,0,482.5,0,489.17c0,4.24,3.55,5.22,7.78,5.22
		c57.05-3.52,54.64-3.59,57.23-2.97c3.6,19.95,6.66,20.17,4.3,25.49c-0.32,0.71-0.72,1.43-0.61,2.25c0.51,1.54,1.64,2.75,3.07,3.07
		c4.78,1.06,5.81,4.38,11.77,10.24c19.54,19.19,39.59-15.73,36.86-44.43c2.9-1.27,3.59-0.68,45.05-3.28
		c14.28-0.9,13.89,2.05,15.66,2.05C183.25,484.98,184.38,479.45,183.15,475.97z M4.1,491.94c-2.76-1.64-1.74-3.69-0.82-5.73
		C6.69,485.45,8.22,490.63,4.1,491.94z M35.63,489.68c-38.24,2.35-22.98,2.57-26.82-2.56c0.72-1.08-4.3-0.57,72.18-4.4
		c2.15-0.11,4.71-0.92,5.22,2.35C85.39,487.51,88.06,486.46,35.63,489.68z M67.26,490.61c24.39-1.56,13.93-0.21,4.4,19.45
		C69.41,503.4,68.69,497.16,67.26,490.61z M70.84,518.86c2.76-9.01,7.99-16.58,13.41-24.26c-1.64,8.8-1.33,17.81-2.25,26.82
		C77.7,521.73,74.02,521.32,70.84,518.86z M93.98,535.86c-6.35-1.95-10.65-6.35-14.84-11.67c10.35,0.77,3.45-16.28,6.65-16.28
		c2.81,8.43,3.18,14.63,9.62,10.85c3.5-2.05,5.61-4.91,4.5-8.8c-3.95-13.98-11.76-13.29-9.21-19.14c-0.31-0.25-4.07,1.6-1.95,4.91
		c1.5,2.34,5.91,5.24,8.5,12.39c1.63,4.51,1.2,5.69-2.66,8.39c-0.72,0.5-1.43,1.13-2.46,1.23c-2.56-0.47-6.22-17.14-6.45-22.52
		c-0.1-2.35-2.15-3.38-3.38-5.53c7-1,8.11-9.4-0.1-10.34c0.41-1.33,1.43-2.05,2.46-2.76c6.24,0.31,7.99,2.35,7.27,8.5
		c-0.1,1.74-0.51,3.38-1.13,4.81c10.3-7.98-2.64-20.59-9.11-13.31c-2.48,2.79-0.15,4.23-15.87,3.89
		c1.02-11.97,3.82-24.63,11.98-35.12c10.98-14.12,21.1,1.88,28.15,18.33C117.89,491.49,109.44,532.76,93.98,535.86z M106.47,529.82
		c-0.64,1.11-1.54,2.15-2.97,2.46c16.07-22.93,14.23-68.08-9.83-92.55c6.64,0,23.32,16.59,24.06,42.18
		C118.6,512.18,113.81,517.06,106.47,529.82z M175.78,481.39c-59.98,3.33-56.78,4.84-56-0.61
		C179.79,477.78,176.52,476.55,175.78,481.39z"/>
	<path d="M605.86,329.16c1.49,2.38,3.79,1.74,5.94,1.54c1.84-1.64,2.27-4.09,2.76-6.24c0.54-2.35,3.79-2.66,3.58-6.04
		c-1.13,1.23-2.56,1.02-3.28,1.64c-2.15,2.87-2.46,6.04-3.89,8.8c-7.02,1.4-0.64-2.9-2.04-10.23c1.41,0.5,1.42,0.5,2.14-0.83
		c-1.24-0.5-2.15,1.28-2.15,0.72c-3.17,1.74-1.95,5.22-2.76,7.58c-2.97,1.13-4.71,0.92-5.12-0.72c0.41-0.82,1.64-0.1,2.25-1.33
		c-2.46-4.1-0.51-9.32-2.56-14.13c1.6-2.34,1.43-17.01,1.54-18.94c0.11-1.94-2.08-2.66-2.05-4.5c0.05-3.38-1.02-6.55-1.64-9.83
		c-6.96-36.96-1.89-25.51-3.07-34.19c-0.81-5.94,1.43-11.16,3.28-17.3c1.54,6.14,5.53,9.93,8.91,14.13
		c1.45-4.15-4.91-7.75-5.94-11.16c-1.14-3.78-4.61-7.27-2.46-11.77c0-0.89-2.11-7.76-1.13-15.87c0.17-1.44-1.34-2.87-0.51-4.3
		c1.83-3.18-0.51-5.84-0.51-8.8c-1.02,2.15,0.4,4.4-0.2,6.35c-3.34,10.8,2.42,20.27-1.13,35.93c-0.63,2.76-3.09,4.92-2.35,7.99
		c1.84,7.73-4,10.4,2.05,35.63c0.42,1.73,5.09,25.57,4.4,26.52c-2.2,3.04-0.72,5.94,0,9.01c-2.56,2.15-1.23,4.5,0.1,7.27
		c-18.63-0.92-36.86,1.13-55.18,0.72c-0.31-2.46-0.53-4.5-0.82-6.55c-2.36-16.54-13.07-29.78-15.97-31.53
		c-5.38-3.25-11.26-3.99-17.61-3.79c-0.41,1.13-1.23,2.24-2.46,2.46c-6.99,1.25-15.22,18.43-16.99,27.74
		c-2.59,13.61-1.37,12.89-3.89,12.9c-13.32,0.07-2.79,0.54-56.61,0.82c-7.42,0.04-8.22,9.53-0.72,10.44
		c1.85,0.34,3.67-0.62,52.72-1.23c12.44-0.16,3.63-2.2,10.85,18.84c2.32,6.74-4.43,10.17,2.05,12.59
		c5.21,1.95,6.15,5.43,11.57,10.95c18.88,19.24,40.19-15.61,37.78-43.92c18.33-0.51,36.04-0.92,53.85-1.43
		C600.96,329.79,605.01,327.79,605.86,329.16z M428.85,327.11c-2.56-1.84-2.66-2.35-0.51-6.04
		C432.03,323.22,432.03,324.65,428.85,327.11z M433.26,321.69c80.62,0,76.92-4.71,77.29,2.87
		C415.69,327.2,437.12,328.63,433.26,321.69z M491.71,327.93c23.61,0,14.75-0.76,3.79,19.55
		C493.45,340.73,492.84,334.48,491.71,327.93z M494.38,356.39c2.97-8.91,8.39-16.28,14.03-23.75c-1.64,8.7-1.84,17.61-2.97,26.72
		C501.13,359.26,497.55,358.85,494.38,356.39z M516.8,374.2c-6.35-2.05-10.44-6.65-14.33-11.98c4.66-1.46,5.25,2.84,6.76-17.2
		c2.56,9.21,3.07,15.79,9.32,12.29c2.56-1.44,4.71-3.28,5.73-6.45c-1.33-2.05-1.11-4.72-2.15-7.06c-4.43-10-9.31-9.32-7.27-14.54
		c0.13-0.13-3.79,0.82-1.95,4.5c1.18,2.36,7.66,6.53,9.21,17.4c-1.64,2.35-3.79,4.1-6.35,5.02c-1.23-0.31-1.43-1.33-1.74-2.15
		c-6.5-22.35-2.39-23.04-7.58-25.7c9.15-3.33,6.96-9.95,0.72-11.06c1.76-4.5,8.84-2.61,9.42,2.25c0.61,3.17-0.51,6.14-1.33,9.21
		c10.85-9.68-3.48-21.8-9.32-13.62c-2.43,3.41,0.44,2.66-15.36,2.66c1.91-13.59,4.13-23.26,13.31-34.71
		c11.4-14.2,21.26,3.31,27.64,20.37C542.15,331.86,531.83,371.77,516.8,374.2z M541.47,342.37c-2.11,9.61-7.31,25.39-16.18,29.59
		c17.37-21.83,19.48-64.41-5.43-93.98c6.52,0.54,21.26,17.54,22.22,35.01C542.62,322.82,543.6,332.64,541.47,342.37z M545.15,323.73
		c-1.13-1.23-0.92-2.35-0.41-3.99c18.22-0.31,36.55-0.61,54.87-1.02C602.55,323.32,606.08,322.03,545.15,323.73z"/>
	<path d="M515.26,328.75c-0.1,0.1-0.2,0.31-0.31,0.41C515.18,328.93,515.26,328.84,515.26,328.75z"/>
	<path d="M899.89,312.68c-0.66-3.96-0.73-2.07-36.04-1.74c-5.45,0.05-4.31,1.07-5.84-7.88c-5.08-29.93-32.49-35.9-44.64-24.16
		c-13.61,13.16-12.32,23.22-13.92,33.07c-15.77-0.31-31.33,0.41-46.99,0.92c-15.45-21.24-5.91-67.41-20.27-94.8
		c-2.82-5.38,2.1-0.79-4.4-27.85c-2.38-9.91-8.06-10.97-5.43-18.53c0.92-3.23-2.96-17.51-3.89-20.78
		c-2.82-9.91-6.49-5.53-16.89-11.88c-0.5-0.3-1.09-0.2-1.59-0.02c-2.37-5.9-18.12-4.68-18.99-20.56c-0.4-7.37,3.72-3.63,7.27-20.17
		c0.64-2.96,0.54-6.13,1.74-9.11c1.15-2.86,0.41-6.04-1.23-9.62c-1.43,11.57-1.74,22.63-7.17,32.45c-4.1,0-7.78,0-12.08,0
		c3.17,2.76,6.45,1.33,9.32,1.95c0.61,2.05,0.12,3.99,0.1,5.94c-0.13,11.44,6.19,9.49,7.37,16.48c1.94,11.47,4.04,20.27-7.68,21.91
		c-14.45,2.02-19.83-11.85-25.08-20.78c1.74-2.46,0.51-4.81-0.31-7.78c-1.02,2.15,0,3.99-0.82,6.14c-2.87-4.3-6.04-7.68-9.52-11.16
		c8.91-6.04,9.42-14.84,8.8-24.57c13.44,9.47,11.8,8.61,12.49,7.58c-2.35-3.17-6.04-4.71-9.01-6.86c-1.33-3.28-2.46-6.45-2.25-9.93
		c-1.64,0-1.23,1.74-2.25,2.25c-0.41-1.64,0.1-2.97,1.02-4.3c-1.13-0.72-2.97-0.31-2.76-2.25c0.61-0.31,1.53,0,2.05-0.82
		c0.71-1.13-0.31-2.66,0.92-3.69c1.43,0.92,0.72,2.56,1.74,3.79c3.07-6.45,5.53-13,9.73-19.04c2.25,0.72,3.17-1.23,4.71-2.56
		c-2.05-3.51-1.39-3.59-1.56-3.59c1.96-0.33,1.88,1.86,3.19,2.88c1.55-5.83,11.03,0.32,17.51-2.76c-0.31,4.5,1.23,8.5,2.15,12.59
		c-1.74,0.82-3.17,1.34-4.5,2.05c-2.75,1.45-4.5,6.86-2.35,7.27c0.92-0.61,0.1-2.05,1.23-2.66c1.84,0.41,3.58-0.31,5.53-1.02
		c0.1-2.76,2.36-5.33,1.33-7.99c-1.43-3.69-0.92-7.47-1.84-10.85c1.74-2.76,4.81-3.38,6.86-5.63c-0.92-0.92,0.1-2.05-0.2-3.07
		c-1.13-1.13-2.56-0.1-3.89-0.51c0.72-1.23,2.97-0.92,2.66-2.97c-1.64-1.43-3.07,0.41-4.61,0.41c-0.31-1.84,0.51-3.58-0.92-5.22
		c-1.02,0.92-1.95,1.74-3.07,2.76c-2.28-3.61-6.34,0.9-9.52,0.31c-4.01-0.74-7.99,0-11.88-0.2c-1.13,0.41-0.92,2.15-2.35,2.05
		c-0.82-0.31,0-1.95-1.64-1.95c-1.95,2.25-4.5,4.1-7.99,3.99c-1.54-1.02-2.76-2.97-5.02-1.74c-0.31,1.43,1.33,1.84,1.33,2.87
		c-0.04,0.1-8.68,15.94-7.17,24.06c0.61,3.28,2.87,6.24,1.95,9.83c0,0.1,0,0.2,0.1,0.31c2.87,4.3,1.48,10.08,4.71,14.23
		c0.4,0.52,0.1,1.54,0.1,2.35c0,7.42,1.73,12.67-6.96,21.09c-17.93,17.36-28.23,16.15-33.99,24.37c-4.09,5.84-6.65,12.39-6.65,19.76
		c0,7.16-3.46,9.47-4.5,15.05c-1.9,10.17,4.59-4.19,6.76-18.33c0.6-3.89,1.54-7.68,4.1-11.67c-0.1,8.09-0.1,8.09,1.74,9.93
		c-1.43-4.4,1.84-8.29-0.51-12.18c3.3-7.25,13.14-7.19,29.59-20.17c20.81,26.8,11.63,32.54,9.32,39.82
		c-1.95,6.15-8.8,15.06-15.77,14.64c0.1-4.81,0.82-9.21-0.82-13.51c-3.33,1.11,1.84,24.83-11.06,53.75
		c-4.68,10.49-0.89,5.22-4.71,42.69c0,2.39-1.89,1.96-1.23,7.68c2.73,23.69,0.27,30.41,9.21,37.98c4.64,3.93,0.37,13.34-1.23,18.63
		c-1.33,0.76-2.66,0.82-3.91,1.06c1.23,2.42,3.13,0.37,4.73,0.78c1.95-2.76,2.66-5.73,3.58-9.11c29.48,0,58.76-1.43,88.45-1.95
		c0.68,5.7,4.35,20.34,4.61,20.78c3.49,6,1.03,9.19,3.28,26.82c-5.79-1.7-14.38,9.46-49.35,6.96c-1.64-9.93-5.73-18.84-9.32-28.36
		c-1.95,1.95-3.16,3.89-3.17,6.14c-0.06,9.11-3.71,22.82-2.46,23.55c2.25-0.2,2.05-2.15,2.35-3.58c3.87-17.95,1.93-20.09,3.48-20.78
		c1.95,3.98,8.25,20.31,5.43,24.26c2.97,0.51,5.43,0.82,8.09,1.23c1.86,6.82,7.2,10.14,6.24,14.33c-1.87,8.19,4.61,13.77,3.69,21.91
		c-2.82,24.69-6.89,26.9-3.99,35.83c4.9,15.11,4.82,14.28,4.5,16.99c-2.11,18.09,4.11,34.11-2.15,40.64
		c-2.34,2.44-2.59,11.95-1.64,16.99c4.76-0.92,0.18-6.47,3.38-13.62c0.92-0.2,1.53,0.29,2.46,0.1c8.75-1.78,6.68,4.67,11.36,2.56
		c1.75-0.79,1.43-2.35,1.43-3.99c2.97,0.2,3.07-3.48,5.94-3.79c3.28,1.13,3.07,4.81,4.81,7.68c-4.3-0.1-8.09,0.2-11.88,1.95
		c1.74,0,1.64,1.23,1.84,2.25c4.1,1.02,8.29-0.31,12.49,0.72c-3.89,2.15-8.8,0.51-13,3.38c2.15,1.13,4.2,0.82,6.14,1.23
		c-0.2,0.92-1.74,0.82-1.23,2.15c3.69-0.31,7.47-0.2,10.95-1.74c3.69,4.5,8.39,7.49,13.62,9.52c5.16,2,2.83,3.93,4.71,10.03
		c-2.08,3.33-6.94,1.1-22.22,0.72c-12.77-0.32-16.49-9.56-29.89-8.19c-6.35,0.65-0.67-6.33-1.43-10.03
		c-3.58,1.84-3.58,1.84-4.1,11.16c1.43,1.64,3.48,1.33,5.22,1.33c14.92,0,18.23,6.83,24.78,7.47c37.9,3.74,28.6-3.44,29.07-6.55
		c0.73-4.81-2.36-7.46-5.94-8.7c-18.7-6.5-14.86-27.74-26.82-26.52c-3.99,0.41-7.99,0.41-12.18,0.61c-0.1-2.15-0.31-3.99-0.41-5.84
		c-1.35,2.57,0.34,7.44-3.17,5.94c-1.02-1.43-0.36-2.1-0.51-30.82c-0.11-19.6-8.57-22.54-3.79-39.01
		c2.29-7.88,5.46-21.32,1.84-28.67c-1.75-3.55-3.74-8.53-2.87-12.39c1.94-8.54-5.74-10.82-5.32-16.28
		c12.39,1.84,23.96-2.05,35.83-4.91c0.2,3.89-1.23,6.96-0.92,10.24c-3.92,3.36-1.25,0.52-0.31,3.58c5.12,16.67-1.3,17.67-0.61,24.98
		c1.13,12.05,3.11,15.54,1.84,24.98c-4.34,32.43-11.97,63.96-8.19,64.91c1.13-0.82,0.93-2.15,0.92-3.17
		c-0.12-10.76,2.05-12.25,2.46-20.17c0.47-9.1,3.02-11.04,4.61-19.86c1.52-8.45,4.09-28.77,1.23-38.8
		c-4.07-14.28,5.27-15.13,0.82-28.36c-4.25-12.63,0.37-6.17,0.82-18.63c1.74-1.64,3.99-1.02,5.94-1.43
		c1.13-2.76-0.01-5.42-0.31-7.99c-0.96-8.29,0.23-16.8-3.38-24.88c-2.34-5.23-2.46-11.16-3.58-16.89c1.74-0.51,3.48-0.31,5.43-0.2
		c0,1.95,1.64,3.05,3.07,3.07c3.48,0.05,6.14,2.35,9.73,2.56c1.74-3.99,2.87-8.39,4.91-12.39c-3.48,2.56-5.22,6.04-6.24,10.03
		c-1.33-0.1-2.46-0.2-3.28-1.23c3.36-9.35-1.14-14.75-5.94-11.36c7.53-14.83,9.88-35.37,5.02-39.21c-0.73,7.68,3.04,5.37,0.1,10.85
		c-0.61-0.92-0.43-1.94-0.51-2.97c-0.86-10.92-5.58-11.99-10.85-31.63c-1.93-7.19,0.42-8.18-4.4-17.71
		c-2.13-4.21-3.07-8.6-4.2-12.69c0-1.02,1.23-0.41,1.02-2.05c-0.1-2.25-2.42-4.7-1.84-7.88c0.76-4.19,0.73-8.5,0.61-12.8
		c-0.29-10.7,1.75-6.33,2.87-13.1c1.12-6.79,5.12-28.67-0.82-28.67c0.1,3.99,1.54,7.78,1.13,11.88
		c-16.85-2.66-15.69-20.33-18.94-28.15c-2.47-5.93,3.89,0.64,6.65,0.32c3.24,5.95,14.77,3.02,17.51,15.65
		c4.77,21.98,0.86,21.69,4.2,26.41c3.76,5.32,7.17,20.32,7.06,23.24c-0.55,15.67,4.58,16.87,5.84,24.26
		c3.04,17.96,5.22,16.68,4.81,28.05c-0.82,0-0.61-0.82-1.43-0.72c0.2,3.48,1.35,6.76,1.74,10.14c0.73,6.29,0.79,27.58,9.32,45.05
		c1.21,2.49-0.69,14.54-3.89,12.8c-0.1-2.46,2.05-4.2,2.66-6.96c-3.99,1.54-3.38,5.53-6.04,8.09c2.05-0.82,2.97,0.51,4.1,0.72
		c2.46-1.02,3.48-3.38,5.32-5.02c15.97,0.2,31.84-0.72,48.01-1.02c0.51,7.06,1.82,13.72,3.89,20.27
		c3.6,11.41,14.26,21.18,25.08,18.94c5.12-1.06,13.37-1.46,18.73-7.78c9.48-11.18,10.59-23.26,12.29-32.86
		C891.09,315.64,901.21,320.58,899.89,312.68z M687.97,77.42c0,0.16-0.72,0.3-0.72-0.2C687.25,76.44,688.4,76.98,687.97,77.42z
		 M692.99,52.95c-0.51,0.92-0.51,1.64-1.33,1.84C691.24,53.56,691.24,53.56,692.99,52.95z M686.84,47.42
		c0.92,1.13,0.2,1.54-0.51,1.84C686.02,48.65,686.13,48.03,686.84,47.42z M678.45,58.78c-1.13,0.51-1.54-0.72-2.46-0.61
		C677.01,57.55,677.63,58.27,678.45,58.78z M673.84,50.29c-0.51,0.82-1.02,1.33-2.05,1.74C671.59,50.39,672.41,50.08,673.84,50.29z
		 M666.78,60.52c-1.33,0.44-2.28,0.54-3.08-0.61C665.14,58.78,666.06,59.29,666.78,60.52z M649.58,68.71
		c0.72,1.23-0.41,1.95-0.61,3.17C648.86,70.56,648.25,69.53,649.58,68.71z M649.27,77.21c2.46-0.31,2.05,1.64,2.56,2.66
		C649.99,79.77,649.58,78.64,649.27,77.21z M661.04,66.77c-1.13-0.61-0.1-1.13,0-1.64C662.17,65.85,661.56,66.26,661.04,66.77z
		 M659.71,57.76c0.32-1.91,2.04-0.53,0.2,0.2c-0.51,0.92-1.13,1.84-2.66,2.35C657.77,58.89,658.38,58.07,659.71,57.76z
		 M656.23,70.45c0.31,0.92-0.31,1.23-1.13,1.54C655,70.86,655.31,70.45,656.23,70.45z M653.67,69.84c0.1,0.92-0.41,0.92-1.13,0.82
		C652.65,69.94,652.96,69.63,653.67,69.84z M647.12,83.76c-1.13-1.23-2.05-2.25-0.82-3.69c1.13-0.31,1.54,0.51,2.05,1.02
		C648.45,82.23,647.12,82.64,647.12,83.76z M646.71,59.7c0.72-1.64,1.84-2.46,1.74-3.89c1.64,0.31,2.15,1.02,2.15,2.15
		c0.92-0.1,1.64-0.92,2.56-0.72C651.85,60.53,652.85,56.02,646.71,59.7z M701.99,507.6c-1.23,1.74-2.15,3.07-2.46,5.73
		c-2.76-3.89-6.65-2.66-9.83-4.1C693.6,507.81,697.59,507.5,701.99,507.6z M617.12,262.51c6-32.39-3.9-21.07,7.68-44.23
		c2.05,6.86,6.65,12.69,3.28,19.86c0.82,6.04,1.31,12.1-2.05,17.61c-1.17,1.92,0.2,3.28,0.31,4.81c-0.82-0.72-1.54-1.74-3.07-1.54
		c-1.54,1.02-1.86,2.77-1.74,4.5c0.32,4.67-2.98,2.41-5.84,9.42C615.08,268.86,616.52,265.79,617.12,262.51z M622.35,309.3
		c-7.22-6.06-4.35-10.89-6.14-26.41c-0.81-6.96,2.15-11.88,7.17-16.18c2.46,2.46,1.67,3.43,4.81,1.64c0.72,0.51,0,1.43,0.82,1.84
		c1.13,0,0.92-1.64,2.05-1.74c0.2,1.02-1.02,1.84-0.41,3.07c1.23,0.2,1.13-1.43,1.95-1.74c1.84,0.92,3.69,1.84,5.63,2.87
		c-0.51,2.46-0.31,4.61,2.76,5.73c-0.2-1.95-1.23-3.28-1.13-5.12c4.27,1,12.24,5.2,22.01,7.17c3.58,0.72,7.17-0.2,10.85,0.61
		c0.41,1.13-1.33,2.25-0.1,3.38c1.54-0.61,1.02-3.07,2.66-3.48c1.64,0,0.92,1.43,1.54,2.05c2.05-0.2,3.89-1.95,6.55-1.43
		c1.33-2.66,4.5-3.07,7.47-3.89c-1.33,1.54-4.3,1.64-3.58,4.81c1.54,0,1.43-1.43,1.95-2.15c0.92-1.13,1.74-0.41,2.97-0.31
		c0.1-2.97,4.2-1.95,4.2-5.02c1.74,1.23,0,2.15,0.41,3.07c2.05,1.54,4.02,3.13,6.04,4.61c9.15,6.68,2.55,14.88,7.58,22.01
		c1.65,2.34,2.05,5.32,2.76,8.8C604.07,315.8,632.8,318.08,622.35,309.3z M628.18,266.2c-0.31,0.72-1.02,0.61-1.54,0.82
		C626.17,266.44,625.84,263.38,628.18,266.2z M701.48,272.24c2.86,1.53-0.3,7.06,4.81,8.19c1.53,0.34,1.84,2.35,1.13,4.81
		c-1.64-3.28-4.1-5.02-6.65-6.96C702.51,276.64,701.18,274.39,701.48,272.24z M724.52,322.81c0.72-0.82,1.23-0.61,1.84-0.2
		C725.75,324.04,725.23,323.22,724.52,322.81z M729.12,316.46c1.11,2.84,1.17,2.42-21.5,3.07c-92.09,2.63-72.63,1.54-80.77,2.05
		C625.29,316.9,614.45,318.52,729.12,316.46z M694.52,149.18c1.59,9.41,8.22,16.85,13.21,18.22c1.63,0.45,3.38,0.61,4.71,1.95
		c-1.13,5.12-1.41,10.55-3.48,15.15c-3.5,7.78,0,7.99-3.99,30.51c-2.68,15.09-0.1,11.17-0.72,19.14c1.74-1.02,2.07-2.16,1.64-3.58
		c-1.26-4.12,0-7.88,0.72-12.29c8.29,23.7,8.63,23.44,8.6,24.88c-0.28,13.34,10.15,24.05,12.8,45.25
		c1.42,11.38-3.13,17.39-5.53,24.57c-12.73,1.59-4.56-2.58-11.77-11.67c-0.82-1.03-1.03-2.46-0.82-3.69
		c0.79-4.61-0.94-9.32,0.41-13.92c1.35-4.59-9.96-8.47-5.84-22.83c1.12-3.89,0.72-7.68,0.2-11.57c0-0.3-0.66-0.49-0.97-0.78
		c-0.89,2.21-1.59,4.52-1.38,6.92c0.39,4.61-1.54,9.11,0,14.03c-18.97,10.45-27.21,8.95-34.71,8.09
		c-12.99-1.49-36.6-8.9-41.26-16.89c1.02-2.25,1.95-4.5,3.07-6.96c4.5-0.31,8.39,2.66,13.31,3.07c-4.1-2.66-8.7-3.28-12.39-5.53
		c-0.82-5.74,7.22,6.48,25.8,4.81c-8.5-1.23-16.89-2.66-24.57-7.88c-0.51-0.61-0.2-1.64,0-2.56c1.23-0.51,2.15,0.92,3.58,0
		c-1.13-1.13-3.69-1.54-2.76-4.3c5.43,2.05,10.95,4.1,16.89,4.1c-4.38-1.13-13.95-3.23-19.14-6.45c4.96-9.22-5.14-23.43-3.79-27.44
		c1.73-5.12,2.66-10.54,3.48-15.87c1.64,0.1,2.56,1.74,4.5,1.54c-1.23-1.74-3.07-2.35-4.4-3.69c-0.2-2.25,0.72-4.4,1.13-6.65
		c1.23-0.92,2.76-0.41,3.89-1.13c3.28,3.28,4.71,3.58,11.06,1.95c-3.38-1.54-7.06,0.1-9.62-2.66c6.14-3.38,9.81-9.02,12.8-15.15
		c12.14-24.98-13.95-38.08-7.47-44.02c13.28,9.96,14.08,34.92,36.96,34.5c11.95-0.22,12.98-14.26,8.91-25.9c2.35,0,2.57,0,2.97,1.54
		C691.69,140.47,693.74,144.57,694.52,149.18z M767.82,317.79c-17.42,0.41-16.36,2.05-15.56-1.95c21.29-0.41,42.79-0.82,64.39-1.13
		C815.81,317.73,818.29,316.61,767.82,317.79z M818.5,325.06c-2.46-1.02-4.3-2.46-5.53-4.81c2.11-2.12,7.35-0.89,6.76-6.24
		c-0.33-2.97-2.66-2.15-4.61-2.35C816.36,302.97,828.61,316.94,818.5,325.06z M820.44,307.97c8.8,0.1,11.26,3.28,11.16,8.91
		c-0.11,6.24-3.69,9.11-10.24,8.5C824.95,319.33,825.97,313.5,820.44,307.97z M827,357.31c-15.26,3.15-25.29-20.76-25.29-37.57
		c10.65,0,7.26-0.93,11.36,3.58c5.12,5.63,15.47,4.82,19.76-1.33c2.57-3.68,0.89-7.36-0.2-10.85c-1.55-4.96-7.01-4.8-11.57-4.91
		c-4.2-0.1-7.88,0.51-9.11,5.53c-3.58,0-6.86,0-10.24,0c-0.41-14.13,5.65-25.16,16.38-33.89c4.31-3.51,7.86-2.32,13.31-2.05
		c8.61,0.43,18.09,18.24,19.55,27.33c1.28,7.91,0.4,26.88-4.81,39.52C842.55,351.37,835.59,355.54,827,357.31z M843.99,350.86
		c3.89-6.96,7.41-14.02,8.39-21.91c0.96-7.67,2.24-15.36,1.43-23.03c-1.65-15.57-11.21-24.18-11.06-25.59
		C861.19,292.3,861.6,334.38,843.99,350.86z M859.45,315.44c1.13-2.36,0.94-1.75,21.4-2.15c17.19-0.34,16.05-0.55,16.79,1.13
		C885.04,314.72,872.45,315.13,859.45,315.44z"/>
	<path d="M657.67,378.5c-5.28,1.11-4.98-0.87-42.69-3.07c-0.92-0.1-1.84,0-2.66-0.82c2.66-38.51,3.92-0.13,0.51-41.87
		c5.68,1,4.42-0.79,4.77-0.09c4.56-8.55,5.05-9.98,4.34-11.78c-2.66,3.38-3.38,7.78-5.53,11.06c-1.74,0.41-2.87-0.72-4.4-0.2
		c-0.41,1.13-1.21,2.25-1.02,3.69c0.66,5.01-0.2,10.19,1.74,15.05c0.32,0.81,0.12,1.84,0,2.76c-2.68,20.74-2.25,0-2.25,23.75
		c3.38,0.82,7.17,0.31,10.75,1.43c1.23,6.24,1.66,12.19,0.31,18.33c-1.75,7.9,0.31,7.12-0.41,11.98
		c-0.84,5.66-14.2,15.5-12.49,40.75c0.71,10.42,2.52,18.99,2.05,20.88c-1.46,8.04,1.28,25.07,1.23,32.76
		c-0.02,2.25-0.31,4.61,1.43,6.76c-0.1-18.73-1.95-37.47,0.1-56.2c-0.41,1.95-0.92,3.79-1.33,5.73c-5.35-28,5.66-38.42,11.77-49.35
		c-1.43-5.94,0.27-10.96,1.13-15.97c0.89-5.23-0.61-10.44-0.61-15.77c6.35,0.51,12.29,1.43,18.63,1.33
		c-2.25,3.75,4.7,11.69,6.76,15.56c5.55,10.45-0.94,21.62-6.55,31.94c-3.54,6.51-1.03,5.13-2.56,18.94
		c-2.34,21.17-6.03,13.41-10.54,37.37c-2.02,10.73,1.55,25.46,0.61,29.79c-5.84-2.25-11.98,0.31-17.4-2.66
		c-1.95,0.61-2.98,2.13-4.5,2.87c-2.27,1.1-3.68,2.97-3.58,5.43c0.23,6.04-3.29,11.59-2.05,17.71c0.34,1.68-1.93,3.72-2.35,6.24
		c1.33,3.17,3.99,3.89,6.86,3.89c2.25,2.76,4.1,5.61,7.58,6.55c19.11,5.2,22.22,3.67,31.63,1.54c4.68-1.06,1.54-6.16,0.72-8.8
		c-6.83-21.94-13.81-7.24-11.06-31.33c-1.43-0.92-3.48-1.02-3.69-3.38c-1.23-14.31-4.02-29.78,6.35-47.81
		c1.67-2.9,5.11-15.68,4.61-26c-0.83-16.84,11.02-18.22,9.83-30.82c-0.9-9.52,4.38-7.84,4.1-24.37
		C657.75,381.06,659.3,379.73,657.67,378.5z M621.42,513.95c7.52-0.76,6.69,0.23,7.78,4.3c-3.58,0.31-6.96,0.51-10.65,0.61
		C617.84,515.48,618.56,514.24,621.42,513.95z M616.1,513.64c-0.61,2.35-1.84,1.84-3.48,0.82C613.54,512,614.77,512.51,616.1,513.64
		z M633.91,525.62c-5.12,0.61-10.54-0.82-15.56,2.05c1.33,1.43,2.97,0.41,3.89,1.64c-0.45,0.4-9.75,1.08,4.3,2.76
		c0.2,1.13-1.64,0.82-1.33,2.15c1.13,1.13,2.76,1.02,4.3,1.43c0.72,0.72-0.61,1.13-0.31,1.74c2.46,1.74,3.58,1.64,6.76-0.72
		c-0.2-1.23-0.82-2.66,0-3.79c-1.02-1.84-2.66-0.92-4.2-1.43c0.41-1.02,0.1-2.56,1.95-2.46c6.86,6.04,11.16,13.51,12.9,22.42
		c-0.87,0.95-12.93,5.16-32.97-1.74c-4.85-1.67-2.59-6-7.58-5.53c-4.62,0.44-1.88-3.98-1.74-4.3c3.16-5.79-1.62-0.75,2.15-12.29
		c1.84-5.63,0.27-9.42,3.48-11.67c2.97,1.23,5.63,2.35,7.58,4.81c6.2,0.36,10.27,0.56,12.74,0.66c-4.2-0.02-11.51,0.21-15.09,1.59
		C621.63,525.21,627.87,523.98,633.91,525.62z M652.96,398.77c-1.86,1.86-0.42-4.62-5.02-8.91c-1.91-1.78-0.46-3.79-2.97-9.93
		c3.69,0.2,7.06,1.13,10.65,0.92C656.23,387.31,655,393.14,652.96,398.77z"/>
	<path d="M195.54,396.62c0.78-1.17,0.82-1.04-4.1-9.42c-2.28-3.89-1.59-4.18,1.84-13.62c-5.45-4.72-6.14,17.17-6.14,23.03
		c0,11.18-2.1,10.31-1.23,16.69c1.64-1.54,0.51-3.07,0.72-4.5c4.3-6.24,0.82-13.62,2.56-20.37
		C193.08,389.87,193.29,394.07,195.54,396.62z"/>
	<path d="M623.68,421.4c-0.82,9.32-0.65,18.17-3.28,26.62c-0.29,0.93-0.1,2.05,0.92,3.38C624.07,438.56,627.56,424.17,623.68,421.4z
		"/>
	<path d="M193.39,346.46c-5.53-8.63-1.46-13.07-3.99-14.03c-2.94,0.42-1.59,9.53-0.31,12.18c3.25,6.73,3.44,2.74,5.84,10.24
		c0.82-0.41,1.43-1.54,1.13-1.95C194.21,351.07,194.63,348.4,193.39,346.46z"/>
	<path d="M692.88,424.88c-1.95,4.4,1.24,7.57,1.95,11.06c0.73,3.58-0.82,7.47,1.33,11.36C697.9,439.11,696.26,427.54,692.88,424.88z
		"/>
	<path d="M270.79,244.29c8.88,2.05,16.23-3.83,7.78-5.32c-3.28-0.1-6.96-1.02-9.52,2.46c1.64,0.61,2.46-0.92,3.99-1.02
		c1.23,1.23,3.38,0.2,5.02,1.54C273.34,242.55,271.91,243.06,270.79,244.29z"/>
	<path d="M677.83,77.01c-1.23-4.2-9.01-4.71-13.21-0.51c1.54,0.41,2.35-0.92,4.1-1.23c1.13,1.43,3.48,0.1,4.81,1.64
		c-2.66,0.51-5.22,0.51-8.09,2.05C670.36,80.08,674.35,80.08,677.83,77.01z"/>
	<path d="M710.08,395.7c1.53-2.04,2.49-4.35,0-5.02c-1.86,1.59-3.5,7.41-4.71,8.29c-2.89,2.12-2.87,5.32-0.1,8.09
		C707.47,404.87,702.74,404.38,710.08,395.7z"/>
	<path d="M259.63,265.89c-1.13-3.38-2.46-6.35-2.46-9.83c-3.07,3.17,0.31,6.35-0.41,9.52c12.76,9.07,11.21,8.43,11.98,7.27
		C266.28,269.68,262.6,268.04,259.63,265.89z"/>
	<path d="M227.48,278.38c-2.35,1.23-2.46,4.4-5.02,5.73c-2.35,0-4.91-0.31-7.37,1.64c7.1-3.55,12.04,6.02,13.31,3.48
		c-1.23-1.84-2.56-3.58-3.79-5.43C228.71,279.92,228.71,279.92,227.48,278.38z"/>
	<path d="M185.4,435.83c1.84-5.53-0.31-10.85-0.1-16.38c-3.58,4.71-4.61,7.47-3.89,11.47c1.54-2.05,0.72-5.02,2.56-6.96
		C185.3,427.85,184.48,431.94,185.4,435.83z"/>
	<path d="M180.49,408.09c-0.31-9.42,0.82-18.63,2.56-28.15C180.49,382.19,179.16,396.62,180.49,408.09z"/>
	<path d="M206.6,336.02c-3.58-5.22-6.04-11.06-7.68-17.61C195.38,321.94,201.92,333.01,206.6,336.02z"/>
	<path d="M598.39,196.38c2.86,9.66-0.71,16.63,3.26,15.39c-0.32,0.6-1.2,1.22-0.39,2.12c1.2-1.03,0.31-2.08,0.51-2.15
		C601.25,205.29,602.13,201.22,598.39,196.38z"/>
	<path d="M705.88,532.68c0-0.55,1.77-7.47-2.46-7.47C699.59,525.21,698.44,534.34,705.88,532.68z M703.12,526.85
		c1.84,1.23,1.84,1.23-0.41,4.3C701.38,529.51,701.38,528.08,703.12,526.85z"/>
	<path d="M634.32,410.34c1.42-0.47,0.32,1.11,2.66-5.53c-1.91-3.44-3.95-7.4-4.61-3.48c-0.72,0.1-0.72-1.13-2.25-0.41
		C633.5,403.18,636.27,405.74,634.32,410.34z"/>
	<path d="M626.34,412.6c0.2,5.53,2.46,10.34,6.24,14.33C630.24,421.5,627.97,413.68,626.34,412.6z"/>
	<path d="M697.49,532.38c4.15-0.7,3.2-8.15-0.1-7.88C692.6,524.88,694.31,532.91,697.49,532.38z M697.28,526.03
		c2.35,2.25,2.35,2.87-0.2,4.71C695.44,529,695.24,527.56,697.28,526.03z"/>
	<path d="M667.29,140.17c-0.41-1.64-2.35-1.02-2.87-2.25c-0.51-3.69-1.95-6.86-4.5-10.54c-0.2,4.61,2.76,7.68,2.46,11.67
		C664.01,139.15,665.45,140.38,667.29,140.17z"/>
	<path d="M693.19,524.29c-3.12-0.69-4.07-2.29-3.69,6.65c1.33,0,0.92-1.33,1.74-1.54c1.13,0.2,0.82,1.95,2.66,2.05
		C692.17,529.1,695.44,526.85,693.19,524.29z M691.86,527.36c-1.12-0.21-1.02-0.92-0.51-1.74
		C693.45,525.62,692.9,527.56,691.86,527.36z"/>
	<path d="M721.65,530.43c-0.67-4.34-6.25-2.55-8.09-0.31C716.53,530.64,718.89,533.19,721.65,530.43z"/>
	<path d="M638.21,161.67c3.07-2.76,1.13-7.47,4.61-9.73C638.73,152.66,636.68,157.17,638.21,161.67z"/>
	<path d="M181,438.39c-1.02,6.86-0.41,13.72-0.51,20.58C182.64,452.22,180.28,445.25,181,438.39z"/>
	<path d="M635.35,411.88c-2.56,1.84-2.56,2.25-0.2,7.78c-0.92,3.48-0.92,3.99,0.82,6.14c0.41-2.05-1.02-4.3,1.23-5.84
		C635.76,417.1,635.04,414.64,635.35,411.88z"/>
	<path d="M277.54,264.15c2.56,1.43,9.52,0.82,12.18-0.92C285.12,262.72,281.33,263.64,277.54,264.15z"/>
	<path d="M280.82,268.86c6.1,2.4,9.83-2.11,2.56-2.56C281.84,266.3,280.92,267.22,280.82,268.86z"/>
	<path d="M744.07,316.77c-3.28,3.17-3.38,8.09-7.27,10.44C740.69,326.19,744.48,320.76,744.07,316.77z"/>
	<path d="M673.12,98.91c2.15,1.54,9.62,1.02,12.18-0.92C680.8,97.79,676.91,98.4,673.12,98.91z"/>
	<path d="M678.65,101.27c-1.43,0.2-2.05,1.23-2.15,2.76C683.98,106.21,685.41,100.85,678.65,101.27z"/>
	<path d="M598.7,252.58c0.72,4.4,1.33,8.19,1.95,12.08C601.67,258.72,600.85,254.22,598.7,252.58z"/>
	<path d="M600.54,231.9c-1.87-0.37-1.68-0.97-2.35,8.5c0.31,0.1,0.61,0.1,0.92,0.1C599.93,237.74,601.77,234.97,600.54,231.9z"/>
	<path d="M722.98,225.76c3.38-1.95,4.4-4.71,5.53-7.88C725.85,218.8,723.08,222.69,722.98,225.76z"/>
	<path d="M185.92,370.52c-3.38,2.46-3.89,4.4-2.05,8.09C185.71,376.05,184.69,372.87,185.92,370.52z"/>
	<path d="M600.33,250.84c-0.61-2.97,0.61-5.63-0.31-8.39C597.26,244.29,597.26,247.77,600.33,250.84z"/>
	<path d="M693.19,392.63c0.61,3.69,3.17,5.43,6.55,6.35C697.39,397.03,696.26,393.86,693.19,392.63z"/>
	<path d="M641.39,381.06c-2.56,2.05-3.89,4.81-4.81,7.78C638.93,386.69,641.39,384.65,641.39,381.06z"/>
	<path d="M717.56,239.78c1.43-3.17,1.54-6.65,4.1-9.01c1.84-0.82,1.23-2.46,1.54-4.3c-2.05,1.13-1.74,2.66-1.74,4.1
		C717.56,232.41,715.92,236.1,717.56,239.78z"/>
	<path d="M624.8,173.34c-0.51-3.17-0.92-6.04-1.33-9.11C621.53,167.2,622.04,171.6,624.8,173.34z"/>
	<path d="M675.89,140.79c2.87-0.51,5.84-0.92,8.7-1.33C681.28,138.35,675.73,137.32,675.89,140.79z"/>
	<path d="M668.41,139.97c2.97,2.76,3.38,2.76,7.47,0.72c-0.51-0.51-1.02-1.13-1.74-1.84C672.61,140.58,670.56,139.86,668.41,139.97z
		"/>
	<path d="M637.19,162.69c-2.15,2.15-3.69,4.5-6.24,5.94C634.12,169.66,636.17,167.61,637.19,162.69z"/>
	<path d="M202.5,302.95c-2.76,2.56-2.87,6.04-3.38,9.32C200.56,309.3,201.99,306.33,202.5,302.95z"/>
	<path d="M661.25,113.55c-1.95-2.87-3.17-6.04-5.53-8.39C656.54,108.84,659.1,112.63,661.25,113.55z"/>
	<path d="M203.52,353.01c-1.02,2.97-1.84,5.32-2.87,8.5C203.83,358.64,204.24,357.11,203.52,353.01z"/>
	<path d="M603.92,176.52c2.35,3.07,3.89,4.3,7.68,5.84C603.32,175,604.48,175.96,603.92,176.52z"/>
	<path d="M678.75,93.08c1.84-0.2,3.48-0.51,5.73-0.82C682.13,89.91,679.78,90.42,678.75,93.08z"/>
	<path d="M288.5,256.98c-2.05-1.64-3.58-1.43-5.43,1.13C284.81,257.29,286.96,258.72,288.5,256.98z"/>
	<path d="M637.19,439.62c0-2.46-0.1-4.91-2.25-6.76C635.24,435.22,635.45,437.68,637.19,439.62z"/>
	<path d="M276.62,282.78c-1.54,0.92-3.17,0.92-5.02,1.23C274.68,286.37,275.8,286.06,276.62,282.78z"/>
	<path d="M640.88,162.29c2.56-0.2,4.4-1.64,6.35-2.76C643.95,159.62,642.31,160.34,640.88,162.29z"/>
	<path d="M268.53,295.58c-3.58,1.02-3.79,1.23-4.1,3.79C266.79,299.16,267.3,297.22,268.53,295.58z"/>
	<path d="M603.61,216.75c1.95-1.43,3.17-3.17,3.38-6.55C602.08,217.55,602.7,215.84,603.61,216.75z"/>
	<path d="M204.96,351.07c1.23-1.74,2.46-3.58,3.58-5.32C206.19,346.67,204.34,348,204.96,351.07z"/>
	<path d="M664.73,142.83c2.56,1.02,4.5,1.54,6.86,1.64C668.93,142.32,668.93,142.32,664.73,142.83z"/>
	<path d="M259.83,274.49c0.2,2.46-0.1,4.5,1.54,6.14C260.85,278.79,262.39,276.54,259.83,274.49z"/>
	<path d="M673.64,146.01c1.43,1.84,0.82,3.79,2.76,5.32C676.5,147.44,676.5,147.44,673.64,146.01z"/>
	<path d="M624.19,161.16c1.33-2.46,1.74-4.4,1.84-6.35C624.6,156.35,623.88,158.19,624.19,161.16z"/>
	<path d="M713.15,225.14c-0.2-1.74-0.1-3.69-2.15-4.5C711.11,222.48,711.11,224.33,713.15,225.14z"/>
	<path d="M633.2,395.91c-1.33-2.46,0.61-3.48,0.92-5.63C630.64,393.14,630.64,393.35,633.2,395.91z"/>
	<path d="M600.64,281.76c0.31-2.05-0.51-3.89-1.02-5.84C599.41,277.97,600.13,279.81,600.64,281.76z"/>
	<path d="M627.57,147.34c-1.54,2.15-1.64,2.56-0.51,5.43C626.95,150.51,628.39,149.18,627.57,147.34z"/>
	<path d="M677.01,153.69c-0.2,1.84-0.41,3.28,2.15,4.5C679.06,156.04,678.86,154.71,677.01,153.69z"/>
	<path d="M619.68,181.74c2.05-0.51,3.48-1.64,4.1-3.69C621.94,178.67,620.61,180,619.68,181.74z"/>
	<path d="M613.85,228.11c0.2,1.33-0.41,2.87,1.64,3.99C615.69,230.16,614.87,229.14,613.85,228.11z"/>
	<path d="M207.72,316.26c0.41-2.87,0.41-5.02-0.2-7.27C206.9,311.24,206.7,313.5,207.72,316.26z"/>
	<path d="M262.7,295.68c0.38-1.13,1.24-0.56-4.71-2.05C259.11,295.68,260.85,295.99,262.7,295.68z"/>
	<path d="M179.77,414.11c-0.09,1.43-1.44,2.81,0,4.73C179.77,417.02,179.77,415.55,179.77,414.11z"/>
	<path d="M677.01,143.24c1.64,1.13,3.07-0.1,4.61-0.51C680.09,142.32,678.45,142.22,677.01,143.24z"/>
	<path d="M665.65,124.82c-0.31-2.05-0.61-3.48-1.74-4.71C664.22,121.54,663.4,123.38,665.65,124.82z"/>
	<path d="M673.53,119.59c1.84-1.23,2.87-2.25,3.28-3.99C675.27,116.22,674.25,117.24,673.53,119.59z"/>
	<path d="M209.77,340.11c-1.64-0.92-1.23-3.48-3.28-3.99C206.39,338.37,208.13,339.19,209.77,340.11z"/>
	<path d="M189.7,475.45c1.43-1.02,1.74-1.95,0.51-3.28C189.5,473.2,188.47,474.02,189.7,475.45z"/>
	<path d="M618.15,155.12c0.51,2.05,1.23,3.28,2.66,4.2C620.3,157.88,619.89,156.35,618.15,155.12z"/>
	<path d="M231.06,287.7c1.43,0.61,2.56,0.2,4.2-1.02C233.32,286.57,232.09,286.37,231.06,287.7z"/>
	<path d="M695.65,450.37c-0.82,1.02-1.02,2.05-0.2,3.48C696.47,452.62,696.36,451.5,695.65,450.37z"/>
	<path d="M715.2,227.6c0-1.64-0.41-2.56-1.95-2.56C712.95,226.58,713.36,227.4,715.2,227.6z"/>
	<path d="M263.93,291.69c0.2-1.43,0.41-2.56-1.02-3.79C262.7,289.44,262.29,290.67,263.93,291.69z"/>
	<path d="M619.99,458.15c0.97-4.38-1.15-2.78-0.92-1.43C619.07,457.23,618.76,458.15,619.99,458.15z"/>
	<path d="M747.35,314.11c-2.25-0.1-2.25-0.1-2.05,1.74C746.53,315.95,747.04,315.13,747.35,314.11z"/>
	<path d="M614.67,435.02c1.33-1.74,1.74-3.07,1.74-4.61C615.28,431.43,615.08,432.87,614.67,435.02z"/>
	<path d="M623.88,178.05c0.41-1.02,1.33-1.84,0.72-3.38C623.16,175.7,622.86,176.72,623.88,178.05z"/>
	<path d="M724.82,255.65c0.2-1.13,0.61-2.25-0.51-3.58C723.29,253.71,724.21,254.63,724.82,255.65z"/>
	<path d="M196.66,400.41c0.31-1.33,0.51-2.35-0.92-2.97C195.13,398.77,195.44,399.7,196.66,400.41z"/>
	<path d="M662.68,142.73c-0.92-1.13-1.95-0.92-3.38-0.72C660.63,143.04,661.45,143.14,662.68,142.73z"/>
	<path d="M695.54,458.05c-0.41,1.43-0.41,1.43,0.2,2.66C696.47,459.79,696.47,458.87,695.54,458.05z"/>
	<path d="M695.54,465.73c-1.23,1.02-1.33,1.84-0.82,2.97C695.65,467.98,696.06,467.26,695.54,465.73z"/>
	<path d="M618.56,190.44c0.61-1.13,0.51-2.15-0.1-3.58C618.05,188.29,617.84,189.21,618.56,190.44z"/>
	<path d="M608.63,163.21c-1.13,0.82-0.92,1.54,0.1,2.46C609.24,164.74,609.34,164.03,608.63,163.21z"/>
	<path d="M618.66,151.23c0.2-1.43-0.2-2.35-1.13-3.48C617.23,149.28,617.43,150.21,618.66,151.23z"/>
	<path d="M196.77,473.2c-0.92,0.72-1.13,1.43-1.02,2.66C197.28,475.25,197.69,474.64,196.77,473.2z"/>
	<path d="M193.7,360.69c-1.13,0.82-1.54,1.54-0.82,2.66C193.8,362.74,194.31,362.12,193.7,360.69z"/>
	<path d="M208.13,301.93c1.13-0.41,1.13-1.33,1.02-2.76C208.03,300.08,207.31,300.7,208.13,301.93z"/>
	<path d="M606.99,300.08c0.51-1.13,0.2-1.95-1.13-2.56C605.35,298.86,605.86,299.57,606.99,300.08z"/>
	<path d="M194.21,469.72c0,1.13,0.2,1.84,1.64,1.95C195.64,470.64,195.54,469.93,194.21,469.72z"/>
	<path d="M694.21,489.38c0.31-1.13,0.41-2.05-0.2-3.28C693.6,487.33,693.29,488.25,694.21,489.38z"/>
	<path d="M615.9,487.33c0.2-1.13,0.51-1.84-0.41-2.97C615.38,485.49,615.08,486.31,615.9,487.33z"/>
	<path d="M682.54,149.9c-0.82-0.51-1.43-0.51-1.33,0.72C681.83,150.82,682.34,150.61,682.54,149.9z"/>
	<path d="M724.52,229.75c-0.61,1.23,0.1,1.64,0.92,2.25C725.85,230.67,725.54,230.16,724.52,229.75z"/>
	<path d="M726.87,263.64c0.41-0.92,0.2-1.54-1.02-2.25C725.85,262.61,725.75,263.33,726.87,263.64z"/>
	<path d="M729.23,272.34c0.41-1.02,0.1-1.54-1.13-2.76C728.2,271.01,728,271.93,729.23,272.34z"/>
	<path d="M735.06,299.78c0.31-0.82,0.1-1.33-0.82-1.84C734.14,298.86,733.83,299.57,735.06,299.78z"/>
	<path d="M265.05,304.08c0.51-0.61,0.61-1.13-0.31-1.64C264.23,303.05,264.03,303.56,265.05,304.08z"/>
	<path d="M213.86,336.94c-1.24-0.31-2.77,0.93-1.54,1.64C213.15,338.48,213.76,337.96,213.86,336.94z"/>
	<path d="M194.51,356.7c-0.31,0.82-1.02,1.33,0.51,2.15C195.33,358.03,195.74,357.31,194.51,356.7z"/>
	<path d="M626.44,412.6c0.51-0.82,1.54-1.54,0.31-3.07C626.24,410.75,625.11,411.47,626.44,412.6z"/>
	<path d="M655,117.96c0,0.61,0.41,0.92,1.33,1.33C655.92,118.47,655.92,117.65,655,117.96z"/>
	<path d="M659.82,125.63c0.1-0.51,0-0.92-0.41-1.23C659,125.02,659.1,125.33,659.82,125.63z"/>
	<path d="M707.11,155.22c0.72,0.61,1.13,1.43,2.15,0.82C708.85,155.53,708.34,155.12,707.11,155.22z"/>
	<path d="M718.27,175.59c-0.41,1.13-0.2,1.64,0.82,1.74C719.5,176.31,718.99,176,718.27,175.59z"/>
	<path d="M608.52,207.64c1.02-0.82,1.02-0.82,1.02-1.95C608.83,206,608.42,206.41,608.52,207.64z"/>
	<path d="M251.23,290.67c0.31,0.82,0.72,1.23,1.84,0.82C252.46,290.67,251.95,290.46,251.23,290.67z"/>
	<path d="M207.72,292.71c-1.33,0.89,0.71,1.82,1.23,0C208.64,292.41,208.13,292.41,207.72,292.71z"/>
	<path d="M694.52,474.33c-0.61,0.41-0.82,0.82-0.41,1.43C694.52,475.35,695.24,475.04,694.52,474.33z"/>
	<path d="M631.76,398.16c0-0.51-0.1-0.92-1.54-1.23C631.05,397.65,630.95,398.47,631.76,398.16z"/>
	<path d="M180.49,422.32c-0.61,0.61-0.41,1.13,0,1.74C181.1,423.45,180.9,422.94,180.49,422.32z"/>
	<path d="M644.77,417.71c-0.41,0.2-0.72,0.51-0.72,1.43C644.77,418.74,645.38,418.43,644.77,417.71z"/>
	<path d="M706.5,416.38c-0.2,0.72-0.1,1.13,0.92,1.13C707.32,416.69,707.22,416.28,706.5,416.38z"/>
	<path d="M687.35,403.18c0.61-0.51,0.31-0.92-0.2-1.54C686.84,402.36,686.64,402.87,687.35,403.18z"/>
	<path d="M704.66,408.6c-0.2,0.72,0.2,1.02,0.72,1.23C705.68,409.01,705.68,408.5,704.66,408.6z"/>
	<path d="M257.87,293.63c-0.5-0.08-0.89-0.62-1.52,0C256.96,293.63,257.43,293.63,257.87,293.63z"/>
	<path d="M690.84,409.83c0.2-0.72,0-1.02-0.82-1.13C689.91,409.63,690.22,409.83,690.84,409.83z"/>
	<path d="M306.41,378.81c-5.94,4.4-12.59,7.47-19.45,10.34c5.58-0.6,12.21-1.06,19.66-7.68
		C307.13,380.86,307.54,380.14,306.41,378.81z"/>
	<path d="M309.07,382.09c0.37,11.06-6.36,3.15,0.2,13.82c2.76-2.46-0.1-3.99-0.51-5.84C310.51,383.62,310.51,383.62,309.07,382.09z"
		/>
	<path d="M279.9,444.64c4.1-1.13,6.14-4.61,7.99-8.19C277.79,444.46,278.76,443.5,279.9,444.64z"/>
	<path d="M290.03,433.89c2.97-3.17,3.99-7.17,5.02-11.26C292.9,426.11,290.85,429.69,290.03,433.89z"/>
	<path d="M289.21,445.05c3.69-2.76,5.02-6.96,6.65-10.85C294.93,433.73,296.01,431.81,289.21,445.05z"/>
	<path d="M286.65,450.88c-1.95,1.84-3.07,3.99-3.69,6.96C285.53,455.9,286.45,453.55,286.65,450.88z"/>
	<path d="M304.47,415.46c-1.54,2.15-2.66,4.3-3.28,6.96C302.73,420.38,304.57,418.33,304.47,415.46z"/>
	<path d="M295.77,420.79c1.02-1.43,1.64-2.46,1.23-4.61C295.87,417.71,295.15,418.74,295.77,420.79z"/>
	<path d="M279.18,466.45c1.64-1.54,2.15-2.76,2.15-4.71C279.9,462.96,279.28,464.3,279.18,466.45z"/>
	<path d="M281.53,389.87c1.02,0.82,1.95,0.72,3.28,0C283.38,388.74,282.46,388.74,281.53,389.87z"/>
	<path d="M309.59,377.89c0.2-1.64-0.31-2.35-1.64-3.17C307.85,376.25,308.26,377.07,309.59,377.89z"/>
	<path d="M297.91,415.87c1.13-1.13,1.95-1.84,1.23-3.79C297.91,413.52,297.61,414.34,297.91,415.87z"/>
	<path d="M304.77,403.38c1.13-0.41,1.13-1.13,0.82-2.46C304.57,401.74,303.96,402.26,304.77,403.38z"/>
	<path d="M304.98,409.32c1.02-0.82,1.02-1.54,0.31-2.97C304.98,407.48,304.26,407.99,304.98,409.32z"/>
	<path d="M309.07,295.17c-2.35-1.54-4.81-2.97-7.68-1.33C303.75,295.78,306.41,294.97,309.07,295.17z"/>
	<path d="M319.31,340.73c-2.15,2.66-2.15,2.76-0.51,6.04C320.34,344.92,319.11,342.88,319.31,340.73z"/>
	<path d="M316.14,353.83c0.72-1.74,1.95-3.17,2.05-5.22C315.22,350.04,314.91,350.76,316.14,353.83z"/>
	<path d="M315.22,358.95c-0.1-1.02,1.54-2.15,0.2-3.58C314.5,356.8,313.68,357.72,315.22,358.95z"/>
	<path d="M314.3,463.78c-0.51,1.02-0.61,1.95,0.72,2.56C315.63,465.22,315.52,464.4,314.3,463.78z"/>
	<path d="M315.52,363.97c0.2-1.43,0.41-2.25-0.51-3.17C313.89,362.02,314.09,362.84,315.52,363.97z"/>
	<path d="M300.78,331.51c0.51,1.64,1.54,1.84,2.97,1.84C303.14,331.92,302.32,331.31,300.78,331.51z"/>
	<path d="M316.04,444.54c0.92-1.02,0.92-1.84-0.1-2.76C315.42,442.9,315.32,443.72,316.04,444.54z"/>
	<path d="M306.72,334.28c0.2,1.23,1.13,1.54,2.56,2.05C308.46,334.99,308.05,334.07,306.72,334.28z"/>
	<path d="M263,314.83c-1.43,2.66-1.64,5.63-1.84,8.5C262.29,320.66,264.64,318.2,263,314.83z"/>
	<path d="M260.24,324.86c-1.64,1.54-2.35,3.07-2.35,5.32C259.52,328.65,261.37,327.62,260.24,324.86z"/>
	<path d="M270.79,323.12c-1.64,0.2-3.28-1.02-5.53-0.61C267.41,324.14,269.15,323.12,270.79,323.12z"/>
	<path d="M235.47,342.88c-0.61-0.72-1.23-1.33-2.66-0.72C234.85,343.7,235.26,343.9,235.47,342.88z"/>
	<path d="M255.43,334.38c-1.23,0.2-1.54,0.72-1.64,1.95C254.81,335.71,255.43,335.51,255.43,334.38z"/>
	<path d="M235.06,387.82c-0.39,3.18-0.72,6.24-2.66,9.83c7.98-3.55,5.07-13.73-1.02-18.43C231.98,382.6,235.49,384.24,235.06,387.82
		z"/>
	<path d="M224.41,413.82c-2.97,3.07-3.38,13.1-0.82,17.2C223.59,425.09,224,419.45,224.41,413.82z"/>
	<path d="M211.71,400.21c-1.66,4.76,4.94,4.55,5.43,10.85c0.11,1.43,0.31,3.17,1.95,4.2c-0.1-5.02-0.74-7.64-2.87-9.32
		C212.12,402.71,214.02,399.98,211.71,400.21z"/>
	<path d="M218.37,386.8c0.31-2.25-0.61-4.4-1.23-6.65c0.92-1.43,3.17-2.05,2.76-4.4C215.37,376.75,213.67,383.2,218.37,386.8z"/>
	<path d="M208.44,443.51c0-16.45,0.24-11.04-0.92,2.35C208.75,445.15,208.44,444.23,208.44,443.51z"/>
	<path d="M230.04,379.84c-0.82-3.17-1.23-3.69-4.61-5.12C226.66,376.56,227.68,378.61,230.04,379.84z"/>
	<path d="M209.77,419.15c1.33-2.05,2.35-4.2,2.25-6.76C210.79,414.54,210.18,416.79,209.77,419.15z"/>
	<path d="M207.72,450.68c-1.54,2.76-1.54,3.07-0.61,6.65C208.23,455.18,207.82,453.03,207.72,450.68z"/>
	<path d="M213.86,383.62c-1.84,1.13-2.76,2.35-2.56,4.61C212.94,386.9,214.07,385.88,213.86,383.62z"/>
	<path d="M219.8,391.81c-0.2-2.15-0.31-3.69-1.54-4.91C218.88,388.23,217.34,390.28,219.8,391.81z"/>
	<path d="M226.46,404.3c1.13-1.84,0.51-2.97-0.51-3.99C225.74,401.54,225.53,402.77,226.46,404.3z"/>
	<path d="M212.74,394.17c0.61-1.13,0.82-1.84-0.61-3.07C212.23,392.43,211.92,393.25,212.74,394.17z"/>
	<path d="M232.7,399.39c0.82,0,0.92-0.31,0.61-1.23C232.7,398.47,232.19,398.67,232.7,399.39z"/>
	<path d="M275.9,498.08c-4.27,0.48-3.17,7.88,0,7.88C279.93,506.21,279.72,497.65,275.9,498.08z M275.8,504.43
		c-1.74-1.84-1.74-3.28,0-4.71C278.26,501.66,278.26,502.17,275.8,504.43z"/>
	<path d="M272.12,497.98c-3.07-1.23-4.39-1.66-3.79,7.37c3.3-4.95,1.33,0.13,4.2-0.51C270.79,502.58,274.16,500.43,272.12,497.98z
		 M271.4,500.43c-0.27,1.07-2.16,0.73-1.54-1.13C270.89,499.21,271.6,499.31,271.4,500.43z"/>
	<path d="M681.11,207.54c1.23,6.35,2.56,12.18,0.2,18.12C685,220.64,684.9,210.81,681.11,207.54z"/>
	<path d="M682.75,179.18c-0.72,2.56-0.72,2.56,5.43,6.96c1.43,1.02,2.76,2.15,4.71,0.51C689.3,184.19,684.9,183.37,682.75,179.18z"
		/>
	<path d="M703.43,248.68c2-2.57-0.69-6.69,2.46-10.95c-0.41-1.33-0.92-2.15-2.46-2.35C704.62,238.43,700.44,244.44,703.43,248.68z"
		/>
	<path d="M679.98,190.23c0.51,3.99,1.02,7.88,1.64,11.88C683.46,198.63,682.54,191.67,679.98,190.23z"/>
	<path d="M638.52,198.83c2.35,2.87,5.84,2.56,9.42,3.48C645.18,198.73,640.98,201.5,638.52,198.83z"/>
	<path d="M668.11,248.08c-3.79-0.51-7.58-0.92-11.26-1.43C660.43,248.18,664.22,249,668.11,248.08z"/>
	<path d="M647.33,240.71c-3.79-1.33-7.47-2.56-11.26-3.79C639.34,239.68,643.33,240.5,647.33,240.71z"/>
	<path d="M692.06,260.16c-3.07,0-6.04,0-9.11,0C686.02,260.46,689.09,260.57,692.06,260.16z"/>
	<path d="M648.76,188.7c1.74,2.05,3.28,2.05,5.43,0.82C652.24,188.9,651.01,187.88,648.76,188.7z"/>
	<path d="M682.13,172.52c0,1.74-0.51,3.07,0,4.61C683.67,175.7,683.46,174.47,682.13,172.52z"/>
	<path d="M680.6,248.28c-0.1-2.25-0.1-2.25-1.02-3.79C678.75,246.03,678.96,247.16,680.6,248.28z"/>
	<path d="M697.18,246.34c1.64,0,2.66-0.51,4.1-1.84C699.33,244.6,698.31,245.21,697.18,246.34z"/>
	<path d="M691.35,198.53c-1.02-0.51-1.95-1.33-3.28-0.82C689.09,199.04,690.22,198.73,691.35,198.53z"/>
	<path d="M634.22,202.11c0.82,1.02,1.74,1.02,3.28,0.61C636.17,201.91,635.45,201.09,634.22,202.11z"/>
	<path d="M668.11,167.1c2.15,0,1.33-0.1,0.1-0.1C668.21,167.1,668.11,167.1,668.11,167.1z"/>
	<path d="M680.8,239.89c0,0.2-0.2,0.41-0.2,0.51C681,241.99,682.01,240.13,680.8,239.89z"/>
	<path d="M670.77,336.84c-4.5,2.15-8.7,7.88-7.37,10.03c0.61,0.72,1.43-0.31,1.95,0.31c1.23,3.58,1.95,7.47,4.81,10.44
		c-0.89-5.76-9.3-12.63,0.1-18.53c5.63,10.54,14.64,17.81,24.67,23.85c-6.65-6.35-15.15-10.95-20.27-19.66
		c6.96,3.69,11.98,5.22,17.81,5.53c-7.78-2.15-15.25-5.12-21.81-10.65C669.95,337.96,672.31,337.25,670.77,336.84z"/>
	<path d="M671.59,335.92c9.62,5.02,20.48,3.99,30.51,6.45c-5.56-4.77-18.16-2.58-29.89-7.27C672.1,335.1,671.9,335.4,671.59,335.92z
		"/>
	<path d="M651.22,327.93c6.24,1.54,11.88,4.61,18.12,7.37C668.21,330.69,657.36,326.29,651.22,327.93z"/>
	<path d="M618.15,345.54c-1.2-3.7-0.95-7.01-2.76-10.65C615.38,338.5,616.06,341.83,618.15,345.54z"/>
	<path d="M693.5,331.82c-3.69-0.82-7.47-0.1-11.26,0.31C685.92,333.36,689.61,332.03,693.5,331.82z"/>
	<path d="M682.34,329.16c-2.25,0.2-4.5-0.1-6.45,1.23C678.24,330.9,680.39,330.28,682.34,329.16z"/>
	<path d="M651.52,336.12c2.25,1.54,4.91,1.23,7.47,1.84C656.64,336.53,654.08,336.22,651.52,336.12z"/>
	<path d="M660.74,347.69c-0.92,0.31-2.15,0.1-2.35,1.64C659.51,349.33,660.33,348.82,660.74,347.69z"/>
	<path d="M683.16,366.83c-0.1-0.82-0.72-1.02-1.95-1.54C681.93,366.32,682.34,366.83,683.16,366.83z"/>
	<path d="M671.08,359.05c0.1-0.72-0.2-1.23-0.92-1.33C670.16,358.34,670.26,358.95,671.08,359.05z"/>
	<path d="M703.73,343.08c-0.31-0.82-1.02-0.72-1.64-0.61C702.4,343.18,702.92,343.29,703.73,343.08z"/>
	<path d="M649.17,336.12c1.23-0.1,1.84-0.1,2.35-0.1C651.01,335.81,650.5,335.51,649.17,336.12z"/>
	<path d="M631.97,311.24c1.84-7.99-3.38-12.8-8.91-18.22C623.16,295.27,631.05,310.63,631.97,311.24z"/>
	<path d="M698.41,282.58c-0.72,7.37,2.15,14.03,4.1,20.99C702.2,296.4,700.36,289.44,698.41,282.58z"/>
	<path d="M661.45,296.71c-1.64-3.79,1.23-8.29-2.15-12.18C657.15,287.7,658.38,294.35,661.45,296.71z"/>
	<path d="M668.52,296.4c-1.2,4.31-1.02,8.7-1.64,13c-0.1,1.23-0.1,2.46,1.64,3.28c-0.61-7.99,2.35-15.56,0-23.65
		C667.6,291.89,669.15,294.15,668.52,296.4z"/>
	<path d="M649.48,300.9c2.05-6.35,2.97-12.9,3.58-19.45C650.7,287.7,650.19,294.35,649.48,300.9z"/>
	<path d="M674.15,296.6c0.43-2.76,1.74-5.63,0.61-8.5c-1.02,5.94-3.28,11.77-1.64,17.81C673.74,302.85,673.66,299.78,674.15,296.6z"
		/>
	<path d="M689.91,311.04c4.5,0.1,8.8-0.72,12.59-3.58C698.41,309.09,693.8,308.68,689.91,311.04z"/>
	<path d="M634.53,275.1c-3.48,1.02-4.81,4.2-4.2,8.7C630.84,280.73,632.69,278.28,634.53,275.1z"/>
	<path d="M621.83,278.79c2.35-2.76,5.02-4.2,7.58-5.84C626.24,272.54,623.37,274.69,621.83,278.79z"/>
	<path d="M681.01,305.51c-0.2,1.95-2.05,3.89-0.1,6.55C681.72,309.5,681.31,307.56,681.01,305.51z"/>
	<path d="M617.94,279.51c0.92-1.95,1.84-3.79,1.43-6.14C617.94,275.92,617.74,276.95,617.94,279.51z"/>
	<path d="M666.78,284.73c0-1.13,1.13-2.25,0-3.38C664.83,282.48,665.45,283.6,666.78,284.73z"/>
	<path d="M673.12,307.86c-0.51,2.05,0.31,3.28,1.13,5.32C674.35,310.94,675.17,309.4,673.12,307.86z"/>
	<path d="M684.28,284.22c-1.33,1.43-1.02,2.87-0.72,4.3C683.77,287.18,685.31,286.06,684.28,284.22z"/>
	<path d="M647.73,277.05c-0.31,1.54-0.31,1.54,0.72,3.07C648.66,278.79,649.17,277.77,647.73,277.05z"/>
	<path d="M644.77,277.97c0.82-1.54-0.31-2.05-0.41-2.97C642.21,276.43,643.95,276.84,644.77,277.97z"/>
	<path d="M178.54,361.61c-1.84,0.2-3.79-0.2-5.32,1.33C175.17,363.25,177.11,363.35,178.54,361.61z"/>
<path fill="#e6e6e6" d="m206.8 163.6c0-5.1 4.1-9.2 9.3-9.2s9.2 4.2 9.2 9.2-4.1 9.2-9.3 9.2-9.2-4.1-9.2-9.2zm17.3-.1c0-4.5-3.5-8.2-8.2-8.2s-8.2 3.7-8.2 8.3c0 4.5 3.5 8.2 8.2 8.2s8.2-3.7 8.2-8.3zm-13 0c0-2.8 2.1-5.1 5.1-5.1 1.9 0 2.9.6 3.9 1.5l-1.4 1.7c-.8-.7-1.5-1.1-2.5-1.1-1.7 0-2.8 1.4-2.8 3.1s1.1 3 2.8 3c1.1 0 1.7-.5 2.5-1.1l1.4 1.4c-1.1 1.1-2.1 1.7-4 1.7-2.9 0-5-2.3-5-5.1z"/><path fill="#e6e6e6" d="m226.6 154.7h3.4l4.2 13.2 4.4-13.3h2.6l4.4 13.3 4.2-13.2h3.3l-6.2 18h-2.7l-4.4-12.8-4.4 12.8h-2.7z"/><path fill="#e6e6e6" d="m252.8 165.8c0-3.9 3.1-7 7.2-7 4.2 0 7.2 3.2 7.2 7s-3.1 7-7.3 7c-4 0-7.1-3.1-7.1-7zm11.3 0c0-2.3-1.7-4.3-4.2-4.3s-4.1 2-4.1 4.3 1.7 4.3 4.1 4.3c2.7.1 4.2-1.9 4.2-4.3z"/><path fill="#e6e6e6" d="m269.5 159.1h3.1v3c.8-2 2.4-3.4 4.8-3.3v3.2h-.2c-2.7 0-4.6 1.7-4.6 5.4v5.1h-3.1z"/><path fill="#e6e6e6" d="m279.1 153.9h3.1v11.1l5.6-6h3.8l-5.4 5.5 5.5 8h-3.5l-4.1-5.8-1.9 2v3.9h-3.1z"/><path fill="#e6e6e6" d="m291.7 165.8c0-3.9 3.1-7 7.2-7 4.2 0 7.2 3.2 7.2 7s-3.1 7-7.3 7c-4 0-7.1-3.1-7.1-7zm11.3 0c0-2.3-1.7-4.3-4.2-4.3s-4.1 2-4.1 4.3 1.7 4.3 4.1 4.3c2.6.1 4.2-1.9 4.2-4.3z"/><path fill="#e6e6e6" d="m308.2 167.6v-8.6h3.1v7.6c0 2.1 1.1 3.3 2.9 3.3s3-1.3 3-3.3v-7.6h3.1v13.4h-3.1v-2.1c-.8 1.3-2.1 2.3-4.2 2.3-3.1.2-4.8-1.8-4.8-5z"/><path fill="#e6e6e6" d="m323.9 168.8v-7.1h-1.7v-2.6h1.7v-3.7h3.1v3.7h3.6v2.6h-3.6v6.6c0 1.2.6 1.7 1.7 1.7.7 0 1.3-.2 1.9-.5v2.5c-.8.5-1.7.7-2.8.7-2.3 0-3.9-.9-3.9-3.9z"/><path fill="#e6e6e6" d="m333.2 154.7h3.2v15h9.4v2.9h-12.5v-17.9z"/><path fill="#e6e6e6" d="m356 172.5v-1.7c-.9 1.1-2.3 2-4.4 2-2.6 0-4.8-1.4-4.8-4.2 0-3 2.3-4.4 5.4-4.4 1.7 0 2.6.2 3.7.5v-.2c0-1.9-1.2-2.9-3.3-2.9-1.5 0-2.6.3-3.9.8l-.8-2.5c1.5-.7 2.9-1.1 5.1-1.1 4 0 5.9 2.1 5.9 5.7v8zm.1-5.6c-.8-.3-1.9-.5-3.1-.5-2 0-3.1.8-3.1 2.1s1.1 2 2.6 2c2 0 3.5-1.1 3.5-2.9z"/><path fill="#e6e6e6" d="m364.9 170.5v2.1h-3.1v-18.7h3.1v7.4c1-1.4 2.4-2.5 4.5-2.5 3.2 0 6.3 2.5 6.3 7s-3.1 7-6.3 7c-2.1 0-3.5-1.1-4.5-2.3zm7.7-4.7c0-2.6-1.7-4.3-3.9-4.3s-3.9 1.7-3.9 4.4c0 2.6 1.8 4.3 3.9 4.3s3.9-1.7 3.9-4.4z"/><path fill="#e6e6e6" d="m376.9 170.8 1.4-2.1c1.4 1.1 3 1.7 4.4 1.7s2.1-.5 2.1-1.5-1.3-1.4-2.8-1.8c-.1 0-.2-.1-.2-.1-2-.6-4.2-1.4-4.2-4s2.1-4.1 4.8-4.1c1.7 0 3.5.6 5 1.5l-1.2 2.2c-1.3-.8-2.6-1.3-3.8-1.3s-1.9.5-1.9 1.4 1.3 1.4 2.8 1.8c.1 0 .2.1.2.1 2 .6 4.2 1.5 4.2 4 0 2.9-2.2 4.2-5 4.2-1.9 0-4-.7-5.8-2z"/><path fill="#e6e6e6" d="m505.6 163.6c0-5.1 4.1-9.2 9.3-9.2s9.2 4.2 9.2 9.2-4.1 9.2-9.3 9.2-9.2-4.1-9.2-9.2zm17.4-.1c0-4.5-3.5-8.2-8.2-8.2s-8.2 3.7-8.2 8.3c0 4.5 3.5 8.2 8.2 8.2s8.2-3.7 8.2-8.3zm-13.1 0c0-2.8 2.1-5.1 5.1-5.1 1.9 0 2.9.6 3.9 1.5l-1.4 1.7c-.8-.7-1.5-1.1-2.5-1.1-1.7 0-2.8 1.4-2.8 3.1s1.1 3 2.8 3c1.1 0 1.7-.5 2.5-1.1l1.4 1.4c-1.1 1.1-2.1 1.7-4 1.7-2.9 0-5-2.3-5-5.1z"/><path fill="#e6e6e6" d="m525.4 154.7h3.4l4.2 13.2 4.4-13.3h2.6l4.4 13.3 4.2-13.2h3.3l-6.2 18h-2.7l-4.4-12.8-4.4 12.8h-2.7z"/><path fill="#e6e6e6" d="m551.7 165.8c0-3.9 3.1-7 7.2-7 4.2 0 7.2 3.2 7.2 7s-3.1 7-7.3 7c-4.1 0-7.1-3.1-7.1-7zm11.2 0c0-2.3-1.7-4.3-4.2-4.3s-4.1 2-4.1 4.3 1.7 4.3 4.1 4.3c2.7.1 4.2-1.9 4.2-4.3z"/><path fill="#e6e6e6" d="m568.3 159.1h3.1v3c.8-2 2.4-3.4 4.8-3.3v3.2h-.2c-2.7 0-4.6 1.7-4.6 5.4v5.1h-3.1z"/><path fill="#e6e6e6" d="m577.9 153.9h3.1v11.1l5.6-6h3.8l-5.4 5.5 5.5 8h-3.5l-4.1-5.8-1.9 2v3.9h-3.1z"/><path fill="#e6e6e6" d="m590.6 165.8c0-3.9 3.1-7 7.2-7 4.2 0 7.2 3.2 7.2 7s-3.1 7-7.3 7c-4.1 0-7.1-3.1-7.1-7zm11.2 0c0-2.3-1.7-4.3-4.2-4.3s-4.1 2-4.1 4.3 1.7 4.3 4.1 4.3c2.6.1 4.2-1.9 4.2-4.3z"/><path fill="#e6e6e6" d="m607 167.6v-8.6h3.1v7.6c0 2.1 1.1 3.3 2.9 3.3s3-1.3 3-3.3v-7.6h3.1v13.4h-3.1v-2.1c-.8 1.3-2.1 2.3-4.2 2.3-3 .2-4.8-1.8-4.8-5z"/><path fill="#e6e6e6" d="m622.7 168.8v-7.1h-1.7v-2.6h1.7v-3.7h3.1v3.7h3.6v2.6h-3.6v6.6c0 1.2.6 1.7 1.7 1.7.7 0 1.3-.2 1.9-.5v2.5c-.8.5-1.7.7-2.8.7-2.3 0-3.9-.9-3.9-3.9z"/><path fill="#e6e6e6" d="m632 154.7h3.2v15h9.4v2.9h-12.6z"/><path fill="#e6e6e6" d="m654.8 172.5v-1.7c-.9 1.1-2.3 2-4.4 2-2.6 0-4.8-1.4-4.8-4.2 0-3 2.3-4.4 5.4-4.4 1.7 0 2.6.2 3.7.5v-.2c0-1.9-1.2-2.9-3.3-2.9-1.5 0-2.6.3-3.9.8l-.8-2.5c1.5-.7 2.9-1.1 5.1-1.1 4 0 5.9 2.1 5.9 5.7v8zm.1-5.6c-.8-.3-1.9-.5-3.1-.5-2 0-3.1.8-3.1 2.1s1.1 2 2.6 2c2 0 3.5-1.1 3.5-2.9z"/><path fill="#e6e6e6" d="m663.7 170.5v2.1h-3.1v-18.7h3.1v7.4c1-1.4 2.4-2.5 4.5-2.5 3.2 0 6.3 2.5 6.3 7s-3.1 7-6.3 7c-2.1 0-3.5-1.1-4.5-2.3zm7.8-4.7c0-2.6-1.7-4.3-3.9-4.3-2.1 0-3.9 1.7-3.9 4.4 0 2.6 1.8 4.3 3.9 4.3s3.9-1.7 3.9-4.4z"/><path fill="#e6e6e6" d="m675.8 170.8 1.4-2.1c1.4 1.1 3 1.7 4.4 1.7s2.1-.5 2.1-1.5-1.3-1.4-2.8-1.8c-.1 0-.2-.1-.2-.1-2-.6-4.2-1.4-4.2-4s2.1-4.1 4.8-4.1c1.7 0 3.5.6 5 1.5l-1.2 2.2c-1.3-.8-2.6-1.3-3.8-1.3s-1.9.5-1.9 1.4 1.3 1.4 2.8 1.8c.1 0 .2.1.2.1 2 .6 4.2 1.5 4.2 4 0 2.9-2.2 4.2-5 4.2-2 0-4.1-.7-5.8-2z"/><path fill="#e6e6e6" d="m61 298.6c0-5.1 4.1-9.2 9.3-9.2s9.2 4.2 9.2 9.2-4.1 9.2-9.3 9.2c-5.1 0-9.2-4.2-9.2-9.2zm17.4-.1c0-4.5-3.5-8.2-8.2-8.2s-8.2 3.7-8.2 8.3c0 4.5 3.5 8.2 8.2 8.2s8.2-3.7 8.2-8.3zm-13.1-.1c0-2.8 2.1-5.1 5.1-5.1 1.9 0 2.9.6 3.9 1.5l-1.4 1.7c-.8-.7-1.5-1.1-2.5-1.1-1.7 0-2.8 1.4-2.8 3.1s1.1 3 2.8 3c1.1 0 1.7-.5 2.5-1.1l1.4 1.4c-1.1 1.1-2.1 1.7-4 1.7-2.8.1-5-2.2-5-5.1z"/><path fill="#e6e6e6" d="m80.9 289.7h3.4l4.2 13.2 4.4-13.3h2.6l4.4 13.3 4.2-13.2h3.3l-6.2 18h-2.7l-4.4-12.8-4.4 12.8h-2.7z"/><path fill="#e6e6e6" d="m107.1 300.8c0-3.9 3.1-7 7.2-7s7.2 3.2 7.2 7-3.1 7-7.3 7c-4 0-7.1-3.1-7.1-7zm11.3 0c0-2.3-1.7-4.3-4.2-4.3s-4.1 2-4.1 4.3 1.7 4.3 4.1 4.3c2.6.1 4.2-1.9 4.2-4.3z"/><path fill="#e6e6e6" d="m123.7 294h3.1v3c.8-2 2.4-3.4 4.8-3.3v3.2h-.2c-2.7 0-4.6 1.7-4.6 5.4v5.1h-3.1z"/><path fill="#e6e6e6" d="m133.4 288.9h3.1v11.1l5.6-6h3.8l-5.4 5.5 5.5 8h-3.5l-4.1-5.8-1.9 1.9v3.9h-3.1z"/><path fill="#e6e6e6" d="m146 300.8c0-3.9 3.1-7 7.2-7s7.2 3.2 7.2 7-3.1 7-7.3 7c-4.1 0-7.1-3.1-7.1-7zm11.2 0c0-2.3-1.7-4.3-4.2-4.3s-4.1 2-4.1 4.3 1.7 4.3 4.1 4.3c2.6.1 4.2-1.9 4.2-4.3z"/><path fill="#e6e6e6" d="m162.4 302.6v-8.6h3.1v7.6c0 2.1 1.1 3.3 2.9 3.3s3-1.3 3-3.3v-7.6h3.1v13.4h-3.1v-2.1c-.8 1.3-2.1 2.3-4.2 2.3-3 .2-4.8-1.8-4.8-5z"/><path fill="#e6e6e6" d="m178.1 303.8v-7.1h-1.7v-2.7h1.7v-3.7h3.1v3.7h3.6v2.6h-3.6v6.6c0 1.2.6 1.7 1.7 1.7.7 0 1.3-.2 1.9-.5v2.5c-.8.5-1.7.7-2.8.7-2.3.1-3.9-.9-3.9-3.8z"/><path fill="#e6e6e6" d="m187.4 289.7h3.2v15h9.4v2.9h-12.5v-17.9z"/><path fill="#e6e6e6" d="m210.2 307.5v-1.7c-.9 1.1-2.3 2-4.4 2-2.6 0-4.8-1.4-4.8-4.2 0-3 2.3-4.4 5.4-4.4 1.7 0 2.6.2 3.7.5v-.2c0-1.9-1.2-2.9-3.3-2.9-1.5 0-2.6.3-3.9.8l-.8-2.5c1.5-.7 2.9-1.1 5.1-1.1 4 0 5.9 2.1 5.9 5.7v8zm.1-5.6c-.8-.3-1.9-.5-3.1-.5-2 0-3.1.8-3.1 2.1s1.1 2 2.6 2c2 0 3.5-1.1 3.5-2.9z"/><path fill="#e6e6e6" d="m219.2 305.5v2.1h-3.1v-18.7h3.1v7.4c1-1.4 2.4-2.5 4.5-2.5 3.2 0 6.3 2.5 6.3 7s-3.1 7-6.3 7c-2.2 0-3.6-1.1-4.5-2.3zm7.7-4.7c0-2.6-1.7-4.3-3.9-4.3s-3.9 1.7-3.9 4.4c0 2.6 1.8 4.3 3.9 4.3s3.9-1.7 3.9-4.4z"/><path fill="#e6e6e6" d="m231.2 305.8 1.4-2.1c1.4 1.1 3 1.7 4.4 1.7s2.1-.5 2.1-1.5-1.3-1.4-2.8-1.8c-.1 0-.2-.1-.2-.1-2-.6-4.2-1.4-4.2-4s2.1-4.1 4.8-4.1c1.7 0 3.5.6 5 1.5l-1.2 2.2c-1.3-.8-2.6-1.3-3.8-1.3s-1.9.5-1.9 1.4 1.3 1.4 2.8 1.8c.1 0 .2.1.2.1 2 .6 4.2 1.5 4.2 4 0 2.9-2.2 4.2-5 4.2-2 0-4.1-.7-5.8-2z"/><path fill="#e6e6e6" d="m360.6 298.6c0-5.1 4.1-9.2 9.3-9.2s9.2 4.2 9.2 9.2-4.1 9.2-9.3 9.2-9.2-4.2-9.2-9.2zm17.4-.1c0-4.5-3.5-8.2-8.2-8.2s-8.2 3.7-8.2 8.3c0 4.5 3.5 8.2 8.2 8.2s8.2-3.7 8.2-8.3zm-13.1-.1c0-2.8 2.1-5.1 5.1-5.1 1.9 0 2.9.6 3.9 1.5l-1.4 1.7c-.8-.7-1.5-1.1-2.5-1.1-1.7 0-2.8 1.4-2.8 3.1s1.1 3 2.8 3c1.1 0 1.7-.5 2.5-1.1l1.4 1.4c-1.1 1.1-2.1 1.7-4 1.7-2.8.1-5-2.2-5-5.1z"/><path fill="#e6e6e6" d="m380.5 289.7h3.4l4.2 13.2 4.4-13.3h2.6l4.4 13.3 4.2-13.2h3.3l-6.2 18h-2.7l-4.4-12.8-4.4 12.8h-2.7z"/><path fill="#e6e6e6" d="m406.7 300.8c0-3.9 3.1-7 7.2-7 4.2 0 7.2 3.2 7.2 7s-3.1 7-7.3 7c-4.1 0-7.1-3.1-7.1-7zm11.3 0c0-2.3-1.7-4.3-4.2-4.3s-4.1 2-4.1 4.3 1.7 4.3 4.1 4.3c2.7.1 4.2-1.9 4.2-4.3z"/><path fill="#e6e6e6" d="m423.3 294h3.1v3c.8-2 2.4-3.4 4.8-3.3v3.2h-.2c-2.7 0-4.6 1.7-4.6 5.4v5.1h-3.1z"/><path fill="#e6e6e6" d="m433 288.9h3.1v11.1l5.6-6h3.8l-5.4 5.5 5.5 8h-3.5l-4.1-5.8-1.9 2v3.9h-3.1z"/><path fill="#e6e6e6" d="m445.6 300.8c0-3.9 3.1-7 7.2-7 4.2 0 7.2 3.2 7.2 7s-3.1 7-7.3 7c-4.1 0-7.1-3.1-7.1-7zm11.3 0c0-2.3-1.7-4.3-4.2-4.3s-4.1 2-4.1 4.3 1.7 4.3 4.1 4.3c2.6.1 4.2-1.9 4.2-4.3z"/><path fill="#e6e6e6" d="m462.1 302.6v-8.6h3.1v7.6c0 2.1 1.1 3.3 2.9 3.3s3-1.3 3-3.3v-7.6h3.1v13.4h-3.1v-2.1c-.8 1.3-2.1 2.3-4.2 2.3-3.1.2-4.8-1.8-4.8-5z"/><path fill="#e6e6e6" d="m477.8 303.8v-7.1h-1.8v-2.7h1.7v-3.7h3.1v3.7h3.6v2.6h-3.6v6.6c0 1.2.6 1.7 1.7 1.7.7 0 1.3-.2 1.9-.5v2.5c-.8.5-1.7.7-2.8.7-2.2.1-3.8-.9-3.8-3.8z"/><path fill="#e6e6e6" d="m487.1 289.7h3.2v15h9.4v2.9h-12.5v-17.9z"/><path fill="#e6e6e6" d="m509.9 307.5v-1.7c-.9 1.1-2.3 2-4.4 2-2.6 0-4.8-1.4-4.8-4.2 0-3 2.3-4.4 5.4-4.4 1.7 0 2.6.2 3.7.5v-.2c0-1.9-1.2-2.9-3.3-2.9-1.5 0-2.6.3-3.9.8l-.8-2.5c1.5-.7 2.9-1.1 5.1-1.1 4 0 5.9 2.1 5.9 5.7v8zm.1-5.6c-.8-.3-1.9-.5-3.1-.5-2 0-3.1.8-3.1 2.1s1.1 2 2.6 2c2 0 3.5-1.1 3.5-2.9z"/><path fill="#e6e6e6" d="m518.8 305.5v2.1h-3.1v-18.7h3.1v7.4c1-1.4 2.4-2.5 4.5-2.5 3.2 0 6.3 2.5 6.3 7s-3.1 7-6.3 7c-2.2 0-3.5-1.1-4.5-2.3zm7.7-4.7c0-2.6-1.7-4.3-3.9-4.3s-3.9 1.7-3.9 4.4c0 2.6 1.8 4.3 3.9 4.3s3.9-1.7 3.9-4.4z"/><path fill="#e6e6e6" d="m530.8 305.8 1.4-2.1c1.4 1.1 3 1.7 4.4 1.7s2.1-.5 2.1-1.5-1.3-1.4-2.8-1.8c-.1 0-.2-.1-.2-.1-2-.6-4.2-1.4-4.2-4s2.1-4.1 4.8-4.1c1.7 0 3.5.6 5 1.5l-1.2 2.2c-1.3-.8-2.6-1.3-3.8-1.3s-1.9.5-1.9 1.4 1.3 1.4 2.8 1.8c.1 0 .2.1.2.1 2 .6 4.2 1.5 4.2 4 0 2.9-2.2 4.2-5 4.2-1.9 0-4.1-.7-5.8-2z"/><path fill="#e6e6e6" d="m659.5 298.6c0-5.1 4.1-9.2 9.3-9.2s9.2 4.2 9.2 9.2-4.1 9.2-9.3 9.2-9.2-4.2-9.2-9.2zm17.3-.1c0-4.5-3.5-8.2-8.2-8.2s-8.2 3.7-8.2 8.3c0 4.5 3.5 8.2 8.2 8.2 4.8 0 8.2-3.7 8.2-8.3zm-13-.1c0-2.8 2.1-5.1 5.1-5.1 1.9 0 2.9.6 3.9 1.5l-1.4 1.7c-.8-.7-1.5-1.1-2.5-1.1-1.7 0-2.8 1.4-2.8 3.1s1.1 3 2.8 3c1.1 0 1.7-.5 2.5-1.1l1.4 1.4c-1.1 1.1-2.1 1.7-4 1.7-2.9.1-5-2.2-5-5.1z"/><path fill="#e6e6e6" d="m679.3 289.7h3.4l4.2 13.2 4.4-13.3h2.6l4.4 13.3 4.2-13.2h3.3l-6.2 18h-2.6l-4.4-12.8-4.4 12.8h-2.7z"/><path fill="#e6e6e6" d="m705.5 300.8c0-3.9 3.1-7 7.2-7 4.2 0 7.2 3.2 7.2 7s-3.1 7-7.3 7c-4 0-7.1-3.1-7.1-7zm11.3 0c0-2.3-1.7-4.3-4.2-4.3s-4.1 2-4.1 4.3 1.7 4.3 4.1 4.3c2.7.1 4.2-1.9 4.2-4.3z"/><path fill="#e6e6e6" d="m722.1 294h3.1v3c.8-2 2.4-3.4 4.8-3.3v3.2h-.2c-2.7 0-4.6 1.7-4.6 5.4v5.1h-3.1z"/><path fill="#e6e6e6" d="m731.8 288.9h3.1v11.1l5.6-6h3.8l-5.4 5.5 5.5 8h-3.5l-4.1-5.8-1.9 2v3.9h-3.1z"/><path fill="#e6e6e6" d="m744.4 300.8c0-3.9 3.1-7 7.2-7 4.2 0 7.2 3.2 7.2 7s-3.1 7-7.3 7c-4.1 0-7.1-3.1-7.1-7zm11.3 0c0-2.3-1.7-4.3-4.2-4.3s-4.1 2-4.1 4.3 1.7 4.3 4.1 4.3c2.6.1 4.2-1.9 4.2-4.3z"/><path fill="#e6e6e6" d="m760.9 302.6v-8.6h3.1v7.6c0 2.1 1.1 3.3 2.9 3.3s3-1.3 3-3.3v-7.6h3.1v13.4h-3.1v-2.1c-.8 1.3-2.1 2.3-4.2 2.3-3.1.2-4.8-1.8-4.8-5z"/><path fill="#e6e6e6" d="m776.6 303.8v-7.1h-1.7v-2.7h1.7v-3.7h3.1v3.7h3.6v2.6h-3.6v6.6c0 1.2.6 1.7 1.7 1.7.7 0 1.3-.2 1.9-.5v2.5c-.8.5-1.7.7-2.8.7-2.3.1-3.9-.9-3.9-3.8z"/><path fill="#e6e6e6" d="m785.9 289.7h3.2v15h9.4v2.9h-12.5v-17.9z"/><path fill="#e6e6e6" d="m808.7 307.5v-1.7c-.9 1.1-2.3 2-4.4 2-2.6 0-4.8-1.4-4.8-4.2 0-3 2.3-4.4 5.4-4.4 1.7 0 2.6.2 3.7.5v-.2c0-1.9-1.2-2.9-3.3-2.9-1.5 0-2.6.3-3.9.8l-.8-2.5c1.5-.7 2.9-1.1 5.1-1.1 4 0 5.9 2.1 5.9 5.7v8zm.1-5.6c-.8-.3-1.9-.5-3.1-.5-2 0-3.1.8-3.1 2.1s1.1 2 2.6 2c2 0 3.5-1.1 3.5-2.9z"/><path fill="#e6e6e6" d="m817.6 305.5v2.1h-3.1v-18.7h3.1v7.4c1-1.4 2.4-2.5 4.5-2.5 3.2 0 6.3 2.5 6.3 7s-3.1 7-6.3 7c-2.1 0-3.5-1.1-4.5-2.3zm7.7-4.7c0-2.6-1.7-4.3-3.9-4.3-2.1 0-3.9 1.7-3.9 4.4 0 2.6 1.8 4.3 3.9 4.3 2.2 0 3.9-1.7 3.9-4.4z"/><path fill="#e6e6e6" d="m829.6 305.8 1.4-2.1c1.4 1.1 3 1.7 4.4 1.7s2.1-.5 2.1-1.5-1.3-1.4-2.8-1.8c-.1 0-.2-.1-.2-.1-2-.6-4.2-1.4-4.2-4s2.1-4.1 4.8-4.1c1.7 0 3.5.6 5 1.5l-1.2 2.2c-1.3-.8-2.6-1.3-3.8-1.3s-1.9.5-1.9 1.4 1.3 1.4 2.8 1.8c.1 0 .2.1.2.1 2 .6 4.2 1.5 4.2 4 0 2.9-2.2 4.2-5 4.2-1.9 0-4-.7-5.8-2z"/><path fill="#e6e6e6" d="m206.3 434.2c0-5.1 4.1-9.2 9.3-9.2s9.2 4.2 9.2 9.2-4.1 9.2-9.3 9.2-9.2-4.1-9.2-9.2zm17.4-.1c0-4.5-3.5-8.2-8.2-8.2s-8.2 3.7-8.2 8.3c0 4.5 3.5 8.2 8.2 8.2s8.2-3.7 8.2-8.3zm-13.1-.1c0-2.8 2.1-5.1 5.1-5.1 1.9 0 2.9.6 3.9 1.5l-1.4 1.7c-.8-.7-1.5-1.1-2.5-1.1-1.7 0-2.8 1.4-2.8 3.1s1.1 3 2.8 3c1.1 0 1.7-.5 2.5-1.1l1.4 1.4c-1.1 1.1-2.1 1.7-4 1.7-2.9.1-5-2.2-5-5.1z"/><path fill="#e6e6e6" d="m226.1 425.3h3.4l4.2 13.2 4.4-13.3h2.6l4.4 13.3 4.2-13.2h3.3l-6.2 18h-2.7l-4.4-12.8-4.4 12.8h-2.7z"/><path fill="#e6e6e6" d="m252.4 436.4c0-3.9 3.1-7 7.2-7 4.2 0 7.2 3.2 7.2 7s-3.1 7-7.3 7c-4.1 0-7.1-3.1-7.1-7zm11.2 0c0-2.3-1.7-4.3-4.2-4.3s-4.1 2-4.1 4.3 1.7 4.3 4.1 4.3c2.7.1 4.2-1.9 4.2-4.3z"/><path fill="#e6e6e6" d="m269 429.7h3.1v3c.8-2 2.4-3.4 4.8-3.3v3.2h-.2c-2.7 0-4.6 1.7-4.6 5.4v5.1h-3.1z"/><path fill="#e6e6e6" d="m278.6 424.5h3.1v11.1l5.6-6h3.8l-5.4 5.5 5.5 8h-3.5l-4.1-5.8-1.9 2v3.9h-3.1z"/><path fill="#e6e6e6" d="m291.3 436.4c0-3.9 3.1-7 7.2-7 4.2 0 7.2 3.2 7.2 7s-3.1 7-7.3 7c-4.1 0-7.1-3.1-7.1-7zm11.2 0c0-2.3-1.7-4.3-4.2-4.3s-4.1 2-4.1 4.3 1.7 4.3 4.1 4.3c2.6.1 4.2-1.9 4.2-4.3z"/><path fill="#e6e6e6" d="m307.7 438.2v-8.6h3.1v7.6c0 2.1 1.1 3.3 2.9 3.3s3-1.3 3-3.3v-7.6h3.1v13.4h-3.1v-2.1c-.8 1.3-2.1 2.3-4.2 2.3-3 .2-4.8-1.8-4.8-5z"/><path fill="#e6e6e6" d="m323.4 439.4v-7.1h-1.7v-2.6h1.7v-3.7h3.1v3.7h3.6v2.6h-3.6v6.6c0 1.2.6 1.7 1.7 1.7.7 0 1.3-.2 1.9-.5v2.5c-.8.5-1.7.7-2.8.7-2.3 0-3.9-.9-3.9-3.9z"/><path fill="#e6e6e6" d="m332.7 425.3h3.2v15h9.4v2.9h-12.5v-17.9z"/><path fill="#e6e6e6" d="m355.5 443.1v-1.7c-.9 1.1-2.3 2-4.4 2-2.6 0-4.8-1.4-4.8-4.2 0-3 2.3-4.4 5.4-4.4 1.7 0 2.6.2 3.7.5v-.2c0-1.9-1.2-2.9-3.3-2.9-1.5 0-2.6.3-3.9.8l-.8-2.5c1.5-.7 2.9-1.1 5.1-1.1 4 0 5.9 2.1 5.9 5.7v8zm.1-5.6c-.8-.3-1.9-.5-3.1-.5-2 0-3.1.8-3.1 2.1s1.1 2 2.6 2c2 0 3.5-1.1 3.5-2.9z"/><path fill="#e6e6e6" d="m364.4 441.1v2.1h-3.1v-18.7h3.1v7.4c1-1.4 2.4-2.5 4.5-2.5 3.2 0 6.3 2.5 6.3 7s-3.1 7-6.3 7c-2.1 0-3.5-1.1-4.5-2.3zm7.7-4.7c0-2.6-1.7-4.3-3.9-4.3-2.1 0-3.9 1.7-3.9 4.4 0 2.6 1.8 4.3 3.9 4.3 2.2 0 3.9-1.7 3.9-4.4z"/><path fill="#e6e6e6" d="m376.5 441.4 1.4-2.1c1.4 1.1 3 1.7 4.4 1.7s2.1-.5 2.1-1.5-1.3-1.4-2.8-1.8c-.1 0-.2-.1-.2-.1-2-.6-4.2-1.4-4.2-4s2.1-4.1 4.8-4.1c1.7 0 3.5.6 5 1.5l-1.2 2.2c-1.3-.8-2.6-1.3-3.8-1.3s-1.9.5-1.9 1.4 1.3 1.4 2.8 1.8c.1 0 .2.1.2.1 2 .6 4.2 1.5 4.2 4 0 2.9-2.2 4.2-5 4.2-2 0-4.1-.7-5.8-2z"/><path fill="#e6e6e6" d="m505.1 434.2c0-5.1 4.1-9.2 9.3-9.2s9.2 4.2 9.2 9.2-4.1 9.2-9.3 9.2-9.2-4.1-9.2-9.2zm17.4-.1c0-4.5-3.5-8.2-8.2-8.2s-8.2 3.7-8.2 8.3c0 4.5 3.5 8.2 8.2 8.2s8.2-3.7 8.2-8.3zm-13.1-.1c0-2.8 2.1-5.1 5.1-5.1 1.9 0 2.9.6 3.9 1.5l-1.4 1.7c-.8-.7-1.5-1.1-2.5-1.1-1.7 0-2.8 1.4-2.8 3.1s1.1 3 2.8 3c1.1 0 1.7-.5 2.5-1.1l1.4 1.4c-1.1 1.1-2.1 1.7-4 1.7-2.9.1-5-2.2-5-5.1z"/><path fill="#e6e6e6" d="m525 425.3h3.4l4.2 13.2 4.4-13.3h2.6l4.4 13.3 4.2-13.2h3.3l-6.2 18h-2.7l-4.4-12.8-4.4 12.8h-2.7z"/><path fill="#e6e6e6" d="m551.2 436.4c0-3.9 3.1-7 7.2-7 4.2 0 7.2 3.2 7.2 7s-3.1 7-7.3 7c-4.1 0-7.1-3.1-7.1-7zm11.2 0c0-2.3-1.7-4.3-4.2-4.3s-4.1 2-4.1 4.3 1.7 4.3 4.1 4.3c2.7.1 4.2-1.9 4.2-4.3z"/><path fill="#e6e6e6" d="m567.8 429.7h3.1v3c.8-2 2.4-3.4 4.8-3.3v3.2h-.2c-2.7 0-4.6 1.7-4.6 5.4v5.1h-3.1z"/><path fill="#e6e6e6" d="m577.5 424.5h3.1v11.1l5.6-6h3.8l-5.4 5.5 5.5 8h-3.5l-4.1-5.8-1.9 2v3.9h-3.1z"/><path fill="#e6e6e6" d="m590.1 436.4c0-3.9 3.1-7 7.2-7 4.2 0 7.2 3.2 7.2 7s-3.1 7-7.3 7c-4.1 0-7.1-3.1-7.1-7zm11.2 0c0-2.3-1.7-4.3-4.2-4.3s-4.1 2-4.1 4.3 1.7 4.3 4.1 4.3c2.6.1 4.2-1.9 4.2-4.3z"/><path fill="#e6e6e6" d="m606.5 438.2v-8.6h3.1v7.6c0 2.1 1.1 3.3 2.9 3.3s3-1.3 3-3.3v-7.6h3.1v13.4h-3.1v-2.1c-.8 1.3-2.1 2.3-4.2 2.3-3 .2-4.8-1.8-4.8-5z"/><path fill="#e6e6e6" d="m622.2 439.4v-7.1h-1.7v-2.6h1.7v-3.7h3.1v3.7h3.6v2.6h-3.6v6.6c0 1.2.6 1.7 1.7 1.7.7 0 1.3-.2 1.9-.5v2.5c-.8.5-1.7.7-2.8.7-2.3 0-3.9-.9-3.9-3.9z"/><path fill="#e6e6e6" d="m631.5 425.3h3.2v15h9.4v2.9h-12.5v-17.9z"/><path fill="#e6e6e6" d="m654.3 443.1v-1.7c-.9 1.1-2.3 2-4.4 2-2.6 0-4.8-1.4-4.8-4.2 0-3 2.3-4.4 5.4-4.4 1.7 0 2.6.2 3.7.5v-.2c0-1.9-1.2-2.9-3.3-2.9-1.5 0-2.6.3-3.9.8l-.8-2.5c1.5-.7 2.9-1.1 5.1-1.1 4 0 5.9 2.1 5.9 5.7v8zm.1-5.6c-.8-.3-1.9-.5-3.1-.5-2 0-3.1.8-3.1 2.1s1.1 2 2.6 2c2 0 3.5-1.1 3.5-2.9z"/><path fill="#e6e6e6" d="m663.3 441.1v2.1h-3.1v-18.7h3.1v7.4c1-1.4 2.4-2.5 4.5-2.5 3.2 0 6.3 2.5 6.3 7s-3.1 7-6.3 7c-2.2 0-3.6-1.1-4.5-2.3zm7.7-4.7c0-2.6-1.7-4.3-3.9-4.3s-3.9 1.7-3.9 4.4c0 2.6 1.8 4.3 3.9 4.3s3.9-1.7 3.9-4.4z"/><path fill="#e6e6e6" d="m675.3 441.4 1.4-2.1c1.4 1.1 3 1.7 4.4 1.7s2.1-.5 2.1-1.5-1.3-1.4-2.8-1.8c-.1 0-.2-.1-.2-.1-2-.6-4.2-1.4-4.2-4s2.1-4.1 4.8-4.1c1.7 0 3.5.6 5 1.5l-1.2 2.2c-1.3-.8-2.6-1.3-3.8-1.3s-1.9.5-1.9 1.4 1.3 1.4 2.8 1.8c.1 0 .2.1.2.1 2 .6 4.2 1.5 4.2 4 0 2.9-2.2 4.2-5 4.2-2 0-4.1-.7-5.8-2z"/></g>
</svg>
