<?xml version="1.0" encoding="utf-8"?>
<!-- Generator: Adobe Illustrator 23.0.1, SVG Export Plug-In . SVG Version: 6.00 Build 0)  -->
<svg version="1.2" baseProfile="tiny" id="Layer_1" xmlns="http://www.w3.org/2000/svg" xmlns:xlink="http://www.w3.org/1999/xlink"
	 x="0px" y="0px" viewBox="0 0 900 600" xml:space="preserve">
<g>
	<path d="M404.38,285.7c-7.21,1.02-14.22-1.93-21.43-0.51c-2.74-1.63-6.02-2.92-8.63-5.28c-15.26-13.78-14.67-38.15-23.26-56.68
		c-3.25-7.01-4.57-14.83-9.85-21.33c2.03-4.88,4.37-9.65,5.38-14.93s-1.12-10.56,0.61-16.35c9.53-7.26,2.46-44.28,2.23-46.83
		c-0.74-8.32-4.34-6.14-17.37-16.86c-4.84-3.99-7.72-7.36-5.38-23.97c0.84-5.98,2.43-1.76,9.65-4.37c9.2-3.32,1.59-10.62,6.4-15.64
		c0.3-0.31,0.41-0.91,0.3-1.32c-1.12-3.15,0.81-6.3-0.3-9.14c3.05-2.74,2.99-2.76,1.32-6.4c-0.99-2.15-2.47-4.38-1.22-6.91
		c4.38-8.81,0.14-12.01,0.81-15.03c1.73-2.64,4.47-3.66,6.91-5.69c-1.73-0.81-1.32-2.64-2.64-3.56c-1.42-0.2-2.44,1.22-4.06,1.02
		c2.23-2.23,6.2-2.13,7.92-5.99c-1.83,1.02-3.05,1.63-4.57,2.34c0.51-3.56-2.44-4.16-3.66-5.99c-20.03,2.43-4.8,0.52-2.74-2.74
		c-28.64-1.71-17.72-0.1-18.89-2.84c-2.95-1.02-14.42,0.2-15.95,1.73c-6-4.18-8.31,4.61-11.58,3.35c-1.92-0.74-4.14-0.23-5.79-1.93
		c-1-1.03-2.54-1.63-3.86,0.2c1.32,1.63,4.16,1.32,4.77,3.66c-2.03,0.3-4.16-1.22-6.09,0.61c0.91,1.93,3.05,2.03,4.57,2.84
		c-0.51,2.34-2.64,1.22-3.96,1.83c-0.51,1.12,1.21,1.52,0.61,2.84c-2.69,5.97-2.23,12.39-2.54,18.69c-0.1,2.03,1.5,4.16,1.02,5.69
		c-2.44,7.64,6.59,16.82,5.38,27.53c-0.08,0.32,1.07,3.89,0.91,6.81c-0.47,9.07-3.11,7.83-24.58,19.5
		c-4.65,2.53-4.48,5.87-11.78,8.23c-10.01,3.23-23.06,20.74-22.04,34.64c0.13,1.73,1.56,3.06,1.12,4.88
		c-1.04,4.29-2.04,8.63-4.06,12.49c-7.83,14.99,2.48,23.61,1.12,29.36c-2.25,9.51-1.06,24.56-3.86,36.47
		c-3.93,16.71,11.87,51.87,5.49,65.62c-7.21-0.61-14.32-1.63-21.54-2.84c-4.77,4.67-7.31,10.97-12.19,15.64
		c5.08,15.88,0.88,21.25,24.99,22.65c4.88,0.28,9.75,0.91,11.58-4.88c1.52-0.41,2.34,0.81,3.76,0.3c0.81-0.1,1.32-1.22,2.34-1.52
		c1.22,0.61,2.03,2.03,3.45,1.93c1.42-0.2,2.03-1.73,3.25-2.03c0-1.93,1.32-3.15,2.44-4.47c3.67-4.36,3.76-4.37,1.32-9.35
		c1.63,1.32,2.54,2.64,3.66,4.06c-1.42,3.45-2.34,7.01-4.67,9.96c-1.84,0.67-4.32-2.66-1.32,2.84c-0.51,5.79,0.06,11.57-0.71,17.37
		c-1.21,9.11,3.02,11.61,1.83,18.59c-0.99,5.79-0.26,11.58-0.71,17.37c-1.06,13.54-2.44,6.15-2.84,21.43c4.57,0.1,8.84,1.13,13-0.41
		c4.37-1.62,5.82,4.05,10.87,1.42c2.13,2.34,0.61,5.99,3.45,7.82c-2.85,2.28-0.57,1.14-0.61,3.05c-0.58,29.64-6.31,22.04-8.84,44.8
		c-2.87,25.82,2.86,20.55,5.89,39.01c5.55,33.84,2.63,41.33,3.86,47.85c0.96,5.09,0.71,10.16,0.1,15.24
		c-0.91,0.71-2.34,0.1-3.25,0.91c-4.18,7.81-0.47,11.41-2.84,16.05c-3.39,6.63-5.69,13.51-3.96,20.93c2.23,2.13,5.09,2.01,7.62,2.74
		c17.1,4.97,16.01,0.31,24.18,3.96c9.94,4.45,29.4,6.14,43.68-0.91c7.13-3.52,3.48-8.37,6.09-9.24c9.5,5.7,27.58-0.49,37.38-5.69
		c1.2-0.64,1.73-1.73,1.42-2.95c-0.99-3.95-1.6-12.01-5.79-12.6c-11.73-1.64-17.13-0.82-25.4-8.13c-4.15-3.67-7.65-7.99-11.99-11.58
		c-2.56-2.11-5.38-4.57-4.27-8.03c-1.32-3.97-4.16,1.82-3.76-9.55c0.33-9.44,4.58-89.21,8.53-103.41c2.58-9.25-1.6-9.45-0.41-13.51
		c4.45-15.16,1.24-16.15,4.67-16.15c3.53,0,13.55-3.49,14.02-6.4c2.81-17.32-5.62-17.88-5.49-60.75c0.02-5.8,2.68-0.64,9.65-0.91
		c9.53-0.38,9.39-0.48,15.44-10.56c2.54,0,4.76-2.42,7.42-1.02c2.93,1.55,6.3,1.43,9.45,1.83c10.18,1.28,9.32-4.15,15.85-13.51
		c1.55-2.22,1.53-4.27,0.2-6.4C409.26,292.91,406.92,288.95,404.38,285.7z M285.53,19.66c-0.1-1.22,0.2-1.63,0.91-1.93
		C286.65,18.64,286.04,18.95,285.53,19.66z M349.02,142.27c-9.04-8.53-11.89-19.71-14.32-31.29
		C338.67,119.16,349.96,113.94,349.02,142.27z M341.7,10.62c-0.51,0.81-0.91,1.02-1.63,0.61C340.18,10.31,340.79,10.21,341.7,10.62z
		 M339.57,15.6c-1.02,1.02-1.93,2.03-3.66,0.91C337.13,15.5,338.35,15.29,339.57,15.6z M323.52,9.5c-0.41,1.12-1.42,1.12-2.84,1.83
		C321.79,10.11,322.2,9.2,323.52,9.5z M312.45,12.45c0.3,1.22-0.3,1.02-1.12,0.71C311.74,12.85,312.04,12.65,312.45,12.45z
		 M306.46,26.16c0.71,0.61,0.81,1.12,0.3,1.93C305.54,27.69,305.34,27.08,306.46,26.16z M300.97,6.86c0.41,1.02,0,1.02-0.81,0.71
		C300.26,7.06,300.46,6.76,300.97,6.86z M299.14,22.71c-0.41,2.03-1.83,1.32-2.95,1.12C297.01,23.01,297.52,21.39,299.14,22.71z
		 M295.59,11.23c-1.02,0.51-1.73-0.1-3.15-0.3C294.06,10.11,294.67,10.72,295.59,11.23z M291.73,39.67c0.1-0.2,0.51-0.2,1.02-0.3
		C293.53,41.74,290.92,41.29,291.73,39.67z M291.83,18.14c0,1.52-0.61,1.83-1.22,2.34C290.2,19.15,291.22,19.15,291.83,18.14z
		 M290.51,31.95c0.1,1.22-0.61,1.63-1.22,2.13C289.19,33.17,289.59,32.66,290.51,31.95z M288.78,45.77
		c-0.91-1.32-0.51-2.64-0.61-4.16c1.02,1.73,1.52-1.02,2.34-0.2C290.3,43.23,290.3,43.23,288.78,45.77z M290.81,52.47
		c-1.22,0-1.42-0.41-1.12-1.02C290.3,51.35,290.41,51.96,290.81,52.47z M283.29,85.89c10.24-4.05,7.13-15.92,9.35-30.68
		c1.83-0.91,2.23,1.22,3.76,1.63c0.51-0.2,1.22-0.51,2.13-0.81c0.51,2.13,1.32,4.16,1.32,6.2c0,5.03,7.61,8.2,12.19,8.33
		c-3.96-2.03-7.21-4.37-10.26-6.7c-1.52-4.16,0.61-9.24-3.76-12.29c-1.32,0.71-0.61,1.83-1.42,2.44c-8.48-6.67,0.09-2.48-6.4-6.81
		c-0.3-1.73,0.91-2.84,1.63-4.47c1.06,0.28,1.85,1.47,3.06,1.34c0.11-0.15,0.06-0.15,0.19-0.02c-2.85,0.81-1.72,7,3.76,5.38
		c0.95-1.75-1.22-3.05-1.22-3.15c1.63-4.27-1.93-6.09-3.76-8.63c7.4,1.71,1.99,8.11,6.3,9.85c2.31-1.44-2.07-5.51,7.21-13.82
		c7.79-6.96,2.23-4.98,2.23-6.81c1.22-0.61,2.54,0.41,3.76,0c1.42-2.54,3.96-3.66,6.4-4.88c0.4-0.56-0.08-1-0.25-1.5
		c-0.75,0.14-1.42-0.05-2.18-0.53c1.46-0.79,4.77,2.23,10.77-1.32c2.39-1.59,5.4,1.3,11.68,0.41c6.44,18.4,0.33,11.07,0.71,14.73
		c-2.03,0.41-1.31,1.83-1.02,2.95c4.54,17.16,5.78,10.28,1.63,15.03c-0.61,2.03,0.41,4.16,0,6.09c-3.35,1.02-6.91,0.61-10.06,2.44
		c3.15,1.52,6.3-0.41,9.65,0.2c1.11,1.85-0.71,3.28-1.04,3.94c-1.85-1.85-3.71-1.51-6.48-0.89c2.28,2.17,4.27,2.03,6.44,1.09
		c-2.84,10.3,5.39,11.46-12.43,12.83c-1.52,1.73-2.2,3.66-2.23,5.99c-0.16,11.24-1.77,10.59,0.71,17.78
		c2.6,7.54,8.97,27.24,1.22,29.46c-6.76,1.94-17.67-4.83-22.75-14.02c-3.04-5.49-7.42-10.16-10.06-15.85
		c-0.2-0.51-0.81-0.82-1.22-1.22C280.31,87.53,275.41,89.01,283.29,85.89z M294.27,41.3c1.63,1.32,1.63,1.32,1.02,3.15
		C295.28,43.33,293.66,42.72,294.27,41.3z M340.28,35.91c-0.71-0.81,0.2-1.42,0.2-2.03C343.41,34.21,341.97,37.39,340.28,35.91z
		 M277.1,89.65c31.68,21.63,18.29,32.98,42.77,43.17c4.41,2.13,12.48,0.75,12.29-4.47c-0.63-17.95-0.26-14.54-3.66-21.33
		c4.51,2.8,4.43,4.97,7.31,16.96c1.82,7.58,10.17,17.4,10.87,17.98c4.93,4.12,2.05,8.45,2.34,15.75c0.51,13.04-6.45,9.37-4.37,26.41
		c0.44,3.62-5.28,16.28-5.28,17.98c0,6.2-2.34,12.09-2.13,18.18c0.49,14.81-4.96,28.24-2.23,33.93c-3.85,3.21-36.72-2.54-41.14-3.45
		c-3.82-0.79-5.17-3.31-8.43-4.16c0.3,1.83,2.44,1.52,3.15,3.45c-7.92-2.74-15.34-5.69-23.47-6.6c0.81-5.59-1.52-10.56-1.32-16.05
		c5.99,1.22,11.89,2.34,17.78,2.95c-5.28-2.23-11.07-2.23-16.35-3.96c-0.51-2.44-0.32-4.67-0.3-7.01
		c0.13-17.84-2.5-16.85-5.08-27.43c-1.12-4.57,0.1-4.79,4.88-17.07c16.17,3.64,27.72-14.73,34.13-30.07
		c3.14-7.52,1.79-14.72,0.2-22.14c-1.87-8.73-7.84-14.71-13.71-20.93C272.79,88.48,275.53,91.85,277.1,89.65z M331.34,258.07
		c-1.02,0.61-1.87-1.23,0.61-0.81C332.16,257.87,331.65,257.97,331.34,258.07z M266.13,249.24c0-2.22-0.04-1.93,0.1-1.93
		C266.23,249.52,266.27,249.24,266.13,249.24z M262.57,239.28c1.41,13.92-6.2,6.85-11.48,35.35c-2.54-12.45,3.31-43.56,2.95-62.47
		c-0.02-1.02,0.01-2.03,0.61-3.05c4.3-7.3,0.75-13.83,2.84-16.96C267.28,213.68,260.43,218.16,262.57,239.28z M235.25,314.35
		c0.41-2.52,3.61-3.65,3.35-6.44c-7.27,3.85-6.29,13.4-14.63,11.72c-2.52-0.51-5.33,0.08-7.76-1.39c-1.21,1.17-2.52,0.67-3.82,0.17
		c-11.39-4.34-7.68,0.08-12.39-17.17c-0.9-3.31-0.31-3.24,9.75-16.76c4.47,1.02,8.94,2.03,13.82,1.93c-0.3,1.42-1.83,0.71-2.03,2.03
		c3.25,0.71,6.4-0.71,9.75-0.81c9.3,27.42,5.65,19.37,10.16,17.27c1.73-0.61,1.93-2.03,2.23-3.45c1.83,3.15,1.69,5.75-1.42,8.23
		C239.44,311.92,239.71,315.32,235.25,314.35z M236.46,296.57c3.96,2.34,4.77,4.27,3.76,8.13
		C237.68,302.57,237.79,299.62,236.46,296.57z M248.45,308.15c-3.56,4.82-3.35,5.72-4.98,6.91c-1,0.33-2.79-0.67-1.73-1.73
		c5.34-6.1,6.91-4.74,3.86-11.38C242.27,296.95,253.08,301.88,248.45,308.15z M249.47,299.32c-1.51-1.33-3.65-1.11-5.49-0.3
		c-1.78,0.77,1.92,5.47-2.47-0.91c2.69,0.27,4.1-1.15,5.01-4.37c-1.83,1.38-5.06,1.98-5.06,4.3c-7.38-7.39-3.65,2.66-8.65-11.7
		c-0.65-1.86,4.72-11.56,1.63-15.75c-0.54-0.73-5.9-24.02-6.4-29.36c-2.07-21.93,0.56-3.86-0.91-23.57
		c1.4,0.78,2.27,11.56,1.63-7.92c-0.26-7.82,1.68-15.44,1.83-23.16c0.07-3.71,3.25-0.17,5.18-8.23c-2.34,0.41-2.54,2.84-4.57,3.66
		c-0.91-4.32-5.7-17.6-3.45-21.54c2.64-4.06,2.69-9.02,4.77-13.31c0.93-1.92,1.52-4.06,1.63-6.5c1.42,5.18,5.28,8.03,9.35,10.36
		c0-0.61,0-1.73,0-2.95c-7.8-1.52-6.82-9.75-10.16-13.31c-3.79-4.04,9.12-21.92,12.9-26.72c1.03-1.31,2.64-1.83,4.16-2.23
		c0.91,0.3-0.1,1.52,0.91,1.73c1.89,0-1.33-1.26,6.2-1.93c1.32-0.12,2.95,1.22,3.96-0.71c0.42-0.42-6.22-1.35-6.81-1.42
		c6.81-3.45,12.39-8.63,19.61-11.78c7.08,10.75,20.38,20.1,22.14,30.37c1.77,10.34,4.66,14.31,0.61,20.52
		c-2.55,3.9-4.09,13.87-13.61,22.04c-2.24,1.92-3.54,4.82-6.6,6.09c-1.51,0.63-3.35,0.41-4.57,1.63c-3.12-4.68,1.27,2.51-6.3,0.1
		c-0.3-1.22,0.61-2.03,0.61-3.05c1.32,0.2,1.02,1.83,2.74,1.83c-2.03-4.47-1.12-8.94-0.1-13.61c5.6,0.37,3.93,0.39,9.55,5.08
		c2.23-1.02,1.83-2.95,1.42-4.98c-3.82,0.64-0.37-2.02-3.25-7.11c-1.93,1.02-0.71,2.54-1.42,3.76c-3.15-4.67,0.1-9.65-0.61-14.73
		c-8.13,7.83-8.84,8.2-8.63,9.85c1.52,12.23-5.6,31.02-11.07,41.55c-3.1,5.97-7.26,77.35-7.21,78.52c0.22,4.88,0.62,9.65,0.41,14.63
		c-0.28,6.58,7.05,6.14,3.45,15.44c1.83,2.13,5.95,3.68,4.77,7.11c-0.77,2.25-1.32,5.69-4.47,6.81
		C253.42,303.64,259.22,307.91,249.47,299.32z M272.02,559.67c-0.57-7.95-0.77-3.87,17.57-1.73c-5.47,2.42-6.16,9.3-9.14,8.63
		c-3.25-0.41-6.4-1.12-8.63-3.86c1.12-1.12,1.83,0.51,2.54-0.41C274.15,560.99,272.63,560.89,272.02,559.67z M340.99,582.53
		c-0.54,2.86-0.41,5.79-1.63,8.84c-5.08,2.44-10.36,4.48-16.46,5.28c-10.83,1.42-25.79-1.99-27.73-2.95
		c-8.9-4.39-15.69,0.82-30.78-7.11c0.2-7.72,6.3-13.61,5.59-21.94c2.64,2.34,5.08,3.74,7.92,4.37c8.31,1.83,5.18-4.24,15.44-11.28
		c-1.52-1.02-2.44-2.44-4.37-2.44c-1.42,0-2.26-1.01-2.64-2.34c-0.76-2.63-2.34-5.08-1.63-8.03c-2.23,2.74-0.71,5.89-1.42,8.94
		c-2.95,0.51-5.59-0.91-8.74-1.52c4.33-3.92-1.14-11.16,0.1-20.11c1.69-12.21-1.96-43.4-8.94-61.46
		c-7.93-20.52,14.55-53.59,8.03-73.95c-0.42-1.32-1.22-2.54-0.91-4.37c24.11,0,20.96,5.49,40.43,1.32
		c1.23,11.78-8.63,15.9-6.09,27.22c1,4.47-1.56,7.84-2.74,11.58c-0.19,0.61-1.42,0.1-1.73,1.42c-1.28,39.56-6.31,28.53-5.49,108.49
		c0.05,4.68-1.76,2.24-3.45,3.25c-3.66,4.88-4.06,6.81-1.63,8.63c1.12-2.13,1.73-4.47,3.45-6.6c1.73,1.22,3.76,0.41,6.2,1.02
		c0.3,7.11,5.79,10.56,11.68,13.71c-2.03,2.03-4.27,0.3-5.99,1.42c-0.41-0.91,0.91-1.52,0.2-2.23c-1.01-1.18-0.68-0.72-17.17,1.32
		c-1.63,0.2-2.84,0.81-3.56,2.74c3.05,2.54,6.3-0.3,9.45,0.3c-1.52,1.63-4.27,1.12-5.38,3.56c1.32,2.03,3.25,1.74,5.18,1.42
		c6.92-1.16,14.02-1.63,20.21-6.2c0.3,1.83-1.73,2.74-0.61,3.96c-3.96,1.83-8.74,0.61-11.68,4.77c2.74,2.34,5.08-0.17,7.42-0.41
		c12.84-1.3,0.79-5.38,15.34,0.61c-3.08,0.73-7.6,1.22-6.2,3.56c3.35-0.61,7.01,0.71,9.96-1.83
		C339.06,579.13,341.62,579.25,340.99,582.53z M304.73,542.71c-1.12,1.02-2.44,1.83-2.23,3.56c-2.34,0-3.06-1.32-3.15-2.95
		c-1.02-19.6-1.83-39.11,1.63-59.22c2.5,7.08,5.99,27.36,4.57,44.19C305.15,532.96,303.71,537.73,304.73,542.71z M333.07,537.83
		c-0.94,6.59,1.34,5.61,7.21,11.48c-4.47,4.67-11.17,3.76-16.25,6.7c0.61,2.95,2.94,2.72,4.47,2.64c11.79-0.64,7.73,0.81,18.08-2.64
		c1.93,1.12,3.45,2.84,5.38,4.57c-4.73,1.58-7.09-6.53-15.03,0.81c2.13,2.34,4.57-0.61,6.81,0.41c-0.2,1.42-2.34,0.81-2.54,2.44
		c2.53,2.72,6.28-1.71,8.63-1.02c0.2,0.91-1.12,1.42-0.61,2.54c2.54,2.13,4.67,1.32,6.4-3.15c6.5,4.37,14.32,2.95,21.43,5.08
		c2.23,2.95,2.03,6.6,2.74,10.06c-7.21,5.49-22.45,8.53-34.33,6.7c-1.3-0.87-0.19-6.33-6.5-8.74c-1.32-0.5-12.05-5.02-13.21-5.99
		c-17.05-14.35-19.51-12.85-19.91-16.86c7.05-2.01,11.72,5.55,19.2-6.09C322.93,534.06,328.06,541.03,333.07,537.83z M317.02,546.26
		c0.61,1.63,0.2,2.74,0.1,4.06c-4.91,1.09-6.82-1.82-10.16-1.63C303.21,543.07,313.17,546.81,317.02,546.26z M318.85,546.26
		c6.04-1.86,0.95,3.16,0.71,3.56C318.54,548.5,319.46,547.38,318.85,546.26z M356.03,372.25c1.56,5.49,0.76,8.75,0.51,15.85
		c-20.29,9.58-26.63,2.32-31.69,6.6c4.98,3.05,10.56-0.1,15.75,1.42c0,3.96-0.32,7.61-1.52,11.17c-3.23,9.54,1.21,5.17-1.83,18.18
		c-3.92,16.76-2.84,8.19-2.84,15.34c0,0.1-5.47,87.66-5.49,87.77c-0.4,2.54,1.63,5.08,0.71,7.92c-1.73,0.91-3.86-0.1-5.79,0.71
		c-1.93,1.52-1.52,3.86-1.93,6.2c-4.98-0.3-9.75-0.1-14.73-1.22c-1.53-8.24,4.11-17.59,1.02-36.77
		c-5.06-31.39-7.54-26.93-5.49-37.18c3.03-15.11-0.5-25.43,5.38-38.6c4.28-9.59-3.59-9.79,2.95-20.32
		c2.89-4.65,5.28-9.14,4.27-14.83c3.35-2.23,7.52,0.41,11.07-2.54c-3.18-14.68-4.02-72.99-4.88-31.49
		c-0.22,10.56-0.13,8.13,1.22,29.66c-2.14,1.11-12.99,1.3-17.37,3.56c-1.52,0.78-21.33-4.89-37.99-2.95
		c-6.71,0.78-13.41,0.2-20.11,0.41c-0.61-1.32-0.1-2.44-0.1-3.56c0.81,0.1,1.56,0.51,1.73-0.91c5.88-50.11-1.49-40.59,0.91-69.48
		c0.61,2.84,2.64,3.65,5.08,4.16c7.84,1.66,4.41,4.71,22.25,3.86c4.25-0.2,4.47-3.64,11.28-14.53c0.91-1.73,1.12-2.95-0.91-2.84
		c-2.23,5.49-5.59,10.26-8.84,15.24c-20.36-0.32-9.87-0.03-23.77-4.06c-2.84-0.82-2.84-0.81-3.66-4.27c1.12-0.51,2.23,0.51,3.35-0.1
		c2.03-1.32,1.63-4.06,3.35-5.49c4.88-0.3,5.68-0.81,5.99-4.16c0.7-7.45-9.72-2.33-7.52-11.38c0.68-2.8-3.98-4.39-3.96-7.42
		c0.04-6.2,1.22-26.44,7.62-32.1c-0.81,4.67,0.1,9.45-0.91,14.12c2.99-3.99,1.03-14.61,4.88-17.78c2.13,2.54,6.91,4.47,10.77,4.27
		c-1.93-1.42-4.47-1.52-6.2-3.56c1.12-1.02,1.42-2.44,1.83-3.76c1.32-0.3,2.44,0,3.45,0.61c0.42,1.45-2.06,4.67,2.44,5.49
		c0.34-0.81,0.65-6.47,4.12-3.48c-1.27,0.64-1.94,1.19-1.08,2.57c0.95-0.58,0.92-1.61,1.18-2.48c9.1,3.49,19,3.21,28.28,5.93
		c-0.2,1.63-1.83,0.41-2.44,1.22c-0.3,0.81-0.81,1.63-0.2,2.54c0.71,0.41,0.71-0.3,1.02-0.61c0.81,0.41,0,1.52,0.81,1.93
		c0.91,0.2,0.81-0.91,1.42-1.12c0.41,0.2,0.3,0.91,0.91,0.91c1.73-0.91,2.23-2.74,2.74-4.67c11.59,0.75,9.35-0.43,9.35,3.56
		c-2.84,0.61-5.69-0.1-8.53,0.2c2.19,1.09,8.45,1.11,10.16-0.91c0.61-0.81,2.64-2.54,4.67-1.52c0,2.61-5.79,2.26,5.79,4.77
		c1.73-1.52,1.12-3.86,2.23-5.79c3.45,15.65,10.11,15.54,12.19,34.84C353.63,335.02,349.2,348.17,356.03,372.25z M257.59,301.86
		c3.76-0.3,4.67,0.71,4.37,4.37c-0.71,0.71-1.63,0.71-2.74,0.71C258.91,305.21,258.51,303.48,257.59,301.86z M371.77,321.97
		c-2.82,4.08-13.48,2.64-17.78,0.1c-2.76-5.8,0.73-13.52-3.96-37.69c-2.86-14.74-11.27-18.41-11.17-28.14
		c0.01-1.42,0-3.25-2.13-3.05c-0.51-7.31,0.89-14.22,1.63-21.23c1.23-11.74-0.38-12.9,2.95-24.89c3.65,3.44,12.69,32.51,13.82,36.77
		c14.8,55.92,24.15,29.98,39.62,55.77c-0.41,2.13-2.74,3.86-1.12,6.5c-3.18-0.2-4.48-1.75-3.35-5.69c0.41-1.12,2.03-0.51,2.44-1.83
		c-1.42-1.02-3.05-0.1-4.57-1.12c-0.81-0.71,0.51-1.83-0.3-3.05c-2.13,3.15-5.69,1.52-8.53,3.05c-2.13-2.34-5.18-3.56-6.5-6.5
		c-1.12,0.51,0.1,1.42-0.91,2.03c-3.15,0.2-6.6-0.61-9.96-0.81c-4.27-7.42-8.23-14.93-14.73-20.52c0.41,3.96,3.54,6.31,5.49,9.35
		c10.03,15.68,4.68,7.72-0.81,10.56c7.42,2.23,14.32,2.95,21.54,2.84c2.64,5.28,3.35,11.17,5.89,16.46
		C376.75,314.66,374.27,318.35,371.77,321.97z M381.83,311.51c-0.2,1.02-0.51,2.03-1.93,2.54c0.3-1.32,0.91-2.13,1.73-2.74
		c1.6-6.04-4.57-9.47-3.86-11.78c0.91,0,0.61,1.12,2.03,1.32c0.2,0,1.22-0.2,2.03-0.3C386.58,301.86,384.91,309.07,381.83,311.51z
		 M382.95,313.23c6.71-10.25,1.52-10.23,1.52-13.1c1.12-1.02,2.64,1.22,3.76-1.32c0.51,3.15-0.61,5.79,1.52,7.72
		C387.72,308.97,386.91,312.22,382.95,313.23z M387.72,313.84c0-2.64,1.93-4.16,3.05-5.99c1.42-0.51,1.93,1.73,3.35,0.61
		c2.23-2.44,0-6.2,2.74-8.43c-3.26-11.4-14.59-10.26-0.2-10.26c-3.09-1.65-23.07-4.12,6.6-1.32c2.54,3.86,4.16,8.13,7.62,11.58
		C401.8,316.18,403.15,317.13,387.72,313.84z"/>
	<path d="M504.03,83.96c-0.14,0-0.11-0.01,0.01,0.03C504.03,83.98,504.03,83.96,504.03,83.96z"/>
	<path d="M595.76,252.69l0.1-0.1C595.83,252.62,595.76,252.65,595.76,252.69z"/>
	<path d="M539.28,249.74C536.53,253.86,540.01,253.39,539.28,249.74L539.28,249.74z"/>
	<path d="M686.78,118.4c-0.82-2.84-3.35-2.23-5.79-3.05c0.91,2.13,2.74,1.73,4.27,2.84c0.51,5.28,4.98,9.96,3.76,16.15
		c-1.63,1.73-3.84,2.38-5.79,3.15c-27.2,10.73-24.8,34.04-45,58.11c-8.39,9.99-18.17,15.27-22.65,22.45
		c-6.5-1.52-10.67-6.3-15.54-10.16c0-10.89,5.99-13.06,5.99-25.4c0.41-0.71,1.42,0.3,1.83-0.51c0.3-1.63-1.02-2.03-2.13-2.54
		c0-2.84,0-5.49,0-8.02c3.45-3.15,5.09-6.91,4.88-11.48c-0.27-5.92,2.04-17.39-2.23-28.65c-0.71,3.66,0.41,7.21-0.1,10.87
		c-9.04-8.33-11.68-19.5-14.53-30.98c8.1,6.07,14.75,6.78,16.05,16.35c0.47,3.46,1.97,6.8,1.32,10.56
		c-0.33,1.93,1.12,3.76,2.13,5.38c4.78,7.66,3.45,10.6,3.45,27.83c-3.86,3.76-4.98,8.74-5.59,13.92c2.7-8.11,6.15-13.94,13.1-15.64
		c15.53-3.8,16.5-12.27,23.39-16.84c-0.74,2.2-3.38,3.25-3.38,6.57c1.62-2.48,3.66-4.25,3.66-6.81c6.56-6.95,7.69-8.33,10.36-8.33
		c1.83,0,2.84-2.44,4.67-3.56c-1.42-1.12-2.03,1.02-3.05,0.51c-1.76-3.51,8.85-0.76,11.28-2.95c-0.71-1.42,0.23-1.31-18.69,0.2
		c-3.96-4.27-6.7-9.45-9.65-14.53c8.66-16.69,11.31-25.34-0.51-1.22c-1.46,2.98,6.52,14.2,8.74,16.66c5.12,0.26,6.98,0.13,5.28,1.83
		c-25.36,22.28-13.23,18.73-38.09,28.75c0.91-4.47,0.56-8.94,1.02-13.31c0.46-4.47-0.39-8.44-2.95-12.19
		c-4.24-6.22-0.41-4.44-4.57-19c-3.83-13.41-13.45-11.86-20.82-18.69c-7.82-7.24-5.81-13.37-5.18-23.57
		c0.09-1.52,0.51-2.95,2.03-3.96c0.41,0.1,1.02,0.31,1.52,0.3c17.31-0.11,7.06-10.92,13.1-17.57c-1.93-3.15,1.02-6.4-0.81-9.24
		c3.35-2.95,3.23-2.94,1.52-6.81c-4.02-9.1,2.76-7.95,0.51-16.96c-1.61-6.42-2.18-4.81,5.99-10.46c-1.52-1.02-1.42-2.95-2.64-3.76
		c-1.63,0.1-2.54,1.42-4.27,1.22c2.44-2.34,6.3-2.23,8.23-6.09c-1.83,0.91-3.05,1.52-4.37,2.13c-0.2-1.22-0.51-2.13-0.71-3.35
		c-1.52-0.2-2.23-1.83-3.25-2.54c-20.65,2.5-3.75,0.42-2.95-2.95c-6.7,0.2-13.1-1.02-19.5-0.71c-0.3-1.12,1.52-0.81,0.91-1.93
		c-2.64-1.12-14.32,0-15.85,1.63c-6.21-3.98-7.94,4.05-11.07,3.25c-1.93-0.5-4.05-0.02-5.79-1.52c-1.31-1.13-2.84-1.93-4.77,0
		c2.03,1.32,4.37,1.63,5.38,3.66c-2.03,0.41-4.27-1.32-6.2,0.61c0.71,2.23,3.05,1.93,4.37,3.05c-0.51,2.34-2.74,1.02-3.76,1.73
		c-0.51,1.22,0.81,1.22,0.81,1.93c-4.25,9.05-2.57,31.21-0.2,35.86c2.06,4.05,1.86,8.62,4.16,12.39c0.31,0.51,0.3,1.22,0.1,1.73
		c-1.08,2.8,2.71,15.72-2.64,18.08c-7.2,3.17-13.21,8.74-21.54,9.45c-2.53-3.54-2.05-10.87-12.6-8.74c-2.4,0.48-5-0.86-7.4,0.45
		c4.63,1.78,9.47,1.68,14.51,0.77c8.27,19.29,9.68,7.04,2.44,32.61c-0.79,0.99-2.45,0.87-2.99,0.6c-4.91,3.62-10.2,1.85-20.48,0.82
		c-3.35-3.86-3.77-8.83-5.38-13.41c-2.26-6.42,0.24-8.48,4.06-19.1c2.74-0.81,5.79,0.3,7.72-2.34c-3.02,0.09-6.23-0.09-9.24,1.42
		c-4.56,12.47-5.87,14.34-5.08,16.66c2,5.9,2.64,12.19,5.28,17.78c-8.06,11.37-3.34,22.14-0.91,28.95
		c1.93,5.43-0.11,12.96-1.32,29.97c-0.8,11.31,5.85,13.14,8.33,20.01c2.61,7.24,8.29,6.01,12.6,11.28c2.8,3.41,4.54,4.01,8.57,0.78
		c-0.19,0.78,0.29,5.87-0.24,10.19c-0.7,5.69-1.25,11.49,0.1,17.17c0.99,4.17-1.73,7.82-1.83,11.78c-0.02,0.94-4.09,3.55-5.59,7.82
		c-3.25,9.27-3.6,12.1-7.21,51.5c-4.01,43.68,1.54,34.71-0.1,46.02c-1.18,8.14,0.6,16.65-2.64,27.83c-0.82,2.84-1.22,6.3-0.41,9.75
		c4.57-0.2,8.92,0.98,13.21-0.71c4.44-1.75,3.28,3.71,10.77,1.52c7.67,23.28-5.05,37.12-6.7,57.6c-2.25,27.87,3.88,18.05,6.3,38.4
		c0.99,8.33,2.69,16.56,3.15,24.89c0.45,8.23-0.49,16.55,0.91,24.68c0.72,4.16-0.2,8.23-0.3,12.19c-1.12,0.81-2.55,0.09-3.15,0.91
		c-5.03,6.95-0.12,7.82-3.96,17.88c-8.6,22.54-1.21,20.23,4.57,21.84c18.97,5.29,15.55,0.03,24.18,3.86
		c9.24,4.11,29.61,6.55,44.9-1.32c4.84-2.49,2.75-6.61,4.67-8.53c8.33,5.79,33.01-1.12,39.31-7.31
		c-2.02-12.46-1.49-14.79-15.14-15.34c-11.9-0.48-17.61-7.67-32.61-23.16c1.22-3.05,0.2-4.98-2.95-5.49
		c-2.34-8.04,2.32-46.76,4.47-85.43c0.72-13.02-1.48-6.49,4.06-26.82c1.68-6.15-2.09-7.39-0.81-12.29
		c3.92-15.05,0.92-15.69,4.67-15.64c3.51,0.04,13.64-3.34,14.12-6.81c2.31-16.7-4.85-18.65-5.38-52.11c0-0.1,0.02-22.92-1.63-40.94
		c-2.25-24.71-12.8-27.2-12.8-38.91c0-1.39-0.4-2.58-2.13-2.35c0.02,5.75,1.93,11.11,4.88,15.96c14.76,24.34,5.19,68.5,14.73,104.83
		c1.15,4.36,0.3,8.84,0.3,13.51c-19.12,9.43-26.41,2.97-31.8,6.09c0,4.7,10.08-0.18,15.75,2.34c-0.75,12.74-3.81,13.25-2.34,20.32
		c1.42,6.81-3.11,6.46-4.27,35.45c0,0.11-3.85,50.18-3.86,50.28c-0.85,8.63-0.14,17.37-1.22,26.01c-0.32,2.54,1.52,5.08,0.51,7.92
		c-1.83,1.12-4.26-0.51-5.89,1.02c-1.52,1.42-1.32,3.66-1.63,5.79c-31.08-1.3-1.64,6.35-19.61-66.84
		c-1.39-5.66,1.98-5.95,2.44-34.23c0.15-9.52,6.57-14.17,4.27-22.04c-2.79-9.54,9.08-15.39,6.3-25.9c3.35-2.23,7.52,0.3,11.17-2.54
		c-2.95-14.93-2.74-30.58-3.66-46.02c-4.97,40.05,5.64,44.64-3.66,45.2c-11.01,0.67-12.44,3.05-15.54,2.54
		c-27.69-4.56-30.65-2.64-56.68-2.64c0.2-1.42-0.71-3.15,1.63-3.66c1.52-8.84,1.42-18.18,2.03-27.43c0.95-14.5-1.92-13.93-1.32-25.5
		c0.26-4.98,0.65-9.86-0.2-14.83c-0.11-0.65,3.25-42.51,6.2-56.28c0.72-3.35,2.44-6.4,4.88-9.14c-1.12,4.77,0.51,9.75-1.12,14.42
		c2.95-5.49,1.02-12.29,4.67-17.78c3.25,2.84,6.81,3.86,10.67,4.27c-1.63-1.42-3.86-1.73-5.59-3.45c2.35-2.35-0.32-5.39,5.28-3.35
		c0.1,1.52-0.81,2.64-0.41,3.96c0.61,1.02,1.63,1.12,2.74,1.73c0.3-0.7,0.83-6.31,3.65-3.75c2.16,2.16,21.51,4.11,29.16,6.19
		c-0.81,1.42-4.27,0.61-2.84,3.66c3.76,2.34,5.08,1.73,7.11-3.56c4.55,0.78,10.99-1.12,9.04,3.76c-2.95,0.41-5.79,0-8.74,0.1
		c3.05,1.02,6.09,0.61,9.24,0.41c2.01-3.61,1.69-3.32,2.23-1.42c1.93-2.74,4.67-0.91,7.52-1.83c-1.52,1.12-2.03,1.22-3.45,0.71
		c-0.81,0.71-1.83,1.42-1.93,2.74c1.12,1.02,1.22-0.81,2.03-0.61c0.71,0.3-0.2,1.32,1.02,1.83c2.68-1.71,5.69,5.48,5.69-6.91
		c-8.86,2.28-37.66-3.39-41.55-3.66c-3.91-0.27-7.53-4.94-12.19-5.49c0.51,0.27,2.65,1.42,4.5,2.4c0.22,0.45,1.49,1.48,1.59,1.56
		c-7.72-2.03-15.14-5.28-23.26-5.99c0.61-5.59-1.32-10.67-1.52-16.25c6.2,1.32,12.19,2.54,18.18,3.15
		c-5.38-2.23-11.28-2.23-16.66-4.06c-1.2-5.87,1.35-15.43-1.63-16.35c3.66-3.42,7.59-6.46,10.16-11.28
		c2.85-5.34,9.36-22.85,10.16-26.61c1.03-4.9,0.24-38.54,5.49-42.87c2.23-1.84,2.95-4.88,4.57-7.62c1.63,0.61,2.74,1.52,3.15,3.25
		c3.52,14.76,2.81,11.15-2.95,24.48c-5.93,13.73-9.52,11.21-8.44,16.44c1.75,0.39,8.8-11.81,10.38-14.91
		c6.23-12.24,4.9-15.61,4.06-23.57c13.91-1.11,3-1.78,19.91,5.38c4.15,1.76,11.93,0.44,11.89-4.06c-0.21-19.4-0.09-14.75-3.25-21.64
		c8.3,5.39,3.12,19.02,15.34,31.39c7.97,8.06,4.83,11.3,4.98,20.01c0.17,9.92-6.96,11.42-4.27,25.4c0.45,1.81-7.93,21.96-7.42,35.15
		c0.57,14.83-6.45,38.53-0.81,33.6c0.91-14.21,2.95-28.33,3.56-43.05c5.28,4.57,9.85,9.24,16.86,9.55
		c13.83-16.39,26.33-19.53,38.5-46.22c13.79-30.25,17.45-28.29,32.19-35.24C694,134.34,690.76,132.23,686.78,118.4z M544.77,19.46
		c-0.91-0.81,0.51-0.91,0.51-1.42C545.68,18.85,545.28,19.15,544.77,19.46z M584.28,546.77c-2.09-11.99,3.01-6.13,8.23-8.84
		c-0.71,3.76,0.38,6.45,3.86,8.13c1.31,0.63,2.23,2.23,3.35,3.35c-4.57,4.37-11.17,3.66-16.46,6.6c2.54,3.86,12.8,3.76,22.75,0
		c1.83,1.32,3.56,2.84,5.18,4.57c-1.32,0.71-2.14,0.41-3.35-0.61c-3.36-2.83-8.43-2.03-11.58,1.63c2.34,1.93,4.67-0.81,7.01,0.2
		c-0.3,1.32-2.34,0.71-2.74,2.03c1.02,0.91,1.02,0.91,8.63-0.81c-0.3,1.42-1.74,3.18,0.61,3.86c1.82,0.53,3.96-1.32,4.77-4.47
		c6.6,4.47,14.53,3.25,21.74,5.18c2.34,2.95,1.93,6.7,2.74,10.06c-7.11,5.49-22.65,8.53-34.54,6.7c-2.22-8.12-1.59-6.68-17.37-13.61
		c-2.94-1.29-7.7-7.27-18.59-13.92c-2.37-1.04-8.08-6.11,3.66-3.56C577.78,554.49,581.54,551.85,584.28,546.77z M581.24,546.36
		c-0.41,1.63-1.52,2.44-2.74,3.56C578.49,546.99,578.1,544.66,581.24,546.36z M565.69,545.75c3.56-0.91,6.91,0.91,10.36,0.51
		c0.91,1.42,0.2,2.64,0.3,3.86c-3.66,1.42-6.6-1.32-10.26-1.42C565.9,547.68,565.39,546.87,565.69,545.75z M563.46,542.81
		c-0.91,0.91-1.52,2.13-1.83,3.45c-2.23,0-2.86-1.52-2.95-3.05c-0.4-7.1-2.2-53.03,1.93-58.82
		C565.19,503.9,566.91,523.1,563.46,542.81z M563.46,395.31c3.72,0.21,4.94-1.75,9.04-1.52c1.4,10.71-7.42,14.35-6.2,26.21
		c1.09,10.55-4.71,11.99-4.67,15.03c0.05,4.78-1.13,9.45-1.02,14.22c0.09,3.56,0.41,7.21-1.32,10.56
		c-0.39,0.88-3.09,32.29-3.15,33.32c-3.19,55.42,4.53,51.24-3.35,52.11c-3.76,4.98-4.16,7.01-1.73,8.53
		c4.95-9.91,1.01-4.71,9.65-5.79c0.3,7.72,5.99,10.87,11.68,14.12c-1.93,2.13-4.16,0.2-5.79,1.32c-0.81-0.81,0.71-1.52-0.1-2.23
		c-4.16-1.32-18.69,1.22-20.52,3.76c2.45,2.9,14.65-1.42,6.2,2.34c-5.95,3.31,2.54,6.78,23.06-2.34c0.51,1.42-1.52,2.23-0.61,3.45
		c-3.76,1.93-8.63,0.61-11.58,4.88c2.74,2.13,5.18-0.27,7.52-0.51c2.65-0.27,5.28-0.71,7.42-2.84c13.71,6.56,2.98,1.31,1.02,7.21
		c3.86-0.81,7.62,0.51,10.67-2.13c8.6,5.83,12.4-0.52,8.63,15.95c-24.85,12.89-44.63,0.09-53.33,0.2
		c-7.62,0.1-16.15-1.93-21.64-5.28c0.2-7.52,6.4-13.41,5.49-21.94c4.28,4.12,12.04,7.4,15.03,2.34c2.16-3.64,4.77-6.81,8.43-8.94
		c-0.81-1.12-1.52,0.3-2.34,0.2c-9.11,4.86-6.57,10.85-12.7,8.63c-2.33-0.84-4.67-1.52-6.3-3.45c1.02-1.42,1.83,0.41,2.64-0.41
		c-0.2-1.32-1.73-1.32-2.34-2.44c0-1.52,0-3.15,0-5.28c4.18,1.06,21.09,5.3,19.1,1.32c-4.77-1.52-6.6-4.57-6.4-11.38
		c-2.23,1.95-0.67,6.31-1.42,9.14c-3.05,0.71-5.59-1.02-8.94-1.32c4.76-4.11-0.78-10.09,0.3-19.5c1.19-10.35-1.62-29.87-1.63-29.97
		c-3-35.58-11.77-27.19-8.03-52.11c2.86-19.03,5.67-15.84,10.06-44.39c0.72-4.67-1.42-9.04-2.64-13.82
		C542.94,391.04,547.67,394.41,563.46,395.31z M600.84,10.52c-0.2,0.81-0.61,1.32-1.63,0.71C599.42,10.42,599.93,10.21,600.84,10.52
		z M598.91,15.09c-1.32,1.73-1.32,1.73-3.45,1.42C596.37,15.6,597.49,15.29,598.91,15.09z M582.86,9.5
		c-0.61,0.91-1.12,1.22-1.93,1.12C581.24,9.71,581.74,9.4,582.86,9.5z M565.59,25.76c0.91,1.12,1.12,1.63,0.41,2.23
		C564.47,27.48,565.39,26.97,565.59,25.76z M560.31,6.86c0.47,0,0.26,1.45-1.02,0.81C559.5,7.17,559.7,6.66,560.31,6.86z
		 M559.29,10.72c0.28-0.57,0.81-0.29,0.81,0.1C560.11,11.81,559,11.01,559.29,10.72z M557.77,22.2c0.2,2.03,0.2,2.03-2.44,1.63
		C555.94,22.91,556.65,22.3,557.77,22.2z M557.26,43.02c-1.02-1.52-1.93-3.05-2.95-4.47C556.45,39.27,557.97,40.28,557.26,43.02z
		 M553.5,40.99c1.12,0.51,1.42,1.42,1.83,2.74C553.5,43.23,553.3,42.41,553.5,40.99z M550.46,19.25c-0.1,1.22-0.51,1.83-1.52,2.03
		C548.93,20.37,549.44,19.86,550.46,19.25z M548.83,33.27c0.51,0.81-0.41,1.02-0.71,1.02C548.32,33.98,548.63,33.68,548.83,33.27z
		 M548.22,45.46c-1.22-1.02-0.71-2.34-1.12-3.66c1.12,0.51,1.83,0.3,2.54-0.91C550.15,43.13,549.03,44.24,548.22,45.46z
		 M548.63,56.94c0.81,0.3,0.71,0.71,0.3,1.22C548.42,57.86,548.12,57.45,548.63,56.94z M537.66,90.67c-0.91,0.51-1.63,0.41-2.54,0.3
		C535.83,90.46,536.44,88.94,537.66,90.67z M564.47,123.38c-1.35,1.35,2.99,1.1-4.47,2.03c-1.12-2.84-3.56-4.57-6.3-5.99
		c0.2-2.54,1.93-4.27,2.34-6.5c5.99-0.81,8.53-6.7,2.54-13.51c-1.32-0.61-2.64-0.1-4.06,0c-2.34-2.34,0.49-3.46,1.12-5.08
		c1.9-4.91,5.62-3.16,9.85-6.4c-3.35-1.12-5.99,2.54-9.35,0.3c0.2,2.84-0.91,4.98-3.15,6.6c-1.63,0-2.54-3.56-5.18-0.81
		c3.35,0.2,3.64,2.54,4.27,4.88c4.09,15.19,2.22,14.26-3.05,24.08c-0.99,1.84-1.32,4.16-3.56,5.28c-0.71,0.41-0.94,2.03-1.22,3.15
		c-6.98,27.74,1.35,27.62-8.74,55.06c-5.72,15.56-12.63,19.34-16.66,23.36c-1.12,1.12-2.64,1.11-3.66-0.3
		c-2.42-3.36-5.9-5.06-9.45-6.81c-3.26-1.61-2.84-5.28-4.57-7.62c0.71-2.34,3.56-2.44,4.37-4.77c-2.64-0.71-3.25,2.74-6.7,1.63
		c-13.15-8.56,2.51-28.71-3.95-46.59c-1.01-0.37-1.15-1.03-0.11-2.07c-4.47-5.59-2.54-18.28,2.13-22.75
		c25.19,4.01,21.71-1.89,25.4-1.52c9.16,5.96-5.86,26.86-6.5,35.25c-4.16,2.64-7.63,6.19-11.38,9.14
		c-4.89,3.85-7.42,9.14-8.02,15.34c5.72-9.63,7.72-14.42,15.54-18.49c8.4-4.36,5.41-8.14,7.21-10.87c4.9-7.4,6.83-15.84,8.33-24.48
		c0.62-3.55-1.93-5.18-4.57-6.91c4.39-16.37,6.18-19.29,1.42-24.18c2.95-1.22,5.79,0,8.74-1.73c0.51,5.28-1.02,10.06,0.61,14.83
		c1.83-4.37,1.02-9.14,2.54-13.92c0.71-0.61,1.83-0.51,2.95-0.41c0.91,1.12,0.81,2.44,0.81,3.56c-0.3,1.02-1.32,0.3-2.03,1.12
		c3.96,1.02,1.73,4.57,3.35,7.52c1.73-4.27-0.1-8.13,0.3-11.68c4.47-3.97,5.01,6.65,7.31,9.55c0-5.86-2.99-14.5-7.82-11.28
		c-1.02-0.91-1.83-1.73-2.74-2.64c1.22-0.71,2.43-1.64,3.76-2.13c12.03-4.5,7.95-25.68,9.75-31.08c1.93-0.61,2.23,1.32,3.35,1.52
		c1.02,0.41,1.42-0.81,2.23-0.71c3.23,6.45-2.05,11.27,12.39,13.82c-13.09-9.1-8.03-3.23-10.36-15.24
		c-0.31-1.62-1.12-2.74-2.74-2.95c-1.02,0.41-0.51,1.52-1.32,2.13c-1.12-1.63-3.96-1.93-3.35-4.88c-6.76-4.06,0.74-3.69-1.12-10.06
		c0.81,1.86-0.53,4.51,2.54,5.38c-0.51,1.42-1.12,2.54-0.3,4.06c1.32,1.02,2.95,1.73,4.77,0.91c0.51-1.63-1.12-2.44-1.52-3.96
		c1.52,0.3,1.42,2.34,3.05,1.83c1.68-0.84-2.07-4.67,6.81-13.41c8.05-7.93,2.66-4.61,2.34-7.01c1.32-0.41,2.54,0.2,3.96,0.2
		c0.91-3.35,5.18-3.35,6.91-6.7c8.13,0.34,6.94-3.08,11.07-1.93c2.73,0.76,5.49,1.02,8.43,0.71c5.35,16.46,1.84,11.77,0.61,13.21
		c-0.41,1.32,1.93,1.42,1.22,2.84c-1.63,0.51-1.63,0.51-2.54-1.22c0.2,5.49,2.34,10.46,4.16,15.03c-0.51,1.73-2.26,1.52-2.64,2.84
		c-0.55,1.92,1.02,3.86,0.1,5.79c-3.35,0.81-6.81,0.71-9.96,2.34c3.15,1.73,6.4-0.41,9.55,0.3c1.12,1.42,0.2,2.34-0.81,3.25
		c-1.93-0.81-3.96-1.12-6.3-0.81c1.02,3.15,3.56,1.52,5.49,2.44c1.19,14.9-1.75,10.26-11.78,12.19c-2.36,2.36-2.49,5.24-2.84,14.53
		c-1.83-1.22-1.52-2.95-2.34-4.06c-2.84-2.23-6.81,0.91-9.45-2.34c-0.41,2.95-3.66,0.51-4.67,2.95c4.16,1.63,8.33-0.2,12.7,0.3
		c6.35,15.56,6.46,16.49,5.28,19.5c-1.91,4.89-4.47,9.45-5.18,14.83C574.43,123.68,569.35,125.31,564.47,123.38z M555.43,102.25
		c4.57-0.2,6.2,2.95,4.77,8.43c-0.91,0.61-1.93,0.41-3.15,0.3C555.84,108.34,556.75,105.19,555.43,102.25z M589.46,116.98
		c0.45,13.39-0.14,13.42-4.16,14.42c-4.78,1.2-10.79-2.88-14.02-4.98c3.76-0.61,6.81-1.02,9.96-1.52
		c0.91-5.59,3.35-10.56,5.59-16.05C588.55,111.49,589.37,114.13,589.46,116.98z"/>
	<path d="M665.24,107.02c0.3,0.51-0.51,0.91,0.3,1.22c1.32,0,2.34-1.32,3.96-1.12c3.76,5.28,7.72,10.56,11.28,16.25
		c-2.74,4.67-5.46,9.36-8.23,14.02c-0.67,1.12-1.27,0.85-1.34,1.14c1.39-0.35-2.28,7.11,11.3-14.45c0.61,0.51,1.12,0.81,1.83,1.32
		c0-0.51,0.2-0.91,0.1-1.12c-2.96-5.18-3.94-2.87-4.88-5.99c0.24-0.14-0.85,0.22-2.03-3.35c5-1.13,12.6,0.24,15.14-1.59
		c1.71-1.24-10.56-1.05-16.34,0.17c-4.74-6-5.67-8.05-8.13-7.92c-20.07,1.03-17.75,0.24-15.75,3.25
		C672.71,108.85,647.07,108.67,665.24,107.02z"/>
	<path d="M701.92,122.36c-9.15-8.99-7.04-9.92-9.03-9.12c2.03,4.26,5.18,7.51,8.93,10.75c-1.32,5.79-4.47,10.97-5.99,16.96
		c-0.15,0.01-18.4,1.76-18.28,1.65c-0.23,0.09,0.65,1.38,1.62,1.3c16.55-1.43,17.22-0.62,17.98-2.74
		C702.95,124.9,704.11,124.51,701.92,122.36z"/>
	<path d="M677.33,142.57v0.1C677.39,142.65,677.44,142.65,677.33,142.57z"/>
	<path d="M666.16,130.08c1.93-2.44,3.25-5.18,4.16-8.23C668.29,124.19,667.28,127.13,666.16,130.08z"/>
	<path d="M663.82,110.98c1.22,2.64,2.64,5.08,4.98,6.91C667.68,115.25,665.95,113.01,663.82,110.98z"/>
	<path d="M676.62,121.45c0-0.28,0.53-0.2-3.76-0.2C672.86,121.52,672.34,121.45,676.62,121.45z"/>
	<path d="M261.35,325.73c-0.41,0.2-0.61,0.2-0.71,0.41c-6.47,32.33-0.68,30.96-1.42,36.16c-1.63,7.72-0.25,15.54-0.3,23.26
		c-0.03,4.37,1.4,3.11,1.42,1.83c0.15-8.94-1.23-17.77-0.2-26.72c0.22-1.93-1.41-3.45-1.42-5.59
		C258.59,335.36,262.76,328.74,261.35,325.73z"/>
	<path d="M320.58,302.67c-6.5-12.49-9.55-25.7-12.19-39.01C307.17,274.33,315.09,299.42,320.58,302.67z"/>
	<path d="M263.38,283.57c-0.41-3.86-0.51-7.42-2.74-10.06c2.84-6.4,7.31-11.78,8.13-18.69c-2.5-0.62,0.69-4.05-10.06,19.61
		C261.56,276.87,259.83,281.34,263.38,283.57z"/>
	<path d="M323.93,415.32c2.2-0.21,11.15,3.88,12.39-14.73c0.1-0.41-0.2-0.81-1.12-1.02c-2.84,4.27-1.73,10.56-6.7,14.02
		c-2.54,0.71-5.08-0.3-8.13-0.3C321.49,415.22,322.61,415.45,323.93,415.32z"/>
	<path d="M336.52,351.53c-2.03-4.47-5.99-7.62-8.53-11.89c3.05-4.16,4.77-9.04,5.59-14.32c-2.84,5.99-5.38,12.19-10.77,16.66
		c1.93,1.22,2.64-0.81,4.27-0.61c2.09,2.23,9.14,11.58,10.56,11.58C336.18,351.49,336.41,351.64,336.52,351.53z"/>
	<path d="M333.68,292.61c-0.71-9.85-1.42-19.81-3.56-30.27C329.35,265.29,333.68,301.21,333.68,292.61z"/>
	<path d="M334.7,267.93c-0.52,2.91,2.11,17.09,3.66,22.55c0.61,2.13,0.81,2.23,2.74,3.15C337.64,285.4,337.95,276.26,334.7,267.93z"
		/>
	<path d="M315.6,476.58c-1.12,4.98-5.28,7.42-8.84,10.36c1.63,1.63,2.84-0.2,4.06,0.2c0,0.61-0.51,1.12,1.02,1.52
		C317.38,474.65,320.99,474.55,315.6,476.58z"/>
	<path d="M321.18,424.67c4.1,4.04,5.15,10.26,6.7,10.26c-0.51-5.89-4.27-10.56-6.4-16.46C319.25,421.01,320.16,423.66,321.18,424.67
		z"/>
	<path d="M267.85,283.57c1.73-8.84,3.76-17.57,4.16-26.51C270.19,265.79,267.55,274.53,267.85,283.57z"/>
	<path d="M314.18,277.17c2.74-5.89,2.23-10.67-1.73-13.51C311.84,268.64,314.48,272.8,314.18,277.17z"/>
	<path d="M259.22,285.6c6.91,2.13,14.12,3.45,21.03,5.38C273.54,287.43,266.43,286.01,259.22,285.6z"/>
	<path d="M287.46,306.22c-4.47-10.59-3.29-15.64-5.59-15.64c-0.17,3.58,2.02,16.91,5.59,17.27
		C287.46,307.34,287.67,306.73,287.46,306.22z"/>
	<path d="M299.95,261.63c0.3,5.38-2.74,9.75-3.25,15.64C299.55,272.9,305.1,262.73,299.95,261.63z"/>
	<path d="M332.87,425.99c-0.81,0.2,0.1,1.32-0.71,2.23c-1.22,0.3-2.54,0.71-4.06,1.22C335.47,434.36,336.89,423.98,332.87,425.99z"
		/>
	<path d="M322.4,264.37c0.1,4.06,2.23,7.21,4.27,10.46C325.76,271.18,324.84,267.52,322.4,264.37z"/>
	<path d="M332.66,302.26c-1.33,11-1.5,10.16-0.41,10.16c1.63-3.15,1.02-6.7,1.12-10.16C333.07,302.26,332.87,302.26,332.66,302.26z"
		/>
	<path d="M334.9,327.56c0.91,3.56,1.83,7.21,2.74,10.77C337.03,334.67,338.56,330.4,334.9,327.56z"/>
	<path d="M274.86,312.83c-2.54,2.84-4.88,5.79-6.4,9.45C276.58,312.04,275.57,313.54,274.86,312.83z"/>
	<path d="M283.5,268.94c0.61-2.64,2.13-5.28,0.41-8.03C283.19,263.66,282.99,266.3,283.5,268.94z"/>
	<path d="M295.28,363.21c-0.2-3.15-1.63-5.69-3.45-8.13C292.94,357.73,294.16,360.47,295.28,363.21z"/>
	<path d="M316.31,536.92c2.23-1.22,2.23-1.22,0.61-4.77C316.92,533.77,315.9,535.19,316.31,536.92z"/>
	<path d="M317.73,469.97c-1.93,2.13-1.93,2.13-1.32,4.77C317.63,473.33,318.44,472.01,317.73,469.97z"/>
	<path d="M253.95,289.06c2.23,0.3,3.05-1.22,4.16-3.15C256.15,286.25,254.63,287.23,253.95,289.06z"/>
	<path d="M320.68,456.67c1.32-0.71,2.03-1.52,1.52-3.35C320.88,454.23,320.37,455.14,320.68,456.67z"/>
	<path d="M346.28,306.53c0.41,1.22,0.81,2.44,2.54,3.25C348.21,308.05,347.6,307.04,346.28,306.53z"/>
	<path d="M279.33,310.69c4.08-0.37,3.18-0.16,3.45-0.71C278.81,310.34,279.33,310.14,279.33,310.69z"/>
	<path d="M271.1,250.66c0.61-0.91,1.42-1.52,1.02-2.95C270.8,248.53,270.6,249.34,271.1,250.66z"/>
	<path d="M340.28,343.2c0.61,1.32,1.12,2.13,2.64,2.74C342.31,344.62,341.81,343.81,340.28,343.2z"/>
	<path d="M304.53,256.25c-1.73,0.1-1.93,0.91-1.73,2.54C304.02,258.18,304.32,257.36,304.53,256.25z"/>
	<path d="M318.04,466.93c1.93-0.71,1.83-1.83,1.42-3.56C318.65,464.59,318.04,465.4,318.04,466.93z"/>
	<path d="M319.76,459.31c-0.3,0.61-0.91,1.02,0.1,2.03C320.37,460.53,320.68,460.02,319.76,459.31z"/>
	<path d="M288.48,254.01c-0.3,0.41-0.2,0.81,0.1,1.22C289.08,254.72,289.59,254.32,288.48,254.01z"/>
	<path d="M261.15,288.04c0.71,0.2,1.22,0.3,1.73-0.1C262.27,287.53,261.76,287.43,261.15,288.04z"/>
	<path d="M266.43,289.36c0.51,0.41,0.81,1.12,1.63,0.61C267.75,289.16,267.24,288.95,266.43,289.36z"/>
	<path d="M305.03,378.86c-0.13-1.33-1.3-2.3-1.35-2.19c-7.3-13.21-6.44-11.43-7.28-11.01C306.66,385.67,307.29,379.98,305.03,378.86
		z"/>
	<path d="M339.47,356.1c0.1,0.3,0.2,0.61,0.61,0.41C339.98,356.3,339.88,356,339.47,356.1z"/>
	<path d="M338.05,165.94c-5.49-4.67-8.33-10.46-9.04-17.47c-0.71,3.15-0.51,6.2,0.51,9.04
		C330.93,161.47,331.65,166.34,338.05,165.94z"/>
	<path d="M331.34,178.13c0.03-1.12,0.51-2.44-1.22-3.35c-1.63,8.84,2.54,17.68-1.32,26.21
		C333.68,193.79,330.97,193.88,331.34,178.13z"/>
	<path d="M329.72,212.06c0-2.48-2.62,5.34-0.2,10.77C328.6,219.17,330.63,215.71,329.72,212.06z"/>
	<path d="M262.88,185.95c3.96,1.83,7.62,4.47,12.19,5.08C271,189.3,267.45,186.56,262.88,185.95z"/>
	<path d="M286.65,167.46c1.93,2.44,4.37,2.13,6.4,2.64C291.52,168.68,289.8,167.26,286.65,167.46z"/>
	<path d="M329.41,227.4c-0.2,1.63-0.41,3.25-0.61,4.98C329.92,230.85,330.02,229.22,329.41,227.4z"/>
	<path d="M329.21,211.75c0.2-1.83,0.71-3.76-0.2-6.3C328.5,207.99,328.5,209.92,329.21,211.75z"/>
	<path d="M308.18,228.41c-1.02-0.51-1.93-0.81-3.05-0.3C306.15,228.61,306.96,229.33,308.18,228.41z"/>
	<path d="M304.32,250.86c-0.91-2.03-2.03-2.95-3.45-3.45C301.27,248.93,302.19,250.05,304.32,250.86z"/>
	<path d="M282.68,186.56c-0.51-0.81-1.12-1.02-2.34-0.3C281.26,187.07,281.87,187.58,282.68,186.56z"/>
	<path d="M269.99,183.21c-0.61-1.02-0.91-1.83-2.34-1.42C268.06,182.7,268.67,183.21,269.99,183.21z"/>
	<path d="M269.48,222.42c0.3,0.71,0.91,0.91,1.63,0.91C270.9,222.42,270.29,222.32,269.48,222.42z"/>
	<path d="M275.37,185.95c0.3-0.81,0.2-1.32-0.71-1.22C274.46,185.44,274.76,185.75,275.37,185.95z"/>
	<path d="M329.21,253.6c0.91-0.1,0.81-0.61,0.51-1.22C329.21,252.69,328.6,252.89,329.21,253.6z"/>
	<path d="M332.46,241.11c0.41,0.41,0.81,0.41,1.12,0.1C333.27,240.7,332.87,240.8,332.46,241.11z"/>
	<path d="M267.04,215.1c7.92,4.34,23.6,6.99,24.28,6.6c-1.13-0.93-13.06-3.01-22.55-6.7C268.26,214.8,267.55,214.19,267.04,215.1z"
		/>
	<path d="M270.8,196.51c0.3,0.81,0.71,0.91,1.42,0.41C271.82,196.21,271.41,196.01,270.8,196.51z"/>
	<path d="M279.43,192.45c-0.2-0.2-0.51-0.2-0.81-0.1C278.93,192.65,279.13,192.55,279.43,192.45z"/>
	<path d="M278.42,186.26c-0.27-1.37-1.58-0.69-1.12,0C277.61,186.56,278.01,186.66,278.42,186.26z"/>
	<path d="M241.75,240.7c0.37-0.43,1.51-2.05,1.26-2.42c0.37-0.19,4.94-5.55,4.94-14.45C244.1,240.96,240.57,237.69,241.75,240.7z"/>
	<path d="M250.79,109.15c-0.3-0.2-0.61-0.41-0.91-0.61C246.32,111.82,240.13,126.08,250.79,109.15z"/>
	<path d="M244.29,192.15c1.42-3.05,2.34-6.09,1.32-9.35C243.98,185.75,244.49,189,244.29,192.15z"/>
	<path d="M245.4,208.7c0.3,3.05-1.63,6.09,0.3,9.04C245.61,214.8,247.44,211.65,245.4,208.7z"/>
	<path d="M244.19,192.05c-2.13,1.83-2.95,6.81-1.12,9.55C243.47,198.24,243.17,195.09,244.19,192.05z"/>
	<path d="M249.26,194.58c-0.3,2.95,0.71,4.57,3.15,5.18C251.09,196.11,251.09,196.11,249.26,194.58z"/>
	<path d="M255.77,167.16c0.2,3.56-1.52,6.81-1.73,10.26C255.97,174.27,256.17,170.81,255.77,167.16z"/>
	<path d="M237.99,245.78c-2.34,2.54-2.74,5.79-3.45,8.94C235.64,254.72,234.65,256.9,237.99,245.78z"/>
	<path d="M253.94,177.42c-1.73,2.54-2.34,5.49-3.15,8.43C252.21,183.21,253.53,180.46,253.94,177.42z"/>
	<path d="M245.2,119.92c-1.83,1.73-1.83,2.95-0.51,5.18C244.9,122.97,245,121.75,245.2,119.92z"/>
	<path d="M238.29,167.46c-1.42,1.32-1.42,2.44-0.71,4.47C238.4,170.21,239.11,169.09,238.29,167.46z"/>
	<path d="M265.01,102.25c-1.69,0.08-2.46,0.99-3.21,2.49C261.5,105.33,263.97,105.19,265.01,102.25z"/>
	<path d="M237.99,245.78c1.32-0.61,2.13-1.63,2.44-3.05C239.51,243.65,238.29,244.36,237.99,245.78z"/>
	<path d="M246.22,221.71c0-1.32,0.41-2.64-0.51-3.86C245.61,219.07,245.61,220.39,246.22,221.71z"/>
	<path d="M245.71,207.38c0.51-1.02,0.61-1.73-0.2-2.54C244.69,205.66,244.9,206.27,245.71,207.38z"/>
	<path d="M236.97,173.46c-1.22,0.71-1.42,1.42-0.61,2.34C237.58,175.39,237.58,174.57,236.97,173.46z"/>
	<path d="M283.09,162.89c0.35-0.71-0.05-1.28-1.22-0.3C282.48,162.99,282.79,163.4,283.09,162.89z"/>
	<path d="M243.88,134.04c-0.71,0.71-0.41,1.32,0,1.93C244.39,135.26,244.59,134.65,243.88,134.04z"/>
	<path d="M244.08,129.17c0.2-0.61,0.41-1.02-0.3-1.63C243.47,128.15,242.97,128.66,244.08,129.17z"/>
	<path d="M299.45,576.23c-2.55-1.19-4.47-0.2-6.09,2.13c-2.34-3.35-4.76-4.15-7.11-2.44c-3.92,2.86-0.48,10.97,7.01,4.98
		c1.73,3.66,4.77,3.15,7.92,2.44C301.38,580.7,302.78,577.79,299.45,576.23z M288.78,581.41c-3.23-0.46-2.93-5.02,0.3-4.77
		C292.15,576.87,291.79,581.2,288.78,581.41z M297.72,582.12c-3.59-0.34-3.02-4.29-0.51-4.57c1.63-0.18,2.64,0.61,2.64,2.64
		C298.94,580.5,296.6,579.38,297.72,582.12z"/>
	<path d="M303.31,398.05c-3.6,1.69-2.58,13.28-6.91,14.63c-3.5,1.09-9.83,5.23-13.41,2.34c-0.3,2.23,0.91,2.74,2.34,3.35
		c2.23,0.81,4.16-0.43,5.99-1.12C296.95,415.15,300.57,416.19,303.31,398.05z"/>
	<path d="M277.81,470.99c-1.63,7.01-2.23,14.22-3.66,21.33C278.72,485.82,277.71,478.3,277.81,470.99z"/>
	<path d="M278.01,574.91c-1.55,11.9,1.74,5.07,2.13,4.98c1.42,0.3,1.32,2.64,3.45,2.23c-0.3-1.32-0.84-2.56,0.3-3.96
		C286.3,575.22,280.07,573.44,278.01,574.91z M279.54,576.43c1.12-0.61,2.03-0.41,2.95,0.51
		C280.65,578.36,280.65,578.36,279.54,576.43z"/>
	<path d="M278.22,456.16c-0.71,13.1-0.87,11.38,0.2,11.38C278.59,465.99,281.33,456.16,278.22,456.16z"/>
	<path d="M322.71,573.18c-3.96-0.81-6.7,0.2-8.02,3.35c2.34-1.63,4.67-1.42,6.91-1.63C321.69,574.3,323.11,574.3,322.71,573.18z"/>
	<path d="M278.93,451.69c0.1-1.93,1.83-3.56,0.41-6.5C278.62,447.83,277,449.56,278.93,451.69z"/>
	<path d="M279.84,439.09c1.12-1.83,1.22-3.56,1.22-5.49C278.93,435.54,278.93,435.74,279.84,439.09z"/>
	<path d="M283.29,523.71c-0.81,1.63-0.71,2.84,0.3,4.16C283.9,526.56,284.61,525.24,283.29,523.71z"/>
	<path d="M283.5,535.49c1.32-1.12,1.42-2.03,0.81-3.35C283.29,533.16,283.19,534.07,283.5,535.49z"/>
	<path d="M295.48,427.82c0.81,1.42,1.63,1.93,3.05,1.22C297.82,428.22,297.11,427.61,295.48,427.82z"/>
	<path d="M335.3,32.46c-4.77-4.27-11.58-3.66-15.44,1.42C324.54,29.51,330.02,33.78,335.3,32.46z"/>
	<path d="M332.05,34.59c-2.95,1.42-6.81-0.1-9.14,3.25c2.13,1.42,4.77,0.51,6.6,2.54c-0.41-2.64,2.03-1.63,2.74-2.95
		C331.55,36.73,332.16,35.81,332.05,34.59z"/>
	<path d="M312.96,86.5c-0.41,4.98,2.74,9.45,2.84,14.42C317.53,95.54,314.28,91.17,312.96,86.5z"/>
	<path d="M297.82,88.53c-0.91,3.66,1.12,6.4,2.44,9.65C301.78,94.02,299.34,91.48,297.82,88.53z"/>
	<path d="M333.68,49.42c-0.51,0.81-0.41,1.73,0,2.44c2.44,0.41,4.98,1.42,6.7-1.63c-1.73-1.52-3.05-0.41-4.16,0.61
		C334.9,50.54,335,49.02,333.68,49.42z"/>
	<path d="M291.83,79.39c1.02,1.63,1.83,2.84,2.64,4.06C294.27,80.61,294.27,80.61,291.83,79.39z"/>
	<path d="M307.78,75.53c0-1.83-0.71-2.64-2.34-3.76C305.95,73.6,306.15,74.72,307.78,75.53z"/>
	<path d="M309.91,79.39c0.61-0.91,0-1.22-0.61-1.52C308.69,78.78,308.99,79.19,309.91,79.39z"/>
	<path d="M311.64,82.95c-0.3-1.02-0.3-1.02-1.12-1.22C310.62,82.34,310.82,82.95,311.64,82.95z"/>
	<path d="M359.79,276.97c0.3,0.3,1.02,0.1,1.63,0.1C351.19,267.98,341.79,262.67,359.79,276.97z"/>
	<path d="M363.24,295.86c-3.56-0.3-7.01-0.81-10.56-1.73C355.93,296.47,359.58,296.47,363.24,295.86z"/>
	<path d="M365.88,283.77c-0.41-3.45-1.63-5.08-4.57-6.6C362.63,279.3,363.75,281.64,365.88,283.77z"/>
	<path d="M366.08,297.28c0.91,3.05,2.03,6.09,4.27,8.63C369.33,302.87,368.52,299.62,366.08,297.28z"/>
	<path d="M367.1,320.55c1.12-1.12,2.03-1.73,1.93-2.95C368.01,318.11,367.51,318.92,367.1,320.55z"/>
	<path d="M369.14,317.45c0.92-0.33,1.31-1.01,1.31-1.98C369.59,315.85,369.11,316.6,369.14,317.45z"/>
	<path d="M369.13,317.6c-0.01-0.05,0.01-0.1,0.01-0.15C368.99,317.49,369.03,317.5,369.13,317.6z"/>
	<path d="M370.55,315.57c0.51-0.3,1.02-0.71,0.91-1.73C370.86,314.35,370.45,314.76,370.55,315.57z"/>
	<path d="M346.48,263.56c-0.51,0.71-0.41,1.22,0.71,1.02C347.19,264.07,346.99,263.76,346.48,263.56z"/>
	<path d="M338.35,549.61c-0.3-1.32-0.91-1.93-1.73-1.83C309.77,553.04,329.34,556.68,338.35,549.61z"/>
	<path d="M224.48,303.68c-0.91-4.16-0.2-8.63-2.44-12.6C223.16,295.25,222.75,299.62,224.48,303.68z"/>
	<path d="M225.39,309.07c3.05-0.41,5.99,0.51,8.94-0.1C229.66,307.44,227.53,307.44,225.39,309.07z"/>
	<path d="M216.3,318.16c-0.02,0.02-0.03,0.03-0.05,0.05C219.96,317.35,226.35,307.8,216.3,318.16z"/>
	<path d="M211.07,287.13c2.54,1.42,4.67,1.22,6.7,0.91C215.74,287.94,213.81,286.82,211.07,287.13z"/>
	<path d="M399.3,313.64c9.13-13.14,7.78-10.34,7.21-11.48c-3.56,3.05-5.38,7.21-7.82,10.97C398.9,313.33,399.1,313.44,399.3,313.64z
		"/>
	<path d="M404.79,301.14c-1.93-3.45-2.54-7.11-4.77-10.67C400.62,295.76,402.15,299.42,404.79,301.14z"/>
	<path d="M553.4,334.06c0-6.53-2.92-11.42,3.35-22.55c2.66-4.71-1.22-6.41-8.74-20.52c-0.98-1.85-1.52-3.96-3.25-5.49
		c2.54,8.43,7.92,15.44,12.09,23.26C546.13,325.35,554.75,339.45,553.4,334.06z"/>
	<path d="M579.91,302.67c-6.6-12.39-9.55-25.7-12.29-39.01C567.22,277.37,574.33,299.62,579.91,302.67z"/>
	<path d="M594.24,399.58c-2.64,4.47-1.73,10.67-5.89,13.61c-3.15,1.42-5.69,0-8.94,0.2c1.93,1.63,1.93,1.65,5.79,2.03
		c8.28,0.82,8.61-5.48,10.46-13.61C595.87,400.9,595.66,399.98,594.24,399.58z"/>
	<path d="M527.59,254.66c-0.97-0.76,0.22-3.29-9.44,19.87c2.54,2.44,1.02,6.7,4.57,9.24c-0.51-3.86-0.51-7.52-2.74-10.46
		C521.32,270.73,529.71,256.33,527.59,254.66z"/>
	<path d="M587.03,339.75c4.49-5.58,9.63-23.4,2.74-8.13c-0.88,1.95-2.11,3.87-3.25,5.69c-1.1,1.74-3.76,2.54-3.86,5.18
		c1.52,0.2,2.13-1.32,3.66-1.12C597.58,354.45,600.39,358.9,587.03,339.75z"/>
	<path d="M600.64,294.14c-3.86-8.53-3.45-17.78-6.6-26.21C593.62,268.99,595.56,292.31,600.64,294.14z"/>
	<path d="M516.83,350.62c-0.08,2.73-0.8,5.86,1.49,8.2c-0.23,0.1,0.4,2.31,0.03,3.89c-1.76,7.59,0,15.24-0.1,22.86
		c-0.01,1.02-0.3,2.23,0.71,3.15c2.16-2.34-0.75-15.78,0.41-27.12c0.4-3.91-1.41-2.35-0.81-2.95c-1.91-7.87,1.02-25.09,2.13-29.97
		C522.14,322.33,517.58,326.15,516.83,350.62z"/>
	<path d="M588.45,149.18c-0.91,4.47,0.13,8.42,1.83,12.49c1.35,3.24,3.56,4.27,7.21,4.37C592.1,161.27,588.96,155.88,588.45,149.18z
		"/>
	<path d="M584.49,428.94c0.51,3.76,0.81,4.47,2.74,6.09c-0.51-5.99-4.27-10.67-6.4-16.25C578.39,422.13,579.41,424.77,584.49,428.94
		z"/>
	<path d="M527.3,283.57c1.73-8.94,3.35-17.68,4.27-26.51C529.43,261.22,526.48,279.3,527.3,283.57z"/>
	<path d="M565.9,486.54c-0.24,0.1-0.27,0.05,0.08,0.37c1.67,1.48,2.72,0.05,3.78,0.34c0.2,0.41-0.2,1.32,1.42,1.12
		c1.52-3.96,3.66-7.92,5.38-12.19C573.06,479.68,571,484.42,565.9,486.54z"/>
	<path d="M590.89,190.83c-1.37-7.23,0.96-13.98-1.42-16.35c-2.03,9.04,2.54,17.57-1.02,25.9
		C590.17,197.43,591.5,194.08,590.89,190.83z"/>
	<path d="M519.78,302.77c-0.1,7.21-1.63,14.42,1.32,21.54C519.98,317.09,521,309.88,519.78,302.77z"/>
	<path d="M588.85,263.15c1.73,10.16,1.93,20.52,3.76,30.68C592.1,283.47,591.8,273.11,588.85,263.15z"/>
	<path d="M571.58,263.66c-0.3,5.08,1.93,9.14,2.03,13.51C576.05,270.47,575.55,266.3,571.58,263.66z"/>
	<path d="M560,261.83c-0.71,4.77-3.05,9.14-3.35,13.92C558.89,271.38,562.34,267.32,560,261.83z"/>
	<path d="M550.25,221.71c-7.82-2.84-16.15-4.06-23.97-7.01C533.69,218.96,542.02,220.18,550.25,221.71z"/>
	<path d="M588.24,206.06c1.12,5.59-1.52,11.28,0.51,16.86C588.96,217.24,589.87,211.65,588.24,206.06z"/>
	<path d="M553.41,359.56c0.06,1.67,3.96,11.85,11.57,20.2C550.94,356.66,555.28,361.29,553.41,359.56z"/>
	<path d="M591.5,428.12c-1.22,0.51-2.54,0.81-4.06,1.22c6.17,3.74,8.89-2.79,5.59-3.76C591.39,425.99,592.1,427.21,591.5,428.12z"/>
	<path d="M581.74,264.27c0,4.06,2.23,7.21,4.37,10.46C584.89,271.18,584.18,267.42,581.74,264.27z"/>
	<path d="M532.58,324c-0.3,5.08-0.71,10.06-1.02,15.14C533.39,334.16,532.88,328.98,532.58,324z"/>
	<path d="M594.14,327.35c0.91,3.56,1.83,6.91,2.95,10.97C597.18,331.21,596.57,328.88,594.14,327.35z"/>
	<path d="M542.53,269.45c1.83-3.76,2.03-6.7,0.41-8.84C542.74,263.66,541.92,266.4,542.53,269.45z"/>
	<path d="M592,302.06c-0.51,3.45-0.91,6.91-1.32,10.26C593.43,309.17,592.21,305.61,592,302.06z"/>
	<path d="M521,287.23c-1.09,0-1.14-0.71-0.1,7.92C522.11,292.41,521.4,289.87,521,287.23z"/>
	<path d="M546.7,167.67c1.42,2.03,3.66,2.23,5.89,2.34C550.96,168.58,549.14,167.46,546.7,167.67z"/>
	<path d="M563.05,250.46c-0.91-2.13-2.54-3.56-4.37-4.57C559.8,247.71,560.92,249.54,563.05,250.46z"/>
	<path d="M576.66,470.18c-1.02,1.32-2.03,2.64-1.22,4.77C576.87,473.43,577.78,472.11,576.66,470.18z"/>
	<path d="M576.66,532.14c-0.81,1.52-1.42,2.95-0.81,5.18C578.29,535.6,576.87,533.77,576.66,532.14z"/>
	<path d="M553.4,359.35c-0.1-1.93-1.52-3.45-2.44-5.08C551.67,356,551.78,358.03,553.4,359.35z"/>
	<path d="M588.45,227.5c0,1.83-0.2,3.56-0.41,5.38C588.96,231.15,589.06,229.43,588.45,227.5z"/>
	<path d="M577.58,466.93c1.42-0.91,1.83-1.83,1.02-3.25C577.88,464.59,577.07,465.4,577.58,466.93z"/>
	<path d="M529.83,364.84c-0.2-1.93-0.2-3.96-0.1-6.09C529.53,360.77,528.82,362.91,529.83,364.84z"/>
	<path d="M580.02,456.57c1.32-0.61,1.83-1.42,1.32-2.95C580.32,454.23,579.41,455.04,580.02,456.57z"/>
	<path d="M533.39,315.87c0,4.18-0.07,3.76,0.2,3.76C533.59,314.54,533.73,314.86,533.39,315.87z"/>
	<path d="M531.56,339.14c0-0.37-0.31,0.06,0,4.98C531.56,342.42,531.56,340.82,531.56,339.14z"/>
	<path d="M553.4,359.35l-0.1,0.1C553.46,359.57,553.4,359.67,553.4,359.35z"/>
	<path d="M564.27,228.01c0.32,0.65,1.72,1.04,3.15,0.71C566.4,227.7,565.39,227.7,564.27,228.01z"/>
	<path d="M563.81,255.92c0.08-0.24,0.09-0.2-0.28,0C560.41,257.63,562.44,261.26,563.81,255.92z"/>
	<path d="M606.02,306.63c0.3,1.73,0.3,1.73,2.13,2.84C607.55,308.15,607.14,307.24,606.02,306.63z"/>
	<path d="M601.96,345.84c-0.2-1.42-0.91-2.03-2.03-2.34C600.23,344.52,600.64,345.43,601.96,345.84z"/>
	<path d="M530.34,352.65c-0.2-0.1-0.2-0.1-0.1-0.3c-0.29,0.29-0.49,1.76,0,2.34C530.24,353.97,530.34,353.26,530.34,352.65z"/>
	<path d="M530.55,250.15c0.51-0.71,1.52-1.22,0.81-2.34C530.04,248.32,530.24,249.24,530.55,250.15z"/>
	<path d="M547.92,253.81c-0.61,0.61-0.3,0.91,0.2,1.32C548.42,254.62,548.63,254.21,547.92,253.81z"/>
	<path d="M579.31,459.41c-1.02,0.3-1.02,0.91-0.51,1.73C579.91,460.83,580.02,460.32,579.31,459.41z"/>
	<path d="M541.82,186.76c-0.2-0.81-0.61-1.22-1.83-0.71C540.5,187.07,541.01,187.37,541.82,186.76z"/>
	<path d="M529.63,364.94c0.2,0.71,0.2,1.42,0.1,2.23C530.14,366.36,529.94,365.65,529.63,364.94z"/>
	<path d="M587.63,370.22c0.93,0.47,0.5,0.72,1.02,0.2C588.18,369.95,587.96,369.56,587.63,370.22z"/>
	<path d="M585.51,365.28c-0.15,0.14-0.2,0.54,0.4,0.37C585.61,365.51,585.48,365.35,585.51,365.28z"/>
	<path d="M600.19,357.72c0.01,0,0.02,0,0.04,0.01C600.11,357.66,600.14,357.68,600.19,357.72z"/>
	<path d="M600.33,357.83c-0.04-0.04-0.1-0.08-0.14-0.11C600.02,357.7,599.96,358.11,600.33,357.83z"/>
	<path d="M530.65,348.58c-0.1,0.3-0.1,0.51-0.1,0.81C530.85,349.09,530.75,348.89,530.65,348.58z"/>
	<path d="M543.45,252.79c-0.71,0-0.91,0.51-0.71,2.03C543.35,253.81,544.26,253.6,543.45,252.79z"/>
	<path d="M588.85,252.39c-0.81,0.2-0.71,0.61-0.41,1.22C589.06,253.4,589.46,252.99,588.85,252.39z"/>
	<path d="M593.02,241.11c-0.23-0.23-0.55-0.26-0.91,0.1C592.4,241.31,592.8,241.7,593.02,241.11z"/>
	<path d="M550.05,583.14c2.04,0.37,3.35-1.12,4.88-2.44c1.73,3.86,4.77,3.25,7.92,2.74c0.2-2.54,1.63-5.29-1.52-7.11
		c-2.13-1.23-3.96-0.61-6.3,1.93C548.63,569.36,542,581.66,550.05,583.14z M556.96,579.28c0.24-2.13,4.57-2.88,4.57,0.71
		c-0.51,1.02-3.76-1.12-2.03,2.13C557.26,581.92,556.79,580.8,556.96,579.28z M550.46,576.74c3.38,0,2.82,5.1-0.2,4.67
		C547.41,581.21,547.28,576.74,550.46,576.74z"/>
	<path d="M558.48,412.38c2.88-6.76,5.56-20.24,1.52-10.56c-0.36,1.73-2.24,10.1-3.96,10.56c-4.59,1.24-8.63,5.28-14.22,2.64
		C542.3,422.91,557.45,414.78,558.48,412.38z"/>
	<path d="M534.1,492.42c3.56-6.6,3.25-14.02,2.74-21.33C532.52,494.4,532.15,492.42,534.1,492.42z"/>
	<path d="M539.59,574.71c-0.51,2.34-0.81,4.77-0.1,7.11c1.98,0.22,1.43-4.1,3.76-0.61c0.41,0.61,0.91,1.12,1.93,1.02
		c0.2-1.32-0.91-2.23,0-3.76C548.02,574.85,541.58,573.54,539.59,574.71z M541.11,577.04c1.02-1.63,2.03-0.71,3.56-0.1
		C543.14,578.57,542.13,578.36,541.11,577.04z"/>
	<path d="M538.16,456.26c-1.08,0-0.72-1.7-1.42,11.28c0.3,0,0.61,0,0.91,0C538.16,463.78,539.89,460.12,538.16,456.26z"/>
	<path d="M581.84,573.18c-2.95,0-5.99-0.51-7.82,2.84C576.46,574.4,579.81,576.03,581.84,573.18z"/>
	<path d="M538.47,451.59c-0.51-1.93,2.03-3.76-0.3-6.4C538.37,447.73,536.13,449.56,538.47,451.59z"/>
	<path d="M540.09,433.91c-1.93,1.32-1.42,3.15-1.42,5.69C540.6,437.37,540.09,435.64,540.09,433.91z"/>
	<path d="M542.33,523.31c-0.2,1.93-0.61,3.15,0.71,4.88C543.04,526.35,543.65,525.13,542.33,523.31z"/>
	<path d="M554.82,427.92c0.71,1.42,1.63,1.73,2.95,1.02C556.86,428.53,556.35,427.21,554.82,427.92z"/>
	<path d="M542.94,535.7c0.81-1.22,1.12-2.03,0.3-3.15C543.24,533.46,542.13,534.28,542.94,535.7z"/>
	<path d="M584.79,553.58c2.5-0.58,16.02-2.45,12.19-5.49c-1.79-1.42-12.84,2.61-14.83,3.76
		C582.76,553.48,583.47,553.98,584.79,553.58z"/>
	<path d="M535.93,158.02c-4.57,10.36-7.42,21.54-15.03,30.27C528.92,179.65,534.71,169.9,535.93,158.02z"/>
	<path d="M594.54,32.66c-4.77-4.57-12.6-3.76-15.44,1.42C583.67,29.62,588.96,33.37,594.54,32.66z"/>
	<path d="M582.45,37.64c1.63,1.93,4.47,0.2,6.3,2.95c-0.71-3.05,1.73-1.93,2.74-2.84c-0.1-1.02-0.3-2.03,0.3-3.56
		C588.55,36.12,584.69,34.29,582.45,37.64z"/>
	<path d="M573.11,106.82c-0.3-0.1-0.51-0.2-0.81-0.3C565.71,119.99,563.74,130.76,573.11,106.82z"/>
	<path d="M529.94,158.73c-0.91,4.57-3.45,7.82-5.59,11.38C527.5,168.58,530.55,162.28,529.94,158.73z"/>
	<path d="M592.61,51.96c2.74,0.41,5.28,1.32,6.81-1.63c-1.73-1.73-2.95-0.3-4.06,0.51C594.62,50.85,591.89,46.9,592.61,51.96z"/>
	<path d="M568.54,91.68c1.22,3.15,2.03,6.5,4.16,9.24C571.99,97.57,571.18,94.22,568.54,91.68z"/>
	<path d="M538.67,110.88c0.3-2.34,0.61-4.67-2.23-6.4C535.93,107.43,536.54,109.36,538.67,110.88z"/>
	<path d="M519.17,133.43c-2.95,0.71-5.89,1.42-7.62,4.27C514.29,136.78,517.14,135.77,519.17,133.43z"/>
	<path d="M517.14,180.87c3.05-1.83,4.27-3.76,4.57-6.6C520.08,176.3,518.46,178.23,517.14,180.87z"/>
	<path d="M575.34,105.09c2.84,1.83,5.49,0.61,8.03,0.1C580.73,104.28,577.98,104.79,575.34,105.09z"/>
	<path d="M540.3,126.73c-2.23,0.91-4.67,1.22-6.91,2.34C536.23,129.88,538.47,128.76,540.3,126.73z"/>
	<path d="M551.47,79.49c0.41,1.73,1.52,2.64,2.44,3.86C553.5,80.71,553.5,80.71,551.47,79.49z"/>
	<path d="M565.08,71.77c0.51,2.54,0.51,2.54,2.03,3.35C566.91,73.7,566.1,72.89,565.08,71.77z"/>
	<path d="M544.77,104.58c-0.1,1.52,0.2,2.34,1.52,2.64C546.8,105.7,546.6,104.89,544.77,104.58z"/>
	<path d="M534.71,118.6c0.59-3.21-2.2-0.74-1.22,1.22C534.41,119.72,534.6,119.21,534.71,118.6z"/>
	<path d="M536.23,155.88c1.02-0.71,1.32-1.32,0.71-2.54C536.13,154.16,535.73,154.66,536.23,155.88z"/>
	<path d="M537.76,151.21c0.71-0.61,1.12-1.12,0.71-2.74C537.66,149.38,536.64,149.79,537.76,151.21z"/>
	<path d="M541.41,125.2c1.52-0.1,2.13-0.91,2.34-2.13C542.74,123.38,542.13,123.99,541.41,125.2z"/>
	<path d="M529.53,94.22c-1.02-0.41-1.42,0-2.23,0.71C528.31,95.24,529.12,95.34,529.53,94.22z"/>
	<path d="M544.87,114.54c1.22,0,1.22-0.71,1.22-1.83C544.77,113.01,544.67,113.62,544.87,114.54z"/>
	<path d="M543.04,119.72c1.32-0.71,2.13-1.42,1.73-2.64C543.75,117.48,543.55,118.4,543.04,119.72z"/>
	<path d="M538.88,146.94c0.91-0.2,1.02-0.71,0.91-1.73C539.08,145.62,538.67,146.13,538.88,146.94z"/>
	<path d="M570.98,83.15c0.1-1.12-0.2-1.73-1.32-1.93C569.55,82.23,569.86,82.84,570.98,83.15z"/>
	<path d="M509.11,140.54c-1.42,0-1.52,0.81-1.52,2.13C508.71,142.07,509.11,141.56,509.11,140.54z"/>
	<path d="M512.57,201.9c1.12,0.1,1.32-0.71,1.63-1.52C512.87,200.17,512.36,200.68,512.57,201.9z"/>
	<path d="M569.25,79.39c0.61-0.91,0.1-1.22-0.71-1.52C567.93,78.88,568.44,79.19,569.25,79.39z"/>
	<path d="M507.08,150.5c0-0.35-0.52-0.29-0.71,0.1C506.77,151,506.74,151.18,507.08,150.5z"/>
	<path d="M511.55,137.7c-0.81-0.1-1.32,0.41-1.32,1.22C510.74,138.61,511.45,138.51,511.55,137.7z"/>
	<path d="M698.26,125.81c-2.64,2.74-3.05,6.3-3.86,9.75C695.82,132.31,697.45,129.27,698.26,125.81z"/>
	<path d="M690.03,116.87c2.03,2.74,5.08,4.37,7.21,7.01C695.52,120.84,693.59,117.99,690.03,116.87z"/>
	<path d="M624,188.79c0,2.54-1.12,4.67-2.03,6.91C624.92,194.08,624.1,191.33,624,188.79z"/>
	<path d="M609.68,194.08c0.91-1.42,1.93-2.84,1.93-5.28C609.58,190.52,609.37,192.25,609.68,194.08z"/>
	<path d="M691.01,114.77c0.05-0.2-1.91-0.29-3.09,0.38c-1.11,0.62,1.64,1.28,2.11,1.63C689.45,115.81,690.79,115.58,691.01,114.77z"
		/>
	<path d="M656.3,146.64c-1.48,0.27-2.72,0.86-3.35,2.22C652.04,150.82,655.23,148.4,656.3,146.64z"/>
	<path d="M608.87,208.6c0.51-1.52,0.2-2.54-0.81-3.56C607.65,206.27,607.24,207.28,608.87,208.6z"/>
	<path d="M623.39,179.86c-0.61,0.41-0.81,0.81,0,1.52C623.8,180.67,624,180.16,623.39,179.86z"/>
	<path d="M608.97,200.48c-0.81,0.71-0.81,1.32-0.2,2.03C609.37,201.9,609.68,201.29,608.97,200.48z"/>
	<path d="M691.05,139.43C691.55,139.53,691.35,139.43,691.05,139.43L691.05,139.43z"/>
	<path d="M698.46,125.92c0.78-0.11,1.54-0.05,1.73-1.12C699.15,124.5,698.79,125.04,698.46,125.92z"/>
	<path d="M680.48,118.7c0.61-1.02-0.1-1.32-0.81-1.93C679.35,119.01,679.46,117.61,680.48,118.7z"/>
	<path d="M506.4,86.37c-1.03-2.45,0.47,7,4.34,11.81C509.02,94.38,508.02,90.22,506.4,86.37z"/>
	<path d="M510.53,100.93c-1.93,3.76-3.96,7.42-4.88,11.48C507.69,108.75,509.72,105.09,510.53,100.93z"/>
	<path d="M517.95,117.99c-1.95-0.43-5.81-0.91-10.26-0.91C510.99,117.98,514.52,118.21,517.95,117.99z"/>
	<path d="M516.22,99.91c1.63,0.2,3.15,0.41,4.98,0.51C519.57,99.1,517.95,99.5,516.22,99.91z"/>
	<path d="M503.12,117.38c-1.14-0.73-1.85-0.06-2.95,0.61C501.46,117.99,502.52,118.67,503.12,117.38z"/>
<path fill="#e6e6e6" d="m206.8 163.6c0-5.1 4.1-9.2 9.3-9.2s9.2 4.2 9.2 9.2-4.1 9.2-9.3 9.2-9.2-4.1-9.2-9.2zm17.3-.1c0-4.5-3.5-8.2-8.2-8.2s-8.2 3.7-8.2 8.3c0 4.5 3.5 8.2 8.2 8.2s8.2-3.7 8.2-8.3zm-13 0c0-2.8 2.1-5.1 5.1-5.1 1.9 0 2.9.6 3.9 1.5l-1.4 1.7c-.8-.7-1.5-1.1-2.5-1.1-1.7 0-2.8 1.4-2.8 3.1s1.1 3 2.8 3c1.1 0 1.7-.5 2.5-1.1l1.4 1.4c-1.1 1.1-2.1 1.7-4 1.7-2.9 0-5-2.3-5-5.1z"/><path fill="#e6e6e6" d="m226.6 154.7h3.4l4.2 13.2 4.4-13.3h2.6l4.4 13.3 4.2-13.2h3.3l-6.2 18h-2.7l-4.4-12.8-4.4 12.8h-2.7z"/><path fill="#e6e6e6" d="m252.8 165.8c0-3.9 3.1-7 7.2-7 4.2 0 7.2 3.2 7.2 7s-3.1 7-7.3 7c-4 0-7.1-3.1-7.1-7zm11.3 0c0-2.3-1.7-4.3-4.2-4.3s-4.1 2-4.1 4.3 1.7 4.3 4.1 4.3c2.7.1 4.2-1.9 4.2-4.3z"/><path fill="#e6e6e6" d="m269.5 159.1h3.1v3c.8-2 2.4-3.4 4.8-3.3v3.2h-.2c-2.7 0-4.6 1.7-4.6 5.4v5.1h-3.1z"/><path fill="#e6e6e6" d="m279.1 153.9h3.1v11.1l5.6-6h3.8l-5.4 5.5 5.5 8h-3.5l-4.1-5.8-1.9 2v3.9h-3.1z"/><path fill="#e6e6e6" d="m291.7 165.8c0-3.9 3.1-7 7.2-7 4.2 0 7.2 3.2 7.2 7s-3.1 7-7.3 7c-4 0-7.1-3.1-7.1-7zm11.3 0c0-2.3-1.7-4.3-4.2-4.3s-4.1 2-4.1 4.3 1.7 4.3 4.1 4.3c2.6.1 4.2-1.9 4.2-4.3z"/><path fill="#e6e6e6" d="m308.2 167.6v-8.6h3.1v7.6c0 2.1 1.1 3.3 2.9 3.3s3-1.3 3-3.3v-7.6h3.1v13.4h-3.1v-2.1c-.8 1.3-2.1 2.3-4.2 2.3-3.1.2-4.8-1.8-4.8-5z"/><path fill="#e6e6e6" d="m323.9 168.8v-7.1h-1.7v-2.6h1.7v-3.7h3.1v3.7h3.6v2.6h-3.6v6.6c0 1.2.6 1.7 1.7 1.7.7 0 1.3-.2 1.9-.5v2.5c-.8.5-1.7.7-2.8.7-2.3 0-3.9-.9-3.9-3.9z"/><path fill="#e6e6e6" d="m333.2 154.7h3.2v15h9.4v2.9h-12.5v-17.9z"/><path fill="#e6e6e6" d="m356 172.5v-1.7c-.9 1.1-2.3 2-4.4 2-2.6 0-4.8-1.4-4.8-4.2 0-3 2.3-4.4 5.4-4.4 1.7 0 2.6.2 3.7.5v-.2c0-1.9-1.2-2.9-3.3-2.9-1.5 0-2.6.3-3.9.8l-.8-2.5c1.5-.7 2.9-1.1 5.1-1.1 4 0 5.9 2.1 5.9 5.7v8zm.1-5.6c-.8-.3-1.9-.5-3.1-.5-2 0-3.1.8-3.1 2.1s1.1 2 2.6 2c2 0 3.5-1.1 3.5-2.9z"/><path fill="#e6e6e6" d="m364.9 170.5v2.1h-3.1v-18.7h3.1v7.4c1-1.4 2.4-2.5 4.5-2.5 3.2 0 6.3 2.5 6.3 7s-3.1 7-6.3 7c-2.1 0-3.5-1.1-4.5-2.3zm7.7-4.7c0-2.6-1.7-4.3-3.9-4.3s-3.9 1.7-3.9 4.4c0 2.6 1.8 4.3 3.9 4.3s3.9-1.7 3.9-4.4z"/><path fill="#e6e6e6" d="m376.9 170.8 1.4-2.1c1.4 1.1 3 1.7 4.4 1.7s2.1-.5 2.1-1.5-1.3-1.4-2.8-1.8c-.1 0-.2-.1-.2-.1-2-.6-4.2-1.4-4.2-4s2.1-4.1 4.8-4.1c1.7 0 3.5.6 5 1.5l-1.2 2.2c-1.3-.8-2.6-1.3-3.8-1.3s-1.9.5-1.9 1.4 1.3 1.4 2.8 1.8c.1 0 .2.1.2.1 2 .6 4.2 1.5 4.2 4 0 2.9-2.2 4.2-5 4.2-1.9 0-4-.7-5.8-2z"/><path fill="#e6e6e6" d="m505.6 163.6c0-5.1 4.1-9.2 9.3-9.2s9.2 4.2 9.2 9.2-4.1 9.2-9.3 9.2-9.2-4.1-9.2-9.2zm17.4-.1c0-4.5-3.5-8.2-8.2-8.2s-8.2 3.7-8.2 8.3c0 4.5 3.5 8.2 8.2 8.2s8.2-3.7 8.2-8.3zm-13.1 0c0-2.8 2.1-5.1 5.1-5.1 1.9 0 2.9.6 3.9 1.5l-1.4 1.7c-.8-.7-1.5-1.1-2.5-1.1-1.7 0-2.8 1.4-2.8 3.1s1.1 3 2.8 3c1.1 0 1.7-.5 2.5-1.1l1.4 1.4c-1.1 1.1-2.1 1.7-4 1.7-2.9 0-5-2.3-5-5.1z"/><path fill="#e6e6e6" d="m525.4 154.7h3.4l4.2 13.2 4.4-13.3h2.6l4.4 13.3 4.2-13.2h3.3l-6.2 18h-2.7l-4.4-12.8-4.4 12.8h-2.7z"/><path fill="#e6e6e6" d="m551.7 165.8c0-3.9 3.1-7 7.2-7 4.2 0 7.2 3.2 7.2 7s-3.1 7-7.3 7c-4.1 0-7.1-3.1-7.1-7zm11.2 0c0-2.3-1.7-4.3-4.2-4.3s-4.1 2-4.1 4.3 1.7 4.3 4.1 4.3c2.7.1 4.2-1.9 4.2-4.3z"/><path fill="#e6e6e6" d="m568.3 159.1h3.1v3c.8-2 2.4-3.4 4.8-3.3v3.2h-.2c-2.7 0-4.6 1.7-4.6 5.4v5.1h-3.1z"/><path fill="#e6e6e6" d="m577.9 153.9h3.1v11.1l5.6-6h3.8l-5.4 5.5 5.5 8h-3.5l-4.1-5.8-1.9 2v3.9h-3.1z"/><path fill="#e6e6e6" d="m590.6 165.8c0-3.9 3.1-7 7.2-7 4.2 0 7.2 3.2 7.2 7s-3.1 7-7.3 7c-4.1 0-7.1-3.1-7.1-7zm11.2 0c0-2.3-1.7-4.3-4.2-4.3s-4.1 2-4.1 4.3 1.7 4.3 4.1 4.3c2.6.1 4.2-1.9 4.2-4.3z"/><path fill="#e6e6e6" d="m607 167.6v-8.6h3.1v7.6c0 2.1 1.1 3.3 2.9 3.3s3-1.3 3-3.3v-7.6h3.1v13.4h-3.1v-2.1c-.8 1.3-2.1 2.3-4.2 2.3-3 .2-4.8-1.8-4.8-5z"/><path fill="#e6e6e6" d="m622.7 168.8v-7.1h-1.7v-2.6h1.7v-3.7h3.1v3.7h3.6v2.6h-3.6v6.6c0 1.2.6 1.7 1.7 1.7.7 0 1.3-.2 1.9-.5v2.5c-.8.5-1.7.7-2.8.7-2.3 0-3.9-.9-3.9-3.9z"/><path fill="#e6e6e6" d="m632 154.7h3.2v15h9.4v2.9h-12.6z"/><path fill="#e6e6e6" d="m654.8 172.5v-1.7c-.9 1.1-2.3 2-4.4 2-2.6 0-4.8-1.4-4.8-4.2 0-3 2.3-4.4 5.4-4.4 1.7 0 2.6.2 3.7.5v-.2c0-1.9-1.2-2.9-3.3-2.9-1.5 0-2.6.3-3.9.8l-.8-2.5c1.5-.7 2.9-1.1 5.1-1.1 4 0 5.9 2.1 5.9 5.7v8zm.1-5.6c-.8-.3-1.9-.5-3.1-.5-2 0-3.1.8-3.1 2.1s1.1 2 2.6 2c2 0 3.5-1.1 3.5-2.9z"/><path fill="#e6e6e6" d="m663.7 170.5v2.1h-3.1v-18.7h3.1v7.4c1-1.4 2.4-2.5 4.5-2.5 3.2 0 6.3 2.5 6.3 7s-3.1 7-6.3 7c-2.1 0-3.5-1.1-4.5-2.3zm7.8-4.7c0-2.6-1.7-4.3-3.9-4.3-2.1 0-3.9 1.7-3.9 4.4 0 2.6 1.8 4.3 3.9 4.3s3.9-1.7 3.9-4.4z"/><path fill="#e6e6e6" d="m675.8 170.8 1.4-2.1c1.4 1.1 3 1.7 4.4 1.7s2.1-.5 2.1-1.5-1.3-1.4-2.8-1.8c-.1 0-.2-.1-.2-.1-2-.6-4.2-1.4-4.2-4s2.1-4.1 4.8-4.1c1.7 0 3.5.6 5 1.5l-1.2 2.2c-1.3-.8-2.6-1.3-3.8-1.3s-1.9.5-1.9 1.4 1.3 1.4 2.8 1.8c.1 0 .2.1.2.1 2 .6 4.2 1.5 4.2 4 0 2.9-2.2 4.2-5 4.2-2 0-4.1-.7-5.8-2z"/><path fill="#e6e6e6" d="m61 298.6c0-5.1 4.1-9.2 9.3-9.2s9.2 4.2 9.2 9.2-4.1 9.2-9.3 9.2c-5.1 0-9.2-4.2-9.2-9.2zm17.4-.1c0-4.5-3.5-8.2-8.2-8.2s-8.2 3.7-8.2 8.3c0 4.5 3.5 8.2 8.2 8.2s8.2-3.7 8.2-8.3zm-13.1-.1c0-2.8 2.1-5.1 5.1-5.1 1.9 0 2.9.6 3.9 1.5l-1.4 1.7c-.8-.7-1.5-1.1-2.5-1.1-1.7 0-2.8 1.4-2.8 3.1s1.1 3 2.8 3c1.1 0 1.7-.5 2.5-1.1l1.4 1.4c-1.1 1.1-2.1 1.7-4 1.7-2.8.1-5-2.2-5-5.1z"/><path fill="#e6e6e6" d="m80.9 289.7h3.4l4.2 13.2 4.4-13.3h2.6l4.4 13.3 4.2-13.2h3.3l-6.2 18h-2.7l-4.4-12.8-4.4 12.8h-2.7z"/><path fill="#e6e6e6" d="m107.1 300.8c0-3.9 3.1-7 7.2-7s7.2 3.2 7.2 7-3.1 7-7.3 7c-4 0-7.1-3.1-7.1-7zm11.3 0c0-2.3-1.7-4.3-4.2-4.3s-4.1 2-4.1 4.3 1.7 4.3 4.1 4.3c2.6.1 4.2-1.9 4.2-4.3z"/><path fill="#e6e6e6" d="m123.7 294h3.1v3c.8-2 2.4-3.4 4.8-3.3v3.2h-.2c-2.7 0-4.6 1.7-4.6 5.4v5.1h-3.1z"/><path fill="#e6e6e6" d="m133.4 288.9h3.1v11.1l5.6-6h3.8l-5.4 5.5 5.5 8h-3.5l-4.1-5.8-1.9 1.9v3.9h-3.1z"/><path fill="#e6e6e6" d="m146 300.8c0-3.9 3.1-7 7.2-7s7.2 3.2 7.2 7-3.1 7-7.3 7c-4.1 0-7.1-3.1-7.1-7zm11.2 0c0-2.3-1.7-4.3-4.2-4.3s-4.1 2-4.1 4.3 1.7 4.3 4.1 4.3c2.6.1 4.2-1.9 4.2-4.3z"/><path fill="#e6e6e6" d="m162.4 302.6v-8.6h3.1v7.6c0 2.1 1.1 3.3 2.9 3.3s3-1.3 3-3.3v-7.6h3.1v13.4h-3.1v-2.1c-.8 1.3-2.1 2.3-4.2 2.3-3 .2-4.8-1.8-4.8-5z"/><path fill="#e6e6e6" d="m178.1 303.8v-7.1h-1.7v-2.7h1.7v-3.7h3.1v3.7h3.6v2.6h-3.6v6.6c0 1.2.6 1.7 1.7 1.7.7 0 1.3-.2 1.9-.5v2.5c-.8.5-1.7.7-2.8.7-2.3.1-3.9-.9-3.9-3.8z"/><path fill="#e6e6e6" d="m187.4 289.7h3.2v15h9.4v2.9h-12.5v-17.9z"/><path fill="#e6e6e6" d="m210.2 307.5v-1.7c-.9 1.1-2.3 2-4.4 2-2.6 0-4.8-1.4-4.8-4.2 0-3 2.3-4.4 5.4-4.4 1.7 0 2.6.2 3.7.5v-.2c0-1.9-1.2-2.9-3.3-2.9-1.5 0-2.6.3-3.9.8l-.8-2.5c1.5-.7 2.9-1.1 5.1-1.1 4 0 5.9 2.1 5.9 5.7v8zm.1-5.6c-.8-.3-1.9-.5-3.1-.5-2 0-3.1.8-3.1 2.1s1.1 2 2.6 2c2 0 3.5-1.1 3.5-2.9z"/><path fill="#e6e6e6" d="m219.2 305.5v2.1h-3.1v-18.7h3.1v7.4c1-1.4 2.4-2.5 4.5-2.5 3.2 0 6.3 2.5 6.3 7s-3.1 7-6.3 7c-2.2 0-3.6-1.1-4.5-2.3zm7.7-4.7c0-2.6-1.7-4.3-3.9-4.3s-3.9 1.7-3.9 4.4c0 2.6 1.8 4.3 3.9 4.3s3.9-1.7 3.9-4.4z"/><path fill="#e6e6e6" d="m231.2 305.8 1.4-2.1c1.4 1.1 3 1.7 4.4 1.7s2.1-.5 2.1-1.5-1.3-1.4-2.8-1.8c-.1 0-.2-.1-.2-.1-2-.6-4.2-1.4-4.2-4s2.1-4.1 4.8-4.1c1.7 0 3.5.6 5 1.5l-1.2 2.2c-1.3-.8-2.6-1.3-3.8-1.3s-1.9.5-1.9 1.4 1.3 1.4 2.8 1.8c.1 0 .2.1.2.1 2 .6 4.2 1.5 4.2 4 0 2.9-2.2 4.2-5 4.2-2 0-4.1-.7-5.8-2z"/><path fill="#e6e6e6" d="m360.6 298.6c0-5.1 4.1-9.2 9.3-9.2s9.2 4.2 9.2 9.2-4.1 9.2-9.3 9.2-9.2-4.2-9.2-9.2zm17.4-.1c0-4.5-3.5-8.2-8.2-8.2s-8.2 3.7-8.2 8.3c0 4.5 3.5 8.2 8.2 8.2s8.2-3.7 8.2-8.3zm-13.1-.1c0-2.8 2.1-5.1 5.1-5.1 1.9 0 2.9.6 3.9 1.5l-1.4 1.7c-.8-.7-1.5-1.1-2.5-1.1-1.7 0-2.8 1.4-2.8 3.1s1.1 3 2.8 3c1.1 0 1.7-.5 2.5-1.1l1.4 1.4c-1.1 1.1-2.1 1.7-4 1.7-2.8.1-5-2.2-5-5.1z"/><path fill="#e6e6e6" d="m380.5 289.7h3.4l4.2 13.2 4.4-13.3h2.6l4.4 13.3 4.2-13.2h3.3l-6.2 18h-2.7l-4.4-12.8-4.4 12.8h-2.7z"/><path fill="#e6e6e6" d="m406.7 300.8c0-3.9 3.1-7 7.2-7 4.2 0 7.2 3.2 7.2 7s-3.1 7-7.3 7c-4.1 0-7.1-3.1-7.1-7zm11.3 0c0-2.3-1.7-4.3-4.2-4.3s-4.1 2-4.1 4.3 1.7 4.3 4.1 4.3c2.7.1 4.2-1.9 4.2-4.3z"/><path fill="#e6e6e6" d="m423.3 294h3.1v3c.8-2 2.4-3.4 4.8-3.3v3.2h-.2c-2.7 0-4.6 1.7-4.6 5.4v5.1h-3.1z"/><path fill="#e6e6e6" d="m433 288.9h3.1v11.1l5.6-6h3.8l-5.4 5.5 5.5 8h-3.5l-4.1-5.8-1.9 2v3.9h-3.1z"/><path fill="#e6e6e6" d="m445.6 300.8c0-3.9 3.1-7 7.2-7 4.2 0 7.2 3.2 7.2 7s-3.1 7-7.3 7c-4.1 0-7.1-3.1-7.1-7zm11.3 0c0-2.3-1.7-4.3-4.2-4.3s-4.1 2-4.1 4.3 1.7 4.3 4.1 4.3c2.6.1 4.2-1.9 4.2-4.3z"/><path fill="#e6e6e6" d="m462.1 302.6v-8.6h3.1v7.6c0 2.1 1.1 3.3 2.9 3.3s3-1.3 3-3.3v-7.6h3.1v13.4h-3.1v-2.1c-.8 1.3-2.1 2.3-4.2 2.3-3.1.2-4.8-1.8-4.8-5z"/><path fill="#e6e6e6" d="m477.8 303.8v-7.1h-1.8v-2.7h1.7v-3.7h3.1v3.7h3.6v2.6h-3.6v6.6c0 1.2.6 1.7 1.7 1.7.7 0 1.3-.2 1.9-.5v2.5c-.8.5-1.7.7-2.8.7-2.2.1-3.8-.9-3.8-3.8z"/><path fill="#e6e6e6" d="m487.1 289.7h3.2v15h9.4v2.9h-12.5v-17.9z"/><path fill="#e6e6e6" d="m509.9 307.5v-1.7c-.9 1.1-2.3 2-4.4 2-2.6 0-4.8-1.4-4.8-4.2 0-3 2.3-4.4 5.4-4.4 1.7 0 2.6.2 3.7.5v-.2c0-1.9-1.2-2.9-3.3-2.9-1.5 0-2.6.3-3.9.8l-.8-2.5c1.5-.7 2.9-1.1 5.1-1.1 4 0 5.9 2.1 5.9 5.7v8zm.1-5.6c-.8-.3-1.9-.5-3.1-.5-2 0-3.1.8-3.1 2.1s1.1 2 2.6 2c2 0 3.5-1.1 3.5-2.9z"/><path fill="#e6e6e6" d="m518.8 305.5v2.1h-3.1v-18.7h3.1v7.4c1-1.4 2.4-2.5 4.5-2.5 3.2 0 6.3 2.5 6.3 7s-3.1 7-6.3 7c-2.2 0-3.5-1.1-4.5-2.3zm7.7-4.7c0-2.6-1.7-4.3-3.9-4.3s-3.9 1.7-3.9 4.4c0 2.6 1.8 4.3 3.9 4.3s3.9-1.7 3.9-4.4z"/><path fill="#e6e6e6" d="m530.8 305.8 1.4-2.1c1.4 1.1 3 1.7 4.4 1.7s2.1-.5 2.1-1.5-1.3-1.4-2.8-1.8c-.1 0-.2-.1-.2-.1-2-.6-4.2-1.4-4.2-4s2.1-4.1 4.8-4.1c1.7 0 3.5.6 5 1.5l-1.2 2.2c-1.3-.8-2.6-1.3-3.8-1.3s-1.9.5-1.9 1.4 1.3 1.4 2.8 1.8c.1 0 .2.1.2.1 2 .6 4.2 1.5 4.2 4 0 2.9-2.2 4.2-5 4.2-1.9 0-4.1-.7-5.8-2z"/><path fill="#e6e6e6" d="m659.5 298.6c0-5.1 4.1-9.2 9.3-9.2s9.2 4.2 9.2 9.2-4.1 9.2-9.3 9.2-9.2-4.2-9.2-9.2zm17.3-.1c0-4.5-3.5-8.2-8.2-8.2s-8.2 3.7-8.2 8.3c0 4.5 3.5 8.2 8.2 8.2 4.8 0 8.2-3.7 8.2-8.3zm-13-.1c0-2.8 2.1-5.1 5.1-5.1 1.9 0 2.9.6 3.9 1.5l-1.4 1.7c-.8-.7-1.5-1.1-2.5-1.1-1.7 0-2.8 1.4-2.8 3.1s1.1 3 2.8 3c1.1 0 1.7-.5 2.5-1.1l1.4 1.4c-1.1 1.1-2.1 1.7-4 1.7-2.9.1-5-2.2-5-5.1z"/><path fill="#e6e6e6" d="m679.3 289.7h3.4l4.2 13.2 4.4-13.3h2.6l4.4 13.3 4.2-13.2h3.3l-6.2 18h-2.6l-4.4-12.8-4.4 12.8h-2.7z"/><path fill="#e6e6e6" d="m705.5 300.8c0-3.9 3.1-7 7.2-7 4.2 0 7.2 3.2 7.2 7s-3.1 7-7.3 7c-4 0-7.1-3.1-7.1-7zm11.3 0c0-2.3-1.7-4.3-4.2-4.3s-4.1 2-4.1 4.3 1.7 4.3 4.1 4.3c2.7.1 4.2-1.9 4.2-4.3z"/><path fill="#e6e6e6" d="m722.1 294h3.1v3c.8-2 2.4-3.4 4.8-3.3v3.2h-.2c-2.7 0-4.6 1.7-4.6 5.4v5.1h-3.1z"/><path fill="#e6e6e6" d="m731.8 288.9h3.1v11.1l5.6-6h3.8l-5.4 5.5 5.5 8h-3.5l-4.1-5.8-1.9 2v3.9h-3.1z"/><path fill="#e6e6e6" d="m744.4 300.8c0-3.9 3.1-7 7.2-7 4.2 0 7.2 3.2 7.2 7s-3.1 7-7.3 7c-4.1 0-7.1-3.1-7.1-7zm11.3 0c0-2.3-1.7-4.3-4.2-4.3s-4.1 2-4.1 4.3 1.7 4.3 4.1 4.3c2.6.1 4.2-1.9 4.2-4.3z"/><path fill="#e6e6e6" d="m760.9 302.6v-8.6h3.1v7.6c0 2.1 1.1 3.3 2.9 3.3s3-1.3 3-3.3v-7.6h3.1v13.4h-3.1v-2.1c-.8 1.3-2.1 2.3-4.2 2.3-3.1.2-4.8-1.8-4.8-5z"/><path fill="#e6e6e6" d="m776.6 303.8v-7.1h-1.7v-2.7h1.7v-3.7h3.1v3.7h3.6v2.6h-3.6v6.6c0 1.2.6 1.7 1.7 1.7.7 0 1.3-.2 1.9-.5v2.5c-.8.5-1.7.7-2.8.7-2.3.1-3.9-.9-3.9-3.8z"/><path fill="#e6e6e6" d="m785.9 289.7h3.2v15h9.4v2.9h-12.5v-17.9z"/><path fill="#e6e6e6" d="m808.7 307.5v-1.7c-.9 1.1-2.3 2-4.4 2-2.6 0-4.8-1.4-4.8-4.2 0-3 2.3-4.4 5.4-4.4 1.7 0 2.6.2 3.7.5v-.2c0-1.9-1.2-2.9-3.3-2.9-1.5 0-2.6.3-3.9.8l-.8-2.5c1.5-.7 2.9-1.1 5.1-1.1 4 0 5.9 2.1 5.9 5.7v8zm.1-5.6c-.8-.3-1.9-.5-3.1-.5-2 0-3.1.8-3.1 2.1s1.1 2 2.6 2c2 0 3.5-1.1 3.5-2.9z"/><path fill="#e6e6e6" d="m817.6 305.5v2.1h-3.1v-18.7h3.1v7.4c1-1.4 2.4-2.5 4.5-2.5 3.2 0 6.3 2.5 6.3 7s-3.1 7-6.3 7c-2.1 0-3.5-1.1-4.5-2.3zm7.7-4.7c0-2.6-1.7-4.3-3.9-4.3-2.1 0-3.9 1.7-3.9 4.4 0 2.6 1.8 4.3 3.9 4.3 2.2 0 3.9-1.7 3.9-4.4z"/><path fill="#e6e6e6" d="m829.6 305.8 1.4-2.1c1.4 1.1 3 1.7 4.4 1.7s2.1-.5 2.1-1.5-1.3-1.4-2.8-1.8c-.1 0-.2-.1-.2-.1-2-.6-4.2-1.4-4.2-4s2.1-4.1 4.8-4.1c1.7 0 3.5.6 5 1.5l-1.2 2.2c-1.3-.8-2.6-1.3-3.8-1.3s-1.9.5-1.9 1.4 1.3 1.4 2.8 1.8c.1 0 .2.1.2.1 2 .6 4.2 1.5 4.2 4 0 2.9-2.2 4.2-5 4.2-1.9 0-4-.7-5.8-2z"/><path fill="#e6e6e6" d="m206.3 434.2c0-5.1 4.1-9.2 9.3-9.2s9.2 4.2 9.2 9.2-4.1 9.2-9.3 9.2-9.2-4.1-9.2-9.2zm17.4-.1c0-4.5-3.5-8.2-8.2-8.2s-8.2 3.7-8.2 8.3c0 4.5 3.5 8.2 8.2 8.2s8.2-3.7 8.2-8.3zm-13.1-.1c0-2.8 2.1-5.1 5.1-5.1 1.9 0 2.9.6 3.9 1.5l-1.4 1.7c-.8-.7-1.5-1.1-2.5-1.1-1.7 0-2.8 1.4-2.8 3.1s1.1 3 2.8 3c1.1 0 1.7-.5 2.5-1.1l1.4 1.4c-1.1 1.1-2.1 1.7-4 1.7-2.9.1-5-2.2-5-5.1z"/><path fill="#e6e6e6" d="m226.1 425.3h3.4l4.2 13.2 4.4-13.3h2.6l4.4 13.3 4.2-13.2h3.3l-6.2 18h-2.7l-4.4-12.8-4.4 12.8h-2.7z"/><path fill="#e6e6e6" d="m252.4 436.4c0-3.9 3.1-7 7.2-7 4.2 0 7.2 3.2 7.2 7s-3.1 7-7.3 7c-4.1 0-7.1-3.1-7.1-7zm11.2 0c0-2.3-1.7-4.3-4.2-4.3s-4.1 2-4.1 4.3 1.7 4.3 4.1 4.3c2.7.1 4.2-1.9 4.2-4.3z"/><path fill="#e6e6e6" d="m269 429.7h3.1v3c.8-2 2.4-3.4 4.8-3.3v3.2h-.2c-2.7 0-4.6 1.7-4.6 5.4v5.1h-3.1z"/><path fill="#e6e6e6" d="m278.6 424.5h3.1v11.1l5.6-6h3.8l-5.4 5.5 5.5 8h-3.5l-4.1-5.8-1.9 2v3.9h-3.1z"/><path fill="#e6e6e6" d="m291.3 436.4c0-3.9 3.1-7 7.2-7 4.2 0 7.2 3.2 7.2 7s-3.1 7-7.3 7c-4.1 0-7.1-3.1-7.1-7zm11.2 0c0-2.3-1.7-4.3-4.2-4.3s-4.1 2-4.1 4.3 1.7 4.3 4.1 4.3c2.6.1 4.2-1.9 4.2-4.3z"/><path fill="#e6e6e6" d="m307.7 438.2v-8.6h3.1v7.6c0 2.1 1.1 3.3 2.9 3.3s3-1.3 3-3.3v-7.6h3.1v13.4h-3.1v-2.1c-.8 1.3-2.1 2.3-4.2 2.3-3 .2-4.8-1.8-4.8-5z"/><path fill="#e6e6e6" d="m323.4 439.4v-7.1h-1.7v-2.6h1.7v-3.7h3.1v3.7h3.6v2.6h-3.6v6.6c0 1.2.6 1.7 1.7 1.7.7 0 1.3-.2 1.9-.5v2.5c-.8.5-1.7.7-2.8.7-2.3 0-3.9-.9-3.9-3.9z"/><path fill="#e6e6e6" d="m332.7 425.3h3.2v15h9.4v2.9h-12.5v-17.9z"/><path fill="#e6e6e6" d="m355.5 443.1v-1.7c-.9 1.1-2.3 2-4.4 2-2.6 0-4.8-1.4-4.8-4.2 0-3 2.3-4.4 5.4-4.4 1.7 0 2.6.2 3.7.5v-.2c0-1.9-1.2-2.9-3.3-2.9-1.5 0-2.6.3-3.9.8l-.8-2.5c1.5-.7 2.9-1.1 5.1-1.1 4 0 5.9 2.1 5.9 5.7v8zm.1-5.6c-.8-.3-1.9-.5-3.1-.5-2 0-3.1.8-3.1 2.1s1.1 2 2.6 2c2 0 3.5-1.1 3.5-2.9z"/><path fill="#e6e6e6" d="m364.4 441.1v2.1h-3.1v-18.7h3.1v7.4c1-1.4 2.4-2.5 4.5-2.5 3.2 0 6.3 2.5 6.3 7s-3.1 7-6.3 7c-2.1 0-3.5-1.1-4.5-2.3zm7.7-4.7c0-2.6-1.7-4.3-3.9-4.3-2.1 0-3.9 1.7-3.9 4.4 0 2.6 1.8 4.3 3.9 4.3 2.2 0 3.9-1.7 3.9-4.4z"/><path fill="#e6e6e6" d="m376.5 441.4 1.4-2.1c1.4 1.1 3 1.7 4.4 1.7s2.1-.5 2.1-1.5-1.3-1.4-2.8-1.8c-.1 0-.2-.1-.2-.1-2-.6-4.2-1.4-4.2-4s2.1-4.1 4.8-4.1c1.7 0 3.5.6 5 1.5l-1.2 2.2c-1.3-.8-2.6-1.3-3.8-1.3s-1.9.5-1.9 1.4 1.3 1.4 2.8 1.8c.1 0 .2.1.2.1 2 .6 4.2 1.5 4.2 4 0 2.9-2.2 4.2-5 4.2-2 0-4.1-.7-5.8-2z"/><path fill="#e6e6e6" d="m505.1 434.2c0-5.1 4.1-9.2 9.3-9.2s9.2 4.2 9.2 9.2-4.1 9.2-9.3 9.2-9.2-4.1-9.2-9.2zm17.4-.1c0-4.5-3.5-8.2-8.2-8.2s-8.2 3.7-8.2 8.3c0 4.5 3.5 8.2 8.2 8.2s8.2-3.7 8.2-8.3zm-13.1-.1c0-2.8 2.1-5.1 5.1-5.1 1.9 0 2.9.6 3.9 1.5l-1.4 1.7c-.8-.7-1.5-1.1-2.5-1.1-1.7 0-2.8 1.4-2.8 3.1s1.1 3 2.8 3c1.1 0 1.7-.5 2.5-1.1l1.4 1.4c-1.1 1.1-2.1 1.7-4 1.7-2.9.1-5-2.2-5-5.1z"/><path fill="#e6e6e6" d="m525 425.3h3.4l4.2 13.2 4.4-13.3h2.6l4.4 13.3 4.2-13.2h3.3l-6.2 18h-2.7l-4.4-12.8-4.4 12.8h-2.7z"/><path fill="#e6e6e6" d="m551.2 436.4c0-3.9 3.1-7 7.2-7 4.2 0 7.2 3.2 7.2 7s-3.1 7-7.3 7c-4.1 0-7.1-3.1-7.1-7zm11.2 0c0-2.3-1.7-4.3-4.2-4.3s-4.1 2-4.1 4.3 1.7 4.3 4.1 4.3c2.7.1 4.2-1.9 4.2-4.3z"/><path fill="#e6e6e6" d="m567.8 429.7h3.1v3c.8-2 2.4-3.4 4.8-3.3v3.2h-.2c-2.7 0-4.6 1.7-4.6 5.4v5.1h-3.1z"/><path fill="#e6e6e6" d="m577.5 424.5h3.1v11.1l5.6-6h3.8l-5.4 5.5 5.5 8h-3.5l-4.1-5.8-1.9 2v3.9h-3.1z"/><path fill="#e6e6e6" d="m590.1 436.4c0-3.9 3.1-7 7.2-7 4.2 0 7.2 3.2 7.2 7s-3.1 7-7.3 7c-4.1 0-7.1-3.1-7.1-7zm11.2 0c0-2.3-1.7-4.3-4.2-4.3s-4.1 2-4.1 4.3 1.7 4.3 4.1 4.3c2.6.1 4.2-1.9 4.2-4.3z"/><path fill="#e6e6e6" d="m606.5 438.2v-8.6h3.1v7.6c0 2.1 1.1 3.3 2.9 3.3s3-1.3 3-3.3v-7.6h3.1v13.4h-3.1v-2.1c-.8 1.3-2.1 2.3-4.2 2.3-3 .2-4.8-1.8-4.8-5z"/><path fill="#e6e6e6" d="m622.2 439.4v-7.1h-1.7v-2.6h1.7v-3.7h3.1v3.7h3.6v2.6h-3.6v6.6c0 1.2.6 1.7 1.7 1.7.7 0 1.3-.2 1.9-.5v2.5c-.8.5-1.7.7-2.8.7-2.3 0-3.9-.9-3.9-3.9z"/><path fill="#e6e6e6" d="m631.5 425.3h3.2v15h9.4v2.9h-12.5v-17.9z"/><path fill="#e6e6e6" d="m654.3 443.1v-1.7c-.9 1.1-2.3 2-4.4 2-2.6 0-4.8-1.4-4.8-4.2 0-3 2.3-4.4 5.4-4.4 1.7 0 2.6.2 3.7.5v-.2c0-1.9-1.2-2.9-3.3-2.9-1.5 0-2.6.3-3.9.8l-.8-2.5c1.5-.7 2.9-1.1 5.1-1.1 4 0 5.9 2.1 5.9 5.7v8zm.1-5.6c-.8-.3-1.9-.5-3.1-.5-2 0-3.1.8-3.1 2.1s1.1 2 2.6 2c2 0 3.5-1.1 3.5-2.9z"/><path fill="#e6e6e6" d="m663.3 441.1v2.1h-3.1v-18.7h3.1v7.4c1-1.4 2.4-2.5 4.5-2.5 3.2 0 6.3 2.5 6.3 7s-3.1 7-6.3 7c-2.2 0-3.6-1.1-4.5-2.3zm7.7-4.7c0-2.6-1.7-4.3-3.9-4.3s-3.9 1.7-3.9 4.4c0 2.6 1.8 4.3 3.9 4.3s3.9-1.7 3.9-4.4z"/><path fill="#e6e6e6" d="m675.3 441.4 1.4-2.1c1.4 1.1 3 1.7 4.4 1.7s2.1-.5 2.1-1.5-1.3-1.4-2.8-1.8c-.1 0-.2-.1-.2-.1-2-.6-4.2-1.4-4.2-4s2.1-4.1 4.8-4.1c1.7 0 3.5.6 5 1.5l-1.2 2.2c-1.3-.8-2.6-1.3-3.8-1.3s-1.9.5-1.9 1.4 1.3 1.4 2.8 1.8c.1 0 .2.1.2.1 2 .6 4.2 1.5 4.2 4 0 2.9-2.2 4.2-5 4.2-2 0-4.1-.7-5.8-2z"/></g>
</svg>
