<?xml version="1.0" encoding="utf-8"?>
<!-- Generator: Adobe Illustrator 23.0.1, SVG Export Plug-In . SVG Version: 6.00 Build 0)  -->
<svg version="1.2" baseProfile="tiny" id="Layer_1" xmlns="http://www.w3.org/2000/svg" xmlns:xlink="http://www.w3.org/1999/xlink"
	 x="0px" y="0px" viewBox="0 0 900 600" xml:space="preserve">
<g>
	<path d="M723.32,21.08c-8.33-16.26-27.1-11.75-31.25-3.46c-0.81,1.32-1.93,1.83-3.36,1.43c-0.71-0.71-0.73-1.62-1.02-2.44
		c-6.45-18.23-24.83-22.04-36.54-8.45c-10.57,12.27-14.11,32.97-6.82,47.13c-5.09,3.36-6.41,9.26-10.18,13.74
		c-11.3-1.12-17.3,7.13-24.02,14.15c-23.79-4.5-21.49,2.63-44.99,14.15c0.41-4.06,4.69-1.89,5.29-4.78
		c1.08-5.2,4.56-9.57,4.89-15.06c0.67-11.4,4.98-10.82,0.71-19.65c0.09,2.02-2.38,21.66-5.6,30.33c-3.14,8.45-8.44,4.18-15.78,5.6
		c2.44,2.85,5.7,1.22,8.35,2.54c-1.53,5.7-1.53,11.3,0,17.41c2.95-2.75,1.73-5.9,1.83-8.75c5.33,1.07,12.77,46.87-10.08,43.97
		c0.1-2.34,0.71-4.78-0.61-7.74c-1.02,2.75-0.51,5.29-1.43,7.43c-1.5,0-13.19-2.52-17.1-10.89c-10.42-22.33-3.83-12.31-11.6-31.15
		c-1.05-2.53-1.93-5.29-2.14-8.24c4.42-1.7,9.6-2.19,9.77-7.13c0.18-5.29,1.87-10.49,1.12-15.88c-0.39-2.75-0.81-5.6,1.43-8.35
		c-2.14,0.2-3.36-0.31-3.46-2.24c0.81-0.51,2.04,0.2,2.54-1.12c0.19-1.58,0.11-3.25,0.75-4.84c1.37,1.32,1.39,3.23,2.2,5.04
		c3.36-7.23,6.31-14.86,10.89-21.58c2.34,0.61,3.36-1.73,5.29-2.44c-0.71-1.43-1.22-2.65-1.73-3.77c-1.53-0.2-2.95-0.41-4.89,0.1
		c1.43-1.02,1.73-2.34,3.05-2.34c2.24,1.12,4.48,2.04,5.6,5.7c1.15-8.03,11.74-0.45,20.05-3.87c-0.51,5.39,1.53,10.08,2.14,14.66
		c-8.45,3.66-9.16,4.58-7.84,10.69c1.34-6.26-0.13-1.55,7.53-4.68c0.81-2.75,2.72-5.79,1.83-8.45c-1.47-4.36-1.22-8.75-2.14-12.93
		c1.83-3.16,5.39-3.77,7.84-6.41c-1.43-1.02,0.41-2.34-0.2-3.36c-1.73-1.12-3.36,0.31-4.89-0.31c0.61-1.63,3.46-1.12,3.46-3.56
		c-2.14-1.63-3.77,0.31-5.5,1.02c-0.31-2.24,0.71-4.48-0.71-6.51c-1.53,0.92-2.24,2.54-3.87,3.16c-2.49-4.02-7.46,1.16-10.59,0.41
		c-4.49-1.08-8.96,0.1-13.13-0.31c-1.32,0.81-1.32,2.85-3.36,2.54c-0.71-0.51,0.81-2.44-1.22-2.34c-2.85,3.16-4.48,3.97-9.16,4.68
		c-1.73-1.02-2.95-3.46-5.7-2.14c-0.31,1.73,1.63,2.04,1.93,3.36c-1.9,1.4-1.74,3.68-2.9,5.4c-0.41,0.1-0.97,0.19-0.97,0.3
		c0.44,6.39-6.55,13.25-4.38,22.8c0.72,3.15,3.27,5.81,1.83,9.47c-0.2,0.51,0.5,1.53,0.92,2.34c2.72,5.33,1.68,8.87,3.97,13.74
		c2.06,4.37-1.63,12.62-5.8,15.06c-6.42,3.76-13.83,5.32-20.15,9.36c-12.75,8.15-12.12,4.46-21.68,11.91
		c-9.92,7.73-10.93,30.36-9.16,35.12c0.86,2.31-4.55,8.27-3.46,21.88c1.62,20.28,5.81,16,7.02,25.04
		c1.21,9.03-2.79,35.37,11.5,60.67c7.73,13.68,7.12,14.04,4.68,22.39c-18.41-21.04-21.07,23.7-12.01,55.17
		c0.82,2.85,2.54,4.99,5.39,6.11c-0.75,13.52-3.23,25.17-0.1,37.87c0.22,0.91,0.21,1.94-0.41,2.85c-2.62,3.88-1.63,8.14-1.73,12.72
		c10.46-3.77,5.06,1.91,8.65,13.74c4.44,14.65-4.12,13.78-7.63,37.56c-1.78,12.05-4.05,8.88,4.58,59.04
		c2.95,17.13,1.6,25.71,3.66,35.02c0.1,0.81,0.3,1.42-0.1,2.14c-2.7,4.86-0.71,10.69-2.85,15.68c-0.2,0.41-0.01,1.02,0.2,1.43
		c1.28,2.46,0.61,4.48-0.92,6.51c-2.96,3.96-2.82,10.23,1.83,13.54c1.13,0.8,2.57,1.93,2.54,3.36c-0.11,5.94,11.06,8.55,16.9,8.55
		c5.7,0,11.38-0.94,17-1.73c1.73-0.24,3.36-0.71,4.48-2.65c-17.11-38.06-15.47-33.49-13.54-33.49c0.43-3.14-5.49-2.19-1.42-8.75
		c1.01-1.63-0.19-3.15,0.31-4.68c0.63-1.93,0.4-3.76-0.81-5.6c-1.34-2.03-3.26-1.63-5.09-1.63c-2.47-15.94,8.07-42.9,11.5-62.4
		c1.51-8.58,0.9-17.28-0.92-39.09c-2.63,1.52-0.99,3.08-0.71,17.1c0.52,26.39,0.89,18.32-9.98,56.49c-1.02-8.65,0.2-17.1-0.51-25.55
		c-3.44,8.32-0.33,21.11-0.71,26.06c-0.72,9.16-2.44,18.22,0.1,27.38c-3.26,1.22-6.41,1.12-9.36,1.73
		c-0.81-2.44,0.41-4.99-1.22-7.53c-1.33,4.65,1.84,9.76-5.39,8.86c-4.82-68.12-15.11-71.37-1.83-109.42
		c4.44-12.74,0.69-25.37,0.1-30.23c3.87-4.65,17.83-0.11,37.15-4.28c5.36-1.53-1.69,5.13-5.5,32.27c-1.2,2.8-5.82,5.66-7.33,9.87
		c6.31-4.27,10.57-11.86,10.99-21.48c0.38-8.66,2.66-4.38,6.51-19.03c1.73-2.95,4.48-2.44,6.31-2.75
		c7.62-5.33,3.07-11.49,7.53-18.32c2.61,14.34-3.66,18.17,6.62,19.24c1.15,0,0.59,2.1,1.32,7.02c2.14,14.35,7.23,19.91,4.38,36.54
		c-4.79,27.88,0.25,25.33,3.66,48.45c2.12,14.36,6.46,28.4,6.31,43.06c-0.01,0.61,0.1,1.32,1.22,1.22
		c5.12-7.09-7.2-54.76-7.23-54.86c-8.44-28.86,1.53-38.57-1.22-55.58c-2.45-15.13-8.21-24.94-3.05-24.94
		c11.1,2.34,22.09,4.48,34,2.24c1.32,5.29-1.46,10.29-0.71,15.37c0.58,3.97-2.14,7.33-3.05,11.1c3.37,3.37-1.25-0.07-0.92,11.6
		c2.54-3.91,1.76-14.58,4.58,4.17c3.95,26.3-0.44,26.63-0.81,45.6c-0.28,14.15-2.44,28.3-2.65,42.55
		c-4.17-0.51-8.04,1.53-12.01,1.53c-0.97-2.74,0.53-7.61-1.53-9.67c-1.02,3.66-0.2,7.02-0.71,10.18c-1.43,0.81-3.08,0.8-3.87,2.04
		c-0.63,1,0.31,1.83,0,2.65c-7.32,6.73-0.99,8.4-4.07,13.03c-3.26,4.89-1.93,11.16-4.99,15.98c-1.37,2.16,5.17,8.42,7.63,9.47
		c10.08,4.28,11.06,0.79,15.37,3.56c1.93,5.9,3.16,6.78,9.47,7.63c20.84,2.83,25-5.45,26.57-5.8c5.58-0.76,1.2-8.53-2.75-12.72
		c-4.54-4.83-8.27-10.26-12.93-14.86c-5.02-4.96-8.24-10.48-8.35-17.51c-1.22-1.63-3.16-0.31-4.78-1.63
		c0.41-3.66-1.1-7.43-0.61-11.3c1.62-12.8,2.32-40.62,3.36-44.58c6.5-24.87-5.2-50.46-0.92-54.66c0.15-0.15,0.26-7.48,0-9.67
		c-0.62-5.19,2.54-9.16,3.16-13.64c5.66-0.94,9.4,1.79,9.57-2.54c2.38-60.74-8.47-73.09-9.06-82.25
		c-2.75-43.06-18.66-51.12-14.05-83.37c3.1-21.68,0.13-33.08,4.99-49.98c4.82-16.78-4.08-9.27-5.9,26.07
		c-1.95,37.73-1.85,28.93-6.21,30.94c1.12,0.81,2.34,0.1,3.77,0.81c-0.41,6.01,0.81,12.01,0.81,18.63
		c-23.62-2.75-47.03-0.61-70.54-1.32c-2.38-6.03-3.06-17.76-3.46-22.8c3.26-0.1,6.82-0.1,10.28-0.1c-2.11-1.76-6.97-0.29-11.2-1.93
		c-0.84-30.27-9.2-10.91,1.02-33.49c-0.41-4.28-0.1-9.16,1.93-14.25c-1.93-5.6,0.31-11.5-0.31-17.3
		c10.31-8.43,7.16-9.96,10.18-11.81c8.11-28.9-8.6-50.95-1.02-51.71c4.07,16.9,8.45,33.49,18.63,48.15c0.81,0.51,1.53-1.02,2.85-0.1
		c2.54,2.04,5.91,2.44,8.96,3.56c8.76,3.24,17.55-1.81,21.07-9.67c4.49-10.04,1.63-25.7-1.43-32.57c0.2-0.1,0.41-0.2,0.61-0.31
		c13.05,22.37,4.63,12.44,14.56,35.12c1.92,4.38,5.6,7.53,7.84,12.32c-0.3,3.95-0.69,8.48-1.09,13.03
		c0.41-0.53,7.22-26.26,8.83-39.7c0.39-3.26,1.94-5.6,4.89-6.92c5.19-2.34,10.28-5.2,15.88-6.41c23.75-5.14,23.15-21.04,38.27-28.09
		c20.88-9.74,22.78-40.82,24.63-31.55c3.66,12.74,20.86,20.86,33.08,6.72C726.92,51.42,729.2,32.55,723.32,21.08z M564.63,101.39
		c-0.71-0.81-0.61-1.22,0.1-1.73C565.54,100.27,565.34,100.78,564.63,101.39z M572.67,54.97c0.81-0.61,1.53-0.92,3.05-0.61
		C574.3,55.58,573.48,55.18,572.67,54.97z M580.61,27.18c-1.3,2.87-2.09,3.51-2.54,0.31C578.78,26.88,579.59,26.88,580.61,27.18z
		 M573.59,20.87c1.12,1.32,0,1.73-0.92,3.05C572.67,22.3,572.57,21.48,573.59,20.87z M561.17,32.48c1.02,0.2,2.04,0.51,2.65,1.83
		C560.53,33,560.67,33.47,561.17,32.48z M560.25,29.83c0.2,0.81-0.31,0.92-0.61,1.32C559.13,30.24,559.54,30.03,560.25,29.83z
		 M559.03,23.93c-0.61,1.22-1.43,1.93-2.65,2.14C555.98,23.83,557.3,23.72,559.03,23.93z M551.29,22.2c0.22,0.22-0.58,1.24-0.92-0.1
		C550.68,21.79,550.99,21.89,551.29,22.2z M531.24,44.79c0.92,1.73-0.81,2.85-0.51,4.28C530.32,47.64,529.82,46.22,531.24,44.79z
		 M530.83,54.87c2.75,0.2,2.85,0.51,2.95,4.28C532.56,57.82,530.63,57.11,530.83,54.87z M544.07,40.72c1.63,1.02,0.92,1.73-0.2,2.54
		C543.35,42.25,543.56,41.54,544.07,40.72z M542.44,24.84c0.61,0.81,0.1,1.22-2.44,1.93C540.81,25.66,541.52,25.05,542.44,24.84z
		 M543.66,31.46c-0.2,2.14-2.04,3.05-3.87,4.99C540.2,33.29,542.34,32.78,543.66,31.46z M538.98,46.52c0.2,1.63-0.51,2.04-1.53,2.34
		C536.84,47.34,537.86,47.03,538.98,46.52z M533.99,47.85c0.51-1.02,0.71-1.93,2.24-1.43C535.72,47.24,535.31,47.75,533.99,47.85z
		 M528.93,30.89c2.92-0.73,1.74-0.92,3.84,1.18c1.02,0.61,1.93-0.71,2.95,0c0.41,0.92-0.2,1.32-0.92,2.04
		c-2.14-1.63-4.38-1.32-6.41,0.81c-0.41-1.63,1.12-1.93,1.12-3.16c-0.2-0.71-1.32-0.41-1.73-0.92
		C528.18,30.96,528.55,30.95,528.93,30.89z M528.49,62.4c-1.02-1.43-3.05-2.75-0.71-4.89c1.22,0.31,1.63,1.12,2.24,1.83
		C529.71,60.37,528.49,61.08,528.49,62.4z M520.45,568.81c-0.49,0.98-1.02,0.36-1.02,0C519.43,568.14,520.29,568.14,520.45,568.81z
		 M519.74,566.06c-1.12,1.02-1.32-0.2-2.24-0.41C518.72,564.94,519.43,565.04,519.74,566.06z M500.6,539.69
		c15.35-4.6,11.71-1.83,12.32-0.81c1.12,0.41,1.22-1.12,2.44-0.92c0,4.38-2.04,8.45-2.34,12.93c-3.77,0.31-7.43,0.31-11.2,1.32
		c-0.51,13.31,3.25,6.24,16.39,10.18c-4.58,0.2-9.06-0.92-13.54,0.1c0.2,2.04,2.24,1.73,2.65,3.16c0.51,0.92-1.12,1.73-0.51,3.26
		c4.38,2.24,9.26,2.65,14.56,1.53c1.93,3.26,2.95,7.02,4.68,10.59c0.51,0.1,0.1-0.61,0.92-0.92c0.92,2.14,1.53,4.48,1.93,7.33
		c-10.99,1.12-21.99,4.58-32.67-1.63c-0.2-2.95-2.05-5.58-4.28-7.63c-3.18-2.93-3.99-8.67-1.12-11.91c3.56-4.02,0.92-5.7,0.92-7.43
		c0.2-1.73,0.81-3.46,0.71-5.09c-0.66-10.84,0.65-0.96,5.39-3.87C501.46,547.66,500.6,545.99,500.6,539.69z M510.48,554.55
		c1.22-1.12,2.34-0.92,3.46-0.61C513.94,555.28,514.46,554.55,510.48,554.55z M494.7,540c1.22-1.02,2.34-1.53,3.66-1.43
		c1.32,5.6,0.71,8.45-3.26,9.16c-1.63-0.61-1.02-2.44-2.24-3.66C495.21,543.46,494.09,541.53,494.7,540z M574.5,530.94
		c5.5-0.92,10.79-2.75,16.29-1.63c-3.36,2.85-8.04,0.31-11.4,2.85c-0.31,2.44,1.32,3.66,2.24,5.29c0,1.32-0.61,2.54-1.22,4.07
		c-1.53-1.43-3.25,0.29-4.89-0.51c-1.92-0.94-1.32-2.65-1.53-4.07C569.79,537.55,574.79,534.43,574.5,530.94z M609.21,556.59
		c-1.32-0.31-2.65-0.61-3.97-0.92C607.58,554.05,607.58,554.05,609.21,556.59z M599.95,553.03c-0.92,0.1-1.43,0.1-1.93,0.31
		C598.42,552.72,598.93,552.72,599.95,553.03z M598.32,542.44c0.54,1.09-0.06,0.95-1.12,0.71
		C597.81,542.85,598.12,542.65,598.32,542.44z M594.55,533.28c1.83,2.24,0.61,4.99,2.75,7.23c-3.46-0.41-6.23-1.66-8.96,0.1
		c-1.23,0.8-0.1,1.73-0.31,2.54c-1.53,0.92-3.77-1.12-5.09,1.02c0.81,2.54,3.05,1.63,4.68,2.04c-0.1,1.43-2.44,0.92-2.14,2.85
		c1.83,1.93,4.48,0.51,6.72,1.02c0.31,0.81-1.02,1.53,0.1,3.05c1.43,1.22,3.77-0.41,5.6,0.1c-0.1,1.32-2.54,1.43-1.93,3.26
		c1.43,1.43,2.75-0.41,4.07-0.1c2.95,3.46,6.62,1.93,10.48,1.53c2.95,5.29,9.26,8.24,11.5,14.56c-2.04,3.26-4.68,4.88-8.35,5.7
		c-6.88,1.55-23.96,3.62-24.63-3.46c-0.49-5.15-8.92-3.87-12.21-4.68c-6.42-1.58-7.13-2.04-11.4-7.84c1.32-2.34,2.45-4.89,1.63-7.94
		c-0.65-2.41,4.68-5.42,4.28-13.54c1.93,3.77,4.88,4.07,8.24,3.05c3.05-0.92,3.05-3.56,3.66-5.8c-0.41-1.63-2.04-2.34-2.34-4.58
		C585.6,533.79,590.18,533.18,594.55,533.28z M592.42,543.26c-0.42-0.21-0.71,0.26-0.71-0.2C592.19,543.05,592.16,543,592.42,543.26
		z M490.02,281.56c3.57,8.08,7.35,33.11,4.17,52.42c-0.89,5.38-1.93,6.31-6.41,6.51c4.28-21.07,2.95-41.63-3.97-61.89
		C487.06,277.69,488.54,278.22,490.02,281.56z M496.84,302.83c-3.26-8.65-3.36-17.2,0.1-26.06
		C501.31,285.22,501.21,300.08,496.84,302.83z M499.48,313.62c-0.61,0.61-1.32,0.61-2.44,0.2c0-11.67-0.41-8.86,2.04-8.86
		C500.5,308.02,499.99,310.87,499.48,313.62z M487.98,326.14c0-0.41,0-0.81,0.1-1.12C488.08,326.31,488.13,326.14,487.98,326.14z
		 M488.08,314.33c0-0.41,0-0.71,0.1-1.02C488.18,313.62,488.08,313.92,488.08,314.33z M486.02,293.74c-0.13-0.55-0.65-1.04,0.03-1.8
		C485.96,292.61,485.96,293.2,486.02,293.74z M486.45,295.7c-0.1-0.61-0.31-1.12-0.51-1.53
		C486.45,294.48,486.86,294.89,486.45,295.7z M483.91,339.47c0.61-0.41,1.22-0.81,1.73-1.22
		C485.44,339.17,485.54,340.7,483.91,339.47z M484.11,337.74c-0.31,0.31-0.2,1.12-0.2,1.63c-7.76-6.21-9.48-63.32-2.75-59.95
		c1.02,1.32-0.92,0.81-0.81,1.83C486.99,288.39,490.11,331.03,484.11,337.74z M548.44,367.87c0.71,1.22,1.02,2.44,1.12,3.56
		C548.65,370.52,546.41,370.01,548.44,367.87z M575.93,257.64c1.73,0.2,3.05,0.41,4.89,0.61c-1.93,0.41-1.32,2.24-2.44,2.85
		c-0.71-0.41-0.1-1.22-0.61-1.73c-1.43-0.61-0.92,2.44-2.75,1.43C574.7,259.77,575.62,258.96,575.93,257.64z M509.05,159.41
		c-0.61,0.61-0.92-1.22-2.14-0.2c-0.71,14.35,1.22,29.32-4.89,43.36c-1.22-0.71-0.31-3.05-2.44-3.56c-1.12,1.32-0.32,2.65,0,3.87
		c2.98,11.19,9.45,58.93,12.83,71.25c1.53,5.6,3.92,10.91,6.01,16.29c0.79,2.04,2.64,3.27,4.48,4.28c4.57,2.51,3.85,5.23,5.5,13.95
		c0.54,2.84,0.91,5.49-1.83,7.74c-1.12,0.91-1.32,3.05-1.93,4.68c-1.53,0.41-2.95,0.81-4.38-0.51c1.32-2.65,4.28-4.28,4.38-7.53
		c-3.26,3.66-5.5,8.55-12.11,7.84c2.04,2.34,3.97,2.14,5.9,0.71c1.12,0.61,2.04,1.22,2.95,1.73c10.95-0.37,3.61-14.12,11.5,10.79
		c0.9,2.85,2.65,3.85,5.39,4.17c5.91,0.68,8.38-0.6,9.67-6.41c0.63-2.85,3.05-3.87,4.78-5.7c-1.73-0.61-2.24,1.32-3.77,1.12
		c0.84-11.7,1.34-51.77-10.48-52.12c-1.22-4.48-1.53-8.96-2.54-13.33c-1.59,1.99-0.92,3.31,1.32,12.72
		c-1.53,1.63-3.77,1.32-5.7,2.65c0.51-5.9,0.61-11.5-0.2-17.1c-2.44,5.5-0.42,11.2-1.02,16.8c-0.62,5.8-3.36,11.1-3.16,17.2
		c-8.85-2.38-8.44-8.25-13.54-28.3c-0.41-1.63,0.41-2.85,0.51-4.28c-0.2-0.81-1.53-0.51-1.42-1.63c1.02-1.22,2.54-0.2,3.77-0.51
		c-0.55-3.69-5.09,1.67-4.68-4.48c69.18,1.37,61.87,1.78,61.48,5.7c-1.93,0.81-2.75-0.31-3.46-1.83c-3.72,5.11-4.38-5.18-4.38,1.83
		c0.92,1.32,2.44,1.02,3.36,1.83c1.02,2.34-0.92,5.6,2.14,7.74c1.52-3.96-2.01-8.59,3.26-7.63c-0.2,4.99,4.78,5.7,7.23,8.75
		c-0.81-3.26-4.28-5.19-4.78-8.55c1.73-1.02,3.16,0.2,4.89-0.2c0.41-1.22,0.92-2.54,1.43-3.87c2.06,10.69,9.03,17.32,12.93,52.63
		c2.07,18.81,2.03,18.46,3.46,19.03c1.82,0.73,6.06,32.24,6.31,36.34c0.51,8.45-0.51,16.8-0.92,25.45
		c-10.99-0.51-21.58,1.08-32.27,0.61c-6.43-0.28-17.22-4.51-21.58-4.68c-0.01-0.1-1.95-16.49-2.04-16.59
		c1.06-1.06,1.99,9.56,4.17,13.33c-2.11-20.3-9.35-21.67-2.75-22.5c2.85,4.99,4.78,10.28,7.53,15.37
		c-3.32-17.06-12.78-8.75-2.14-46.31c-3.87,5.5-6.09,11.79-7.43,18.32c-0.54,2.64-2.03,4.89-2.54,7.53
		c-4.64,24.06,0.17,15.91-5.9,31.86c-17.51,2.24-35.22,2.14-53.13,3.16c1.93-6.62,1.93-12.93,0.51-19.44
		c-1.28-5.89-0.73-10.17,1.32-30.74c10.15,0,7.46-14.24,8.75-25.24c0.92-0.31,1.84-0.21,2.14,0.41c1.79,3.74,5.57,3.53,8.65,4.58
		c1.92,0.65,3.64,0.19,4.68-1.93c0.6-1.23,2.04-1.83,2.54-3.77c-2.54,0.71-3.36,3.05-5.19,4.28c-1.53-0.2-3.36,0.2-4.89-0.92
		c0.41-1.43,2.04-2.14,2.24-4.07c-1.93,0.61-2.44,2.44-3.87,3.16c-2.04-0.61-3.33-1.42-2.44-4.17c2.75-8.54-2.3-10.83,0.1-19.44
		c2.32-8.31-2.4-14.09,0-16.69c-2.36-1.38-0.33,1-12.52-24.02c-4.37-8.96-7.69-18.22-7.94-28.4c-0.09-3.56-2.96-7.23-1.73-10.48
		c1.92-5.09-0.17-9.87,0.31-14.76c1.06-10.82-6.2-15.32-5.9-25.24c7.31,2.29,4.48,4.21,7.02,5.39c0.41-2.65-3.56-8.86-7.63-12.01
		c-1.32-6.92,3.56-12.52,3.66-19.44c1.53,0.41,1.53,2.34,3.46,2.75c-1.93-4.68-2.75-9.36-3.87-13.95c-1.73,2.54,0.1,5.19-0.61,8.14
		c-2.34-5.29-0.84-10.18-0.2-14.96c1.08-8.15,6.7-12.87,13.74-15.57c6.69-2.57,7.87-4.88,24.63-12.83
		C522.64,137.85,521.49,149.77,509.05,159.41z M530.32,316.16c1.32-1.75,6.94,0.77,7.23-6.01c0.15-3.57-0.51-7.13-1.83-10.48
		c-2.04-0.31-4.07,0.41-6.31-0.51c-0.31-7.23-0.31-14.35,4.48-20.97C545.4,290.47,542.29,373.83,530.32,316.16z M536.84,277.69
		c11.67-3.89,13.27,41.9,9.57,54.86c-1.02,3.56-2.14,4.28-6.01,4.28C544.47,316.98,543.56,297.33,536.84,277.69z M535.21,301.81
		c1.02,3.56,1.12,6.82,0.71,10.18c-1.53,1.02-3.26,0.2-4.89,1.43C530.04,299.52,527.2,302.66,535.21,301.81z M641.68,38.58
		c0-37.95,40.44-53.86,40.61-12.21C682.47,66.86,641.68,77.22,641.68,38.58z M669.98,75.33c-7.61,6.7-6,6.69-8.04,7.63
		c-16.91,7.87-21.14,25.34-42.85,30.74c-4.89,1.22-9.56,3.47-14.15,5.6c-3.76,1.74-6.1,4.38-6.82,8.65
		c-4.7,27.79-3.19-6.7-0.41-17.71c-1.12,0.31-1.32,2.75-3.56,1.53c-3.27,33.04,3.14,26.12-1.02,39.8
		c-18.18-25.53-5.69-28.75-26.57-51.71c10.69-4.84,23.77-18.99,41.53-13.95c-0.61,4.38-5.6,6.41-5.29,11.1
		c13.39-18.75,18.52-23.82,29.11-23.92c10.94-0.11,1.74-3.97,13.54-15.47c4.07,5.19,9.87,7.67,16.18,8.55
		c6.92,0.96,12.01-3.05,16.8-7.53C676.8,64.85,675.02,70.9,669.98,75.33z M660.82,64.64c21.07-6.62,30.03-43.16,15.98-59.75
		C698.25,16.81,684.27,67.68,660.82,64.64z M690.34,64.95c-11.12-9.51-3.16-20.23,0.2-30.03c1.34-3.91-2.39-10.92-1.53-13.84
		c3.16,0.71,3.16,0.71,7.43,10.08c-1.43,2.34-2.43,5.09-2.85,7.94c-0.94,6.38-4.46,5.2-6.82,6.62c2.44,1.63,4.28,0.92,7.84-3.05
		c4.93,3.86,9.33-5.64,6.31-8.55c-5.03-4.85-4.05-9.74-8.75-14.05c9.88-16.59,29.35-7.6,27.99,16.9
		C718.99,58.05,702.35,75.22,690.34,64.95z M697.46,34c3.48,2.46,1.49,7.66-2.54,6.82C695.83,38.38,696.14,36.04,697.46,34z
		 M700.41,69.33c20.77-7.84,27.26-38.68,14.86-54.36C735.18,27.06,722.46,71.63,700.41,69.33z"/>
	<path d="M311.48,274.74c0.8-9.66,11.2-26.79,8.04-44.38c-0.72-3.99,4.33-8.83,0.92-14.86c-8.33-14.69,4.46-21.68-3.26-38.88
		c-4.61-10.28,1.02-22.51-2.75-33.29c-2.45-7.02-11.91-18.99-19.34-19.75c-5.17-0.53-8.9-4.01-10.08-4.17
		c-9.03-1.29-11.43-8.96-16.59-10.59c0.61-2.24,0-5.19,2.34-5.7c3.77-0.82,4.35-3.47,5.29-6.31c1.39-4.19,3.85-8.04,3.77-12.72
		c-0.16-8.57,5.15-8.54,0.51-18.12c0.16,2.51-2.59,22-5.5,29.72c-3.49,9.27-8.74,4.8-15.98,6.01c2.34,3.05,5.6,1.22,8.45,2.65
		c-1.83,5.6-1.53,11.3-0.2,17.41c3.16-2.65,1.83-5.9,1.93-8.75c4.71,0.86,13.52,46.45-10.18,43.97c0.31-2.34,0.71-4.68-0.81-6.92
		c-0.31,2.24-0.61,4.48-1.02,6.92c-6.62-2.14-13.34-3.86-16.69-10.38c-9.29-18.08-4.17-12.99-12.32-32.47
		c-3.66-8.77-1.76-8.05,2.04-9.16c2.94-0.86,5.72-2.54,5.8-5.9c0.13-5.5,2-10.8,1.12-16.29c-0.38-2.35-1.02-5.09,1.32-7.33
		c-1.73-0.41-3.56-0.51-3.36-2.75c0.81-0.2,1.73,0.31,2.65-1.02c0.31-1.12-0.41-2.95,0.92-4.38c1.12,1.43,1.32,3.05,1.43,4.58
		c1.32-0.2,1.74-1.22,2.04-2.14c2.33-7.31,8.79-19.5,9.57-19.34c2.74,0.56,3.36-1.93,5.19-2.65c-0.61-1.32-1.12-2.44-1.63-3.46
		c-1.02-0.71-2.75,0.31-3.16-1.73c1.53-1.53,2.54,0.31,3.77,0.61c1.73,0.42,1.83,2.34,2.95,3.16c1.22-0.51,0.2-1.64,1.02-1.93
		c6.28-2.24,12.62,2.04,19.44-0.92c-0.92,5.5,1.73,9.98,2.04,14.76c-8.35,3.46-9.36,4.99-7.74,10.38c0.71-0.92,0.1-2.24,1.12-3.16
		c1.02-0.1,2.04,0.41,3.16,0c1.02-0.31,2.04-0.71,3.16-1.02c0.81-2.95,2.77-5.91,1.83-8.65c-1.5-4.39-1.22-8.86-2.14-12.83
		c1.83-3.26,5.29-3.87,7.74-6.31c-0.71-1.12-0.1-2.34,0-3.56c-1.43-1.02-2.95,0-4.38-0.61c0.51-1.53,2.85-1.12,2.95-2.95
		c-2.24-1.22-2.24-1.12-5.6,0.71c-0.2-2.24,0.81-4.58-0.71-6.62c-1.53,0.81-2.04,2.54-3.66,2.95c-3.04-3.24-7.7,1.22-10.89,0.61
		c-4.49-0.86-8.75,0-12.93-0.31c-1.43,0.81-1.53,3.05-3.56,2.65c-0.51-0.81,0.61-2.14-1.12-2.54c-2.34,2.75-5.29,4.78-9.36,4.78
		c-1.63-1.02-2.95-3.36-5.6-2.24c-0.31,1.83,1.53,2.24,1.93,3.46c-1.51,1.71-2.81,3.52-2.35,6.02c-0.37-0.32-0.75-0.4-1.21-0.21
		c0.1,2.24-0.71,3.97-1.93,5.8c-1.22,1.83-0.53,4.37-1.63,6.41c-5.05,9.35,2.98,14.28,0.92,20.05c-0.22,0.61,0.52,1.62,0.92,2.34
		c2.77,5.08,1.82,9.28,3.97,13.74c2.12,4.39-1.53,12.62-5.7,15.06c-6.42,3.76-13.83,5.32-20.15,9.36
		c-20.28,12.97-27.24,6.48-31.35,35.63c-0.5,3.56-0.99,7.52,0.31,11.3c0.81,2.37-4.66,8.44-3.46,21.88
		c1.89,21.31,5.67,14.83,7.23,25.85c1.27,8.99-0.37,15.23,0,16.69c3.48,13.75-0.5,22.52,11.5,43.67
		c7.26,12.79,7.18,13.23,4.58,21.78c-1.63-1.32-2.24-3.16-4.17-3.87c-5.29-1.94-10.4,0.81-11.4,7.02
		c-2.06,12.78-2.85,53.41,8.96,58.53c-0.64,12.79-3.68,24.96-0.1,37.46c1.17,4.08-2.6,0.65-1.93,15.98
		c9.86-4.73,5.52,3.45,8.55,13.44c4.54,14.97-4.03,14-7.63,38.27c-1.62,10.91-3.81,8.29,4.68,58.63
		c3.16,18.71,1.43,25.92,3.66,35.02c0.2,0.82,0.11,1.43-0.2,2.14c-2.2,5.01-0.81,10.69-2.75,15.78c-0.81,1.61,2.76,2.11-0.61,7.63
		c-6.71,11.02,4.52,13.86,4.28,17.3c-0.8,11.37,35.36,9.2,38.17,4.38c-0.85-3.5-14.61-33.59-14.66-33.69
		c0.31-0.92,1.45,0.2,1.32-0.92c-0.17-1.53-2.34-1.73-2.65-3.56c1.02-5.5,4.58-11.3-0.41-16.08c-1.63-0.71-2.65,0.1-3.66-0.61
		c-1.58-6.01,1.94-27.64,3.77-32.57c8.26-22.26,8.89-36.29,8.24-47.23c-1.29-21.98-0.89-21.2-2.25-21.2
		c-0.82,5.05,1.53,25.64,0.42,34.44c-2.38,18.77-4.22,17.61-9.87,39.09c-1.02-8.75,0.1-17.2-0.61-25.65
		c-1.93,4.78-2.04,9.77-1.32,14.56c2.17,14.46-2.63,24.76,0.71,38.58c-3.05,1.22-6.11,1.32-9.16,1.73
		c-0.52-1.38-1.29-15.26-1.93,0.2c-1.53,1.22-3.05,1.32-4.99,0.92c0-19.55-3.02-28.82-3.77-36.44c-5.14-52.2-5.22-17.58-3.16-53.64
		c0.42-7.33,3.68-13.43,5.6-20.15c3.67-12.85,1.34-18.48-0.2-29.32c5.15-4.29,17.64-0.65,37.05-4.17c0.61-0.11,1.22,0,2.14,0
		c-8.86,23.27-4.13,30.5-11.81,37.25c-1.41,1.24-2.75,2.75-3.56,4.99c5.91-1.18,11.5-14.25,11.5-22.7c0-6.04,2.13-2.79,6.62-18.32
		c1.32,0,1.73-1.6,3.26-1.83c11.11-1.67,5.44-11.37,10.48-18.53c1.02,4.38,0.3,8.35,0.51,12.32c0.48,9.4,2.24,4.89,6.92,7.23
		c-0.22,10.82,4.7,22.39,4.89,24.63c2.17,25.53-6.61,33.49,1.53,54.46c0.13,0.25-0.65-3.15,5.8,31.45
		c4.67,25.07,1.04,23.87,3.56,25.24c9.01-10.07-15.61-58.33-8.75-94.87c4.76-25.39-9.55-34.93-2.85-40.51
		c41.4,7.33,30.57-1.86,35.63,4.89c-0.1-0.92-0.2-1.83,0.92-2.34c0.31,1.12-0.92,1.43-0.92,2.34c-5.66,7.92-0.88,12.57-6.72,23.21
		c0.81,0.41,1.53,0.92,1.53,2.04c-2.34,2.65-2.24,6.01-2.04,10.08c2.7-8.1,2.3-11.79,4.58,3.77c3.97,27.08-0.43,25.57-0.81,45.19
		c-0.28,14.35-2.54,28.6-2.65,42.96c-4.17-1.02-8.04,1.43-12.21,1.22c-0.41-3.26,0.31-6.41-1.02-9.26
		c-1.12,3.16-0.61,6.41-0.92,9.57c-1.22,1.12-3.26,0.81-4.28,2.85c-0.31,0.41,0.71,1.22,0.31,2.24c-6.3,4.9-2.17,6.93-3.87,12.52
		c-1.24,4.07-4.19,7.61-3.16,12.32c0.37,1.69-3.6,4.01-1.73,6.11c2.45,2.74,4.28,6.38,8.14,7.63c12.05,3.91,10.43,0.39,14.86,3.46
		c1.53,5.39,3.05,6.88,8.45,7.43c7.29,0.74,22.9,1.79,25.85-5.5c4.38-0.92,4.69-1.53,3.87-5.29c-0.8-3.67-3.36-5.9-5.8-8.45
		c-4.38-4.58-7.74-9.97-12.32-14.35c-4.99-4.78-8.14-10.28-8.14-17.3c-1.22-1.53-3.16-0.41-4.68-1.43c-0.2-3.77-1-7.63-0.61-11.4
		c1.31-12.57,2.52-41.32,3.36-44.89c5.66-23.99-3.51-50.28-2.75-51.3c3.16-3.66,1.9-8.14,1.63-12.11
		c-0.36-5.29,2.65-9.36,3.26-13.95c3.26-0.92,6.21,0.31,9.36-0.71c4.78-50.31-9.9-76.39-4.17-72.58c8.69,6.91,23.42,6.77,29.3-6.84
		c-1.58,3.14-5.54,9.05-12.61,10.1c17.71-11.81,14.45-46.62-2.34-56.59c15.25,3.49,20.3,23.84,17.51,38.34
		C344.32,295.05,332.87,270.26,311.48,274.74z M278.6,62.51c0.71-0.51,1.22-0.61,2.14-0.2C280.13,63.52,279.52,63.12,278.6,62.51z
		 M286.13,34.72c-0.2,1.32-0.92,2.04-1.53,2.75C283.49,35.43,283.49,35.43,286.13,34.72z M278.9,28.51
		c1.12,1.43,0.31,2.04-0.81,2.95C277.89,30.14,278.19,29.42,278.9,28.51z M270.35,42.05c-1.93-0.1-3.05-0.41-4.28-1.83
		C267.81,40.42,268.83,41.03,270.35,42.05z M263.43,40.11c-0.51,0-0.81-0.31-0.71-1.12C264.21,38.78,264.5,40.38,263.43,40.11z
		 M264.55,31.87c-0.41,1.32-1.73,1.53-2.65,2.95C262.11,31.97,262.11,31.97,264.55,31.87z M249.69,48.56
		c1.53,1.02,0.61,1.73-0.51,2.75C248.98,50.19,248.88,49.37,249.69,48.56z M248.16,32.78c-0.31,1.32-0.92,1.83-2.14,1.63
		C246.33,33.29,247.04,32.88,248.16,32.78z M249.18,38.99c-0.51,2.34-0.61,2.54-3.87,4.48C246.13,41.13,247.76,40.21,249.18,38.99z
		 M244.7,51.72c0.1,0.51-0.1,0.81-0.61,0.92C243.99,52.12,243.89,51.61,244.7,51.72z M244.3,54.46c0.71,1.53-0.51,1.73-1.22,2.85
		C242.36,55.28,243.18,54.97,244.3,54.46z M243.18,64.34c0.2,0.61,0,1.02-0.81,1.43C242.46,64.85,242.57,64.44,243.18,64.34z
		 M236.56,52.63c1.22,1.63-0.71,2.75-0.41,4.07C235.75,55.28,235.24,53.95,236.56,52.63z M236.36,62.1
		c2.75,0.41,2.75,2.24,2.95,4.28C237.27,65.46,236.15,64.44,236.36,62.1z M241.65,54.06c0,1.32-1.12,1.22-2.24,1.93
		C240.02,54.67,240.02,53.55,241.65,54.06z M234.3,39.03c0.59-0.33,1.23-0.65,1.95-1.06c1.22,1.53,2.65,2.75,4.58,1.73
		c0.71,1.12-0.2,1.43-0.31,2.54c-2.44-1.83-4.58-1.43-6.51,0.2c-1.53-1.12,2.75-2.24-0.2-3.16c0.72-0.41,0.6-0.21-0.73-0.21
		C233.51,38.95,233.91,38.95,234.3,39.03z M234.02,70.14c-1.32-1.53-2.85-2.85-1.02-4.48c1.43-0.2,1.83,0.81,2.44,1.43
		C235.34,68.41,233.71,68.71,234.02,70.14z M225.16,573.69c-0.71,1.02-1.22,0.41-2.04-0.1
		C224.24,572.37,224.65,572.98,225.16,573.69z M200.02,548.14c1.22-1.32,2.34-1.83,3.77-1.53c1.32,5.7,0.61,8.35-3.26,8.96
		C197.07,553.13,200.63,550.48,200.02,548.14z M203.07,557.71c5.13-3.21,1.75-4.97,3.26-10.38c2.97-1.19,9.49-2.44,11.1-2.44
		c1.22,0.41,0.31,1.32,0.92,1.63c1.02,0.2,1.22-1.22,2.44-0.92c-0.1,4.28-2.04,8.35-2.34,12.72c-3.77,0.61-7.63,0.41-11.2,1.53
		c-0.79,11.45,2.89,7.47,9.16,9.16c2.34,0.63,4.99-1.12,7.53,1.12c-3.45,0.86-9.37-1.51-13.74-0.2c-0.31,2.34,2.04,1.93,2.44,3.26
		c0.61,1.12-1.12,1.93-0.31,3.56c4.38,2.24,9.36,2.24,14.76,1.53c6,14.15,3.86,9.75,5.39,9.36c0.92,2.24,1.73,4.58,1.93,7.53
		c-14.24,0.88-15.88,4.71-32.47-1.32c-0.41-3.16-2.03-5.91-4.38-8.04c-3.36-3.06-4.08-8.66-1.02-12.11c1.63-1.84,1.75-3.47,1.22-5.7
		c-0.88-3.67,0.41-7.63,0.2-11.6C199.61,557.61,200.94,559.04,203.07,557.71z M219.56,562.6c-1.43-0.2-2.95-0.41-4.38-0.61
		C216.71,561.78,218.34,560.97,219.56,562.6z M279.82,538.57c5.8-0.92,11.1-2.54,16.69-1.83c-3.26,3.16-7.94,0.61-11.4,3.05
		c-0.61,2.44,1.32,3.66,2.24,5.6c-0.51,1.12-0.92,2.34-1.32,3.66c-6.41-0.81-6.41-0.81-6.72-4.38c-0.51,0-0.92,0.1-1.43,0.1
		C277.89,542.44,280.64,541.22,279.82,538.57z M314.33,564.43c-1.22-0.31-2.44-0.61-3.87-0.92
		C312.8,562.09,312.8,562.09,314.33,564.43z M299.98,540.81c1.93,2.24,0.81,4.89,2.44,7.02c-1.05,0.09-11.19-2.2-8.86,2.85
		c-1.73,0.71-3.46-0.51-4.99,0.81c0.41,2.54,2.75,1.83,4.38,2.54c-0.31,1.02-2.04,0.92-1.83,2.65c1.63,2.04,4.28,0.2,6.41,1.22
		c0.56,1.31-3.01,3.16,6.31,2.95c-0.61,1.22-2.54,1.32-2.54,3.16c1.32,2.04,2.85-0.41,4.68,0.51c1.63,1.83,4.58,2.24,9.98,0.81
		c2.95,5.5,9.47,8.45,11.6,14.66c-2.14,3.66-5.19,5.18-8.96,5.9c-7.5,1.45-23.03,3.4-24.33-4.17c-1.24-7.25-15.47,1.25-23.31-12.01
		c4.25-6.68-0.35-7.57,3.05-11.4c2.44-2.75,2.44-6.11,2.85-9.67c1.53,1.12,2.34,3.37,4.48,3.26c4.87-0.25,6.46-0.44,7.43-6.62
		c-0.41-1.43-2.14-2.04-2.14-4.07C291.22,541.53,295.7,540.81,299.98,540.81z M297.74,550.89c-0.51,0-0.92,0-1.53-0.1
		C296.82,550.28,297.43,550.59,297.74,550.89z M297.02,127.55c7.53,2.65,17.45,13.33,17.3,25.85c-0.08,6.41-0.35,12.82,0,19.24
		c0.43,7.83,6.98,11,2.75,25.24c-4.33,14.58,6.4,19.11,2.34,27.38c-2.86,5.83,0.92,3.85-2.14,24.94c-1.6,11.01-7.37,12.12-7.74,39.6
		c-0.03,2.03-3.45,8.98,0.81,16.59c1.31,2.35-0.51,4.78-0.41,7.13c-1.93,0.92-3.97,0.41-5.7,2.54c-0.3-3.2,0.29-16.25-5.8-26.36
		c-2.87-4.76,2.09-9.58-0.61-25.65c-5.06-30.08,3.54-31.16,1.93-37.76c-11.05,13-2.88,32.55-3.66,49.88
		c-5.76-10.3-0.08-10.3-4.17-13.64c-4.39-3.59-0.25-37.2,0.41-48.55c2.65,4.48,3.97,8.86,4.68,13.44c1.63-3.16,0.92-6.52-0.2-9.26
		c-10.28-25.21,2.97-38.13,6.11-46.82c1.53-0.31,0.81,1.73,1.93,1.73c1.05,0.18,1.04-1.85,0.92-2.04
		c-3.83-8.07,1.74-18.35-2.14-21.68c-1.53,8.75-1.53,17.3-5.6,24.84c-2.14,0.41-2.16-1.61-2.95-2.65
		c-6.68-8.74-4.05-12.48-6.62-19.03c-4-10.24-2.81-13.71-8.14-31.66C285.83,124.09,291.53,125.62,297.02,127.55z M288.98,266.69
		c2.85,5.39,6.31,10.59,6.51,17.91c-5.09-4.78-11.1-7.43-12.93-14.05c2.04-1.02,3.66,0.71,5.39,0
		C287.86,269.14,288.37,267.92,288.98,266.69z M283.89,268.93c-0.81-0.2-0.1-1.22-0.81-1.83c-1.12,0.2-0.92,1.83-2.24,1.93
		c-1.02-1.32,0.31-2.24,0.41-3.36c1.83-0.31,3.46,0,5.39,0.41C284.4,265.88,285.11,268.02,283.89,268.93z M283.69,276.26
		c-2.34,0.61-4.07,0.31-6.01,0.1c-1.45-5.79-0.12-6.23,2.44-5.8C280.33,272.7,280.94,274.74,283.69,276.26z M287.76,284.61
		c10.27,11.32,13.36,36.68,1.73,50.49c-8.42,10-20.45,5.07-25.96-4.99C246.09,298.27,269.5,264.47,287.76,284.61z M283.99,279.42
		c20.72,0.61,27.35,57.84,1.63,61.18C303.84,328.79,301.91,291.53,283.99,279.42z M224.04,107.5c2.97-2.23,3.07,24.73,19.44,48.15
		c0.92-0.1,0.41-0.81,0.81-1.32c25.53,16.73,41.22-5.98,31.35-35.42c-0.73-2.17-0.72-1.52-0.41-2.14c4.57,0,9.11,51.48,22.19,59.24
		c-0.61,2.24-2.54,3.97-3.36,6.31c-1.93-0.61-3.16,0.51-4.58,1.43c1.12,1.02,2.34,0,3.26,0.71c-3.97,18.73-2.75,37.97-5.5,56.9
		c-2.35,1.81-8.74,1.22,0,1.73c-0.2,6.11,0.71,12.11,1.02,18.73c-23.62-2.95-47.13-0.61-70.64-1.43
		c-2.82-6.88-2.65-18.91-3.66-23.21c14.06-0.35,20.5,1.18-0.61-1.22c-0.2-7.53-1.22-14.86-4.28-21.78c2.04-5.8,4.48-10.79,5.6-11.4
		c-1.32-4.58,0.2-8.96,0.51-13.13c1.12-0.92,1.83,0.41,2.44,0c-4.68-6.11-0.71-12.93-1.83-19.14
		C241.8,151,218.94,110.55,224.04,107.5z M195.54,289.39c3.86,8.64,7.9,31.83,4.38,51.91c-1.23,7.02-3.08,7.11-7.13,6.72
		c4.99-15.06,3.05-46.11-3.97-61.68C192.69,285.53,194.03,286.03,195.54,289.39z M202.56,311.38c-3.77-10.99-3.77-16.08-0.41-26.36
		C206.02,290.01,207.37,303.37,202.56,311.38z M202.97,322.17c-0.65-1.63-0.51-2.65-0.51-9.47c3.16-0.71,2.76,1.83,3.05,3.46
		C206.05,319.21,205.11,321.36,202.97,322.17z M193.71,332.45c0,1.34-0.16,0.92-0.31,0.92C193.4,332.35,193.51,332.45,193.71,332.45
		z M193.5,321.05C193.61,321.25,193.61,321.46,193.5,321.05L193.5,321.05z M191.37,299.37c0,0.2-0.02,1.2-0.31,0.92
		C191.06,299.88,190.96,299.57,191.37,299.37z M187.19,343.34c-3.67-10.15-6.63-33.55-3.66-50.39c1.16-6.58,3.98-6.91,4.28-4.28
		c-0.71,0.2-1.22-0.92-1.83-0.2c0,2.27,7.87,4.32,6.62,47.54c-0.05,1.82-1.54,10.09-1.73,9.16c-0.61-0.31-1.32-0.71-1.93-1.02
		c0.71,0.92,0.1,2.85,2.04,2.44C190.96,348.23,189.16,348.77,187.19,343.34z M311.17,392.61c-0.4,2.44,0.1,4.89-0.51,7.43
		c-33.26-1.62-14.24,4.19-48.66-3.05c-1.52-0.32-3.05-1.12-4.89-0.92c-4.1-30.45-0.73-7.87,2.14-3.56
		c-1.63-5.9-1.32-12.42-5.19-17.71c0.2,1.12,0.41,2.34,0.71,3.56c-1.93-0.71-1.93-0.71-0.71-3.56c0.7,0.7-0.42-2.73-0.2-3.16
		c0.51-1.43,1.73-0.92,2.34-1.63c2.95,4.78,4.68,10.18,7.43,14.96c-3.24-13.86-8.36-13.16-6.82-22.39
		c0.48-2.9,3.46-21.67,3.35-21.56c-3.45,4.99-5.26,10.58-6.3,16.37c-0.5,2.75-2.15,5.09-2.65,7.84c-2.88,16-2.5,31.63-7.33,32.06
		c-17.01,1.52-34,2.24-51.61,2.65c4.48-14.72-2.57-6.7,1.83-49.98c10.5,0,7.49-16.67,8.65-25.96c12.87,10.11,14.49,5.01,18.63,0
		c-3.05,0.51-3.77,2.75-5.6,4.07c-1.43-0.1-3.05-0.2-4.68-0.31c-0.2-2.04,1.93-2.54,1.83-4.38c-1.83,0.31-2.24,2.34-3.77,2.95
		c-2.34-0.71-3.24-1.83-2.34-4.58c2.61-7.98-2.3-10.41,0-19.14c3.52-13.36-8.4-32.56-15.57-47.33c-5.23-10.77-3.66-22.6-7.33-33.18
		c2.53-1.52,1.86,5.06,1.02-15.98c-0.44-10.95-6.01-12.55-6.01-23.62c1.43,1.12,2.75,1.93,4.17,2.14c1.32,1.02,1.22,2.95,2.75,3.66
		c0.51-2.44-3.16-8.35-7.53-12.01c-1.32-6.92,3.56-12.52,3.66-19.14c1.63,0.2,1.43,2.14,3.46,2.34c-1.83-4.58-2.65-9.26-3.87-13.84
		c-1.63,2.75,0,5.7-0.1,8.55c-2.61-0.8-3.94-24.97,10.59-29.82c8.27-2.77,23.94-13.65,27.38-13.44c7.95,34.45,8.47,45.95-4.78,56.19
		c-0.71,0.2-0.92-1.32-2.04-0.31c-0.71,14.45,1.22,29.42-4.89,43.46c-1.12-0.92-0.61-2.85-2.14-3.77c-1.43,1.12-0.63,2.45-0.31,3.66
		c4.95,18.44,6.99,56.36,19.24,88.25c1.67,4.36,7.17,3.29,8.24,8.65c4.27,21.32,0.18,10.86-2.04,21.48
		c-1.73,0.71-3.16,0.92-4.58-0.41c1.43-2.54,4.28-4.28,4.38-7.63c-3.26,3.66-5.6,8.55-11.81,8.04c2.75,2.14,2.75,2.14,5.6,0.71
		c3.77,2.24,6.62,2.44,9.87-2.44c2.06,2.58,0.82,4.5,4.99,15.57c1.14,3.04,2.94,3.66,8.75,3.36c8.05-0.41,2.53-7.68,11.2-12.01
		c-4.08-0.97-4.13,5.01-3.97-2.65c0.23-11.09,0.54-47.53-10.48-48.15c-1.32-4.58-1.63-9.16-2.65-13.54
		c-2.14,4.48,1.53,8.65,1.02,13.13c-1.43,1.12-3.46,1.02-5.39,2.24c0.31-5.9,0.71-11.5,0.2-17.3c-3.99,1.33,0.11,13.18-1.93,20.15
		c-1.32,4.48-2.54,9.06-2.65,14.05c-4.99-1.32-7.51-4.59-8.65-8.96c-6.74-25.85-4.73-19.53-4.28-23.21
		c-0.1-1.53-1.63-0.92-1.43-2.04c0.92-1.43,2.44-0.1,3.66-0.61c-0.51-2.65-2.44-0.31-3.87-1.43c-0.51-0.51-1.02-1.32-0.61-2.95
		c68.33,2.72,61.88,0.5,61.28,5.9c-2.04,0.71-2.75-0.61-3.36-1.93c-0.92,0.41-0.61,1.73-1.83,1.73c-1.53,0-1.43-1.63-2.14-2.75
		c-0.61,1.22-0.51,2.24-0.2,3.16c3.55,3.55,3.46-2.83,3.46,7.84c-19.84,5.11-21.8,29.64-15.37,49.27c2.91,8.89,0.2,15.18,0.2,15.28
		c3.2-2.74,0.93-6.57,2.04-10.6c5.78,10.11,36.74,29.53,14.35,12.11c-1.57-4.7,17.46,10.14,26.36-19.85
		C305.2,324.8,314.16,374.3,311.17,392.61z M242.67,344.87c-5.09-6.21-4.58-13.84-7.02-20.46c1.44-2.64,6.95,0.36,7.33-6.11
		c0.22-3.77-0.41-7.33-1.93-10.79c-2.04-0.31-4.07,0.31-6.21-0.51c-0.31-7.23-0.31-14.25,4.48-20.97
		C247.64,293.07,249.12,336.43,242.67,344.87z M246.54,285.63c8.64,13.66,7.9,45.8,5.5,54.15c-1.2,4.15-1.93,4.78-6.21,4.99
		C255.56,298.21,234.39,281.07,246.54,285.63z M240.63,309.65c1.12,3.66,1.32,7.02,0.71,10.38c-1.53,0.81-3.05,0.41-4.68,0.71
		C234.22,306.92,234.91,310.29,240.63,309.65z M330.41,326.45c-9.16,13.36-24.45,5.12-26.97-8.24c3.05,0,4.59-2.43,7.13-3.16
		c1.73-0.5,1.43-2.95,2.14-4.48c3.77-1.83,4.75-3.56,4.28-6.82c-0.55-3.76-1.43-4.58-6.82-5.6c3.52-14.07-1.95-24.67,8.04-21.38
		C336.42,282.77,340,312.45,330.41,326.45z M312.19,300.9c2.44,1.53,2.85,3.36,1.32,6.11C312.29,304.87,312.5,302.83,312.19,300.9z"
		/>
	<path d="M337.94,321.97c-0.16,0.45-0.34,0.88-0.52,1.3C338.31,321.49,338.45,320.6,337.94,321.97z"/>
	<path d="M559.03,51.1c-3.77-0.2-7.74-0.92-10.79,2.85c1.93,0.41,2.85-1.22,4.78-1.53c1.12,1.93,3.87,0.2,5.9,2.04
		c-3.26,0.41-6.31,0.61-8.96,2.14C563.18,59.47,567.25,51.53,559.03,51.1z"/>
	<path d="M268.73,62.1c-1.83-4.48-10.18-4.89-15.06,0c3.66-2.65,7.02-1.12,10.38,0.2c-3.05,0.51-6.11,0.61-9.36,2.34
		C260.28,65.86,264.86,65.86,268.73,62.1z"/>
	<path d="M580.61,446.56c-1.08-4.56-2.98-3.25-2.65-1.32c2.72,15.92-0.21,17.84,2.65,21.27
		C579.68,465.11,583.71,459.68,580.61,446.56z"/>
	<path d="M283.89,451.44c-1.56,1.25,0.75,0.35,0.92,21.27c0.01,0.71,0.51,1.02,1.12,1.22C288.07,463.15,287.35,454.6,283.89,451.44z
		"/>
	<path d="M520.65,399.53c-1.02,1.63-2.46,2.93-3.97,4.38c-11.94,11.4-16.36,2.4-18.02,4.89C505.9,415,518.42,409.91,520.65,399.53z"
		/>
	<path d="M242.97,89.48c-1.12-3.66-2.75-7.23-2.54-11.2c-3.66,3.36,0.41,6.92-0.51,10.38C250.57,98.01,263.8,102.78,242.97,89.48z"
		/>
	<path d="M548.04,89.38c-7.28-7.65-12.83-4.43-12.83-18.93c-3.77,3.26,0,6.92-0.81,10.38C540.71,86.22,545.69,89.38,548.04,89.38z"
		/>
	<path d="M498.77,429.56c0-3.19-5.37,3.27-5.5,7.84c0.06-0.1,4.54-8.53,4.89-7.13c-0.5,5.72-4.31,8.25-4.17,12.21
		c0.19,5.39,1.53,10.89-0.1,16.39c2.54-3.46,2.54-7.23,1.83-10.99C493.76,437.46,502.68,429.07,498.77,429.56z"/>
	<path d="M247.04,127.14c3.56,1.73,6.99,3.3,10.08,5.8c4.23,3.43,8.29-3.56,4.99-2.24C256.88,133.32,256.49,127.75,247.04,127.14z"
		/>
	<path d="M551.7,123.17c-3.05-2.75-6.92-3.16-10.59-4.07c3.46,2.04,7.3,3.19,10.59,6.11c2.32,2.06,5.6,0.61,6.31-2.24
		C556.66,122.4,553.5,124.79,551.7,123.17z"/>
	<path d="M585.9,410.62c1.42-0.62,2.14-2.24,1.32-4.68c-2.54,6.51-8.86,4.17-13.03,6.82C575.31,415.84,581.81,412.4,585.9,410.62z"
		/>
	<path d="M508.03,432.31c-1.63-5.19-2.44-10.38,0.51-15.57C503.96,419.18,503.66,427.01,508.03,432.31z"/>
	<path d="M279.62,420.8c4.48,2.14,13.13-2.04,13.33-6.82C287.88,421.01,283.17,417.84,279.62,420.8z"/>
	<path d="M585.29,449.51c0-6.28,5.74-7.32,4.17-13.33c-1.22,5.29-7.02,8.75-5.39,14.96C584.99,450.93,585.29,450.22,585.29,449.51z"
		/>
	<path d="M290.71,457.35c0-6.39,5.68-7.17,4.28-13.33c-1.63,1.93-1.72,4.69-3.36,6.51c-2.22,2.46-2.54,5.39-2.14,8.65
		C290.41,458.77,290.71,458.06,290.71,457.35z"/>
	<path d="M267.1,92.84c2.75,1.12,5.19,0.71,7.74-0.31c-0.71-2.75-2.85-2.54-4.48-2.65C268.62,89.68,267.5,90.8,267.1,92.84z"/>
	<path d="M263.53,86.63c0,0.51,0,1.02,0.1,1.53c4.38,0.61,8.75-0.2,13.03-1.53C272.19,85.92,267.91,87.14,263.53,86.63z"/>
	<path d="M569.31,84.7c-0.71-2.65-2.65-2.5-4.38-2.65C561.52,81.76,558.47,88.03,569.31,84.7z"/>
	<path d="M557.4,80.52c5.09,0.41,9.36-0.71,13.64-1.22C567.99,77.98,559.44,78.79,557.4,80.52z"/>
	<path d="M250.4,110.04c1.63,2.95,0.31,6.72,2.85,9.36C252.24,116.25,253.66,112.38,250.4,110.04z"/>
	<path d="M544.88,102.41c1.73,2.95,0.41,6.82,2.95,9.36C546.51,108.72,548.34,104.75,544.88,102.41z"/>
	<path d="M249.49,103.83c-1.93-3.16-3.05-6.82-6.01-9.36C244.91,97.93,246.64,101.29,249.49,103.83z"/>
	<path d="M574.91,429.86c0.1,3.26,1.02,6.11,2.75,8.75C577.05,435.66,577.35,432.31,574.91,429.86z"/>
	<path d="M279.82,437.6c0.51,3.36,1.63,6.11,3.05,8.86C282.87,441.57,282.06,439.13,279.82,437.6z"/>
	<path d="M570.53,70.65c-4.38-0.92-5.29-0.61-5.7,2.34C566.05,70.75,569.51,73.91,570.53,70.65z"/>
	<path d="M543.46,95.28c-1.43-3.16-2.95-6.21-5.39-8.55C539.49,89.89,540.71,93.04,543.46,95.28z"/>
	<path d="M273,79.91c6.4,1.28-0.6-5.52-3.05,0.51C271.27,80.93,271.98,79.71,273,79.91z"/>
	<path d="M272.19,410.93c2.95,1.12,6.01,1.73,9.26,1.12C278.29,411.85,275.34,410.42,272.19,410.93z"/>
	<path d="M291.73,427.73c-2.24,0-3.66,1.32-5.7,2.24C289.49,431.29,290.31,430.98,291.73,427.73z"/>
	<path d="M566.66,403.09c3.05,1.32,6.21,1.53,9.47,1.53C572.97,404.01,570.02,402.58,566.66,403.09z"/>
	<path d="M586.41,419.68c-2.44,0.51-3.97,1.43-5.9,2.44C584.07,423.45,584.68,423.14,586.41,419.68z"/>
	<path d="M548.14,114.42c-0.92,2.44-0.71,4.07,1.12,5.8C549.87,117.98,549.66,116.35,548.14,114.42z"/>
	<path d="M512.41,467.73c-1.22,2.65-1.32,5.39,0,8.24C512.41,473.23,512.41,470.48,512.41,467.73z"/>
	<path d="M254.68,128.26c0.71-2.54,0.51-4.07-1.22-5.9C252.85,124.7,253.05,126.23,254.68,128.26z"/>
	<path d="M285.11,481.88c0.92-2.54,1.43-5.19,0.81-7.94C284.3,476.48,284.61,479.13,285.11,481.88z"/>
	<path d="M579.69,473.63c0.51-2.34,1.63-4.68,0.81-7.13C578.47,468.75,579.29,471.19,579.69,473.63z"/>
	<path d="M559.64,122.56c1.53-0.31,3.05,0,4.99-1.02C561.27,120.83,561.27,120.93,559.64,122.56z"/>
	<path d="M521.67,404.52c-0.61,2.44,0.81,3.16,1.73,4.28C523.2,407.37,523.71,405.74,521.67,404.52z"/>
	<path d="M575.32,505.59c0.1-1.22,0.61-2.65-0.51-4.38C574.2,503.15,573.99,504.47,575.32,505.59z"/>
	<path d="M265.16,130.4c2.24-0.31,4.38-0.51,6.62-0.81C269.54,129.38,267.2,128.16,265.16,130.4z"/>
	<path d="M280.94,513.43c0.2-1.22,0.31-2.44-0.31-4.17C279.72,511.91,279.72,511.91,280.94,513.43z"/>
	<path d="M553.74,137.73c0.41-1.73,0.2-3.05-1.02-4.78C552.51,134.98,552.11,136.51,553.74,137.73z"/>
	<path d="M575.82,510.48c0,6.46-0.13,5.19,0.31,5.19C576.13,509.86,576.23,510.48,575.82,510.48z"/>
	<path d="M259.06,145.16c0.1-1.32,0.81-2.75-1.02-3.77C258.04,142.92,257.73,144.24,259.06,145.16z"/>
	<path d="M281.45,523.2c0.41-1.73,0.71-3.36,0-5.6C280.94,519.95,281.14,521.58,281.45,523.2z"/>
	<path d="M512.72,462.54c0.2-0.92,1.42-1.83,0.61-3.16C512.92,460.5,512.21,461.32,512.72,462.54z"/>
	<path d="M488.79,453.68c0,0.61,0,1.32,0,1.93C488.9,455,488.9,454.29,488.79,453.68z"/>
	<path d="M498.87,524.22c0.2-0.92,0.41-1.83,0.81-3.46C497.96,522.19,498.16,523.1,498.87,524.22z"/>
	<path d="M545.9,98.74c0-0.94-1.81-1.05-1.42,0.1C544.89,99.68,546.24,99.42,545.9,98.74z"/>
	<path d="M249.49,106.17c0.81,0.71,0.61,1.83,2.14,0.61C251.32,106.17,251.01,105.77,249.49,106.17z"/>
	<path d="M498.67,515.57c0.06-0.22,0.24-1.08-0.1-1.43C498.24,515.8,498.37,515.57,498.67,515.57z"/>
	<path d="M557.1,104.04c-1.02-0.41-1.32-0.2-0.81,0.92C556.79,104.85,556.99,104.54,557.1,104.04z"/>
	<path d="M263.13,111.57c-1.53-0.61-1.53,0.41-2.04,0.92C262.62,112.99,262.52,111.97,263.13,111.57z"/>
	<path d="M509.15,381.31c-6.31-7.04-11.54,1.34-7.43,4.58c3.21,2.25,6.15,0.75,7.74-2.95c2.14,4.28,5.29,3.36,8.55,2.34
		c0.31-2.65,1.23-5.73-2.04-7.13C512.83,376.81,510.68,378.56,509.15,381.31z M504.67,385.28c-3.32,0-3.79-5.09-0.1-5.09
		C508.15,380.19,508.01,385.28,504.67,385.28z M513.53,379.48c1.73-0.17,2.85,0.51,3.05,2.65c-0.71,0.61-1.32,0-1.83,0.2
		c-1.02,0.51,0.41,1.73-0.71,2.24C510.55,384.36,510.78,379.75,513.53,379.48z"/>
	<path d="M536.74,342.83c-10.59,11.6-17.41,27.99-16.59,37.87C525.74,355.19,531.89,353.4,536.74,342.83z"/>
	<path d="M481.77,208.27c-1.43,3.56-0.87,7.09,1.63,9.26c9.7,8.45,8.3,7.5,9.77,6.62C488.39,219.57,483.71,214.88,481.77,208.27z"/>
	<path d="M492.66,379.58c0.51,2.34-0.41,4.99,0.71,7.53c1.53-0.41,1.73-1.93,2.85-2.44c1.02,0.31,1.12,1.93,3.16,1.63
		c-0.51-1.43-1.32-2.54,0-3.97C501.53,379.75,495.66,377.08,492.66,379.58z M495.11,381.92c0.2-2.24,1.43-1.43,3.05-1.22
		C497.14,382.63,496.33,382.73,495.11,381.92z"/>
	<path d="M497.96,162.16c5.7,0.1,13.44-6.72,13.95-12.42C507.63,154.32,503.35,158.9,497.96,162.16z"/>
	<path d="M579.29,341.71c-6.82-5.6-13.64-11.2-20.26-17.2C564.42,331.84,571.55,337.13,579.29,341.71z"/>
	<path d="M561.78,359.53c-1.32-6.62-4.78-12.42-6.62-18.73C555.67,347.62,559.33,353.42,561.78,359.53z"/>
	<path d="M485.94,221.91c-2.04,4.28-0.51,10.79,3.56,14.86C487.27,231.48,486.15,226.69,485.94,221.91z"/>
	<path d="M500.5,112.99c-4.17,0.1-6.11,1.73-7.53,5.7C495.31,116.86,498.36,115.94,500.5,112.99z"/>
	<path d="M556.08,319.83c-2.44,3.77-0.31,7.63-0.41,11.5C557.5,327.46,555.77,323.59,556.08,319.83z"/>
	<path d="M542.74,357.19c-1.54,3.8-2.34,8.34-2.34,10.66C540.81,365.81,542.99,365.83,542.74,357.19z"/>
	<path d="M503.35,290.11c0.82,0.91,1.43,2.54,3.66,1.53c-1.22-1.73-2.24-3.26-2.95-5.39C502.23,287.66,502.24,288.88,503.35,290.11z
		"/>
	<path d="M556.08,262.22c-0.71,3.46-0.41,7.02,0,10.48C556.08,269.24,556.08,265.68,556.08,262.22z"/>
	<path d="M498.26,350.16c-0.2,1.93-0.1,3.77,1.32,5.29C499.18,353.72,498.67,351.89,498.26,350.16z"/>
	<path d="M538.57,260.38c1.53,0.92,3.16,0.81,5.39,0.31C541.83,259.87,540.2,260.28,538.57,260.38z"/>
	<path d="M523.81,260.08c1.73,0.51,3.36,0.41,5.19-0.92C526.86,258.55,525.34,259.67,523.81,260.08z"/>
	<path d="M519.43,313.31c-1.83,0.41-3.05,0.2-3.87,2.04C517.09,315.25,518.21,315.04,519.43,313.31z"/>
	<path d="M510.17,310.06c0.61-1.53,1.32-3.05,0-4.68C510.17,306.9,510.17,308.53,510.17,310.06z"/>
	<path d="M488.08,127.96c1.32-1.53,1.63-2.54,1.93-4.48C487.88,124.6,488.18,125.92,488.08,127.96z"/>
	<path d="M488.79,237.28c-0.61,1.63,0.41,2.44,1.32,3.36C490.02,239.52,490.22,238.19,488.79,237.28z"/>
	<path d="M510.58,311.79c-0.81,0.51-0.71,1.43-0.92,2.95C512.07,313.77,511.68,311.34,510.58,311.79z"/>
	<path d="M525.34,308.02c-0.71,0.81-1.12,1.53-0.41,2.85C525.85,309.96,525.95,309.14,525.34,308.02z"/>
	<path d="M484.72,158.39c0-1.53-0.2-2.24-1.22-2.54C482.89,157.07,483.5,157.58,484.72,158.39z"/>
	<path d="M509.86,303.75c0.71-0.51,0.71-1.12,0.1-1.73C508.85,302.52,508.95,303.14,509.86,303.75z"/>
	<path d="M517.8,307.82c0.61-0.71,0.51-1.32-0.71-2.14C516.89,306.7,516.58,307.51,517.8,307.82z"/>
	<path d="M561.78,259.87c0.31-0.61,0.92-1.12-0.2-1.93C561.27,258.65,560.25,259.06,561.78,259.87z"/>
	<path d="M558.01,258.04c-0.61,0.92-0.61,0.92,0.1,1.83C558.32,259.16,558.93,258.65,558.01,258.04z"/>
	<path d="M540.4,367.84c-0.11,0.55-0.46,1.03,0,1.56C540.4,368.81,540.4,368.33,540.4,367.84z"/>
	<path d="M492.56,226.69c0,0.61,0.2,1.12,0.81,1.43C493.78,227.2,493.78,226.59,492.56,226.69z"/>
	<path d="M494.7,230.66c-0.59,0.79,0.61,1.07,0.61,0.71C495.41,230.86,495.21,230.56,494.7,230.66z"/>
	<path d="M502.74,283.59c0.2-0.51-0.1-0.92-0.61-1.22C502.33,282.68,501.42,283.69,502.74,283.59z"/>
	<path d="M492.87,118.59c-0.81,0.41-1.12,1.02-1.22,2.14C492.56,120.02,492.97,119.41,492.87,118.59z"/>
	<path d="M482.48,154.42c-0.81-0.51-0.1-1.53-1.53-1.12C480.96,153.81,480.86,154.52,482.48,154.42z"/>
	<path d="M495.61,376.12c0-1.6-0.2-0.2-0.1-0.1C495.51,376.12,495.61,376.12,495.61,376.12z"/>
	<path d="M559.44,219.67c-1.83,4.07-0.51,8.24-1.22,12.83C561.17,230.05,561.47,223.43,559.44,219.67z"/>
	<path d="M559.64,216c0.71-3.97,1.53-7.84,0-11.91C559.64,208.06,559.64,212.03,559.64,216z"/>
	<path d="M547.93,211.42c2.65,0.92,5.19,2.24,8.14,1.22C553.53,210.71,550.68,211.63,547.93,211.42z"/>
	<path d="M555.06,248.17c1.73-3.36,3.16-6.82,3.16-10.69C556.89,240.94,555.36,244.4,555.06,248.17z"/>
	<path d="M558.83,242.06c-0.72,2.71-1.88,6.18-0.92,9.06C559.25,248.44,559,244.72,558.83,242.06z"/>
	<path d="M554.65,164.29c-1.22,2.24-2.34,4.38-4.17,5.9C555.36,168.37,556.18,167.25,554.65,164.29z"/>
	<path d="M561.57,213.36c2.75,1.93,3.66,2.04,6.92,0.61C566.05,213.56,564.02,212.85,561.57,213.36z"/>
	<path d="M561.27,183.84c-0.61,1.83-1.73,3.56-1.02,6.31C562.18,187.81,561.47,185.87,561.27,183.84z"/>
	<path d="M537.86,212.24c1.12,1.12,2.04,1.53,3.46,0.41C540.1,211.63,539.18,211.73,537.86,212.24z"/>
	<path d="M520.35,171.22c-0.92-1.02-1.83-1.83-3.97-1.93C518.31,171.32,518.31,171.32,520.35,171.22z"/>
	<path d="M550.58,224.04c1.73,0.51,2.65,1.63,4.38,0.51C553.43,223.54,552.41,223.74,550.58,224.04z"/>
	<path d="M523.81,172.54c0.71,0.81,1.32,1.22,2.34,0.51C525.44,172.23,524.73,172.03,523.81,172.54z"/>
	<path d="M532.26,173.56c0.31,1.02,0.81,1.02,1.53,0.41C533.48,173.05,532.97,172.95,532.26,173.56z"/>
	<path d="M516.07,183.33c-0.1,1.12,0.81,1.22,1.63,1.63C518.01,183.53,517.3,183.23,516.07,183.33z"/>
	<path d="M520.55,229.85c-0.62,0-1.09,0.07-1.61,0.09C519.46,229.98,519.93,230.38,520.55,229.85z"/>
	<path d="M572.36,213.66c0.71,0.51,1.32,0.51,1.83-0.1C573.48,212.95,573.08,212.75,572.36,213.66z"/>
	<path d="M624.17,105.46c-7.02,2.44-13.84,4.28-21.58,6.01C607.18,114.21,620.71,110.14,624.17,105.46z"/>
	<path d="M641.48,77.57c4.68,0.81,8.86,1.93,13.84,0.71C649.72,75.43,643.92,75.03,641.48,77.57z"/>
	<path d="M632.83,102.1c-2.24,0.51-4.68,0.71-6.62,2.44C628.86,105.26,630.99,104.14,632.83,102.1z"/>
	<path d="M598.83,104.95c1.63-0.92,2.24-1.93,2.65-3.87C599.24,101.59,599.24,103.02,598.83,104.95z"/>
	<path d="M661.53,78.08c0.92-0.1,1.53,0,1.93-1.02C662.75,77.06,661.94,76.76,661.53,78.08z"/>
	<path d="M639.95,72.48c0.1,1.32,0.41,1.83,1.43,1.83C641.68,73.19,640.97,72.99,639.95,72.48z"/>
	<path d="M636.8,98.64c-0.51,0.1-0.81,0.51-1.12,1.43C637.23,99.92,637.68,98.64,636.8,98.64z"/>
	<path d="M657.76,79c0.71,0.1,1.43,0.31,1.83-0.81C658.58,77.67,658.07,78.08,657.76,79z"/>
	<path d="M599.64,113.2c0.71-1.02,1.53-1.02,1.02-2.04C599.95,111.26,599.34,111.47,599.64,113.2z"/>
	<path d="M664.38,28.71c-0.53-3.76-2.55-5.31-6.31-4.38c-0.81,0.2-1.63-0.71-2.85,0.61c-0.05,0.1-6.42,7.38-1.93,13.74
		c1.72,2.45,3.87,2.75,6.01,1.12c1.49,2.12,3.32-2.14,1.23-0.75C660.52,38.56,665.26,34.96,664.38,28.71z M653.59,36.04
		c-0.69-0.69,0.1-1.6,0.1-0.61C653.69,35.63,653.59,35.84,653.59,36.04z M657.97,37.97c-3.31-2.11-3.85-4.7-1.73-8.75
		c0,5.62,0.29-0.02,2.54-0.31c2.54,2.14-1.32,4.07-0.2,6.21c5.7-5.26,2.32-9.2-1.73-7.53C662.24,20.4,666.76,33.95,657.97,37.97z"/>
	<path d="M658.48,6.83c26.6-14.72,27.81,52.6-2.95,53.62c14.31,6.29,35.35-31.11,18.42-53.52c-5.09-6.74-15.14-3.94-19.54,1.93
		c-3.97,2.85-4.99,7.53-7.13,11.5C653.99,11.67,652.9,9.91,658.48,6.83z"/>
	<path d="M655.53,60.47c-1.17-1.17-3.77-1.99-5.39-2.34C652.12,59.99,653.68,60.47,655.53,60.47z"/>
	<path d="M643.72,36.04c0.41-1.12,0.92-2.34,0.2-3.66C643.51,33.6,642.8,34.82,643.72,36.04z"/>
	<path d="M646.26,21.99c-0.41,0.81-0.81,1.43-0.1,2.34C645.86,23.52,647.48,23.21,646.26,21.99z"/>
	<path d="M644.13,29.02c0.92-0.92,1.12-1.63,0.61-2.75C644.23,27.18,643.92,27.9,644.13,29.02z"/>
	<path d="M692.48,33.5c1.73-0.43-0.16-1.69-0.41-0.71C691.86,33.19,692.07,33.5,692.48,33.5z"/>
	<path d="M485.03,313.21c-1.28-25.62-8.92-0.57-1.93,6.21C485.74,318,485.14,315.35,485.03,313.21z M482.08,305.17
		c1.12,2.75-0.41,5.7,0.81,8.45C480.45,311.07,482.79,307.92,482.08,305.17z M482.99,316.37c-1.02-0.92-0.51-1.83-0.2-2.75
		C482.89,314.54,484.01,315.35,482.99,316.37z"/>
	<path d="M215.29,389.35c-2.54-2.85-5.44-3.41-7.63-1.43c-5.05,4.56,4.48,11.77,7.84,3.36c2.95,3.66,3.36,3.66,8.75,1.93
		C225.28,384.77,219.44,383.94,215.29,389.35z M211.01,393.42c-2.88,0.19-4.2-4.59-0.2-5.09
		C214.54,388.57,214.1,393.42,211.01,393.42z M220.17,392.71c-1.73-0.1-2.67-1.12-2.54-2.95c0.2-2.96,4.83-3.29,5.19,0.71
		C218.49,390.47,221.98,391.95,220.17,392.71z"/>
	<path d="M243.08,349.45c-9.26,10.99-16.69,22.9-17.51,37.87C228.01,373.17,235.03,361.16,243.08,349.45z"/>
	<path d="M198.8,231.98c-4.89-4.48-9.57-9.16-11.6-15.78c-1.32,3.66-0.57,7.08,1.83,9.06C199.03,233.51,197.14,232.81,198.8,231.98z
		"/>
	<path d="M217.53,157.07c-4.48,4.89-8.55,9.67-14.05,12.83C209.38,170.1,217.53,162.67,217.53,157.07z"/>
	<path d="M199.1,387.32c-0.1,2.54-0.2,5.19,0.2,7.63c2.86,0.5,1.34-4.79,4.28-1.12c0.41,0.51,0.92,0.92,2.24,0.51
		c-1.02-1.22-1.46-2.26-0.31-3.77C208.09,387.21,201.32,385.65,199.1,387.32z M200.73,389.15c1.32-0.81,2.34-0.92,3.66,0.61
		C202.77,390.88,201.65,391.69,200.73,389.15z"/>
	<path d="M191.06,229.64c-1.22,5.29-0.2,10.08,3.26,14.25C192.49,239.31,191.77,234.53,191.06,229.64z"/>
	<path d="M206.13,120.42c-4.89,0.81-6.41,2.24-8.45,7.13C199.81,125,203.58,123.99,206.13,120.42z"/>
	<path d="M212.33,299.67c-0.51-2.04-2.44-3.05-2.34-4.99C206.16,294.48,208.67,300.26,212.33,299.67z"/>
	<path d="M245.93,375.61c2.24-3.77,3.16-8.65,1.83-10.59C247.04,368.48,245.93,371.94,245.93,375.61z"/>
	<path d="M261.5,270.46c-0.61,3.26-0.31,6.62,0,9.77C261.5,276.98,261.5,273.82,261.5,270.46z"/>
	<path d="M248.37,268.02c-1.43,0-2.85,0-4.89,0C245.52,269.34,246.94,269.34,248.37,268.02z"/>
	<path d="M203.78,358.2c-0.51,2.04,0,3.97,1.32,5.5C204.7,361.87,204.29,360.04,203.78,358.2z"/>
	<path d="M229.23,267.81c2.34,0.51,2.34,0.51,5.39-0.81C232.59,266.8,230.86,267,229.23,267.81z"/>
	<path d="M215.9,318.1c0.61-1.63,0.81-3.26,0.31-4.89C215.29,314.74,215.39,316.37,215.9,318.1z"/>
	<path d="M195.13,131.42c-1.73,1.02-1.63,2.34-1.12,3.66C194.62,134.06,195.54,133.05,195.13,131.42z"/>
	<path d="M215.59,322.68c1.22-1.22,1.83-2.04,0.92-3.56C215.39,320.13,215.18,321.05,215.59,322.68z"/>
	<path d="M194.22,245.32c-0.51,1.32,0.41,2.14,1.22,2.95C195.54,247.15,195.74,245.93,194.22,245.32z"/>
	<path d="M224.65,321.46c-1.53-0.1-2.65-0.1-3.46,1.53C222.62,323.09,223.74,322.98,224.65,321.46z"/>
	<path d="M190.25,165.82c0-1.02-0.1-1.93-1.53-2.24C188.72,164.8,188.72,165.72,190.25,165.82z"/>
	<path d="M267.4,265.88c-1.12,0.41-1.32,1.02-0.61,1.93C267.91,267.51,267.91,266.8,267.4,265.88z"/>
	<path d="M263.53,267.61c0.51-0.51,0.61-1.12-0.2-2.14C262.82,266.49,261.8,267.2,263.53,267.61z"/>
	<path d="M223.23,315.76c0.71-1.12,0.41-1.73-0.51-2.14C222.11,314.43,222.11,315.04,223.23,315.76z"/>
	<path d="M230.76,315.86c-0.71,0.81-1.32,1.53-0.31,2.75C231.37,317.69,231.37,316.88,230.76,315.86z"/>
	<path d="M222.82,311.38c0.61-0.51,0.41-1.02-0.31-1.63C222.31,310.57,222.11,311.07,222.82,311.38z"/>
	<path d="M197.78,234.43c0.31,0.61,0.51,1.12,1.02,2.14C199.1,235.04,199.31,234.33,197.78,234.43z"/>
	<path d="M215.29,309.65c-0.71,0.71-0.81,1.32,0,2.04C216.1,310.97,216.1,310.36,215.29,309.65z"/>
	<path d="M207.45,290.31c-0.1,0.41-0.2,0.92,0.61,1.32C208.26,290.82,208.47,290.21,207.45,290.31z"/>
	<path d="M197.58,127.55c-0.61,0.31-1.02,0.71-0.61,1.53C197.68,128.67,197.68,128.16,197.58,127.55z"/>
	<path d="M187.4,162.46c0-0.81,0.1-1.32-0.81-1.73C186.38,161.44,186.28,162.06,187.4,162.46z"/>
	<path d="M200.53,170.81c0.81,0.1,1.12-0.41,1.32-1.32C200.63,169.49,200.22,169.79,200.53,170.81z"/>
	<path d="M205.41,205.11c0.27-0.54-0.92-1.29-0.92-0.31C204.5,205.53,205.27,205.4,205.41,205.11z"/>
	<path d="M245.93,377.75c0-0.81,0-1.53,0-2.14C245.93,376.32,245.21,376.83,245.93,377.75z"/>
	<path d="M265.06,227.4c-1.93,4.07-0.61,8.35-1.22,13.13C266.59,237.68,267,231.37,265.06,227.4z"/>
	<path d="M265.47,212.03c-1.12,3.87-0.41,7.74-0.41,11.6C265.98,219.77,266.59,216,265.47,212.03z"/>
	<path d="M263.43,244.61c-0.92,4.28-2.65,7.63-3.26,11.91C262.62,252.85,263.94,248.17,263.43,244.61z"/>
	<path d="M275.04,221.81c-6.81-0.76-6.74-1.43-8.04-0.41C270.46,223.23,271.37,223.23,275.04,221.81z"/>
	<path d="M260.28,172.34c-1.43,2.04-2.34,4.28-4.99,6.01C260.48,176.71,261.7,175.08,260.28,172.34z"/>
	<path d="M263.84,259.06c0.81-2.95,0.81-5.9,0.61-9.47C262.72,254.99,262.62,257.13,263.84,259.06z"/>
	<path d="M262.01,220.38c-2.75-1.93-5.29-0.81-7.74-0.81C256.71,220.18,258.95,221.81,262.01,220.38z"/>
	<path d="M266.59,191.57c-0.2,1.93-1.93,3.77-0.71,6.41C267.5,195.65,267,193.61,266.59,191.57z"/>
	<path d="M221.9,176.92c0.92,2.24,2.44,2.44,4.07,2.44C224.96,178.14,223.94,177.22,221.9,176.92z"/>
	<path d="M256.51,231.98c1.12,0.61,2.14,1.22,3.56,0.51C258.95,231.48,257.73,231.48,256.51,231.98z"/>
	<path d="M246.74,220.48c-1.32-0.71-2.14-1.22-3.46-0.1C244.4,220.99,245.31,221.3,246.74,220.48z"/>
	<path d="M221.5,191.37c0.31,0.81,0.81,1.12,2.14,1.22C222.62,191.37,222.62,191.37,221.5,191.37z"/>
	<path d="M231.37,180.78c-0.61-0.61-1.12-1.32-2.14-0.51C229.84,181.19,230.45,181.7,231.37,180.78z"/>
	<path d="M280.74,183.53c1.94,0,0.64-1.58-1.12-0.92C279.82,183.53,280.33,183.53,280.74,183.53z"/>
	<path d="M287.46,182.41c-0.71-0.51-1.43-0.61-2.24,0.1C285.93,182.51,286.54,183.84,287.46,182.41z"/>
	<path d="M239.51,181.7c-0.71-0.61-1.22-0.71-1.73-0.1C238.29,182.31,238.8,182.21,239.51,181.7z"/>
	<path d="M266.59,209.49c0.51-0.41,0.51-0.81,0.1-1.22C266.28,208.57,266.38,209.08,266.59,209.49z"/>
	<path d="M279.62,221.19c-0.51-0.51-1.02-0.51-2.24,0.31C278.6,221.7,279.11,222.11,279.62,221.19z"/>
	<path d="M203.58,436.48c-2.65,2.44-4.78,4.99-5.09,9.26c1.93-2.65,2.34-5.6,5.09-7.23c-0.66,5.76-4.53,8.09-4.07,12.72
		c1.47,14.91-1.23,16.14,0.51,15.27c4.67-7.6-2.99-14.41,3.97-24.33c0.61-0.71,0.6-1.84,1.02-2.75
		C205.7,437.9,205.11,436.99,203.58,436.48z"/>
	<path d="M226.08,407.37c-5.91,6.89-11.89,12.97-19.95,9.06c-4.92-2.39,0.4,4.67,6.92,2.95
		C219.45,417.69,224.65,414.7,226.08,407.37z"/>
	<path d="M213.56,440.14c-1.32-5.19-2.54-10.38,0.41-15.57C209.28,427.22,209.18,435.26,213.56,440.14z"/>
	<path d="M217.63,483.81c0-2.85,0.71-5.6,0.2-8.45C216.51,478.11,216.61,480.96,217.63,483.81z"/>
	<path d="M228.82,416.43c-0.1-1.43,0.31-2.95-1.53-4.17C226.38,414.7,227.91,415.41,228.82,416.43z"/>
	<path d="M195.03,456.33c0-0.51,0-0.92,0-1.43C195.03,455.67,194.81,456.33,195.03,456.33z"/>
	<path d="M204.09,531.75c0.1-0.81,1.22-1.53,0.51-2.65C203.38,529.92,203.68,530.84,204.09,531.75z"/>
	<path d="M203.89,521.37c0,0.92,0,1.53,0,2.24C204.29,522.9,204.4,522.29,203.89,521.37z"/>
	<path d="M218.85,468.44c0.31,0,0.31-0.81,0-1.63C218.65,467.63,218.24,468.24,218.85,468.44z"/>
	<path d="M306.08,288.38c1.73-2.85,1.73-2.95,0.61-4.89C306.29,285.12,305.06,286.54,306.08,288.38z"/>
	<path d="M305.98,296.62c1.32-1.63,1.83-2.95,1.02-4.58C306.29,293.36,305.17,294.58,305.98,296.62z"/>
	<path d="M307,218.34c1.73,0,2.65-0.71,3.36-1.93C309.03,216.31,307.61,216.31,307,218.34z"/>
	<path d="M306.29,312.7c0.51-1.42,0.51-1.42-0.2-2.24C305.68,311.18,305.37,311.79,306.29,312.7z"/>
	<path d="M316.36,234.33c-1.12,0.41-1.12,1.12-0.41,1.93C316.87,235.75,317.28,235.24,316.36,234.33z"/>
	<path d="M307.51,174.27c0.51-0.81,0.2-1.32-1.32-2.04C306.69,173.35,306.08,174.27,307.51,174.27z"/>
	<path d="M267.3,367.57c-1.22-6.72-4.89-12.52-6.62-18.93C261.09,355.66,264.96,361.36,267.3,367.57z"/>
	<path d="M269.13,281.86c-11.57,8.53-9.98,28.77-8.04,16.49c1.26-7.97,5.8-15.9,13.44-16.69c20.25-2.1,28.66,53.16,3.56,56.7
		c17.34,2.62,25.61-38.44,4.07-56.09C277.8,278.69,272.71,279.23,269.13,281.86z"/>
	<path d="M278.5,305.37c-1.67-3.64-3.97-4.38-7.33-2.24c-0.71,0.51-1.43,0.1-2.34,0.81c-3.02,8.49,0.36,17.48,7.63,14.86
		c0.31-0.81-0.2-1.53,0.71-2.44C280.43,313.11,280.28,309.26,278.5,305.37z M269.95,314.84c1.53,1.22,2.44,2.04,3.97,3.16
		C271.78,317.89,270.97,316.88,269.95,314.84z M274.94,316.06c-7.29-2.6-3.43-9.96-3.56-10.27c0.02,0,0.06-0.01,0.1,0
		c0.12,0,0.09,0.05,0.09-0.1c-0.13,0.07-0.18,0.09-0.19,0.09c0,0,0,0,0,0C275.75,298.73,281.92,310.93,274.94,316.06z"/>
	<path d="M260.68,318.71c0.41-1.32,0.41-2.65-0.41-4.48C259.57,316.27,260.28,317.49,260.68,318.71z"/>
	<path d="M273.41,337.44c0.92,0.92,1.73,1.22,2.95,0.71C275.55,337.03,274.63,336.93,273.41,337.44z"/>
	<path d="M259.67,304.56c-0.92,0.71-0.71,1.43,0.1,2.14C259.87,305.99,260.58,305.27,259.67,304.56z"/>
	<path d="M259.26,311.28c0.51-0.81,0.41-1.43,0-2.04C258.65,309.85,258.75,310.46,259.26,311.28z"/>
	<path d="M187.5,309.85c-2.95,3.26-2.44,13.84,0.92,17.41C191.88,324.41,191.26,313.11,187.5,309.85z M188.01,313.21
		c0,2.95,0,5.9,0.1,8.86C186.58,319.22,187.6,316.16,188.01,313.21z M188.01,322.17c1.43,0.51,1.02,1.32,0.41,2.34
		C187.8,323.7,187.8,322.88,188.01,322.17z"/>
	<path d="M271.57,306.01c-0.04,1.51-0.54,2.94,0.21,4.46c0.92-0.92-0.1-2.65,1.63-3.26c2.65,1.22,0.1,3.97,1.43,5.6
		c2.44-3.36,2.44-4.68-0.2-7.43C274.06,305.16,271.57,305.71,271.57,306.01z"/>
<path fill="#e6e6e6" d="m206.8 163.6c0-5.1 4.1-9.2 9.3-9.2s9.2 4.2 9.2 9.2-4.1 9.2-9.3 9.2-9.2-4.1-9.2-9.2zm17.3-.1c0-4.5-3.5-8.2-8.2-8.2s-8.2 3.7-8.2 8.3c0 4.5 3.5 8.2 8.2 8.2s8.2-3.7 8.2-8.3zm-13 0c0-2.8 2.1-5.1 5.1-5.1 1.9 0 2.9.6 3.9 1.5l-1.4 1.7c-.8-.7-1.5-1.1-2.5-1.1-1.7 0-2.8 1.4-2.8 3.1s1.1 3 2.8 3c1.1 0 1.7-.5 2.5-1.1l1.4 1.4c-1.1 1.1-2.1 1.7-4 1.7-2.9 0-5-2.3-5-5.1z"/><path fill="#e6e6e6" d="m226.6 154.7h3.4l4.2 13.2 4.4-13.3h2.6l4.4 13.3 4.2-13.2h3.3l-6.2 18h-2.7l-4.4-12.8-4.4 12.8h-2.7z"/><path fill="#e6e6e6" d="m252.8 165.8c0-3.9 3.1-7 7.2-7 4.2 0 7.2 3.2 7.2 7s-3.1 7-7.3 7c-4 0-7.1-3.1-7.1-7zm11.3 0c0-2.3-1.7-4.3-4.2-4.3s-4.1 2-4.1 4.3 1.7 4.3 4.1 4.3c2.7.1 4.2-1.9 4.2-4.3z"/><path fill="#e6e6e6" d="m269.5 159.1h3.1v3c.8-2 2.4-3.4 4.8-3.3v3.2h-.2c-2.7 0-4.6 1.7-4.6 5.4v5.1h-3.1z"/><path fill="#e6e6e6" d="m279.1 153.9h3.1v11.1l5.6-6h3.8l-5.4 5.5 5.5 8h-3.5l-4.1-5.8-1.9 2v3.9h-3.1z"/><path fill="#e6e6e6" d="m291.7 165.8c0-3.9 3.1-7 7.2-7 4.2 0 7.2 3.2 7.2 7s-3.1 7-7.3 7c-4 0-7.1-3.1-7.1-7zm11.3 0c0-2.3-1.7-4.3-4.2-4.3s-4.1 2-4.1 4.3 1.7 4.3 4.1 4.3c2.6.1 4.2-1.9 4.2-4.3z"/><path fill="#e6e6e6" d="m308.2 167.6v-8.6h3.1v7.6c0 2.1 1.1 3.3 2.9 3.3s3-1.3 3-3.3v-7.6h3.1v13.4h-3.1v-2.1c-.8 1.3-2.1 2.3-4.2 2.3-3.1.2-4.8-1.8-4.8-5z"/><path fill="#e6e6e6" d="m323.9 168.8v-7.1h-1.7v-2.6h1.7v-3.7h3.1v3.7h3.6v2.6h-3.6v6.6c0 1.2.6 1.7 1.7 1.7.7 0 1.3-.2 1.9-.5v2.5c-.8.5-1.7.7-2.8.7-2.3 0-3.9-.9-3.9-3.9z"/><path fill="#e6e6e6" d="m333.2 154.7h3.2v15h9.4v2.9h-12.5v-17.9z"/><path fill="#e6e6e6" d="m356 172.5v-1.7c-.9 1.1-2.3 2-4.4 2-2.6 0-4.8-1.4-4.8-4.2 0-3 2.3-4.4 5.4-4.4 1.7 0 2.6.2 3.7.5v-.2c0-1.9-1.2-2.9-3.3-2.9-1.5 0-2.6.3-3.9.8l-.8-2.5c1.5-.7 2.9-1.1 5.1-1.1 4 0 5.9 2.1 5.9 5.7v8zm.1-5.6c-.8-.3-1.9-.5-3.1-.5-2 0-3.1.8-3.1 2.1s1.1 2 2.6 2c2 0 3.5-1.1 3.5-2.9z"/><path fill="#e6e6e6" d="m364.9 170.5v2.1h-3.1v-18.7h3.1v7.4c1-1.4 2.4-2.5 4.5-2.5 3.2 0 6.3 2.5 6.3 7s-3.1 7-6.3 7c-2.1 0-3.5-1.1-4.5-2.3zm7.7-4.7c0-2.6-1.7-4.3-3.9-4.3s-3.9 1.7-3.9 4.4c0 2.6 1.8 4.3 3.9 4.3s3.9-1.7 3.9-4.4z"/><path fill="#e6e6e6" d="m376.9 170.8 1.4-2.1c1.4 1.1 3 1.7 4.4 1.7s2.1-.5 2.1-1.5-1.3-1.4-2.8-1.8c-.1 0-.2-.1-.2-.1-2-.6-4.2-1.4-4.2-4s2.1-4.1 4.8-4.1c1.7 0 3.5.6 5 1.5l-1.2 2.2c-1.3-.8-2.6-1.3-3.8-1.3s-1.9.5-1.9 1.4 1.3 1.4 2.8 1.8c.1 0 .2.1.2.1 2 .6 4.2 1.5 4.2 4 0 2.9-2.2 4.2-5 4.2-1.9 0-4-.7-5.8-2z"/><path fill="#e6e6e6" d="m505.6 163.6c0-5.1 4.1-9.2 9.3-9.2s9.2 4.2 9.2 9.2-4.1 9.2-9.3 9.2-9.2-4.1-9.2-9.2zm17.4-.1c0-4.5-3.5-8.2-8.2-8.2s-8.2 3.7-8.2 8.3c0 4.5 3.5 8.2 8.2 8.2s8.2-3.7 8.2-8.3zm-13.1 0c0-2.8 2.1-5.1 5.1-5.1 1.9 0 2.9.6 3.9 1.5l-1.4 1.7c-.8-.7-1.5-1.1-2.5-1.1-1.7 0-2.8 1.4-2.8 3.1s1.1 3 2.8 3c1.1 0 1.7-.5 2.5-1.1l1.4 1.4c-1.1 1.1-2.1 1.7-4 1.7-2.9 0-5-2.3-5-5.1z"/><path fill="#e6e6e6" d="m525.4 154.7h3.4l4.2 13.2 4.4-13.3h2.6l4.4 13.3 4.2-13.2h3.3l-6.2 18h-2.7l-4.4-12.8-4.4 12.8h-2.7z"/><path fill="#e6e6e6" d="m551.7 165.8c0-3.9 3.1-7 7.2-7 4.2 0 7.2 3.2 7.2 7s-3.1 7-7.3 7c-4.1 0-7.1-3.1-7.1-7zm11.2 0c0-2.3-1.7-4.3-4.2-4.3s-4.1 2-4.1 4.3 1.7 4.3 4.1 4.3c2.7.1 4.2-1.9 4.2-4.3z"/><path fill="#e6e6e6" d="m568.3 159.1h3.1v3c.8-2 2.4-3.4 4.8-3.3v3.2h-.2c-2.7 0-4.6 1.7-4.6 5.4v5.1h-3.1z"/><path fill="#e6e6e6" d="m577.9 153.9h3.1v11.1l5.6-6h3.8l-5.4 5.5 5.5 8h-3.5l-4.1-5.8-1.9 2v3.9h-3.1z"/><path fill="#e6e6e6" d="m590.6 165.8c0-3.9 3.1-7 7.2-7 4.2 0 7.2 3.2 7.2 7s-3.1 7-7.3 7c-4.1 0-7.1-3.1-7.1-7zm11.2 0c0-2.3-1.7-4.3-4.2-4.3s-4.1 2-4.1 4.3 1.7 4.3 4.1 4.3c2.6.1 4.2-1.9 4.2-4.3z"/><path fill="#e6e6e6" d="m607 167.6v-8.6h3.1v7.6c0 2.1 1.1 3.3 2.9 3.3s3-1.3 3-3.3v-7.6h3.1v13.4h-3.1v-2.1c-.8 1.3-2.1 2.3-4.2 2.3-3 .2-4.8-1.8-4.8-5z"/><path fill="#e6e6e6" d="m622.7 168.8v-7.1h-1.7v-2.6h1.7v-3.7h3.1v3.7h3.6v2.6h-3.6v6.6c0 1.2.6 1.7 1.7 1.7.7 0 1.3-.2 1.9-.5v2.5c-.8.5-1.7.7-2.8.7-2.3 0-3.9-.9-3.9-3.9z"/><path fill="#e6e6e6" d="m632 154.7h3.2v15h9.4v2.9h-12.6z"/><path fill="#e6e6e6" d="m654.8 172.5v-1.7c-.9 1.1-2.3 2-4.4 2-2.6 0-4.8-1.4-4.8-4.2 0-3 2.3-4.4 5.4-4.4 1.7 0 2.6.2 3.7.5v-.2c0-1.9-1.2-2.9-3.3-2.9-1.5 0-2.6.3-3.9.8l-.8-2.5c1.5-.7 2.9-1.1 5.1-1.1 4 0 5.9 2.1 5.9 5.7v8zm.1-5.6c-.8-.3-1.9-.5-3.1-.5-2 0-3.1.8-3.1 2.1s1.1 2 2.6 2c2 0 3.5-1.1 3.5-2.9z"/><path fill="#e6e6e6" d="m663.7 170.5v2.1h-3.1v-18.7h3.1v7.4c1-1.4 2.4-2.5 4.5-2.5 3.2 0 6.3 2.5 6.3 7s-3.1 7-6.3 7c-2.1 0-3.5-1.1-4.5-2.3zm7.8-4.7c0-2.6-1.7-4.3-3.9-4.3-2.1 0-3.9 1.7-3.9 4.4 0 2.6 1.8 4.3 3.9 4.3s3.9-1.7 3.9-4.4z"/><path fill="#e6e6e6" d="m675.8 170.8 1.4-2.1c1.4 1.1 3 1.7 4.4 1.7s2.1-.5 2.1-1.5-1.3-1.4-2.8-1.8c-.1 0-.2-.1-.2-.1-2-.6-4.2-1.4-4.2-4s2.1-4.1 4.8-4.1c1.7 0 3.5.6 5 1.5l-1.2 2.2c-1.3-.8-2.6-1.3-3.8-1.3s-1.9.5-1.9 1.4 1.3 1.4 2.8 1.8c.1 0 .2.1.2.1 2 .6 4.2 1.5 4.2 4 0 2.9-2.2 4.2-5 4.2-2 0-4.1-.7-5.8-2z"/><path fill="#e6e6e6" d="m61 298.6c0-5.1 4.1-9.2 9.3-9.2s9.2 4.2 9.2 9.2-4.1 9.2-9.3 9.2c-5.1 0-9.2-4.2-9.2-9.2zm17.4-.1c0-4.5-3.5-8.2-8.2-8.2s-8.2 3.7-8.2 8.3c0 4.5 3.5 8.2 8.2 8.2s8.2-3.7 8.2-8.3zm-13.1-.1c0-2.8 2.1-5.1 5.1-5.1 1.9 0 2.9.6 3.9 1.5l-1.4 1.7c-.8-.7-1.5-1.1-2.5-1.1-1.7 0-2.8 1.4-2.8 3.1s1.1 3 2.8 3c1.1 0 1.7-.5 2.5-1.1l1.4 1.4c-1.1 1.1-2.1 1.7-4 1.7-2.8.1-5-2.2-5-5.1z"/><path fill="#e6e6e6" d="m80.9 289.7h3.4l4.2 13.2 4.4-13.3h2.6l4.4 13.3 4.2-13.2h3.3l-6.2 18h-2.7l-4.4-12.8-4.4 12.8h-2.7z"/><path fill="#e6e6e6" d="m107.1 300.8c0-3.9 3.1-7 7.2-7s7.2 3.2 7.2 7-3.1 7-7.3 7c-4 0-7.1-3.1-7.1-7zm11.3 0c0-2.3-1.7-4.3-4.2-4.3s-4.1 2-4.1 4.3 1.7 4.3 4.1 4.3c2.6.1 4.2-1.9 4.2-4.3z"/><path fill="#e6e6e6" d="m123.7 294h3.1v3c.8-2 2.4-3.4 4.8-3.3v3.2h-.2c-2.7 0-4.6 1.7-4.6 5.4v5.1h-3.1z"/><path fill="#e6e6e6" d="m133.4 288.9h3.1v11.1l5.6-6h3.8l-5.4 5.5 5.5 8h-3.5l-4.1-5.8-1.9 1.9v3.9h-3.1z"/><path fill="#e6e6e6" d="m146 300.8c0-3.9 3.1-7 7.2-7s7.2 3.2 7.2 7-3.1 7-7.3 7c-4.1 0-7.1-3.1-7.1-7zm11.2 0c0-2.3-1.7-4.3-4.2-4.3s-4.1 2-4.1 4.3 1.7 4.3 4.1 4.3c2.6.1 4.2-1.9 4.2-4.3z"/><path fill="#e6e6e6" d="m162.4 302.6v-8.6h3.1v7.6c0 2.1 1.1 3.3 2.9 3.3s3-1.3 3-3.3v-7.6h3.1v13.4h-3.1v-2.1c-.8 1.3-2.1 2.3-4.2 2.3-3 .2-4.8-1.8-4.8-5z"/><path fill="#e6e6e6" d="m178.1 303.8v-7.1h-1.7v-2.7h1.7v-3.7h3.1v3.7h3.6v2.6h-3.6v6.6c0 1.2.6 1.7 1.7 1.7.7 0 1.3-.2 1.9-.5v2.5c-.8.5-1.7.7-2.8.7-2.3.1-3.9-.9-3.9-3.8z"/><path fill="#e6e6e6" d="m187.4 289.7h3.2v15h9.4v2.9h-12.5v-17.9z"/><path fill="#e6e6e6" d="m210.2 307.5v-1.7c-.9 1.1-2.3 2-4.4 2-2.6 0-4.8-1.4-4.8-4.2 0-3 2.3-4.4 5.4-4.4 1.7 0 2.6.2 3.7.5v-.2c0-1.9-1.2-2.9-3.3-2.9-1.5 0-2.6.3-3.9.8l-.8-2.5c1.5-.7 2.9-1.1 5.1-1.1 4 0 5.9 2.1 5.9 5.7v8zm.1-5.6c-.8-.3-1.9-.5-3.1-.5-2 0-3.1.8-3.1 2.1s1.1 2 2.6 2c2 0 3.5-1.1 3.5-2.9z"/><path fill="#e6e6e6" d="m219.2 305.5v2.1h-3.1v-18.7h3.1v7.4c1-1.4 2.4-2.5 4.5-2.5 3.2 0 6.3 2.5 6.3 7s-3.1 7-6.3 7c-2.2 0-3.6-1.1-4.5-2.3zm7.7-4.7c0-2.6-1.7-4.3-3.9-4.3s-3.9 1.7-3.9 4.4c0 2.6 1.8 4.3 3.9 4.3s3.9-1.7 3.9-4.4z"/><path fill="#e6e6e6" d="m231.2 305.8 1.4-2.1c1.4 1.1 3 1.7 4.4 1.7s2.1-.5 2.1-1.5-1.3-1.4-2.8-1.8c-.1 0-.2-.1-.2-.1-2-.6-4.2-1.4-4.2-4s2.1-4.1 4.8-4.1c1.7 0 3.5.6 5 1.5l-1.2 2.2c-1.3-.8-2.6-1.3-3.8-1.3s-1.9.5-1.9 1.4 1.3 1.4 2.8 1.8c.1 0 .2.1.2.1 2 .6 4.2 1.5 4.2 4 0 2.9-2.2 4.2-5 4.2-2 0-4.1-.7-5.8-2z"/><path fill="#e6e6e6" d="m360.6 298.6c0-5.1 4.1-9.2 9.3-9.2s9.2 4.2 9.2 9.2-4.1 9.2-9.3 9.2-9.2-4.2-9.2-9.2zm17.4-.1c0-4.5-3.5-8.2-8.2-8.2s-8.2 3.7-8.2 8.3c0 4.5 3.5 8.2 8.2 8.2s8.2-3.7 8.2-8.3zm-13.1-.1c0-2.8 2.1-5.1 5.1-5.1 1.9 0 2.9.6 3.9 1.5l-1.4 1.7c-.8-.7-1.5-1.1-2.5-1.1-1.7 0-2.8 1.4-2.8 3.1s1.1 3 2.8 3c1.1 0 1.7-.5 2.5-1.1l1.4 1.4c-1.1 1.1-2.1 1.7-4 1.7-2.8.1-5-2.2-5-5.1z"/><path fill="#e6e6e6" d="m380.5 289.7h3.4l4.2 13.2 4.4-13.3h2.6l4.4 13.3 4.2-13.2h3.3l-6.2 18h-2.7l-4.4-12.8-4.4 12.8h-2.7z"/><path fill="#e6e6e6" d="m406.7 300.8c0-3.9 3.1-7 7.2-7 4.2 0 7.2 3.2 7.2 7s-3.1 7-7.3 7c-4.1 0-7.1-3.1-7.1-7zm11.3 0c0-2.3-1.7-4.3-4.2-4.3s-4.1 2-4.1 4.3 1.7 4.3 4.1 4.3c2.7.1 4.2-1.9 4.2-4.3z"/><path fill="#e6e6e6" d="m423.3 294h3.1v3c.8-2 2.4-3.4 4.8-3.3v3.2h-.2c-2.7 0-4.6 1.7-4.6 5.4v5.1h-3.1z"/><path fill="#e6e6e6" d="m433 288.9h3.1v11.1l5.6-6h3.8l-5.4 5.5 5.5 8h-3.5l-4.1-5.8-1.9 2v3.9h-3.1z"/><path fill="#e6e6e6" d="m445.6 300.8c0-3.9 3.1-7 7.2-7 4.2 0 7.2 3.2 7.2 7s-3.1 7-7.3 7c-4.1 0-7.1-3.1-7.1-7zm11.3 0c0-2.3-1.7-4.3-4.2-4.3s-4.1 2-4.1 4.3 1.7 4.3 4.1 4.3c2.6.1 4.2-1.9 4.2-4.3z"/><path fill="#e6e6e6" d="m462.1 302.6v-8.6h3.1v7.6c0 2.1 1.1 3.3 2.9 3.3s3-1.3 3-3.3v-7.6h3.1v13.4h-3.1v-2.1c-.8 1.3-2.1 2.3-4.2 2.3-3.1.2-4.8-1.8-4.8-5z"/><path fill="#e6e6e6" d="m477.8 303.8v-7.1h-1.8v-2.7h1.7v-3.7h3.1v3.7h3.6v2.6h-3.6v6.6c0 1.2.6 1.7 1.7 1.7.7 0 1.3-.2 1.9-.5v2.5c-.8.5-1.7.7-2.8.7-2.2.1-3.8-.9-3.8-3.8z"/><path fill="#e6e6e6" d="m487.1 289.7h3.2v15h9.4v2.9h-12.5v-17.9z"/><path fill="#e6e6e6" d="m509.9 307.5v-1.7c-.9 1.1-2.3 2-4.4 2-2.6 0-4.8-1.4-4.8-4.2 0-3 2.3-4.4 5.4-4.4 1.7 0 2.6.2 3.7.5v-.2c0-1.9-1.2-2.9-3.3-2.9-1.5 0-2.6.3-3.9.8l-.8-2.5c1.5-.7 2.9-1.1 5.1-1.1 4 0 5.9 2.1 5.9 5.7v8zm.1-5.6c-.8-.3-1.9-.5-3.1-.5-2 0-3.1.8-3.1 2.1s1.1 2 2.6 2c2 0 3.5-1.1 3.5-2.9z"/><path fill="#e6e6e6" d="m518.8 305.5v2.1h-3.1v-18.7h3.1v7.4c1-1.4 2.4-2.5 4.5-2.5 3.2 0 6.3 2.5 6.3 7s-3.1 7-6.3 7c-2.2 0-3.5-1.1-4.5-2.3zm7.7-4.7c0-2.6-1.7-4.3-3.9-4.3s-3.9 1.7-3.9 4.4c0 2.6 1.8 4.3 3.9 4.3s3.9-1.7 3.9-4.4z"/><path fill="#e6e6e6" d="m530.8 305.8 1.4-2.1c1.4 1.1 3 1.7 4.4 1.7s2.1-.5 2.1-1.5-1.3-1.4-2.8-1.8c-.1 0-.2-.1-.2-.1-2-.6-4.2-1.4-4.2-4s2.1-4.1 4.8-4.1c1.7 0 3.5.6 5 1.5l-1.2 2.2c-1.3-.8-2.6-1.3-3.8-1.3s-1.9.5-1.9 1.4 1.3 1.4 2.8 1.8c.1 0 .2.1.2.1 2 .6 4.2 1.5 4.2 4 0 2.9-2.2 4.2-5 4.2-1.9 0-4.1-.7-5.8-2z"/><path fill="#e6e6e6" d="m659.5 298.6c0-5.1 4.1-9.2 9.3-9.2s9.2 4.2 9.2 9.2-4.1 9.2-9.3 9.2-9.2-4.2-9.2-9.2zm17.3-.1c0-4.5-3.5-8.2-8.2-8.2s-8.2 3.7-8.2 8.3c0 4.5 3.5 8.2 8.2 8.2 4.8 0 8.2-3.7 8.2-8.3zm-13-.1c0-2.8 2.1-5.1 5.1-5.1 1.9 0 2.9.6 3.9 1.5l-1.4 1.7c-.8-.7-1.5-1.1-2.5-1.1-1.7 0-2.8 1.4-2.8 3.1s1.1 3 2.8 3c1.1 0 1.7-.5 2.5-1.1l1.4 1.4c-1.1 1.1-2.1 1.7-4 1.7-2.9.1-5-2.2-5-5.1z"/><path fill="#e6e6e6" d="m679.3 289.7h3.4l4.2 13.2 4.4-13.3h2.6l4.4 13.3 4.2-13.2h3.3l-6.2 18h-2.6l-4.4-12.8-4.4 12.8h-2.7z"/><path fill="#e6e6e6" d="m705.5 300.8c0-3.9 3.1-7 7.2-7 4.2 0 7.2 3.2 7.2 7s-3.1 7-7.3 7c-4 0-7.1-3.1-7.1-7zm11.3 0c0-2.3-1.7-4.3-4.2-4.3s-4.1 2-4.1 4.3 1.7 4.3 4.1 4.3c2.7.1 4.2-1.9 4.2-4.3z"/><path fill="#e6e6e6" d="m722.1 294h3.1v3c.8-2 2.4-3.4 4.8-3.3v3.2h-.2c-2.7 0-4.6 1.7-4.6 5.4v5.1h-3.1z"/><path fill="#e6e6e6" d="m731.8 288.9h3.1v11.1l5.6-6h3.8l-5.4 5.5 5.5 8h-3.5l-4.1-5.8-1.9 2v3.9h-3.1z"/><path fill="#e6e6e6" d="m744.4 300.8c0-3.9 3.1-7 7.2-7 4.2 0 7.2 3.2 7.2 7s-3.1 7-7.3 7c-4.1 0-7.1-3.1-7.1-7zm11.3 0c0-2.3-1.7-4.3-4.2-4.3s-4.1 2-4.1 4.3 1.7 4.3 4.1 4.3c2.6.1 4.2-1.9 4.2-4.3z"/><path fill="#e6e6e6" d="m760.9 302.6v-8.6h3.1v7.6c0 2.1 1.1 3.3 2.9 3.3s3-1.3 3-3.3v-7.6h3.1v13.4h-3.1v-2.1c-.8 1.3-2.1 2.3-4.2 2.3-3.1.2-4.8-1.8-4.8-5z"/><path fill="#e6e6e6" d="m776.6 303.8v-7.1h-1.7v-2.7h1.7v-3.7h3.1v3.7h3.6v2.6h-3.6v6.6c0 1.2.6 1.7 1.7 1.7.7 0 1.3-.2 1.9-.5v2.5c-.8.5-1.7.7-2.8.7-2.3.1-3.9-.9-3.9-3.8z"/><path fill="#e6e6e6" d="m785.9 289.7h3.2v15h9.4v2.9h-12.5v-17.9z"/><path fill="#e6e6e6" d="m808.7 307.5v-1.7c-.9 1.1-2.3 2-4.4 2-2.6 0-4.8-1.4-4.8-4.2 0-3 2.3-4.4 5.4-4.4 1.7 0 2.6.2 3.7.5v-.2c0-1.9-1.2-2.9-3.3-2.9-1.5 0-2.6.3-3.9.8l-.8-2.5c1.5-.7 2.9-1.1 5.1-1.1 4 0 5.9 2.1 5.9 5.7v8zm.1-5.6c-.8-.3-1.9-.5-3.1-.5-2 0-3.1.8-3.1 2.1s1.1 2 2.6 2c2 0 3.5-1.1 3.5-2.9z"/><path fill="#e6e6e6" d="m817.6 305.5v2.1h-3.1v-18.7h3.1v7.4c1-1.4 2.4-2.5 4.5-2.5 3.2 0 6.3 2.5 6.3 7s-3.1 7-6.3 7c-2.1 0-3.5-1.1-4.5-2.3zm7.7-4.7c0-2.6-1.7-4.3-3.9-4.3-2.1 0-3.9 1.7-3.9 4.4 0 2.6 1.8 4.3 3.9 4.3 2.2 0 3.9-1.7 3.9-4.4z"/><path fill="#e6e6e6" d="m829.6 305.8 1.4-2.1c1.4 1.1 3 1.7 4.4 1.7s2.1-.5 2.1-1.5-1.3-1.4-2.8-1.8c-.1 0-.2-.1-.2-.1-2-.6-4.2-1.4-4.2-4s2.1-4.1 4.8-4.1c1.7 0 3.5.6 5 1.5l-1.2 2.2c-1.3-.8-2.6-1.3-3.8-1.3s-1.9.5-1.9 1.4 1.3 1.4 2.8 1.8c.1 0 .2.1.2.1 2 .6 4.2 1.5 4.2 4 0 2.9-2.2 4.2-5 4.2-1.9 0-4-.7-5.8-2z"/><path fill="#e6e6e6" d="m206.3 434.2c0-5.1 4.1-9.2 9.3-9.2s9.2 4.2 9.2 9.2-4.1 9.2-9.3 9.2-9.2-4.1-9.2-9.2zm17.4-.1c0-4.5-3.5-8.2-8.2-8.2s-8.2 3.7-8.2 8.3c0 4.5 3.5 8.2 8.2 8.2s8.2-3.7 8.2-8.3zm-13.1-.1c0-2.8 2.1-5.1 5.1-5.1 1.9 0 2.9.6 3.9 1.5l-1.4 1.7c-.8-.7-1.5-1.1-2.5-1.1-1.7 0-2.8 1.4-2.8 3.1s1.1 3 2.8 3c1.1 0 1.7-.5 2.5-1.1l1.4 1.4c-1.1 1.1-2.1 1.7-4 1.7-2.9.1-5-2.2-5-5.1z"/><path fill="#e6e6e6" d="m226.1 425.3h3.4l4.2 13.2 4.4-13.3h2.6l4.4 13.3 4.2-13.2h3.3l-6.2 18h-2.7l-4.4-12.8-4.4 12.8h-2.7z"/><path fill="#e6e6e6" d="m252.4 436.4c0-3.9 3.1-7 7.2-7 4.2 0 7.2 3.2 7.2 7s-3.1 7-7.3 7c-4.1 0-7.1-3.1-7.1-7zm11.2 0c0-2.3-1.7-4.3-4.2-4.3s-4.1 2-4.1 4.3 1.7 4.3 4.1 4.3c2.7.1 4.2-1.9 4.2-4.3z"/><path fill="#e6e6e6" d="m269 429.7h3.1v3c.8-2 2.4-3.4 4.8-3.3v3.2h-.2c-2.7 0-4.6 1.7-4.6 5.4v5.1h-3.1z"/><path fill="#e6e6e6" d="m278.6 424.5h3.1v11.1l5.6-6h3.8l-5.4 5.5 5.5 8h-3.5l-4.1-5.8-1.9 2v3.9h-3.1z"/><path fill="#e6e6e6" d="m291.3 436.4c0-3.9 3.1-7 7.2-7 4.2 0 7.2 3.2 7.2 7s-3.1 7-7.3 7c-4.1 0-7.1-3.1-7.1-7zm11.2 0c0-2.3-1.7-4.3-4.2-4.3s-4.1 2-4.1 4.3 1.7 4.3 4.1 4.3c2.6.1 4.2-1.9 4.2-4.3z"/><path fill="#e6e6e6" d="m307.7 438.2v-8.6h3.1v7.6c0 2.1 1.1 3.3 2.9 3.3s3-1.3 3-3.3v-7.6h3.1v13.4h-3.1v-2.1c-.8 1.3-2.1 2.3-4.2 2.3-3 .2-4.8-1.8-4.8-5z"/><path fill="#e6e6e6" d="m323.4 439.4v-7.1h-1.7v-2.6h1.7v-3.7h3.1v3.7h3.6v2.6h-3.6v6.6c0 1.2.6 1.7 1.7 1.7.7 0 1.3-.2 1.9-.5v2.5c-.8.5-1.7.7-2.8.7-2.3 0-3.9-.9-3.9-3.9z"/><path fill="#e6e6e6" d="m332.7 425.3h3.2v15h9.4v2.9h-12.5v-17.9z"/><path fill="#e6e6e6" d="m355.5 443.1v-1.7c-.9 1.1-2.3 2-4.4 2-2.6 0-4.8-1.4-4.8-4.2 0-3 2.3-4.4 5.4-4.4 1.7 0 2.6.2 3.7.5v-.2c0-1.9-1.2-2.9-3.3-2.9-1.5 0-2.6.3-3.9.8l-.8-2.5c1.5-.7 2.9-1.1 5.1-1.1 4 0 5.9 2.1 5.9 5.7v8zm.1-5.6c-.8-.3-1.9-.5-3.1-.5-2 0-3.1.8-3.1 2.1s1.1 2 2.6 2c2 0 3.5-1.1 3.5-2.9z"/><path fill="#e6e6e6" d="m364.4 441.1v2.1h-3.1v-18.7h3.1v7.4c1-1.4 2.4-2.5 4.5-2.5 3.2 0 6.3 2.5 6.3 7s-3.1 7-6.3 7c-2.1 0-3.5-1.1-4.5-2.3zm7.7-4.7c0-2.6-1.7-4.3-3.9-4.3-2.1 0-3.9 1.7-3.9 4.4 0 2.6 1.8 4.3 3.9 4.3 2.2 0 3.9-1.7 3.9-4.4z"/><path fill="#e6e6e6" d="m376.5 441.4 1.4-2.1c1.4 1.1 3 1.7 4.4 1.7s2.1-.5 2.1-1.5-1.3-1.4-2.8-1.8c-.1 0-.2-.1-.2-.1-2-.6-4.2-1.4-4.2-4s2.1-4.1 4.8-4.1c1.7 0 3.5.6 5 1.5l-1.2 2.2c-1.3-.8-2.6-1.3-3.8-1.3s-1.9.5-1.9 1.4 1.3 1.4 2.8 1.8c.1 0 .2.1.2.1 2 .6 4.2 1.5 4.2 4 0 2.9-2.2 4.2-5 4.2-2 0-4.1-.7-5.8-2z"/><path fill="#e6e6e6" d="m505.1 434.2c0-5.1 4.1-9.2 9.3-9.2s9.2 4.2 9.2 9.2-4.1 9.2-9.3 9.2-9.2-4.1-9.2-9.2zm17.4-.1c0-4.5-3.5-8.2-8.2-8.2s-8.2 3.7-8.2 8.3c0 4.5 3.5 8.2 8.2 8.2s8.2-3.7 8.2-8.3zm-13.1-.1c0-2.8 2.1-5.1 5.1-5.1 1.9 0 2.9.6 3.9 1.5l-1.4 1.7c-.8-.7-1.5-1.1-2.5-1.1-1.7 0-2.8 1.4-2.8 3.1s1.1 3 2.8 3c1.1 0 1.7-.5 2.5-1.1l1.4 1.4c-1.1 1.1-2.1 1.7-4 1.7-2.9.1-5-2.2-5-5.1z"/><path fill="#e6e6e6" d="m525 425.3h3.4l4.2 13.2 4.4-13.3h2.6l4.4 13.3 4.2-13.2h3.3l-6.2 18h-2.7l-4.4-12.8-4.4 12.8h-2.7z"/><path fill="#e6e6e6" d="m551.2 436.4c0-3.9 3.1-7 7.2-7 4.2 0 7.2 3.2 7.2 7s-3.1 7-7.3 7c-4.1 0-7.1-3.1-7.1-7zm11.2 0c0-2.3-1.7-4.3-4.2-4.3s-4.1 2-4.1 4.3 1.7 4.3 4.1 4.3c2.7.1 4.2-1.9 4.2-4.3z"/><path fill="#e6e6e6" d="m567.8 429.7h3.1v3c.8-2 2.4-3.4 4.8-3.3v3.2h-.2c-2.7 0-4.6 1.7-4.6 5.4v5.1h-3.1z"/><path fill="#e6e6e6" d="m577.5 424.5h3.1v11.1l5.6-6h3.8l-5.4 5.5 5.5 8h-3.5l-4.1-5.8-1.9 2v3.9h-3.1z"/><path fill="#e6e6e6" d="m590.1 436.4c0-3.9 3.1-7 7.2-7 4.2 0 7.2 3.2 7.2 7s-3.1 7-7.3 7c-4.1 0-7.1-3.1-7.1-7zm11.2 0c0-2.3-1.7-4.3-4.2-4.3s-4.1 2-4.1 4.3 1.7 4.3 4.1 4.3c2.6.1 4.2-1.9 4.2-4.3z"/><path fill="#e6e6e6" d="m606.5 438.2v-8.6h3.1v7.6c0 2.1 1.1 3.3 2.9 3.3s3-1.3 3-3.3v-7.6h3.1v13.4h-3.1v-2.1c-.8 1.3-2.1 2.3-4.2 2.3-3 .2-4.8-1.8-4.8-5z"/><path fill="#e6e6e6" d="m622.2 439.4v-7.1h-1.7v-2.6h1.7v-3.7h3.1v3.7h3.6v2.6h-3.6v6.6c0 1.2.6 1.7 1.7 1.7.7 0 1.3-.2 1.9-.5v2.5c-.8.5-1.7.7-2.8.7-2.3 0-3.9-.9-3.9-3.9z"/><path fill="#e6e6e6" d="m631.5 425.3h3.2v15h9.4v2.9h-12.5v-17.9z"/><path fill="#e6e6e6" d="m654.3 443.1v-1.7c-.9 1.1-2.3 2-4.4 2-2.6 0-4.8-1.4-4.8-4.2 0-3 2.3-4.4 5.4-4.4 1.7 0 2.6.2 3.7.5v-.2c0-1.9-1.2-2.9-3.3-2.9-1.5 0-2.6.3-3.9.8l-.8-2.5c1.5-.7 2.9-1.1 5.1-1.1 4 0 5.9 2.1 5.9 5.7v8zm.1-5.6c-.8-.3-1.9-.5-3.1-.5-2 0-3.1.8-3.1 2.1s1.1 2 2.6 2c2 0 3.5-1.1 3.5-2.9z"/><path fill="#e6e6e6" d="m663.3 441.1v2.1h-3.1v-18.7h3.1v7.4c1-1.4 2.4-2.5 4.5-2.5 3.2 0 6.3 2.5 6.3 7s-3.1 7-6.3 7c-2.2 0-3.6-1.1-4.5-2.3zm7.7-4.7c0-2.6-1.7-4.3-3.9-4.3s-3.9 1.7-3.9 4.4c0 2.6 1.8 4.3 3.9 4.3s3.9-1.7 3.9-4.4z"/><path fill="#e6e6e6" d="m675.3 441.4 1.4-2.1c1.4 1.1 3 1.7 4.4 1.7s2.1-.5 2.1-1.5-1.3-1.4-2.8-1.8c-.1 0-.2-.1-.2-.1-2-.6-4.2-1.4-4.2-4s2.1-4.1 4.8-4.1c1.7 0 3.5.6 5 1.5l-1.2 2.2c-1.3-.8-2.6-1.3-3.8-1.3s-1.9.5-1.9 1.4 1.3 1.4 2.8 1.8c.1 0 .2.1.2.1 2 .6 4.2 1.5 4.2 4 0 2.9-2.2 4.2-5 4.2-2 0-4.1-.7-5.8-2z"/></g>
</svg>
