<?xml version="1.0" encoding="utf-8"?>
<!-- Generator: Adobe Illustrator 23.0.1, SVG Export Plug-In . SVG Version: 6.00 Build 0)  -->
<svg version="1.2" baseProfile="tiny" id="Layer_1" xmlns="http://www.w3.org/2000/svg" xmlns:xlink="http://www.w3.org/1999/xlink"
	 x="0px" y="0px" viewBox="0 0 900 600" xml:space="preserve">
<g>
	<path d="M720.35,185.57c-0.01,0.03-0.02,0.05-0.03,0.08C720.35,185.71,720.36,185.67,720.35,185.57z"/>
	<path d="M718.76,174.13c-8.98-1.31-6.43,0.82-24.06,2.18c3.11-3.22,7.26-6.12,2.7-10.68c1.76-4.25,1.76-4.25-1.87-7.47
		c1.87-3.94-1.76-4.67-4.04-6.33c0.21-2.39-1.56-3.73-3.42-5.19c3.42-1.56,6.53-2.8,9.65-4.36c15.53-7.76,9.75-17.53,3.73-18.46
		c-8.96-1.38-22.36,2.62-32.77,5.81c-19.19,5.87-19.22,11.81-17.84,2.39c1.35-9.17-9.22-19.65-13.17-23.65
		c-5.28-5.35-7.82-2.46-16.39-7.26c-4.6-3.07-5.7,0.33-14.42-8.71c-1.37-1.43-2.49-3.22-4.77-3.42c0.21-3.32,0.1-6.33,4.36-6.95
		c2.82-0.41,2.3-4.23,4.46-8.61c4.35-8.81,1.25-10.64,4.77-19.19c1.38-3.35,0.1-6.84-1.35-10.16c0.52,5.19-1.97,9.96-1.97,14.93
		c0,6.53-2.41,12.33-4.36,18.36c-2.39,7.41-14.24,1.93-15.56,4.56c2.07,2.7,5.5,0.93,8.4,2.18c-1.66,6.02-1.45,11.93-0.21,17.94
		c2.76-0.72,2.39-2.46,2.39-8.92c5.42,2.17,8.95,41.75-0.93,41.17c-0.1-8.19-4.15-14.31-9.96-19.39c3.42-1.66,3.42-1.66,3.73-3.63
		c-1.14-0.62-1.87,0.52-2.9,0.52c-8.19-0.63,1.12-0.73-14.62-4.67c2.39,1.97,5.7,2.18,7.99,4.46c-6.74-2.49-13.69-2.39-20.64-1.97
		c-6.52-18.62-7.46-19.15-7.67-23.44c3.56-2.59,10.87-1.05,10.47-10.27c-0.17-3.83,1.66-6.78,0.93-13.69
		c-0.3-2.8-0.83-5.81,1.56-8.82c-2.59,0.41-3.53-0.62-3.94-2.39c2.06-1.54,2.53,2.97,3.53-6.53c-1.35-1.24-3.11-2.18-3.01-4.46
		c1.66-0.73,2.59,0.31,2.8,1.56c0.5,2.91,1.97,5.5,1.97,8.5c3.11-0.39,4.55-11.32,6.74-13.59c4.76-4.91,3.14-10.93,8.4-8.4
		c-1.7-3.93,4.47,0.21,0.62-6.84c-1.14-0.52-2.59,0.1-3.42-1.14c0.1-0.73,0.52-1.24,1.45-1.45c2.07,1.24,4.87,1.76,5.5,4.87
		c1.56-0.52,0.41-1.56,0.83-2.39c1.76,0.52,3.32-0.75,5.19-0.62c4.88,0.34,9.75,2.28,15.14-0.21c-0.41,5.6,1.45,10.47,2.49,15.35
		c-7.88,3.11-10.47,4.67-8.09,11.62c0.41-1.66,0.1-3.01,0.93-4.25c2.18,0.93,4.25-0.1,6.64-0.83c0.62-3.01,2.91-6.12,1.87-9.13
		c-1.55-4.46-1.24-9.02-2.18-13.28c1.97-3.11,5.6-3.94,8.09-6.43c-0.93-1.14,0.21-2.49-0.1-3.73c-1.76-0.83-3.42,0.21-5.19-0.21
		c0.83-1.56,3.53-1.24,3.73-3.63c-2.39-1.45-4.04,0.41-6.02,1.24c0-2.49,1.04-4.77-0.83-7.05c-1.45,1.76-2.8,3.22-4.77,4.15
		c0.1-0.83,1.04-1.35,0.21-1.97c-4.04-1.35-7.46,2.16-11.72,1.24c-3.94-0.85-8.19-0.21-12.34-0.21c-1.35,0.93-1.35,3.53-3.63,2.9
		c-0.31-0.83,0.83-2.18-1.04-2.59c-2.49,3.01-5.7,4.87-9.65,5.08c-1.87-1.14-3.21-3.84-6.12-2.18c0.1,1.76,1.87,2.18,2.07,3.01
		c-1.56,2.28-2.49,4.25-2.59,6.74c3.6-2.7,3.71,0.17,5.08,0.93c0.93,0.31,1.66-0.83,2.7-0.41c0.52,0.93-0.1,1.56-0.93,2.39
		c-2.39-2.18-4.67-1.04-6.95,0.93c-0.11-2.06,3.72-3.84,0.1-3.84c-0.31-0.52-0.73-0.52-1.87-0.21c0.1,0.83,0.62,1.55,0,2.7
		c-1.46,2.69-2.96,5.6-3.01,8.82c-0.01,0.88-4.01,5.53-1.04,13.38c3.8,10.02-0.23,6.31,2.18,10.37c2.43,4.09,2.21,11.06,3.53,13.17
		c2.79,4.48,1.6,14.24-6.33,18.25c-6.14,3.11-6.44,0.93-38.17,18.77c-14.07,7.91-16.85,21.98-16.9,22.09
		c-6.58,13.62,1.25,19.83-4.46,29.14c-8.95,14.59-0.29,16.56-7.57,30.8c-3.57,7,2,11.6,1.66,16.9c-0.55,8.65,5.51,18.74,14.83,16.28
		c12.47-3.29,15.33-1.2,19.39-4.98c1.88-1.75,4.25-2.7,6.43-4.77c0,0.1-2.06,27.47,0.93,38.79c-2.49,1.76-2.27,4.46-1.97,7.26
		c1.85,17.52-3,10.07-5.91,21.57c-3.02,11.91-1.32,12.24-2.59,13.17c-5.76,4.21-2.28,41.38-5.6,53.31
		c3.8,4.31-3.24,20.09,1.45,38.27c1.12,4.34-2.07,0.54-2.07,12.13c0,1.24-1.04,2.9,0.93,4.15c1.87-1.56,3.94-1.04,6.02-0.73
		c4.19,35.6,5.38,16.51-2.59,40.65c-6.89,20.87-5.25,33.4-0.31,63.68c7.65,46.91,3.1,39.49,4.98,44.49
		c2.4,6.38-2.49,7.42-1.04,11.51c1.34,3.77-2.79,7.8-1.24,11.3c1.37,3.1,0.32,5.3-1.24,7.67c-2.68,4.06-2.56,10.01,2.18,13.48
		c5.75,4.22-0.11,6.22,6.95,9.33c10.61,4.69,20.86,3.09,32.88,0.93c1.24-0.22,2.28-1.04,3.11-2.59c-1.35-0.52-1.25-1.97-1.56-3.11
		c-2.33-8.77-4.86-7.56-5.19-9.96c-0.47-3.45-7.08-17.47-9.23-21.68c0.83-0.83,1.14,0.73,1.87,0.1c-0.32-3.18-4.78-2.66-2.59-6.64
		c1.59-2.89,1.23-6.02,1.45-9.02c0.3-4.05-2.07-6.22-6.33-5.81c-0.21-2.8-1.03-5.6-0.52-8.5c1.19-6.81,2.54-21.59,4.87-27.07
		c12.44-29.14,7.17-58.49,6.64-70.11c-2.07,1.04-1.67,2.7-1.56,4.04c3.49,41.57-4.62,52.5-9.54,72.81
		c-0.9-9.57-0.59-5.71-0.21-23.54c0.19-8.72-3.63,0.92-1.76,15.76c1.33,10.53-2.29,22.91-0.31,32.25c1.08,5.07,2.64,4.48-9.23,6.02
		c0-2.8,0.52-5.19-0.83-7.78c-1.53,5.53,2.03,9.13-5.5,9.13c-0.05-0.1-6.93-63.63-7.78-66.89c-3-11.6-0.27-19.19,0.41-28
		c1.11-14.19,8.88-19.4,7.67-38.06c0-5.04-0.38-0.4-2.07-12.65c4.95-4.64,18.66-0.1,38.27-4.25c0.83-0.1,1.76-0.41,2.49,0.31
		c-1.87,7.88-4.96,15.37-6.12,23.44c-1.14,7.94-1.76,10.93-5.29,14.21c-1.43,1.33-5.8,5.91-3.84,5.91
		c13.69-10.37,9.68-23.89,12.76-28.94c2.67-4.37,4.25-9.13,5.6-14c1.45-0.41,2.17-2.05,3.94-1.76c2.07,0.34,3.11-1.04,4.56-2.28
		c2.8-2.39,2.54-5.4,3.01-8.3c3.49-21.73,3.22,5.03,3.32,5.91c0.53,4.56,0.52,4.56,5.19,5.08c3.74,0.62,1.32,0.76,2.59,7.78
		c3.42,18.81,8.12,21.25,3.53,44.08c-3.55,17.63,1.93,25.92,2.9,32.57c3.27,22.2,8.75,40.27,8.4,55.59c-0.08,3.4,3.56,2.59,2.9-6.84
		c-1.24-17.99-9.09-47.36-10.79-54.76c-5.56-24.24,3.12-36.42,0.52-51.44c-3.5-20.18-5.03-15.34-5.29-24.79
		c2.74-2.35,2.28-1.75,2.28-1.04c11.41,1.97,22.82,4.46,34.64,2.07c1.14,1.56,1.56,2.91,0.93,4.67c-2.54,7.08,0.82,11.63-3.22,19.5
		c-0.53,1.03-0.41,2.18-1.24,3.11c3.59,5.38-1.91,0.22-0.52,12.96c0.83-2.8,1.14-5.29,2.39-8.09c2.55,10.75,4.41,29.81,4.25,30.91
		c-6.64,47.15-3.21,79.42-7.67,71.98c-3.53,1.56-7.16,1.45-10.58,2.49c-0.93-3.42,0.31-6.95-1.45-10.58
		c-1.04,3.94-0.41,7.36-0.83,10.89c-1.35,0.73-3.11,0.73-4.04,2.18c-0.52,0.93,0.31,1.87-0.1,2.9c-8.19,7.23,0.6,2.29-6.53,19.5
		c-0.43,1.03-1.27,2.08-0.83,3.22c1.83,4.75-3.85,6.65-1.56,9.23c2.59,2.91,4.45,6.78,8.5,7.99c14.06,4.17,10.3,0.46,15.66,3.53
		c0.41,4.67,3.21,6.99,7.57,7.57c8.15,1.09,25.09,2.12,28-5.5c2.18-0.52,4.8-0.42,4.46-3.42c-0.89-7.92-4.09-7.26-11.62-17.01
		c-8.67-11.23-16.18-14.4-16.18-26.86c-1.35-1.56-3.21-0.62-5.08-1.45c0.41-4.04-1.13-8.19-0.62-12.45
		c2.64-22.26,1.75-38.79,4.15-49.57c4.51-20.26-3.65-49.09-3.42-50.61c1.56-1.04,1.96-2.7,1.87-4.67
		c-0.86-18.84,2.39-13.99,3.11-21.88c3.53-1.04,6.74,0.41,9.96-0.83c0.21-10.16,1.57-20.22,0.41-30.39
		c-0.99-8.72-2.03-30.36-3.01-32.88c-2.64-6.76-6.29-39.85-7.05-46.98c-1.4-13.11-12.45-24.28-11.2-31.84
		c0.39-2.39-0.41-4.04-2.28-4.67c-3.42-15.45-0.1-30.28,0.83-45.84c5.89,5.89,8.61,10.53,13.79,8.71c5.29-1.85,14.03,2.18,25.72-8.3
		c7.26,2.59,38.42-4.41,54.34-13.38C727.77,184.49,723.85,174.87,718.76,174.13z M601.05,97.7c0-0.52,0-0.93,0-1.56
		C601.46,96.76,601.46,97.18,601.05,97.7z M611.21,40.45c0.73-0.52,1.56-0.83,2.59-0.41C613.08,41.69,612.04,40.55,611.21,40.45z
		 M619.41,11.62c-2.09,3.83-2.4,3.58-2.8,0.41C617.33,11.41,618.27,11.51,619.41,11.62z M611.73,5.19c1.35,1.45,0.1,1.97-0.93,2.7
		C610.59,6.74,611.42,6.02,611.73,5.19z M609.35,19.6c-0.41,0.31-0.73,0.31-1.35-0.21C608.83,18.46,609.14,19.08,609.35,19.6z
		 M602.4,18.88c-1.56,0.41-2.49-0.62-3.53-1.35C600.22,17.53,601.36,17.84,602.4,18.88z M594.62,16.49
		c1.04-1.14,1.35-0.31,1.76,0.31C595.66,17.42,595.14,17.01,594.62,16.49z M596.9,8.19c-0.62,1.56-1.97,1.97-3.11,3.11
		C593.58,8.82,594.41,7.88,596.9,8.19z M588.81,6.95c-0.62,0.52-0.93,0.1-1.04-0.52C588.4,6.02,588.71,6.33,588.81,6.95z
		 M580.41,28.94c0.21-1.14,0.41-2.07,0.52-3.01C582.59,26.96,582.59,26.96,580.41,28.94z M580.93,16.18
		c-0.62,1.97-2.07,3.32-4.15,4.67C577.09,18.05,579.48,17.42,580.93,16.18z M579.89,9.44c-0.62,1.87-1.87,2.07-3.42,1.87
		C577.4,10.47,578.23,9.54,579.89,9.44z M577.09,15.45c0,0.93-0.41,0.93-0.73,1.24C575.95,15.76,576.47,15.66,577.09,15.45z
		 M576.16,28.94c0.52,0.62-0.21,0.83-0.52,1.14C575.43,29.45,575.74,29.14,576.16,28.94z M575.74,31.74
		c0.41,1.87-0.62,2.18-1.45,3.01C573.57,32.77,574.71,32.46,575.74,31.74z M575.12,41.69c-0.52,1.14-0.41,2.07-1.66,2.18
		C573.46,42.94,573.88,42.42,575.12,41.69z M569.83,9.85c1.14-0.52,1.14,0.1,1.45,0.73C570.25,10.99,570.14,10.37,569.83,9.85z
		 M572.74,46.98c-0.31-0.52-0.41-1.04,0.41-1.24C573.57,46.36,573.36,46.67,572.74,46.98z M572.94,31.84
		c-0.31,0.73-0.83,1.04-1.66,1.14C571.18,31.53,571.7,31.22,572.94,31.84z M567.65,30.39c0.83,1.45-0.52,2.59-0.31,4.04
		C566.72,32.98,566.62,31.63,567.65,30.39z M564.44,51.96c0.52,0.1,0.62,0.52,0.62,0.93C564.34,52.79,564.34,52.79,564.44,51.96z
		 M565.27,48.64c-1.35-1.66-3.63-3.01-1.04-5.39c1.24,0.41,1.66,1.24,2.39,2.07C565.79,46.26,564.96,47.19,565.27,48.64z
		 M555.94,572.9c-1.14,0.1-1.76-0.1-2.28-0.83C554.69,571.34,555.31,571.34,555.94,572.9z M556.77,575.39
		c-0.62,0.73-1.24,0.62-1.97,0.1C555.31,574.97,555.94,574.97,556.77,575.39z M529.7,545.52c0.83-1.14,2.28-1.76,3.94-1.35
		c1.04,6.64,0.83,7.36-3.21,9.44c-1.35-1.04-1.35-1.04-2.39-4.15C530.32,548.84,528.97,546.97,529.7,545.52z M532.5,555.68
		c4.16-2.32,3.32-4.12,3.32-10.89c17.01-4.56,11.86-1.8,12.76-0.73c1.24,0.52,1.35-1.45,2.59-1.04c0.1,4.56-2.39,8.82-2.18,13.38
		c-4.15,0.62-8.19,0.31-12.45,1.76c1.56,2.07-0.4,3.93,0.83,6.22c0.94,1.76,1.87,2.36,3.53,2.39c3.94,0.05,7.77,1.33,11.72,0.52
		c1.04-0.21,1.45,0.52,1.66,1.66c-4.77,0.21-9.54-1.76-14.21-0.31c0.21,2.18,2.07,1.87,2.59,2.7c0.73,1.45-0.41,2.39-0.73,3.94
		c4.98,2.7,10.16,3.01,15.87,1.76c6.54,15.7,3.81,10.21,5.6,9.85c0.83,2.39,1.66,4.87,2.18,7.99c-16.06,0.8-15.3,4.93-34.43-1.45
		c-0.1-3.73-2.07-6.23-4.46-8.4c-3.21-2.91-4.05-9.24-1.04-12.45c3.84-4.08,0.55-6.16,0.93-7.57c0.96-3.55,0.21-7.16,0.93-11.2
		C528.97,555.48,530.31,556.91,532.5,555.68z M549.92,560.77c-1.56-0.1-3.22-0.31-4.77-0.41
		C546.81,559.83,548.47,559.31,549.92,560.77z M612.67,535.98c5.7-1.04,11.2-2.49,16.9-2.39c2.13,4.25-9.56,0.74-11.62,3.94
		c-0.52,2.18,1.56,3.53,2.39,5.29c-0.21,1.35-0.73,2.59-1.45,4.04c-1.56-1.35-3.21,0.2-4.87-0.41c-1.97-0.73-2.07-2.39-1.56-4.04
		c-0.83-0.62-1.14,0.21-1.87,0.1C610.49,540.13,613.18,538.78,612.67,535.98z M649.28,562.32c-1.76,0.62-3.01-0.73-4.98-0.21
		C646.58,559.73,647.93,560.25,649.28,562.32z M638.18,548.32c-0.41,0.93-1.14,0.41-1.76,0.21
		C636.93,548.22,637.56,548.01,638.18,548.32z M634.13,538.47c1.66,2.28,0.83,5.08,2.28,7.36c-8.5-1.45-9.96-0.21-9.23,3.01
		c-1.56,0.52-3.22-0.41-5.19,0.41c0.41,3.11,3.11,2.18,4.98,2.7c-0.1,1.45-2.49,0.73-2.18,3.22c1.45,2.07,4.36,0,6.53,1.04
		c-0.31,3.53-0.31,3.53,7.88,2.8c-3.32,1.97-3.32,1.97-3.63,4.04c0.89,1.01,1.55,0.08,4.04-0.41c3.21,3.73,7.05,2.18,10.99,1.56
		c3.38,5.98,11.34,10.29,11.82,15.56c-2.18,3.32-5.19,4.98-9.02,5.81c-7.7,1.67-24.34,3.45-25.62-4.36
		c-1.29-7.89-15.2,2-24.37-13.07c4.59-6.59-0.39-7.87,3.42-11.82c2.85-2.96,2.49-6.64,2.8-10.68c3.34,4.18,2.8,4.93,8.82,3.63
		c3.12-0.68,3.11-3.84,3.84-6.33c-0.83-1.35-2.39-2.28-2.49-4.36C624.7,538.99,629.47,538.26,634.13,538.47z M631.85,548.63
		c-0.62,0-1.35,0.31-2.07-0.31C630.64,548.32,633.2,548.29,631.85,548.63z M693.77,155.26c1.6,3.21-2.25,1.52,3.01,6.12
		c0.1,1.76-1.24,2.7-1.14,4.25c2.7,3.84,2.7,4.25-0.83,7.99c-2.9-0.73-5.59-1.64-8.61,0c-2.89,1.57-5.29,0.62-6.22-1.87
		c4.36-0.52,12.45-3.01,14.52-4.77c-2.9-0.31-5.4,0.71-7.67,1.76c-3.12,1.44-6.53,1.25-9.75,1.87c-2.18,0.42-2.49-1.45-2.07-3.22
		c4.56-4.46,11.41-3.01,16.39-6.43c-5.91-0.52-11.3,3.94-17.32,2.18c4.15-5.39,11.2-5.19,15.66-9.54c-3.42,0.41-6.53,1.76-9.75,3.63
		c-0.41-2.49-1.56-4.46-1.56-6.84c0-2.7-1.35-3.63-4.25-3.73c-0.41-1.14-0.83-2.28-1.24-3.63c2.7-2.7,6.53-2.28,9.75-3.63
		c1.97,2.59,2.07,5.39,2.49,8.09c-1.56,1.45-3.84,0.83-5.5,2.07c2.49,0.83,2.8,0.83,7.88-1.04
		C689.72,150.69,691.07,154.01,693.77,155.26z M692.32,177.35c-8.19,0.91-7.49,5.74-9.44-1.56c3.21,0.62,5.81-1.66,9.02-0.93
		C692.42,175.48,692.11,176.41,692.32,177.35z M705.69,133.06c-3.22,5.19-6.53,7.36-18.05,11.41c-1.56-1.56-1.56-3.73-2.49-5.81
		c-6.69-0.53-17.44,1.94-13.59,8.92c-5.08,3.01-17.32,3.94-21.68,1.76C651.25,141.9,696.11,127.86,705.69,133.06z M664.42,169.36
		c-1.97,1.45-4.04,2.9-6.12,4.46c-2.39-0.83-4.56-2.18-7.16-1.45c-1.45-7.88-1.45-15.87-3.94-23.54c2.41,4.66,5.71,3.74,17.42,3.01
		C665.77,157.74,661.51,163.34,664.42,169.36z M651.04,139.08c9.4-6.13,33.81-14.61,50.92-13.17c2.69,0.23,3.11,2.28,3.42,4.46
		c-20.85-0.1-39.51,5.81-57.04,16.18C647.2,143.22,647.83,141.17,651.04,139.08z M596.38,122.48
		c-16.18-14.52-55.49-6.53-62.95,16.39C528.81,114.02,584,99.15,596.38,122.48z M556.25,86.91c-0.85,3.81,0.05,5.43,5.6,22.82
		c-1.04,1.14-2.28,1.14-3.73,1.45C553.99,92.64,550.08,86.91,556.25,86.91z M514.04,211.88c-2.07-0.21-4.35,1.25-6.53,1.87
		c-6.79,1.92-11.51-4.2-11.62-11.2c-0.17-10.77-3.6-6.96-2.7-14.62c0.44-3.73,0.1-7.88,3.53-10.68c2.37-1.69-2.58-12.53,5.08-26.24
		c5.58-9.98-2.65-17.77,6.74-31.01c2.18-3.08,9.43-13.86,14.42-15.87c11.77-4.73,2.96-1.69,26.76-13.59
		c4.45,13.35,0.38,6.43-3.01,8.82c4.2,3.15,5.26-4.33,7.57,12.76c-0.6,0.6-24.39,9.4-22.4,25.82c0.37,3.02-3.52,3.84,0.1,3.84
		c3.73,6.33,5.9,12.86,4.56,20.33c-1.89,10.53-8.93,4.53-24.27,7.57c-1.56,0.31-3.22-1.35-4.87-0.1c4.14,1.65-1.41-0.5-5.29,6.74
		c7.16-4.46,15.14-4.77,23.13-4.77c12.17,0,11.29-3.97,21.26-7.05c11.54-3.57,11.82-19.74,10.06-23.75
		c-0.21,6.02-1.56,11.72-4.46,17.11c-50.45-14.19,20.46-63.26,45.94-30.91c5.6,7.12,2.2,13.15-1.66,19.81
		c-1.75,3.02-3.92,5.8-7.57,6.53c-0.86,0.17-0.96,0.92-0.96,1.17c-6.91,1.62-14.13,0.37-20.82,2.88
		c-18.47,6.93-29.69,16.31-23.13,34.02C537.35,199.21,524.23,212.94,514.04,211.88z M537.58,165.21c1.45-3.11,3.11-6.12,3.53-9.96
		c3.22,1.76,5.91,3.22,9.44,3.53C547.02,163.24,541.31,162.1,537.58,165.21z M608,186.37c-5.82,12.74-24.09,18.81-38.37,18.88
		c-18.96,0.09-32.65-14.52-19.81-29.04C570.78,152.5,619.07,162.14,608,186.37z M606.65,168.63c0.31,0.31,0.52,0.62,0.83,1.04
		C606.75,169.88,606.44,169.46,606.65,168.63z M543.18,185.54c-3.95-25.91,50.05-39.37,62.43-17.94
		C585.54,154.15,551.2,162.2,543.18,185.54z M536.23,257.2c-1.97-2.49-1.24-5.19-0.62-7.78
		C535.82,252.02,536.02,254.61,536.23,257.2z M585.49,366c1.14,1.24,1.45,2.9,1.45,4.46C586.22,369.11,583.63,368.38,585.49,366z
		 M634.86,396.8c-0.31-0.62-0.41-1.24,0.73-1.45C635.9,396.07,635.38,396.38,634.86,396.8z M629.88,272.55
		c1.24-1.45,0.52-2.7,1.14-3.84c4.11,4.86,2.35,8.27,11.2,66.69c2.88,19.02,5.67,33.94,3.42,48.33c-1.45,9.3,2.7,8.02-6.64,8.09
		c-34.26,0.27-16.74,3-43.45-2.8c-1.97-0.43-3.84-1.45-6.33-1.14c-5.36-34.57-0.21-7.56,1.87-4.04c-0.83-8.19-3.53-15.35-5.81-22.4
		c1.14-0.93,2.07-0.41,2.8-1.24c3.01,4.87,4.77,10.37,7.67,15.25c-2.88-12.85-8.4-14.22-7.05-22.09
		c5.04-29.37,3.16-21.14,5.81-27.48c-1.14-3.22-1.02-6.32,0.1-9.23c3.8-9.83,1.85-22.19-0.52-25.51c1.04,6.53,1.76,12.96,0.52,19.5
		c-0.04-0.1-2.36-16.18-1.56,4.98c0.08,2.18-1.34,4.15-0.73,6.12c0.91,2.89,0.67,5.11,0.21,7.88c-2.68,0-11.5,29.18-11.93,42.11
		c-0.19,5.6-1.24,10.89-3.94,16.49c-18.15,2.18-36.61,2.39-55.17,3.11c4.26-23.87-2.38-7.11,0.83-41.48
		c1.99-21.31,0.56-24.83,1.76-49.57c0.5-10.23,3.67-14.19,4.77-21.16c0.74-4.67,1.78-9.22,4.98-12.96
		c1.99-2.33,2.85-10.94,6.74-10.16c0.31,0.1,0.83-1.45,1.35-2.28c1.56,0.21,0.21,2.28,1.76,2.59c1.04-0.52,0.21-1.87,0.73-2.39
		c2.03-1.63,3.17,0.63,4.69,0.72c0.46-2.74,2.49-1.03,4.02-1.13c-0.21-1.66-1.03-2.05-2.49-1.45c-1.34,0.54-1.97-0.73-3.01-1.87
		c-1.35,4.15-3.84-0.41-5.6,1.24c-0.73-0.73,0.21-2.18-1.24-2.49c-1.14,0-3.8,13.53-3.22-1.04c24.99,1.76,49.99,0.83,74.88,3.42
		c1.15,3.45-2.27,5.52-3.63,1.45c-1.35,0-0.73,1.56-1.56,1.66c-2.39,0.52-1.97-1.66-2.59-2.8c-1.14,1.24-0.73,2.39-0.41,3.42
		c1.04,0.93,2.39,0.93,3.73,1.66c-0.62,6.22,1.14,11.93,5.81,16.59c-2.8-4.98-3.73-10.37-3.73-15.76c0.93-1.24,1.97-0.83,3.22-0.83
		c-0.31,5.39,4.98,6.12,7.36,9.33c-0.73-3.53-4.56-5.39-4.87-9.23c2.18-0.93,4.04,0.73,6.02,0.21c-1.04-1.66,0.21-2.9,0.62-4.67
		C625.32,258.97,630.4,264.36,629.88,272.55z M616.3,253.16c-1.56-0.52-0.73,2.9-2.9,1.76c-0.41-1.14,0.73-1.97,0.62-3.11
		c5.43-0.39,4.21,0.89,3.11,3.63C615.88,254.82,617.23,253.78,616.3,253.16z M620.13,226.82c-1.49,0.96-10.3,1.24,0,1.24
		c-0.21,6.64,0.73,12.96,1.04,19.81c-28.11-3.22-56.21-0.1-84.42-1.66c1.14-7.47,0-15.14-0.31-23.23c7.16-1.14,14,0,20.85,0
		c-6.64-1.04-13.28-2.07-20.33-1.24c-0.41-6.02,0.31-12.13-0.62-17.94c2.9-2.8,5.7-5.6,8.5-8.3c15.77,19.41,38.5,7.13,46.26,9.96
		c0.83,0.3,1.76,0.52,2.49-0.52c-0.68-2.9-8.95,0.69,3.42-4.98c0,9.79-0.24,8.5,0.73,8.5c0.38-7.61-0.1-9.03,3.01-11.41
		c13.71-10.47,15.7-29.9-7.47-39.83c-0.41-0.31,0.41-1.66-1.04-2.18c-2.2,2.57-6.22,1.45-4.56-0.21c-0.1,0.15,4.62,1.39,9.44-5.6
		c2.42-3.51,5.29-7.05,4.87-11.82c6.02-1.24,6.95-6.33,8.19-10.79c4.18-14.97-2.9-28.12-2.39-29.66
		c4.67,1.67,11.1,60.77,23.65,60.77c-0.83,2.49-2.7,4.56-3.94,7.05c-1.87,0.1-3.63,0.73-5.08,2.18c1.24,0.62,2.39-0.1,3.63,0.21
		C621.79,186.89,623.14,207.11,620.13,226.82z M646.89,207.63c-12.82-0.42-6.09,5.94-20.53-8.5c-0.31-4.67,3.42-8.82,1.35-13.69
		c1.97,0,2.7-1.14,2.8-2.8c-9.26-13.89,12.33-24.35,8.61-44.6c-0.42-2.28,0.93-4.67-0.1-7.26c-2.36,1.77-1.64,13.9-7.47,27.07
		c-3.51-4.74-7.75-10.77-7.99-16.7c-0.29-7.39-3.33-7.01-6.84-29.14c-0.59-3.74-1.97-7.26-3.32-11.2c2.9,1.24,4.87,3.32,7.88,3.53
		c-1.24,0.73-3.01-0.1-3.73,1.76c2.07,1.87,3.84-0.1,5.6-0.52c38.32,9.94,19.07,40.34,21.47,46.26c1.59,3.93,2.09,7.98,2.39,12.13
		c0.22,3.01,2.59,5.29,2.18,8.92c-1.45,1.35-3.32,3.01-5.08,4.67c2.59-0.73,4.77-1.97,7.05-3.73c1.66,0.62,3.73,0.52,5.6,1.87
		c3.11-2.28,7.47-2.59,9.44-6.84c-3.73-5.6,1.76-10.99,0.21-16.9c3.63-0.62,6.12-2.8,9.02-3.84c2.07,2.49,2.7,7.99,1.04,10.47
		c-0.93-0.62-1.87-1.35-2.59-1.87c-1.73-3.22,0.76-7.43-2.39-1.14c0,2.28,1.87,2.9,3.21,3.94c-0.83,1.35-2.39,2.07-2.39,3.32
		c0.1,1.97,1.76,1.87,2.59,2.59c-0.1,1.45-1.76,1.66-1.87,2.9c1.14,3.22,1.24,3.22,4.87,3.42c0.83,3.01,3.84,5.08,3.84,8.61
		c-1.45,0.62-2.9,1.35-4.77,2.28c-0.41-2.39-2.7-2.49-4.25-3.63c-1.48-5.18-0.33-4.74-3.84-5.91c-1.14,0.62-2.28,1.14-2.7,2.49
		c1.24,0.31,2.18-0.73,3.53-0.83c3.65,13.25,11.04,3.65-4.67,12.96c-6.48,3.84-4.77,7.75-2.07,12.86
		C658.4,205.35,653.22,207.84,646.89,207.63z M662.55,197.26c-2.45-5.94,2.34-8.69,16.08-14c10.56-4.08,27.03-8.35,38.37-7.78
		c3.63,0.18,4.77,1.35,5.39,4.98C700.82,180.77,680.91,186.16,662.55,197.26z M707.77,183.36c-0.83,0.31-1.45,0.52-2.28,0.1
		C706.21,183.05,706.94,183.05,707.77,183.36z M665.97,200.99c0-1.56,1.24-0.31,1.66-1.04c0.1-0.73-0.83-0.73-0.93-1.66
		c5.81-5.81,31.2-12.56,44.6-14.42c7.73-1.07,8.97,1.18,9.05,1.69c1.07-2.8,1.75-2.51-1.07-2.51c0.83-0.83,1.35-0.73,1.87,0
		C729.6,187.24,679.75,204.44,665.97,200.99z"/>
	<path d="M361.58,266.64c-0.83-0.2-1.87-0.1-2.7-1.45c0.21-7.36-2.42-14.84-1.35-22.61c0.67-4.84-1.21-5.13-2.18-16.08
		c-0.23-2.59-0.83-4.98-2.9-6.84c1.14-4.87-0.14-9.85-0.31-14.73c-0.18-5.3-2.75-7.43-3.22-10.47c-2.86-18.75,5.24-24.76-2.59-39.2
		c-0.73-1.35-1.23-2.59-0.83-3.94c1.82-6.1-0.31-12.34,0.21-18.46c0.8-9.54-9.52-20.3-13.59-24.27c-6.25-6.11-8.37-2.1-16.9-7.67
		c-2.54-2.03-5.93,0.37-14.42-8.71c-1.25-1.34-2.28-2.7-4.15-2.9c-0.21-4.77,0.1-5.4,3.94-6.95c3.71-1.5,2.45-5.25,4.77-9.23
		c3.71-6.34,1.48-10.26,4.56-18.46c1.33-3.53,0.1-7.05-1.45-10.47c0.73,5.5-2.01,10.37-1.97,15.56c0.05,6.43-2.57,12.01-4.36,17.94
		c-2.16,7.18-14.53,1.68-15.45,4.46c2.18,2.49,5.39,0.93,8.5,1.97c-1.76,5.91-1.45,11.93-0.31,17.94c5.76-3.33-0.5-11.37,3.73-8.09
		c3.17,2.45,12.45,47.36-12.24,45.22c0.73-2.8,0.73-5.5-0.52-8.61c-0.41,3.01-0.83,5.6-1.24,8.4
		c-24.41-7.32-19.16-17.91-30.49-45.22c-6.44-15.53,8.61-2.64,8.61-17.73c0-3.8,1.8-7.6,0.83-15.04c-0.3-2.28-0.62-4.77,1.76-7.05
		c-2.39,0.1-3.84-0.52-4.04-2.59c2.59-1.15,2.51,2.68,3.53-6.43c-1.45-1.35-3.11-2.28-3.01-4.56c1.97-0.62,2.77,0.52,3.01,1.97
		c0.46,2.81,1.97,5.29,2.18,8.19c2.7-2.8,3.39-6.34,4.56-9.75c2.35-6.81,3.32-4.01,5.39-9.96c0.8-2.29,1.97-3.84,4.87-2.59
		c-1.04-2.8,2.39-1.35,2.18-3.63c-0.41-0.73-0.93-1.87-1.56-3.11c-1.14-0.41-2.59,0.21-3.42-1.14c0.4-3.2,6.17,0.43,7.05,3.53
		c1.45-0.62,0.41-1.56,0.83-2.39c1.76,0.62,3.22-0.73,4.98-0.62c4.98,0.3,9.96,2.39,15.56-0.21c-1.04,5.7,1.76,10.37,2.28,15.25
		c-8.5,3.63-10.37,4.87-7.99,11.62c0.21-1.76-0.1-3.01,0.83-4.25c2.28,1.04,4.36-0.21,6.33-0.73c0.93-1.45,0.95-3,1.35-4.46
		c0.43-1.55,1.55-3.31,0.73-4.98c-2.1-4.24-1.35-9.02-2.28-13.07c2.07-3.22,5.5-3.94,7.99-6.33c-0.41-1.24,0-2.7,0-4.04
		c-1.87-0.52-3.53,0.21-5.29-0.1c1.14-1.66,3.94-1.24,3.73-3.84c-2.28-1.24-3.84,0.41-5.7,1.35c-0.31-2.39,1.04-4.77-0.73-6.95
		c-1.76,1.24-2.8,3.22-4.87,3.94c-0.52-0.62,0.83-1.14-0.1-1.97c-3.73-1.35-7.16,2.19-11.3,1.35c-4.05-0.82-8.4-0.21-11.93-0.21
		c-1.97,1.14-1.97,3.63-4.25,2.9c-0.76-6.84-0.96,1.98-10.68,2.49c-1.87-1.24-3.22-3.63-6.02-2.28c-0.21,1.76,1.87,2.18,2.18,3.53
		c-2.07,1.66-2.7,3.94-2.8,6.33c3.72-2.79,3.77,0.23,4.98,0.83c0.93,0.31,1.66-0.83,2.8-0.31c0.52,0.93-0.1,1.56-0.83,2.18
		c-3.11-1.35-3.11-1.35-7.16,0.52c-0.11-1.41,3.65-3.22,0.21-3.22c-0.21-0.52-0.62-0.52-1.66-0.31c-0.1,0.73,0.73,1.46,0,2.7
		c-1.54,2.6-2.96,5.6-3.01,8.82c-0.02,1.11-4.65,6.89,0.1,15.76c2.39,4.46-1.32,3.97,1.14,8.19c2.27,3.4,2.18,10.84,3.42,12.86
		c2.92,4.74,1.48,14.26-6.22,18.25c-6.93,3.59-5.92,0.64-39.72,19.6c-9.74,5.46-9.8,11.86-12.24,22.09
		c-2.51,10.55,4.48,17.6-2.49,26.76c-3.64,4.79-4.68,10.98-3.11,23.02c0.5,3.83-6.42,15.19-3.11,27.59
		c2.88,10.79-7.78,12.87,8.4,68.35c0.51,1.76,0.73,3.32,0.1,5.08c-30.49,7.62-29.7,38.71-14.42,53.72
		c14.25,13.99,26.17,6.17,28.31,7.88c-1.26,20.11-3.36,30.19-0.21,42.11c1.05,5.24-1.61,0.11-2.07,10.06
		c-0.52,11.17,0.23,3.64,7.05,5.91c-0.33,13.88,3.74,17.19,2.59,25.82c-0.3,2.27-7.53,15.82-8.92,29.56
		c-1.22,12.08-4.38,4.85,5.19,61.6c2.91,17.24,1.29,23.84,3.53,33.19c1.33,5.57-3.08,5.84-1.45,10.16
		c1.35,3.58-2.97,7.66-1.24,11.41c1.34,2.91,0.31,4.97-1.24,7.26c-2.81,4.14-2.66,10.15,1.97,13.48c5.27,3.79,0.72,6.15,6.33,9.02
		c10.36,5.31,21.8,3.29,33.5,1.35c7.54-1.25-2.65-13.49-4.77-19.71c-2.06-6.02-4.77-11.93-7.88-17.63c0.93-0.41,1.14,0.41,1.76,0.41
		c1.28-2.89-4.93-1.5-1.87-8.3c1.36-3,0.76-6.12,0.93-9.13c0.13-2.18-1.66-3.42-3.22-4.56c-1.04-0.52-1.97,0.73-2.9,0.1
		c-3.18-13.42,7.15-43.64,8.92-53.1c1.4-7.49,5.44-1.03,1.87-52.79c-2.82,2.19-0.83,2.72-0.83,17.84c0,39.98-3.71,31.38-10.16,59.22
		c-1.92-14.19,1.1-24.51-1.14-26.76c-3.39,15.96,1.41,12.52-1.45,40.55c-1.82,17.85,8,14.45-8.92,17.01
		c0.31-2.8,0.31-5.19-0.62-7.57c-0.93,2.59,0.1,5.5-1.24,8.09c-8.7,3.73-1.79-3.09-7.78-30.91c-1.91-8.86-3.05-29.94-4.36-34.95
		c-3.13-11.99-0.23-19.64,0.31-28.11c0.92-14.37,8.02-17.56,7.67-37.96c-0.09-5.29-0.49-0.55-2.18-12.76
		c6.2-4.96,18.17-0.21,38.48-4.46c6.29-1.8-2.58,10.19-4.77,29.66c-0.38,3.43-1.87,6.02-4.25,8.4c-13.29,13.29,6.48,3.87,7.47-16.08
		c0.46-9.18,1.82-3.03,7.16-20.95c1.35,0,1.76-1.78,3.22-1.66c9.11,0.76,7.59-15.44,10.89-19.29c2.15,8.61-2.51,18.9,4.87,19.71
		c4.87,0.53,2.12,0.15,3.53,7.88c3.5,19.27,7.93,19.89,3.32,44.8c-3.25,17.55,1.94,24.53,3.01,31.94c3.47,24.17,8.9,40.52,8.3,55.28
		c-0.43,3.44,3.5,3.46,2.8-6.74c-1.19-17.27-8.54-45.34-10.68-54.45c-5.85-24.88,3.12-36.77,0.41-51.75
		c-3.1-17.2-8.4-25.35-2.9-26.45c0.62,0.1,0.62,1.15,1.45,1.24c10.98,1.2,21.88,4.04,33.6,1.24c0.93,5.81-1.47,11-0.83,16.28
		c0.5,4.15-2.39,7.57-3.11,11.51c3.71,3.25-2.64,3.3-0.62,12.13c0.73-2.39,1.35-4.77,1.97-7.16c8.5,29.38,1.42,44.58,0.1,81.41
		c-0.25,7.05-2.49,14.1-1.04,21.26c0,0.24-1.01,1.42-2.18-0.52c-3.32,1.76-7.16,1.45-10.68,2.59c-0.73-3.53,0.21-6.95-1.14-10.27
		c-1.2,1.61-0.93,2.92-0.93,10.37c-1.45,1.14-3.22,1.04-4.04,2.18c-0.73,1.14,0.1,2.18-0.31,3.22c-1.87,1.76-4.36,3.53-3.73,6.22
		c1.78,7.66-4.87,14.15-3.73,17.11c1.61,4.2-4.01,6.37-1.66,8.92c2.78,3.02,4.56,6.94,8.92,8.09c3.53,0.93,7.05,2.25,10.79,1.97
		c7.41-0.56,1.8,7.41,11.72,8.92c8.46,1.29,24.66,2.32,28.21-5.5c1.76-0.21,3.73-0.31,4.46-2.49c-0.41-4.56-2.42-8.15-5.91-11.2
		c-4.38-3.83-8.1-10.8-12.96-15.14c-5.7-5.08-8.92-10.99-9.02-18.46c-1.35-1.45-3.22-0.52-4.98-1.45c0.52-4.15-1.03-8.3-0.52-12.55
		c1.37-11.41,1.94-22.92,2.49-34.43c0.73-15.4,3.7-20.15,3.11-29.45c-0.29-4.63-2.29-27.1-3.94-31.42
		c-2.69-7.04,0.93-3.47,0.93-8.71c0-21.37,2.3-14.43,3.22-22.82c8.27,0,8.36,0.56,9.54-0.62c2.9-22.92-0.93-45.43-2.59-68.45
		c4.04,2.8,8.09,4.98,12.86,5.81C395.5,339.72,398.42,275.65,361.58,266.64z M295.41,98.32c0-1.14,0-1.56,0-2.07
		C295.93,96.76,295.72,97.18,295.41,98.32z M305.58,40.55c0.73-0.93,1.66-0.52,3.01-0.93C307.34,41.59,306.51,40.65,305.58,40.55z
		 M311.18,11.93c0.73-0.41,1.56-0.41,2.59-0.31C311.51,16.59,310.75,13.65,311.18,11.93z M306.41,5.29c0,1.56,0,1.56-1.56,2.7
		C305.27,6.74,305.47,5.81,306.41,5.29z M303.92,19.5c-0.62,0.41-0.93,0.31-1.35,0C303.09,18.46,303.4,19.19,303.92,19.5z
		 M296.97,18.98c-1.66,0.21-2.7-0.62-3.73-1.56C294.48,17.53,295.72,17.84,296.97,18.98z M289.5,15.87
		c0.73-0.21,0.93,0.31,1.35,1.04C289.92,17.01,288.88,17.53,289.5,15.87z M291.47,8.3c-1.04,1.35-1.97,1.97-3.01,2.7
		C288.46,8.4,288.46,8.4,291.47,8.3z M283.07,6.53c0.35,0.53-0.72,1.3-0.93-0.41C282.66,6.33,282.97,6.33,283.07,6.53z
		 M265.34,10.79c-0.62,0.1-0.83-0.41-1.14-0.83C265.04,9.12,265.9,10.5,265.34,10.79z M267.2,46.98c-0.31-0.52-0.41-1.04,0.41-1.24
		C268.03,46.36,267.72,46.67,267.2,46.98z M267.31,44.18c0.62-1.04,1.04-1.66,1.35-2.18C268.97,42.83,268.97,43.56,267.31,44.18z
		 M275.5,25.31c2.18,1.87,0.41,2.59-0.62,3.42C274.98,27.79,275.19,26.86,275.5,25.31z M275.19,16.08c-0.1,2.39-2.28,3.11-3.63,4.46
		C271.66,18.05,273.95,17.53,275.19,16.08z M274.36,9.33c-0.62,2.18-2.07,2.18-3.53,1.97C271.87,10.68,272.6,9.54,274.36,9.33z
		 M271.25,15.45c0.38,0.75-0.44,1.22-0.73,0.93C270.42,15.76,270.83,15.66,271.25,15.45z M270.52,28.94c0.52,0.62,0,0.93-0.73,1.35
		C269.8,29.45,270,29.14,270.52,28.94z M270,31.84c0.83,1.66-0.31,2.07-1.35,2.7C267.83,32.88,268.86,32.46,270,31.84z
		 M267.31,31.74c-0.31,0.83-0.83,1.24-1.87,1.14C265.65,31.42,266.37,31.53,267.31,31.74z M262.02,29.87
		c1.14,1.97-0.52,3.22-0.41,4.46C261.29,32.88,260.88,31.53,262.02,29.87z M258.6,51.96c0.73,0.21,0.83,0.52,0.83,1.14
		C258.28,53,258.6,52.48,258.6,51.96z M259.63,48.64c-1.24-1.66-3.63-3.11-1.14-5.29c1.35,0,1.66,1.04,2.39,1.66
		C260.46,46.26,259.22,47.19,259.63,48.64z M249.47,571.76c1.38,0,0.4,2.52-1.35,0.41C248.33,571.45,248.95,571.65,249.47,571.76z
		 M250.92,575.28c-0.41,1.14-1.04,0.52-1.76,0.21C249.68,574.97,250.3,574.97,250.92,575.28z M227.9,544.17
		c1.45,6.22,0.73,8.5-3.63,9.44c-1.35-1.14-0.93-2.7-1.76-3.84C224.79,548.11,222.92,542.82,227.9,544.17z M226.76,555.58
		c5.6-3.14,2.24-5.13,3.73-11.1c4.04-0.83,8.09-2.18,12.03-2.49c0.93,0.73-0.1,1.24,0.41,1.87c1.04,0.62,1.24-1.56,2.49-1.04
		c0,4.56-2.28,8.82-2.28,13.27c-4.15,0.62-8.19,0.31-12.34,1.76c1.49,1.99-1.27,8.36,4.36,8.61c3.94,0.17,7.77,1.33,11.72,0.52
		c1.04-0.21,1.45,0.41,1.76,1.66c-4.77,0.31-9.54-1.76-14.21-0.31c0.1,2.18,1.95,1.88,2.59,2.9c0.8,1.26-0.62,2.07-0.52,3.84
		c4.77,2.49,9.96,2.9,15.66,1.66c5.43,14.74,4.59,11.75,5.29,9.44c1.14,3.01,1.97,5.6,2.49,8.61c-11.17,0.55-21.06,4.82-32.77-1.04
		c-0.62-0.21-1.45-0.1-1.66-0.41c-0.1-3.84-2.07-6.33-4.46-8.5c-3.31-3.01-4.04-9.23-0.83-12.65c3.67-3.91,0.2-5.94,0.73-7.26
		c1.14-3.63,0.1-7.36,0.93-11.2C223.33,555.27,224.57,556.81,226.76,555.58z M244.39,560.25c-1.56,0.62-3.11,0.1-4.67-0.1
		C241.28,559.73,242.83,559.52,244.39,560.25z M306.3,539.4c0.93-0.93,0.52-2.18,1.14-3.53c5.5-1.04,10.99-2.59,16.7-2.39
		c1.17,2.33-0.68,1.96-8.3,2.59c-6.73,0.56-1.98,4.82-1.04,6.95c-0.41,1.14-0.83,2.39-1.24,3.84c-2.07-1.35-4.84,1.12-6.64-1.66
		c-0.61-0.94,0.21-2.07-0.31-3.01c-0.62-0.41-0.93,0.31-1.56,0.41C304.95,541.27,305.37,540.23,306.3,539.4z M343.85,562.74
		c-1.97-0.41-3.32-0.73-4.67-1.04C341.56,559.94,341.56,559.94,343.85,562.74z M332.85,548.32c-0.62,0.73-1.24,0.21-2.59,0.52
		C331.5,548.11,332.13,548.01,332.85,548.32z M328.81,538.67c1.56,1.97,0.41,4.77,2.28,7.05c-3.42-0.21-6.45-1.89-9.23,0.31
		c-1.04,0.82,0,1.66-0.21,2.49c-1.56,0.73-3.22-0.21-4.67,0.31c-0.1,2.49-0.1,2.49,4.46,3.11c-0.41,1.24-2.18,0.83-2.49,2.8
		c1.76,2.07,4.46,0.52,6.95,1.24c-1.54,4.61,3.12,3.19,7.78,2.7c-1.24,1.35-3.94,1.35-3.73,3.94c1.66,1.35,2.9-0.41,4.25-0.21
		c3.11,3.63,6.95,2.18,11.1,1.45c2.8,5.91,9.85,8.61,11.82,15.35c-2.28,3.94-5.71,5.37-9.75,6.12c-7.74,1.44-23.64,3.26-24.89-4.56
		c-1.23-7.71-15.57,1.8-24.37-12.55c1.56-2.49,2.44-5.17,1.76-8.3c-0.79-3.65,3.81-1.57,4.46-14.21c1.76,4.04,4.87,4.65,8.5,3.63
		c3-0.84,3.01-3.84,3.94-6.43C313.34,537.57,310.23,538.67,328.81,538.67z M326.63,548.42c-0.93,0.41-1.87,0.31-2.8,0
		C324.76,548.11,325.7,548.11,326.63,548.42z M324.04,107.65c10.1,3.1,21.54,16.57,18.56,35.16c-2.16,13.49,9.12,17.64,4.25,32.67
		c-1.85,5.71,0.3,11.51,0.41,17.32c0.17,8.59,3.73,7.32,3.73,22.4c0,3.22-1.14,6.74,2.07,9.23c0.2,0.2,2.63,18.31,2.49,21.26
		c-0.27,5.7-1.1,11.45,1.14,17.01c0.33,0.82,0.21,1.87-0.31,3.01c-3.94-0.41-7.78,1.35-11.62,2.39
		c-10.89-34.76-12.05-25.96-12.65-42.83c-0.29-8.09-2.88-15.85-3.73-23.75c-0.13-1.24-0.42-2.48-2.07-2.8
		c-1.35-0.26-11.19-19.24,0.1-35.99c3.91-5.79,8.17-17.11,6.43-23.75c-0.5-1.89,0.84-5.29,0-7.99c-2.98,1.49-0.1,7.69-6.95,26.86
		c-11.61-16.5-5.86-13.41-9.65-23.65c-5.7-15.39-3.06-19.72-8.92-33.5C312.94,104.44,318.55,105.97,324.04,107.65z M318.96,247.97
		c-3.73-18.15,1.04-35.88,1.66-53.83c4.56,8.19,6.43,17.01,6.33,26.14c-0.2,17.67,8.38,19.99,14.93,48.74
		c-3.94,2.49-7.88,4.46-10.47,8.92c-10.42-20.83-10.83-22.18-10.06-26.76C321.66,249.32,320.1,248.6,318.96,247.97z M249.99,86.81
		c0.44,6.5,5.78,28.84,19.19,50.4c1.24-0.41,0.21-1.04,0.52-1.56c0.45-0.45,23.22,15.26,32.67-3.84c5.1-10.31,3.43-25.82-0.73-35.37
		c6.29,2.1,11.12,61.29,24.16,61.29c-0.73,2.59-2.7,4.56-3.94,7.16c-1.87,0.1-3.73,0.41-4.98,2.07c1.14,0.62,2.28-0.1,3.63,0.21
		c-4.25,19.6-2.9,39.83-5.81,59.53c-1.8,1.28-9.78,0.85-0.1,1.45c-0.21,6.53,0.83,12.86,1.04,19.6c-28.11-3.22-56.32,0-84.52-1.76
		c1.04-3.63,0.52-7.47,0.62-11.41c0.42-15.66-8.04-11.93,19.91-11.93c-6.64-1.14-13.38-2.07-20.43-1.24
		c0.38-25.07-1.26-26.15-3.84-32.98c-0.82-2.18-0.31-3.63,1.45-5.08c-1.87-3.22,1.45-5.91,1.35-9.44c2.07,0.93,2.49,3.01,4.25,3.73
		c0.52-0.41,0.1-0.83-0.1-1.14c-5.35-6.5-0.49-11.53-1.76-20.12c1.04-1.14,2.7-1.04,3.42-2.28c2.28,1.76,4.25,3.42,7.36,3.94
		c-1.24-2.07-3.42-2.49-4.46-4.67c5.81-2.7,8.61-8.19,11.93-12.96C259.2,110.11,241.14,86.17,249.99,86.81z M310.56,253.16
		c-1.35-0.21-0.62,2.59-2.7,1.76c-0.41-1.14,0.73-1.97,0.52-3.01c1.35-0.52,2.59-0.21,4.04,0.21c0.21,1.24-0.31,2.18-0.93,3.22
		C310.35,254.92,311.7,253.57,310.56,253.16z M206.22,273.07c-12.96,19.81-1.87,46.46,17.01,53.83
		C197.33,320.17,192.18,285.58,206.22,273.07z M200.21,308.75c-1.76-0.83-1.87-2.18-1.76-3.84
		C200,305.84,199.48,307.5,200.21,308.75z M217.53,321.61c-12.74-8.74-18.59-26.04-13.59-40.65c5.37-15.67,22.8-21.85,36.82-13.17
		c14.58,9.03,19.48,27.81,14.93,41.07C250.05,325.29,231.86,331.43,217.53,321.61z M227.48,208.77c0.19,32.36-0.13,32.6,1.76,36.51
		c-5.85,3.97,1.56,9.83-3.94,17.01c-3.11-0.1-5.91,1.97-9.44,2.39c-2.19-13.99,6.42-3.54,1.04-55.17c-0.3-2.9,0-5.91,0-8.61
		c3.94-3.01,5.7-7.16,9.13-10.58c0.21,3.63,1.55,6.74,1.04,10.16C226.65,203.27,227.47,205.97,227.48,208.77z M229.97,249.53
		c-0.52,2.9,1.66,5.81-0.31,9.54C229.35,255.44,229.04,252.43,229.97,249.53z M232.25,152.25c1.56,1.04,2.07,1.76,0.52,2.8
		C231.94,154.22,232.36,153.39,232.25,152.25z M194.81,186.58c0.83,3.94-0.41,6.74-0.93,9.75
		C193.15,193.21,193.57,190.21,194.81,186.58z M194.19,210.01c1.18,1.86,3.86,9.93,2.9,2.18c-0.87-7.07-0.96-14.01,0.41-21.16
		c2.09-10.89-2.4-34.08,3.22-8.09c1.22-7.56,0.71-5.04-1.14-11.51c-0.62-2.18-0.22-4.35-1.56-6.64c-3.49-6,8.35-15.19,5.7-29.56
		c-1.85-10.05,1.78-21.99,3.22-23.13c3.66-2.89,6.54-6.73,11.2-8.3c9.63-3.25,5.3-3.32,25.93-13.17
		c9.14,39.75,8.65,48.55-7.16,60.77c-1.24-2.18-2.2-4.26-1.45-6.74c0.4-1.35-1.45-1.97-1.35-4.15c-7.42,12.14,0.88,17.14-9.23,44.91
		c-1.29,3.54-6.65,9.29-6.95,12.45c-0.73-2.28,0.21-4.67-0.31-6.95c-0.73,0.1-0.83,0.73-0.83,1.14c-4.17,23.62-1.91,7.11,0.83,42.21
		c0.51,6.56-5.72,29.45-4.36,31.11c-3.22,2.49-6.95,4.15-9.33,7.16C198.06,254.69,190.63,228.54,194.19,210.01z M183.72,285.72
		c-9.82,18-2.21,41.31,17.42,49.16C180.71,331.67,170.23,302.21,183.72,285.72z M214.83,333.53c-20.64,6.38-41.97-21.89-30.91-44.49
		c3.55-7.25,10.27-12.13,17.63-12.45c-4.04,6.95-5.26,14-4.25,21.47c0.34,2.54-3.07,10.16,2.28,12.24
		c4.36,1.69,4.16,8.44,15.76,15.35C215.14,328.35,215.04,330.84,214.83,333.53z M279.75,366c1.24,1.24,1.56,2.8,1.56,4.46
		C280.38,369.21,278.2,368.28,279.75,366z M329.33,396.69c-0.31-0.73-0.41-1.35,0.73-1.24
		C330.16,396.18,329.85,396.49,329.33,396.69z M339.7,384.25c-1.57,8.47,3.1,7.29-6.53,7.36c-34.26,0.27-16.74,3-43.45-2.8
		c-1.97-0.43-3.94-1.24-6.33-1.35c-0.72-5.62-2.03-11.05-2.06-16.76c-0.18-0.18,0-0.39,0,0c1.72,1.96,1.35,4.59,1.96,6.91
		c2.83,10.84,3.62,7.11-3.73-16.28c5.79-1.34,0.99-2.21,10.47,14.31c-3.8-18.15-11.86-7.1-3.01-45.84c-1.14,0-1.14,0.93-1.45,1.56
		c-27.9,64.3,18.58,56.68-69.59,60.15c1.04-6.02,2.31-11.83,0.73-17.94c-2.7-10.45,0.91-16.5,1.24-43.97
		c0.06-4.86,3.47-0.02,10.68-0.41c36.09-1.95,39.37-44.6,13.38-62.75c4.19-15.08,2.58-10.28,1.35-11.51
		c-3.32,16.14,0.15,9.55-12.96,7.36c0-4.25,3.53-6.02,6.33-8.4c1.04,0.21-0.31,2.18,1.24,2.59c1.04-0.52,0.1-1.87,0.73-2.39
		c2.14-1.53,3.06,0.42,4.78,0.85c0.34-2.98,2.39-1.06,3.93-1.27c-0.1-1.66-0.83-2.17-2.39-1.56c-1.34,0.53-2.07-0.52-3.01-1.87
		c-1.56,3.94-4.04-0.31-5.91,1.24c-0.41-0.73,0.31-1.97-1.04-2.59c-2.07,1.24-0.52,4.46-3.01,5.7c0-2.07,0-4.04,0-6.64
		c24.79,1.66,49.78,0.83,74.67,3.42c0.62,1.24,0,2.28-0.1,3.32c-4.69,0.2-2.7-4.34-4.77-0.21c-2.39,0.62-1.97-1.56-2.59-2.8
		c-1.14,1.24-0.73,2.28-0.52,3.32c0.93,0.93,2.28,1.04,3.53,1.56c0.31,5.34-0.08,10.98,4.83,14.82c-1.53-4.52-2.76-9.16-2.55-13.89
		c0.73-1.35,1.87-0.83,3.11-0.93c-0.21,5.39,4.98,6.22,7.47,9.44c-0.83-3.53-4.77-5.39-4.87-9.33c2.07-0.62,3.84,0.73,5.91,0.31
		c-0.93-1.66,0.1-3.01,0.62-4.56c2.8,6.64,7.88,12.03,7.47,20.02c1.24-1.35,0.41-2.59,1.04-3.73c3.42,3.42,1.56,8.61,4.36,12.24
		c-8.19,15.97-2.18,29.56,6.95,43.45C334.74,339.62,343.65,362.97,339.7,384.25z M330.99,312.9c-6.03-12.96-4.67-27.69,3.84-36.4
		c-12.24,17.63-3.42,45.74,17.11,53.41C345.19,330.42,334.71,320.89,330.99,312.9z M384.29,312.38
		c-5.39,16.32-23.54,22.51-37.85,12.96c-13.07-8.71-18.98-26.45-13.69-41.17C345.3,249.27,396.98,274,384.29,312.38z"/>
	<path d="M307.33,271.66C307.35,271.67,307.28,271.47,307.33,271.66L307.33,271.66z"/>
	<path d="M295.72,40.65c-0.2-5.08-5.8-3.94-10.89-3.94c-1.97,0-3.63,1.24-5.08,3.01c2.18,0.21,3.11-1.56,5.19-1.66
		c1.24,2.18,4.25,0.21,6.22,2.28c-3.42,0.1-6.53,0.62-9.33,2.18C299.03,45.21,286.77,41.77,295.72,40.65z"/>
	<path d="M587.26,42.42c3.32,0.73,6.64,1.04,10.06,0.52c0.31-2.18,2.28-2.07,4.04-2.39c-0.22-5.1-6.59-3.58-8.71-3.94
		c-3.11-0.53-5.08,0.93-7.47,2.9c2.28,0.62,3.32-1.56,5.29-1.45c1.45,1.87,4.25,0.41,6.74,2.39
		C593.17,40.34,590.16,40.86,587.26,42.42z"/>
	<path d="M310.87,442.74c0.1,0.31,0.41,0.62,0.41,0.93c-0.52,6.22,1.04,12.24,1.04,18.46C312.32,479.75,318.75,454.65,310.87,442.74
		z"/>
	<path d="M616.68,443.21c0.08,0.16,0.13,0.31,0.13,0.47c-0.52,6.22,1.04,12.24,1.04,18.46
		C617.85,479.59,624.09,454.95,616.68,443.21z"/>
	<path d="M557.28,398.67c-6.01,6.77-11.95,14.53-21.16,10.16c-5.48-2.6,0.63,6.5,10.89,1.87
		C552.01,408.44,556.25,405.2,557.28,398.67z"/>
	<path d="M251.23,398.98c-3.73,5.29-8.4,9.23-14.93,11.3c-9.45-2.46-7.62-2.08-8.09-1.14C237.49,416.87,250.77,406.84,251.23,398.98
		z"/>
	<path d="M279.55,76.43c-3.01-3.53-7.16-5.6-10.89-8.09c-1.14-3.94-2.9-7.57-2.7-11.82c-3.32,3.73,0.31,7.47-0.21,11.41
		C281.15,78.93,278.52,77.46,279.55,76.43z"/>
	<path d="M584.97,77.68c0-3.05-4.76-5.86-9.02-8.3c-3.22-1.84-4.36-9.94-4.36-13.48c-3.63,4.36,0.21,8.09-0.41,12.03
		C575.64,71.04,580,74.15,584.97,77.68z"/>
	<path d="M533.84,430.5c0-0.52,0-0.93-0.41-1.04c-2.9,2.7-5.19,5.7-5.6,10.47c2.02-3.03,2.38-6.44,5.26-8.15
		c-0.25,2.39-1.15,4.49-2.25,6.6c-4.52,8.64,1.16,11.96-1.97,21.88c-0.76,2.41,3.7-1.35,1.97-10.58
		c-2.02-10.76,2.58-9.57,4.25-19.19C534.57,430.5,534.16,430.5,533.84,430.5z"/>
	<path d="M228.21,430.4c0-3.4-5.57,3.57-6.22,9.54c2.07-3.32,2.59-6.74,5.6-8.4c0.44-0.87,0.06,2.58-2.18,6.74
		c-4.53,8.43,0.82,11.77-2.07,22.3c-0.1,0.1,0.21,0.21,0.41,0.41c2.07-3.53,2.17-7.47,1.45-11.3c-2.1-11.19,3.07-10.13,4.25-19.19
		C228.83,430.4,228.52,430.4,228.21,430.4z"/>
	<path d="M272.6,107.44c3.63,2.07,7.5,3.18,10.79,6.02c2.62,2.25,6.02,0.93,6.95-2.49C280.92,113.66,288.8,111.6,272.6,107.44z"/>
	<path d="M540.28,425.84c-0.9,2.71,0.93,5.5,3.32,7.57c-1.14-5.5-2.9-10.89,0.31-16.39C540.17,418.99,541.24,422.94,540.28,425.84z"
		/>
	<path d="M234.85,424.9c-1.45,3.01,0.62,6.12,3.11,8.5c-1.24-5.5-2.8-10.89,0.52-16.39C234.33,418.37,236.09,422.31,234.85,424.9z"
		/>
	<path d="M319.06,410.8c1.88-0.81,2.07-2.28,1.04-5.39c-0.91,7.42-9.22,4.68-13.28,7.67C308.56,415.81,313.68,413.12,319.06,410.8z"
		/>
	<path d="M624.7,410.9c1.66-0.71,2.18-2.49,1.45-4.77c-1.75,7.16-13.48,4.19-13.48,7.26C613.89,416.15,622.27,411.94,624.7,410.9z"
		/>
	<path d="M318.44,451.25c0.12-7.12,5.73-7.06,4.87-14.21c-2.26,0.81-1.09,3.74-4.25,7.47c-2.19,2.58-2.07,5.5-1.97,8.71
		C318.33,452.91,318.43,451.87,318.44,451.25z"/>
	<path d="M624.07,451.25c0-6.64,5.5-7.07,4.87-14c-1.93-0.28-0.31,1.83-5.08,8.61c-1.46,2.07-1.35,4.67-0.73,7.16
		C623.66,452.49,624.07,451.87,624.07,451.25z"/>
	<path d="M595.76,65.75c1.87,1.97,11.93,1.35,14.31-0.93C604.89,64.61,600.43,66.06,595.76,65.75z"/>
	<path d="M290.12,65.75c0,3.15,8.98,0.63,13.79,0.52C303.92,64.34,305.8,64.68,290.12,65.75z"/>
	<path d="M599.6,71.98c2.8,1.04,5.29,0.62,8.4-0.62C604.26,67.72,601.15,68.03,599.6,71.98z"/>
	<path d="M293.96,72.08c2.8,0.93,5.29,0.62,8.4-0.73C298.52,67.72,295.41,68.03,293.96,72.08z"/>
	<path d="M613.49,430.82c-1.5,2.24,2.14,7.51,2.9,11.93C616.5,438.49,615.78,434.45,613.49,430.82z"/>
	<path d="M308.07,434.34c0.76,2.9,2.28,5.39,2.8,8.4C310.87,432.17,305.79,425.64,308.07,434.34z"/>
	<path d="M581.97,89.92c1.87,3.01,0.52,7.16,3.11,9.96C583.83,96.55,585.39,92.41,581.97,89.92z"/>
	<path d="M279.55,100.18c-1.35-10.47-1.14-9.85-3.73-10.27C278.32,93.34,276.93,97.88,279.55,100.18z"/>
	<path d="M581.66,83.49c-2.39-3.42-3.94-7.16-6.64-10.06C575.95,77.37,579.17,82.14,581.66,83.49z"/>
	<path d="M275.71,83.38c-2.07-3.32-3.53-7.16-6.22-10.06C270,76.33,273.12,81.21,275.71,83.38z"/>
	<path d="M608.41,56.52c-2.28,0.1-4.77-0.83-6.53,2.28C607.27,58.91,607.79,58.7,608.41,56.52z"/>
	<path d="M303.19,57.04c-4.56-1.14-6.33-0.52-6.02,2.7C298.52,57.25,301.95,60.15,303.19,57.04z"/>
	<path d="M604.26,402.71c3.42,1.66,7.16,1.45,10.79,1.56C611.42,404.06,608,402.4,604.26,402.71z"/>
	<path d="M298.73,402.71c3.63,1.56,7.47,2.07,10.68,1.35C305.78,404.06,302.36,402.4,298.73,402.71z"/>
	<path d="M319.27,420.34c-2.07,0.31-3.63,1.45-5.6,2.39C316.99,424.49,318.85,423.66,319.27,420.34z"/>
	<path d="M624.8,420.24c-1.97,0.31-3.53,1.56-5.81,2.39C622.83,424.39,624.59,423.56,624.8,420.24z"/>
	<path d="M548.16,470.23c-0.93,2.9-1.97,5.81,0,9.44C548.16,476.03,548.16,473.13,548.16,470.23z"/>
	<path d="M242.52,470.23c-0.93,2.9-1.87,5.81,0,9.44C242.52,476.03,242.52,473.13,242.52,470.23z"/>
	<path d="M279.75,103.09c-0.52,1.76-0.73,3.53,1.04,5.39C281.72,106.2,281.41,104.64,279.75,103.09z"/>
	<path d="M586.74,108.38c0.41-2.18,0.21-3.84-1.56-6.02C584.77,104.96,584.46,106.82,586.74,108.38z"/>
	<path d="M312.42,476.97c1.45-2.28,1.04-4.87,1.14-7.47C311.49,471.78,312.42,474.48,312.42,476.97z"/>
	<path d="M618.16,476.97c1.04-2.49,1.24-4.98,1.24-8.09C617.02,471.78,618.16,474.48,618.16,476.97z"/>
	<path d="M614.53,520.42c0.41-1.87,0.62-3.73-0.1-5.6C614.01,516.69,613.81,518.66,614.53,520.42z"/>
	<path d="M298.84,110.14c-2.39-0.31-4.67-1.04-6.95,0C291.89,111.28,290.88,110.86,298.84,110.14z"/>
	<path d="M597.42,110.97c2.49-0.31,4.87-0.52,7.57-0.83C599.29,109.31,599.29,109.31,597.42,110.97z"/>
	<path d="M252.89,404.68c-1.24,1.87-1.24,1.87,1.76,4.67C253.93,407.48,254.24,405.82,252.89,404.68z"/>
	<path d="M557.7,404.68c-0.52,2.18,0.93,3.22,2.07,4.25C559.05,407.58,560.29,405.41,557.7,404.68z"/>
	<path d="M308.9,520.42c0.41-1.87,0.62-3.73-0.1-5.6C308.58,516.69,308.17,518.66,308.9,520.42z"/>
	<path d="M308.07,509.74c0.1-1.35,0.52-2.59-0.31-3.94C307.03,507.04,306.82,508.39,308.07,509.74z"/>
	<path d="M613.29,505.8c-0.41,1.35-1.14,2.8,0.62,4.36C613.81,508.39,614.12,507.04,613.29,505.8z"/>
	<path d="M285.35,126.42c0.1-1.45,0.83-3.01-0.83-4.56C284.01,123.73,284.63,125.08,285.35,126.42z"/>
	<path d="M228.62,529.86c0-1.76,0-2.8,0-4.15C227.69,527.06,227.28,527.99,228.62,529.86z"/>
	<path d="M534.47,526.13c-1.04,1.66-1.04,1.66-0.31,3.11C534.26,528.1,534.36,527.16,534.47,526.13z"/>
	<path d="M548.57,464.94c0.52-1.24,1.24-2.28,0.73-4.15C548.78,462.45,547.95,463.48,548.57,464.94z"/>
	<path d="M242.94,465.04c0.41-1.35,1.14-2.28,0.73-4.36C243.25,462.34,242.42,463.38,242.94,465.04z"/>
	<path d="M523.68,457.68c0.1-1.24,0.1-2.39,0.1-3.63C523.64,454.05,523.68,453.64,523.68,457.68z"/>
	<path d="M218.25,457.47c0-2.23-0.06-3-0.1-3.25C218.15,457.83,218.11,457.47,218.25,457.47z"/>
	<path d="M218.13,454.14c0,0.02,0.01,0.04,0.01,0.07c0-0.02,0-0.04,0-0.07C218.14,454.15,218.14,454.15,218.13,454.14z"/>
	<path d="M218.13,454.14C218.12,454.07,218.11,454.13,218.13,454.14L218.13,454.14z"/>
	<path d="M228.1,517.93c-0.41,0.73,0.1,1.24,0.21,1.87C228.42,519.18,228.83,518.45,228.1,517.93z"/>
	<path d="M524.41,449.9c0-0.41,0-0.93,0-1.35C524.41,450.1,524.19,449.9,524.41,449.9z"/>
	<path d="M218.77,449.79c0-0.31,0-0.83,0.1-1.35C218.73,448.45,218.77,448.25,218.77,449.79z"/>
	<path d="M594.52,92.3c0.31-0.41,1.14-0.73,0.41-1.35C592.46,91.23,593.58,93.7,594.52,92.3z"/>
	<path d="M533.53,517.73c0,0.73,0,1.35,0.52,1.66C534.16,518.87,534.36,518.24,533.53,517.73z"/>
	<path d="M277.78,86.6c-0.52-1.04-1.04-1.45-1.87-0.62C276.23,87.22,276.85,87.12,277.78,86.6z"/>
	<path d="M583.42,86.6c-0.52-1.04-1.04-1.45-1.87-0.62C581.86,87.22,582.49,87.12,583.42,86.6z"/>
	<path d="M616.81,480.29c-0.73,0.31-0.62,0.83-0.31,1.35C617.23,481.32,617.44,480.91,616.81,480.29z"/>
	<path d="M310.97,480.39c-0.52,0.21-0.41,0.73-0.1,1.45C311.86,481.1,311.75,480.17,310.97,480.39z"/>
	<path d="M289.5,90.85c-1.04,0.31-1.76,0.73-1.66,2.39C288.67,92.3,289.5,92.2,289.5,90.85z"/>
	<path d="M531.56,341.21c3.36,8.15-0.46,4.29,3.42,14.52c0.21-2.59-1.64-4.97-0.83-6.74c1.27-2.79,0.01-4.88-0.83-7.05
		c-4.34-11.19-0.14-11.29,0.62-23.13c0.73-11.26,3.54-9.6,2.59-16.18c-0.73-5.07-2.84-22.59-0.1-26.96
		c3.49-5.56,7.53-14.96,1.45-17.42c0.41,9.33-4.04,16.7-7.67,24.79c2.28-0.52,2.28-2.49,4.25-3.53c-1.17,8.58,0.24,20.24,1.24,25.1
		c0.74,3.57-2.43,3.35-2.9,14C532.35,328.89,527.62,331.66,531.56,341.21z"/>
	<path d="M572.32,341.21c-12.25,15.51-13.56,22.77-16.59,34.02c-6.45-2.53-9.69,3.02-7.47,6.64c2.32,3.78,5.81,2.07,8.92,1.87
		c1.04-4.15-0.5-8.29,0.83-12.34c7.73-23.64,13.04-23.85,15.14-30.7C572.84,340.9,572.53,340.9,572.32,341.21z M553.55,382.28
		c-2.7,0-3.73-1.24-3.63-3.22c0-3.5,5.5-3.88,5.5,0.21C554.97,381.22,552.6,377.99,553.55,382.28z"/>
	<path d="M530.63,373.67c0.31,1.97-2.07,1.24-2.59,2.8c0.22,5.38-0.6,9.75,2.18,8.09c0.73-0.83-0.41-2.07,0.62-2.9
		c2.18-0.41,1.97,3.73,4.87,2.59c-0.62-0.93-1.04-1.76-1.56-2.7C539.02,374.82,531.87,376.98,530.63,373.67z M531.04,379.79
		c-1.49-0.99-0.86-3.85,2.59-1.56C533.43,380.1,532.08,379.69,531.04,379.79z"/>
	<path d="M541.52,375.12c-6.76,0.25-6.32,9.85,0,9.85C548.29,384.98,548.23,374.88,541.52,375.12z M541.52,383
		c-4.16-0.49-3.4-6.22,0.1-6.02C545.33,377.2,545.58,382.78,541.52,383z"/>
	<path d="M568.07,254.09c-2.07,6.53-0.41,13.07-0.31,19.6C568.8,267.16,569.52,260.63,568.07,254.09z"/>
	<path d="M617.75,338.93c-7.05-5.81-14.1-11.51-20.85-17.73C602.4,328.76,609.76,334.16,617.75,338.93z"/>
	<path d="M600.01,358.01c-1.56-7.05-5.6-13.07-6.84-20.74C592.13,340.79,596.59,353.34,600.01,358.01z"/>
	<path d="M572.43,255.96c-0.83,5.29,2.07,10.06,2.18,15.25c0.41-0.1,0.83-0.1,1.14-0.21C572.84,253.2,574.09,255.96,572.43,255.96z"
		/>
	<path d="M577.71,366c1.35-3.53,2.7-7.05,1.97-10.89C578.65,358.74,577.4,362.26,577.71,366z"/>
	<path d="M554.79,263.63c0.21,3.63-2.8,6.12-2.9,9.85C556.04,266.54,556.25,265.71,554.79,263.63z"/>
	<path d="M623.45,287.28c-1.35-3.42-2.8-6.95-4.15-10.47C619.2,280.85,621.27,284.06,623.45,287.28z"/>
	<path d="M593.69,268.72c0-4.25,0-8.5,0-12.76C592.75,260.21,593.38,264.46,593.69,268.72z"/>
	<path d="M550.54,255.13c-0.51-0.07-0.86-0.09-1.16-0.13c-0.53,0-1.71,4.09-1.02,6.25C549.61,259.38,550.13,257.41,550.54,255.13z"
		/>
	<path d="M549.09,254.82l-0.1,0.1C549.08,254.97,549.06,254.91,549.09,254.82z"/>
	<path d="M565.37,253.37c-2.07-0.73-3.73,0.1-5.6,0.73C561.85,254.92,563.61,254.2,565.37,253.37z"/>
	<path d="M555.11,273.38c-1.24,1.04,0.31,2.49-0.41,3.73C555.42,275.97,556.14,274.83,555.11,273.38z"/>
	<path d="M580.51,254.4c-1.76,0-3.42,0-5.19,0C577.09,255.44,578.75,255.34,580.51,254.4z"/>
	<path d="M604.99,303.35c-0.73-1.14-1.87-1.45-3.11-1.35C602.81,302.84,603.64,303.56,604.99,303.35z"/>
	<path d="M599.7,251.91c-1.24,0.73-0.93,1.45-0.52,2.49C599.91,253.57,600.53,253.05,599.7,251.91z"/>
	<path d="M595.45,253.99c0.83-0.73,0.93-1.35,0.1-2.18C594.62,252.54,594.62,253.16,595.45,253.99z"/>
	<path d="M607.17,304.5c-0.52-1.24-1.45-1.14-2.28-1.04C605.41,304.29,606.24,304.18,607.17,304.5z"/>
	<path d="M576.99,369.94c0.1-0.52,0.21-0.93,0.21-1.35C576.68,369,576.37,369.42,576.99,369.94z"/>
	<path d="M585.29,326.59c1.63-0.51,2.46-1.32,3.28-2.23c0.11,0.11,1.8-0.37,1.6-1.61C588.98,322.62,586.32,325.2,585.29,326.59z"/>
	<path d="M591.51,253.26c0.52,0,0.93,0.52,1.87-0.41C592.55,253.05,592.34,251.81,591.51,253.26z"/>
	<path d="M531.25,370.87c0.1-0.31,0.41-0.52,0-0.83C531.25,370.35,531.25,370.56,531.25,370.87z"/>
	<path d="M573.15,340.69c0.83-0.41,1.24-0.93,1.24-2.18C573.57,339.24,572.94,339.76,573.15,340.69z"/>
	<path d="M561.95,135.97c5.27,2.64,13.58-2.17,14.42,2.28c-8.25,0.69-4.97,0.57-14.42,0.93c1.04,1.76,2.38,1.84,3.73,1.76
		c13.28-0.76,13.96-2.24,14.1,5.39c-4.98,0.1-9.96-0.21-14.93-0.1c8.7,4.18,18.38-1.11,16.49,4.56c-4.36,0-8.82,0-13.28,0
		c3.77,3.77,10.38-1.78,15.25,4.25c1.04-3.22,0.41-5.81-0.52-8.3c4.15-2.59,4.87-4.87,3.22-9.33c-2.07-0.83-4.04,0-6.02,0.41
		c-0.31,0.1,0,0.62,0.21,0.83c1.27,1.32,2.9-0.31,4.25,0.52c0.73,3.73,0.31,4.46-3.01,4.87c0.37-2.34-1.24-4.62-1.24-5.39
		c-4.69,1.04-0.19-4.04-5.29-4.56c-2.8-0.29-19.12-1.35-16.39,5.5C559.98,138.77,560.19,136.79,561.95,135.97z"/>
	<path d="M529.49,106.1c1.63-2,4.77-2.07,5.5-5.08C525.58,102.53,518.08,120.08,529.49,106.1z"/>
	<path d="M516.53,187.09c-2.28,1.45-4.46,2.8-7.05,4.36C514.87,190.1,515.59,189.69,516.53,187.09z"/>
	<path d="M523.68,174.86c-2.49,0-4.04,0.93-5.5,2.39C519.84,176.62,522.02,177.03,523.68,174.86z"/>
	<path d="M560.81,152.77c-0.31,2.49-0.31,2.49,1.87,3.42C562.78,154.74,562.05,153.8,560.81,152.77z"/>
	<path d="M559.88,146.03c-1.87,1.97-1.14,2.9,0.73,3.84C560.81,148.51,560.6,147.48,559.88,146.03z"/>
	<path d="M526.17,142.81c1.7,0.5,2.84-0.12,4.15-1.14C530.19,141.54,527.21,140.62,526.17,142.81z"/>
	<path d="M559.05,141.05c-0.93,1.04-0.31,1.76,1.04,3.01C559.98,142.5,560.4,141.57,559.05,141.05z"/>
	<path d="M523.47,142.5c-1.04,0-1.66,0.21-2.18,1.04C522.23,143.74,522.96,143.95,523.47,142.5z"/>
	<path d="M515.8,144.99c-1.56,0.1-2.07,0.73-2.49,2.07C514.45,146.65,515.18,146.13,515.8,144.99z"/>
	<path d="M514.45,125.91c-0.93,0.1-1.04,0.62-0.62,1.35C514.45,126.94,514.76,126.53,514.45,125.91z"/>
	<path d="M518.08,118.54c-1.14,0.41-1.14,1.04-0.73,1.76C518.08,119.99,518.5,119.58,518.08,118.54z"/>
	<path d="M499.31,196.53c0.83,0.21,1.24-0.1,1.56-0.83C500.04,195.29,499.62,195.6,499.31,196.53z"/>
	<path d="M503.04,185.64c1.14,0.21,1.56-0.41,2.28-1.04C504.08,184.29,503.46,184.71,503.04,185.64z"/>
	<path d="M503.56,194.77c0.73-0.1,1.35-0.21,1.66-1.24C504.39,193.73,503.67,193.63,503.56,194.77z"/>
	<path d="M510.51,149.34c-0.62,0.21-1.04,0.52-0.93,1.35C510.72,150.8,511.13,150.38,510.51,149.34z"/>
	<path d="M495.26,183.78c0.52-0.21,0.62-0.62,0.21-1.35C495.06,183.05,494.95,183.36,495.26,183.78z"/>
	<path d="M500.76,188.65c-0.93,0-1.14,0.31-0.83,1.04C500.55,189.69,500.86,189.27,500.76,188.65z"/>
	<path d="M547.02,112.11c0.1,0,0.31-0.31,0.41-0.41C546.84,110.52,545.82,112.11,547.02,112.11z"/>
	<path d="M595.86,225.36c3.11-2.18,3.42-5.19,1.87-13.79C595.03,216.13,596.9,220.7,595.86,225.36z"/>
	<path d="M596.18,233.97c-1.03-2.24,2.48-13.44-4.04,7.78c2.45-2.14,2.09-5.37,3.94-7.64c0.3,3.52-1.66,7.03-0.31,10.75
		C597.96,238.07,595.81,234.46,596.18,233.97z"/>
	<path d="M598.98,205.56c3.32,2.18,6.12,1.97,9.75,0.31C605.2,206.28,602.5,204.93,598.98,205.56z"/>
	<path d="M588.29,216.55c1.14,0.62,2.28,1.66,3.94,0.73C591.09,215.72,589.64,216.34,588.29,216.55z"/>
	<path d="M542.14,224.85v0.1C546.03,224.95,545.1,224.85,542.14,224.85z"/>
	<path d="M612.25,165.42c0.73,0.93,1.35,1.35,2.7,0.52C614.12,165,613.29,165,612.25,165.42z"/>
	<path d="M617.75,165.32c1.35,0.31,2.07,1.14,2.9-0.21C619.82,164.59,619.1,164.28,617.75,165.32z"/>
	<path d="M610.69,205.56c0.62,0.62,1.24,0.73,1.97,0C612.04,204.93,611.42,204.93,610.69,205.56z"/>
	<path d="M634.34,205.04c1.45,1.24,2.59,1.04,3.84,0.1C637.04,204.62,635.9,204,634.34,205.04z"/>
	<path d="M656.22,198.09c1.49-0.2,3.48,0.05,3.94-2.07C658.61,196.32,657.16,196.84,656.22,198.09z"/>
	<path d="M664,183.05c1.87-0.41,3.11-0.52,4.15-2.39C666.39,181.29,665.14,181.49,664,183.05z"/>
	<path d="M635.9,125.49c0.52,1.66-0.21,2.9,1.56,3.73C637.66,127.77,637.76,126.73,635.9,125.49z"/>
	<path d="M664.62,177.35c-1.24-0.52-1.76,0.1-2.49,0.83C663.28,178.9,664,178.69,664.62,177.35z"/>
	<path d="M656.22,180.66c-0.52,0.31-1.56,0-1.14,1.45C655.71,181.81,656.33,181.81,656.22,180.66z"/>
	<path d="M641.81,181.7c0.73-0.52,1.56-0.83,1.04-1.97C641.91,180.25,641.39,180.56,641.81,181.7z"/>
	<path d="M631.23,185.12c-0.1,0.93,0.21,1.35,1.04,1.45C632.47,185.75,632.06,185.33,631.23,185.12z"/>
	<path d="M660.99,185.33c-0.73-0.31-1.24-0.21-1.14,0.83C660.48,186.16,660.89,186.06,660.99,185.33z"/>
	<path d="M629.88,187.09c-0.96-0.48-0.85,1.27,0.31,1.04C630.5,187.72,630.4,187.3,629.88,187.09z"/>
	<path d="M639.84,191.14c0.73,0.1,1.14-0.21,0.83-0.93C639.94,190.1,639.63,190.31,639.84,191.14z"/>
	<path d="M597.73,167.7c-24.12-10.67-55.9,7.8-50.3,22.61c0-22.38,37.79-30.45,54.14-18.98c9.2,6.45,4.11,18.89-6.12,24.37
		c-2.09,1.12-4.36,1.97-6.84,3.94C601.24,197.73,619.87,177.49,597.73,167.7z"/>
	<path d="M572.53,203.38c1.76,0.62,3.01-0.1,4.25-0.62C575.43,202.44,574.08,202.03,572.53,203.38z"/>
	<path d="M572.84,186.89c-0.31-0.41-0.31-1.35-1.14-0.62c-4.86,14.89,18.7,8.64,16.59,3.73
		C591.01,180.59,578.28,179.92,572.84,186.89z M575.85,193.84c0.1-0.62,0.73-0.1,1.14,0C576.57,194.15,575.74,194.15,575.85,193.84z
		 M586.22,189.69c-5.25,6.05-17.42,0.81-9.96-3.84C582.71,181.84,589.96,185.38,586.22,189.69z"/>
	<path d="M584.97,201.1c0.83-0.21,1.97,0.41,2.49-1.04C586.53,200.27,585.6,200.06,584.97,201.1z"/>
	<path d="M548.36,193.42c0.62,0.83,0.31,2.18,2.28,2.7C549.82,194.77,549.82,193.63,548.36,193.42z"/>
	<path d="M580.31,202.86c1.24,0,2.18,0,2.8-1.14C582.07,201.82,581.14,201.61,580.31,202.86z"/>
	<path d="M683.19,158.78c-0.1,1.14,0.31,1.66,1.04,1.87C684.74,159.51,684.43,158.99,683.19,158.78z"/>
	<path d="M680.6,152.97c0.31,0.21-0.21,1.35,1.04,0.62C681.53,153.08,681.22,152.87,680.6,152.97z"/>
	<path d="M683.81,194.67c4.04,2.28,14.73-0.83,16.59-4.77C696.77,187.41,685.26,190.62,683.81,194.67z M686.4,193.94
		c1.14-2.18,2.49-0.41,3.73-0.41c0.54,0,0.81-1.56,4.56-1.56C693.14,193.53,688.03,194.19,686.4,193.94z M698.12,190.62
		c-1.14,1.04-2.18,1.35-3.32,1.45C695.43,190.83,696.36,190.21,698.12,190.62z"/>
	<path d="M266.58,341.42c-13.09,17.02-13.4,23.83-16.28,33.71c-6.52-2.56-9.67,3.14-7.47,6.64c2.33,3.7,5.81,2.07,8.82,1.87
		c1.14-3.84-0.49-7.56,0.62-11.3c6.82-22.95,13.19-24.69,15.25-31.63C267,340.59,266.79,341,266.58,341.42z M247.91,382.07
		c-4.09,1.17-5.21-5.13-1.24-5.6c1.97-0.41,3.11,0.83,3.11,3.22C248.12,379.79,246.57,379.79,247.91,382.07z"/>
	<path d="M288.36,323.47c-1.73-5.96,3.96-8.85,2.49-22.71c-0.34-3.21-0.31-6.64-2.39-9.54c1.04,6.53,1.66,12.96,0.52,19.5
		c-0.04-0.1-1.86-16.18-1.56,4.56c0.03,2.18-1.36,4.26-0.83,6.12c0.79,2.73,0.85,5.65,0.41,8.4
		C288.15,327.83,289.11,326.06,288.36,323.47z"/>
	<path d="M226.03,375.33c-0.83-0.31-0.62-0.93-1.04-1.45c-0.19,3.1-4.09-1.8-2.28,10.89c3.42,0.73,1.14-2.49,2.7-3.01
		c2.07-0.1,1.87,3.63,4.46,2.8c0.31-1.24-1.04-1.76-1.14-2.8C231.32,377.72,231.01,376.78,226.03,375.33z M224.89,379.79
		c0.21-3.01,0.21-3.01,3.11-1.66C227.9,380.1,226.55,379.89,224.89,379.79z"/>
	<path d="M236.19,375.12c-6.88-0.25-6.94,9.85-0.21,9.85C242.33,384.98,242.84,375.37,236.19,375.12z M236.09,383
		c-4.15-0.46-3.62-6.02-0.1-6.02C239.85,376.99,239.98,382.79,236.09,383z"/>
	<path d="M261.91,274.73c1.45-6.74,1.87-13.69,0.62-20.64C260.26,260.83,262.43,267.89,261.91,274.73z"/>
	<path d="M312.11,338.93c-7.05-5.7-14.1-11.62-20.85-17.73C296.87,328.76,304.13,334.26,312.11,338.93z"/>
	<path d="M294.17,358.01c-1.24-7.05-5.29-13.17-7.05-20.12C287.53,345.25,291.58,351.37,294.17,358.01z"/>
	<path d="M266.89,255.96c-0.83,5.39,2.18,10.06,2.18,15.25c0.41-0.1,0.73-0.1,1.14-0.21C267.33,253.35,268.55,255.96,266.89,255.96z
		"/>
	<path d="M271.77,366.31c2.28-3.73,3.22-9.33,1.87-11.2C273.01,358.74,271.87,362.26,271.77,366.31z"/>
	<path d="M288.15,268.51c0-4.15,0-8.3,0-12.55C287.22,260.21,287.74,264.36,288.15,268.51z"/>
	<path d="M317.4,286.14c-1.24-3.32-2.39-6.22-3.53-9.23C313.77,280.54,314.7,282.92,317.4,286.14z"/>
	<path d="M227.9,345.36c-1.04,3.53,0.1,6.74,1.56,10.79C229.35,352,227.48,348.78,227.9,345.36z"/>
	<path d="M253.51,254.3c2.7,0.73,4.46-0.21,6.22-0.93C257.77,252.74,256,253.37,253.51,254.3z"/>
	<path d="M296.24,302.01c1.56,1.24,3.32,1.97,5.19,2.18C299.87,303.15,298.21,302.11,296.24,302.01z"/>
	<path d="M284.21,322.54c-1.66,0.93-3.11,2.18-3.94,4.04C285.58,322.7,284.98,323.31,284.21,322.54z"/>
	<path d="M274.77,254.3c-1.66,0-3.32,0-4.98,0C271.46,255.44,273.12,255.23,274.77,254.3z"/>
	<path d="M294.17,252.02c-1.45,0.41-1.04,1.24-0.73,2.18C294.48,253.68,294.79,253.05,294.17,252.02z"/>
	<path d="M290.02,254.09c0.41-0.83,0.83-1.45-0.1-2.28C289.19,252.43,288.88,253.05,290.02,254.09z"/>
	<path d="M271.35,369.94c0.1-0.52,0.21-0.93,0.21-1.35C271.15,369,270.83,369.42,271.35,369.94z"/>
	<path d="M285.98,252.85c0.41,0.73,0.93,0.73,1.45,0.41C287.12,252.74,286.81,252.12,285.98,252.85z"/>
	<path d="M308.17,273.17c-0.31-0.73-0.52-1.35-1.24-1.66C306.93,272.35,307.03,273.07,308.17,273.17z"/>
	<path d="M225.72,370.04c0,1.47-0.04,0.29,0.1,0C225.72,370.04,225.72,370.04,225.72,370.04z"/>
	<path d="M267.62,340.69c0.83-0.41,1.14-1.04,1.24-2.28C267.93,339.24,267.41,339.76,267.62,340.69z"/>
	<path d="M291.89,211.88c-2.18,4.36-0.83,8.82-1.45,13.38C293.34,223.29,293.86,217.27,291.89,211.88z"/>
	<path d="M234.33,163.86c-0.93,4.56,1.35,7.05,6.74,7.67C237.85,169.88,236.09,166.87,234.33,163.86z"/>
	<path d="M290.64,229.62c-1.97,3.94-3.73,10.16-3.42,12.34C288.12,240.76,291.2,231.7,290.64,229.62z"/>
	<path d="M292.72,195.81c-1.24,0-0.93-1.89-0.93,12.65C292.51,204.21,293.03,200.06,292.72,195.81z"/>
	<path d="M286.81,154.32c-1.66,2.28-2.49,4.77-4.67,6.22C287.01,158.99,288.05,157.64,286.81,154.32z"/>
	<path d="M303.09,205.87c-3.53,0.41-6.22-1.04-9.75-0.31C296.66,207.73,299.46,207.53,303.09,205.87z"/>
	<path d="M290.33,244.86c0.73-3.53,1.45-7.16,0.21-10.79C290.75,237.6,288.88,241.13,290.33,244.86z"/>
	<path d="M288.05,204.62c-2.7-1.56-5.7-0.93-8.5-1.24C282.24,204.52,285.04,205.66,288.05,204.62z"/>
	<path d="M293.55,174.34c-0.41,2.18-2.07,4.15-1.04,7.16C294.38,178.9,293.75,176.52,293.55,174.34z"/>
	<path d="M246.57,159.82c1.35,1.66,2.8,2.28,4.56,2.07C249.88,160.96,248.95,159.2,246.57,159.82z"/>
	<path d="M281.93,216.44c1.97,0.83,3.11,1.66,4.77,0.93C285.46,215.82,284.01,216.34,281.93,216.44z"/>
	<path d="M272.6,204.73c-1.14-1.14-2.18-0.93-3.84-0.62C270.21,205.35,271.15,205.56,272.6,204.73z"/>
	<path d="M236.51,224.85c0,0.15-0.4,0.1,2.7,0.1C239.06,224.8,239.48,224.85,236.51,224.85z"/>
	<path d="M235.26,180.56c0.41,1.04,0.93,1.66,2.28,1.87C236.92,181.39,236.51,180.56,235.26,180.56z"/>
	<path d="M241.9,172.68c0.52,1.24,1.35,1.76,3.01,1.87C244.18,173.09,243.45,172.58,241.9,172.68z"/>
	<path d="M309.1,165.63c-0.73-0.52-1.45-0.62-2.59-0.1C307.45,166.15,309.1,167.35,309.1,165.63z"/>
	<path d="M315.33,165.42c-1.04-0.93-1.76-1.04-3.22-0.21C313.25,165.73,313.98,165.94,315.33,165.42z"/>
	<path d="M246.15,174.34c0.52,0.93,1.04,1.45,2.8,1.45C247.81,174.65,247.4,173.72,246.15,174.34z"/>
	<path d="M256.63,163.34c-0.62-0.21-1.24-1.14-2.18-0.52C254.97,163.97,255.69,163.86,256.63,163.34z"/>
	<path d="M265.13,164.38c-0.62-0.73-1.14-0.83-2.07-0.21C263.68,164.69,264.09,165.42,265.13,164.38z"/>
	<path d="M243.97,225.57c0.41,0.1,0.83,0.1,1.24,0.1C244.02,225.37,243.87,225.57,243.97,225.57z"/>
	<path d="M293.44,193.42c0.52-0.62,0.52-1.24,0.1-1.87C293.03,192.18,293.13,192.8,293.44,193.42z"/>
	<path d="M306.93,205.45c-0.62,0-1.24-0.83-1.76,0.21C305.78,206.18,306.3,206.18,306.93,205.45z"/>
	<path d="M233.08,134.1c-2.7,0.93-3.45,3.6-5.19,5.29c-5.8,5.63-9.94,5.39-11.72,10.37c2.72-0.19,3.87-2.67,11.51-7.67
		C230.39,140.32,232.36,137.62,233.08,134.1z"/>
	<path d="M198.24,217.07c-1.35,5.29-1.87,10.68,0.31,15.97C198.03,227.65,198.55,222.25,198.24,217.07z"/>
	<path d="M229.56,101.12c-4.67,0-6.43,3.22-7.88,6.84C223.54,104.85,227.9,104.44,229.56,101.12z"/>
	<path d="M225.51,151c-2.39,3.63-3.01,7.57-3.11,11.72C223.33,158.89,224.37,154.94,225.51,151z"/>
	<path d="M210.89,199.64c-0.21,2.7,0,4.56,1.56,6.22C212.34,204,212.55,201.93,210.89,199.64z"/>
	<path d="M218.67,111.8c-1.35,1.45-1.66,2.7-1.04,4.25C218.05,114.81,219.39,113.87,218.67,111.8z"/>
	<path d="M207.16,150.28c0.31-1.45-0.21-2.59-0.93-3.63C206.22,147.79,205.7,149.14,207.16,150.28z"/>
	<path d="M209.64,193.84c0.62-1.35,0.31-2.39-0.83-3.94C208.71,191.66,208.3,192.8,209.64,193.84z"/>
	<path d="M198.96,238.95c0.41,1.14,0.73,2.18,1.04,3.32C200.41,240.92,200.41,239.78,198.96,238.95z"/>
	<path d="M212.76,151.21c-1.35,0.73-1.24,1.66-0.93,2.8C212.24,153.18,213.07,152.56,212.76,151.21z"/>
	<path d="M214.83,122.59c0.1-0.41,0.41-0.83-0.1-1.56C214.52,121.76,214.21,122.17,214.83,122.59z"/>
	<path d="M339.7,200.47c-1.14,2.49,1.35,3.73,1.87,5.81c-3.56,1.34,1.41,5.27,2.28,8.92c1.04-0.1,1.47-0.73,1.24-1.56
		C344.22,210.49,343.55,200.28,339.7,200.47z"/>
	<path d="M341.46,187.51c-2.09,0.42-1.77,5.33-2.9,8.61c-1.66,1.66-3.94,2.39-5.39,4.56C338.35,201.1,341.67,193.84,341.46,187.51z"
		/>
	<path d="M340.01,164.49c0-4.15,0-8.4,0-12.55C339.81,154.71,337.23,164.49,340.01,164.49z"/>
	<path d="M340.53,137.42c-1.87,1.97-1.87,4.36-1.66,7.57C340.63,142.29,339.7,139.7,340.53,137.42z"/>
	<path d="M345.4,221.73c0.1-2.39,0.31-4.87-1.66-6.64C343.95,217.48,344.05,219.76,345.4,221.73z"/>
	<path d="M343.43,181.08c-2.07,2.39-2.18,2.7-1.87,5.6C343.02,185.02,343.12,183.26,343.43,181.08z"/>
	<path d="M344.05,174.34c-0.73,1.56-1.56,2.59,0,4.36C344.36,177.03,344.57,175.89,344.05,174.34z"/>
	<path d="M346.23,241.13c-0.31-0.31-0.52-0.62-0.83-0.93C345.19,240.92,345.71,241.13,346.23,241.13z"/>
	<path d="M350.69,251.71c0,0.31,0.1,0.62,0.1,0.93C351,252.33,351.21,251.91,350.69,251.71z"/>
	<path d="M244.49,320.78c5.37-4.21,11.1-13.35,9.75-16.59c-1.41,7.44-10.4,19.64-21.16,18.36c-20.47-2.45-33.44-24.96-25.1-42.94
		c0.31-0.83,1.04-1.56,0.73-2.59c-1.04,0.31-1.14,1.24-1.66,2.07C193.77,307.47,227.93,333.77,244.49,320.78z"/>
	<path d="M236.36,285.41c-2,0-5.35-1.91-8.67,2.18c-3.85,4.73-0.17,13.4,6.12,13.59c9.53,0.28,10.9-10.62,5.5-14.62
		c-4.36-4.77-10.58-4.56-13.17,0.93C229.41,285.03,232.49,282.48,236.36,285.41z M241.07,294.75c-0.05-0.11-1.53-6.01-1.56-6.12
		C241.17,290.39,241.79,292.47,241.07,294.75z M238.79,293.4c0.13,8.54-10.47,6.72-10.47-0.93
		C228.31,284.13,238.67,285.64,238.79,293.4z"/>
	<path d="M255.38,300.04c-0.31,0.1-0.41,0.41-0.21,0.73C255.59,300.66,255.48,300.35,255.38,300.04z"/>
	<path d="M210.27,274.94c-1.04,1.04-1.56,1.35-1.45,2.18C209.75,277.01,209.75,276.18,210.27,274.94z"/>
	<path d="M336.59,283.13c0.31-0.83,1.04-1.56,0.73-2.59c-1.04,0.21-1.14,1.24-1.66,2.07c-9.85,21.05,6.63,42.5,24.37,44.91
		c15.75,2.13,24.27-16.32,22.82-19.81c-0.73,3.84-2.78,7.17-5.08,10.06C359.19,341.01,324.23,309.6,336.59,283.13z"/>
	<path d="M356.29,291.01c-3.85,4.73-0.17,13.4,6.12,13.59c9.53,0.28,10.9-10.62,5.5-14.62c-4.36-4.77-10.58-4.56-12.96,0.52
		c5.4-3.57,6.8-3.72,10-1.66C362.98,288.84,359.62,286.92,356.29,291.01z M369.67,298.27c-0.21-2.18-1.04-4.15-1.87-6.84
		C369.88,293.81,370.29,295.89,369.67,298.27z M367.39,296.82c0.13,8.53-10.34,6.87-10.58-0.73
		C356.54,287.68,367.27,288.99,367.39,296.82z"/>
	<path d="M383.98,303.46c-0.31,0.21-0.41,0.41-0.21,0.73C384.19,304.08,384.09,303.77,383.98,303.46z"/>
	<path d="M338.87,278.46c-1.04,0.93-1.56,1.24-1.45,2.07C338.35,280.43,338.35,279.71,338.87,278.46z"/>
	<path d="M583,185.54c-2.49-0.17-4.56,0.93-6.12,3.22c5.81-1.04,5.81-1.04,6.53,0.41c-0.73,1.14-2.39,0.73-3.22,2.07
		C586.58,191.56,586.31,185.77,583,185.54z"/>
	<path d="M234.74,297.65c1.67-0.7,2.28-2.9,1.35-5.19c-0.78,6.6-4.34,2.47-5.29,2.39C231.73,296.41,232.17,298.73,234.74,297.65z"/>
	<path d="M363.34,301.18c1.66-1.24,3.01-2.7,1.66-5.5c-1.51,7.17-4.2,2.71-5.81,2.59C361.37,301.38,362.1,302.01,363.34,301.18z"/>
<path fill="#e6e6e6" d="m206.8 163.6c0-5.1 4.1-9.2 9.3-9.2s9.2 4.2 9.2 9.2-4.1 9.2-9.3 9.2-9.2-4.1-9.2-9.2zm17.3-.1c0-4.5-3.5-8.2-8.2-8.2s-8.2 3.7-8.2 8.3c0 4.5 3.5 8.2 8.2 8.2s8.2-3.7 8.2-8.3zm-13 0c0-2.8 2.1-5.1 5.1-5.1 1.9 0 2.9.6 3.9 1.5l-1.4 1.7c-.8-.7-1.5-1.1-2.5-1.1-1.7 0-2.8 1.4-2.8 3.1s1.1 3 2.8 3c1.1 0 1.7-.5 2.5-1.1l1.4 1.4c-1.1 1.1-2.1 1.7-4 1.7-2.9 0-5-2.3-5-5.1z"/><path fill="#e6e6e6" d="m226.6 154.7h3.4l4.2 13.2 4.4-13.3h2.6l4.4 13.3 4.2-13.2h3.3l-6.2 18h-2.7l-4.4-12.8-4.4 12.8h-2.7z"/><path fill="#e6e6e6" d="m252.8 165.8c0-3.9 3.1-7 7.2-7 4.2 0 7.2 3.2 7.2 7s-3.1 7-7.3 7c-4 0-7.1-3.1-7.1-7zm11.3 0c0-2.3-1.7-4.3-4.2-4.3s-4.1 2-4.1 4.3 1.7 4.3 4.1 4.3c2.7.1 4.2-1.9 4.2-4.3z"/><path fill="#e6e6e6" d="m269.5 159.1h3.1v3c.8-2 2.4-3.4 4.8-3.3v3.2h-.2c-2.7 0-4.6 1.7-4.6 5.4v5.1h-3.1z"/><path fill="#e6e6e6" d="m279.1 153.9h3.1v11.1l5.6-6h3.8l-5.4 5.5 5.5 8h-3.5l-4.1-5.8-1.9 2v3.9h-3.1z"/><path fill="#e6e6e6" d="m291.7 165.8c0-3.9 3.1-7 7.2-7 4.2 0 7.2 3.2 7.2 7s-3.1 7-7.3 7c-4 0-7.1-3.1-7.1-7zm11.3 0c0-2.3-1.7-4.3-4.2-4.3s-4.1 2-4.1 4.3 1.7 4.3 4.1 4.3c2.6.1 4.2-1.9 4.2-4.3z"/><path fill="#e6e6e6" d="m308.2 167.6v-8.6h3.1v7.6c0 2.1 1.1 3.3 2.9 3.3s3-1.3 3-3.3v-7.6h3.1v13.4h-3.1v-2.1c-.8 1.3-2.1 2.3-4.2 2.3-3.1.2-4.8-1.8-4.8-5z"/><path fill="#e6e6e6" d="m323.9 168.8v-7.1h-1.7v-2.6h1.7v-3.7h3.1v3.7h3.6v2.6h-3.6v6.6c0 1.2.6 1.7 1.7 1.7.7 0 1.3-.2 1.9-.5v2.5c-.8.5-1.7.7-2.8.7-2.3 0-3.9-.9-3.9-3.9z"/><path fill="#e6e6e6" d="m333.2 154.7h3.2v15h9.4v2.9h-12.5v-17.9z"/><path fill="#e6e6e6" d="m356 172.5v-1.7c-.9 1.1-2.3 2-4.4 2-2.6 0-4.8-1.4-4.8-4.2 0-3 2.3-4.4 5.4-4.4 1.7 0 2.6.2 3.7.5v-.2c0-1.9-1.2-2.9-3.3-2.9-1.5 0-2.6.3-3.9.8l-.8-2.5c1.5-.7 2.9-1.1 5.1-1.1 4 0 5.9 2.1 5.9 5.7v8zm.1-5.6c-.8-.3-1.9-.5-3.1-.5-2 0-3.1.8-3.1 2.1s1.1 2 2.6 2c2 0 3.5-1.1 3.5-2.9z"/><path fill="#e6e6e6" d="m364.9 170.5v2.1h-3.1v-18.7h3.1v7.4c1-1.4 2.4-2.5 4.5-2.5 3.2 0 6.3 2.5 6.3 7s-3.1 7-6.3 7c-2.1 0-3.5-1.1-4.5-2.3zm7.7-4.7c0-2.6-1.7-4.3-3.9-4.3s-3.9 1.7-3.9 4.4c0 2.6 1.8 4.3 3.9 4.3s3.9-1.7 3.9-4.4z"/><path fill="#e6e6e6" d="m376.9 170.8 1.4-2.1c1.4 1.1 3 1.7 4.4 1.7s2.1-.5 2.1-1.5-1.3-1.4-2.8-1.8c-.1 0-.2-.1-.2-.1-2-.6-4.2-1.4-4.2-4s2.1-4.1 4.8-4.1c1.7 0 3.5.6 5 1.5l-1.2 2.2c-1.3-.8-2.6-1.3-3.8-1.3s-1.9.5-1.9 1.4 1.3 1.4 2.8 1.8c.1 0 .2.1.2.1 2 .6 4.2 1.5 4.2 4 0 2.9-2.2 4.2-5 4.2-1.9 0-4-.7-5.8-2z"/><path fill="#e6e6e6" d="m505.6 163.6c0-5.1 4.1-9.2 9.3-9.2s9.2 4.2 9.2 9.2-4.1 9.2-9.3 9.2-9.2-4.1-9.2-9.2zm17.4-.1c0-4.5-3.5-8.2-8.2-8.2s-8.2 3.7-8.2 8.3c0 4.5 3.5 8.2 8.2 8.2s8.2-3.7 8.2-8.3zm-13.1 0c0-2.8 2.1-5.1 5.1-5.1 1.9 0 2.9.6 3.9 1.5l-1.4 1.7c-.8-.7-1.5-1.1-2.5-1.1-1.7 0-2.8 1.4-2.8 3.1s1.1 3 2.8 3c1.1 0 1.7-.5 2.5-1.1l1.4 1.4c-1.1 1.1-2.1 1.7-4 1.7-2.9 0-5-2.3-5-5.1z"/><path fill="#e6e6e6" d="m525.4 154.7h3.4l4.2 13.2 4.4-13.3h2.6l4.4 13.3 4.2-13.2h3.3l-6.2 18h-2.7l-4.4-12.8-4.4 12.8h-2.7z"/><path fill="#e6e6e6" d="m551.7 165.8c0-3.9 3.1-7 7.2-7 4.2 0 7.2 3.2 7.2 7s-3.1 7-7.3 7c-4.1 0-7.1-3.1-7.1-7zm11.2 0c0-2.3-1.7-4.3-4.2-4.3s-4.1 2-4.1 4.3 1.7 4.3 4.1 4.3c2.7.1 4.2-1.9 4.2-4.3z"/><path fill="#e6e6e6" d="m568.3 159.1h3.1v3c.8-2 2.4-3.4 4.8-3.3v3.2h-.2c-2.7 0-4.6 1.7-4.6 5.4v5.1h-3.1z"/><path fill="#e6e6e6" d="m577.9 153.9h3.1v11.1l5.6-6h3.8l-5.4 5.5 5.5 8h-3.5l-4.1-5.8-1.9 2v3.9h-3.1z"/><path fill="#e6e6e6" d="m590.6 165.8c0-3.9 3.1-7 7.2-7 4.2 0 7.2 3.2 7.2 7s-3.1 7-7.3 7c-4.1 0-7.1-3.1-7.1-7zm11.2 0c0-2.3-1.7-4.3-4.2-4.3s-4.1 2-4.1 4.3 1.7 4.3 4.1 4.3c2.6.1 4.2-1.9 4.2-4.3z"/><path fill="#e6e6e6" d="m607 167.6v-8.6h3.1v7.6c0 2.1 1.1 3.3 2.9 3.3s3-1.3 3-3.3v-7.6h3.1v13.4h-3.1v-2.1c-.8 1.3-2.1 2.3-4.2 2.3-3 .2-4.8-1.8-4.8-5z"/><path fill="#e6e6e6" d="m622.7 168.8v-7.1h-1.7v-2.6h1.7v-3.7h3.1v3.7h3.6v2.6h-3.6v6.6c0 1.2.6 1.7 1.7 1.7.7 0 1.3-.2 1.9-.5v2.5c-.8.5-1.7.7-2.8.7-2.3 0-3.9-.9-3.9-3.9z"/><path fill="#e6e6e6" d="m632 154.7h3.2v15h9.4v2.9h-12.6z"/><path fill="#e6e6e6" d="m654.8 172.5v-1.7c-.9 1.1-2.3 2-4.4 2-2.6 0-4.8-1.4-4.8-4.2 0-3 2.3-4.4 5.4-4.4 1.7 0 2.6.2 3.7.5v-.2c0-1.9-1.2-2.9-3.3-2.9-1.5 0-2.6.3-3.9.8l-.8-2.5c1.5-.7 2.9-1.1 5.1-1.1 4 0 5.9 2.1 5.9 5.7v8zm.1-5.6c-.8-.3-1.9-.5-3.1-.5-2 0-3.1.8-3.1 2.1s1.1 2 2.6 2c2 0 3.5-1.1 3.5-2.9z"/><path fill="#e6e6e6" d="m663.7 170.5v2.1h-3.1v-18.7h3.1v7.4c1-1.4 2.4-2.5 4.5-2.5 3.2 0 6.3 2.5 6.3 7s-3.1 7-6.3 7c-2.1 0-3.5-1.1-4.5-2.3zm7.8-4.7c0-2.6-1.7-4.3-3.9-4.3-2.1 0-3.9 1.7-3.9 4.4 0 2.6 1.8 4.3 3.9 4.3s3.9-1.7 3.9-4.4z"/><path fill="#e6e6e6" d="m675.8 170.8 1.4-2.1c1.4 1.1 3 1.7 4.4 1.7s2.1-.5 2.1-1.5-1.3-1.4-2.8-1.8c-.1 0-.2-.1-.2-.1-2-.6-4.2-1.4-4.2-4s2.1-4.1 4.8-4.1c1.7 0 3.5.6 5 1.5l-1.2 2.2c-1.3-.8-2.6-1.3-3.8-1.3s-1.9.5-1.9 1.4 1.3 1.4 2.8 1.8c.1 0 .2.1.2.1 2 .6 4.2 1.5 4.2 4 0 2.9-2.2 4.2-5 4.2-2 0-4.1-.7-5.8-2z"/><path fill="#e6e6e6" d="m61 298.6c0-5.1 4.1-9.2 9.3-9.2s9.2 4.2 9.2 9.2-4.1 9.2-9.3 9.2c-5.1 0-9.2-4.2-9.2-9.2zm17.4-.1c0-4.5-3.5-8.2-8.2-8.2s-8.2 3.7-8.2 8.3c0 4.5 3.5 8.2 8.2 8.2s8.2-3.7 8.2-8.3zm-13.1-.1c0-2.8 2.1-5.1 5.1-5.1 1.9 0 2.9.6 3.9 1.5l-1.4 1.7c-.8-.7-1.5-1.1-2.5-1.1-1.7 0-2.8 1.4-2.8 3.1s1.1 3 2.8 3c1.1 0 1.7-.5 2.5-1.1l1.4 1.4c-1.1 1.1-2.1 1.7-4 1.7-2.8.1-5-2.2-5-5.1z"/><path fill="#e6e6e6" d="m80.9 289.7h3.4l4.2 13.2 4.4-13.3h2.6l4.4 13.3 4.2-13.2h3.3l-6.2 18h-2.7l-4.4-12.8-4.4 12.8h-2.7z"/><path fill="#e6e6e6" d="m107.1 300.8c0-3.9 3.1-7 7.2-7s7.2 3.2 7.2 7-3.1 7-7.3 7c-4 0-7.1-3.1-7.1-7zm11.3 0c0-2.3-1.7-4.3-4.2-4.3s-4.1 2-4.1 4.3 1.7 4.3 4.1 4.3c2.6.1 4.2-1.9 4.2-4.3z"/><path fill="#e6e6e6" d="m123.7 294h3.1v3c.8-2 2.4-3.4 4.8-3.3v3.2h-.2c-2.7 0-4.6 1.7-4.6 5.4v5.1h-3.1z"/><path fill="#e6e6e6" d="m133.4 288.9h3.1v11.1l5.6-6h3.8l-5.4 5.5 5.5 8h-3.5l-4.1-5.8-1.9 1.9v3.9h-3.1z"/><path fill="#e6e6e6" d="m146 300.8c0-3.9 3.1-7 7.2-7s7.2 3.2 7.2 7-3.1 7-7.3 7c-4.1 0-7.1-3.1-7.1-7zm11.2 0c0-2.3-1.7-4.3-4.2-4.3s-4.1 2-4.1 4.3 1.7 4.3 4.1 4.3c2.6.1 4.2-1.9 4.2-4.3z"/><path fill="#e6e6e6" d="m162.4 302.6v-8.6h3.1v7.6c0 2.1 1.1 3.3 2.9 3.3s3-1.3 3-3.3v-7.6h3.1v13.4h-3.1v-2.1c-.8 1.3-2.1 2.3-4.2 2.3-3 .2-4.8-1.8-4.8-5z"/><path fill="#e6e6e6" d="m178.1 303.8v-7.1h-1.7v-2.7h1.7v-3.7h3.1v3.7h3.6v2.6h-3.6v6.6c0 1.2.6 1.7 1.7 1.7.7 0 1.3-.2 1.9-.5v2.5c-.8.5-1.7.7-2.8.7-2.3.1-3.9-.9-3.9-3.8z"/><path fill="#e6e6e6" d="m187.4 289.7h3.2v15h9.4v2.9h-12.5v-17.9z"/><path fill="#e6e6e6" d="m210.2 307.5v-1.7c-.9 1.1-2.3 2-4.4 2-2.6 0-4.8-1.4-4.8-4.2 0-3 2.3-4.4 5.4-4.4 1.7 0 2.6.2 3.7.5v-.2c0-1.9-1.2-2.9-3.3-2.9-1.5 0-2.6.3-3.9.8l-.8-2.5c1.5-.7 2.9-1.1 5.1-1.1 4 0 5.9 2.1 5.9 5.7v8zm.1-5.6c-.8-.3-1.9-.5-3.1-.5-2 0-3.1.8-3.1 2.1s1.1 2 2.6 2c2 0 3.5-1.1 3.5-2.9z"/><path fill="#e6e6e6" d="m219.2 305.5v2.1h-3.1v-18.7h3.1v7.4c1-1.4 2.4-2.5 4.5-2.5 3.2 0 6.3 2.5 6.3 7s-3.1 7-6.3 7c-2.2 0-3.6-1.1-4.5-2.3zm7.7-4.7c0-2.6-1.7-4.3-3.9-4.3s-3.9 1.7-3.9 4.4c0 2.6 1.8 4.3 3.9 4.3s3.9-1.7 3.9-4.4z"/><path fill="#e6e6e6" d="m231.2 305.8 1.4-2.1c1.4 1.1 3 1.7 4.4 1.7s2.1-.5 2.1-1.5-1.3-1.4-2.8-1.8c-.1 0-.2-.1-.2-.1-2-.6-4.2-1.4-4.2-4s2.1-4.1 4.8-4.1c1.7 0 3.5.6 5 1.5l-1.2 2.2c-1.3-.8-2.6-1.3-3.8-1.3s-1.9.5-1.9 1.4 1.3 1.4 2.8 1.8c.1 0 .2.1.2.1 2 .6 4.2 1.5 4.2 4 0 2.9-2.2 4.2-5 4.2-2 0-4.1-.7-5.8-2z"/><path fill="#e6e6e6" d="m360.6 298.6c0-5.1 4.1-9.2 9.3-9.2s9.2 4.2 9.2 9.2-4.1 9.2-9.3 9.2-9.2-4.2-9.2-9.2zm17.4-.1c0-4.5-3.5-8.2-8.2-8.2s-8.2 3.7-8.2 8.3c0 4.5 3.5 8.2 8.2 8.2s8.2-3.7 8.2-8.3zm-13.1-.1c0-2.8 2.1-5.1 5.1-5.1 1.9 0 2.9.6 3.9 1.5l-1.4 1.7c-.8-.7-1.5-1.1-2.5-1.1-1.7 0-2.8 1.4-2.8 3.1s1.1 3 2.8 3c1.1 0 1.7-.5 2.5-1.1l1.4 1.4c-1.1 1.1-2.1 1.7-4 1.7-2.8.1-5-2.2-5-5.1z"/><path fill="#e6e6e6" d="m380.5 289.7h3.4l4.2 13.2 4.4-13.3h2.6l4.4 13.3 4.2-13.2h3.3l-6.2 18h-2.7l-4.4-12.8-4.4 12.8h-2.7z"/><path fill="#e6e6e6" d="m406.7 300.8c0-3.9 3.1-7 7.2-7 4.2 0 7.2 3.2 7.2 7s-3.1 7-7.3 7c-4.1 0-7.1-3.1-7.1-7zm11.3 0c0-2.3-1.7-4.3-4.2-4.3s-4.1 2-4.1 4.3 1.7 4.3 4.1 4.3c2.7.1 4.2-1.9 4.2-4.3z"/><path fill="#e6e6e6" d="m423.3 294h3.1v3c.8-2 2.4-3.4 4.8-3.3v3.2h-.2c-2.7 0-4.6 1.7-4.6 5.4v5.1h-3.1z"/><path fill="#e6e6e6" d="m433 288.9h3.1v11.1l5.6-6h3.8l-5.4 5.5 5.5 8h-3.5l-4.1-5.8-1.9 2v3.9h-3.1z"/><path fill="#e6e6e6" d="m445.6 300.8c0-3.9 3.1-7 7.2-7 4.2 0 7.2 3.2 7.2 7s-3.1 7-7.3 7c-4.1 0-7.1-3.1-7.1-7zm11.3 0c0-2.3-1.7-4.3-4.2-4.3s-4.1 2-4.1 4.3 1.7 4.3 4.1 4.3c2.6.1 4.2-1.9 4.2-4.3z"/><path fill="#e6e6e6" d="m462.1 302.6v-8.6h3.1v7.6c0 2.1 1.1 3.3 2.9 3.3s3-1.3 3-3.3v-7.6h3.1v13.4h-3.1v-2.1c-.8 1.3-2.1 2.3-4.2 2.3-3.1.2-4.8-1.8-4.8-5z"/><path fill="#e6e6e6" d="m477.8 303.8v-7.1h-1.8v-2.7h1.7v-3.7h3.1v3.7h3.6v2.6h-3.6v6.6c0 1.2.6 1.7 1.7 1.7.7 0 1.3-.2 1.9-.5v2.5c-.8.5-1.7.7-2.8.7-2.2.1-3.8-.9-3.8-3.8z"/><path fill="#e6e6e6" d="m487.1 289.7h3.2v15h9.4v2.9h-12.5v-17.9z"/><path fill="#e6e6e6" d="m509.9 307.5v-1.7c-.9 1.1-2.3 2-4.4 2-2.6 0-4.8-1.4-4.8-4.2 0-3 2.3-4.4 5.4-4.4 1.7 0 2.6.2 3.7.5v-.2c0-1.9-1.2-2.9-3.3-2.9-1.5 0-2.6.3-3.9.8l-.8-2.5c1.5-.7 2.9-1.1 5.1-1.1 4 0 5.9 2.1 5.9 5.7v8zm.1-5.6c-.8-.3-1.9-.5-3.1-.5-2 0-3.1.8-3.1 2.1s1.1 2 2.6 2c2 0 3.5-1.1 3.5-2.9z"/><path fill="#e6e6e6" d="m518.8 305.5v2.1h-3.1v-18.7h3.1v7.4c1-1.4 2.4-2.5 4.5-2.5 3.2 0 6.3 2.5 6.3 7s-3.1 7-6.3 7c-2.2 0-3.5-1.1-4.5-2.3zm7.7-4.7c0-2.6-1.7-4.3-3.9-4.3s-3.9 1.7-3.9 4.4c0 2.6 1.8 4.3 3.9 4.3s3.9-1.7 3.9-4.4z"/><path fill="#e6e6e6" d="m530.8 305.8 1.4-2.1c1.4 1.1 3 1.7 4.4 1.7s2.1-.5 2.1-1.5-1.3-1.4-2.8-1.8c-.1 0-.2-.1-.2-.1-2-.6-4.2-1.4-4.2-4s2.1-4.1 4.8-4.1c1.7 0 3.5.6 5 1.5l-1.2 2.2c-1.3-.8-2.6-1.3-3.8-1.3s-1.9.5-1.9 1.4 1.3 1.4 2.8 1.8c.1 0 .2.1.2.1 2 .6 4.2 1.5 4.2 4 0 2.9-2.2 4.2-5 4.2-1.9 0-4.1-.7-5.8-2z"/><path fill="#e6e6e6" d="m659.5 298.6c0-5.1 4.1-9.2 9.3-9.2s9.2 4.2 9.2 9.2-4.1 9.2-9.3 9.2-9.2-4.2-9.2-9.2zm17.3-.1c0-4.5-3.5-8.2-8.2-8.2s-8.2 3.7-8.2 8.3c0 4.5 3.5 8.2 8.2 8.2 4.8 0 8.2-3.7 8.2-8.3zm-13-.1c0-2.8 2.1-5.1 5.1-5.1 1.9 0 2.9.6 3.9 1.5l-1.4 1.7c-.8-.7-1.5-1.1-2.5-1.1-1.7 0-2.8 1.4-2.8 3.1s1.1 3 2.8 3c1.1 0 1.7-.5 2.5-1.1l1.4 1.4c-1.1 1.1-2.1 1.7-4 1.7-2.9.1-5-2.2-5-5.1z"/><path fill="#e6e6e6" d="m679.3 289.7h3.4l4.2 13.2 4.4-13.3h2.6l4.4 13.3 4.2-13.2h3.3l-6.2 18h-2.6l-4.4-12.8-4.4 12.8h-2.7z"/><path fill="#e6e6e6" d="m705.5 300.8c0-3.9 3.1-7 7.2-7 4.2 0 7.2 3.2 7.2 7s-3.1 7-7.3 7c-4 0-7.1-3.1-7.1-7zm11.3 0c0-2.3-1.7-4.3-4.2-4.3s-4.1 2-4.1 4.3 1.7 4.3 4.1 4.3c2.7.1 4.2-1.9 4.2-4.3z"/><path fill="#e6e6e6" d="m722.1 294h3.1v3c.8-2 2.4-3.4 4.8-3.3v3.2h-.2c-2.7 0-4.6 1.7-4.6 5.4v5.1h-3.1z"/><path fill="#e6e6e6" d="m731.8 288.9h3.1v11.1l5.6-6h3.8l-5.4 5.5 5.5 8h-3.5l-4.1-5.8-1.9 2v3.9h-3.1z"/><path fill="#e6e6e6" d="m744.4 300.8c0-3.9 3.1-7 7.2-7 4.2 0 7.2 3.2 7.2 7s-3.1 7-7.3 7c-4.1 0-7.1-3.1-7.1-7zm11.3 0c0-2.3-1.7-4.3-4.2-4.3s-4.1 2-4.1 4.3 1.7 4.3 4.1 4.3c2.6.1 4.2-1.9 4.2-4.3z"/><path fill="#e6e6e6" d="m760.9 302.6v-8.6h3.1v7.6c0 2.1 1.1 3.3 2.9 3.3s3-1.3 3-3.3v-7.6h3.1v13.4h-3.1v-2.1c-.8 1.3-2.1 2.3-4.2 2.3-3.1.2-4.8-1.8-4.8-5z"/><path fill="#e6e6e6" d="m776.6 303.8v-7.1h-1.7v-2.7h1.7v-3.7h3.1v3.7h3.6v2.6h-3.6v6.6c0 1.2.6 1.7 1.7 1.7.7 0 1.3-.2 1.9-.5v2.5c-.8.5-1.7.7-2.8.7-2.3.1-3.9-.9-3.9-3.8z"/><path fill="#e6e6e6" d="m785.9 289.7h3.2v15h9.4v2.9h-12.5v-17.9z"/><path fill="#e6e6e6" d="m808.7 307.5v-1.7c-.9 1.1-2.3 2-4.4 2-2.6 0-4.8-1.4-4.8-4.2 0-3 2.3-4.4 5.4-4.4 1.7 0 2.6.2 3.7.5v-.2c0-1.9-1.2-2.9-3.3-2.9-1.5 0-2.6.3-3.9.8l-.8-2.5c1.5-.7 2.9-1.1 5.1-1.1 4 0 5.9 2.1 5.9 5.7v8zm.1-5.6c-.8-.3-1.9-.5-3.1-.5-2 0-3.1.8-3.1 2.1s1.1 2 2.6 2c2 0 3.5-1.1 3.5-2.9z"/><path fill="#e6e6e6" d="m817.6 305.5v2.1h-3.1v-18.7h3.1v7.4c1-1.4 2.4-2.5 4.5-2.5 3.2 0 6.3 2.5 6.3 7s-3.1 7-6.3 7c-2.1 0-3.5-1.1-4.5-2.3zm7.7-4.7c0-2.6-1.7-4.3-3.9-4.3-2.1 0-3.9 1.7-3.9 4.4 0 2.6 1.8 4.3 3.9 4.3 2.2 0 3.9-1.7 3.9-4.4z"/><path fill="#e6e6e6" d="m829.6 305.8 1.4-2.1c1.4 1.1 3 1.7 4.4 1.7s2.1-.5 2.1-1.5-1.3-1.4-2.8-1.8c-.1 0-.2-.1-.2-.1-2-.6-4.2-1.4-4.2-4s2.1-4.1 4.8-4.1c1.7 0 3.5.6 5 1.5l-1.2 2.2c-1.3-.8-2.6-1.3-3.8-1.3s-1.9.5-1.9 1.4 1.3 1.4 2.8 1.8c.1 0 .2.1.2.1 2 .6 4.2 1.5 4.2 4 0 2.9-2.2 4.2-5 4.2-1.9 0-4-.7-5.8-2z"/><path fill="#e6e6e6" d="m206.3 434.2c0-5.1 4.1-9.2 9.3-9.2s9.2 4.2 9.2 9.2-4.1 9.2-9.3 9.2-9.2-4.1-9.2-9.2zm17.4-.1c0-4.5-3.5-8.2-8.2-8.2s-8.2 3.7-8.2 8.3c0 4.5 3.5 8.2 8.2 8.2s8.2-3.7 8.2-8.3zm-13.1-.1c0-2.8 2.1-5.1 5.1-5.1 1.9 0 2.9.6 3.9 1.5l-1.4 1.7c-.8-.7-1.5-1.1-2.5-1.1-1.7 0-2.8 1.4-2.8 3.1s1.1 3 2.8 3c1.1 0 1.7-.5 2.5-1.1l1.4 1.4c-1.1 1.1-2.1 1.7-4 1.7-2.9.1-5-2.2-5-5.1z"/><path fill="#e6e6e6" d="m226.1 425.3h3.4l4.2 13.2 4.4-13.3h2.6l4.4 13.3 4.2-13.2h3.3l-6.2 18h-2.7l-4.4-12.8-4.4 12.8h-2.7z"/><path fill="#e6e6e6" d="m252.4 436.4c0-3.9 3.1-7 7.2-7 4.2 0 7.2 3.2 7.2 7s-3.1 7-7.3 7c-4.1 0-7.1-3.1-7.1-7zm11.2 0c0-2.3-1.7-4.3-4.2-4.3s-4.1 2-4.1 4.3 1.7 4.3 4.1 4.3c2.7.1 4.2-1.9 4.2-4.3z"/><path fill="#e6e6e6" d="m269 429.7h3.1v3c.8-2 2.4-3.4 4.8-3.3v3.2h-.2c-2.7 0-4.6 1.7-4.6 5.4v5.1h-3.1z"/><path fill="#e6e6e6" d="m278.6 424.5h3.1v11.1l5.6-6h3.8l-5.4 5.5 5.5 8h-3.5l-4.1-5.8-1.9 2v3.9h-3.1z"/><path fill="#e6e6e6" d="m291.3 436.4c0-3.9 3.1-7 7.2-7 4.2 0 7.2 3.2 7.2 7s-3.1 7-7.3 7c-4.1 0-7.1-3.1-7.1-7zm11.2 0c0-2.3-1.7-4.3-4.2-4.3s-4.1 2-4.1 4.3 1.7 4.3 4.1 4.3c2.6.1 4.2-1.9 4.2-4.3z"/><path fill="#e6e6e6" d="m307.7 438.2v-8.6h3.1v7.6c0 2.1 1.1 3.3 2.9 3.3s3-1.3 3-3.3v-7.6h3.1v13.4h-3.1v-2.1c-.8 1.3-2.1 2.3-4.2 2.3-3 .2-4.8-1.8-4.8-5z"/><path fill="#e6e6e6" d="m323.4 439.4v-7.1h-1.7v-2.6h1.7v-3.7h3.1v3.7h3.6v2.6h-3.6v6.6c0 1.2.6 1.7 1.7 1.7.7 0 1.3-.2 1.9-.5v2.5c-.8.5-1.7.7-2.8.7-2.3 0-3.9-.9-3.9-3.9z"/><path fill="#e6e6e6" d="m332.7 425.3h3.2v15h9.4v2.9h-12.5v-17.9z"/><path fill="#e6e6e6" d="m355.5 443.1v-1.7c-.9 1.1-2.3 2-4.4 2-2.6 0-4.8-1.4-4.8-4.2 0-3 2.3-4.4 5.4-4.4 1.7 0 2.6.2 3.7.5v-.2c0-1.9-1.2-2.9-3.3-2.9-1.5 0-2.6.3-3.9.8l-.8-2.5c1.5-.7 2.9-1.1 5.1-1.1 4 0 5.9 2.1 5.9 5.7v8zm.1-5.6c-.8-.3-1.9-.5-3.1-.5-2 0-3.1.8-3.1 2.1s1.1 2 2.6 2c2 0 3.5-1.1 3.5-2.9z"/><path fill="#e6e6e6" d="m364.4 441.1v2.1h-3.1v-18.7h3.1v7.4c1-1.4 2.4-2.5 4.5-2.5 3.2 0 6.3 2.5 6.3 7s-3.1 7-6.3 7c-2.1 0-3.5-1.1-4.5-2.3zm7.7-4.7c0-2.6-1.7-4.3-3.9-4.3-2.1 0-3.9 1.7-3.9 4.4 0 2.6 1.8 4.3 3.9 4.3 2.2 0 3.9-1.7 3.9-4.4z"/><path fill="#e6e6e6" d="m376.5 441.4 1.4-2.1c1.4 1.1 3 1.7 4.4 1.7s2.1-.5 2.1-1.5-1.3-1.4-2.8-1.8c-.1 0-.2-.1-.2-.1-2-.6-4.2-1.4-4.2-4s2.1-4.1 4.8-4.1c1.7 0 3.5.6 5 1.5l-1.2 2.2c-1.3-.8-2.6-1.3-3.8-1.3s-1.9.5-1.9 1.4 1.3 1.4 2.8 1.8c.1 0 .2.1.2.1 2 .6 4.2 1.5 4.2 4 0 2.9-2.2 4.2-5 4.2-2 0-4.1-.7-5.8-2z"/><path fill="#e6e6e6" d="m505.1 434.2c0-5.1 4.1-9.2 9.3-9.2s9.2 4.2 9.2 9.2-4.1 9.2-9.3 9.2-9.2-4.1-9.2-9.2zm17.4-.1c0-4.5-3.5-8.2-8.2-8.2s-8.2 3.7-8.2 8.3c0 4.5 3.5 8.2 8.2 8.2s8.2-3.7 8.2-8.3zm-13.1-.1c0-2.8 2.1-5.1 5.1-5.1 1.9 0 2.9.6 3.9 1.5l-1.4 1.7c-.8-.7-1.5-1.1-2.5-1.1-1.7 0-2.8 1.4-2.8 3.1s1.1 3 2.8 3c1.1 0 1.7-.5 2.5-1.1l1.4 1.4c-1.1 1.1-2.1 1.7-4 1.7-2.9.1-5-2.2-5-5.1z"/><path fill="#e6e6e6" d="m525 425.3h3.4l4.2 13.2 4.4-13.3h2.6l4.4 13.3 4.2-13.2h3.3l-6.2 18h-2.7l-4.4-12.8-4.4 12.8h-2.7z"/><path fill="#e6e6e6" d="m551.2 436.4c0-3.9 3.1-7 7.2-7 4.2 0 7.2 3.2 7.2 7s-3.1 7-7.3 7c-4.1 0-7.1-3.1-7.1-7zm11.2 0c0-2.3-1.7-4.3-4.2-4.3s-4.1 2-4.1 4.3 1.7 4.3 4.1 4.3c2.7.1 4.2-1.9 4.2-4.3z"/><path fill="#e6e6e6" d="m567.8 429.7h3.1v3c.8-2 2.4-3.4 4.8-3.3v3.2h-.2c-2.7 0-4.6 1.7-4.6 5.4v5.1h-3.1z"/><path fill="#e6e6e6" d="m577.5 424.5h3.1v11.1l5.6-6h3.8l-5.4 5.5 5.5 8h-3.5l-4.1-5.8-1.9 2v3.9h-3.1z"/><path fill="#e6e6e6" d="m590.1 436.4c0-3.9 3.1-7 7.2-7 4.2 0 7.2 3.2 7.2 7s-3.1 7-7.3 7c-4.1 0-7.1-3.1-7.1-7zm11.2 0c0-2.3-1.7-4.3-4.2-4.3s-4.1 2-4.1 4.3 1.7 4.3 4.1 4.3c2.6.1 4.2-1.9 4.2-4.3z"/><path fill="#e6e6e6" d="m606.5 438.2v-8.6h3.1v7.6c0 2.1 1.1 3.3 2.9 3.3s3-1.3 3-3.3v-7.6h3.1v13.4h-3.1v-2.1c-.8 1.3-2.1 2.3-4.2 2.3-3 .2-4.8-1.8-4.8-5z"/><path fill="#e6e6e6" d="m622.2 439.4v-7.1h-1.7v-2.6h1.7v-3.7h3.1v3.7h3.6v2.6h-3.6v6.6c0 1.2.6 1.7 1.7 1.7.7 0 1.3-.2 1.9-.5v2.5c-.8.5-1.7.7-2.8.7-2.3 0-3.9-.9-3.9-3.9z"/><path fill="#e6e6e6" d="m631.5 425.3h3.2v15h9.4v2.9h-12.5v-17.9z"/><path fill="#e6e6e6" d="m654.3 443.1v-1.7c-.9 1.1-2.3 2-4.4 2-2.6 0-4.8-1.4-4.8-4.2 0-3 2.3-4.4 5.4-4.4 1.7 0 2.6.2 3.7.5v-.2c0-1.9-1.2-2.9-3.3-2.9-1.5 0-2.6.3-3.9.8l-.8-2.5c1.5-.7 2.9-1.1 5.1-1.1 4 0 5.9 2.1 5.9 5.7v8zm.1-5.6c-.8-.3-1.9-.5-3.1-.5-2 0-3.1.8-3.1 2.1s1.1 2 2.6 2c2 0 3.5-1.1 3.5-2.9z"/><path fill="#e6e6e6" d="m663.3 441.1v2.1h-3.1v-18.7h3.1v7.4c1-1.4 2.4-2.5 4.5-2.5 3.2 0 6.3 2.5 6.3 7s-3.1 7-6.3 7c-2.2 0-3.6-1.1-4.5-2.3zm7.7-4.7c0-2.6-1.7-4.3-3.9-4.3s-3.9 1.7-3.9 4.4c0 2.6 1.8 4.3 3.9 4.3s3.9-1.7 3.9-4.4z"/><path fill="#e6e6e6" d="m675.3 441.4 1.4-2.1c1.4 1.1 3 1.7 4.4 1.7s2.1-.5 2.1-1.5-1.3-1.4-2.8-1.8c-.1 0-.2-.1-.2-.1-2-.6-4.2-1.4-4.2-4s2.1-4.1 4.8-4.1c1.7 0 3.5.6 5 1.5l-1.2 2.2c-1.3-.8-2.6-1.3-3.8-1.3s-1.9.5-1.9 1.4 1.3 1.4 2.8 1.8c.1 0 .2.1.2.1 2 .6 4.2 1.5 4.2 4 0 2.9-2.2 4.2-5 4.2-2 0-4.1-.7-5.8-2z"/></g>
</svg>
