<?xml version="1.0" encoding="utf-8"?>
<!-- Generator: Adobe Illustrator 23.0.1, SVG Export Plug-In . SVG Version: 6.00 Build 0)  -->
<svg version="1.2" baseProfile="tiny" id="Layer_1" xmlns="http://www.w3.org/2000/svg" xmlns:xlink="http://www.w3.org/1999/xlink"
	 x="0px" y="0px" viewBox="0 0 900 600" xml:space="preserve">
<g>
	<path d="M561.53,323.2c0.16-3.04,0.48-8.55-1.42-10.88c-2.27-2.78-0.46-5.03-4.07-9.36c-3.73-4.46-6.12-4.88-7.22-8.24
		c-11.28-34.35-2.16-18.04-7.12-68.34c-0.01-0.1-1.02-12.4,0.61-13.63c14.97-12.71,14.24-23.66,17.49-13.73
		c3.13,9.57,4.57,7.47,7.22,19.43c4.64,20.96,1.98,21.8,1.42,29.9c-1.12,0.92-2.54,0.41-3.56,1.32c-0.81,1.12-0.41,2.44-0.41,3.76
		c0.34,6.51-1.32,4.64-1.32,7.63c-0.9,12.45-0.12,15.21,0.51,11.29c2.65-16.65,1.93-14.84,4.17-15.97c0.1-0.61-0.81-0.81-0.51-1.53
		c0.71-2.85,0.92-2.23,2.44-1.32c0.2-0.71,0.2-1.53,1.22-1.93c1.93,0.1,4.07-0.31,6.1,0.51c1.12,0.31,0.41,1.73,1.32,2.03
		c0.31-1.55,1.33-1.52,2.03-0.81c1.35,3.37,0.11,0.62,1.73-0.1c15.38,2.32,18.57-0.55,30.61,3.56c1.24,2.89,0.52,2.5,1.32,0.1
		c14.76,0,14.38,1.42,22.68,1.02c1.12,0.61,0.51,1.73,1.32,2.24c0.51-0.81-0.1-1.93,0.71-2.64c2.17-1.3,2.2,1.68,2.85,2.54
		c0.62-1.55-1.12-4.33,2.85-2.85c0.63-1.58,1.04-1.02,1.63-1.02c0.71,0.92,0.41,2.34,1.32,3.25c1.68-5.03,0.17-4.37,1.12-5.8
		c1.53,1.73,1.12,4.17,2.64,5.7c2.9,0,0.94-6.15-0.41-8.75c0-7.46-0.34-11.29,0.92-15.36c0.76-2.03-2.98-11.16,2.34-26.44
		c0.1,0,15.92,8.19,15.15,3.56c-2.99-1.77-8.35-1-15.05-7.12c0-22.4-2.33-7.32-0.61-17.19c0.69-3.97,0.7-3.46,2.54-2.85
		c0.61-2.03-1.02-3.46-1.32-5.39c0.1-1.02,0.2-2.14,0.31-3.36c-2.91,0-2.18,2.81-3.05,5.7c-2,6.67,0.17,11.31-0.31,16.27
		c-4.03,41.99-1.19,29.39-2.75,36.82c-4.16,19.82,3.32,14.82-8.24,18.2c-4.07,1.19-12.99,1.39-15.36,0.81
		c-7.5-2.5-12.78,0.42-26.24-2.75c-1.73-0.41-3.36,0-5.09-0.31c0.1,0-1.16-2.31-9.46-5.29c1.23,3.77,15.29,6.81-2.23,4.38
		c-7.47-1.03-1.54-1.63-10.68-1.63c-2.17-5.79,1.09-6.74,0.51-12.51c-0.7-6.94-1.77-20.45-6.01-29.71
		c-0.05-0.1-6.23-14.07-6.72-14.95c11.5-18.07,4.26-14.03,12.1-14.03c4.59-2.7,7.14-3.24,10.48-8.14c3.04-4.45,9.94-27.2,9.76-31.02
		c-0.25-5.28-1.54-6.67-2.14-13.53c-0.94-10.84-4.77-16.8-5.9-19.63c1.31-0.95,3.65,0.28,3.02-0.5c-0.44-0.47-3.33-0.52-3.44-0.52
		c-2.11-1.98,0.02-1.17-8.64-10.37c3.45-2.82,3.34-2.49,5.67-0.11c35.74,36.35,23.91,28.95,32.87,34.19
		c10.48,6.99,24.32,4.76,26.24-7.63c2.85-18.44-2.28-20.15-3.86-27.26c1.91,0.37,2.84,0.65,3.6,1.73
		c20.33,29.04,32.38,23.85,22.13,64.48c-4.14,16.41-7.93,13.72-6.31,16.98c1.81-0.9,1.79-2.06,3.05-3.05
		c7.27-5.74,7.15-19.33,8.85-21.97c2.14,2.5,3.22,15.04,5.9,18.2c1.82-14.59-5.38-21.97-5.29-26.75
		c0.99-54.45-21.14-40.87-38.14-58.48c1.36-2.57,4,0.75,6.71-4.68c2.58-11.07,3.3-6.62,4.07-13.32c0.7-6.15,0.11-8.59,1.42-10.88
		c1.59-2.79,0.37-11.15-1.42-11.59c-0.2,2.54-0.31,4.98,0.31,7.53c-1.95,3.07-1.93,7.9-1.93,11.9c-0.4,6.89-1.42,5.2-3.86,15.26
		c-0.3,1.22-0.81,2.54-2.24,3.15c-2.44-0.41-4.88,0.11-7.42-0.2c-2.44-0.3-4.68-1.73-7.22-1.42c-0.1,0.92,0.51,1.31,1.02,1.32
		c2.95,0.05,5.29,1.93,8.03,2.54c0.21,2.31-0.03,2.57,0.71,5.9c0.2,0.92-0.41,1.83,0.1,2.75c1.81,0.91,1.09-3.96,1.93-5.09
		c3.34,2.89,6.09,3.19,8.24,17.7c0.31,2.08-0.16,2.04-1.16,2.82c-0.02,0-0.09,0.01-0.24,0.01l0.1,0.1c0.08-0.06,0.12-0.09,0.13-0.1
		c1.74-0.1,1.65,0.39,1.89,2.04c0.8,5.7-0.78,17.15-10.17,18.81c-6.64,1.18-10.62-1.19-18.31-6.51c-4.36-3.39-0.76-4.71-15.87-20.54
		c-14.62-15.32-17.05-9.23-7.53-15.66c2.13-1.44,4.07-2.95,5.39-5.19c0.98-0.98,1.72,1.66,2.67,2.57c0.49-1.86-0.65-3.55-0.95-5.42
		c2.19-4.05-0.9-8.02,3.15-22.88c-0.94-0.24-3.36-0.28-3.36-2.64c0.71-0.51,1.93,0.2,2.64-1.02c1.7-13.92,1.69,5.67,4.47-1.93
		c1.04-2.84,2.19-5.58,2.75-8.54c0.69-3.71,3.27-4.07,4.98-9.87c1.27-4.31,3.05-2.14,4.07-3.15c0-2.12,2.51-0.45,2.64-2.95
		c-2.3-4.14-0.84-2.93-4.68-3.36c-0.51-0.1-0.71,0.71-1.32,0.2c0.51-0.92,1.12-1.83,2.03-2.34c3.76,1.32,4.17,1.63,6.2,4.17
		c1.02-0.31,0.2-1.32,1.12-1.93c1.12,0,2.44-0.41,3.66-0.92c7.48,1.66,0.29-0.35,10.68,0.92c1.83,0.22,3.15-1.22,5.09-1.12
		c0.92,4.27,0.41,8.85,3.25,12.61c-0.2,0.81-0.41,1.63-0.51,2.34c-5.69,3.46-10.46,3.94-7.42,11.39c0.71-1.22-0.1-2.64,1.02-3.86
		c2.24,1.02,4.27-0.31,6.51-0.92c0.51-3.15,1.73-6.1,1.83-9.05c-2.54-4.37-1.93-9.15-2.95-13.53c1.73-3.36,5.49-4.07,7.53-6.41
		c0.41-0.81-0.01-1.32-0.1-1.93c-0.11-0.71,0.61-1.32,0-2.24c-1.53-1.02-3.36,0.41-5.09,0c0.76-1.1,6.17-3.16,2.54-4.37
		c-5.52,0.35-4.24,6.04-4.78-4.17c-0.41-0.1-0.71-0.31-1.02-0.41c-1.22,0.41-1.42,1.63-2.34,2.24c-1.54,1.23-1.24,0.96-2.24-0.41
		c-3.75-0.62-4.96,1.36-6.61,1.22c-1.32-0.11-2.24,0.71-3.25,1.22c-1.8-0.9,0.23-1.07-13.63-0.31c-1.42,0.71-1.32,2.14-2.44,2.64
		c-2.74,0.91-0.26-2-2.75-2.14c-9.56,10.76-12.08,0.08-15.26,3.25c0.34,2.55,3.81,2.1,0.71,4.68c0.2,1.22-0.2,2.34-1.12,3.36
		c-0.25,0.25-0.2,0.92-0.31,0.92c-1.91,0.64-0.41,1.14-0.41,1.93c-0.61,0.71-1.12,1.53-0.71,2.54c-0.41,0.92-1.53,1.42-1.83,3.05
		c-1.06,8.49-3.29,7.45-2.34,14.24c1.16,8.27,3.8,3.62,2.54,11.8c4.74,11.07,3.02,13.5,5.59,18c-0.6,9.63,1.31,7.57-17.39,20.75
		c-13.6,9.59-6.88,10.07-20.75,17.49c-3.11,1.66-9.28,6.44-9.97,9.87c-0.26,1.28-7.81,7.06-10.37,23.39
		c-0.72,4.58-2.49,11.02-5.19,14.75c-11.83,16.34-8.18,49.96-13.73,54.92c-0.23,2.84-0.09,29.8-0.1,29.9
		c-1.39,11.56,1.76,23.91,6.81,32.95c7.64,13.68,3.1,14.55,5.9,21.66c5.64,14.34,0.07,15.39,1.32,27.87c0,0.41,0.31,0.92,1.12,0.51
		c-0.65-11.46,5.59-16.93,1.22-25.12c-1.53-2.49-1.02-4.41-2.14-11.59c-0.79-5.09-8.2-22.75-10.27-33.15
		c-3.77-18.92-0.45,1.72-1.63-26.44c-1.32-31.52-0.53,8.39,6-46.27c1.36-11.35,4.88-14.77,4.88-16.48c0-5.03,9.09-11.12,7.63-18.41
		c5.93-19.77,3.67-17.7,15.46-30.71c1.11-1.23,2.34-2.44,2.95-4.07c4.36-1.92,13.26-11.81,18.61-14.03c3.89,5,3.88,6.49,6.2,8.03
		c3.7,2.77,12.62,30.89,8.34,44.24c-0.7,2.19-6.36,18.97-8.14,19.73c-2.24-1.83-5.09-5.9-6.61-9.25c1.9-2.3,3.4-4.79,4.13-7.68
		c-1.79,0.63-3.89,6-8.5,7.27c-1.77,10.6-2.66,14.82-4.78,19.63c-0.87,1.98-7.83,17.28-13.02,22.58c-8.73,8.93-7.75,12.86-9.36,8.85
		c-2.8,1.2-1.63,15.88-0.71,21.05c2.88,16.22-2.32,41.6,2.34,54.11c1.43,3.84,1.49,8.92,4.68,13.02c2.99,1.79,0.17-2.24,7.32,7.63
		c2.75,3.79,0.4,5.81,4.58,9.05c1.57,6.82-0.84,7.45,0.71,14.34c0.21,0.91,0.92,1.73,0.31,2.75c-1.73-0.41-2.31-1.63-2.54-3.15
		c-0.78-5.2-2.32-3.66-3.46-9.36c-0.1-0.51-0.1-1.22-0.31-1.73c-0.2-0.71,0.41-1.42-0.31-2.03c-0.9,0.64-1.12,1.33-1.12,6.92
		c0,5.08-2.31,3.88-2.64,8.03c-2.2,27.5,0.02,32.24-4.58,19.02c-0.86-1.73-0.14-21.57-3.25-20.95c0,1.52-0.03-0.34,1.12,12.71
		c0.76,8.64-0.41,0.54-0.41,12.51c0,7.35,0.11,6.27-1.63,8.54c-3.98-17.9-2.15-14.14-4.37-32.34c-0.16-0.8-1.32-1.32-1.32,0.71
		c0,0.87,2.16,24.4-0.2,27.36c-1.98-1.98-3.4-15.89-3.25-18.51c0.96-17.06-0.86-10.27-1.93-10.98c-0.41-1.02,0.2-2.34-0.61-3.36
		c-2.28,2.28-0.89,11.92,0.41,15.97c2.85,8.86,0.6,19.48,6.1,18.1c3.75-8.45,1.57,7.29,6.41,4.07c2.24-3.05,1.93-6.81,2.03-10.48
		c1.83,1.53,0.31,4.27,2.14,5.7c1.32,0.2,2.03-0.71,3.05-1.12c1.12-3.54,2.02-18.46,1.83-22.98c-0.26-6.12,3.05-15.01,3.66-6.61
		c0.38,5.23,6.32,6.8,7.63,5.49C563.61,329.55,561.25,328.66,561.53,323.2z M663.33,118.98c-2.78,1.39-0.07-0.78-8.54-9.97
		c-11.28-12.23-11.89-9.93-12.49-12.53C641.57,94.3,662.29,104.29,663.33,118.98z M637.4,40.26c0.27-0.38,0.57-0.52,0.95-0.53
		C640.35,39.68,639.14,41.56,637.4,40.26z M644.21,10.87c-2.09,5.44-2.37,1.39-2.75,0.92C642.28,10.77,643.1,11.18,644.21,10.87z
		 M636.48,4.67c0.72,1.63,0.7,1.64-0.61,2.34C635.56,6.21,636.09,5.57,636.48,4.67z M634.76,3.12c0.35-0.21,0.14,0.4-0.28,0.5
		C634.28,3.69,634.55,3.23,634.76,3.12z M633.94,19.02c0.31-0.08,0.8,0.42,0.12,0.48C633.76,19.5,633.5,19.09,633.94,19.02z
		 M629.16,17.58c0.5,0-0.31,0.52-0.31,0.1C628.96,17.69,629.06,17.58,629.16,17.58z M626.52,8.94c0.17,0,0.31,0.41,0,0.41
		C626.35,9.35,626.21,8.94,626.52,8.94z M625.77,12.55c0.3-0.48,1.89-0.16-0.16,0.86C625.6,13,625.66,12.72,625.77,12.55z
		 M627.84,19.02c-0.43,0.43-0.62,0.25-0.92-0.19c-1.12,0.2-2.03-0.31-2.95-0.92C626.14,16.96,626.05,19.02,627.84,19.02z
		 M622.55,15.14c0.2-0.38,0.77-0.39,0.69,0.15C623.07,16.1,621.74,15.55,622.55,15.14z M620.28,17.13
		c-0.58-0.59,0.32-1.72,1.15-0.05C620.87,17.31,620.51,17.36,620.28,17.13z M622.04,8.33c-0.6,1.02-3.41,4.28-3.26,2.22
		C618.92,8.55,620.09,8.33,622.04,8.33z M615.13,11.48c0.12,0.37,0.14,0.31,0,0.31C614.99,11.79,615.01,11.85,615.13,11.48z
		 M613.5,7.11c-0.23,0.33-0.54,0.27-0.71,0C612.99,6.7,613.3,6.8,613.5,7.11z M600.18,44.54c-0.59-0.59-0.13,0.31,0.31-1.42
		C601.24,43.86,600.18,43.7,600.18,44.54z M606.69,26.74c1.4,0.56,1.99,0.59-0.2,2.75C605.98,28.48,606.19,27.72,606.69,26.74z
		 M605.87,16.77c0,1.83-0.51,2.54-3.25,4.68C600.94,20.61,605.11,17.6,605.87,16.77z M604.65,10.06c-0.38,1.9-1.31,2.13-2.95,2.03
		C602.41,11.28,603.13,10.67,604.65,10.06z M601.58,16.78c0.13-0.17,0.33-0.21,0.43-0.32c0,0.02,0.06,0.27,0.06,0.28
		C602.25,17.37,601.28,17.18,601.58,16.78z M601.53,30.28c0.15,0.16,0.18,0.42-0.11,0.52C600.97,30.8,601.29,30.03,601.53,30.28z
		 M599.87,34.47c0.43-1.21,0.51-1.22,1.83-1.12C601.9,35.34,599.54,35.39,599.87,34.47z M587.63,42.47
		c-0.26,0.13-0.11-0.53,0.08-0.34C587.87,42.29,587.96,42.3,587.63,42.47z M593.54,34.92c-0.49,2.78-1.94-1.51-0.07-3.81
		C594.03,32.24,594.09,31.82,593.54,34.92z M594.18,50.43c-0.5,0-0.17-0.47,0-0.81C594.34,49.94,594.56,50.43,594.18,50.43z
		 M597.03,45.98c-0.43-0.35-0.89-0.8-1.54-1.24C590.48,41.27,597.83,38.86,597.03,45.98z M595.7,32.53l-0.1,0.31
		C595.47,32.46,595.44,32.53,595.7,32.53z M598.99,47.36c0.21-0.38,0.64-0.02,0.39,0.42C599.01,48.41,598.81,47.61,598.99,47.36z
		 M598.86,32.94c-0.41,0.71-1.12,1.02-1.93,1.32C596.44,33.54,596.98,32,598.86,32.94z M595.8,10.97c0.11,0.22,0.45,0.41-0.31,0.41
		c-0.08,0-0.14-0.1-0.2-0.2C595.5,11.18,595.6,11.08,595.8,10.97z M593.36,16.16c2.16,3.79,2.24,0.75,4.17,1.53
		c0.95,1.19-0.69,2.3-0.94,2.18c-2.01-0.99-1.89-0.91-2.56-0.85c-1.95,0.17-4.03,2.33-4.03,1.83c-0.17-2.32,3.31-2.16-0.16-4.03
		C591.02,16.97,592.28,16.16,593.36,16.16z M591.43,50.03c-2.26-1.64-3.2-4.77-0.71-5.19c1.21,0.31,2.19,1.78,1.83,2.14
		C591.74,47.79,591.53,48.81,591.43,50.03z M568.34,173.09c0.88-3.97-0.56-9.23,1.32-10.17c2.03,2.95,5.19,4.98,7.83,7.63
		c-2.66,5.36-5.7,4.17-9.05,4.17C567.94,174.21,568.24,173.75,568.34,173.09z"/>
	<path d="M562.85,273.87l0.1,0.1C562.91,273.73,562.94,273.84,562.85,273.87z"/>
	<path d="M594.79,83.49l0.1-0.1C594.82,83.31,594.83,83.26,594.79,83.49z"/>
	<path d="M576.89,151.02l-0.1-0.1C576.74,151.15,576.69,151.06,576.89,151.02z"/>
	<path d="M323.55,285.87c-0.1-0.1-13.93-6.67-14.03-6.71c-1.73-2.64-4.47-3.66-7.32-4.27c-1.54-2.56,1.24-5.49-7.12-7.73
		c-11.12-2.98-4.94-2.21-7.42-3.86c-3.46-2.77-0.81-5.95-4.17-8.34c-1.13-0.8-2.64,0.1-3.86-0.81c0.28-2.53,0.92-5.44-1.22-6.51
		c-1.48-0.3-1.41,1.33-1.63,2.85c-3.05,0,1.92-2.48,0.61-15.97c-0.43-4.38,0.99-6.52-0.41-16.78c7.31-17.7-3.11-11.17,7.02-17.59
		c1.43-0.91,2.03-2.03,1.22-3.86c-0.1-0.51-1.42,0-1.32-1.22c2.52-1.05,5.39-1.26,5.09-5.9c1.93-0.92,2.95-2.34,2.95-4.47
		c-4.76-4.76-2.22-5.78-9.97-5.9c-3.36-0.05-6.61-0.1-10.27,0.51c2.14-2.24,1.42-4.68,2.24-6.61c-2.96-5.28-3.85-0.88-6.92,1.42
		c-7.77,5.85-9.52-0.19-15.87,12.51c-9.52,12.08-9.96,7.61-17.29,8.85c-23.76,4.02-26.9,0.09-31.93-1.32
		c-0.2-1.42-0.41-2.64-0.61-3.86c9.83-10.4,9.7-20.65,10.98-21.56c4.56-1.3,12.28-2.42,14.44-9.87c0.93-3.18,3.03-3.65,5.09-10.98
		c1.58-5.66,0.82-7.48-1.32-19.83c-4.99-28.87-18.75-27.62-16.58-33.05c1.27-2.55,0.68-1.54,4.37,1.53
		c11.73,9.74,17.71,27.32,36.71,35.19c4.74,1.96,12.18,1.01,12.98-3.2c-3.73,1.33-5.49,2.45-7.76,1.52
		c-1.33,0.77-6.87,1.62-20.17-11.84c-8.77-8.88-2.28-4.92,6.1-1.32c11.71,5.03,10.44,0.84-11.8-5.9
		c-15.11-23.17-21.59-14.71-15.26-21.05c1.79-2.01,3.96-4.18,8.34-6.61c1.73,0.8,3.71,6.73,1.42-2.03c1.39-6.02,0.66,1.9,1.12-16.58
		c1.53-3.05,2.24-6.2,1.63-7.02c-0.51,0-1.12,0-1.83,0c-0.31-0.81-1.32-1.32-1.02-2.54c4.41-1.26,1.09-0.4,3.2-6.55
		c1.28,1.62,1.59,3.52,1.78,5.43c3.02,0,3.69-10.76,6.31-14.03c3.66-4.58,2.81-7.24,4.68-8.64c1.02-0.61,2.03-0.1,2.95-0.41
		c0-0.31-0.1-0.61-0.1-1.02c0.81-0.61,2.44-0.51,2.64-2.34c-1.12-0.51-0.92-2.14-2.14-3.25c-1.65,0.82-3.01-1-3.56,0.1
		c-0.13-0.2-0.24-0.45-0.01-0.5c1-0.23-0.1-1.13,1.94-1.94c1.42,0.81,3.05,1.63,4.58,2.44c0.61,0.51,0.1,1.83,1.22,2.03
		c1.02-0.2,0.41-1.22,1.02-1.93c1.12-0.2,2.54-0.51,3.66-1.12c1.73,0.41,3.36,0.83,5.09,0.41c0.41-0.1,0.92-0.1,1.42,0
		c6.81,0.91,3.18,0.88,9.15-0.61c1.22,4.27,0.51,9.05,3.46,12.61c-0.2,1.02-0.31,1.83-0.51,2.64c-3.65,1.82-11.23,3.96-7.32,10.98
		c0.51-1.12,0-2.44,0.71-3.46c2.64,0.2,2.64,0.2,6.71-1.22c0.61-2.95,1.73-5.8,1.93-8.85c-2.54-4.47-2.03-9.36-2.95-13.73
		c1.93-3.15,5.39-3.97,7.83-6.61c-0.61-1.12,0-2.44-0.2-3.66c-1.63-0.92-3.25,0.1-4.68-0.51c0.61-1.53,2.95-1.32,3.15-3.56
		c-2.14-1.53-3.86,0.2-5.7,1.22c-0.33-6.9,0.29-5.91-1.32-6.71c-7.15,6.64-3.23,3.38-4.58,2.03c-3.63,0-0.01-0.74-9.87,2.14
		c-2.02-1.26-11.76,0.09-13.73,0c-1.32,0.71-1.32,2.15-2.44,2.54c-2.17,0.76-0.39-1.97-2.24-2.24c-5.29,4.37-5.29,4.37-9.76,5.19
		c-1.02-0.71-2.03-1.53-3.05-2.34c-1.02,0.2-1.93-0.51-2.85,0.1c-0.62,2.78,3.65,1.94,0.51,5.09c0,3.16-1.22,2.63-1.22,4.27
		c0,0.2-0.81,0.41-1.22,0.61c0.31,0.51,0.51,0.92,0.71,1.32c-0.92,1.73-1.02,3.86-2.44,5.09c-0.41,2.34-0.32,4.47-1.32,6.51
		c-1.96,4.01-1.89,10.02,1.83,15.97c1.09,2.05-1.43,3.18,0.2,6c3.41,5.9,2.26,11.68,4.88,16.27c-1.42,14.64,0.06,3.79-13.02,20.44
		c-2.24,2.85-4.88,5.29-8.75,5.9c-7.81,9.38-25.85,5.63-30.21,45.66c-1.15,10.55-5.98,9.04-9.15,19.63
		c-3.68,12.27-2.68,16.71-2.85,18c-1.28,9.59-8.45,22.95-1.22,42c2.79,2.32,1.65,1.06,4.17,1.42c13.69,1.98,17.27,4.92,29.8,3.36
		c6.76-0.84,5.31-1.43,6.51,3.76c-1.12,4.46-2.45,6.48-1.93,10.68c0.92,7.49-5.36,4.92-4.58,14.03c-0.51,0.51-1.12,0.61-0.92,1.42
		c4.78,3.05,10.37,3.56,15.87,4.47c-3.56-2.44-8.34-1.93-12.1-4.58c1.82-11.54,0.84-6.93,8.64-4.27c9.7,3.3,6.2,0.4,6.2,4.58
		c0,2.12-0.39,3.73,1.12,3.56c0.41-7.35-0.43-6.14,4.98-4.98c1.64,3.27,0.96,0.55,1.73,0c1.12,0.1,2.34,0.2,3.66,0.41
		c1.22,0,1.83-1.32,3.46-1.42c9.97,1.22,20.44,0.92,31.02,0.31c2.44,6.11,0.61,1.68,1.93-0.31c10.72-1.79,9.08-2.09,10.07-0.61
		c0.72-0.43-0.34-1.53,1.83-1.53c0.39-0.87,1.06-1.56,2.35-2.15c-0.03,1.61,0.43,3.04,0.8,4.38c0.61,0.71,1.22,0.1,1.83,0.31
		c0.92,1.73,2.95,0.61,4.27,1.93c2.08,6.76-0.43,2.91-2.64,7.02c-2,3.72,0.35,5.96,2.03,4.07c0.81-1.63,0.61-3.66,1.53-5.59
		c1.12,1.02,2.34,1.53,3.56,2.03c0.63,5.69-0.41,1.88-2.44,10.27c-0.35,1.45-0.95,3.73,0.1,4.78c3.39,1.36,2.86-10.59,4.27-12
		c3.15,0.31,6,1.83,8.95,2.54c1.22,2.44,1.22,2.44,1.12,5.09c-7.75,5.43-17.93,18.94,0.51,2.03c0.81,0.31,1.02,1.22,1.83,1.22
		s0.51-1.12,1.63-1.32c1.53,0.1,3.02,0.84,4.17,2.34c1.8,2.35,25.61,12.5,26.44,15.56c-3.56,0.51-6.92,1.83-10.58,1.42
		c-2.82,2.19-8.58,7.81-15.05,15.97c-2.55,3.22-1.38,0.01-5.39,5.49c-4.54,6.21-4.76,9.5-6.2,9.87c-0.77-0.09-1.36-0.82-2.21-0.72
		c0.27,1.03,1.71,1.17,2,2.55c-3.92,10.97-3.64,12.27-5.39,13.63c-0.6,0.46-2.87,8.69-3.05,10.58c-0.99,2.98-7.79-2.59-10.27-4.47
		c-0.33-8.54,2.77-7.52,2.24-16.68c-1.05-17.99-1.33-15.26,4.37-11.59c-3.05-4.57,14.83-0.07-4.27-3.76
		c0.86-5.43-1.82-6.88,18.92-14.95c10.58-4.12,19.92-4.23,20.54-5.8c-14.24,0.31-26.75,5.39-38.54,12.51
		c-1.02-0.92-0.31-2.14-1.02-3.25c0.8,6.39-1.8,1.82-1.53,24.71c0.16,13.29-3.85,12.72-2.44,21.56c4.53,28.33,2.48,25.65,0,26.65
		c-10.81,4.33-11.17,4.04-12.2,5.8c-2.07,3.5-32.42,5.4-36.92,7.12c-2.31,0.88-8.29,1.03-13.53,1.12c-3.66,0.06-3.46,0.42-3.05-2.85
		c1.64-12.98-1.45-14.96-3.36-24.41c-0.66-3.27-1.53-6.61-3.25-9.05c-1.03-3.4-2.82-23.43-7.53-34.27
		c-9.29-21.38-4.99-21.65-7.02-32.95c-0.74-4.15,0.76-3.56,1.22-7.32c1.31-10.69,6.95-23.67,2.85-23.09c0,2.04-2.57,9.46-2.75,9.97
		c-3.28,9.25-2.1,11.67-3.46,14.34c-2.51,4.93,0.88,12.81,0.31,21.36c0,0.94,0.07,1.05,1.42,2.95c-0.24,4.61,1.53,8.31,4.58,15.66
		c2.91,7.03,7.41,31.81,10.58,37.63c2.19,4.02,1,6.76,3.25,12.41c3.49,8.75-3.08,21.88,0.92,22.88c2.34-0.92,3.97-1.02,7.32-0.41
		c3.13,11.74,8.63,19.19,0,32.44c-0.29,0.39-2.44,3.47-2.44,3.97c-0.65,6.19-14.15,11.08-11.59,45.16
		c1.16,15.5-0.79,24.68,1.53,40.27c0.71,4.78,0.2,9.36-0.31,13.83c-1.53,1.32-3.76,0.31-5.09,2.03c-1.39,4.53-4.37,8.29-5.09,12.41
		c-1.51,8.69-5.37,8.56-9.56,18.2c-2.17,5,1.03,10.66,5.29,12.61c9.26,4.24,15.11,5.22,20.04,13.63c5.84,9.97,29.28,7.27,40.38,9.36
		c6.06,1.14,11.9-3.64,11.9-6c0-0.92,0.51-1.53,1.12-2.14c3.38,2.25,4.19-6.14-0.51-9.56c-4.49-3.27-3.54-2.7-14.85-8.75
		c-3.94-2.11-3.8-5.3-8.14-10.78c-6.15-7.79-5.45-16.72-10.58-23.8c-0.81-0.41-1.53,0.71-2.34,0.1c-2.61-17.22,5.25-41.56,8.64-53.8
		c0.03-0.1,14.22-41.45,14.03-42.21c-1.4-8.72,13.28-21.53,10.68-29.7c-1.55-3.87,1.8-5.17,3.97-13.83
		c0.92-3.66,0.61-7.42,1.02-11.29c1.42-0.71,1.73-2.44,2.95-3.36c17.14-7.7,14.46-4.85,14.03-11.8
		c-1.08-17.74-5.01-21.47-0.92-19.02c2.82,2.01,5.74,3.92,9.44,3.47c-2.32,3.82,4.62,2,6.73-1.64c4.74-8.15,6.14-5.05,11.19-8.54
		c5.29,0.92,9.93,2.74,14.14,5.59c2.57,1.74,2.06,1.8-5.9,9.15c-2.3,2.12-7.98,8.72-8.24,11.59c-0.4,4.4-4.31,10.16-3.15,17.09
		c0,4.56-14.28,22.05-21.15,31.12c-4.06-3.24-8.39,3.41-10.37,8.54c-16.35,6.54-3.33,8.67-18.81,13.83
		c-0.87,0.35-1.73,0.02-1.73,1.73c0.45,6.58,3.66,17.52,10.17,21.87c15.57,10.38,7.91,6.05,13.63,16.78
		c0.67,1.26,5.42,9.88,7.32,11.09c14.38,6.39,3.17,1.9,14.44,6.92c4.62,2.06,6.45,3.29,7.02,5.29c8.86,5.06,19.57-7.9,13.12-13.12
		c-1.95-1.58-1.99-3.35-4.17-7.53c-1.83-3.5,0.42-4.3-2.64-11.8c-2.81-6.89-3.49-18.48-3.76-25.93c-0.36-9.81-4.18-8.78-4.47-9.87
		c5.25-8.36,6.21-9.73,16.88-20.24c3.18-3.13,5.87-6.96,9.66-9.56c0.3-0.21,0.61-0.41,0.81-0.71c23.1-23.1,13.63-17.2,28.48-38.54
		c5.01-4.07,6.3-4.64,7.32-6.31c5.78-9.44,3.48-9.9,6.51-14.75c11.35-18.13-19.6-38.08-25.32-49.02
		C335.5,290.17,334.14,293.69,323.55,285.87z M272.31,43.27c-2.65-0.35,1.1-1.12,1.81-0.98c0,0.1,0.09,0.11,0.09,0.72
		C273.58,43.34,272.98,43.36,272.31,43.27z M279.21,13.71c-0.71,1.02-0.81,2.24-1.93,2.64C275.54,14.89,276.44,13.06,279.21,13.71z
		 M271.27,7.21c0.81,1.42,0.81,1.42-0.61,2.85C270.56,8.94,270.96,8.23,271.27,7.21z M268.89,21.42c0.13,0.01,0.85,0.66,0.19,0.79
		C268.57,22.32,268.3,21.36,268.89,21.42z M263.96,19.94c0.36-0.12,0.61,0.47,0.23,0.47C264,20.36,263.7,19.94,263.96,19.94z
		 M261.21,11.58c0.49-0.73,0.62,0.51-0.1,0.51C261.1,11.89,261.1,11.69,261.21,11.58z M260.6,15.14c1-1,1.11,0.61,0.1,0.61
		C260.5,15.56,260.4,15.34,260.6,15.14z M261.1,20.94c1.08,0.33,1.19-0.05,1.03,0.19C261.61,21.68,261.26,21.56,261.1,20.94
		C258.37,21.56,257.89,18.53,261.1,20.94z M257.85,17.18c0.51,0.71,0.2,1.02-0.51,1.22C256.73,17.58,257.44,17.48,257.85,17.18z
		 M254.7,19.41c1.21-0.89,1.26-0.36,1.42,0.13C256.09,19.48,255.87,19.58,254.7,19.41z M256.12,19.72c0-0.08,0.01-0.13,0-0.16
		c0.05,0.14,0.1,0.27,0.2,0.36C256.21,19.92,256.12,19.86,256.12,19.72z M256.63,11.28c-0.61,1.12-1.63,1.73-2.64,2.54
		C253.04,12.24,254.78,10.15,256.63,11.28z M248.17,9.59c0.84,0,0.04,0.91-0.39,0.26C247.92,9.66,248.05,9.59,248.17,9.59z
		 M234.76,47.48c-0.3-1.34,0.92-1.94,0.84-1.09C235.57,46.78,235.14,47.11,234.76,47.48z M241.17,32.03
		c-0.41-0.92-0.2-1.83,0.2-2.64C242.65,28.9,243.65,30.65,241.17,32.03z M239.64,12.4c-0.61,1.83-0.61,1.83-2.03,1.83
		C237.81,13.21,238.63,13.01,239.64,12.4z M240.86,19.41c1.07,1.07-3.5,5.2-3.44,4.33C237.53,22.26,237.68,21.98,240.86,19.41z
		 M237,19.21c-0.15,0.15-0.05,0.31-0.41,0.31C236.8,19.41,236.9,19.31,237,19.21z M236.29,32.84c0.12,0.25,0.21,0.84-0.15,0.48
		C235.94,33.16,236.21,33,236.29,32.84z M234.66,37.11c0.74-3.09,3.59-0.51,0.61,0.61C234.76,37.82,234.56,37.52,234.66,37.11z
		 M234.01,49.62c0.04-0.06,0.08-0.12,0.14-0.2C234.84,50.1,233.32,50.65,234.01,49.62z M221.24,34.87c-0.13-0.26-0.16-0.2,0.1-0.2
		L221.24,34.87z M222.46,44.94c-0.22-0.22,0.31-0.74,0.31-0.1C222.66,45.15,222.56,45.25,222.46,44.94z M227.61,37.21
		c-0.47-0.88-0.51-3.6,1.25-2.85C228.18,38.9,228.12,38.17,227.61,37.21z M229.07,53.18c-0.4-0.29-0.41-0.62,0-0.92
		C229.47,52.55,229.38,52.79,229.07,53.18z M231.6,48.22c-6.91-3.2,0.27-8.07,0.32,0.13C231.8,48.31,231.7,48.26,231.6,48.22z
		 M231.92,36.6c-0.62-0.62,0.04-1.18,0.8-1.63C233.37,35.58,234.46,35.58,231.92,36.6z M230.77,13.38c0.76,0.61,0.21,1.55-0.88,0.13
		C230.33,13.21,230.59,13.24,230.77,13.38z M226.22,20.64c0-1.49-0.79-1.4,1.73-2.03c0.51,0.71,1.02,1.42,1.42,1.93
		c1.32,0.41,2.24-1.22,3.25-0.1c0.33,2.96-2.27,1.09-3.98,1.17c-0.97,0.05-1.82,0.54-3.75,1.68C225,22.26,225,22.16,226.22,20.64z
		 M226.22,52.37c-1.78-1.19-3.44-3.72-0.71-5.09c1.42,0.28,2.32,1.95,1.93,2.34C226.52,50.33,226.63,51.45,226.22,52.37z
		 M276.89,204.64c0.12-0.08,0.21-0.15,0.28-0.23C277.17,204.62,277.02,204.69,276.89,204.64z M212.59,165.46
		c-0.61-0.51-0.41-1.02-0.1-1.53C213,164.44,213,164.95,212.59,165.46z M265.9,252.52c-0.12,0-14.29,2.04-34.28,0.51
		c-2.11-1.91-7.57-5.19-8.03-5.22c-0.48-0.03-0.68,0.2-0.51,0.03c-0.48-0.23-0.57-0.51-0.92-0.71c2.84,4.26,6.7,4.43,5.04,5.09
		c-5.48,2.17-18.62-1.02-23.95-3.97c-0.79-1.1-0.42-2.12-0.31-3.05c0.9-7.44-0.15-8.32,0.82-11.09c1.36-3.84-0.31-6.95-0.31-8.03
		c0.96-1.93,39.8-8.43,41.64-11.11c2.56-3.73-13.91,1.46-14.89,1.75c-45.65,13.47-50.98,6.77-66.61,2.14
		c-1.72-4.01-1.83-8.17-2.14-11.19c1.14-0.97,2.92,3.77,7.83,1.42c0.91-0.36,2.41-0.66,3.15-1.53c-0.1-0.81-0.71-0.51-1.02-0.41
		c-2.54,0.83-4.68,0-6.61-1.63c-2.55-2.55-2.58-1.17-3.32-2.38c-0.81-1.62,4.27-19.71,4.54-30.27c0.18-7.16,4.19-15.42,8.14-20.04
		c3.47-4.06,3.12-6.52,4.37-9.66c0.62,1.37,0.76,6.05,1.82,6.05c-1.94-15.21-2.28-8.61-1-14.5c5.94-27.2,12.93-24.19,26.34-35.29
		c4.51-3.73,5.41-2.52,6.41-1.53c4.89,5.86,5.18,6.14,5,6.81c-0.13,0.27-7.18-0.1-3.48,0.62c5.04,0.98,6.48,0.43,8.95,7.21
		c4.47,12.25,3.74,10.51,5.43,21.71c1.49,9.88-0.67,26.01-11.13,29.75c-2.03-2.03-2.32-2.52-3.36-5.9c4.19-4.49,3.78-4.24,7.93-9.66
		c0.46-0.6,0.54-1.06-0.1-1.63c-3.54,3.34-10.41,9.34-11.39,10.17c-6.38,30.94-7.8,27.62-14.24,35.49c-1.43,0.55-5.3,0.49-7.53-1.63
		c-0.8-0.76-1.47-1.92-2.79-1.74c1.35,2.03,1.54,2.32,1.56,2.35c0,0-0.01-0.01,0,0c0,0,0,0,0,0l0,0c-2.25,0-3.84-0.98-5.59-0.1
		c-0.67,2.01,14.72,3.89,15.87,3.97c7.78,0.54,6.83,3.04,13.83,3.66c10.6,0.95,9.26-0.4,23.9-1.63c3.69-0.31,7.29,1.88,16.58-9.46
		c1.29-1.57,1.08-2.56,2.03-4.47c4.4-6.6,8.37-3.68,15.36-9.97c1.23-0.98,1.45-2.31,1.95-0.26c0.4,1.63,0.18,2.89-0.83,5.76
		c-3.56,1.42-7.53,0.81-11.09,2.03c-0.09,0.74,0.32,1.06,0.92,0.92c36.05-5.03,23.08,0.23,29.9,3.15c0,3.59,0.44-0.11-22.88,6.61
		c-1.21,0.35-1.97,1.65-1.3,1.59c3.99-0.37,13.45-3.75,20.93-4.43c2.33,3.24-2.8,3.56-6.71,5.9c-6.76,4.03-10.8,3.94-13.73,5.7
		c0.18,0.89,0.59,1.21,1.42,0.92c10.6-2.92,8.61-2.73,13.53-5.19c0.89,0,2.23,0.59,2.07,1.26c-0.34,1.5-2.29,1.94-3.5,2.91
		c-12.97,9.16-10.5,5.38-12,7.32c-9.3,12.05-22.17,3.06-20.95,7.32c0.32,0.32,10.49,3.54,16.68-1.53c8.89-7.27,6.5-4.95,13.42-8.75
		c0.53,0,0.04,3.43-0.1,4.17C269.69,244.67,281.09,249.84,265.9,252.52z M217.37,105.05c-0.3,0-0.36-0.23-0.25-0.18
		C217.2,104.89,217.28,104.96,217.37,105.05z M198.56,193.48c-0.44-0.21-0.3-0.07,0.14-0.5
		C198.88,192.81,199.11,193.74,198.56,193.48z M226.32,541.55c2,2.92,3.28,10.02,2.95,10.23c-1.68,1.1-14.44,3.84-13.54,6.85
		c12.17-0.72,15.83-5.58,15.26-2.14c-3.95,2.64-7.73,2.68-10.27,6.11c3.56,1.12,4.68,0.92,11.9-2.75c2.57,2.57-4.71,3.49-6.61,8.24
		c4.39,1.02,6.73-2.15,9.55-4.07c7.5,9.26,3.67,6.21,8.14,10.07c3.98,3.44,2.02,0.09-1.13,4.17c1.06,0,2.26,0.39,3.05-0.41
		c0.45-0.45,0.18-1.72,0.33-1.72c0,0.78,13.44,4.32,15.33,10.37c-3.76,9.23-1.45,7.63-7.63,10.27c-2.1,0.9-36.2-0.95-40.38-4.47
		c-1.1-0.93-2.24-1.83-3.36-2.75c-3.62-12.16-19.97-9.98-26.24-20.95c1.52-6.36,4.09-9.27,7.63-14.03
		c3.36-4.52,1.97-6.48,6.31-15.15c0.48-0.96,1.93-3.58,1.93-4.88c1.12-0.31,2.03-1.02,3.36-0.2c-3.62,2.18-1.33,10.4-0.31,14.44
		c1.01,4,3.78,5.72,8.34,4.58C220.85,547.69,217.17,545.44,226.32,541.55z M203.95,542.67c9.24,5.03,13,1.79,10.68,4.88
		c-2.83,3.3-3.71,4.24-5.37,4.26c-5.14,0.05-3.91-3.61-5.61-7.31C203.35,543.86,203.55,543.27,203.95,542.67z M256.73,410.55
		c0.99,5.16-2.08,9.24-3.15,13.54c-8.55,12.21-32.08,92.34-31.22,105.66c0.87,13.47,1.54,10.1-4.27,13.73
		c-2.88-0.34-13.15-2.24-12.61-5.49c0.69-7.18-0.64-10.77,0.66-13.1c2.01-3.62,0.65-5.19-1.37-8.56
		c-0.36-29.48-0.21-34.98-1.02-40.78c-0.53-3.8,0.6-11.52,0.31-14.75c-0.91-9.82,20.81-33.92,18.51-48.82
		c-1.46-9.45-4.86-14.82-3.94-16.42c1.36-2.37,2.2,4.2,4.04,5.85c0.57-2.26-0.71-4.06-0.31-6.1c1.43-1.43,6.18-0.09,9.25-1.63
		c0.51-0.2,1.22-0.1,1.83-0.1c15.77-1.01,25.59-4.83,27.56-4.27C261.84,390.63,257.89,407.06,256.73,410.55z M302.19,347.81
		c-8.1,1.6-7.17,8.21-12.86,9.29c-1.09,0.2,2.96-13.37,4.49-13.2c3.35,0.56,6.33,2.21,9.59,2.9
		C303.31,347.61,302.7,347.71,302.19,347.81z M279.82,432.83c5.55,6.38,8.91,9.39,15.36,11.19c-3.62,2.72-3.09,2.58-5.78,2.58
		c-7.37,0-8.88-1.63-11.21-6.96C278.29,437.51,278.9,435.38,279.82,432.83z M303,444.02c1.83,3.15,0.31,6.31,0.61,9.46
		c-2.34,1.12-4.47,1.42-6.31,2.03c-11.28,2.26-3.77,3.96,2.24,2.44c1.25-0.32,3.46-0.96,3.76-1.02c3.68,5.25-7.05,3.14-9.97,5.8
		c-0.08,0.83,0.21,1.21,0.92,1.53c4.53,2.01,11.78-2.3,9.87,1.53c-1.85,0.96-10.55,2.66-7.73,5.3c2.29,2.14,6.67-0.82,8.64-0.82
		c0.9,0.45,0.97,1.95,0.2,2.34c-1.83,0.61-3.48,1.6-4.88,2.95c-0.62,0.6-0.71,0.81-0.92,2.64c2.55,3.01,7.03-2.36,7.38-2.14
		c1.11,0.68,4.34,11.75,5.63,15.26c2.37,6.43,3.13,4.25,4.17,8.75c-1.44,3.6-5.95,7.52-9.46,5.19
		c-14.53-8.56-24.95-9.48-27.76-18.41c-1.28-4.05-4.24-8.61-6-14.24c-5.96-4.17-17.73-8.81-19.43-25.33
		c1.47-1.87,1.38,0.88,6.2-2.14c6.36-3.33,2.85-7.37,9.46-10.68c7.36-2.79,5.32-6.89,8.13-8.29c1.02-0.51-0.75,6.84-1.11,8.9
		c-0.86,0.69-3,1.54-0.81,6c2.2,4.49,3.37,5.09,5.59,6.81C296.45,449.88,290.58,448.99,303,444.02z M369.28,333.02
		c2.11,4.33,3.5,4.84,3.3,8.28c-0.22,3.58-7.77,22.25-10.48,23.8c-8.58,5.82-20.75,29.69-30.1,38.24
		c-6.38,5.83-33.58,30.04-31.32,37.93c-1.02,0.92-2.03,1.22-3.15,1.22c-3.8-1.9-8.55-4.85-11.29-8.14c0.79-1.38,2.46-2.55,2.85-4.37
		c-3.31,1.1-3.28,6.14-8.27-1.33c-0.55-0.82,0.43-3.21,0.43-4.57c5.59-2.79,25.35-28.16,25.02-33.56
		c-1.03-17.03,8.05-24.21,19.12-36.1c2.43,1.34,3.13,2.64,6.71,3.36c-2.64-2.54-5.09-4.37-7.63-5.59c-0.92,0.2-0.1,1.04-0.92,1.22
		c-1.4,0.31-0.37-2.7-6.31-5.29c-11.84-5.17-4.67-0.5-22.07-6.31c-0.66-0.99,4.79-16.42,9.36-22.58c4.06-5.48,3.5-3.5,7.32-2.03
		c1.49,0.68,3.96,1.82,3.9,0.75c0-0.4-0.16-0.49-5.39-4.34c-0.38-0.28-1.38,1.51,12.17-13.39c1.47-1.62,3.81-1.53,14.03-3.86
		c6.1,2.1,5.87,4.12,13.32,12.31C370.03,330.8,362.57,319.27,369.28,333.02z"/>
	<path d="M260.09,129.96c0.05,0.02,0.09,0.03,0.14,0.05C260.73,129.72,260.62,129.43,260.09,129.96z"/>
	<polygon points="186.99,191.48 186.99,191.48 186.99,191.48 	"/>
	<path d="M294.26,327.27l-0.1,0.1C294.33,327.33,294.29,327.41,294.26,327.27z"/>
	<path d="M289.17,285.77l0.1,0.1C289.37,285.73,289.33,285.8,289.17,285.77z"/>
	<path d="M562.95,274.28l-0.1-0.1C562.85,274.3,562.86,274.28,562.95,274.28z"/>
	<path d="M623.18,335.86C625.46,335.79,625.48,335.65,623.18,335.86L623.18,335.86z"/>
	<path d="M614.11,418.15c0,0,0-0.01,0-0.01c-0.03,0-0.07,0.01-0.13,0.01C613.98,418.17,614.05,418.16,614.11,418.15z"/>
	<path d="M710.93,324.52c-10.77-9.29-5.02-11.72-48.51-33.46c0.25-7.71-6.48-14.71-4.17-17.8c-1.22-3.46-4.78-10.78-6.1-12.51
		c-3.05-0.76,1.62,6.94,2.75,9.46c-0.94,8.48,5.7,19.43,5.09,19.43c-19.38-9.18-15.25-10.8-22.17-9.46
		c-16.39-10.92-3.36,0.61,1.12,2.85c0.71-0.2,2.23-2.65,8.03,2.34c2.39,2.06,3.98,2.6,16.68,8.95c3.53,2.12-1.82,0.46-10.17,6.2
		c-6.14,4.23-13.42,13.54-15.36,25.63c-1.23,7.65,2.33,8.74,2.44,16.88c0.19,14.1,1.29,11.16,0.61,15.05
		c-0.48,2.75-0.92,5.49-0.71,8.24c-0.86,0.86-1.28,2.07-2.34,2.81c-0.05-2.7,0.61,1.34-31.12-23.66c-0.72-0.43-7.84-8.43-7.84-9.28
		c2.73-0.59,8.67,1.78,17.81,0.43c2.84-0.42,4.9-0.65,6.22-0.77c-3.52,0.1-12.39,0.02-26.46-1.78c-4.64-3.09,1.95-2.31-3.66-5.59
		c-13.82-8.09-11.49-5.4-19.22-17.59c-6.21-9.8-4.26-14.18-5.8-15.15c-0.62-0.39-1.32,0.31-1.93-0.71
		c-4.49-13.86-1.54-20.75-4.37-20.75c-3.81,17.8,5.07,25.63,5.9,28.88c2.35,9.19,8.58,14.66,9.36,16.98
		c1.42,4.28,11.52,7.95,12.1,8.24c1.63,3.15,4.34,5.11,6.41,7.53c9.12,10.68,5.6,4.32,6.51,11.9c1.92,15.93,4.31,22.84,4.98,26.04
		c5.05,24.05-2.37,20.05,4.27,21.26c0.92,0.1,0.92-1.53,2.24-0.92c4.67,19.02,7.12,14.64,1.42,23.19c-2.85-1.02-5.9-0.81-10.98,0.61
		c-0.81,0.51-0.51,1.53-1.32,2.34c-6.64,4.27-6.53,12.16-9.46,13.73c-13.38,7.17-14.12,24.32,6.1,36.71
		c2.54,3.15,3.05,6.92,2.75,10.68c0.41,1.83,1.63,2.95,2.24,4.17c-7.18,29.52-1.91,19.11-8.64,42.21c-1.08,3.71,0.21,3.36-3.15,3.36
		c-4.39,0.29-5.37,2.76-5.9,7.22c-0.86,7.28-3.36,5.97-3.36,8.95c0,1.95,2.63,1.16-1.53,6.31c-4.18,5.17-3.46,4.34-3.46,7.02
		c-4.58,2.39-1.13,7.91,1.73,12.2c2.41-0.48,0.33-1.01,3.76,1.22c5.48,3.56,16.64,9.51,22.27,6.2c0.56-0.56,6.15,6.37,6.51,6.92
		c4.12,6.24,7.01,6.34,28.78,8.85c3.97,0.46,14.02-0.14,16.48-4.78c1.52-2.53,4.03-2.91,2.64-7.93c-3.23-11.74-8.82-6.39-18-13.73
		c-5.7-4.56-2.97-3.18-6.51-7.42c-14.18-14.18-8.59-12.04-11.9-20.14c-2.33-5.7-5.32-2.98-6.51-5.59
		c3.66-10.88,8.75-21.46,12.92-32.54c11.51,2.66,14.62,3.08,16.37,0.31c1.21-2.42,5.51,4.91,7.02-14.03
		c0.19-2.37-0.74-3.66-5.7-8.75c-4.59-4.72-3.61-5.6-6.92-11.7c-3.12-5.76-5.92-11.16-4.37-16.58c1.29-4.53,3.06-15.33,0.71-19.32
		c-0.81-0.92-1.93-0.41-2.44-1.32c1.42-2.54,3.86-4.47,4.37-7.42c0-0.4,4.29-4.69,6.61-6.71c0.68,0.88,1.38,7.08,2.44,7.53
		c5.25-10.49,0.57-8.85,0.81-10.58c2.34-2.54,6.61-5.59,9.97-6.92c0.81,2.64,1.65,5.19,1.53,8.03c-0.14,3.27-1.51,9.91-3.25,12.81
		c-5.24,7.3-4.79,11.56-5.8,12.31c-1.28,0.95-1.41,0.86-3.76,14.03c-4.41,24.62,1.86,4.4,4.17-10.48
		c0.94-0.94,9.71-20.13,9.76-20.24c3.76-8.02,0.31-10.34-0.81-18.2c5.34-3.9,18.3-15.72,26.24-26.04
		c8.68-11.28,22.72-19.13,25.02-31.43C713.52,343.03,717.96,330.58,710.93,324.52z M612.69,390.52c-2.16-1-1.36-10.97-4.02-18.73
		c-1.04-3.04-1.9-3.15-1.9-3.81c-0.54-7.54-2.73-14.88-3.13-22.91c36.11,31.4,35.29,22.96,33.97,25.63
		C629.53,387.08,643.22,372.95,612.69,390.52z M616.25,391.75c4.63-4.21,10.47-6.71,16.27-9.25c-1.02,5.46-5.94,16.23-11.84,23.53
		C619.69,407.01,616.88,395.18,616.25,391.75z M593.77,538.09c1.98,0,1.17,3.42,13.83,4.47c-0.4,6.7-0.09,9.34-10.88,6.2
		C595.45,547.13,591.85,540.49,593.77,538.09z M638.11,569.62c3,1.5,0.43,2.08-0.97,2.63C637.15,571.32,637.25,570.05,638.11,569.62
		z M623.06,554.87c-3.25,2.34-7.22,3.46-9.97,6.51c3.66,0.61,9.22-0.76,13.93-4.78c4.27,1.39-4.28,4.62-7.73,7.82
		c-3.55,2.96,0.09,3.82,4.68,1.53c6.96-3.48,6.51-6.81,8.44-2.95c-2.11,2.11-2.17,2.33-2,2.26c-0.27,0.2-0.87,0.65-2.07,1.61
		c-7.38,5.87-1.05,5.64,2.95,2.44c3.2-2.57,3.29-4.21,4.88-1.42c-1.07,2.14-4.97,3.61-4.09,5.75c0.33,0.67,1.82,0.46,2.77,0.05
		c1.43-0.62,2.08-1.49,2.2-0.6c0,0.02,0.03,0.21,0.05,0.21c2.64,1.97,4.07-0.18,4.96-0.72c5.01,5.01,11.15,2.19,13.42,8.44
		c0,0-1.12,2.99-1.12,4.07c0,3.62,0.7,5.58-4.47,6.81c-7.69,1.84-10.73,0.06-24.61-1.22c-3.36-0.31-6.2-1.32-8.95-3.76
		c-1.12-3.97-4.65-6.04-7.63-8.54c-4.17-3.5-4.72-0.89-5.7-0.61c-4.38,0-22.11-6.33-24.02-12.68c-1.27-4.2,0.17-3.93,1.04-4.51
		c1.58-4.51,3.92-4.7,7.22-11.29c3.27-6.55,1.19-9.6,3.05-14.95c0.81-0.97,2.22-1.58,2.08-0.68c-0.14,0.89-2.55,2.35-0.66,9.53
		c2.62,10,5.61,9.36,14.54,9.36c2.77-1.11,3.08-3.09,5.29-10.27c1.99-0.85,1.82-0.55,1.87-0.88c0.09-0.56-0.73-0.73-0.65-1.46
		c0.47-0.47,0.64-1.02,1.22-1.02C620.92,540.56,620.3,535.56,623.06,554.87z M615.53,535.14c-0.13,0.55-0.24,0.93-0.41,1.42
		c-2.25,0.4-4.16,1.22-5.23,3.25c-0.12,0.23-7.51-0.53-11.76-3.45c2.84-6.46,1.85-11.8-0.71-2.95c-0.52,1.79-0.74,1.88-1.73,1.22
		c0.6-6.64,7.06-6.1,10.48-42.01c0.24-2.51,0.82-4.29,0.96-4.02c5.69,6.38,13.1,10.13,20.3,13.98
		C627.83,505.36,617.88,520.84,615.53,535.14z M635.26,435.38c1.91,1.91-0.77,12.57-1.43,15.16c-5.51,1.43-17.83,1.01-15,3.18
		c2.1,1.61,10.21,0.86,12.66,0.48c2.47-0.39,1.96,0.83,0.92,1.02c-4.67,0.86-13.82,1.92-12.2,4.81c1.67,2.98,13.69-1.09,13.96-0.81
		c3.48,2.65-1.78,5.28-6.23,6.07c-5.74,1.01-5.22,4.09-2.03,4.37c6.6,0.59,9.88-3.12,10.83-3.05c0.1,0,0.14,0.38,0.86,1.83
		c-1.28,2.19-9.32,2.22-7.51,5.36c0.98,1.69,5.06,0.29,6.79-0.88c4.68-3.17-0.78-1.83,12.74,13.93c1.46,1.7,0.95,1.31,1.5,2.14
		c-0.2,4.27-1.22,8.64-2.85,12.41c-4.17,3.34-16.53-0.13-17.49-0.71c-21.89-11.19-20-11.71-26.04-18.81
		c2.05-12.81-11.81-20.39-15.79-24.36c-3.36-3.35-2.98-12.31-1.49-16.12c7.43-5.31,9.93-6.23,10.78-10.68
		c1.07-5.63,3.75-7.21,7.93-11.39c5.52-0.87,7.3-1.11,7.81-1.16c0-0.01,0.03-0.03,0.13-0.06c0,0.02,0,0.03,0,0.05
		c0.07,0,0.05,0,0,0.01c0.44,3.87-4.83-1.9-8.75,8.18c0.28,0.56,0.88,1.56,1.12,1.93c-1.12,2.79-0.5,11.32,9.11,11.39
		c1.03,0.01-1.34,2.95,1.67,2.44c2.77-0.69,4.26-2.94,5.8-4.98C626.99,436.06,633.89,435.38,635.26,435.38z M619.06,435.83
		c-1.55,3.56-2.48,2.04-4.11,1.64c-0.11-0.03-5.83-0.97-5.83-4.15c-0.66-1.7-1.7-6.43-0.41-7.72
		C616.7,435.36,620.64,432.21,619.06,435.83z M612.08,422.36c0.31,0.71,0.61,1.53,1.02,2.34
		C612.13,425.66,610.18,422.36,612.08,422.36z M707.8,351.21c3.51,4.18-15.95,20.25-19.24,23.15c-1.02,0.31-1.22-1.22-2.34-0.71
		c-0.82,2.1,3.06,0.99-1.41,6c-29.32,32.87-44.3,34.11-51.16,50.24c-1.43,3.37,0.15,2.42-11.9,3.46c-2.02-3.13-8.12-6.02-7.58-6.57
		c3.43-4.13,6.5-9.8,3.54-7.3c-2.97,2.5,2.36-6.1,3.22-6.78c1.03-1.03-1.27,0.08,3.46-6.51c4.46-6.22,16.07-26.43,14.14-32.24
		c6.44-8.83,12.7-20.8,34.68-22.37c0.24-0.61,0.14-1.22-0.51-1.22c-1.45-0.13-14.86-0.96-16.27-0.61c1.14,0.66,2.55,0.69,3.36,1.63
		c-5.64,2.25-4.21-0.78-16.68-2.95c-0.8-2.38-0.41-4.75-0.51-7.12c2.84,0,4.85,3.44,16.27,1.42c-5.21-0.99-11.08-1.36-16.48-4.37
		c-0.3-1.78-5.19-9.86,1.93-24.1c3.75-7.51,11.35-12.12,18.92-15.76c4.85-2.33,5.49-1.46,7.32-0.41
		c19.04,12.26,18.83,6.83,32.65,22.27c4.03,4.5,8.23,6.5,8.95,10.98C709.21,355.63,706.61,349.79,707.8,351.21z M643.4,350.76
		c0.79,0.07,10.57,1.65,10.68,2.14c0.32,1.41-4.17,1.92-8.95,7.42c-1.8,2.07-3.31,4.75-2.75,1.53c0.12-1.11,1.08-7.96,1.22-8.54
		C643.79,352.5,642.89,351.72,643.4,350.76z"/>
	<path d="M268.12,128.44l-0.1-0.1C267.98,128.51,267.91,128.52,268.12,128.44z"/>
	<path d="M229.98,85.93c-0.09-0.03-0.1-0.1-0.1,0.1L229.98,85.93z"/>
	<path d="M666.18,185.19l0.1,0.1C666.24,185.1,666.34,185.19,666.18,185.19z"/>
	<path d="M741.24,123.15c-2.93-7.03,3.24-9.5-2.95-13.63c-0.37-3.12,2.19-4.63-1.12-8.54c-2.7-1.35-2.36-1.21-2.75-1.02
		c-2.11,3.01-2.44,15.99-2.44-0.61c-1.79-2.23-3.62-2.81-6.2,3.15c-7.26,16.77-10.71,15.08-18.51,20.75
		c-0.79-1.58,1.8-0.55,2.95-9.05c0.51-3.79-2.79-8.07-5.29-8.54c-2.53,1.56-0.98,2.33-2.85,14.14c-5.64,8.47-5.12,4.74-4.07,27.97
		c-1.93,4.27-9.05,15.05-12.1,18.51c-14.01,4.15-11.63,2.44-14.44,8.85c-1.04,2.38-7.8,12.89-4.17,9.25
		c3.15-3.66,6.1-7.63,7.63-12.41c4.98-1.83,10.37-2.34,14.75-5.49c-0.76-2.67,3.03-3.14,8.64-13.53c3.69-6.82,1.22-7.04,1.22-9.05
		c0-14.37-1.12-16.46,1.63-19.73c2.54-3.02,3.53-11.78,3.36-14.44c0-1.76,1.73-2.49,3.86,3.05c-0.74,7.42-4.84,9.41-3.36,13.63
		c0.74,1.48,1.39-0.41,1.83-0.41c0.81,0.2,0.81,1.53,1.83,1.42c0.51-0.92-0.51-1.83,0-2.64c1.46-2.92,6.83-3.38,10.48-8.03
		c0.16-0.24,0.46-0.29,0.72-0.42c0.69,1.82,0.77,1.87,2.13,2.45c0-3.6-3.64-1.25-1.12-4.37c2.58-3.19,5.68-9.78,6.51-12
		c3.38-7.44,4.11,2.67-0.31,10.48c-2.21,3.91-5.59,9.18-0.41,8.24c3.18-4.16,2.84-8.18,6-12.51c1.33-1.82,0.71-4.47,2.64-6.1
		c1.63,2.95,1.63,4.78-0.1,7.53c-0.88,1.4-4.07,9.03-3.76,9.97c0.98,3.94,2.11-4.17,5.29-9.36c1.53,0.31,2.24,1.12,2.54,2.54
		c-0.51,1.83-0.61,3.76-1.63,5.49c-0.11,0.06-5.35,0.96-3.46,2.64c6.09-2.28,2.98,1.71,3.97,4.88c1.06,3.43-1.28,5.43-5.49,11.59
		c-2.01,2.58-0.88,3.48-10.88,13.32c-2.82,2.77-1.89,1-8.64,4.37c-7.08,10.12-18.3,37.81-27.36,45.26
		c-14.69,12.08-21.57,14.89-7.93,10.17c30.06-18.78,30.7-55.98,42.21-56.24c4.96-0.11,11.16-8.31,13.02-13.02
		c2.1-5.32,5.34-6.71,7.53-12.31C740.63,127.32,740.32,125.08,741.24,123.15z M725.69,119.44c-0.64,0.37-0.2-0.98,0.58-1.05
		C726.18,118.85,726.08,119.21,725.69,119.44z M727.02,116.73c-0.02,0-0.03,0.01-0.05,0.02c0.05-0.15,0.09-0.31,0.14-0.49
		C727.61,114.47,728.09,116.25,727.02,116.73z M727.99,115.19c-0.2,0.05-0.16,0.02,0.15-0.63
		C728.3,114.16,728.45,115.08,727.99,115.19z"/>
	<path d="M267.82,128.34c0.05-0.21,0.05-0.13-0.1-0.1L267.82,128.34z"/>
	<path d="M264.15,95.39c0-2.85,0-5.49,0-8.34c0.71-0.41,1.32-1.02,1.93-1.02c2.08,0,4.54-1.79,5.09-4.37
		c1.71-8.08,3.7-7.88,3.97-13.02c0.86-16.64,3.77-8.66,1.12-20.85c-0.59-2.69-2.14-0.18-0.81,6.2c-1.97,3.64-1.93,8.16-1.93,12.61
		c0,4.58-1.63,5.9-3.76,14.54c-1.76,7.14-14.63,1.03-16.98,1.42c-0.1,1.12,0.61,1.51,1.22,1.53c2.85,0.05,5.09,1.93,8.03,2.44
		c-0.2,2.14,0.15,4.08,0.51,6.1c0.36,2.04-0.92,4.17-0.31,6.31c4.23,0,11.44,21.52,5.8,28.37c-0.76,0.76,0.63,2.03,2.24-2.24
		c7.2-19.11-4.38-23.92-4.68-26.34c1.73,0.51,2.85,1.93,4.68,3.25c0.6,3.01,17.94,30.92,18.1,40.48
		c0.36,20.99-0.73,17.61-8.03,34.27c-0.31,0.71-0.31,1.32,0.71,1.63c1.88-0.47,2.41-4.01,3.76-5.9c5.93-8.3,8.66-20.78,4.78-31.73
		c2.85-8.54,5.18-26.03-2.24-30c-7.61-4.08-10.42-5.55-13.02-8.14C270.51,98.81,264.42,96,264.15,95.39z M286.73,112.87
		c5.31,3.4,2.16,27.86,1.02,23.29C283.84,110.25,260.26,95.92,286.73,112.87z"/>
	<path d="M250.93,361.95c3.45-2,6.72-9.66,8.03-13.42c3.89-11.14,7.78-13.95,12.41-22.17c4.43-7.86,8.73-19.54,5.39-18.2
		c0.36,7.88-14.78,28.08-20.14,40.78C250.14,364.3,246.65,361.95,250.93,361.95z"/>
	<path d="M619.7,270.92l-0.1-0.1C619.56,270.92,619.42,270.97,619.7,270.92z"/>
	<path d="M586.75,258.62l-0.1,0.1C586.7,258.77,586.7,258.75,586.75,258.62z"/>
	<path d="M619.52,270.93c-7.5,0.54-20.28-2.5-32.83-12.18c-2.16,4.31,18,11.53,24.27,12.68c-3.08,0.51-3.22,0.12-17.09-0.51
		c1.7,1.27,21.56,1.55,23.7,1.63C617.86,271.68,619.05,271.63,619.52,270.93z"/>
	<path d="M623.37,43.11c1.87-3.73,3-1.02,3.86-3.05c-0.1-0.3-0.38-1.35-1.12-2.34c-7.78-1.85-6.12,0.09-7.32-0.51
		c-2.24-0.81-3.97,0.2-5.59,1.42c-0.61,0.41-1.63,0.51-1.63,1.53c1.29,0.64,2.51-1.05,4.47-1.63c1.73,1.53,4.17,0.61,6.81,1.63
		c-1.42,0.71-2.55-0.01-3.46,0.51c-3.14,1.77-6.12,0.3-5.7,2.64C616.96,43.42,620.11,43.92,623.37,43.11z"/>
	<path d="M249.41,44.64c-0.61,0-1.02,0.61-0.92,1.42c13.8,0.89,8.67-1.26,11.29-2.34c0.72-0.3,1.73,0.2,2.34-0.61
		c-0.55-5.49-8.25-2.78-9.36-3.66c-2.34-0.1-4.78,1.22-6.2,3.25c1.83,0.51,2.64-1.42,4.37-1.53c4.63,1.54,5.05,0.32,6.61,2.24
		C254.29,42.81,251.95,44.43,249.41,44.64z"/>
	<path d="M294.36,270.31c-1.71,5.14-13.18,18.61-15.05,29.09c-0.56,3.14-0.46,7.01,1.22,1.02
		C284.7,285.56,297.98,272.9,294.36,270.31z"/>
	<path d="M576.28,297.37c14.41-7.42,32.65-10.75,32.65-13.53c-1.9,0-34.53,10.52-35.17,14.45
		C574.71,298.41,575.5,297.77,576.28,297.37z"/>
	<path d="M573.73,298.38c0-0.03,0.01-0.06,0.02-0.09C573.58,298.25,573.63,298.28,573.73,298.38z"/>
	<path d="M214.22,265.13c-0.89,15.44-1.36,16.46,0.71,15.76C220.68,263.64,215.15,263.26,214.22,265.13z"/>
	<path d="M311.45,286.08c-6.41,2.64-13.22,5.18-18.41,10.17c-0.52,0.5-1.42,0.81-1.42,1.73c1.06,1.06,0.24-0.15,6.81-3.36
		C308.38,289.77,315.87,287.34,311.45,286.08z"/>
	<path d="M246.97,80.13c0-1.81-7.98-6.13-10.88-8.03c-2.94-8.83-2.41-8.03-3.25-8.03c-0.92,3.05,0.51,5.59,1.12,8.03
		c0.67,0.83,4.96,3.56,4.07,3.56c0,0.02,0.01,0.04,0.01,0.06c0.17-0.08,0,0.17,0,0c-2.95,1.56,2.01,11.31,2.84,12.24
		c-0.33-8-6.37-14.79,0.31-10.68C246.16,80.35,246.56,80.94,246.97,80.13z"/>
	<path d="M611.97,77.59c0.19-1.54-6.8-5.52-10.88-8.03c-0.81-2.85-2.14-5.29-2.54-8.03c-0.1-0.31-0.31-0.41-0.61-0.31
		c-1.12,2.85,0.41,5.49,1.12,8.64C611.31,78.14,611.03,78.38,611.97,77.59z"/>
	<path d="M220.93,263.91c-6.55-0.73-3.35,0.57,5.59,1.53c1.12,2.44,0.31,5.29,1.73,8.24c0.81-3.05,0.1-5.49,0.1-8.54
		c22.49,1.67,20.42-0.81,0.81-0.81C226.42,264.31,223.68,264.41,220.93,263.91z"/>
	<path d="M642.28,263.8c-0.31,4.47,1.48,8.66,2.85,12.92c0.1,0.31,0.51,0.41,0.81,0.51c1.38-1.38-1.34-12.35-1.63-13.63
		C644.32,263.21,643.22,262.3,642.28,263.8z"/>
	<path d="M272.6,340.69c-0.39,0.52-4.35,13.52-5.59,24.1C267,374.66,272.68,341.4,272.6,340.69z"/>
	<path d="M255.2,286.08c-1.3-5.74,0.43-15.06-4.17-18.2c-2.59,1.04,0.29,1.9,0.81,4.68c0.7,3.75,2.24,7.32,2.34,11.19
		C254.29,284.65,254.39,285.47,255.2,286.08z"/>
	<path d="M255.51,309.16c4.14-2.67,13.69-12.01,8.75-12.51C264.26,300.68,254.74,307.1,255.51,309.16z"/>
	<path d="M636.28,275.19c-0.2-1.63-1.73-2.85-2.03-4.47c-1-8.03-0.84-3.41-3.15-5.39c-0.41-0.41-0.81,0.1-1.12,0.71
		c0.82,3.47,2.77,4.3,4.37,10.07C635.06,275.81,635.67,275.5,636.28,275.19z"/>
	<path d="M632.01,65.28c-8.71,0.99-8.7,0.27-9.46,1.22c-1.78,2.97,8.04,0.38,13.42,0C635.64,64.82,636.7,64.75,632.01,65.28z"/>
	<path d="M261.41,74.74c1.12,0.92,2.44,1,3.66,0.61c1.32-0.42,2.95,0.1,3.97-1.42c-0.19-1.74-2.13-2.16-3.86-2.34
		C263.04,71.37,262.12,72.2,261.41,74.74z"/>
	<path d="M732.49,132.41c1.32-0.61,0.92-2.24,2.14-3.15c0.51-0.1,1.12,0.61,1.93-0.1c0-1.96-0.38-7.84-2.54-7.22
		c-0.92,1.53,0.71,3.15,0,5.09C732,128.53,731.15,132.21,732.49,132.41z"/>
	<path d="M608.11,321.47c-13.42-1.53-11.29-1.53-20.44-4.47C592.35,320.86,602.92,322.99,608.11,321.47z"/>
	<path d="M257.65,69.05c-1.99,2.49,6.51,0.57,12.81,0.1c0.97-0.49,0.34-1.82-1.02-1.63C256.18,69.36,258.31,68.38,257.65,69.05z"/>
	<path d="M631.3,72.71c1.02-0.2,2.44,0,2.85-1.73C630.42,65.51,620.3,74,631.3,72.71z"/>
	<path d="M614.52,113.08c0.78,0.26,2.03,0.42,2.03-0.41C612.46,110,587.59,102.45,614.52,113.08z"/>
	<path d="M609.74,290.04c-0.88,0.44-12.54,8.24-13.02,9.66C596.82,299.6,612.42,291.65,609.74,290.04z"/>
	<path d="M520.24,208.89c-2.56,2.56-0.59,11.49,0.92,11.49c0-3.56-0.71-7.22-0.1-10.98C521.05,209.09,520.65,208.89,520.24,208.89z"
		/>
	<path d="M541.6,162.1c-1.7-4.24-2.44,4.91-1.63,10.27C541.59,169.01,542.54,163.98,541.6,162.1z"/>
	<path d="M264.97,145.93c-0.65,1.74,1.35,4.01,0.81,7.02c-0.54,3.05,0.1,5.9,0.61,8.95C267.41,154.07,267,149.49,264.97,145.93z"/>
	<path d="M522.88,238.18c-2.93-13.93-2.25-12.71-3.15-12.81C519.07,231.3,524.11,247.95,522.88,238.18z"/>
	<path d="M607.3,277.74c-1.23-0.2-17.09-0.81-17.19-0.81C573.67,278.98,605.34,277.87,607.3,277.74z"/>
	<path d="M602.62,73.72c-2.06,0.52,1.86,9.5,3.05,11.39C605.67,82.27,604.14,76.57,602.62,73.72z"/>
	<path d="M541.09,323.71c1.22-0.97,0.42-3.23,1.02-4.47c1.53-3.16-0.81-4.5-0.2-8.75c-1.19,0.9-0.51,5.74-0.51,7.22
		C540.53,319.43,539.05,323.96,541.09,323.71z"/>
	<path d="M240.56,90.71c-0.53,2.12-0.91,0.86,2.34,9.56C244.39,104.25,244.78,97.61,240.56,90.71z"/>
	<path d="M571.5,151.93c-2.95,1.93-5.59,3.56-8.24,5.19C566.32,157.12,574.09,153.66,571.5,151.93z"/>
	<path d="M266.39,61.21c1.28,0,4.06,0.43,3.25-1.73c-1.42-0.81-5.38-0.55-6.1,1.63C264.46,62.95,265.3,61.34,266.39,61.21z"/>
	<path d="M538.65,138.41c-0.81,3.36-0.31,6.61,0.92,10.17C539.56,136.92,539.87,138.41,538.65,138.41z"/>
	<path d="M608.11,97.52c0.71-0.81,0.81-1.32,0.61-1.73c-0.41-2.03-2.03-5.7-3.15-7.42C604.45,89.11,605.76,91.64,608.11,97.52z"/>
	<path d="M631.2,58.67c1.22-0.33,3.05,1.02,3.76-1.22c-0.2-0.51-0.51-0.92-1.22-1.02c-2.67,0.59-4.37,0.19-4.98,1.63
		c-0.31,0.61-0.1,1.12,0.61,1.42C630.18,59.69,630.48,58.86,631.2,58.67z"/>
	<path d="M628.45,113.39c1.95-0.68,8.05-3.7,7.73-5.29C625.88,112.88,627.72,113.75,628.45,113.39z"/>
	<path d="M562.85,118.17c-0.2-0.41-0.31-0.71-0.51-1.22C557.5,119.48,557.14,126.99,562.85,118.17z"/>
	<path d="M256.73,88.57c-1.22,1.83-3.66,1.83-5.49,3.46C256.11,92.22,258.6,89.98,256.73,88.57z"/>
	<path d="M227.95,176.24c-1.42-1.12-2.24-2.95-4.47-2.85C222.63,175.42,225.99,177.22,227.95,176.24z"/>
	<path d="M267.82,279.36c0.99,1.84,4.56,7.92,4.76,7.92C271.71,281.47,265.62,276.07,267.82,279.36z"/>
	<path d="M272.6,287.4l0.1-0.1C272.5,287.3,272.6,287.24,272.6,287.4z"/>
	<path d="M622.15,85.93c-1.63,1.53-3.66,2.14-5.59,3.25C620.14,89.83,623.56,88.05,622.15,85.93z"/>
	<path d="M569.98,259.39c-2.08,1.33,0.91,7.05,3.65,8.58C573.76,266.58,570.07,264.14,569.98,259.39z"/>
	<path d="M570.07,259.33l-0.1-0.1C569.97,259.44,569.99,259.39,570.07,259.33z"/>
	<path d="M204.15,277.13c0-0.41-0.2-0.71-0.31-1.32C203.05,277.78,204.15,298.14,204.15,277.13z"/>
	<path d="M619.09,269.4c-1.75-2.19-5.57-4.62-7.07-4.84C613.14,265.7,617.47,269.4,619.09,269.4z"/>
	<path d="M730.05,126.91c-2.99-4.18-3.32,0.98,0.2,2.75C731.17,128.54,730.56,127.73,730.05,126.91z"/>
	<path d="M648.59,265.74c0.7,2.04,1.53,3.97,2.24,6C651.17,266.09,647.71,263.18,648.59,265.74z"/>
	<path d="M566.01,102.91c1.53,1.32,3.15,1.12,5.29,0.51C569.06,102.2,568.75,102.2,566.01,102.91z"/>
	<path d="M199.98,253.63c0,1.12-0.31,2.14,1.02,2.75C203.03,256.38,202.48,251.5,199.98,253.63z"/>
	<path d="M535.6,314.96c0,2.65-1.63,8.34-0.1,8.34c0.72-0.72,0.83,0.56,0-3.15C536.41,317.4,536.41,317.4,535.6,314.96z"/>
	<path d="M676.96,204.72c-2.75-0.09-5.03,0.91-6.52,1.03C671.93,205.92,674.4,206.92,676.96,204.72z"/>
	<path d="M217.78,168.51c-0.6-0.6-3.38,1.82,3.36,2.75C219.91,170.24,218.9,169.32,217.78,168.51z"/>
	<path d="M723.95,136.78c1.27,0,0.5-0.47-2.44-5.29C720.63,133.49,722.83,136.53,723.95,136.78z"/>
	<path d="M712.66,143.39c1.93,0.1,3.05-1.32,4.27-2.54C717.37,140.55,717.32,137.95,712.66,143.39z"/>
	<path d="M266.8,275.81l0.1-0.1C266.77,275.49,266.8,275.57,266.8,275.81z"/>
	<path d="M266.09,267.36c0.65,8.08-0.16,7.15,0.71,8.21C266.8,267.38,266.87,267.63,266.09,267.36z"/>
	<path d="M704.42,151.93c-1.27-1.69-2.68,1.86-3.05,3.97C702.69,154.78,704.02,153.56,704.42,151.93z"/>
	<path d="M655.81,203.39c-1.29,0.43-0.88,2.54,2.44,1.83C657.23,203.9,657.23,203.9,655.81,203.39z"/>
	<path d="M274.12,261.77c0.92,1.53,1.93,3.15,2.85,4.78C276.89,265.14,275.19,260.17,274.12,261.77z"/>
	<path d="M623.16,263.6c1.32,1.12,1.42,1.12,5.7,0.51C623.04,263.19,623.34,263.25,623.16,263.6z"/>
	<path d="M230.9,178.27c2.01,1.83,4.75,0.76,1.32-0.71C231.61,177.36,231.1,177.56,230.9,178.27z"/>
	<path d="M647.27,427.54c-0.92,1.73,0.81,2.75,1.12,4.17C648.38,428.97,648.38,428.97,647.27,427.54z"/>
	<path d="M700.56,157.63c0,1.12-1.12,1.93-1.42,3.56C702.33,158.9,701.78,157.14,700.56,157.63z"/>
	<path d="M640.25,283.33c2.74,2.13,2.19,1.43,3.56,2.34C643.2,284.45,642.69,283.03,640.25,283.33z"/>
	<path d="M705.13,148.07c-0.41,1.53,0.2,2.44,1.22,3.25C706.25,150.2,706.35,148.98,705.13,148.07z"/>
	<path d="M266.09,167.9c-1.32,1.42-1.32,1.42-1.73,3.56C265.78,170.54,266.39,169.53,266.09,167.9z"/>
	<path d="M272.19,267.77c-0.41-2.85-0.41-2.85-1.53-4.07C270.26,265.43,271.17,266.45,272.19,267.77z"/>
	<path d="M243.92,101.59c-0.31,1.53,0.1,2.85,1.22,4.68C245.54,104.13,244.83,102.81,243.92,101.59z"/>
	<path d="M203.95,253.74c-0.71,0.95-0.32,4.73,0.61,1.93C204.75,254.71,204.89,253.55,203.95,253.74z"/>
	<path d="M578.01,271.53c-0.1,0.1-0.05,0.09-0.19,0.05C577.95,271.82,578.04,271.65,578.01,271.53z"/>
	<path d="M577.81,271.58c-0.8-1.43-1.89-2.41-3.47-2.8C575.03,270.25,576.19,271.24,577.81,271.58z"/>
	<path d="M210.66,254.85c-0.61,1.73,0,2.75,0.41,3.97C211.57,257.5,211.57,256.38,210.66,254.85z"/>
	<path d="M257.95,126c0.51,1.22,0.92,2.64,1.73,3.76C260,128.02,259.11,125.13,257.95,126z"/>
	<path d="M258.97,113.9c-2.24,1.02-2.24,1.02-2.85,2.64C257.95,115.42,257.95,115.52,258.97,113.9z"/>
	<path d="M661.5,190.48c1.02-0.26,3.39-1.95,2.34-2.64C662.93,188.44,662.22,189.16,661.5,190.48z"/>
	<path d="M211.17,182.04c2.59,3.66,2.79,0.23,0.81-0.51C211.57,181.53,211.27,181.63,211.17,182.04z"/>
	<path d="M222.25,187.43c1.02,0.81,1.73,1.42,2.85,0.92C223.98,187.12,223.98,187.12,222.25,187.43z"/>
	<path d="M206.69,257.19c0.71-0.61,0.51-1.53,1.02-2.24c0.1-0.1-0.1-0.41-0.2-0.81C206.29,254.96,206.39,256.07,206.69,257.19z"/>
	<path d="M204.25,286.69c-0.2,1.42,0,2.95,0.41,4.37C204.76,289.64,205.17,288.11,204.25,286.69z"/>
	<path d="M240.25,257.8c0.1,1.63,0.2,2.54,0.2,3.56C241.27,259.23,241.27,259.23,240.25,257.8z"/>
	<path d="M540.89,206.95c0.41-0.81,0.51-1.63,0-2.75C540.17,206.34,540.17,206.34,540.89,206.95z"/>
	<path d="M275.44,293.3c0,1.12,0.51,2.03,1.42,3.56C276.66,295.03,276.56,293.91,275.44,293.3z"/>
	<path d="M620.82,268.89c0.69,1.28,1.2,2.18,2.44,2.04c0.24,0.97,0.96-0.15,0.1-0.02C623.05,269.7,622.04,269.5,620.82,268.89z"/>
	<path d="M590.21,259.13c0.92-0.1,1.63,0.31,2.24-0.1c-0.1-0.51-0.51-0.81-0.92-1.02C591.63,258.62,590.82,258.62,590.21,259.13z"/>
	<path d="M586.75,258.52c-1.22-0.51-2.34-0.41-4.37-0.2C584.41,258.41,585.53,258.41,586.75,258.52z"/>
	<path d="M589.91,255.46c2,4.5,2.04,1.45,1.32,0.2C590.82,255.06,590.41,254.75,589.91,255.46z"/>
	<path d="M540.07,176.04c-0.2,0-0.41,0-0.71-0.1C538.47,179.51,540.8,177.21,540.07,176.04z"/>
	<path d="M232.83,93.45c0.2-1.42,0.2-1.42-0.81-1.53C231.81,92.74,232.22,93.15,232.83,93.45z"/>
	<path d="M598.14,91.52c0.1-1.32,0.2-2.03-1.02-2.44C596.72,90.2,597.43,90.61,598.14,91.52z"/>
	<path d="M617.87,94.17c0,1.23,1.35-0.02,1.12-0.71C618.38,93.35,618.18,93.86,617.87,94.17z"/>
	<path d="M590.92,270.82c1.02,0,2.03,0,3.05,0C592.96,270.31,591.94,270.31,590.92,270.82z"/>
	<path d="M236.8,179.29c0.31,1.12,1.02,1.02,1.83,0.61C238.32,178.98,237.81,178.48,236.8,179.29z"/>
	<path d="M585.53,255.87c0.51-1.27-0.81-1.78-0.81-0.81C584.82,255.46,585.02,255.87,585.53,255.87z"/>
	<path d="M200.69,268.79c0.92-1.32,0.92-1.32,1.02-2.85C200.79,266.86,200.39,267.67,200.69,268.79z"/>
	<path d="M205.37,294.82c0-0.61,0-1.12,0-1.83C205.07,293.7,205.07,294.11,205.37,294.82z"/>
	<path d="M612.69,320.86c-0.61,0-1.12,0-1.73,0C611.57,321.16,611.97,321.16,612.69,320.86z"/>
	<path d="M216.15,263.5c-0.48-0.32-1.53-0.99-1.53-0.41C214.63,263.72,215.83,263.5,216.15,263.5z"/>
	<path d="M578.82,277.03c0.41,0,0.71,0,1.12,0C578.65,277.03,578.82,276.81,578.82,277.03z"/>
	<path d="M230.29,299.6c-0.38-0.74-0.75-1.39-1.36-1.81C229.13,298.6,229.45,299.23,230.29,299.6z"/>
	<path d="M228.86,297.57l-0.1,0.1C228.96,297.77,228.95,297.93,228.86,297.57z"/>
	<path d="M522.07,224.24c0,0.92,0,0.92,0.81,1.32C522.88,224.95,522.58,224.55,522.07,224.24z"/>
	<path d="M579.33,271.64c-0.43,0-0.85,0-1.28,0c0.33,1,1.16,1.3,2.02,1.41C580.22,272.43,579.33,272.22,579.33,271.64z"/>
	<path d="M287.85,288.21c-0.03-0.18,0.02-0.22-0.1-0.1L287.85,288.21z"/>
	<path d="M289.07,285.87c-0.67,0.58-1.33,1.16-1.24,2.17C288.52,287.45,289.17,286.85,289.07,285.87z"/>
	<path d="M579.45,271.48c0.28-0.11,0.64-0.26,1-0.36c-0.51-0.51-1.12-0.92-1.83-0.92C578.8,270.68,579.49,270.97,579.45,271.48z"/>
	<path d="M579.33,271.53l0.1,0.1C579.52,271.4,579.42,271.5,579.33,271.53z"/>
	<path d="M697.3,165.87c0.51-0.41,0.71-0.92,0.81-1.53C697.51,165.15,697.51,165.15,697.3,165.87z"/>
	<path d="M208.73,194.14c0.77,0.77,2.78,0.93,0.51-0.2C209.03,193.83,208.83,193.83,208.73,194.14z"/>
	<path d="M717.44,121.73c-0.2-0.2-0.41-0.51-0.61-0.71c-0.31,0.2-0.41,0.41-0.1,0.51C716.93,121.63,716.93,122.24,717.44,121.73z"/>
	<path d="M555.23,160.27c-0.92,0.2-1.53,0.2-1.42,1.02C554.51,161.49,554.92,161.29,555.23,160.27z"/>
	<path d="M258.97,113.9v0.1C258.99,113.91,259.04,113.9,258.97,113.9z"/>
	<path d="M261.1,112.47c-0.99,0-1.77,0.39-2.1,1.42C260.01,113.88,260.71,113.38,261.1,112.47z"/>
	<path d="M708.39,151.83c0.1,0.81,0.61,1.12,1.42,0.92C709.61,152.03,709.1,151.73,708.39,151.83z"/>
	<path d="M648.89,258.62c-0.41,0.2-0.2,0.51-0.1,0.81C649.1,259.13,648.99,258.92,648.89,258.62z"/>
	<path d="M588.18,269.91C587.77,269.8,587.57,269.8,588.18,269.91L588.18,269.91z"/>
	<path d="M577.7,145.53c-0.25,0.25-0.21,0.51,0.41,0.51C578.63,145.69,578.83,144.4,577.7,145.53z"/>
	<path d="M599.26,95.49c0.2-0.41,0.41-0.81-0.1-1.02C598.86,94.88,598.96,95.18,599.26,95.49z"/>
	<path d="M595.19,259.74c0.31,0,0.51,0,0.81,0C595.78,259.51,595.61,259.74,595.19,259.74z"/>
	<path d="M645.33,262.38c0.92,0.61,1.32,0.2,1.73-0.2C646.55,262.38,646.04,262.38,645.33,262.38z"/>
	<path d="M726.8,123.86c0-0.65-0.28-0.66-0.81-0.31C726.37,124.34,726.65,124.31,726.8,123.86z"/>
	<path d="M646.2,467.55c-0.59,0.56-0.56,1.24-0.48,1.95C646.61,469.08,646.47,467.29,646.2,467.55z"/>
	<path d="M645.64,469.55l0.1,0.1C645.7,469.44,645.76,469.51,645.64,469.55z"/>
	<path d="M259.78,265.23c0.51-0.2,1.02-0.31,1.53-0.31C260.6,264.41,260.19,264.82,259.78,265.23z"/>
	<path d="M258.15,265.33c0.61,0.51,1.02,0,1.53-0.2C259.27,265.23,258.76,265.33,258.15,265.33z"/>
	<path d="M206.08,298.18c0-0.2,0-0.41,0-0.61C205.98,297.77,205.78,297.98,206.08,298.18z"/>
	<path d="M321.41,296.65c0.71,0,1.22,0,1.73,0C322.63,296.45,322.23,296.15,321.41,296.65z"/>
	<path d="M585.13,275.3l0.1-0.1C584.94,275.15,585.07,275.17,585.13,275.3z"/>
	<path d="M582.99,274.58c0.56,0.56,1.3,0.52,2.05,0.59C584.53,274.41,583.76,274.58,582.99,274.58z"/>
	<path d="M629.16,274.58c0.13,0.5,0.58,0.97,1.02,0.1C630.43,273.95,629.16,273.52,629.16,274.58z"/>
	<path d="M266.9,275.91c0.1,0.68-0.17,1.55,0.62,2.06c0,0,0.01,0.05-0.01,0.17l0.1-0.1c-0.08-0.04-0.09-0.07-0.09-0.07l0,0
		C267.59,277.22,267.47,276.48,266.9,275.91z"/>
	<path d="M541.6,201.36c0.41-0.41,0.51-0.71,0.1-1.12C541.19,200.65,541.29,200.95,541.6,201.36z"/>
	<path d="M525.02,228.72c0.41-0.41,0.41-0.71,0-1.12C524.61,227.9,524.71,228.31,525.02,228.72z"/>
	<path d="M617.16,320.35c-0.78-0.39-0.74-0.1-1.12-0.1C616.25,320.25,616.55,320.35,617.16,320.35z"/>
	<path d="M212.59,320.45c-0.31,0.31-0.2,0.61-0.1,0.92C212.8,321.06,212.69,320.76,212.59,320.45z"/>
	<path d="M208.93,309.06c-0.24,0-0.07,0.56,0,0.71C209.13,309.57,209.24,309.27,208.93,309.06z"/>
	<path d="M273.31,252.92c0.1,0.41,0.1,1.02,0.1,1.83C274.02,253.84,274.02,253.33,273.31,252.92z"/>
	<path d="M575.57,252.72c-0.51,0.31-0.31,0.71-0.1,1.12C575.97,253.53,575.87,253.13,575.57,252.72z"/>
	<path d="M665.78,185.19c-0.71,0.41-0.71,0.41-0.81,1.42C665.47,186.21,665.88,185.9,665.78,185.19z"/>
	<path d="M588.07,276.42l0.1-0.1C587.77,276.31,587.8,276.28,588.07,276.42z"/>
	<path d="M273.21,289.03c0.12,0.02,0.15,0.08,0.1-0.1L273.21,289.03z"/>
	<path d="M273.33,289.06c0.08,0.48,0.14,1.01,0.79,1.19C274.03,289.77,274.01,289.2,273.33,289.06z"/>
	<path d="M273.22,288.78c0.06-0.56-0.06-1.11-0.62-1.38C272.6,287.98,272.61,288.56,273.22,288.78z"/>
	<path d="M273.21,288.92l0.1-0.1C273.15,288.77,273.24,288.74,273.21,288.92z"/>
	<path d="M586.04,275.4c-0.41,0-0.71-0.1-1.02-0.1C585.43,275.4,585.53,275.91,586.04,275.4z"/>
	<path d="M274.73,291.65c0-0.57-0.05-1.11-0.71-1.3C274.12,290.84,274.04,291.5,274.73,291.65z"/>
	<path d="M274.73,291.77l0.1-0.1C274.72,291.67,274.73,291.58,274.73,291.77z"/>
	<path d="M293.65,326.25c-0.41-0.51-1.02-0.51-1.53-0.61C292.53,326.15,293.04,326.35,293.65,326.25z"/>
	<path d="M285.84,322.17c0.26,0.39,0.76,0.43,1.2,0.52C286.61,322.52,286.24,322.34,285.84,322.17z"/>
	<path d="M285.61,322.08c0.08,0.03,0.15,0.06,0.22,0.09C285.68,321.94,285.74,321.95,285.61,322.08z"/>
	<path d="M284.49,321.49c0.41,0.16,0.81,0.33,1.22,0.49C285.33,321.66,284.93,321.53,284.49,321.49z"/>
	<path d="M284.09,321.47c0.14,0,0.27,0.01,0.41,0.02C284.12,321.34,284.22,321.34,284.09,321.47z"/>
	<path d="M211.98,318.32c-0.17-0.35-0.32,0.31-0.1,0.31C211.88,318.52,211.98,318.42,211.98,318.32z"/>
	<path d="M210.35,314.05c-0.17-0.34-0.35,0.31,0,0.31C210.46,314.25,210.46,314.15,210.35,314.05z"/>
	<path d="M209.54,311.81c0,0.1,0.1,0.93,0.1-0.1L209.54,311.81z"/>
	<path d="M238.02,309.16c0.08,0,0.14,0.01,0.21,0.02C238.08,309.04,238.14,309.04,238.02,309.16z"/>
	<path d="M238.23,309.18c0.33,0.37,0.85,0.4,1.31,0.49C239.1,309.41,238.73,309.22,238.23,309.18z"/>
	<path d="M235.07,307.03c0.45,0.26,0.89,0.45,1.41,0.42C236.1,307.11,235.63,306.94,235.07,307.03z"/>
	<path d="M236.59,307.54l0.1-0.1C236.41,307.47,236.44,307.39,236.59,307.54z"/>
	<path d="M208.12,306.72c0.13,0.53,0.07,0.49,0.2,0.1L208.12,306.72z"/>
	<path d="M234.66,305.54c0,0.51,0.24,0.95,0.51,1.38C235.17,306.47,235,306,234.66,305.54z"/>
	<path d="M207.51,303.77l-0.1,0.31C207.54,304.08,207.51,304.14,207.51,303.77z"/>
	<path d="M232.44,302.68c0.05,0.51,0.23,0.94,0.59,1.29C232.94,303.61,232.83,303.08,232.44,302.68z"/>
	<path d="M232.15,302.4c0.03,0.02,0.08,0.07,0.29,0.28C232.4,302.3,232.51,302.53,232.15,302.4z"/>
	<path d="M206.69,301.03v0.2C206.82,300.97,206.83,301.03,206.69,301.03z"/>
	<path d="M230.8,301.23l0.1-0.1C230.74,301,230.8,300.9,230.8,301.23z"/>
	<path d="M230.19,299.71c0.09,0.46,0.2,0.92,0.6,1.3C230.76,300.5,230.63,300.06,230.19,299.71z"/>
	<path d="M572.3,298.9c0.54,0.02,1.06,0.11,1.33-0.62C573.06,298.19,572.68,298.45,572.3,298.9z"/>
	<path d="M275.44,293.16c0-0.56-0.05-1.1-0.71-1.38C274.82,292.35,274.84,292.92,275.44,293.16z"/>
	<path d="M275.55,293.2c-0.12-0.03-0.1-0.11-0.1,0.1L275.55,293.2z"/>
	<path d="M276.97,266.55c0.16,0.08,0.1,0.11,0.1-0.1L276.97,266.55z"/>
	<path d="M277.08,266.61c0.02,0.54,0.14,1,0.6,1.36C277.59,267.5,277.66,266.93,277.08,266.61z"/>
	<path d="M218.39,187.12c0.1,0,0.2,0.1,0.31,0.1C219.02,186.9,218.39,186.78,218.39,187.12z"/>
	<path d="M266.19,267.36c-0.1-0.31-0.2-0.51-0.2-0.92C265.68,266.96,265.99,267.16,266.19,267.36z"/>
	<path d="M558.48,122.44c-0.31,0.31-0.81,0.61-0.1,1.12C558.38,123.15,558.48,122.74,558.48,122.44z"/>
	<path d="M263.34,263.91c-0.1,0-0.43,0.08-0.2,0.31C263.57,264.21,263.34,264.01,263.34,263.91z"/>
	<path d="M582.18,136.17c-0.57,0.38-0.68,0.84-0.62,1.4C582.36,137.43,582.28,136.76,582.18,136.17z"/>
	<path d="M647.06,262.28c0.2-0.1,0.51-0.2,0.81-0.31C647.37,261.67,647.27,261.97,647.06,262.28z"/>
	<path d="M571.9,254.14c0,0.1,0,0.31-0.1,0.51C571.9,254.45,571.9,254.35,571.9,254.14z"/>
	<path d="M581.36,138.51c0.5-0.75,0.19-0.83,0.19-0.94C580.97,137.77,580.86,138.11,581.36,138.51z"/>
	<path d="M617.47,259.33c0-0.51-0.76-0.91-0.2,0.2C617.26,259.43,617.47,259.33,617.47,259.33z"/>
	<path d="M570.99,259.13c-0.51-0.61-0.71-0.31-0.92,0.2C570.28,259.43,570.68,259.33,570.99,259.13z"/>
	<path d="M576.68,149.69c0,0.51,0,0.81,0,1.12C576.68,150.41,577.19,150.2,576.68,149.69z"/>
	<path d="M600.89,256.18c0.18,0.27,0.46,0.46,0.81,0.34c0,0.5-0.08,1,0.92,1.7c-0.5-0.89-0.12-1.49-0.87-1.71
		C601.85,256.45,601.78,255.47,600.89,256.18z"/>
	<path d="M582.96,274.46c-0.15-0.76-0.81-0.59-1.39-0.59C581.85,274.44,582.4,274.39,582.96,274.46z"/>
	<path d="M582.99,274.58l0.1-0.1C582.91,274.44,582.96,274.46,582.99,274.58z"/>
	<path d="M581.57,273.87l0.1-0.1C581.51,273.77,581.53,273.71,581.57,273.87z"/>
	<path d="M580.04,273.16c0.38,0.48,0.85,0.59,1.49,0.6C581.3,272.98,580.72,273.06,580.04,273.16c0.01,0,0.03-0.03,0.1-0.1
		c-0.02,0-0.05-0.01-0.07-0.01C580.05,273.12,580.04,273.16,580.04,273.16C580.04,273.16,580.04,273.16,580.04,273.16z"/>
	<path d="M625.91,272.96c0.3-0.3,0.2-0.1,0-0.51C624.71,272.45,625.8,272.9,625.91,272.96z"/>
	<path d="M581.97,272.04c0.2,0,0.41,0,0.71,0C582.38,271.94,582.18,271.53,581.97,272.04z"/>
	<path d="M229.37,85.83c0.2,0.2,0.31,0.51,0.31,0.92C229.98,86.13,229.68,86.03,229.37,85.83z"/>
	<path d="M639.94,267.87c-0.1-0.2-0.2-0.51-0.31-0.92C639.13,267.57,639.43,267.77,639.94,267.87z"/>
	<path d="M265.78,109.32c0.51,0.31,0.81,0.1,1.02-0.41C266.49,109.01,266.09,108.71,265.78,109.32z"/>
	<path d="M521.05,220.48c0.1,0.2,0.2,0.51,0.31,0.92C521.56,220.89,521.26,220.68,521.05,220.48z"/>
	<path d="M226.52,108.71c0.43,0,0.2-0.2,0.2-0.31C226.12,108.4,226.11,108.57,226.52,108.71z"/>
	<path d="M639.84,267.97c0.2,0.2,0.2,0.51,0.31,0.81C640.35,268.38,640.04,268.18,639.84,267.97z"/>
	<path d="M645.54,470.67c0.1-0.41,0.1-0.81,0.1-1.12C645.13,469.85,644.82,470.16,645.54,470.67z"/>
	<path d="M234.05,97.73c0.41-0.2,0.31-0.51,0.1-0.81C233.75,97.12,233.85,97.42,234.05,97.73z"/>
	<path d="M223.68,338.45l0.1-0.1C223.56,338.41,223.51,338.28,223.68,338.45z"/>
	<path d="M223.58,338.36c-0.19-0.17-0.44-0.35-0.61-0.52C223.05,338.18,223.27,338.36,223.58,338.36z"/>
	<path d="M222.25,337.13c0.2,0.2,0.51,0.51,0.71,0.71C223.12,337.69,222.69,337.35,222.25,337.13z"/>
	<path d="M222.36,337.03c-0.96-0.96-2.27-1.96-0.81-0.51C221.69,336.37,221.65,336.8,222.36,337.03z"/>
	<path d="M218.59,333.47l-0.1-0.1C218.62,333.62,218.59,333.62,218.59,333.47z"/>
	<path d="M220.02,335c0.31,0.31,0.51,0.51,0.81,0.81C220.93,335.71,221.14,335.74,220.02,335z"/>
	<path d="M219.41,334.39c0.39,0.39,1.18,0.98,0.1-0.1C219.39,334.17,217.63,332.61,219.41,334.39z"/>
	<path d="M229.37,344.45h0.2C229.45,344.33,229.5,344.33,229.37,344.45z"/>
	<path d="M229.47,344.35c-0.2-0.2-0.51-0.51-0.71-0.71C228.66,343.74,228.47,343.68,229.47,344.35z"/>
	<path d="M228.2,343.08c0.18,0.18,0.4,0.4,0.56,0.56C228.61,343.41,228.45,343.17,228.2,343.08z"/>
	<path d="M227.47,342.35c0.26,0.26,0.59,0.59,0.7,0.7c-0.02-0.02-0.06-0.06-0.12-0.12C227.89,342.61,227.72,342.42,227.47,342.35z"
		/>
	<path d="M228.17,343.04C228.22,343.09,228.21,343.09,228.17,343.04L228.17,343.04z"/>
	<path d="M227.34,342.22l-0.1,0.1C227.5,342.32,227.55,342.43,227.34,342.22z"/>
	<path d="M226.67,341.61c0.11,0.34,0.31,0.52,0.67,0.61C227.25,341.85,227.06,341.59,226.67,341.61z"/>
	<path d="M226.63,341.5l-0.1,0.1C226.72,341.57,226.67,341.68,226.63,341.5z"/>
	<path d="M225.94,340.91c0-0.04-0.02-0.08-0.02-0.12C225.78,340.93,225.79,340.88,225.94,340.91z"/>
	<path d="M225.94,340.91c0.06,0.32,0.33,0.5,0.69,0.59C226.54,341.14,226.28,340.96,225.94,340.91z"/>
	<path d="M272.7,340.79l0.1-0.2C272.54,340.72,272.57,340.66,272.7,340.79z"/>
	<path d="M225.91,340.69c-0.18-0.26-0.37-0.46-0.68-0.56C225.3,340.43,225.57,340.6,225.91,340.69z"/>
	<path d="M225.1,340.08c0.05,0.01,0.09,0.03,0.13,0.05C225.19,339.93,225.22,339.96,225.1,340.08z"/>
	<path d="M224.53,339.48c0.09,0.26,0.35,0.42,0.67,0.5C224.95,339.82,224.76,339.64,224.53,339.48z"/>
	<path d="M224.49,339.27l-0.1,0.1C224.63,339.56,224.49,339.49,224.49,339.27z"/>
	<path d="M223.78,338.45l-0.1,0.1C223.89,338.77,223.78,338.66,223.78,338.45z"/>
	<path d="M224.49,339.27c-0.25-0.17-0.49-0.4-0.68-0.59C223.86,339.04,224.06,339.27,224.49,339.27z"/>
	<path d="M266.9,108.91l0.1-0.2C266.75,108.96,266.77,108.91,266.9,108.91z"/>
	<path d="M261.21,112.57c0-0.1,0.1-0.2,0.2-0.2C261.78,112.37,261.21,111.84,261.21,112.57z"/>
	<path d="M555.73,129.05c0.1-0.1,0.2-0.2,0.2-0.31C555.84,128.85,555.73,128.85,555.73,129.05z"/>
	<path d="M555.63,128.95c0,0.1-0.1,0.2-0.1,0.31C555.53,129.25,555.63,129.15,555.63,128.95z"/>
	<path d="M582.48,136.07c-0.38,0.13-0.34,0.07-0.2,0.2L582.48,136.07z"/>
	<path d="M712.56,143.29c-0.2,0.31-0.41,0.51-0.61,0.81C712.78,143.27,712.69,143.42,712.56,143.29z"/>
	<path d="M710.02,152.95c-0.1,0-0.2-0.1-0.31-0.1C709.81,153.05,709.91,153.15,710.02,152.95z"/>
	<path d="M559.29,159.25C559.6,158.85,559.09,159.36,559.29,159.25L559.29,159.25z"/>
	<path d="M698.42,164.14c-0.38,0.26-0.34,0.2-0.2,0.2L698.42,164.14z"/>
	<path d="M670.66,213.46c0,0,0.2,0,0.2-0.2C670.76,213.36,670.66,213.46,670.66,213.46z"/>
	<path d="M595.19,84.3c-0.02,0-0.04-0.01-0.04-0.01C595.2,84.46,595.19,84.41,595.19,84.3z"/>
	<path d="M594.38,83.79c0.29,0.19,0.41,0.48,0.77,0.5C595.02,83.94,594.75,83.7,594.38,83.79z"/>
	<path d="M595.3,84.5v-0.2C595.17,84.43,595.17,84.38,595.3,84.5z"/>
	<path d="M253.27,96.61c0.31,0,0.71,0,0.31-0.51C253.48,96,253.17,96.3,253.27,96.61z"/>
	<path d="M252.97,97.12c0.1,0.1,0.31-0.2,0.2-0.51C252.97,96.71,252.36,96.61,252.97,97.12z"/>
	<path d="M289.89,294.01c-0.27,0-0.54,0.18-0.59,0.59C289.62,294.56,289.79,294.38,289.89,294.01z"/>
	<path d="M289.3,294.6c-0.12,0.03-0.13-0.01-0.13,0.14C289.29,294.74,289.27,294.7,289.3,294.6z"/>
	<path d="M289.16,294.74c-0.4,0.05-0.59,0.31-0.69,0.66c-0.77,0.07-6.66,7.08-5.91,8.27c0.51,0,0.82-0.3,1.12-0.71
		c3.91-5.35,5.05-7.34,4.84-7.54C288.94,295.4,289.12,295.15,289.16,294.74z"/>
	<path d="M228.76,297.47c-0.1-0.1-0.2-0.2-0.31-0.2C228.56,297.37,228.66,297.47,228.76,297.47z"/>
	<path d="M572.11,298.79c0,0.52,0.05,0.16,0.1,0.2c0.08-0.11,0.16-0.09,0-0.09L572.11,298.79z"/>
	<path d="M596.62,299.6c-0.27,0.18-0.52,0.38-0.51,0.76C596.46,300.19,596.71,300.07,596.62,299.6z"/>
	<path d="M596.01,300.42c-0.13,0.13-0.15,0.13,0.03,0.03C596.15,300.56,596.16,300.34,596.01,300.42z"/>
	<path d="M230.8,301.23c0.16,0.05,0.33,0.14,0.5,0.23C231.16,301.36,231.01,301.28,230.8,301.23z"/>
	<path d="M231.61,301.84l0.1-0.1C230.99,301.28,231.38,301.45,231.61,301.84z"/>
	<path d="M232.15,302.4c-0.21-0.18-0.4-0.4-0.64-0.56C231.66,302.07,231.87,302.3,232.15,302.4z"/>
	<path d="M593.87,301.84c0.15-0.15,0.15-0.13-0.1,0C593.62,301.99,593.62,301.97,593.87,301.84z"/>
	<path d="M591.63,303.26c0.13-0.13,0.13-0.1,0-0.1C591.55,303.4,591.45,303.64,591.63,303.26z"/>
	<path d="M232.93,304.08c0.2,0.07,0.41,0.22,0.6,0.35C233.39,304.26,233.21,304.15,232.93,304.08z"/>
	<path d="M233.54,304.43C233.53,304.42,233.53,304.42,233.54,304.43L233.54,304.43z"/>
	<path d="M233.54,304.43c0.02,0.02,0.09,0.09,0.21,0.26l0.1-0.1C233.67,304.53,233.56,304.45,233.54,304.43z"/>
	<path d="M234.4,305.36c-0.21-0.19-0.41-0.41-0.65-0.57C233.83,305.03,234.05,305.28,234.4,305.36z"/>
	<path d="M234.57,305.39c-0.12,0-0.31-0.09-0.01,0.11l0.04-0.04c0.08,0.12,0.06,0.1,0.06-0.06
		C234.66,305.26,234.68,305.28,234.57,305.39z"/>
	<path d="M237.09,308.14c-0.17-0.17-0.36-0.36-0.5-0.5C236.66,307.85,236.85,308.02,237.09,308.14z"/>
	<path d="M237.46,308.41c-0.11-0.26,0.05-0.09-0.37-0.27C237.31,308.35,237.27,308.33,237.46,308.41z"/>
	<path d="M238.12,309.06c-0.09-0.26-0.34-0.52-0.66-0.65C237.57,308.74,237.76,308.97,238.12,309.06z"/>
	<path d="M255.41,309.06C255.31,309.27,255.51,309.06,255.41,309.06L255.41,309.06z"/>
	<path d="M239.44,309.77C239.85,310.08,239.44,309.57,239.44,309.77L239.44,309.77z"/>
	<path d="M252.46,311.2c0.33-0.22,0.53-0.43,0.92-0.81C253.21,310.38,253.07,310.28,252.46,311.2z"/>
	<path d="M542.11,310.28c0,0-0.1,0.1-0.1,0.31C542.11,310.49,542.11,310.28,542.11,310.28z"/>
	<path d="M252.36,311.3c0.12-0.12,0.1-0.08,0.1-0.2L252.36,311.3z"/>
	<path d="M294.26,327.06c0-0.38-0.26-0.58-0.63-0.68C293.53,326.79,293.8,326.97,294.26,327.06z"/>
	<path d="M293.65,326.25l-0.1,0.1C293.7,326.4,293.59,326.4,293.65,326.25z"/>
	<path d="M611.67,264.31l0.1,0.2c0.38,0.1,0.23,0.02,0.1-0.1l-0.02,0.02C611.88,264.4,611.84,264.4,611.67,264.31z"/>
	<path d="M575.06,266.45l-0.1-0.1C575.08,266.6,575.06,266.59,575.06,266.45z"/>
	<path d="M575.87,267.16c-0.2-0.2-0.51-0.51-0.71-0.71C574.98,266.62,575.61,267.07,575.87,267.16z"/>
	<path d="M575.77,267.26c0.2,0.2,0.51,0.51,0.71,0.71C576.58,267.87,576.78,267.93,575.77,267.26z"/>
	<path d="M277.58,268.08c0.2,0.1,0.31,0.1,0.31,0.1S277.78,268.08,277.58,268.08z"/>
	<path d="M574.35,268.69c0.1-0.51-0.2-0.81-0.71-0.71C573.63,268.48,573.84,268.79,574.35,268.69z"/>
	<path d="M577.04,268.53c-0.18-0.18-0.4-0.4-0.56-0.56C576.63,268.21,576.8,268.44,577.04,268.53z"/>
	<path d="M577.28,268.58c-0.08,0-0.16-0.02-0.24-0.05C577.5,268.99,577.28,268.85,577.28,268.58z"/>
	<path d="M200.39,268.89c0.1,0,0.2,0,0.2-0.2C200.49,268.79,200.39,268.89,200.39,268.89z"/>
	<path d="M578.01,269.3c-0.25-0.08-0.44-0.25-0.66-0.47C577.44,269.1,577.68,269.3,578.01,269.3z"/>
	<path d="M578.04,269.47c0.07,0.38,0.33,0.55,0.68,0.64C578.63,269.84,578.37,269.65,578.04,269.47z"/>
	<path d="M577.9,269.4c0.22,0.09,0.1,0.13,0.1-0.1L577.9,269.4z"/>
	<path d="M619.7,270.21l0.1-0.1C619.6,270.11,619.67,270.02,619.7,270.21z"/>
	<path d="M618.99,269.5c0,0.37,0.25,0.56,0.67,0.59C619.55,269.77,619.36,269.59,618.99,269.5z"/>
	<path d="M619.7,270.82l0.1,0.1C619.81,270.8,619.83,270.82,619.7,270.82z"/>
	<path d="M619.7,270.21c0.4,0.4-0.37,0.61,0.61,0.61C620.12,270.63,619.88,270.38,619.7,270.21z"/>
	<path d="M620.31,270.82c0.03,0.03,0.07,0.07,0.1,0.1C620.54,270.8,620.58,270.82,620.31,270.82z"/>
	<path d="M620.42,270.92c0.1,0,0.2,0.1,0.31,0.1C620.62,270.92,620.52,270.92,620.42,270.92z"/>
	<path d="M637.13,275.96c-0.03-0.14-0.02-0.17-0.14-0.14C636.98,275.89,636.99,275.92,637.13,275.96z"/>
	<path d="M636.98,275.82c-0.03-0.44-0.23-0.62-0.7-0.62C636.28,275.66,636.55,275.86,636.98,275.82z"/>
	<path d="M637.71,276.62c-0.09-0.26-0.26-0.53-0.58-0.66C637.2,276.26,637.44,276.45,637.71,276.62z"/>
	<path d="M637.6,276.72h0.2C637.68,276.59,637.73,276.59,637.6,276.72z"/>
	<path d="M609.23,283.74c0-0.34-0.31-0.35-0.31,0.1C609.33,283.64,609.03,284.25,609.23,283.74z"/>
	<path d="M287.55,288.42c0,0,0.04-0.04,0.1-0.1C287.6,288.34,287.55,288.37,287.55,288.42z"/>
	<path d="M287.75,288.21c-0.04,0.04-0.07,0.07-0.1,0.1C287.7,288.29,287.75,288.26,287.75,288.21z"/>
	<path d="M587.16,104.95l0.1-0.1C587.12,104.89,586.99,104.84,587.16,104.95z"/>
	<path d="M180.45,149.29c-0.12-0.02-0.14-0.11-0.1,0.1L180.45,149.29z"/>
	<path d="M185.31,189.08c-0.75-0.56-0.3,0.36,0.17,0.46C185.64,189.54,185.36,188.98,185.31,189.08z"/>
	<path d="M634.65,185.9c1.31,8.78-2.6,11.08,0.71,22.68c-0.04,0.32-1.48,15.83-0.81,17.09c1.92-4.79,2.58-16.91,1.91-20.44
		c-0.81-4.27-1.66-1.65-0.41-8.18C639.19,180.78,633.38,177.41,634.65,185.9z"/>
	<path d="M640.25,171.66c-3.41-5.11-2.87-11.43-4.85-10.08C633.6,162.81,638.53,174.25,640.25,171.66z"/>
	<path d="M581.97,173.59c-0.51-0.1-0.92,0-1.42,0.61c1.31,2.61,6.48,3.61,9.05,4.98C588.45,177.61,583.51,174.14,581.97,173.59z"/>
	<path d="M633.99,247.74c0.51,1.52-0.09-2.88,1.37-12.92c0.12-0.81,0.31-1.63-0.51-2.75C633.57,236.96,633.15,244.65,633.99,247.74z
		"/>
	<path d="M627,207.56c1.15-0.08,3.62-0.5,3.18-1.93c-2.67,0.45-2.72,0.44-7.32,0.81C612.44,207.28,626.89,207.57,627,207.56z"/>
	<path d="M580.17,187c0.35,0.44,0.68,0.54,1.18,0.23c-1.42-1.87-2.51-4.34-4.58-6.1C574.43,182.33,578.82,185.31,580.17,187z"/>
	<path d="M588.56,197.43c3.6,2.94-3.96-8.9-3.96-6.13C589.05,198.33,588.1,197.06,588.56,197.43z"/>
	<path d="M569.36,191.19c1.02,3.25,1.32,3.76,3.25,4.58C571.8,194.34,571.29,192.71,569.36,191.19z"/>
	<path d="M611.95,248.61c1.28,5.1,0.78-1.57,0.02-3.52C611.85,246.28,611.8,247.44,611.95,248.61z"/>
	<path d="M607.3,181.83c-1.93-0.92-1.93-0.92-3.36,0.2C605.97,182.24,605.97,182.24,607.3,181.83z"/>
	<path d="M626.52,177.87c1.72,0.49,2.73,0.11,3.97-1.22C628.96,176.85,627.64,176.54,626.52,177.87z"/>
	<path d="M614.72,181.12c-1.83-0.2-1.83-0.2-2.34,0.81C614.01,182.14,614.01,182.14,614.72,181.12z"/>
	<path d="M629.87,151.93c0.51-1.63,1.02-3.25-0.2-4.78C629.87,148.68,629.87,150.31,629.87,151.93z"/>
	<path d="M629.66,146.82c0.18,0.34-0.09-3.72-0.09-3.82C629.57,142.89,628.99,145.53,629.66,146.82z"/>
	<path d="M573.94,210.31c-0.2-1.02-0.8-1.61-1.63-1.82C571.29,208.49,572.18,210.15,573.94,210.31z"/>
	<path d="M598.35,181.93c-1.02-0.92-1.02-0.92-1.93-0.41C597.02,182.04,597.63,182.34,598.35,181.93z"/>
	<path d="M582.28,203.09c-0.3-0.38-0.61-0.76-1.09-0.88C580.09,201.93,581.01,203.09,582.28,203.09z"/>
	<path d="M588.99,105.45c-0.71,0-1.22-0.1-1.73-0.1C587.67,105.76,588.18,105.86,588.99,105.45z"/>
	<path d="M591.23,199.83c0.05-0.39-0.02-0.71-0.4-0.84C589.85,198.64,590,199.63,591.23,199.83z"/>
	<path d="M643.71,174.1c0.21,0.32,0.6,0.41,0.92,0.11C644.62,173.2,643.34,173.73,643.71,174.1z"/>
	<path d="M578.21,239.6c-0.2,0-0.41,0-0.61,0C577.8,239.6,578.01,240.01,578.21,239.6z"/>
	<path d="M590.31,198.82c-0.21,0-0.48-0.17-0.1,0.1L590.31,198.82z"/>
	<path d="M589.8,198.6c0.36,0.34,0.04,0.01-0.05-0.09C589.35,198.1,589.23,198.06,589.8,198.6z"/>
	<path d="M582.18,203.19l0.2,0.1C582.25,203.04,582.31,203.06,582.18,203.19z"/>
	<path d="M338.59,371.7c-0.35,4.16-11.59,19.08-5.87,12.73C343.94,372,338.59,370.9,338.59,371.7z"/>
	<path d="M365.14,341.1c-0.81,3.36-0.71,5.19,0.51,7.32C369.59,343.56,366.74,338.97,365.14,341.1z"/>
	<path d="M341.45,350.66c1.48,0,9.38-0.47,9.76-1.83c-4.01,0.22-7.25,0.5-10.98,0.71C340.23,350.56,340.84,350.66,341.45,350.66z"/>
	<path d="M361.79,338.96c1.85-0.99,1.67-2.17,1.12-4.47C361.65,338.58,361.19,338.76,361.79,338.96z"/>
	<path d="M323.13,393.17c3.86-1.29,3.8-1.68,3.98-3.15C326.56,389.74,326.27,390.03,323.13,393.17z"/>
	<path d="M318.94,320.87c-1.18-0.51-1.27,1.74,0.84,2.13C319.62,321.76,319.65,321.18,318.94,320.87z"/>
	<path d="M359.03,343.11c-0.02-1.42-1.58,3.37-1.3,3.37C358.58,345.04,359.05,344.15,359.03,343.11z"/>
	<path d="M339.92,367.74c0.49-0.59,0.42-1.21-0.1-1.73C339.92,366.52,339.21,367.13,339.92,367.74z"/>
	<path d="M315.72,397.24c-0.81,0-0.81,0-1.83,0.71C315.01,398.46,315.41,397.95,315.72,397.24z"/>
	<path d="M295.65,422.99c-0.08,0.3,0.17,0.34,0.35,0.28C296.45,423.18,296.02,422.13,295.65,422.99z"/>
	<path d="M359.51,342.55c0.04-0.33-0.37-0.43-0.37,0.48C359.3,342.88,359.49,342.73,359.51,342.55z"/>
	<path d="M329.75,387.59c0.45,0.43,0.41-0.38,0.41-0.81C329.89,387.3,329.75,387.03,329.75,387.59z"/>
	<path d="M293.04,425.61c-0.26,0.26-0.37,0.49-0.2,0.81C293.62,426.43,293.27,425.38,293.04,425.61z"/>
	<path d="M318.76,396.72c0.13-0.01,0.26-0.09,0.42-0.19C318.28,396.08,318.22,396.76,318.76,396.72z"/>
	<path d="M292.53,426.93c0.1,0,0.31-0.31,0.2-0.51C292.28,426.43,292.26,426.58,292.53,426.93z"/>
	<path d="M330.5,386.37c-0.6,0.63,0.14,0.72,0.41-0.11C330.97,386.07,330.62,386.25,330.5,386.37z"/>
	<path d="M331.01,386.16c0.02,0,0.04-0.01,0.06-0.01C330.92,385.99,330.9,386.16,331.01,386.16z"/>
	<path d="M221.65,449.51c-0.33,2.34-1.12,4.68-0.61,7.42c1.31-3.37,6.34-20.84,3.65-22.98
		C223.36,434.36,223.74,434.75,221.65,449.51z"/>
	<path d="M248.9,393.47c-3.03,3.54-5.69,7.77-9.05,11.19c-0.12,0.12,0.2,0.61,0.2,0.71C247.9,399.77,252.23,392.36,248.9,393.47z"/>
	<path d="M237.71,433.54c0-3.31,0.5-6.79,0.1-10.17C236.8,426.73,237.41,430.19,237.71,433.54z"/>
	<path d="M246.76,421.14c0.54,1.34,1.16,1.72,2.51,1.72C252.28,422.86,249.37,419.89,246.76,421.14z"/>
	<path d="M218.19,464.77c1.53-1.53,1.93-3.36,2.64-5.9C218.59,460.8,218.29,462.73,218.19,464.77z"/>
	<path d="M223.26,403.86c-0.25,2.86,0.03,3.27,1.32,5.8C223.97,407.21,224.99,405.38,223.26,403.86z"/>
	<path d="M255.92,402.53c0.61-3.56,0.61-3.56-0.81-4.98C255,399.27,255.1,400.8,255.92,402.53z"/>
	<path d="M237.61,409.34c1.2-2.17,1.07-2.19,0.61-3.46C237.41,407,237.31,408.02,237.61,409.34z"/>
	<path d="M210.97,488.87c0.26-0.89,0.85-1.64,0.22-2.34C210.15,485.36,208.82,487.96,210.97,488.87z"/>
	<path d="M207.94,513.66c0.01,0.96,0.42,2.31,0.53-0.06C208.51,512.65,207.92,511.34,207.94,513.66z"/>
	<path d="M224.08,414.93c0-0.61,0.92-1.22,0.2-1.93C223.58,413.61,223.58,414.22,224.08,414.93z"/>
	<path d="M237.71,413.51c0.2-0.61,0.51-1.12,0-1.63C237.31,412.39,237.41,412.9,237.71,413.51z"/>
	<path d="M215.85,472.5c0,0.51,0.49,0.2,0.52-0.31C216.39,471.59,215.85,471.15,215.85,472.5z"/>
	<path d="M212.18,483.28c0.43,0,0.72-0.96,0.62-1.39C212.12,482.13,212.29,482.79,212.18,483.28z"/>
	<path d="M211.98,483.38c0.1,0,0.2,0,0.1-0.2C212.08,483.28,212.08,483.38,211.98,483.38z"/>
	<path d="M213.1,481.45c-0.06-0.06-0.21,0.02-0.21,0.4c-0.1-0.1-0.13-0.15-0.09,0.04C212.94,481.84,213.81,481.89,213.1,481.45z"/>
	<path d="M238.12,569.83c-0.3-0.85-0.74-1.53-1.63-1.42C223.98,574.53,235.88,576.92,238.12,569.83z"/>
	<path d="M236.19,576.84c3.68,2.02,7.65-2.75,5-3.41C240.09,572.89,237.12,575.08,236.19,576.84z"/>
	<path d="M307.07,482.06c-1.63,1.01-3.37,1.02-4.17,2.54C303.26,487.83,308.99,485.9,307.07,482.06z"/>
	<path d="M679.71,363.88c-0.1,0-12.92,15.83-9.25,13.83C672.48,375.75,682.37,364.76,679.71,363.88z"/>
	<path d="M696.09,345.06c0.49-0.57,0.74-1.42,0.51-2.34c-1.66-9.32-1.37-9.09-2.36-9.33C692.4,332.79,696.4,343.54,696.09,345.06z"
		/>
	<path d="M688.88,335.08c0.33,1.62,2.97-0.8,3.23-7.2C691.66,328.78,688.68,334.08,688.88,335.08z"/>
	<path d="M694.86,345.67c1.22,4.27,1.22,4.27,4.07,4.88C697.86,348.7,695.81,342.83,694.86,345.67z"/>
	<path d="M665.22,381.16c-0.1,0.06-9.53,8.31-3.81,4.99c3.04-1.76,5.23-4.51,4.88-4.68C665.78,381.05,665.48,381,665.22,381.16z"/>
	<path d="M661.41,342.22c-0.25,0-0.2,1.15,0.91,1.32c0.1,0.02,5.94,0.84,5.61,0.62C665.99,342.87,663.86,342.06,661.41,342.22z"/>
	<path d="M668.52,344.56c0.07-0.14,0.44-0.14-0.08-0.22C668.01,344.29,668.01,344.2,668.52,344.56z"/>
	<path d="M699.74,351.78c-0.2,1.93-0.1,2.14,1.83,2.44C701.07,353.2,700.86,352.18,699.74,351.78z"/>
	<path d="M685.71,363.37c-0.71,2.54-0.71,2.85,0.31,4.68C686.12,366.62,686.32,365.1,685.71,363.37z"/>
	<path d="M675.13,346.18c1.22,0.73,1.35,0.71,2.95,0.71C677,346.43,675.77,345.71,675.13,346.18z"/>
	<path d="M650.88,393.25c-0.05,0.01-0.1,0.02-0.15,0.02C650.83,393.37,650.84,393.42,650.88,393.25z"/>
	<path d="M650.89,393.26c1.16-0.05,1.79-0.67,1.97-1.41C651.91,391.85,651.22,392.28,650.89,393.26z"/>
	<path d="M625.92,410.7c-0.8,0.54-1.02,1.18-1.02,2C626.3,411.54,626.41,410.37,625.92,410.7z"/>
	<path d="M624.89,412.71l-0.01,0.01C624.69,412.9,624.94,413.01,624.89,412.71z"/>
	<path d="M621.64,416.87c0.51-0.51,1.02-0.92,0.51-1.73C621.33,416.05,621.33,416.05,621.64,416.87z"/>
	<path d="M627.74,409.14c0.61-0.41,1.22-0.92,1.02-2.03C628.14,407.63,627.74,408.28,627.74,409.14z"/>
	<path d="M686.01,368.05c0.09,0.39-0.16,0.94,0.33,1.26C686.55,369.44,686.58,368.47,686.01,368.05z"/>
	<path d="M669.88,344.35c-0.1,0-1.13-0.01-1.13,0.09C670.64,345.92,671.67,344.39,669.88,344.35z"/>
	<path d="M642.49,398.56c-0.24,0.48,1.08,0.17,0.61-0.31C642.89,398.36,642.59,398.46,642.49,398.56z"/>
	<path d="M626.92,410.04c-0.05-0.05-0.08-0.07-0.1-0.09C626.82,410.14,626.72,410.04,626.92,410.04z"/>
	<path d="M626.28,410.46c-0.21,0.44,0.3,0.04,0.43-0.15C627.01,409.89,626.46,410.09,626.28,410.46z"/>
	<path d="M653.24,391.8c0.12-0.07-0.06-0.25-0.17-0.36C653.06,391.84,652.5,392.16,653.24,391.8z"/>
	<path d="M627.64,409.03c-0.51,0.77-1.19,1.39-0.22,0.43C627.79,409.08,627.82,409.22,627.64,409.03z"/>
	<path d="M676.76,352.39c-0.36-0.18-0.31-0.46-0.31-0.2C676.45,352.45,676.37,352.39,676.76,352.39z"/>
	<path d="M681.13,354.12l0.2,0.1C681.34,353.95,681.39,353.99,681.13,354.12z"/>
	<path d="M671.17,345.37c-0.05-0.05-0.14-0.07-0.26-0.13C671.03,345.41,670.86,345.37,671.17,345.37z"/>
	<path d="M668.77,378.82c0.38-0.01,0.58-0.21,0.67-0.6C669.07,378.22,668.88,378.47,668.77,378.82z"/>
	<path d="M668.62,379.03c0.16-0.16,0.07-0.07,0.14-0.21C668.66,378.82,668.67,378.93,668.62,379.03z"/>
	<path d="M659.27,386.66c-0.07,0.1-0.54,0.75-0.81,1.02C658.83,387.48,659.2,386.94,659.27,386.66z"/>
	<path d="M640.15,476.16c-3.35-0.19-5.93,0.51-8.02,3.15C634.31,481.88,642.68,481.22,640.15,476.16z"/>
	<path d="M605.16,512.57c0.31-0.41,0.81-0.61,0.31-1.63C605.37,511.75,604.55,511.88,605.16,512.57z"/>
	<path d="M604.25,520.4c0.41-0.61,0.71-1.22-0.1-2.03C603.94,519.08,603.33,519.69,604.25,520.4z"/>
	<path d="M601.09,525.79c0.71-0.71,0.71-0.71,0.31-1.53C601.01,524.65,600.88,525.16,601.09,525.79z"/>
	<path d="M600.89,525.99c0.17-0.04,0.06,0.06,0.1-0.2C600.79,525.89,600.79,526.09,600.89,525.99z"/>
	<path d="M600.99,525.98c0.04,0.13,0.19,0.02,0.07,0C601.04,525.98,601.02,525.98,600.99,525.98z"/>
	<path d="M599.57,528.74l0.1-0.1C599.42,528.64,599.43,528.6,599.57,528.74z"/>
	<path d="M265.68,187.02c15.08-2.41,18.37-2.87,18.95-2.94c0.1-0.03,0.47-0.11,1.49-0.32c0.35-0.07,7.25-3.67-20.32,2.34
		c0,0,0,0-0.01,0c-0.2,0-0.41,0.2-0.61,0.31C264.9,186.41,265.21,187.02,265.68,187.02z"/>
	<path d="M284.63,184.08C284.48,184.13,284.94,184.05,284.63,184.08L284.63,184.08z"/>
	<path d="M194.1,123.97c1.23-7.97,3.28-11.48,3.23-11.91c-2.23-1.24-4.83,7.13-4.37,14.24C193.9,125.54,193.99,124.71,194.1,123.97z
		"/>
	<path d="M266.49,214.17c0.11,3.26-0.83,6.52-0.31,10.27C269.17,218.28,268.77,211.9,266.49,214.17z"/>
	<path d="M178.3,210.83c-3.36,0.54-3.77-0.24-6.49-0.11C173.77,215.28,191.25,208.75,178.3,210.83z"/>
	<path d="M265.88,228.82c0.41,4.47-0.92,8.95-0.2,14.24C266.29,240.64,268.09,229.09,265.88,228.82z"/>
	<path d="M208.12,112.47c3.18-2.12-7.06-2.99-5.19-1.12C204.76,111.66,206.39,112.88,208.12,112.47z"/>
	<path d="M213,153.36c0.46-0.3,1.03-0.67,1.12-1.44c0.24-2.09,0.01,0.29-7.63,2.05C210.46,154.58,211.28,154.49,213,153.36z"/>
	<path d="M186.76,163.83c-0.08-3.18-0.57-5.11-3.36-6.41C183.48,158.6,185.7,163.16,186.76,163.83z"/>
	<path d="M236.7,205.94c0.32,0.45,0.46,0.88,0.64,1.4c1.25,3.62,3.05,2.05,1.92-0.02C238.61,206.12,237.53,204.69,236.7,205.94z"/>
	<path d="M256.53,194.85c0-1.92,0-1.03,0-3.97c-2.06,0.51-1.94,2.86-1.4,3.74C255.59,195.38,256.53,195.21,256.53,194.85z"/>
	<path d="M257.95,183.26c-2.02,2.22-1.86,2.32-0.71,3.85C258.13,185.16,259.95,182.76,257.95,183.26z"/>
	<path d="M179.44,205.63c-4.17,0.51-4.17,0.51-5.29,2.03C176.3,207.82,177.7,207.05,179.44,205.63z"/>
	<path d="M188.03,170.04c-0.04-1.61-1.88-2.89-0.86,2.54C187.53,171.62,188.05,170.75,188.03,170.04z"/>
	<path d="M246.5,236.05c0.01-0.86-0.39-1.51-0.96-2.25C245.7,235.6,246.49,236.89,246.5,236.05z"/>
	<path d="M256.73,199.43c-0.55,0.82-0.39,0.52-0.39,0.67C257.17,202.74,259.03,200.12,256.73,199.43z"/>
	<path d="M241.95,227.28l0.43,0.34C242.38,224.8,239.42,225.39,241.95,227.28z"/>
	<path d="M242.38,227.62c0,0.06,0,0.08,0.01,0.09c-0.02-0.01-0.04,0-0.1,0l0.2,0.1c-0.05-0.05-0.07-0.08-0.09-0.09
		c0.02,0,0.04-0.01,0.09-0.01C242.45,227.67,242.42,227.64,242.38,227.62z"/>
	<path d="M187.27,202.48c0.33,0.24,0.53,0.05,0.71-0.31C187.72,201.99,187.39,202.03,187.27,202.48z"/>
	<path d="M215.09,242.63c-0.59-0.08-0.4,0.5-0.06,0.65C215.62,243.59,215.65,242.7,215.09,242.63z"/>
	<path d="M265.88,226.17c-0.15-0.15-0.07-0.13-0.12-0.03C265.56,226.48,265.88,226.64,265.88,226.17z"/>
	<path d="M184.27,188.42c-1.04,0.02,0.37,0.26,0.47,0.31C184.99,188.81,184.52,188.42,184.27,188.42z"/>
	<path d="M265.68,248.55l0.1,0.31C265.91,248.47,265.95,248.55,265.68,248.55z"/>
	<path d="M180.78,150.85c0.18,0.12,0.55-0.6-0.33-0.96C180.45,150.25,180.41,150.64,180.78,150.85z"/>
	<path d="M194.08,209.19c-0.34,0.11-0.24,0.21,0.1,0.31C194.55,209.5,194.59,209.19,194.08,209.19z"/>
	<path d="M184.86,188.82c-0.01-0.02-0.02-0.04-0.03-0.07C184.67,188.91,184.86,188.91,184.86,188.82z"/>
	<path d="M239.03,223.84c0.04,0.02,0.42,0.16,0.42,0.16C239.56,224.03,239.56,223.41,239.03,223.84z"/>
	<path d="M239.55,224.15c-0.17,0-0.05,0.6,0.61,0.6C240.19,224.36,239.95,224.18,239.55,224.15z"/>
	<path d="M240.25,224.76l0.01-0.01c0,0,0.01,0-0.1,0C240.16,224.89,240.14,224.87,240.25,224.76z"/>
	<path d="M240.79,224.95c-0.68-0.71-0.71,0.57,0.08,0.51C241.08,225.46,240.91,225.07,240.79,224.95z"/>
	<path d="M218.69,245.6h-0.2C218.62,245.73,218.57,245.73,218.69,245.6z"/>
	<path d="M218.82,245.87c-0.02-0.02-0.05-0.03-0.06-0.06C218.49,245.55,218.62,245.79,218.82,245.87z"/>
	<path d="M222.16,247.13c0.04,0,0.08,0,0.1,0C221.99,246.99,222.02,246.98,222.16,247.13z"/>
<path fill="#e6e6e6" d="m206.8 163.6c0-5.1 4.1-9.2 9.3-9.2s9.2 4.2 9.2 9.2-4.1 9.2-9.3 9.2-9.2-4.1-9.2-9.2zm17.3-.1c0-4.5-3.5-8.2-8.2-8.2s-8.2 3.7-8.2 8.3c0 4.5 3.5 8.2 8.2 8.2s8.2-3.7 8.2-8.3zm-13 0c0-2.8 2.1-5.1 5.1-5.1 1.9 0 2.9.6 3.9 1.5l-1.4 1.7c-.8-.7-1.5-1.1-2.5-1.1-1.7 0-2.8 1.4-2.8 3.1s1.1 3 2.8 3c1.1 0 1.7-.5 2.5-1.1l1.4 1.4c-1.1 1.1-2.1 1.7-4 1.7-2.9 0-5-2.3-5-5.1z"/><path fill="#e6e6e6" d="m226.6 154.7h3.4l4.2 13.2 4.4-13.3h2.6l4.4 13.3 4.2-13.2h3.3l-6.2 18h-2.7l-4.4-12.8-4.4 12.8h-2.7z"/><path fill="#e6e6e6" d="m252.8 165.8c0-3.9 3.1-7 7.2-7 4.2 0 7.2 3.2 7.2 7s-3.1 7-7.3 7c-4 0-7.1-3.1-7.1-7zm11.3 0c0-2.3-1.7-4.3-4.2-4.3s-4.1 2-4.1 4.3 1.7 4.3 4.1 4.3c2.7.1 4.2-1.9 4.2-4.3z"/><path fill="#e6e6e6" d="m269.5 159.1h3.1v3c.8-2 2.4-3.4 4.8-3.3v3.2h-.2c-2.7 0-4.6 1.7-4.6 5.4v5.1h-3.1z"/><path fill="#e6e6e6" d="m279.1 153.9h3.1v11.1l5.6-6h3.8l-5.4 5.5 5.5 8h-3.5l-4.1-5.8-1.9 2v3.9h-3.1z"/><path fill="#e6e6e6" d="m291.7 165.8c0-3.9 3.1-7 7.2-7 4.2 0 7.2 3.2 7.2 7s-3.1 7-7.3 7c-4 0-7.1-3.1-7.1-7zm11.3 0c0-2.3-1.7-4.3-4.2-4.3s-4.1 2-4.1 4.3 1.7 4.3 4.1 4.3c2.6.1 4.2-1.9 4.2-4.3z"/><path fill="#e6e6e6" d="m308.2 167.6v-8.6h3.1v7.6c0 2.1 1.1 3.3 2.9 3.3s3-1.3 3-3.3v-7.6h3.1v13.4h-3.1v-2.1c-.8 1.3-2.1 2.3-4.2 2.3-3.1.2-4.8-1.8-4.8-5z"/><path fill="#e6e6e6" d="m323.9 168.8v-7.1h-1.7v-2.6h1.7v-3.7h3.1v3.7h3.6v2.6h-3.6v6.6c0 1.2.6 1.7 1.7 1.7.7 0 1.3-.2 1.9-.5v2.5c-.8.5-1.7.7-2.8.7-2.3 0-3.9-.9-3.9-3.9z"/><path fill="#e6e6e6" d="m333.2 154.7h3.2v15h9.4v2.9h-12.5v-17.9z"/><path fill="#e6e6e6" d="m356 172.5v-1.7c-.9 1.1-2.3 2-4.4 2-2.6 0-4.8-1.4-4.8-4.2 0-3 2.3-4.4 5.4-4.4 1.7 0 2.6.2 3.7.5v-.2c0-1.9-1.2-2.9-3.3-2.9-1.5 0-2.6.3-3.9.8l-.8-2.5c1.5-.7 2.9-1.1 5.1-1.1 4 0 5.9 2.1 5.9 5.7v8zm.1-5.6c-.8-.3-1.9-.5-3.1-.5-2 0-3.1.8-3.1 2.1s1.1 2 2.6 2c2 0 3.5-1.1 3.5-2.9z"/><path fill="#e6e6e6" d="m364.9 170.5v2.1h-3.1v-18.7h3.1v7.4c1-1.4 2.4-2.5 4.5-2.5 3.2 0 6.3 2.5 6.3 7s-3.1 7-6.3 7c-2.1 0-3.5-1.1-4.5-2.3zm7.7-4.7c0-2.6-1.7-4.3-3.9-4.3s-3.9 1.7-3.9 4.4c0 2.6 1.8 4.3 3.9 4.3s3.9-1.7 3.9-4.4z"/><path fill="#e6e6e6" d="m376.9 170.8 1.4-2.1c1.4 1.1 3 1.7 4.4 1.7s2.1-.5 2.1-1.5-1.3-1.4-2.8-1.8c-.1 0-.2-.1-.2-.1-2-.6-4.2-1.4-4.2-4s2.1-4.1 4.8-4.1c1.7 0 3.5.6 5 1.5l-1.2 2.2c-1.3-.8-2.6-1.3-3.8-1.3s-1.9.5-1.9 1.4 1.3 1.4 2.8 1.8c.1 0 .2.1.2.1 2 .6 4.2 1.5 4.2 4 0 2.9-2.2 4.2-5 4.2-1.9 0-4-.7-5.8-2z"/><path fill="#e6e6e6" d="m505.6 163.6c0-5.1 4.1-9.2 9.3-9.2s9.2 4.2 9.2 9.2-4.1 9.2-9.3 9.2-9.2-4.1-9.2-9.2zm17.4-.1c0-4.5-3.5-8.2-8.2-8.2s-8.2 3.7-8.2 8.3c0 4.5 3.5 8.2 8.2 8.2s8.2-3.7 8.2-8.3zm-13.1 0c0-2.8 2.1-5.1 5.1-5.1 1.9 0 2.9.6 3.9 1.5l-1.4 1.7c-.8-.7-1.5-1.1-2.5-1.1-1.7 0-2.8 1.4-2.8 3.1s1.1 3 2.8 3c1.1 0 1.7-.5 2.5-1.1l1.4 1.4c-1.1 1.1-2.1 1.7-4 1.7-2.9 0-5-2.3-5-5.1z"/><path fill="#e6e6e6" d="m525.4 154.7h3.4l4.2 13.2 4.4-13.3h2.6l4.4 13.3 4.2-13.2h3.3l-6.2 18h-2.7l-4.4-12.8-4.4 12.8h-2.7z"/><path fill="#e6e6e6" d="m551.7 165.8c0-3.9 3.1-7 7.2-7 4.2 0 7.2 3.2 7.2 7s-3.1 7-7.3 7c-4.1 0-7.1-3.1-7.1-7zm11.2 0c0-2.3-1.7-4.3-4.2-4.3s-4.1 2-4.1 4.3 1.7 4.3 4.1 4.3c2.7.1 4.2-1.9 4.2-4.3z"/><path fill="#e6e6e6" d="m568.3 159.1h3.1v3c.8-2 2.4-3.4 4.8-3.3v3.2h-.2c-2.7 0-4.6 1.7-4.6 5.4v5.1h-3.1z"/><path fill="#e6e6e6" d="m577.9 153.9h3.1v11.1l5.6-6h3.8l-5.4 5.5 5.5 8h-3.5l-4.1-5.8-1.9 2v3.9h-3.1z"/><path fill="#e6e6e6" d="m590.6 165.8c0-3.9 3.1-7 7.2-7 4.2 0 7.2 3.2 7.2 7s-3.1 7-7.3 7c-4.1 0-7.1-3.1-7.1-7zm11.2 0c0-2.3-1.7-4.3-4.2-4.3s-4.1 2-4.1 4.3 1.7 4.3 4.1 4.3c2.6.1 4.2-1.9 4.2-4.3z"/><path fill="#e6e6e6" d="m607 167.6v-8.6h3.1v7.6c0 2.1 1.1 3.3 2.9 3.3s3-1.3 3-3.3v-7.6h3.1v13.4h-3.1v-2.1c-.8 1.3-2.1 2.3-4.2 2.3-3 .2-4.8-1.8-4.8-5z"/><path fill="#e6e6e6" d="m622.7 168.8v-7.1h-1.7v-2.6h1.7v-3.7h3.1v3.7h3.6v2.6h-3.6v6.6c0 1.2.6 1.7 1.7 1.7.7 0 1.3-.2 1.9-.5v2.5c-.8.5-1.7.7-2.8.7-2.3 0-3.9-.9-3.9-3.9z"/><path fill="#e6e6e6" d="m632 154.7h3.2v15h9.4v2.9h-12.6z"/><path fill="#e6e6e6" d="m654.8 172.5v-1.7c-.9 1.1-2.3 2-4.4 2-2.6 0-4.8-1.4-4.8-4.2 0-3 2.3-4.4 5.4-4.4 1.7 0 2.6.2 3.7.5v-.2c0-1.9-1.2-2.9-3.3-2.9-1.5 0-2.6.3-3.9.8l-.8-2.5c1.5-.7 2.9-1.1 5.1-1.1 4 0 5.9 2.1 5.9 5.7v8zm.1-5.6c-.8-.3-1.9-.5-3.1-.5-2 0-3.1.8-3.1 2.1s1.1 2 2.6 2c2 0 3.5-1.1 3.5-2.9z"/><path fill="#e6e6e6" d="m663.7 170.5v2.1h-3.1v-18.7h3.1v7.4c1-1.4 2.4-2.5 4.5-2.5 3.2 0 6.3 2.5 6.3 7s-3.1 7-6.3 7c-2.1 0-3.5-1.1-4.5-2.3zm7.8-4.7c0-2.6-1.7-4.3-3.9-4.3-2.1 0-3.9 1.7-3.9 4.4 0 2.6 1.8 4.3 3.9 4.3s3.9-1.7 3.9-4.4z"/><path fill="#e6e6e6" d="m675.8 170.8 1.4-2.1c1.4 1.1 3 1.7 4.4 1.7s2.1-.5 2.1-1.5-1.3-1.4-2.8-1.8c-.1 0-.2-.1-.2-.1-2-.6-4.2-1.4-4.2-4s2.1-4.1 4.8-4.1c1.7 0 3.5.6 5 1.5l-1.2 2.2c-1.3-.8-2.6-1.3-3.8-1.3s-1.9.5-1.9 1.4 1.3 1.4 2.8 1.8c.1 0 .2.1.2.1 2 .6 4.2 1.5 4.2 4 0 2.9-2.2 4.2-5 4.2-2 0-4.1-.7-5.8-2z"/><path fill="#e6e6e6" d="m61 298.6c0-5.1 4.1-9.2 9.3-9.2s9.2 4.2 9.2 9.2-4.1 9.2-9.3 9.2c-5.1 0-9.2-4.2-9.2-9.2zm17.4-.1c0-4.5-3.5-8.2-8.2-8.2s-8.2 3.7-8.2 8.3c0 4.5 3.5 8.2 8.2 8.2s8.2-3.7 8.2-8.3zm-13.1-.1c0-2.8 2.1-5.1 5.1-5.1 1.9 0 2.9.6 3.9 1.5l-1.4 1.7c-.8-.7-1.5-1.1-2.5-1.1-1.7 0-2.8 1.4-2.8 3.1s1.1 3 2.8 3c1.1 0 1.7-.5 2.5-1.1l1.4 1.4c-1.1 1.1-2.1 1.7-4 1.7-2.8.1-5-2.2-5-5.1z"/><path fill="#e6e6e6" d="m80.9 289.7h3.4l4.2 13.2 4.4-13.3h2.6l4.4 13.3 4.2-13.2h3.3l-6.2 18h-2.7l-4.4-12.8-4.4 12.8h-2.7z"/><path fill="#e6e6e6" d="m107.1 300.8c0-3.9 3.1-7 7.2-7s7.2 3.2 7.2 7-3.1 7-7.3 7c-4 0-7.1-3.1-7.1-7zm11.3 0c0-2.3-1.7-4.3-4.2-4.3s-4.1 2-4.1 4.3 1.7 4.3 4.1 4.3c2.6.1 4.2-1.9 4.2-4.3z"/><path fill="#e6e6e6" d="m123.7 294h3.1v3c.8-2 2.4-3.4 4.8-3.3v3.2h-.2c-2.7 0-4.6 1.7-4.6 5.4v5.1h-3.1z"/><path fill="#e6e6e6" d="m133.4 288.9h3.1v11.1l5.6-6h3.8l-5.4 5.5 5.5 8h-3.5l-4.1-5.8-1.9 1.9v3.9h-3.1z"/><path fill="#e6e6e6" d="m146 300.8c0-3.9 3.1-7 7.2-7s7.2 3.2 7.2 7-3.1 7-7.3 7c-4.1 0-7.1-3.1-7.1-7zm11.2 0c0-2.3-1.7-4.3-4.2-4.3s-4.1 2-4.1 4.3 1.7 4.3 4.1 4.3c2.6.1 4.2-1.9 4.2-4.3z"/><path fill="#e6e6e6" d="m162.4 302.6v-8.6h3.1v7.6c0 2.1 1.1 3.3 2.9 3.3s3-1.3 3-3.3v-7.6h3.1v13.4h-3.1v-2.1c-.8 1.3-2.1 2.3-4.2 2.3-3 .2-4.8-1.8-4.8-5z"/><path fill="#e6e6e6" d="m178.1 303.8v-7.1h-1.7v-2.7h1.7v-3.7h3.1v3.7h3.6v2.6h-3.6v6.6c0 1.2.6 1.7 1.7 1.7.7 0 1.3-.2 1.9-.5v2.5c-.8.5-1.7.7-2.8.7-2.3.1-3.9-.9-3.9-3.8z"/><path fill="#e6e6e6" d="m187.4 289.7h3.2v15h9.4v2.9h-12.5v-17.9z"/><path fill="#e6e6e6" d="m210.2 307.5v-1.7c-.9 1.1-2.3 2-4.4 2-2.6 0-4.8-1.4-4.8-4.2 0-3 2.3-4.4 5.4-4.4 1.7 0 2.6.2 3.7.5v-.2c0-1.9-1.2-2.9-3.3-2.9-1.5 0-2.6.3-3.9.8l-.8-2.5c1.5-.7 2.9-1.1 5.1-1.1 4 0 5.9 2.1 5.9 5.7v8zm.1-5.6c-.8-.3-1.9-.5-3.1-.5-2 0-3.1.8-3.1 2.1s1.1 2 2.6 2c2 0 3.5-1.1 3.5-2.9z"/><path fill="#e6e6e6" d="m219.2 305.5v2.1h-3.1v-18.7h3.1v7.4c1-1.4 2.4-2.5 4.5-2.5 3.2 0 6.3 2.5 6.3 7s-3.1 7-6.3 7c-2.2 0-3.6-1.1-4.5-2.3zm7.7-4.7c0-2.6-1.7-4.3-3.9-4.3s-3.9 1.7-3.9 4.4c0 2.6 1.8 4.3 3.9 4.3s3.9-1.7 3.9-4.4z"/><path fill="#e6e6e6" d="m231.2 305.8 1.4-2.1c1.4 1.1 3 1.7 4.4 1.7s2.1-.5 2.1-1.5-1.3-1.4-2.8-1.8c-.1 0-.2-.1-.2-.1-2-.6-4.2-1.4-4.2-4s2.1-4.1 4.8-4.1c1.7 0 3.5.6 5 1.5l-1.2 2.2c-1.3-.8-2.6-1.3-3.8-1.3s-1.9.5-1.9 1.4 1.3 1.4 2.8 1.8c.1 0 .2.1.2.1 2 .6 4.2 1.5 4.2 4 0 2.9-2.2 4.2-5 4.2-2 0-4.1-.7-5.8-2z"/><path fill="#e6e6e6" d="m360.6 298.6c0-5.1 4.1-9.2 9.3-9.2s9.2 4.2 9.2 9.2-4.1 9.2-9.3 9.2-9.2-4.2-9.2-9.2zm17.4-.1c0-4.5-3.5-8.2-8.2-8.2s-8.2 3.7-8.2 8.3c0 4.5 3.5 8.2 8.2 8.2s8.2-3.7 8.2-8.3zm-13.1-.1c0-2.8 2.1-5.1 5.1-5.1 1.9 0 2.9.6 3.9 1.5l-1.4 1.7c-.8-.7-1.5-1.1-2.5-1.1-1.7 0-2.8 1.4-2.8 3.1s1.1 3 2.8 3c1.1 0 1.7-.5 2.5-1.1l1.4 1.4c-1.1 1.1-2.1 1.7-4 1.7-2.8.1-5-2.2-5-5.1z"/><path fill="#e6e6e6" d="m380.5 289.7h3.4l4.2 13.2 4.4-13.3h2.6l4.4 13.3 4.2-13.2h3.3l-6.2 18h-2.7l-4.4-12.8-4.4 12.8h-2.7z"/><path fill="#e6e6e6" d="m406.7 300.8c0-3.9 3.1-7 7.2-7 4.2 0 7.2 3.2 7.2 7s-3.1 7-7.3 7c-4.1 0-7.1-3.1-7.1-7zm11.3 0c0-2.3-1.7-4.3-4.2-4.3s-4.1 2-4.1 4.3 1.7 4.3 4.1 4.3c2.7.1 4.2-1.9 4.2-4.3z"/><path fill="#e6e6e6" d="m423.3 294h3.1v3c.8-2 2.4-3.4 4.8-3.3v3.2h-.2c-2.7 0-4.6 1.7-4.6 5.4v5.1h-3.1z"/><path fill="#e6e6e6" d="m433 288.9h3.1v11.1l5.6-6h3.8l-5.4 5.5 5.5 8h-3.5l-4.1-5.8-1.9 2v3.9h-3.1z"/><path fill="#e6e6e6" d="m445.6 300.8c0-3.9 3.1-7 7.2-7 4.2 0 7.2 3.2 7.2 7s-3.1 7-7.3 7c-4.1 0-7.1-3.1-7.1-7zm11.3 0c0-2.3-1.7-4.3-4.2-4.3s-4.1 2-4.1 4.3 1.7 4.3 4.1 4.3c2.6.1 4.2-1.9 4.2-4.3z"/><path fill="#e6e6e6" d="m462.1 302.6v-8.6h3.1v7.6c0 2.1 1.1 3.3 2.9 3.3s3-1.3 3-3.3v-7.6h3.1v13.4h-3.1v-2.1c-.8 1.3-2.1 2.3-4.2 2.3-3.1.2-4.8-1.8-4.8-5z"/><path fill="#e6e6e6" d="m477.8 303.8v-7.1h-1.8v-2.7h1.7v-3.7h3.1v3.7h3.6v2.6h-3.6v6.6c0 1.2.6 1.7 1.7 1.7.7 0 1.3-.2 1.9-.5v2.5c-.8.5-1.7.7-2.8.7-2.2.1-3.8-.9-3.8-3.8z"/><path fill="#e6e6e6" d="m487.1 289.7h3.2v15h9.4v2.9h-12.5v-17.9z"/><path fill="#e6e6e6" d="m509.9 307.5v-1.7c-.9 1.1-2.3 2-4.4 2-2.6 0-4.8-1.4-4.8-4.2 0-3 2.3-4.4 5.4-4.4 1.7 0 2.6.2 3.7.5v-.2c0-1.9-1.2-2.9-3.3-2.9-1.5 0-2.6.3-3.9.8l-.8-2.5c1.5-.7 2.9-1.1 5.1-1.1 4 0 5.9 2.1 5.9 5.7v8zm.1-5.6c-.8-.3-1.9-.5-3.1-.5-2 0-3.1.8-3.1 2.1s1.1 2 2.6 2c2 0 3.5-1.1 3.5-2.9z"/><path fill="#e6e6e6" d="m518.8 305.5v2.1h-3.1v-18.7h3.1v7.4c1-1.4 2.4-2.5 4.5-2.5 3.2 0 6.3 2.5 6.3 7s-3.1 7-6.3 7c-2.2 0-3.5-1.1-4.5-2.3zm7.7-4.7c0-2.6-1.7-4.3-3.9-4.3s-3.9 1.7-3.9 4.4c0 2.6 1.8 4.3 3.9 4.3s3.9-1.7 3.9-4.4z"/><path fill="#e6e6e6" d="m530.8 305.8 1.4-2.1c1.4 1.1 3 1.7 4.4 1.7s2.1-.5 2.1-1.5-1.3-1.4-2.8-1.8c-.1 0-.2-.1-.2-.1-2-.6-4.2-1.4-4.2-4s2.1-4.1 4.8-4.1c1.7 0 3.5.6 5 1.5l-1.2 2.2c-1.3-.8-2.6-1.3-3.8-1.3s-1.9.5-1.9 1.4 1.3 1.4 2.8 1.8c.1 0 .2.1.2.1 2 .6 4.2 1.5 4.2 4 0 2.9-2.2 4.2-5 4.2-1.9 0-4.1-.7-5.8-2z"/><path fill="#e6e6e6" d="m659.5 298.6c0-5.1 4.1-9.2 9.3-9.2s9.2 4.2 9.2 9.2-4.1 9.2-9.3 9.2-9.2-4.2-9.2-9.2zm17.3-.1c0-4.5-3.5-8.2-8.2-8.2s-8.2 3.7-8.2 8.3c0 4.5 3.5 8.2 8.2 8.2 4.8 0 8.2-3.7 8.2-8.3zm-13-.1c0-2.8 2.1-5.1 5.1-5.1 1.9 0 2.9.6 3.9 1.5l-1.4 1.7c-.8-.7-1.5-1.1-2.5-1.1-1.7 0-2.8 1.4-2.8 3.1s1.1 3 2.8 3c1.1 0 1.7-.5 2.5-1.1l1.4 1.4c-1.1 1.1-2.1 1.7-4 1.7-2.9.1-5-2.2-5-5.1z"/><path fill="#e6e6e6" d="m679.3 289.7h3.4l4.2 13.2 4.4-13.3h2.6l4.4 13.3 4.2-13.2h3.3l-6.2 18h-2.6l-4.4-12.8-4.4 12.8h-2.7z"/><path fill="#e6e6e6" d="m705.5 300.8c0-3.9 3.1-7 7.2-7 4.2 0 7.2 3.2 7.2 7s-3.1 7-7.3 7c-4 0-7.1-3.1-7.1-7zm11.3 0c0-2.3-1.7-4.3-4.2-4.3s-4.1 2-4.1 4.3 1.7 4.3 4.1 4.3c2.7.1 4.2-1.9 4.2-4.3z"/><path fill="#e6e6e6" d="m722.1 294h3.1v3c.8-2 2.4-3.4 4.8-3.3v3.2h-.2c-2.7 0-4.6 1.7-4.6 5.4v5.1h-3.1z"/><path fill="#e6e6e6" d="m731.8 288.9h3.1v11.1l5.6-6h3.8l-5.4 5.5 5.5 8h-3.5l-4.1-5.8-1.9 2v3.9h-3.1z"/><path fill="#e6e6e6" d="m744.4 300.8c0-3.9 3.1-7 7.2-7 4.2 0 7.2 3.2 7.2 7s-3.1 7-7.3 7c-4.1 0-7.1-3.1-7.1-7zm11.3 0c0-2.3-1.7-4.3-4.2-4.3s-4.1 2-4.1 4.3 1.7 4.3 4.1 4.3c2.6.1 4.2-1.9 4.2-4.3z"/><path fill="#e6e6e6" d="m760.9 302.6v-8.6h3.1v7.6c0 2.1 1.1 3.3 2.9 3.3s3-1.3 3-3.3v-7.6h3.1v13.4h-3.1v-2.1c-.8 1.3-2.1 2.3-4.2 2.3-3.1.2-4.8-1.8-4.8-5z"/><path fill="#e6e6e6" d="m776.6 303.8v-7.1h-1.7v-2.7h1.7v-3.7h3.1v3.7h3.6v2.6h-3.6v6.6c0 1.2.6 1.7 1.7 1.7.7 0 1.3-.2 1.9-.5v2.5c-.8.5-1.7.7-2.8.7-2.3.1-3.9-.9-3.9-3.8z"/><path fill="#e6e6e6" d="m785.9 289.7h3.2v15h9.4v2.9h-12.5v-17.9z"/><path fill="#e6e6e6" d="m808.7 307.5v-1.7c-.9 1.1-2.3 2-4.4 2-2.6 0-4.8-1.4-4.8-4.2 0-3 2.3-4.4 5.4-4.4 1.7 0 2.6.2 3.7.5v-.2c0-1.9-1.2-2.9-3.3-2.9-1.5 0-2.6.3-3.9.8l-.8-2.5c1.5-.7 2.9-1.1 5.1-1.1 4 0 5.9 2.1 5.9 5.7v8zm.1-5.6c-.8-.3-1.9-.5-3.1-.5-2 0-3.1.8-3.1 2.1s1.1 2 2.6 2c2 0 3.5-1.1 3.5-2.9z"/><path fill="#e6e6e6" d="m817.6 305.5v2.1h-3.1v-18.7h3.1v7.4c1-1.4 2.4-2.5 4.5-2.5 3.2 0 6.3 2.5 6.3 7s-3.1 7-6.3 7c-2.1 0-3.5-1.1-4.5-2.3zm7.7-4.7c0-2.6-1.7-4.3-3.9-4.3-2.1 0-3.9 1.7-3.9 4.4 0 2.6 1.8 4.3 3.9 4.3 2.2 0 3.9-1.7 3.9-4.4z"/><path fill="#e6e6e6" d="m829.6 305.8 1.4-2.1c1.4 1.1 3 1.7 4.4 1.7s2.1-.5 2.1-1.5-1.3-1.4-2.8-1.8c-.1 0-.2-.1-.2-.1-2-.6-4.2-1.4-4.2-4s2.1-4.1 4.8-4.1c1.7 0 3.5.6 5 1.5l-1.2 2.2c-1.3-.8-2.6-1.3-3.8-1.3s-1.9.5-1.9 1.4 1.3 1.4 2.8 1.8c.1 0 .2.1.2.1 2 .6 4.2 1.5 4.2 4 0 2.9-2.2 4.2-5 4.2-1.9 0-4-.7-5.8-2z"/><path fill="#e6e6e6" d="m206.3 434.2c0-5.1 4.1-9.2 9.3-9.2s9.2 4.2 9.2 9.2-4.1 9.2-9.3 9.2-9.2-4.1-9.2-9.2zm17.4-.1c0-4.5-3.5-8.2-8.2-8.2s-8.2 3.7-8.2 8.3c0 4.5 3.5 8.2 8.2 8.2s8.2-3.7 8.2-8.3zm-13.1-.1c0-2.8 2.1-5.1 5.1-5.1 1.9 0 2.9.6 3.9 1.5l-1.4 1.7c-.8-.7-1.5-1.1-2.5-1.1-1.7 0-2.8 1.4-2.8 3.1s1.1 3 2.8 3c1.1 0 1.7-.5 2.5-1.1l1.4 1.4c-1.1 1.1-2.1 1.7-4 1.7-2.9.1-5-2.2-5-5.1z"/><path fill="#e6e6e6" d="m226.1 425.3h3.4l4.2 13.2 4.4-13.3h2.6l4.4 13.3 4.2-13.2h3.3l-6.2 18h-2.7l-4.4-12.8-4.4 12.8h-2.7z"/><path fill="#e6e6e6" d="m252.4 436.4c0-3.9 3.1-7 7.2-7 4.2 0 7.2 3.2 7.2 7s-3.1 7-7.3 7c-4.1 0-7.1-3.1-7.1-7zm11.2 0c0-2.3-1.7-4.3-4.2-4.3s-4.1 2-4.1 4.3 1.7 4.3 4.1 4.3c2.7.1 4.2-1.9 4.2-4.3z"/><path fill="#e6e6e6" d="m269 429.7h3.1v3c.8-2 2.4-3.4 4.8-3.3v3.2h-.2c-2.7 0-4.6 1.7-4.6 5.4v5.1h-3.1z"/><path fill="#e6e6e6" d="m278.6 424.5h3.1v11.1l5.6-6h3.8l-5.4 5.5 5.5 8h-3.5l-4.1-5.8-1.9 2v3.9h-3.1z"/><path fill="#e6e6e6" d="m291.3 436.4c0-3.9 3.1-7 7.2-7 4.2 0 7.2 3.2 7.2 7s-3.1 7-7.3 7c-4.1 0-7.1-3.1-7.1-7zm11.2 0c0-2.3-1.7-4.3-4.2-4.3s-4.1 2-4.1 4.3 1.7 4.3 4.1 4.3c2.6.1 4.2-1.9 4.2-4.3z"/><path fill="#e6e6e6" d="m307.7 438.2v-8.6h3.1v7.6c0 2.1 1.1 3.3 2.9 3.3s3-1.3 3-3.3v-7.6h3.1v13.4h-3.1v-2.1c-.8 1.3-2.1 2.3-4.2 2.3-3 .2-4.8-1.8-4.8-5z"/><path fill="#e6e6e6" d="m323.4 439.4v-7.1h-1.7v-2.6h1.7v-3.7h3.1v3.7h3.6v2.6h-3.6v6.6c0 1.2.6 1.7 1.7 1.7.7 0 1.3-.2 1.9-.5v2.5c-.8.5-1.7.7-2.8.7-2.3 0-3.9-.9-3.9-3.9z"/><path fill="#e6e6e6" d="m332.7 425.3h3.2v15h9.4v2.9h-12.5v-17.9z"/><path fill="#e6e6e6" d="m355.5 443.1v-1.7c-.9 1.1-2.3 2-4.4 2-2.6 0-4.8-1.4-4.8-4.2 0-3 2.3-4.4 5.4-4.4 1.7 0 2.6.2 3.7.5v-.2c0-1.9-1.2-2.9-3.3-2.9-1.5 0-2.6.3-3.9.8l-.8-2.5c1.5-.7 2.9-1.1 5.1-1.1 4 0 5.9 2.1 5.9 5.7v8zm.1-5.6c-.8-.3-1.9-.5-3.1-.5-2 0-3.1.8-3.1 2.1s1.1 2 2.6 2c2 0 3.5-1.1 3.5-2.9z"/><path fill="#e6e6e6" d="m364.4 441.1v2.1h-3.1v-18.7h3.1v7.4c1-1.4 2.4-2.5 4.5-2.5 3.2 0 6.3 2.5 6.3 7s-3.1 7-6.3 7c-2.1 0-3.5-1.1-4.5-2.3zm7.7-4.7c0-2.6-1.7-4.3-3.9-4.3-2.1 0-3.9 1.7-3.9 4.4 0 2.6 1.8 4.3 3.9 4.3 2.2 0 3.9-1.7 3.9-4.4z"/><path fill="#e6e6e6" d="m376.5 441.4 1.4-2.1c1.4 1.1 3 1.7 4.4 1.7s2.1-.5 2.1-1.5-1.3-1.4-2.8-1.8c-.1 0-.2-.1-.2-.1-2-.6-4.2-1.4-4.2-4s2.1-4.1 4.8-4.1c1.7 0 3.5.6 5 1.5l-1.2 2.2c-1.3-.8-2.6-1.3-3.8-1.3s-1.9.5-1.9 1.4 1.3 1.4 2.8 1.8c.1 0 .2.1.2.1 2 .6 4.2 1.5 4.2 4 0 2.9-2.2 4.2-5 4.2-2 0-4.1-.7-5.8-2z"/><path fill="#e6e6e6" d="m505.1 434.2c0-5.1 4.1-9.2 9.3-9.2s9.2 4.2 9.2 9.2-4.1 9.2-9.3 9.2-9.2-4.1-9.2-9.2zm17.4-.1c0-4.5-3.5-8.2-8.2-8.2s-8.2 3.7-8.2 8.3c0 4.5 3.5 8.2 8.2 8.2s8.2-3.7 8.2-8.3zm-13.1-.1c0-2.8 2.1-5.1 5.1-5.1 1.9 0 2.9.6 3.9 1.5l-1.4 1.7c-.8-.7-1.5-1.1-2.5-1.1-1.7 0-2.8 1.4-2.8 3.1s1.1 3 2.8 3c1.1 0 1.7-.5 2.5-1.1l1.4 1.4c-1.1 1.1-2.1 1.7-4 1.7-2.9.1-5-2.2-5-5.1z"/><path fill="#e6e6e6" d="m525 425.3h3.4l4.2 13.2 4.4-13.3h2.6l4.4 13.3 4.2-13.2h3.3l-6.2 18h-2.7l-4.4-12.8-4.4 12.8h-2.7z"/><path fill="#e6e6e6" d="m551.2 436.4c0-3.9 3.1-7 7.2-7 4.2 0 7.2 3.2 7.2 7s-3.1 7-7.3 7c-4.1 0-7.1-3.1-7.1-7zm11.2 0c0-2.3-1.7-4.3-4.2-4.3s-4.1 2-4.1 4.3 1.7 4.3 4.1 4.3c2.7.1 4.2-1.9 4.2-4.3z"/><path fill="#e6e6e6" d="m567.8 429.7h3.1v3c.8-2 2.4-3.4 4.8-3.3v3.2h-.2c-2.7 0-4.6 1.7-4.6 5.4v5.1h-3.1z"/><path fill="#e6e6e6" d="m577.5 424.5h3.1v11.1l5.6-6h3.8l-5.4 5.5 5.5 8h-3.5l-4.1-5.8-1.9 2v3.9h-3.1z"/><path fill="#e6e6e6" d="m590.1 436.4c0-3.9 3.1-7 7.2-7 4.2 0 7.2 3.2 7.2 7s-3.1 7-7.3 7c-4.1 0-7.1-3.1-7.1-7zm11.2 0c0-2.3-1.7-4.3-4.2-4.3s-4.1 2-4.1 4.3 1.7 4.3 4.1 4.3c2.6.1 4.2-1.9 4.2-4.3z"/><path fill="#e6e6e6" d="m606.5 438.2v-8.6h3.1v7.6c0 2.1 1.1 3.3 2.9 3.3s3-1.3 3-3.3v-7.6h3.1v13.4h-3.1v-2.1c-.8 1.3-2.1 2.3-4.2 2.3-3 .2-4.8-1.8-4.8-5z"/><path fill="#e6e6e6" d="m622.2 439.4v-7.1h-1.7v-2.6h1.7v-3.7h3.1v3.7h3.6v2.6h-3.6v6.6c0 1.2.6 1.7 1.7 1.7.7 0 1.3-.2 1.9-.5v2.5c-.8.5-1.7.7-2.8.7-2.3 0-3.9-.9-3.9-3.9z"/><path fill="#e6e6e6" d="m631.5 425.3h3.2v15h9.4v2.9h-12.5v-17.9z"/><path fill="#e6e6e6" d="m654.3 443.1v-1.7c-.9 1.1-2.3 2-4.4 2-2.6 0-4.8-1.4-4.8-4.2 0-3 2.3-4.4 5.4-4.4 1.7 0 2.6.2 3.7.5v-.2c0-1.9-1.2-2.9-3.3-2.9-1.5 0-2.6.3-3.9.8l-.8-2.5c1.5-.7 2.9-1.1 5.1-1.1 4 0 5.9 2.1 5.9 5.7v8zm.1-5.6c-.8-.3-1.9-.5-3.1-.5-2 0-3.1.8-3.1 2.1s1.1 2 2.6 2c2 0 3.5-1.1 3.5-2.9z"/><path fill="#e6e6e6" d="m663.3 441.1v2.1h-3.1v-18.7h3.1v7.4c1-1.4 2.4-2.5 4.5-2.5 3.2 0 6.3 2.5 6.3 7s-3.1 7-6.3 7c-2.2 0-3.6-1.1-4.5-2.3zm7.7-4.7c0-2.6-1.7-4.3-3.9-4.3s-3.9 1.7-3.9 4.4c0 2.6 1.8 4.3 3.9 4.3s3.9-1.7 3.9-4.4z"/><path fill="#e6e6e6" d="m675.3 441.4 1.4-2.1c1.4 1.1 3 1.7 4.4 1.7s2.1-.5 2.1-1.5-1.3-1.4-2.8-1.8c-.1 0-.2-.1-.2-.1-2-.6-4.2-1.4-4.2-4s2.1-4.1 4.8-4.1c1.7 0 3.5.6 5 1.5l-1.2 2.2c-1.3-.8-2.6-1.3-3.8-1.3s-1.9.5-1.9 1.4 1.3 1.4 2.8 1.8c.1 0 .2.1.2.1 2 .6 4.2 1.5 4.2 4 0 2.9-2.2 4.2-5 4.2-2 0-4.1-.7-5.8-2z"/></g>
</svg>
