<?xml version="1.0" encoding="utf-8"?>
<!-- Generator: Adobe Illustrator 23.0.1, SVG Export Plug-In . SVG Version: 6.00 Build 0)  -->
<svg version="1.2" baseProfile="tiny" id="Layer_1" xmlns="http://www.w3.org/2000/svg" xmlns:xlink="http://www.w3.org/1999/xlink"
	 x="0px" y="0px" viewBox="0 0 900 600" xml:space="preserve">
<g>
	<path d="M169.46,412.96l0.1-0.1C169.56,412.81,169.49,412.92,169.46,412.96z"/>
	<path d="M288.36,386.08C288.54,386.26,288.47,386.16,288.36,386.08L288.36,386.08z"/>
	<path d="M467.62,479.21c-6.77-4.81-19.07-9.73-24.58-18.79c1.6-4.4-2.09-6.4-4.2-8.99c-1.39-1.71-3.2-0.9-4.9,0.6
		c1.31-27.46,0.76-26.08,4-39.17c6.97-28.14,3.45-31.72,5.5-42.07c1.55-7.8-2.42-11.4-1-17.79c1.57-7.07-2.67-6.37-3.1-8.09
		c-2.38-7.62-7.29-4.49-39.17-23.38c-10.46-6.2-28.38-9.77-28.48-9.79c-4.31-1.06-5.13-5.58-17.99,4.5c8.79-5.6,17.69-3.8,26.58-0.5
		c-5.7,4.1-8.19,10.39-10.39,16.99c-6.05,18.15-10.29,17.64-18.59,28.38c1.6,2.2-0.6,5.1,1.9,7.49c-5,0.4-5.2-5.2-9.49-5.6
		c6.1-8.59,9.48-18.09,14.89-26.38c1.89-2.9,1.1-6.1,2.3-9.19c2.7-2.6,6.2-3.3,8.29-5.9c-3,0.4-5.1,2.9-7.99,3.9
		c-0.6-2.3-2.1-4.1-3.1-6.39c-0.9-0.7-2.2-0.39-3.3-1.2c-13.15-9.67-35-1.9-38.37,12.29c2.1,1.8,0.6,4.6,1,7.09
		c-5.99-7.7-11.6-20.93-36.37-14.19c-1.86,0.51-6.22,4.19,4.2,1.5c5.25-1.36,18.34-2.45,21.98,2.5c2.37,3.22,4.8,6.3,7.39,9.69
		c-6.69-2.5-13.39-2.3-20.08-2.5c-1.65,6.4-18.49,4.73-16.69,27.28c1.05,13.1,5.38,18.9,10.5,24.58c2.75,0,2.43-0.88-0.41,7.99
		c-10.51,5.25-31.22-61.39-16.49-17.19c-8.83-7.15-13.59-4.83-13.59-12.39c1.6,0.7,1,3.2,3.2,3.3c1.39-3.25-3.6-4.76-3.6-24.88
		c0-6.77,5.33-10.28,4.9-11.59c-1.1-1.2-2,0.7-3.3,0.3c9.46-10.85,14.05-17.88,23.98-17.29c8.78,0.52,21.97-2.54,24.18-5.1
		c0.76-0.88,14.19-1.3,16.19-1.2c1.8,0.09,3.4-0.2,4-2c3.7-0.2,6.99,0.3,10.39,0.6c-0.3,1.1-1.5,0.3-2,1.1c2.4,0.7,4.7-0.8,6.99,0
		c9.42,2.69-23.54,6.22-22.38,9.69c37.7-9.73,30.95-9.61,35.57-7.69c7.55,3.13-0.68-5.43-10.09-2.8c-4.2-4.2-9.92-0.47-13.59-4.6
		c-1.13-1.27-2.3-2.5-4.1-2.8c-1.29-0.32-14.06-13.71-18.69-21.78c-3.27-5.71-4.49-12.29-7.79-17.89
		c-5.16-8.74-1.96-2.63-11.69-12.79c3.3-2.3,3.9-6.19,6-9.19c5.01-7.19,3.57-15.77,5.6-23.58c0.69-2.65-1.52-7.8,2.7-13.69
		c2.55-3.56,3.81-8.39,5.9-12.49c9.43-18.56,3.41-36.5,5.8-49.76c26.91,41.59,78.65,26.94,79.34-21.98
		c0.07-4.77-2.82-3.54,15.79-5.3c0.6-1.2,1.4-2.3,1.8-3.6c1.3-3.5-1.69-6.95-5.3-6.49c-15.72,1.98-13.08,2.27-14.69-3.4
		c-7.03-24.85-26.65-40.2-51.16-34.67c-21.68,4.89-29.46,20.44-32.57,42.27c0,1.66-7.15,1.33-8.79,1.1
		c-5.06-0.72-2.62,5.31-12.29,5.5c-9.03,0.18-128.09,12.18-128.2,12.19c-2.5-2.5-6.13-3.34-9.29-5.1c-1.92-1.06-4.2-0.52-5.7-0.2
		c-21.42,4.63-7.77,7.13-19.78-17.09c-11.37-22.91-28.18-29.62-48.46-26.88c-28.43,3.84-38.87,30.67-38.87,59.35
		c-0.1,0.01-28.65,2.69-32.67,2.6c-3.5-0.08-6.37,4.98-4.7,7.99c3.32,5.97,5.35,2.04,37.97,0.4c1.52,2.74,1.72,15.68,12.19,31.18
		c20.25,29.96,72.93,29.36,81.64-23.68c3.81,2.69,0.71,8.53,9.29,32.37c1.29,3.59,5.22,20.64,8.69,26.18
		c2.62,4.18,4.7,8.59,6.2,13.09c-8.41,13.26-10.15,14.3-7.29,18.39c11.46,16.38,19.7,21,21.88,25.18c2.23,4.28,6.03,7.34,8.69,11.29
		c0.81,1.2,3.34,6.26,7.59,9.79c6.88,5.71,12.89,12.29,17.49,19.78c-14.89,36.77-34.67,71.04-46.56,108.61
		c-46.08,10.84-41.37-0.58-53.26,23.98c4.9-3.1,6.59-8.59,9.59-13.49c14.99-3.5,30.68-4.8,45.76-8.99c1-3.9,3.34-7.18,4.5-10.99
		c11.16-36.64,26.9-57.67,40.97-97.22c2.1,2.7,4,5,5.8,7.39c-6.15,23.1-17.04,34.44-28.68,65.75c-4.95,13.32-7.99,16.2-14.09,27.78
		c-2.44,5.57,8.55-5.65,19.28-36.07c7.55-21.38,16.74-30.19,23.18-52.86c1.23-4.33,0.45-4.43,6,2.6
		c-13.03,30.23-15.96,45.2-26.28,59.75c-4.84,6.82-2.82,9.36-6.2,14.59c-2.9,4.49-4.2,9.69-6.4,14.59c1.9,0.9,2.6-0.5,2.8-1.5
		c1.8-6.99,6.41-12.79,8.09-19.78c1.11-4.59,4.2-8.29,6.49-12.29c7.82-13.6,15.68-38.96,21.08-51.56
		c2.93-6.83,0.46,2.02,43.47,51.66c0.8,0.7,1.3-1.1,2.3-0.2c2.79,2.5,6.39,3.91,9.49,6c12.32,8.28,0.8,2.7,14.09,11.39
		c-1.3,2.9-2.7,5.9-3.2,9.09c-47.24,8.26-43.48,7.98-44.67,7.09c-12.36-9.29-31.22-1.47-44.37-0.8c-5.75,0.29-19.61,1.64-23.98,5.8
		c37.97,0.7,75.34-1.4,112.51-10.19c-0.4,11.79,2.8,22.48,3.8,33.57c-4.04,1.05,8.16-1.08-38.57-6.49
		c-28-3.25-32.24-2.57-79.94-8.09c-0.9-0.1-1.8-0.3-3.3,0.7c7.09,1.9,13.89,1.9,20.38,3.3c-21.78,4.4-43.87,6.79-65.65,11.99
		c2.1-3.5,3.4-7.29,5.4-11.09c24.78-4.29,34.74-5.26,44.96-9.09c-0.4-1.6-1.3-1.19-2-1c-13.75,3.76-27.87,5.13-41.87,7.49
		c-4.01,0.68-5.39-1.38-10.69-0.9c2.2,2,4.9,2.5,7.29,3.7c-1.9,4-3.6,8.09-6,12.19c-3.7-0.5-7.09-2.8-10.89-2.7
		c-0.3,1.3,0.5,1.6,1.2,1.9c11.19,3.82,6.04,1.2,54.46-6.1c33.56-5.05,24.53-6.06,39.17-4.7c23.3,2.17,74.02,6.53,86.13,11.79
		c0.6,12.79,3.7,25.58,1.8,38.57c-0.8,0.8-1.9-0.2-2.4,0.6c-0.8,1,0.2,1.9-0.3,3.1c-1.7,0.1-2.76,1.21-3.1,3
		c-0.27,1.41-0.98,2.9-0.9,4.3c0.37,6.09-2.52,11.79-2.4,17.89c0.24,12.11,6.89,6.33,10.29,11.19c5.48,7.84,13.4,11.13,22.48,12.39
		c24.55,3.41,22.09-1.2,26.68-1.2c7.56,0,5.54-11.93-4-11.49c-0.8-1.8-1.78-3.62-3.5-4.8c-4.94-3.38-7.13-8.67-10.19-13.49
		c-0.51-0.8-1.3-1.8,0.4-2.4c-1.4-3.4-3.1-6.59-5.4-9.69c0.7-1.5,1.8-3,1.1-4.9c4.8-1.9,9.89-1.5,14.39-3.8
		c-4.8,0.6-9.59,1.1-14.59,2.4c-1.7-1.9-3.6-3.7-6.4-3.7c-2.3-17.99,2-34.37,10.69-49.96c19.28,47.63,11.97,38.39,15.09,35.27
		c1.8,1.8,2.5,4.5,4.8,5.9c-0.4-4.3-3.9-7.19-5.3-11.79c4.1,4.4,7.59,8.19,12.09,11.29c3.05-4.22,8.07-0.02,28.78-6.79
		c2.35-0.77,2.36-0.38,10.69,2.4c4.2,1.4,7.09,5.8,6.89,10.89c-24.78,5.2-49.16,12.29-74.74,17.39c3.52,3.27,63.31-14.2,73.84-15.19
		c0.86,1.41-0.57,9.59,18.59,12.09c5.49,0.72,8.06-1.77,11.79-1.1c30.96,5.59,7.7,2.24,39.67,9.39c7.3,1.63,9.35-4.9,14.49-7.49
		c3.07-1.55,3.63-4,3.4-7.09C480.5,478.71,473.62,483.47,467.62,479.21z M412.27,105.2c0.41,1.7-1.1,3.71-3,3.9
		c-15.16,1.5-13.07,2.78-13.79-5.1C408.81,102.84,411.33,101.35,412.27,105.2z M3.49,144.67c-1.7-2.8-1.7-2.9,1.1-6
		C10.26,142.65,5.31,145.71,3.49,144.67z M7.88,145.37c9.24-8.87-29.76-6.12,73.14-13.49c4.82-0.34,5.75,2.42,4.2,5.3
		C82.08,139.14,85.97,138.41,7.88,145.37z M84.92,140.17c2.9-2,3.38-4.69,2.3-7.59c-1.22-3.29-4.5-2.5-7.49-2.9
		c10-9.6,18.37,9.21,7.09,13.49C85.82,142.37,85.52,141.17,84.92,140.17z M89.32,164.56c-5.23,0.87-3.3-10.38-6.59-22.48
		c-0.1-0.5,0.1-1.1,1-1.4C87.62,148.27,92.62,155.56,89.32,164.56z M81.63,141.17c-4.7,7.19-5.2,15.69-6.79,24.08
		c-16.75-4.34-0.04-18.65,3.2-23.38C78.84,140.68,80.13,140.67,81.63,141.17z M41.16,144.57c4.74-0.89,3.97-0.68,5,3.8
		c7.63,33.36,32.36,45.03,41.27,38.67c-21.78,3.14-35.48-20.76-39.17-37.07c-1.8-7.97-6.03-5.65,27.08-8.49
		c0.91,1.82,0.65-2.9-10.69,14.29c0.3,7.59,4.9,12.09,12.29,11.19c2.83-16.52,3.04-18.64,4.8-21.78c-0.55,9.33,1.55,13.47,0.7,17.59
		c-0.99,4.82,12.79,10.67,11.19-4c-0.58-5.3-2.6-9.99-5.8-14.19c17.68-10.25-3.25-29.65-10.29-14.39c-10.39,0.9-20.78,1.9-31.58,2.8
		c-0.21-30.67,18.5-54.39,33.97-50.56c2.4,0.59,4.9,0.3,7.29,0c-5.5-2.1-11.1-3.61-16.89-0.9c-19.52,9.15-24.96,29.83-26.28,51.46
		c-1.3,0.3-2.4,0.7-3.8-0.1c0.31-50.25,35.48-69.82,59.75-46.96c13.51,12.72,23.82,38.81,18.19,68.35
		C108.46,205.29,54.37,209.49,41.16,144.57z M90.12,193.73c44.05-13.51,41.63-104.45-6.1-118.61
		C145.87,72.63,148.64,197.85,90.12,193.73z M294.06,311.14c-0.51-0.51,0.72-0.4,2.6-0.4C296.66,311.14,296.88,310.83,294.06,311.14
		z M302.75,307.94c3.9-4.5,8.99-2.4,13.69-2.8C311.85,306.24,307.15,306.14,302.75,307.94z M315.04,129.78
		c-3.19,5.32,2.51,38.12-2.6,49.96c-13.12,30.44-11.09,15.39-13.29,39.27c-0.51,5.5-0.62,10.88-3.5,15.89
		c-2.12,3.69-2.9,8.09-6.49,10.89c-23.48-14.87-20.08-8.54-42.07-14.29c18.71-8.66,21.24-6.02,22.98-13.39
		c1.74-7.38,6.98-21.69,12.39-28.08c4.83-5.69,1.24-12.68,7.99-22.58c5.23-7.67,7.77-16.5,11.09-24.88c1.78-4.5,3.3-9.39,1.3-14.39
		c2.2-0.7,4.6,0.8,7.29-0.7c-3-1.4-5.9-0.48-8.49-0.9c-3.5-0.57-4.2-3-6.4-4.6c3.6-2.1,3.1,2.5,5.1,2.6
		c-1.5-7.89-0.7-9.99,4.8-12.79c2,2-0.5,2.9-1.2,4.3c0.7,1.3,0.5,3,1.4,4.4c2.6-0.3,5.1-0.8,7.39,0.7c0.4-2.5,1.9-1.2,3.1-1.4
		C316.64,123.29,316.64,126.58,315.04,129.78z M306.55,116.29c0.5,0.2,0.9,0.6,1,1.5C306.05,117.59,306.05,117.59,306.55,116.29z
		 M312.45,108.4c4.14,1.04,3.3,1.61,3.3,6.99C315.24,112.9,314.44,110.7,312.45,108.4z M362.21,159.66
		c35.73-16.08,35.16-79.9-7.69-96.22C402.35,63.91,410.11,153.55,362.21,159.66z M313.45,94.91c8-32.29,37.8-39.83,56.86-20.48
		c16.99,17.25,22.26,49.38,6,72.24c-14.91,20.95-45.49,18.28-59.45-12.89c-0.49-1.1-1.09-2.69-0.4-3.6c2.52-3.28,1-7.09,1.6-10.79
		c5.5-0.4,10.99-0.9,16.49-1.4c6.98,13.19,20.45,9.8,23.58,2c8.35-20.8-17.46-34.44-24.68-12.79c-10.49,2.2-15.29,2-21.48-1
		C311.75,102.3,312.53,98.6,313.45,94.91z M317.74,110.9c8.59-0.8,16.89-1.53,25.28-2.1c5.31-0.36,6.49,5.94,0.7,6.49
		c-8.79,0.84-17.49,1.5-26.38,2.2C317.74,115.29,317.84,113.3,317.74,110.9z M354.41,119.29c-4.09,9.53-14.84,7.83-17.89-1.3
		c3.1-0.6,6.31-0.46,9.29-1.6c6.3-2.41,4.27-10.12-1.7-9.79c-2.8,0.15-5.6,0.4-8.79,0.7c0.2-4.6,4.3-8.76,7.89-9.19
		C351.77,97.08,358.97,108.66,354.41,119.29z M352.31,99.61c6.69,3.6,8.79,17.99,1.4,23.68C358.91,115.49,358.51,108.7,352.31,99.61
		z M312.05,117.89c0.2-3.6,0.2-6.79-2-9.49C313.45,110.9,314.34,114.69,312.05,117.89z M308.95,117.29c-1.7-3.2-2.1-6.99-4.5-9.79
		C310.36,108.16,312.63,116.02,308.95,117.29z M300.56,107.1c1.5,0.7,3.1,1.2,4.1,2.9c-3.08,2.24-2.67,2.1-4.9-0.4
		c-1,1.3-2,1.8-3.3,0.7C297.56,108.8,298.76,107.7,300.56,107.1z M162.76,125.59c45.96-5.3,91.63-9.29,137.49-12.89
		c-8.34,9.27,29.24,3.7-137.79,18.79C163.56,129.18,163.16,127.38,162.76,125.59z M298.96,127.78c5.25,2.37,3.89,0.49-3.6,25.78
		c-4.22,14.27-13.21,17.73-11.99,30.48c0.57,5.94-3.83,4.31-7.79,13.39c-2.76,6.31-5.7,12.47-6.99,19.18c-0.33,1.69-0.8,3.5-2,5
		c-5.4,0.33-8.92,2.71-22.08,9.19c-5.67,2.79-3.37,0.01-6.69,2.3c-4.15,2.85-2.78,1.41-7.89-2c3.33-13.46-8.77-19.25-8.19-21.68
		c0.85-3.59,0.7-4.2-2.7-5.8c-1.5-0.7-1.5-2.1-2.2-3.3c-3.8,0-5.6-3.6-8.69-4.7c0.6-1.7,2.3-1.8,2.5-3.1c-0.5-1-1.3,0.6-1.7-0.3
		c-0.2-1.6,0.6-3.2-0.1-4.3c-1.96-1.27-2.96,1.86-4.69,0.48c-0.04,1.83,2,2.24,2.59,3.82c-1.57,0-3.14-2.34-2.61-3.84
		c-0.57-0.38,2.41-0.59,2.41-3.16c-2.1-0.4-3.7,0.8-5.3,1.2c-1.2,1-0.5,2.9-2.2,3.4c-0.7-2.5,1.8-3.7,2.3-5.9
		c-1.9,0.3-2.4,2-3.6,2.7c-0.8-0.5,0.6-1.7-0.8-2c-0.97,0.32-2.38,4.79-4.7,4.2c-3.5-0.89-2.5,1.6-2.5,3.1
		c-5.4,1.7-7.69,5.9-9.09,10.99c-8.86-5.17-6.17-12.9-11.19-23.08c-11.43-23.18-16.67-22.64-17.59-34.07
		c1.53-2.84,6.89-4.08,10.49-12.49C333.29,118.06,283.75,120.91,298.96,127.78z M153.57,128.78c-1.4-3.2-2.8-5.9-3.7-8.89
		C153.67,120.69,155.77,125.39,153.57,128.78z M155.87,129.88c-0.1,2.4-1.1,1-2,0.7C154.57,129.68,155.27,129.88,155.87,129.88z
		 M149.07,121.99c1.98,4.98,5.41,10.3,0.5,8.99c0.5-4.7-2.8-7.59-5.4-10.99C146.78,118.99,148.36,120.2,149.07,121.99z
		 M146.88,131.48c-1.2-0.4-2.5-0.9-2.5-2.3c0-1.7-0.19-1.62-4.9-7.89C144.78,120.59,148.57,126.09,146.88,131.48z M143.08,128.58
		c-3.4,0.7-3.4-2-4.5-3.8c-1.7,0.6-2.9-0.5-4.5-1.5C137.58,119.29,139.67,123.68,143.08,128.58z M142.78,130.58
		c0.9-0.1,1.3,0.7,1.7,1.4c0.66,1.33-0.8,1.07-10.29,2.1c-0.2-2.5-0.4-4.5-0.6-6.4C137.98,124.89,139.28,130.98,142.78,130.58z
		 M167.86,260.18c-12.59-12.87-11.06-13.57-15.99-19.48c-0.91-1.09-1.31-2.51-0.5-3.5c2.07-2.52,2.6-5.9,4.9-8.99
		c0.3,2.9,1.9,4.4,3.5,5.8c-2.08,3.47-4.06,6.72-4.68,10.57c1.89-1.6,2.99-4.09,6.08-5.98c-1.1,4.2,1.7,7.49-0.3,11.09
		c0.6-0.4,1.1-0.6,1.6-0.8C168.11,257.37,168.77,257.45,167.86,260.18z M156.77,226.91c2.05-0.41,1.42-1.34,3,5.6
		C157.77,230.8,157.67,228.71,156.77,226.91z M160.46,236.3c0.1,0.6-0.2,1-0.9,1.3C159.17,236.5,159.47,236.1,160.46,236.3z
		 M171.36,261.58c14.34,9.18,4.49,4.22-2.2-6.1c-6.27-9.66-6.18-8.46-6.99-20.98c-0.18-2.8-0.01-6.09-1.1-8.29
		c-3.02-6.09-3.7-13.19-8.79-18.29c1.3-0.4,1.6,1.3,2.7,0.5c0.2-1.1-0.7-1.6-1.2-2.3c-12.46-17.44-8.05-16.79-10.09-22.18
		c-6.27-16.58-5.21-23.61-7.89-31.28c-1.68-4.8-2.2-9.79-1.6-14.69c4.5-3.3,10.59-1.7,14.49-5.8c2.8,1.5,6.1-1.1,8.79,1.6
		c-0.2-1.3-1.2-2.3-0.4-3.5c0.1-0.2-0.8-0.2-1.2-0.3c0.5-1.7,2.4,0.2,3-1.5c-3.4-1-2.9-4-3.6-6.49c2.2,2,5.1,3.1,6.79,5.6
		c-3.59,8.68-1.01,11.15-5.4,12.29c-2.89,0.75-5,2.5-6.99,4.4c0.9,7.39,3.4,14.08,7.99,19.78c5.96,7.4,12.07,21.7,12.09,22.98
		c0.13,6.79,5.55,14.96,6.4,15.39c8.67,4.44,14.39,21.96,14.39,30.58c0,3.2,1.4,5.6,3.9,7.89c0-1.7-1.3-2.8-0.7-4.8
		c3.5,5.2,5.71,10.29,6.89,15.79c1.12,5.19,6.49,10.49,12.69,11.29c-6.99-4.3-11.69-9.49-11.99-17.79c1.6-0.8,3.8-0.3,5.2-2
		c2.5,2,3.01,4.99,4.8,7.19c4.97,6.14,7.64,15.99,7.69,16.09c5.7,10.52,2.23,14.7-5.4,24.18c-5.32,6.61-16.84-8.51-26.68-9.89
		C184.59,280.63,175.22,269.9,171.36,261.58z M199.83,242.09c0.3-1.2,1.3-1.7,2.7-2.3C201.83,241.2,200.83,241.69,199.83,242.09z
		 M235.1,343.8c0-1.63,4.3-2.71,9.8-7.38c-9.4,2.42-9.01,11.44-13.79,2.4c-0.95-1.8-27.98-40.74-35.97-46.46
		c-3.27-2.34-6.1-5.4-9.1-8.2c5.6,2.2,11.39,3.7,15.69,7.89c0.3,0.6-0.7,1.2,0.1,2c1.5-0.1,2.59,1.58,4.3,1.2
		c1.82-0.41,3.11,0.53,4.27,1.67c-0.74-0.15-1.29-0.01-1.67,0.93c1.22,0.14,1.45-0.2,1.77-0.83c0.05-0.1,6.2-0.41,7.32,4.73
		c0.35,1.22,1.34,1.34,1.9,1.9c2.3,1.7,3,4.7,5.3,6.2c0.9-0.5-0.2-1.5,0.9-1.7c4.3,3.2,8.31,7.06,13.49,8.99
		c2.1,0.78,3.7,2.2,4.5,3.9c1.58,3.35,4.79,2.28,5.4,4.3c-0.4,1.3-1.4,3.39,0.6,4c3.6,1.09,4.3,4.2,5.9,6.79
		c-1.3,1.7-2.5,3.2-3.8,4.9c-4.57-4.84-4.58-7.52-6.1-6c3.6,5.2,7.59,10.39,5,17.39c0.6,0.1,0.9-1,1.8-0.3
		c1.3,5.8,3.7,11.49,3.8,17.89C247.79,362.39,242.39,352.2,235.1,343.8z M218.62,300.05c3,4.19,1.84,2.68,2.5,3.6
		c-1.62,0-1.31,0.09-1.7-0.3C219.62,302.15,218.02,301.55,218.62,300.05z M255.89,341.12c0,3.1,0,6.2,0,9.59
		C253.39,345.61,253.49,343.22,255.89,341.12z M254.9,329.53c0.7-2.7,3.1-4.2,4-6.89c-2.6,1.5-3.5,3.9-5.2,5.6
		c-0.86-0.75-0.19-1.42-0.29-2c0.69-0.11,0.69-0.6,0.89-1.1c-0.75,0.09-0.96,0.46-0.9,1c-1.1-0.1-0.8,1.6-2.3,1.4
		c1.6-3.8-0.8-5.3-3.9-6.3c1.8-2.7,3.5-5.2,5.5-8.19c-3.5,1.4-5.1,4-7.09,6.3c-4-3.8-9.29-5.6-13.39-9.59
		c2.3-10.59-3.8-17.69-11.19-24.08c2.92,7.67,8.75,4.25,10.39,23.58c-10.59-5.65-10.58-12.25-17.29-13.79
		c-6.55-2.18,14.4-8.59,7.69-28.28c-5.02-14.76-11.15-19.89-14.79-26.88c1.75,0,3.5-0.23,4.38-0.56c-4.03-0.99-8.25-2.39-12.57,0.26
		c-1.4-2.3-3.8-3.8-5.1-6.2c4.5-2,4.5-2,3.9-4.5c-1,1.6-2.2,2.6-3.9,2.2c-0.8-1.3,0.8-1.5,0.8-2.6c-2.7-1.3-2.5-4-3.2-6.49
		c1.8,0.4,2.6,2.3,5.1,1.8c-9.86-12.67-10.17-12.8-5.7-25.08c1.39-3.83,4.89-2.29,7.89-5.3c6.49,2.1,12.29,4.9,17.69,8.99
		c-1.4,0.7-2.3-0.8-3.2,0.3c2.28,2.7,8.02-0.58,7.09,5.6c-0.22,1.5,0.6,2.5,0.7,3.5c0.9,1.1,2.2,1,2.7,2c-2.8-0.1-4.7,2-7.09,2.9
		c4.77,0.72,8.08-4.62,9.69,1.3c0.19,0.7,0.5,1.6,1,2.1c3.92,3.97,0.8,8.59,1.3,12.89c3-0.6,3.5,2.9,6.3,3.9
		c-14.22,2.4-20.13-0.65-23.15,2.37c0,0.1,17.99,0.81,27.94-2.17c2.3-0.69,5.5,0.7,6.3-2.7c5.4-0.4,10.39,1.29,15.39,1.5
		c6.99,0.29,12.92,2.85,18.69,6.4c7.59,4.66,3.2,2.42,3.4,4.4c4.6,2.1,8.89,4.8,11.89,8.69c0.9,0.5,1-0.8,2.2,0
		c10.43,16.59,1.13,7.28,10.79,22.58c-10.32-5.16-8.57-4.76-9.99-5c1.35,1.93,2.55,1.81,2.7,2.1c5.53,4.84,6.88,1.82,10.99,7.99
		c1.8,2.7,3.31,5.58,5.8,7.59c4.42,3.57,7.89,8.09,12.49,12.49c-11.19-3.9-22.58-4.7-33.27-8.19c8.79,4.6,18.59,5.7,28.18,7.69
		c-4.2,1.58-21.59-3.31-24.18,5.5c-9.29,0.4-18.88-0.7-26.58,4.9c-7.29,5.3-13.49,12.09-17.38,20.58
		C256.3,332.52,256.7,330.33,254.9,329.53z M258.19,371.69c5.4,2.7,7.09,4.1,8.99,7.49C263.88,376.59,260.59,374.79,258.19,371.69z
		 M268.08,375.59c3.8,2.3,6,5.3,6.4,8.69C271.08,381.79,270.88,381.49,268.08,375.59z M182.85,416.86c0.14-2.98-1.75-0.16,36.27-5.7
		c5.4-0.79,10.29,0.7,15.29,2.6C217.22,415.66,200.03,416.26,182.85,416.86z M452.34,473.71c-0.7,0.3-1.1,0.5-2,0
		C451.14,472.61,451.64,472.51,452.34,473.71z M449.64,471.32c-1.4,0.3-2.4,0.5-3.5,0.7C447.04,471.12,447.94,469.72,449.64,471.32z
		 M437.65,452.23c1.5,4.4,3.4,8.29,5.3,12.09c-2.4,0.7-2.3-2.2-3.9-2.2c-0.7,1.4,1.2,1.7,0.8,2.9
		C435.08,466.17,435.13,456.39,437.65,452.23z M356.91,356.9c15.66-12.2,10.29-21.83,22.88-38.17c1.09-1.41,2.69-2.78,4.7-2
		c6.57,2.56,13.41,4.37,19.28,8.39c21.43,14.65,30.16,12.1,35.47,20.68c1.3,2.1,2.36,3.79,1.6,6.2c-1.49,4.7,2,10.38,0.9,18.19
		c-3.44,24.49-3.58,33.48-6.99,45.46c-1.87,6.58-1.46,37.23-2.5,44.07c-5.4,0.6-10.09,3.6-15.69,3.5c-0.3-2.4,0.1-4.7-0.9-7.19
		c-0.8,2.6-0.3,5-1.5,7.09c-2.5,0.9-3.8-2.3-6.59-1.5c4.67-8.67,5.39-37.02,3.9-40.97c-5.82-15.4-9.96-20.32-0.5-48.36
		c0.8-0.4,1.4,1.6,2.3,0.2c-0.4-1.5-2.13-2.29-2.6-3.8c-0.43-1.39-2-1.89-3-1.8c-6.12,0.58-18.2-5.23-23.18-5.7
		c-9.19-0.85-8.37-2.91-11.89-1.5c7.69,2.3,15.19,3,21.98,6.3c-13.59,0.8-27.18,2.4-40.27-3.1
		C353.9,358.4,353.97,360.58,356.91,356.9z M410.17,466.52c-0.8-0.8-1.8-1.6-1.9-3.3C409.27,464.32,410.87,464.62,410.17,466.52z
		 M367,368.6c-5.8,3.2-10.39,1.8-12.09-3.2C358.23,365.71,354.86,367.2,367,368.6z M346.52,351.91c-11.78,16.59-6.13,8.97-4.6,9.09
		c-0.2-0.9,0.4-1.2,1.2-1.7c-0.37,1.11-12.67,20.5-18.49,31.28c-1.52-3.54,2.89-4.66,2.3-13.49c-0.63-9.42,6.19-10.44-0.1-27.28
		c-1.54-4.12-4.58-4.65-6.56-7.79c0.3-0.01,1.21-0.55,3.16-2c17.48-13.07,28.28-10.79,34.97-10.79
		C357.43,336.55,350.23,346.68,346.52,351.91z M319.94,328.63c1.5,1.4,0.4,4.2,3.2,5.3c-0.4-2.9-1.7-5.1-2.7-7.39
		c5.56-9.6,29.61-20.09,37.67,0.6c-13.09-1.1-24.28,3.2-34.57,10.49c-0.8-0.3-1.1-1.3-2.3-0.9c-0.1,0.9,1.1,1.1,1,2
		c-0.44,0.81-2.06,2.69-2.08,3.18C318.89,341.61,320.06,331.23,319.94,328.63z M317.84,505.39c-0.1-1.5-0.7-2.5-2-3.2
		C318.14,502.49,318.44,502.89,317.84,505.39z M317.24,498.49c-6.2,0.6-11.79,1.2-17.19,3C302.85,499.09,314.34,497,317.24,498.49z
		 M308.65,496c2.5-1.5,4.4-2.1,7.09-1C313.35,496.1,311.35,495.8,308.65,496z M311.45,485.1c2.7,0.41,2.4,3.9,3.3,6.39
		c-3.5,1.5-7.59,1.6-10.49,3.9s-6.89,2.6-9.49,5.1c0.8,1.3,1.9,0.3,2.3,0.9c0.6,1.3-0.6,2.6,0.2,3.7c1.6,0.4,2.8-1.6,4.5-0.8
		c-0.6,0.8-1.9,1.2-1.4,2.7c2.2,2,4.6-0.6,6.89,0.1c-0.2,3.1-3.5,2.1-5.2,4.1c3.1,2.2,6.39,0.82,9.49,1.1
		c3.69,0.33,5.9-2.8,9.29-3.5c6.26,9.84,4.1,5.35-2.5,8.49c2.6,2.3,4.9,0.7,7.09-0.8c2,2.3,5.28,2.41,6.59,4.8
		c3.94,7.14,9.5,3.11,7.59,9.29c-11.92,7.01-39.66,3.5-46.36-8.59c-3.28-5.93-6.39-1.75-10.29-5.1c-0.3-1-1-2-0.7-3.2
		c1.3-0.3,0.9,2,2.5,1.2c-6.75-11.25,4.64-12.6,0.6-23.08c-0.31-0.8,0-1.8,0.4-2.4c2.9,1.4,3.5,5,6.2,6.69c2.3-1.8,5.3-1.8,7.49-4
		c-0.6-2.5,0.6-4.3,3.3-5.4c-0.6-0.4-0.9-0.7-1.5-1.1C304.65,483.11,308.25,484.62,311.45,485.1z M289.66,488.4
		c2.6,0.9,4.9,2,7.79,0.7c0.4,4.5-3,3.6-5.3,4.8C291.66,491.9,289.86,490.7,289.66,488.4z M316.34,437.44
		c-3.16,6.97-3.95,14.67-6.99,21.68c-6.74,15.52,3.88,23.91-2.5,23.08c-9.37-1.22-5.07,4.96-12.09,5.4c-1.6-1.1-3.1-2.2-4.7-3.3
		c1.9-7.69,2.35-15.38,1.5-23.08c-5.15-46.39-8.63-51.79-2.2-62.85c1.55-2.66,5.43-15.32,4.2-17.49c-1.7,0.2-1.2,2.3-2.5,3.1
		c-3.81,1.91-7.15-8.87-7.59-10.69c16.33,14.77-2.41-4.13-3.7-10.49c-1.21-5.99,2.6-17.59,8.59-20.48c14.75-7.13-2.5-7,21.98-5
		c2.11,0.17,10.69,9.58,11.59,10.69c5.22,6.47,7.53,12.08,3.8,20.68c-2.57,5.92,0.02,7.03-1.4,13.69c-0.85,3.99-5.55,6.89-3.4,20.08
		C323.36,417.33,322.15,424.64,316.34,437.44z M392.88,468.72c-13.72-4.35-12.92-4.51-15.29-3.8c-18.23,5.47-23.78,3.36-29.48,6.3
		c-12.37-10.41-14.07-10.93-15.49-15.09c-6.03-17.72-10.41-25.84-9.69-27.88c5.31-15.16-1.92-25.31,2.4-33.87
		c3.53-7,11.45-19.83,17.39-29.38c5.37,0,3.4,3.72,10.29,5.1c4.34,0.87,7.01,4.53,12.89,0.8c4.4-2.79,9.19-2.29,13.79-2.1
		c4.9,0.21,9.79-0.3,14.59,0.2c4.67,0,0.88-2.61,10.39,0.1c3.41,0.97,4.37,2.19,3.3,5.6c-12.09,38.19,3.23,37.89,1.9,58.45
		c-0.53,8.19-1.13,18.01-3,25.28c-4.71-3.86-6.6,4.03-6.99,9.99c-0.18,2.8-1,5.3-3.7,6.79
		C394.68,473.21,393.88,470.92,392.88,468.72z M467.42,497.39c-0.4,0.5,0.5,1-0.1,1.6c-4.22,1.88-23.43-6-39.67-7.89
		c-6.69-0.78-24.45,4.05-31.08-7.39c1.6-1.9,0.5-4.8,1.7-6.59c5.22-5.9,3.64-13.72,6.2-16.49c2.06,3.43-1.27,2.31,5.4,10.39
		c4.49,5.44,7.77-0.73,10.19,3.3c6.1-2.8,4.02-7.09,9.69-8.89c0.8-0.2,1.4-0.7,0.8-1.7c-5.2-0.4-6.3,4.6-9.29,7.29
		c-4.95-1.37-6.66,1.81-9.99-2.6c-0.82-1.08,0.1-2.1,1.1-3.1c6.59,1.3,12.69-1.5,18.99-3.5c3.2,7.05,0.23-1.12,4.7,3.8
		c-3.5,1.5-7.49,1.4-9.59,4.9c6-0.9,11.69-2.3,17.19-4.8c5.49,2.75-5.93,1.55-11.29,5.9c1,2.7,3.3,1.5,4.9,2.1c1.9,4,5.7,2,8.89,2.3
		c-1.1,1.6-3.2,1-4,2.6c0,1.3,0.8,2.02,1.9,2c4.4-0.1,7.29-3.2,10.09-5.6c7.69,3.4,14.49,8.19,22.88,9.49
		C481.17,488.2,479.15,497.39,467.42,497.39z"/>
	<path d="M899.98,489.09c-0.47-9.59-7.66-5.29-13.79-9.49c-6.15-4.22-13.2-7.08-18.69-12.29c-9.68-9.19-4.45-6.94-5.2-9.19
		c-1.4-2.3-2.93-4.75-5.3-6.59c-1.62-1.27-2.9-0.2-4.6,1.1c1.18-14.81,0.65-20.23,1.8-29.38c0.74-5.9,7.09-22.94,6.99-45.26
		c-0.03-7.47,2.38-7.56,0.1-16.89c-1.98-8.08,0.53-4.9-0.3-12.79c-5.9-3.84-2.49-5.99-8.59-8.79
		c-32.77-15.04-37.96-22.43-62.55-27.28c-3.97-0.78-4.93-5.6-17.59,4.6c8.79-5.8,17.69-3.8,26.58-0.6
		c-7.83,5.5-8.38,13.31-14.09,26.38c-4.48,10.26-5.37,6.23-14.79,18.79c1.1,2.3-0.5,5.1,1.4,7.59c-4.9,0.4-4.8-5.5-9.49-5.3
		c6.3-8.79,9.69-18.39,15.19-26.78c1.9-2.9,0.9-6.2,2.4-9.29c2.5-1.9,5.8-3.2,8.89-6c-3.8,1.2-6.2,3.4-9.49,4.8
		c-0.56-15.16-39.04-17.65-44.37,4.5c1.2,1.4,1.2,1.4,1.1,6.59c-2.9,0.53-5.21-14.28-21.18-14.99c-4.21-0.19-16.27-0.09-17.79,3.8
		c4.63,1.25,9-3.08,23.38-1.3c3.71,0.46,5.61,1.93,11.79,11.69c-6.2-0.8-12.29-1.3-18.69-1.3c-0.8,2.9-3.5,3.79-5.7,4.9
		c-16.11,8.14-13.45,32.43-0.8,46.56c-3.7,1.1-6.69-1.7-10.09-0.4c3.3,1.7,6.79,2.4,9.79,2.9c1.7-0.3,0.4-2.4,2.5-2
		c0,2.9-1.8,5.3-2.1,8.09c-9.66,0-16.63-22.05-21.58-32.67c0.4,5.3,3.4,9.79,5,15.39c-5.5-5.5-13.73-5.4-13.19-12.09
		c1.1,0.6,0.89,2.12,2,2.7c3.6,1.88-2.8-6.07-2.8-24.78c0-4.6,2.5-8.09,5.2-11.39c-1.1-1.7-2.1,0.2-3.4-0.5
		c3.9-4.3,7.61-8.68,11.69-12.49c8.25-7.69,13.12-1.58,29.08-6.59c12.46-3.92,4.27-3.08,9.99-3.6c15.66-1.4,16.53-0.06,17.69-2.8
		c3.7-0.2,6.99,0.3,10.79,0.7c-1.2,1-2.4,0.6-3.2,0.9c3,1.4,6.69-1.9,9.69,1.6c-7.89,3.2-16.49,4-24.18,7.59
		c1.3,0.65,31.18-7.83,31.28-7.89c1.1-0.7,2.79,0.32,4.2,0.9c7.95,3.29-0.67-5.25-10.09-2.8c-4.08-4.08-10.03-0.46-13.59-4.6
		c-3.42-3.97-3.74-1.31-6-4.1c-9.24-11.41-8.3-1.04-2.8-22.68c4.15-16.33-1.29-35.52,0.8-45.26c0.81-3.79,0.6-7.59-4-9.79
		c1.8-0.5,3.1-0.9,4.7-0.9c10.67,28.81,24.86,42.56,56.66,36.27c19.68-3.89,29.38-25.46,28.28-46.16
		c-0.43-8.08-2.45-3.12,15.29-7.89c0.5-1.2,1.09-2.3,1.4-3.5c0.98-3.8-2.11-6.95-6-6.2c-4.31,0.84-8.69,1.6-13.19,2.4
		c-16.91-52.72-74.4-45.17-83.13-3.1c-4.17,20.11,4.35,17.04-9.79,18.89c-2.78,0.36-7.29-3.69-8.64,0.18
		c-0.01-0.01-0.02-0.01-0.02-0.01c0,0.5,1.49-1.12,3.07-0.27c2.7,2.2,5.2,4.9,5.3,8.99c-1.1,0.1-2,0.8-3,0.4
		c0.12-4.03-3.43-6.54-4.01-6.26c-0.11,1.28-2.21-0.64-4.39,0.55c-0.8,2.4-0.7,4.9-0.8,7.49c-40.37,7.09-80.54,14.09-121.01,21.18
		c1.08-11.39-21.26,0.58,120.21-28.28c-0.1-1.5,0.6-2.6,2.3-2.9c2.44,1.02,4.49,2.12,3.6,1.61c0.49-1.17-1.68-2.22-1.35-2.55
		c-4.47-1.6-4.32,2.1-7.54,2.75c-99.18,19.95-56.87,9.7-67.85,11.89c-1-3-3.4-5.4-4.2-8.59c-0.7-2.8-2.9-4.2-5.3-5.1
		c-0.49-1.78,2.24-6.38-2.1-7.49c-1.9-0.49-2.3-1.9-2.6-3.3c-7.98-2.02-1.68-0.22-0.89,2c-0.9,0.5-1.9-0.7-2.8,0.3
		c2.36,2.07,8.31,0.76,7.39,4.7c-0.67,2.9,0.2,5,3.6,6.3c-3.3,0.3-5.3,2.2-7.69,3c4.29,1.17,8.73-4.61,9.89,1.2
		c1.34,9.37,16.13,4.46-30.58,13.89c-0.7,0.1-1.4,0-1.7-0.8c0.5-1.2,2.5-1.3,2.2-3.3c-1.3,0.1-2.8-1.3-3.4-0.9
		c-3.51,2.38-5.2-1.7-7.99-1.6c2.5-2.4,4,1.6,6.3,0.6c0.8-1,0.4-1.8-0.5-2.5c-0.8-0.3-1.2,0.8-2.2,0.4c-0.2-1.2-2.9-0.7-2.1-3.1
		c3.4-0.6,5.5,2.3,8.19,3.1c3.71-2.02-7.72-6.46-5-22.08c1.28-7.32,5.22-3.58,10.49-9.89c0.91-1.09,1.7-2.4,3.3-3.1
		c0.8,1.3,2.5,1.9,3.1,3.6c-2.4,1.1-1.1-2.3-3.5-1.6c-1.99,1-3.83,3.43-3.77,3.81c5.58,0.06,12.39,6.63,13.33,4.75
		c-0.4-2.52-3.39-2.08-4.47-3.85c0.4-1.4,2-1.5,2.5-2.7c-0.3-1.4-1.1,0.1-1.7-0.4c-0.4-1.4,0.7-3.2-0.4-4.7c-1.5-0.5-2.5,1-4,1.2
		c0.3-1.5,1.9-1.8,2.1-3.4c-2.1-0.6-3.6,0.7-5,1c-1.6,0.9-0.7,2.7-2.4,3.3c-0.9-2.4,1.5-3.6,2.3-5.6c-1.9,0-2.3,1.6-3.5,2.2
		c-0.8-0.2-0.1-1.3-0.9-1.6c-1.2,0.2-1.18,1.41-1.8,2.2c-3.73,4.76-3.93-0.91-9.29,5.5c-12.46,14.88-12.12,14.95-11.89,20.18
		c-0.8,0.6-1.3-0.7-2.2,0.3c0.2,1.4-0.9,3.1-0.5,5c-7.54,2.09-13.07-0.96-16.29,5.7c-2.22,4.6,1.33,6.92,0.73,10
		c3.48,1.3,5.8-3.66,9.66,8.78c-5.65,0.63-1.38-3.72-8.84-8.29c-3.62-1.45-5.4,0.41-7.64,3.6c-1.2-3.4-2.12-6.49-3.3-9.49
		c-22.24-56.81-93.62-45.45-89.23,22.78c0.29,4.55,0.55,4.52-2.4,5.1c-4.66,0.91-31.28,5.35-31.68,5.7c-3.77,3.23-3.6,6.2,0.9,10.29
		c11.69-0.9,23.28-4,35.17-5.6c1.4,4,2.42,8.09,4,11.87c8.01,19.21,21.52,33.73,42.07,34.57c33.55,1.37,47.34-24.04,46.86-57.75
		c1.3,1.1,2.18,1.69,1.8,3.2c-1.46,5.83,0.88,6.87,1.4,14.99c1.05,16.42-3.71,34.27,6.4,52.66c1.31,2.39,3.4,4.1,4.9,6.39
		c1.3,2,4,1.31,6,0.7c7.75-2.38,8.4-4,23.18-18.39c9.69-9.43,4.12-15.04,9.89-6.79c-8.45,24.83-36.89,75.84-46.26,109.01
		c-0.11,0.02-40.94,7.25-42.67,7.69c-3.31,0.86-2,0.67-11.29,16.69c4.15-1.81,7.66-8.76,8.89-11.79c2.36-5.78,31-5.5,47.76-11.59
		c10.17,6.42,9.2,0.49,8.69,1c-15.24-6.31-8.59,5.77-3.2-17.69c4.06-17.68,23.89-50.45,39.37-91.73c1.9,3.2,4.3,5.2,5.7,7.79
		c-5.97,21.46-18.58,39.2-24.18,54.16c-4.57,12.2-9.34,24.35-16.69,35.27c-1.01,1.49-1.7,3.2-2.1,5.3c0.79-0.39,1.78-1.16,0.99,0.44
		c-1.88,3.81,1.03,1.14,1.05-0.2c0.06-4.84,6.37-8.05,14.64-30.42c12.98-35.08,19.64-36.11,26.38-61.85c0.1-0.4,0.1-1.1,1.1-1.2
		c1.2,2.1,3.4,3.5,4.3,6.1c-8.58,18.39-15.3,41.82-21.98,52.56c-9.31,14.97-4.85,8.05-16.49,35.17c-0.21,0.49,0.1,0.9,0.8,1.3
		c3.12-1.45,1.14-4.09,7.49-15.09c2.8-4.85,1.24-6.97,6.2-14.29c8.81-13.03,17.5-38.58,23.28-54.96c3.33-9.41,0.53-0.31,43.07,49.36
		c1.2,0.6,0.8-0.7,1.6-0.5c6.12,5.03,15.39,8.36,18.39,13.59c1.49,2.6,4.7,3.4,7.09,5.2c-7.58,12.21,5.31,7.1-19.78,11.69
		c-28.76,5.26-27.11,5.22-28.38,4.3c-12.61-9.2-30.76-1.19-45.06-0.6c-5.01,0.21-10.3,1.02-17.39,2.71c-4.44,1.06-6.01,2.98-5.7,3.3
		c1.95-0.16-12.61,0.42,60.05-2.1c11.97-0.42,15.14-2.09,52.56-7.99c-0.5,11.39,2.9,22.08,3.7,32.87
		c-21.93-6.22-54.33-7.17-118.41-14.29c-0.9-0.1-1.9-0.4-3.5,0.9c7.29,1.5,13.99,2,20.98,3.1c-22.18,4.4-44.27,6.89-65.85,11.99
		c1.7-3.7,3.4-7.29,5.2-11.09c15.09-2.8,30.48-4.2,45.36-9.09c-0.9-1.6-1.8-1.2-2.6-0.9c-5.75,1.53-40.4,8.59-46.46,7.09
		c-1.91-0.47-3.8-0.6-6.2-0.6c2.5,1.9,5.1,2.6,7.69,3.7c-8.98,18.85-3.06,10.54-16.79,9.39c-1.15,3,9.83,4.22,13.69,3.3
		c24.2-5.77,51.39-7.66,67.25-11.79c9.77-2.55,90,7.56,99.82,11.49c0.5,12.69,3.8,25.48,1.8,38.77c-0.5,0.9-1.7-0.4-2.2,0.4
		c-0.9,1,0,2.1-0.7,3.3c-4.53-0.43-3.18,9-5.7,19.09c-1.26,5.05-1.53,14.13,4.7,14.79c8.77,0.92,5.16,11.38,27.38,14.89
		c8.74,1.38,16.44,2.79,24.48-0.4c2.4-0.95,7.82-0.18,6.89-6c-0.61-3.8-4.1-6.4-7.89-6.2c-5.9-6.3-12.09-12.09-15.19-20.28
		c0.1-0.5,0.7,0.1,1.1-0.2c-0.3-1.6-0.9-2.8-1.9-3.7c-0.4-2.7-2.4-4.3-3.4-6.49c1.5-1.1,1.4-2.9,1.4-4.6
		c4.87-1.75,11.2-1.6,15.09-4.1c-5.7,1-10.69,1.8-15.89,2.7c-1.5-2.4-3.8-3.4-6.69-3.8c-0.59-27.63,2.72-30.32,11.09-50.16
		c5.5,13.29,10.19,26.38,14.79,39.77c1-1.8-0.5-3.1,0.1-4.7c2,2,2.5,5.2,5.4,6.39c-0.8-4-3.9-6.69-5.2-11.09
		c17.02,16.19,7.93,9.02,16.89,8.49c21.15-1.24,20.58-7.45,34.07-2.3c4.4,1.68,7.29,5.7,7.19,10.89
		c-20.73,5.45-74.25,16.9-74.84,18.99c24.88-4.2,48.96-12.09,74.04-16.89c0.7,6.89,5.81,8.85,11.19,10.59
		c11.82,3.83,14.13-0.52,19.09,0.4c26.24,4.84,5.4,1.35,38.97,9.29c7.99,1.89,9.75-4.82,15.39-7.59
		C899.77,494.27,900.11,491.79,899.98,489.09z M840.13,194.63c4.66-0.52,4.85,5.31,1.6,6.1c-4.4,1.07-8.89,1.8-13.49,2.6
		c-0.5-2.3-0.8-4.1-1.3-6.3C831.64,196.13,835.94,195.33,840.13,194.63z M800.26,254.58c31.7-19.9,24.47-76.6-9.99-92.23
		c-2.81-1.27-5.9-1.6-9.29-2.8C833.19,157.23,843.08,245.64,800.26,254.58z M798.87,169.05c19.07,15.56,26.82,46.93,13.49,70.94
		c-14.37,25.89-49.65,22.47-64.15-13.09c-0.9-2.2-1.8-4.4-2.1-7.09c30.76-5.63,17.34-3.91,26.08,1.5
		c13.24,10.43,28.46-9.52,15.39-23.98c-5.49-6.07-17.58-7.11-21.98,8.29c-6.89,1.2-13.99,2.4-21.28,3.7
		C740.19,171.57,772.6,147.63,798.87,169.05z M781.88,207.12c-1.9-6.07-10.27-1.62-14.59-2.1c-0.86-5.61,8.41-15.41,16.69-6.2
		c13.26,14.76-6.1,34.68-14.59,16.89C770.81,215.27,784.11,214.27,781.88,207.12z M783.88,196.53c11.33,7.02,6.04,22.98,3.2,22.98
		c0.2-0.7,0.5-1.3,1.1-1.6C788.27,218.01,793.47,206.6,783.88,196.53z M739.31,212.22c40.37-6.89,36.23-7.32,39.07-5.7
		c2.16,1.24,3.1,4.86-2.7,6c-23.54,4.61-17.33,3.07-36.37,6.2C741.31,216.31,740.51,214.32,739.31,212.22z M608.61,218.81
		c0.3,0.5,1.2,0.6,0.6,1.4C608.71,220.01,608.31,219.81,608.61,218.81z M711.83,312.04c0-0.53-0.69-0.4,2.3-0.4
		C714.13,312.05,714.32,311.73,711.83,312.04z M720.83,308.74c3.9-4.3,8.89-2.4,13.49-2.7
		C729.82,307.04,725.22,307.04,720.83,308.74z M738.51,214.02c0.91,1.5,0.9,2.6-1,3.3c-1.4-1.3-2.5-2.7-3.6-4.7
		C736.21,211.32,737.42,212.21,738.51,214.02z M732.42,213.22c5.2,6.39,5.4,7.39,1.7,8.19
		C735.81,218.11,733.12,216.11,732.42,213.22z M727.92,228.51c-1.93-5.79-6.81,0.04-5-12.69c4.8,0.1,5.1,0.5,5.4,7.49
		c2.7-1.5,5.22-1.13,7.59,0.6c1.06,0.77,6-2.03,6,2.9c0,4.71-1.83,5.77-0.9,16.59c0.54,6.26,3.48,33.06-4.8,46.46
		c-12.15-17.99-7.64-10.05-11.99-21.08c-3.51-8.9-0.59-7.42,1.2-12.09c2.9-7.55,2.3-15.59,2.8-23.48c1.3-0.3,3,0.3,4.3-1.6
		c-2.9-0.6-5.6,0.81-8.19-1.1c-2.3-1.69-4.3-3.7-7.29-5.2C723.87,222.79,720.32,225.41,727.92,228.51z M715.43,225.21
		c3.2,4.2,7.99,5.3,11.29,8.39c0.5,4-1.57,7.49-1.1,11.19c0.74,5.79-2,10.39-4.5,15.49c-3.35-5.86-8.69-8.92-17.99-13.69
		c-11.26-5.78-5.04-4.94-13.99-10.59C678.89,229.52,650.95,236.19,715.43,225.21z M662.27,235c-1.4,2.7-3.1,0-4.4,0.5
		C659.27,235.2,660.57,234.4,662.27,235z M652.18,237.8c-4.4,1.2-8.89,1.3-13.39,0.9C643.29,238.6,647.58,235.4,652.18,237.8z
		 M619.01,242.09c-0.7,0.8-1,1.4-1.7,0.9C617.51,242.39,618.01,242.29,619.01,242.09z M600.32,245.29c4.7-0.9,9.39-1.3,13.99-2.3
		c-1.4,1.2-2.3,2.6-3.2,4C597.07,249.51,599.49,250.31,600.32,245.29z M602.92,209.52c-0.4,0.9,0.3,1.7-0.9,2.1
		C601.32,210.72,601.62,210.22,602.92,209.52z M605.02,229.4c-3.05,0.1-3.47-0.27-3.5-3.25
		C601.72,228.09,604.46,227.35,605.02,229.4z M599.22,224.61c0.2,0.9,0.6,1.8-0.9,2.4C598.12,225.81,598.42,225.21,599.22,224.61z
		 M575.34,229.4c-1-3.53,0.17-5.49,2.3-6.67c-0.19,1.68,0.61,2.88,1.7,4.07c-0.3-1.39,0.09-3.18-1.68-4.08
		c3.67-2.01,10.16-1.69,13.27-2.91c-0.2,3.7-0.08,3.88,2.2,6.3c2.62,2.78,4.4,6.3,6.99,9.29c-2.1-1.5-4.86-0.63-6.79-2.4
		c-1.67-1.53-3.5-2.1-5.1-0.2C577.84,227.6,577.87,238.28,575.34,229.4z M586.43,237c0.5-1.6-1-2.6-1.5-4.1c1.6,0.2,2.7,0.6,3.7,1.3
		c0.4,1.8,1.7,3.3,1.7,5.3C588.13,239.7,588.03,237.2,586.43,237z M591.73,240.3c0.6,1.8-0.5,2.01-1.7,2.2
		c-1.4,0.22-1.5-0.6-1.3-1.7C589.73,240.7,590.83,240.8,591.73,240.3z M578.67,233.03c-1.38,0,2-0.47,2.57-0.13
		c6.83,5.32,4.39,2.58,6.4,9.39C582.75,244.38,588.17,238.13,578.67,233.03z M445.34,270.47c3.39-3.52-1.71-6.04,0.6-7.19
		c76.68-13.32,72.32-13.63,74.74-10.99C522.44,259.32,520.8,257.23,445.34,270.47z M520.08,259.28c4.75-2.38,3.78-11.87-3.9-9.99
		c-3.22,0.79,1.15-4.5,5.5-3.2c7.23,2.16,7.57,12.94,1,15.79C521.48,261.28,521.48,259.68,520.08,259.28z M527.78,279.57
		c0.09,4.6-2.73,4.9-3.9,1.7c-2.35-6.41-2.76-13.47-5.3-19.88c-0.51-1.29,0.5-1.8,1.6-2C520.42,264.85,527.52,266.22,527.78,279.57z
		 M517.39,260.28c-3.7,7.59-4,15.69-4.8,23.88c-10.53-3.21-6.47-10.58,1.1-22.58C514.58,260.17,515.79,259.98,517.39,260.28z
		 M478.52,266.78c4.08-0.87,3.64-2.16,5,2.5c9.82,33.8,34.85,42.9,43.97,35.47c-19.43,6.99-38.88-19.27-43.17-39.27
		c29.8-5.51,26.86-4.91,27.58-4.2c-4.6,3.9-6.1,9.59-9.09,14.69c1.2,6.89,5.9,11.19,11.89,10.29c1.3-7.19,0.6-14.89,3-22.08
		c0.3,4.9,0.9,9.69,2.3,14.29c0.27,0.66-1.4,7.34,5.5,8.09c8.3,0.9,6.84-14.19-1.7-23.38c17.12-12.84-6.69-28.74-11.39-13.59
		c-10.09,1.7-19.98,3.5-30.08,5.2c-3.07-34.63,16.27-55.17,29.08-53.26c2.1,0.31,4.4,0.4,6.49-0.4c-5.2-1.2-10.4-2.62-15.59,0.4
		c-12.92,7.53-19.41,21.24-21.48,36.17c-2.65,19.07,3.43,16.88-3.8,18.09c-2.07-9.31-0.65-31.26,10.09-46.56
		c12.81-18.25,38.02-18.22,54.46,5.9c18.96,27.82,17.12,64.29,2.8,83.83C526.72,323.04,490.69,313.27,478.52,266.78z M530.78,311.94
		c44.02-19.74,29.26-111.61-17.89-117.51C575.41,187.49,589.26,306.42,530.78,311.94z M571.84,235.7c4.4,1.3,6.2,2.9,6.69,6.59
		c-2.6-0.2-3.8-2.3-5.5-4c-0.8,1.1-1.89-0.49-2.4,0.3c-0.59,0.91-1,1.6-2.6,1C569.25,237.9,570.14,236.4,571.84,235.7z
		 M568.15,241.99c2.1-0.3,4.5-1.4,5.6-0.7c4.16,3.27,21.19,2.56-4.6,7.39C568.99,247.97,568.15,243.62,568.15,241.99z
		 M618.21,301.85c0.17,2.5-0.32,5.28-2,6.99c-2.62,2.67-4.93,5.84-8.19,7.99c-6.87,4.55-2.05,8.8-17.89,14.69
		c-1.6,0.59-3.1,0.8-4.8,0.2c-1.1-2.4-3.48-3.9-4.9-6.3c-7.85-13.3-4.19-21.4-6.89-58.75c-0.19-2.6-0.97-5.19-0.8-7.79
		c0.33-5.04-4.64-5.19-3.1-7.69c0.9-0.7,1.3,0.7,1.9,0.3c2.91-1.98,6.5-2.18,9.69-3.8c3.91-1.98,7.79-4.6,12.89-3.8
		c-1.8-1.3-0.9-2.8-0.8-4.2c-2.7-1.4-2.9-3.8-3.5-6.89c3.1,1.3,5.1,3.5,7.89,3.5c0.6,4.8,0.3,10.09-0.6,12.69
		c-16.03,7.31-6.66,22.31-1.4,41.37c1.44,5.22,9.44,17.3,8.39,22.38c3.37-4.97-0.55-7.47-3.1-14.09
		c-0.82-2.14-9.71-28.88-9.69-28.98c3.5-18.17,4.97-11.79,8.79-17.39c1.02-1.49,2.6-2.12,4.3-2.3c6.39-0.67,12.19-3.7,18.49-4.4
		c0.9-0.1,0.8-1.4,2.2-1c3.7,6.2,8.49,12.19,10.89,19.68c-4.01,0.5-4.21-2.76-8.89-2c-5.09,0.82-10.09,2.24-15.29,3.1
		c-1.9,0.31-4.29,1.51-6.2,2.9c-0.7,0.5-0.5,1.1-0.4,1.8c2.4-1.9,5.32,0.24,7.59-1c7.98-4.35,15.99-4.7,24.58-1.1
		c2.1,4.9,3.82,10.41,0.3,15.59c-3.47,5.11-6.2,11.39-14.29,11.49c0.2-2.7-2.6-1.9-4-3.1c0.1-4.4,1-8.69,1.7-12.99
		C617.01,278.97,617.94,297.83,618.21,301.85z M597.12,251.19c-1.8,1.3-3.2,3.1-4.9,4.5C592.63,252.99,594.53,251.69,597.12,251.19z
		 M590.33,264.68c-0.5-2.3-1.9-4.7,0.3-7.69C592.03,260.18,590.03,262.38,590.33,264.68z M653.58,345.21
		c-0.56-0.55-0.42-1.11-0.24-1.75c-2.95,0.62-24.03-34.58-30.14-38.92c-4.2-2.98-1.38-4.73-3.7-9.4c3.26,1.28,6.99,0.14,9.59,2.9
		c-1-0.5-1.9-0.6-2.5,0.7c1.19,0.43,2.24-1.07,2.6-0.6c7.36-1.2,6.62,8.25,7.29,2.6c5.73,8.03-0.2,1.19-0.2,1.74
		c-0.29-0.07-0.08,1.63,2.6,2.87c0-0.72,2.36,4.41,4.5,5.3c0.5-0.7-0.4-1.3,0.3-1.8c2.57,1.79,9.04,7.45,13.79,9.09
		c5.53,1.91,3.1,5.21,8.29,6.79c3.82,1.17-1.1,4.4,2.2,5.4c3.6,1.09,4.4,4,5.9,6.79c-1.3,1.7-2.5,3.3-3.8,5
		c-1.9-2.2-3.6-4.3-5.3-6.4c0,1.3,0.8,2.3,1.4,3.2c6.52,13.03,1.44,8.28,5.1,15.99c0.9,1.9,0.21,4.39,1.2,5.9
		c2.02,3.08,1.4,6.4,1.8,9.69C667.8,365.68,659.89,352.35,653.58,345.21z M674.26,341.32c-0.8,3.1-0.2,6.3-0.7,9.29
		C672.76,347.41,670.87,344.21,674.26,341.32z M672.86,330.73c1.3-3.5,4.1-5.6,5.7-8.59c-2.5,1.9-4.7,4.1-6.3,7.19
		c-0.8-1-1.9-0.8-3-0.8c0.3-1.4,1-2.4,0.4-3.6c-0.9-1.8-2.9-1.7-4.1-2.9c1.7-2.4,3.5-4.8,5.1-7.89c-3.2,1.5-5,3.7-6.69,6.3
		c-4.1-3.8-9.29-5.8-13.19-9.39c0.8-13.99-4-17.19-11.59-24.48c3.22,8.26,8.43,3.24,10.59,23.58c-12.75-7.46-9.57-12.77-18.99-13.79
		c-3.28-0.55-1-1.21-0.1-1.9c25.72-19.88-4.19-47.49-5.1-53.26c12.69-1.1,25.48,0.2,37.67-4c0.9-0.6,0.2-2.1,1.3-2.9
		c3.4,1.4,6.69-0.3,10.09,0c19.02,1.67,17.77,9.77,26.78,13.59c17.55,7.44,21.7,27.06,24.18,30.98c-3.2-1.7-6.3-3.3-9.49-5
		c3.61,4.87,10.87,5.29,13.19,9.19c5.03,8.47,12.89,14.39,19.38,21.28c-0.9-0.5-2.4,0.3-3.1-0.3c-2.91-2.52-0.74-0.67-30.58-7.79
		c8.79,4.6,18.49,5.7,28.08,7.59c-14.63,0.93-22.2-1.63-24.08,5.6c-9.29,0.4-18.81-0.73-26.38,4.8
		c-7.22,5.27-13.49,12.09-17.29,20.68C673.96,333.92,675.66,330.93,672.86,330.73z M677.06,372.79c3.9,1.8,5.5,3,7.99,6.49
		C681.16,377.39,678.36,375.19,677.06,372.79z M686.05,376.39c2.9,2.3,5.9,4.5,6.69,8.59C688.75,383.28,688.15,379.29,686.05,376.39
		z M600.82,417.66c0.3-2.4,1.8-1.8,2.6-1.8c32.73-1.79,34.56-7.6,48.96-1.3C635.29,416.46,618.11,417.06,600.82,417.66z
		 M870.81,474.51c-1.1,0.3-1.6,0.6-2.2,0.1C868.91,473.11,869.51,473.21,870.81,474.51z M867.91,472.11c-1.6,0.1-2.6,1-4.1,0.2
		C865.21,471.91,866.01,470.52,867.91,472.11z M855.72,453.03c1.5,4.4,3.2,8.39,5.3,12.09c-2.5,1.3-2.3-2.2-4-2.1
		c-0.9,1.3,1.4,1.7,0.8,2.9C852.88,466.8,853.3,456.95,855.72,453.03z M790.17,334.72c1.26-4.88,7.82-18.79,13.09-16.79
		c27.73,10.57,21.84,11.93,31.28,15.69c4.5,1.79,8.6,4.58,13.29,6c4.6,1.39,7.75,4.53,10.59,8.09c3.34,4.19-0.82,3.21,1.1,12.69
		c1.83,9.05-3.68,44.96-3.7,45.06c-0.8,5.3-2.99,10.29-3.4,15.59c-1.32,17.12-0.6,37.12-2.1,39.57c-5.1,0.7-9.79,3.5-15.29,3.5
		c-0.5-2.4,0.1-4.6-0.8-7.49c-1.4,2.8-0.2,5.4-1.8,7.39c-2.5,0.7-3.9-2.1-6.59-1.7c3.82-6.58,4.4-21.78,4.6-30.08
		c0.54-22.93-14.78-19.33-1.3-58.95c0.9-0.4,1.4,1.1,2.3,0c-2.37-3.55-2.96-5.76-5.9-5.7c-6.4,0.15-12.1-2.67-17.99-4.3
		c-5.3-1.47-10.69-2-16.09-3.2c-4.97,0,14.78,3.6,21.38,6.3c-6.69,3.1-37.37,0.7-40.57-3c0-0.9-0.1-1.8-0.1-2.8
		C776.34,356.86,785.77,351.72,790.17,334.72z M828.24,467.52c-0.8-1-1.8-1.6-1.7-3.5C827.44,465.22,829.04,465.42,828.24,467.52z
		 M784.88,369.49c-5.2,4.1-9.49,1.2-11.89-3.4C776.38,368.8,780.58,368.9,784.88,369.49z M758.1,362.2
		c2.95,1.34,6.53-10.06-15.59,29.68c-0.5-3.2,1.62-4.89,1.8-7.09c0.56-6.79,1.53-13.38,3-19.98c1.17-5.27-2.24-15.48-6.39-19.09
		c-0.91-0.79-2.5-1.3-2.2-3.1c0.8,0.3,1.3-0.4,2-0.9c17.78-14.73,30.6-11.19,35.97-11.69C773.59,342.72,764.59,351.81,758.1,362.2z
		 M737.91,329.03c1.4,2.2,0.6,4.7,3.4,6.1c-1.86-9.59-6.6-6.26,3.6-13.99c6.82-5.16,13.98-6.27,22.18-3.7
		c5.49,1.72,6.59,6.3,9.28,10.59c-13.49-1.1-24.58,3.2-34.87,10.49c-0.87-0.78-1.84-1.26-3-1.29c-0.12,0.35,1.45,1.1,1.81,2.19
		c-0.4,1.3-2,1.8-1.7,3.3c-1.49-1.28-1.5-2.77-0.14-5.42C737.1,335.24,737.91,331.96,737.91,329.03z M733.92,339.52
		c-0.7-0.6-1.4-0.9-1.5-2.3C733.22,337.92,733.92,338.32,733.92,339.52z M736.31,505.89c-0.5-1.3-1.5-2.2-3-3.4
		C736.31,502.49,736.21,504.29,736.31,505.89z M735.12,499.39c-5.8,0.4-11.39,1.1-16.79,2.8
		C721.33,499.79,733.02,497.79,735.12,499.39z M727.32,496.6c1.9-1.2,3.8-2,6.79-0.8C731.42,496.8,729.42,496.7,727.32,496.6z
		 M729.52,486c2.57,1.16,2.4,3.9,3.5,6.69c-7.59,1.3-13.59,5.4-20.08,8.49c0.5,1.8,1.9,0.5,2.7,2c0.7,0.5-1.4,1.7-0.3,2.9
		c1.6,0.4,2.7-1.3,4.3-0.9c-0.1,1-1.6,1.3-1.2,2.7c2.2,2.2,4.8-0.7,6.99,0.1c-0.1,3.1-3.6,2.1-5.2,4.3c3.2,1.9,6.5,0.59,9.59,0.9
		c3.8,0.38,5.8-3.3,9.19-3.4c6.41,10.08,3.78,5.14-2.4,8.39c2.7,2.6,4.9,0.3,7.09-0.8c1.8,2.3,5.18,2.3,6.49,4.8
		c1.68,3.2,4.5,4.6,7.79,5.6c0,3.4,0.1,3.5-1.6,4.5c-10.33,5.35-26,2.61-36.77-1.3c-8.82-3.2-7.02-11.69-15.59-11.79
		c-3.1-0.04-3.6-1.2-3.6-4.6c0.8,0.1,0.8,1.6,2,1.4c-0.62-2.49-3.64-5.65-0.6-11.49c5.2-9.99-0.58-11.41,2-13.99
		c2.5,1.6,3.4,4.7,5.8,6.69c2.4-1.7,5.4-1.9,7.69-4c-0.5-2.6,0.8-4.4,3.3-5.4c-0.4-0.4-0.8-0.7-1.1-1
		C721.23,485.4,726.99,484.86,729.52,486z M707.94,488.9c2.6,1.8,5,1.9,7.79,1.2c-0.7,3.4-0.9,3.6-5.6,4.2
		C709.74,492.6,707.74,491.6,707.94,488.9z M735.91,435.54c-3.29,6.33-5.36,18.19-8.29,24.78c-3.08,6.92-2.17,15.11-0.2,22.48
		c-1.92,1.28-7.2-1.92-10.19,3.8c-0.89,1.7-2.5,1.8-4.2,1.9c-1.5-1.1-3.1-2.2-4.6-3.3c1.18-7.06,2.94-15.17,0.2-32.27
		c-1.9-11.84,0.41-5.7-3.7-30.08c-1.35-8-2.12-16,2.4-23.48c2.78-4.61,3.02-10.09,4.5-15.19c0.2-0.7,0.5-1.7-0.5-2.3
		c-1.4,0.5-1,2.3-2.2,2.9c-2.9-0.1-6.69-5.6-7.79-11.19c16.68,15.17-2.3-3.77-3.3-10.69c-2.29-15.9,11.24-20.74,16.39-25.88
		c5.3,0.4,10.39,0.6,15.29,1.3c8.51,8.27,20.01,16.86,15.19,29.18c-2.26,5.76-2.16,7.44-1.8,9.59c1.23,7.36-3.78,13.37-3.8,14.09
		C738.93,409.28,744.2,419.61,735.91,435.54z M810.96,469.52c-13.78-4.37-12.89-4.4-15.39-3.7c-19.75,5.59-23.91,3.31-29.38,6.3
		c-12.39-10.93-14.1-10.11-16.39-17.49c-2.68-8.63-7.53-18.82-8.59-23.28c-1.33-5.57,3.02-4.81,0.8-25.18
		c-1.15-10.51-0.63-8.51,18.69-40.17c1.5-0.4,2.78,0.01,3.4,0.8c2.54,3.25,6.49,3.62,9.99,5.2c3.59,1.62,6.89,1.7,9.99-0.3
		c4.5-2.9,9.59-2.29,14.39-2.1c5,0.2,9.89-0.2,14.89,0.2c4.05,0-2-2.96,11.89,0.9c1,1.6,1.31,3.2,0.7,4.9
		c-1.48,4.11-1.82,8.49-3,12.59c-6.2,21.59,6.87,27.41,4.7,50.96c-2.62,28.34-2.42,18.22-5.3,18.89
		c-6.43,2.14-1.63,14.83-8.19,17.99C812.75,473.91,811.96,471.71,810.96,469.52z M885.3,498.19c0.2,0.7,0.3,1,0.5,1.7
		c-3.34,1.11-18.47-2.51-21.78-3.7c-23.57-8.46-42.64,1.37-49.66-11.49c1.3-2.2,0.57-5.02,2.2-6.99c4.92-5.99,3.33-12.8,6-16.29
		c0.4,0.6,0.8,0.9,0.8,1.1c-0.12,4.85,5.94,13.06,10.79,11.39c1.7-0.58,3.2-0.4,4.3,1.3c2.4-1.6,4.41-3.19,5.2-5.6
		c0.91-2.79,4.4-2.4,5.7-5c-5.9-0.8-6.89,4.6-9.89,7.09c-3.6-1-8.09,1.6-10.39-3.2c1.94-5.16-1.37,1.2,19.98-5.8
		c1.3,0.8,0.8,2.1,2,2.7c1.4-1.5,2.2-0.4,3.1,1c-6.3,2.1-8.85,1.9-9.69,5.4c6.2-1.5,11.89-2.9,17.49-5.5c0.4,0.5,1.3,0.7,1.2,1.7
		c-4.1,1.8-9.09,1.1-12.49,4.7c1.3,2.2,3.1,1.3,4.7,1.7c1.9,4,5.6,2.4,8.99,2.4c-1.2,1.5-3.1,1.1-3.9,2.4c0.8,2.4,1.5,2.81,3.9,2
		c3.2-1.08,5.8-3.1,7.89-5.3c7.79,3.2,14.49,8.29,22.88,9.39C900.59,493.04,893.14,498.8,885.3,498.19z"/>
	<path d="M284.97,317.64c-10.89,1-23.58,27.68-18.09,38.57C268.08,340.92,271.08,326.73,284.97,317.64z"/>
	<path d="M703.44,318.24c-12.19,3-23.78,27.58-18.39,39.07C686.15,341.72,689.25,327.63,703.44,318.24z"/>
	<path d="M311.55,480.31c4.2-0.6,7.59-1.2,10.99-1.7c-2.7-6.49-4.8-12.99-9.09-18.49c-0.7,3.3,1.52,5.89,2.6,8.59
		c1.23,3.09,2.2,6.2,4.3,8.99C317.34,478.71,314.24,477.31,311.55,480.31z"/>
	<path d="M314.34,457.13c6.49,6.89,14.29,12.29,21.38,18.49C329.53,468.42,322.14,462.52,314.34,457.13z"/>
	<path d="M270.98,346.01c2.4-5.6,5.2-10.99,8.19-16.39C276.17,331.32,271.48,341.22,270.98,346.01z"/>
	<path d="M721.43,321.83c-4.1-3.8-8.69-6.4-14.49-6.2c3.7,1.3,7.39,2.5,10.69,4.8c0.1,0,0,0.6-0.1,1.2
		C718.93,320.63,720.13,321.63,721.43,321.83z"/>
	<path d="M689.25,346.51c2.3-5.5,5.2-10.79,8.79-16.29C694.85,331.22,689.55,341.52,689.25,346.51z"/>
	<path d="M296.86,318.04c2,0.9,3.7,3,7.19,3c-4.9-3.7-9.29-6.4-14.89-6.2C291.66,316.14,294.36,316.74,296.86,318.04z"/>
	<path d="M161.56,417.36c2.8,2.7,5.5,3.5,8.79,3.6C169.46,418.26,166.06,416.86,161.56,417.36z"/>
	<path d="M278.27,385.38c3.4,1.9,6.99,2.7,10.59,3c0.8-1,0.1-1.5,0-2.1C285.27,386.78,281.97,384.48,278.27,385.38z"/>
	<path d="M387.99,472.61c-0.1-0.3-0.1-0.5-0.2-0.8C383.7,472.17,359.68,478.91,387.99,472.61z"/>
	<path d="M733.92,324.83c-1.6-1.8-3.8-2.3-6-2.4C729.82,323.33,731.32,325.33,733.92,324.83z"/>
	<path d="M316.14,323.73c-1.8-1.7-4.1-1.8-6.4-2.7C312.05,323.63,314.14,324.53,316.14,323.73z"/>
	<path d="M777.78,339.22c4.83-1.81,3.74-1.95,0.6-0.9C777.2,338.71,777.52,338.96,777.78,339.22z"/>
	<path d="M345.22,480.71c3.04,0.25-0.14-0.11,21.88-4.2C362.43,476.51,359.59,476.97,345.22,480.71z"/>
	<path d="M169.86,414.76c1.3-0.6,1.3-1.9,1.7-2.9c-0.8-0.4-1,0.3-1.4,0.3C170.46,413.06,169.06,413.66,169.86,414.76z"/>
	<path d="M312.79,314.3C312.9,314.49,312.92,314.34,312.79,314.3L312.79,314.3z"/>
	<path d="M311.85,314.34c0.2,0,0.5,0.1,0.7,0C313.05,314.1,312.31,314.18,311.85,314.34z"/>
	<path d="M370.6,320.63c-0.7,0-1.2,0-1.4,0.8C369.8,321.53,370.3,321.43,370.6,320.63z"/>
	<path d="M263.48,310.14c-10.95,5.2-13.4,17.27-9.49,12.39c2.8-2.9,5.6-5.8,8.69-8.39c-3.3,0.9-5.2,3.6-7.69,5.6
		C256.89,315.84,260.39,313.44,263.48,310.14z"/>
	<path d="M266.68,316.54c4.8-4.2,11.09-5.9,16.39-8.99C276.97,309.24,270.98,311.34,266.68,316.54z"/>
	<path d="M230.01,280.96c15.19,11.14,13.54,10.16,14.19,9.19C229.56,279.1,230.55,279.89,230.01,280.96z"/>
	<path d="M216.32,250.79c1.8-0.6,1.9-0.8,5.4-7.29C219.42,245.49,217.42,247.69,216.32,250.79z"/>
	<path d="M222.72,265.18c2.4,2.3,4.3,0.4,6.2-0.1C226.91,264.58,225.01,264.18,222.72,265.18z"/>
	<path d="M263.58,280.56c-1.5,1.6-1.9,3.7-2.5,5.7C262.29,284.56,263.48,282.76,263.58,280.56z"/>
	<path d="M265.88,273.97l-0.1-0.1C265.69,274.46,265.71,274.29,265.88,273.97z"/>
	<path d="M265.73,274.26c-1.11,2.01-1.86,4.11-2.15,6.31C265.19,278.77,265.45,276.53,265.73,274.26z"/>
	<path d="M287.07,271.27c1,1.5,2.1,3,3,4.6C290.26,273.57,288.66,272.37,287.07,271.27z"/>
	<path d="M314.74,290.96c-5.59-4.4-12.48-6.2-18.38-9.99c-0.78-0.85-1.65-1.52-2.71-1.9c-1.05-1.15-2.03-2.38-3.42-3.09
		C292.23,281.74,313.21,290.19,314.74,290.96z"/>
	<path d="M290.24,275.98c-0.03-0.07-0.06-0.14-0.08-0.21C290.06,275.87,290.01,275.86,290.24,275.98z"/>
	<path d="M234.21,265.08c-0.5-1.1-1-1.1-1.8-0.7C232.51,265.48,233.11,265.68,234.21,265.08z"/>
	<path d="M259.39,289.86c-1.1,0.1-1,1-1.1,1.8C258.99,291.26,259.59,290.76,259.39,289.86z"/>
	<path d="M266.18,272.37c-0.1,0-0.3,0-0.4-0.1C265.78,274.4,265.38,274.37,266.18,272.37z"/>
	<path d="M88.52,83.02c0.9,0.8,1.6,1.1,2.6,0.9C90.62,82.62,89.82,82.72,88.52,83.02z"/>
	<path d="M91.52,185.94c0.8,0.8,1.2,0.1,1.7-0.5C92.52,185.04,91.92,185.24,91.52,185.94z"/>
	<path d="M419.76,413.76c3.2-2.8,6.7-11.79,6.1-15.79c-0.29-1.89,1.78-5.61,0.5-7.89c-1.4,2.4-2.3,4.7-2,7.09
		c1.04,8.23-4.77,9.37-6.1,13.89C417.35,413.58,419.01,414.14,419.76,413.76z"/>
	<path d="M416.76,356.9c-4.4-2.1-8.49-4.1-13.39-3.5C406.37,358.8,413.27,361,416.76,356.9z"/>
	<path d="M397.28,354.21c-1.99-5.74-6.16-1.63-11.79-6.59c-1.91-1.69-4.6-1.4-7.09-1.2C394.16,353.37,394.32,350.86,397.28,354.21z"
		/>
	<path d="M431.65,391.08c-0.3,0-0.5-0.1-0.8-0.1c-0.5,7.19-2,14.19-1.9,21.48C430.01,412.46,429.65,414.83,431.65,391.08z"/>
	<path d="M434.15,361.4c0.7-5.2-0.2-6.99-3.6-6.89C433.35,356.01,432.15,359.1,434.15,361.4z"/>
	<path d="M427.66,351.01c-1.68-0.18-5.45,3.23-8.19,5.2C422.96,355.71,425.76,354.01,427.66,351.01z"/>
	<path d="M425.96,387.78c1.8-3,1.4-5-0.3-6.89C425.76,382.88,425.86,384.98,425.96,387.78z"/>
	<path d="M435.05,369.3c0.4-2.8-0.6-4.4-1.9-6C432.75,365.3,432.85,367.1,435.05,369.3z"/>
	<path d="M431.25,348.11c1.2-3.3,1.1-3.7-1.1-5.8C429.85,344.81,431.55,346.21,431.25,348.11z"/>
	<path d="M429.85,378.79c-0.9,1.9-0.5,3.1,0.5,4C430.55,381.49,430.55,380.29,429.85,378.79z"/>
	<path d="M425.06,361.7c-0.3-1.5-1.7-1.3-2.5-1.8C422.66,361.7,423.36,362.3,425.06,361.7z"/>
	<path d="M422.06,440.84c0.3-1.3,0.5-2.6,0.7-3.9C421.6,438.02,420.58,440.84,422.06,440.84z"/>
	<path d="M369.4,358.5c-0.9-1.1-2-1-3.2-0.7C367.2,358.6,368.1,359.1,369.4,358.5z"/>
	<path d="M426.46,420.36c0.9-0.3,0.8-1.2,1.1-1.9C426.44,417.76,425.94,420.01,426.46,420.36z"/>
	<path d="M160.86,207.52c5.6,1.6,6.59,6.89,8.99,11.09C170.46,213.52,166.86,209.02,160.86,207.52z"/>
	<path d="M197.64,255.88c-4.8,2.2-6,5.6-3.6,9.39C194.04,261.58,195.84,259.18,197.64,255.88z"/>
	<path d="M143.68,153.96c0.1,3.2,2.1,5.5,4.8,7.39C144.14,152.36,145.03,153.06,143.68,153.96z"/>
	<path d="M141.48,150.67c-0.5-2.1-1.1-4.2-1.6-6.3C138.27,144.37,138.3,147.82,141.48,150.67z"/>
	<path d="M188.54,265.58c-0.54-1.08,0.28-0.95-5.7,2.7C185.55,268.67,187.24,267.47,188.54,265.58z"/>
	<path d="M162.56,221.21c0.8,2.3,0.8,4.3,3,5.2C165.66,224.31,164.46,222.91,162.56,221.21z"/>
	<path d="M192.94,273.97c1.7-1.2,2.4-2.9,2.8-4.9C194.14,270.47,193.54,272.27,192.94,273.97z"/>
	<path d="M167.76,246.89c0.5-1.7-0.2-2.7-0.8-4.2C165.86,244.69,166.86,245.59,167.76,246.89z"/>
	<path d="M149.97,164.36c-0.5,1.3,0.4,2,1,2.6C151.17,165.85,151.17,164.95,149.97,164.36z"/>
	<path d="M161.76,219.01c0.5-1.4-0.3-2.1-1.3-3.4C160.46,217.21,160.66,218.21,161.76,219.01z"/>
	<path d="M154.07,198.23c0.4,1.4,0.8,2.1,1.5,2.6C156.37,200.43,156.27,200.23,154.07,198.23z"/>
	<path d="M139.88,141.77c-0.7-0.4-1.3-0.2-1.7,0.7C139.08,142.97,139.58,142.57,139.88,141.77z"/>
	<path d="M196.24,252.99c0,0.4,0,0.8,0,1.3C196.94,253.89,196.44,253.49,196.24,252.99z"/>
	<path d="M144.88,149.37c0.4-1.1-0.4-1.2-1.1-1.7C143.68,148.87,144.28,149.07,144.88,149.37z"/>
	<path d="M153.07,195.73c0-2.4-2.67-1.97-0.5,0.2c0.3,0.3,0.6,0.3,0.3,0C152.87,196.03,153.07,195.83,153.07,195.73z"/>
	<path d="M157.77,205.42c0.1,0.1,0.3-0.1,0.6-0.1C158.06,203.5,156.24,204.66,157.77,205.42z"/>
	<path d="M306.25,361.4c-4.55,1.73,0.78,10.08,3.4,14.19C309.31,366.84,305.12,367.74,306.25,361.4z"/>
	<path d="M311.05,452.23c1-5.8,1.9-11.59,2.9-17.39C312.37,438.68,308.54,452.23,311.05,452.23z"/>
	<path d="M292.66,482.91c3.1-2.5,4.8-8.49,3.6-13.59C296.26,474.01,293.66,478.01,292.66,482.91z"/>
	<path d="M310.75,390.08c-3.19-5.39,3.94-8.79-1.5-11.39c2.86,4.76-3.89,6.42,1.5,13.09C311.55,391.18,311.05,390.48,310.75,390.08z
		"/>
	<path d="M322.24,371.89c-0.05,2.8-1.3,5.2-2.4,7.59c2-1.4,3.34-3.2,3.2-5.7c-0.11-1.83,0.6-3.2,0.7-3.1c2.1-3.6,0.4-8.99-4-11.09
		C327.11,372.24,322.28,369.57,322.24,371.89z"/>
	<path d="M315.54,410.06c-0.3,5.2-1.4,10.29-0.5,15.49C314.64,420.36,316.04,415.26,315.54,410.06z"/>
	<path d="M292.76,369.39c1.2,1.7,0.4,4.1,2.1,6.1C296.06,372.19,295.56,370.89,292.76,369.39z"/>
	<path d="M286.97,364.8c0.3,2.1,2.3,2.4,3.9,3.9C290.56,365.9,288.76,365.4,286.97,364.8z"/>
	<path d="M295.06,458.53c1.13-1.7,2.01-5.6,0-5.6C295.06,454.83,295.06,456.63,295.06,458.53z"/>
	<path d="M315.74,404.87c1.1-1.7,1.1-3.6,0.9-5.4C315.64,401.17,315.34,402.97,315.74,404.87z"/>
	<path d="M292.98,376.16c0.1,0.75,0.76,6.35,0.76,4.36C294.55,378.88,295.16,377.27,292.98,376.16z"/>
	<path d="M292.86,376.09c0.14,0.11,0.14,0.08,0.1-0.1L292.86,376.09z"/>
	<path d="M290.86,373.99c0.2,1.3,0.7,2,2,2.1C292.96,374.89,292.16,374.39,290.86,373.99z"/>
	<path d="M286.17,188.54c6-0.6,8.39-3.5,7.49-8.99C292.36,183.44,289.86,186.54,286.17,188.54z"/>
	<path d="M301.15,192.73c-1.1,0.7-0.9,2.2,0.1,3.3c1.4-0.6,0.4-1.8,0.8-2.7c2.1-1.4,4.2-2.7,3.7-6.4
		C303.85,189.24,303.16,191.44,301.15,192.73z"/>
	<path d="M285.07,240.6c0.5-3,1.8-5.8,3.3-8.49C284.87,235.4,284.17,237.2,285.07,240.6z"/>
	<path d="M311.35,178.34c-2,2-2.6,4.6-3.5,7.09C309.75,183.44,310.85,181.04,311.35,178.34z"/>
	<path d="M295.76,172.05c-1.7,2.1-1.6,3.9-1.7,5.7C296.16,176.45,295.56,174.45,295.76,172.05z"/>
	<path d="M272.98,229c0.6-1.6,0.5-3.2-0.1-4.8C272.48,225.91,271.28,227.51,272.98,229z"/>
	<path d="M292.16,227.91c-0.7,0.7-1.4,1.5-2.4,2.6C291.06,229.8,291.66,228.8,292.16,227.91z"/>
	<path d="M312.65,131.68c0.9-0.8,0.6-1.6,0.5-2.4C311.65,129.88,312.05,130.68,312.65,131.68z"/>
	<path d="M307.85,130.38c-1.1,0.8-0.3,1.8-0.3,2.6C308.25,132.18,308.95,131.48,307.85,130.38z"/>
	<path d="M297.26,163.46c1.4-0.1,1.3-1.1,1.9-1.7C297.66,161.46,297.66,162.46,297.26,163.46z"/>
	<path d="M296.16,169.55c0.9-0.3,0.9-0.9,0.3-1.8C295.66,168.45,295.46,168.95,296.16,169.55z"/>
	<path d="M273.48,219.81c0.6-0.6,0.3-1.3,0-2.3C272.88,218.61,272.48,219.21,273.48,219.81z"/>
	<path d="M306.85,139.67c-0.3,0.7-0.5,1.1,0,1.6C307.65,140.77,307.65,140.27,306.85,139.67z"/>
	<path d="M311.25,178.34c0.8,0,1.1-0.6,1.3-1.6C311.55,177.05,311.15,177.35,311.25,178.34z"/>
	<path d="M415.27,477.81c-3.2,0.07-4.1,1.8-3.5,7.29c5.5,0.5,7.33-0.3,7.49-3.3C419.39,479.41,417.67,477.76,415.27,477.81z
		 M417.56,482.31c-0.3,1.1-1.1,1.7-2.3,1.5c-0.5-0.5,0.5-1.3-0.4-1.7c-0.6-0.5-1.3,0.8-1.9-0.2
		C412.97,477.99,418.64,478.32,417.56,482.31z"/>
	<path d="M461.43,482.31c-1.6-0.3-1.7-1.6-2.8-2.1c-2.7,0.1-5.2,1.3-8.09,1.7c1.8,3,1.8,3,8.29-0.3c0.6,1.2,0.3,3.2,2.3,3.2
		c1.8,0,3.1-1,3.6-2.9C463.33,481.21,462.23,482.61,461.43,482.31z"/>
	<path d="M428.66,480.21c1.5,1.3,0.4,2.4,0.4,3.7c2.1,0.1,1.8-2.4,3.6-2.2c0.9,0.2,0.2,1.7,1.8,2.1c0.5-2.4,0.3-4.6-0.2-6.89
		C432.16,475.41,426.16,477.3,428.66,480.21z M429.95,478.81c0.8-0.7,1.7-1,3-0.6C432.05,480.61,431.65,480.71,429.95,478.81z"/>
	<path d="M424.66,477.21c-2.3-0.49-3.7,0.5-5.2,3.9C424.27,490.71,432.52,478.89,424.66,477.21z M423.66,483.31
		c-3.05-0.2-2.82-4.8,0.3-4.8C427.43,478.78,426.75,483.51,423.66,483.31z"/>
	<path d="M319.84,513.88c-2.9-1.5-5.5-0.1-8.19-0.5C313.15,516.18,315.14,516.18,319.84,513.88z"/>
	<path d="M227.91,230.2c-7.79,0.2-15.09,1.6-22.28,0.4C212.92,232.1,220.22,234.5,227.91,230.2z"/>
	<path d="M196.64,206.62c4.5-1.6,8.69-3.2,13.29-4.9C205.63,200.03,200.63,201.93,196.64,206.62z"/>
	<path d="M208.43,206.32c-3.4-0.3-4-0.1-6.59,2.5C204.03,208.12,207.03,209.42,208.43,206.32z"/>
	<path d="M213.62,233.7c2.7,0.6,5.5,1.1,8.39,0.8C219.32,233.1,216.42,233.7,213.62,233.7z"/>
	<path d="M206.33,233.8c-2.3-0.3-4.5-0.5-7.49-0.9C201.63,234,203.93,234.1,206.33,233.8z"/>
	<path d="M219.22,208.02c-1.8,0.1-2.5,1.4-3.2,2.3C217.52,210.12,219.02,210.12,219.22,208.02z"/>
	<path d="M225.11,218.31c-1.3-1.4-2.4-1.2-4.1,0C222.82,218.71,223.92,218.81,225.11,218.31z"/>
	<path d="M229.11,328.83c2.7-1,4.7-2.9,6.59-5.1C232.81,324.53,231.11,326.93,229.11,328.83z"/>
	<path d="M235.01,322.43c0.1-2.2-0.7-3.8-2.4-5C232.71,319.33,232.71,321.23,235.01,322.43z"/>
	<path d="M228.11,310.64c-1.2,2.1-1.1,2.6,1.7,4.4C229.21,313.64,228.71,312.24,228.11,310.64z"/>
	<path d="M240.9,326.93c0.5,1.7,1.1,3,2.4,3.8C242.9,328.43,242.9,328.43,240.9,326.93z"/>
	<path d="M228.21,324.33c1.3-0.6,1.5-1.5,1.9-2.5C229.11,322.33,228.81,323.23,228.21,324.33z"/>
	<path d="M215.52,304.35c1.1,0.3,1.4-0.4,1.9-1.2C216.22,302.95,215.82,303.55,215.52,304.35z"/>
	<path d="M340.62,319.43c0.6,2.3,1.2,4.6,2.6,6.59C343.42,323.53,343.12,321.13,340.62,319.43z"/>
	<path d="M338.93,327.43c-0.2-1.8-1-2.7-2.1-3.4C337.13,325.33,337.33,326.53,338.93,327.43z"/>
	<path d="M351.12,321.83c0.7,0.8,1.4,1.6,2.1,2.3C353.31,322.73,352.41,322.03,351.12,321.83z"/>
	<path d="M340.52,319.53c-0.3-0.9,0.4-2.1-0.9-2.6C338.73,318.24,339.52,318.93,340.52,319.53z"/>
	<path d="M718.23,284.86c17.53,9.11,17.02,7.12,10.49,3.9c-4.95-2.45-18.57-7.52-21.18-14.79
		C704.96,268.82,704.48,277.71,718.23,284.86z"/>
	<path d="M662.17,291.16c-4.3-3.7-8.79-6.99-13.89-10.39C649.68,283.26,658.78,290.06,662.17,291.16z"/>
	<path d="M684.85,317.24c4.5-3.7,9.99-5.6,14.99-8.39C694.15,310.44,688.75,312.54,684.85,317.24z"/>
	<path d="M635.29,251.99c1.5-2.3,2.9-4.6,4.6-7.29C636.79,246.79,635.49,248.69,635.29,251.99z"/>
	<path d="M681.46,310.84c-0.9-0.2-1.4,0.4-1.7,1c0.25,0.62-6.76,2.95-9.99,12.29c3.06-0.27,0.66-0.36,11.49-9.49
		c-3.14,0.59-4.84,3.48-7.44,4.91C675.32,316.08,680.73,312.53,681.46,310.84z M673.66,321.42c-0.11,0.11-2.22-0.63,0.1-1.89
		C673.76,319.76,673.48,321.36,673.66,321.42z"/>
	<path d="M640.69,265.88c2.5,2.4,4.4,0.4,6.2,0C644.89,265.38,642.99,264.98,640.69,265.88z"/>
	<path d="M681.46,281.06c-1.2,2.7-2.5,5.4-3.7,8.09C679.96,286.86,681.06,284.16,681.46,281.06z"/>
	<path d="M682.86,278.57c0.6-1.5,1-2.4,0.9-4.2C683.26,275.87,682.56,276.77,682.86,278.57z"/>
	<path d="M675.76,293.65c-0.8,0.9-1.2,1.5-1.1,2.8C675.36,295.55,675.86,294.95,675.76,293.65z"/>
	<path d="M716.13,273.87c-0.3-0.3-0.7-0.5-1.1-0.9C715.13,273.87,715.63,273.87,716.13,273.87z"/>
	<path d="M655.08,254.38c-0.2,0.2-0.4,0.4-0.7,0.6C654.98,255.38,655.08,254.88,655.08,254.38z"/>
	<path d="M651.98,266.08c0-1.2-0.7-0.9-1.3-1C650.68,266.48,651.28,266.28,651.98,266.08z"/>
	<path d="M705.74,272.57c0.2-0.7-0.2-1-0.8-1.2C705.04,271.97,705.14,272.47,705.74,272.57z"/>
	<path d="M519.38,201.93c1.1,0.6,1.7,0.8,2.6,0.3C521.28,201.43,520.58,201.33,519.38,201.93z"/>
	<path d="M530.88,304.25c0.7,0.5,1.2,0,1.7-0.7C531.67,303.15,531.27,303.55,530.88,304.25z"/>
	<path d="M837.93,414.46c2.4-5.1,7.19-9.19,6-15.69c-0.3-2.4,1.5-4.8,0.7-7.89c-4.98,6.92,0.97,10.42-5.4,16.79
		C832.95,413.95,837.93,415.45,837.93,414.46z"/>
	<path d="M832.84,360c5.46-2.73-6.42-6.74-11.89-5.7C823.7,357.87,829.8,361.52,832.84,360z"/>
	<path d="M815.35,354.91c-0.2-2.3-1.89-3.02-3.8-3.3c-9.82-1.41-5.47-5.1-15.09-4.3c3.9,1.2,7.4,3.36,11.29,4.3
		C810.56,352.28,813.25,352.81,815.35,354.91z"/>
	<path d="M847.43,412.86c0.8-6.89,2.1-13.79,1.9-20.78c-1.7,3.1-0.26,6.81-1.5,10.09C846.57,405.48,847.83,409.26,847.43,412.86z"/>
	<path d="M845.53,351.61c-3,1-4.8,3.4-7.99,5.1C841.13,356.51,843.83,354.81,845.53,351.61z"/>
	<path d="M851.82,361.9c1.8-3.6,0.5-6.59-3.2-6.69C851.22,356.8,850.43,359.8,851.82,361.9z"/>
	<path d="M848.43,342.82c-0.7,2.7,1.1,4.4,1.1,6.2C850.23,347.11,850.52,345.21,848.43,342.82z"/>
	<path d="M852.82,369.79c1-2.5-0.2-4-1.5-5.6C850.82,366.2,850.92,368,852.82,369.79z"/>
	<path d="M844.23,387.88c1.3-2.1,1.1-4.1-0.2-6.2C843.63,383.78,844.23,385.78,844.23,387.88z"/>
	<path d="M839.63,441.74c1.4-1.1,0.9-2.6,0.9-3.9C839.53,438.94,839.13,440.14,839.63,441.74z"/>
	<path d="M843.23,362.7c-0.7-1.5-1.6-1.8-2.8-2.1C841.03,362.4,841.03,362.4,843.23,362.7z"/>
	<path d="M847.93,380.29c-0.7,1.2-0.5,2.4,0.3,3.9C849.23,382.48,848.03,381.49,847.93,380.29z"/>
	<path d="M787.47,359.4c-1.1-1.1-2-1-3.1-0.8C785.08,359.6,785.98,359.7,787.47,359.4z"/>
	<path d="M844.33,421.25c1-0.5,1.2-1.2,1.2-2.3C844.53,419.56,844.13,420.16,844.33,421.25z"/>
	<path d="M737.91,380.29c4.68-3.41,2.14-5.23,4.3-9.09c1.89-3.4-0.2-9.09-4.3-10.89c2.76,4.77,5.28,7.25,3,11.49
		C739.45,374.51,739.81,377.79,737.91,380.29z"/>
	<path d="M723.92,362.5c-2,3.2-0.1,9.59,4,14.29C728.52,371.39,723.42,367.8,723.92,362.5z"/>
	<path d="M728.22,453.03c0.3,0.1,0.5,0.1,0.8,0.2C735.59,416.79,728.61,445.01,728.22,453.03z"/>
	<path d="M711.43,483.41c2.3-4.2,4.7-8.39,3-13.49C714.63,474.71,711.53,478.71,711.43,483.41z"/>
	<path d="M728.92,391.18c-3.49-5.82,3.93-8.83-1.7-11.79c2.89,5.47-3.42,5.47,1.6,13.09C729.22,392.08,729.12,391.58,728.92,391.18z
		"/>
	<path d="M710.93,369.99c0.5,2.1,0.9,4,1.5,6.49C714.23,373.59,713.83,372.09,710.93,369.99z"/>
	<path d="M733.22,417.86c-1,2.7-0.8,5.5-0.5,9.09C734.42,423.45,732.82,420.65,733.22,417.86z"/>
	<path d="M704.84,365.2c0.5,2.6,2.6,2.8,4,3.7C708.34,366.9,706.84,366.1,704.84,365.2z"/>
	<path d="M733.12,417.86c1.5-4.6,1.5-4.6,0.1-7.39C733.22,413.06,733.22,415.46,733.12,417.86z"/>
	<path d="M733.92,405.57c0.5-1.8,1.3-3.5,1.1-6.1C733.42,401.77,734.02,403.77,733.92,405.57z"/>
	<path d="M712.93,459.52c1.4-2.4,1.5-3,0.5-6.3C713.03,455.63,713.33,457.63,712.93,459.52z"/>
	<path d="M705.14,378.19c0.3,1.6,1.1,2.1,2.6,3C707.04,379.59,706.34,378.99,705.14,378.19z"/>
	<path d="M709.34,374.89c0.4,1.48,0.41,1.5,2.17,1.79c-0.56,1.37-0.45,2.65,0.43,4.21C713.85,377.75,710.01,374.95,709.34,374.89z"
		/>
	<path d="M600.82,319.03c1.6-1.9,1.7-2.4,1.5-5.7C601.82,315.14,601.32,316.94,600.82,319.03z"/>
	<path d="M575.54,265.08c-0.04-0.47-0.15-5.67-1.1-7.09C574.14,260.88,574.24,262.98,575.54,265.08z"/>
	<path d="M615.41,268.37c-1.4,0.5-0.71,1.39-1,2.09c-1.55-0.17-2.7,0.26-2.8,2.51c1.49-0.49,3.18-0.3,2.9-2.47
		c1.46,0.33,2.75,1.47,4.7,1.37C618.11,270.27,617.21,268.67,615.41,268.37z"/>
	<path d="M584.73,279.96c0.6,1.3,0.6,2.9,1.9,4C586.53,282.36,586.13,280.96,584.73,279.96z"/>
	<path d="M583.43,271.77c0.5-0.1,0.5-0.3-0.8-3C582.43,270.27,582.93,270.97,583.43,271.77z"/>
	<path d="M602.02,270.47c1.3,1.3,2.2-0.1,3.2-0.4C604.12,269.97,602.92,268.87,602.02,270.47z"/>
	<path d="M584.83,268.97c0-6.36-2.19-5.2-1.5-5.5c-0.5-1.4-1.4-2.4-2.7-3.2c0.2,1.6,1.3,2.5,2.5,3.3
		C583.03,263.68,584.06,267.94,584.83,268.97z"/>
	<path d="M620.8,275.07c-1.3,0.9-0.3,1.3-0.3,2.3C621.3,276.37,621.4,275.87,620.8,275.07z"/>
	<path d="M586.73,286.76c0.3-1.1,0.1-2,0-2.9C586.73,284.76,586.73,285.66,586.73,286.76z"/>
	<path d="M627.5,273.67c-0.4-0.9-1-1-2.2-0.9C626.1,274.07,626.8,274.17,627.5,273.67z"/>
	<path d="M577.34,307.54c-0.5,0.8,0.3,1.1,0.3,1.8c0.5-0.3,0.6-0.4,0.7-0.5C578.24,308.24,578.24,307.54,577.34,307.54z"/>
	<path d="M575.94,267.87c0.1,0.7,0.3,1.1,0.7,1.3C576.94,268.67,576.94,268.17,575.94,267.87z"/>
	<path d="M738.21,478.51c-2.7,1.2-6-0.5-8.29,2.6c3.9-0.6,7.29-1.1,10.59-1.6C726.9,445.49,730.45,465.72,738.21,478.51z"/>
	<path d="M731.92,457.63c6.69,6.89,14.59,12.49,21.88,18.79C747.41,469.22,739.91,463.02,731.92,457.63z"/>
	<path d="M805.86,472.71c-4.6,0.3-9.09,1.7-13.49,3.7C806.71,473.29,806.44,473.87,805.86,472.71z"/>
	<path d="M778.18,478.51c2.3-0.3,4.7-0.1,7.19-1.2C782.68,477.01,780.28,476.61,778.18,478.51z"/>
	<path d="M766.21,481.17c1.71-0.24,3.57-0.14,4.98-1.46C769.47,480,767.76,480.12,766.21,481.17z"/>
	<path d="M765.89,481.21l0.1,0.1C766.16,481.19,766.42,481.1,765.89,481.21z"/>
	<path d="M774.34,479.04c-1.12,0.13-2.23-0.08-3.26,0.57C772.24,479.71,773.38,479.97,774.34,479.04z"/>
	<path d="M778.18,478.51c-0.17,0.13-0.21,0.02,0.1,0.1L778.18,478.51z"/>
	<path d="M774.5,478.93c4.35,0.65,4.41-1.43-0.12-0.02c0.16,0,0.06,0.03-0.04,0.13C774.65,479,774.61,479.03,774.5,478.93z"/>
	<path d="M765.99,481.31c-0.6,0-1.2,0-2.2,0C764.79,481.91,765.39,481.61,765.99,481.31z"/>
	<path d="M834.74,479.31c-3.1,0.16-3.8,2-3.1,7.39c5.7,0.3,7.34-0.6,7.29-3.6C838.9,480.81,837.13,479.18,834.74,479.31z
		 M837.34,484.01c-0.3,1.1-1.1,1.7-2.2,1.5c-0.7-0.6,0.3-1.1-0.3-1.6c-0.6-1-1.5,0.6-2-0.5
		C832.84,479.46,838.41,480.01,837.34,484.01z"/>
	<path d="M844.23,478.61c-2.19-0.42-3.7,0.8-4.9,3.9C843.81,492.35,852.36,480.16,844.23,478.61z M843.53,484.8
		c-2.89,0-3.24-4.7,0.1-4.7C846.83,479.86,846.91,484.8,843.53,484.8z"/>
	<path d="M848.53,481.61c1.3,1.4,0.4,2.4,0.3,3.6c2.1,0.7,1.7-2.3,3.4-2c1.1,0.2,0.3,1.7,2,2.1c0.6-2.4,0.3-4.6-0.1-6.89
		C851.94,476.85,846.04,478.92,848.53,481.61z M849.53,480.41c1.2-0.9,2.1-1.4,3.2-0.5C851.72,482.01,851.72,482.01,849.53,480.41z"
		/>
	<path d="M877.6,482.41c0,0.01-0.01,0.02-0.01,0.03c-0.15-1.99-1.08-1.69-8.98,0.37c1.87,5.19,6.71-0.61,8.96-0.3
		c-1.13,3.13,2.51,5.08,5.43,0.3C881.1,482.11,879.2,484.01,877.6,482.41z"/>
	<path d="M738.01,514.68c-3-1.5-5.6-0.1-8.39-0.6C731.22,516.98,733.12,517.08,738.01,514.68z"/>
	<path d="M614.71,206.82c0.36,0.71-1.64,1.31,12.89-4.1C622,200.73,618.61,204.52,614.71,206.82z"/>
	<path d="M620.01,209.62c2.2-0.5,5.1,0.6,6.69-2.7C623.8,206.62,621.6,207.32,620.01,209.62z"/>
	<path d="M636.99,208.82c-1.5,0.2-2.1,1.6-3.3,2.1C636.29,211.02,636.29,211.02,636.99,208.82z"/>
	<path d="M639.19,219.01c1.35,0.42,2.55,0.55,3.9,0.1C641.89,217.59,640.76,217.97,639.19,219.01z"/>
	<path d="M726.72,268.47c-1.6,0.8-0.9,2.3-1.2,3.4C728.02,271.37,726.42,269.57,726.72,268.47z"/>
	<path d="M735.51,231.9c-1.2,0.9-1.1,2-0.8,3.7C735.42,234.1,735.81,233.1,735.51,231.9z"/>
	<path d="M734.12,245.39c-0.5,0.8-0.3,1.5,0,2.3C734.52,246.89,734.72,246.19,734.12,245.39z"/>
	<path d="M739.61,232.4c-0.9,0.8-0.4,1.6,0,2.8C740.31,234,740.21,233.2,739.61,232.4z"/>
	<path d="M727.22,258.68c0.9-0.3,0.8-0.7,0.5-1.3C726.72,257.58,727.22,258.18,727.22,258.68z"/>
	<path d="M726.52,263.28c0.2,0.1,0.3,0.3,0.5,0.3C728.54,263.58,726.52,261.48,726.52,263.28z"/>
	<path d="M646.58,329.83c3.1-0.8,5.1-3.1,7.19-5.3C650.78,325.53,648.98,328.03,646.58,329.83z"/>
	<path d="M652.98,323.03c0-1.9-0.4-3.6-2.3-5.2C650.38,320.33,650.98,321.93,652.98,323.03z"/>
	<path d="M646.58,311.34c-2.74,0.46-0.93,3.99,1,4.9C647.88,314.34,646.28,313.04,646.58,311.34z"/>
	<path d="M659.27,327.63c0.1,1.6,0.7,2.9,2.2,4.3C661.77,329.53,660.47,328.53,659.27,327.63z"/>
	<path d="M649.68,320.73c-1.3,0.8-1.9,1.2-1.8,2.2C648.68,322.73,648.98,322.03,649.68,320.73z"/>
	<path d="M653.29,343.42c1.17,0,1.78-0.5,2.06-1.33c3.47-1.39,6.83-3.09,8.92-6.46c-2.96,2.07-6.31,3.67-8.89,6.4
		C654.28,341.82,653.78,342.62,653.29,343.42z"/>
	<path d="M646.68,324.43c1.1,0,1.2-0.8,1.2-1.4C647.08,323.13,646.88,323.83,646.68,324.43z"/>
	<path d="M633.69,305.05c1,0.3,1.4-0.2,1.7-1C634.29,303.75,633.99,304.35,633.69,305.05z"/>
	<path d="M759.1,321.13c0.8,1.9,0.6,4.1,1.9,6.1C761.89,324.53,761.59,323.43,759.1,321.13z"/>
	<path d="M757.1,328.13c-0.3-1.9-1.2-2.7-2.1-3.5C755.1,325.93,755.3,327.13,757.1,328.13z"/>
	<path d="M771.89,325.53c0.1-0.9-0.3-1.5-1.3-2C770.49,324.73,771.39,325.03,771.89,325.53z"/>
	<path d="M758,319.63c0.6-0.6,0.6-1.2-0.3-2.1C757.3,318.43,757.3,319.03,758,319.63z"/>
<path fill="#e6e6e6" d="m206.8 163.6c0-5.1 4.1-9.2 9.3-9.2s9.2 4.2 9.2 9.2-4.1 9.2-9.3 9.2-9.2-4.1-9.2-9.2zm17.3-.1c0-4.5-3.5-8.2-8.2-8.2s-8.2 3.7-8.2 8.3c0 4.5 3.5 8.2 8.2 8.2s8.2-3.7 8.2-8.3zm-13 0c0-2.8 2.1-5.1 5.1-5.1 1.9 0 2.9.6 3.9 1.5l-1.4 1.7c-.8-.7-1.5-1.1-2.5-1.1-1.7 0-2.8 1.4-2.8 3.1s1.1 3 2.8 3c1.1 0 1.7-.5 2.5-1.1l1.4 1.4c-1.1 1.1-2.1 1.7-4 1.7-2.9 0-5-2.3-5-5.1z"/><path fill="#e6e6e6" d="m226.6 154.7h3.4l4.2 13.2 4.4-13.3h2.6l4.4 13.3 4.2-13.2h3.3l-6.2 18h-2.7l-4.4-12.8-4.4 12.8h-2.7z"/><path fill="#e6e6e6" d="m252.8 165.8c0-3.9 3.1-7 7.2-7 4.2 0 7.2 3.2 7.2 7s-3.1 7-7.3 7c-4 0-7.1-3.1-7.1-7zm11.3 0c0-2.3-1.7-4.3-4.2-4.3s-4.1 2-4.1 4.3 1.7 4.3 4.1 4.3c2.7.1 4.2-1.9 4.2-4.3z"/><path fill="#e6e6e6" d="m269.5 159.1h3.1v3c.8-2 2.4-3.4 4.8-3.3v3.2h-.2c-2.7 0-4.6 1.7-4.6 5.4v5.1h-3.1z"/><path fill="#e6e6e6" d="m279.1 153.9h3.1v11.1l5.6-6h3.8l-5.4 5.5 5.5 8h-3.5l-4.1-5.8-1.9 2v3.9h-3.1z"/><path fill="#e6e6e6" d="m291.7 165.8c0-3.9 3.1-7 7.2-7 4.2 0 7.2 3.2 7.2 7s-3.1 7-7.3 7c-4 0-7.1-3.1-7.1-7zm11.3 0c0-2.3-1.7-4.3-4.2-4.3s-4.1 2-4.1 4.3 1.7 4.3 4.1 4.3c2.6.1 4.2-1.9 4.2-4.3z"/><path fill="#e6e6e6" d="m308.2 167.6v-8.6h3.1v7.6c0 2.1 1.1 3.3 2.9 3.3s3-1.3 3-3.3v-7.6h3.1v13.4h-3.1v-2.1c-.8 1.3-2.1 2.3-4.2 2.3-3.1.2-4.8-1.8-4.8-5z"/><path fill="#e6e6e6" d="m323.9 168.8v-7.1h-1.7v-2.6h1.7v-3.7h3.1v3.7h3.6v2.6h-3.6v6.6c0 1.2.6 1.7 1.7 1.7.7 0 1.3-.2 1.9-.5v2.5c-.8.5-1.7.7-2.8.7-2.3 0-3.9-.9-3.9-3.9z"/><path fill="#e6e6e6" d="m333.2 154.7h3.2v15h9.4v2.9h-12.5v-17.9z"/><path fill="#e6e6e6" d="m356 172.5v-1.7c-.9 1.1-2.3 2-4.4 2-2.6 0-4.8-1.4-4.8-4.2 0-3 2.3-4.4 5.4-4.4 1.7 0 2.6.2 3.7.5v-.2c0-1.9-1.2-2.9-3.3-2.9-1.5 0-2.6.3-3.9.8l-.8-2.5c1.5-.7 2.9-1.1 5.1-1.1 4 0 5.9 2.1 5.9 5.7v8zm.1-5.6c-.8-.3-1.9-.5-3.1-.5-2 0-3.1.8-3.1 2.1s1.1 2 2.6 2c2 0 3.5-1.1 3.5-2.9z"/><path fill="#e6e6e6" d="m364.9 170.5v2.1h-3.1v-18.7h3.1v7.4c1-1.4 2.4-2.5 4.5-2.5 3.2 0 6.3 2.5 6.3 7s-3.1 7-6.3 7c-2.1 0-3.5-1.1-4.5-2.3zm7.7-4.7c0-2.6-1.7-4.3-3.9-4.3s-3.9 1.7-3.9 4.4c0 2.6 1.8 4.3 3.9 4.3s3.9-1.7 3.9-4.4z"/><path fill="#e6e6e6" d="m376.9 170.8 1.4-2.1c1.4 1.1 3 1.7 4.4 1.7s2.1-.5 2.1-1.5-1.3-1.4-2.8-1.8c-.1 0-.2-.1-.2-.1-2-.6-4.2-1.4-4.2-4s2.1-4.1 4.8-4.1c1.7 0 3.5.6 5 1.5l-1.2 2.2c-1.3-.8-2.6-1.3-3.8-1.3s-1.9.5-1.9 1.4 1.3 1.4 2.8 1.8c.1 0 .2.1.2.1 2 .6 4.2 1.5 4.2 4 0 2.9-2.2 4.2-5 4.2-1.9 0-4-.7-5.8-2z"/><path fill="#e6e6e6" d="m505.6 163.6c0-5.1 4.1-9.2 9.3-9.2s9.2 4.2 9.2 9.2-4.1 9.2-9.3 9.2-9.2-4.1-9.2-9.2zm17.4-.1c0-4.5-3.5-8.2-8.2-8.2s-8.2 3.7-8.2 8.3c0 4.5 3.5 8.2 8.2 8.2s8.2-3.7 8.2-8.3zm-13.1 0c0-2.8 2.1-5.1 5.1-5.1 1.9 0 2.9.6 3.9 1.5l-1.4 1.7c-.8-.7-1.5-1.1-2.5-1.1-1.7 0-2.8 1.4-2.8 3.1s1.1 3 2.8 3c1.1 0 1.7-.5 2.5-1.1l1.4 1.4c-1.1 1.1-2.1 1.7-4 1.7-2.9 0-5-2.3-5-5.1z"/><path fill="#e6e6e6" d="m525.4 154.7h3.4l4.2 13.2 4.4-13.3h2.6l4.4 13.3 4.2-13.2h3.3l-6.2 18h-2.7l-4.4-12.8-4.4 12.8h-2.7z"/><path fill="#e6e6e6" d="m551.7 165.8c0-3.9 3.1-7 7.2-7 4.2 0 7.2 3.2 7.2 7s-3.1 7-7.3 7c-4.1 0-7.1-3.1-7.1-7zm11.2 0c0-2.3-1.7-4.3-4.2-4.3s-4.1 2-4.1 4.3 1.7 4.3 4.1 4.3c2.7.1 4.2-1.9 4.2-4.3z"/><path fill="#e6e6e6" d="m568.3 159.1h3.1v3c.8-2 2.4-3.4 4.8-3.3v3.2h-.2c-2.7 0-4.6 1.7-4.6 5.4v5.1h-3.1z"/><path fill="#e6e6e6" d="m577.9 153.9h3.1v11.1l5.6-6h3.8l-5.4 5.5 5.5 8h-3.5l-4.1-5.8-1.9 2v3.9h-3.1z"/><path fill="#e6e6e6" d="m590.6 165.8c0-3.9 3.1-7 7.2-7 4.2 0 7.2 3.2 7.2 7s-3.1 7-7.3 7c-4.1 0-7.1-3.1-7.1-7zm11.2 0c0-2.3-1.7-4.3-4.2-4.3s-4.1 2-4.1 4.3 1.7 4.3 4.1 4.3c2.6.1 4.2-1.9 4.2-4.3z"/><path fill="#e6e6e6" d="m607 167.6v-8.6h3.1v7.6c0 2.1 1.1 3.3 2.9 3.3s3-1.3 3-3.3v-7.6h3.1v13.4h-3.1v-2.1c-.8 1.3-2.1 2.3-4.2 2.3-3 .2-4.8-1.8-4.8-5z"/><path fill="#e6e6e6" d="m622.7 168.8v-7.1h-1.7v-2.6h1.7v-3.7h3.1v3.7h3.6v2.6h-3.6v6.6c0 1.2.6 1.7 1.7 1.7.7 0 1.3-.2 1.9-.5v2.5c-.8.5-1.7.7-2.8.7-2.3 0-3.9-.9-3.9-3.9z"/><path fill="#e6e6e6" d="m632 154.7h3.2v15h9.4v2.9h-12.6z"/><path fill="#e6e6e6" d="m654.8 172.5v-1.7c-.9 1.1-2.3 2-4.4 2-2.6 0-4.8-1.4-4.8-4.2 0-3 2.3-4.4 5.4-4.4 1.7 0 2.6.2 3.7.5v-.2c0-1.9-1.2-2.9-3.3-2.9-1.5 0-2.6.3-3.9.8l-.8-2.5c1.5-.7 2.9-1.1 5.1-1.1 4 0 5.9 2.1 5.9 5.7v8zm.1-5.6c-.8-.3-1.9-.5-3.1-.5-2 0-3.1.8-3.1 2.1s1.1 2 2.6 2c2 0 3.5-1.1 3.5-2.9z"/><path fill="#e6e6e6" d="m663.7 170.5v2.1h-3.1v-18.7h3.1v7.4c1-1.4 2.4-2.5 4.5-2.5 3.2 0 6.3 2.5 6.3 7s-3.1 7-6.3 7c-2.1 0-3.5-1.1-4.5-2.3zm7.8-4.7c0-2.6-1.7-4.3-3.9-4.3-2.1 0-3.9 1.7-3.9 4.4 0 2.6 1.8 4.3 3.9 4.3s3.9-1.7 3.9-4.4z"/><path fill="#e6e6e6" d="m675.8 170.8 1.4-2.1c1.4 1.1 3 1.7 4.4 1.7s2.1-.5 2.1-1.5-1.3-1.4-2.8-1.8c-.1 0-.2-.1-.2-.1-2-.6-4.2-1.4-4.2-4s2.1-4.1 4.8-4.1c1.7 0 3.5.6 5 1.5l-1.2 2.2c-1.3-.8-2.6-1.3-3.8-1.3s-1.9.5-1.9 1.4 1.3 1.4 2.8 1.8c.1 0 .2.1.2.1 2 .6 4.2 1.5 4.2 4 0 2.9-2.2 4.2-5 4.2-2 0-4.1-.7-5.8-2z"/><path fill="#e6e6e6" d="m61 298.6c0-5.1 4.1-9.2 9.3-9.2s9.2 4.2 9.2 9.2-4.1 9.2-9.3 9.2c-5.1 0-9.2-4.2-9.2-9.2zm17.4-.1c0-4.5-3.5-8.2-8.2-8.2s-8.2 3.7-8.2 8.3c0 4.5 3.5 8.2 8.2 8.2s8.2-3.7 8.2-8.3zm-13.1-.1c0-2.8 2.1-5.1 5.1-5.1 1.9 0 2.9.6 3.9 1.5l-1.4 1.7c-.8-.7-1.5-1.1-2.5-1.1-1.7 0-2.8 1.4-2.8 3.1s1.1 3 2.8 3c1.1 0 1.7-.5 2.5-1.1l1.4 1.4c-1.1 1.1-2.1 1.7-4 1.7-2.8.1-5-2.2-5-5.1z"/><path fill="#e6e6e6" d="m80.9 289.7h3.4l4.2 13.2 4.4-13.3h2.6l4.4 13.3 4.2-13.2h3.3l-6.2 18h-2.7l-4.4-12.8-4.4 12.8h-2.7z"/><path fill="#e6e6e6" d="m107.1 300.8c0-3.9 3.1-7 7.2-7s7.2 3.2 7.2 7-3.1 7-7.3 7c-4 0-7.1-3.1-7.1-7zm11.3 0c0-2.3-1.7-4.3-4.2-4.3s-4.1 2-4.1 4.3 1.7 4.3 4.1 4.3c2.6.1 4.2-1.9 4.2-4.3z"/><path fill="#e6e6e6" d="m123.7 294h3.1v3c.8-2 2.4-3.4 4.8-3.3v3.2h-.2c-2.7 0-4.6 1.7-4.6 5.4v5.1h-3.1z"/><path fill="#e6e6e6" d="m133.4 288.9h3.1v11.1l5.6-6h3.8l-5.4 5.5 5.5 8h-3.5l-4.1-5.8-1.9 1.9v3.9h-3.1z"/><path fill="#e6e6e6" d="m146 300.8c0-3.9 3.1-7 7.2-7s7.2 3.2 7.2 7-3.1 7-7.3 7c-4.1 0-7.1-3.1-7.1-7zm11.2 0c0-2.3-1.7-4.3-4.2-4.3s-4.1 2-4.1 4.3 1.7 4.3 4.1 4.3c2.6.1 4.2-1.9 4.2-4.3z"/><path fill="#e6e6e6" d="m162.4 302.6v-8.6h3.1v7.6c0 2.1 1.1 3.3 2.9 3.3s3-1.3 3-3.3v-7.6h3.1v13.4h-3.1v-2.1c-.8 1.3-2.1 2.3-4.2 2.3-3 .2-4.8-1.8-4.8-5z"/><path fill="#e6e6e6" d="m178.1 303.8v-7.1h-1.7v-2.7h1.7v-3.7h3.1v3.7h3.6v2.6h-3.6v6.6c0 1.2.6 1.7 1.7 1.7.7 0 1.3-.2 1.9-.5v2.5c-.8.5-1.7.7-2.8.7-2.3.1-3.9-.9-3.9-3.8z"/><path fill="#e6e6e6" d="m187.4 289.7h3.2v15h9.4v2.9h-12.5v-17.9z"/><path fill="#e6e6e6" d="m210.2 307.5v-1.7c-.9 1.1-2.3 2-4.4 2-2.6 0-4.8-1.4-4.8-4.2 0-3 2.3-4.4 5.4-4.4 1.7 0 2.6.2 3.7.5v-.2c0-1.9-1.2-2.9-3.3-2.9-1.5 0-2.6.3-3.9.8l-.8-2.5c1.5-.7 2.9-1.1 5.1-1.1 4 0 5.9 2.1 5.9 5.7v8zm.1-5.6c-.8-.3-1.9-.5-3.1-.5-2 0-3.1.8-3.1 2.1s1.1 2 2.6 2c2 0 3.5-1.1 3.5-2.9z"/><path fill="#e6e6e6" d="m219.2 305.5v2.1h-3.1v-18.7h3.1v7.4c1-1.4 2.4-2.5 4.5-2.5 3.2 0 6.3 2.5 6.3 7s-3.1 7-6.3 7c-2.2 0-3.6-1.1-4.5-2.3zm7.7-4.7c0-2.6-1.7-4.3-3.9-4.3s-3.9 1.7-3.9 4.4c0 2.6 1.8 4.3 3.9 4.3s3.9-1.7 3.9-4.4z"/><path fill="#e6e6e6" d="m231.2 305.8 1.4-2.1c1.4 1.1 3 1.7 4.4 1.7s2.1-.5 2.1-1.5-1.3-1.4-2.8-1.8c-.1 0-.2-.1-.2-.1-2-.6-4.2-1.4-4.2-4s2.1-4.1 4.8-4.1c1.7 0 3.5.6 5 1.5l-1.2 2.2c-1.3-.8-2.6-1.3-3.8-1.3s-1.9.5-1.9 1.4 1.3 1.4 2.8 1.8c.1 0 .2.1.2.1 2 .6 4.2 1.5 4.2 4 0 2.9-2.2 4.2-5 4.2-2 0-4.1-.7-5.8-2z"/><path fill="#e6e6e6" d="m360.6 298.6c0-5.1 4.1-9.2 9.3-9.2s9.2 4.2 9.2 9.2-4.1 9.2-9.3 9.2-9.2-4.2-9.2-9.2zm17.4-.1c0-4.5-3.5-8.2-8.2-8.2s-8.2 3.7-8.2 8.3c0 4.5 3.5 8.2 8.2 8.2s8.2-3.7 8.2-8.3zm-13.1-.1c0-2.8 2.1-5.1 5.1-5.1 1.9 0 2.9.6 3.9 1.5l-1.4 1.7c-.8-.7-1.5-1.1-2.5-1.1-1.7 0-2.8 1.4-2.8 3.1s1.1 3 2.8 3c1.1 0 1.7-.5 2.5-1.1l1.4 1.4c-1.1 1.1-2.1 1.7-4 1.7-2.8.1-5-2.2-5-5.1z"/><path fill="#e6e6e6" d="m380.5 289.7h3.4l4.2 13.2 4.4-13.3h2.6l4.4 13.3 4.2-13.2h3.3l-6.2 18h-2.7l-4.4-12.8-4.4 12.8h-2.7z"/><path fill="#e6e6e6" d="m406.7 300.8c0-3.9 3.1-7 7.2-7 4.2 0 7.2 3.2 7.2 7s-3.1 7-7.3 7c-4.1 0-7.1-3.1-7.1-7zm11.3 0c0-2.3-1.7-4.3-4.2-4.3s-4.1 2-4.1 4.3 1.7 4.3 4.1 4.3c2.7.1 4.2-1.9 4.2-4.3z"/><path fill="#e6e6e6" d="m423.3 294h3.1v3c.8-2 2.4-3.4 4.8-3.3v3.2h-.2c-2.7 0-4.6 1.7-4.6 5.4v5.1h-3.1z"/><path fill="#e6e6e6" d="m433 288.9h3.1v11.1l5.6-6h3.8l-5.4 5.5 5.5 8h-3.5l-4.1-5.8-1.9 2v3.9h-3.1z"/><path fill="#e6e6e6" d="m445.6 300.8c0-3.9 3.1-7 7.2-7 4.2 0 7.2 3.2 7.2 7s-3.1 7-7.3 7c-4.1 0-7.1-3.1-7.1-7zm11.3 0c0-2.3-1.7-4.3-4.2-4.3s-4.1 2-4.1 4.3 1.7 4.3 4.1 4.3c2.6.1 4.2-1.9 4.2-4.3z"/><path fill="#e6e6e6" d="m462.1 302.6v-8.6h3.1v7.6c0 2.1 1.1 3.3 2.9 3.3s3-1.3 3-3.3v-7.6h3.1v13.4h-3.1v-2.1c-.8 1.3-2.1 2.3-4.2 2.3-3.1.2-4.8-1.8-4.8-5z"/><path fill="#e6e6e6" d="m477.8 303.8v-7.1h-1.8v-2.7h1.7v-3.7h3.1v3.7h3.6v2.6h-3.6v6.6c0 1.2.6 1.7 1.7 1.7.7 0 1.3-.2 1.9-.5v2.5c-.8.5-1.7.7-2.8.7-2.2.1-3.8-.9-3.8-3.8z"/><path fill="#e6e6e6" d="m487.1 289.7h3.2v15h9.4v2.9h-12.5v-17.9z"/><path fill="#e6e6e6" d="m509.9 307.5v-1.7c-.9 1.1-2.3 2-4.4 2-2.6 0-4.8-1.4-4.8-4.2 0-3 2.3-4.4 5.4-4.4 1.7 0 2.6.2 3.7.5v-.2c0-1.9-1.2-2.9-3.3-2.9-1.5 0-2.6.3-3.9.8l-.8-2.5c1.5-.7 2.9-1.1 5.1-1.1 4 0 5.9 2.1 5.9 5.7v8zm.1-5.6c-.8-.3-1.9-.5-3.1-.5-2 0-3.1.8-3.1 2.1s1.1 2 2.6 2c2 0 3.5-1.1 3.5-2.9z"/><path fill="#e6e6e6" d="m518.8 305.5v2.1h-3.1v-18.7h3.1v7.4c1-1.4 2.4-2.5 4.5-2.5 3.2 0 6.3 2.5 6.3 7s-3.1 7-6.3 7c-2.2 0-3.5-1.1-4.5-2.3zm7.7-4.7c0-2.6-1.7-4.3-3.9-4.3s-3.9 1.7-3.9 4.4c0 2.6 1.8 4.3 3.9 4.3s3.9-1.7 3.9-4.4z"/><path fill="#e6e6e6" d="m530.8 305.8 1.4-2.1c1.4 1.1 3 1.7 4.4 1.7s2.1-.5 2.1-1.5-1.3-1.4-2.8-1.8c-.1 0-.2-.1-.2-.1-2-.6-4.2-1.4-4.2-4s2.1-4.1 4.8-4.1c1.7 0 3.5.6 5 1.5l-1.2 2.2c-1.3-.8-2.6-1.3-3.8-1.3s-1.9.5-1.9 1.4 1.3 1.4 2.8 1.8c.1 0 .2.1.2.1 2 .6 4.2 1.5 4.2 4 0 2.9-2.2 4.2-5 4.2-1.9 0-4.1-.7-5.8-2z"/><path fill="#e6e6e6" d="m659.5 298.6c0-5.1 4.1-9.2 9.3-9.2s9.2 4.2 9.2 9.2-4.1 9.2-9.3 9.2-9.2-4.2-9.2-9.2zm17.3-.1c0-4.5-3.5-8.2-8.2-8.2s-8.2 3.7-8.2 8.3c0 4.5 3.5 8.2 8.2 8.2 4.8 0 8.2-3.7 8.2-8.3zm-13-.1c0-2.8 2.1-5.1 5.1-5.1 1.9 0 2.9.6 3.9 1.5l-1.4 1.7c-.8-.7-1.5-1.1-2.5-1.1-1.7 0-2.8 1.4-2.8 3.1s1.1 3 2.8 3c1.1 0 1.7-.5 2.5-1.1l1.4 1.4c-1.1 1.1-2.1 1.7-4 1.7-2.9.1-5-2.2-5-5.1z"/><path fill="#e6e6e6" d="m679.3 289.7h3.4l4.2 13.2 4.4-13.3h2.6l4.4 13.3 4.2-13.2h3.3l-6.2 18h-2.6l-4.4-12.8-4.4 12.8h-2.7z"/><path fill="#e6e6e6" d="m705.5 300.8c0-3.9 3.1-7 7.2-7 4.2 0 7.2 3.2 7.2 7s-3.1 7-7.3 7c-4 0-7.1-3.1-7.1-7zm11.3 0c0-2.3-1.7-4.3-4.2-4.3s-4.1 2-4.1 4.3 1.7 4.3 4.1 4.3c2.7.1 4.2-1.9 4.2-4.3z"/><path fill="#e6e6e6" d="m722.1 294h3.1v3c.8-2 2.4-3.4 4.8-3.3v3.2h-.2c-2.7 0-4.6 1.7-4.6 5.4v5.1h-3.1z"/><path fill="#e6e6e6" d="m731.8 288.9h3.1v11.1l5.6-6h3.8l-5.4 5.5 5.5 8h-3.5l-4.1-5.8-1.9 2v3.9h-3.1z"/><path fill="#e6e6e6" d="m744.4 300.8c0-3.9 3.1-7 7.2-7 4.2 0 7.2 3.2 7.2 7s-3.1 7-7.3 7c-4.1 0-7.1-3.1-7.1-7zm11.3 0c0-2.3-1.7-4.3-4.2-4.3s-4.1 2-4.1 4.3 1.7 4.3 4.1 4.3c2.6.1 4.2-1.9 4.2-4.3z"/><path fill="#e6e6e6" d="m760.9 302.6v-8.6h3.1v7.6c0 2.1 1.1 3.3 2.9 3.3s3-1.3 3-3.3v-7.6h3.1v13.4h-3.1v-2.1c-.8 1.3-2.1 2.3-4.2 2.3-3.1.2-4.8-1.8-4.8-5z"/><path fill="#e6e6e6" d="m776.6 303.8v-7.1h-1.7v-2.7h1.7v-3.7h3.1v3.7h3.6v2.6h-3.6v6.6c0 1.2.6 1.7 1.7 1.7.7 0 1.3-.2 1.9-.5v2.5c-.8.5-1.7.7-2.8.7-2.3.1-3.9-.9-3.9-3.8z"/><path fill="#e6e6e6" d="m785.9 289.7h3.2v15h9.4v2.9h-12.5v-17.9z"/><path fill="#e6e6e6" d="m808.7 307.5v-1.7c-.9 1.1-2.3 2-4.4 2-2.6 0-4.8-1.4-4.8-4.2 0-3 2.3-4.4 5.4-4.4 1.7 0 2.6.2 3.7.5v-.2c0-1.9-1.2-2.9-3.3-2.9-1.5 0-2.6.3-3.9.8l-.8-2.5c1.5-.7 2.9-1.1 5.1-1.1 4 0 5.9 2.1 5.9 5.7v8zm.1-5.6c-.8-.3-1.9-.5-3.1-.5-2 0-3.1.8-3.1 2.1s1.1 2 2.6 2c2 0 3.5-1.1 3.5-2.9z"/><path fill="#e6e6e6" d="m817.6 305.5v2.1h-3.1v-18.7h3.1v7.4c1-1.4 2.4-2.5 4.5-2.5 3.2 0 6.3 2.5 6.3 7s-3.1 7-6.3 7c-2.1 0-3.5-1.1-4.5-2.3zm7.7-4.7c0-2.6-1.7-4.3-3.9-4.3-2.1 0-3.9 1.7-3.9 4.4 0 2.6 1.8 4.3 3.9 4.3 2.2 0 3.9-1.7 3.9-4.4z"/><path fill="#e6e6e6" d="m829.6 305.8 1.4-2.1c1.4 1.1 3 1.7 4.4 1.7s2.1-.5 2.1-1.5-1.3-1.4-2.8-1.8c-.1 0-.2-.1-.2-.1-2-.6-4.2-1.4-4.2-4s2.1-4.1 4.8-4.1c1.7 0 3.5.6 5 1.5l-1.2 2.2c-1.3-.8-2.6-1.3-3.8-1.3s-1.9.5-1.9 1.4 1.3 1.4 2.8 1.8c.1 0 .2.1.2.1 2 .6 4.2 1.5 4.2 4 0 2.9-2.2 4.2-5 4.2-1.9 0-4-.7-5.8-2z"/><path fill="#e6e6e6" d="m206.3 434.2c0-5.1 4.1-9.2 9.3-9.2s9.2 4.2 9.2 9.2-4.1 9.2-9.3 9.2-9.2-4.1-9.2-9.2zm17.4-.1c0-4.5-3.5-8.2-8.2-8.2s-8.2 3.7-8.2 8.3c0 4.5 3.5 8.2 8.2 8.2s8.2-3.7 8.2-8.3zm-13.1-.1c0-2.8 2.1-5.1 5.1-5.1 1.9 0 2.9.6 3.9 1.5l-1.4 1.7c-.8-.7-1.5-1.1-2.5-1.1-1.7 0-2.8 1.4-2.8 3.1s1.1 3 2.8 3c1.1 0 1.7-.5 2.5-1.1l1.4 1.4c-1.1 1.1-2.1 1.7-4 1.7-2.9.1-5-2.2-5-5.1z"/><path fill="#e6e6e6" d="m226.1 425.3h3.4l4.2 13.2 4.4-13.3h2.6l4.4 13.3 4.2-13.2h3.3l-6.2 18h-2.7l-4.4-12.8-4.4 12.8h-2.7z"/><path fill="#e6e6e6" d="m252.4 436.4c0-3.9 3.1-7 7.2-7 4.2 0 7.2 3.2 7.2 7s-3.1 7-7.3 7c-4.1 0-7.1-3.1-7.1-7zm11.2 0c0-2.3-1.7-4.3-4.2-4.3s-4.1 2-4.1 4.3 1.7 4.3 4.1 4.3c2.7.1 4.2-1.9 4.2-4.3z"/><path fill="#e6e6e6" d="m269 429.7h3.1v3c.8-2 2.4-3.4 4.8-3.3v3.2h-.2c-2.7 0-4.6 1.7-4.6 5.4v5.1h-3.1z"/><path fill="#e6e6e6" d="m278.6 424.5h3.1v11.1l5.6-6h3.8l-5.4 5.5 5.5 8h-3.5l-4.1-5.8-1.9 2v3.9h-3.1z"/><path fill="#e6e6e6" d="m291.3 436.4c0-3.9 3.1-7 7.2-7 4.2 0 7.2 3.2 7.2 7s-3.1 7-7.3 7c-4.1 0-7.1-3.1-7.1-7zm11.2 0c0-2.3-1.7-4.3-4.2-4.3s-4.1 2-4.1 4.3 1.7 4.3 4.1 4.3c2.6.1 4.2-1.9 4.2-4.3z"/><path fill="#e6e6e6" d="m307.7 438.2v-8.6h3.1v7.6c0 2.1 1.1 3.3 2.9 3.3s3-1.3 3-3.3v-7.6h3.1v13.4h-3.1v-2.1c-.8 1.3-2.1 2.3-4.2 2.3-3 .2-4.8-1.8-4.8-5z"/><path fill="#e6e6e6" d="m323.4 439.4v-7.1h-1.7v-2.6h1.7v-3.7h3.1v3.7h3.6v2.6h-3.6v6.6c0 1.2.6 1.7 1.7 1.7.7 0 1.3-.2 1.9-.5v2.5c-.8.5-1.7.7-2.8.7-2.3 0-3.9-.9-3.9-3.9z"/><path fill="#e6e6e6" d="m332.7 425.3h3.2v15h9.4v2.9h-12.5v-17.9z"/><path fill="#e6e6e6" d="m355.5 443.1v-1.7c-.9 1.1-2.3 2-4.4 2-2.6 0-4.8-1.4-4.8-4.2 0-3 2.3-4.4 5.4-4.4 1.7 0 2.6.2 3.7.5v-.2c0-1.9-1.2-2.9-3.3-2.9-1.5 0-2.6.3-3.9.8l-.8-2.5c1.5-.7 2.9-1.1 5.1-1.1 4 0 5.9 2.1 5.9 5.7v8zm.1-5.6c-.8-.3-1.9-.5-3.1-.5-2 0-3.1.8-3.1 2.1s1.1 2 2.6 2c2 0 3.5-1.1 3.5-2.9z"/><path fill="#e6e6e6" d="m364.4 441.1v2.1h-3.1v-18.7h3.1v7.4c1-1.4 2.4-2.5 4.5-2.5 3.2 0 6.3 2.5 6.3 7s-3.1 7-6.3 7c-2.1 0-3.5-1.1-4.5-2.3zm7.7-4.7c0-2.6-1.7-4.3-3.9-4.3-2.1 0-3.9 1.7-3.9 4.4 0 2.6 1.8 4.3 3.9 4.3 2.2 0 3.9-1.7 3.9-4.4z"/><path fill="#e6e6e6" d="m376.5 441.4 1.4-2.1c1.4 1.1 3 1.7 4.4 1.7s2.1-.5 2.1-1.5-1.3-1.4-2.8-1.8c-.1 0-.2-.1-.2-.1-2-.6-4.2-1.4-4.2-4s2.1-4.1 4.8-4.1c1.7 0 3.5.6 5 1.5l-1.2 2.2c-1.3-.8-2.6-1.3-3.8-1.3s-1.9.5-1.9 1.4 1.3 1.4 2.8 1.8c.1 0 .2.1.2.1 2 .6 4.2 1.5 4.2 4 0 2.9-2.2 4.2-5 4.2-2 0-4.1-.7-5.8-2z"/><path fill="#e6e6e6" d="m505.1 434.2c0-5.1 4.1-9.2 9.3-9.2s9.2 4.2 9.2 9.2-4.1 9.2-9.3 9.2-9.2-4.1-9.2-9.2zm17.4-.1c0-4.5-3.5-8.2-8.2-8.2s-8.2 3.7-8.2 8.3c0 4.5 3.5 8.2 8.2 8.2s8.2-3.7 8.2-8.3zm-13.1-.1c0-2.8 2.1-5.1 5.1-5.1 1.9 0 2.9.6 3.9 1.5l-1.4 1.7c-.8-.7-1.5-1.1-2.5-1.1-1.7 0-2.8 1.4-2.8 3.1s1.1 3 2.8 3c1.1 0 1.7-.5 2.5-1.1l1.4 1.4c-1.1 1.1-2.1 1.7-4 1.7-2.9.1-5-2.2-5-5.1z"/><path fill="#e6e6e6" d="m525 425.3h3.4l4.2 13.2 4.4-13.3h2.6l4.4 13.3 4.2-13.2h3.3l-6.2 18h-2.7l-4.4-12.8-4.4 12.8h-2.7z"/><path fill="#e6e6e6" d="m551.2 436.4c0-3.9 3.1-7 7.2-7 4.2 0 7.2 3.2 7.2 7s-3.1 7-7.3 7c-4.1 0-7.1-3.1-7.1-7zm11.2 0c0-2.3-1.7-4.3-4.2-4.3s-4.1 2-4.1 4.3 1.7 4.3 4.1 4.3c2.7.1 4.2-1.9 4.2-4.3z"/><path fill="#e6e6e6" d="m567.8 429.7h3.1v3c.8-2 2.4-3.4 4.8-3.3v3.2h-.2c-2.7 0-4.6 1.7-4.6 5.4v5.1h-3.1z"/><path fill="#e6e6e6" d="m577.5 424.5h3.1v11.1l5.6-6h3.8l-5.4 5.5 5.5 8h-3.5l-4.1-5.8-1.9 2v3.9h-3.1z"/><path fill="#e6e6e6" d="m590.1 436.4c0-3.9 3.1-7 7.2-7 4.2 0 7.2 3.2 7.2 7s-3.1 7-7.3 7c-4.1 0-7.1-3.1-7.1-7zm11.2 0c0-2.3-1.7-4.3-4.2-4.3s-4.1 2-4.1 4.3 1.7 4.3 4.1 4.3c2.6.1 4.2-1.9 4.2-4.3z"/><path fill="#e6e6e6" d="m606.5 438.2v-8.6h3.1v7.6c0 2.1 1.1 3.3 2.9 3.3s3-1.3 3-3.3v-7.6h3.1v13.4h-3.1v-2.1c-.8 1.3-2.1 2.3-4.2 2.3-3 .2-4.8-1.8-4.8-5z"/><path fill="#e6e6e6" d="m622.2 439.4v-7.1h-1.7v-2.6h1.7v-3.7h3.1v3.7h3.6v2.6h-3.6v6.6c0 1.2.6 1.7 1.7 1.7.7 0 1.3-.2 1.9-.5v2.5c-.8.5-1.7.7-2.8.7-2.3 0-3.9-.9-3.9-3.9z"/><path fill="#e6e6e6" d="m631.5 425.3h3.2v15h9.4v2.9h-12.5v-17.9z"/><path fill="#e6e6e6" d="m654.3 443.1v-1.7c-.9 1.1-2.3 2-4.4 2-2.6 0-4.8-1.4-4.8-4.2 0-3 2.3-4.4 5.4-4.4 1.7 0 2.6.2 3.7.5v-.2c0-1.9-1.2-2.9-3.3-2.9-1.5 0-2.6.3-3.9.8l-.8-2.5c1.5-.7 2.9-1.1 5.1-1.1 4 0 5.9 2.1 5.9 5.7v8zm.1-5.6c-.8-.3-1.9-.5-3.1-.5-2 0-3.1.8-3.1 2.1s1.1 2 2.6 2c2 0 3.5-1.1 3.5-2.9z"/><path fill="#e6e6e6" d="m663.3 441.1v2.1h-3.1v-18.7h3.1v7.4c1-1.4 2.4-2.5 4.5-2.5 3.2 0 6.3 2.5 6.3 7s-3.1 7-6.3 7c-2.2 0-3.6-1.1-4.5-2.3zm7.7-4.7c0-2.6-1.7-4.3-3.9-4.3s-3.9 1.7-3.9 4.4c0 2.6 1.8 4.3 3.9 4.3s3.9-1.7 3.9-4.4z"/><path fill="#e6e6e6" d="m675.3 441.4 1.4-2.1c1.4 1.1 3 1.7 4.4 1.7s2.1-.5 2.1-1.5-1.3-1.4-2.8-1.8c-.1 0-.2-.1-.2-.1-2-.6-4.2-1.4-4.2-4s2.1-4.1 4.8-4.1c1.7 0 3.5.6 5 1.5l-1.2 2.2c-1.3-.8-2.6-1.3-3.8-1.3s-1.9.5-1.9 1.4 1.3 1.4 2.8 1.8c.1 0 .2.1.2.1 2 .6 4.2 1.5 4.2 4 0 2.9-2.2 4.2-5 4.2-2 0-4.1-.7-5.8-2z"/></g>
</svg>
