<?xml version="1.0" encoding="utf-8"?>
<!-- Generator: Adobe Illustrator 23.0.1, SVG Export Plug-In . SVG Version: 6.00 Build 0)  -->
<svg version="1.2" baseProfile="tiny" id="Layer_1" xmlns="http://www.w3.org/2000/svg" xmlns:xlink="http://www.w3.org/1999/xlink"
	 x="0px" y="0px" viewBox="0 0 900 600" xml:space="preserve">
<g>
	<path d="M78.01,436.95c0.02-0.01,0.03-0.01,0.04-0.02C77.88,436.76,77.85,436.74,78.01,436.95z"/>
	<path d="M428.22,505.88c-9.92-6.77-17.31-8.49-25.66-20.38c2.43-5.07-2.14-6.89-4.16-9.84c-1.53-2.23-3.85-2.64-5.98-0.3
		c-0.68-0.91,0.73-29.15,1.52-34.88c0.73-5.31,8.5-28.3,8.32-53.44c-0.06-8.08,3.05-9.77-0.2-21.09
		c-2.21-7.69,3.74-12.85-3.14-16.53c-2.27-1.51,1.67-3.94-12.68-10.34c-30.87-13.77-40.29-24.29-69.36-29.92
		c-2.03-0.39-2.95-2.67-5.48-2.23c-1.83,0.32-12.78,1.6-15.52,7.1c16.02-6.59,15.72-5.58,31.94-0.81
		c-8.76,4.53-12.95,21.64-14.7,25.76c-7.25,17.01-3.96,8.49-20.38,28.39c2.33,2.43,0.1,5.78,2.13,8.52
		c-2.74-0.2-4.58-1.21-5.48-3.25c-0.93-2.12-3.25-2.54-4.87-3.75c13.67-22.51,12.51-24.67,18.36-32.96c0.5-0.71,1.01-1.52,0.81-2.43
		c-0.41-2.43,0.81-4.56,0.91-6.69c3.55-2.54,7.4-4.06,10.55-6.79c-0.41-0.81,0.68-1.27-10.85,5.27c-0.3-2.74-2.03-4.66-2.94-6.59
		c0-1.12,1.32-0.91,1.22-1.93c-7.81,1.78-11.82-9.94-28.7-4.97c-1.02,0.3-1.93,0.51-2.94,0.3c5.68-2.13,11.43-3.55,17.14-5.17
		c12.06-3.44,11.13,0.61,14.6,0.61c0.42,0.42-0.69,1.5-0.82,1.62c5.98-2.52-6.63-7.53-14.49-5.68c-2.84-2.54-6.59-2.56-10.24-2.74
		c-9.93-0.49-34.4-28.24-38.03-43.2c-4.93-20.32-23.5-25.27-27.28-27.79c-2.14-6.06,16.25-21.07,14.81-60.03
		c-0.29-7.91,0.9-15.72,0.71-23.53c-0.11-4.56,1.55-9.22,2.64-13.69c4.4-18.14-15.55-47.62-11.16-49.08
		c11.46-0.51,18.24-6.6,22.71-16.9c9.11-21.03-13.82-60.29-43.71-36.3c-3.38-2.4-10.8-6.46-14.6-5.58
		c-23.29,5.43-29.17,29.06-19.67,49.69c5.72,12.44,15.93,17.46,32.45,13.79c3.99,22.41,3.55,6.65-2.74,45.33
		c-0.53,3.24,0.15,6.47,1.12,9.43c2.39,7.35-0.3,12.43,1.52,14.1c5.32-2.13-4.38-13.57,4.46-47.87c1.99-7.71-2.62-16.17-2.03-22.11
		c4.36-4.06,9.63-7.2,11.66-13.69c1.42,2.43,1.71,4.57,2.13,6.49c2.25,10.26,7.65,17.73,12.07,31.13
		c0.32,0.96,3.43,20.38-1.01,29.71c-0.1,0.2,0,0.51,0,0.3c0,1.42,1.32,0.91,1.52,1.93c-1.12,3.14-1.09,6.58,0.1,9.94
		c0.83,2.33-0.06,4.36-0.2,6.49c-2.6,39.36,2.22,29.55-16.12,68.86c-2.33-1.12-3.25-3.55-5.07-5.07c1.32-2.64,3.96-3.95,5.58-7
		c-3.25,1.32-5.27,3.14-7.3,5.17c-9.63-7.5-20.79-6.39-31.94-6.39c2.64-2.94,7.61-3.95,8.21-9.33c3.55,0,5.37-4.16,9.23-3.95
		c1.01-1.12,0.91-2.54,1.12-3.85c3.64-36.36,22.23-50.93,17.44-54.66c-5.22,12.67-5.11,8.99-9.43,16.43
		c-7.54,12.98-10.51,33.62-10.65,39.35c-3.55,0.51-6.36,2.18-9.13,4.06c-2.31,1.56-5.68,2.74-4.66,6.69
		c-2.03,1.62-2.64,4.87-5.88,5.17c-0.51,1.42-0.1,3.25-1.62,4.36c-3.65-0.71-7.61,0.2-11.66-1.22c-1.01-1.12-1.93-3.04-4.26-3.55
		c0.81-2.13,0.53-4.25,1.12-6.39c0.42-1.52,0.09-3.34-1.01-4.56c-4.6-5.08-2.23-10.85-10.04-12.98c1.12-7.4,1.12-7.4-4.16-9.74
		c-1.01-0.71-0.51-2.03-1.01-3.04c-10.15-2.69-2.59-0.68-1.72,1.83c-1.32,0.51-2.43-1.32-3.65,0.1c1.62,1.62,3.75,1.52,5.78,1.93
		c7.56,1.51-1.69,7.18,7,11.15c-3.55,0.2-5.78,2.54-8.52,3.55c4.29,0.86,11.24-4.56,11.56,0.3c0.16,2.44,1.46,4.13,2.74,5.88
		c2.52,3.45-0.39,3.02,0.3,10.65c0.2,2.18-2.27,2.16-0.91,2.84c0.81,0.41,1.93-0.51,3.25,0.41c1.01,1.42,2.33,2.94,4.16,3.65
		c-6.29,3.04-11.76-0.1-17.44-2.33c1.05-0.67,2.37,0.17,3.46-0.75c-0.48-0.21-0.93-0.11,0.19-0.16c1.09-1.08-8.5-0.05-10.33-2.14
		c5.88,1.83,11.05-0.1,16.12-2.43c-9.84-0.2-19.67,2.03-29.61-1.62c0-7.71,0.81-15.52-0.71-23.02c2.33-2.23,6.59-0.1,7.5-4.36
		c-3.04-0.71-5.48,1.01-7.91,2.13c-2.54-6.09,1.29-1.75,9.23-7.5c-3.75-0.91-7.3-0.61-10.55,1.93c-0.71-3.65-2.03-6.69-3.14-9.74
		c0.51-0.91,0.91-1.93,2.13-1.83c-0.56,1.55,0.49,1.64,1.93,1.82c7.26,0.87,9.24,6.38,13.51,5.38c0-0.32-0.04,0.19,0.28,0.75
		c0.27-2.48-3.6-2.59-5.37-4.72c0.41-1.62,2.54-1.83,3.04-3.14c-0.3-1.52-1.32-0.2-1.93-0.91c-0.51-1.62,0.51-3.55-0.51-5.17
		c-1.83-0.91-3.04,0.71-4.66,1.32c-0.1-2.03,2.74-2.13,2.03-4.36c-2.33-0.3-4.36,1.22-6.19,1.52c-1.42,1.22-0.71,3.25-2.43,3.95
		c-0.61-2.84,1.52-4.46,3.14-6.69c-2.84-0.1-3.45,2.13-4.97,3.25c-0.51-0.81,0.71-1.93-0.41-2.54c-1.83-0.1-1.32,2.43-2.94,2.84
		c-2.65-10.82,7.53-26.8,3.85-50.6c-1-6.49-1.32-12.98,0-19.67c2.84-1.01,3.25-4.56,6.08-6.08c7.56,5.04,7.25,9.79,13.79,8.92
		c13.83-1.84,14.09-8.19,16.23-11.56c4.6-7.28,3.34-15.52,3.04-23.53c-0.21-5.48-3.85-9.74-5.17-14.81
		c-2.69-10.28-7.59-14.63-16.63-16.63c-5.89-1.3-9.34,3.23-12.88,6.49c-4.17,3.84-5.58,8.32-6.29,16.43
		c-3.82,1.91-4.64-1.56-6.37,0.95c2.49,1.18,0.9,3.09,4.49,7.89c0.63-0.13,1.3-0.95,0.15-2.66c-3.67-6.87,0.5-5.5,2.54-3.65
		c0.38,0.46-0.32,1.47,2.43,3.64c0.81-3.04-1.87-4.23-2.03-4.08c0.09-0.8-0.5-1.81,0.61-2.31c6.39,0.71,6.39,3.65,5.48,12.17
		c-1.52,0.41-2.54,1.83-4.46,3.14c1.72-3.04,1.32-5.58,0.81-8.01c-1.52,1.62-0.91,3.65-1.42,5.37c-1.72,1.42-2.74,0.41-3.75-0.61
		c-0.25-0.92,0.2-2.03,0-2.13c-0.07-0.02-0.14-0.06-0.21-0.08c0.26-0.01,0.4-0.23,0.01-0.83c-0.15,0.15-0.05,0.14-0.15,0.04
		c-0.55,0.13-0.61,0.34-0.47,0.52c-0.13-0.07-0.27-0.14-0.39-0.23c-0.45,0.16-0.9,0.27-1.42-0.02c-0.05-0.1-4.26-8.76-2.74-8.38
		c-4.67-12.03-14.32-23.63-25.45-17.79c2.55,2.55,6.55-3.72,16.12,6.49c10.05,10.72,15.87,37,2.33,54.25
		c-6.5,8.29-24.15,4.29-29.21-18.46c3.85-1.62,8.11-0.91,11.76-2.74c2.64-3.85,2.03-7.2-1.32-10.34c-3.65-0.41-7.4,0.41-11.56,0.51
		c0-6.69,0.96-13.1,3.65-19.06c3.67-8.13,6.43-8.27,11.46-5.98c18.65,8.48,23.48,50.26,5.27,57.6c12.43,0.71,17.32-25,11.26-41.37
		c-7.81-21.09-20.39-17.02-21.4-20.79c-3.95,1.62-6.47,4.16-7.71,7.81c-8.44,24.96-3.97,18.28-5.78,21.9
		c-5.07,0.71-6.4,1.52-7.2,4.77c-0.72,2.94-0.51,5.68,2.74,7.5c1.83-0.41,3.96-0.61,5.98,0.1c2.84,13.89,8.72,24.64,25.86,23.83
		c-3.09,19.67-9.96,19.05-10.75,48.27c-0.41,15.11,0.88,13.58,2.54,38.94c0.09,1.32-0.2,2.74,1.12,3.75
		c4.66-1.46-4.64-31.78,0.71-57.7c4.48-21.72,7.68-21.02,8.52-33.26c3.04-1.12,5.88-2.74,7.81-6.69c0.3,3.04-1.32,5.07-0.81,7.3
		c1.62-3.14,3.83-5.98,2.94-10.04c-0.42-1.92,1.42-3.65,2.33-4.26c0.81-5.98,2.13-11.36,2.54-16.63c1.32-0.61,2.33-0.61,3.45,0.2
		c-1.22,1.72-2.33,3.55-3.75,5.58c2.23,0.3,2.64-1.21,3.35-2.33c2.64-4.19,6.18-0.66,7.61-4.56c0.38-1.03,0.73-0.37,1.02-0.45
		c0.33,2.31,2.42,0.24,0.12-0.04c8.03-2.85,7.44-1.48,5.55-6.31c-0.8-2.03-0.71-3.85,1.22-5.48c2.03,1.93,4.16,3.65,6.9,4.97
		c-8.73,16.11-4.05,15.16-10.14,16.83c-22.25,6.13-10.6,35.28-13.28,55.37c-0.8,5.97-4.26,20.57-4.26,27.18
		c0,7.92,9.58,18.08,9.03,29c-0.41,8.11,1.01,16.12,0.3,24.14c-0.41,4.66,0.2,9.43,2.74,14.4c1.22-3.25-1.12-5.37-1.01-7.81
		c1.62,0.71,1.62,2.64,3.04,3.14c1.22-3.55-0.51-6.39-2.43-9.43c0.71,0.1,1.32,0,1.42,0.1c3.67,7.49,16.19,15.89,20.08,36.3
		c-1.62-1.22-2.84-2.23-4.06-3.14c-2.02,2.77,7.01,7.09-14.2-9.84c-3.46-2.76-1.73-9.7-7.5-8.11c-0.41-1.32,1.22-2.84-0.81-3.55
		c-2.33,2.54-2.74,4.56-1.42,7.3c1.32,0.71,2.23-0.91,3.85-0.51c-0.51,4.66,3.16,7.5,5.37,11.15c0.31,0.51,0.81,1.22,1.32,1.22
		c3.85,0.51,5.87,3.97,9.03,5.68c4.33,2.34,4.28-0.79,4.77-0.3c1.42,0.91,0.71,4.36,3.85,3.14c0.91,1.83,1.33,3.75,1.12,5.68
		c-0.87,7.76,5.73,10.18-10.55,27.28c-1.93,2.03-4.97,2.03-7.91,2.43c-0.89-4.77-10.06-1.65-14.91-10.04
		c-8.49-3.29-15.97-24.44-17.54-27.38c-5.08-9.46-1.32-24.29-5.68-22.11c0.94,5.62-2.15,16.23,0.81,20.59
		c2.56,3.77,1,3.68,6.59,16.73c-3.96-3.37-17.61-24.73-25.05-33.67c-4.56-5.48-7.2-12.07-11.46-18.46
		c6.33-12.66,3.68-5.74,6.55-5.79c-1.47-3.1-1.17-6.22-0.47-9.83c6.39-1.22,12.98-2.23,19.47-4.06c1.14,2.61-5.35,10.92,0.1,22.01
		c2.2,4.48,3.48,9.41,6.19,13.69c2.39,3.77,3.16,2.4,1.42-1.42c-6.42-16.37-7.6-16.78-6.29-25.35c0.6-3.96,0.41-8.01,2.13-12.78
		c-19.05,5.86-20.75,2.87-27.08,9.43c0.25,3.2,4.92-5.81-4.46,13.89c7.03,19.54,36.92,50.2,46.34,68.76
		c0.51,1.01,0.91,2.33,2.23,2.84c1.42-0.81-0.41-2.03,0.71-3.35c7.3,7.2,14.7,14.2,19.88,23.02
		c-17.65,43.5-41.27,84.37-55.37,128.89c-59.34,13.94-46.22-0.51-62.77,27.08c-0.49,0.82-1.42,1.62-0.1,2.43
		c1.08-0.43,1.1-0.39-0.3-0.51c5.27-4.46,8.01-10.75,11.56-17.24c18.35-4.16,37.22-5.78,55.27-10.95c5.73,3.56,7.81,4.13,10.63,2.37
		c-0.68-2.9-9.55-3.55-11.13-3.79c10.4-21.96,6.2-22.71,17.34-44.32c6.69-12.98,11.17-26.97,18.35-39.75
		c23.59-41.97,12.2-50.61,24.85-34.17c-7.41,27.1-22.01,44.81-32.05,72.81c-10.55,29.43-23.7,40.57-17.51,39.33
		c-0.66,0.66,0,0.36-0.77,1.79c-2.07,3.84,1.62,1.38,1.63-0.49c0-1-0.3-1.38-0.18-2.11c18.11-26.16,19.66-45.05,31.23-65.81
		c17.41-31.23,16.42-40.84,19.06-44.01c1.52,3.04,4.16,4.66,5.27,7.71c-8.32,17.65-14.18,36.37-21.9,54.36
		c-3.56,8.29-11.64,17.71-13.39,25.05c-0.82,3.45-2.01,6.81-3.95,9.84c-3.01,4.68-4.16,10.14-6.69,15.11
		c-0.95,1.58,2.92,2.39,4.26-3.14c1.98-8.18,6.73-13.24,8.01-18.96c2.56-11.48,6.24-6.86,20.69-43.91
		c8.15-20.91,12.41-35,14.2-36.61c5.3,5.89,37.52,50.21,51.11,64.6c0.71-0.71,0.59-1.45,0.28-2c1.41,1.11,4.68,3.34,11.59,7.28
		c13.42,7.66,3.21,5.55,18.15,14.3c-8.84,17.68,8.4,6.76-52.12,19.37c-6.54,1.36-3.92-1.51-12.17-3.75
		c-16.9-4.59-31.77,2.24-46.85,2.84c-17.1,0.68-13.73,3.38-17.35,2.45c-3.55,0.78-6.38,1.2-9.83,4.64
		c6.21-0.55,18.48,1.24,65.71-1.83c41.97-2.72,65.62-11.45,68.05-9.03c-0.91,13.08,3.35,25.56,4.36,38.33
		c-3.58,1.19,3.32-1.95-26.97-5.68c-40.36-4.97-47.73-4.56-87.11-8.62c-30.55-3.15-29.33-3.91-30.63-1.42
		c47.02,6.55,21.87-0.41-53.65,17.34c2.03-4.46,4.06-8.72,6.08-13.08c13.92-1.99,64.62-10,50.8-11.98
		c-52.49,13.12-57.49,6.66-62.76,7.72c2.33,2.33,6.28,3.01,8.91,4.57c-9.89,21.42-3.65,13.23-19.18,11c-1.61,0.8-0.72,2.61,1.54,3.3
		c13.42,4.05,12.3,0.63,40.56-3.65c81.3-12.32,45.91-10.92,80.32-8.32c15.51,1.17,77.82,6.62,92.49,12.88
		c3.78,34.01,3.28,34.51,2.33,45.94c-1.01,0.71-2.13-0.51-2.84,0.51c-1.22,1.01,0.1,2.13-0.3,3.14c-0.1,0.1-0.3,0.51-0.41,0.51
		c-5.37,0.11-4.17,12.21-5.68,18.66c-1.04,6.24-2.9,3.17-1.22,16.63c0.92,7.36,8.1,2.75,12.47,9.03
		c8.77,12.57,29.2,16.04,44.21,15.62c8.98-0.25,10.58-2.94,13.49-2.94c9.12,0,6.38-14.03-3.75-14.3
		c-8.01-7.4-14.81-15.01-18.76-24.64c0.71,0.1,0.81,1.22,2.03,0.81c-1.42-4.26-3.65-8.11-6.49-11.86c1.12-1.72,2.13-3.45,1.32-5.58
		c5.98-2.33,12.27-1.83,17.65-4.77c-5.98,0.71-11.86,1.52-17.95,2.94c-2.13-2.43-4.46-4.46-8.72-4.36
		c2.77-12.95-4.36-27.71,13.79-59.12c23.84,61.99,15.84,46.9,17.65,41.78c2.33,2.23,2.94,5.88,6.69,7.91
		c-0.81-5.78-5.07-9.13-6.79-14.4c4.66,4.87,8.92,9.63,14.4,13.18c1.32-2.23,3.45-2.46,5.37-2.64c26.49-2.45,31-11.09,45.74-0.3
		c2.64,1.93,4.26,6.19,4.26,10.55c-29.81,6.29-58.92,14.7-89.24,20.79c2.03,1.93,3.45,1.22,4.77,1.01
		c15.47-2.46,82.75-19.34,82.85-19.37c1.42,1.83,0.91,3.65,1.22,4.77c5.07,6.39,11.96,8.47,19.27,9.53
		c11.57,1.68,8.85-3.21,21.9-0.1c36.17,8.6,26.54,8.21,41.07,10.24c9.42,1.32,10.38-5.23,17.95-9.33c4.74-2.57,3.82-8.92,1.93-13.08
		C443.78,507.63,440.47,514.25,428.22,505.88z M188.59,84.73c0.81,0.41,1.52,0.61,1.72,1.42c0.61-0.71,1.42-1.01,2.54-0.61
		c-0.81,0.71-1.52,1.32-2.54,0.61c-7,0.51-13.94,0.89-19.17-5.58c-14.52-17.99-9.75-29.95-4.97-41.98
		c10.93-27.49,54.7-1.31,33.36,38.54C197.1,81.69,193.46,83.82,188.59,84.73z M201.47,78.95c8.11-12.88,9.33-25.76,2.64-39.14
		C213.64,50.66,209.07,72.46,201.47,78.95z M211,49.14c-2.53-4.22,0.5-4.94,0.01-0.09c3.13,2.94,3.84,6.58,1.71,9.93
		C212.14,55.62,211,48.66,211,49.14z M215.97,80.37c-4.16-10.14-5.27-11.86-3.95-17.34c8.91-7.17,8.17-16.02-3.85-20.89
		c-2.03-4.26-5.27-7.81-9.03-11.16c4.33-5.54,18.81-9.86,25.66-3.35c13.69,13.01,10.59,26.14,10.45,33.26
		c-0.21,10.08-8.27,12.22-5.68,13.08c3.95-1.93,6.31-5.19,7.4-9.63c0.38-1.53-0.83-2.64-0.2-4.26c3.16-8.16,1.38-16-2.54-23.83
		c1.52,1.42,2.64,3.04,2.94,5.17c-0.87,0.87,9.73,11.42-2.64,30.42c-4.28,6.57-5.18,4.09-13.39,7.61
		C219.52,80.27,217.79,80.88,215.97,80.37z M214.24,48.73c1.12,0.81,2.23,1.72,2.84,3.75C215.16,51.37,214.75,50.05,214.24,48.73z
		 M227.22,126.92c-0.2,2.74,0.71,5.68-1.22,8.11C226.41,132.4,226.82,129.66,227.22,126.92z M120.54,166.87
		c-0.81,0.3-1.32,0.61-1.72-0.1C118.44,166.01,119.27,165.09,120.54,166.87z M112.23,169.08c0-0.22,0.73-1.22,1.01-1.5
		C112.93,168.05,112.5,168.53,112.23,169.08z M116.89,163.12c-0.61,2.74-3.25,3.25-4.77,4.97
		C112.84,165.56,114.76,164.24,116.89,163.12z M56.45,72.67c-0.81-4.06-0.51-5.17,2.03-6.59C58.89,68.51,60.2,71.04,56.45,72.67z
		 M60.2,71.96c1.52-2.94,1.72-5.37-0.91-7.3c5.37,0.91,10.34-1.32,15.41-1.32C79.81,72.03,70.72,70.93,60.2,71.96z M105.74,65.06
		c-0.81-0.3-0.81-1.01-0.61-1.72C106.04,64.05,106.04,64.05,105.74,65.06z M115.67,64.76c1.42-1.12,2.84-2.03,2.54-3.85
		C124.2,62.77,120.83,66.04,115.67,64.76z M119.02,59.28c-1.72-2.43,0.41-5.68-2.43-7.5c3.25-1.32,4.16,0.71,5.27,2.84
		C120.75,56.03,120.85,58.06,119.02,59.28z M129.57,70.33c0.89-6.1,6.74-7.05-0.1-13.89c0.41-4.46-1.52-5.78-6.79-4.26
		c-1.12-1.12-1.72-3.31-3.85-2.84c-2.93,0.65-5.37-0.81-8.21-1.22c7.61-35,32.6-4.57,29.1,18.46c-1.2,7.91-1.42,15.92-7.1,23.22
		c4.64-1.78,5.32-0.63,7.91-9.53c2.78-9.57,3.31-27.92,0.51-32.76c-4.05-7-7.91-14.1-15.41-18.15c2.63-2.39,14.33,6.2,17.44,15.31
		c15.17,44.34-17.98,57.99-23.63,36.2C123,78.2,128.47,77.88,129.57,70.33z M92.86,272.24c-0.81-0.3-1.12-0.91-1.32-2.03
		C92.45,270.92,92.96,271.43,92.86,272.24c2.84,1.72,4.16,4.97,7.2,7C97.1,280.88,99.15,283.25,92.86,272.24z M94.38,431.65
		c37.47-1.7,40.28-8.91,58.72-1.72C135.8,433.9,78.91,433.59,94.38,431.65z M412.6,501.22c-0.61,0.2-1.12,0.41-2.33,0.81
		C411.38,500.31,411.38,500.31,412.6,501.22z M409.46,498.38c-1.42,0.41-2.54,0.91-4.26,0.41
		C406.82,498.28,407.73,496.96,409.46,498.38z M395.46,475.77c1.22,5.58,3.75,9.84,5.98,14.4c-2.94,1.32-2.54-2.74-4.66-2.43
		c-0.71,1.42,1.01,1.93,1.01,3.25C392.07,492.02,392.51,480.49,395.46,475.77z M299.33,363.3c19.85-14.64,12.65-26.26,27.48-45.74
		c1.4-1.84,3.45-3.46,6.08-2.43c8.02,3.12,16.32,5.49,23.53,10.55c23.82,16.72,34.88,13.63,41.17,23.93c1.42,2.33,2.69,4.35,1.93,7
		c-1.9,6.59,2.35,11.25,1.01,21.5c-12.27,93.8-8.28,25.08-11.36,106.58c-6.69,0.81-12.27,4.46-18.46,4.06
		c-0.36-6.49,0.18-7.01-1.32-8.42c-0.91,3.04,0.2,6.08-1.72,8.52c-2.74,0.3-4.56-2.43-7.61-1.93c5.55-9.05,7.73-44.82,2.64-53.75
		c-1.96-3.43-2.03-7.71-3.55-11.15c-4.51-10.22,1.1-30.73,4.97-41.17c0.81-0.41,1.42,1.52,2.64,0.2c-0.81-2.23-3.14-3.55-3.75-6.08
		c-15.21-1.42-29-8.82-44.32-9.33c8.52,2.64,17.44,3.85,25.66,7.5c-16.12,0.91-32.35,2.54-47.87-3.75
		C296.49,366.21,295.24,366.32,299.33,363.3z M362.4,492.8c-0.91-0.71-1.52-1.52-1.83-2.64C362.71,490.98,362.71,490.98,362.4,492.8
		z M310.68,376.59c-5.88,3.75-11.97,1.93-13.99-4.77C300.95,375.88,305.72,375.98,310.68,376.59z M280.57,368.27
		c-2.39,4.21-18.48,32.43-19.98,33.67c-0.2-1.22-0.09-2.12,0.41-3.04c5.07-9.49,0.81-13.61,3.35-19.37
		c4.86-11.03,0.14-25.97-4.06-29.71c-1.45-1.29-2.74-2.74-4.26-4.26c12.98-11.16,27.18-17.95,45.03-15.41
		C296.26,349.44,271.96,374.01,280.57,368.27z M281.99,366.75c-0.2,0.81-0.61,1.32-1.32,1.62
		C280.67,367.46,280.97,366.75,281.99,366.75z M287.97,314.22c7.3,1.82,9.63,7.2,12.57,13.08c-15.62-1.42-28.8,3.75-41.17,12.37
		c-0.67-0.74-7.83-4.02-0.91,0.61c-1.42,1.62-2.33,2.74-3.65,4.36c-0.11-2.84,0.19-14.7,0.41-16.23c1.42,2.74,0.41,5.88,3.55,6.69
		c-1.7-10.55-7.34-7.03,4.26-15.72C270.56,313.75,278.54,311.88,287.97,314.22z M277.53,311.21c-0.81,0.17-3.23,0.79-5.35,1.35
		C273.94,311.99,275.73,311.56,277.53,311.21z M137.61,216.66c-0.72,0.04-1.43,0.12-1.96-0.09
		C136.22,216.56,136.9,216.62,137.61,216.66z M107.06,283.7c11.11,7.72,14.39,4.16,18.56,7.91c10.78,0.98,5.61,6.8,10.85,7.96
		c-0.05-1.49-2.13-2.2-1.72-4.01c0.2,1.51,3.4,1.72,1.75,4.02c0.21,0.04-0.06-0.19,0.17,0.04h-0.01c2.16,2.14,2.99,5.6,5.99,7.1
		c0.81-0.81-0.61-1.52,0.41-2.23c4.6,2.93,8.94,7.88,15.92,10.55c7.45,2.85,2.65,5.76,11.46,8.92c1.89,0.68-1.89,4.99,1.93,6.08
		c4.04,1.16,4.77,4.66,6.49,7.71c-1.52,1.93-2.84,3.75-4.36,5.68c-8.91-8.22-0.55-12.02-21.09,2.23
		C153.37,345.63,112.86,289.96,107.06,283.7z M178.75,354.58c-2.43-6.29-2.33-7.81,0.3-11.16
		C178.75,347.18,178.65,350.83,178.75,354.58z M154.01,346.57c4.87-3.14,9.43-5.98,13.89-9.43c3.25,6.59,8.62,12.37,4.87,20.38
		c0.91,0.61,1.22-1.22,2.54-0.2c1.12,6.59,4.36,13.08,4.16,20.59C169.22,368.68,162.83,356.81,154.01,346.57z M177.74,330.24
		c1.52-4.16,4.87-6.79,7-10.24c-3.45,2.23-5.88,5.27-8.11,8.62c-1.52-1.01,0.41-1.93-0.41-2.74c-1.22,0.1-1.01,2.03-2.54,2.03
		c0.71-4.56,0.71-4.56-4.56-7.71c2.03-2.94,3.95-5.98,6.39-9.63c-4.16,1.83-6.39,4.56-8.42,7.71c-4.87-4.46-10.85-6.79-15.92-11.26
		c2.54-12.68-4.56-21.3-13.59-29c2.96,8.52,10.82,5.94,12.37,28.09c-14.94-9.19-12.31-15.94-24.14-16.73
		c-2.57,0,5.55-2.08,11.66-13.28c3.76-6.9,3.27-14.49,1.22-25.05c-5.17-26.6-14.8-28.5-19.98-36.91c7.02,0.92,7.95,4.31,10.65,4.77
		c8.04,1.35,10.48,5.37,21.3,5.37c4.66-3.95,10.85-2.64,15.92-4.66c0.3-1.22,0.51-2.33,0.81-3.45c2.03,0.1,3.75,1.12,5.37,0.51
		c4.39-1.65,27.61,0.3,26.87,8.82c4.72-1.82,4.42,3.05,13.69,7.61c4.88,2.4,9.23,5.48,12.57,9.63c1.12,0.2,0.71-0.91,1.32-1.12
		c2.55,2.15,6.26,7.79,8.21,16.33c2.75,11.98,12.43,15.01-7.3,4.16c8.01,8.51,13.68,6.76,16.83,12.37
		c5.45,9.7,14.91,15.82,21.8,24.14c-1.01,0.1-2.63,0.61-3.45-0.41c-2.82-3.5-12.65-2.52-33.97-8.92c-3.89-1.17-9.31,1.38,31.74,9.23
		c-16.21,0.74-26.23-2.07-28.7,6.79c-1.93,0.41-3.55-1.01-5.27-0.51c-13.58,3.96-18.3-7.72-43.5,24.24
		c-1.52,1.93-2.64,4.06-2.84,6.9C179.16,333.89,180.58,330.75,177.74,330.24z M250.65,301.44c-5.37,0.81-10.75,0.81-16.02,3.45
		C237.47,301.04,241.62,300.23,250.65,301.44z M226.11,308.04c-0.81,0.2-1.62,0.41-2.43,0C224.49,307.73,225.2,307.83,226.11,308.04
		z M182.2,380.54c4.26,1.32,7.3,4.26,10.04,7.71C188.69,386.02,185.04,383.79,182.2,380.54z M193.35,384.7
		c3.35,2.64,6.69,5.37,8.01,10.24C196.6,392.71,195.89,388.05,193.35,384.7z M191.93,367.16c0.3,6.79,3.95,12.57,5.98,19.27
		c-5.93-6.27-17.22-6.75-15.41-14.2c1.22,1.12,0.91,3.75,3.45,3.55c0.2-2.74,0.18-2.73-0.61-4.77c-3.22-8.29-4.08-16.94-3.55-25.76
		c0.52-8.62,5.45-8.76,5.88-12.88c-2.21-2.51-12.83,7.95,9.43-14.81c7.73-7.89,15.86-4.86,20.68-5.36
		c-0.12,1.12,0.65,1.41,1.77,1.41c4.04,0.22,7.37,2.54,10.91,4.06c0.71,0.3,0.3,1.01,0.2,1.83c1.83-0.51,3.45-0.3,5.17,0.61
		c-3.55-3.07-7.19-5.8-11.41-7.16c-4.46-1.43-12.11-0.5,1.27-2.07c12.75-1.5,13.99-5.43,20.48-5.88
		c15.02-1.05,17.48,0.22,18.96-3.14c4.26-0.2,8.11,0.51,12.57,0.81c-1.72,0.91-3.35,0.3-4.36,1.42c6.41,0.8,9.61-1.56,11.86,1.93
		c-9.53,3.65-19.77,4.66-28.9,9.13c4.56-0.37,14.7-3.5,14.7-2.84c-0.03,0-0.07,0.01-0.1,0.01c-1.22,1.5-16.14,3.56-19.88,18.65
		c2.64,2.13,1.12,5.07,1.62,8.52c-8.52-11.11-11.29-16.2-18.15-17.65c-10.95-2.31-28.53-1.13-28.29,3.55
		c4.97,1.51,6.42-2.96,26.37-1.93c5.38,0.28,6.7,0.93,15.92,14.6c-8.01-1.93-15.52-2.43-23.22-2.23
		c-2.19,5.85-16.47,8.01-18.66,19.47c-6.48,33.96,17.17,42.18,9.26,42.2c-2.28,0-7.24-1.94-9.44-1.81
		C203.49,395.87,208.74,405.15,191.93,367.16z M250.14,340.38c-0.71,0-1.01-0.51-1.42-1.83
		C249.64,339.37,250.35,339.57,250.14,340.38z M205.22,397.17c5,1,16.99,5.89,12.84,0.25c2.81,0.67,3.32-1.81-0.77,10.09
		C211.51,405.79,208.26,401.53,205.22,397.17z M217.75,397.21l0.04-0.04c-0.01,0.01-0.01,0.02-0.02,0.03L217.75,397.21z
		 M223.68,520.49c1.63,0.38,3.04-0.71,4.66-0.2c-0.1,3.35-0.71,3.85-6.08,4.46c-0.81-1.72-2.43-3.14-2.84-5.27
		C221.14,518.86,222.26,520.16,223.68,520.49z M253.08,538.64c-0.41-1.72-1.42-2.94-3.75-3.75
		C252.78,535.09,252.78,535.09,253.08,538.64z M231.69,533.97c6.19-3.14,12.98-3.55,19.67-3.75
		C244.77,531.34,238.08,532.05,231.69,533.97z M242.03,527.89c3.85-2.23,5.68-2.43,7.61-0.81
		C247.2,527.38,244.97,527.59,242.03,527.89z M249.13,522.82c-4.16,1.72-8.92,1.62-12.37,4.36c-3.45,2.74-8.32,2.94-11.36,6.29
		c0.81,1.52,2.13,0.2,2.74,1.12c0.71,1.42-1.12,2.84,0,4.26c1.83,0.71,3.25-1.52,5.27-0.81c-0.71,0.81-1.93,1.42-1.52,3.04
		c2.43,2.74,5.48-0.81,8.21,0.51c-0.51,0.81-1.12,1.72-1.62,2.54c-1.62,0.41-3.45-0.1-4.16,1.83c3.25,2.74,15.12,2.34,18.05-0.81
		c1.32-1.42,2.64-1.52,4.26-1.52c4.76,9.16,7.19,6.75-3.55,9.33c2.43,2.74,3.35,2.64,8.82-0.3c5.34,4.01,7.13,3.06,8.72,6.79
		c1.22,2.88,4.19,3.74,8.11,5.37c4.58,11.91-43.63,12.21-54.36-4.36c-7.4-11.44-12.41-0.95-13.99-10.75c-0.1-0.2,0.2-0.41,0.3-0.51
		c1.12,0.1,0.81,2.13,2.33,1.72c0.33-1.49-4.61-6.51-0.81-13.69c5.19-9.8,1.49-11.67,2.23-16.83c3.65,1.52,4.16,5.98,7.4,7.91
		c2.84-2.03,6.39-2.23,9.03-4.66c0.84-5.89-0.13-3.82,3.65-6.19c0.41-1.12-1.22-1.12-0.61-2.03c1.58-2.1,5.31-0.35,9.23-0.61
		C247.21,514.54,247.94,518.29,249.13,522.82z M251.56,457.11c-3.99,8.95-5.2,18.75-9.03,27.68c-2.25,5.27-2.29,10.75-1.93,16.33
		c0.66,10.04,4.83,10.72-1.93,10.24c-10.16-0.72-5.3,6.65-13.39,6.29c-9.54-6.36-3.14-1.09-3.14-21.9c0-13.36-7.18-63.69-7.3-65.92
		c-0.84-15.56,3.94-9.8,9.84-40.67c0.27-1.39,0.69-3.57-1.82-3.83c0.44-1.74-1.04-1.97-2.44-3.16c0.51,3.6,2.4,3.3,2.44,3.17
		c2.5,6.31-3.39,12.29-5.69,8.08c-9.41-17.24-7.4-13.58,0-6.59c-0.3,0.1-0.71,0.2-1.32,0.3c0.51,1.62,1.62,2.43,3.04,3.14
		c0.4-1.1-0.54-2.4-0.76-2.54c0.49,0,1.18,1.24,2.18-0.2c-11.86-14.17-11.35-13.23-12.27-18.05c-3.78-19.85,13.77-25.22,19.17-31.74
		c6.08,1.12,12.27,0.51,18.66,1.93c8.92,9.88,23.75,18.45,16.63,36.2c-4.43,11.04,2.82,12.93-5.98,25.76
		C254.13,420.84,264.04,429.12,251.56,457.11z M345.97,503.15c-1.93-2.43-2.74-5.17-3.96-7.71c-15.51-4.72-15.26-5.46-18.46-4.46
		c-21.31,6.62-28.23,3.8-34.68,7.4c-14.63-12.24-17.14-13.51-18.76-18.76c-5.19-16.88-9.32-22.75-10.95-29.71
		c-1.01-4.31,3.51-7.62,1.12-28.7c-0.78-6.83-2.17-10.1,6.39-23.43c17.07-26.55,14.68-24.91,16.33-25.45
		c1.93,0.2,3.46,1.2,4.97,2.64c4.51,4.31,10.65,4.56,16.12,6.39c1.91,0.48,8.74-4.18,10.85-4.16c1.9,0.02-8.8-0.1,30.42-0.1
		c4.2,0-2.1-3.69,13.69,1.12c1.22,2.33,1.21,4.56,0.41,6.69c-2.25,5.98-2.94,12.47-4.26,18.66c-5.8,27.08,15.03,28.12,3.45,79.91
		c-1.01-0.61-1.32-1.93-2.64-1.83C347.99,483.65,353.39,499.18,345.97,503.15z M430.65,529.41c1.15,6.88-24.7-4.85-49.08-7.61
		c-3.59-0.41-28.1,4.76-34.99-8.72c1.93-2.43,0.51-5.98,2.84-8.42c4.93-5.16,4.27-14.81,6.59-18.76c0.91,0.41,1.42,1.01,1.32,1.83
		c-0.53,4.36,2.86,6.78,4.97,9.84c2.66,3.84,6.39,3.45,10.24,2.54c1.46-0.49,0.93,1.85,2.74,1.72c5.85-2.15,4.53-8.48,12.07-10.85
		c0.41-0.1,0.61-0.71,0.41-1.22c-7.07-1.89-7.63,5.54-11.76,8.21c-5.28-1.85-7.41,2.27-11.56-2.84c-1.01-1.12-0.2-2.23,0.91-3.45
		c7.91,1.22,15.21-1.93,22.72-4.36c0.71,1.32,1.12,2.23,1.62,3.35c1.62-1.22,2.94-1.01,3.75,0.91c-3.75,1.83-8.52,1.52-11.56,5.27
		c0.81,1.32,1.72,1.32,2.74,0.81c5.37-1.93,11.25-2.76,16.43-5.37c1.62-0.82,2.74-0.81,3.35,1.12c-5.07,1.83-10.85,1.42-15.11,5.37
		c1.32,2.94,3.85,1.93,5.88,2.43c1.62,4.46,5.98,2.33,9.33,3.25c-1.22,1.42-3.65,0.81-3.65,3.14c1.52,1.72,1.52,1.84,2.43,1.83
		c5.17-0.1,8.52-3.85,11.86-6.49c9.23,3.85,17.14,9.84,27.18,11.15C447.38,520.12,444.2,528.97,430.65,529.41z"/>
	<path d="M58.78,208.25l0.1-0.1C58.78,208.17,58.69,208.07,58.78,208.25z"/>
	<path d="M123.89,65.26l0.1-0.1C123.86,65.2,123.93,65.19,123.89,65.26z"/>
	<path d="M87.93,431.03c0.97,0.4,1.93,0.09,2.73-0.56C89.74,430.65,88.84,430.84,87.93,431.03z"/>
	<path d="M730.04,486.38c0.01-0.05,0.02-0.1,0.03-0.14C729.99,486.2,730.01,486.18,730.04,486.38z"/>
	<path d="M470.3,446.35c0.15-0.02,0.29-0.04,0.43-0.06C470.36,446.26,470.3,446.24,470.3,446.35z"/>
	<path d="M897.74,510.65c-2.79-4.46-7.52,0.79-17.34-6.9c-6.12-4.79-15.39-6.71-25.25-19.77c1.72-5.37-2.46-7.78-5.07-10.85
		c-1.54-1.81-3.55-1.12-5.58,1.01c0.96-24.05,1-29.1,2.33-36.51c0.19-1.04,9.23-33.69,7.91-51.62c-0.36-4.84,3.08-9.36,0.3-18.96
		c-2.66-9.22,3.15-14.11-3.14-17.34c-0.4-0.21-0.81-0.61-1.01-1.12c-2.13-6.39-8.1-7.73-13.28-10.14
		c-26.37-12.27-41.58-24.55-66.93-28.9c-1.63-0.28-2.03-2.22-3.65-2.13c-3.75,0.22-7.52-0.01-10.75,2.84
		c-1.83,1.62-4.26,2.64-5.98,4.66c16.5-8.08,21.8-2.79,31.34-0.81c-9.14,6.65-9.37,12.97-16.63,30.73
		c-3.02,7.39-3.12,5.65-18.05,22.92c0.1,0.91,0.81,0.41,1.32,0.91c-0.41,2.23-0.51,4.77,0.81,7.4c-6.07,0.26-3.23-3.59-10.14-6.59
		c3.35-5.75,8.48-13.26,12.98-23.93c2.18-5.18,5.57-5.4,6.49-17.54c19.78-12.47,17.06-9.95-0.1-1.72c-0.41-3.04-2.43-5.17-3.45-7.61
		c-1.32-1.01-2.76-0.68-3.95-1.52c-14.48-10.19-33.16-2.28-40.16,4.97c-2.54,2.63-3.25,6.29-5.27,9.53
		c3.04,2.13,1.01,5.37,2.33,7.81c-4.24,2.12-7.05-25.89-42.69-16.23c-4.24,1.15-6.45,4.75,2.74,2.43
		c6.77-1.71,23.06-3.75,27.68,2.64c2.43,3.35,5.07,6.59,8.21,10.75c-6.69-2.13-12.68-2.02-18.76-2.54c-7.23-0.62-3.4,1.65-7.81,3.85
		c-7.38,4.57-15.24,7.94-16.12,20.28c-0.96,13.41,2.96,28.79,11.97,36.2c0.54,0.54-1.89,0.85-3.85,0.2
		c-14.48-4.81-5.39,3.06,4.87,2.64c1.97-1.61-2.6-3.35,1.72-1.93c-1.01,3.04-2.03,6.08-2.94,9.23
		c-13.04-0.5-22.02-36.37-25.35-39.04c0.61,6.19,3.75,11.46,5.78,17.65c-21.18-12.46-12.56-6.49-15.82-14.1
		c2.03,1.42,1.62,4.26,4.16,4.26c2.05-3.49-4.16-5.26-4.16-29.21c0-5.58,2.33-7.91,5.88-13.28c-0.3-1.52-1.83-0.61-3.04-1.42
		c4.87-5.07,8.84-10.83,14.3-15.01c7.29-5.58,9.32-3.65,18.46-3.65c-0.05,0.05-0.07,0.07-0.09,0.08c0.15-0.11,1.59-1.04,6.07-1.2
		c4.66-0.17,9.54-0.89,13.18-3.04c10.38-6.13,26.14-0.58,27.18-5.98c4.36-0.51,8.32,0.61,12.47,0.91c-2.13,0.41-4.36,0.81-6.9,1.32
		c5.17,1.12,10.34-2.43,15.01,1.42c-9.63,3.55-19.57,4.77-28.9,8.52c0.81,1.12,1.42,0.82,1.93,0.71
		c30.28-6.6,34.89-11.28,41.37-7.91c5.9,3.06-1.47-7.44-13.08-3.95c-4.45-5.03-12.07-0.38-16.43-6.08
		c-2.58-3.37-4.51-2.28-5.58-3.35c-7-8.21-15.72-15.01-20.28-25.56c15.87-41.56,4.38-52.27,7.5-69.87
		c6.08,0.71,11.23-1.97,16.12-4.97c6.86-4.21,9.11-11.06,10.34-18.66c3.65-22.51-28.79-54.14-50.81-23.43
		c-3.55-1.12-7.1-2.13-10.95-2.13c-10.81,0-26.34,17.84-18.76,38.13c4.86,13.02,11.05,21.38,27.38,24.95
		c1.32,0.29,2.54-1.12,4.06-0.3c0.61,3.55,0.61,7.1-1.93,10.04c-4.71,5.45-4.52,8.74-6.39,12.47c-8.24-3.63-12.15-4.92-16.53-9.94
		c-4.64-5.31-10.55-8.23-17.75-8.42c-4.06-0.11-8.11-0.94-12.17-0.81c-2.54,0.08-4.97,1.12-7.4-0.51c-1.01,1.52-0.1,3.55-2.03,4.66
		c-4.97-1.12-11.56,1.72-15.11-5.88c0.51-3.55,1.83-7.82-1.83-12.17c-2.73-3.25-2.33-9.03-7.71-9.94c-0.71-1.22-0.29-2.02-0.1-2.84
		c1.95-8.56-4.37-3.2-5.58-10.04c-4.46-0.2-6.69-4.16-10.34-5.58c0.2-1.93,2.23-2.03,2.84-3.55c-0.1-1.42-1.42,0-1.93-0.91
		c-0.55-2.22,2.1-8.31-4.97-3.45c-0.1-2.13,2.54-2.33,2.13-4.36c-2.43-0.91-4.26,1.22-6.08,1.22c-1.52,1.22-0.61,3.65-2.74,4.06
		c-0.3-2.74,1.62-4.46,3.35-6.69c-2.64-0.2-3.35,1.83-4.77,2.84c-0.91-0.51,0.51-1.72-1.01-2.13c-1.42,0-2.44,5.88-6.59,4.66
		c-1.81-0.66-4.33,3.43-6.39,3.75c-11.7-11.7-17.69-9.7-26.67-1.52c-7.46,6.8-3.06,19.75-9.53,16.23c-1.07-0.58-2.04-0.31-2.57,0.95
		c-2.12-4.24-4.24-8.38-6.97-12.31c-5.88-8.48-18.36-8.32-18.36-5.78c0.68,2.72,8.16-5.32,18.66,10.55
		c10.14,15.33,10.67,49.21-9.33,53.34c-4.42,0.91-15.81-4.52-20.28-22.41c3.75-1.42,7.91-0.91,11.56-2.54
		c2.64-4.87,2.54-6.08-1.12-10.24c-3.65-0.3-7.4,0.41-11.36,0.61c0-12.17,3.71-29.84,14.91-24.74c18.34,8.35,23.15,48.8,5.17,56.89
		c12.64,0.77,17.05-26.04,11.05-40.77c-8.42-20.66-19.32-16.91-21.3-20.59c-4.06,1.72-6.46,4.47-7.71,8.21
		c-2.27,6.81-5.48,13.49-5.07,21.3c-8.32-1.53-9.84,8.72-4.87,11.76c1.93-0.2,3.95-0.41,5.98,0.1c3.55,22.41,21.7,28.6,33.46,20.59
		c0.51,0.2,0.71,1.12,1.52,0.91c2.64-3.25,0.99-8.25,4.66-11.05c0.81-0.62,1.93,0.1,3.04-0.1c-0.2-1.52-1.83-1.42-2.74-2.43
		c3.61-10.15,0.21-17.34,6.29-14.3c-1.52,1.83-2.94,3.45-3.55,5.78c5.48-4.46,8.11-6.53,18.76-8.01c0.1-3.04-4.66-6.29-0.71-10.34
		c2.03,1.93,4.16,3.75,6.9,5.07c-8.1,14.33-3.69,13.43-8.82,16.23c-8.11,3.85-13.31,10.26-15.82,18.76
		c-0.69,2.34-2.14,4.16-2.64,6.69c-1.24,6.28-1.05,12.77-2.13,19.06c-0.91,5.3-5.31,24.44-1.93,24.44
		c4.37-26.21,0.68-16.88,14.3-24.44c3.96-2.2,2.9,1.28,20.89-1.52c-5.07-1.83-10.24-0.62-15.41-1.01
		c-5.48-0.42-10.24,2.23-15.62,3.95c1.22-8.72,0.61-17.34,3.85-26.47c17.57,19.59,10.41,19.31,10.95,21.19
		c3.8,2.17,8.58-13.29,25.35-15.52c6.7-0.89,12.9-3.9,19.67-4.87c0.61-0.09,1.12-0.81,2.03-1.52c6.3,10.18,19.59,29.96,8.72,22.41
		c-4.84-3.36-7.04-0.16-10.95-0.2c-4.67-0.05-8.72,2.94-13.49,2.33c-0.51-0.1-1.12,0.51-1.22,1.32c0.71,4.94,16.69-3.52,23.83-0.3
		c1.12,0.5,2.13-0.3,3.25-0.51c1.32,0.91,2.43,2.43,4.36,1.83c3.9,10.57,6.44,15.4-7.81,30.22c-1.94,2.02-4.97,1.83-7.91,2.64
		c-0.78-5.44-9.33-0.96-15.62-11.15c-0.23-0.38-0.63-0.64-1.02-0.92c-0.04-2.12-1.25-2.51-3.44-2.22c0.74,1.49,1.83,2.12,3.09,2.29
		c-0.08,1.33,0.62,2.55,1.17,4c-13.84-3.52-23.67,9.75-27.58,11.05c-4,1.62-24.68,9.19-27.48,8.72c2.74-2.13,6.39-2.84,8.32-6.49
		c-3.04,0.1-5.07,1.72-6.9,3.04c-7.35,5.34-11.16,2.38-17.34,1.52c-4.96-0.68-7.69-3.25-8.32-8.21c-0.4-3.14-0.64-6.4,0.1-9.53
		c4.34-18.45,0.92-16.52,8.32-30.02c25.3-46.15-14.83,4.85-10.55,41.17c0.53,4.46,3.04,7.31,7.1,8.52
		c8.92,2.66,17.75,4.36,27.08,0.71c11.51-4.5,27.27-6.6,35.39-16.33c2.03-2.43,5.37-1.42,7.71-2.84c7,7.5,14.6,14.1,19.37,22.92
		c-17.34,42.79-40.56,83.16-54.56,127.07c-30.12,6.88-51.5,6.85-53.65,11.66c-7.58,16.97-11.17,15.48-7.61,17.86
		c-0.71,1.62,0.4,2.35,1.62,2.74c13.46,4.31,11.82,0.89,39.35-3.45c4.34-0.68,54.07-7.86,58.31-10.24c0.37-0.24,98,8.31,112.46,14.7
		c0.79,1.82,4.62,38.34,2.43,45.43c-0.81,0.61-2.03-0.41-2.64,0.51c-0.91,1.12,0.2,2.23-0.41,3.55c-6.32-0.51-4.51,17.36-6.29,20.48
		c-2.54,4.46-1.43,9.23-0.91,13.89c0.4,3.55,2.53,5.2,6.19,5.68c8.89,1.17,6.58,13.09,29.31,17.04c9.61,1.67,22.46,3.86,31.23-0.41
		c1.53-0.75,10.36-0.13,7.5-8.11c-1.45-4.05-4.66-6.29-9.03-6.29c-6.39-7-13.59-13.08-17.04-22.51c2.04-2.3-3.77-10.53-5.27-12.89
		c1.52-1.62,1.72-3.65,1.62-5.68c6.87-2.06,13.79-1.97,17.34-4.66c-5.98,1.01-12.07,1.52-18.15,3.14c-1.83-2.64-4.46-4.06-7.61-4.46
		c0-24.23-0.29-24.69,0.61-27.38c0.03-0.1,9.87-30.73,12.17-30.73c6.29,15.21,11.66,30.63,17.24,46.34c1.12-2.03-0.51-3.55,0.2-5.27
		c2.33,2.13,2.84,5.68,6.08,7.4c0.71-1.93-0.32-3.03-1.01-4.26c-10.52-18.52-0.8-2.31,8.92,3.35c2.64-4.27,13.6-1.28,26.57-5.98
		c12.11-4.39,29.53,1.65,27.48,13.69c-93.24,22.02-86.91,19.38-87,21.74c1.2,2,80.68-19,86.09-19
		c1.14,11.59,20.38,16.18,30.93,12.88c7.49-2.35,35.29,7.7,47.56,10.24c13.31,2.76,13.76-5.38,20.59-8.52
		C901.47,522.54,900.54,515.77,897.74,510.65z M469.69,206.53c-0.81-2.54-0.51-4.66,1.42-6.59
		C473.04,203.89,472.84,205,469.69,206.53z M473.45,205.92c1.52-2.64,1.72-4.87-0.61-6.9c3.89,0.16,14.8-1.71,14.91-1.72
		C492.45,205.64,485.02,205.42,473.45,205.92z M865.39,499.5c-0.61,0.91-1.22,1.01-1.83,0.3
		C864.07,498.58,864.68,498.99,865.39,499.5z M861.94,497.26c-0.91,0.1-1.72,0.1-2.54,0.2
		C860.83,496.25,860.83,496.25,861.94,497.26z M848.46,475.16c1.52,4.97,3.75,9.33,5.98,13.69c-2.74,1.52-2.54-3.14-4.87-2.33
		c-0.2,1.42,1.32,1.83,1.32,3.14c-3.25,0.71-3.35-2.43-4.46-3.45C847.14,482.36,845.62,478.5,848.46,475.16z M750.6,366.35
		c26.48-21.66,14.05-28.99,30.52-48.07c1.22-1.42,2.95-2.86,5.17-2.03c31.54,11.75,24.07,12.87,32.96,16.83
		c25.4,11.34,27.79,11.47,31.03,16.94c1.55,2.62,2.99,4.68,1.93,7.61c-1.72,4.73,2.35,12.03,1.01,21.09
		c-2.92,19.73-3.38,36.18-7,48.27c-5.69,19.03-0.4,55.86-5.68,56.69c-4.99,0.78-14.49,5.16-16.63,3.45
		c-0.61-2.54,0.3-5.27-1.22-7.71c-1.01,2.54-0.2,5.58-1.72,7.91c-3.04,1.01-4.26-2.94-7.61-1.62c6.08-11.83,6.77-44.95,3.65-50.7
		c-10.2-18.8-5.93-35.34,0.3-54.05c1.01-0.2,1.42,1.32,2.64,0.41c0-1.93-2.25-2.73-2.74-4.36c-0.63-2.12-2.53-2.6-4.06-2.54
		c-8.18,0.36-22.53-6.93-29.92-7c-5.1-0.04-6-2.95-11.26-1.42c8.92,2.94,17.85,3.65,25.86,7.5c-15.92,0.91-31.94,2.64-47.26-3.75
		C750.6,368.58,750.6,367.56,750.6,366.35z M816.21,491.28c-1.01-0.81-2.03-1.52-2.13-3.75
		C815.19,489.05,816.82,489.25,816.21,491.28z M764.69,376.99c-6.08,3.25-11.36,1.62-13.39-4.77
		C755.57,375.98,760.13,376.39,764.69,376.99z M755.57,330.85c-3.75,15.21-15.11,26.16-22.82,39.14c1.29,0.39,1.47-1.14,2.03-0.3
		c-5.88,10.95-12.98,21.3-18.86,32.65c-0.61-1.52-0.31-2.54,0.2-3.55c4.75-9.38,0.73-13.56,3.25-19.06
		c4.9-10.74,0.62-25.17-3.95-29.41c-1.42-1.32-3.04-2.43-4.16-4.26C723.93,335.11,738.02,328.52,755.57,330.85z M736.4,367.87
		c-0.61,0.71-1.01,1.22-1.52,1.72C734.25,368.96,735.16,367.77,736.4,367.87z M710.44,330.35c1.42,1.83,0.51,4.66,3.65,5.88
		c-0.2-3.45-1.93-5.98-3.04-9.03c7.22-12.64,35.55-22.13,43.71,0.91c-15.11-1.32-28.29,3.65-40.46,12.37
		C712.64,337.18,709.01,342.23,710.44,330.35z M710.34,338.97c3.75,2.89,3.15,2.48-0.61,6.49
		C709.83,342.82,709.73,340.99,710.34,338.97z M657,394.64c-4.56-1.93-5.07-6.69-7.5-9.84C652.33,387.64,656.18,389.77,657,394.64z
		 M648.17,388.45c-3.55-2.43-7.3-4.56-10.04-8.01C642.29,382.06,645.74,384.7,648.17,388.45z M679.2,309.46
		c0-0.41-0.52-0.3,1.32-0.3C680.52,309.34,680.72,309.46,679.2,309.46z M690.36,305.5c4.56-4.87,10.34-2.84,15.72-3.04
		C700.91,303.47,695.43,303.37,690.36,305.5z M694.82,164.03c-1.42-0.71-2.54-1.83-3.14-3.35
		C693.1,161.5,694.52,162.21,694.82,164.03c0.71,0,1.01,0.61,1.32,1.12c13.5,16.83,1.02,41.46,3.85,30.22
		C704.08,179.13,698.2,172.36,694.82,164.03z M698.98,164.54c1.12,1.22,1.72,2.13,1.62,3.35
		C699.79,167.08,698.98,166.37,698.98,164.54z M700.7,167.79c3.85,2.13,5.48,5.37,4.16,8.92
		C703.44,173.77,702.12,170.73,700.7,167.79z M703.64,166.67c1.32,0.41,2.43,0.91,3.45,2.64C705.06,169,704.35,167.79,703.64,166.67
		z M708.21,143.85c15.29,8.53,16.48,19.42,18.56,29.41c1.95,9.36-4.25,13.15-2.64,13.69c8.11-5.9,3.95-12.63,3.95-15.62
		c0.51-7.3-1.93-13.59-6.19-19.37c17.95,16.62,4.7,39.29,2.13,38.64c-4.46-1.14-3.04,5.48-15.01,7c-2.85,0.36-4.37-1.02-4.06-3.45
		c0.79-6.19-0.2-12.47,2.54-18.56c3.72-8.27-1.08-9.45-8.32-13.79c-1.01-0.3-1.52,0.91-2.74,0.41c-3.04-3.75-7.3-6.29-11.66-8.62
		C687.7,147.07,700.17,139.37,708.21,143.85z M665.62,204.19c-21-20.43-10.01-59.13,13.89-48.47c17.17,7.66,21.53,22.14,17.95,40.36
		c-2.04,10.39-9.43,10.78-7.4,11.46c1.22,0.61,1.93-0.71,3.25-0.81c-1.01,1.93-2.74,1.62-3.85,2.03
		C680.18,212.76,672.83,211.22,665.62,204.19z M683.97,225.49c7.12-8.03-0.14-13.64,4.66-13.39c1.01,1.22,0,3.14,1.72,4.66
		c0-2.23,0-3.95,0-5.78c6.49-2.33,10.04-7.4,12.88-13.18c1.01,0.51,1.01,0.91,0.81,1.62c-2.32,15.57,4,31.2-2.54,56.28
		c-6.2,23.79-2.93,7.81-11.36-5.58c2.03-0.3,2.84,1.32,4.46,1.12c-1.42-2.54-3.25-3.65-5.68-3.45c-4.02-3.59,2.34-1.52-10.75-10.45
		C680.12,233.3,680.82,229.04,683.97,225.49z M577.59,169.71c-0.41,0.51-0.81,0.61-1.42,0.61c-0.51-0.71,0-2.03-1.12-2.64
		C576.27,167.79,576.68,169.11,577.59,169.71z M518.67,199.12c-0.71,0.1-1.01-0.2-1.01-0.61
		C517.66,197.33,518.99,197.88,518.67,199.12z M524.76,191.32c-1.62,2.13-0.2,4.97-2.43,6.49c-3.82-0.26-2.02-4.1-2.66-4.26
		c-0.8-0.09-1.51,0.61-2.51,0.1c-0.92-2.4-2.7-4.64-2.63-7.55c0-0.06,0.05-0.83,0.09-0.87c-0.07,0.43,1.59,0.7,2.23,3.04
		c0.45,1.65,1.88,5.41,3.19,4.97c1.13-1.68-1.88-3.14-1.67-6.79c4.55-1.94,3.95,5.72,6.41,3.75c0.28-2.15-2.88-3-1.85-5.16
		c5.17-0.41,6.9,2.03,5.78,11.56c-1.62,0.41-2.74,1.72-4.26,2.64C525.67,196.6,525.87,194.16,524.76,191.32z M527.8,198.51
		c2.03-0.51,2.64-1.93,3.14-3.25C537.24,197.69,531.8,200.44,527.8,198.51z M530.94,193.24c-0.71-2.33,0.71-5.07-2.03-7.1
		c3.65-1.22,4.16,1.12,5.48,3.04C532.36,189.89,533.68,192.94,530.94,193.24z M534.29,213.32c7.76-2.44,6.55-7.65,9.33-13.28
		c2.15-4.35,1.93-5.68-1.62-8.92c0.71-4.26-1.72-5.98-6.9-4.56c-1.22-1.01-1.72-3.03-3.65-2.74c-2.84,0.43-5.27-0.71-8.11-1.12
		c0.87-13.02,11.45-20.66,16.63-14.3c1.65,2.35,12.23,11.09,12.17,23.73c-0.05,10.55-0.3,21.3-6.49,30.83
		c1.83-0.61,3.84-0.82,4.66-2.94c7.82-20.02,6.13-45.04-12.57-55.98c1.9-2.32,13.93,5.58,17.24,14.91
		c14.37,40.48-14.2,58.61-23.12,36.3C532.47,214.13,533.37,213.61,534.29,213.32z M568.44,229.08c-1,1.5-2.12,2.7-3.92,3.1
		c1.01-1.42,2.23-2.64,3.85-3.25c0.61-0.91,1.32-1.72,3.04-1.93C569.76,228.99,568.59,229.39,568.44,229.08z M568.87,226
		c-2.23-2.43-4.26-4.66-6.29-6.9c5.58-2.64,5.58-2.64,4.77-5.58c-2.74,4.9-10.45,1.3-9.03,7c2.74,2.33,6.9,2.94,8.92,6.69
		c-1.93,2.03-4.46,3.55-5.68,5.98c-5.68,1.32-11.46,1.22-16.53,4.56c-8.89-8.5-9.02-8.86-2.23,1.32c-2.74,2.54-5.37,4.87-8.11,7.4
		c-4.56-6.39-8.72-12.88-13.99-18.46c2.94-3.04,4.26-7.2,7.81-9.63c1.52,2.54-1.52,4.06-1.01,6.19c1.52-0.61,1.72-2.43,2.94-3.14
		c2.43,0.71,1.52,3.45,2.94,4.66c1.22,0,0-1.42,1.01-1.52c8.95,6.05,22.99-0.09,25.05-10.95c1.62-0.51,2.64,0.51,3.85,0.3
		c0.3-2.43-2.03-1.52-2.74-2.64c0.73-5.46,0.53-4.85,2.94-4.16c1.72-3.01-1.97-3.94-1.32-8.82c2.21-16.66-6.92-21.53,1.22-23.83
		c6.46-1.83,6.44-6.8,10.65-8.52c2.19,3.82-0.13-0.77-4.87,6.49c3.75,1.12,7.29,1.94,10.34,4.16c2.93,2.14,7,2.64,9.33,6.08
		c-1.32,0.2-2.33-1.22-3.65-0.1c1.72,1.72,3.95,1.65,5.88,2.03c6.55,1.28-1.35,7.8,6.59,10.75c-3.35,0.61-5.58,2.84-8.42,3.75
		c2.64,0.71,4.86-0.52,7.1-1.32c5.66-2.02,3.32,2.57,7.1,7.5c2.19,2.85-0.27,4.49,0.3,9.23c0.2,1.62-0.1,3.04-1.62,3.85
		c1.32,1.01,2.33-0.41,2.84-0.1c1.83,2.03,3.14,3.45,4.46,4.87c-14.23,2.3-23.96-0.56-26.26,2.13
		C578.1,224.88,573.23,222.85,568.87,226z M578.1,226.1c3.45,1.93,6.49-0.73,9.74-0.51c11.87,0.83,23.53-0.81,34.88-3.75
		c1.01-1.01,0.3-2.43,1.12-3.35c1.62,0.2,3.15,0.74,4.46,0.41c4.49-1.13,8.82,0.3,13.18,0.3c6.19,0,10.77,3.02,15.11,6.79
		c14.21,12.37,19.17,10.88,25.05,18.86c1.01-0.2,0.51-1.42,1.52-1.01c6.28,6.28,5.16,10.33,12.47,26.57
		c-3.85-2.13-7.81-4.36-11.66-6.49c3.35,3.55,7.34,5.99,11.66,7.91c6.56,2.92,0.71,3.95,26.67,28.5c-1.72-0.61-3.27,0.42-4.26-1.01
		c-2.1-3.04-5.26-0.45-36-9.03c15.91,8.33,43.86,9.76,30.73,9.63c-15.3-0.14-22.82-1.24-24.95,6.39c-2.03,0.51-3.64-0.98-5.58-0.41
		c-12.85,3.84-17.32-6.95-41.88,23.02c-1.69,2.06-3.14,4.26-3.45,7.3c-1.72-1.72-0.2-4.97-3.25-5.17c2.03-4.56,5.48-7.61,8.21-11.16
		c-4.06,2.13-6.49,5.88-9.43,9.63c-0.71-2.13,1.32-2.84,1.22-4.46c-1.83,0.61-1.93,2.84-3.95,3.75c0-1.83,1.01-3.54-0.2-5.07
		c-1.12-1.41-3.14-1.42-4.36-2.74c2.03-2.94,4.26-5.78,5.98-9.33c-3.65,1.72-5.78,4.46-7.91,7.5c-4.66-4.56-10.85-6.69-15.72-11.36
		c2.74-12.57-4.66-20.89-13.28-29c0,4.84,5.98,6.19,9.63,14.7c1.83,4.26,1.93,8.82,2.74,13.39c-4.66-2.33-8.7-5.49-12.57-10.75
		c-4.52-6.14-10.73-4.31-11.76-6.08C613.91,268.98,585.02,239.94,578.1,226.1z M635.7,343.73c-0.71,3.75-0.71,7.2-0.91,10.55
		C633.87,350.73,631.75,347.18,635.7,343.73z M594.12,299.92c-0.64,1.61-2.58-1.92-2.74-3.65
		C592.6,297.89,593.41,298.91,594.12,299.92z M564.51,285.42c4.77,4.26,10.95,4.87,17.24,6.49c-1.62,1.22-2.64,2.03-3.25,4.06
		c3.81-4.83,11.4-3.39,12.17,3.35c3.75,1.93,5.48,6.08,8.62,8.92c0.91-0.71,0.1-1.42,0.71-1.93c1.29,0.26,9.23,7.74,15.31,10.04
		c2.13,0.81,4.19,1.81,5.17,3.85c2.15,4.46,5.61,3.9,7.1,5.88c-0.81,1.83-1.72,4.24,0.81,4.97c4.16,1.19,4.87,4.77,6.69,7.71
		c-1.42,1.93-2.84,3.75-4.46,5.88c-2.23-2.84-4.16-5.37-6.19-8.01c-0.1,0.07-12.98,8.67-13.86,9.93c5.15-1.73,9.11-5.68,13.96-8.41
		c3.25,6.39,8.42,12.17,4.66,19.98c0.81,0.61,1.12-1.32,1.93-0.61c1.72,3.04,1.01,6.79,2.43,9.23c2.13,3.65,1.42,7.4,2.33,11.05
		C631.68,377.8,564.58,285.52,564.51,285.42z M667.14,460.45c-40.88-7.4-51.16-6.91-134.16-15.11c-1.11-0.11-2.43-0.81-3.55,1.32
		c47.71,6.73,18.14-0.1-53.34,17.34c2.84-4.16,4.16-8.92,6.49-12.98c26.54-4.52,38.05-6.17,49.69-9.63c3.92-1.17,3.96-3.2,0-2.23
		c-15.91,3.91-32.15,5.85-48.27,8.62c-4.38,0.75-8.59-1.17-12.96-1.48c-1.24,1.99,5.6,3.35,8.5,5.03
		c-11.2,20.6-1.44,13.25-19.61,10.58c-0.02,0.02-0.04,0.05-0.06,0.07c-0.19-0.19-0.06-0.09,0.06-0.09c2.29,0,9.51-15.63,10.41-15.63
		c0.49-2.44,15.58-2.85,54.83-11.57c12.19,7.31,14.25-0.55-0.51-1.62c10.18-23.27,6.58-23.77,17.14-44.11
		c6.52-12.56,10.89-26.24,17.85-38.74c23.21-41.68,12.14-49.66,24.44-33.67c-6.73,25.73-22.98,46.81-32.25,73.32
		c-9.04,25.85-15.81,28.07-18.25,37.83c1.59-0.45,1.96-0.91,1.36,0.34c-3.01,6.33,3.28,0.54,0.97-1.76
		c19.54-29.04,17.87-42.27,31.74-66.83c23.3-41.24,12.28-48.77,23.02-34.68c-15.56,37.23-18.97,51.18-25.56,61.86
		c-11.77,19.1-4.46,10.12-19.57,41.48c-0.3,0.61,0,1.22,1.01,1.62c3.6-1.44,1.63-4.51,8.21-16.63c4.6-8.47,1.77-8.41,7.4-17.14
		c13.3-20.6,16.84-38.44,29.71-69.47c55.1,71.77,47.99,63.17,50.4,61.96c9.75,7.58,17.37,9.27,22.72,17.14
		c1.52,2.23,4.56,3.04,6.9,4.77c-1.93,3.35-2.94,6.79-3.95,10.45c-51.94,8.77-50.66,10.42-54.76,6.39
		c-1.62-1.59-11.94-4.25-25.35-2.74c-8.01,0.9-15.82,3.22-24.03,3.55c-6.16,0.25-22.23,1.76-27.99,7.21c3.35-0.1,6.59-0.09,9.84,0
		c63.44,1.73,87.64-6.17,121.99-11.46c-0.91,13.39,3.14,25.76,4.26,38.43C669.57,463.19,668.86,460.77,667.14,460.45z
		 M609.94,429.62c-19.98,2.13-40.06,2.94-60.14,3.55c0-4.49,3.32,0.55,29.71-4.66C593.69,425.71,599.57,425.53,609.94,429.62z
		 M708.21,536.61c-0.2-1.72-1.32-2.64-2.54-3.45C708.31,533.06,708.31,534.79,708.21,536.61z M706.38,528.4
		c-6.39,1.01-12.88,1.93-19.17,3.75C693.2,528.8,699.89,528.9,706.38,528.4z M697.97,525.86c2.13-1.42,4.26-2.13,6.69-1.52
		C704.66,525.81,706.26,525.11,697.97,525.86z M703.75,520.89c-3.95,2.13-8.9,1.86-12.27,4.66c-3.32,2.77-8.11,2.84-11.05,6.08
		c0.91,1.42,2.03,0.51,2.74,1.32c0,3.7-0.6,3.46,0.41,4.26c1.52,0.41,2.74-1.52,4.56-0.91c-0.51,0.91-1.72,1.52-1.01,3.04
		c2.54,2.33,5.37-0.81,8.21,0.1c-0.61,0.91-1.32,1.72-1.83,2.54c-1.42,0.61-3.14,0-4.06,1.72c1.17,4.09,16.76,1.22,17.54-0.3
		c0.99-1.94,2.74-1.62,4.26-2.03c8.13,12.71,3.08,5.29-3.14,9.53c1.37,4.1,7.64-0.17,8.82-0.81c1.51,2.85,6.36,2.58,8.72,7.5
		c1.51,3.15,5.17,3.45,7.91,4.97c1.43,12.89-45.12,9.95-53.34-4.06c-6.66-11.35-13.25-1.86-13.99-11.56c1.32,0,1.01,2.13,2.43,1.83
		c1.19-1.19-4.81-5.57-0.61-13.69c2.15-4.15,3.57-8.83,1.72-13.79c-0.3-0.81-0.2-1.93,0.41-2.54c3.55,1.52,4.06,5.88,7.3,7.71
		c2.74-2.13,6.19-2.23,8.82-4.66c-0.51-2.94,0.61-5.27,3.55-6.19c0.2-1.01-1.32-1.32-0.2-2.43c2.74-1.01,5.78,0.16,8.42,0
		C702.23,512.93,702.55,516.82,703.75,520.89z M675.05,517.34c3.04,1.12,5.68,2.13,8.92,0.81c-0.3,3.75-1.22,4.46-6.19,4.87
		C677.07,521.3,675.35,519.88,675.05,517.34z M710.03,448.08c-9.96,24.83-7.84,25.36-11.76,34.48c-5.68,13.18-0.45,22.65-0.61,26.97
		c-1.94,1.36-8.42-2.13-11.66,4.36c-1.12,2.23-3.25,2.33-5.07,2.23c-11.69-8.44,0.23,2.6-3.75-31.44
		c-3.76-32.21-2.59-29.32-4.36-37.83c-7.4-35.53,3.86-26.8,7.4-56.79c0.41-3.45-0.3-5.07-3.95-7.1c-0.51,2.13,2.43,2.23,2.54,4.06
		c0.1,1.62,0.69,3.13-0.71,4.77c-1.03,1.2-1.01,3.45-3.85,3.04c-3.35-3.25-4.66-8.01-7-12.17c0.97-0.49-0.85-1.67,9.74,7.5
		c-7.83-13.13-17.46-15.45-12.47-31.74c3.88-12.65,11.48-11.91,18.05-19.57c19.02,1.76,17.68,1.04,19.37,2.74
		c7.75,7.75,18.87,16.67,17.14,28.39c-1,6.79-3.89,8.85-3.04,15.31c1.29,9.82-4.46,15.56-4.46,16.73
		C710.42,423.54,716.22,432.65,710.03,448.08z M730.05,487.68c0.15,0.28,0.17,0.25,0.39,0.56
		C730.26,488.06,730.13,487.87,730.05,487.68z M788.22,491.48c-6.73-2.62-9.59-2.5-20.28,0.71c-8.09,2.43-16.63,1.93-24.74,4.56
		c-7.48-6.24-12.18-10.9-13.08-10.45c-0.15,0.25,0.23,1.43,0.11,1.43c0-0.26-1.8-0.59-0.62-2.04c0.02,0.04,0.1,0.16,0.1,0.1
		c-4.92-8.5,2.94,10.75-14.6-34.07c-0.6-1.53-1.54-3.15-1.01-4.97c4.9-16.91-1.05-31.29,1.42-37.01
		c3.85-8.92,20.66-36.6,22.21-37.32c2.03,0.3,3.74,1.12,5.07,2.74c3.44,4.17,7.1,2.71,9.53,4.26c8.02,5.1,15.57-2.58,17.24-2.33
		c4.07,0.61,8.12-0.74,12.17-0.1c5.58,0.88,11.26-0.2,16.83,0.2c3.47,0.5,1.06-2.12,8.11-0.71c2.03,0.41,3.95,1.22,5.98,1.83
		c1.32,1.72,1.63,3.65,0.91,5.58c-1.81,4.87-2.23,10.04-3.65,15.01c-7.52,26.38,8.76,31.07,5.48,61.15
		c-4.09,37.49-2.62,13.43-8.42,22.51c-4.93,7.73-0.25,15.04-7.2,19.17C792.39,490.18,801.31,496.59,788.22,491.48z M883.14,527.79
		c-0.51,0.71,0.61,1.12,0,1.93c-6.3,1.89-27.82-7.17-48.07-9.43c-4.43-0.49-27.53,4.72-34.78-8.62c1.62-2.23,0.59-5.69,2.54-8.01
		c3.32-3.97,4.34-8.52,5.07-13.28c1.35-8.77,2.77-4.77,2.64-4.77c-0.2,5.17,3.26,8.3,6.29,11.66c4.56,5.07,7.93-1.2,11.26,3.14
		c1.93-0.71,3.22-1.94,4.16-3.35c6.66-10.02,7.94-6.04,8.52-8.92c-6.79-1.22-7.71,5.68-11.66,8.52c-4.52-2.38-6.17,2.32-11.16-2.84
		c-1.2-1.24-0.2-2.43,0.91-3.65c7.71,1.22,14.91-1.62,21.5-3.95c1.83,0.71,1.22,2.33,2.33,2.94c2.03-0.61,2.03-0.61,3.65,1.12
		c-3.75,1.83-8.52,1.42-10.95,5.88c7-1.12,13.79-2.74,20.38-5.78c0.2,0.81,1.62,0.71,1.22,1.93c-4.87,1.72-10.55,1.42-14.7,5.37
		c1.42,2.74,3.65,1.83,5.68,2.23c1.93,4.56,6.08,2.64,9.53,2.84c-0.33,1.98-2.9,0.92-3.75,2.84c2.22,5.78,9.85,0.01,13.99-3.95
		c9.03,3.85,16.83,9.63,26.77,11.05C899.2,517.38,896.93,527.55,883.14,527.79z"/>
	<path d="M672.93,313.29C672.91,313.3,672.91,313.3,672.93,313.29L672.93,313.29z"/>
	<path d="M524.2,190.61c0.14,0.04,0.29,0.08,0.46,0.09C524.73,190.63,524.32,190.61,524.2,190.61z"/>
	<path d="M648.38,362.39c1.22-18.15,4.87-34.88,21.19-45.74C649.45,322.94,644.1,356.07,648.38,362.39z"/>
	<path d="M245.99,509.23c4.16-0.61,8.32-1.22,12.27-1.83c-3.14-7.81-5.68-15.62-10.95-22.11c-0.71,4.06,1.78,7.12,3.25,10.55
		c1.48,3.47,2.64,7,4.97,10.34C252.29,506.95,245.99,505.8,245.99,509.23z"/>
	<path d="M247.71,481.04c7.91,8.42,17.54,15.01,26.26,22.61C266.27,494.93,257.44,487.53,247.71,481.04z"/>
	<path d="M207.96,189.89l0.1,0.1C208.03,189.81,208.04,189.77,207.96,189.89z"/>
	<path d="M210.9,177.72c-1,4-3.67,7.71-2.87,12.09c4.31-4.89,5.97-15.13,7.13-17.26C217.17,169.39,213.67,166.67,210.9,177.72z"/>
	<path d="M541.19,274.47c6.19-2.94,11.05-7.81,16.53-11.86C554.47,261.69,545.85,267.98,541.19,274.47z"/>
	<path d="M563.8,260.78c-3.63,2.1-17.06,10.17-15.52,14.5c5.87-9.11,16.55-10.8,18.05-14.4
		C565.53,260.68,564.71,260.26,563.8,260.78z"/>
	<path d="M119.22,285.12c-2.54-5.07-7.91-7.3-11.05-11.66C107.38,272.51,100.53,273.29,119.22,285.12z"/>
	<path d="M661.66,330.45c-4.26,6.19-7.2,12.98-9.13,20.28c3.35-6.59,6.29-13.49,10.95-19.47
		C662.88,331.06,662.27,330.75,661.66,330.45z"/>
	<path d="M686.4,320.81c1.83-1.12,3.35,0,5.07,0.41c-14.51-12.32-21.41-6.87-16.43-6.49c3.95,0.3,7.11,2.41,10.65,3.85
		C686.92,319.08,686.2,319.9,686.4,320.81z"/>
	<path d="M520.3,284.1c6.29-2.94,12.68-5.88,19.27-8.01C531.55,275.08,526.28,280.45,520.3,284.1z"/>
	<path d="M98.13,256.01c1.01,6.08,2.84,11.46,6.9,16.53C104.52,268.28,99.96,257.13,98.13,256.01z"/>
	<path d="M284.83,509.84c0.95,1.43,7.4-2.13,25.96-4.66C320.01,503.91,300.9,504.15,284.83,509.84z"/>
	<path d="M65.68,221.53c1.22,0.1,1.22,1.72,2.54,1.93c0-1.62-1.32-2.64-1.62-4.46c0.1-1.42,1.62-2.43,1.22-4.06
		c-1.72-0.41-1.32,1.83-2.43,2.03c-1.42-0.41-0.81-2.23-2.33-2.84c-1.32,0.71-1.52,2.84-3.96,2.74c1.83,1.93,2.74,0,3.96,0.3
		c3.35,2.23-0.2,4.36-0.3,6.69C64.56,224.07,64.56,222.14,65.68,221.53z"/>
	<path d="M70.45,228.84c5.96,8.2,1.07-0.8,1.01-1.01c0.1-1.22,1.52-1.93,1.12-3.35c-3.14-0.61-5.07,1.72-6.08,7.5
		C68.42,231.67,68.62,229.34,70.45,228.84z"/>
	<path d="M85.56,148.82c1.22-3.25,1.83-5.98,1.32-8.62c-1.21-6.27,2.7-10.63,0.51-13.99c-0.91,4.97-2.77,9.03-1.52,13.59
		C86.55,142.34,84.64,145.17,85.56,148.82z"/>
	<path d="M85.56,168.09c-0.2-4.97,0.2-9.94,1.22-15.62C83.53,157.24,83.02,164.64,85.56,168.09z"/>
	<path d="M317.68,503.65c6.39-0.3,12.47-2.43,18.56-4.06C329.85,499.7,323.66,501.32,317.68,503.65z"/>
	<path d="M203.7,202.67c1.62-4.16,3.95-8.11,4.46-12.57C204.51,194.76,202.99,198.92,203.7,202.67z"/>
	<path d="M110.1,200.34c0,3.55-0.41,7.2,0.71,11.56C112.94,207.34,112.73,203.79,110.1,200.34z"/>
	<path d="M511.27,283.7c-0.2,4.06-2.33,6.9-5.27,9.53C511.27,292.42,513.91,287.75,511.27,283.7z"/>
	<path d="M107.36,223.66c1.47,0.49,0.68,1.59,2.74-9.03C107.77,217.38,106.75,220.32,107.36,223.66z"/>
	<path d="M219.62,192.53c-0.87-0.43-0.37-1.3-3.85,9.74C220.23,199.43,219.31,195.78,219.62,192.53z"/>
	<path d="M59.39,211.9c0.51,0.3,0.2,1.12,0.61,1.52c3.74-5.61-0.35-4.36-1.01-5.68c0.2,2.33-2.13,3.75-2.33,6.19
		C58.18,213.83,58.07,211.9,59.39,211.9z"/>
	<path d="M705.88,323.96c-2.23-1.62-4.87-2.33-8.01-2.94C701.72,324.57,703.95,325.38,705.88,323.96z"/>
	<path d="M526.08,283.9c-3.25,1.93-5.27,4.16-7.4,7.71C521.41,290.19,525.37,285.93,526.08,283.9z"/>
	<path d="M219.01,159.88c-0.51-4.46,2.03-8.21,2.33-12.57C219.42,149.43,218.1,155.82,219.01,159.88z"/>
	<path d="M215.46,205.61c-3.25,3.45-3.55,4.06-4.56,7.2C213.43,211.9,215.16,209.36,215.46,205.61z"/>
	<path d="M572.42,264.53c0-1.22-1.11-1.52-1.62-2.33c-1.72-2.74-1.72-2.74-4.26-4.16c-2.41,1.13-1.04,3.13,3.95,4.46
		C570.9,263.31,570.9,264.43,572.42,264.53z"/>
	<path d="M506,239.38c1.42-1.93,3.35-3.65,3.14-6.39C507.52,234.82,506.2,236.85,506,239.38z"/>
	<path d="M210.7,132.19c-1.12,1.62-2.43,3.14-2.84,5.78C210.39,136.25,210.59,134.22,210.7,132.19z"/>
	<path d="M97.52,175.49c0.91-2.43,0.91-2.84-0.51-5.78C96.41,172.15,96.41,172.15,97.52,175.49z"/>
	<path d="M214.65,169.61c1.32-1.62,2.13-3.45,2.23-6.39C215.26,165.45,213.84,167.08,214.65,169.61z"/>
	<path d="M99.75,152.68c-1.72,1.52-1.22,3.14-0.3,5.58C100.46,155.92,100.16,154.3,99.75,152.68z"/>
	<path d="M207.55,119.82c0.61-2.13,1.83-4.26-0.51-7C207.25,115.76,207.45,117.79,207.55,119.82z"/>
	<path d="M762.97,338.97c-2.43,0.2-4.77,0.81-6.69,2.23C758.71,341.2,760.84,339.98,762.97,338.97z"/>
	<path d="M76.33,240.9c1.12-1.83,2.03-3.25,0.61-5.88C76.23,237.25,75.42,238.77,76.33,240.9z"/>
	<path d="M89.35,236.41c-1.13-2.43-2.05-0.93-0.34,0.44c1.11,1.92,1.02,4.32,3,5.84c-0.02,0.02-0.03,0.03-0.06,0.04
		c3.38,7.78,3.04,7,3.85,6.59c0-4.77-3.86-6.49-3.45-6.9C91.55,240.9,90.68,237.08,89.35,236.41z"/>
	<path d="M498.49,289.98c-0.61-1.42-1.93-2.03-3.04-3.65C496.26,289.38,496.26,289.38,498.49,289.98z"/>
	<path d="M497.18,274.27c0.81,1.72,1.62,2.54,3.14,2.94C500.12,275.38,499,274.98,497.18,274.27z"/>
	<path d="M578.61,263.42c-0.51,1.01-0.2,1.12,2.74,1.22C580.33,263.42,579.62,263.11,578.61,263.42z"/>
	<path d="M486.83,271.53c0.3-1.32,0.1-2.13-0.71-2.84C485.82,269.7,486.43,270.31,486.83,271.53z"/>
	<path d="M703.04,312.8c-2.79,0-2.43-0.07-2.43,0.2C703.84,313,703.04,313.09,703.04,312.8z"/>
	<path d="M495.45,271.43c0.1-0.81-0.3-1.22-1.22-1.72C494.34,270.51,494.54,271.02,495.45,271.43z"/>
	<path d="M125.11,65.67c-0.99-1.65-1.61,0.59-1.93,1.12C124.4,67.29,124.8,66.48,125.11,65.67z"/>
	<path d="M313.02,504.26c1.5,0.19,2.92,0.01,4.33-0.5C315.87,503.78,314.41,503.43,313.02,504.26z"/>
	<path d="M317.35,503.76c0.14,0,0.29,0,0.44-0.01C317.67,503.64,317.74,503.62,317.35,503.76z"/>
	<path d="M209.28,123.07c-0.51,0.71-0.51,1.32,0,2.03C209.78,124.38,209.78,123.78,209.28,123.07z"/>
	<path d="M552.24,254.69c-0.51-1.22-0.91-0.91-1.62-0.51C551.13,255.4,551.63,254.8,552.24,254.69z"/>
	<path d="M494.23,285.83c0.3-0.71,0.1-1.01-0.61-1.01C493.52,285.22,493.73,285.62,494.23,285.83z"/>
	<path d="M776.05,317.06c-0.51-0.3-0.81,0.1-1.01,0.41C775.54,317.77,775.95,317.77,776.05,317.06z"/>
	<path d="M249.23,284.41c-2.98-4.9-25.78-10.02-30.32-21.19c-0.5-1.22-1.42-2.54-3.25-3.35
		C223.98,276.21,233.09,275.89,249.23,284.41z"/>
	<path d="M177.84,318.48c2.54-4.77,6.9-8.01,10.34-11.97c-6.29,4.16-11.97,8.62-13.79,16.23c5.37-3.14,8.82-8.42,13.99-11.86
		C183.92,312.19,181.08,315.54,177.84,318.48z"/>
	<path d="M178.85,291.1c5.58-10.14,11.86-20.08,12.68-32.15C189.4,270.51,183.42,280.45,178.85,291.1z"/>
	<path d="M191.83,315.54c5.78-5.98,13.39-8.01,20.89-11.76C204.81,304.38,192.95,311.08,191.83,315.54z"/>
	<path d="M165.67,284.31c-5.27-4.87-10.95-9.13-17.24-12.47C153.8,276.5,159.28,280.96,165.67,284.31z"/>
	<path d="M177.13,324.36c1.32-0.61,1.93-1.22,1.83-2.43C178.45,322.54,177.94,323.25,177.13,324.36z"/>
	<path d="M158.17,239.08c-1.42,0.61-2.43,0.71-2.74,1.83C156.54,240.9,157.15,240.4,158.17,239.08z"/>
	<path d="M377.01,426.28c1.13-4.56,5.75-8.01,4.87-13.08c-0.42-2.43-0.01-4.56,0.3-6.79c1.46-10.49-3.43-0.54-2.54,5.98
		c1.03,7.51-6.03,9.11-7.5,14.91C371.22,430.9,375.68,431.66,377.01,426.28z"/>
	<path d="M368.69,365.13c5.65-3.57-8.41-7.82-14.91-6.79C356.72,362.59,364.75,367.62,368.69,365.13z"/>
	<path d="M347.6,359.25c-0.71-2.64-2.74-3.82-5.17-4.06c-10.89-1.08-8.07-7.15-17.85-4.87c5.78,1.52,10.65,5.24,16.63,5.68
		C343.74,356.19,345.26,358.33,347.6,359.25z"/>
	<path d="M388.36,401.74c-3.71,4.64-0.55,3.71-2.74,13.49C385.05,417.78,383.58,452.81,388.36,401.74z"/>
	<path d="M383.8,354.38c-4.26,2.33-7.1,5.58-10.55,7.61C377.92,361.48,382.08,358.64,383.8,354.38z"/>
	<path d="M391.2,367.87c1.19-4.77-0.28-10.28-4.56-8.01C391.31,362.48,387.79,365.09,391.2,367.87z"/>
	<path d="M391.91,376.99c1.22-3.14-0.51-5.07-1.93-7C389.48,372.53,389.28,374.97,391.91,376.99z"/>
	<path d="M386.64,345.35c-0.74,1.24-0.72-0.35,1.01,7.3C389.28,349.31,389.07,347.38,386.64,345.35z"/>
	<path d="M381.16,390.28c0,3.14,0,5.68,0,9.03C383.29,395.75,383.29,394.23,381.16,390.28z"/>
	<path d="M376.4,462.28c1.32-1.72,1.01-3.75,1.22-5.58C376.19,458.32,375.69,460.15,376.4,462.28z"/>
	<path d="M380.56,368.37c-1.01-1.62-2.13-2.13-3.95-2.43C377.31,368.07,378.02,369.08,380.56,368.37z"/>
	<path d="M386.03,388.15c-1.01,2.64-0.91,4.16,0.71,5.98C387.25,392,386.44,390.58,386.03,388.15z"/>
	<path d="M313.93,364.32c-1.12-0.61-2.33-1.52-4.06-0.71C311.09,365.03,312.51,364.72,313.93,364.32z"/>
	<path d="M381.57,438.14c1.62-0.41,1.62-1.62,1.72-3.14C381.77,435.81,381.47,436.72,381.57,438.14z"/>
	<path d="M381.67,386.12c-0.81-0.3-0.81,0.41-0.91,0.91C381.26,386.93,381.77,386.73,381.67,386.12z"/>
	<path d="M259.07,382.27c0-3.14,5.83-11.01-3.35-16.63c-1.26,1.26,5.83,8.42,3.55,11.86c-2.34,3.54-1.52,8.21-4.36,11.46
		C254.91,391.06,259.07,387.03,259.07,382.27z"/>
	<path d="M238.89,367.66c-6.32,3.16,4.06,17.54,4.16,17.65C243.78,377.19,237.74,375.3,238.89,367.66z"/>
	<path d="M248.52,452.95c-3.14,7.3-4.46,15.01-4.36,23.02C246.29,468.46,247,460.55,248.52,452.95z"/>
	<path d="M222.86,512.48c4.06-3.45,6.08-11.86,4.06-16.94C227.53,501.52,223.57,506.39,222.86,512.48z"/>
	<path d="M244.57,402.35c-4.19-6.54,4.75-11-2.23-14.2c3.73,4.84-3.27,7.92,0,12.68c0.71,1.22,1.32,2.43,1.62,4.06
		C245.07,403.77,244.96,402.96,244.57,402.35z"/>
	<path d="M249.94,425.26c-0.3,6.39-1.93,12.68-0.61,19.06C248.93,437.94,251.06,431.65,249.94,425.26z"/>
	<path d="M222.26,376.89c1.83,2.54,1.32,5.27,2.64,7.61C227.33,381.96,226.31,378.82,222.26,376.89z"/>
	<path d="M215.46,371.31c0.71,3.25,3.45,3.35,4.97,4.77C220.33,373.24,218.3,372.43,215.46,371.31z"/>
	<path d="M250.45,420.6c0.81-2.84,1.32-5.27,1.32-8.01C250.04,414.51,249.53,417.25,250.45,420.6z"/>
	<path d="M225.3,483.88c1.72-2.54,2.03-5.17,0.41-7.91C225.5,478.61,225.4,481.24,225.3,483.88z"/>
	<path d="M214.04,315.74c-12.88,0.51-28.09,32.05-22.01,45.74C193.56,343.43,197.21,326.59,214.04,315.74z"/>
	<path d="M206.13,329.84c-4.87,5.88-7.5,12.78-9.74,19.88C197.92,348.09,206.54,330.95,206.13,329.84z"/>
	<path d="M250.65,323.04c-2.13-1.93-4.97-2.13-7.5-2.74C247.41,323.86,248.52,324.26,250.65,323.04z"/>
	<path d="M248.42,311.69c-1.42-0.3-2.43-0.3-4.06,0.1C245.99,312.09,247.1,312.19,248.42,311.69z"/>
	<path d="M270.22,304.38c1.11,0.34,2.15,0.36,3.14-0.3C272.28,303.81,271.23,304,270.22,304.38z"/>
	<path d="M371.02,506.39c-3.24,1.44-2.43,4.36-2.33,7.2c3.14,0.71,6.07,2.02,8.21-1.32C379.06,508.91,375.21,504.53,371.02,506.39z
		 M372.54,512.78c1.12-2.33-0.51-2.54-2.13-2.33C372.2,503.3,379.68,512.44,372.54,512.78z"/>
	<path d="M382.68,506.7c-5.82,0-5.75,8.4,0,8.52C388.54,515.34,388.89,506.7,382.68,506.7z M382.58,513.49
		c-2.69-0.19-3.24-4.62,0.41-5.07C386.72,509.57,385.62,513.71,382.58,513.49z"/>
	<path d="M388.36,515.32c2.13,1.12,2.23-2.03,3.95-1.72c1.22,0.41,0.1,1.93,1.22,2.33c1.62,0,2.03-2.23,1.52-7.91
		C384.08,507.23,390.27,510.56,388.36,515.32z M390.19,509.94c1.52-0.51,2.84-1.22,3.25,1.32
		C392.01,511.66,390.8,511.87,390.19,509.94z"/>
	<path d="M421.32,510.14c-0.54-1.76-1.29-1.46-10.45,0.91c1.47,6.62,7.45,0.2,9.94-0.51c0.53,0.13-0.78,3.55,2.13,4.06
		c2.33,0.41,3.75-1.22,4.97-3.25C425.78,509.84,422.84,513.29,421.32,510.14z"/>
	<path d="M179.16,49.54c-6.7,1.98-13.71,1.52-10.95,8.72c2.06,5.36,3.73,6.19,9.43,4.66c2.02-0.54,4.06-0.7,5.88-2.03
		C189.29,56.69,185.93,47.54,179.16,49.54z M173.58,54.11c2.84,0.71,3.55,2.94,3.55,5.78C169.56,66.7,166.32,52.29,173.58,54.11z
		 M179.56,59.89c-0.41-2.64-1.22-4.87-2.94-6.79C182.79,48.47,187.13,58.81,179.56,59.89z"/>
	<path d="M255.72,548.98c-3.65-1.42-7-0.41-10.34-0.41C246.8,551.82,249.84,551.92,255.72,548.98z"/>
	<path d="M155.12,322.94c-3.65,1.32-5.98,4.46-8.82,6.69C150.05,328.42,152.69,325.88,155.12,322.94z"/>
	<path d="M154.11,321.83c0.2-2.94-0.51-5.07-3.45-6.79C151.27,317.87,151.27,320.41,154.11,321.83z"/>
	<path d="M147.92,313.92c-0.3-2.84-0.91-4.77-2.74-6.29C144.58,310.06,145.49,311.99,147.92,313.92z"/>
	<path d="M161.21,326.49c0.51,1.93,0.91,3.95,3.04,5.48C164.66,329.03,162.83,327.81,161.21,326.49z"/>
	<path d="M146.5,323.45c1.72-0.91,2.13-2.94,3.25-4.46C147.92,319.9,147.11,321.62,146.5,323.45z"/>
	<path d="M130.18,300.84c1.72-0.41,2.64-0.91,3.35-2.54C131.8,298.5,131.19,299.31,130.18,300.84z"/>
	<path d="M147.72,317.57c0.51-0.3,1.12-0.61,1.01-1.32C148.02,316.45,147.52,316.76,147.72,317.57z"/>
	<path d="M122.57,292.52c1.32,0.3,2.13-0.2,3.04-0.91C124.5,291.1,123.48,291,122.57,292.52z"/>
	<path d="M135.4,185.9c-2.3-0.65-2.82,1.78-4.11,2.47C135.7,188.37,135.66,185.95,135.4,185.9z"/>
	<path d="M138.19,197.79c2.02,0.78,3.28,0.65,4.56,0.01C140.82,196.38,139.51,196.38,138.19,197.79z"/>
	<path d="M308.76,338.05c-2.07,0.44-5,0.86-6.9,2.43C304.17,340.49,306.93,338.97,308.76,338.05z"/>
	<path d="M317.68,318.68c1.32-0.71,2.54-1.42,3.75-2.03C319.91,316.66,318.49,317.16,317.68,318.68z"/>
	<path d="M278.94,315.03c-1.24,0.62-1.31-1.14,3.55,11.36C284.22,321.42,279.96,318.89,278.94,315.03z"/>
	<path d="M277.63,327.51c0.2-2.23-1.12-3.25-2.33-4.36C275.39,324.77,275.9,326.29,277.63,327.51z"/>
	<path d="M291.42,320c1.62,1.93,2.74,3.25,4.16,4.87C294.97,321.83,294.97,321.83,291.42,320z"/>
	<path d="M644.22,312.29c-3.65,0.91-5.98,3.55-8.72,5.78c1.83-3.95,5.68-6.19,8.11-9.63c-5.88,3.75-11.15,7.91-12.78,15.31
		C635.8,320.51,639.35,315.74,644.22,312.29z"/>
	<path d="M704.46,286.03c-5.58-6.06-26.05-10.73-29.71-21.19c-0.2-0.71-0.81-1.42-2.23-1.93
		C677.51,272.9,680.73,275.24,704.46,286.03z"/>
	<path d="M635.7,292.62c4.66-9.63,10.65-18.66,11.56-29.71C640.7,285.22,633.3,291.02,635.7,292.62z"/>
	<path d="M647.97,315.74c5.68-5.07,13.18-7,19.57-10.75C660.14,307.02,652.94,309.56,647.97,315.74z"/>
	<path d="M605.18,273.45c4.87,4.56,10.24,8.42,16.02,11.66C616.23,280.76,611.16,276.5,605.18,273.45z"/>
	<path d="M589.86,239.28c1.93-2.94,3.85-5.98,5.98-9.23C592.2,231.98,589.76,235.53,589.86,239.28z"/>
	<path d="M603.55,255.4c-2.64-0.91-3.14-1.01-7-0.3C598.79,257.33,599.29,257.33,603.55,255.4z"/>
	<path d="M613.69,241.92c-1.12,0-1.83,0.61-2.94,2.03C612.38,243.24,613.29,243.03,613.69,241.92z"/>
	<path d="M609.84,255.4c-0.61-1.22-1.32-1.42-2.23-0.61C608.02,256.01,608.73,256.01,609.84,255.4z"/>
	<path d="M617.85,311.38c-0.61,0.41-0.61,0.91-0.71,1.52C618.15,312.79,618.68,310.83,617.85,311.38z"/>
	<path d="M671.7,261.89c0.2-0.2-0.1-0.71-1.42-0.91C671.19,261.49,670.99,262.4,671.7,261.89z"/>
	<path d="M827.67,430.13c10.21-19.69,6.39-10.03,7.91-24.74c0.85-8.25-3.3,0.35-2.64,6.59C833.9,421.09,819.36,427.67,827.67,430.13
		z"/>
	<path d="M823.41,363.81c-2.33-3.45-10.55-5.88-15.31-4.77C811.85,365.43,819.86,367.97,823.41,363.81z"/>
	<path d="M801.71,360.36c-1.01-3.55-3.25-4.42-5.58-4.66c-10.7-1.13-7.81-6.94-17.44-4.77c5.68,1.22,10.34,5.09,16.23,5.58
		C797.45,356.72,799.07,358.74,801.71,360.36z"/>
	<path d="M841.05,402.55c-1.52,8.72-2.74,17.44-3.04,26.97c3.15-5.82,0.46-4.13,2.94-17.65
		C841.51,408.83,840.44,405.69,841.05,402.55z"/>
	<path d="M836.59,355.6c-3.85,1.52-6.49,4.77-10.04,6.79C831.01,361.98,834.87,359.45,836.59,355.6z"/>
	<path d="M840.04,360.06c3.14,1.93,1.83,5.68,4.26,8.32C845.62,362.59,844.2,359.86,840.04,360.06z"/>
	<path d="M844.91,376.79c1.12-2.64-0.1-4.56-1.83-7.1C842.37,372.94,842.98,375.07,844.91,376.79z"/>
	<path d="M839.84,345.66c-1.01,3.04,1.12,5.07,1.32,7.3C841.97,350.53,842.68,347.99,839.84,345.66z"/>
	<path d="M833.95,390.48c0.41,2.84,0.51,5.37,0.41,8.11C836.79,395.96,836.69,393.52,833.95,390.48z"/>
	<path d="M829.8,461.37c1.12-1.62,1.12-3.45,1.01-5.27C829.49,457.61,829.09,459.34,829.8,461.37z"/>
	<path d="M839.33,389.16c-1.42,1.72-0.51,3.04,0.2,5.27C840.65,392.1,839.43,390.68,839.33,389.16z"/>
	<path d="M833.55,368.68c-0.41-1.72-1.72-1.93-3.65-2.54C830.61,368.48,831.52,369.49,833.55,368.68z"/>
	<path d="M834.77,437.64c1.72-0.41,1.32-1.93,1.72-2.84C835.07,435.2,834.77,436.22,834.77,437.64z"/>
	<path d="M763.98,363.81c1.52,1.52,2.84,1.32,4.77,1.22C767.23,363.71,766.01,363.51,763.98,363.81z"/>
	<path d="M713.68,368.37c-1.01-0.91-1.52-2.23-3.25-2.43c0.15,3.12,6.72,7.08,2.94,14.2c-1.51,2.84-1.22,6.59-3.65,9.33
		C712.81,391.52,719.04,374.35,713.68,368.37z"/>
	<path d="M694.42,367.97c-2.74,1.52-2.66,3.45-2.13,5.07c1.46,4.48,3.35,8.82,6.19,13.18C698.84,375.81,692.77,375.47,694.42,367.97
		z"/>
	<path d="M703.64,453.05c-3.04,7-4.56,14.3-4.77,21.9C700.44,474.95,699.5,477.93,703.64,453.05z"/>
	<path d="M678.39,510.75c4.16-2.84,6.29-11.86,3.95-16.73C683.06,499.9,679.41,504.77,678.39,510.75z"/>
	<path d="M699.69,401.64c-3.76-5.94,4.49-10.05-1.93-13.49c2.91,5.28-2.72,8.06-0.41,11.97c0.9,1.53,1.42,3.04,2.03,4.77
		C700.5,403.77,700.28,402.56,699.69,401.64z"/>
	<path d="M705.17,424.55c-0.1,6.49-2.03,12.88-0.51,19.37C704.25,437.43,706.38,431.04,705.17,424.55z"/>
	<path d="M678.29,377.4c1.52,2.13,0.71,4.97,2.23,7.2C682.75,382.06,681.94,379.43,678.29,377.4z"/>
	<path d="M681.23,482.66c1.52-2.74,1.62-5.37,0.1-8.01C681.54,477.39,680.73,480.03,681.23,482.66z"/>
	<path d="M671.6,372.33c0.61,2.43,2.84,2.84,4.56,3.85C675.76,373.55,673.93,372.63,671.6,372.33z"/>
	<path d="M705.47,419.99c1.12-2.54,1.42-4.87,1.32-7.61C705.06,415.02,704.86,415.83,705.47,419.99z"/>
	<path d="M671.4,386.93c0.81,1.93,1.72,2.74,3.65,3.45C674.03,388.66,673.22,387.74,671.4,386.93z"/>
	<path d="M701.21,507.71c4.06-0.61,8.21-1.32,12.17-1.93c-3.25-7.61-5.48-15.41-10.85-21.7c-0.71,3.95,1.78,7.02,3.14,10.24
		c1.47,3.47,2.84,6.79,4.66,10.14C707.19,505.68,703.44,504.16,701.21,507.71z"/>
	<path d="M702.73,480.13c5.91,5.9,17.93,15.16,25.86,22.61C728.31,499.65,711.87,484.7,702.73,480.13z"/>
	<path d="M740.25,508.42c9.03-1.83,18.05-3.95,27.28-5.37C762.16,502.64,745.83,505.88,740.25,508.42z"/>
	<path d="M770.98,502.34c6.49-0.51,12.78-2.43,19.17-4.06C783.45,498.08,777.27,500.61,770.98,502.34z"/>
	<path d="M589.46,217.48c4.88,1.28,8.42-1.83,12.68-2.64c-8.72-0.2-17.34,1.32-25.96,0C580.43,216.67,585.1,216.33,589.46,217.48z"
		/>
	<path d="M565.93,186.95c5.07-1.93,10.14-3.75,15.52-5.68C576.58,179.04,571.31,181.07,565.93,186.95z"/>
	<path d="M571.91,189.59c2.54-1.01,5.98,0.61,7.61-2.74C576.78,185.53,574.45,186.24,571.91,189.59z"/>
	<path d="M584.49,217.98c0,1.89,7.26,1.59,11.36,2.03C595.85,218.42,598.03,219.05,584.49,217.98z"/>
	<path d="M568.87,218.39c3.35,0.2,6.49,1.42,9.94,0.91C575.26,217.98,573.23,217.78,568.87,218.39z"/>
	<path d="M591.89,188.37c-1.72,0.2-2.54,1.62-4.06,2.43C591.08,191.31,591.49,191.11,591.89,188.37z"/>
	<path d="M599.6,200.54c-1.93-1.42-3.35-1.72-5.07,0.1C596.35,201.15,597.77,201.35,599.6,200.54z"/>
	<path d="M531.86,233.09c1.32-0.81,2.23-1.72,2.03-3.75C532.06,230.25,531.96,231.67,531.86,233.09z"/>
	<path d="M577.9,221.94c0.41,0.61,0.91,0.61,1.52,0.1C578.91,221.64,578.4,221.43,577.9,221.94z"/>
	<path d="M876.24,510.04c-1.93-0.41-1.93-1.93-3.14-2.43c-3.25-0.41-6.08,1.72-9.43,1.62c1.01,4.16,2.43,4.06,9.43,0
		c0.91,1.32,0.41,3.96,2.94,3.85c2.13-0.09,3.45-1.42,4.36-3.55C878.37,508.83,877.15,510.14,876.24,510.04z"/>
	<path d="M823.71,504.67c-3.35,1.51-2.43,4.36-2.33,7.2C834.92,514.92,830.55,501.57,823.71,504.67z M825.44,511.06
		c0.41-1.72-0.71-2.54-2.23-2.54C824.58,501.99,832.4,509.96,825.44,511.06z"/>
	<path d="M835.27,504.97c-5.57,0-5.86,8.5,0.2,8.62C841.48,513.71,841.36,504.97,835.27,504.97z M835.58,511.66
		c-3.3,0.24-3.54-4.97,0-4.97C838.75,506.7,838.94,511.42,835.58,511.66z"/>
	<path d="M844.1,506.09c-5.51,0.1-1.67,4-2.94,7.61c1.22,0.3,1.62-0.3,2.13-0.81c3.16-3.16,1.45,1.1,3.45,1.32
		c1.83-2.23,1.12-4.97,1.12-7.5C846.53,505.99,845.31,506.07,844.1,506.09z M842.68,508.32c1.62-0.61,2.94-1.32,3.35,1.32
		C844.7,509.84,843.59,510.24,842.68,508.32z"/>
	<path d="M669.57,176.91c-4.1,2.77-11.59,4.13-7.61,10.14c3.36,5.06,5.22,5.39,10.55,2.43c1.51-0.84,3.14-1.52,4.36-2.74
		C682.68,181.71,677.05,171.86,669.57,176.91z M663.18,184.72c0.51-3.31,6.14-4.27,8.11,2.13
		C667.53,192.51,662.63,188.32,663.18,184.72z M673.73,186.34c-1.42-2.33-2.54-4.56-4.77-5.68c1.01-1.42,2.23-1.93,3.45-2.43
		C677.28,180.56,677.68,182.49,673.73,186.34z"/>
	<path d="M710.84,546.75c-3.65-1.12-6.79-0.3-9.94-0.41C701.72,549.79,704.86,550,710.84,546.75z"/>
	<path d="M603.05,330.35c3.75-0.91,6.19-3.75,8.72-6.39C608.22,325.07,606.09,328.32,603.05,330.35z"/>
	<path d="M607.91,316.55c-0.1,3.04,0.1,3.55,2.23,5.98C611.36,320.61,610.55,318.48,607.91,316.55z"/>
	<path d="M604.47,314.83c0.12-3.4-2.16-6.09-2.16-6.65C602.17,307.9,599.79,311.09,604.47,314.83z"/>
	<path d="M620.79,332.78c0.3-2.74-1.12-4.06-2.94-5.17C618.16,329.53,618.66,331.36,620.79,332.78z"/>
	<path d="M603.45,324.77c1.12-1.52,2.13-3.04,3.25-4.56C604.57,321.02,603.76,322.74,603.45,324.77z"/>
	<path d="M605.58,316.66c-0.71,0.81-1.52,1.62-2.64,2.94C604.67,318.89,605.38,318.07,605.58,316.66z"/>
	<path d="M587.53,301.95c1.83-0.3,2.74-1.22,3.14-2.64C589.36,299.82,588.04,300.13,587.53,301.95z"/>
	<path d="M690.77,224.37c0.51,2.33,1.32,4.56,0,6.9C693.2,229.14,693.2,227.31,690.77,224.37z"/>
	<path d="M697.05,257.74c1.22-1.72,1.01-2.74-1.01-3.55C696.55,255.2,695.53,256.52,697.05,257.74z"/>
	<path d="M733.46,316.05c0.61,4.06,2.84,7.4,4.06,11.15C739.14,322.33,734.68,319.9,733.46,316.05z"/>
	<path d="M730.11,323.86c0,1.83,0.71,3.14,2.43,4.97C732.65,326.09,731.02,325.17,730.11,323.86z"/>
	<path d="M750.29,325.38c-0.3-1.93-1.52-3.25-3.75-4.56C747.45,323.15,748.87,324.36,750.29,325.38z"/>
<path fill="#e6e6e6" d="m206.8 163.6c0-5.1 4.1-9.2 9.3-9.2s9.2 4.2 9.2 9.2-4.1 9.2-9.3 9.2-9.2-4.1-9.2-9.2zm17.3-.1c0-4.5-3.5-8.2-8.2-8.2s-8.2 3.7-8.2 8.3c0 4.5 3.5 8.2 8.2 8.2s8.2-3.7 8.2-8.3zm-13 0c0-2.8 2.1-5.1 5.1-5.1 1.9 0 2.9.6 3.9 1.5l-1.4 1.7c-.8-.7-1.5-1.1-2.5-1.1-1.7 0-2.8 1.4-2.8 3.1s1.1 3 2.8 3c1.1 0 1.7-.5 2.5-1.1l1.4 1.4c-1.1 1.1-2.1 1.7-4 1.7-2.9 0-5-2.3-5-5.1z"/><path fill="#e6e6e6" d="m226.6 154.7h3.4l4.2 13.2 4.4-13.3h2.6l4.4 13.3 4.2-13.2h3.3l-6.2 18h-2.7l-4.4-12.8-4.4 12.8h-2.7z"/><path fill="#e6e6e6" d="m252.8 165.8c0-3.9 3.1-7 7.2-7 4.2 0 7.2 3.2 7.2 7s-3.1 7-7.3 7c-4 0-7.1-3.1-7.1-7zm11.3 0c0-2.3-1.7-4.3-4.2-4.3s-4.1 2-4.1 4.3 1.7 4.3 4.1 4.3c2.7.1 4.2-1.9 4.2-4.3z"/><path fill="#e6e6e6" d="m269.5 159.1h3.1v3c.8-2 2.4-3.4 4.8-3.3v3.2h-.2c-2.7 0-4.6 1.7-4.6 5.4v5.1h-3.1z"/><path fill="#e6e6e6" d="m279.1 153.9h3.1v11.1l5.6-6h3.8l-5.4 5.5 5.5 8h-3.5l-4.1-5.8-1.9 2v3.9h-3.1z"/><path fill="#e6e6e6" d="m291.7 165.8c0-3.9 3.1-7 7.2-7 4.2 0 7.2 3.2 7.2 7s-3.1 7-7.3 7c-4 0-7.1-3.1-7.1-7zm11.3 0c0-2.3-1.7-4.3-4.2-4.3s-4.1 2-4.1 4.3 1.7 4.3 4.1 4.3c2.6.1 4.2-1.9 4.2-4.3z"/><path fill="#e6e6e6" d="m308.2 167.6v-8.6h3.1v7.6c0 2.1 1.1 3.3 2.9 3.3s3-1.3 3-3.3v-7.6h3.1v13.4h-3.1v-2.1c-.8 1.3-2.1 2.3-4.2 2.3-3.1.2-4.8-1.8-4.8-5z"/><path fill="#e6e6e6" d="m323.9 168.8v-7.1h-1.7v-2.6h1.7v-3.7h3.1v3.7h3.6v2.6h-3.6v6.6c0 1.2.6 1.7 1.7 1.7.7 0 1.3-.2 1.9-.5v2.5c-.8.5-1.7.7-2.8.7-2.3 0-3.9-.9-3.9-3.9z"/><path fill="#e6e6e6" d="m333.2 154.7h3.2v15h9.4v2.9h-12.5v-17.9z"/><path fill="#e6e6e6" d="m356 172.5v-1.7c-.9 1.1-2.3 2-4.4 2-2.6 0-4.8-1.4-4.8-4.2 0-3 2.3-4.4 5.4-4.4 1.7 0 2.6.2 3.7.5v-.2c0-1.9-1.2-2.9-3.3-2.9-1.5 0-2.6.3-3.9.8l-.8-2.5c1.5-.7 2.9-1.1 5.1-1.1 4 0 5.9 2.1 5.9 5.7v8zm.1-5.6c-.8-.3-1.9-.5-3.1-.5-2 0-3.1.8-3.1 2.1s1.1 2 2.6 2c2 0 3.5-1.1 3.5-2.9z"/><path fill="#e6e6e6" d="m364.9 170.5v2.1h-3.1v-18.7h3.1v7.4c1-1.4 2.4-2.5 4.5-2.5 3.2 0 6.3 2.5 6.3 7s-3.1 7-6.3 7c-2.1 0-3.5-1.1-4.5-2.3zm7.7-4.7c0-2.6-1.7-4.3-3.9-4.3s-3.9 1.7-3.9 4.4c0 2.6 1.8 4.3 3.9 4.3s3.9-1.7 3.9-4.4z"/><path fill="#e6e6e6" d="m376.9 170.8 1.4-2.1c1.4 1.1 3 1.7 4.4 1.7s2.1-.5 2.1-1.5-1.3-1.4-2.8-1.8c-.1 0-.2-.1-.2-.1-2-.6-4.2-1.4-4.2-4s2.1-4.1 4.8-4.1c1.7 0 3.5.6 5 1.5l-1.2 2.2c-1.3-.8-2.6-1.3-3.8-1.3s-1.9.5-1.9 1.4 1.3 1.4 2.8 1.8c.1 0 .2.1.2.1 2 .6 4.2 1.5 4.2 4 0 2.9-2.2 4.2-5 4.2-1.9 0-4-.7-5.8-2z"/><path fill="#e6e6e6" d="m505.6 163.6c0-5.1 4.1-9.2 9.3-9.2s9.2 4.2 9.2 9.2-4.1 9.2-9.3 9.2-9.2-4.1-9.2-9.2zm17.4-.1c0-4.5-3.5-8.2-8.2-8.2s-8.2 3.7-8.2 8.3c0 4.5 3.5 8.2 8.2 8.2s8.2-3.7 8.2-8.3zm-13.1 0c0-2.8 2.1-5.1 5.1-5.1 1.9 0 2.9.6 3.9 1.5l-1.4 1.7c-.8-.7-1.5-1.1-2.5-1.1-1.7 0-2.8 1.4-2.8 3.1s1.1 3 2.8 3c1.1 0 1.7-.5 2.5-1.1l1.4 1.4c-1.1 1.1-2.1 1.7-4 1.7-2.9 0-5-2.3-5-5.1z"/><path fill="#e6e6e6" d="m525.4 154.7h3.4l4.2 13.2 4.4-13.3h2.6l4.4 13.3 4.2-13.2h3.3l-6.2 18h-2.7l-4.4-12.8-4.4 12.8h-2.7z"/><path fill="#e6e6e6" d="m551.7 165.8c0-3.9 3.1-7 7.2-7 4.2 0 7.2 3.2 7.2 7s-3.1 7-7.3 7c-4.1 0-7.1-3.1-7.1-7zm11.2 0c0-2.3-1.7-4.3-4.2-4.3s-4.1 2-4.1 4.3 1.7 4.3 4.1 4.3c2.7.1 4.2-1.9 4.2-4.3z"/><path fill="#e6e6e6" d="m568.3 159.1h3.1v3c.8-2 2.4-3.4 4.8-3.3v3.2h-.2c-2.7 0-4.6 1.7-4.6 5.4v5.1h-3.1z"/><path fill="#e6e6e6" d="m577.9 153.9h3.1v11.1l5.6-6h3.8l-5.4 5.5 5.5 8h-3.5l-4.1-5.8-1.9 2v3.9h-3.1z"/><path fill="#e6e6e6" d="m590.6 165.8c0-3.9 3.1-7 7.2-7 4.2 0 7.2 3.2 7.2 7s-3.1 7-7.3 7c-4.1 0-7.1-3.1-7.1-7zm11.2 0c0-2.3-1.7-4.3-4.2-4.3s-4.1 2-4.1 4.3 1.7 4.3 4.1 4.3c2.6.1 4.2-1.9 4.2-4.3z"/><path fill="#e6e6e6" d="m607 167.6v-8.6h3.1v7.6c0 2.1 1.1 3.3 2.9 3.3s3-1.3 3-3.3v-7.6h3.1v13.4h-3.1v-2.1c-.8 1.3-2.1 2.3-4.2 2.3-3 .2-4.8-1.8-4.8-5z"/><path fill="#e6e6e6" d="m622.7 168.8v-7.1h-1.7v-2.6h1.7v-3.7h3.1v3.7h3.6v2.6h-3.6v6.6c0 1.2.6 1.7 1.7 1.7.7 0 1.3-.2 1.9-.5v2.5c-.8.5-1.7.7-2.8.7-2.3 0-3.9-.9-3.9-3.9z"/><path fill="#e6e6e6" d="m632 154.7h3.2v15h9.4v2.9h-12.6z"/><path fill="#e6e6e6" d="m654.8 172.5v-1.7c-.9 1.1-2.3 2-4.4 2-2.6 0-4.8-1.4-4.8-4.2 0-3 2.3-4.4 5.4-4.4 1.7 0 2.6.2 3.7.5v-.2c0-1.9-1.2-2.9-3.3-2.9-1.5 0-2.6.3-3.9.8l-.8-2.5c1.5-.7 2.9-1.1 5.1-1.1 4 0 5.9 2.1 5.9 5.7v8zm.1-5.6c-.8-.3-1.9-.5-3.1-.5-2 0-3.1.8-3.1 2.1s1.1 2 2.6 2c2 0 3.5-1.1 3.5-2.9z"/><path fill="#e6e6e6" d="m663.7 170.5v2.1h-3.1v-18.7h3.1v7.4c1-1.4 2.4-2.5 4.5-2.5 3.2 0 6.3 2.5 6.3 7s-3.1 7-6.3 7c-2.1 0-3.5-1.1-4.5-2.3zm7.8-4.7c0-2.6-1.7-4.3-3.9-4.3-2.1 0-3.9 1.7-3.9 4.4 0 2.6 1.8 4.3 3.9 4.3s3.9-1.7 3.9-4.4z"/><path fill="#e6e6e6" d="m675.8 170.8 1.4-2.1c1.4 1.1 3 1.7 4.4 1.7s2.1-.5 2.1-1.5-1.3-1.4-2.8-1.8c-.1 0-.2-.1-.2-.1-2-.6-4.2-1.4-4.2-4s2.1-4.1 4.8-4.1c1.7 0 3.5.6 5 1.5l-1.2 2.2c-1.3-.8-2.6-1.3-3.8-1.3s-1.9.5-1.9 1.4 1.3 1.4 2.8 1.8c.1 0 .2.1.2.1 2 .6 4.2 1.5 4.2 4 0 2.9-2.2 4.2-5 4.2-2 0-4.1-.7-5.8-2z"/><path fill="#e6e6e6" d="m61 298.6c0-5.1 4.1-9.2 9.3-9.2s9.2 4.2 9.2 9.2-4.1 9.2-9.3 9.2c-5.1 0-9.2-4.2-9.2-9.2zm17.4-.1c0-4.5-3.5-8.2-8.2-8.2s-8.2 3.7-8.2 8.3c0 4.5 3.5 8.2 8.2 8.2s8.2-3.7 8.2-8.3zm-13.1-.1c0-2.8 2.1-5.1 5.1-5.1 1.9 0 2.9.6 3.9 1.5l-1.4 1.7c-.8-.7-1.5-1.1-2.5-1.1-1.7 0-2.8 1.4-2.8 3.1s1.1 3 2.8 3c1.1 0 1.7-.5 2.5-1.1l1.4 1.4c-1.1 1.1-2.1 1.7-4 1.7-2.8.1-5-2.2-5-5.1z"/><path fill="#e6e6e6" d="m80.9 289.7h3.4l4.2 13.2 4.4-13.3h2.6l4.4 13.3 4.2-13.2h3.3l-6.2 18h-2.7l-4.4-12.8-4.4 12.8h-2.7z"/><path fill="#e6e6e6" d="m107.1 300.8c0-3.9 3.1-7 7.2-7s7.2 3.2 7.2 7-3.1 7-7.3 7c-4 0-7.1-3.1-7.1-7zm11.3 0c0-2.3-1.7-4.3-4.2-4.3s-4.1 2-4.1 4.3 1.7 4.3 4.1 4.3c2.6.1 4.2-1.9 4.2-4.3z"/><path fill="#e6e6e6" d="m123.7 294h3.1v3c.8-2 2.4-3.4 4.8-3.3v3.2h-.2c-2.7 0-4.6 1.7-4.6 5.4v5.1h-3.1z"/><path fill="#e6e6e6" d="m133.4 288.9h3.1v11.1l5.6-6h3.8l-5.4 5.5 5.5 8h-3.5l-4.1-5.8-1.9 1.9v3.9h-3.1z"/><path fill="#e6e6e6" d="m146 300.8c0-3.9 3.1-7 7.2-7s7.2 3.2 7.2 7-3.1 7-7.3 7c-4.1 0-7.1-3.1-7.1-7zm11.2 0c0-2.3-1.7-4.3-4.2-4.3s-4.1 2-4.1 4.3 1.7 4.3 4.1 4.3c2.6.1 4.2-1.9 4.2-4.3z"/><path fill="#e6e6e6" d="m162.4 302.6v-8.6h3.1v7.6c0 2.1 1.1 3.3 2.9 3.3s3-1.3 3-3.3v-7.6h3.1v13.4h-3.1v-2.1c-.8 1.3-2.1 2.3-4.2 2.3-3 .2-4.8-1.8-4.8-5z"/><path fill="#e6e6e6" d="m178.1 303.8v-7.1h-1.7v-2.7h1.7v-3.7h3.1v3.7h3.6v2.6h-3.6v6.6c0 1.2.6 1.7 1.7 1.7.7 0 1.3-.2 1.9-.5v2.5c-.8.5-1.7.7-2.8.7-2.3.1-3.9-.9-3.9-3.8z"/><path fill="#e6e6e6" d="m187.4 289.7h3.2v15h9.4v2.9h-12.5v-17.9z"/><path fill="#e6e6e6" d="m210.2 307.5v-1.7c-.9 1.1-2.3 2-4.4 2-2.6 0-4.8-1.4-4.8-4.2 0-3 2.3-4.4 5.4-4.4 1.7 0 2.6.2 3.7.5v-.2c0-1.9-1.2-2.9-3.3-2.9-1.5 0-2.6.3-3.9.8l-.8-2.5c1.5-.7 2.9-1.1 5.1-1.1 4 0 5.9 2.1 5.9 5.7v8zm.1-5.6c-.8-.3-1.9-.5-3.1-.5-2 0-3.1.8-3.1 2.1s1.1 2 2.6 2c2 0 3.5-1.1 3.5-2.9z"/><path fill="#e6e6e6" d="m219.2 305.5v2.1h-3.1v-18.7h3.1v7.4c1-1.4 2.4-2.5 4.5-2.5 3.2 0 6.3 2.5 6.3 7s-3.1 7-6.3 7c-2.2 0-3.6-1.1-4.5-2.3zm7.7-4.7c0-2.6-1.7-4.3-3.9-4.3s-3.9 1.7-3.9 4.4c0 2.6 1.8 4.3 3.9 4.3s3.9-1.7 3.9-4.4z"/><path fill="#e6e6e6" d="m231.2 305.8 1.4-2.1c1.4 1.1 3 1.7 4.4 1.7s2.1-.5 2.1-1.5-1.3-1.4-2.8-1.8c-.1 0-.2-.1-.2-.1-2-.6-4.2-1.4-4.2-4s2.1-4.1 4.8-4.1c1.7 0 3.5.6 5 1.5l-1.2 2.2c-1.3-.8-2.6-1.3-3.8-1.3s-1.9.5-1.9 1.4 1.3 1.4 2.8 1.8c.1 0 .2.1.2.1 2 .6 4.2 1.5 4.2 4 0 2.9-2.2 4.2-5 4.2-2 0-4.1-.7-5.8-2z"/><path fill="#e6e6e6" d="m360.6 298.6c0-5.1 4.1-9.2 9.3-9.2s9.2 4.2 9.2 9.2-4.1 9.2-9.3 9.2-9.2-4.2-9.2-9.2zm17.4-.1c0-4.5-3.5-8.2-8.2-8.2s-8.2 3.7-8.2 8.3c0 4.5 3.5 8.2 8.2 8.2s8.2-3.7 8.2-8.3zm-13.1-.1c0-2.8 2.1-5.1 5.1-5.1 1.9 0 2.9.6 3.9 1.5l-1.4 1.7c-.8-.7-1.5-1.1-2.5-1.1-1.7 0-2.8 1.4-2.8 3.1s1.1 3 2.8 3c1.1 0 1.7-.5 2.5-1.1l1.4 1.4c-1.1 1.1-2.1 1.7-4 1.7-2.8.1-5-2.2-5-5.1z"/><path fill="#e6e6e6" d="m380.5 289.7h3.4l4.2 13.2 4.4-13.3h2.6l4.4 13.3 4.2-13.2h3.3l-6.2 18h-2.7l-4.4-12.8-4.4 12.8h-2.7z"/><path fill="#e6e6e6" d="m406.7 300.8c0-3.9 3.1-7 7.2-7 4.2 0 7.2 3.2 7.2 7s-3.1 7-7.3 7c-4.1 0-7.1-3.1-7.1-7zm11.3 0c0-2.3-1.7-4.3-4.2-4.3s-4.1 2-4.1 4.3 1.7 4.3 4.1 4.3c2.7.1 4.2-1.9 4.2-4.3z"/><path fill="#e6e6e6" d="m423.3 294h3.1v3c.8-2 2.4-3.4 4.8-3.3v3.2h-.2c-2.7 0-4.6 1.7-4.6 5.4v5.1h-3.1z"/><path fill="#e6e6e6" d="m433 288.9h3.1v11.1l5.6-6h3.8l-5.4 5.5 5.5 8h-3.5l-4.1-5.8-1.9 2v3.9h-3.1z"/><path fill="#e6e6e6" d="m445.6 300.8c0-3.9 3.1-7 7.2-7 4.2 0 7.2 3.2 7.2 7s-3.1 7-7.3 7c-4.1 0-7.1-3.1-7.1-7zm11.3 0c0-2.3-1.7-4.3-4.2-4.3s-4.1 2-4.1 4.3 1.7 4.3 4.1 4.3c2.6.1 4.2-1.9 4.2-4.3z"/><path fill="#e6e6e6" d="m462.1 302.6v-8.6h3.1v7.6c0 2.1 1.1 3.3 2.9 3.3s3-1.3 3-3.3v-7.6h3.1v13.4h-3.1v-2.1c-.8 1.3-2.1 2.3-4.2 2.3-3.1.2-4.8-1.8-4.8-5z"/><path fill="#e6e6e6" d="m477.8 303.8v-7.1h-1.8v-2.7h1.7v-3.7h3.1v3.7h3.6v2.6h-3.6v6.6c0 1.2.6 1.7 1.7 1.7.7 0 1.3-.2 1.9-.5v2.5c-.8.5-1.7.7-2.8.7-2.2.1-3.8-.9-3.8-3.8z"/><path fill="#e6e6e6" d="m487.1 289.7h3.2v15h9.4v2.9h-12.5v-17.9z"/><path fill="#e6e6e6" d="m509.9 307.5v-1.7c-.9 1.1-2.3 2-4.4 2-2.6 0-4.8-1.4-4.8-4.2 0-3 2.3-4.4 5.4-4.4 1.7 0 2.6.2 3.7.5v-.2c0-1.9-1.2-2.9-3.3-2.9-1.5 0-2.6.3-3.9.8l-.8-2.5c1.5-.7 2.9-1.1 5.1-1.1 4 0 5.9 2.1 5.9 5.7v8zm.1-5.6c-.8-.3-1.9-.5-3.1-.5-2 0-3.1.8-3.1 2.1s1.1 2 2.6 2c2 0 3.5-1.1 3.5-2.9z"/><path fill="#e6e6e6" d="m518.8 305.5v2.1h-3.1v-18.7h3.1v7.4c1-1.4 2.4-2.5 4.5-2.5 3.2 0 6.3 2.5 6.3 7s-3.1 7-6.3 7c-2.2 0-3.5-1.1-4.5-2.3zm7.7-4.7c0-2.6-1.7-4.3-3.9-4.3s-3.9 1.7-3.9 4.4c0 2.6 1.8 4.3 3.9 4.3s3.9-1.7 3.9-4.4z"/><path fill="#e6e6e6" d="m530.8 305.8 1.4-2.1c1.4 1.1 3 1.7 4.4 1.7s2.1-.5 2.1-1.5-1.3-1.4-2.8-1.8c-.1 0-.2-.1-.2-.1-2-.6-4.2-1.4-4.2-4s2.1-4.1 4.8-4.1c1.7 0 3.5.6 5 1.5l-1.2 2.2c-1.3-.8-2.6-1.3-3.8-1.3s-1.9.5-1.9 1.4 1.3 1.4 2.8 1.8c.1 0 .2.1.2.1 2 .6 4.2 1.5 4.2 4 0 2.9-2.2 4.2-5 4.2-1.9 0-4.1-.7-5.8-2z"/><path fill="#e6e6e6" d="m659.5 298.6c0-5.1 4.1-9.2 9.3-9.2s9.2 4.2 9.2 9.2-4.1 9.2-9.3 9.2-9.2-4.2-9.2-9.2zm17.3-.1c0-4.5-3.5-8.2-8.2-8.2s-8.2 3.7-8.2 8.3c0 4.5 3.5 8.2 8.2 8.2 4.8 0 8.2-3.7 8.2-8.3zm-13-.1c0-2.8 2.1-5.1 5.1-5.1 1.9 0 2.9.6 3.9 1.5l-1.4 1.7c-.8-.7-1.5-1.1-2.5-1.1-1.7 0-2.8 1.4-2.8 3.1s1.1 3 2.8 3c1.1 0 1.7-.5 2.5-1.1l1.4 1.4c-1.1 1.1-2.1 1.7-4 1.7-2.9.1-5-2.2-5-5.1z"/><path fill="#e6e6e6" d="m679.3 289.7h3.4l4.2 13.2 4.4-13.3h2.6l4.4 13.3 4.2-13.2h3.3l-6.2 18h-2.6l-4.4-12.8-4.4 12.8h-2.7z"/><path fill="#e6e6e6" d="m705.5 300.8c0-3.9 3.1-7 7.2-7 4.2 0 7.2 3.2 7.2 7s-3.1 7-7.3 7c-4 0-7.1-3.1-7.1-7zm11.3 0c0-2.3-1.7-4.3-4.2-4.3s-4.1 2-4.1 4.3 1.7 4.3 4.1 4.3c2.7.1 4.2-1.9 4.2-4.3z"/><path fill="#e6e6e6" d="m722.1 294h3.1v3c.8-2 2.4-3.4 4.8-3.3v3.2h-.2c-2.7 0-4.6 1.7-4.6 5.4v5.1h-3.1z"/><path fill="#e6e6e6" d="m731.8 288.9h3.1v11.1l5.6-6h3.8l-5.4 5.5 5.5 8h-3.5l-4.1-5.8-1.9 2v3.9h-3.1z"/><path fill="#e6e6e6" d="m744.4 300.8c0-3.9 3.1-7 7.2-7 4.2 0 7.2 3.2 7.2 7s-3.1 7-7.3 7c-4.1 0-7.1-3.1-7.1-7zm11.3 0c0-2.3-1.7-4.3-4.2-4.3s-4.1 2-4.1 4.3 1.7 4.3 4.1 4.3c2.6.1 4.2-1.9 4.2-4.3z"/><path fill="#e6e6e6" d="m760.9 302.6v-8.6h3.1v7.6c0 2.1 1.1 3.3 2.9 3.3s3-1.3 3-3.3v-7.6h3.1v13.4h-3.1v-2.1c-.8 1.3-2.1 2.3-4.2 2.3-3.1.2-4.8-1.8-4.8-5z"/><path fill="#e6e6e6" d="m776.6 303.8v-7.1h-1.7v-2.7h1.7v-3.7h3.1v3.7h3.6v2.6h-3.6v6.6c0 1.2.6 1.7 1.7 1.7.7 0 1.3-.2 1.9-.5v2.5c-.8.5-1.7.7-2.8.7-2.3.1-3.9-.9-3.9-3.8z"/><path fill="#e6e6e6" d="m785.9 289.7h3.2v15h9.4v2.9h-12.5v-17.9z"/><path fill="#e6e6e6" d="m808.7 307.5v-1.7c-.9 1.1-2.3 2-4.4 2-2.6 0-4.8-1.4-4.8-4.2 0-3 2.3-4.4 5.4-4.4 1.7 0 2.6.2 3.7.5v-.2c0-1.9-1.2-2.9-3.3-2.9-1.5 0-2.6.3-3.9.8l-.8-2.5c1.5-.7 2.9-1.1 5.1-1.1 4 0 5.9 2.1 5.9 5.7v8zm.1-5.6c-.8-.3-1.9-.5-3.1-.5-2 0-3.1.8-3.1 2.1s1.1 2 2.6 2c2 0 3.5-1.1 3.5-2.9z"/><path fill="#e6e6e6" d="m817.6 305.5v2.1h-3.1v-18.7h3.1v7.4c1-1.4 2.4-2.5 4.5-2.5 3.2 0 6.3 2.5 6.3 7s-3.1 7-6.3 7c-2.1 0-3.5-1.1-4.5-2.3zm7.7-4.7c0-2.6-1.7-4.3-3.9-4.3-2.1 0-3.9 1.7-3.9 4.4 0 2.6 1.8 4.3 3.9 4.3 2.2 0 3.9-1.7 3.9-4.4z"/><path fill="#e6e6e6" d="m829.6 305.8 1.4-2.1c1.4 1.1 3 1.7 4.4 1.7s2.1-.5 2.1-1.5-1.3-1.4-2.8-1.8c-.1 0-.2-.1-.2-.1-2-.6-4.2-1.4-4.2-4s2.1-4.1 4.8-4.1c1.7 0 3.5.6 5 1.5l-1.2 2.2c-1.3-.8-2.6-1.3-3.8-1.3s-1.9.5-1.9 1.4 1.3 1.4 2.8 1.8c.1 0 .2.1.2.1 2 .6 4.2 1.5 4.2 4 0 2.9-2.2 4.2-5 4.2-1.9 0-4-.7-5.8-2z"/><path fill="#e6e6e6" d="m206.3 434.2c0-5.1 4.1-9.2 9.3-9.2s9.2 4.2 9.2 9.2-4.1 9.2-9.3 9.2-9.2-4.1-9.2-9.2zm17.4-.1c0-4.5-3.5-8.2-8.2-8.2s-8.2 3.7-8.2 8.3c0 4.5 3.5 8.2 8.2 8.2s8.2-3.7 8.2-8.3zm-13.1-.1c0-2.8 2.1-5.1 5.1-5.1 1.9 0 2.9.6 3.9 1.5l-1.4 1.7c-.8-.7-1.5-1.1-2.5-1.1-1.7 0-2.8 1.4-2.8 3.1s1.1 3 2.8 3c1.1 0 1.7-.5 2.5-1.1l1.4 1.4c-1.1 1.1-2.1 1.7-4 1.7-2.9.1-5-2.2-5-5.1z"/><path fill="#e6e6e6" d="m226.1 425.3h3.4l4.2 13.2 4.4-13.3h2.6l4.4 13.3 4.2-13.2h3.3l-6.2 18h-2.7l-4.4-12.8-4.4 12.8h-2.7z"/><path fill="#e6e6e6" d="m252.4 436.4c0-3.9 3.1-7 7.2-7 4.2 0 7.2 3.2 7.2 7s-3.1 7-7.3 7c-4.1 0-7.1-3.1-7.1-7zm11.2 0c0-2.3-1.7-4.3-4.2-4.3s-4.1 2-4.1 4.3 1.7 4.3 4.1 4.3c2.7.1 4.2-1.9 4.2-4.3z"/><path fill="#e6e6e6" d="m269 429.7h3.1v3c.8-2 2.4-3.4 4.8-3.3v3.2h-.2c-2.7 0-4.6 1.7-4.6 5.4v5.1h-3.1z"/><path fill="#e6e6e6" d="m278.6 424.5h3.1v11.1l5.6-6h3.8l-5.4 5.5 5.5 8h-3.5l-4.1-5.8-1.9 2v3.9h-3.1z"/><path fill="#e6e6e6" d="m291.3 436.4c0-3.9 3.1-7 7.2-7 4.2 0 7.2 3.2 7.2 7s-3.1 7-7.3 7c-4.1 0-7.1-3.1-7.1-7zm11.2 0c0-2.3-1.7-4.3-4.2-4.3s-4.1 2-4.1 4.3 1.7 4.3 4.1 4.3c2.6.1 4.2-1.9 4.2-4.3z"/><path fill="#e6e6e6" d="m307.7 438.2v-8.6h3.1v7.6c0 2.1 1.1 3.3 2.9 3.3s3-1.3 3-3.3v-7.6h3.1v13.4h-3.1v-2.1c-.8 1.3-2.1 2.3-4.2 2.3-3 .2-4.8-1.8-4.8-5z"/><path fill="#e6e6e6" d="m323.4 439.4v-7.1h-1.7v-2.6h1.7v-3.7h3.1v3.7h3.6v2.6h-3.6v6.6c0 1.2.6 1.7 1.7 1.7.7 0 1.3-.2 1.9-.5v2.5c-.8.5-1.7.7-2.8.7-2.3 0-3.9-.9-3.9-3.9z"/><path fill="#e6e6e6" d="m332.7 425.3h3.2v15h9.4v2.9h-12.5v-17.9z"/><path fill="#e6e6e6" d="m355.5 443.1v-1.7c-.9 1.1-2.3 2-4.4 2-2.6 0-4.8-1.4-4.8-4.2 0-3 2.3-4.4 5.4-4.4 1.7 0 2.6.2 3.7.5v-.2c0-1.9-1.2-2.9-3.3-2.9-1.5 0-2.6.3-3.9.8l-.8-2.5c1.5-.7 2.9-1.1 5.1-1.1 4 0 5.9 2.1 5.9 5.7v8zm.1-5.6c-.8-.3-1.9-.5-3.1-.5-2 0-3.1.8-3.1 2.1s1.1 2 2.6 2c2 0 3.5-1.1 3.5-2.9z"/><path fill="#e6e6e6" d="m364.4 441.1v2.1h-3.1v-18.7h3.1v7.4c1-1.4 2.4-2.5 4.5-2.5 3.2 0 6.3 2.5 6.3 7s-3.1 7-6.3 7c-2.1 0-3.5-1.1-4.5-2.3zm7.7-4.7c0-2.6-1.7-4.3-3.9-4.3-2.1 0-3.9 1.7-3.9 4.4 0 2.6 1.8 4.3 3.9 4.3 2.2 0 3.9-1.7 3.9-4.4z"/><path fill="#e6e6e6" d="m376.5 441.4 1.4-2.1c1.4 1.1 3 1.7 4.4 1.7s2.1-.5 2.1-1.5-1.3-1.4-2.8-1.8c-.1 0-.2-.1-.2-.1-2-.6-4.2-1.4-4.2-4s2.1-4.1 4.8-4.1c1.7 0 3.5.6 5 1.5l-1.2 2.2c-1.3-.8-2.6-1.3-3.8-1.3s-1.9.5-1.9 1.4 1.3 1.4 2.8 1.8c.1 0 .2.1.2.1 2 .6 4.2 1.5 4.2 4 0 2.9-2.2 4.2-5 4.2-2 0-4.1-.7-5.8-2z"/><path fill="#e6e6e6" d="m505.1 434.2c0-5.1 4.1-9.2 9.3-9.2s9.2 4.2 9.2 9.2-4.1 9.2-9.3 9.2-9.2-4.1-9.2-9.2zm17.4-.1c0-4.5-3.5-8.2-8.2-8.2s-8.2 3.7-8.2 8.3c0 4.5 3.5 8.2 8.2 8.2s8.2-3.7 8.2-8.3zm-13.1-.1c0-2.8 2.1-5.1 5.1-5.1 1.9 0 2.9.6 3.9 1.5l-1.4 1.7c-.8-.7-1.5-1.1-2.5-1.1-1.7 0-2.8 1.4-2.8 3.1s1.1 3 2.8 3c1.1 0 1.7-.5 2.5-1.1l1.4 1.4c-1.1 1.1-2.1 1.7-4 1.7-2.9.1-5-2.2-5-5.1z"/><path fill="#e6e6e6" d="m525 425.3h3.4l4.2 13.2 4.4-13.3h2.6l4.4 13.3 4.2-13.2h3.3l-6.2 18h-2.7l-4.4-12.8-4.4 12.8h-2.7z"/><path fill="#e6e6e6" d="m551.2 436.4c0-3.9 3.1-7 7.2-7 4.2 0 7.2 3.2 7.2 7s-3.1 7-7.3 7c-4.1 0-7.1-3.1-7.1-7zm11.2 0c0-2.3-1.7-4.3-4.2-4.3s-4.1 2-4.1 4.3 1.7 4.3 4.1 4.3c2.7.1 4.2-1.9 4.2-4.3z"/><path fill="#e6e6e6" d="m567.8 429.7h3.1v3c.8-2 2.4-3.4 4.8-3.3v3.2h-.2c-2.7 0-4.6 1.7-4.6 5.4v5.1h-3.1z"/><path fill="#e6e6e6" d="m577.5 424.5h3.1v11.1l5.6-6h3.8l-5.4 5.5 5.5 8h-3.5l-4.1-5.8-1.9 2v3.9h-3.1z"/><path fill="#e6e6e6" d="m590.1 436.4c0-3.9 3.1-7 7.2-7 4.2 0 7.2 3.2 7.2 7s-3.1 7-7.3 7c-4.1 0-7.1-3.1-7.1-7zm11.2 0c0-2.3-1.7-4.3-4.2-4.3s-4.1 2-4.1 4.3 1.7 4.3 4.1 4.3c2.6.1 4.2-1.9 4.2-4.3z"/><path fill="#e6e6e6" d="m606.5 438.2v-8.6h3.1v7.6c0 2.1 1.1 3.3 2.9 3.3s3-1.3 3-3.3v-7.6h3.1v13.4h-3.1v-2.1c-.8 1.3-2.1 2.3-4.2 2.3-3 .2-4.8-1.8-4.8-5z"/><path fill="#e6e6e6" d="m622.2 439.4v-7.1h-1.7v-2.6h1.7v-3.7h3.1v3.7h3.6v2.6h-3.6v6.6c0 1.2.6 1.7 1.7 1.7.7 0 1.3-.2 1.9-.5v2.5c-.8.5-1.7.7-2.8.7-2.3 0-3.9-.9-3.9-3.9z"/><path fill="#e6e6e6" d="m631.5 425.3h3.2v15h9.4v2.9h-12.5v-17.9z"/><path fill="#e6e6e6" d="m654.3 443.1v-1.7c-.9 1.1-2.3 2-4.4 2-2.6 0-4.8-1.4-4.8-4.2 0-3 2.3-4.4 5.4-4.4 1.7 0 2.6.2 3.7.5v-.2c0-1.9-1.2-2.9-3.3-2.9-1.5 0-2.6.3-3.9.8l-.8-2.5c1.5-.7 2.9-1.1 5.1-1.1 4 0 5.9 2.1 5.9 5.7v8zm.1-5.6c-.8-.3-1.9-.5-3.1-.5-2 0-3.1.8-3.1 2.1s1.1 2 2.6 2c2 0 3.5-1.1 3.5-2.9z"/><path fill="#e6e6e6" d="m663.3 441.1v2.1h-3.1v-18.7h3.1v7.4c1-1.4 2.4-2.5 4.5-2.5 3.2 0 6.3 2.5 6.3 7s-3.1 7-6.3 7c-2.2 0-3.6-1.1-4.5-2.3zm7.7-4.7c0-2.6-1.7-4.3-3.9-4.3s-3.9 1.7-3.9 4.4c0 2.6 1.8 4.3 3.9 4.3s3.9-1.7 3.9-4.4z"/><path fill="#e6e6e6" d="m675.3 441.4 1.4-2.1c1.4 1.1 3 1.7 4.4 1.7s2.1-.5 2.1-1.5-1.3-1.4-2.8-1.8c-.1 0-.2-.1-.2-.1-2-.6-4.2-1.4-4.2-4s2.1-4.1 4.8-4.1c1.7 0 3.5.6 5 1.5l-1.2 2.2c-1.3-.8-2.6-1.3-3.8-1.3s-1.9.5-1.9 1.4 1.3 1.4 2.8 1.8c.1 0 .2.1.2.1 2 .6 4.2 1.5 4.2 4 0 2.9-2.2 4.2-5 4.2-2 0-4.1-.7-5.8-2z"/></g>
</svg>
