<?xml version="1.0" encoding="utf-8"?>
<!-- Generator: Adobe Illustrator 23.0.1, SVG Export Plug-In . SVG Version: 6.00 Build 0)  -->
<svg version="1.2" baseProfile="tiny" id="Layer_1" xmlns="http://www.w3.org/2000/svg" xmlns:xlink="http://www.w3.org/1999/xlink"
	 x="0px" y="0px" viewBox="0 0 900 600" xml:space="preserve">
<g>
	<path d="M515.15,20.1c0.01-0.05,0.02-0.09,0.03-0.14C515,19.99,515.04,20,515.15,20.1z"/>
	<path d="M517.48,18.17c4.32-8.47,1.44-10.81,7.71-15.63c-0.57,2.67-3.95,11.26-3.76,17.36c5.61-1.53,6.73-14.07,11.47-18.17
		c-1.62,7.21-4.87,13.2-6.39,20c0.91-0.3,1.32-0.41,1.42-0.41C530.57,11.65,536.7,0,532.1,0c-2.21,1.6-5.79,10.43-7.21,13.6
		c-3.98,8.88-0.9-1.3-0.3-4.26c0.58-2.88,5.11-9.28,0.3-8.32c-6.95,4.56-5.62,11.15-8.83,16.85
		C513.81,21.86,516.96,19.19,517.48,18.17z"/>
	<path d="M249.71,309c0,0,0-0.01,0-0.01C249.57,309.12,249.6,309.14,249.71,309z"/>
	<path d="M360.55,207.78c-0.34-18.15,0.09-19.53-10.96-29.74c-4.97-4.59-6.49-1.91-8.32-2.84c-5.69-2.89-9.34-1.81-13.91-5.68
		c-10.98-9.31-16.8-8.4-17.36-9.24c-1.42-5.89,0.61-11.06,0.51-16.44c1.32,0.1,1.62,1.73,3.05,1.52c0.56-2.62,4.22-13.89,2.84-15.53
		c-2.19-2.61-2.88-13.91-2.23-16.34c1.38-5.19,0.93-9.77-3.86-12.99c-0.65-0.44-5.35-7.89-13.7-6.5c-2.03-1.32-2.84-3.86-5.08-4.57
		c-2.03,0.41-1.42,2.23-2.13,3.45c-1.42-4.06-1.93-4.67-4.57-5.28c-0.52,3.12,7.23,8.28-4.26,0.81c-2.84,6.76-4.85,0.92-2.33,7.21
		c-2.12,3.4-1.46,2.54-3.86,2.54c-5.13,5.99-7.13,21.59-6.09,23.85c-9.27,9.27-0.88,13.13-2.03,16.24
		c-0.98,2.65,2.69,2.66,3.15,3.76c2.72,6.54,4.88,18.98,2.64,20.1c-15.37,5.12-24,14.21-26.39,14.21c-7.28,0-19.26,8.32-23.45,19.59
		c-2.11,5.69-1.32,11.37-1.22,17.46c-8.32,13.31-1.64,29.41-2.23,32.18c-2.66,12.33,0.37,18.21,0,20.61
		c-1.26,8.13-2.12,19.18-4.06,24.36c2.06,16.5,1.79,22.62,5.08,29.84c4.46,9.8,3.68,23.29,7.31,31.67
		c4.28,9.89,0.99,16.63,5.58,19.18c-1.12,2.08,1.17,3.06,1.52,7.11c0.11,1.26,0.9,16.36,0.1,17.36c-2.17,2.41,2.55,31.54-0.2,38.88
		c5.48,3.25,11.98,2.84,17.36,5.89c3.01,13.04-2.14,19.66-0.41,35.02c1.15,10.19-0.75,10.25,2.13,23.25
		c4.55,20.53,11.83,28.23,15.33,54.31c0,2.08-1.95,0.7-3.05,2.33c-4.72,10.22-2.08,15.19-8.73,22.84
		c-2.74,3.15-2.43,5.85-2.74,11.37c-0.11,2.03-1.62,3.45-2.44,5.18c12.28,6.29,24.46,7,36.54,0.81c1.02,0.71,0.91,2.03,2.54,2.74
		c12.65,3.8,15.58-0.95,25.07,0.61c2.93,0.48,4.77-0.74,4.77-4.06c-3.25-9.11,0.65-10.86-3.86-14.21
		c-6.35-4.72-5.43-17.66-8.32-17.66c-0.65,3.16,0.49,0.82-14.38,0.82c-0.47,0,2.17-2.39,1.71-7.01c3.63,0.78,6.95,1.14,10.66,0.71
		c1.77,2.36-0.22,5.17,1.83,5.79c0.76-3.05,0.52-5.91-1.42-8.32c1.76-1.94-0.29-8.3,1.73-13.2c1.71-4.16,4.28-25.74,6.7-32.58
		c5.2-14.73,6.79-45.55,5.68-56.44c-0.5-4.97,0.81-10.05,1.83-15.23c9.42,0,13.28,1.11,11.27-2.33c-3.74-6.39,2.58-15.84,3.65-29.84
		c1.2-15.62,0.25-21.52,3.15-26.39c0.72-1.21,2.11-1.23,2.64-2.13c12.38-21.2,7.6-26.64,12.28-42.63
		c20.11-68.65,8.05-45.67,12.69-90.04c1.1-10.56-0.71-20.2-8.53-28.22C360.65,213.27,360.6,210.53,360.55,207.78z M314.47,136.02
		c-1.02-1.83-0.61-2.84,0.71-3.65C315.6,133.64,315.12,134.72,314.47,136.02z M314.47,129.22c0.22,1.04-0.48,1.31-1.12,1.62
		C313.03,129.85,313.19,129.32,314.47,129.22z M313.76,137.85c0.2,1.83-1.12,2.84-0.81,4.67
		C309.29,139.7,313.29,138.55,313.76,137.85z M311.42,123.94c0.62,0.38,0.73,0.8,0.1,1.52
		C311.12,124.75,311.12,124.35,311.42,123.94z M268.18,136.53c-1.92-2.56-4.39-5.75-1.22-6.19
		C266.56,132.46,269.01,134.05,268.18,136.53z M268.99,126.78c-1.22-0.1-1.42-0.91-1.62-2.33
		C268.69,125.06,269.09,125.67,268.99,126.78z M300.66,99.17c0.87,0.17,0.96,0.54,0.81,1.22
		C300.73,100.22,300.51,99.93,300.66,99.17z M300.05,104.55c-0.1,0.71-0.51,1.02-1.52,0.71
		C298.94,104.65,299.14,104.04,300.05,104.55z M298.23,104.25c-0.81-0.61-1.12-0.91-1.02-1.42
		C298.12,102.62,298.33,103.13,298.23,104.25z M293.69,106.01c-0.3,1.08-0.36,0.75-0.6,0.33
		C291.82,104.17,294.46,103.22,293.69,106.01z M271.53,111.66c0.52,0.52,0.1,0.71-0.61,0.91
		C270.92,111.76,271.22,111.45,271.53,111.66z M270.11,139.67c0.04-1.93,1.64-16.06,2.23-16.65c3.11-3.53,1.23-8.34,4.53-11.59
		c2.82-2.78-3.8-4.47-3.31-4.8c1.34-0.67,1.58-0.82,2.63,1.27c2.78-0.66,2.81,4.65,3.76,0.61c4.74-1.58,7.4,0.48,11.77,2.13
		c0.91-0.61,1.73-1.22,2.44-1.73c10.38-0.83,6.49,1.55,7.82,2.44c1.17,0.32,0.44-0.97,1.2-1.26c1.23-0.46,0.76,2.3,0.93,2.88
		c2.33,1.55,9.15,17.4,4.47,28.22c-3.98,9.21-2.07,9.97-3.76,11.98c-13.68,16.3-11.76,6.27-21.42,9.03
		C273.02,157.49,277.84,148.44,270.11,139.67z M263.1,169.62c-0.1,2.13,0.91,4.47-0.91,6.7c4.14,6.21-0.64,13.44,11.27,23.25
		c5.07,4.17,10.66,7.21,17.46,8.22c0.91,0.51,0,1.83,1.02,2.54c0.92-0.39,0.23-1.76,1.02-2.64c4-1.05,10.17,0.44,17.66-14.92
		c1.03-2.1,1.81-4.31,2.84-6.9c-3.76,0.99-7.23,19.49-20.71,19.49c0.24-2.6,0.43-7.48,0.91-10.05c-0.3,1.02-0.72,1.93-0.81,2.94
		c-0.12,1.32-0.41,2.64-0.71,3.86c-0.75,4.12,0.33,3.73-2.66,3.74c-2.38,0.01-4.65-0.32-6.68-1.81c-3.86-2.83-7.81-5.59-11.17-9.14
		c-5.95-6.27-6.72-16.1-5.36-15.8c4.11,0.91-2.17-2.45-1.13-4.79c1.32-3.52-3.17-7.7,7.51-9.64c1.18,2.35,0.5,14.15,3.55-5.79
		c1.62,2.23,4.09,3.41,6.29,4.47c4.66,2.24,5.17-2.11,9.74,0.81c0.95,0.6,2.17,0.51,3.55,0.51c1.9-1.62,10.71-10.85,10.88-9.54
		c0.46,3.65-0.55,12.78,0.67,12.25c2.67-1.15,2.18-4.28,3.02-3.92c1.55,0.67,3.18,1.09,4.71,2.43c0.41,6.5-2.74,12.59-3.65,19.08
		c3.38-2.53,2.46-8.35,4.47-11.57c1.66-2.67-0.17-8.92,4.47-5.38c-1.96,13.35-3.33,17.55-1.93,28.62c0.7,5.56,0.4,7.12,1.62,8.22
		c0.02,0.02,6.51,18.59,11.27,23.75c0.2,1.22-1.42,1.22-0.91,2.33c0.97,0.49,1.22-0.88,2.11-0.71c9.32,0-4,31.24-6.16,60.7
		c-0.17,2.34-0.3,4.67-2.13,6.6c1.52,2.84,0,5.79,0.71,8.73c-4.59,3.28-18.39,5.5-24.67,8.22c-3.3,1.43-1.41-0.56-16.75,0.71
		c-18.39,1.52-19.62-3.9-32.79-6.29c3.86-4.87-0.98-19.55,1.52-30.35c0.84-3.61-1.69-21.35-2.54-24.97
		c-0.68-4.05-2.51-2.91-2.03-12.08c0.13-2.47-0.43-14.43,0.76-13c4.15,4.98,8.81,7.53,7.69,6.29c-2.11-2.35-3.95-4.88-5.41-7.81
		c12.86-17.15,7.8-25.06,9.83-42.24C261.46,177.21,258.9,168.78,263.1,169.62z M321.37,314.37c5.1-1.36,1.08-4.03,4.4-4.46
		c0.21,0-0.19-0.52,1.7,6.08c-11.52,1.87-10.6,1.95-10.72,1.72c-1.12-1.68-0.37-3.37-1.36-4.66c1.12-0.91,2.33-0.81,3.55-1.12
		C319.75,312.84,319.64,314.06,321.37,314.37z M321.06,312.44c0.11-1.24,0.76-1.29,1.93-1.52
		C322.28,313.52,321.06,313.59,321.06,312.44z M306.45,318.93c-1.52-1.12-1.42-2.54-1.42-3.96
		C306.27,314.98,305.72,313.82,306.45,318.93z M303.5,320.15c-1.52-1.42-1.83-2.74-1.73-4.06c0.51-0.61,1.02-0.51,1.73-0.51
		C303.1,316.9,303.81,318.22,303.5,320.15z M236.92,413.03c-1.45-11.54,0.83-21.75-0.61-32.58c2.84,2.65,1.32,4.23,1.32,19.9
		C237.63,407.24,238.98,410.28,236.92,413.03z M263.51,524.99c-2.02-7.59-9.54-26.68-9.24-34.72c0.45-12.01-1.94-27.45-0.41-34.61
		c0.84-3.92-0.46-13.58,0.68-12.43c0.85,0.76,1.71,1.52,2.57,2.28c0.3,2.13-0.3,4.16,0.71,5.99c-2.13,2.13-1.02,4.36-0.41,6.5
		c0.21-0.63,1.45-14.75,2.74-16.04c-3.1,0.17-1.91,6.04-5.18-1.42c4.97-0.81,9.85-1.12,14.82-1.02c1.62,1.32,2.94,3.05,4.36,4.67
		c0.2,3.76,0.51,7.51-0.1,11.88c1.74-1.74,1.58-2.01,2.03-11.98c-0.51-1.73-2.74-2.64-3.45-4.97c10.55-0.93,9.86-0.99,9.86-0.88
		c4.9,10.43-8.56,25.36,1.31,44.73c-0.51,5.48,1.02,10.86,1.83,16.65c-2.88,3.79-0.54,6.31-2.84,20.71
		c-1.31,8.2-0.49,11.45,1.52,34.82c-6.3-3.67-0.56-1.41-3.92-7.53c-0.7-1.27,0.21,3.38-0.55,4.98c0,0.65-6.07-2.13-9.34,2.45
		C268.42,546.89,272.24,557.77,263.51,524.99z M285.13,479.01c-6.39-15.8-0.45-20.01,0.61-32.38c0.2-1.12,0.61-2.23,1.12-4.06
		C289.39,449.57,290.18,450.14,285.13,479.01z M286.1,487.16c-0.01,0.28-0.1,0.59-0.25,0.88
		C284.91,487.11,286.13,485.45,286.1,487.16z M281.88,563.57c-5.2-0.35-6.8-1.42-13.4-1.42c0.61-2.31-0.11-4.46-0.41-6.6
		C289.32,552.97,281.61,559.73,281.88,563.57z M284.22,594.53c-1.02,1.12-2.64,0.81-3.86,1.62c-1.73-0.81-2.03-3.16-4.16-3.65
		c-6.21-1.43-3.02-2.56-6.73-2.56c-3.58,0-7.37,0.51-10.22,2.65c0.83,3.16,1.87,1.57,8.32-0.2c2.67-0.74,2.91-0.1,10.07,3.96
		c1.5,1-13.07,2.57-21.74-2.23c1.12-10.35,1.08-11.15,1.66-12.36c1.1-2.3,6.84-7.29,7.47-18.7c0-1.12,0-2.13,0.71-3.05
		c1.42,2.54,1.42,2.54,1.02,4.97c4.26,2.13,0.26,1.02-0.85,2.73c-1.2,2.39,4.71,2.1,6.13,2.95c-1.65,0.87-4.72-0.82-5.79,2.03
		c3.65,1.73,7.51,1.22,11.17,1.22c0.91,0,1.52-0.61,1.83-1.42c-0.63-2.11-5.05-1.73-3.23-2.01c0.72-0.11,5.36,0.05,5.36-2.06
		c-0.53-4.2-7.74-0.4-9.64-2.93c4.1,0.41,7.28,0.8,9.74,0.3c1.32,0.41,1.83,1.62,3.05,1.83c1.18,3.87-0.99,16.73-1.02,16.85
		C282.46,589.72,285.85,590.45,284.22,594.53z M287.67,590.57c-1.73-3.25-1.73-6.09-1.02-9.64
		C287.16,584.27,287.97,587.12,287.67,590.57z M287.47,576.76c-2.16-0.48,0.81-1.45-0.24-7.76c-1.09-6.48-0.38-8.77-2.1-7.28
		c-0.66,0.57-0.72,4.48-0.79,1.37c-0.09-3.98,2.31-3.43,1.72-10.91c-4.14-51.69,0.64-19.65,0.21-46.9
		c-0.14-8.76,5.48,12.67,5.82,28.49c0.26,11.99-2.15,24.38-2.4,24.63C284.75,562.84,290.34,570.8,287.47,576.76z M292.24,557.78
		c-0.69-1.39,0.73-2.36,0.78-0.97C293.03,557.21,292.76,557.52,292.24,557.78z M291.22,562.96c-0.6-2.01-0.13-3.03,1.22-3.96
		C294.07,560.72,292.52,561.55,291.22,562.96z M299.13,566.82c8.34-0.18,9.26-1.06,8.78,1.81c-4.49-2.14-12.61-2.63-15.27,0.93
		c1.28,1.43,3.94,0.14,3.55,1.32c-0.43,0.78-8.18,3.22,9.54,3.45c0.57,0.01,1.22-0.52,1.22-1.52c-1.13-1.6-6.77-2.03-4.64-2.03
		c3.47,0,5.52,0.53,5.84-1.54c0.47-1.42-0.12,9.07,8.13,14.84c-0.3,11.84,2.44,12.36-1.11,12.27c-12.79-0.31-22.56,3.18-25.88-2.64
		c0.91-4.23-1.44-13.26-0.2-16.04c2.71-6.09-1.19-9.27,1.22-12.49C298.92,561.6,286.48,567.09,299.13,566.82z M317.31,452.42
		c4.36,44.91-12.57,86.71-11.5,98.31c0.52,5.69-1.31,4.52-6.87,4.52c-0.91,0-0.74-1.58-1.11-2.24c-0.22-0.32,0.12-0.46-1.03,1.84
		c-4.92,2.81-0.24-9.92-4.97-37.96c-0.34-2.02,1.12-3.86,0.1-5.89c-6.37-12.74-2.69-45.68,0.61-51.26c0.2-1.52-1.02-1.42-1.12-2.64
		c0.2-2.03,0.51-4.57,0.81-6.8c-3.2-14.59-5.31-12.03,8.84-12.04c13.7-0.01,18.57-0.94,18.57-0.83
		C317.52,449.39,317.01,449.38,317.31,452.42z M334.77,410.09c-0.72,1.21-0.1,2.94-1.32,3.96c-0.61-0.61,0.1-1.62-0.71-2.13
		c-1.52,2.23-2.54,16.34-1.62,22.74c-0.46,0.62-41.08,1.32-41.21,1.32c-4.32-0.03-1.75,1.61-2.44,2.44
		c-5.71,2.85,1.98-8.69,0.51-18.78c-2.16-14.84,0.08-21.69-0.71-30.86c-0.44-5.07-2.54-5.3-2.03-2.94c0.87,3.98-3.67,11.99,0.2,20.4
		c-1.02,3.55-0.41,7.21,0,10.86c-1.22,2.84-4.47,2.23-6.7,3.76c2.23,0.41,3.96-0.81,6.19-1.12c-0.51,5.28-0.71,10.56-1.62,15.84
		c-15.12,2.13-30.05,3.15-44.66-2.03c1.73-15.12,1.42-30.25,1.52-45.58c2.84,1.62,2.13,5.58,5.18,6.9
		c7.33-5.7,3.98-13.67-0.81-23.25c2.94-3.76,2.94-3.76,1.93-6.29c-1.62,1.02-1.22,3.35-3.25,4.16c-1.22-0.81-1.93-1.93-1.73-3.65
		c0.35-2.9,0.21-7.55-2.64-6.8c0.61,3.35,1.52,6.6,1.32,10.15c5.38,4.36,5.89,10.96,8.32,16.75c-3.8,1.81-4.38-4.61-8.08-8.18
		c0.15-0.08-5.71-8.45,5.75,11.73c-1.51,1.32,1.36,7.22-4.06-2.54c-3.96-7.13-3.62-8.91-6.09-10.56c-0.23-4.54-2.5-4.42-4.16-11.98
		c-8.78-39.96-9-50.9-12.38-52.89c-2.28-20.5-3.09-20.55-0.91-29.94c2.63-11.34-0.05-11.5,3.05-16.85
		c-3.13-12.73,1.23-20.04-1.52-25.78c-1.89-3.95-0.86-9.21,0.3-16.04c0.91-5.34,4.86-4.52,4.26-11.17
		c-1.69-18.77,9.97-31.44,20.1-33.09c17.91-2.91,14.01-20.37,14.01,17.15c0,17.52-6.48,23.58-9.44,27.41
		c-1.52-1.83-1.74-4.34-3.55-5.68c-1.74-1.3-1.02-4.16-3.76-5.28c-0.61,3.65,1.52,6.29,2.64,9.03c-1.32,1.22-2.54-0.91-3.76,0.2
		c0.85,1.99,6.24,0.52,5.38,9.24c-0.7,7.1,1.93,18.75-5.79,31.97c-2.59,4.44,0.63,4.13-0.91,8.12c-4.02,10.4-1.31,34.51-5.18,56.95
		c-0.5,2.89,1.35,8.01-1.52,8.73c-1.47,4.05,7.92,6.2,10.15,14.62c0.2,0.61,0.71,1.22,0.61,1.93c-0.81,3.55,1.47,6.7,1.52,10.05
		c0.02,1.14,2.36,0.43,1.62-1.52c-1.22-3.86-1.32-7.82-1.62-12.28c0.3-1.22,1.83-2.23,2.54-3.96c-1.42,0.2-1.73,1.42-2.74,1.93
		c-1.42-1.32-3.45-1.93-4.57-4.16c4.03-15.69,4.43-8.31,5.99-18.07c0.83-5.16,1.61-6.55-0.1-7.41c-2.27,2.41-0.89,6.28-3.96,11.77
		c-1.92,3.45-4.06,6.9-4.16,11.17c-1.32-0.1-1.02-0.91-0.91-1.52c0.53-7.68-1.85-9.81-0.3-13.3c2.87-6.5,2.95-46.59,2.94-46.69
		c-0.69-7.01,4.52-10.2,1.12-14.92c2.74-3.55,5.08-7,5.99-11.37c2.39,6.05,1.56,18.26,3.76,48.62c0.38,5.2-0.69,7.19-1.01,7.62
		c0.71,2.53,0,5.17,1.22,8.01c1.52-2.03,0.3-4.26,1.22-6.39c0.51,1.93-0.2,3.86,0.91,5.68c1.22-1.62,0.3-3.45,0.81-4.97
		c2.6,0,0.63,2.4,2.33,3.86c0.81-0.51,0.3-1.52,0.51-2.13c0.81-0.41,1.22,0.2,1.73,0.3c1.02,0.81-0.2,2.23,1.12,2.94
		c0.81-0.61,0.2-2.13,1.62-2.64c2.13,0.71,0.51,3.05,1.42,4.36c1.62-0.61,0.61-2.33,1.42-3.35c3.76-0.47,1.88,2.38,2.64,3.25
		c1.73-0.69-0.49-3.39,3.86-1.52c0.81,0.71-0.2,1.73,0.61,2.33c1.12-0.2,0.51-1.52,1.42-1.93c1.02,0,2.23,0,3.15,0
		c1.12,0.71,0.41,1.73,1.02,2.33c0.61-0.51,0.3-1.42,1.02-1.83c4.87-0.81,8.12-0.61,10.25,0.61c3.98-2.39,2.19,0.93,3.65,1.73
		c1.78-0.89-2.77-4.13,8.22-3.25c1.22,2.74,1.22,2.74,0.51,4.57c2.64,0.81,4.97-0.51,7.51-0.81c0.51-2.13-0.81-4.06-0.2-6.19
		c1.62-1.02,3.55-0.51,5.18-0.81c0.81,1.12,0.3,2.03,0.2,2.94c-0.71-0.2-1.22-0.3-1.83-0.41c-0.51,1.22,0.1,1.93,0.91,2.64
		c1.91,0.29,0.46-3.56,3.15-0.2c3.96,0.41,7.82,0.1,11.17,0.1c6.09,4.26,5.46,10.56,6.5,16.24c2.71,14.89,4.62,16.35,1.02,19.08
		c-9.36,7.09-3.56,11.79-0.81,11.06c1.21-0.32,2.64,1.12,3.65-0.51c-2-1.2-2.28,0.12,1.02-4.16c0.68,13.94,0.52,13.69-1.83,17.26
		c-1.41,2.14-2.64,4.16-1.52,6.8c0.2,0.41-0.61,1.02,0,1.62c1.22,0.61,1.52-1.12,2.64-1.12
		C335.4,401.52,337.42,405.64,334.77,410.09z M363.7,226.06c4.57,7.03,1.28,33.17,0,38.27c2.36,5.2,3,30.04-2.03,43.14
		c-10.97,28.6-8.55,48.78-15.53,62.73c-0.66-2.88,1.22-5.09,0.71-7.51c-2.72-0.78-1.42,10.41-5.58,13.2
		c-2.02,1.35-2.91,5.22-4.47,5.48c-0.48-2.42,2.02-4.57,2.94-6.7c-0.11-3.27,2.41-10.26,2.33-10.66c-1.47-5.7,3.66-10.31,1.93-9.61
		c-10.33,4.14-10.07,8.95-12.34,7.38c-1.25-0.87,0.05-5.03,3.51-6.6c7.01-3.18,0.93-9.04,8.83-15.53c1.89-1.89-2.44-2.85-5.58,5.89
		c-2.27-0.71-2.21-20.58-6.9-25.78c-7.75-8.58,1.74-60.89,4.57-72.37c0.76-4.71,2.78,3.15,2.03,5.89c-0.84,3.1,4.86,14.35,7.06,15.5
		c4.36,2.28-0.94,8.73-1.99,37.19c-0.26,7.13,0.99-0.84,1.22,24.26c0.02,1.88-1.44,3.43-0.71,5.89c2.95-5.79,3.11-21.75,1.62-24.77
		c-0.05-0.1,1.4-22.37,2.94-29.54c2.35-10.93-2.1-12.54,1.12-17.46c2.36-3.6,2.47-5.17,1.88-4.44c-4.37,5.38-4.33,8.47-4.85,7.63
		c-17.88-33.8-2.63-58.67-13.47-41.47c-6.66-6.66-15.31-25.01-12.18-46.9c1.45-1.18,6.26-2,5.26-2.55c-1.2-0.66-3.35,0.06-3.85-0.44
		c-0.84-2.97,1.42-5.89,1.42-6.76c8.43,6.61,22.41,4.85,29.13,15.44c7.16,11.29,6.19,8.73,6.19,22.43c0,2.94-0.1,5.89-0.61,9.03
		C360.45,219.25,361.62,222.87,363.7,226.06z M341.57,359.23c-0.81-1.52-0.81-1.52,0.1-2.33
		C342.18,357.61,341.37,358.01,341.57,359.23z"/>
	<path d="M593.81,158.15l-0.1-0.1C593.75,158.25,593.75,158.17,593.81,158.15z"/>
	<path d="M475.76,462.26l0.1-0.1C475.79,462.13,475.76,462.18,475.76,462.26z"/>
	<path d="M615.03,454.45l0.1-0.1C615.02,454.34,614.95,454.32,615.03,454.45z"/>
	<path d="M670.96,596.05c1.78-0.98,3.55-1.87,5.52-1.92c-0.93-1.59-7.25,1.17-8.87,2.02c0.3,0.61,0.51,1.02,0.71,1.52
		c-5.46,0.68-8.34-2.54-12.89-5.68c-2.94-2.03-1.83-6.09-3.35-8.83c-5.28-0.91-9.54-3.45-13.4-6.6c1.93-4.06,2.35-8.21,4.47-11.88
		c0.75-1.29-1.32-4.06,0.51-5.89c0.91,0.41,1.02,1.62,2.54,1.73c2.13-2.44,5.99-1.83,8.53-3.25c1.69-5.08-4.89-4.92,6.9-5.99
		c1.73,1.93,0.1,4.47,1.83,6.19c2.55-1.53,3.2-6.13-3.45-8.73c-1.32,1.02-1.32,1.02-3.25,1.02c0.61-1.12,0.93-2.24,0.51-3.45
		c-5.71-16.46,1.84-62.26-23.14-86.38c-0.41-0.4-0.71-0.91-1.02-1.42c-8.02-16.44-2.82-12.83-2.44-15.12
		c-0.72-3.6-1.35,2.19-5.68-18.37c-3.05-14.47-0.6-9.94-2.13-17.46c-3.52-17.3-8.95-38.1-12.59-52.89c1.62-0.81,1.02-2.23,0.41-3.55
		c-1.54-3.88-6.25-22.29-10.05-26.09c1.32-2.64,0.49-5.28,1.32-7.82c2.69-8.24,1.86-16.65,1.32-24.97
		c-1.03-15.89,4.07-18.95,0.71-27.91c-0.66-2.29,1.52-13.41,2.03-15.63c2.52-10.88,0.37-0.25,4.87-14.72
		c11.95-38.38-2.86-26.23,11.67-55.02c6.28-12.45,6.52-24.8,5.18-38.98c-1.15-12.12,2.72-10.31,3.45-20.71
		c0.11-1.52,0.62-3.15-0.2-4.57c-0.71-1.22-0.52-2.33-0.51-3.45c0.26-24.88-7.14-31.42-14.31-62.02c-0.33-1.42-0.91-2.64-1.83-3.55
		c1.12-4.47,1.41-8.82-1.73-12.28c-6.66-7.35-7.23-11.47-9.14-10.05c3.37,7.34,9.91,12.79,9.44,19.18c-0.3,1.83-1.83,2.03-1.93,3.25
		c0.71,0.71,2.13,0.2,2.94,1.52c4.7,18.28,2.68,15.25,7.82,30.45c5.59,16.54,10.58,35.11,3.86,54.31
		c-3.3,9.41,7.92,21.67-9.64,57.15c-5.1,10.3,0.12,12.4-4.77,30.86c-1.32,4.97-1.83,10.15-4.77,14.72
		c-2.08-1.5-14.34-10.28-14.21-12.85c-8.15-4.21-13.08-34.81-16.75-42.67c3.25-8.73,10.25-13.2,17.46-17.87
		c-0.28,19.26,6.14,32.73,4.87,36.03c-2.21,5.76-1.83,11.98-3.86,17.76c4.36-7.41,4.87-15.73,5.48-23.65
		c0.3-1.02,1.62-0.71,1.42-1.83c-0.2-0.81-0.91,0.3-1.42-0.3c-7.84-36.77-3.76-23.63-5.65-31.22
		c-15.51,10.22-14.98,11.6-19.72,18.03c-1.42-6.5-1.62-12.59-1.62-18.58c1.02-0.51,1.73,1.02,3.05-0.1
		c2.94-5.58,4.16-11.57,0.81-18.07c0.3-1.73,0.91-3.55-0.3-5.18c2.93-1.8,0.29-1.93-0.71-9.95c-0.44-3.55-12.32-17.37-18.37-13.8
		c-2.33-1.02-3.15-3.86-5.28-4.16c-1.93,0.41-1.42,2.03-2.03,3.15c-1.02-2.33-1.52-4.77-4.57-4.67c-0.2,1.83,1.52,2.54,1.83,4.36
		c-9.81-5.6-3.26-2.42-9.14,0.71c1.48,3.56,2.11,2.33-0.41,5.68c-2.03-0.41-2.85,1.01-3.35,2.44c-6.57,18.69-2.41,17.66-3.25,21.21
		c-3.45,2.44-3.86,6.09-3.45,10.05c1.73,2.03,3.25,4.06,2.64,6.6c0.91,1.52,2.84,0.81,3.76,2.94c0.1,1.52,0.1,3.96,1.42,5.99
		c-1.62,3.45,0.3,7-0.2,11.37c-4.36-8.22-8.53-15.84-16.65-19.79c-4.21-13.88,3.6-22.05-8.73-38.27c0.86-9.43,5.25-17.13,4.47-28.93
		c-1.52-22.77,6.9-32.12,6.9-41.21c0.81-0.91,2.54-0.41,3.05-1.83c-4.47-0.1-5.28,0.1-6.6,1.62c0.51,0.71,1.62-0.1,2.13,0.61
		c-9.88,27.31-7,26.12-7.11,40.4c-0.12,15.45-7.64,23.77-2.44,33.5c6.15,11.49,3.81,13.68,5.79,30.66
		c1.16,9.95,6.98,5.75,12.89,16.85c1.41,2.65,2.74,5.48,5.08,7.61c0,21.12-0.66,40.41-16.55,59.28c-1.95,2.32-3.76,4.67-6.7,6.19
		c-16.03-32.06-7.63-39.52-18.47-56.23c-7.17-11.05-6.97-18.01-8.12-22.43c-2.75-10.61,3.79-15.36,0.91-26.49
		c-2.4-9.3,0.41-17.48-1.93-24.56c-1.21-3.66,5.06-27.5,15.43-45.17c3.68-6.28,5.85-13.17,8.53-19.79c3.36-8.3-1.51-9.37,1.32-18.27
		c4.13-12.98,2.13-22.16,4.87-22.43c0.48,3.98-1.65,11.37,0.71,14.31c1.84-0.4,0.48-2.36,1.12-1.73c-2.05-1.68,0.88-12.45-1.42-13.6
		c-1.83-0.1-2.56,1.21-2.84,2.84c-0.55,3.14-1.84,6.19-1.32,9.44c0.37,2.27-1.06-0.08-2.74,12.69c-0.49,3.7-2.07,3.47-1.12,7.51
		c1.72,7.28,0.64,4.01-4.77,18.17c-4.24,11.1-9.15,15.41-12.28,27.81c-2.17,8.59-6.24,12.87-6.9,27.31
		c-0.15,3.26,0.25-6.75,0.91,26.09c0.15,7.39-5.46,29.72,7.71,49.13c4.76,7.01,4.68,12.59,5.99,15.02c2.83,6.22-0.8,8.6,3.15,18.68
		c1.48,3.77,2.07,7.86,4.47,11.17c0.3,0.41,0.51,0.91,0.51,1.32c0.46,7.75,6.68,18.89,7.21,24.77c0.01,0.11,3.15,32.58,3.15,34.82
		c-0.1,0.51-1.52,0.71-1.62,1.62c2.79,26.52-1.23,20.24-0.1,25.07c1.13,4.83-1.34,4.94,0.91,9.44c-1.55,3.63-0.72,4.99-4.16,8.53
		c-4.46,4.58-1.45,5.57-9.03,20.91c-8.13,16.44-7.54,22.3-12.79,37.05c-9.68,27.18-4.56,33.3-6.7,39.99
		c-0.71,0.61-1.73-0.1-2.33,0.71c0.1,1.12,1.62,1.32,1.83,2.94c-5.61,25.26-5.82,17.25-13.6,29.54
		c-0.18,0.28-10.07,11.26-11.47,33.6c-0.29,4.67-1.72,9.03-1.83,13.7c-0.74,31.58-4.79,29.01-2.84,34.41
		c-1.73,0.51-2.44-0.61-3.25-1.42c-1.1,1.57-5.24,1.19-4.97,5.68c0,1.32,0.3,2.74,1.93,3.25c1.42-1.93-0.1-4.47,1.73-6.09
		c11.93,0.99,5.22,1.19,6.8,6.19c2.94,0.91,6.29,1.02,8.43,2.94c1.73,0.2,1.73-1.32,2.74-1.52c1.8,1.8-0.51,4.15,0.61,6.09
		c2.07,3.59,2.54,7.82,4.36,11.77c-4.26,2.94-8.43,5.58-13.5,6.39c-1.23,2.33-0.74,7.17-2.94,8.63c-3.91,2.6-8.34,6.86-13.2,5.79
		c-0.1-0.61,0.81-1.02,0.41-1.73c-10.49-3.67-4.58-1.83-11.98-1.83c0.97-0.09,2.11,0.68,3.13,0.18c0.1,0.1,2.39-0.34,5.5,1.85
		c-3.35-0.1-6.7,0.3-10.25,0.41c2.54,1.83,3.75,2.08,7.82,2.03c5.03-0.06,9.53,2.48,15.23-2.44c2.48-2.14,8.98-4.29,7.41-11.37
		c5.38-1.93,11.37-2.54,14.21-8.22c-0.41-1.73-1.64-2.84-1.73-4.47c-0.31-5.88-3.26-6.71-2.74-8.93c0.66-2.83,0-5.38-2.13-7
		c-0.41-1.93,1.44-2.64,1.52-4.16c0.98-17.46,15.84-30.75,16.24-34.21c0.58-4.94,5.42,1.42,15.43-30.86c0.3-0.7,0.54-6.44,2.13-13.6
		c0.2-1.22,1.93-1.93,1.32-3.76c-7.1,7.1-3.52,14.76-10.76,31.26c-10.85,24.71-17.37,15.67-26.59,52.07
		c-1.22-1.62-2.44,0.61-3.76-0.61c-0.51-0.41,0.51-1.52-0.51-2.03c-0.91,0.3-0.2,1.93-1.73,2.13c-10.62-5.31-5.13-0.64-4.16-6.9
		c4.03-26-0.01-61.57,21.32-83.54c2.14-2.2,7-9.98,7-16.14c0-1.12,0.91-1.32,1.73-1.83c-0.2-0.81-0.71-1.62,0-2.44
		c2.1,0,17.89,4.35,17.97,4.47c1.36,2.11,3.76,2.44,5.89,3.65c-2.64,0.71-4.87-2.33-7.61-0.3c3.65,2.13,7.51,2.03,11.27,3.05
		c-7.9,16.11-9.94,15.02-8.32,15.84c11.69-7.21,6.56-14.59,10.86-15.94c-4.28-3.95-13.91-1.19,21.82-1.62
		c2.54-0.03,5.38,0,7.21-2.54c-3.34-2.14-3.45,0.22-10.96-0.41c-7.21-0.6-19.59-1.42-21.82-2.23c-17.8-6.48-24.27-5.29-25.68-7.71
		c1.86-16.37,2.28-13.55,0.41-15.43c1.12-9.14,7.39-34.88,21.52-68.31c2.77-6.55,0.99-4.72,1.52-11.67
		c2.64-2.94,5.18-5.68,7.21-8.93c6.8,1.52,13.5,0.81,20.5,2.23c-1.32-2.33-3.35-1.83-4.77-2.54c0.2-1.62,1.62-0.91,2.23-1.52
		c-0.1-0.81-0.61-1.52,0-2.33c2.86-1.63,1.55,1.86,3.05,3.86c0.91-1.32,0.1-2.84,1.12-3.96c2.33-0.91,4.47,0.51,6.8,0.91
		c-1.6,3.2-3.09,1.14-5.28,1.73c0.71,1.32,1.62,1.52,2.54,1.42c2.84-0.1,5.79,0.71,8.63,0c1.22-0.3,2.03,0.1,2.74,1.12
		c-4.72,12.44-2.6,8.25-1.42,9.03c0,1.12,0.1,2.44,0.2,3.65c-0.1-4.87,1.62-9.34,2.64-13.8c6.53-2.45,3.85,1.62,4.67,2.44
		c1.73-0.41,0.2-2.54,2.03-3.15c1.22-0.3,1.52,1.62,2.74,1.62c1.52,0,2.44-1.93,4.06-1.52c1.12,0.81,1.12,2.13,1.73,3.05
		c1.83-0.2,2.23-2.33,3.65-2.84c1.32,0.1,0.51,1.62,1.42,2.03c1.58-3.95,1.45,5.4,2.94,9.24c0.41-4.67,0.3-8.53-1.73-12.28
		c2.04-2.55,2.33,0.91,3.55,0.91c0.1-0.91-0.1-1.73,0.81-2.44c1.32-0.81,2.64-0.2,3.76,1.02c1.9-4.53,3.57,1.87,4.47-1.73
		c3.35-2.12,3.32,3.83,4.97-0.3c1.52,1.22,2.74-1.02,4.06,0.2c0.71-1.93-0.2-3.25-0.71-4.26c0-1.22,1.22-1.83,0.1-2.84
		c-14.57,0.37-10.62,4.25-22.94,3.05c-4.46-0.44-8.93,0.64-13.4,0.61c-51.69-0.37-43.64-0.01-42.33-5.68
		c0.1-3.45-1.11-6.8-0.81-10.25c0.41-4.67-0.03-9.23-0.51-13.8c-0.55-5.21,0.97-8.97,0.2-14.82c-0.64-4.87-1.02-9.85-0.91-14.92
		c17.08,6.57,1.7-0.38-0.71-2.44c0.2-5.48-2.13-10.76-2.03-16.44c-0.3-1.42-1.32-2.64-1.42-4.16c9.35-3.12,27.03-32.87,24.87-48.52
		c-0.6-4.37,0.51-8.53,0.2-12.89c5.01,17.13,0.21,18.57,7.61,30.05c2.75,4.26,6.5,7.51,12.08,7.51c1.02,0,1.42,0.81,2.33,1.02
		c0.51-1.71,1.81-0.07,7.61-1.32c8.37-1.81,7.55-8.8,9.03-20.2c1.27-9.73-3.87-18.5-1.12-19.18c2.99,5.68,0.89,6.43,1.83,8.32
		c4.33,8.74,5.53,28.41,20.2,40.5c16.3,13.44,8.87,2.79,9.34,18.58c-0.61,0.61-1.22,0.91-1.32,1.42
		c-4.67,24.54,1.93,17.57-4.47,25.88c1.42,0.2,1.83-1.22,2.84-1.32c0.73,2.44-1.75,5.53-1.22,20.4c1.01,28.3-5.25,24.46-0.3,34.51
		c6.07,12.33,19.45,76.15,19.69,79.18c2.77,34.24,10.42,27.57,5.18,34c-18.37,1.62-36.54,5.79-55.02,7.41
		c-0.71-3.35-0.61-6.29-0.81-9.14c-0.51-1.22-1.62-2.03-2.03-3.35c-7.71-24.74-7.57-17.8-11.67-27.61
		c-6.29,5.48-14.11,7.41-20.4,12.08c5.58-2.13,10.76-5.18,16.85-7.71c-3.35,10.86-5.58,21.42-10.56,31.06
		c-1.59,3.71,2.94,5.71,10.35-21.72c5.79-21.43,4.56-4.01,11.57,11.17c4.99,10.8,1.71,17.01,4.57,18.58
		c7.92-2.54,16.34-1.52,24.36-2.94c2.94,8.93,6.8,14.62,13.3,17.46c-2.54-3.25-3.76-7.2-6.39-10.25c-1.93-2.23-2.13-4.77-2.84-7.51
		c4.16-1.12,8.22-2.23,12.28-3.25c1.02,0.3,0.81,1.83,1.93,1.73c2.03-0.41,3.86-1.93,6.19-1.52c-2.13,1.22-2.84,3.45-4.16,5.28
		c-1.83,0.1-3.55,0.71-5.58,1.83c2.68,1.2,4.98,0.35,7.27,0.51c-0.31-0.75,0.06-1.24,0.45-1.83c5.61-7.17,4.19-8.05,11.27-7.31
		c1.49,7.86,1.85,7.39,6.01,15.66c-3.19-2.86-0.23,6.46-1.14,10.83c-0.11,0.51,0.2,1.22,1.02,1.42c0.14-0.65,1.01-5.77,0.27-11.53
		c24.15,20.49,16.73,80.81,23.48,87.56c-2.54,0.81-4.36,2.44-6.5,2.74c-1.02-0.61-0.41-1.83-1.32-2.13
		c-1.02,0.61,0.2,2.03-1.32,2.54c-0.81,0-1.83-0.91-3.15,0.1c0.07-1.8-3.05-17.59-10.56-27.41c-28.93-37.83-17.33-50.67-27-55.22
		c5.25,8.35,0.58,27.32,17.26,44.66c3.78,3.93-0.66,0.65,4.87,8.02c17.19,22.88,9.38,23.84,15.12,33.5c-4.69,3-1.14,6.26-3.35,9.95
		c-2.45,3.51-0.84,5.58-3.55,10.56c2.26,5.05,7.32,5.94,14.21,8.32c-0.2,1.22-0.3,2.23-0.41,3.45c1.22,1.22,1.21,3.25,2.74,4.36
		c13.4,9.74,7.17,5.68,24.06,5.68c1.32,0,2.94-0.2,3.86-1.83C677.66,596.25,674.31,595.95,670.96,596.05z M577.06,146.27
		c0.52,1.66,0.5,2.88,0.2,4.47C576.05,149.32,575.34,148.1,577.06,146.27z M575.75,143.12c0.41,0.51,0.7,1.01,0.3,1.53
		C575.13,145.88,574.18,144.69,575.75,143.12z M576.35,151.75c0.1,1.62-1.02,2.74-1.22,4.16
		C571.82,153.7,575.77,152.54,576.35,151.75z M532.5,143.73c-1.32-0.41-1.62-1.02-1.73-2.13C532.2,141.8,532.4,142.52,532.5,143.73z
		 M532.5,154.59c-0.84-4.05-5.43-6-2.23-7.61C530.57,149.05,533.34,150.74,532.5,154.59z M455.76,554.54
		c4.96,2.23,7.88-0.67,6.39,4.36c-2.21-0.8-4.5-1.95-6.91-1.62C454.65,556.18,455.23,555.58,455.76,554.54z M589.75,326.34
		c1.72-0.61,3.51-0.71,4.97-0.41c0.79,1,0.14,1.35-0.3,2.23c-1.82-1.24-3.44-0.01-5.41,0.1
		C587.57,328.36,590.24,327.5,589.75,326.34z M569.76,334.56c-0.28-0.36-0.44-0.65-0.46-0.9
		C569.12,332.56,571.75,332.57,569.76,334.56z M574.1,328.96c4.51-0.54,8.63-2,13.01-2.11c0.21,1.5-0.06,1.15-11.98,3.65
		c-1.09,0.16,0.44,1.27-2.24,1.28c-2.9,0.01-5.77-0.58-8.62-0.16c-1.16,0.17-1.99-0.22-2.33-1.32
		C565.9,329.07,570.12,329.44,574.1,328.96z M560.42,330.51c-1.83,1.73-3.65,0.91-5.48,0.61
		C557.27,330.1,557.27,330.1,560.42,330.51z M546.71,331.72c-0.71,0.91-1.22,0.61-1.93,0.41
		C545.19,330.91,545.8,331.12,546.71,331.72z M531.18,329.59c0.43,3.66-2.71,5.04-2.73,0.51
		C528.45,329.04,531.08,329.58,531.18,329.59z M521.56,329.29c7.02-1.28,4.56,2.14,5.97,3.55c-2.33,1.42-1.83-1.52-3.05-1.83
		c-1.22-0.1-0.71,1.22-1.42,1.83C523.01,332.74,521.12,329.29,521.56,329.29z M514.87,331.19c0.8-0.9,1.71-1.91,2.61-2.91
		c2.85,0.09,2.5,2.51,3.61,4.41c0.42,0.72,0.41,0.19-1.11,0.29c-1.64,0.12,0.16-2.9-1.9-3.58c-1.52,0.61-0.51,2.13-1.12,3.25
		C514.95,332.84,514.77,331.29,514.87,331.19z M554.43,120.49c0.41,0.92,1.32,1.41,0.3,2.03
		C553.82,122.21,554.02,121.5,554.43,120.49z M535.14,156.93c-1.97-1.94,0.15-16.65,0.19-16.75c0.62-1.5,1.66-1.77,2.14-6.9
		c0.69-7.45,4.46-3.66,0.91-8.44c-0.81-0.3-2.03,0-2.54-1.22c1.36-0.78,1.97,0.05,2.48,1.1c0.19,0.4,0.72-0.33,1.99,0.94
		c0.1,0,0.72,0.68,1.32,1.12c1.47-0.84-1.34-2.08,4.77-2.16c4.18-0.06,4.32,2.02,6.37,2c2.23-0.02,2.85-3.44,10.27-1.46
		c0.62,3.09,0.99,0.61,1.52,0.61c0.82-0.19,10.7,17.27,7.21,28.22c-1.16,3.64-2.54,7.11-2.74,10.96
		c-0.44,3.52-7.29,11.84-12.29,11.98c-2.93,0.08-3.89-1.55-8.71-0.1C537.44,171.93,541.93,163.6,535.14,156.93z M571.58,212.05
		c-1.25,7.33-11.12,6.86-18.47,5.68c-9.03-1.44-12.78-20.89-12.38-27.31c0.51-8.32-4.9-9.99-2.86-21.52
		c0.07-0.21-0.19-0.28,1.15,1.77c4.83,7.39,4.11,4.97,9.63,8.08c1.78,0.2,3.46-0.81,5.08-0.41c0.21,0.42,0.58,1.12,0.81,1.42
		c1.22-1.62,3.05-0.91,4.47-0.91c12.2-7.97,12.89-18.07,12.89-7.71c0,8.47,1.45,8.64-1.73,14.72c-0.84,1.61-1.49,3.37-1.83,5.38
		c0.71-1.06,2.85-4.4,3.05-4.67C571.9,191.1,574.99,192.13,571.58,212.05z M646.6,554.84c5.39,0.24,7.54-2.47,7.22,1.52
		c-6.82,0.3-6.56,3.23-7.53,0.95C645.89,556.4,646.21,555.68,646.6,554.84z"/>
	<path d="M676.54,594.22l0.1-0.1C676.41,594.12,676.49,594.12,676.54,594.22z"/>
	<path d="M592.29,222l-0.1-0.1C592.19,221.95,592.24,221.97,592.29,222z"/>
	<path d="M594.73,21.42l0.41-0.1C594.74,21.32,594.73,21.18,594.73,21.42z"/>
	<path d="M590.67,38.17c0.24,0.13,0.1,0.1,0.2,0.1C590.87,38.14,590.95,38.13,590.67,38.17z"/>
	<path d="M594.84,20.7C594.94,20.63,594.9,20.53,594.84,20.7L594.84,20.7z"/>
	<path d="M583.66,33.7c-3.86,0.2-4.16,0.3-6.39,2.33c6.5,6.5,14.11,11.27,22.43,14.72c3.03,25.73,5.39,13.34,3.76,34.51
		c-0.68,8.82-2.82,20.76,2.13,28.73c-0.51,0.61-1.22-0.3-1.62,0.51c-0.2,0.81-0.71,1.73,0.51,2.74c1.16-3.18,4.15,0.77,2.33-6.5
		c-2.04-8.16-0.81-7.81-0.81-34.31c0-11.27-2.94-15.71-2.94-25.07c0.61-1.02,2.03-0.91,2.64-2.33c-5.65,1.83-16.92-4.88-20-8.12
		c-1.73-1.82-3.55-3.65-6.19-4.36c4.48-3.64,7.31,3.88,11.98,2.94c-0.28-0.47-0.47-0.84-0.66-1.22c-4.19,0,0.35-2.61-3.2-1.73
		c-3.12-7.28-7.08-6.12-15.12-17.56c-1-1.43-2.23-2.84-2.84-4.67c3.74-0.98,11.44,10.86,14.72,10.86c-1.93-2.84-5.13-4.65-6.19-8.22
		c-0.96-3.23-3.96-5.79-3.25-9.95c4.56,3.48,4.01,8.65,14.52,18.07c1.99-0.15,5.71-1.67,2.74-1.62c-6.32,0.09-6.46-5.55-10.35-12.79
		c-2.15-3.99-0.23-4.63,2.44-0.2c1.85,3.07,6.86,10.53,10.47,10.82c0.02-0.31,0.06-0.49,0.1-0.58c-0.26,0.16-1.47,0.08-5.69-5.07
		c-3.88-4.73-4.45-9.73-9.24-10.15c-2.47,3.04,2.48,5.65,2.84,9.95c-1.74-0.95-4.85-11.32-9.64-9.64c0,6.97,3.15,7.7,3.45,11.06
		c-2.74-1.52-4.16-6.19-8.22-3.05C568.69,20.98,582.3,30.08,583.66,33.7z"/>
	<path d="M425.21,589.15c3-11.16,5.06-8.55,9.64-15.33c3.93-5.8,2.19,1.98,11.37-0.81c-2.64-2.13-5.89-1.93-9.02-1.73
		c0.54-0.54,0.49-1.22,1.21-1.42c8.53,0.71,8.53,0.71,10.15-0.71c-3.05-1.22-6.29-0.41-9.24-1.12c0.52-3.38,10.06,1.6,11.47-1.22
		c-3.35-2.13-7-1.32-10.66-1.42c0.88-1.87,1.49-1.68,10.66-0.91c5.6,0-2.07-3.29-9.64-1.62c1.33-1.55-0.89-2.39,12.99-0.3
		c-1.32-2.13-5.08-3.89-7.41-3.35c-1.63,0.38-3.15,0.81-4.47-0.3c-5.19,4.93-7.19,14.09-14.01,19.59
		c-6.92,5.58-5.44,17.69-1.42,15.43C426.02,592.39,424.69,591.07,425.21,589.15z"/>
	<path d="M679.69,576.96c-6.92-6.13-8.53-15.14-13.2-18.98c-1.83,0.81-1.82,0.8-4.36,0.3c-2.3-0.45-7.74,1.64-7.31,3.35
		c11.51-1.53,11.94-1.93,12.38,0.61c-2.03-0.81-3.97-0.94-5.79-0.41c-1.63,0.48-3.86-0.51-5.58,1.93
		c10.74-0.41,11.4-1.37,12.89,0.91c-8.63-0.1-9.03,0-10.46,2.03c2.68,1.56,11.81-2.75,11.17,0.81c-2.94,0.61-6.19-0.3-9.64,1.52
		c4.16,1.93,7.61,0,10.96,0.2c2.44,4.07,17.85,16.97,11.06,23.75C685.34,595.82,688.32,584.61,679.69,576.96z"/>
	<path d="M604.07,119.68c0.19-0.61,0.1-1.12-1.02-1.52c-6.19,12.59-9.85,25.78-8.53,39.99c2.33-3.33,0.01-5.83,2.33-13.5
		c2.3-7.59,2.9-15.7,6.6-22.94C603.77,121.1,603.85,120.38,604.07,119.68z"/>
	<path d="M511.59,177.54c0,26.13-1.24,26.6,1.83,35.12c-0.2-2.23,0.72-4.26,0.61-6.5c-0.29-6.09-1.28-12.08-0.61-18.27
		C513.63,185.95,514.04,177.74,511.59,177.54z"/>
	<path d="M531.49,19.79c7.02-7.34,6.17-9.9,9.74-10.66c-0.22,5.1-9.52,11.51-10.35,18.98c1.93-1.93,2.31-4.28,3.76-6.09
		c2.69-3.36,10.41-12.81,6.29-14.31C534.93,10.44,525.71,25.82,531.49,19.79z"/>
	<path d="M527.43,36.34c1.42,0.51,2.94-0.2,4.16,0.51c7.21-5.79,8.12-6.19,11.88-4.67c-2.74,0.91-5.28,1.62-6.8,3.45
		c-8.74,9.03-12.08,8.35-10.46,10.15c13.23-10.02,11.66-10.79,17.15-11.77c0.81-0.2,1.73-0.1,2.03-1.12
		C540.59,24.04,535.21,35.37,527.43,36.34z"/>
	<path d="M595.13,21.42c0.99,1.65,0.96,1.24,2.64-0.1c-1.02-4.36-2.94-8.32-4.57-12.79c2.13,0.41,2.54,1.93,3.05,3.25
		c0.6,1.57,3.77,9.32,6.19,9.54c-1.42-4.47-4.16-7.92-5.79-11.98c-0.61-1.52-2.13-2.54-3.76-2.64c-2.72,1.99-0.08,2.8,3.65,14.31
		C595.43,21.39,594.76,21.42,595.13,21.42z"/>
	<path d="M571.79,408.46c4.82,0.22,18.17-1.15,18.37-2.74c-7.31-0.61-14.62,1.32-22.33-0.51
		C568.64,407.75,569.96,408.38,571.79,408.46z"/>
	<path d="M521.64,351.21c3.05-4.26,6.19-7.92,6.6-12.99c-1.93-0.61-1.93-0.61-3.55,0.3c-0.41,0.81,0.61,0.91,0.61,1.12
		C524.79,343.8,521.34,346.54,521.64,351.21z"/>
	<path d="M567.93,396.18c7.41-0.71,14.31-3.86,21.42-5.89c-7.21,0.3-13.9,3.06-20.81,4.47
		C568.03,394.86,567.83,395.27,567.93,396.18z"/>
	<path d="M607.31,186.26c1.73-3.45,4.26-6.29,6.19-10.15C608.84,178.75,606.2,183.02,607.31,186.26z"/>
	<path d="M567.93,275.39c6.09,4.16,12.08,8.53,18.78,11.47C580.62,282.8,574.63,278.53,567.93,275.39z"/>
	<path d="M615.13,459.83c2.54,1.22,3.55,3.96,5.99,5.68c0.61-3.96-2.13-5.48-4.36-7.11c-0.41-1.42-0.51-2.94-1.62-3.96
		C613.51,456.17,615.23,457.9,615.13,459.83z"/>
	<path d="M493.63,455.05v0.2c-1.42,0.91-1.12,2.74-1.83,3.96c-3.96,2.84-4.67,3.96-3.76,6.9c1.83-2.13,3.45-4.26,5.58-5.99
		C493.42,458.4,495.05,456.78,493.63,455.05z"/>
	<path d="M493.63,454.95l0.1,0.2C493.84,454.89,493.8,454.93,493.63,454.95z"/>
	<path d="M500.93,454.04c-2.13-0.61-3.76-1.42-5.68-1.42c-0.91-1.42-1.83-2.74-3.76-2.74c0,2.32,2.75,3.46,2.3,5.06
		C496.08,454.72,498.46,455.92,500.93,454.04z"/>
	<path d="M493.93,170.43c-5.58-6.5-5.58-6.5-8.43-6.19C488.96,168.91,491.09,170.43,493.93,170.43z"/>
	<path d="M556.66,288.89c0.2,4.47,2.33,8.93,0.41,13.5C559.91,299.85,559.81,295.38,556.66,288.89z"/>
	<path d="M477.49,461.55c-0.81-0.41-1.22-0.2-1.52,0.2c0.22-0.22-0.96,8.02,1.02,11.98C477.18,469.67,477.28,465.51,477.49,461.55z"
		/>
	<path d="M544.38,393.95c0.1-0.61,0.2-0.91,0.3-1.22c-4.97-1.42-9.85-0.41-14.82,0.51C534.74,393.85,539.61,392.43,544.38,393.95z"
		/>
	<path d="M613.3,142.52c0.71-3.86,1.22-7.92,0.91-12.28C612.49,132.47,611.98,139.17,613.3,142.52z"/>
	<path d="M558.18,400.75c-0.91-7.11-0.71-14.21-0.91-21.32C556.56,386.54,556.36,393.64,558.18,400.75z"/>
	<path d="M610.26,151.55c2.64-1.93,3.55-5.18,2.03-7.51C610.16,146.47,609.65,148.3,610.26,151.55z"/>
	<path d="M671.47,570.57c-5.38-0.51-7.92,0.1-9.14,2.44C668.05,573.01,672.97,571.32,671.47,570.57z"/>
	<path d="M495.86,133.99c-1.02,3.35,0.1,7.11,2.84,9.95c0.1-1.73-0.95-3.24-1.32-4.97C497.04,137.35,498.09,135.21,495.86,133.99z"
		/>
	<path d="M559.91,310.31c-0.71,2.03-0.14,3.66,0,5.18c0.16,1.73-1.02,3.35-0.2,5.18C561.94,317.51,562.04,315.28,559.91,310.31z"/>
	<path d="M553.52,407.45c-4.77,1.02-8.93,1.62-13.5,3.45C546.41,410.7,551.38,409.48,553.52,407.45z"/>
	<path d="M501.65,152.36l0.1-0.1C501.62,152.23,501.65,152.21,501.65,152.36z"/>
	<path d="M501.65,152.24c0-3.62,0.14-9.48-3.05-8.2C500.52,151.73,500.12,151.91,501.65,152.24z"/>
	<path d="M569.96,372.33c11.68-0.87-0.69,0.72,14.52-1.93C582.49,370.45,571.1,370.68,569.96,372.33z"/>
	<path d="M558.29,273.15c0.71,4.57-0.91,7.92-2.54,12.08C559.81,280.67,560.52,277.42,558.29,273.15z"/>
	<path d="M444.5,574.53c-14.02-1.08-8.75,1.52-0.71,1.52C444.29,576.05,444.8,575.54,444.5,574.53z"/>
	<path d="M664.16,574.43c2.94,1.52,5.68,0.81,8.53-0.41C669.84,573.31,667,573.51,664.16,574.43z"/>
	<path d="M615.74,392.83l0.1-0.1C615.59,392.31,615.66,392.34,615.74,392.83z"/>
	<path d="M513.93,175.71c0.91-1.62,0.4-3.25,0.51-4.87C515.05,161.81,510.96,170.56,513.93,175.71z"/>
	<path d="M628.33,456.68c-3.35-0.26-8.08,1.26-6.09,3.25C627.11,458.2,627.11,458.2,628.33,456.68z"/>
	<path d="M480.53,457.29c-0.45,0.91-1.12,0.4,5.89,3.55C488.42,458.18,482.56,456.84,480.53,457.29z"/>
	<path d="M580.01,417.4c-2.33-3.05-5.89-3.86-9.24-5.18C573.11,415.26,577.06,415.37,580.01,417.4z"/>
	<path d="M550.47,275.59c1.2-1.64,3.05-2.74,3.86-4.77c-4.29,2.78-10.38,11.76-10.43,12.7c-0.01,0-0.01-0.01-0.02-0.01
		c-1.02,0.81-1.32,2.03-1.62,3.25c1.01-0.81,2.23-2.85,1.77-3.18C544.48,283.35,546.36,281.17,550.47,275.59z"/>
	<path d="M494.74,153.58c2.03,3.35,3.76,6.09,5.79,9.54C499.72,158.86,497.59,155.2,494.74,153.58z"/>
	<path d="M488.04,121.61c0.9,2.61,3.99,6.92,5.79,4.87C493.02,124.04,490.58,123.33,488.04,121.61z"/>
	<path d="M486.62,485.1c-2.23,2.13-3.15,4.97-4.06,7.71C484.69,490.68,486.01,488.04,486.62,485.1z"/>
	<path d="M626.3,492.1c-1.12-2.74-1.93-5.58-4.16-7.71C622.74,487.44,624.06,489.97,626.3,492.1z"/>
	<path d="M516.57,223.11c-1.02-2.13-0.41-4.36-2.33-6.39C513.52,220.68,513.83,221.49,516.57,223.11z"/>
	<path d="M538.59,338.02c1.22,3.76,0,7.41,1.02,11.06C539.07,342.13,542.71,339.09,538.59,338.02z"/>
	<path d="M628.43,499.92c2.03,3.05,2.84,5.89,3.86,8.73C632.69,505.1,631.47,502.46,628.43,499.92z"/>
	<path d="M479.72,501.04c-2.03,2.33-3.86,4.87-3.35,8.32C477.59,506.72,478.2,503.68,479.72,501.04z"/>
	<path d="M544.79,392.73c1.87,1,2.88,0.31,10.15,1.22C552.91,392.83,547.42,392.32,544.79,392.73z"/>
	<path d="M600.72,259.45c-1.93,2.13-3.96,4.26-5.89,6.39C599.9,263.11,601.22,261.38,600.72,259.45z"/>
	<path d="M608.74,194.59c-2.03-1.22-3.96-1.32-5.99,0.71C605.18,196.31,606.91,194.69,608.74,194.59z"/>
	<path d="M519.82,220.88c-1.73-2.23-3.05-4.77-4.47-7.21C515.35,217.02,516.97,219.36,519.82,220.88z"/>
	<path d="M609.55,435.16c2.33-2.33,2.44-5.28,2.64-8.32C610.69,433.07,607.68,434.33,609.55,435.16z"/>
	<path d="M550.17,334.36c-2.13,1.62-2.03,4.36-2.03,7C551.26,333.73,551.34,334.75,550.17,334.36z"/>
	<path d="M601.93,196.42c-1.02,2.54-1.52,5.08-1.52,7.71C601.33,201.59,602.44,199.16,601.93,196.42z"/>
	<path d="M500.12,118.66c1.83-1.12,3.55-2.33,4.36-4.57C500.44,117.06,498.47,117.92,500.12,118.66z"/>
	<path d="M517.78,335.89c-0.3,2.54-2.64,3.86-3.35,6.29C518.6,338.53,518.8,338.02,517.78,335.89z"/>
	<path d="M487.64,147.08c0.81,2.54,1.73,3.45,4.97,5.08c0.2-0.2,0.41-0.41,0.61-0.61C487.53,146.22,488.33,147.08,487.64,147.08z"/>
	<path d="M440.84,577.17c-1.73,0.1-3.35-0.1-5.38-0.51C438.1,579.1,438.51,579.1,440.84,577.17z"/>
	<path d="M583.36,334.36c-1.22,2.03-1.22,3.86-0.91,5.68C583.05,338.32,584.17,336.8,583.36,334.36z"/>
	<path d="M673.6,575.75c-2.23,0.91-3.96,0.51-6.29,0.71C670.35,578.39,670.76,578.39,673.6,575.75z"/>
	<path d="M623.96,469.77c-1.42-0.71-2.13-2.44-4.16-3.15C620.51,469.06,621.73,470.08,623.96,469.77z"/>
	<path d="M488.25,467.34c-0.71,1.62-2.74,1.83-3.65,3.35C487.84,470.28,487.94,470.28,488.25,467.34z"/>
	<path d="M608.84,117.85c0.51,1.62,1.42,2.84,3.55,3.45C611.37,119.58,610.46,118.36,608.84,117.85z"/>
	<path d="M498.19,405.22c-1.93,0-3.15-1.22-4.57-2.23C495.05,405.82,495.05,405.82,498.19,405.22z"/>
	<path d="M595.23,332.23c0,2.23,0.71,3.86,2.03,6.09C596.96,335.78,597.16,333.86,595.23,332.23z"/>
	<path d="M597.98,368.57c4.81-4.12,4.22-3.7,3.65-4.26C598.71,367.02,596.44,368.57,597.98,368.57z"/>
	<path d="M512,341.98c-1.32,2.33-1.22,4.06-1.32,5.79C511.39,346.14,512.3,344.62,512,341.98z"/>
	<path d="M614.93,421.66c-1.42,2.13-2.74,3.35-2.64,5.28C613.4,425.62,614.83,424.5,614.93,421.66z"/>
	<path d="M603.36,363.39c1.52-0.71,3.05-1.52,3.65-3.65C605.18,360.55,604.57,362.38,603.36,363.39z"/>
	<path d="M611.48,47.4c-0.2,2.03,0.81,3.15,1.83,4.26C613.3,50.14,613.2,48.62,611.48,47.4z"/>
	<path d="M613.4,400.24c1.12,1.02,2.33,1.93,3.96,2.03C616.25,401.05,614.93,400.44,613.4,400.24z"/>
	<path d="M613.4,175.2c1.12-0.91,1.52-1.93,1.62-3.15C613.91,172.66,612.69,173.17,613.4,175.2z"/>
	<path d="M608.33,43.65c-1.12,0.91-2.03,1.93-2.44,4.06C607.72,46.49,607.92,44.97,608.33,43.65z"/>
	<path d="M611.88,191.44c-0.51-0.91-0.3-2.44-2.54-3.05C609.95,190.12,610.66,190.93,611.88,191.44z"/>
	<path d="M508.85,192.15c1.62-1.52,1.93-3.05,2.64-4.36C509.46,188.3,509.36,190.02,508.85,192.15z"/>
	<path d="M530.17,29.74c-0.2,1.42-0.41,2.74,0.41,4.67C531.08,32.28,530.57,30.96,530.17,29.74z"/>
	<path d="M514.44,154.29c-1.02,1.12-1.02,2.23-0.71,3.45C514.44,156.73,515.15,155.81,514.44,154.29z"/>
	<path d="M497.79,174.29c-0.51-1.32-1.12-2.23-2.44-2.44C495.76,172.97,496.16,174.08,497.79,174.29z"/>
	<path d="M569.45,384.61c1.22-0.1,2.44-0.51,3.15-1.62C571.48,383.29,570.26,383.49,569.45,384.61z"/>
	<path d="M619.6,164.95c-1.22,1.62-1.22,1.62-0.91,3.25C619.49,167.28,619.7,166.17,619.6,164.95z"/>
	<path d="M605.79,163.63c-1.22,1.52-0.3,2.44,0.51,4.06C606.4,165.86,607.01,164.75,605.79,163.63z"/>
	<path d="M512.91,42.23c0.81-1.02,1.42-2.03,1.22-3.86C513.01,39.69,512.71,40.81,512.91,42.23z"/>
	<path d="M596.05,369.38c-0.91,0.81-1.83,1.52-2.74,2.33C594.73,371.51,595.64,370.8,596.05,369.38z"/>
	<path d="M596.45,38.17c1.32-0.2,2.13-0.3,3.45-1.32C598.38,37.05,597.26,36.44,596.45,38.17z"/>
	<path d="M615.74,392.83c0.1,1.12,0.2,2.33,0.3,3.55C616.65,395.06,616.86,393.85,615.74,392.83z"/>
	<path d="M590.88,38.15c1.05-0.1,2.07-0.24,2.83-1.2C592.18,36.34,591,36.48,590.88,38.15z"/>
	<path d="M556.97,354.66c0.15,1.49,0.21,2.9,0.22,3.48c-0.01-0.46-0.02-1.53-0.02-3.48C557.17,354.66,557.07,354.66,556.97,354.66z"
		/>
	<path d="M557.19,358.14C557.2,358.54,557.2,358.49,557.19,358.14L557.19,358.14z"/>
	<path d="M501.54,152.36c-0.2,1.32,0.3,2.54,1.12,3.86C503.17,154.59,502.56,153.38,501.54,152.36z"/>
	<path d="M486.72,117.54c0.61,1.22,1.32,1.22,2.64,0.41C488.45,117.44,488.04,116.73,486.72,117.54z"/>
	<path d="M565.19,266.35c3.77,6.19,10.43,11.63,12.99,12.18C576.35,275.79,577.84,279.39,565.19,266.35z"/>
	<path d="M609.14,156.42c1.81-2.58-0.24-2.59-0.51-1.02C608.63,155.81,608.53,156.32,609.14,156.42z"/>
	<path d="M520.22,230.32c-0.61-1.52-1.12-2.23-2.44-2.33C518.09,229.3,518.8,229.81,520.22,230.32z"/>
	<path d="M513.52,164.03c1.02-0.81,0.91-1.52,0-2.33C512.71,162.61,512.81,163.22,513.52,164.03z"/>
	<path d="M622.54,124.55c-0.71,1.12,0,1.42,0.71,1.93C623.55,125.56,623.66,124.95,622.54,124.55z"/>
	<path d="M677.35,594.22c1.12,0.81,2.44,0.2,3.65,0C679.79,594.22,678.57,594.22,677.35,594.22z"/>
	<path d="M500.83,381.67c-1.62-0.2-2.64-0.41-3.25,0.81C498.7,382.88,499.41,382.07,500.83,381.67z"/>
	<path d="M619.19,481.95c-0.3-1.12-0.71-1.52-1.83-1.83C617.77,481.14,618.28,481.55,619.19,481.95z"/>
	<path d="M489.87,482.56c0.61-0.3,1.12-0.71,1.12-1.52C490.68,481.55,489.36,481.45,489.87,482.56z"/>
	<path d="M537.07,360.45c0.61,0.41,1.32,0.3,2.03,0.2C538.39,360.35,537.78,360.25,537.07,360.45z"/>
	<path d="M556.46,350.91c0.04-0.3,0.22-2.03,0-2.03C556.46,349.59,556.46,350.2,556.46,350.91z"/>
	<path d="M514.54,45.68c-0.2-0.41-0.51-0.71-1.32-0.71C513.52,45.78,513.93,46.08,514.54,45.68z"/>
	<path d="M506.21,113.28c0.71-0.2,1.02-0.51,0.3-1.12C505.81,112.37,505.81,112.77,506.21,113.28z"/>
	<path d="M593.92,39.38c0,1.26,1.61,0.39,1.02-0.2C594.63,38.88,594.22,38.98,593.92,39.38z"/>
	<path d="M502.76,162.11c0-0.51,0.91-1.12,0-1.52C502.25,161.09,502.15,161.6,502.76,162.11z"/>
	<path d="M545.5,383.8c-1.22-0.1-1.93-0.1-2.74-0.2C543.36,384.51,544.18,384.2,545.5,383.8z"/>
	<path d="M540.52,383.29c0.71,0.3,1.52,0.3,2.23,0.2C542.05,382.88,541.33,382.88,540.52,383.29z"/>
	<path d="M499.92,376.79c0.61,0.2,0.81-0.3,1.12-0.61C500.53,376.18,500.12,376.39,499.92,376.79z"/>
	<path d="M610.66,378.01l0.07-0.07c-0.37,0.48,1.56,8.93,4.94,14.49c-0.59-3.79-2.5-7.04-3.38-10.67c-0.9-2.92-1.4-3.98-1.55-3.83
		l0.03-0.03C610.68,377.85,610.66,377.72,610.66,378.01z"/>
	<path d="M609.95,375.17c0.29,0.87-0.06,1.93,0.72,2.65C610.7,376.85,610.91,375.84,609.95,375.17z"/>
	<path d="M590.67,374.46c0.61-0.41,1.02-0.71,1.42-1.02C591.38,373.34,590.77,373.44,590.67,374.46z"/>
	<path d="M610.05,375.07c-0.1-0.61,0-1.32-0.41-2.13C609.34,373.75,609.45,374.46,610.05,375.07z"/>
	<path d="M548.03,423.79c-0.16,0.16-0.32,0.32-0.41,0.41C547.53,424.5,548.14,424.5,548.03,423.79z"/>
	<path d="M511.19,29.54c0.51,0,0.81-0.3,1.12-0.71C511.59,28.62,511.19,28.83,511.19,29.54z"/>
	<path d="M517.99,277.72c0.3,0.41,0.61,0.71,1.52,0.61C519.15,276.9,517.61,276.96,517.99,277.72z"/>
	<path d="M593.1,222c0.3-0.61,1.02-0.91,1.02-2.03C593.31,220.68,593.2,221.28,593.1,222z"/>
	<path d="M634.42,478.3c-0.61,0.91-0.41,1.32,0.1,2.03C634.92,479.52,635.13,478.91,634.42,478.3z"/>
	<path d="M474.24,480.94c0.71-0.61,0.71-1.22,0.1-1.83C473.63,479.82,473.83,480.33,474.24,480.94z"/>
	<path d="M613.4,55.32c-0.71,0.81-0.41,1.12,0.51,1.22C614.32,55.83,614.11,55.42,613.4,55.32z"/>
	<path d="M294.67,384.71c1.34-16.84-0.75-9.25-1.22-3.05c-0.99,13.25,2.13,10.52,2.13,14.72c0,8.43-0.2,16.75-3.05,24.77
		c1.12-1.42,1.96-2.83,2.33-4.67C300.29,389.76,293.76,396.18,294.67,384.71z"/>
	<path d="M247.68,369.28c6.6-0.51,17.56-18.88,18.58-28.02C259.23,354.23,256.19,362.36,247.68,369.28z"/>
	<path d="M324.92,425.62c0.58-1.28,0.61-9.29,2.13-13.91c1.52-4.64,5.08-14.38,5.08-18.98
		C331.66,393.67,321.13,421.36,324.92,425.62z"/>
	<path d="M259.25,322.99c-2.33,3.05-3.86,6.19-6.09,8.93c-2.55,3.15-7.3,7.02-5.89,8.43C250.54,337.36,262.02,326.46,259.25,322.99z
		"/>
	<path d="M303.1,408.56c1.93-7.41,7.11-11.06,14.31-12.59C308.17,395.37,300.86,401.97,303.1,408.56z"/>
	<path d="M322.08,353.95c-0.2-2.17-9.95-26.15-10.35-26.7C313.55,336.8,318.02,345.33,322.08,353.95z"/>
	<path d="M277.82,328.37c-2.13,5.58-4.67,11.06-5.99,16.85c4.22-10.8,10.67-21.26,6.5-20.91
		C276.71,325.53,277.42,327.05,277.82,328.37z"/>
	<path d="M279.45,380.24c-6.69-7.56-18.5-5.7-16.24-1.83C266.57,373.66,274.2,377.86,279.45,380.24z"/>
	<path d="M247.78,316.9c1.04-1.78,0.42-6.72,1.73-7.92c-0.64,0.64,0.83-1.55-1.22-1.83c-2.03,2.64-1.73,5.89-1.93,8.93
		C246.36,316.7,246.86,317.11,247.78,316.9z"/>
	<path d="M224.73,236.31c3.55-5.08,4.67-7.92,3.76-10.25C226.66,229.2,225.24,232.15,224.73,236.31z"/>
	<path d="M322.18,334.97c2.64,2.13,5.08,4.16,7.41,6.09C328.37,337.61,324.92,334.97,322.18,334.97z"/>
	<path d="M285.13,323.3c3.86-0.61,7.82,1.22,11.57-0.91C292.74,321.47,288.99,322.59,285.13,323.3z"/>
	<path d="M288.18,327.05c-0.3,3.86-1.83,7.61-0.91,11.57C287.77,334.77,289.19,331.01,288.18,327.05z"/>
	<path d="M224.63,246.66c1.52-2.64,0.51-5.58,1.42-8.22C224.33,240.98,224.02,243.72,224.63,246.66z"/>
	<path d="M265.95,334.67c1.32-2.94,3.65-5.58,4.06-9.14C268.18,328.37,266.56,331.22,265.95,334.67z"/>
	<path d="M265.64,416.48c2.94,1.12,5.28,1.12,7.51,1.22C271.12,415.77,268.79,416.08,265.64,416.48z"/>
	<path d="M270.01,389.18c-0.51-3.86-3.86-3.15-6.29-3.86C265.44,387.15,268.69,386.54,270.01,389.18z"/>
	<path d="M285.23,372.73c-0.2,2.33-1.42,4.47-1.22,7.21C286.15,377.61,285.74,375.17,285.23,372.73z"/>
	<path d="M243.92,205.65c-1.12,1.62-1.83,3.45-2.13,6.19C243.92,209.51,244.12,208.8,243.92,205.65z"/>
	<path d="M306.96,386.13c0.91-2.54,1.83-5.08,2.74-7.61C308.13,380.43,305.08,386.13,306.96,386.13z"/>
	<path d="M269.7,398.11c1.83,0,3.55,1.52,6.39,0.41C273.46,397.81,271.63,397.09,269.7,398.11z"/>
	<path d="M287.67,381.67c-3.05,0.41-4.26,0.81-6.7,2.74C283.61,384.3,285.54,383.09,287.67,381.67z"/>
	<path d="M275.39,403.79c2.54,0.41,2.54,0.41,4.06-1.02C277.82,402.68,276.6,402.68,275.39,403.79z"/>
	<path d="M289.68,423.37c-0.17,1.22-1.31,2.46-0.18,3.87C290.15,425.84,289.61,424.52,289.68,423.37z"/>
	<path d="M278.33,321.88c-1.52,0.51-3.25-0.61-4.77,0.81C279.39,322.33,278.33,323.12,278.33,321.88z"/>
	<path d="M247.27,194.99c-0.81,0.91-0.91,1.62-0.41,2.54C247.88,196.92,248.08,196.21,247.27,194.99z"/>
	<path d="M284.32,369.69c0.81,1.52,1.73,1.12,2.74,0.1C286.15,369.38,285.33,369.28,284.32,369.69z"/>
	<path d="M234.38,264.12c-0.3-1.42-0.71-2.33-2.13-3.05C232.65,262.6,233.16,263.31,234.38,264.12z"/>
	<path d="M232.35,328.17c-0.71,1.52-0.2,2.44,0.51,3.55C233.36,330.4,233.26,329.39,232.35,328.17z"/>
	<path d="M298.53,317.82c-0.61,0.91-0.61,0.91,0.2,1.83C298.73,318.93,299.34,318.33,298.53,317.82z"/>
	<path d="M257.42,320.56c-0.41-0.81-1.02-1.02-2.33-0.3C256.1,320.76,256.51,321.78,257.42,320.56z"/>
	<path d="M245.95,200.07c-0.81,0.91-1.22,1.42-0.51,2.33C246.36,202,246.56,201.39,245.95,200.07z"/>
	<path d="M232.65,326.45c0.26-0.77,0.72-1.65-0.61-2.03C231.94,325.13,231.54,325.84,232.65,326.45z"/>
	<path d="M273.56,322.59c-1.22,0-2.44,0-3.65,0.41C271.12,322.79,272.44,323.5,273.56,322.59z"/>
	<path d="M236.71,372.12c0.1,1.32,0.2,2.13,1.22,2.33C238.03,373.54,237.63,372.83,236.71,372.12z"/>
	<path d="M287.87,362.18c0.71,0.41,1.32,0.1,1.83-0.3C289.09,361.87,288.38,361.36,287.87,362.18z"/>
	<path d="M279.35,409.88c-2.01,0,0.02,1.11,1.42,0.41C280.26,409.78,279.85,409.78,279.35,409.88z"/>
	<path d="M328.17,346.24c0.81,0.71,1.42,1.42,2.54,0.91C330.2,346.24,329.59,345.83,328.17,346.24z"/>
	<path d="M231.33,319.24c0,0.61-0.3,1.12,1.32,1.62C231.74,320.25,232.55,319.54,231.33,319.24z"/>
	<path d="M281.07,320.36c0.2-0.99,0.54-2.1-0.41-2.23C280.48,318.67,279.58,319.29,281.07,320.36z"/>
	<path d="M225.34,250.32c1.02-0.61,0.71-1.22,0.41-2.13C224.63,248.79,224.53,249.4,225.34,250.32z"/>
	<path d="M233.46,187.79c-0.71,0.61-1.32,0.91-0.81,1.83C233.16,189.21,233.87,188.9,233.46,187.79z"/>
	<path d="M288.08,191.24c3.11,2.88,5.54,0.77,9.03-2.64c-1.52,0.71-3.05,1.42-4.16,1.83C291.02,190.73,289.29,189.21,288.08,191.24z
		"/>
	<path d="M309.59,271.17c1.09-2.19-4.95,0.86-5.17,0.86c-1.62,0.71-3.55-0.61-5.28,0.2C299.41,275.79,308.95,272.77,309.59,271.17z"
		/>
	<path d="M259.86,259.25c-4.44-1.16-4.42-3.55-6.7-3.14c1.62,2.74,2.23,3.05,9.24,4.87C262.19,259.45,260.98,259.54,259.86,259.25z"
		/>
	<path d="M288.99,213.77c-1.58-0.63-5.66-1.62-10.46-1.62C281.24,213.09,286.48,214.5,288.99,213.77z"/>
	<path d="M291.02,173.58c2.03-2.44,3.55-4.77,4.47-7.41C292.14,169.11,291.02,171.04,291.02,173.58z"/>
	<path d="M333.35,239.35c-2.58,2.15-4.99,4-6.19,7.21C329.29,244.23,332.43,242.7,333.35,239.35z"/>
	<path d="M279.65,272.95c3.47,1.26,5.85,2.27,8.51,0.33C288.83,272.8,289.8,272.95,279.65,272.95z"/>
	<path d="M293.45,265.95c-1.12,3.45-1.83,7-0.81,10.46C292.95,272.95,293.15,269.4,293.45,265.95z"/>
	<path d="M257.82,250.01c-1.83-1.02-2.74-3.35-6.09-3.35C253.53,248.82,255.11,250.28,257.82,250.01z"/>
	<path d="M298.94,218.75c-1.52-0.41-3.05-0.51-5.28,0.2C295.99,219.76,297.41,219.25,298.94,218.75z"/>
	<path d="M285.03,165.56c0.41,2.23,1.22,3.45,3.35,4.47C287.77,167.89,286.86,166.78,285.03,165.56z"/>
	<path d="M265.45,250.72c-1.32-1.22-2.94-0.71-4.16-1.42C262.01,251.16,263.5,250.98,265.45,250.72z"/>
	<path d="M292.85,300.76c0,8.73,0.3,8.49,0.3-0.1C292.79,300.66,292.85,300.63,292.85,300.76z"/>
	<path d="M279.95,186.26c-1.52-1.12-2.33-2.13-3.96-2.03C277.01,185.15,277.92,186.26,279.95,186.26z"/>
	<path d="M291.42,284.93c-0.1,2.64-0.1,2.64,1.12,5.08C292.85,288.08,292.03,286.45,291.42,284.93z"/>
	<path d="M302.39,291.83c1.73,0.2,2.94,0.3,4.97,0.61C305.43,291.12,304.32,290.31,302.39,291.83z"/>
	<path d="M263.31,261.79c2.13,1.83,2.13,1.83,4.26,1.42C266.05,263.42,265.45,261.38,263.31,261.79z"/>
	<path d="M323.35,235.4c-0.09,0.16-0.18,0.31-0.26,0.5C327.03,237.09,325.54,231.42,323.35,235.4z"/>
	<path d="M255.69,268.79c1.05,1.48,2.08,2.12,3.96,1.73C258.23,269.7,257.42,268.59,255.69,268.79z"/>
	<path d="M323.91,250.42c1.12-0.81,2.13-1.42,2.64-2.94C324.31,248.59,324.31,248.59,323.91,250.42z"/>
	<path d="M314.47,270.72c-1.1-0.81-2.08,0.01-3.65,0.41C312.54,271.94,313.55,271.84,314.47,270.72z"/>
	<path d="M258.94,239.15c0.56,1.22,1.52,1.19,2.94,1.02C260.78,239.27,260.18,238.33,258.94,239.15z"/>
	<path d="M294.06,212.75v0.02c1.49-0.76,1.45-2.97,0.19-1.19c-0.2,0.28-0.29,0.66-0.2,1.07c-0.17,0.01-1.06,0.26-1.51,2.53
		C293.65,214.22,294.06,213.7,294.06,212.75z"/>
	<path d="M326.44,257.73c1.32-0.97,2.56-1.59,2.13-3.05C327.46,255.19,327.05,256,326.44,257.73z"/>
	<path d="M306.65,182.1c0.63-0.3,1.83-0.19,1.62-1.42C307.56,180.89,306.85,181.19,306.65,182.1z"/>
	<path d="M273.47,178.01c-0.25-0.05-0.55,0.08-0.92,0.54C273.7,180.39,275.57,178.47,273.47,178.01z"/>
	<path d="M308.48,169.11c1.02-0.1,1.42-0.61,1.62-1.93C308.68,167.49,308.48,168.1,308.48,169.11z"/>
	<path d="M302.18,184.84c0.91-0.41,1.52-0.81,1.93-2.54C302.9,183.32,301.57,183.31,302.18,184.84z"/>
	<path d="M270.12,175.8c-2.14,0-0.28,2.99,1,0.01C270.73,175.84,270.43,175.8,270.12,175.8z"/>
	<path d="M308.58,174.08c0.2-0.51,1.42-0.81,0.41-1.73C308.07,172.76,308.07,173.27,308.58,174.08z"/>
	<path d="M296.91,290.82c0.41,1.02,0.91,1.52,1.83,1.42C298.63,291.32,298.12,291.02,296.91,290.82z"/>
	<path d="M277.62,271.12c-0.91,0.2-1.73,0.2-2.03,1.32C277.01,272.14,277.01,272.14,277.62,271.12z"/>
	<path d="M269.8,179.57c-0.31-0.19-0.61,0.09-0.61,0.41C268.8,181.14,271.39,180.36,269.8,179.57z"/>
	<path d="M348.67,327.56c-1.52,2.94-3.15,5.99-3.25,9.54C347.05,334.06,348.27,331.01,348.67,327.56z"/>
	<path d="M331.82,188.09c-1.02,2.69,0.83,4.72,1.52,6.9C333.75,189.21,333.75,189.21,331.82,188.09z"/>
	<path d="M340.76,213.98c-1.56,2.08-0.61,0.32-2.64,5.58C340.25,220.27,340.59,216.05,340.76,213.98z"/>
	<path d="M342.18,210.22c1.32-0.81,1.73-1.62,1.22-2.84C342.08,207.89,342.08,208.8,342.18,210.22z"/>
	<path d="M352.63,228.9c-0.73,0.92,0.3,3.07,0.68,0.78C353.31,229.41,353.4,229.1,352.63,228.9z"/>
	<path d="M350.31,322.75c-1.87,3.25,1.45,2.41,0.19-0.38C350.44,322.52,350.38,322.63,350.31,322.75z"/>
	<path d="M350.2,216.21c-1.22-1.12-1.22-1.12-2.13-1.12C348.47,215.7,348.88,216.11,350.2,216.21z"/>
	<path d="M262.09,453.63c1.35,2.4,3.45,1.69,5.76,2.16C273.04,456.86,276.52,452.47,262.09,453.63z"/>
	<path d="M278.63,471.19c-2.33,2.03-3.55,5.68-2.94,9.24C277.37,473.74,280.08,473.6,278.63,471.19z"/>
	<path d="M274.56,489.07c-0.45,1.86-0.5,3.55,0.51,5.17C274.49,492.68,275.98,490.96,274.56,489.07z"/>
	<path d="M274.67,482.45c-1.02,1.73-1.52,3.05,0.2,4.87C274.5,485.59,275.95,484.25,274.67,482.45z"/>
	<path d="M275.39,499.72c0.32-1.12,0.52-2.03,0.01-3.05C274.27,498.2,274.27,498.2,275.39,499.72z"/>
	<path d="M272.14,551.99c0.51-2.64,0.51-2.64-0.71-4.26C271.67,549.1,271.67,548.91,272.14,551.99z"/>
	<path d="M259.04,460.03c1.19,0.32,2.24,1.3,3.25-0.3C261.11,458.72,260.3,459.33,259.04,460.03z"/>
	<path d="M279.95,536.67c0.28-1,0.08-1.5-0.91-2.03C279.04,535.64,278.97,536.27,279.95,536.67z"/>
	<path d="M275.29,502.56c-0.34,0.55-0.22,1.03,0.2,1.52C275.89,503.37,276.71,502.97,275.29,502.56z"/>
	<path d="M276,507.84c-0.35,0.35-0.23,0.97,0.42,0.77C276.61,508.57,276.94,507.84,276,507.84z"/>
	<path d="M292.44,439.42c-0.52,3.36,0.2,4.06,4.57,8.22c5.21,4.97,2.22,0.66,2.13-0.1c4.29-0.9,7.09-3.68,9.42-7.24
		c1.02-1.55-3.02,4.48-11.97,4.69C294.72,445.04,292.71,440.01,292.44,439.42z"/>
	<path d="M312.13,443.99c0.91,4.68-0.07,9.48-2.23,13.7C313.84,454.22,316.85,442.22,312.13,443.99z"/>
	<path d="M298.02,473.63c-1.32,2.44-1.02,8.22,0.91,12.69C298.96,485.46,298.53,473.88,298.02,473.63z"/>
	<path d="M302.79,455.16c0.09-2.19,0.15-4.32-1.12-6.09C300.66,451.1,300.76,452.92,302.79,455.16z"/>
	<path d="M299,490.2c-0.99,4.44,2.51,12.28,0.24-0.73C299.14,489.67,299.06,489.92,299,490.2z"/>
	<path d="M301.58,506.64c-0.75,1.29,0.65,1.82,0.77,0.78C302.39,507.07,301.94,506.01,301.58,506.64z"/>
	<path d="M300.84,500.83c-0.74-0.07-0.24,1.13,0.63,1.42C301.38,501.55,301.61,500.91,300.84,500.83z"/>
	<path d="M286.76,125.87c-1.02-2.54-1.12-2.83-3.25-3.15c-3.79-0.56-7.1-1.43-10.15,1.62c1.67,0.58,2.53-0.71,4.26-1.02
		c1.32,1.32,3.65,0.61,5.18,2.23c-2.94,0.2-5.58,0.1-7.92,1.42C285.35,129.92,284.34,126.61,286.76,125.87z"/>
	<path d="M296.76,128.62c0.05,0.15,4.99,0.89,8.36-0.11c-2.49-0.95-5.07-2.12-7.71-2.23c1.79-1.07,4.17-0.31,5.79-1.32
		c0.67,0.15,1.16,0.59,1.79,1.02c1.16,0.78,2.31,0.54,2.06,0.29c-4.07-4.02-14.45-4.04-13.39,0.21
		C295.22,126.31,296.14,127.19,296.76,128.62z"/>
	<path d="M280.36,147.08c1.34,3.57,6.99,0.12,15.43,2.13c0.41,0.1,0.81-0.41,0.91-1.12C291.42,146.37,286.04,147.39,280.36,147.08z"
		/>
	<path d="M285.33,150.23c-6.03,4.22,2.92,2.72,8.22,2.83C291.22,148.5,287.87,151.14,285.33,150.23z"/>
	<path d="M292.03,142.4c-1.05-4.06-5.58-3.18-5.58-0.2C287.08,142.2,289.11,141.21,292.03,142.4z"/>
	<path d="M265.86,576.05c3.94,0.69,7.37,1.74,11.17,0.71C274.38,573.38,269.47,573.42,265.86,576.05z"/>
	<path d="M265.74,579.71c3.96,2.33,5.89,2.44,8.32-0.1C270.96,578.5,268.52,577.91,265.74,579.71z"/>
	<path d="M299.57,577.92c2.76,0.49,5.9,0.3,7.59-1.97C298.2,573.46,289.61,576.14,299.57,577.92z"/>
	<path d="M305.23,588.43c-6.5,0.51-9.64,1.62-11.17,4.36c3.55-1.42,6.8-2.84,10.15-3.55C304.52,589.33,323.16,599.76,305.23,588.43z
		"/>
	<path d="M299.14,578.59c4.34,5.4,7.54,1.6,5.96,0.59C303.37,578.07,301.19,579.04,299.14,578.59z"/>
	<path d="M545.6,138.86c-3.58-0.24-6.42-0.79-8.93,2.23c1.62,0.41,2.44-1.02,3.96-1.22c1.08,1.27,3.27,0.11,4.71,1.55
		c0.83,0.84-4.17-0.28-7.86,2.3c4.67,0,8.83,1.52,12.18-2.13C549.25,138.96,547.32,138.76,545.6,138.86z"/>
	<path d="M559.91,141.5c0.61-1.12,1.52-1.12,2.54-1.02c0.91,0.1,1.73-0.71,2.54-0.71c1.26,0.19,2.07,1.57,3.47,1.25
		c2.28-0.38-12.51-6.14-12.51,0.58c2.13,0.61,2.13,0.61,3.76,2.23C572.28,144.86,566.51,142.27,559.91,141.5z"/>
	<path d="M550.57,165.15c-1.63-0.27-2.54,0.71-2.94,2.23c2.54,0.91,6.9,0.71,9.34-0.3C555.65,163.12,552.7,165.5,550.57,165.15z"/>
	<path d="M557.59,162.07c-4.93,0.22-1.19-1.3-8.23,0.23c-1.42,0.31-3.36-1-4.67,0.91c1.48,0.95,2.74,0.64,6.12,0.27
		c6.2-0.67,6.58,0.29,7.92,0.27C560.22,163.75,561.56,161.89,557.59,162.07z"/>
	<path d="M555.03,156.94c-0.15-2.91-4.5-3.29-5.18,0.91C551.51,156.56,552.99,156.65,555.03,156.94z"/>
	<path d="M559.2,206.87c-1.2,0.32-1.52,3.57-2.1,2.28c-0.3-0.66-0.01-1.72-1.25-1.98c0.08,2.85,0.62,5.59,2.23,7.91
		c0.61-0.2,0.91-0.41,1.73-0.71C558.79,211.95,560.42,209.31,559.2,206.87z"/>
	<path d="M552.93,185.18c-1.26,3.42-2.71,0.8-4.28,2.8c3.05,1.42,5.18,0,6.6-4.16C553.95,183.56,553.3,184.15,552.93,185.18z"/>
	<path d="M564.38,196.82c1.42-1.52,2.84-3.05,4.36-4.47C567.02,193.47,564.99,194.28,564.38,196.82z"/>
	<path d="M562.04,181.19c2.13-0.61,3.05-2.33,4.06-3.96C565.41,176.54,566.15,176.06,562.04,181.19z"/>
	<path d="M565.19,185.25c1.93-1.12,1.93-1.12,1.32-3.05c-0.51,0.91-1.02,1.62-1.42,2.44C564.99,184.74,565.19,185.05,565.19,185.25z
		"/>
	<path d="M559.2,201.29c0.81-0.3,1.42-0.51,1.73-1.12C559.81,200.27,559.81,200.27,559.2,201.29z"/>
	<path d="M567.83,176.32c-0.3,0.51-0.3,1.02-0.1,1.83C568.03,177.33,568.13,176.82,567.83,176.32z"/>
<path fill="#e6e6e6" d="m206.8 163.6c0-5.1 4.1-9.2 9.3-9.2s9.2 4.2 9.2 9.2-4.1 9.2-9.3 9.2-9.2-4.1-9.2-9.2zm17.3-.1c0-4.5-3.5-8.2-8.2-8.2s-8.2 3.7-8.2 8.3c0 4.5 3.5 8.2 8.2 8.2s8.2-3.7 8.2-8.3zm-13 0c0-2.8 2.1-5.1 5.1-5.1 1.9 0 2.9.6 3.9 1.5l-1.4 1.7c-.8-.7-1.5-1.1-2.5-1.1-1.7 0-2.8 1.4-2.8 3.1s1.1 3 2.8 3c1.1 0 1.7-.5 2.5-1.1l1.4 1.4c-1.1 1.1-2.1 1.7-4 1.7-2.9 0-5-2.3-5-5.1z"/><path fill="#e6e6e6" d="m226.6 154.7h3.4l4.2 13.2 4.4-13.3h2.6l4.4 13.3 4.2-13.2h3.3l-6.2 18h-2.7l-4.4-12.8-4.4 12.8h-2.7z"/><path fill="#e6e6e6" d="m252.8 165.8c0-3.9 3.1-7 7.2-7 4.2 0 7.2 3.2 7.2 7s-3.1 7-7.3 7c-4 0-7.1-3.1-7.1-7zm11.3 0c0-2.3-1.7-4.3-4.2-4.3s-4.1 2-4.1 4.3 1.7 4.3 4.1 4.3c2.7.1 4.2-1.9 4.2-4.3z"/><path fill="#e6e6e6" d="m269.5 159.1h3.1v3c.8-2 2.4-3.4 4.8-3.3v3.2h-.2c-2.7 0-4.6 1.7-4.6 5.4v5.1h-3.1z"/><path fill="#e6e6e6" d="m279.1 153.9h3.1v11.1l5.6-6h3.8l-5.4 5.5 5.5 8h-3.5l-4.1-5.8-1.9 2v3.9h-3.1z"/><path fill="#e6e6e6" d="m291.7 165.8c0-3.9 3.1-7 7.2-7 4.2 0 7.2 3.2 7.2 7s-3.1 7-7.3 7c-4 0-7.1-3.1-7.1-7zm11.3 0c0-2.3-1.7-4.3-4.2-4.3s-4.1 2-4.1 4.3 1.7 4.3 4.1 4.3c2.6.1 4.2-1.9 4.2-4.3z"/><path fill="#e6e6e6" d="m308.2 167.6v-8.6h3.1v7.6c0 2.1 1.1 3.3 2.9 3.3s3-1.3 3-3.3v-7.6h3.1v13.4h-3.1v-2.1c-.8 1.3-2.1 2.3-4.2 2.3-3.1.2-4.8-1.8-4.8-5z"/><path fill="#e6e6e6" d="m323.9 168.8v-7.1h-1.7v-2.6h1.7v-3.7h3.1v3.7h3.6v2.6h-3.6v6.6c0 1.2.6 1.7 1.7 1.7.7 0 1.3-.2 1.9-.5v2.5c-.8.5-1.7.7-2.8.7-2.3 0-3.9-.9-3.9-3.9z"/><path fill="#e6e6e6" d="m333.2 154.7h3.2v15h9.4v2.9h-12.5v-17.9z"/><path fill="#e6e6e6" d="m356 172.5v-1.7c-.9 1.1-2.3 2-4.4 2-2.6 0-4.8-1.4-4.8-4.2 0-3 2.3-4.4 5.4-4.4 1.7 0 2.6.2 3.7.5v-.2c0-1.9-1.2-2.9-3.3-2.9-1.5 0-2.6.3-3.9.8l-.8-2.5c1.5-.7 2.9-1.1 5.1-1.1 4 0 5.9 2.1 5.9 5.7v8zm.1-5.6c-.8-.3-1.9-.5-3.1-.5-2 0-3.1.8-3.1 2.1s1.1 2 2.6 2c2 0 3.5-1.1 3.5-2.9z"/><path fill="#e6e6e6" d="m364.9 170.5v2.1h-3.1v-18.7h3.1v7.4c1-1.4 2.4-2.5 4.5-2.5 3.2 0 6.3 2.5 6.3 7s-3.1 7-6.3 7c-2.1 0-3.5-1.1-4.5-2.3zm7.7-4.7c0-2.6-1.7-4.3-3.9-4.3s-3.9 1.7-3.9 4.4c0 2.6 1.8 4.3 3.9 4.3s3.9-1.7 3.9-4.4z"/><path fill="#e6e6e6" d="m376.9 170.8 1.4-2.1c1.4 1.1 3 1.7 4.4 1.7s2.1-.5 2.1-1.5-1.3-1.4-2.8-1.8c-.1 0-.2-.1-.2-.1-2-.6-4.2-1.4-4.2-4s2.1-4.1 4.8-4.1c1.7 0 3.5.6 5 1.5l-1.2 2.2c-1.3-.8-2.6-1.3-3.8-1.3s-1.9.5-1.9 1.4 1.3 1.4 2.8 1.8c.1 0 .2.1.2.1 2 .6 4.2 1.5 4.2 4 0 2.9-2.2 4.2-5 4.2-1.9 0-4-.7-5.8-2z"/><path fill="#e6e6e6" d="m505.6 163.6c0-5.1 4.1-9.2 9.3-9.2s9.2 4.2 9.2 9.2-4.1 9.2-9.3 9.2-9.2-4.1-9.2-9.2zm17.4-.1c0-4.5-3.5-8.2-8.2-8.2s-8.2 3.7-8.2 8.3c0 4.5 3.5 8.2 8.2 8.2s8.2-3.7 8.2-8.3zm-13.1 0c0-2.8 2.1-5.1 5.1-5.1 1.9 0 2.9.6 3.9 1.5l-1.4 1.7c-.8-.7-1.5-1.1-2.5-1.1-1.7 0-2.8 1.4-2.8 3.1s1.1 3 2.8 3c1.1 0 1.7-.5 2.5-1.1l1.4 1.4c-1.1 1.1-2.1 1.7-4 1.7-2.9 0-5-2.3-5-5.1z"/><path fill="#e6e6e6" d="m525.4 154.7h3.4l4.2 13.2 4.4-13.3h2.6l4.4 13.3 4.2-13.2h3.3l-6.2 18h-2.7l-4.4-12.8-4.4 12.8h-2.7z"/><path fill="#e6e6e6" d="m551.7 165.8c0-3.9 3.1-7 7.2-7 4.2 0 7.2 3.2 7.2 7s-3.1 7-7.3 7c-4.1 0-7.1-3.1-7.1-7zm11.2 0c0-2.3-1.7-4.3-4.2-4.3s-4.1 2-4.1 4.3 1.7 4.3 4.1 4.3c2.7.1 4.2-1.9 4.2-4.3z"/><path fill="#e6e6e6" d="m568.3 159.1h3.1v3c.8-2 2.4-3.4 4.8-3.3v3.2h-.2c-2.7 0-4.6 1.7-4.6 5.4v5.1h-3.1z"/><path fill="#e6e6e6" d="m577.9 153.9h3.1v11.1l5.6-6h3.8l-5.4 5.5 5.5 8h-3.5l-4.1-5.8-1.9 2v3.9h-3.1z"/><path fill="#e6e6e6" d="m590.6 165.8c0-3.9 3.1-7 7.2-7 4.2 0 7.2 3.2 7.2 7s-3.1 7-7.3 7c-4.1 0-7.1-3.1-7.1-7zm11.2 0c0-2.3-1.7-4.3-4.2-4.3s-4.1 2-4.1 4.3 1.7 4.3 4.1 4.3c2.6.1 4.2-1.9 4.2-4.3z"/><path fill="#e6e6e6" d="m607 167.6v-8.6h3.1v7.6c0 2.1 1.1 3.3 2.9 3.3s3-1.3 3-3.3v-7.6h3.1v13.4h-3.1v-2.1c-.8 1.3-2.1 2.3-4.2 2.3-3 .2-4.8-1.8-4.8-5z"/><path fill="#e6e6e6" d="m622.7 168.8v-7.1h-1.7v-2.6h1.7v-3.7h3.1v3.7h3.6v2.6h-3.6v6.6c0 1.2.6 1.7 1.7 1.7.7 0 1.3-.2 1.9-.5v2.5c-.8.5-1.7.7-2.8.7-2.3 0-3.9-.9-3.9-3.9z"/><path fill="#e6e6e6" d="m632 154.7h3.2v15h9.4v2.9h-12.6z"/><path fill="#e6e6e6" d="m654.8 172.5v-1.7c-.9 1.1-2.3 2-4.4 2-2.6 0-4.8-1.4-4.8-4.2 0-3 2.3-4.4 5.4-4.4 1.7 0 2.6.2 3.7.5v-.2c0-1.9-1.2-2.9-3.3-2.9-1.5 0-2.6.3-3.9.8l-.8-2.5c1.5-.7 2.9-1.1 5.1-1.1 4 0 5.9 2.1 5.9 5.7v8zm.1-5.6c-.8-.3-1.9-.5-3.1-.5-2 0-3.1.8-3.1 2.1s1.1 2 2.6 2c2 0 3.5-1.1 3.5-2.9z"/><path fill="#e6e6e6" d="m663.7 170.5v2.1h-3.1v-18.7h3.1v7.4c1-1.4 2.4-2.5 4.5-2.5 3.2 0 6.3 2.5 6.3 7s-3.1 7-6.3 7c-2.1 0-3.5-1.1-4.5-2.3zm7.8-4.7c0-2.6-1.7-4.3-3.9-4.3-2.1 0-3.9 1.7-3.9 4.4 0 2.6 1.8 4.3 3.9 4.3s3.9-1.7 3.9-4.4z"/><path fill="#e6e6e6" d="m675.8 170.8 1.4-2.1c1.4 1.1 3 1.7 4.4 1.7s2.1-.5 2.1-1.5-1.3-1.4-2.8-1.8c-.1 0-.2-.1-.2-.1-2-.6-4.2-1.4-4.2-4s2.1-4.1 4.8-4.1c1.7 0 3.5.6 5 1.5l-1.2 2.2c-1.3-.8-2.6-1.3-3.8-1.3s-1.9.5-1.9 1.4 1.3 1.4 2.8 1.8c.1 0 .2.1.2.1 2 .6 4.2 1.5 4.2 4 0 2.9-2.2 4.2-5 4.2-2 0-4.1-.7-5.8-2z"/><path fill="#e6e6e6" d="m61 298.6c0-5.1 4.1-9.2 9.3-9.2s9.2 4.2 9.2 9.2-4.1 9.2-9.3 9.2c-5.1 0-9.2-4.2-9.2-9.2zm17.4-.1c0-4.5-3.5-8.2-8.2-8.2s-8.2 3.7-8.2 8.3c0 4.5 3.5 8.2 8.2 8.2s8.2-3.7 8.2-8.3zm-13.1-.1c0-2.8 2.1-5.1 5.1-5.1 1.9 0 2.9.6 3.9 1.5l-1.4 1.7c-.8-.7-1.5-1.1-2.5-1.1-1.7 0-2.8 1.4-2.8 3.1s1.1 3 2.8 3c1.1 0 1.7-.5 2.5-1.1l1.4 1.4c-1.1 1.1-2.1 1.7-4 1.7-2.8.1-5-2.2-5-5.1z"/><path fill="#e6e6e6" d="m80.9 289.7h3.4l4.2 13.2 4.4-13.3h2.6l4.4 13.3 4.2-13.2h3.3l-6.2 18h-2.7l-4.4-12.8-4.4 12.8h-2.7z"/><path fill="#e6e6e6" d="m107.1 300.8c0-3.9 3.1-7 7.2-7s7.2 3.2 7.2 7-3.1 7-7.3 7c-4 0-7.1-3.1-7.1-7zm11.3 0c0-2.3-1.7-4.3-4.2-4.3s-4.1 2-4.1 4.3 1.7 4.3 4.1 4.3c2.6.1 4.2-1.9 4.2-4.3z"/><path fill="#e6e6e6" d="m123.7 294h3.1v3c.8-2 2.4-3.4 4.8-3.3v3.2h-.2c-2.7 0-4.6 1.7-4.6 5.4v5.1h-3.1z"/><path fill="#e6e6e6" d="m133.4 288.9h3.1v11.1l5.6-6h3.8l-5.4 5.5 5.5 8h-3.5l-4.1-5.8-1.9 1.9v3.9h-3.1z"/><path fill="#e6e6e6" d="m146 300.8c0-3.9 3.1-7 7.2-7s7.2 3.2 7.2 7-3.1 7-7.3 7c-4.1 0-7.1-3.1-7.1-7zm11.2 0c0-2.3-1.7-4.3-4.2-4.3s-4.1 2-4.1 4.3 1.7 4.3 4.1 4.3c2.6.1 4.2-1.9 4.2-4.3z"/><path fill="#e6e6e6" d="m162.4 302.6v-8.6h3.1v7.6c0 2.1 1.1 3.3 2.9 3.3s3-1.3 3-3.3v-7.6h3.1v13.4h-3.1v-2.1c-.8 1.3-2.1 2.3-4.2 2.3-3 .2-4.8-1.8-4.8-5z"/><path fill="#e6e6e6" d="m178.1 303.8v-7.1h-1.7v-2.7h1.7v-3.7h3.1v3.7h3.6v2.6h-3.6v6.6c0 1.2.6 1.7 1.7 1.7.7 0 1.3-.2 1.9-.5v2.5c-.8.5-1.7.7-2.8.7-2.3.1-3.9-.9-3.9-3.8z"/><path fill="#e6e6e6" d="m187.4 289.7h3.2v15h9.4v2.9h-12.5v-17.9z"/><path fill="#e6e6e6" d="m210.2 307.5v-1.7c-.9 1.1-2.3 2-4.4 2-2.6 0-4.8-1.4-4.8-4.2 0-3 2.3-4.4 5.4-4.4 1.7 0 2.6.2 3.7.5v-.2c0-1.9-1.2-2.9-3.3-2.9-1.5 0-2.6.3-3.9.8l-.8-2.5c1.5-.7 2.9-1.1 5.1-1.1 4 0 5.9 2.1 5.9 5.7v8zm.1-5.6c-.8-.3-1.9-.5-3.1-.5-2 0-3.1.8-3.1 2.1s1.1 2 2.6 2c2 0 3.5-1.1 3.5-2.9z"/><path fill="#e6e6e6" d="m219.2 305.5v2.1h-3.1v-18.7h3.1v7.4c1-1.4 2.4-2.5 4.5-2.5 3.2 0 6.3 2.5 6.3 7s-3.1 7-6.3 7c-2.2 0-3.6-1.1-4.5-2.3zm7.7-4.7c0-2.6-1.7-4.3-3.9-4.3s-3.9 1.7-3.9 4.4c0 2.6 1.8 4.3 3.9 4.3s3.9-1.7 3.9-4.4z"/><path fill="#e6e6e6" d="m231.2 305.8 1.4-2.1c1.4 1.1 3 1.7 4.4 1.7s2.1-.5 2.1-1.5-1.3-1.4-2.8-1.8c-.1 0-.2-.1-.2-.1-2-.6-4.2-1.4-4.2-4s2.1-4.1 4.8-4.1c1.7 0 3.5.6 5 1.5l-1.2 2.2c-1.3-.8-2.6-1.3-3.8-1.3s-1.9.5-1.9 1.4 1.3 1.4 2.8 1.8c.1 0 .2.1.2.1 2 .6 4.2 1.5 4.2 4 0 2.9-2.2 4.2-5 4.2-2 0-4.1-.7-5.8-2z"/><path fill="#e6e6e6" d="m360.6 298.6c0-5.1 4.1-9.2 9.3-9.2s9.2 4.2 9.2 9.2-4.1 9.2-9.3 9.2-9.2-4.2-9.2-9.2zm17.4-.1c0-4.5-3.5-8.2-8.2-8.2s-8.2 3.7-8.2 8.3c0 4.5 3.5 8.2 8.2 8.2s8.2-3.7 8.2-8.3zm-13.1-.1c0-2.8 2.1-5.1 5.1-5.1 1.9 0 2.9.6 3.9 1.5l-1.4 1.7c-.8-.7-1.5-1.1-2.5-1.1-1.7 0-2.8 1.4-2.8 3.1s1.1 3 2.8 3c1.1 0 1.7-.5 2.5-1.1l1.4 1.4c-1.1 1.1-2.1 1.7-4 1.7-2.8.1-5-2.2-5-5.1z"/><path fill="#e6e6e6" d="m380.5 289.7h3.4l4.2 13.2 4.4-13.3h2.6l4.4 13.3 4.2-13.2h3.3l-6.2 18h-2.7l-4.4-12.8-4.4 12.8h-2.7z"/><path fill="#e6e6e6" d="m406.7 300.8c0-3.9 3.1-7 7.2-7 4.2 0 7.2 3.2 7.2 7s-3.1 7-7.3 7c-4.1 0-7.1-3.1-7.1-7zm11.3 0c0-2.3-1.7-4.3-4.2-4.3s-4.1 2-4.1 4.3 1.7 4.3 4.1 4.3c2.7.1 4.2-1.9 4.2-4.3z"/><path fill="#e6e6e6" d="m423.3 294h3.1v3c.8-2 2.4-3.4 4.8-3.3v3.2h-.2c-2.7 0-4.6 1.7-4.6 5.4v5.1h-3.1z"/><path fill="#e6e6e6" d="m433 288.9h3.1v11.1l5.6-6h3.8l-5.4 5.5 5.5 8h-3.5l-4.1-5.8-1.9 2v3.9h-3.1z"/><path fill="#e6e6e6" d="m445.6 300.8c0-3.9 3.1-7 7.2-7 4.2 0 7.2 3.2 7.2 7s-3.1 7-7.3 7c-4.1 0-7.1-3.1-7.1-7zm11.3 0c0-2.3-1.7-4.3-4.2-4.3s-4.1 2-4.1 4.3 1.7 4.3 4.1 4.3c2.6.1 4.2-1.9 4.2-4.3z"/><path fill="#e6e6e6" d="m462.1 302.6v-8.6h3.1v7.6c0 2.1 1.1 3.3 2.9 3.3s3-1.3 3-3.3v-7.6h3.1v13.4h-3.1v-2.1c-.8 1.3-2.1 2.3-4.2 2.3-3.1.2-4.8-1.8-4.8-5z"/><path fill="#e6e6e6" d="m477.8 303.8v-7.1h-1.8v-2.7h1.7v-3.7h3.1v3.7h3.6v2.6h-3.6v6.6c0 1.2.6 1.7 1.7 1.7.7 0 1.3-.2 1.9-.5v2.5c-.8.5-1.7.7-2.8.7-2.2.1-3.8-.9-3.8-3.8z"/><path fill="#e6e6e6" d="m487.1 289.7h3.2v15h9.4v2.9h-12.5v-17.9z"/><path fill="#e6e6e6" d="m509.9 307.5v-1.7c-.9 1.1-2.3 2-4.4 2-2.6 0-4.8-1.4-4.8-4.2 0-3 2.3-4.4 5.4-4.4 1.7 0 2.6.2 3.7.5v-.2c0-1.9-1.2-2.9-3.3-2.9-1.5 0-2.6.3-3.9.8l-.8-2.5c1.5-.7 2.9-1.1 5.1-1.1 4 0 5.9 2.1 5.9 5.7v8zm.1-5.6c-.8-.3-1.9-.5-3.1-.5-2 0-3.1.8-3.1 2.1s1.1 2 2.6 2c2 0 3.5-1.1 3.5-2.9z"/><path fill="#e6e6e6" d="m518.8 305.5v2.1h-3.1v-18.7h3.1v7.4c1-1.4 2.4-2.5 4.5-2.5 3.2 0 6.3 2.5 6.3 7s-3.1 7-6.3 7c-2.2 0-3.5-1.1-4.5-2.3zm7.7-4.7c0-2.6-1.7-4.3-3.9-4.3s-3.9 1.7-3.9 4.4c0 2.6 1.8 4.3 3.9 4.3s3.9-1.7 3.9-4.4z"/><path fill="#e6e6e6" d="m530.8 305.8 1.4-2.1c1.4 1.1 3 1.7 4.4 1.7s2.1-.5 2.1-1.5-1.3-1.4-2.8-1.8c-.1 0-.2-.1-.2-.1-2-.6-4.2-1.4-4.2-4s2.1-4.1 4.8-4.1c1.7 0 3.5.6 5 1.5l-1.2 2.2c-1.3-.8-2.6-1.3-3.8-1.3s-1.9.5-1.9 1.4 1.3 1.4 2.8 1.8c.1 0 .2.1.2.1 2 .6 4.2 1.5 4.2 4 0 2.9-2.2 4.2-5 4.2-1.9 0-4.1-.7-5.8-2z"/><path fill="#e6e6e6" d="m659.5 298.6c0-5.1 4.1-9.2 9.3-9.2s9.2 4.2 9.2 9.2-4.1 9.2-9.3 9.2-9.2-4.2-9.2-9.2zm17.3-.1c0-4.5-3.5-8.2-8.2-8.2s-8.2 3.7-8.2 8.3c0 4.5 3.5 8.2 8.2 8.2 4.8 0 8.2-3.7 8.2-8.3zm-13-.1c0-2.8 2.1-5.1 5.1-5.1 1.9 0 2.9.6 3.9 1.5l-1.4 1.7c-.8-.7-1.5-1.1-2.5-1.1-1.7 0-2.8 1.4-2.8 3.1s1.1 3 2.8 3c1.1 0 1.7-.5 2.5-1.1l1.4 1.4c-1.1 1.1-2.1 1.7-4 1.7-2.9.1-5-2.2-5-5.1z"/><path fill="#e6e6e6" d="m679.3 289.7h3.4l4.2 13.2 4.4-13.3h2.6l4.4 13.3 4.2-13.2h3.3l-6.2 18h-2.6l-4.4-12.8-4.4 12.8h-2.7z"/><path fill="#e6e6e6" d="m705.5 300.8c0-3.9 3.1-7 7.2-7 4.2 0 7.2 3.2 7.2 7s-3.1 7-7.3 7c-4 0-7.1-3.1-7.1-7zm11.3 0c0-2.3-1.7-4.3-4.2-4.3s-4.1 2-4.1 4.3 1.7 4.3 4.1 4.3c2.7.1 4.2-1.9 4.2-4.3z"/><path fill="#e6e6e6" d="m722.1 294h3.1v3c.8-2 2.4-3.4 4.8-3.3v3.2h-.2c-2.7 0-4.6 1.7-4.6 5.4v5.1h-3.1z"/><path fill="#e6e6e6" d="m731.8 288.9h3.1v11.1l5.6-6h3.8l-5.4 5.5 5.5 8h-3.5l-4.1-5.8-1.9 2v3.9h-3.1z"/><path fill="#e6e6e6" d="m744.4 300.8c0-3.9 3.1-7 7.2-7 4.2 0 7.2 3.2 7.2 7s-3.1 7-7.3 7c-4.1 0-7.1-3.1-7.1-7zm11.3 0c0-2.3-1.7-4.3-4.2-4.3s-4.1 2-4.1 4.3 1.7 4.3 4.1 4.3c2.6.1 4.2-1.9 4.2-4.3z"/><path fill="#e6e6e6" d="m760.9 302.6v-8.6h3.1v7.6c0 2.1 1.1 3.3 2.9 3.3s3-1.3 3-3.3v-7.6h3.1v13.4h-3.1v-2.1c-.8 1.3-2.1 2.3-4.2 2.3-3.1.2-4.8-1.8-4.8-5z"/><path fill="#e6e6e6" d="m776.6 303.8v-7.1h-1.7v-2.7h1.7v-3.7h3.1v3.7h3.6v2.6h-3.6v6.6c0 1.2.6 1.7 1.7 1.7.7 0 1.3-.2 1.9-.5v2.5c-.8.5-1.7.7-2.8.7-2.3.1-3.9-.9-3.9-3.8z"/><path fill="#e6e6e6" d="m785.9 289.7h3.2v15h9.4v2.9h-12.5v-17.9z"/><path fill="#e6e6e6" d="m808.7 307.5v-1.7c-.9 1.1-2.3 2-4.4 2-2.6 0-4.8-1.4-4.8-4.2 0-3 2.3-4.4 5.4-4.4 1.7 0 2.6.2 3.7.5v-.2c0-1.9-1.2-2.9-3.3-2.9-1.5 0-2.6.3-3.9.8l-.8-2.5c1.5-.7 2.9-1.1 5.1-1.1 4 0 5.9 2.1 5.9 5.7v8zm.1-5.6c-.8-.3-1.9-.5-3.1-.5-2 0-3.1.8-3.1 2.1s1.1 2 2.6 2c2 0 3.5-1.1 3.5-2.9z"/><path fill="#e6e6e6" d="m817.6 305.5v2.1h-3.1v-18.7h3.1v7.4c1-1.4 2.4-2.5 4.5-2.5 3.2 0 6.3 2.5 6.3 7s-3.1 7-6.3 7c-2.1 0-3.5-1.1-4.5-2.3zm7.7-4.7c0-2.6-1.7-4.3-3.9-4.3-2.1 0-3.9 1.7-3.9 4.4 0 2.6 1.8 4.3 3.9 4.3 2.2 0 3.9-1.7 3.9-4.4z"/><path fill="#e6e6e6" d="m829.6 305.8 1.4-2.1c1.4 1.1 3 1.7 4.4 1.7s2.1-.5 2.1-1.5-1.3-1.4-2.8-1.8c-.1 0-.2-.1-.2-.1-2-.6-4.2-1.4-4.2-4s2.1-4.1 4.8-4.1c1.7 0 3.5.6 5 1.5l-1.2 2.2c-1.3-.8-2.6-1.3-3.8-1.3s-1.9.5-1.9 1.4 1.3 1.4 2.8 1.8c.1 0 .2.1.2.1 2 .6 4.2 1.5 4.2 4 0 2.9-2.2 4.2-5 4.2-1.9 0-4-.7-5.8-2z"/><path fill="#e6e6e6" d="m206.3 434.2c0-5.1 4.1-9.2 9.3-9.2s9.2 4.2 9.2 9.2-4.1 9.2-9.3 9.2-9.2-4.1-9.2-9.2zm17.4-.1c0-4.5-3.5-8.2-8.2-8.2s-8.2 3.7-8.2 8.3c0 4.5 3.5 8.2 8.2 8.2s8.2-3.7 8.2-8.3zm-13.1-.1c0-2.8 2.1-5.1 5.1-5.1 1.9 0 2.9.6 3.9 1.5l-1.4 1.7c-.8-.7-1.5-1.1-2.5-1.1-1.7 0-2.8 1.4-2.8 3.1s1.1 3 2.8 3c1.1 0 1.7-.5 2.5-1.1l1.4 1.4c-1.1 1.1-2.1 1.7-4 1.7-2.9.1-5-2.2-5-5.1z"/><path fill="#e6e6e6" d="m226.1 425.3h3.4l4.2 13.2 4.4-13.3h2.6l4.4 13.3 4.2-13.2h3.3l-6.2 18h-2.7l-4.4-12.8-4.4 12.8h-2.7z"/><path fill="#e6e6e6" d="m252.4 436.4c0-3.9 3.1-7 7.2-7 4.2 0 7.2 3.2 7.2 7s-3.1 7-7.3 7c-4.1 0-7.1-3.1-7.1-7zm11.2 0c0-2.3-1.7-4.3-4.2-4.3s-4.1 2-4.1 4.3 1.7 4.3 4.1 4.3c2.7.1 4.2-1.9 4.2-4.3z"/><path fill="#e6e6e6" d="m269 429.7h3.1v3c.8-2 2.4-3.4 4.8-3.3v3.2h-.2c-2.7 0-4.6 1.7-4.6 5.4v5.1h-3.1z"/><path fill="#e6e6e6" d="m278.6 424.5h3.1v11.1l5.6-6h3.8l-5.4 5.5 5.5 8h-3.5l-4.1-5.8-1.9 2v3.9h-3.1z"/><path fill="#e6e6e6" d="m291.3 436.4c0-3.9 3.1-7 7.2-7 4.2 0 7.2 3.2 7.2 7s-3.1 7-7.3 7c-4.1 0-7.1-3.1-7.1-7zm11.2 0c0-2.3-1.7-4.3-4.2-4.3s-4.1 2-4.1 4.3 1.7 4.3 4.1 4.3c2.6.1 4.2-1.9 4.2-4.3z"/><path fill="#e6e6e6" d="m307.7 438.2v-8.6h3.1v7.6c0 2.1 1.1 3.3 2.9 3.3s3-1.3 3-3.3v-7.6h3.1v13.4h-3.1v-2.1c-.8 1.3-2.1 2.3-4.2 2.3-3 .2-4.8-1.8-4.8-5z"/><path fill="#e6e6e6" d="m323.4 439.4v-7.1h-1.7v-2.6h1.7v-3.7h3.1v3.7h3.6v2.6h-3.6v6.6c0 1.2.6 1.7 1.7 1.7.7 0 1.3-.2 1.9-.5v2.5c-.8.5-1.7.7-2.8.7-2.3 0-3.9-.9-3.9-3.9z"/><path fill="#e6e6e6" d="m332.7 425.3h3.2v15h9.4v2.9h-12.5v-17.9z"/><path fill="#e6e6e6" d="m355.5 443.1v-1.7c-.9 1.1-2.3 2-4.4 2-2.6 0-4.8-1.4-4.8-4.2 0-3 2.3-4.4 5.4-4.4 1.7 0 2.6.2 3.7.5v-.2c0-1.9-1.2-2.9-3.3-2.9-1.5 0-2.6.3-3.9.8l-.8-2.5c1.5-.7 2.9-1.1 5.1-1.1 4 0 5.9 2.1 5.9 5.7v8zm.1-5.6c-.8-.3-1.9-.5-3.1-.5-2 0-3.1.8-3.1 2.1s1.1 2 2.6 2c2 0 3.5-1.1 3.5-2.9z"/><path fill="#e6e6e6" d="m364.4 441.1v2.1h-3.1v-18.7h3.1v7.4c1-1.4 2.4-2.5 4.5-2.5 3.2 0 6.3 2.5 6.3 7s-3.1 7-6.3 7c-2.1 0-3.5-1.1-4.5-2.3zm7.7-4.7c0-2.6-1.7-4.3-3.9-4.3-2.1 0-3.9 1.7-3.9 4.4 0 2.6 1.8 4.3 3.9 4.3 2.2 0 3.9-1.7 3.9-4.4z"/><path fill="#e6e6e6" d="m376.5 441.4 1.4-2.1c1.4 1.1 3 1.7 4.4 1.7s2.1-.5 2.1-1.5-1.3-1.4-2.8-1.8c-.1 0-.2-.1-.2-.1-2-.6-4.2-1.4-4.2-4s2.1-4.1 4.8-4.1c1.7 0 3.5.6 5 1.5l-1.2 2.2c-1.3-.8-2.6-1.3-3.8-1.3s-1.9.5-1.9 1.4 1.3 1.4 2.8 1.8c.1 0 .2.1.2.1 2 .6 4.2 1.5 4.2 4 0 2.9-2.2 4.2-5 4.2-2 0-4.1-.7-5.8-2z"/><path fill="#e6e6e6" d="m505.1 434.2c0-5.1 4.1-9.2 9.3-9.2s9.2 4.2 9.2 9.2-4.1 9.2-9.3 9.2-9.2-4.1-9.2-9.2zm17.4-.1c0-4.5-3.5-8.2-8.2-8.2s-8.2 3.7-8.2 8.3c0 4.5 3.5 8.2 8.2 8.2s8.2-3.7 8.2-8.3zm-13.1-.1c0-2.8 2.1-5.1 5.1-5.1 1.9 0 2.9.6 3.9 1.5l-1.4 1.7c-.8-.7-1.5-1.1-2.5-1.1-1.7 0-2.8 1.4-2.8 3.1s1.1 3 2.8 3c1.1 0 1.7-.5 2.5-1.1l1.4 1.4c-1.1 1.1-2.1 1.7-4 1.7-2.9.1-5-2.2-5-5.1z"/><path fill="#e6e6e6" d="m525 425.3h3.4l4.2 13.2 4.4-13.3h2.6l4.4 13.3 4.2-13.2h3.3l-6.2 18h-2.7l-4.4-12.8-4.4 12.8h-2.7z"/><path fill="#e6e6e6" d="m551.2 436.4c0-3.9 3.1-7 7.2-7 4.2 0 7.2 3.2 7.2 7s-3.1 7-7.3 7c-4.1 0-7.1-3.1-7.1-7zm11.2 0c0-2.3-1.7-4.3-4.2-4.3s-4.1 2-4.1 4.3 1.7 4.3 4.1 4.3c2.7.1 4.2-1.9 4.2-4.3z"/><path fill="#e6e6e6" d="m567.8 429.7h3.1v3c.8-2 2.4-3.4 4.8-3.3v3.2h-.2c-2.7 0-4.6 1.7-4.6 5.4v5.1h-3.1z"/><path fill="#e6e6e6" d="m577.5 424.5h3.1v11.1l5.6-6h3.8l-5.4 5.5 5.5 8h-3.5l-4.1-5.8-1.9 2v3.9h-3.1z"/><path fill="#e6e6e6" d="m590.1 436.4c0-3.9 3.1-7 7.2-7 4.2 0 7.2 3.2 7.2 7s-3.1 7-7.3 7c-4.1 0-7.1-3.1-7.1-7zm11.2 0c0-2.3-1.7-4.3-4.2-4.3s-4.1 2-4.1 4.3 1.7 4.3 4.1 4.3c2.6.1 4.2-1.9 4.2-4.3z"/><path fill="#e6e6e6" d="m606.5 438.2v-8.6h3.1v7.6c0 2.1 1.1 3.3 2.9 3.3s3-1.3 3-3.3v-7.6h3.1v13.4h-3.1v-2.1c-.8 1.3-2.1 2.3-4.2 2.3-3 .2-4.8-1.8-4.8-5z"/><path fill="#e6e6e6" d="m622.2 439.4v-7.1h-1.7v-2.6h1.7v-3.7h3.1v3.7h3.6v2.6h-3.6v6.6c0 1.2.6 1.7 1.7 1.7.7 0 1.3-.2 1.9-.5v2.5c-.8.5-1.7.7-2.8.7-2.3 0-3.9-.9-3.9-3.9z"/><path fill="#e6e6e6" d="m631.5 425.3h3.2v15h9.4v2.9h-12.5v-17.9z"/><path fill="#e6e6e6" d="m654.3 443.1v-1.7c-.9 1.1-2.3 2-4.4 2-2.6 0-4.8-1.4-4.8-4.2 0-3 2.3-4.4 5.4-4.4 1.7 0 2.6.2 3.7.5v-.2c0-1.9-1.2-2.9-3.3-2.9-1.5 0-2.6.3-3.9.8l-.8-2.5c1.5-.7 2.9-1.1 5.1-1.1 4 0 5.9 2.1 5.9 5.7v8zm.1-5.6c-.8-.3-1.9-.5-3.1-.5-2 0-3.1.8-3.1 2.1s1.1 2 2.6 2c2 0 3.5-1.1 3.5-2.9z"/><path fill="#e6e6e6" d="m663.3 441.1v2.1h-3.1v-18.7h3.1v7.4c1-1.4 2.4-2.5 4.5-2.5 3.2 0 6.3 2.5 6.3 7s-3.1 7-6.3 7c-2.2 0-3.6-1.1-4.5-2.3zm7.7-4.7c0-2.6-1.7-4.3-3.9-4.3s-3.9 1.7-3.9 4.4c0 2.6 1.8 4.3 3.9 4.3s3.9-1.7 3.9-4.4z"/><path fill="#e6e6e6" d="m675.3 441.4 1.4-2.1c1.4 1.1 3 1.7 4.4 1.7s2.1-.5 2.1-1.5-1.3-1.4-2.8-1.8c-.1 0-.2-.1-.2-.1-2-.6-4.2-1.4-4.2-4s2.1-4.1 4.8-4.1c1.7 0 3.5.6 5 1.5l-1.2 2.2c-1.3-.8-2.6-1.3-3.8-1.3s-1.9.5-1.9 1.4 1.3 1.4 2.8 1.8c.1 0 .2.1.2.1 2 .6 4.2 1.5 4.2 4 0 2.9-2.2 4.2-5 4.2-2 0-4.1-.7-5.8-2z"/></g>
</svg>
