<?xml version="1.0" encoding="utf-8"?>
<!-- Generator: Adobe Illustrator 23.0.1, SVG Export Plug-In . SVG Version: 6.00 Build 0)  -->
<svg version="1.2" baseProfile="tiny" id="Layer_1" xmlns="http://www.w3.org/2000/svg" xmlns:xlink="http://www.w3.org/1999/xlink"
	 x="0px" y="0px" viewBox="0 0 900 600" xml:space="preserve">
<g>
	<path d="M366.36,211.5c-9.97-3.01-20.12-8.7-37.86-6.76c-9.47,1.03-3.11-3.19-4.54-6.36c-1.69-3.75-1.41-7.67-1.92-11.31
		c1.62-2.93,4.85-3.43,6.86-5.75c-0.91-1.01,0.5-2.22-0.3-3.33c-1.21-1.01-2.42,0-3.63-0.4c0.5-1.31,2.73-1.01,2.62-2.93
		c-1.72-2.02-3.33,0.61-5.05,0.5c0.1-2.02,0.91-3.94-0.71-5.65c-1.01,0.91-1.92,1.72-2.73,2.52c-2.12-1.01-2.72-1.39-3.84-0.91
		c-5.91,2.54-12.11,0.4-18.48,1.41c-0.81,0.2-0.81,2.12-2.32,2.12c-0.71-0.5,0.1-1.92-1.21-2.02c-1.84-0.31-2.79,6.34-11,2.32
		c-0.62-0.3-2.83-0.68-2.83,0.3c0,1.31,1.51,1.62,1.51,2.32c-2.52,5.25-4.54,10.1-5.75,14.84c-1.31,1.21-3.04-0.31-3.94,1.31
		c-1.12,2.01-2.93,1.83-4.54,1.41c-9.1-2.38-22.92-3.94-31.5,0.61c-8.84,4.68-11.63,2.27-13.63,8.68c-1.59,5.1-4.42,4.06-4.24,7.77
		c0.7,14.74-7.04,3.34,5.15,36.04c0.49,1.32,1.11,2.73,2.93,2.83c2.12-2.54-8.43-14.44-5.45-32.41c0.9-5.42-1.91-6.37-0.61-8.99
		c5.3-2.65,2.63-8.26,8.99-8.68c2.01,0,8.84-3.87,12.11-4.44c16.89-2.93,26.27,2.68,30.99,0c3.62-2.05,4.16-1.69,5.45,2.42
		c0.38,1.22,0.78,2.41,0.3,3.63c-2.37,6.04,3.68,5.84-0.5,20.49c-2.85,9.96,2.97,6.55-2.12,13.12c1.01-5.15-0.61-8.68-3.63-11.71
		c-1.21-1.21-1.01-7.37,0-8.68c-2.52-4.24-6.79-5.48-10.4-2.73c-3.15,2.4-5.45,5.86-10.1,6.87c4.98,7.33,4.48,18.75,5.86,19.89
		c4.78,3.94,4.69,11.84,7.98,11.11c2.22-3.03-0.91-5.55-1.11-8.48c1.92-0.61,3.63-1.51,5.75-1.62c1.11,2.22,1.92,4.44,2.02,6.87
		c-1.72,0.5-3.23-1.51-4.85,0.2c1.21,2.42,4.04,1.31,5.86,2.83c1.73,7.48,2.84,4.03-7.57,1.51c4.2,8.18,15.33-4.75,5.55,28.67
		c-1.3,4.45-4.95,6.56-8.58,9.39c-3.28-13.95-3.64-15.35-6.66-16.35c0.4,6.36,2.32,12.42,3.63,18.68c-2.22,1.72-4.34,3.23-6.66,3.74
		c-2.73-5.86,0.1-11.51-0.3-17.16c-3.03,5.55-0.71,12.11-3.03,17.97c-5.35,1.72-10.8,2.52-16.35,2.52c-2.83,0-3.72-1.31-3.84-4.24
		c-0.36-9.29-1.04-18.5,1.11-27.66c0.42-1.78-0.87-4.16-2.83,1.41c-4.42,12.6-0.06,22.43-2.42,47.75
		c-1.48,15.84-15.41,25.56-13.12,39.07c-3.74,4.14-5.96,9.29-11.61,11c-1.72-1.41-3.13,0-4.34,1.41c-6.5,7.58-5.89,13.33-6.56,14.64
		c-7.94,15.39,2.96,27.83,1.11,32.91c-0.7,1.93,4.02,6.38,5.96,7.57c7.12,4.4,4.59,6.71,9.19,11.31c2.62,2.62,5.65,5.15,5.15,9.49
		c7.86,8.28,11.28,17.56,17.06,19.69c5.07,1.86,10.5,4.34,15.75-0.91c0.89,12.71-16.16,13.72-15.14,37.56
		c0.42,9.88,0.97,11.68-6.56,50.88c-1.7,8.85-6.21,6.44-7.27,12.72c-1.92,11.33-2.4,4.29-4.34,20.39c-0.3,2.52-2.32,4.34-2.93,6.56
		c1.86,3.72,25.26,5.55,28.47,7.07c6.65,3.16,13.63,0.64,20.39,1.31c4.24,0.42,8.77-1.06,13.02-2.32c5.64-1.68,7.63-2.52,6.46-9.29
		c-0.71-4.12,7.22,0.78,13.02-0.81c6.05-1.66,12.23-1.39,18.27-0.2c9.6,1.88,11.07-2.3,30.59-2.42c1.92-0.01,3.84-0.71,5.55-2.12
		c-0.3-1.62,0.5-2.93,1.31-3.94c-1.43-7.74-0.59-8.58-6.66-9.99c-24.94-5.82-18.5-9.57-26.25-14.74
		c-4.27-20.3,6.64-18.23,20.49-46.84c1.97-4.07,11.22-29.71,10.3-34.12c-1.76-8.39,3.48-11.4,1.92-16.15
		c-4.34-13.21-10.78-17.24-14.44-24.03c-4.12-7.65-7.15-17.55-19.08-28.27c-13.22-11.87-14.48-11.02-20.19-17.06
		c-1.52-1.61-3.03-2.83-5.65-2.62c0.81-3.74-1.82-4.14-4.24-4.44c-0.81-2.62,1.11-5.05,0.3-7.17c-1.31-1.82-3.33-1.11-5.15-1.92
		c12.07-17.48,22.14-17.85,26.35-29.78c0-0.27,3.51-3.37,3.03-8.48c-0.5-5.36,3.76-11.46,4.04-12.42
		c8.85-30.77,7.27-25.17,11.51-52.3c8-8,16.6-5.92,32.31-19.59c4.5-3.91,3.04-7.57,11.11-13.63c8.18-6.15,8.72-11.59,6.66-19.59
		C369.27,213.43,368.29,212.09,366.36,211.5z M324.87,181.52c-1.01-0.2-0.61-1.01-0.91-1.51
		C325.62,179.05,326.44,180.26,324.87,181.52z M319.52,173.75c1.01,1.11,0.61,1.51-0.1,2.02
		C318.61,175.16,319.42,174.55,319.52,173.75z M310.83,185.36c-0.91,0.5-1.62,0.1-2.12-0.81
		C309.62,184.45,310.23,184.85,310.83,185.36z M306.39,176.77c-0.4,1.01-1.01,1.41-1.62,1.82
		C304.68,177.18,304.68,177.18,306.39,176.77z M293.77,192.12c0.5,1.31-0.2,1.51-0.91,2.02
		C292.66,193.13,292.76,192.62,293.77,192.12z M291.65,177.78c0.2,0.81-0.3,1.01-1.31,1.21
		C290.64,178.09,290.95,177.58,291.65,177.78z M290.24,185.66c0.3-0.4,0.61-0.71,1.41-0.61C290.87,187.39,289.23,187,290.24,185.66z
		 M280.24,181.92c2.02,1.62,3.43,2.62,5.35,2.52c-1.92,1.51-4.74-0.91-6.46,1.72C279.54,184.85,280.55,183.94,280.24,181.92z
		 M286,197.07c-0.3,0.61-0.5,1.01-1.31,0.81C284.69,196.86,285.09,196.66,286,197.07z M281.05,198.88c-0.2-1.31-0.61-2.22,0.5-3.13
		C282.36,196.97,281.05,197.67,281.05,198.88z M279.44,207.67c0.91,0.61,1.41,1.21,0.1,2.22
		C279.23,209.18,278.83,208.58,279.44,207.67z M276.71,193.53c-0.33-0.33,0.07-0.37,0.2-0.5
		C278.97,193.2,279.22,197.63,276.71,193.53z M278.53,222.81c0.81,2.62-0.2,4.44-0.5,6.36
		C277.22,227.25,277.32,225.23,278.53,222.81z M193.72,380.3c3.85,3.13,13.79-1.61-3.84,5.55
		C191.2,384.04,192.51,382.12,193.72,380.3z M224.52,458.64c-3.23-6.16-7.17-11.61-12.92-15.75c0.81-7.44,4.41-14.18,3.84-21.62
		c-2.72,4.71-2.72,9.89-4.74,18.39c-7.78-13.52-7.14-14.53-11.61-17.36c-3.54-2.25-3.03-3.15-8.18-16.05
		c-2.3-5.76-2.22-11.71-1.82-17.67c3.63-2.42,7.47-3.03,11.41-4.44c0.72,6.72-4.82,4.61-8.88,11.51c-1.54,2.61-1.21,4.14,1.82,6.66
		c-4.23-7.73,9.9-13.38,20.8-18.17c4.23-1.86,4.35,5.05,16.25,4.44c5.05-0.26,9.39,2.83,13.93,4.34c1.99,5.72,9.05,12.92,9.89,15.24
		c2.23,6.12,5.25,11.61,11.21,16.25c-2.42,0.1-4.03,0.69-5.45,0.2c-6.78-2.32-19.92,0.75-26.25,12.72
		c-1.01,1.92-1.92,4.04-3.13,6.66c-2.32-4.24-5.45-7.27-7.87-10.9c-1.58-2.37,0.68-6.26,0-9.99c-2.22,1.21-1.01,3.33-1.92,5.15
		c-2.12-4.44-3.53-9.09-6.76-12.62c-3.23-3.53-7.47-5.96-10.5-9.89c3.23-3.33,7.07-5.86,9.59-9.79c-5.15,3.13-9.39,7.47-14.44,10.8
		c1.41,1.11,2.42-0.2,3.84-0.2c12.14,13.8,5.42,4.51,3.63,16.66c2.42-2.12,2.93-5.55,5.15-8.08c1.82,1.62,3.94,3.13,4.14,5.96
		c-0.33,0.44,4.14,3.46,4.85,12.82c0.24,3.23-0.5,6.56-0.5,9.99c0.81-2.73,1.62-5.55,1.72-9.39c3.43,3.94,7.21,7.37,7.57,11.61
		C229.51,450.27,227.95,454.91,224.52,458.64z M201.4,387.47c0.2-4.85,2.22-5.86,10.2-4.64
		C207.76,384.54,204.63,386.06,201.4,387.47z M226.94,462.48c-0.5-3.94,2.22-5.65,3.74-8.18c3.43,2.22,6.66,4.24,9.79,7.17
		C235.92,465,231.38,462.48,226.94,462.48z M224.42,544.66c1.62-15.69,6.52-24.08,5.45-39.17c-1.27-17.94,4.42-17.3,13.63-34.53
		c4.95-9.26-0.22-11.09-11.51-20.19c1.01-6.46,3.36-11.79,7.77-16.86c4.98-5.73,10.8-6.36,17.36-6.66c1.51,1.11,1.21,3.53,3.13,4.34
		c1.11-1.92-1.01-2.62-1.21-3.94c5.65-2.93,11.71,0.51,12.42,7.47c0.4,3.94,1.1,7.38,3.94,10.4c4.04,4.31-0.99,8.19-0.71,18.27
		c0.09,3.25-5.46,23.15-12.92,37.76c-0.61-1.72,1.31-2.93-0.3-4.64c-9.09,19.28-19.38,37.76-22.01,58.66
		c-2.93,2.02-5.75,1.72-8.48,2.62c1.11-4.64,0.2-9.29,0.61-13.93c-1.92,4.24-1.21,8.99-2.52,13.53c-2.42,0.81-5.05,1.41-8.08,0.81
		C223.71,554.15,223.91,549.51,224.42,544.66z M277.52,463.09c-1.02-4.34-0.2-7.98,3.23-11.11c6.16,2.62,13.02,2.94,19.48,4.64
		c4.64,1.22,7.61,6.28,5.55,10.6c-1.59,3.34-3.01,6.68-5.25,9.79c-7.75,10.74,0.3,18.48-6.16,39.27c-5.87,18.9-7,18.29-9.39,30.89
		c-3.43-0.61-3.33,2.32-4.24,4.24c-3.53-1.01-7.66,3.23-6.56,7.17c1.28,4.61-1.43,6.19-1.41,7.67c0.05,5.35-3.33,9.59-4.64,14.94
		c-9.49-3.63-15.45-11.61-23.12-16.96c2.22-6.16,2.02-6.66-3.33-8.28c4.04-13.23,5.84-27.17,13.43-39.17
		c17.32-27.39,16.98-31.43,18.07-40.28C274.19,468.33,278.3,466.41,277.52,463.09z M293.77,551.32c-7.56,8.1-9.22,8.01-10.9,3.63
		C286.25,547.63,283.71,552.24,293.77,551.32z M219.77,562.23c3.53,0.5,6.87,0.1,10.1-1.41c2.64,6.34-4.62,2.1-10.9,8.18
		C217.45,566.16,218.66,564.35,219.77,562.23z M268.03,594.83c-8.58-0.18-16.76,2.47-25.34,2.42c-3.53-0.02-6.55-1.87-9.99-2.42
		c-7.75-1.24-15.65-1.92-23.22-4.64c2.02-3.84,1.95-8.36,4.44-12.01c1.25-1.84-2.59-5.65,1.72-8.58c1.31,0.91,2.83,1.72,4.85,2.42
		c2.93-1.62,5.45-4.85,9.59-4.34c1.31-2.32,4.74-3.23,3.94-6.66c3.53-0.3,6.46-2.02,9.89-1.11c0.5,2.02-0.81,3.03-1.41,4.54
		c-2.93,0.4-5.96,0.91-8.58,2.62c0.71,1.41,1.92,0.3,2.73,1.01c-0.4,1.41-2.52,0.81-2.83,2.52c4.64,1.62,9.29-0.3,13.93-0.2
		c-3.23,1.62-7.37,0.1-10.3,2.93c0.2,2.12,4.04,0.4,2.73,3.63c4.14-1.01,8.08-0.71,11.31-3.74c17.39,15.53,19.29,5.8,20.7,15.95
		C272.63,592.52,271.36,594.9,268.03,594.83z M310.73,564.75c0.81,0.5-0.61,0.61-0.2,1.51c0.91,1.31,2.62,0.2,3.94,0.91
		c0.3,0.4-0.5,1.11,0.2,1.62c2.22-0.4,4.64-0.2,6.26-1.82c1.62,1.31-0.3,2.22,0.2,3.43c6.16-0.61,12.11,1.11,18.68,2.52
		c1.41,2.52-0.81,5.25-1.92,8.38c-9.19,0.5-18.17,1.63-27.26,2.32c-9.42,0.72-19.14-1.28-23.42,0.4c-3.72,1.46-11-0.2-16.05-3.23
		c0.81-1.92,1.12-4.02,2.93-5.65c2.32-2.1-0.76-7.01,2.73-12.01c1.41-2.02,0.81-3.94-0.5-5.75c0.5-1.62,1.72-2.42,2.42-3.74
		c2.48,1.6,2.52,8.74,8.28,5.96c3.98-1.92,1.33-1.21,19.48-12.52c-0.3,3.03,1.51,5.35,0.61,8.08c-1.01,1.21-2.93,1.41-3.33,3.13
		c0.5,0.81,1.51,0.1,2.12,0.81c-1.01,0.91-2.73,1.11-3.43,3.03C305.48,562.23,308.01,563.64,310.73,564.75z M321.64,424.93
		c11.38,21.34,19.93,23.57,18.88,36.34c-0.2,2.48-2.23,3.7-2.42,7.27c-0.85,15.89-7.94,38.42-20.7,53.41
		c-0.5-0.1-0.3-1.11-1.41-0.71c-1.31,5.96-5.46,10.9-7.47,16.76c-1.73,5.04-5.35,8.28-9.29,11.41c-3.13-2.12,0.2-4.95-1.01-7.27
		c-2.22,1.41-2.22,4.14-3.74,5.96c-2.02,0.3-4.14-0.2-6.56-0.3c1.05-11.81,4.62-10.16,7.17-21.81c1.05-4.82,5.88-19.69,5.25-23.32
		c-1.1-6.35,1.46-21.32,3.43-25.04c8.17-15.36,7.83-14.81,2.22-21.2c0.81-1.41,2.02,0.81,2.83-0.3c0-0.2,0.1-0.61,0-0.61
		c-3.91-2.17-4.52-3.37-6.26-3.03c-6.58,1.31-12.51-1.78-18.78-2.62c-1.61-0.22-3.84-0.4-4.24-3.63
		c13.24-2.79,29.2-15.8,39.78-24.13C320.73,422.5,321.04,423.81,321.64,424.93z M275.8,374.65c-2.97,0.79-4.04,2.34-4.04,2.09
		c0.05,1.43-1.12,1.35-2.02,1.65c-0.09-0.09-0.17-0.18-0.26-0.33c0.42,1.05-5.93,3.41-4.79,9.42c-3.36,2.83-9.73,0.87-11.91,1.41
		c1.51,2.93,3.53,3.43,11.11,2.83c0.3,1.41-1.21,2.02-1.41,3.13c2.42-0.1,3.03-0.61,6.56-4.74c0-0.91-0.81-0.71-1.41-1.01
		c-0.4-5.65,4.85-7.67,7.17-12.11c1.51,2.12,1.82,3.84,2.02,5.75c3.74,0,3.94,6.06,8.48,4.54c1.11,1.62,2.62,2.62,4.14,4.04
		c-1.24,0.38-6.46,1.9-6.46,2.42c8.87-1.27,10.41-3.79,34.73,25.04c-9.79,9.89-8.88,10.6-39.17,25.64
		c-4.24-1.92-2.42-5.86-3.23-9.29c2.73-0.4,5.35-0.5,7.47-2.62c-2.42,0.3-4.85,0.61-7.37,0.91c-7.01-14.02-12.64-7.67,0.2-10.3
		c18.33-3.74-3.17-0.36-11.41-2.42c-1.51-1.11-2.12-4.24-4.85-7.07c3.84,0.3,5.65-4.54,9.29-1.72c1.21-3.94,5.05-2.73,7.67-3.74
		c2.93-1.12,6.26-1.11,9.59-2.42c-6.48-1.33-17.49,2.37-23.72,4.44c-3.23,2.12-3.23,2.12-5.05-1.51c0.17-0.15,12.08-5.52-0.5-2.73
		c-3.03-2.02-3.94-5.25-5.96-8.68c5.15,2.52,9.89,4.95,15.55,2.93c-2.02-3.49-9.99,1-16.86-6.06c-4.73-4.86-11.14-6.31-16.15-10.3
		c-3.07-2.45-9.77-3.57-11.71,0.61c-2.32-3.43-5.24-5.59-9.09-4.85c-2.24,0.43-18.58-0.77-18.58,0.61c-0.1,0,0.46-7.91,6.76-10.3
		c3.73-1.42,7.37-3.53,8.58-7.77c1.11-0.61,1.72,0.5,2.62,0.4c0.3,0,0.38-3.25,2.79-2.08c-1.24,0.23-1.43,2.03-2.76,2.15
		c-0.47,0,0.97,0.7,2.38,2.66c3.12,3.7,6.89,4.01,6.14,3.07c-1-1.25-0.8-2.7-1.19-4.18c3.03,2.22,6.16,4.44,9.79,7.07
		c-3.73,0.4-5.25-3.42-8.26-2.73c5.07,4.5,14.14,8.28,18.25,7.47c2.42,1.62,4.85,4.34,8.38,2.12c1.82,3.23,4.54,4.54,8.48,4.54
		c-0.91-1.62-2.62-0.5-3.33-1.82c2.52-1.11,5.25,0,7.77-1.21c0.91,1.11-0.81,1.82,0.1,3.03c4.1-0.99,9.84-6.09,11.4-5.96
		c-0.16-0.86,0.13-1.54,0.51-2.42C273.48,374.45,274.69,374.55,275.8,374.65z M214.61,360.44c0-0.05,0.02-0.02,0.06-0.02
		C214.65,360.43,214.63,360.43,214.61,360.44z M218.99,364.08c-1.48,0.5-4.39-3.61-4.22-3.61l0.04-0.04
		c-0.01,0.01-0.01,0.03-0.02,0.05C216.67,360.82,219.45,364.54,218.99,364.08z M264.29,377.98c0-0.91,0.5-1.31,1.82-1.11
		C265.5,377.48,265.1,377.98,264.29,377.98z M367.57,224.63c-3.93,9.29-8.01,6.53-13.73,16.66c-8.43,14.92-24.81,15.01-33.92,23.02
		c1.11-6.97,0.61-13.23,2.12-19.48c-2.22,2.22-3.51,5.25-3.13,7.77c0.64,4.23-1.01,7.87-1.62,11.91c-3.03-7.07-6.66-13.73-9.99-20.6
		c-0.4,0.2-0.91,0.4-1.31,0.61c21.83,36.38-0.53,64.66-6.36,91.87c-3.24,15.11-11.81,14.66-23.32,27.06
		c-5.53,5.96-2.88,7.97-7.37,9.79c-1.13,0.46-10.36,5.88-14.03,4.04c-0.5-1.41,1.01-2.12,0.5-3.53c-1.62,0.3-1.82,2.12-3.03,2.93
		c-2.83-0.91-5.75-1.82-8.88-2.83c0.2-3.33,0.4-6.66-2.83-9.59c-0.3,2.93,0.71,5.45-0.2,8.08c-2.12,0.2-3.86-0.68-5.35-1.92
		c-7.67-6.34-18.37-8.78-23.42-17.87c2.32-7.27,6.89-12.61,9.59-18.98c4.07-9.6,8.51-12.17,5.75-17.97c-0.5-1.06,0.1,0.38,0.1-13.23
		c6.97,1.62,13.23-0.61,19.48-1.62c1.01,0.81-0.61,1.62,0.4,2.83c2.52-4.74,7.77-5.45,11.41-8.48c0.91-0.1,1.21,1.01,2.22,0.61
		c0.9-0.9-0.03-2.49,2.93-4.64c9.66-7.01,11.81-17.26,12.62-28.27c0.67-8.99-5.9-20.77-5.05-22.61c1.31-0.5,1.81,0.31,2.22,1.01
		c2.59,4.46,6.17,8.28,7.98,13.23c0.41,1.11,0.92,2.32,1.51,3.43c4.99,9.35,0.05,10.65,12.62,22.51
		c5.92,5.59,12.61-5.83,13.12-14.23c0.34-5.54-0.17-16.17-4.95-18.98c0.83,6.25-4.43,3.28-6.26,15.35c4.54-2.12,3.43-7.77,6.86-10.6
		c6.23,12.45-1.5,34.91-9.69,24.33c-9-11.62-1.58-12.52-17.47-34.33c-5.25-7.2-7.49-5.85-16.15-1.51c-1.11-0.81-2.12-1.51-3.33-2.42
		c-0.2-5.55-0.2-11.31-3.74-16.35c3.33-1.31,6.06-3.13,7.77-6.16c1.72,0,3.33,0,5.05,0c4.37,5.04-0.75,5.04,3.94,11.41
		c4.45,6.05-0.15,7.84,3.53,10.6c1.72,0.71,2.33-1.44,4.04-1.21c1.32,0.18,1.7-1.72,1.62-3.23c-0.24-4.24,1.14-8.28,1.31-12.52
		c0.07-1.72,1.11-2.83,2.62-3.74c-0.81-1.31-2.73-0.61-2.73-2.73c0.2-0.71,1.62,0.4,2.12-0.5c0.2-1.72,0.4-3.33,0.61-4.95
		c-0.81-1.41-2.73-2.02-2.22-4.74c3.13,2.73,2.52,6.36,4.14,9.59c2.52-2.93,2.94-6.56,4.24-9.79c1.33-3.32,4.24-5.75,5.05-9.49
		c2.12-0.3,3.84-1.31,5.25-2.73c0.4-1.41-1.21-2.12-1.11-3.13c-1.01-0.91-2.42-0.1-3.13-1.21c2.22-1.21,3.94-0.3,6.26,3.23
		c0.61-2.42,2.73-2.94,4.34-2.62c2.43,0.48,4.95-0.12,7.27,0.71c1.92,0.69,3.84,0.1,5.86-0.91c1.01,3.94,0.44,7.75,2.52,11
		c2.6,4.06-9.64,1.34-7.17,11.91c1.21-0.81,0.5-2.22,1.31-3.13c1.82,0.5,3.33-0.3,4.95-0.2c3.26-2.17-1.23,0.3,9.39,0.3
		c8.58,0,17.26-0.39,25.44,3.53c2.12,1.01,4.54,0.82,6.76,1.92C367.46,215.06,369.62,219.79,367.57,224.63z M321.23,204.44
		c-0.71,0.61-1.21,0.3-1.92,0.2C320.12,204.13,320.63,204.13,321.23,204.44z"/>
	<path d="M571.6,540.22c4.31-1.28,3.27-10.19,2.22-13.02c-8.03-21.6-5.4-25.77-10.4-36.45c3.54-6.32,2.99-15.21-4.24-13.83
		c-3.13,0.6-6.26,1.21-9.09,1.82c-3.13-1.31-1.41-4.34-2.62-6.36c-1.92,1.31-0.61,3.53-1.51,5.05c-4.85,0.3-4.95,0.2-7.37-2.02
		c2.75-11.33,3.64-14.33,2.12-16.86c-1.82-3.03-1.01-6.16-1.62-9.29c1.31,0.3,0.1,2.22,1.72,2.02c1.34-1.34-2.08-5.53-2.32-7.47
		c-2.6-20.64-7.65-40.4-1.72-58.66c2.86-8.79,8.39-10.28,8.68-17.87c0.31-8.03,7.94-14.35,2.42-26.15
		c-1.19-2.54-1.21-5.45-1.31-8.88c7.37,2.02,14.64,0.4,22.21,1.01c-1.51,2.93-3.53,4.85-4.54,7.37c3.63-1.21,5.15-4.54,7.27-7.37
		c12.92,0,16.33-3.42,6.97,17.47c-0.1-2.93,1.51-5.65-1.82-7.47c-0.4,2.83,0.05,4.96,0.61,7.07c1.01,3.88-2.49,7.96-5.25,18.07
		c-2.84,10.41-6.45,11.6-6.56,17.36c-0.36,18.64-1.17,17.32-6.36,41.49c-3.68,17.13-4.39,46.16-1.21,48.76
		c2.83-0.94-0.16-5.56,0.61-16.46c3.37-48.18,11.27-54.91,9.89-73.8c-0.11-1.51,1.62-3.23-0.4-4.64c4.85-5.35,7.57-11.31,7.98-18.48
		c0.49-8.64,7.55-10.93,10.3-23.62c3.92,14.99,11.11,19.53,10.3,27.36c-1.76,16.93-5.97,29.42,4.85,46.94
		c9.23,14.96,6.17,13.74,7.57,16.56c8.19,30.13,8.81,30.43,6.97,33.11c2.22,2.73,1.69,6.17,2.62,9.19
		c2.06,6.68,12.84,11.06,18.98,7.57c2.64-1.5,2.15-1.95,6.06-8.99c4.74,4.95,1.31,10.1,0.91,15.04c-1.11,0.91-3.03,0.71-3.74,2.42
		c1.82,1.82,4.04,0.2,6.16,0.81c-8.61,5.34-0.32,3.13,1.82,3.63c-1.51,1.92-4.44,1.72-4.85,3.74c1.72,2.93,4.44-1.41,6.16,1.72
		c-1.92,0.61-3.74,0.91-4.54,3.03c2.02,1.11,3.74,0,5.45-0.4c0.2,1.31-1.51,1.11-1.31,1.72c0.7,2.15,3.17-0.91,1.11,2.52
		c0.2,0.81,1.31,0.2,1.51,0.81c2.22,5.15,6,9.26,8.99,13.93c2.76,4.32,2.93,4.34-0.61,8.18c-36.7-11.39-22.35-9.36-36.65-21.2
		c-6.44-5.33-24.36-14.49-27.17-22.67c0.04,0.05,0.07,0.11,0.11,0.16c13.05-7.64,17.12-7.51,16.96-11.71
		c-0.1-2.83-0.2-5.45,1.82-8.48c-2.83,0.81-3.61,2.53-4.04,4.24c-3.03,12.01-17.67,11.44-14.95,15.65
		c-6.08-0.2,6.72,14.83,17.37,19.38c12.53,5.35,11.69,17.26,29.38,22.31c16.22,4.63,15.63,6.55,18.07,5.15
		c4-2.3,4.97-7.69,2.32-11.41c-4.2-5.89-8.68-11.51-10.7-18.78c-4.19-15.06-7.86-13.91-5.25-18.48c3.98-6.97-2.01-15.26-5.25-14.54
		c-1.21,0.5-0.91,1.92-1.92,2.42c-1.11-3.43-2.72-6.87-3.13-10.3c-1.39-11.67-3.13-63.25-3.13-63.5c0.03-2.86-3.72-13.74-3.23-22.21
		c0.35-6.11-2.38-7.59,0.2-12.22c2.57-4.62-0.71-8.18-2.12-12.01c-3.98,1.33,3.03,4.85-0.5,12.01c-1.57,3.18,0.63,6.03,0.3,14.34
		c-0.45,11.32,2.64,11.17,2.93,22.21c2.07,79.04,7.92,69.63,5.96,74.2c-24.54,2.08-15.58-5.63-22.01-26.85
		c-4.97-16.41-3.29-21.66-9.89-30.29c-19.95-26.05,3.26-46.05-13.53-67.34c-1.04-1.32-4.02-6.51-3.63-8.68
		c12.82-1.01,25.54-4.64,38.57-4.34c1.51,4.64-0.5,9.09,0.4,13.53c2.73-4.24,3.63-8.99,2.93-13.73c1.92-0.91,3.94,0.2,5.05-1.21
		c4.54-50.91-1.48-43.91-4.54-63.3c-2.61-16.51,2.67-23.68-7.27-32c-12.84-10.74-2.22-15.67-3.63-18.58
		c-3.13-6.44-0.5-35.24,3.43-41.09c9.49-14.12,7.98-29.24,7.98-43.11c0-32.27-6.08-30.84-2.73-41.09
		c6.92-2.97,25.6-10.26,30.69-19.89c6.85-12.95,19.81-11.59,14.44-29.18c-0.59-1.92-1.52-3.13-3.33-3.63
		c-5.35-1.5-10.4-3.83-15.75-5.15c-16.89-4.15-24.18-0.02-27.26-2.22c-0.3-2.12,1.42-3.94,0.61-5.65
		c-1.79-3.75-1.11-7.77-2.02-11.41c1.51-2.93,5.05-3.33,6.86-5.65c0-1.21,0-2.32,0-3.33c-1.31-1.01-2.73,0-4.24-0.3
		c1.11-1.21,2.93-1.11,3.13-2.93c-1.72-1.82-3.23,0.1-4.85,0.4c-0.71-1.72,0.61-3.84-0.71-5.45c-1.62,0.4-1.92,2.22-3.43,2.42
		c-2.54-2.93-6.97,1.04-9.89,0.5c-3.93-0.72-7.87-0.1-11.41-0.3c-1.51,0.5-1.51,2.32-3.13,2.32c-0.81-0.4,0.3-2.12-1.41-2.12
		c-9.76,9.22-9.23-0.4-13.53,2.32c-0.1,1.41,1.21,1.92,1.51,3.13c-1.51,1.11-1.31,3.23-2.22,4.74c2.62-0.61,4.34,1.82,7.47,1.41
		c-2.22,2.42-4.54-1.21-6.06,2.22c-0.08-1.63,0.37-3.07-0.59-3.45c-0.97-0.48-1.62,0.42-2.05-0.58c0.3,3.63-2.62,6.26-2.73,9.49
		c-1.51,0.81-2.92-0.3-3.84,1.01c-1.91,2.73-4.35,1.94-6.56,0.81c-2.53-1.29-5.24-2.63-7.07-4.64c-7.03-7.74-23.99-12.94-28.77-10.6
		c-4.61,2.25-9.28-1.21-10.7,2.62c-1.23,3.33-3.45,6.15-4.44,9.59c-0.72,2.52-0.1,5.15-0.3,7.57c-1.68,19.67,5.95,31.01,13.12,43.31
		c2.54,5.08-2.78,2.85,5.15,18.07c2.95,5.66,3.18,15.87,2.52,22.21c-2.18,21.16,5.13,29.05,8.08,42.4
		c0.36,1.62,6.74,37.31,6.26,52.6c-0.71,1.21-2.32,0.5-2.93,2.22c0.5,2.52-0.81,5.05-2.32,7.37c0,0.91,0.81,0.71,1.31,1.21
		c-0.4,0.5-0.91,1.01-1.31,1.62c-0.1,0.2-0.1,0.4-0.2,0.61c5.08-2.54,2.76-4.54,5.35-7.27c0.5,1.21,0,2.62,0.91,3.74
		c2.12,0.71,4.54-0.91,6.76,0.71c-1.41,3.33-5.25,3.94-7.17,6.76c5.65-0.4,8.48-2.83,10.2-8.58c-0.4-1.11-1.41-0.61-2.22-1.01
		c-0.1-1.11-0.1-2.32-0.2-3.63c2.62,0,5.05-0.81,7.37,0.61c-0.26-0.26,3.96,0.16,5.35,2.62c4.44-1.11,7.98,1.82,12.01,1.82
		c-0.1,0.81-0.3,1.31-0.5,2.42c1.82-1.72,3.53-2.42,5.55-1.31c0.1,1.62-0.3,3.43,2.32,3.13c0.2,0,0.3-0.2,0.4-0.3
		c-0.5-0.61-1.62-0.1-1.72-1.41c1.82-1.11,3.94,0.4,5.65-0.3c0.61,1.01-0.91,1.72,0,2.52c1.01-0.1,1.21-1.92,2.52-1.41
		c0.61,0.81-0.91,1.62-0.1,2.42c0.71,0.71,1.92,0.71,2.32,1.62c0,1.72-0.2,3.43,0.81,5.55c0.5-2.02,0.81-3.53,1.21-5.25
		c2.22,1.11,4.55,0.69,6.56,2.42c3.96,3.41,4.04,3.23,3.74,4.54c-2.22,0-2.62-2.62-4.74-3.53c0.5,3.84,3.63,4.34,5.86,5.86
		c0.2,2.93,2.22,4.85,4.24,6.66c1.16,0.92,1.15-0.13,0.93-0.3c-0.39-0.39-0.63-0.76-0.63-1.31c1.16,0.52-0.01,0.21,2.52,2.32
		c9.94,8.27,0,14.17,9.29,43.92c4.71,15.08,1.68,14.77,1.82,22.41c0.15,8.28,1.41,16.46-0.71,25.14
		c-20.78-0.4-50.98,6.87-46.74,2.62c6.08-4.19-1.81-19.18,3.53-25.54c0,11.88-0.45,2.15,2.83,9.79c5.08,11.85,3.87,10.79,5.45,9.99
		c-2.83-6.16-3.74-12.92-6.56-19.28c0.61-2.42,1.21-5.05,1.82-7.87c5.15,2.12,10.2,3.33,14.84,5.96c-3.74-4.14-8.78-6.06-13.53-8.28
		c1.01-2.02,3.03-3.43,2.52-6.56c-2.73,2.42-5.45,4.24-5.65,8.08c0,2.91-6.71,6.88-5.65,16.25c2.06,18.18,2.31,12.29-8.68,12.62
		c-34.09,1.01-33.53-1.44-39.78,1.51c-1.11-3.53-3.33-6.46-0.5-9.89c0.4-0.4,0.32-1.21,0.3-1.82c-1.48-62.94-4.84-53.42,3.53-50.38
		c-1.62-2.83-3.74-3.63-6.06-4.14c-2.05-10.42,2-29.67,3.33-32.91c2.09-5.06,5.75-9.19,8.18-14.23c-2.22-0.61-2.42,0.81-3.13,1.62
		c-14.07,16.08-12.41,33.75-9.49,95.81c0.19,4.04-0.77,8.09,0.2,12.11c0.57,2.33,1.51,4.64,0,7.67c3.74-0.71,6.56-2.52,10.3-2.32
		c-0.1,7.07,3.34,13.53,2.22,20.8c-0.6,3.94-2.13,7.67-2.52,11.51c-0.52,5.15-3.12,9.19-5.75,13.33
		c-15.86,24.89-1.43,47.47-0.1,88.74c-2.73,0.91-3.61,2.83-4.24,5.25c-2.34,9-8.64,6.77-13.43,16.56
		c2.25,20.63,11.61,9.23,13.43,27.46c1.79,18,13.38,22.34,34.02,24.94C568.98,541.2,570.29,540.61,571.6,540.22z M640.15,473.49
		c-3.43,7.07-13.63,6.56-17.87,0.5C628.24,475.1,634.1,476.31,640.15,473.49z M630.46,9.99c0,0.91-0.4,1.62-1.51,2.02
		C628.34,10.4,628.75,9.69,630.46,9.99z M611.18,7.07c-0.5,1.01-1.31,1.41-2.32,2.22C608.86,7.37,609.56,6.86,611.18,7.07z
		 M598.06,22.21c1.41,1.21,0.3,1.51-0.2,2.22C597.35,23.52,597.55,22.92,598.06,22.21z M595.73,9.09c-0.1,0.1-0.4,0-0.71-0.1
		C595.23,7.54,597.07,7.75,595.73,9.09z M597.45,13.93c-0.4,1.62-1.51,2.52-2.93,3.13C594.93,15.45,596.24,14.74,597.45,13.93z
		 M593.11,27.86c0,1.11-0.3,1.51-1.21,1.51C591.59,28.47,592.1,28.07,593.11,27.86z M590.69,27.36c-0.2,0.61-0.5,1.01-1.21,1.01
		C589.27,27.36,589.47,26.85,590.69,27.36z M588.46,38.06c-1.72-0.61-2.32-1.72-2.83-3.63C588.06,34.93,588.36,36.24,588.46,38.06z
		 M585.84,26.55c0.95-0.53,0.74,0.57,0.1,1.21C585.44,27.36,585.44,26.65,585.84,26.55z M583.72,37.76c1.11,0.5,1.31,1.21,0.91,2.32
		C583.52,39.47,583.62,38.67,583.72,37.76z M582.51,59.56c-0.3-1.92-1.01-3.84,0.81-5.96C583.52,55.93,583.42,57.75,582.51,59.56z
		 M583.21,26.25c-0.81-1.11-1.41-1.82-2.52-3.13C582.81,23.72,583.32,24.53,583.21,26.25z M555.25,216.05
		c-1.01-1.82-0.3-3.03,0.5-4.34C555.86,213.02,556.86,214.43,555.25,216.05z M558.68,215.34c-0.88-0.44-0.78,0.32-0.4-3.43
		C558.68,213.02,558.98,214.23,558.68,215.34z M601.39,221.6c0.61-1.72,1.82-0.61,3.23-1.11
		C603.41,222.81,602.5,222.51,601.39,221.6z M606.23,223.11c-0.3-1.11-0.3-1.11,0.81-1.62
		C607.24,222.31,607.24,222.91,606.23,223.11z M609.67,223.21c-0.81,0.54-1.3-1.21,0.1-1.21
		C610.17,222.41,610.07,222.91,609.67,223.21z M613.4,225.94c-2.12-1.11-2.12-1.11-0.3-4.44
		C613.91,223.32,613.5,224.63,613.4,225.94z M615.62,225.33c-0.3-0.5-0.2-1.01,0.1-1.62C616.03,224.22,615.82,224.73,615.62,225.33z
		 M581.7,212.71c0.4-3.84,0-6.06-1.92-9.49c-0.91,2.93,0.3,5.55-0.4,8.78c-7.47-2.42-14.94-5.15-23.32-3.03
		c0.42-10.28-4.5-53.23-9.39-63.7c-3.5-7.49-4.24-15.65-4.95-24.33c2.32,0.71,4.44,1.01,6.16,2.02c8.75,5.12,16.27-1.8,17.57-1.51
		c-0.5,2.83-0.71,5.75-1.92,8.68c6.82-4.15,1.85-9.91,9.19-17.77c2.93,0.81,3.23,4.74,6.66,5.55c-1.21-3.23-3.74-5.55-4.74-8.99
		c2.62-3.53,4.52-7.68,6.26-11.81c4.56-10.86-0.12-14.73-1.21-23.83c-0.11-0.91-0.1-2.02-1.31-2.42c-1.62,0.4,0.1,1.82-1.01,2.42
		c-17.15-16.72-14.14-10.81-11.41-8.08c10.17,9.01,22.4,13.1,6.76,39.27c-1.51-0.71-1.33-1.92-1.21-3.13
		c0.69-7.3,0.22-24.71-6.06-27.56c-0.92,5.98,4.63,7.56,3.33,15.04c-2.87,16.5,6.29,20.02-2.73,23.93c0,2.42-0.4,4.65-3.03,6.06
		c-5.61,3-6.6,5.2-21.5-1.01c-1.04-15.99,4.28-23.04-2.02-22.11c1.21-1.31,10.96-9.21,9.49-14.44c-3.43,3.53-5.05,8.28-8.78,11.91
		c-12.36-22.96-3.82-18.65-11.51-30.89c-6.25-9.96-8.24-21.09-9.29-32.41c-0.53-5.75,0.81-9.19,5.45-16.76c3.63,0,7.17-0.18,11-1.21
		c3.64-0.98,7.89,1.36,11.81,2.32c7.57,1.85,5.65,4.37,21,12.72c6.88,3.74,9.72-5.99,12.11,1.31c1.81,5.5-0.91,5.95,0.1,8.38
		c2.72,6.5,0.56,15.79-0.1,16.96c-3.03,5.37,1.72,7.53-1.11,10.6c-0.4-4.34-2.73-7.47-5.65-10.4c0.81-2.32,0.1-4.44-0.3-6.56
		c0.4-0.4,1.31,0,1.51-1.01c-4.8-9.9-17.31-5.9-23.22-12.62c-2.09,5.38,8.69,7.06,7.87,22.41c-0.11,2.12-0.4,4.44,1.51,7.07
		c1.21-8.18,2.42-15.55-3.13-22.72c4.74,0.91,8.58,1.92,12.52,3.43c0.71,3.43,3.43,6.36,1.82,10.2c3.13,3.74,5.65,7.47,4.04,12.82
		c-0.71,0.61-2.32,0.81-2.32,2.52c1.31,1.31,2.52-0.3,4.14,0.1c7.49,5.76,2.58,3.43,2.32,5.25c0,0,0,0.5,0.2,0.61
		c9.63,4.04,9.6,18.67,22.61,24.53c1.11,5.05,1.31,10.1,3.94,14.54c0.3-4.34-0.81-8.58-1.11-13.02c2.12-0.1,4.34,0.91,6.56-0.91
		c-0.1-6.76-1.89-13.54-2.52-20.49c-0.08-0.91-1.01-1.62-2.83-2.22c0.61,7.17,1.82,13.93,2.02,20.8c-1.62,0-3.03-0.3-4.54-1.31
		c0.5-3.94-3.39-5.28-5.25-7.98c-9.29-13.46-8.18-7.75-13.83-15.24c-1.74-2.31-3.53-4.44-6.26-5.55c0.56-2.23,4.44,0.63,4.44-7.47
		c0-3.33,1.21-6.56,1.21-9.89c0-1.92,1.51-2.93,2.62-4.04c-0.61-1.11-2.12-0.4-2.52-1.51c-1.04-2.08,1.19-0.7,2.02-2.12
		c0.03-0.1,0.9-9.02,2.12,0.1c1.72-0.3,2.02-1.72,2.32-2.93c1.32-5.35,4.34-9.79,6.76-14.64c0.5-1.01,1.01-2.02,2.42-1.82
		c1.72,0.1,1.92-1.92,3.33-2.12c0-1.51-0.81-2.52-1.31-3.63c-1.11-0.1-2.12-0.3-3.23-0.4c0.34-3.04,5.18-0.32,6.36,2.83
		c1.31-2.42,3.13-2.9,5.35-2.52c2.52,0.43,5.15,0.01,7.67,0.81c1.61,0.51,3.03-0.81,4.95-0.61c0.3,4.24,1.21,8.38,2.42,12.42
		c-4.24,2.12-9.49,3.23-7.47,9.69c1.01,0.1,0.61-0.71,0.71-1.21c0.1-0.5,0.2-0.91,0.3-1.72c1.55,0.24,6.08,0.12,7.07-1.11
		c4.12,2.7,24.27-1.93,43.51,8.08c7.19,13.38-6.95,16.83-12.42,26.65c-11.25,20.21-36.46,14.04-33.32,28.77
		c-1.72-7.17-7.18-11.71-10.3-17.67c-0.76-1.46-1.02-8.2-3.94-7.87c-0.81,1.72,1.11,2.62,1.51,4.04c-0.2,0.61-1.11,0.5-1.11,1.11
		c2.32,5.92,8.87,12.64,9.99,19.08c1.98,11.3,7.52,11.71,7.67,24.03c0.1,7.98-0.44,16.06,0.5,23.93c2.3,19.1-17.8,41.98-13.23,49.77
		c1.21,2.05-2.22,12.27,1.41,19.69C620.83,222.67,611.61,218.04,581.7,212.71z M594.22,85.81c0.7,0,5.48,6.8,9.39,9.29
		C597.96,94.59,594.9,86.5,594.22,85.81z M625.62,34.83c-0.4,0.5-0.81,0.3-1.31,0.1C624.81,34.43,625.21,34.22,625.62,34.83z
		 M538.29,479.04c3.84,1.01,7.98,0.1,11.31,2.62c-0.81,2.02-4.34,3.03-11.41,2.93C537.89,482.77,537.89,481.06,538.29,479.04z
		 M536.98,470.15c0.61,1.41,0.61,2.32-0.5,3.33C535.87,472.17,536.57,471.47,536.98,470.15z M531.52,503.57
		c-6.14-4.93-12.18-13.12-6.26-18.37c3.47-3.08,7.77-5.15,10.6-9.29c-0.3,2.02-0.44,3.93-0.71,5.75c-1.42,9.76,9.19,3.5,14.23,4.54
		c2.02-1.01,1.72-3.13,3.03-4.74c3.23,0.5,6.66-2.52,10.2,0.1c-0.3,3.43-1.41,6.36-0.71,9.49c-4.34,1.01-8.78,0.1-12.62,2.73
		c4.24,2.02,8.78-0.4,13.12,0.91c-3.74,2.02-8.58,0.4-12.52,3.63c4.74,1.41,8.88-0.1,13.12,0.1c-3.94,1.72-8.48,0.91-12.32,3.13
		c1.11,2.12,3.33,0.71,4.64,1.62c0.1,1-6.85,2.42,9.39,2.42c-3.03,1.21-6.56,0.2-10.2,2.22c3.84,2.12,7.57,1.11,11.91,1.41
		c-3.74,2.42-8.08-0.3-10.9,3.23c3.63,1.51,6.86,1.21,10.6-0.3c1.11,6.46,3.74,12.22,5.86,18.17c0.61,2.12,0,4.34,0,6.56
		c-1.11,1.11-2.42,1.34-3.63,1.31C524.76,537.09,542.08,512.04,531.52,503.57z"/>
	<path d="M707.69,587.77c-0.81-0.5,0-1.82-1.62-2.12c-0.05,0.05-89.02-3.38-97.22,1.82c-6.79,4.3-24.93,0.16-27.26,1.41
		c0.3,2.62-0.91,4.04-3.63,3.13c-0.71,1.01,0.4,1.62-0.3,2.42c-2.42,0.1-4.94-0.08-7.17,1.11c-2.31,1.23-4.85-1.01-7.57,0.4
		c5.96,3.53,14.54,2.93,18.58-1.11c4.13,0.8,10.41,0.25,12.72,0.91c12.81,3.66,18.47-1.6,20.7-0.3c4.87,2.83,15.61-2.49,23.93,0.4
		c3.53,1.23,7.37-0.72,11-0.61c8.18,0.27,15.85-5.15,24.23-1.82c3.37-0.46,23.64-0.1,27.06-0.1c3.45,0,12.72,2.24,13.43-2.93
		C713.25,587.57,713.45,587.67,707.69,587.77z"/>
	<path d="M546.67,258.55c-3.03,8.28-2.22,16.86-2.62,25.54c-2.12-1.11-2.52-3.53-5.55-4.14c1.31,5.15,6.61,7.17,6.66,12.11
		c0.05,4.64,0.91,9.29-1.01,13.83c0-5.88-0.06-4.74-1.31-4.74c1.72,9.19-2.32,18.78,3.33,27.66c1.21-1.72,0.21-3.44-0.61-5.15
		c-4.59-9.58-0.18-9.81,1.31-23.62C548.71,283.08,543.17,274.63,546.67,258.55z"/>
	<path d="M602.09,234.22c-0.75-0.65-2.4-8.34-2.62-9.29c-0.2,0.1-0.5,0.1-0.71,0.2c0,3.94-0.5,7.87,3.33,10.8
		c-2.02,6.76-0.81,13.23,1.31,19.48c-0.4,1.92-2.42,3.13-1.41,5.15c0.81,1.01,1.72-0.2,2.32,0.2c0.81,0.71-0.5,1.72,0.61,2.22
		c1.71-0.76,0.32-3,1.11-4.74c3.63-2.93,8.28-4.44,12.72-6.36c-4.74,0.3-9.49,0.3-13.83,3.03
		C600,242.62,605.02,236.75,602.09,234.22z"/>
	<path d="M622.39,276.62c-6.56-3.74-19.59,3.23-20.29,10.9c2.83-2.52,5.17-5.59,8.78-7.17C614.44,278.8,618.65,278.94,622.39,276.62
		z"/>
	<path d="M560.2,251.28c11.71,0.1,22.11,4.44,32.31,10.7C588.77,255.32,567.36,248.35,560.2,251.28z"/>
	<path d="M634.9,504.18c0.57-1.7,4.67-3.36,2.83-7.17c-1.7-3.51-4.68-2.48-6.97-1.72c-0.1-1.11-0.09-2.23-0.4-3.23
		c-0.67-2.13-3.04-3.28-5.05-2.73c-4.93,1.35-4.02,8.38,1.11,8.38c2.7,0.18,3.51-1.79,3.63-1.41
		C628.95,500.64,629.15,500.95,634.9,504.18z M632.38,496.91c1.62-1.81,5.27-0.26,3.13,3.43c-1.21-0.91-2.42-1.72-2.83,0.61
		C630.97,499.53,631.19,498.24,632.38,496.91z M626.52,496c-3.56,0-3.22-4.53-0.1-4.95C629.54,490.84,629.52,495.57,626.52,496z"/>
	<path d="M602.4,264.2c-1.62,3.53-2.62,6.66-3.03,9.79c5.59-5.59,14.1-6.15,17.57-7.27c-5.25-0.81-10.1,0.4-14.84,2.73
		C601.79,267.74,603,266.42,602.4,264.2z"/>
	<path d="M619.15,483.08c-1.51,1.92-3.23,3.74-4.34,5.86c1.51,1.92,2.22-0.91,2.83-0.5c1.72,1.41,0,3.33,2.02,4.14
		c0.4-1.41,1.11-2.52,2.73-3.13C625.84,487.81,622.09,483.24,619.15,483.08z M618.95,486.61c1.72-2.02,2.22-0.5,3.33,0.81
		C620.27,488.53,619.56,487.82,618.95,486.61z"/>
	<path d="M624.2,355.16c-1.86,2.49-1.11,7.37,1.11,9.39c2.32-2.93,1.41-5.86,0.1-8.78c1.11-1.31,2.62-2.32,2.42-4.34
		C625.11,351.13,625.19,353.84,624.2,355.16z"/>
	<path d="M241.48,255.42c-3.13,3.43-5.65,7.27-10.4,8.38C235.42,266.32,241.28,261.48,241.48,255.42z"/>
	<path d="M561.21,356.27c3.94,1.82,0,4.85,1.82,7.07c3.94-3.94,0.4-8.18,0.91-12.22C558.06,349.36,563.58,353.58,561.21,356.27z"/>
	<path d="M228.45,264c-0.81-4.04-0.91-8.08-3.03-11.91C223.71,258.25,224.92,263.29,228.45,264z"/>
	<path d="M257.83,259.15c2.12-6.56,1.82-10.5-0.91-12.32C257.02,250.88,256.52,254.71,257.83,259.15z"/>
	<path d="M596.54,290.05c-2.73-4.64,0.61-8.28,1.72-12.52C593.01,280.66,592.3,285.81,596.54,290.05z"/>
	<path d="M564.13,376.37c0.4-4.14-2.52-7.47-2.02-11.81C559.69,367.48,560.9,374.25,564.13,376.37z"/>
	<path d="M553.13,355.87c2.42-3.33,2.12-6.97-0.5-10.9C552.22,348.6,552.22,351.83,553.13,355.87z"/>
	<path d="M624.3,407.26c-0.2,6.06,1.51,11.81,2.62,17.77C628.43,420.8,627.27,419.55,624.3,407.26z"/>
	<path d="M613.4,352.34c0.61,2.42,0.3,5.26,3.53,6.16c2.22,0.61,3.94,0.2,5.55-1.82C618.04,357.69,615.42,355.67,613.4,352.34z"/>
	<path d="M545.66,388.48c-1.01,4.04-4.04,7.67-2.32,13.12C545.25,396.86,546.16,392.82,545.66,388.48z"/>
	<path d="M553.33,242.5c15.15-2.22,11.92-1.12,12.42-2.62C561.31,239.27,557.17,240.17,553.33,242.5z"/>
	<path d="M229.16,235.33c0.61,3.23-0.1,6.87,2.93,9.19C232.09,241.08,231.58,237.85,229.16,235.33z"/>
	<path d="M258.24,273.09c-1.11-4.54-0.2-8.28-0.61-12.72C255.41,264.3,255.61,270.16,258.24,273.09z"/>
	<path d="M556.26,389.69c1.11,0.71,0.81,2.62,2.62,3.03c-0.4-2.42-1.31-4.34-2.62-5.35c-0.71-1.62,0.61-2.62-0.1-4.24
		c-1.21,2.73-1.72,5.05-1.41,7.47C555.86,391,555.75,389.89,556.26,389.69z"/>
	<path d="M542.33,404.83c-0.61,4.24-1.41,8.48-0.4,12.92C542.93,403.4,543.56,404.83,542.33,404.83z"/>
	<path d="M613.5,409.48c-0.4,3.03-2.93,5.25-3.43,8.68C613.6,416.95,614.41,414.73,613.5,409.48z"/>
	<path d="M536.88,246.23c4.54,2.62,8.48,1.92,12.52,1.01c-1.82-1.82-3.74-0.2-5.65-0.2C541.62,247.04,539.8,245.42,536.88,246.23z"
		/>
	<path d="M570.9,359.91c-2.42-2.62-3.33-2.52-4.95,0.1C568.27,362.43,568.58,362.43,570.9,359.91z"/>
	<path d="M234.92,256.23c-1.21-2.83-0.3-5.96-1.01-8.78C232.09,251.48,232.29,252.79,234.92,256.23z"/>
	<path d="M546.97,384.85c1.51-2.83,3.03-5.65,1.51-8.99C548.28,378.89,546.77,381.72,546.97,384.85z"/>
	<path d="M605.73,366.77c0.85,1.8,0.2,3.74,1.21,6.16c1.21-4.64-0.4-7.98-2.22-11.81C603.71,363.54,604.96,365.14,605.73,366.77z"/>
	<path d="M245.52,262.99c1.21,2.93,1.92,6.16,4.44,8.38C248.95,268.34,248.24,265.11,245.52,262.99z"/>
	<path d="M592.1,230.28c0.94,0.47,0.07,1.62,5.05-7.27C594.62,221.33,593.98,227.51,592.1,230.28z"/>
	<path d="M548.08,466.12c-0.4-2.62,0-5.35-1.21-7.87C546.97,460.87,545.15,463.89,548.08,466.12z"/>
	<path d="M606.54,339.52c-1.92,3.84-2.42,6.66-1.82,9.69C605.63,345.98,606.84,343.15,606.54,339.52z"/>
	<path d="M564.23,341.13c-2.83,1.01-3.74,3.43-2.32,6.87C564.81,341.12,564.23,343.21,564.23,341.13z"/>
	<path d="M569.99,217.56c3.33,0.71,6.66,1.41,9.89-0.2C576.55,218.07,573.22,216.25,569.99,217.56z"/>
	<path d="M548.69,239.57c0.91-3.33,1.11-6.76,0.2-10.2C547.5,229.84,547.95,227.37,548.69,239.57z"/>
	<path d="M626.73,464.8c0,2.32-0.3,4.64,1.51,7.17C628.85,468.84,628.44,466.72,626.73,464.8z"/>
	<path d="M619.56,393.73c-0.2,3.94,0.81,7.17,2.62,9.19C621.28,399.79,620.47,396.76,619.56,393.73z"/>
	<path d="M558.48,395.85c0.61,2.42,0.2,5.25,2.73,7.17C559.38,395.4,559.82,394.96,558.48,395.85z"/>
	<path d="M233.5,214.03c1.82-2.73,1.31-4.74-0.81-6.66C233,209.48,233.2,211.5,233.5,214.03z"/>
	<path d="M243.09,200.1c2.52-0.3,4.74-1.11,7.77-2.62C247.33,197.47,244.91,197.87,243.09,200.1z"/>
	<path d="M553.74,373.03c-0.4,2.42,0.2,4.14,1.72,5.65C555.35,376.87,555.96,374.75,553.74,373.03z"/>
	<path d="M246.12,209.79c0.4,2.02,0.2,4.24,1.92,5.96C248.04,213.62,248.04,211.4,246.12,209.79z"/>
	<path d="M548.28,365.46c-1.62,2.42-1.51,4.44-0.71,6.56C547.88,370,549.29,368.09,548.28,365.46z"/>
	<path d="M627.13,372.53c-0.4-1.72-0.61-3.43-2.42-5.15C624.61,370,625.41,371.52,627.13,372.53z"/>
	<path d="M615.02,401.5c-0.3,1.51-1.01,3.13-0.2,4.95C616.73,404.83,616.33,403.22,615.02,401.5z"/>
	<path d="M242.99,252.59c0.81-2.02,3.84-1.92,4.14-4.44C245.72,249.66,242.99,249.77,242.99,252.59z"/>
	<path d="M566.66,220.59c-1.72,1.21-1.72,2.73-1.82,4.24C565.14,223.32,567.36,222.71,566.66,220.59z"/>
	<path d="M227.04,232.91c-0.71-1.72-1.41-3.33-2.12-5.05C224.72,229.88,225.43,231.59,227.04,232.91z"/>
	<path d="M611.68,384.14c0.81-1.51,0.91-3.03-0.71-4.34C610.57,381.51,610.78,382.83,611.68,384.14z"/>
	<path d="M228.35,203.33c0.91,2.12,1.82,2.93,3.84,2.62C231.48,204.23,230.57,203.33,228.35,203.33z"/>
	<path d="M240.37,202.22c0.71,2.22,1.51,3.63,3.74,4.95C243.09,204.94,242.69,203.33,240.37,202.22z"/>
	<path d="M620.57,440.98c0,2.22,0.71,3.74,1.51,5.15C621.68,444.51,622.08,442.69,620.57,440.98z"/>
	<path d="M586.75,224.32c-2.22-0.3-3.33,0.81-4.54,1.72C583.82,226.24,585.33,226.04,586.75,224.32z"/>
	<path d="M579.48,225.84c0-1.01,1.82-2.22-0.1-3.33C578.07,223.62,578.37,224.73,579.48,225.84z"/>
	<path d="M548.08,466.22c-0.5,1.41-0.81,2.93,0,4.74C549.8,469.14,549.09,467.63,548.08,466.22z"/>
	<path d="M252.78,264.4c0.61,1.41,0.71,2.93,3.13,3.94C255.01,266.22,254.1,265.11,252.78,264.4z"/>
	<path d="M565.04,371.62c-0.1,1.62,0.71,2.02,2.32,1.92C566.86,372.33,566.56,371.32,565.04,371.62z"/>
	<path d="M632.89,299.74c-0.4-1.41-1.11-2.02-2.93-1.62C630.87,299.23,631.67,299.84,632.89,299.74z"/>
	<path d="M545.05,224.93c-0.3,1.11-1.01,2.02-0.81,3.43C545.37,227.99,546.39,225.66,545.05,224.93z"/>
	<path d="M564.13,212.41c-1.01,0.5-1.62,1.11-1.01,2.02C564.44,214.03,564.44,214.03,564.13,212.41z"/>
	<path d="M267.52,202.32c0.91,0.5,1.62,1.21,3.33,0.2C269.34,201.91,268.53,201.31,267.52,202.32z"/>
	<path d="M574.33,335.68c-0.4,0.71-0.71,1.21,0.2,2.12C575.44,336.89,575.44,336.29,574.33,335.68z"/>
	<path d="M553.23,337.7c-0.5,1.62-0.81,2.83,0.2,4.64C554.14,340.53,554.24,339.31,553.23,337.7z"/>
	<path d="M614.51,398.27c0.62-3.43-2.12-3.04-1.11-1.01C613.6,397.77,613.6,398.47,614.51,398.27z"/>
	<path d="M611.79,388.08c-0.38,2.68,2.31,1.61,0.61-0.1C612.19,387.77,611.99,387.77,611.79,388.08z"/>
	<path d="M544.04,376.16c-1.51,0.71-1.41,1.72-1.21,2.83C543.54,378.28,544.25,377.58,544.04,376.16z"/>
	<path d="M237.14,223.92c-1.21,0.5-0.91,1.11-0.61,1.92C237.44,225.33,237.84,224.93,237.14,223.92z"/>
	<path d="M541.92,383.23c-1.01,0.81-1.31,1.51-1.01,2.62C542.13,385.35,542.33,384.54,541.92,383.23z"/>
	<path d="M565.45,231.39c-1.11,0-1.31,0.5-1.41,1.41C564.84,232.5,565.45,232.4,565.45,231.39z"/>
	<path d="M235.22,216.65c-0.5,0.71-0.91,1.11,0.1,1.62C235.82,217.86,236.03,217.36,235.22,216.65z"/>
	<path d="M568.47,212.11c-0.71,0.71-1.51,1.31-0.2,2.32C569.38,213.62,568.88,212.92,568.47,212.11z"/>
	<path d="M579.48,303.78c-3.04,1.69-1.82,3.77,0.28,0.58c0.45-0.13,3.62-2,4.97-2.9c8.07-5.38,8.16-4.42,8.58-6.76
		C585.07,297.99,579.96,304.26,579.48,303.78z"/>
	<path d="M274.09,206.66c-0.61-0.71-1.21-0.71-1.82-0.1C272.87,207.36,273.48,207.26,274.09,206.66z"/>
	<path d="M546.57,221.6c0.61-0.2,1.21-0.4,1.51-1.01C547.69,219.8,546.36,220.54,546.57,221.6z"/>
	<path d="M611.18,346.38c-0.3,0.61-0.71,1.11,0.3,2.22C611.79,347.59,611.99,346.99,611.18,346.38z"/>
	<path d="M546.06,440.17c-0.5,0.1-0.5,0.4-0.5,1.11C546.26,440.88,546.16,440.47,546.06,440.17z"/>
	<path d="M303.06,239.87c1.01,3.23-2.73,5.35-1.21,8.68c1.51-2.42,2.93-4.95,5.65-6.76c7.67,1.62,11-3.03,12.01-10.5
		c4.89,2.56,6-8.92,12.82-5.45c5.86,2.98,4.55-1.38,12.01,1.72c2.51,1.04,5.05,1.72,8.38-0.61c-5.24-0.55-24.28-5.91-30.39-6.16
		c-0.63-1.67,3.61-8.58-1.01-13.73c-0.3,11.31-1.62,22.51-6.56,32.81C310.63,239.87,306.9,239.87,303.06,239.87z M325.78,223.82
		c-0.2,1.31-1.31,1.01-1.92,1.62c-0.61,0.4-1.31,0.81-2.12,1.31C319.65,221.74,324.67,223.66,325.78,223.82z"/>
	<path d="M278.63,348.6c-13.81,4.23-5.89,2.51-3.13,3.43c-1.41,3.43-3.74,5.65-6.46,7.57c-15.01,0-1.72,1.14,0,3.94
		c3.53-5.55,8.28-9.09,12.22-13.33c0.91,0.61,2.12,1.11,3.43,0.3c-0.3-1.21-2.12-1.01-2.12-2.93c5.55-2.62,5.65-8.28,6.46-13.63
		C283.37,346.34,281.98,347.58,278.63,348.6z"/>
	<path d="M298.42,206.76c4.64,0.71,8.78,1.01,12.32-2.42c-1.82-4.44-9.59-4.74-13.73-0.4c1.62,0.4,2.52-1.11,4.24-1.21
		c0.91,0.71,2.52,0.61,3.94,0.91C303.57,205.85,300.13,203.83,298.42,206.76z"/>
	<path d="M285.09,319.22c-1.82-1.72-4.25-3.07-6.56-2.52c-5.18,1.23-9.07-3.24-11.61-4.85
		C261.81,308.63,264.46,318.41,285.09,319.22z"/>
	<path d="M228.05,343.45c0.3,5.86,2.02,11.81-2.22,17.57c2.93,0,1.41,3.63,4.44,3.74C228.45,357.69,231.58,350.32,228.05,343.45z"/>
	<path d="M293.87,233.21c-9.38-4.9-8.2-12.28-9.29-12.82c-0.61,2.73-0.2,5.35,0.1,7.98C298.13,239.56,298.44,235.59,293.87,233.21z"
		/>
	<path d="M343.95,247.65c3.94-0.61,5.65-3.33,5.65-8.68C347.72,238.55,347.6,239.42,343.95,247.65z"/>
	<path d="M320.12,236.64c-2.22,2.62-0.81,5.05,4.04,7.17C324.46,240.48,322.75,238.46,320.12,236.64z"/>
	<path d="M295.29,313.37c1.01-4.95,2.22-9.89,1.92-15.04C296.09,303.27,294.98,308.22,295.29,313.37z"/>
	<path d="M308.61,232c2.93,0.71,5.25,1.01,7.47-0.81C313.06,228.26,311.24,228.36,308.61,232z"/>
	<path d="M305.89,227.05c3.94,1.41,7.77,0.4,11.71-0.71C313.66,225.54,309.82,226.24,305.89,227.05z"/>
	<path d="M296.09,282.98c-0.5,3.63-0.3,7.27,0.4,10.9C297,290.25,297.51,286.61,296.09,282.98z"/>
	<path d="M291.35,234.52c0.5,3.33,0.91,5.86,2.52,8.78C294.38,239.77,294.18,237.15,291.35,234.52z"/>
	<path d="M311.34,220.99c2.02-0.91,4.14,0.1,5.96-1.82C313.86,217.76,312.55,218.17,311.34,220.99z"/>
	<path d="M252.78,318.11c-2.52-1.62-3.43-3.94-5.05-5.96C247.33,315.79,248.34,317.1,252.78,318.11z"/>
	<path d="M349.6,239.06c1.51-2.02,3.53-3.84,2.32-6.56C350.21,234.32,349.7,236.64,349.6,239.06z"/>
	<path d="M253.59,326.69c-1.92-1.82-4.44-2.22-6.66-3.13C248.65,325.99,251.17,326.19,253.59,326.69z"/>
	<path d="M234.81,325.79c0.61,1.92,1.11,3.94,3.74,4.04C237.64,328.31,237.04,326.39,234.81,325.79z"/>
	<path d="M254.6,318.92c2.32,3.13,5.05,2.32,7.27,3.13C262.27,320.86,264.2,322.02,254.6,318.92z"/>
	<path d="M241.38,331.04c-1.41,0.5-1.92-0.61-2.83-1.11c-0.3,4.24,3.43,1.82,5.35,3.63C243.29,331.64,242.59,330.73,241.38,331.04z"
		/>
	<path d="M264.29,366.98c1.51-0.91,2.52-1.62,3.13-3.74C265.3,364.15,264.39,364.96,264.29,366.98z"/>
	<path d="M302.25,315.29c-2.02,0.1-3.43,0.4-4.85,1.72C299.63,318.01,300.64,316.6,302.25,315.29z"/>
	<path d="M241.88,318.82c0.3,2.02,1.31,2.93,2.93,3.53C244.1,321.14,244.1,319.43,241.88,318.82z"/>
	<path d="M269.34,320.64c-1.51-0.4-2.62-0.2-3.63,0.91C267.02,321.75,268.13,321.95,269.34,320.64z"/>
	<path d="M258.94,348.2c0.4,1.31,1.41,1.41,3.13,1.51C260.86,348.4,260.26,347.69,258.94,348.2z"/>
	<path d="M353.64,227.35c1.11,0.2,1.92-0.2,3.03-1.01C354.65,226.24,354.65,226.24,353.64,227.35z"/>
	<path d="M246.42,332.75c-2.28,1.14,0.31,3.32,1.51,0C247.43,332.05,246.93,332.45,246.42,332.75z"/>
	<path d="M244.4,306.71c-1.11,0.5-1.31,1.21-1.21,2.62C244.3,308.42,244.91,307.92,244.4,306.71z"/>
	<path d="M240.06,312.36c-1.21-0.3-1.72,0.5-2.52,1.62C239.05,313.87,239.86,313.57,240.06,312.36z"/>
	<path d="M231.89,318.32c1.11-0.61,2.12-0.5,2.32-2.22C233.1,316.7,232.19,316.6,231.89,318.32z"/>
	<path d="M257.63,337.3c0.1,2.12,0.81,3.03,2.52,4.04C259.55,339.62,258.94,338.61,257.63,337.3z"/>
	<path d="M338.09,250.88c1.21-0.71,2.12-0.81,1.92-2.32C338.9,248.96,338.4,249.46,338.09,250.88z"/>
	<path d="M357.78,226.14c0.91,0.4,1.51,0.3,1.72-0.71C358.49,224.73,358.18,225.44,357.78,226.14z"/>
	<path d="M262.48,303.27c0.3,0.81,0.5,1.21,0.71,1.82C263.49,304.28,263.49,303.88,262.48,303.27z"/>
	<path d="M259.14,325.48c-1.01,0.4-1.92,0.61-1.72,1.92C258.34,327.2,259.14,327,259.14,325.48z"/>
	<path d="M313.26,243.81c-1.07,1.07,0.92,1.33,0.71-0.4C313.56,243.61,313.26,243.71,313.26,243.81z"/>
	<path d="M294.28,245.83c-0.71,0.4-0.5,0.91,0,1.72C295.19,246.74,295.19,246.23,294.28,245.83z"/>
	<path d="M332.94,252.09c1.01-0.2,1.72-0.2,1.62-1.21C333.65,250.47,333.25,251.08,332.94,252.09z"/>
	<path d="M228.55,335.28c-0.2,0.71,0.2,1.01,1.72,1.41C229.46,335.68,229.77,334.77,228.55,335.28z"/>
	<path d="M250.06,471.57c3.13,3.53,4.04,7.77,3.23,11.91c1.11,0.91,1.31-0.5,2.02,0.1c2.44,3.77,0.89,11.99,4.14,10.9
		c-0.91-4.74-1.26-9.61-2.83-14.13c-0.88-2.53-2.47-4.75-2.83-7.67C253.53,470.55,252.28,470.25,250.06,471.57z"/>
	<path d="M259.45,455.41c-0.2,3.94,3.06,6.47,3.53,10.2c0.44,3.44,1.72,6.76,3.74,9.69c1.65-4.33-2.02-4.84-2.42-10.7
		C264.05,461.06,262.98,457.53,259.45,455.41z"/>
	<path d="M236.93,492.46c-3.43,2.22-6.76,13.63-4.85,17.57C235.02,504.18,234.01,497.71,236.93,492.46z"/>
	<path d="M262.88,435.12c1.62,0.4,2.83,2.32,5.25,1.72c-1.48-0.98-6.16-6.79-6.16-2.42c0.01,0,0.01,0.01,0.02,0.02
		c-3.08,0.41,0.02,5.94-2.54,9.47c-1.92,0.1-3.43,0.91-3.84,3.33C261.22,446.92,262.88,444.84,262.88,435.12z"/>
	<path d="M262.38,495.19c2.83-2.93,4.04-6.36,4.64-9.99C265.76,484.56,266.4,483.78,262.38,495.19z"/>
	<path d="M272.98,463.59c-2.12,1.01-4.54,1.51-7.47,1.62C268.94,467.83,269.54,467.63,272.98,463.59z"/>
	<path d="M253.39,466.62c-0.61-1.92-1.51-3.53-4.14-3.94C249.25,465.71,250.87,466.52,253.39,466.62z"/>
	<path d="M265.61,457.84c2.02,0.3,4.14,1.01,5.96-1.51C268.84,454.91,267.12,456.02,265.61,457.84z"/>
	<path d="M259.04,465.81c-1.92-0.91-2.73,0-3.43,1.62C257.43,467.93,258.34,467.43,259.04,465.81z"/>
	<path d="M238.35,485.7c-1.41,1.21-1.72,2.22-1.31,4.04C238.25,488.43,238.85,487.42,238.35,485.7z"/>
	<path d="M247.84,468.13c0-1.01,0.4-1.82-1.01-2.42C246.32,466.92,246.42,467.63,247.84,468.13z"/>
	<path d="M240.77,478.84c-0.71,0.91-1.72,1.62-0.4,3.33C240.57,480.96,241.88,480.35,240.77,478.84z"/>
	<path d="M231.79,540.42c-0.81,0.71-0.91,1.31-0.1,2.12C232.19,541.93,232.9,541.43,231.79,540.42z"/>
	<path d="M232.19,535.57c0.3-0.4,0.4-0.81,0-1.31C231.48,534.66,231.08,535.17,232.19,535.57z"/>
	<path d="M253.69,486.41c-0.99,1.19,0.31,1.61,0.81,1.11C254.8,486.71,254.4,486.51,253.69,486.41z"/>
	<path d="M324.97,455.11c0.83,0.41,11.02-3.46,4.24-14.64c1.01,4.74-0.1,8.58-4.14,11c-4.14,0.81-7.77-0.81-11.61-1.62
		C311.86,452.66,319.87,453.27,324.97,455.11z"/>
	<path d="M336.28,464c1.31-6.06-0.3-9.39-5.25-10.5C333.45,456.73,335.27,460.16,336.28,464z"/>
	<path d="M327.29,464.4c0.81,3.63,3.74,6.16,5.25,9.29C333.85,470.66,330.62,464.7,327.29,464.4z"/>
	<path d="M312.55,499.63c2.93-0.91,3.43-3.43,4.24-6.16C314.17,494.48,313.66,495.19,312.55,499.63z"/>
	<path d="M320.83,471.26c-1.21,1.82-1.92,3.84-1.51,6.26C321.84,476.01,321.64,473.69,320.83,471.26z"/>
	<path d="M313.46,449.76c-2.32-1.31-4.14-3.74-7.57-4.44C308.21,449.36,309.93,450.27,313.46,449.76z"/>
	<path d="M317.09,491.96c1.92-2.42,1.51-4.44,1.01-6.46C316.89,487.22,316.29,489.13,317.09,491.96z"/>
	<path d="M307.1,524.37c1.31-1.31,2.32-2.73,2.22-5.15C307.6,520.73,307.1,522.45,307.1,524.37z"/>
	<path d="M309.12,503.97c2.22-1.11,3.74-1.92,3.33-4.34C310.63,500.24,309.72,501.65,309.12,503.97z"/>
	<path d="M319.62,465c0.61,1.51-0.4,3.03,1.72,3.94C321.74,466.42,321.74,466.42,319.62,465z"/>
	<path d="M300.23,539.11c1.21-1.62,2.02-2.83,1.62-5.35C300.74,535.78,299.33,536.68,300.23,539.11z"/>
	<path d="M332.44,473.79c0.1,1.41,0.71,2.52,2.02,3.33C334.36,475.61,335.06,473.79,332.44,473.79z"/>
	<path d="M303.16,531.54c1.21-1.01,1.92-1.72,1.62-3.43C303.67,529.01,302.96,529.72,303.16,531.54z"/>
	<path d="M308.21,504.68c-1.21-0.2-1.82,0.1-2.12,1.72C307.4,505.99,308.21,505.89,308.21,504.68z"/>
	<path d="M310.63,516.19c1.21-0.4,1.82-0.81,1.62-1.82C310.94,513.97,310.94,514.98,310.63,516.19z"/>
	<path d="M318.91,479.74c-0.4,0.71-0.71,1.21,0,2.32C319.52,481.16,320.22,480.55,318.91,479.74z"/>
	<path d="M304.17,507.41c-1.01-0.4-1.41-0.3-1.21,0.91C303.67,508.52,303.97,508.21,304.17,507.41z"/>
	<path d="M321.03,513.36c0.3-0.3,0.61-0.61,0.2-1.41C320.73,512.45,320.53,512.86,321.03,513.36z"/>
	<path d="M326.38,435.93c0.61-0.91,0.3-1.41-0.61-1.72C325.27,435.12,325.67,435.63,326.38,435.93z"/>
	<path d="M223.91,374.35c-2.23-2.27-6.44-0.18-11.81-5.45c-1.33-1.3-3.13-2.12-6.06-0.71c5.35,2.02,9.07,5.86,14.34,6.56
		c3.67,0.49,0.17,3.03,8.99,6.46c6.67,2.6,13.93,3.53,20.29,8.38C248.73,382.2,229.9,380.43,223.91,374.35z"/>
	<path d="M202,371.01c3.23,3.84,8.08,4.85,12.92,7.47C213.51,374.95,206.04,371.01,202,371.01z"/>
	<path d="M279.54,385.55c-3.13,1.31-5.96,3.03-7.17,6.56C275.1,390.3,278.12,388.88,279.54,385.55z"/>
	<path d="M293.37,433.71c-3.53-3.43-7.57-5.96-11.91-8.18C284.99,428.96,289.03,431.59,293.37,433.71z"/>
	<path d="M284.69,389.39c-3.33-0.1-6.87,1.92-9.89,5.15C278.43,393.43,281.66,391.71,284.69,389.39z"/>
	<path d="M275.3,383.43c-1.72-0.3-2.62,0.1-2.93,1.92C274.09,385.96,274.69,384.95,275.3,383.43z"/>
	<path d="M272.77,395.85c0.81-0.2,1.62-0.5,1.92-1.41C273.78,394.44,272.98,394.64,272.77,395.85z"/>
	<path d="M252.28,412.81c1.31,1.31,2.62,2.73,3.94,4.14C255.91,414.63,254.5,413.32,252.28,412.81z"/>
	<path d="M199.68,393.33c-0.4,0.5-0.3,1.01-0.1,1.82C199.68,394.34,199.68,393.83,199.68,393.33z"/>
	<path d="M200.99,401.3c-0.59-0.44-1.59,0.19-1.01,1.21C200.79,402.51,200.79,401.81,200.99,401.3z"/>
	<path d="M197.06,414.63c1.01-0.71,1.62-1.21,1.72-2.32C197.66,412.71,196.85,413.01,197.06,414.63z"/>
	<path d="M243.5,579.39c3.74-1.11,7.27,2.93,11.11,0c-0.61-1.31-0.5-2.73-1.72-4.24C250.16,577.67,245.92,575.96,243.5,579.39z"/>
	<path d="M300.23,570.61c-6.77-9.2-13.97,3.11-5.65,5.05c2.31,0.54,3.84-1.21,5.35-2.42c2.83,3.43,2.83,3.43,8.48,2.73
		c0.81-5.05,0.6-6.34-1.51-7.47C304.67,567.29,302.76,567.88,300.23,570.61z M295.19,574.04c-3.17-0.21-2.97-5.05,0.2-5.05
		C298.96,569.23,298.32,574.25,295.19,574.04z M302.25,571.61c0.37-2.65,4.85-2.93,4.85,1.31c-1.92-0.81-2.93-0.3-2.52,1.72
		C302.56,574.34,302.03,573.23,302.25,571.61z"/>
	<path d="M284.18,566.67c-1.21,4.04-1.21,7.47,0.1,7.77c1.41,0,0.4-2.22,2.02-2.02c1.41,0.4,1.31,2.52,3.43,2.42
		c0.2-1.41-1.11-2.52,0.3-4.14C292.7,567.66,286.64,565.53,284.18,566.67z M285.49,568.79c1.21-0.71,2.22-0.5,3.13,0.5
		C286.81,570.71,286.81,570.71,285.49,568.79z"/>
	<path d="M624,62.09c5.35,0,5.96-6.06,10.7-6.86c9.45,4.48,4.95-1.09,15.85,3.13c2.12,0.82,4.14,0.81,6.76-0.91
		c-10.7-2.32-20.6-4.85-30.99-6.56c2.32-4.64,2.42-9.09,0.3-13.63c-3.22,26.67-3.84,23.04-7.27,32.91c-4.34,0-8.08,0-12.11,0
		c1.77,2.95-1.63,2.58-1.31,9.79c1.72-3.43,3.33-5.96,6.06-7.98C619.86,73.6,623.09,68.95,624,62.09z M626.52,53.3
		c6.58,2.19,4.24-0.2-0.3,4.34C625.62,56.03,626.22,54.92,626.52,53.3z"/>
	<path d="M610.78,31.5c-3.23-0.05-6.76-0.91-8.99,2.73c3.03-1.92,5.96-0.71,9.49-0.1c-2.93,1.31-5.86,0.4-8.58,2.62
		C614.32,39.77,619.5,31.63,610.78,31.5z"/>
	<path d="M611.79,147.7c1.34,21.76,0.58,19.89,2.12,19.89c1.11-6.97,0.91-13.83-0.81-21.1C612.29,147.19,611.79,147.5,611.79,147.7z
		"/>
	<path d="M579.98,142.65c-4.53-0.9-3.13-6.26-6.36-8.18c-1.11,5.15,3.01,9.77,9.49,11.41c2.52,0.64,4.54-1.11,6.97-0.91
		c0.4,0,0.5-1.01-0.1-2.12C586.55,145.28,583.23,143.29,579.98,142.65z"/>
	<path d="M598.06,171.12c3.84-5.35,8.58-10.1,11.41-16.76C606.03,155.67,599.37,165.57,598.06,171.12z"/>
	<path d="M589.88,49.47c-1.51,3.13-0.81,6.16-0.61,9.29c3.74,2.93,7.57,5.55,11.71,7.77C596.8,59.36,589.88,62.69,589.88,49.47z"/>
	<path d="M648.13,77.84c4.56,1.23,6.08-4.56,6.46-9.29C650.45,70.27,650.86,74.71,648.13,77.84z"/>
	<path d="M624.3,67.24c-1.51,2.62-0.71,4.04,4.24,6.97C628.64,70.16,627.74,68.65,624.3,67.24z"/>
	<path d="M625.52,85.81c-1.41-3.74,1.51-6.87,1.31-11.31C623.09,78.95,622.59,83.09,625.52,85.81z"/>
	<path d="M610.57,57.44c4.04,1.31,7.87,0.4,11.91-0.71C618.45,55.73,614.51,56.74,610.57,57.44z"/>
	<path d="M613.6,131.45c-0.81-5.15-2.73-9.99-3.84-15.04c-0.4,0.1-0.71,0.2-1.11,0.3C613.37,134.46,612.3,131.45,613.6,131.45z"/>
	<path d="M613.5,62.29c2.73,0.91,4.95,0.91,7.17-0.61C618.15,58.55,615.72,58.66,613.5,62.29z"/>
	<path d="M558.78,144.17c0-4.14,2.02-7.57,3.74-11.11C558.58,136.39,556.97,141.34,558.78,144.17z"/>
	<path d="M610.37,174.45c-2.42,3.74-3.23,8.08-3.53,12.42C608.55,182.93,609.16,178.59,610.37,174.45z"/>
	<path d="M536.98,35.23c-0.71-3.74-1.31-7.37-2.02-11.51C533.64,26.55,534.35,31.09,536.98,35.23z"/>
	<path d="M544.75,56.74c-0.3-3.33-1.51-6.46-3.53-9.09c-0.4,0.1-0.71,0.3-1.01,0.4C544.39,58.16,543.5,57.05,544.75,56.74z"/>
	<path d="M555.25,79.65c-0.1,3.33,1.51,5.86,4.64,7.67C555.76,78.03,556.81,79.13,555.25,79.65z"/>
	<path d="M573.62,150.32c-2.02-2.12-2.62-4.44-4.54-6.16C568.47,147.5,569.59,149.01,573.62,150.32z"/>
	<path d="M595.63,65.12c1.11,3.03,1.11,5.65,2.62,8.18C599.27,69.46,598.66,67.34,595.63,65.12z"/>
	<path d="M565.24,154.36c1.51,3.84,3.94,5.25,7.27,4.54C569.79,157.39,567.47,155.98,565.24,154.36z"/>
	<path d="M621.88,49.57c-3.33-1.41-4.64-1.01-5.55,1.92C617.84,49.77,620.16,51.89,621.88,49.57z"/>
	<path d="M546.37,28.47c0.93,3.63,2.42,5.2,6.16,5.05C550.61,31.6,547.68,31.09,546.37,28.47z"/>
	<path d="M654.59,68.55c2.02-1.51,2.93-3.33,2.12-5.86C654.89,64.31,654.39,66.33,654.59,68.55z"/>
	<path d="M561.51,27.76c2.62,1.92,4.64,3.13,7.07,3.84C567.26,28.87,564.94,28.17,561.51,27.76z"/>
	<path d="M585.33,122.56c-0.2-1.62-0.5-3.33-2.93-3.43C583.11,120.54,583.82,121.85,585.33,122.56z"/>
	<path d="M591.59,181.32c1.72-1.72,2.32-3.53,2.83-5.35C592.4,177.08,591.8,178.79,591.59,181.32z"/>
	<path d="M529.51,15.55c0.3,2.12,1.41,3.53,3.53,4.24C529.84,14.46,530.6,15.18,529.51,15.55z"/>
	<path d="M544.55,63c0.61-1.41,1.82-2.83-0.4-4.85C544.25,60.17,543.54,61.58,544.55,63z"/>
	<path d="M558.18,69.46c-0.5,1.21-0.3,2.32,0.81,4.04C559.19,70.97,559.19,70.97,558.18,69.46z"/>
	<path d="M579.98,151.03c0.91,1.62,2.22,1.62,3.63,1.11C582.61,151.33,581.6,150.22,579.98,151.03z"/>
	<path d="M544.65,78.34c0.81-2.02,1.51-3.23-0.1-4.85C543.84,75.31,543.94,76.52,544.65,78.34z"/>
	<path d="M544.45,66.73c-1.21,1.82-1.21,1.82-0.71,3.74C544.45,69.15,545.25,68.25,544.45,66.73z"/>
	<path d="M558.48,74.51c-1.31,1.82-0.61,2.73,0.4,3.84C559.59,76.83,559.09,75.92,558.48,74.51z"/>
	<path d="M605.63,198.78c1.41-1.41,1.62-2.52,0.3-4.04C605.42,196.06,605.53,197.17,605.63,198.78z"/>
	<path d="M576.05,195.96c-0.3,1.72,0.4,2.73,1.51,3.94C578.27,197.77,577.56,196.86,576.05,195.96z"/>
	<path d="M574.43,150.22c0.81,1.21,1.82,1.51,3.03,1.51C576.85,150.73,576.35,149.52,574.43,150.22z"/>
	<path d="M622.28,160.62c-0.2-1.21,0-2.52-1.72-3.43C620.27,158.91,621.17,159.71,622.28,160.62z"/>
	<path d="M575.04,33.11c-0.61-1.31-1.62-0.91-3.23-0.81C573.12,33.11,573.83,34.02,575.04,33.11z"/>
	<path d="M660.85,56.64c-1.01-0.2-1.92-0.5-2.93,0.91C659.44,58.05,660.14,57.34,660.85,56.64z"/>
	<path d="M599.37,77.74c0.5-0.5,0.4-1.01-0.1-1.51C597.85,76.73,597.95,77.23,599.37,77.74z"/>
	<path d="M566.25,184.95c0,1.41,0.5,1.92,1.82,2.12C567.87,185.76,567.57,185.25,566.25,184.95z"/>
	<path d="M643.08,80.76c1.01-0.1,1.72-0.4,1.62-1.62C643.49,79.15,643.08,79.65,643.08,80.76z"/>
	<path d="M637.83,82.48c0.81-0.2,1.31-0.4,1.72-1.31C638.24,80.97,637.83,81.37,637.83,82.48z"/>
	<path d="M664.08,55.83c-0.91-0.71-1.31-0.2-1.62,0.61C663.27,56.94,663.78,56.84,664.08,55.83z"/>
	<path d="M572.51,192.32c-0.61,1.11-0.3,1.72,1.21,2.22C573.62,193.33,573.52,192.62,572.51,192.32z"/>
	<path d="M589.78,125.59c-0.61,0.91-0.3,1.21,0.71,1.21C590.99,125.89,590.38,125.79,589.78,125.59z"/>
	<path d="M617.94,75.11c0.4-0.2,0.81-0.5,0.71-1.21C617.34,74.09,617.13,75.11,617.94,75.11z"/>
	<path d="M538.69,42c-0.97,0.97,0.71,1.44,0.71,0.91C539.6,42.3,539.3,42,538.69,42z"/>
	<path d="M565.04,514.27c-2.73,0.1-5.15,0.2-8.18,0.4C560.2,517.7,563.53,517.5,565.04,514.27z"/>
<path fill="#e6e6e6" d="m206.8 163.6c0-5.1 4.1-9.2 9.3-9.2s9.2 4.2 9.2 9.2-4.1 9.2-9.3 9.2-9.2-4.1-9.2-9.2zm17.3-.1c0-4.5-3.5-8.2-8.2-8.2s-8.2 3.7-8.2 8.3c0 4.5 3.5 8.2 8.2 8.2s8.2-3.7 8.2-8.3zm-13 0c0-2.8 2.1-5.1 5.1-5.1 1.9 0 2.9.6 3.9 1.5l-1.4 1.7c-.8-.7-1.5-1.1-2.5-1.1-1.7 0-2.8 1.4-2.8 3.1s1.1 3 2.8 3c1.1 0 1.7-.5 2.5-1.1l1.4 1.4c-1.1 1.1-2.1 1.7-4 1.7-2.9 0-5-2.3-5-5.1z"/><path fill="#e6e6e6" d="m226.6 154.7h3.4l4.2 13.2 4.4-13.3h2.6l4.4 13.3 4.2-13.2h3.3l-6.2 18h-2.7l-4.4-12.8-4.4 12.8h-2.7z"/><path fill="#e6e6e6" d="m252.8 165.8c0-3.9 3.1-7 7.2-7 4.2 0 7.2 3.2 7.2 7s-3.1 7-7.3 7c-4 0-7.1-3.1-7.1-7zm11.3 0c0-2.3-1.7-4.3-4.2-4.3s-4.1 2-4.1 4.3 1.7 4.3 4.1 4.3c2.7.1 4.2-1.9 4.2-4.3z"/><path fill="#e6e6e6" d="m269.5 159.1h3.1v3c.8-2 2.4-3.4 4.8-3.3v3.2h-.2c-2.7 0-4.6 1.7-4.6 5.4v5.1h-3.1z"/><path fill="#e6e6e6" d="m279.1 153.9h3.1v11.1l5.6-6h3.8l-5.4 5.5 5.5 8h-3.5l-4.1-5.8-1.9 2v3.9h-3.1z"/><path fill="#e6e6e6" d="m291.7 165.8c0-3.9 3.1-7 7.2-7 4.2 0 7.2 3.2 7.2 7s-3.1 7-7.3 7c-4 0-7.1-3.1-7.1-7zm11.3 0c0-2.3-1.7-4.3-4.2-4.3s-4.1 2-4.1 4.3 1.7 4.3 4.1 4.3c2.6.1 4.2-1.9 4.2-4.3z"/><path fill="#e6e6e6" d="m308.2 167.6v-8.6h3.1v7.6c0 2.1 1.1 3.3 2.9 3.3s3-1.3 3-3.3v-7.6h3.1v13.4h-3.1v-2.1c-.8 1.3-2.1 2.3-4.2 2.3-3.1.2-4.8-1.8-4.8-5z"/><path fill="#e6e6e6" d="m323.9 168.8v-7.1h-1.7v-2.6h1.7v-3.7h3.1v3.7h3.6v2.6h-3.6v6.6c0 1.2.6 1.7 1.7 1.7.7 0 1.3-.2 1.9-.5v2.5c-.8.5-1.7.7-2.8.7-2.3 0-3.9-.9-3.9-3.9z"/><path fill="#e6e6e6" d="m333.2 154.7h3.2v15h9.4v2.9h-12.5v-17.9z"/><path fill="#e6e6e6" d="m356 172.5v-1.7c-.9 1.1-2.3 2-4.4 2-2.6 0-4.8-1.4-4.8-4.2 0-3 2.3-4.4 5.4-4.4 1.7 0 2.6.2 3.7.5v-.2c0-1.9-1.2-2.9-3.3-2.9-1.5 0-2.6.3-3.9.8l-.8-2.5c1.5-.7 2.9-1.1 5.1-1.1 4 0 5.9 2.1 5.9 5.7v8zm.1-5.6c-.8-.3-1.9-.5-3.1-.5-2 0-3.1.8-3.1 2.1s1.1 2 2.6 2c2 0 3.5-1.1 3.5-2.9z"/><path fill="#e6e6e6" d="m364.9 170.5v2.1h-3.1v-18.7h3.1v7.4c1-1.4 2.4-2.5 4.5-2.5 3.2 0 6.3 2.5 6.3 7s-3.1 7-6.3 7c-2.1 0-3.5-1.1-4.5-2.3zm7.7-4.7c0-2.6-1.7-4.3-3.9-4.3s-3.9 1.7-3.9 4.4c0 2.6 1.8 4.3 3.9 4.3s3.9-1.7 3.9-4.4z"/><path fill="#e6e6e6" d="m376.9 170.8 1.4-2.1c1.4 1.1 3 1.7 4.4 1.7s2.1-.5 2.1-1.5-1.3-1.4-2.8-1.8c-.1 0-.2-.1-.2-.1-2-.6-4.2-1.4-4.2-4s2.1-4.1 4.8-4.1c1.7 0 3.5.6 5 1.5l-1.2 2.2c-1.3-.8-2.6-1.3-3.8-1.3s-1.9.5-1.9 1.4 1.3 1.4 2.8 1.8c.1 0 .2.1.2.1 2 .6 4.2 1.5 4.2 4 0 2.9-2.2 4.2-5 4.2-1.9 0-4-.7-5.8-2z"/><path fill="#e6e6e6" d="m505.6 163.6c0-5.1 4.1-9.2 9.3-9.2s9.2 4.2 9.2 9.2-4.1 9.2-9.3 9.2-9.2-4.1-9.2-9.2zm17.4-.1c0-4.5-3.5-8.2-8.2-8.2s-8.2 3.7-8.2 8.3c0 4.5 3.5 8.2 8.2 8.2s8.2-3.7 8.2-8.3zm-13.1 0c0-2.8 2.1-5.1 5.1-5.1 1.9 0 2.9.6 3.9 1.5l-1.4 1.7c-.8-.7-1.5-1.1-2.5-1.1-1.7 0-2.8 1.4-2.8 3.1s1.1 3 2.8 3c1.1 0 1.7-.5 2.5-1.1l1.4 1.4c-1.1 1.1-2.1 1.7-4 1.7-2.9 0-5-2.3-5-5.1z"/><path fill="#e6e6e6" d="m525.4 154.7h3.4l4.2 13.2 4.4-13.3h2.6l4.4 13.3 4.2-13.2h3.3l-6.2 18h-2.7l-4.4-12.8-4.4 12.8h-2.7z"/><path fill="#e6e6e6" d="m551.7 165.8c0-3.9 3.1-7 7.2-7 4.2 0 7.2 3.2 7.2 7s-3.1 7-7.3 7c-4.1 0-7.1-3.1-7.1-7zm11.2 0c0-2.3-1.7-4.3-4.2-4.3s-4.1 2-4.1 4.3 1.7 4.3 4.1 4.3c2.7.1 4.2-1.9 4.2-4.3z"/><path fill="#e6e6e6" d="m568.3 159.1h3.1v3c.8-2 2.4-3.4 4.8-3.3v3.2h-.2c-2.7 0-4.6 1.7-4.6 5.4v5.1h-3.1z"/><path fill="#e6e6e6" d="m577.9 153.9h3.1v11.1l5.6-6h3.8l-5.4 5.5 5.5 8h-3.5l-4.1-5.8-1.9 2v3.9h-3.1z"/><path fill="#e6e6e6" d="m590.6 165.8c0-3.9 3.1-7 7.2-7 4.2 0 7.2 3.2 7.2 7s-3.1 7-7.3 7c-4.1 0-7.1-3.1-7.1-7zm11.2 0c0-2.3-1.7-4.3-4.2-4.3s-4.1 2-4.1 4.3 1.7 4.3 4.1 4.3c2.6.1 4.2-1.9 4.2-4.3z"/><path fill="#e6e6e6" d="m607 167.6v-8.6h3.1v7.6c0 2.1 1.1 3.3 2.9 3.3s3-1.3 3-3.3v-7.6h3.1v13.4h-3.1v-2.1c-.8 1.3-2.1 2.3-4.2 2.3-3 .2-4.8-1.8-4.8-5z"/><path fill="#e6e6e6" d="m622.7 168.8v-7.1h-1.7v-2.6h1.7v-3.7h3.1v3.7h3.6v2.6h-3.6v6.6c0 1.2.6 1.7 1.7 1.7.7 0 1.3-.2 1.9-.5v2.5c-.8.5-1.7.7-2.8.7-2.3 0-3.9-.9-3.9-3.9z"/><path fill="#e6e6e6" d="m632 154.7h3.2v15h9.4v2.9h-12.6z"/><path fill="#e6e6e6" d="m654.8 172.5v-1.7c-.9 1.1-2.3 2-4.4 2-2.6 0-4.8-1.4-4.8-4.2 0-3 2.3-4.4 5.4-4.4 1.7 0 2.6.2 3.7.5v-.2c0-1.9-1.2-2.9-3.3-2.9-1.5 0-2.6.3-3.9.8l-.8-2.5c1.5-.7 2.9-1.1 5.1-1.1 4 0 5.9 2.1 5.9 5.7v8zm.1-5.6c-.8-.3-1.9-.5-3.1-.5-2 0-3.1.8-3.1 2.1s1.1 2 2.6 2c2 0 3.5-1.1 3.5-2.9z"/><path fill="#e6e6e6" d="m663.7 170.5v2.1h-3.1v-18.7h3.1v7.4c1-1.4 2.4-2.5 4.5-2.5 3.2 0 6.3 2.5 6.3 7s-3.1 7-6.3 7c-2.1 0-3.5-1.1-4.5-2.3zm7.8-4.7c0-2.6-1.7-4.3-3.9-4.3-2.1 0-3.9 1.7-3.9 4.4 0 2.6 1.8 4.3 3.9 4.3s3.9-1.7 3.9-4.4z"/><path fill="#e6e6e6" d="m675.8 170.8 1.4-2.1c1.4 1.1 3 1.7 4.4 1.7s2.1-.5 2.1-1.5-1.3-1.4-2.8-1.8c-.1 0-.2-.1-.2-.1-2-.6-4.2-1.4-4.2-4s2.1-4.1 4.8-4.1c1.7 0 3.5.6 5 1.5l-1.2 2.2c-1.3-.8-2.6-1.3-3.8-1.3s-1.9.5-1.9 1.4 1.3 1.4 2.8 1.8c.1 0 .2.1.2.1 2 .6 4.2 1.5 4.2 4 0 2.9-2.2 4.2-5 4.2-2 0-4.1-.7-5.8-2z"/><path fill="#e6e6e6" d="m61 298.6c0-5.1 4.1-9.2 9.3-9.2s9.2 4.2 9.2 9.2-4.1 9.2-9.3 9.2c-5.1 0-9.2-4.2-9.2-9.2zm17.4-.1c0-4.5-3.5-8.2-8.2-8.2s-8.2 3.7-8.2 8.3c0 4.5 3.5 8.2 8.2 8.2s8.2-3.7 8.2-8.3zm-13.1-.1c0-2.8 2.1-5.1 5.1-5.1 1.9 0 2.9.6 3.9 1.5l-1.4 1.7c-.8-.7-1.5-1.1-2.5-1.1-1.7 0-2.8 1.4-2.8 3.1s1.1 3 2.8 3c1.1 0 1.7-.5 2.5-1.1l1.4 1.4c-1.1 1.1-2.1 1.7-4 1.7-2.8.1-5-2.2-5-5.1z"/><path fill="#e6e6e6" d="m80.9 289.7h3.4l4.2 13.2 4.4-13.3h2.6l4.4 13.3 4.2-13.2h3.3l-6.2 18h-2.7l-4.4-12.8-4.4 12.8h-2.7z"/><path fill="#e6e6e6" d="m107.1 300.8c0-3.9 3.1-7 7.2-7s7.2 3.2 7.2 7-3.1 7-7.3 7c-4 0-7.1-3.1-7.1-7zm11.3 0c0-2.3-1.7-4.3-4.2-4.3s-4.1 2-4.1 4.3 1.7 4.3 4.1 4.3c2.6.1 4.2-1.9 4.2-4.3z"/><path fill="#e6e6e6" d="m123.7 294h3.1v3c.8-2 2.4-3.4 4.8-3.3v3.2h-.2c-2.7 0-4.6 1.7-4.6 5.4v5.1h-3.1z"/><path fill="#e6e6e6" d="m133.4 288.9h3.1v11.1l5.6-6h3.8l-5.4 5.5 5.5 8h-3.5l-4.1-5.8-1.9 1.9v3.9h-3.1z"/><path fill="#e6e6e6" d="m146 300.8c0-3.9 3.1-7 7.2-7s7.2 3.2 7.2 7-3.1 7-7.3 7c-4.1 0-7.1-3.1-7.1-7zm11.2 0c0-2.3-1.7-4.3-4.2-4.3s-4.1 2-4.1 4.3 1.7 4.3 4.1 4.3c2.6.1 4.2-1.9 4.2-4.3z"/><path fill="#e6e6e6" d="m162.4 302.6v-8.6h3.1v7.6c0 2.1 1.1 3.3 2.9 3.3s3-1.3 3-3.3v-7.6h3.1v13.4h-3.1v-2.1c-.8 1.3-2.1 2.3-4.2 2.3-3 .2-4.8-1.8-4.8-5z"/><path fill="#e6e6e6" d="m178.1 303.8v-7.1h-1.7v-2.7h1.7v-3.7h3.1v3.7h3.6v2.6h-3.6v6.6c0 1.2.6 1.7 1.7 1.7.7 0 1.3-.2 1.9-.5v2.5c-.8.5-1.7.7-2.8.7-2.3.1-3.9-.9-3.9-3.8z"/><path fill="#e6e6e6" d="m187.4 289.7h3.2v15h9.4v2.9h-12.5v-17.9z"/><path fill="#e6e6e6" d="m210.2 307.5v-1.7c-.9 1.1-2.3 2-4.4 2-2.6 0-4.8-1.4-4.8-4.2 0-3 2.3-4.4 5.4-4.4 1.7 0 2.6.2 3.7.5v-.2c0-1.9-1.2-2.9-3.3-2.9-1.5 0-2.6.3-3.9.8l-.8-2.5c1.5-.7 2.9-1.1 5.1-1.1 4 0 5.9 2.1 5.9 5.7v8zm.1-5.6c-.8-.3-1.9-.5-3.1-.5-2 0-3.1.8-3.1 2.1s1.1 2 2.6 2c2 0 3.5-1.1 3.5-2.9z"/><path fill="#e6e6e6" d="m219.2 305.5v2.1h-3.1v-18.7h3.1v7.4c1-1.4 2.4-2.5 4.5-2.5 3.2 0 6.3 2.5 6.3 7s-3.1 7-6.3 7c-2.2 0-3.6-1.1-4.5-2.3zm7.7-4.7c0-2.6-1.7-4.3-3.9-4.3s-3.9 1.7-3.9 4.4c0 2.6 1.8 4.3 3.9 4.3s3.9-1.7 3.9-4.4z"/><path fill="#e6e6e6" d="m231.2 305.8 1.4-2.1c1.4 1.1 3 1.7 4.4 1.7s2.1-.5 2.1-1.5-1.3-1.4-2.8-1.8c-.1 0-.2-.1-.2-.1-2-.6-4.2-1.4-4.2-4s2.1-4.1 4.8-4.1c1.7 0 3.5.6 5 1.5l-1.2 2.2c-1.3-.8-2.6-1.3-3.8-1.3s-1.9.5-1.9 1.4 1.3 1.4 2.8 1.8c.1 0 .2.1.2.1 2 .6 4.2 1.5 4.2 4 0 2.9-2.2 4.2-5 4.2-2 0-4.1-.7-5.8-2z"/><path fill="#e6e6e6" d="m360.6 298.6c0-5.1 4.1-9.2 9.3-9.2s9.2 4.2 9.2 9.2-4.1 9.2-9.3 9.2-9.2-4.2-9.2-9.2zm17.4-.1c0-4.5-3.5-8.2-8.2-8.2s-8.2 3.7-8.2 8.3c0 4.5 3.5 8.2 8.2 8.2s8.2-3.7 8.2-8.3zm-13.1-.1c0-2.8 2.1-5.1 5.1-5.1 1.9 0 2.9.6 3.9 1.5l-1.4 1.7c-.8-.7-1.5-1.1-2.5-1.1-1.7 0-2.8 1.4-2.8 3.1s1.1 3 2.8 3c1.1 0 1.7-.5 2.5-1.1l1.4 1.4c-1.1 1.1-2.1 1.7-4 1.7-2.8.1-5-2.2-5-5.1z"/><path fill="#e6e6e6" d="m380.5 289.7h3.4l4.2 13.2 4.4-13.3h2.6l4.4 13.3 4.2-13.2h3.3l-6.2 18h-2.7l-4.4-12.8-4.4 12.8h-2.7z"/><path fill="#e6e6e6" d="m406.7 300.8c0-3.9 3.1-7 7.2-7 4.2 0 7.2 3.2 7.2 7s-3.1 7-7.3 7c-4.1 0-7.1-3.1-7.1-7zm11.3 0c0-2.3-1.7-4.3-4.2-4.3s-4.1 2-4.1 4.3 1.7 4.3 4.1 4.3c2.7.1 4.2-1.9 4.2-4.3z"/><path fill="#e6e6e6" d="m423.3 294h3.1v3c.8-2 2.4-3.4 4.8-3.3v3.2h-.2c-2.7 0-4.6 1.7-4.6 5.4v5.1h-3.1z"/><path fill="#e6e6e6" d="m433 288.9h3.1v11.1l5.6-6h3.8l-5.4 5.5 5.5 8h-3.5l-4.1-5.8-1.9 2v3.9h-3.1z"/><path fill="#e6e6e6" d="m445.6 300.8c0-3.9 3.1-7 7.2-7 4.2 0 7.2 3.2 7.2 7s-3.1 7-7.3 7c-4.1 0-7.1-3.1-7.1-7zm11.3 0c0-2.3-1.7-4.3-4.2-4.3s-4.1 2-4.1 4.3 1.7 4.3 4.1 4.3c2.6.1 4.2-1.9 4.2-4.3z"/><path fill="#e6e6e6" d="m462.1 302.6v-8.6h3.1v7.6c0 2.1 1.1 3.3 2.9 3.3s3-1.3 3-3.3v-7.6h3.1v13.4h-3.1v-2.1c-.8 1.3-2.1 2.3-4.2 2.3-3.1.2-4.8-1.8-4.8-5z"/><path fill="#e6e6e6" d="m477.8 303.8v-7.1h-1.8v-2.7h1.7v-3.7h3.1v3.7h3.6v2.6h-3.6v6.6c0 1.2.6 1.7 1.7 1.7.7 0 1.3-.2 1.9-.5v2.5c-.8.5-1.7.7-2.8.7-2.2.1-3.8-.9-3.8-3.8z"/><path fill="#e6e6e6" d="m487.1 289.7h3.2v15h9.4v2.9h-12.5v-17.9z"/><path fill="#e6e6e6" d="m509.9 307.5v-1.7c-.9 1.1-2.3 2-4.4 2-2.6 0-4.8-1.4-4.8-4.2 0-3 2.3-4.4 5.4-4.4 1.7 0 2.6.2 3.7.5v-.2c0-1.9-1.2-2.9-3.3-2.9-1.5 0-2.6.3-3.9.8l-.8-2.5c1.5-.7 2.9-1.1 5.1-1.1 4 0 5.9 2.1 5.9 5.7v8zm.1-5.6c-.8-.3-1.9-.5-3.1-.5-2 0-3.1.8-3.1 2.1s1.1 2 2.6 2c2 0 3.5-1.1 3.5-2.9z"/><path fill="#e6e6e6" d="m518.8 305.5v2.1h-3.1v-18.7h3.1v7.4c1-1.4 2.4-2.5 4.5-2.5 3.2 0 6.3 2.5 6.3 7s-3.1 7-6.3 7c-2.2 0-3.5-1.1-4.5-2.3zm7.7-4.7c0-2.6-1.7-4.3-3.9-4.3s-3.9 1.7-3.9 4.4c0 2.6 1.8 4.3 3.9 4.3s3.9-1.7 3.9-4.4z"/><path fill="#e6e6e6" d="m530.8 305.8 1.4-2.1c1.4 1.1 3 1.7 4.4 1.7s2.1-.5 2.1-1.5-1.3-1.4-2.8-1.8c-.1 0-.2-.1-.2-.1-2-.6-4.2-1.4-4.2-4s2.1-4.1 4.8-4.1c1.7 0 3.5.6 5 1.5l-1.2 2.2c-1.3-.8-2.6-1.3-3.8-1.3s-1.9.5-1.9 1.4 1.3 1.4 2.8 1.8c.1 0 .2.1.2.1 2 .6 4.2 1.5 4.2 4 0 2.9-2.2 4.2-5 4.2-1.9 0-4.1-.7-5.8-2z"/><path fill="#e6e6e6" d="m659.5 298.6c0-5.1 4.1-9.2 9.3-9.2s9.2 4.2 9.2 9.2-4.1 9.2-9.3 9.2-9.2-4.2-9.2-9.2zm17.3-.1c0-4.5-3.5-8.2-8.2-8.2s-8.2 3.7-8.2 8.3c0 4.5 3.5 8.2 8.2 8.2 4.8 0 8.2-3.7 8.2-8.3zm-13-.1c0-2.8 2.1-5.1 5.1-5.1 1.9 0 2.9.6 3.9 1.5l-1.4 1.7c-.8-.7-1.5-1.1-2.5-1.1-1.7 0-2.8 1.4-2.8 3.1s1.1 3 2.8 3c1.1 0 1.7-.5 2.5-1.1l1.4 1.4c-1.1 1.1-2.1 1.7-4 1.7-2.9.1-5-2.2-5-5.1z"/><path fill="#e6e6e6" d="m679.3 289.7h3.4l4.2 13.2 4.4-13.3h2.6l4.4 13.3 4.2-13.2h3.3l-6.2 18h-2.6l-4.4-12.8-4.4 12.8h-2.7z"/><path fill="#e6e6e6" d="m705.5 300.8c0-3.9 3.1-7 7.2-7 4.2 0 7.2 3.2 7.2 7s-3.1 7-7.3 7c-4 0-7.1-3.1-7.1-7zm11.3 0c0-2.3-1.7-4.3-4.2-4.3s-4.1 2-4.1 4.3 1.7 4.3 4.1 4.3c2.7.1 4.2-1.9 4.2-4.3z"/><path fill="#e6e6e6" d="m722.1 294h3.1v3c.8-2 2.4-3.4 4.8-3.3v3.2h-.2c-2.7 0-4.6 1.7-4.6 5.4v5.1h-3.1z"/><path fill="#e6e6e6" d="m731.8 288.9h3.1v11.1l5.6-6h3.8l-5.4 5.5 5.5 8h-3.5l-4.1-5.8-1.9 2v3.9h-3.1z"/><path fill="#e6e6e6" d="m744.4 300.8c0-3.9 3.1-7 7.2-7 4.2 0 7.2 3.2 7.2 7s-3.1 7-7.3 7c-4.1 0-7.1-3.1-7.1-7zm11.3 0c0-2.3-1.7-4.3-4.2-4.3s-4.1 2-4.1 4.3 1.7 4.3 4.1 4.3c2.6.1 4.2-1.9 4.2-4.3z"/><path fill="#e6e6e6" d="m760.9 302.6v-8.6h3.1v7.6c0 2.1 1.1 3.3 2.9 3.3s3-1.3 3-3.3v-7.6h3.1v13.4h-3.1v-2.1c-.8 1.3-2.1 2.3-4.2 2.3-3.1.2-4.8-1.8-4.8-5z"/><path fill="#e6e6e6" d="m776.6 303.8v-7.1h-1.7v-2.7h1.7v-3.7h3.1v3.7h3.6v2.6h-3.6v6.6c0 1.2.6 1.7 1.7 1.7.7 0 1.3-.2 1.9-.5v2.5c-.8.5-1.7.7-2.8.7-2.3.1-3.9-.9-3.9-3.8z"/><path fill="#e6e6e6" d="m785.9 289.7h3.2v15h9.4v2.9h-12.5v-17.9z"/><path fill="#e6e6e6" d="m808.7 307.5v-1.7c-.9 1.1-2.3 2-4.4 2-2.6 0-4.8-1.4-4.8-4.2 0-3 2.3-4.4 5.4-4.4 1.7 0 2.6.2 3.7.5v-.2c0-1.9-1.2-2.9-3.3-2.9-1.5 0-2.6.3-3.9.8l-.8-2.5c1.5-.7 2.9-1.1 5.1-1.1 4 0 5.9 2.1 5.9 5.7v8zm.1-5.6c-.8-.3-1.9-.5-3.1-.5-2 0-3.1.8-3.1 2.1s1.1 2 2.6 2c2 0 3.5-1.1 3.5-2.9z"/><path fill="#e6e6e6" d="m817.6 305.5v2.1h-3.1v-18.7h3.1v7.4c1-1.4 2.4-2.5 4.5-2.5 3.2 0 6.3 2.5 6.3 7s-3.1 7-6.3 7c-2.1 0-3.5-1.1-4.5-2.3zm7.7-4.7c0-2.6-1.7-4.3-3.9-4.3-2.1 0-3.9 1.7-3.9 4.4 0 2.6 1.8 4.3 3.9 4.3 2.2 0 3.9-1.7 3.9-4.4z"/><path fill="#e6e6e6" d="m829.6 305.8 1.4-2.1c1.4 1.1 3 1.7 4.4 1.7s2.1-.5 2.1-1.5-1.3-1.4-2.8-1.8c-.1 0-.2-.1-.2-.1-2-.6-4.2-1.4-4.2-4s2.1-4.1 4.8-4.1c1.7 0 3.5.6 5 1.5l-1.2 2.2c-1.3-.8-2.6-1.3-3.8-1.3s-1.9.5-1.9 1.4 1.3 1.4 2.8 1.8c.1 0 .2.1.2.1 2 .6 4.2 1.5 4.2 4 0 2.9-2.2 4.2-5 4.2-1.9 0-4-.7-5.8-2z"/><path fill="#e6e6e6" d="m206.3 434.2c0-5.1 4.1-9.2 9.3-9.2s9.2 4.2 9.2 9.2-4.1 9.2-9.3 9.2-9.2-4.1-9.2-9.2zm17.4-.1c0-4.5-3.5-8.2-8.2-8.2s-8.2 3.7-8.2 8.3c0 4.5 3.5 8.2 8.2 8.2s8.2-3.7 8.2-8.3zm-13.1-.1c0-2.8 2.1-5.1 5.1-5.1 1.9 0 2.9.6 3.9 1.5l-1.4 1.7c-.8-.7-1.5-1.1-2.5-1.1-1.7 0-2.8 1.4-2.8 3.1s1.1 3 2.8 3c1.1 0 1.7-.5 2.5-1.1l1.4 1.4c-1.1 1.1-2.1 1.7-4 1.7-2.9.1-5-2.2-5-5.1z"/><path fill="#e6e6e6" d="m226.1 425.3h3.4l4.2 13.2 4.4-13.3h2.6l4.4 13.3 4.2-13.2h3.3l-6.2 18h-2.7l-4.4-12.8-4.4 12.8h-2.7z"/><path fill="#e6e6e6" d="m252.4 436.4c0-3.9 3.1-7 7.2-7 4.2 0 7.2 3.2 7.2 7s-3.1 7-7.3 7c-4.1 0-7.1-3.1-7.1-7zm11.2 0c0-2.3-1.7-4.3-4.2-4.3s-4.1 2-4.1 4.3 1.7 4.3 4.1 4.3c2.7.1 4.2-1.9 4.2-4.3z"/><path fill="#e6e6e6" d="m269 429.7h3.1v3c.8-2 2.4-3.4 4.8-3.3v3.2h-.2c-2.7 0-4.6 1.7-4.6 5.4v5.1h-3.1z"/><path fill="#e6e6e6" d="m278.6 424.5h3.1v11.1l5.6-6h3.8l-5.4 5.5 5.5 8h-3.5l-4.1-5.8-1.9 2v3.9h-3.1z"/><path fill="#e6e6e6" d="m291.3 436.4c0-3.9 3.1-7 7.2-7 4.2 0 7.2 3.2 7.2 7s-3.1 7-7.3 7c-4.1 0-7.1-3.1-7.1-7zm11.2 0c0-2.3-1.7-4.3-4.2-4.3s-4.1 2-4.1 4.3 1.7 4.3 4.1 4.3c2.6.1 4.2-1.9 4.2-4.3z"/><path fill="#e6e6e6" d="m307.7 438.2v-8.6h3.1v7.6c0 2.1 1.1 3.3 2.9 3.3s3-1.3 3-3.3v-7.6h3.1v13.4h-3.1v-2.1c-.8 1.3-2.1 2.3-4.2 2.3-3 .2-4.8-1.8-4.8-5z"/><path fill="#e6e6e6" d="m323.4 439.4v-7.1h-1.7v-2.6h1.7v-3.7h3.1v3.7h3.6v2.6h-3.6v6.6c0 1.2.6 1.7 1.7 1.7.7 0 1.3-.2 1.9-.5v2.5c-.8.5-1.7.7-2.8.7-2.3 0-3.9-.9-3.9-3.9z"/><path fill="#e6e6e6" d="m332.7 425.3h3.2v15h9.4v2.9h-12.5v-17.9z"/><path fill="#e6e6e6" d="m355.5 443.1v-1.7c-.9 1.1-2.3 2-4.4 2-2.6 0-4.8-1.4-4.8-4.2 0-3 2.3-4.4 5.4-4.4 1.7 0 2.6.2 3.7.5v-.2c0-1.9-1.2-2.9-3.3-2.9-1.5 0-2.6.3-3.9.8l-.8-2.5c1.5-.7 2.9-1.1 5.1-1.1 4 0 5.9 2.1 5.9 5.7v8zm.1-5.6c-.8-.3-1.9-.5-3.1-.5-2 0-3.1.8-3.1 2.1s1.1 2 2.6 2c2 0 3.5-1.1 3.5-2.9z"/><path fill="#e6e6e6" d="m364.4 441.1v2.1h-3.1v-18.7h3.1v7.4c1-1.4 2.4-2.5 4.5-2.5 3.2 0 6.3 2.5 6.3 7s-3.1 7-6.3 7c-2.1 0-3.5-1.1-4.5-2.3zm7.7-4.7c0-2.6-1.7-4.3-3.9-4.3-2.1 0-3.9 1.7-3.9 4.4 0 2.6 1.8 4.3 3.9 4.3 2.2 0 3.9-1.7 3.9-4.4z"/><path fill="#e6e6e6" d="m376.5 441.4 1.4-2.1c1.4 1.1 3 1.7 4.4 1.7s2.1-.5 2.1-1.5-1.3-1.4-2.8-1.8c-.1 0-.2-.1-.2-.1-2-.6-4.2-1.4-4.2-4s2.1-4.1 4.8-4.1c1.7 0 3.5.6 5 1.5l-1.2 2.2c-1.3-.8-2.6-1.3-3.8-1.3s-1.9.5-1.9 1.4 1.3 1.4 2.8 1.8c.1 0 .2.1.2.1 2 .6 4.2 1.5 4.2 4 0 2.9-2.2 4.2-5 4.2-2 0-4.1-.7-5.8-2z"/><path fill="#e6e6e6" d="m505.1 434.2c0-5.1 4.1-9.2 9.3-9.2s9.2 4.2 9.2 9.2-4.1 9.2-9.3 9.2-9.2-4.1-9.2-9.2zm17.4-.1c0-4.5-3.5-8.2-8.2-8.2s-8.2 3.7-8.2 8.3c0 4.5 3.5 8.2 8.2 8.2s8.2-3.7 8.2-8.3zm-13.1-.1c0-2.8 2.1-5.1 5.1-5.1 1.9 0 2.9.6 3.9 1.5l-1.4 1.7c-.8-.7-1.5-1.1-2.5-1.1-1.7 0-2.8 1.4-2.8 3.1s1.1 3 2.8 3c1.1 0 1.7-.5 2.5-1.1l1.4 1.4c-1.1 1.1-2.1 1.7-4 1.7-2.9.1-5-2.2-5-5.1z"/><path fill="#e6e6e6" d="m525 425.3h3.4l4.2 13.2 4.4-13.3h2.6l4.4 13.3 4.2-13.2h3.3l-6.2 18h-2.7l-4.4-12.8-4.4 12.8h-2.7z"/><path fill="#e6e6e6" d="m551.2 436.4c0-3.9 3.1-7 7.2-7 4.2 0 7.2 3.2 7.2 7s-3.1 7-7.3 7c-4.1 0-7.1-3.1-7.1-7zm11.2 0c0-2.3-1.7-4.3-4.2-4.3s-4.1 2-4.1 4.3 1.7 4.3 4.1 4.3c2.7.1 4.2-1.9 4.2-4.3z"/><path fill="#e6e6e6" d="m567.8 429.7h3.1v3c.8-2 2.4-3.4 4.8-3.3v3.2h-.2c-2.7 0-4.6 1.7-4.6 5.4v5.1h-3.1z"/><path fill="#e6e6e6" d="m577.5 424.5h3.1v11.1l5.6-6h3.8l-5.4 5.5 5.5 8h-3.5l-4.1-5.8-1.9 2v3.9h-3.1z"/><path fill="#e6e6e6" d="m590.1 436.4c0-3.9 3.1-7 7.2-7 4.2 0 7.2 3.2 7.2 7s-3.1 7-7.3 7c-4.1 0-7.1-3.1-7.1-7zm11.2 0c0-2.3-1.7-4.3-4.2-4.3s-4.1 2-4.1 4.3 1.7 4.3 4.1 4.3c2.6.1 4.2-1.9 4.2-4.3z"/><path fill="#e6e6e6" d="m606.5 438.2v-8.6h3.1v7.6c0 2.1 1.1 3.3 2.9 3.3s3-1.3 3-3.3v-7.6h3.1v13.4h-3.1v-2.1c-.8 1.3-2.1 2.3-4.2 2.3-3 .2-4.8-1.8-4.8-5z"/><path fill="#e6e6e6" d="m622.2 439.4v-7.1h-1.7v-2.6h1.7v-3.7h3.1v3.7h3.6v2.6h-3.6v6.6c0 1.2.6 1.7 1.7 1.7.7 0 1.3-.2 1.9-.5v2.5c-.8.5-1.7.7-2.8.7-2.3 0-3.9-.9-3.9-3.9z"/><path fill="#e6e6e6" d="m631.5 425.3h3.2v15h9.4v2.9h-12.5v-17.9z"/><path fill="#e6e6e6" d="m654.3 443.1v-1.7c-.9 1.1-2.3 2-4.4 2-2.6 0-4.8-1.4-4.8-4.2 0-3 2.3-4.4 5.4-4.4 1.7 0 2.6.2 3.7.5v-.2c0-1.9-1.2-2.9-3.3-2.9-1.5 0-2.6.3-3.9.8l-.8-2.5c1.5-.7 2.9-1.1 5.1-1.1 4 0 5.9 2.1 5.9 5.7v8zm.1-5.6c-.8-.3-1.9-.5-3.1-.5-2 0-3.1.8-3.1 2.1s1.1 2 2.6 2c2 0 3.5-1.1 3.5-2.9z"/><path fill="#e6e6e6" d="m663.3 441.1v2.1h-3.1v-18.7h3.1v7.4c1-1.4 2.4-2.5 4.5-2.5 3.2 0 6.3 2.5 6.3 7s-3.1 7-6.3 7c-2.2 0-3.6-1.1-4.5-2.3zm7.7-4.7c0-2.6-1.7-4.3-3.9-4.3s-3.9 1.7-3.9 4.4c0 2.6 1.8 4.3 3.9 4.3s3.9-1.7 3.9-4.4z"/><path fill="#e6e6e6" d="m675.3 441.4 1.4-2.1c1.4 1.1 3 1.7 4.4 1.7s2.1-.5 2.1-1.5-1.3-1.4-2.8-1.8c-.1 0-.2-.1-.2-.1-2-.6-4.2-1.4-4.2-4s2.1-4.1 4.8-4.1c1.7 0 3.5.6 5 1.5l-1.2 2.2c-1.3-.8-2.6-1.3-3.8-1.3s-1.9.5-1.9 1.4 1.3 1.4 2.8 1.8c.1 0 .2.1.2.1 2 .6 4.2 1.5 4.2 4 0 2.9-2.2 4.2-5 4.2-2 0-4.1-.7-5.8-2z"/></g>
</svg>
