<?xml version="1.0" encoding="utf-8"?>
<!-- Generator: Adobe Illustrator 23.0.1, SVG Export Plug-In . SVG Version: 6.00 Build 0)  -->
<svg version="1.2" baseProfile="tiny" id="Layer_1" xmlns="http://www.w3.org/2000/svg" xmlns:xlink="http://www.w3.org/1999/xlink"
	 x="0px" y="0px" viewBox="0 0 900 600" xml:space="preserve">
<g>
	<path d="M393.22,143c-0.72,3.49-1.62,6.88-1.33,10.47c0.99,12.56-1.28,6.06-0.51,19.4c3.88,67.83-13.86,47.36-11.81,72.27
		c2.04,24.72-11.49,25.48-15.81,41.16c-0.72,0.72-1.95-0.1-2.46,1.13c0.1,5.54-0.41,11.09-2.67,16.32c0.92-2.26-0.09-4.11-0.92-6.06
		c-2.5-5.8-3.43-26.87-12.73-34.59c4.52-1.75,8.01-4.11,12.63-4.72c-2.26-1.54-4.52-1.33-6.57-1.44c-0.21-1.75,0.21-2.87,1.33-3.9
		c3.81-3.48,6.67-7.8,10.78-10.98c0.92-0.62,1.95-1.64,1.95-2.67c0-5.3,6.85-6.31,1.64-11.7c-0.1-3.7-0.31-7.49,0.31-11.19
		c1.85,0.41,3.39-0.92,5.13-1.13c5.03-11.33,1.13-5.66,1.13-17.86c0-0.1-0.41-0.21-0.82-0.41c0.51,2.05-1.44,3.7-0.72,5.65
		c1.33,3.59-0.62,6.26-2.46,9.65c-0.92-2.46-2.67-2.77-4.93-2.67c8.25-10.19,0.17-3.27,2.77-11.09
		c7.28-21.85,11.25-25.04,11.7-34.59c1.54,0.51,2.57-0.21,2.16-1.44c-0.82-2.46-0.29-5.14-1.33-7.49c-3.21-7.26-6.81-3.2-9.44-11.09
		c-1.06-3.17-2.57-6.06-5.03-8.62c4.79-4.1,6.38,6.6,11.91-3.9c0.31-2.16-1.13-3.18-1.85-4.62c3.39,0.72,6.78,1.23,10.16,0.82
		c0.82,1.64,2.16,2.46,3.59,2.26c2.16,3.7,2.67,7.8,5.54,10.78c0-4.82-2.87-8.62-3.59-13.24c-2.57,0.72-3.9-0.82-5.44-2.16
		c-4.31,1.95-8.31-2.36-12.32-0.31c-4.42-1.16-4.5-7.63-13.34-8.31c-18.17-1.4-36.03-5.85-54.61-5.65
		c-0.41-4.72-4.41-2.67-6.88-3.59c0.38-8.62,2.48-5.74,1.44-11.09c-1.81-9.3-6.64-13.02-7.8-16.22c5.37,0.81,6.2-5.7,1.33-9.75
		c0.67-2.93-0.6,9.23-5.65-64.98c-0.13-1.95,0-4.38-2.98-4.52c-5-0.22-1.02,9.09,1.85,57.79c0.39,6.57,1.13,12.93,2.98,19.2
		c-1.03,2.26-3.08,4.31-0.41,6.67c-3.08,10.78-2.16,17.96,2.67,21.35c0.72-0.41-0.1-1.33,0.62-1.64c1.33,0.72-0.31,2.26,0.82,2.98
		c1.85,0,1.13-2.16,2.67-2.57c0.92,0.72,1.13,1.75,0.72,2.87c-2.46,1.64-6.98-1.33-7.7,3.59c-13.61,0.9-25.84-3.84-50.3-3.18
		c-29.2,0.78-30.19,0.02-36.44,5.65c-3.57,3.21-0.59,11.31-7.49-107.99c-0.25-4.27-3.77-4.22-3.49,0.72
		c7.4,130.97,7.51,105.89-1.54,108.61c-3-69.77-2.94-66.45-4.72-113.74c-3.49-1.34-1.58-5.43,1.75,99.47
		c0.4,12.54,1.71,15.3-3.8,15.3c-5-104.99-3.34-121.94-8.83-114.46c1.54,8.01,5.75,114.66,4.62,117.13
		c-8.73,1.95-11.7,5.13-10.47,11.5c-1.95,1.13-4.21,1.85-5.65,3.7c-1.44,1.64-5.13-0.31-5.03,3.49c3.18,1.23,5.24,3.59,6.36,6.88
		c-5.34,1.44-4.31-4.31-6.98-5.95c-1.95,3.7-0.42,7.75,3.28,8.21c9.59,1.2-1.12,5.78,14.68-4.93c9.21,7.48,4.68-14.62,16.94,259.1
		c-9.51,7.2-0.33,18.43-2.57,21.04c-0.62,0.72-0.21,1.75,0,2.67c1.17,5.12,4.82,7.65,5.54,8.73c-1.68,5.61-7.79-0.86-16.32,8.52
		c-10.34,11.37-11.64,9.27-13.04,16.53c-3.75,13.12,0.47,9.04,9.85,32.95c2.09,5.32,2.36,11.39,6.47,15.81
		c-3.61,3.07-19.17,5.19-36.75,14.88c-3.99,2.2-17.52,5.36-22.69,7.6c-6.05,3.46-27.22-509.5-31.21-510.39
		c-2.24,0.75,25.68,512.48,26.07,513.37c4.1,1.3,6.47-1.38,10.16-2.36c31-8.22,10.86-6.64,55.74-20.84
		c0.62,1.03,1.95,1.75,2.46,3.39c-2.77,1.44-6.36,0.51-8.83,3.7c3.8,0.92,6.16-1.44,9.14-1.95c1.44,4,4.21,7.19,6.67,11.19
		c-5.34-1.13-10.37-0.51-15.19-1.75c4.93,3.9,10.78,3.49,17.04,3.8c4.31,4.62,8.11,10.47,11.09,16.94
		c-13.04-4.62-25.87-9.44-39.01-12.42c-0.92-0.92,0.31-2.26-1.33-2.57c-14.88,7.6-31.21,12.42-46.71,19.81
		c0.41,2.67,0.82,5.34,1.23,7.8c1.33,1.44,3.7,0.82,4.93,3.28c-4,1.95-8.52,2.05-12.01,5.03c-2.57-4.52-7.29-2.87-10.27-4.82
		c-0.43-7.38-28.21-546.11-33.77-542.31c1.05,6.3,28.76,506.38,29.05,512.65c-6.08-1.95-31.64-11.56-19.71-5.65
		c9.11,4.52,14.25,6.74,16.82,7.75c-1.31-0.3-3.02-0.52-4.6-0.25c2.46,0.72,4.41,3.49,7.39,1.54c-0.5-0.5-0.33-0.09,0.31-0.62
		c0.92,4.31,0.62,8.62,0.92,13.45c-54.42-18.14-5.1,1.59,0.21,2.98c0.1,2.87,0.21,5.44,0.31,7.8c-0.72,0.72-1.44-0.62-1.85,0.31
		c3.59,4.72,8.73,6.76,13.96,8.93c2.83,1.17,2.5-0.17,14.06-4.31c1.13-0.41,2.26-0.72,2.77-2.16c-2.16-1.95-3.8-4.52-6.47-5.95
		c-0.1-1.75-1.03-3.18-0.62-4.62c0.83-1.12,29.07-11.22,36.95-15.4c6.89-3.65,36.47,9.76,49.79,12.32c1.23,2.67,3.08,5.03,3.08,8.11
		c-16.8,13.44-13.42,9.21-28.23,11.91c-4.97,0.9-2.99,2.34-7.29,4.62c-3.57,1.89-4.82,6.36-2.26,8.52c2.78,2.35,5.24,4.92,8.73,6.47
		c14.31,6.36,11.67,7.39,16.73,7.39c41.72,0,34.94,15.58,58.51-6.16c0.91-0.84,0.93-2.16,0.1-3.08c-2.44-2.69-3.38-6.16-5.34-9.14
		c-6.52-9.93-3.11-13.59-6.26-16.42c-1.23-0.62-2.36,0.51-3.59-0.21c-0.92-2.87-2.67-5.54-3.39-8.62c9.44-2.77,9.44-2.77,15.81-8.21
		c3.08,0.62,4.41,3.18,6.36,5.13c9.17,9.17,20.89,3.87,22.48,10.06c0.73,2.86,2.03,2.83,7.6,5.85c12.41,6.73,31.42-0.75,26.59-9.24
		c-1.27-2.24-2.67-4.52-3.59-6.06c-0.1-6.47-0.21-12.11-4-16.84c-2.98,0.21-2.98,0.21-5.03-1.13c-3.08-13.14-2.05-26.48-3.7-39.93
		c19.31,5.43,11.28,0.52,18.58-2.05c0.41,1.64,1.74,1.13,2.87,1.44c1.95,0.52,2.88-1.55,4.62-1.33c3.08,0.39,4.11-1.44,4.31-4
		c0-3.25,0.02-2.51,7.9-6.78c2.82-1.53,2.75-2.26,4.41-9.14c0.8-3.29,2.16-6.67-0.21-9.75c2.26-2.46,3.29-5.23,5.34-7.49
		c1.85-2.05,3.02-4.41,3.18-7.6c0.15-2.98,1.83-6.06,2.87-9.03c6.48-18.42-1.84-29.37-3.39-37.57c-0.39-2.06-1.23-3.49-3.49-3.59
		c-0.28-11.05,4.49-72.39,8.21-76.78c7.32-8.64,5.47-23.91,9.14-30.08c4.96-8.35,20.21-22.6,16.42-42.19
		c-0.42-2.15-1.23-4.51-0.31-6.67c1.14-2.67,1.75-5.54,3.8-7.9c7.5-8.64,10.54-32.75,8.93-48.14c-0.92-8.83-1.64-17.66-0.1-26.59
		c9.36-5.11,0.83-8.42,0.62-13.34C393.83,141.87,393.32,142.28,393.22,143z M377.92,158.09c0.62,0.72,0.51,1.13,0.41,1.85
		C377.62,159.32,377.92,158.8,377.92,158.09z M290.26,73.19c2.77,1.13,2.98,1.54,2.57,4.82C290.46,77.43,289.64,76.58,290.26,73.19z
		 M291.49,101.63c-1.85-3.8-2.77-7.6-0.72-12.22C292.82,93.82,293.13,97.73,291.49,101.63z M292.52,88.69
		c-0.62-0.62-1.44-0.82-0.92-1.95C292.21,87.15,292.62,87.56,292.52,88.69z M293.23,103.37c1.95-3.59,1.75-7.29,1.13-10.88
		C297.75,98.44,297.44,101.42,293.23,103.37z M344.36,226.45c-0.21-1.23-0.41-2.26,1.23-3.18
		C345.59,224.81,345.59,225.73,344.36,226.45z M301.04,256.43c-0.58-7.61-8.3-1.75-6.98-9.85c1.03-6.32-1.93-8.08,1.85-12.73
		c1.33-1.64,2.77-3.39,2.87-5.65c-0.72-1.33-1.33,0.1-2.26-0.21c-2.04-4.08-0.75-0.5,3.28-6.36c1.44-0.21,0.72,1.95,2.36,1.85
		c0.92-2.26-0.41-4.31-1.03-6.36c4.49-8.97,1.31-5.7,7.49,1.95c3.13,3.87-4.3,16.98-0.92,18.17c2.36-1.44,1.13-4.41,2.67-6.26
		c6.23,1.2-3.52,4.69,3.8,8.11c3.18-0.82,6.47-1.23,8.21-4.93c0.1,5.03-0.51,6.17-5.03,7.6c-1.66,0.52-5.61,4.39-4.93,0.31
		c0.51-3.03-3.58-1.04-2.36,2.05c0.73,1.84,2.56,2.55,4.21,1.64c2.86-1.57,6.16-2.16,8.93-4.21c-2.22,4.44,2.1,3.64,0.21,7.9
		c-2.3,5.17,0.73,6.86-7.19,11.29c2.16,0.62,5.34,0.31,7.8-0.92c6.99,6.15,6.39-7.35,12.52,10.16c3.79-7.34-3.04-7.47,2.05-8.31
		c-0.31,0.72-1.03,1.33-0.31,2.16c5.98,5.98,5.79,13,4.21,20.33c-12.3,7.83-12.65-6.28-28.95-15.4c1.33-2.16,4.21-2.57,6.06-5.34
		C301.33,267.44,302.38,274.11,301.04,256.43z M312.43,192.99c1.13,1.85,2.26-0.41,3.8,0.51c-1.64,2.05-2.67,4.31-2.57,7.08
		c-3.4,2.72-3.39-1.94-4.62-6.16c1.75,0.72,1.64,2.77,3.39,3.18C314.28,196.17,312.23,194.84,312.43,192.99z M327.32,256.73
		c-0.51-0.82,0.31-1.33,0.62-2.26C328.86,255.71,329.37,256.63,327.32,256.73z M328.14,241.64c0.41-1.03,1.13-1.54,2.36-2.16
		C329.88,240.82,329.37,241.44,328.14,241.64z M325.16,212.59c0.31-1.33,0.41-2.36,2.16-2.98
		C327.11,211.26,326.39,211.88,325.16,212.59z M318.08,188.68c3.08,0.82,6.26,1.64,9.44,2.36
		C324.03,191.86,320.95,190.32,318.08,188.68z M322.39,205.1c-0.51,0.82-0.51,0.82-1.23,0.21C321.57,205,321.98,204.9,322.39,205.1z
		 M319.21,207.77c0.31,1.75,0.31,3.28-1.54,4.62C317.77,210.54,317.87,209.1,319.21,207.77z M321.16,232.51
		c-2.87-3.7-2.87-3.7-5.95-2.77c0.51-0.92,1.44-1.44,2.36-1.85C320.13,229.33,320.13,229.33,321.16,232.51z M315.51,233.23
		c0.51-0.92,1.13-1.13,1.85-1.44c1.33,0.41,1.13,2.46,2.77,2.67c-1.03,1.23-2.16,2.05-3.8,2.57
		C316.74,235.49,317.05,234.05,315.51,233.23z M314.38,208.39c-0.31-1.13-0.41-2.05,1.33-2.26
		C315.92,207.36,315.3,207.87,314.38,208.39z M312.33,223.78c-0.21-0.82,0.21-1.44,0.92-1.85
		C313.87,223.17,313.87,223.17,312.33,223.78z M330.81,257.04c0.82-1.23,1.54-2.46,2.36-3.7
		C333.06,254.89,332.65,256.43,330.81,257.04z M340.45,192.37c1.75-1.03,2.77-0.31,3.8,0.72
		C343.02,193.19,341.79,193.19,340.45,192.37z M344.56,251.6c0.31,1.13-0.1,1.33-0.72,1.44
		C343.33,252.32,344.05,252.22,344.56,251.6z M343.53,265.77c-0.82-0.21-1.03-0.82-1.64-1.95
		C343.02,264.54,343.33,265.05,343.53,265.77z M340.35,224.4c0.41-0.82,1.03-0.21,1.54-0.1
		C341.28,224.71,340.76,224.91,340.35,224.4z M339.12,210.75c0-1.03,0.41-1.44,1.33-1.13C340.66,210.75,340.25,211.05,339.12,210.75
		z M340.25,260.33c0.82,0.72,0.41,1.33,0.21,1.85c-0.82,0.31-1.23-0.31-1.75-0.41C338.92,260.74,339.94,261.05,340.25,260.33z
		 M335.84,198.12c1.13-1.03,2.05-0.62,3.18-0.51C337.99,198.02,337.17,198.53,335.84,198.12z M338.5,255.4
		c-1.54,2.77-2.55,0.58-1.85-0.82C337.48,254.27,337.79,255.09,338.5,255.4z M336.76,211.46c0.1-0.51,0.41-0.82,1.03-0.51
		C337.68,211.57,337.27,211.57,336.76,211.46z M337.48,214.24c-0.82,1.13-2.05,1.44-3.7,2.36
		C334.3,213.83,336.14,214.54,337.48,214.24z M335.22,246.88c-0.34-1.01,0.82-0.97,0.82-0.62
		C336.04,246.78,335.73,247.09,335.22,246.88z M335.84,257.45c-0.21,0.92-0.62,0.92-1.03,1.13
		C334.6,257.66,335.22,257.86,335.84,257.45z M343.43,265.77c0.72,0.51,1.33,1.13,1.33,2.05
		C343.95,267.41,343.74,266.59,343.43,265.77z M346.92,240.52c0.51-1.64,1.03-2.57,2.67-2.87
		C349.08,239.18,348.77,240.21,346.92,240.52z M349.8,226.45c0.51,2.16,0.51,2.16-1.44,2.87
		C348.46,227.89,348.77,227.07,349.8,226.45z M349.28,210.75c0.31-0.21,0.62,0,0.82,0.51C349.11,212,348.76,210.75,349.28,210.75z
		 M349.49,233.84c1.54-0.82,2.77-1.64,4,0.21C352.26,235.9,350.93,235.59,349.49,233.84z M353.59,218.86
		c-1.44,0.72-2.16-0.1-2.87-1.13c1.02-4.77,1.38-4.68,2.98-3.08C352.16,215.88,352.16,217.42,353.59,218.86z M345.38,195.86
		c-1.35-3.72-4.16-4.06,8.52,2.46C349.69,199.87,348.26,195.35,345.38,195.86z M354.62,208.59c0.62-0.72,1.03-0.51,1.44,0.1
		C355.54,209.51,355.03,209.41,354.62,208.59z M354.93,205.61c0.1-1.44,1.44-2.36,0.72-4.21c2.16,1.13,0.92,2.98,1.85,4
		C356.57,206.33,355.75,206.23,354.93,205.61z M359.65,238.98c-0.62-1.33-0.1-2.46-0.92-3.59c0.92-0.21,1.54-0.41,2.36,0
		C361.6,236.92,360.37,237.64,359.65,238.98z M359.96,233.23c-0.41-2.36-0.41-2.36,1.85-2.87
		C361.4,231.69,360.99,232.71,359.96,233.23z M363.35,234.05c-1.95-1.13-0.41-1.95,0-2.98C364.68,232.3,364.78,233.12,363.35,234.05
		z M377,154.7c-1.03,3.08-1.22,5.85-1.03,8.73c0.82,12.02-5.19,16.8-10.98,32.23c-3.19,8.51,0.13,10.08-2.77,11.29
		c-2.98-5.96-5.1-10.41-13.55-13.96c-10.06-5.03-10.83-5.55-9.44-2.77c-8.62-1.03-17.25-1.44-25.05-5.75
		c-0.62,0.62-0.02,1.34,0.21,2.05c1.87,6.04-2.37-3.76-7.8-3.49c-1.33,1.64,0.1,3.18,0.41,5.13c-0.21,1.03-1.54,1.95-1.13,3.39
		c-1.13,0-1.23-0.92-1.85-1.13c-2.36,3.18-1.85,7.49,1.44,9.96c-1.23,6.26-6.26,11.5-5.65,18.48c-2.05,2.16-4.41,4.21-5.95,6.98
		c0,4.24,4.41,2.61,0.41,7.19c-3.88,4.44-1.59,8.3-1.85,14.37c-0.4,9.35,5.21,4.46,5.95,9.44c0.23,1.54,0.41,3.18,0.72,5.54
		c-8.52-10.06-20.94-9.75-31.31-14.37c-6.16-9.65-12.42-19.5-23.1-24.84c-1.95-8.93-4.81-17.26-10.98-24.12
		c-9.3-10.35-24.65-48.41-31.21-58.31c2.36-4.72,1.44-9.96,1.44-15.3c12.44-8.29,11.12-7.69,16.53-6.57
		c13.05,2.71,53.17-1.65,122.46,4.82c12.46,1.16,16.48-0.21,21.04,8.73c-1.44,2.05-1.14,4.01,0.62,6.06
		C366.78,141.04,368.47,151.93,377,154.7z M301.86,111.38c-3.7,0-7.08,0-10.68,0C294.77,110.04,300.21,109.94,301.86,111.38z
		 M210.6,111.58c0.52-0.13,32.09-3.05,64.06,1.33c18.75,2.57,25.62-2.4,64.88,3.8c7.6,1.2,15.4,1.75,23.1,2.46
		c4.62,4.11,6.88,10.06,13.34,12.01c-1.95,1.75-3.39,2.87-5.34,3.7c-3.08-3.08-6.88-5.75-7.6-10.68
		c-32.94-5.75-99.46-7.09-126.57-7.19c-29.93-0.11-13.59-5.52-33.46,5.44c-1.33-1.54-2.16-3.18-3.8-4.62
		C203.41,116.1,206.28,112.69,210.6,111.58z M165.33,144.95c0.62-3.8-0.72-6.26-2.87-8.62c11.17-4.1,7.36-7.41,11.09,2.36
		C171.28,140.94,168.51,142.48,165.33,144.95z M175.08,134.37c-0.82-3.08-2.57-4.52-5.24-5.34c0.21-1.44,0.51-2.77,0.72-4
		c1.44-0.82,2.98,0.62,4.11-0.62c0.82-1.13-1.23-1.33-0.62-2.46c5.73-0.44,7.52-2.37,7.89-2.25c-0.11,0.11-0.98,1.88-0.5,2.76
		c1.13-0.92,2.77-1.13,3.08-2.87c-0.31-0.21-0.51-0.41-0.72-0.41c-4.85,0,5.03-1.41,5.13-1.44c1.44-0.41,2.57-2.26,4.41-1.03
		c1.44,3.08,4.93,4.31,6.78,7.39c0.21,0.82-1.03,0.92-1.23,1.95c0.92,0.92,0.82,2.36,0.72,3.8c-0.23,13.26,1.68,9.79,9.75,29.26
		c9.38,22.61,7.65,14.91,10.47,24.53c2.53,8.64,4.75,8.58,4.21,12.93c1.64-1.44,1.64-1.44-1.95-9.85
		c3.01,1.69,6.25,12.91,10.57,14.06c1.3,0.35,8.05,18.43,8.52,19.71c2.59,7.06,6.36,5.08,17.25,17.55
		c2.44,2.79,7.72,11.88,7.9,12.22c3.41-2.05,5.72,2.17,21.25,7.39c5.89,1.98,14.66,10.71,13.86,12.32c-1.44,1.23-1.85-1.64-3.7-0.51
		c-0.62,4.31,1.33,8.93,0.72,13.65c1.85-3.49,1.23-7.39,2.26-10.98c9.75,3.18,19.4,9.96,20.84,22.99c-2.36,2.26-5.95,3.08-8.21,5.75
		c2.26,1.64,4.11,0.92,8.73-3.18c0.31,1.33,0.31,1.95-0.31,3.28c1.13,0.31,1.52,1.13,1.54,2.26c0.18,11.28-7.99,23.39-9.65,26.69
		c-8.1,16.13-37.03,29.19-45.58,13.55c-9.06-16.57-2.31-31.8-6.88-34.08c1.54-6.78,2.57-13.34,2.36-20.22
		c4,1.44,7.29,3.9,10.47,6.26c1.03-1.13,0.62-1.65,0.21-2.05c-20.1-19.77-33.05-4.86-49.89-45.06c2.36,1.75,4.11,3.08,5.95,5.34
		c-0.58-4.39-12.87-17.31-16.12-19.91c-4.7-3.77-7.64-12.85-10.37-20.12c-1.71-4.56,0.98-2.62-3.8-21.04
		c-0.21-0.82-0.62-1.54-1.64-0.41c-1.95-10.37-5.21-20.33-7.19-30.59C188.18,145.93,179.34,150.4,175.08,134.37z M203.82,224.4
		c11.19,13.74,7.06,11.06,14.17,16.42c8.47,6.39,0.45,26.61,42.29,46.81c1.09,12.46-3.71,34.63,1.75,45.89
		c1.27,2.61-1.17,3.47,1.33,8.93c4.41,9.65,3.95,27.2,7.08,32.75c2.64,4.67-14.91,6.41-21.66,8.73c-6.57,2.26-13.24,4.31-20.33,5.03
		c-0.73,2.91,0.24,2.04-17.14,6.06C208.75,338.04,206.29,281.17,203.82,224.4z M207.42,396.14c-1.95,0.62-4,1.23-6.36,1.95
		c-2.98-72.47-6.06-144.64-9.03-216.8C203.77,211.65,207.48,396.03,207.42,396.14z M243.65,562.54c0.36,8,8.57,21.61,10.68,24.23
		c-5.92,6.16-8.45,10.24-14.99,9.75c-10.05-0.75-19.23-5.16-23.2-5.24c-23.26-0.42-16.59,0.3-24.12-2.67
		c-4.36-1.72-16.93-6.6-17.25-10.98c4.21-6.88,10.98-7.19,17.45-8.11c1.23,0.21,1.23,1.75,2.67,1.95c1.03-0.41,2.36-0.62,3.7,0.21
		c1.54-1.54,2.16-3.49,3.9-4.72c1.03,0.72,1.13,2.46,2.98,2.77c0.41-2.36,0.62-4.82,2.67-6.78c0.62,1.85-0.51,3.9,1.54,5.24
		c1.44-1.95,1.95-4.11,2.36-6.36c1.7,1.19-0.6,5.65,5.24,7.19c6.18,1.63,9.98,0.54,15.4,4.21
		C236.16,569.42,241.39,567.77,243.65,562.54z M239.44,563.87c-0.51,0.35-9.31,8.19-13.65,4c-2.56-2.47-9.69,1.27-11.6-10.27
		c-1.99-12.05-5.98-12.8-3.59-13.76c-12.53-16.91-12.42-17.27-16.94-22.79c-0.21-0.82,0.92-1.23,0.41-1.95
		c-3.7-6.06-8.71-11.14-12.22-17.25c-2.72-4.74-4.54-14.75-8.88-24.32c0.39,0.04,0.71,0.6,1.59,0.3c0.41-1.44,1.13-3.08-1.33-3.7
		c-0.85,1.14-0.4,2.1-0.32,3.13c-5.95-7.93-10.73-15.43-0.81-25.61c6.08-6.25,12.06-14.09,19.09-12.52
		c0.51,0.51-0.11,1.13-0.31,1.75c-5.88,18.48,10.77,26.24,15.91,34.18c0,3.35-2.86,0.36-11.81,2.87c4.11,3.18,8.52,2.16,12.83,2.36
		c8.43,12.5,12.3,14.32,13.24,34.9c0.61,13.3,13.41,34.82,16.32,41.37c-4.21,2.36-8.62,3.59-13.34,4.52
		c-9.06-12.61-9.36-15.29-2.87,0.92c-1.54,0.41-2.77-1.33-4,0.1c1.03,2.77,3.8,4.2,6.78,2.87c4.62-2.06,9.75-2.46,14.06-5.65
		C239.03,560.69,239.55,562.02,239.44,563.87z M236.26,548.06c-1.54-3.9-5.03-6.88-6.16-11.19c-0.1-0.31-0.21-0.61-0.41-0.92
		c-5.99-9.41-4.62-17.75-7.6-37.57c-1.25-8.33-5.82-11.02-8.62-16.63c5.13,4.61,7.47,9.87,18.68,9.65c4.31-0.09,8.73,0,12.83-1.13
		c0.72,0.51,1.03,1.13,1.03,1.75c-0.1,17.6,3.59,33.43-7.08,41.68c-3.43-0.61-8.05-2.37-8.93-0.62c9.78,2.63,8.14,2.57,10.37,0.92
		c8.92-6.59,10.09-15.88,8.42-32.44c-0.41-4-0.21-8.01-0.72-11.81c2.87-2.67,6.36-0.21,9.44-1.54c0.51,4-0.31,8.11,1.64,12.73
		c0-5.34,0-9.96,0-14.78c1.64-1.33,2.77-3.18,5.24-4c1.86,10.53,0.21,28.6,0.51,39.21c0.26,9.22-4.81,10.59-4.31,12.28
		c4.57-1.81,7.87-8.94,6.36-14.23c-0.29-1.03-0.01-2.05,0.1-3.08c3.27-29.33,0.33-26.54,0.92-34.08c0.53-0.8,2.16-0.91,2.16-0.21
		c-3.34,8.12,22.11,37.4,10.98,45.37c-7.16,5.13-8.75,10.21-14.58,7.9c-2.36-0.93-4.82,0.51-7.29,1.13
		c-0.31-1.44,1.44-1.54,1.23-2.77c0.1,0-1.08-0.52-2.98,1.85C249.51,545.52,245.61,546.82,236.26,548.06z M304.01,534.72
		c0.72,0,0.72,1.75,1.95,1.64c0.62-0.92-1.03-1.44-0.41-2.57c2.92,0.11,4.41,2.44,4.41,4.93c-1.23,6.88,1.75,12.42,5.65,17.66
		c-3.7,5.85-8.93,7.73-15.3,6.78c-6.53-0.98-15.59-2.25-14.27-8.62c-6.88-6.2-13.59,0.55-26.59-10.68
		c-0.83-0.71-1.44-1.44-1.85-2.46c1.75-2.77,3.69-3.49,6.67-3.08c5.82,0.79,9.02-0.36,20.12-11.09c0.64,2.87-2.43,8.07,1.64,9.14
		c-0.31-1.13-0.21-2.26,0.62-3.49c4,2.67,8.31,3.18,13.04,1.75c-1.23,1.44-2.98,2.46-1.44,4.72
		C301.24,539.34,301.24,535.54,304.01,534.72z M301.86,531.33c-0.1,1.13-0.51,1.85-1.75,1.75
		C299.6,531.23,301.34,532.05,301.86,531.33z M301.34,529.18c-4.82,1.44-9.34,5.54-14.17-0.1c-0.82-3.59-0.51-7.8-1.33-12.01
		c1.64-0.31,1.95,1.64,3.59,1.64c-9.82-15.77-14.12-20.37-17.76-36.44c8.83,2.46,17.35,4.82,26.28,7.39
		c0.72,6.78-0.21,13.35,0.51,19.91C299.18,516.04,301.14,522.5,301.34,529.18z M274.76,480.62c6.11-3.78,41.36,7.08,42.29,7.49
		C309.13,493.98,309,488.95,274.76,480.62z M327.73,485.65c-2.77-0.21-5.24,1.23-7.9,1.85c2.67-1.64,5.13-3.49,8.21-4.31
		C328.34,484.01,328.34,484.73,327.73,485.65z M348.67,398.4c0.92,1.03,0.92,1.54,0.72,2.36
		C348.56,400.14,348.56,399.52,348.67,398.4z M349.18,402.19c6.88,15.09,3.59,30.18-1.13,45.17c-0.51,0.72-0.72-0.82-1.33-0.21
		c-1.85,2.87-3.18,6.67-8.11,6.26c0.41,1.54-0.31,2.16-1.64,2.57c-8.2,2.49-14.8,7.88-21.66,12.73c-5.42,3.84-22.85,2.15-24.64,4.93
		c0.54,2.71,7.38,2.64,10.06,1.95c7.05-1.82,9.58,3.02,12.22,0.82c-1.62-3.96-12.4,0.32,2.77-5.75c1.85,1.75,0.82,4.21,1.95,6.57
		c1.44-2.36,1.95-4.62,1.85-6.98c6.67-4.31,13.45-8.21,21.45-10.27c1.75,2.67-1.03,3.7-2.16,5.34c0.51-0.21,1.13-0.31,1.64,0.1
		c0.62,5.03-1.23,8.93-5.34,11.29c-25.43,14.62-12.05,5.1-50.71,1.23c0.72-1.85,3.59-0.72,4.31-3.39
		c-1.17,0.13-16.47,1.37-20.74,4.62c-1.86,1.42-4.85-2.62-8.42,1.54c-7.97,9.3-11.42,5.33-26.28,6.57
		c-14.03,1.17-26.11-17.16-26.59-18.58c16.62,0.28,55.89,13.25,62.62,7.8c-31.3-5.22-32.3-5.95-43.94-7.49
		c-15.23-2.02-18.27,0.74-25.15-5.03c-9.22-7.73-8.66-20.89-3.39-29.26c4,1.54,8.21,2.36,12.52,1.54
		c-0.49-2.95-17.09,0.37-19.3-19.61c-1.41-12.78,0.84-12.41,6.98-14.61c-1.08-0.32-4.85-62.73-12.93-249c0.21,0,0.51-0.1,0.72-0.1
		c6.02,7.52,14.31,248.19,12.24,249.1c0.33-0.12,0.66-0.24,1.01-0.37c2.87,2.98,7.19,3.49,10.68,6.36
		c-3.02-9.73-17.35-4.56,14.17-12.73c12.46-3.23,9.07-5.37,14.78-5.85c5.95-0.5,11.81-1.64,17.25-4.11
		c4.52-2.05,9.75-1.03,14.06-3.8c2.77,10.06,4.72,20.02,7.08,29.77c-0.82,0.51-1.33-0.51-2.36,0.21c-0.62,0.51,0,1.64-0.31,2.57
		c1.13,0.62,1.23-0.51,1.95-0.72c3.28,3.18,8.01,1.03,11.91,2.87c1.64-1.28-1.18-5.17,4.21-1.13c4-0.72,7.39,1.54,11.5,0.82
		c-1.85,1.75-3.49,0.92-5.03,1.03c2.46,1.54,9.32,1.82,11.39,0.21c2.99-2.32,7.08-0.97,13.96-4.41c3.12,2.08-0.13,1.54,14.17-4.93
		c0.1,1.33-1.44,1.33-1.75,2.46c1.13,0.82,2.67-1.03,3.49,1.23c0.51-1.44,0.72-2.16,0.82-2.67
		C343.95,407.33,346.2,404.14,349.18,402.19z M278.86,411.02c0.92,0.72,1.03,1.33,0.1,2.05
		C278.35,412.46,278.25,411.95,278.86,411.02z M284.92,412.25c1.23,0.82,1.13,1.44,0.31,2.05
		C284.2,413.9,284.41,413.28,284.92,412.25z M352.36,321.3c-2.36,6.51-7.38,37.76-6.16,72.27c0.11,3.18-0.92,4.72-5.24,7.9
		c-0.41-4.62,0.41-9.03,0.31-13.55c-1.33,4.82-1.13,9.75-2.16,15.09c-7.9,5.85-17.45,7.6-26.9,8.93c-1.2-0.83-1.48-2.95-2.37-3.13
		c-0.21-1.11-0.52-2.11-1.73-3.03c0.9,4.52,1.3,0.87,2.36,6.16c-4.93,1.03-9.55,0.2-14.27-0.82c-1.44-0.31-1.77-1.73-2.36-2.77
		c-5.49-9.72-13.14-17.76-19.5-26.79c-4.46-4.46,8.94,14.76,18.48,28.85c-12.1-2.48-15.08-2.02-15.81-5.85
		c-4.36-22.95-4.49-10.76-4.62-29.05c-0.13-18.55-4.31-20.69-1.64-22.69c0.21-1.03-0.92-1.54-1.03-2.57
		c3.35,0.48,7.65,7.64,22.69,2.05c3.38-1.26,6.47-2.77,8.73-5.65c2.57-3.28,6.35-5.46,9.24-8.52c14.58-15.43,21.16-40.43,8.01-56.97
		c-6.65-8.36-1.46-2.9-11.39-9.85c4.21,0.92,8.43,1.33,12.11,4.52c7.62,6.59,10.71,12.37,13.96,13.45
		c7.76,1.63,14.54-4.78,12.83-16.22c-0.1-1.75-1.03-3.39-1.13-5.13c5.3,5.3,7.08,21.13,12.32,41.27
		C355.65,312.78,353.92,317,352.36,321.3z M393.22,153.47c-0.62-2.26-1.13-4.21,0.62-5.95C395.89,151,395.89,151.41,393.22,153.47z"
		/>
	<path d="M197.07,402.05c-0.01,0-0.01,0-0.02,0.01C197.06,402.06,197.06,402.06,197.07,402.05z"/>
	<path d="M830.52,337.21c-0.65-1.62,2.23-6.32-3.9-19.5c-2.05-4.41-2.57-9.34-2.16-14.37c4.99-3.23,4.04-2.01,2.87-12.11
		c-1.64,0-1.83,1.24-2.16,2.05c-8.01,20.16,5.3,28.18,3.39,43.22c-0.18,1.39,2.39,12.21-1.95,18.89c-1.39,2.14-0.1,2.17-1.23,8.93
		c-5.63,4.82-2.83,3.48-10.57,1.95c-6.13-1.21-7.29-4.84-15.81-18.27c6.98-15.19,11.7-28.54,11.09-31.51
		c-2.67,7.29-7.19,13.14-10.16,20.43c-3.55-11.44,4.4-32.81-0.62-47.63c4,1.44,6.76,4.02,9.55,6.47
		c11.75,10.29,1.09,22.7,11.29,33.26c2.15,2.23,2.35,7.02,4,6.57c0-9.09-6.89-9.61-7.19-16.73c-0.19-4.51,4.55-18.28-12.01-29.26
		c2.16-1.44,2.57-3.59,3.39-5.34c-0.21-1.95-1.64-2.87-2.77-4.21c3.28-0.1,6.47,0.21,9.75-1.23c1.03,1.54,2.46,2.16,4,1.44
		c2.46,3.39,4,7.19,7.08,10.16c1.08-2.89-3.59-6.33-5.13-11.39c-0.22-0.71-1.13-1.54-1.85-1.13c-1.95,1.12-2.77-1.13-4.31-1.33
		c-2.46,0.82-4.95,1.8-7.6,0.72c-2.27-0.92-3.69,3.5-7.7-0.51c-8.22-8.22-13.82-0.56-14.88-5.34c1.95-0.21,2.67-1.75,3.7-3.18
		c4.43,1.61,4.03-5.8,7.08-8.73c3.72-3.57,6.75-7.72,10.78-10.98c1.02-0.83,2.14-1.85,2.05-3.08c-0.33-4.85,6.85-5.42,1.64-11.39
		c-0.77-21.29,5.13-16.38-2.16-18.07c2.87-3.28,3.39-4.21,2.98-6.47c-1.75,1.03-3.39,2.16-4.82,3.08
		c-4.16-6.47-3.84-11.35-22.79-17.96c-1.23,0.31-0.31,1.13-1.33,1.54c-8.01-1.03-16.32-1.54-23.92-5.65
		c-0.92,1.23,0.92,2.16,0.21,3.39c-2.57-1.64-4-5.34-8.11-4.62c-0.72,1.75,0.51,3.28,0.72,5.13c-0.82,0.82-1.13,2.16-1.33,3.18
		c-1.23,0.21-1.03-1.44-2.16-1.03c-1.85,4.11-1.23,7.7,1.85,9.96c-1.33,6.36-6.47,11.6-5.65,18.58c-7.88,6.57-6.34,8.45-3.49,11.29
		c-4.21,4-5.34,8.73-3.8,14.17c0.67,1.69-3.66,8.45,6.16,10.57c6.38,1.38,0.38,13.95-1.95,15.5c-0.82-0.72-0.1-2.16-1.33-2.67
		c-1.23,0-2.36,1.33-3.9,0.51c-0.31-1.13,0.51-2.26-0.1-3.49c-0.1-0.82-1.75-0.41-1.75-1.95c5.39-13.66,0.39-7.88-3.8-43.22
		c-0.32-2.68-11.77-192.37-12.93-209.82c-0.1-1.54,0.51-4.41-2.05-4.31c-2.77,0.11-1.74,2.98-1.64,4.72
		c14.1,241.67,18.36,228.55,12.42,244.21c-3.42,9.01,3.75,10.01,4.31,13.96c-2.73-0.17-5.05,0.96-7.29,2.26
		c-1.43,0.83-0.41,2.46-0.51,3.59c-13.17,3.06-27.51,2-42.4,4.93c-10.37,2.04-20.43,5.54-31,6.78c-14.39,2.88-6.91,46.79-15.6-135.3
		c-7.7-161.24-5.44-153.71-8.62-154.29c-2.68,0.99,4.51-17.65,11.5,297.39c0.13,5.82-1.93-0.32-6.67,2.57
		c-4.21-100.91-8.31-201.2-12.52-301.59c-5.65-0.71,9.65,237.44,9.65,302c-6.71,2.68,0.06,29.7-16.53-298.72
		c-0.29-5.77-4.7-4.18-3.8-1.75c0.64,1.72-5.02-21.54,13.65,302.31c0.42,7.34-3.53,0.94-8.73,10.57c-1.18,2.18-0.65,4.05,1.31,5.47
		c0.61-1.25,0.18-2.78,0.64-4.14c3.49,0.82,6.67,2.46,10.37,2.57c-1.85-2.98-5.24-2.67-8.01-3.8c-0.31-0.72,0.72-1.75-0.21-2.36
		c4-3.49,8.01,1.13,12.22-0.41c-1.85-2.05-4.62-1.03-6.57-2.77c2.87-1.64,5.76-0.75,8.21,0c1.32,0.4,5.13,0.35,5.13-1.03
		c-3.08-0.41-6.16-0.92-9.24-1.33c3.08-0.31,4.93-2.67,7.39-4.11c2.36,2.87,5.65,4,8.01,6.26c0.62,0.92-0.72,1.33-0.51,2.46
		c2.28,2.28-0.69,3.55,5.44,15.81c2.01,4.02,3.53,2.29,4.93,3.7c20.4,16.58,19.53,14.62,27.51,26.59c0.62,0.92,1.13,2.26,2.98,2.26
		c0.1-4.21-3.8-5.65-5.65-8.93c7.17,1.43,3.65,1.79,16.94,5.65c2.46,0.72,5.13-0.21,7.6,1.03c1.44,0.72,2.98,1.44,4.72,1.85
		c-1.23-1.85-3.28-2.77-5.13-4.31c-0.52-19.41,15.27-24.66,13.24-31c-1.12-3.49-0.62-7.19,0.51-10.78
		c-3.59,3.49-3.59,7.8-2.36,12.42c-1.64,1.85-3.7,3.49-5.24,5.54c4.48-29.12,16.79-32.38,31.62-47.94
		c3.82-4.01,18.85,6.78,22.99,10.37c10.84,9.38,5.84,23.92-1.64,36.13c6.19-17.87,0.29-2.18-7.19,6.67
		c-1.03-1.44,0.72-3.08-0.92-4.52c-0.82,2.77-2.47,4.82-2.87,7.6c-1.88,12.93-8.01,23.81-16.32,33.67
		c-11.74,13.92-16.47,20.49-24.94,26.38c-3.56-0.77-1.79-3.32-29.36-14.88c-2.16-0.91-4.19-1.97-5.85-3.49
		c-1.83-1.67-4.69-1.45-6.06-4c-3.04-5.69-7.86-9.41-19.61-24.64c-3.52-4.57,0.95-3.04-12.83-16.42c-1.58-1.54-7.4-0.26-11.81-9.24
		c-4.9-10-7.03-6.52-8.42-6.36c0.09-0.1,0.18-0.29,0-0.1c-3.49,2.05-5.13,6.26-9.24,7.49c-0.51,0.92-0.82,1.85-0.31,2.87
		c3.8-0.41,5.44,2.46,7.6,5.03c-2.57,0.82-4.31,0.51-5.34-1.75c-0.62-1.13-1.85-1.95-2.26-3.28c-2.26,1.44-0.82,3.08-0.82,4.62
		c2.14,5.36,4.6,1.37,9.65,4.21c12-10.76,7.77-25.62,11.6,60.15c-8.94,7.15-1.01,17.25-2.26,23.4c-1.17,5.73,8.62,8.42,3.7,11.5
		c-3.07,0.13-8.99,0.5-11.19,2.67c-5.61,5.55-25.87,20.03-15.09,35.11c6.95,9.72,11.59,28.84,14.68,33.67
		c-1.75,1.64-3.8,1.96-5.75,2.57c-24.21,7.55-25.44,10.1-34.18,13.55c-6.86,2.7-14.33,3.67-21.04,6.88
		c-0.3,0.14-51.43-904.47-20.33-307.03c16.87,324.07,15.36,312.73,21.35,309.5c7.27-3.42,8.05-1.25,31.51-12.01
		c9.56-4.38,19.61-7.7,29.87-10.88c0.92,1.03,2.16,1.85,2.57,3.28c-2.67,1.64-6.36,0.51-8.62,3.8c3.8,1.03,6.16-1.54,9.14-1.95
		c1.08,4.13,4.22,7.13,6.2,10.72c-4.71-0.77-9.5-0.33-14.1-1.48c4.7,3.83,15.22,4.21,15.69,3.24c4.63,5.39,8.76,11.26,11.83,17.9
		c-13.14-4.82-26.07-9.65-39.42-12.73c-0.62-0.82,0.31-1.85-1.03-2.46c-14.99,7.49-31.21,12.52-46.71,19.61
		c-0.21,2.77,0.92,5.44,0.92,7.9c1.54,1.54,3.9,0.82,4.93,3.39c-3.8,1.85-8.42,1.85-11.81,4.93
		C527,534.28,535.98,693.7,504.29,35.83c-0.87-18.01-0.5-20.23-4.62-17.14c1.72,6.89,27.03,475.32,29.15,512.44
		c-7.8-2.26-14.99-5.44-22.48-7.49c6.98,3.28,13.24,7.8,20.74,9.85c-1.95,0.51-3.59-1.13-5.95-0.51c2.77,1.54,5.13,2.77,8.01,2.26
		c0,4.31,0.82,8.31,0.51,12.73c-27.13-8.93-24.83-8.76-25.25-7.08c8.62,2.77,16.53,7.6,25.25,9.96c0.72,2.87,0.82,5.54,0.72,8.01
		c-0.82,0.41-1.44-0.51-1.85,0.1c4.24,5.16,14.79,10.31,17.14,9.03c9.06-4.92,13.21-3.98,13.65-6.88c-2.36-1.64-3.7-4.52-6.78-5.85
		c0.62-1.64-0.82-3.08-0.21-4.62c0.6-0.83,29.87-11.21,36.85-15.3c5.99-3.51,36.9,9.65,49.89,12.42c1.13,2.77,3.18,5.13,2.98,8.31
		c-2.7,0.9-8.97,10.68-22.89,10.68c-1.46,0-8.01,1-9.34,2.77c-0.92,1.23-2.14,2.08-3.59,2.87c-3.26,1.8-4.43,5.97-2.16,8.01
		c12.39,11.11,11.29,6.19,20.43,12.63c2.89,2.04,8.58,1.56,12.11,1.23c14.27-1.32,26.11,7.46,35.42,5.44
		c6.99-1.51,11.31-6.87,16.22-11.39c0.91-0.84,1.02-2.15,0.1-3.08c-1.26-1.29-9.42-14.18-10.06-22.17c-0.45-5.67-3.54-2.76-5.24-3.8
		c-0.72-2.77-2.67-5.34-3.39-8.83c6.67-0.41,11.81-3.59,15.71-7.8c7.21,1.75,4.04,9.59,23.51,11.81c8.29,0.94,2.81,3.89,8.42,6.88
		c9.72,5.18,18.68,8.18,29.36,0.51c5.23-3.75,1.61-7.75-2.36-14.17c0.46-26.01-8.97-9.66-9.24-20.63
		c-0.21-8.42-2.87-14.2-2.05-17.86c1.09-4.91-1.17-15.82-0.62-18.58c19.65,5.1,10.58,0.84,18.07-2.16c0.62,1.95,2.26,1.13,3.59,1.44
		c1.85,0.42,2.56-1.72,4.31-1.44c2.77,0.45,3.76-1.24,4-3.8c0.23-2.45-0.06-3.11,2.67-4.21c9.11-3.66,8.51-6.93,9.75-11.7
		c0.89-3.4,1.95-6.78,0-9.96c2.16-2.57,3.49-5.55,5.65-7.9c1.13-1.23,2.37-2.57,2.46-4.11c0.34-5.54,3.09-10.47,4.41-15.71
		c4.24-16.79-2.91-25.17-5.03-35.52c-1.69-8.21,11.85-34.36,15.6-44.76c1.95,4.52,4.61,7.6,6.67,11.19
		c5.97,10.42,10.7,5.58,16.22,8.83c6.65-5.6,6.3-5.15,6.57-6.78c2.71-16.02,3.59-10.77,3.59-14.37
		C830.62,345.53,832.57,341.32,830.52,337.21z M826,299.34c0.41,0.82,0,1.33-0.72,1.85C825.28,300.26,825.08,299.54,826,299.34z
		 M807.42,237.64c1.23,1.33,1.23,2.26-0.31,2.87C805.57,239.39,806.7,238.67,807.42,237.64z M733.92,260.84
		c0.25,3.38-2.57,6.47-1.95,10.37c-4.23-1.81,5.81-10.4-2.26-17.55c0.21-1.13,0.21-2.16,1.33-3.18
		C732.18,254.07,733.66,257.35,733.92,260.84z M728.89,237.95c0.92,0.51,0.82,1.23,0.82,2.26
		C728.58,239.39,728.58,238.67,728.89,237.95z M728.89,267.51c-1.03-0.21-0.31-1.44-1.03-1.75c-0.82-0.21-0.51,0.92-1.33,1.03
		c-0.21-3.7,2.46-6.67,2.16-10.57C731.66,259.4,731.56,261.87,728.89,267.51z M730.47,274.75c-0.81-0.19-0.59-0.17,0.12-0.06
		c0.67-0.33,4.55-4.88,2.61,0.31c-1.13,0.41-2.36,0.31-3.59-0.1C729.94,274.92,730.22,274.85,730.47,274.75z M737.72,276.96
		c-4.11,1.95-8.52,1.64-12.93,1.64C728.89,275.83,733.41,277.57,737.72,276.96z M716.88,300.16
		c-13.61,14.12-15.86,28.69-14.17,34.49c0.73,2.5-6.69,10.3-5.65,19.81c-9.76,2.15-25.3-7.13-34.08-15.91
		c-12.04-12.04-11.91-7.87-17.35-12.63c1.13-5.13-0.41-10.06-1.75-15.4c12.72-14.18,7.08-7.35,27-11.29
		c15.13-2.99,23.92-5.2,52.04-9.24C728.7,289.17,734.3,282.09,716.88,300.16z M664.02,297.8c-14.56,2.44-7.37-3.51-21.35,9.96
		c-1.33-1.33-2.77-2.26-3.59-4.11c10.15-10.49,9.23-8.37,14.17-9.44c32.64-7.1,20.51-6.92,52.35-9.03
		c25.37-1.68,30.78-9.79,33.88-4.62C727.28,288.68,745.17,284.18,664.02,297.8z M611.56,336.7c-0.1-3.7-1.85-5.85-4.41-7.8
		c9.99-6.53,5.5-8.42,10.88,0.1C616.39,331.77,614.02,333.83,611.56,336.7z M799.52,279.93c1.94,1.45,3.5,3.76,6.47,3.08
		c0.43-0.1,3.14,1.18-2.67,5.44c-3.49-2.26-7.19-4.41-9.44-9.03c-2.98,0.51-5.75-0.21-7.29-3.8
		C793.84,272.98,795.01,276.58,799.52,279.93z M783.71,249.45c0.41-1.54,0.82-2.57,2.05-3.7
		C785.45,247.39,784.84,248.32,783.71,249.45z M783.91,231.17c0.41-1.23,1.13-1.03,2.16-0.41
		C785.25,231.48,784.63,231.48,783.91,231.17z M788.43,233.33c-0.41-1.44-0.51-2.36,0.51-3.18
		C790.18,231.17,789.25,232,788.43,233.33z M791.41,246.78c0-1.33,0.51-2.36,2.16-2.77C793.36,245.55,792.64,246.37,791.41,246.78z
		 M791.82,225.63c0-1.13,0.72-0.62,1.23-0.62C792.74,225.63,792.43,226.04,791.82,225.63z M793.87,232.61
		c0.41,1.64,1.03,3.08-1.44,3.39C792.13,234.56,792.74,233.64,793.87,232.61z M793.36,240.21c1.64-0.62,3.08-1.85,4,0.51
		C796.03,242.26,794.8,242.06,793.36,240.21z M805.78,236.61c-0.21,1.54-0.82,2.36-1.75,3.18
		C803.52,237.54,803.52,237.54,805.78,236.61z M805.06,241.85c0.41,1.85-1.03,2.77-1.95,4c0.1-1.33,0.62-2.67-0.51-3.9
		C803.52,241.54,804.24,241.64,805.06,241.85z M799.83,208.08c1.95,1.13,0.82,2.77,1.64,4.21
		C796.8,213.45,800.31,210.52,799.83,208.08z M800.34,215.37c-0.82,0.51-1.33,0.31-1.75-0.31
		C799.52,214.24,799.72,214.96,800.34,215.37z M797.46,225.53c-1.33,0.31-2.05-0.21-2.87-1.23c1.33-4.67,1.21-4.74,3.08-3.18
		C796.13,222.35,796.34,223.99,797.46,225.53z M789.97,202.43c-1.23-0.51-1.33-1.54-1.03-2.46c2.67,1.85,5.85,2.87,8.52,5.03
		C794.43,206.82,795.11,204.14,789.97,202.43z M788.94,199.87c-1.54,0.31-2.87-0.72-4.93-0.62
		C786.48,197.3,787.51,199.35,788.94,199.87z M784.33,215.98c0.24,0,0.67,1.54-1.13,1.03C783.3,216.19,783.71,215.88,784.33,215.98z
		 M779.19,264.74c0.51-1.23,1.75-2.05,1.44-3.49C782.55,260.83,783.31,262.68,779.19,264.74z M782.07,204.28
		c-0.41,0.72-1.03,0.62-1.75,0.21C780.84,203.87,781.45,204.07,782.07,204.28z M781.45,220.81c-0.92,1.13-2.26,1.33-3.7,2.36
		C778.78,220.91,778.78,220.91,781.45,220.81z M775.81,215.26c-0.1,0.82-0.62,0.82-1.13,0.72
		C774.68,215.16,775.29,215.16,775.81,215.26z M774.16,245.65c-0.21,1.75-0.51,2.26-1.54,2.16
		C772.62,246.88,773.44,246.78,774.16,245.65z M771.19,197.5c-3.49,0.92-6.47-0.62-9.34-2.36
		C764.92,195.96,768.11,196.79,771.19,197.5z M770.98,216.29c0.1,1.64-0.92,2.05-1.85,2.77
		C769.34,217.83,769.44,216.8,770.98,216.29z M766.98,211.46c-0.82,1.03-1.33,1.33-2.05,0.62
		C765.44,211.46,765.95,211.57,766.98,211.46z M759.38,239.59c3.13-3.13,2.26,0.88,4.72,1.54c-1.33,1.13-2.36,2.16-4.21,2.57
		C760.82,242.06,760.92,240.62,759.38,239.59z M762.77,214.24c0.62,2.05,0.62,3.9-1.85,5.34
		C761.64,217.52,762.15,215.88,762.77,214.24z M764,236.92c-1.54-1.03-2.87-1.75-4.72-0.62C761.78,232.98,763.43,234.66,764,236.92z
		 M758.05,215.06c0.21-1.33-0.1-2.36,1.75-2.57C759.89,213.72,759.28,214.34,758.05,215.06z M756.1,204.18
		c1.95-1.03,0.1-2.46,0.62-3.8c7.11-1.58-0.12,0.48,1.03,6.88c-3.11,0.93-2.87,1.97-5.03-7.29
		C754.35,201.4,754.56,203.46,756.1,204.18z M756.1,230.25c-0.21-0.92,0.72-1.23,0.82-2.16
		C757.94,229.74,757.94,229.74,756.1,230.25z M741.01,258.07c-6.66-2.23-1.92-3.76-3.18-10.37c-1.47-7.7,4.86-8.39,4.62-13.24
		c-0.82-1.23-1.44,0.31-2.26,0.1c-0.95-2.21-1.42-0.81,3.49-6.47c1.23,0,0.72,1.75,2.16,1.75c1.03-2.26-0.41-4.21-0.92-6.47
		c4.52-9.61,1.69-4.85,7.49,2.05c3.03,3.6-4.39,16.2-1.23,18.17c2.77-1.23,1.23-4.52,2.98-6.26c2.67,0.62,2.67,0.92,0.72,4.72
		c1.95,4.62,6.88,4.21,10.68-0.82c0.31-1.03-1.03-1.44-0.82-2.46c2.32,1.16,2.55,7.58-2.46,8.93c-1.75,0.72-3.39,2.26-5.54,2.67
		c-0.82-1.33,0.62-2.67-1.13-3.7c-4.09,3.15,0.26,7.54,3.7,5.13c2.24-1.57,4.82-1.85,6.98-3.08c0.51,0.41,0.21,0.82,0.31,1.03
		c2.57,4.41,0.08,8.52-0.62,12.73c-0.76,4.62-4.94,2.83-5.65,5.13c4.52,0.79,6.12-2.11,8.21,1.03c4.62-3.59,9.44,0.31,14.27-0.62
		c1.07,0.85-1.61,6.89,5.34,12.83c5.15,4.4,4.27,11.72-1.75,14.99c-9.36,5.09-20.69-16.26-44.24-17.25
		C747.45,270.85,750.16,261.13,741.01,258.07z M753.22,338.14c0.72,0.36,1.07-0.13-3.8,5.95
		C748.6,340.29,751.99,339.99,753.22,338.14z M717.91,408.15c0.52-7.34-8.1-9.26-2.77-11.39c3.28,4.11,6.47,8.31,9.34,13.65
		c-16.12-3.22-14.9-2.26-15.71-8.93C713.03,397.69,711.48,397.44,717.91,408.15z M717.09,414.41c-1.03-0.72-1.13-1.23-0.31-2.16
		C718.32,412.87,717.91,413.59,717.09,414.41z M710.83,412.97c-0.62-0.72-0.82-1.23,0.21-1.85
		C711.44,411.84,711.75,412.36,710.83,412.97z M642.15,354.05c12.1,15.68,19.46,27.16,29.77,32.54c-4.11,1.44-7.7,1.85-11.6,2.57
		c-1.3,2.93,0.66,1.74-17.14,5.85C641.11,349.09,640.99,354.44,642.15,354.05z M634.35,343.37c4.67,4.01,4.42,2.56,5.44,50.4
		c0.06,2.63,1.36,2.03-6.78,4.31C630.3,334.6,629.09,338.86,634.35,343.37z M628.5,343.68c2.84,62.76,3.93,54.35-1.54,58
		c-1.13-22.17-2.05-44.04-2.98-66.21C627.47,337.52,628.34,340.09,628.5,343.68z M675.41,562.33c0.72,9.34,6.57,16.22,10.57,24.43
		c-10.1,10.1-8.1,12.62-33.67,5.13c-4.58-1.34-18.78-1.15-21.45-1.13c-2.54,0.02-23.01-7.75-24.23-13.04
		c4.31-6.88,11.09-7.29,17.66-8.21c1.13,0.31,1.13,1.75,2.77,1.95c0.92-0.41,2.26-0.41,3.49,0.21c1.54-1.44,2.16-3.49,3.8-4.52
		c1.13,0.62,1.03,2.36,2.77,2.57c0.72-2.26,0.82-4.93,3.08-6.98c0.21,1.95-0.51,3.9,1.23,5.44c1.75-1.85,1.85-4.31,2.77-6.78
		c2.66,11.52,3.81,4.41,20.63,11.29C668.12,569.11,673.26,567.57,675.41,562.33z M669.76,559.36c1.33,0.92,1.13,2.36,1.95,3.59
		c-3.59,3.49-7.19,6.26-12.52,5.95c-4.41-5.04-8.56,0.85-12.32-8.31c-1.14-2.77-1.15-5.74-2.05-8.62c-0.84-2.66-2.16-5.13-3.18-7.8
		c2.46,1.85,2.67,5.44,5.44,6.98c1.03-0.82,0.61-1.64,0-2.16c-2.17-1.83-3.09-4.6-5.44-6.36c-2.17-1.63-3.47-4.43-5.03-6.78
		c-10.01-15.1-12.4-14.91-10.57-16.53c-5.66-9.27-11.7-14.58-14.27-22.17c-2.12-6.27-3.8-12.83-6.57-18.89
		c-3.28-4.92-13.34-15.46-0.82-27c5.6-5.16,11.29-13.76,18.89-12.22c-5.87,22.57,9.25,25.68,15.71,36.44
		c-3.59,2.87-8.21-0.62-11.5,2.77c3.49,2.67,8.01,1.75,12.22,1.85c10.05,13.82,11.24,14.13,12.73,29.46
		c2.66,27.3,14.46,38.73,16.53,47.01c-4,2.36-8.42,3.28-13.04,4.52c-8.89-12.38-9.02-13.7-3.08,0.72c-1.44,0.62-2.77-1.23-3.9,0.21
		c0.92,2.77,3.7,4.21,6.78,2.87C659.86,563.09,664.78,562.3,669.76,559.36z M686.19,538.93c-4.46,5.92-10.57,8.11-17.76,9.03
		c-6.78-10.06-11.91-20.63-12.42-33.05c-0.98-23.98-6.22-25.57-10.16-32.13c15.09,11.5,13.14,8.62,31.31,7.49
		c1.2,0.6,1.64,23.38,0.62,30.49c-0.74,5.13-2.77,9.55-7.08,12.83c-2.87-0.72-5.75-1.54-8.83-1.44c9.74,8.04,19.2-4.84,19.2-18.37
		c0-7.8-0.62-15.91-0.92-24.23c2.87-2.26,6.26-0.21,9.34-1.23c0.51,4.11-0.1,8.21,1.85,12.11c-0.5-9.99-1.42-16.59,5.44-17.96
		c0.82,9.34,0.31,18.68,0.31,28.02C697.07,536.71,693.62,529.06,686.19,538.93z M735.87,534.72c0.72,0.1,0.72,1.64,1.95,1.64
		c0.62-0.92-0.82-1.54-0.51-2.36c3.49,0.51,5.32,2.15,4.52,6.06c-1.44,6.95,2.75,11.36,5.13,16.12c0,10.59-31.31,9.13-29.15-1.64
		c-2.05-1.64-4.31-2.91-6.98-2.98c-10.44-0.27-19.75-6.39-21.45-10.37c6.94-8.1,8.5,5.64,27.1-14.17c0.41,1.64,0,2.87-0.41,3.9
		c-1.65,5.26,7.92,17.19,12.52,8.52c-5.13,2.87-7.29-1.75-10.47-3.28c-0.62-1.33,0.1-2.16,0.41-3.49c4,2.77,8.31,3.18,13.04,1.95
		c-1.33,1.33-2.67,2.57-1.33,4.82C733.2,539.13,733.1,535.64,735.87,534.72z M731.56,532.87c0.51-1.13,1.33-1.23,2.26-1.75
		C733.72,532.56,733.2,533.28,731.56,532.87z M733.2,529.07c-4.62,1.44-9.14,5.85-14.17-0.21c-1.03-3.59-0.51-8.11-1.44-12.42
		c1.91,0.27,6.73,6.85-1.23-5.75c-5.9-9.34-7.39-8.76-13.04-28.54c-6.15,0.27,6.6,18.83,12.22,36.03c2.44,7.47-2.22,8.24-9.55,15.4
		c-2.08,2.03-4.5,2.93-7.6,1.75c-2.25-0.86-4.62,0.51-7.8,1.13c5.71-5.71,10.02-8.91,8.52-17.25c-0.56-2.25,3.72-20.07,0.72-36.44
		c1.17-1.7,1.78-0.97,6.16,0c34.52,11.81,20.93-1.28,24.43,26.69C731.25,516.04,733.1,522.4,733.2,529.07z M741.31,490.48
		c-0.11-0.03-35-9.92-35.11-9.96c6.17-3.75,32.7,4.48,42.81,7.49C746.55,489.86,744.4,491.25,741.31,490.48z M759.69,485.65
		c-2.87-0.31-5.24,1.23-8.01,1.85C756.42,484.4,762.05,480.93,759.69,485.65z M782.17,440.89c0,5.03-4.05,7.56-6.57,10.98
		c-1.05,1.42-2.98,1.44-4.72,1.64c-0.41,0.62,0.61,1.53-0.82,1.95c-8.85,2.6-15.72,8.4-23.2,13.45c-5.07,3.42-21.86,1.74-23.92,4.62
		c0.18,2.81,7.18,2.63,9.75,2.05c7.74-1.74,9.54,2.78,12.32,0.92c-1.11-4.43-12.55,0.57,2.87-5.85c1.95,1.75,0.51,4.31,1.95,6.47
		c1.23-2.36,1.95-4.52,1.95-6.98c6.57-4.31,13.45-8.11,21.04-10.16c0.72,1.75,0.72,1.75-0.82,4.31
		c3.02,11.38-8.33,13.51-17.76,18.99c-6.78,3.94-12.42-2.52-32.23-4.72c-11.96-1.33-2.58-0.94-1.54-3.28
		c-0.41-1.03-1.03-0.72-1.75-0.72c-24.36,3.55-17.27,5.86-22.07,4.31c-1.85-0.6-3.6-0.21-4.93,1.44c-6.91,8.57-8.02,6.09-28.23,6.88
		c-12.49,0.49-21.31-14.67-25.66-18.48c13.2-0.64,60.22,13.05,63.23,7.7c-14.89-2.13-30.95-5.78-43.63-7.6
		c-17.02-2.44-18.02,0.46-22.69-3.08c-9.12-6.92-13.83-16.11-6.16-31.21c4.21,1.75,8.31,2.36,12.83,1.23
		c-6.02-1.58-12.91-3.39-15.91-8.73c-4.23-7.53-6.51-22.54,0-23.82c1.54-0.3,2.77-1.44,4.41-1.75c2.87,3.08,7.19,3.59,10.47,5.85
		c-0.92-3.08-3.7-4.31-5.85-6.57c18.97-5.27,25.76-6.88,32.03-10.57c6.01-3.54,11.08-2.01,32.13,8.52c2.67,1.33,4.21,4.21,7.6,4.62
		c-0.41,2.87,1.13,5.24,1.75,7.49c-0.92,0.92-1.33,0-2.16,0.31c-1.03,0.62,0,1.95-0.72,2.87c1.23,0.92,1.23-0.72,2.36-0.72
		c3.08,3.28,7.8,0.92,11.81,2.77c1.02-3.05,0.56-4.26,4.21-1.13c4-0.72,7.39,1.85,11.09,1.13c-1.44,1.33-3.18,0.92-4.82,1.13
		c12.23,2.31,8.97-0.26,15.5-1.54c13.67-2.67,7.56-4.29,12.01-1.75c19.4-10.72,9.87-4.31,10.16-2.87c1.23-0.1,2.46-1.64,3.39-0.21
		c3.18-3.28,7.19-5.34,10.16-8.62c0.72-1.23-1.13-2.16,0-3.39C789.8,431.81,782.17,433.16,782.17,440.89z M778.27,401.17
		c0.24-0.24,0.51,0,0.62,0.1C778.44,401.72,778.27,401.44,778.27,401.17z M797.98,296.87c-0.26,8.42,0.42,16.84-0.92,25.25
		c-1.02,6.37,0.41,12.73,0.41,19.09c0,11.03-17.59,36.07-16.12,49.38c-3.59,2.98-5.54,7.19-8.01,11.91
		c-0.92-2.77,0.41-4.82-0.72-6.98c-2.39,2.94,0.81,6.19-3.39,8.73c-3.7,2.24-7.6,4.11-12.22,4.82c1.03-4.52,4.82-6.67,8.21-9.55
		c-5.54-0.31-9.75,4.21-10.16,10.37c-9.14,1.95-18.27,3.59-27.82,0.82c-8.34-17.33-15.15-13.45-3.7-23.92
		c4.15-3.79,19.95-22.98,24.23-36.44c0.29-0.93,0.43-2.13,1.33-2.77c5.76-4.06,16-23.4,16.53-24.53
		c6.99-14.99,2.11-31.1-14.17-38.39c-2.46-0.92-4.82-2.05-7.19-3.08c11.19,0.72,19.95,6.63,28.43,12.93
		c10.72,7.96,19.97,3.37,20.84-3.9c0.2-1.64,0-3.39,0-5.03C798.18,288.15,798.11,292.66,797.98,296.87z"/>
	<path d="M512.3,16.42c-1.19,0.43-1.19,0.9-0.82,7.7C577.75,1239.37,518.05,17.5,512.3,16.42z"/>
	<path d="M80.54,16.22c-2.14,0.83-1.65-5.72,3.08,80.38C143.57,1188.4,84.41,18.31,80.54,16.22z"/>
	<path d="M361.4,271.11c0,3.59,0,7.19,0,11.19C365.19,279.63,364.99,273.98,361.4,271.11z"/>
	<path d="M367.66,268.44c4-1.13,7.29-6.57,6.26-10.68C371.24,264.01,366.88,265.09,367.66,268.44z"/>
	<path d="M556.64,533.9c5.54,0.31,10.47-1.54,14.99-4.52C566.8,531.54,561.67,532.56,556.64,533.9z"/>
	<path d="M124.78,534c5.54,0.31,10.37-1.54,14.88-4.52C134.74,531.23,129.81,532.77,124.78,534z"/>
	<path d="M372.48,247.09c-0.92,2.98,0.21,5.75,0.21,8.52C375.05,252.94,374.84,250.47,372.48,247.09z"/>
	<path d="M144.8,526.92c4.11,0.41,7.8-0.21,10.98-2.67C155.32,522.87,156.53,523.23,144.8,526.92z"/>
	<path d="M587.75,523.63c-3.7,1.23-7.39,2.05-10.88,3.59C580.87,527.22,584.67,526.71,587.75,523.63z"/>
	<path d="M605.81,517.88c-2.87,0.31-4.72,1.85-6.98,3.8c2.16,0.1,3.7,1.44,5.44,0.41c-0.31-1.13-1.44-0.51-1.95-1.33
		C603.35,519.53,605.2,519.94,605.81,517.88z"/>
	<path d="M173.64,517.99c-2.77,0.51-4.62,1.85-7.08,3.9c2.46-0.21,4,1.44,5.85,0.21c-0.41-1.13-1.54-0.41-1.95-1.33
		C171.08,519.53,173.34,520.04,173.64,517.99z"/>
	<path d="M378.13,233.23c0.92-2.57,0.1-4.62-1.44-6.67C376.59,228.92,375.97,231.38,378.13,233.23z"/>
	<path d="M373.41,221.73c-0.92-1.44-1.54-2.26-3.08-1.54C371.05,222.45,371.05,222.45,373.41,221.73z"/>
	<path d="M505.01,528.56c1.54,0.62,2.87,1.44,4.72,1.23C507.47,528.15,507.47,528.15,505.01,528.56z"/>
	<path d="M78.07,529.79c-2.77-1.64-2.77-1.64-5.03-1.33C74.38,529.18,75.82,529.89,78.07,529.79z"/>
	<path d="M187.5,522.09c-1.23-1.13-2.67-1.23-4.31-1.13C188.34,523.34,186.86,522.73,187.5,522.09z"/>
	<path d="M825.28,338.45c0.51,2.16,0.92,4,1.44,6.26C827.64,342.04,826.93,340.29,825.28,338.45z"/>
	<path d="M615.26,520.86c1.33,0.51,2.46,1.64,4.41,1.75C618.34,520.86,616.9,520.76,615.26,520.86z"/>
	<path d="M374.33,187.65c-1.03,0.82-1.33,1.44-1.13,2.98C374.64,189.81,374.74,188.98,374.33,187.65z"/>
	<path d="M360.78,267.72c0.62-0.82,0.82-1.54,0.1-2.67C359.65,266.08,359.45,266.79,360.78,267.72z"/>
	<path d="M372.69,194.94c1.03-0.51,1.13-1.23,0.51-2.36C372.17,193.3,371.87,194.01,372.69,194.94z"/>
	<path d="M379.36,168.56c0.72-0.62,0.41-1.13,0.1-1.85C378.54,167.43,378.44,168.04,379.36,168.56z"/>
	<path d="M374.54,220.81c-0.1,0.41-0.92,0.21-0.82,1.03C374.1,222.42,375.68,221.95,374.54,220.81z"/>
	<path d="M218.81,431.55c2.87,1.23,5.65,0.41,8.62,0.1c-3.59,6.47-3.59,9.65,0.21,12.52c-4.16-5.37,0.27-10.65,5.24-14.88
		c4.13-3.52,4.22,2.12,14.47-4.31c2.27-1.42,5.03-2.16,7.29-3.8c-1.13,2.36-2.46,4.72-1.23,7.39c-0.1-2.98,1.85-5.03,3.08-7.19
		c-0.41-0.82-1.03-0.72-1.54-0.51c-0.13,0.13-0.1,0.15-0.1-0.1c0.72-1.95,2.26-1.54,3.7-1.33c4.99,8.9,4,7.6,5.24,7.19
		c-1.54-2.26-1.54-4.82-2.16-7.7c2.77,0.51,5.13-0.92,7.6-0.21c1.75,9.65,10.37,14.17,14.78,22.28c0.92-2.46,1.02-2.56,0.62-3.18
		c-3.74-5.72-6.94-11.75-11.19-17.14c-1.04-1.32-2.46-2.36-1.33-4.21c-2.87-1.64-5.55-1.77-8.31-0.41
		c-4.61,2.26-9.6-2.18-12.73,5.13c-4.06-0.23-7.68,5.77-15.09,4.21c-1.85-0.55-4.27,0.2-15.19,4.52
		C220.04,430.12,218.91,430.22,218.81,431.55z"/>
	<path d="M280.81,471.89c-14.78-0.8-47.5-10.6-60.57-15.19c-4.75-1.67-3.38,0.67-2.36,0.92c13.31,4.09,42.59,16.17,59.44,16.42
		C284.57,474.16,283.11,471.89,280.81,471.89z"/>
	<path d="M204.65,418c0.82-1.03,2.36-1.23,2.46-2.77c-1.95-1.44-3.49,0.72-5.44,0.41c1.23-4.62-1.23-8.01-3.49-11.39
		c0.31,3.8,2.26,7.29,1.23,11.39c-1.54,0-3.29,0-3.18,2.05c0.2,3.9,3.59,3.9,6.16,4.41c0.31,1.03-1.13,1.54-0.21,2.77
		C204.54,423.03,204.95,420.57,204.65,418z M201.57,419.64c-0.3,0.15-0.72-0.31-0.41-0.62
		C201.46,419.13,201.67,419.34,201.57,419.64z"/>
	<path d="M321.67,475.39c-0.31,0.31-0.51,0.82,0.31,1.95c4.82-5.13,11.5-7.49,16.84-12.01
		C332.04,466.76,326.29,470.25,321.67,475.39z"/>
	<path d="M278.04,460.5c7.08,3.08,14.06,6.36,21.56,8.11C298.16,466.66,280.3,460.3,278.04,460.5z"/>
	<path d="M239.86,478.36c-0.31-0.1-0.51,0.21-0.62,0.62c3.28,2.16,13.65,2.36,16.42,0.21C254.06,478.11,249.66,479.59,239.86,478.36
		z"/>
	<path d="M246.53,440.28c-4-5.54,0.21-9.44,2.87-14.17C242.81,427.31,240.94,438.33,246.53,440.28z"/>
	<path d="M333.99,411.02c1.13,5.44,2.26,10.57,3.39,15.71C338.3,421.08,336.55,412.66,333.99,411.02z"/>
	<path d="M210.19,410.1c0.72,2.26,1.95,4.21,3.49,6.57C215.22,412.15,213.88,409.69,210.19,410.1z"/>
	<path d="M214.5,429.29c2.46-3.7,2.57-6.47,0.21-8.62C214.71,423.65,213.47,426.32,214.5,429.29z"/>
	<path d="M220.97,411.64c-2.05,0.21-3.76,0.01-4.31,2.05C216.17,415.5,220.54,416.6,220.97,411.64z"/>
	<path d="M277.02,417.39c2.77,0.82,4.93,2.67,7.7,3.8C280.09,416.98,279.79,416.77,277.02,417.39z"/>
	<path d="M244.17,406.61c-2.05-0.62-3.7-0.1-5.13,1.95C241.5,409.38,242.83,408.04,244.17,406.61z"/>
	<path d="M339.02,441.3c0.92-2.36,1.44-4.72,0.62-7.19C338.92,436.38,338.61,438.74,339.02,441.3z"/>
	<path d="M217.58,433.3c-2.98,0.82-3.28,2.26-1.54,5.24C215.73,436.58,216.55,434.94,217.58,433.3z"/>
	<path d="M318.8,482.78c0.51-1.44-0.21-2.87-0.21-4.31C316.23,481.54,316.33,482.06,318.8,482.78z"/>
	<path d="M212.86,434.73c1.33-1.23,1.95-2.57,1.54-4.82C212.24,431.45,212.24,432.99,212.86,434.73z"/>
	<path d="M231.13,409.38c-1.33,0.72-3.18,0.62-4.41,2.46C229.49,412.46,229.49,412.46,231.13,409.38z"/>
	<path d="M204.54,424.57c0.51,1.44,1.64,1.95,3.08,2.36C206.49,424.47,206.49,424.47,204.54,424.57z"/>
	<path d="M255.77,403.43c-1.75-0.1-2.87,0.1-3.59,2.05C254.23,405.58,255.05,404.86,255.77,403.43z"/>
	<path d="M332.76,455.37c1.33-1.03,2.26-2.36,2.57-4C333.99,452.49,333.06,453.73,332.76,455.37z"/>
	<path d="M310.69,309.19c-2.46,9.03-10.88,12.52-16.42,18.48C294.63,327.65,316.84,319.65,310.69,309.19z"/>
	<path d="M265.42,268.03c3.79-2.85-3.37-13.2-4.52-18.07c-0.19-0.82-0.92-1.54-2.16-1.44c-0.41,3.8,2.64,6.27,3.7,9.65
		C263.44,261.36,263.77,264.84,265.42,268.03z"/>
	<path d="M280.3,307.75c-0.98-5.49-2.64-13.57-5.95-8.73C275.89,302.21,277.63,305.29,280.3,307.75z"/>
	<path d="M227.23,230.35c3.9-1.23,4.21-4.82,5.24-8.52C227.23,224.71,225.48,227.68,227.23,230.35z"/>
	<path d="M280.71,334.13c3.49-0.41,6.79-1.9,10.16-2.77c1.13-0.29,1.95-1.23,1.54-3.49C278.86,333.82,280.32,332.96,280.71,334.13z"
		/>
	<path d="M224.87,224.19c1.13-0.1,1.44-0.51,1.44-0.92c-0.46-5.27,5.58-10.07-1.23-15.3C227.84,213.72,224.56,218.96,224.87,224.19z
		"/>
	<path d="M258.23,247.09c1.33-3.08-1.13-5.95-5.95-7.08C254.43,242.16,257.2,243.9,258.23,247.09z"/>
	<path d="M226.61,200.58c0.31,3.08,0.92,6.16,2.57,8.93C229.69,206.13,228.56,203.25,226.61,200.58z"/>
	<path d="M312.23,306.42c1.03-2.57-0.21-6.78-2.36-7.19C311.92,301.18,308.84,304.67,312.23,306.42z"/>
	<path d="M224.05,207.05c0.92-2.98-0.82-7.29-3.7-9.14C221.79,201.3,222.92,204.18,224.05,207.05z"/>
	<path d="M230.51,255.4c2.19,3.18,5.09,8.98,7.39,8.21C230.81,254.25,231.34,254.57,230.51,255.4z"/>
	<path d="M216.14,228.2c-2.05-0.72-3.7-1.85-5.54-2.77C212.65,229.53,213.68,230.05,216.14,228.2z"/>
	<path d="M248.99,235.79c-1.33-1.75-2.87-3.08-4.93-4C245.3,234.66,245.81,235.08,248.99,235.79z"/>
	<path d="M282.97,315.25c0.82,0.51,0.82,2.05,2.26,1.44c-0.21-1.61-0.22-1.64-2.16-1.45c-0.1-3.07-0.31-3.38-3.18-3.69
		C280.28,315.42,283.42,315.02,282.97,315.25z"/>
	<path d="M302.88,339.37c2.16-1.64,3.08-3.08,2.16-5.24C303.71,335.47,303.5,337.11,302.88,339.37z"/>
	<path d="M220.35,196.79c-0.51-2.26-1.23-3.8-2.77-5.44C216.86,194.22,218.3,195.35,220.35,196.79z"/>
	<path d="M305.14,278.5c-0.21,2.46-0.41,4.11-0.62,5.85C305.55,282.71,306.99,281.17,305.14,278.5z"/>
	<path d="M176.72,126.67c1.54-0.21,2.46-0.62,2.16-2.67C177.34,124.31,176.62,125.03,176.72,126.67z"/>
	<path d="M297.75,343.48c1.33-0.1,1.95-0.62,2.46-2.16C298.78,341.83,297.96,342.24,297.75,343.48z"/>
	<path d="M268.6,269.46c0.21-0.62,0.51-1.13-0.51-2.05C267.88,268.44,267.57,268.95,268.6,269.46z"/>
	<path d="M340.97,309.81c0.62-2.67,0.42-5.44,0.92-8.11C342.91,296.31,339.96,283.49,340.97,309.81z"/>
	<path d="M279.07,396.65c2.16,3.7,4.62,7.19,6.67,11.29C286.46,404.86,282.97,399.11,279.07,396.65z"/>
	<path d="M339.53,332.18c0.1,2.05-1.03,3.9-0.41,6.16C340.92,331.52,340.72,332.48,339.53,332.18z"/>
	<path d="M197.77,509.47c-0.1-0.31-0.51-0.51-0.82-0.51c-3.18,0.32-4.68-6.54-8.42-9.03c-1.75,2.45,3.18,7.12,5.34,9.34
		c3.54,3.65,7.9,6.07,12.11,8.62c2.56,1.55,4.31,3.8,6.57,5.65C212.27,518.7,200.47,513.03,197.77,509.47z"/>
	<path d="M175.39,460.81c-1.95-2.67,1.03-5.65-1.54-8.21c-2.36,6.16,0.72,12.01,6.16,12.32
		C179.8,461.73,177.44,461.01,175.39,460.81z"/>
	<path d="M210.5,543.96c1.13,2.77,2.26,5.65,5.13,7.19C214.22,547.19,210.77,543.68,210.5,543.96z"/>
	<path d="M185.76,497.97c1.44-2.26-0.1-3.59-0.82-5.03C184.53,494.68,184.63,496.22,185.76,497.97z"/>
	<path d="M194.38,476.51c-2.05-0.82-3.49-0.82-5.34,1.03C191.2,477.64,192.74,477.95,194.38,476.51z"/>
	<path d="M173.13,468.4c-0.72,1.54,0.21,2.57,1.03,3.7C174.16,470.87,174.67,469.33,173.13,468.4z"/>
	<path d="M215.22,524.35c-0.31,1.13,0,1.64,1.23,2.05C216.45,525.17,216.24,524.56,215.22,524.35z"/>
	<path d="M186.07,476.92c0.82,0.51,1.44,0.72,1.95-0.62C186.99,475.9,186.37,475.8,186.07,476.92z"/>
	<path d="M259.05,508.03c0.1,4.41-2.05,8.83-0.41,13.24C258.44,516.86,260.49,512.55,259.05,508.03z"/>
	<path d="M257,532.05c0.72-2.26,1.54-4.52,2.26-6.78C257.2,527.12,257.2,529.59,257,532.05z"/>
	<path d="M223.64,575.37c-2.46-1.14-4.41-0.21-5.95,2.16c-2.26-3.28-4.6-4.08-6.98-2.46c-3.9,2.66-0.53,10.7,6.88,4.82
		c1.64,3.7,4.72,3.18,7.8,2.46C225.59,579.68,226.93,576.89,223.64,575.37z M215.42,578.45c-0.22,2.82-4.52,2.83-4.52-0.31
		C210.91,574.98,215.87,575.3,215.42,578.45z M223.94,579.37c-1.13,0-2.77-0.62-2.05,1.75c-1.95-0.1-2.59-1.24-2.36-2.77
		C219.95,575.56,224.66,576.13,223.94,579.37z"/>
	<path d="M202.8,573.93c-0.72,2.26-0.82,4.62-0.31,7.08c1.75-0.1,0.92-2.13,2.16-1.85c1.53,0.34,1.44,2.67,3.39,2.16
		c0.21-1.23-1-2.24,0.31-3.7C210.87,574.81,205.4,572.73,202.8,573.93z M203.82,576.19c1.23-1.33,2.16-0.92,3.49,0
		C205.88,577.94,204.95,577.42,203.82,576.19z"/>
	<path d="M336.96,272.44c1.23,2.57,2.57,5.13,3.28,8.31C342.51,277.06,340.97,273.16,336.96,272.44z"/>
	<path d="M307.61,251.81c2.98-2.87,3.08-3.08,2.16-5.34C308.02,247.91,308.63,250.17,307.61,251.81z"/>
	<path d="M303.81,263c1.33-1.44,2.05-2.26,1.44-4C303.91,259.92,303.6,260.94,303.81,263z"/>
	<path d="M305.24,257.76c1.03-0.62,1.75-1.13,1.13-2.46C305.45,255.71,304.94,256.22,305.24,257.76z"/>
	<path d="M285.64,537.8c3.65,4.74,9.28,7.36,10.88,1.64c-4.18,2.58-5.98-0.27-10.47-3.08C285.84,536.77,285.24,537.28,285.64,537.8z
		"/>
	<path d="M294.47,528.35c0.31-5.13-2.77-8.93-4.72-13.24C289.64,516.75,293.13,526.71,294.47,528.35z"/>
	<path d="M650.77,431.66c0.64,1.61,6.3,0.76,8.73,0.1c-4,6.47-3.59,10.88,0.21,12.83c-5.08-7.14,2.48-12.31,5.13-15.09
		c3.34-3.5,5.18,1.89,13.86-4c2.69-1.82,6.2-2.41,8.42-5.24c0.9-1.15,2.36-0.72,3.49-0.51c7.03,12.56,4.31,7.66,3.08-0.31
		c2.77,0,5.13-0.92,7.6-0.62c1.54,9.75,10.27,14.17,14.37,21.87c1.75-1.13,1.44-1.95,0.92-2.77c-13.6-21.46-13.42-19.55-12.52-21.45
		c-2.87-1.54-5.54-1.64-8.11-0.1c-5.13,2.2-9.31-2.01-12.73,5.03c-4.68,0.26-8.19,5.97-15.19,4.31
		C665.5,424.94,651.03,430.25,650.77,431.66z"/>
	<path d="M649.95,457.73c11,3.5,58.35,21.63,64.67,14.88c-22.69-2.46-43.94-10.37-65.7-16.73
		C648.82,457.22,649.33,457.53,649.95,457.73z"/>
	<path d="M636.71,418c0.82-1.03,2.16-1.23,2.26-2.77c-1.75-1.64-3.28,0.51-5.13,0.41c0.31-4.93-1.13-9.24-4.21-11.39
		c0.92,3.9,2.57,7.39,1.85,11.6c-1.64-0.41-3.36-0.21-3.28,1.95c0.14,3.9,3.59,3.7,5.95,4.41c0.62,1.03-1.13,1.64,0.1,2.67
		C636.51,422.93,636.81,420.47,636.71,418z"/>
	<path d="M769.65,465.12c-6.26,3.08-12.73,5.24-16.84,11.7C755.07,476.31,768.52,466.86,769.65,465.12z"/>
	<path d="M731.46,469.02c0.1-0.51,0.31-0.92,0.41-1.44c-6.88-3.7-14.88-4.21-21.86-7.49C716.99,463.48,723.97,466.86,731.46,469.02z
		"/>
	<path d="M671.2,478.77c4.31,2.36,13.45,2.46,16.12,0.72C687.32,478.13,687.82,478.77,671.2,478.77z"/>
	<path d="M680.34,426.01c-4.4,2.36-7.85,9.51-2.36,14.47c-0.62-2.46-1.78-4.69-0.62-7.49C678.34,430.65,680.44,428.88,680.34,426.01
		z"/>
	<path d="M766.16,412.46c7.84,34.6,2.04,0.65,1.33-1.44C766.67,411.12,765.85,411.12,766.16,412.46z"/>
	<path d="M641.95,410c1.23,2.46,1.95,4.62,3.8,6.36C647.18,412.05,645.95,409.79,641.95,410z"/>
	<path d="M647.08,420.98c-0.82,2.67-1.33,5.34-0.31,8.01C647.9,426.32,649.34,423.75,647.08,420.98z"/>
	<path d="M653.03,411.64c-2.16,0.21-4,0.1-4.62,2.26C650.88,416.05,651.9,415.54,653.03,411.64z"/>
	<path d="M685.16,429.5c0.82-3.49,1.54-6.16,3.28-8.42C685.27,422.62,684.34,425.09,685.16,429.5z"/>
	<path d="M771.19,441.41c0.41-2.46,1.54-4.82,0-7.49C770.6,441.23,770.33,441.84,771.19,441.41z"/>
	<path d="M708.88,417.28c2.87,0.82,5.03,2.67,7.7,3.8C712.06,416.98,711.54,416.67,708.88,417.28z"/>
	<path d="M676.03,406.2c-2.05-0.31-3.59,0.51-5.03,2.05C673.77,408.97,674.49,408.66,676.03,406.2z"/>
	<path d="M663.2,409.79c-1.64,0.1-3.28,0.41-4.62,2.05C661.35,413.38,661.96,410.92,663.2,409.79z"/>
	<path d="M649.64,433.09c-2.98,1.03-3.49,2.46-1.54,5.44C647.39,436.38,649.03,434.94,649.64,433.09z"/>
	<path d="M751.17,482.98c-0.51-1.85,0.1-3.39-0.92-4.82C748.4,481.75,748.4,481.95,751.17,482.98z"/>
	<path d="M645.13,435.04c1.03-1.54,1.75-2.87,1.03-5.13C644.1,432.48,644.1,432.48,645.13,435.04z"/>
	<path d="M636.3,424.06c0.72,1.95,1.75,2.57,3.7,2.98C639.07,425.39,638.56,424.16,636.3,424.06z"/>
	<path d="M764.51,455.68c1.23-1.23,2.46-2.46,2.77-4.31C765.85,452.39,765.03,453.93,764.51,455.68z"/>
	<path d="M688.24,403.32c-1.95,0-3.28-0.1-3.8,2.05C686.19,405.68,687.01,404.66,688.24,403.32z"/>
	<path d="M680.44,379.61c-2.98-1.85-4.83-5.02-7.9-6.78c-2.16-1.23-4.72-1.75-6.47-3.59c-13.21-13.98-17.24-20.76-19.5-17.14
		C657.24,362.16,666.48,373.76,680.44,379.61z"/>
	<path d="M696.56,367.39c2.05,2.77,4.42,4.72,5.95,7.39c1.65,2.87,4.64,4.39,6.67,6.78c5.23,6.14,13.13-1.64,8.73-7.9
		c-0.97,0.55,1.24,5.78-3.18,7.08C706.7,383.11,704.41,368.63,696.56,367.39z"/>
	<path d="M727.15,293.29c0.2,1.52,1.15,1.13,14.99-1.03C740.57,288.66,729.54,291.69,727.15,293.29z"/>
	<path d="M714.11,342.76c-1.34,2.77-7.41,6.14-6.67,9.44c3.38,0.36,2.61-5.57,8.31-7.29c1.34-0.4,2.77-1.23,3.18-3.08
		C717.09,341.42,714.85,341.23,714.11,342.76z"/>
	<path d="M694.91,372.22c-1.54-3.39-8.62-9.14-12.22-10.27C687.01,365.03,689.88,369.86,694.91,372.22z"/>
	<path d="M743.78,292.66c2.67,2.57,5.13,5.34,6.98,8.73C752.71,298.31,749.22,294.1,743.78,292.66z"/>
	<path d="M737.52,359.59c-2.36,0.31-3.7,1.85-4.62,3.8C734.85,362.57,736.8,361.65,737.52,359.59z"/>
	<path d="M743.16,300.46c-1.33-1.85-2.26-4.21-5.54-4.72C739.16,298.51,741.21,299.44,743.16,300.46z"/>
	<path d="M623.57,321.3c1.44,0.21,2.98,0.82,4.31-0.82C626.03,319.15,624.8,320.28,623.57,321.3z"/>
	<path d="M682.8,381.77c1.75,1.44,3.08,2.36,5.03,2.16C686.5,382.9,685.47,381.25,682.8,381.77z"/>
	<path d="M641.95,330.44c1.33,0.92,2.46,1.13,4.41,1.23C643.9,329.52,643.9,329.52,641.95,330.44z"/>
	<path d="M688.55,360.82c1.33,1.13,2.46,2.05,3.59,2.98C691.12,361.13,691.12,361.13,688.55,360.82z"/>
	<path d="M697.17,388.13c1.23,1.23,2.67,1.85,4.41,1.95C700.25,389.05,698.92,388.23,697.17,388.13z"/>
	<path d="M631.99,314.02c-1.54-0.82-2.67-0.31-4.11,1.13C629.83,315.66,631.17,315.86,631.99,314.02z"/>
	<path d="M694.5,386.9c-1.75-0.92-2.77-1.75-4.31-1.54C691.22,386.28,692.14,387.72,694.5,386.9z"/>
	<path d="M723.04,339.06c-1.85-1.03-3.08-1.23-4.21,0.62C720.27,340.5,721.4,339.88,723.04,339.06z"/>
	<path d="M727.56,369.24c0.82-0.62,1.44-1.23,1.54-2.36C727.25,367.39,727.25,367.39,727.56,369.24z"/>
	<path d="M735.77,299.23c-1.23,0.21-1.85,1.13-2.26,2.16C735.05,300.88,735.05,300.88,735.77,299.23z"/>
	<path d="M724.48,338.75c0.72,0,1.33-0.1,1.75-0.72C725.2,337.42,725.2,337.42,724.48,338.75z"/>
	<path d="M646.05,348.3c0-1.23-0.62-1.75-1.64-2.26C644.51,347.17,644.92,347.79,646.05,348.3z"/>
	<path d="M728.28,308.88c-0.31,0.41-0.82,0.82-0.1,1.85C729.09,308.91,729.01,309.25,728.28,308.88z"/>
	<path d="M685.37,358.87c-0.51-0.41-0.72-0.92-1.64-0.92C683.83,358.87,684.14,359.39,685.37,358.87z"/>
	<path d="M764.1,396.75c3.28-2.77,4.21-7.9,2.36-12.42C765.64,388.75,764.92,392.54,764.1,396.75z"/>
	<path d="M775.6,303.03c4.31,0.41,6.88,3.8,10.06,6.06C784.12,304.26,779.09,301.18,775.6,303.03z"/>
	<path d="M769.85,365.55c1.85-3.8,1.85-3.8,1.44-5.44C769.65,362.88,769.65,362.88,769.85,365.55z"/>
	<path d="M777.34,326.54c2.05,0.31,3.28,1.33,4.93,0.31C780.94,325.92,779.5,325.61,777.34,326.54z"/>
	<path d="M790.79,307.03c1.85-0.41,2.77-1.13,3.7-2.67C792.64,304.88,791.61,305.39,790.79,307.03z"/>
	<path d="M740.39,406.09c0.1,1.23,0.51,2.36,1.54,3.08C741.72,407.94,741.42,406.92,740.39,406.09z"/>
	<path d="M641.84,518.81c-3.31-1.19-2.56-3.17-6.57-5.03c-3.08-1.43-4.93-4.93-8.52-5.65c-0.71,0-4.47-8.66-6.36-7.8
		c-1.37,2.16,3.61,6.98,5.44,8.83c3.62,3.67,8,6.28,12.32,8.83c2.46,1.45,4.11,3.7,6.36,5.34
		C644,521.48,643.71,519.48,641.84,518.81z"/>
	<path d="M607.56,460.81c-2.46-2.57,1.33-5.85-2.05-8.31c-1.33,7.49,1.03,11.91,6.47,12.42
		C611.77,461.73,609.51,461.12,607.56,460.81z"/>
	<path d="M605.09,474.15c-1.44,1.44,0.1,2.77,0.1,4.11C607.45,476.92,607.45,475.69,605.09,474.15z"/>
	<path d="M617.93,497.76c0.41-2.16,0.41-2.16-1.13-4.82C617.21,494.48,615.87,496.43,617.93,497.76z"/>
	<path d="M626.45,476.82c-2.26-1.23-3.7-1.03-5.13,0.41C622.96,477.95,624.39,477.75,626.45,476.82z"/>
	<path d="M606.33,472.61c0.21-1.85-0.1-3.08-1.23-4.72C604.48,469.94,605.09,471.18,606.33,472.61z"/>
	<path d="M617.82,476.72c0.92,1.03,1.54,0.82,2.46-0.31C619.16,475.9,618.44,475.9,617.82,476.72z"/>
	<path d="M647.18,524.35c-0.21,1.13,0.1,1.54,1.03,1.75C648.62,525.17,648.21,524.66,647.18,524.35z"/>
	<path d="M690.5,521.78c-0.1-4.72,1.85-9.24,0.51-13.96C691.01,512.44,689.17,516.96,690.5,521.78z"/>
	<path d="M689.27,531.33c0.72-2.05,1.33-4.11,1.95-6.16C689.06,526.71,689.27,529.07,689.27,531.33z"/>
	<path d="M747.88,269.36c2.98-4.41,6.16-8.52,9.24-12.73C753.12,260.22,749.32,263.92,747.88,269.36z"/>
	<path d="M753.73,252.32c-2.57,1.44-2.57,1.44-3.18,3.7C751.68,254.99,753.12,254.37,753.73,252.32z"/>
	<path d="M759.07,256.43c1.03-0.82,2.16-1.64,3.18-2.46C760.41,253.76,759.38,254.68,759.07,256.43z"/>
	<path d="M659.5,575.47c-2.05-1.13-3.8-0.51-6.16,1.95c-5.96-8.52-12.7,2.76-5.03,4.72c2.15,0.55,3.49-1.13,5.03-2.36
		c1.75,3.8,4.72,3.18,7.7,2.67C661.24,579.89,662.68,577.22,659.5,575.47z M649.03,580.5c-3.14-0.24-3.2-4.62-0.1-4.62
		C651.78,575.88,652.16,580.08,649.03,580.5z M659.7,579.06c-0.51,1.03-3.59-1.13-1.85,2.26c-2.57-0.62-2.9-1.85-2.46-3.39
		C655.99,575.81,660.08,576.22,659.7,579.06z"/>
	<path d="M642.36,573.83c-1.24-0.28-2.46-0.62-3.7-0.1c-1.13,3.7-1.13,6.88,0.1,7.19c1.13-0.1,0.41-1.75,1.54-1.95
		c1.64,0.41,1.44,2.77,3.39,2.26C643.02,578.19,646.82,574.83,642.36,573.83z M639.69,575.88c1.23-0.92,2.16-0.51,2.98,0.1
		C641.33,577.52,641.33,577.52,639.69,575.88z"/>
	<path d="M726.43,528.35c0.31-3.49-1.85-9.55-4.82-13.34C721.5,517.06,724.99,526.61,726.43,528.35z"/>
<path fill="#e6e6e6" d="m206.8 163.6c0-5.1 4.1-9.2 9.3-9.2s9.2 4.2 9.2 9.2-4.1 9.2-9.3 9.2-9.2-4.1-9.2-9.2zm17.3-.1c0-4.5-3.5-8.2-8.2-8.2s-8.2 3.7-8.2 8.3c0 4.5 3.5 8.2 8.2 8.2s8.2-3.7 8.2-8.3zm-13 0c0-2.8 2.1-5.1 5.1-5.1 1.9 0 2.9.6 3.9 1.5l-1.4 1.7c-.8-.7-1.5-1.1-2.5-1.1-1.7 0-2.8 1.4-2.8 3.1s1.1 3 2.8 3c1.1 0 1.7-.5 2.5-1.1l1.4 1.4c-1.1 1.1-2.1 1.7-4 1.7-2.9 0-5-2.3-5-5.1z"/><path fill="#e6e6e6" d="m226.6 154.7h3.4l4.2 13.2 4.4-13.3h2.6l4.4 13.3 4.2-13.2h3.3l-6.2 18h-2.7l-4.4-12.8-4.4 12.8h-2.7z"/><path fill="#e6e6e6" d="m252.8 165.8c0-3.9 3.1-7 7.2-7 4.2 0 7.2 3.2 7.2 7s-3.1 7-7.3 7c-4 0-7.1-3.1-7.1-7zm11.3 0c0-2.3-1.7-4.3-4.2-4.3s-4.1 2-4.1 4.3 1.7 4.3 4.1 4.3c2.7.1 4.2-1.9 4.2-4.3z"/><path fill="#e6e6e6" d="m269.5 159.1h3.1v3c.8-2 2.4-3.4 4.8-3.3v3.2h-.2c-2.7 0-4.6 1.7-4.6 5.4v5.1h-3.1z"/><path fill="#e6e6e6" d="m279.1 153.9h3.1v11.1l5.6-6h3.8l-5.4 5.5 5.5 8h-3.5l-4.1-5.8-1.9 2v3.9h-3.1z"/><path fill="#e6e6e6" d="m291.7 165.8c0-3.9 3.1-7 7.2-7 4.2 0 7.2 3.2 7.2 7s-3.1 7-7.3 7c-4 0-7.1-3.1-7.1-7zm11.3 0c0-2.3-1.7-4.3-4.2-4.3s-4.1 2-4.1 4.3 1.7 4.3 4.1 4.3c2.6.1 4.2-1.9 4.2-4.3z"/><path fill="#e6e6e6" d="m308.2 167.6v-8.6h3.1v7.6c0 2.1 1.1 3.3 2.9 3.3s3-1.3 3-3.3v-7.6h3.1v13.4h-3.1v-2.1c-.8 1.3-2.1 2.3-4.2 2.3-3.1.2-4.8-1.8-4.8-5z"/><path fill="#e6e6e6" d="m323.9 168.8v-7.1h-1.7v-2.6h1.7v-3.7h3.1v3.7h3.6v2.6h-3.6v6.6c0 1.2.6 1.7 1.7 1.7.7 0 1.3-.2 1.9-.5v2.5c-.8.5-1.7.7-2.8.7-2.3 0-3.9-.9-3.9-3.9z"/><path fill="#e6e6e6" d="m333.2 154.7h3.2v15h9.4v2.9h-12.5v-17.9z"/><path fill="#e6e6e6" d="m356 172.5v-1.7c-.9 1.1-2.3 2-4.4 2-2.6 0-4.8-1.4-4.8-4.2 0-3 2.3-4.4 5.4-4.4 1.7 0 2.6.2 3.7.5v-.2c0-1.9-1.2-2.9-3.3-2.9-1.5 0-2.6.3-3.9.8l-.8-2.5c1.5-.7 2.9-1.1 5.1-1.1 4 0 5.9 2.1 5.9 5.7v8zm.1-5.6c-.8-.3-1.9-.5-3.1-.5-2 0-3.1.8-3.1 2.1s1.1 2 2.6 2c2 0 3.5-1.1 3.5-2.9z"/><path fill="#e6e6e6" d="m364.9 170.5v2.1h-3.1v-18.7h3.1v7.4c1-1.4 2.4-2.5 4.5-2.5 3.2 0 6.3 2.5 6.3 7s-3.1 7-6.3 7c-2.1 0-3.5-1.1-4.5-2.3zm7.7-4.7c0-2.6-1.7-4.3-3.9-4.3s-3.9 1.7-3.9 4.4c0 2.6 1.8 4.3 3.9 4.3s3.9-1.7 3.9-4.4z"/><path fill="#e6e6e6" d="m376.9 170.8 1.4-2.1c1.4 1.1 3 1.7 4.4 1.7s2.1-.5 2.1-1.5-1.3-1.4-2.8-1.8c-.1 0-.2-.1-.2-.1-2-.6-4.2-1.4-4.2-4s2.1-4.1 4.8-4.1c1.7 0 3.5.6 5 1.5l-1.2 2.2c-1.3-.8-2.6-1.3-3.8-1.3s-1.9.5-1.9 1.4 1.3 1.4 2.8 1.8c.1 0 .2.1.2.1 2 .6 4.2 1.5 4.2 4 0 2.9-2.2 4.2-5 4.2-1.9 0-4-.7-5.8-2z"/><path fill="#e6e6e6" d="m505.6 163.6c0-5.1 4.1-9.2 9.3-9.2s9.2 4.2 9.2 9.2-4.1 9.2-9.3 9.2-9.2-4.1-9.2-9.2zm17.4-.1c0-4.5-3.5-8.2-8.2-8.2s-8.2 3.7-8.2 8.3c0 4.5 3.5 8.2 8.2 8.2s8.2-3.7 8.2-8.3zm-13.1 0c0-2.8 2.1-5.1 5.1-5.1 1.9 0 2.9.6 3.9 1.5l-1.4 1.7c-.8-.7-1.5-1.1-2.5-1.1-1.7 0-2.8 1.4-2.8 3.1s1.1 3 2.8 3c1.1 0 1.7-.5 2.5-1.1l1.4 1.4c-1.1 1.1-2.1 1.7-4 1.7-2.9 0-5-2.3-5-5.1z"/><path fill="#e6e6e6" d="m525.4 154.7h3.4l4.2 13.2 4.4-13.3h2.6l4.4 13.3 4.2-13.2h3.3l-6.2 18h-2.7l-4.4-12.8-4.4 12.8h-2.7z"/><path fill="#e6e6e6" d="m551.7 165.8c0-3.9 3.1-7 7.2-7 4.2 0 7.2 3.2 7.2 7s-3.1 7-7.3 7c-4.1 0-7.1-3.1-7.1-7zm11.2 0c0-2.3-1.7-4.3-4.2-4.3s-4.1 2-4.1 4.3 1.7 4.3 4.1 4.3c2.7.1 4.2-1.9 4.2-4.3z"/><path fill="#e6e6e6" d="m568.3 159.1h3.1v3c.8-2 2.4-3.4 4.8-3.3v3.2h-.2c-2.7 0-4.6 1.7-4.6 5.4v5.1h-3.1z"/><path fill="#e6e6e6" d="m577.9 153.9h3.1v11.1l5.6-6h3.8l-5.4 5.5 5.5 8h-3.5l-4.1-5.8-1.9 2v3.9h-3.1z"/><path fill="#e6e6e6" d="m590.6 165.8c0-3.9 3.1-7 7.2-7 4.2 0 7.2 3.2 7.2 7s-3.1 7-7.3 7c-4.1 0-7.1-3.1-7.1-7zm11.2 0c0-2.3-1.7-4.3-4.2-4.3s-4.1 2-4.1 4.3 1.7 4.3 4.1 4.3c2.6.1 4.2-1.9 4.2-4.3z"/><path fill="#e6e6e6" d="m607 167.6v-8.6h3.1v7.6c0 2.1 1.1 3.3 2.9 3.3s3-1.3 3-3.3v-7.6h3.1v13.4h-3.1v-2.1c-.8 1.3-2.1 2.3-4.2 2.3-3 .2-4.8-1.8-4.8-5z"/><path fill="#e6e6e6" d="m622.7 168.8v-7.1h-1.7v-2.6h1.7v-3.7h3.1v3.7h3.6v2.6h-3.6v6.6c0 1.2.6 1.7 1.7 1.7.7 0 1.3-.2 1.9-.5v2.5c-.8.5-1.7.7-2.8.7-2.3 0-3.9-.9-3.9-3.9z"/><path fill="#e6e6e6" d="m632 154.7h3.2v15h9.4v2.9h-12.6z"/><path fill="#e6e6e6" d="m654.8 172.5v-1.7c-.9 1.1-2.3 2-4.4 2-2.6 0-4.8-1.4-4.8-4.2 0-3 2.3-4.4 5.4-4.4 1.7 0 2.6.2 3.7.5v-.2c0-1.9-1.2-2.9-3.3-2.9-1.5 0-2.6.3-3.9.8l-.8-2.5c1.5-.7 2.9-1.1 5.1-1.1 4 0 5.9 2.1 5.9 5.7v8zm.1-5.6c-.8-.3-1.9-.5-3.1-.5-2 0-3.1.8-3.1 2.1s1.1 2 2.6 2c2 0 3.5-1.1 3.5-2.9z"/><path fill="#e6e6e6" d="m663.7 170.5v2.1h-3.1v-18.7h3.1v7.4c1-1.4 2.4-2.5 4.5-2.5 3.2 0 6.3 2.5 6.3 7s-3.1 7-6.3 7c-2.1 0-3.5-1.1-4.5-2.3zm7.8-4.7c0-2.6-1.7-4.3-3.9-4.3-2.1 0-3.9 1.7-3.9 4.4 0 2.6 1.8 4.3 3.9 4.3s3.9-1.7 3.9-4.4z"/><path fill="#e6e6e6" d="m675.8 170.8 1.4-2.1c1.4 1.1 3 1.7 4.4 1.7s2.1-.5 2.1-1.5-1.3-1.4-2.8-1.8c-.1 0-.2-.1-.2-.1-2-.6-4.2-1.4-4.2-4s2.1-4.1 4.8-4.1c1.7 0 3.5.6 5 1.5l-1.2 2.2c-1.3-.8-2.6-1.3-3.8-1.3s-1.9.5-1.9 1.4 1.3 1.4 2.8 1.8c.1 0 .2.1.2.1 2 .6 4.2 1.5 4.2 4 0 2.9-2.2 4.2-5 4.2-2 0-4.1-.7-5.8-2z"/><path fill="#e6e6e6" d="m61 298.6c0-5.1 4.1-9.2 9.3-9.2s9.2 4.2 9.2 9.2-4.1 9.2-9.3 9.2c-5.1 0-9.2-4.2-9.2-9.2zm17.4-.1c0-4.5-3.5-8.2-8.2-8.2s-8.2 3.7-8.2 8.3c0 4.5 3.5 8.2 8.2 8.2s8.2-3.7 8.2-8.3zm-13.1-.1c0-2.8 2.1-5.1 5.1-5.1 1.9 0 2.9.6 3.9 1.5l-1.4 1.7c-.8-.7-1.5-1.1-2.5-1.1-1.7 0-2.8 1.4-2.8 3.1s1.1 3 2.8 3c1.1 0 1.7-.5 2.5-1.1l1.4 1.4c-1.1 1.1-2.1 1.7-4 1.7-2.8.1-5-2.2-5-5.1z"/><path fill="#e6e6e6" d="m80.9 289.7h3.4l4.2 13.2 4.4-13.3h2.6l4.4 13.3 4.2-13.2h3.3l-6.2 18h-2.7l-4.4-12.8-4.4 12.8h-2.7z"/><path fill="#e6e6e6" d="m107.1 300.8c0-3.9 3.1-7 7.2-7s7.2 3.2 7.2 7-3.1 7-7.3 7c-4 0-7.1-3.1-7.1-7zm11.3 0c0-2.3-1.7-4.3-4.2-4.3s-4.1 2-4.1 4.3 1.7 4.3 4.1 4.3c2.6.1 4.2-1.9 4.2-4.3z"/><path fill="#e6e6e6" d="m123.7 294h3.1v3c.8-2 2.4-3.4 4.8-3.3v3.2h-.2c-2.7 0-4.6 1.7-4.6 5.4v5.1h-3.1z"/><path fill="#e6e6e6" d="m133.4 288.9h3.1v11.1l5.6-6h3.8l-5.4 5.5 5.5 8h-3.5l-4.1-5.8-1.9 1.9v3.9h-3.1z"/><path fill="#e6e6e6" d="m146 300.8c0-3.9 3.1-7 7.2-7s7.2 3.2 7.2 7-3.1 7-7.3 7c-4.1 0-7.1-3.1-7.1-7zm11.2 0c0-2.3-1.7-4.3-4.2-4.3s-4.1 2-4.1 4.3 1.7 4.3 4.1 4.3c2.6.1 4.2-1.9 4.2-4.3z"/><path fill="#e6e6e6" d="m162.4 302.6v-8.6h3.1v7.6c0 2.1 1.1 3.3 2.9 3.3s3-1.3 3-3.3v-7.6h3.1v13.4h-3.1v-2.1c-.8 1.3-2.1 2.3-4.2 2.3-3 .2-4.8-1.8-4.8-5z"/><path fill="#e6e6e6" d="m178.1 303.8v-7.1h-1.7v-2.7h1.7v-3.7h3.1v3.7h3.6v2.6h-3.6v6.6c0 1.2.6 1.7 1.7 1.7.7 0 1.3-.2 1.9-.5v2.5c-.8.5-1.7.7-2.8.7-2.3.1-3.9-.9-3.9-3.8z"/><path fill="#e6e6e6" d="m187.4 289.7h3.2v15h9.4v2.9h-12.5v-17.9z"/><path fill="#e6e6e6" d="m210.2 307.5v-1.7c-.9 1.1-2.3 2-4.4 2-2.6 0-4.8-1.4-4.8-4.2 0-3 2.3-4.4 5.4-4.4 1.7 0 2.6.2 3.7.5v-.2c0-1.9-1.2-2.9-3.3-2.9-1.5 0-2.6.3-3.9.8l-.8-2.5c1.5-.7 2.9-1.1 5.1-1.1 4 0 5.9 2.1 5.9 5.7v8zm.1-5.6c-.8-.3-1.9-.5-3.1-.5-2 0-3.1.8-3.1 2.1s1.1 2 2.6 2c2 0 3.5-1.1 3.5-2.9z"/><path fill="#e6e6e6" d="m219.2 305.5v2.1h-3.1v-18.7h3.1v7.4c1-1.4 2.4-2.5 4.5-2.5 3.2 0 6.3 2.5 6.3 7s-3.1 7-6.3 7c-2.2 0-3.6-1.1-4.5-2.3zm7.7-4.7c0-2.6-1.7-4.3-3.9-4.3s-3.9 1.7-3.9 4.4c0 2.6 1.8 4.3 3.9 4.3s3.9-1.7 3.9-4.4z"/><path fill="#e6e6e6" d="m231.2 305.8 1.4-2.1c1.4 1.1 3 1.7 4.4 1.7s2.1-.5 2.1-1.5-1.3-1.4-2.8-1.8c-.1 0-.2-.1-.2-.1-2-.6-4.2-1.4-4.2-4s2.1-4.1 4.8-4.1c1.7 0 3.5.6 5 1.5l-1.2 2.2c-1.3-.8-2.6-1.3-3.8-1.3s-1.9.5-1.9 1.4 1.3 1.4 2.8 1.8c.1 0 .2.1.2.1 2 .6 4.2 1.5 4.2 4 0 2.9-2.2 4.2-5 4.2-2 0-4.1-.7-5.8-2z"/><path fill="#e6e6e6" d="m360.6 298.6c0-5.1 4.1-9.2 9.3-9.2s9.2 4.2 9.2 9.2-4.1 9.2-9.3 9.2-9.2-4.2-9.2-9.2zm17.4-.1c0-4.5-3.5-8.2-8.2-8.2s-8.2 3.7-8.2 8.3c0 4.5 3.5 8.2 8.2 8.2s8.2-3.7 8.2-8.3zm-13.1-.1c0-2.8 2.1-5.1 5.1-5.1 1.9 0 2.9.6 3.9 1.5l-1.4 1.7c-.8-.7-1.5-1.1-2.5-1.1-1.7 0-2.8 1.4-2.8 3.1s1.1 3 2.8 3c1.1 0 1.7-.5 2.5-1.1l1.4 1.4c-1.1 1.1-2.1 1.7-4 1.7-2.8.1-5-2.2-5-5.1z"/><path fill="#e6e6e6" d="m380.5 289.7h3.4l4.2 13.2 4.4-13.3h2.6l4.4 13.3 4.2-13.2h3.3l-6.2 18h-2.7l-4.4-12.8-4.4 12.8h-2.7z"/><path fill="#e6e6e6" d="m406.7 300.8c0-3.9 3.1-7 7.2-7 4.2 0 7.2 3.2 7.2 7s-3.1 7-7.3 7c-4.1 0-7.1-3.1-7.1-7zm11.3 0c0-2.3-1.7-4.3-4.2-4.3s-4.1 2-4.1 4.3 1.7 4.3 4.1 4.3c2.7.1 4.2-1.9 4.2-4.3z"/><path fill="#e6e6e6" d="m423.3 294h3.1v3c.8-2 2.4-3.4 4.8-3.3v3.2h-.2c-2.7 0-4.6 1.7-4.6 5.4v5.1h-3.1z"/><path fill="#e6e6e6" d="m433 288.9h3.1v11.1l5.6-6h3.8l-5.4 5.5 5.5 8h-3.5l-4.1-5.8-1.9 2v3.9h-3.1z"/><path fill="#e6e6e6" d="m445.6 300.8c0-3.9 3.1-7 7.2-7 4.2 0 7.2 3.2 7.2 7s-3.1 7-7.3 7c-4.1 0-7.1-3.1-7.1-7zm11.3 0c0-2.3-1.7-4.3-4.2-4.3s-4.1 2-4.1 4.3 1.7 4.3 4.1 4.3c2.6.1 4.2-1.9 4.2-4.3z"/><path fill="#e6e6e6" d="m462.1 302.6v-8.6h3.1v7.6c0 2.1 1.1 3.3 2.9 3.3s3-1.3 3-3.3v-7.6h3.1v13.4h-3.1v-2.1c-.8 1.3-2.1 2.3-4.2 2.3-3.1.2-4.8-1.8-4.8-5z"/><path fill="#e6e6e6" d="m477.8 303.8v-7.1h-1.8v-2.7h1.7v-3.7h3.1v3.7h3.6v2.6h-3.6v6.6c0 1.2.6 1.7 1.7 1.7.7 0 1.3-.2 1.9-.5v2.5c-.8.5-1.7.7-2.8.7-2.2.1-3.8-.9-3.8-3.8z"/><path fill="#e6e6e6" d="m487.1 289.7h3.2v15h9.4v2.9h-12.5v-17.9z"/><path fill="#e6e6e6" d="m509.9 307.5v-1.7c-.9 1.1-2.3 2-4.4 2-2.6 0-4.8-1.4-4.8-4.2 0-3 2.3-4.4 5.4-4.4 1.7 0 2.6.2 3.7.5v-.2c0-1.9-1.2-2.9-3.3-2.9-1.5 0-2.6.3-3.9.8l-.8-2.5c1.5-.7 2.9-1.1 5.1-1.1 4 0 5.9 2.1 5.9 5.7v8zm.1-5.6c-.8-.3-1.9-.5-3.1-.5-2 0-3.1.8-3.1 2.1s1.1 2 2.6 2c2 0 3.5-1.1 3.5-2.9z"/><path fill="#e6e6e6" d="m518.8 305.5v2.1h-3.1v-18.7h3.1v7.4c1-1.4 2.4-2.5 4.5-2.5 3.2 0 6.3 2.5 6.3 7s-3.1 7-6.3 7c-2.2 0-3.5-1.1-4.5-2.3zm7.7-4.7c0-2.6-1.7-4.3-3.9-4.3s-3.9 1.7-3.9 4.4c0 2.6 1.8 4.3 3.9 4.3s3.9-1.7 3.9-4.4z"/><path fill="#e6e6e6" d="m530.8 305.8 1.4-2.1c1.4 1.1 3 1.7 4.4 1.7s2.1-.5 2.1-1.5-1.3-1.4-2.8-1.8c-.1 0-.2-.1-.2-.1-2-.6-4.2-1.4-4.2-4s2.1-4.1 4.8-4.1c1.7 0 3.5.6 5 1.5l-1.2 2.2c-1.3-.8-2.6-1.3-3.8-1.3s-1.9.5-1.9 1.4 1.3 1.4 2.8 1.8c.1 0 .2.1.2.1 2 .6 4.2 1.5 4.2 4 0 2.9-2.2 4.2-5 4.2-1.9 0-4.1-.7-5.8-2z"/><path fill="#e6e6e6" d="m659.5 298.6c0-5.1 4.1-9.2 9.3-9.2s9.2 4.2 9.2 9.2-4.1 9.2-9.3 9.2-9.2-4.2-9.2-9.2zm17.3-.1c0-4.5-3.5-8.2-8.2-8.2s-8.2 3.7-8.2 8.3c0 4.5 3.5 8.2 8.2 8.2 4.8 0 8.2-3.7 8.2-8.3zm-13-.1c0-2.8 2.1-5.1 5.1-5.1 1.9 0 2.9.6 3.9 1.5l-1.4 1.7c-.8-.7-1.5-1.1-2.5-1.1-1.7 0-2.8 1.4-2.8 3.1s1.1 3 2.8 3c1.1 0 1.7-.5 2.5-1.1l1.4 1.4c-1.1 1.1-2.1 1.7-4 1.7-2.9.1-5-2.2-5-5.1z"/><path fill="#e6e6e6" d="m679.3 289.7h3.4l4.2 13.2 4.4-13.3h2.6l4.4 13.3 4.2-13.2h3.3l-6.2 18h-2.6l-4.4-12.8-4.4 12.8h-2.7z"/><path fill="#e6e6e6" d="m705.5 300.8c0-3.9 3.1-7 7.2-7 4.2 0 7.2 3.2 7.2 7s-3.1 7-7.3 7c-4 0-7.1-3.1-7.1-7zm11.3 0c0-2.3-1.7-4.3-4.2-4.3s-4.1 2-4.1 4.3 1.7 4.3 4.1 4.3c2.7.1 4.2-1.9 4.2-4.3z"/><path fill="#e6e6e6" d="m722.1 294h3.1v3c.8-2 2.4-3.4 4.8-3.3v3.2h-.2c-2.7 0-4.6 1.7-4.6 5.4v5.1h-3.1z"/><path fill="#e6e6e6" d="m731.8 288.9h3.1v11.1l5.6-6h3.8l-5.4 5.5 5.5 8h-3.5l-4.1-5.8-1.9 2v3.9h-3.1z"/><path fill="#e6e6e6" d="m744.4 300.8c0-3.9 3.1-7 7.2-7 4.2 0 7.2 3.2 7.2 7s-3.1 7-7.3 7c-4.1 0-7.1-3.1-7.1-7zm11.3 0c0-2.3-1.7-4.3-4.2-4.3s-4.1 2-4.1 4.3 1.7 4.3 4.1 4.3c2.6.1 4.2-1.9 4.2-4.3z"/><path fill="#e6e6e6" d="m760.9 302.6v-8.6h3.1v7.6c0 2.1 1.1 3.3 2.9 3.3s3-1.3 3-3.3v-7.6h3.1v13.4h-3.1v-2.1c-.8 1.3-2.1 2.3-4.2 2.3-3.1.2-4.8-1.8-4.8-5z"/><path fill="#e6e6e6" d="m776.6 303.8v-7.1h-1.7v-2.7h1.7v-3.7h3.1v3.7h3.6v2.6h-3.6v6.6c0 1.2.6 1.7 1.7 1.7.7 0 1.3-.2 1.9-.5v2.5c-.8.5-1.7.7-2.8.7-2.3.1-3.9-.9-3.9-3.8z"/><path fill="#e6e6e6" d="m785.9 289.7h3.2v15h9.4v2.9h-12.5v-17.9z"/><path fill="#e6e6e6" d="m808.7 307.5v-1.7c-.9 1.1-2.3 2-4.4 2-2.6 0-4.8-1.4-4.8-4.2 0-3 2.3-4.4 5.4-4.4 1.7 0 2.6.2 3.7.5v-.2c0-1.9-1.2-2.9-3.3-2.9-1.5 0-2.6.3-3.9.8l-.8-2.5c1.5-.7 2.9-1.1 5.1-1.1 4 0 5.9 2.1 5.9 5.7v8zm.1-5.6c-.8-.3-1.9-.5-3.1-.5-2 0-3.1.8-3.1 2.1s1.1 2 2.6 2c2 0 3.5-1.1 3.5-2.9z"/><path fill="#e6e6e6" d="m817.6 305.5v2.1h-3.1v-18.7h3.1v7.4c1-1.4 2.4-2.5 4.5-2.5 3.2 0 6.3 2.5 6.3 7s-3.1 7-6.3 7c-2.1 0-3.5-1.1-4.5-2.3zm7.7-4.7c0-2.6-1.7-4.3-3.9-4.3-2.1 0-3.9 1.7-3.9 4.4 0 2.6 1.8 4.3 3.9 4.3 2.2 0 3.9-1.7 3.9-4.4z"/><path fill="#e6e6e6" d="m829.6 305.8 1.4-2.1c1.4 1.1 3 1.7 4.4 1.7s2.1-.5 2.1-1.5-1.3-1.4-2.8-1.8c-.1 0-.2-.1-.2-.1-2-.6-4.2-1.4-4.2-4s2.1-4.1 4.8-4.1c1.7 0 3.5.6 5 1.5l-1.2 2.2c-1.3-.8-2.6-1.3-3.8-1.3s-1.9.5-1.9 1.4 1.3 1.4 2.8 1.8c.1 0 .2.1.2.1 2 .6 4.2 1.5 4.2 4 0 2.9-2.2 4.2-5 4.2-1.9 0-4-.7-5.8-2z"/><path fill="#e6e6e6" d="m206.3 434.2c0-5.1 4.1-9.2 9.3-9.2s9.2 4.2 9.2 9.2-4.1 9.2-9.3 9.2-9.2-4.1-9.2-9.2zm17.4-.1c0-4.5-3.5-8.2-8.2-8.2s-8.2 3.7-8.2 8.3c0 4.5 3.5 8.2 8.2 8.2s8.2-3.7 8.2-8.3zm-13.1-.1c0-2.8 2.1-5.1 5.1-5.1 1.9 0 2.9.6 3.9 1.5l-1.4 1.7c-.8-.7-1.5-1.1-2.5-1.1-1.7 0-2.8 1.4-2.8 3.1s1.1 3 2.8 3c1.1 0 1.7-.5 2.5-1.1l1.4 1.4c-1.1 1.1-2.1 1.7-4 1.7-2.9.1-5-2.2-5-5.1z"/><path fill="#e6e6e6" d="m226.1 425.3h3.4l4.2 13.2 4.4-13.3h2.6l4.4 13.3 4.2-13.2h3.3l-6.2 18h-2.7l-4.4-12.8-4.4 12.8h-2.7z"/><path fill="#e6e6e6" d="m252.4 436.4c0-3.9 3.1-7 7.2-7 4.2 0 7.2 3.2 7.2 7s-3.1 7-7.3 7c-4.1 0-7.1-3.1-7.1-7zm11.2 0c0-2.3-1.7-4.3-4.2-4.3s-4.1 2-4.1 4.3 1.7 4.3 4.1 4.3c2.7.1 4.2-1.9 4.2-4.3z"/><path fill="#e6e6e6" d="m269 429.7h3.1v3c.8-2 2.4-3.4 4.8-3.3v3.2h-.2c-2.7 0-4.6 1.7-4.6 5.4v5.1h-3.1z"/><path fill="#e6e6e6" d="m278.6 424.5h3.1v11.1l5.6-6h3.8l-5.4 5.5 5.5 8h-3.5l-4.1-5.8-1.9 2v3.9h-3.1z"/><path fill="#e6e6e6" d="m291.3 436.4c0-3.9 3.1-7 7.2-7 4.2 0 7.2 3.2 7.2 7s-3.1 7-7.3 7c-4.1 0-7.1-3.1-7.1-7zm11.2 0c0-2.3-1.7-4.3-4.2-4.3s-4.1 2-4.1 4.3 1.7 4.3 4.1 4.3c2.6.1 4.2-1.9 4.2-4.3z"/><path fill="#e6e6e6" d="m307.7 438.2v-8.6h3.1v7.6c0 2.1 1.1 3.3 2.9 3.3s3-1.3 3-3.3v-7.6h3.1v13.4h-3.1v-2.1c-.8 1.3-2.1 2.3-4.2 2.3-3 .2-4.8-1.8-4.8-5z"/><path fill="#e6e6e6" d="m323.4 439.4v-7.1h-1.7v-2.6h1.7v-3.7h3.1v3.7h3.6v2.6h-3.6v6.6c0 1.2.6 1.7 1.7 1.7.7 0 1.3-.2 1.9-.5v2.5c-.8.5-1.7.7-2.8.7-2.3 0-3.9-.9-3.9-3.9z"/><path fill="#e6e6e6" d="m332.7 425.3h3.2v15h9.4v2.9h-12.5v-17.9z"/><path fill="#e6e6e6" d="m355.5 443.1v-1.7c-.9 1.1-2.3 2-4.4 2-2.6 0-4.8-1.4-4.8-4.2 0-3 2.3-4.4 5.4-4.4 1.7 0 2.6.2 3.7.5v-.2c0-1.9-1.2-2.9-3.3-2.9-1.5 0-2.6.3-3.9.8l-.8-2.5c1.5-.7 2.9-1.1 5.1-1.1 4 0 5.9 2.1 5.9 5.7v8zm.1-5.6c-.8-.3-1.9-.5-3.1-.5-2 0-3.1.8-3.1 2.1s1.1 2 2.6 2c2 0 3.5-1.1 3.5-2.9z"/><path fill="#e6e6e6" d="m364.4 441.1v2.1h-3.1v-18.7h3.1v7.4c1-1.4 2.4-2.5 4.5-2.5 3.2 0 6.3 2.5 6.3 7s-3.1 7-6.3 7c-2.1 0-3.5-1.1-4.5-2.3zm7.7-4.7c0-2.6-1.7-4.3-3.9-4.3-2.1 0-3.9 1.7-3.9 4.4 0 2.6 1.8 4.3 3.9 4.3 2.2 0 3.9-1.7 3.9-4.4z"/><path fill="#e6e6e6" d="m376.5 441.4 1.4-2.1c1.4 1.1 3 1.7 4.4 1.7s2.1-.5 2.1-1.5-1.3-1.4-2.8-1.8c-.1 0-.2-.1-.2-.1-2-.6-4.2-1.4-4.2-4s2.1-4.1 4.8-4.1c1.7 0 3.5.6 5 1.5l-1.2 2.2c-1.3-.8-2.6-1.3-3.8-1.3s-1.9.5-1.9 1.4 1.3 1.4 2.8 1.8c.1 0 .2.1.2.1 2 .6 4.2 1.5 4.2 4 0 2.9-2.2 4.2-5 4.2-2 0-4.1-.7-5.8-2z"/><path fill="#e6e6e6" d="m505.1 434.2c0-5.1 4.1-9.2 9.3-9.2s9.2 4.2 9.2 9.2-4.1 9.2-9.3 9.2-9.2-4.1-9.2-9.2zm17.4-.1c0-4.5-3.5-8.2-8.2-8.2s-8.2 3.7-8.2 8.3c0 4.5 3.5 8.2 8.2 8.2s8.2-3.7 8.2-8.3zm-13.1-.1c0-2.8 2.1-5.1 5.1-5.1 1.9 0 2.9.6 3.9 1.5l-1.4 1.7c-.8-.7-1.5-1.1-2.5-1.1-1.7 0-2.8 1.4-2.8 3.1s1.1 3 2.8 3c1.1 0 1.7-.5 2.5-1.1l1.4 1.4c-1.1 1.1-2.1 1.7-4 1.7-2.9.1-5-2.2-5-5.1z"/><path fill="#e6e6e6" d="m525 425.3h3.4l4.2 13.2 4.4-13.3h2.6l4.4 13.3 4.2-13.2h3.3l-6.2 18h-2.7l-4.4-12.8-4.4 12.8h-2.7z"/><path fill="#e6e6e6" d="m551.2 436.4c0-3.9 3.1-7 7.2-7 4.2 0 7.2 3.2 7.2 7s-3.1 7-7.3 7c-4.1 0-7.1-3.1-7.1-7zm11.2 0c0-2.3-1.7-4.3-4.2-4.3s-4.1 2-4.1 4.3 1.7 4.3 4.1 4.3c2.7.1 4.2-1.9 4.2-4.3z"/><path fill="#e6e6e6" d="m567.8 429.7h3.1v3c.8-2 2.4-3.4 4.8-3.3v3.2h-.2c-2.7 0-4.6 1.7-4.6 5.4v5.1h-3.1z"/><path fill="#e6e6e6" d="m577.5 424.5h3.1v11.1l5.6-6h3.8l-5.4 5.5 5.5 8h-3.5l-4.1-5.8-1.9 2v3.9h-3.1z"/><path fill="#e6e6e6" d="m590.1 436.4c0-3.9 3.1-7 7.2-7 4.2 0 7.2 3.2 7.2 7s-3.1 7-7.3 7c-4.1 0-7.1-3.1-7.1-7zm11.2 0c0-2.3-1.7-4.3-4.2-4.3s-4.1 2-4.1 4.3 1.7 4.3 4.1 4.3c2.6.1 4.2-1.9 4.2-4.3z"/><path fill="#e6e6e6" d="m606.5 438.2v-8.6h3.1v7.6c0 2.1 1.1 3.3 2.9 3.3s3-1.3 3-3.3v-7.6h3.1v13.4h-3.1v-2.1c-.8 1.3-2.1 2.3-4.2 2.3-3 .2-4.8-1.8-4.8-5z"/><path fill="#e6e6e6" d="m622.2 439.4v-7.1h-1.7v-2.6h1.7v-3.7h3.1v3.7h3.6v2.6h-3.6v6.6c0 1.2.6 1.7 1.7 1.7.7 0 1.3-.2 1.9-.5v2.5c-.8.5-1.7.7-2.8.7-2.3 0-3.9-.9-3.9-3.9z"/><path fill="#e6e6e6" d="m631.5 425.3h3.2v15h9.4v2.9h-12.5v-17.9z"/><path fill="#e6e6e6" d="m654.3 443.1v-1.7c-.9 1.1-2.3 2-4.4 2-2.6 0-4.8-1.4-4.8-4.2 0-3 2.3-4.4 5.4-4.4 1.7 0 2.6.2 3.7.5v-.2c0-1.9-1.2-2.9-3.3-2.9-1.5 0-2.6.3-3.9.8l-.8-2.5c1.5-.7 2.9-1.1 5.1-1.1 4 0 5.9 2.1 5.9 5.7v8zm.1-5.6c-.8-.3-1.9-.5-3.1-.5-2 0-3.1.8-3.1 2.1s1.1 2 2.6 2c2 0 3.5-1.1 3.5-2.9z"/><path fill="#e6e6e6" d="m663.3 441.1v2.1h-3.1v-18.7h3.1v7.4c1-1.4 2.4-2.5 4.5-2.5 3.2 0 6.3 2.5 6.3 7s-3.1 7-6.3 7c-2.2 0-3.6-1.1-4.5-2.3zm7.7-4.7c0-2.6-1.7-4.3-3.9-4.3s-3.9 1.7-3.9 4.4c0 2.6 1.8 4.3 3.9 4.3s3.9-1.7 3.9-4.4z"/><path fill="#e6e6e6" d="m675.3 441.4 1.4-2.1c1.4 1.1 3 1.7 4.4 1.7s2.1-.5 2.1-1.5-1.3-1.4-2.8-1.8c-.1 0-.2-.1-.2-.1-2-.6-4.2-1.4-4.2-4s2.1-4.1 4.8-4.1c1.7 0 3.5.6 5 1.5l-1.2 2.2c-1.3-.8-2.6-1.3-3.8-1.3s-1.9.5-1.9 1.4 1.3 1.4 2.8 1.8c.1 0 .2.1.2.1 2 .6 4.2 1.5 4.2 4 0 2.9-2.2 4.2-5 4.2-2 0-4.1-.7-5.8-2z"/></g>
</svg>
