<?xml version="1.0" encoding="utf-8"?>
<!-- Generator: Adobe Illustrator 23.0.1, SVG Export Plug-In . SVG Version: 6.00 Build 0)  -->
<svg version="1.2" baseProfile="tiny" id="Layer_1" xmlns="http://www.w3.org/2000/svg" xmlns:xlink="http://www.w3.org/1999/xlink"
	 x="0px" y="0px" viewBox="0 0 900 600" xml:space="preserve">
<g>
	<path d="M577.14,371.07c-0.03-0.01-0.04,0.05-0.04,0.19c0.02,0.02,0.03,0.05,0.05,0.07C577.15,371.24,577.14,371.16,577.14,371.07z
		"/>
	<path d="M584.48,327.11c-0.72-3.51-0.83-6.51,0.31-9.51c3.52-9.26,2.04-25.45-0.83-25.21c0.85,4.37,2.49,14.23,0.72,19.22
		c-0.11-0.31-2.35-16.16-1.55,4.86c0.08,2.17-1.33,4.13-0.72,6.1c0.78,2.5,0.82,5,0.4,7.5c-0.09,0.21-0.17,0.34-0.23,0.43
		C582.76,330.73,583.08,331.32,584.48,327.11z"/>
	<path d="M776.24,88.96c-3.96-16.74-19.92-29.88-31.51-28.52c-10.02,1.18-17.03,11.05-15.39,21.59c1.71,10.98-7.18-4.04-19.42,2.58
		c-6.91,3.74-9.2,9.82-9.92,17.15c-36.09,9.43-34.92,6.18-47.73,12.81c-5.29,2.74-6.85,1.01-19.73-0.72
		c-2.39-0.32-6.79-5.17-7.75-6.51c-9.29-12.96-25.06-8.81-28.41-13.02c-1.24-1.55-2.48-3.2-4.75-3.41c0.21-3.31,0.2-6.32,4.34-6.92
		c2.97-0.44,2.5-5.55,4.55-9.2c3.81-6.78,1.51-10.81,4.44-18.49c1.29-3.39,0-6.92-1.45-10.23c0.41,5.17-1.91,9.92-1.96,14.88
		c-0.07,6.51-2.28,12.33-4.34,18.29c-2.38,6.88-11.9,2.43-15.91,4.34c2.58,2.69,5.79,1.34,8.78,2.27
		c-1.65,5.99-1.45,11.99-0.21,17.98c2.94-0.64,2.38-3.04,2.38-8.89c3.55,1.07,2.07,3.46,2.79,5.58c3.14,9.22,2.91,18.7,1.55,28.21
		c-2.35,16.37-25.39,14.46-33.68,2.69c-6.9-9.8-7.76-21.95-13.95-35.96c-1.01-2.28-1.76-4.75-1.76-7.23
		c1.03-0.83,2.07-1.22,3.2-1.45c9.07-1.84,6.47-8.15,7.54-13.22c2.16-10.25-1.97-13.29,2.07-17.98c-2.48,0.41-3.51-0.62-3.93-2.38
		c2.19-1.65,2.45,3.09,3.51-6.51c-1.24-1.45-3.2-2.27-3-4.55c1.65-0.83,2.58,0.21,2.79,1.45c0.5,2.9,1.96,5.48,2.38,8.58
		c2.79-3.41,3.33-7.84,5.17-11.57c1.88-3.81,4.44-7.34,6.1-10.75c1.45-0.83,2.27,0.31,3.2-0.21c-1.14-2.69,2.89-1.03,2.27-3.51
		c-0.62-0.52-0.52-2.17-1.65-3.1c-1.14-0.21-2.58,0.21-3.2-1.24c1.55-2.27,2.69,0.01,4.03,0.31c1.86,0.42,2.48,1.96,3,3.41
		c1.55-0.52,0.52-1.45,0.93-2.48c1.86,1.03,3.41-0.53,5.48-0.41c4.75,0.27,9.61,2.38,14.77-0.31c-0.31,5.48,1.45,10.44,2.48,15.29
		c-7.96,3.1-10.44,4.65-8.27,11.26c0.83-1.14,0.1-2.58,1.14-3.82c2.17,0.83,4.24-0.21,6.61-0.93c0.62-3,2.88-6.2,1.86-9.09
		c-1.57-4.44-1.24-8.99-2.17-13.22c1.96-3.2,5.58-3.93,8.16-6.51c-1.24-1.14,0-2.38-0.21-3.72c-1.76-0.72-3.41,0.21-5.17-0.1
		c0.83-1.65,3.62-1.34,3.72-3.51c-1.28-1.91-3.88-0.06-5.89,1.03c0.1-2.48,1.03-4.86-0.72-7.03c-7.47,7.47-3.79,2.89-4.75,2.17
		c-4.03-1.34-7.43,2.15-11.68,1.24c-3.92-0.84-8.16-0.21-12.3-0.21c-1.34,1.03-1.24,3.51-3.72,2.89c0.21-0.93,0.83-2.07-0.83-2.58
		c-2.38,3.1-5.58,4.96-9.61,5.06c-1.86-1.14-3.2-3.82-6.1-2.17c0.1,1.65,1.76,2.17,2.17,3.41c-2,1.6-2.64,3.79-2.77,6.09
		c-0.23-0.31-0.61-0.38-1.26-0.2c-0.1,0.83,0.53,1.66-0.1,2.79c-3.72,6.63-2.45,8.27-3.41,9.71c-5.6,9.8,3.16,14.84,0.72,20.77
		c-0.1,0.21,0.1,0.62,0.31,0.93c3.4,5.07,2.07,11.47,5.27,16.53c0.31,0.41,0.1,1.03,0.1,1.65c0.31,3.41-1.01,6.52-2.17,9.61
		c-0.8,2.14-1.63,2.35-9.82,6.61c-8.81,4.58-8.54-1.95-27.17-2.79c-23.15-1.04-19.64,5.91-26.45,5.06
		c-5.37-0.67-10.54-2.15-16.01-2.48c-4.86-0.29-9.92-0.21-14.67-2.07c-1.96-5.17-3.82-10.64-9.2-13.64
		c0.41-0.41,0.62-0.72,0.93-0.83c26.39-6.4,18.99-65.26-7.34-67.47c-19.64-1.65-23.51,15.88-25.62,20.46
		c-2.01-0.6-5.7-17.56-25.73-14.05c-37.16,6.5-21.59,79.64,10.64,68.81c4.96-1.66,9.3-3.82,12.81-8.99
		c0.52,7.34,2.06,13.33,4.65,19.11c8.2,18.34,12.5,26.61,23.45,29.55c9.98,2.68,5.05,3.52,18.18,10.02
		c24.24,12.01,37.89,0.47,42.77,13.74c1.18,3.22,8.22,43.09,16.74,60.44c1.97,4.02,0.26,35.53,2.69,45.67
		c-2.58,1.76-2.41,4.35-1.86,7.03c1.62,7.86-3.37,11.05-5.37,18.8c-3.99,15.49-4.38,43.8-7.85,76.56
		c-3.66,34.52,3.16,30.22,0.31,33.48c-2.17,2.48-1.86,5.48-1.86,8.37c0,9.61-0.07,1.83,7.13,4.44c-0.62,7.13,1.54,13.74,2.69,20.46
		c1.54,9.04-5.59,12.36-8.47,31.1c-3.33,21.65-2.49,9.28,2.48,51.56c1.07,9.09,2.92,18.09,3.72,27.28
		c0.57,6.51,0.52,13.2,1.86,19.73c1.02,4.97-2.83,5.77-1.45,9.82c1.19,3.47-2.98,7.72-1.34,11.37c1.25,2.78,0.52,4.75-1.03,7.03
		c-2.89,4.24-2.79,10.23,1.96,13.74c5.69,4.74,0.03,5.94,6.92,9.3c10.16,4.94,21.69,3.01,32.86,1.03c1.24-0.22,2.27-1.03,3.1-2.38
		c-1.03-0.83-1.24-2.17-1.55-3.51c-2.01-8.71-4.72-6.99-5.06-9.92c-0.32-2.71-7.06-17.39-9.09-21.28c0.83-0.83,1.14,0.62,1.86,0
		c-0.1-1.03-0.63-1.95-1.55-2.48c-4.59-2.65,5.26-14.14-2.69-19.11c-1.02-0.64-1.96,0.52-3.1,0.1c-1.7-22.05,5.22-32.57,11.47-62.4
		c2.76-13.2,0.32-26.44-0.41-43.19c-4.37,2.3,4.39,31.88-5.37,57.86c-2.25,6-4.03,12.09-5.58,18.6c-1.14-7.44-0.71-14.57-0.31-21.8
		c0.58-10.54-3.59-1.69-1.65,14.46c1.37,11.37-1.89,22.47-0.31,31.93c0.86,5.15,3.23,4.54-9.2,6.1c0.1-2.69,0.41-5.17-0.83-7.75
		c-1.48,6.14,2.29,9.09-5.58,9.09c-1.16-4.65,1.15-5.72-4.24-37.92c-1.78-10.64-1.81-21.38-4.13-32.03
		c-2.3-10.56,1.32-23.29,1.14-24.59c-0.56-3.94,0.72-7.44,2.17-10.85c13.74-32.22-5.07-41.32,8.78-41.84
		c37.84-1.44,33.72-3.47,35.23-1.96c-1.73,7.31-6.19,18.55-7.23,29.14c-0.83,8.42-5.86,7.61-8.89,14.67
		c5.23-2.32,11.63-11.47,12.09-22.83c0.33-8.26,2.36-3.62,7.13-20.15c4.75-3.8,5.56-0.64,7.44-2.89c6.19-8.38,2.28-3.43,4.96-14.67
		c2.87-12.02,2.16,9.17,2.27,10.23c0.64,5.82-0.48,5.02,7.23,6.3c1.17,8.94-2.36-4.12,4.86,24.9c4.63,18.64-6.08,31.08-0.1,50.52
		c1.12,3.64,10.82,51.16,10.54,64.06c-0.09,4.13,7.05,2.75-1.86-35.23c-7.44-31.69-9.54-39.08-6.92-56.21
		c1.04-6.82,2.68-13.64,1.34-20.77c-3.98-21.23-8.31-23.55-3.82-26.76c18.37,4.9,32.7,2.69,35.85,2.69
		c1.45,4.65-1.66,8.99-0.83,13.43c0.93,4.96-1.86,9.09-3.1,13.64c0.31,0.62,1.55,0.93,1.24,2.07c-2.69,3-1.86,6.72-1.76,10.23
		c0.62-2.38,1.34-4.86,2.17-8.06c8.29,34.42-0.87,59.01-1.45,103.84c-1.03,0.62-1.55-0.41-1.86-0.93
		c-3.41,1.55-7.13,1.34-10.54,2.48c-0.93-3.41,0.21-6.92-1.45-10.64c-1.24,4.03-0.31,7.65-0.93,10.95c-1.45,0.72-3.1,0.83-3.82,1.86
		c-0.62,1.24,0.1,2.07-0.21,3.1c-1.76,1.65-4.33,3.41-3.72,6.1c1.8,8.01-4.77,14.4-3.72,17.15c1.77,4.62-3.59,6.04-1.65,8.99
		c4.5,6.87,10.09,10.44,18.49,10.13c9.82-0.37,2.54,7.47,13.22,8.99c8.14,1.15,24.88,2.2,28-5.37c3.82-0.83,4.85-1.55,4.55-3.41
		c-0.53-3.3-1.58-6.38-4.24-8.78c-6.36-5.75-6.21-7.76-15.81-17.56c-4.7-4.81-8.06-10.44-7.65-17.36c-1.34-1.86-3.41-0.52-5.06-1.76
		c0.31-4.03-1.11-8.06-0.62-12.19c1.41-11.77,1.91-23.66,2.48-35.44c0.72-15.03,3.93-19.47,3.2-28.41
		c-3.12-38.27-5.96-31.64-4.96-36.37c2.07-0.83,1.95-2.89,1.86-4.86c-0.85-17.78,2.25-13.77,3.1-21.59c2.79-0.52,5.06-0.22,7.34-0.1
		c6.56,0.33,1.67-54.38,0.52-56.93c4.4-9.68-5.91-55.45-14.36-72.53c-2.48-5.78-5.09-6.93-4.34-12.6c0.31-2.38-0.1-4.44-2.79-5.17
		c0-0.62,0.21-1.14,0.1-1.55c-3.12-25.19,1.45-31.67,0.62-35.23c-2.78-12.01,0.02-23.78,1.14-35.54c0.18-1.86,0-3.72,0.41-5.68
		c2.99-14.26,1.75-15.9,5.48-19.84c10.7,5.98,18.85-1.6,32.65-3.93c13.98-2.36,26.02-8.15,26.24-8.37
		c17.65-13.24,19.39-11.66,23.97-17.15c0.94-1.13,1.96-3,4.13-2.07c-0.1-1.65,0.31-2.89,2.27-3.62
		c6.72,7.96,14.15,15.08,26.66,13.95c-13.51,8.9-27.92-10.26-28.93-10.33c9.52,15.05,29.26,20.71,35.54,4.13
		c5.46-14.41-2.2-16.96,6.3-12.29C761.97,117.55,781.19,109.87,776.24,88.96z M591.4,99.19c-0.41-0.52-0.41-1.03,0-1.65
		C591.4,98.26,591.4,98.67,591.4,99.19z M601.32,42.15c0.72-0.72,1.55-0.83,2.79-0.52C603.08,43.29,602.15,42.05,601.32,42.15z
		 M606.8,13.43c0.72-0.1,1.55-0.21,2.69-0.31C608.33,16.59,606.4,17.05,606.8,13.43z M602.25,6.92c1.03,1.55-0.31,1.86-1.45,2.27
		C601.42,7.57,601.57,6.24,602.25,6.92z M599.57,21.28c-0.62,0.31-1.03,0.31-1.24-0.41C599.05,20.15,599.26,20.77,599.57,21.28z
		 M592.64,20.56c-1.65,0.31-2.58-0.52-3.51-1.45C590.47,19.22,591.61,19.53,592.64,20.56z M586.14,18.6
		c-1.78,0.71-1.11-2.24,0.1-0.72C586.45,18.18,586.55,18.49,586.14,18.6z M587.06,10.02c-0.62,1.34-1.96,1.76-3,3
		C584.38,10.13,584.38,10.13,587.06,10.02z M578.08,7.65c1.03,0.82,1.07,0.72,0.72,1.24C578.18,8.89,577.97,8.58,578.08,7.65z
		 M557.52,36.06c-0.6-2.11-0.82-4.8,0.93-3.93C558.14,33.48,557.83,34.72,557.52,36.06z M571.77,27.59
		c2.27,1.65-0.72,1.86-1.14,2.69C571.18,28.11,570.87,27.59,571.77,27.59z M571.15,17.87c-0.62,2.07-1.96,3.41-4.24,4.65
		C567.54,19.73,569.4,18.91,571.15,17.87z M569.91,11.06c-0.41,2.07-1.86,1.96-3.41,1.96C567.54,12.29,568.36,11.37,569.91,11.06z
		 M567.02,17.25c0.15,0,0.67,0.21-0.41,0.93C566.53,18.02,565.91,17.62,567.02,17.25z M566.3,30.58c0.62,0.62-0.1,0.83-0.72,1.34
		C565.57,31,566.09,30.38,566.3,30.58z M565.99,33.37c0.2,1.18,0.24,2.31-1.65,2.69C563.92,34.41,564.85,33.99,565.99,33.37z
		 M565.06,43.39c-0.21,0.83-0.1,1.34-0.83,1.45C563.82,44.22,564.23,43.91,565.06,43.39z M563.51,49.18
		c-0.93-1.24-0.62-1.55-0.31-2.07C564.13,47.94,563.2,48.15,563.51,49.18z M561.34,34.51c0-1.34,0.72-1.45,1.96-1.14
		C562.68,34.2,562.27,34.61,561.34,34.51z M561.85,12.4c-1.34,0.1-1.55-0.41-1.86-0.83C561.24,11.06,561.13,11.78,561.85,12.4z
		 M554.73,17.87c0.33-0.33,1.61-1.01,2.69-1.14c1.24,0.31,1.45,1.55,2.38,2.07c0.3,0.1,5.19-1.96,1.76,1.96
		c-2.38-2.17-4.55-1.03-6.82,0.83C554.37,19.71,558.39,17.87,554.73,17.87z M554.62,53.62c0.52,0.1,0.62,0.41,0.72,0.93
		C554.21,54.86,554.21,54.35,554.62,53.62z M555.45,50.11c-2.58-3-2.58-3-1.03-5.17c1.24,0,1.65,0.93,2.38,1.96
		C556.07,47.84,555.24,48.77,555.45,50.11z M546.15,573.11c-1.14,0.31-1.76,0-2.27-0.83C544.81,571.87,545.63,571.67,546.15,573.11z
		 M547.29,575.59c-1.03,0.83-1.55,0.62-2.07,0.52C545.63,575.18,546.25,575.49,547.29,575.59z M520.11,545.84
		c0.83-1.14,2.17-1.65,3.93-1.24c1.03,6.61,0.72,7.34-3.31,9.51c-2.17-0.41-1.24-2.69-2.79-4.13
		C520.73,549.25,519.29,547.39,520.11,545.84z M518.15,554.72c1.14,1.14,2.37,2.77,4.55,1.55c4.4-2.47,3.41-3.73,3.41-11.06
		c17.48-4.16,11.44-2.24,12.71-0.72c1.14,0.52,1.45-1.24,2.58-1.24c0.1,4.75-2.27,8.99-2.17,13.43c-4.13,0.72-8.16,0.31-11.88,1.65
		c0.1,2.89-0.52,5.48,1.24,8.06c2.48,1.34,5.49,0.28,8.16,1.24c2.49,0.9,5.48-1.34,8.47,1.55c-5.19,0.3-20.87-3.17-12.09,2.69
		c0.83,1.24-0.72,2.07-0.41,3.93c4.65,2.38,9.82,2.79,15.5,1.55c6.63,15.91,3.94,10.04,5.58,9.71c0.93,2.38,1.76,4.86,2.17,7.85
		c-11.68,1.14-23.14,4.86-34.3-1.76c0.21-3.2-1.98-5.66-4.24-7.75c-3.54-3.28-4.19-9.14-0.83-12.91c3.92-4.4-0.74-3.17,1.14-11.06
		C518.05,559.27,516.39,556.89,518.15,554.72z M540.26,561.13c-1.55-0.1-3.2-0.21-4.75-0.41
		C537.16,560.2,538.71,559.68,540.26,561.13z M602.36,536.54c6.1-1.14,11.57-2.69,17.56-1.96c-2.03,3.59-9.22,0.27-11.78,3.31
		c-0.52,2.48,1.65,3.72,2.38,5.68c-0.41,1.14-0.83,2.38-1.34,3.82c-1.65-1.55-3.43,0.36-5.27-0.41c-3.26-1.37,0.17-5.46-3.1-3.82
		C600.19,540.57,603.8,539.53,602.36,536.54z M639.24,562.68c-1.65,0.41-3-0.31-4.55-0.62C636.55,560.2,638,560.51,639.24,562.68z
		 M628.19,548.63c-0.21,0.93-0.72,0.52-1.45,0.21C627.36,548.52,627.77,548.42,628.19,548.63z M623.95,538.6
		c1.86,2.27,0.62,5.06,2.69,7.34c-3.3-0.2-10.08-2.96-9.51,2.79c-1.55,0.62-3.1-0.21-4.65,0.21c-0.1,2.79-0.1,2.79,4.65,3.31
		c-0.83,1.24-2.27,0.93-2.58,2.79c1.65,2.27,4.65,0.41,6.82,1.24c-0.52,3.72-0.31,3.82,7.96,2.69c-2.54,1.62-5.08,2.38-3.62,4.34
		c1.45,0.72,2.58-0.62,3.93-0.52c1.65,2.69,6.41,2.69,10.85,1.45c3.28,6.12,11.12,10.14,11.88,15.6c-4.7,7.29-19.64,7.71-27.59,6.61
		c-11.02-1.52-2.77-8.56-12.81-8.99c-12.48-0.54-14.38-3.22-18.39-8.89c4.23-7.25-0.29-8.31,3.2-12.09
		c2.83-3.06,2.48-6.61,2.89-11.26c1.65,4.96,4.75,5.37,8.47,4.44c3.31-0.83,3.2-3.82,4.13-6.3c-0.52-1.55-2.27-2.38-2.58-4.65
		C614.55,539.12,619.4,538.5,623.95,538.6z M622.4,548.83c-0.83,0.41-1.55,0.41-2.38,0C620.85,548.42,621.57,548.52,622.4,548.83z
		 M727.48,86.89c-6.61,5.27-14.15,8.16-21.9,12.29C705.57,82.67,717.59,80.03,727.48,86.89z M705.16,90.51
		c-1.46,6.57,0.6,9.93-2.89,9.3C702.16,96.4,703.2,93.3,705.16,90.51z M451.3,5.79c10.8,6.67,16.1,22.7,15.6,33.58
		c0.36,25.83-17.05,36.26-30.07,23.35C413.86,39.91,427.85-8.71,451.3,5.79z M433.33,5.06c0,1.14-0.83,1.34-1.24,1.86
		c-16.26,20.32-7.42,55.59,13.64,62.61C421.76,72.8,407.43,19.81,433.33,5.06z M418.45,24.59c-1.65,9.4-0.62,18.7,3.41,28.1
		c-5.99-0.62-5.89-6.1-8.99-9.61c0.62,3.51,2.07,5.99,3.2,8.68c-1.52-0.22-5.4-0.26-6.2-2.48c-3.7-10.29-6.54-23.04,4.55-22.52
		C415.55,26.04,415.97,24.07,418.45,24.59z M386.94,12.19c-17.05,15.39-10.44,56.41,11.88,64.26
		C376.12,80.53,360.17,27.43,386.94,12.19z M404.81,74.91c-20.4,5.4-39.43-45.26-14.05-63.23c6.83-4.83,13.19-1.75,20.35,3.51
		c3.28,2.41,3.51,2.69,5.06,6.82c-1.14,1.24-1.96,2.27-2.89,3.31c-7.85-1.55-6.82,5.17-8.58,9.09c-2.58,0.93-5.57-1.24-7.44,1.65
		c-2.98,4.62-2.41,13.41,9.71,10.95c2.07,2.58,3.41,6.3,7.65,5.99C420,64.57,414.31,72.39,404.81,74.91z M401.71,46.29
		c-3.41-2.07-4.76-4.76-3.72-7.65c1.23-3.41,3.72-1.96,5.99-1.86C407.73,48.96,407.37,43.05,401.71,46.29z M466.08,126.05
		c-11.08-3.18-9.45-8.33-22.73-11.68c-14.26-3.59-23.03-33.4-24.38-48.35c-1.7-18.73-3.91-11.69,3.72-11.26
		c-0.72,2.89-0.1,5.99,1.76,8.78c0.72-1.76-0.62-3.2,0.1-5.37c2.27,4.24,5.58,6.92,8.27,10.44c0.93,0.1,2.06,0.42,3,0.93
		c7.8,4.26,9.96-0.62,14.67,3.51c8.62,7.57,6.25,14.4,14.88,14.15c12.73-0.36,20.42,4.69,28.21,2.89c13.62-3.14,27.4-4.4,28.83-3.93
		c17.28,4.69,19.61,2.05,19.53,9.51c-0.09,8.45,2.18,6.61,4.13,35.54c0.22,3.2-1.24,5.99-2.17,8.89c-1.34,0.52-1.76-1.55-3.31-0.93
		c0.31,1.24,1.96,1.45,2.27,2.58c-5.79,10.85-14.98,18.7-29.96,17.67C506.06,119.32,504.35,137.04,466.08,126.05z M624.98,397.47
		c-0.31-0.62-0.31-1.24,0.72-1.45C625.91,396.85,625.5,397.16,624.98,397.47z M619.61,273.49c1.34-1.55,0.62-2.69,1.03-3.72
		c2.89,3.72,6.72,19.73,12.81,53.21c-6.87,9.37,5.21,20.47,1.45,69.43c-4.3,0-17.96-0.18-24.69,0.62
		c-11.58,1.38-22.49-3.81-31.1-4.96c-1.46-11.27-2.02-15.86-2.01-16.81c-0.86-1.3-3.12-2.04-1.5-4.37c1.17,1.17,1.51,2.63,1.54,4.18
		c0.32,0.14,2.31,10.46,4.14,13.69c-0.93-8.27-3.31-15.5-5.89-22.32c1.24-1.03,2.17-0.52,2.89-1.34c3,4.96,4.75,10.33,7.54,15.29
		c-2.82-12.56-8.28-13.75-7.03-22.01c2.77-18.22,3.36-22.77,3.61-23.73c-0.2,0.08-0.4-0.04-1.23,1.62
		c-13.82,31.84-7.6,43.58-14.46,56.83c-17.98,2.17-36.47,2.38-55.07,3.1c1.14-5.89,2.3-11.48,0.83-17.36
		c-3.2-12.75,2.29-29.36,1.14-44.53c-0.94-12.47,2.2-15.7,3.72-35.96c0.81-10.75,1.76-21.49,6.82-31.31c-0.31-0.52,0.72-0.1,0.31,0
		c0,0.99,0.45,1.1,0.62,1.14c2.16-4.32,2.2-5.87,4.03-6.82c1.35-0.7,2.38-1.14,2.69-2.58c1.65,0.21,0.41,2.27,1.86,2.69
		c1.03-0.52,0.21-1.86,0.72-2.38c2.38-1.55,3.41,0.83,4.86,0.93c0.41-2.89,2.48-1.14,4.03-1.24c-0.41-3.72-5.17,0.83-5.17-3.72
		c-1.76,4.44-4.24-0.1-5.99,1.55c-0.72-0.72,0.21-2.17-1.24-2.48c-1.26,0-3.71,13.55-3.1-1.03c25,1.65,49.9,0.93,74.7,3.41
		c0.39,5.08-2.48,4.51-3.62,1.55c-1.34-0.1-0.72,1.34-1.65,1.65c-2.07,0.41-2.17-1.24-2.38-3.2c-1.34,1.45-0.93,2.58-0.72,3.62
		c1.03,0.93,2.27,1.03,3.72,1.65c-0.62,6.3,1.03,11.99,5.79,16.53c-2.79-4.96-3.72-10.33-3.72-15.7c0.93-1.14,1.86-0.93,3.2-0.72
		c-0.1,5.17,4.86,6.1,7.44,9.09c-0.93-3.41-4.55-5.37-4.96-9.2c2.17-0.93,4.03,0.72,5.99,0.21c-0.93-1.76,0.1-3,0.72-4.44
		C615.06,260.05,620.23,265.43,619.61,273.49z M525.49,260.05c-0.21-3.51-0.62-6.41,0.31-9.4
		C525.49,253.55,527.55,256.54,525.49,260.05z M604.11,252.93c1.34-0.41,2.69-0.21,4.13,0.31c-0.21,1.24-0.41,2.17-1.14,3.2
		c-1.03-0.52,0.31-1.86-0.93-2.27c-1.24-0.21-0.62,2.58-2.48,1.86C602.98,254.99,604.42,254.06,604.11,252.93z M653.81,144.44
		c-10.13,2.16-13.58,4.02-22.32,3.93c-8.34-0.09-1.93,1.87-8.47-0.31c3.72-14.46,3.93-17.77,1.76-21.18
		c0.72-4.75,0.72-4.75-0.1-6.92c-2.24,5.59-0.05,18.95-5.99,31c-2.92,5.93-1.27,14.54-5.06,16.32c-0.21,1.34,1.24,0.52,1.24,2.17
		c-6.18,70.35-0.9,56.51-9.51,59.2c1.55,0.72,3.2,0,4.96,0.72c-0.21,6.3,0.83,12.6,1.03,19.32c-28-3.2-56,0-84.21-1.76
		c1.24-7.23,0-14.88-0.31-22.94c7.13-1.55,14.05,0,21.28-0.1c-3.01-0.92-15.12-2.31-21.18-1.03c0-10.58,0.26-14.56-0.62-23.25
		c-0.89-8.78-4.97-9.76-5.99-13.43c-6.69-24.03-5.79-22.1-5.79-23.35c10.76,0.32,26.03-6.01,30.89-19.94
		c3.31,2.58,6.41,4.65,10.02,6.1c-0.93-2.79-1.55-3.31-7.75-6.61c-1.72-4.18,4.8-17.3-1.45-38.43c-1.34-4.55-2.27-9.09-3.2-13.64
		c5.92-9.31,2.16,20.24,22.11,48.25c1.34-0.1-0.1-1.24,0.83-1.55c5.9,4.81,25.11,12.12,33.06-4.86c2.94-6.28,4.05-20.13-1.24-33.89
		c1.65,0.1,1.34,1.65,2.27,2.27c0.83-0.72-0.41-1.45,0.31-2.27c16.64,0.19,27.17,13.86,27.9,15.7c0.77,1.95,17.98,4.17,19.63,4.34
		c5.18,0.52,0.28,1.59,11.68,4.34c-2.07-2.69-5.68-2.69-8.27-4.44c10.23-6.3,12.19-6.54,23.35-8.58
		c28.57-5.22,29.35-7.76,50.32-18.49c6.74-3.45,4.39-8.65,8.47,1.55c-3.01,6.03,1.36,3.81,7.85,11.16
		c-4.44,2.27-4.55,2.27-6.72,0.21c-5.17,1.55-8.89-1.76-13.22-3.93c0.21,2.69,2.79,2.79,4.13,4.55
		C687.8,124.22,699.28,134.76,653.81,144.44z M742.15,125.53c-3.79,7.04-20.56,3.92-29.96-10.44c4.75-3.93,9.92-7.13,15.6-9.3
		c8.59,2.29,2.2-0.56,9.71,3c2.59,1.23,4.13-0.31,6.2-1.65c-1.86-1.34-3,0.41-4.24,0C745.1,101.5,748.2,114.29,742.15,125.53z
		 M733.68,69.33c-2.58,18.4,13.43,40.44,32.34,40.81C746.22,119.31,722.98,82.99,733.68,69.33z M735.74,82.97
		c-4.12-12.14,1.49-24.3,14.15-21.7c16.74,3.45,29.58,25.03,26.24,37.81C771.47,116.97,744.59,109.04,735.74,82.97z"/>
	<path d="M582.59,330.49c-0.07-0.09-0.11-0.13-0.19,0.16C582.46,330.63,582.52,330.59,582.59,330.49z"/>
	<path d="M205.92,15.29c0,0.04,0.02,0.06,0.03,0.1c0.01-0.02,0.03-0.05,0.04-0.08C205.96,15.3,205.94,15.3,205.92,15.29z"/>
	<path d="M308,265.74c-3.16-0.75-1.77,0.17-3.1-9.82c-0.64-4.85-0.86-9.71-0.72-14.67c0.17-6.2-2.43-12.08-2.58-18.29
		c-0.05-2.04-2.07,0.5-2.07-9.3c0-18.31-7.9-18-3.41-41.02c2.42-12.38-4.82-17.33-3.82-22.11c1.31-6.26,0.32-20.39-1.55-26.14
		c-2.41-7.4-12.52-19.79-20.35-20.46c-5.12-0.44-8.94-4.13-9.82-4.24c-9.34-1.11-13.6-10.57-17.36-10.75
		c1.39-10.77,5.23-3.87,6.82-9.82c2.42-9.05,4.33-7.54,4.75-16.43c0.47-9.78,5.01-7.78,0.52-18.7c0,1.71-2.15,21.97-5.89,31.82
		c-2.38,6.25-2.76,5.37-16.32,5.37c2.38,3.31,5.79,1.45,8.47,2.69c-0.04,1.23-2.67,13.46,0.83,17.77c0-8.05-0.25-2.48,1.14-2.38
		c0.72-2.07-0.1-4.24,0.21-6.41c3.27,1.09,2.42,2.75,2.58,3.62c0.72,3.95,5.27,14.31,1.34,32.24c-1.38,6.3-8.27,10.64-14.67,9.82
		c0.41-2.58,0.52-5.27-0.72-7.75c-0.31,2.48-0.72,4.96-1.14,7.75c-24.14-7.52-18.18-16.79-30.48-45.15
		c-0.99-2.29-1.76-4.65-1.86-7.34c11.9-3.97,9.04-3.64,10.85-13.64c2.21-12.24-2.13-14.3,2.58-19.01c-3.1,0.72-4.03-0.41-4.44-2.69
		c3.38,1.84,3.02-1.49,3.51-5.89c-1.14-1.45-3.41-2.27-2.48-5.27c4.13,2.79,3,7.44,5.27,11.47c3.2-8.27,6.41-16.01,11.16-23.04
		c2.38,0.1,3.62-1.76,5.48-2.89c-0.62-1.34-1.24-2.58-1.86-3.82c-5.09,0.42-3.28-2.17-1.76-2.17c2.27,1.14,4.75,2.07,5.48,4.75
		c1.34-0.41,0.62-1.34,1.14-2.07c1.55,0.31,3-0.91,4.75-0.83c4.96,0.25,9.92,2.27,15.19,0c0.48,7.17,0.54,9.15,1.76,11.06
		c4.74,7.44-13.07,4.98-7.23,15.08c0.52-1.14-0.1-2.58,0.93-3.72c2.27,1.14,4.34-0.21,6.61-0.72c1.64-6.98,2.78-7.84,1.96-9.4
		c-2.24-4.31-1.14-9.09-2.27-12.91c2.07-3.62,5.79-4.13,8.27-7.03c-1.86-0.93,0.62-2.27-0.31-3.41c-1.76-1.03-3.41,0.41-5.17-0.21
		c0.83-1.65,3.62-1.14,3.82-3.62c-2.27-1.55-4.03,0-5.89,1.24c-0.31-2.48,0.93-4.96-0.93-7.34c-6.52,7.45-3.96,2.97-4.55,2.48
		c-3.93-1.55-7.44,1.97-11.57,1.14c-4.03-0.82-8.37-0.21-12.6-0.21c-1.14,1.24-1.24,3.2-3.1,3c-0.93-0.52,0.41-2.17-1.34-2.58
		c-2.58,2.69-5.58,4.96-9.92,4.96c-1.34-1.45-2.89-3.2-5.58-2.48c-0.62,1.96,1.65,2.27,1.96,3.93c-2.4,0.77-2.23,4.3-2.52,5.08
		c1.01,0.36,1.92-0.33,3.04-0.43c0.52,0.62,1.14,1.34,1.65,1.96c1.14,0.52,1.96-0.83,3-0.21c0.83,1.03-0.41,1.34-0.31,2.58
		c-2.79-2.17-5.17-1.14-7.54,0.52c0.21-1.55,1.45-1.96,1.76-3c0-0.97-1.49-0.62-1.63-1.35c-0.06,0.09-0.13,0.11-0.23,0.01
		c-2.27,0.1-0.71,1.76-1.14,2.58c-1.72,3.33-3,6.72-3.62,10.33c-1.26,1.26-2.75,6.11-1.03,11.99c0.82,2.79,3,5.37,1.55,8.68
		c-0.31,0.52,0.3,1.55,0.72,2.17c2.29,3.37,2.23,11.01,3.31,12.81c2.95,4.95,1.15,15.09-5.99,18.39c-4.45,2.06-9.1,3.49-13.53,5.68
		c-7.04,3.48-13.52,8.3-21.08,10.85c-5.19,1.75-13.4,8.06-15.81,18.49c-3.02,13.08-1.66,15.91-0.72,24.18
		c0.81,7.19-7.18,10.04-6.61,21.49c0.01,0.12,0.66,11.55-0.41,14.98c-6.25,19.96-1.96,18.28-1.86,28.1
		c0.05,5.06-1.43,10.02-1.34,15.08c0.13,7.23,1.74,14.36,2.48,21.59c1.53,15.02,9.15,26.85,6.82,31.51
		c-5.68,1.89-20.67,3.7-24.07,23.76c-3.4,20.08,14.93,43.37,35.54,37.5c0.72-0.21,1.55-0.41,2.69,0.21
		c-0.41,4.55-0.51,9.4-1.14,14.15c-3.21,24.3,2.63,27.87,0.41,31c-2.87,4.05-1.76,8.47-1.86,13.33c10.9-3.92,5.24,1.86,8.99,14.26
		c3.33,11.01-0.4,12.51-4.44,24.69c-7.36,22.18-5.24,34.74,1.03,74.7c3.72,23.71,1.73,25.65,3.72,36.06
		c0.84,4.39-2.54,5.92-1.45,9.2c1.26,3.77-2.71,8.7-1.14,11.99c1.24,2.58,0.43,4.55-1.03,6.61c-2.87,4.05-2.89,10.84,1.96,14.05
		c5.58,3.7-0.16,5.41,5.58,8.58c10.08,5.56,19.9,4.2,32.96,1.86c1.76-0.31,3.1-0.93,4.03-2.38c-2.07-4.24-2.07-9.4-6.2-12.6
		c-0.21-0.1-0.21-0.41-0.21-0.62c-1.1-5.39-8.7-19.54-8.99-22.11c3.6,0.9-1.24-3.12-1.55-3.62c0-3.2,1.91-6.3,1.96-9.92
		c0.15-9.65-5.29-7.24-6.3-7.75c-1.39-6.02,1.64-27.66,3.72-33.48c12.22-34.13,8.31-47.67,7.54-72.12
		c-1.86,1.34-1.94,2.68-1.76,4.03c5.04,37.33-4.6,51.85-9.61,73.56c-1.34-9.2,0.1-18.49-0.62-27.69
		c-1.86,5.17-1.97,10.54-1.55,15.91c1.72,22.01-2.5,27.22,0.93,39.98c-3.41,1.03-6.72,1.24-9.92,1.65
		c-0.52-2.69,0.52-5.48-1.24-8.37c-0.41,3.41,0.1,6.2-0.72,9.09c-1.65,0.31-3.2,0.93-5.17,0.62c0-45.21-16.77-72.21-1.34-113.55
		c4.58-12.27,0.95-26.56,0.1-31.62c6.23-4.38,18.99-0.27,38.64-4.24c5.66-1.62-1.41,5.44-4.13,24.8
		c-2.31,16.45-6.76,11.02-9.2,19.01c7.44-5.37,10.93-12.81,11.57-21.8c0.67-9.43,1.7-3.91,6.51-18.6c2.37-7.23,7.5-1.9,8.89-6.51
		c0.4-1.35,1.76-1.03,2.27-1.96c1.34-4.86,0.62-10.13,3.82-14.67c0.77,3.67,0.25,10.76,0.52,14.98c0.43,6.81,5.4,2.85,7.34,5.27
		c-0.86,10.43,4.89,23.84,5.37,29.55c1.52,17.93-6.18,28.31-0.62,46.8c1.64,5.46,10.61,49.7,10.33,62.71
		c-0.08,3.98,4.39,3.3,2.17-14.05c-1.21-9.42-8.23-41.1-8.27-41.22c-6.17-19.7-3.38-28.74-1.45-44.53
		c2.63-21.44-5.06-26.84-5.06-37.81c3.41-2.92,18.91,4.62,36.47,1.14c1.64,0.61,2.2,4.24,2.43,2.62c-0.13-0.82-0.41-1.7,0.88-2.31
		c0.29,1.08-0.83,1.22-0.83,2.79c-5.05,4.29,0.45,12.01-5.99,24.18c1.14,1.14,1.14,1.14,1.55,2.38c-2.79,2.79-1.96,6.3-1.86,9.71
		c2.26-7.12,2.19-13.48,4.65,5.06c3.83,28.85-0.06,19.43-1.14,49.28c-0.88,24.42-3.68,33.86-2.27,41.22c0,0.21-0.31,0.41-0.41,0.52
		c-1.24,0.83-1.45-0.62-2.07-1.03c-1.86,1.24-6.61,2.27-10.54,2.27c-0.96-3.67,0.78-9.92-2.07-9.92c0,3.48,0,6.95,0,10.44
		c-1.45,1.14-3.51,0.93-4.34,2.38c-0.52,1.14,0.62,1.96,0.1,2.89c-7.65,6.26-1.24,5.59-4.55,14.46c-1.3,3.49-3.88,6.84-2.69,11.06
		c0.64,2.27-4.69,4.2-1.14,7.75c3.2,3.2,5.89,7.1,11.06,7.75c2.38,0.3,4.65,1.17,7.13,0.93c9.2-0.89,1.45,7.92,14.57,9.3
		c7.67,0.81,23.32,1.45,26.14-5.68c4.65-0.83,5.02-1.54,4.03-5.79c-1.35-5.78-4.5-6.15-10.64-14.05
		c-9.68-12.46-16.47-15.35-16.63-27.38c-1.45-1.55-3.31-0.31-4.86-1.45c0.1-4.55-1.21-8.99-0.62-13.64
		c1.87-14.71,1.92-39.85,4.34-50.11c2.83-11.99-1.45-41.95-3.62-45.56c-2.14-3.57,3.27-1.74,1.55-15.5
		c-0.67-5.38,2.79-9.51,3.2-14.26c11.91-1.43,8.69,5.18,10.44-11.57c1.22-11.72-2.9-53.53-3.72-57.03c1.55,0.1,2.38,1.03,3.31,1.65
		c12.32,8.21,29.43,4.52,38.54-6.61C341.88,303.24,331.31,271.28,308,265.74z M209.02,48.35c0.75-0.75,0.91,0.72,0.21,0.72
		C208.81,48.97,208.81,48.66,209.02,48.35z M251.69,40.6c1.45-0.62,2.17-1.34,3.41-0.62C254.17,41.33,253.24,40.71,251.69,40.6z
		 M260.78,11.47c-0.62,1.03-1.14,1.86-1.76,2.89C257.72,13.76,256.83,10.68,260.78,11.47z M253.03,5.06c0.82,0,1.56,1.3-1.03,2.89
		C252.21,6.72,252.52,5.89,253.03,5.06z M243.11,12.09c-0.1,0.72-0.41,1.14-1.24,0.93C241.88,12.19,242.29,11.88,243.11,12.09z
		 M243.73,18.91c-1.45,0-2.69-0.52-3.62-1.55C241.57,17.46,242.7,17.87,243.73,18.91z M239.5,14.36c0.21,0.93-0.31,1.14-0.72,1.45
		C238.16,14.88,238.67,14.67,239.5,14.36z M236.09,15.91c1.24-0.31,1.45,0.31,1.76,1.24C237.02,17.15,236.4,17.05,236.09,15.91z
		 M238.26,8.68c-1.03,0.83-1.96,1.65-3.1,2.58C235.57,8.47,235.57,8.47,238.26,8.68z M211.29,10.02c0.93-0.83,1.03,0.1,2.07-0.1
		C211.91,11.06,211.81,10.33,211.29,10.02z M223.17,25.52c1.03,2.07-0.52,2.27-0.93,3C222.04,27.38,221.83,26.35,223.17,25.52z
		 M221.42,9.2c-0.52,1.34-1.03,2.17-2.48,1.86C219.25,9.82,219.97,9.4,221.42,9.2z M222.24,16.01c-0.31,2.17-1.96,3.31-3.93,4.75
		C218.63,17.87,220.9,17.25,222.24,16.01z M217.49,32.03c0.1,1.34-0.72,1.76-1.76,2.27C215.22,32.55,215.94,32.13,217.49,32.03z
		 M215.94,41.95c0.41,0.83-0.1,1.24-0.72,1.65C214.7,42.67,215.43,42.36,215.94,41.95z M214.5,31.62c-0.21,1.24-1.45,0.83-1.76,1.86
		C212.08,32.15,212.83,30.79,214.5,31.62z M209.43,30.17c0.21,1.45-0.41,2.79-0.62,4.13C208.09,32.86,207.78,31.31,209.43,30.17z
		 M206.54,48.35c-1.24-1.65-3.31-3-0.93-5.06c1.24,0.1,1.76,1.03,2.38,1.86C207.68,46.29,206.02,46.8,206.54,48.35z M197.76,572.08
		c-1.34-0.52-1.96-0.83-2.69-1.03C196.41,570.32,196.41,570.32,197.76,572.08z M198.58,574.04c-0.83,0.72-1.34,0.62-1.86,0.21
		C197.03,573.32,197.55,573.53,198.58,574.04z M170.89,544.6c1.34-1.65,2.79-2.07,4.44-1.86c0.93,6.92,0.52,7.85-3.51,9.51
		c-1.86-0.52-1.14-2.58-2.48-3.82C171.62,547.8,171,546.15,170.89,544.6z M169.14,552.66c1.45,1.55,2.78,3.19,5.06,1.86
		c6.07-3.53,1.43-5.71,3.72-11.16c17.62-3.81,10.27-2.1,12.3-0.41c1.03,0.1,1.14-1.45,2.48-1.24c0,4.65-2.38,8.89-2.38,13.64
		c-4.13,0-7.85,0.62-11.78,1.14c0.1,3-0.62,5.79,1.24,8.37c2.48,1.34,5.57,0.34,8.16,1.24c2.47,0.86,5.48-1.14,7.65,1.34
		c-7.42-0.16-19.96-2.02-11.37,2.89c0.83,1.34-0.72,2.07-0.62,3.72c4.65,2.69,9.92,2.58,15.7,1.76c1.34,3.31,2.69,6.41,3.93,9.3
		c3.62,1.76,2.38,5.37,4.34,8.16c-12.19,1.14-23.66,4.96-34.72-1.65c-0.31-3.1-2.12-5.84-4.65-8.06c-3.25-2.86-3.95-9.22-0.83-12.4
		c4.05-4.12-0.19-5.29,1.14-9.2C169.54,558.95,168.21,555.86,169.14,552.66z M191.97,559.06c-2.07,0.72-3.51,0-4.86-0.52
		C188.67,558.54,190.22,557.72,191.97,559.06z M254.17,534.88c11.24-4.28,26-1.8,11.06-0.31c-2.07,0.21-4.44-0.62-6.1,1.65
		c-0.1,2.17,1.55,3.41,2.58,5.27c-0.41,1.14-0.83,2.48-1.34,3.93c-2.17-1.14-4.79,1.06-6.72-1.76c-0.42-0.61,0.21-1.65-0.21-2.89
		c-0.62,0.1-0.83,0.62-1.45,0.21C252,538.6,254.58,537.26,254.17,534.88z M288.47,558.96c0.93,0.52,1.65,1.14,2.27,2.38
		C286.57,560.5,284.17,560.39,288.47,558.96z M280.23,557.3c0.48-0.1,0.98-0.2,1.53-0.31C281.76,557.4,282.01,557.31,280.23,557.3z
		 M279.59,546.77c-0.31,1.34-1.03,0.52-1.86,1.14C278.35,546.56,278.97,546.56,279.59,546.77z M275.56,536.85
		c1.76,2.27,0.72,5.06,2.58,7.34c-3.51,0-6.92-1.96-9.51,0.83c-0.62,0.93,0.41,1.45,0.1,2.07c-1.65,1.03-3.72-0.83-5.27,0.93
		c0.62,2.69,3,1.86,4.96,2.69c-0.62,0.93-2.17,0.83-2.38,2.58c1.96,2.27,4.86,0.52,7.44,1.03c0,0.83-1.34,1.14-0.83,2.58
		c1.36,1.7,2.7,1.41,7.54,0.42c-1.04,1.44-3.51,1.34-3.72,3.82c1.45,1.45,3-0.1,4.44-0.1c3.1,3.51,6.92,2.07,11.06,1.65
		c2.89,5.68,9.92,8.58,11.88,15.08c-4.83,7.7-20.33,8.03-29.34,6.61c-2.58-0.41-4.7-1.14-4.96-4.55
		c-0.65-8.55-14.5,1.93-24.59-13.02c4.34-5.62-0.26-7.98,3.31-11.88c2.66-2.91,2.58-6.41,2.89-10.23c1.34,1.34,2.17,3.09,4.03,3.62
		c1.76,0.5,3.41-0.32,5.06-0.52c1.86-0.22,2.69-2.07,3.41-6.3C261.84,536.72,255.79,537.75,275.56,536.85z M272.66,547.08
		c-0.41,0.93-0.72,0.21-1.55,0.31C271.84,546.66,272.25,546.77,272.66,547.08z M261.3,104.15c4.76,1.74,10.13,2.48,14.36,5.48
		c11.37,8.05,16.03,18.89,13.74,32.86c-1.95,11.86,9.01,19.01,4.13,32.24c-1.87,5.06-0.07,10.43,0.21,15.6
		c0.71,13.39,3.93,8.4,3.93,24.69c0,10.23,1.36,6.46,2.48,9.82c0.1,8.16,3.1,16.01,1.86,24.28c-1.58,10.54,2.52,11.1,1.14,15.6
		c-4.03-0.1-7.75,1.65-11.57,2.48c-12.75-38.71-12.07-23.58-13.22-47.11c-0.35-7.12-3.1-13.84-3.31-21.18
		c-2.48-0.62-3.13-2.36-3.82-4.24c-4.17-11.33-5.64-20.7,2.27-32.34c9.56-14.07,5.67-25.72,6.72-30.58c0-0.21-0.41-0.52-0.62-0.83
		c-3.07,0.77,0.92,5.61-6.51,25.42c-2.89-0.31-3.19-3.01-4.24-4.55c-2.34-3.43-4.03-7.23-4.24-11.47
		c-0.33-6.85-2.82-5.25-6.82-28.72c-0.6-3.52-1.86-6.82-3.2-10.54C257.27,101.46,259.03,103.31,261.3,104.15z M278.45,276.9
		c-3.42-3.42-3.7-9.14-9.3-18.39c-2.69-4.44,1.78-9.73-3.51-11.16c-0.41-9.09-1.97-17.96-0.41-26.86
		c1.55-8.87,1.03-17.77,2.48-27.07c11.59,21.89,0.54,27.06,13.02,50.73c4.03,7.64,6.2,15.7,7.96,24.28
		C284.96,270.8,280.93,272.76,278.45,276.9z M281.76,275.66c-0.31,0.93-0.41,1.65-1.34,1.76
		C280.31,276.59,280.83,276.28,281.76,275.66z M196.83,86.79c7.51,30.76,18.77,53.92,20.25,49.49c0-2.37-0.62,1.02,13.22,4.55
		c14.55,3.7,28.8-11.11,19.73-41.84c-0.62-2.09-1.27-1.93-0.72-2.48c4.79,1.11,7.78,45.04,21.28,60.96c1.4,1.65,4.03-2.64-1.86,7.34
		c-1.96-0.31-3.62,0.62-5.17,1.96c1.45,0.62,2.69-0.52,3.93,0.21c-2.6,11.54-2.29,15.24-5.68,59.31c-2.34,1.4-10.64,1.55-0.21,1.55
		c-0.21,6.51,0.72,12.71,1.03,19.53c-28.1-3.31-56-0.31-84.31-1.86c3.82-21.74-8.34-24.7,10.23-23.56c22.71,1.4,0.86-1.92-9.92-0.93
		c-0.72-13.03,0.67-21.47-3.93-32.65c-1.06-2.57-0.31-4.24,1.76-4.86c-2.27-3.62,1.03-6.41,1.03-10.13c1.86,1.45,2.48,3.1,4.44,3.93
		c-0.62-2.48-1.96-4.34-3.31-6.2c0.93-4.86,1.65-9.92,1.24-15.08c1.14-0.72,2.58-0.93,3.41-2.07c2.07,1.65,4.03,3.31,6.82,3.2
		c-6.67-5.64-3.7-2.13,3.1-9.61c2.07-2.27,2.58-5.58,5.17-7.23c4.76-33.71-1.14-31.41-4.03-51.66
		C194.97,87.41,196,86.89,196.83,86.79z M257.68,252.72c-1.94-0.43-0.34,2.41-3.1,1.65c0.31-1.03,0.52-1.96,0.83-3
		c1.96-0.72,3.82,0.21,5.79,0c-0.1,1.34-1.45,0-1.86,1.14c-0.21,0.72,0,1.65-0.93,2.07C257.06,254.37,258.61,253.13,257.68,252.72z
		 M152.19,274c-0.1-0.83,0.41-1.14,1.34-1.76c-0.29,0.65-5.25,7.24-5.89,19.22c-0.3,5.6,3.56,26.54,22.73,33.99
		c4.94,1.24-0.63,1.61-6.92-1.96C142.96,311.85,142.26,282.37,152.19,274z M147.44,308.3c-1.96-1.14-1.45-3-1.76-4.44
		C146.51,305.1,147.03,306.45,147.44,308.3z M165.94,321.74c-15.36-9.42-20.83-30.97-12.91-45.36
		c17.32-31.48,62.12-1.62,49.39,32.75C196.74,324.43,179.89,330.3,165.94,321.74z M172.44,261.29c-3.1,0.31-6.1,1.86-9.51,2.58
		c-2.11-11.6,7.38-15.1,1.03-54.14c-0.28-1.73-0.73-8.55,1.86-11.37c2.58-2.38,4.55-5.48,6.82-8.37
		c1.76,10.75,2.07,21.39,2.07,31.93c0,27.84,1.99,19.34,1.55,22.63C170.7,248.01,177.66,254.9,172.44,261.29z M176.89,248.59
		c0.1,3.1,1.65,6.2-0.1,9.2C176.47,254.68,176.06,251.58,176.89,248.59z M177.61,261.6c0-4.34,3.62-5.79,6.2-8.27
		c0.52,0.52,0.1,1.76,1.24,2.48c0.72-0.62,0.52-1.76,0.93-2.58c1.96-1.24,3.1,0.21,4.13,1.45
		C187.11,270.7,191.39,263.97,177.61,261.6z M179.26,151.26c0.93,1.34,2.69,1.86,0.72,3.31
		C179.16,153.84,179.16,152.91,179.26,151.26z M142.28,185.77c0.41,3.72-0.31,6.92-1.24,10.33
		C140.31,192.79,140.73,189.49,142.28,185.77z M141.35,209.94c1.45,1.45,1.14,3.93,3.2,5.27c-0.96-8.99-2.3-14.68-0.62-20.35
		c1.04-3.52,1.06-23.24,1.03-23.97c2.07,3.72,2.38,7.75,2.58,11.88c0.52-3.31,1.36-6.52-0.72-9.82c-1.89-2.98,1.41-6.62-2.07-8.16
		c-0.49-8.98,3.69-12.11,6.1-19.84c2.69-8.62-4.29-12.48,2.07-31.1c0.21-0.62,0.41-1.45,0.93-1.86c3.51-2.8,6.31-6.6,10.85-8.27
		c11.76-4.31,2.91-1.99,26.35-13.43c11.88,45.72,4.08,51.45-7.34,60.96c-0.52-2.48-2.01-4.46-1.14-7.03
		c0.49-1.45-1.45-1.86-1.65-3.41c-6.68,8.62,0.67,11.82-7.75,41.02c-1.77,6.13-7.58,11.84-8.06,15.5c-0.93-2.48,0-4.96-0.1-7.85
		c-1.76,2.27-1.47,4.74-2.17,6.92c-3.35,10.45,0.16,14.58,1.86,38.12c0.23,3.13-4.57,25.08-4.65,29.65c-0.03,1.6-0.4,0.33-9.09,7.44
		C145.56,254.9,137.41,227.11,141.35,209.94z M131.01,284.64c-9.09,23.14-3.41,38.64,18.08,49.8
		C127.41,329.67,117.35,302.59,131.01,284.64z M161.8,332.79c-21.92,5.87-41.47-22.69-30.89-44.22c3.5-7.13,9.09-11.99,18.08-12.91
		c-4.34,7.13-5.26,14.36-4.55,22.11c0.31,3.41-3.04,9.65,1.96,11.68c4.75,1.93,4.5,8.82,16.01,15.39
		C162.22,327.63,162.01,330.11,161.8,332.79z M226.79,364.92c0.93,1.34,1.55,2.48,1.14,3.62C225.24,368,226.39,367.32,226.79,364.92
		z M286.51,390.55c-11.47-0.52-22.93,1.19-34.3,0.52c-5.58-0.33-10.97-2.42-16.43-3.72c-6.38-1.52-5.07,1.15-7.85-18.7
		c2.35,2.22,2.09,9.92,4.96,15.29c-1.14-8.58-3.62-16.01-5.89-22.94c0.83-1.34,1.96-0.72,2.38-1.86c3.31,5.27,5.06,11.06,8.16,16.22
		c-5.92-22-11.9-8.2-3.43-46.93c-3.81,5.54-11.25,26.47-12.07,46.41c-0.19,4.55-2.27,8.37-3.41,12.6
		c-18.49,2.27-36.78,2.17-55.38,3.2c4.19-18.15-2.19-16.97,0.31-36.37c1.5-11.64,1.3-22.63,2.07-28
		c40.55,11.35,54.42-39.35,23.66-60.55c3.79-14.74,3.29-10.95,1.03-11.15c0,0.03,0,0.06,0,0.09c-0.15-0.15-0.12-0.09,0-0.09
		c0.05-3.28,2.7-1.46,4.24-1.87c-0.31-1.86-1.24-1.67-2.48-1.24c-1.45,0.5-1.86-1.14-3.1-1.65c-1.24,3.62-3.62-0.72-5.37,0.83
		c-0.62-0.62,0.21-2.17-1.65-2.27c-1.34,1.45-0.41,3.93-2.38,5.58c-0.62-2.17-0.52-4.24-0.21-6.72c24.9,1.86,49.9,0.83,74.8,3.41
		c-0.21,1.24-0.41,2.38-0.62,3.62c-1.96,0.41-2.89-0.62-3.41-2.17c-0.93,0.21-0.72,1.45-1.45,1.76c-2.38,0.83-1.65-1.86-2.79-2.69
		c-2.25,4.12,2.52,4.24,3.62,5.06c-0.15,7.32,0.44,10.36,4.75,14.67c-1.11-2.21-3.08-9.65-2.48-14.36c0.83-0.93,1.86-0.62,2.79-0.31
		c0.83,3.72,3.82,7.03,8.27,9.09c-1.76-3.31-4.86-5.48-5.79-8.89c1.86-1.34,3.51,0.21,5.37-0.41c2.41-7.84,1.29-2.51,2.27-1.65
		c0.62,0.41,0.83-0.21,1.55-0.31c-1.24,3,1.24,4.85,2.38,6.72c2.07,3.41,2.07,6.92,2.89,10.64c1.55-1.03,0.21-2.48,0.62-3.93
		c3.41,3.72,1.86,8.89,4.55,12.71c-8.06,15.81-2.27,29.45,7.03,43.29C280.55,340.52,289.74,341.06,286.51,390.55z M278.76,279.27
		c4.24-6.64-2.1,5.09-2.48,12.81c-0.69,14.16,6.61,31.1,23.87,37.4C290.02,331.62,262.7,304.43,278.76,279.27z M330.63,312.95
		c-11.25,28.91-52.9,16.33-52.9-17.98c0-23.22,20.84-34.76,38.02-24.69C329.89,278.57,336.62,297.56,330.63,312.95z"/>
	<path d="M239.09,42.57c-0.31-2.89,2.58-1.34,3.72-2.48c-1.01-6.06-12.29-4.17-15.91-0.31c3.72-3.1,7.23-1.03,11.47-0.1
		c-3.72,1.03-7.03,0.52-9.51,2.58C232.27,42.77,235.57,43.19,239.09,42.57z"/>
	<path d="M591.51,42.26c-0.23-5.14-6.86-3.6-8.68-3.93c-3.1-0.72-5.17,0.93-7.54,2.79c2.38,0.62,3.41-1.45,5.48-1.45
		c1.14,2.07,4.24,0.1,6.2,2.27c-3.51,0-6.61,0.52-9.51,2.07C594.27,47.17,583,42.76,591.51,42.26z"/>
	<path d="M258.41,443.76c-1.93,1.93,0.97,3.86,0.83,23.04C259.18,473.97,265.58,450.93,258.41,443.76z"/>
	<path d="M606.59,443.45c0.49,0.98-0.05,3.49,1.76,25.21c0.41,0,0.72-0.1,1.03-0.1C610.83,459.98,611.86,451.4,606.59,443.45z"/>
	<path d="M174.72,428.47c-2.69,2.58-4.86,5.27-5.37,9.82c2.07-2.89,2.58-5.89,5.58-7.96c-1.52,6.84-4.62,8.76-4.34,13.33
		c1.25,20.57-1.52,14.1,0.31,16.53c4.92-10.45-2.48-15.6,3.72-24.49c1.23-1.76,1.55-4.03,2.27-6.1
		C175.96,429.29,175.65,428.36,174.72,428.47z"/>
	<path d="M198.27,398.3c-12.11,16.15-18.54,8.93-23.35,9.3C183.59,415.86,197.36,406.81,198.27,398.3z"/>
	<path d="M547.18,399.23c-3.72,5.89-8.47,9.82-14.88,11.88c-2.48-0.62-5.27-1.24-7.96-1.96
		C529.13,417.74,548.15,408.6,547.18,399.23z"/>
	<path d="M226.58,76.56c-2.79-3.82-6.92-5.89-10.64-8.37c-1.34-3.82-2.89-7.54-2.38-12.19c-4.8,3.08,0.4,8.68-1.24,11.37
		C217.08,70.67,221.21,74.39,226.58,76.56z"/>
	<path d="M564.54,69.95c-1.24-4.03-2.89-7.65-2.79-11.78c-3.41,3.51,0.31,7.23-0.41,11.06C575.72,80.8,582.24,81.58,564.54,69.95z"
		/>
	<path d="M524.14,431.15c0-3.54-5.58,3.78-6.2,9.61c2.04-3.16,2.47-6.72,5.46-8.4c-0.24,2.41-1.17,4.52-2.25,6.64
		c-4.59,8.98,1.02,11.9-1.96,21.9c0,2.55,3.52-2.29,1.86-11.26c-1.32-7.14,0.31-7.51,4.44-18.08
		C525.07,430.95,524.56,431.26,524.14,431.15z"/>
	<path d="M231.03,111.69c-3.31-3.2-7.85-3.62-12.19-4.86c3.93,2.17,8.45,3.23,11.78,6.61c1.6,1.63,7,0.67,6.51-2.58
		C235.06,111.07,233.2,112.31,231.03,111.69z"/>
	<path d="M185.15,432.49c-1.34-5.48-2.79-10.95,0.83-16.43C180.71,417.72,180.4,427.85,185.15,432.49z"/>
	<path d="M530.55,426.09c-1.23,2.9,0.83,5.89,3.2,8.58c0.31-3.31-1.35-5.68-1.45-8.37c-0.11-3,1.03-5.48,1.65-8.37
		C530.24,419.48,531.69,423.41,530.55,426.09z"/>
	<path d="M604.94,414.93c3.51-0.43,6.7-2.09,9.92-3.41c1.54-0.63,2.17-2.38,1.34-4.55c-1.06,4.66-4.67,3.91-11.88,5.79
		C601.61,413.47,602.86,415.18,604.94,414.93z"/>
	<path d="M259.75,410.18c-5.22,1.21-5.68,1.11-5.79,2.17c1.26,2.52,7.57-0.53,11.98-2.38c1.66-0.7,2.27-2.48,2.07-4.96
		C264.61,409.04,264.61,409.05,259.75,410.18z"/>
	<path d="M554.21,103.22c6.67,2.89,18.27,8.41,19.22,6.51C552.66,101.55,554.65,101.88,554.21,103.22z"/>
	<path d="M614.24,452.02c0-6.97,6.27-7.93,4.34-14.26c-1.14,3.62-3.23,6.55-4.96,9.71c-1.09,1.99-0.52,4.13-0.52,6.3
		C613.82,453.26,614.24,452.64,614.24,452.02z"/>
	<path d="M265.33,450.16c0.72-7.74,5.98-6.97,4.55-13.84c-1.65,2.17-1.86,4.85-3.62,6.82c-2.48,2.79-2.58,5.99-2.17,9.71
		C264.81,451.92,265.24,451.09,265.33,450.16z"/>
	<path d="M240.74,71.6c2.79,1.55,5.37,0.52,8.16-0.1c-0.83-3-3-2.69-4.75-2.89C242.29,68.39,241.36,69.74,240.74,71.6z"/>
	<path d="M585.93,66.85c0,0.52,0,1.03-0.1,1.65c4.65,1.03,9.2-0.41,13.74-1.24C595.02,65.81,590.47,67.88,585.93,66.85z"/>
	<path d="M241.46,65.5c-1.55,0.21-3.31-1.24-4.96,1.55c5.17,0.41,9.71-0.83,14.26-1.24C249.69,64.13,249.08,64.49,241.46,65.5z"/>
	<path d="M589.75,73.56c2.79,0.93,5.27,0.62,8.37-0.72C594.3,69.22,591.2,69.64,589.75,73.56z"/>
	<path d="M585,114.48c1.12-1.96,1.62-1.52-0.72-4.65C574.78,109.83,575.23,108.37,585,114.48z"/>
	<path d="M603.7,431.46c-0.88,1.33-0.53,1.6,2.89,11.88C606.59,439.21,605.97,435.08,603.7,431.46z"/>
	<path d="M222.86,83.07c-6.77-11.41-5.88-10.17-7.03-9.4C218.47,77.88,221.26,83.87,222.86,83.07z"/>
	<path d="M564.64,75.22c3.39,5.89,5.8,10.39,7.13,9.51C564.69,73.03,565.83,74.43,564.64,75.22z"/>
	<path d="M223.28,89.78c2.07,3,0.62,7.03,3.1,10.02C226.17,92.99,225.65,91.23,223.28,89.78z"/>
	<path d="M571.67,91.54c2.27,3,1.24,6.92,3.62,10.54C574.46,92.47,574.25,91.85,571.67,91.54z"/>
	<path d="M254.69,429.71c0,3.31,1.03,6.3,2.79,9.09C256.86,435.7,257.17,432.29,254.69,429.71z"/>
	<path d="M599.05,58.58c-4.55-1.14-6.3-0.52-6.2,2.58C594.5,58.89,597.4,61.48,599.05,58.58z"/>
	<path d="M250.14,57.14c-3.1-1.55-5.48-0.93-6.2,1.96C245.59,57.14,248.69,59.82,250.14,57.14z"/>
	<path d="M594.4,403.46c3.41,1.65,7.13,1.55,10.75,1.65C601.63,404.6,598.22,403.26,594.4,403.46z"/>
	<path d="M266.57,419.37c-2.48,0.1-3.93,1.65-6.2,2.07C263.47,423.51,265.23,422.89,266.57,419.37z"/>
	<path d="M614.96,421.03c-1.96,0.41-3.62,1.55-5.89,2.48C613,425.06,614.65,424.23,614.96,421.03z"/>
	<path d="M189.49,477.75c-0.1-3,0.72-5.99,0.21-9.09C188.36,471.65,188.36,474.65,189.49,477.75z"/>
	<path d="M259.75,475.89c0.21-2.69,2.27-5.37,0.21-8.27C259.13,470.31,258.72,473.1,259.75,475.89z"/>
	<path d="M538.5,470.21c-1.65,4.75-1.65,6.82,0,9.3C538.5,476.51,538.5,473.62,538.5,470.21z"/>
	<path d="M245.08,401.81c4.03,1.55,7.44,1.76,10.95,1.55C252.62,403.05,249.42,401.29,245.08,401.81z"/>
	<path d="M226.89,102.6c-1.14,2.07-0.62,3.62,0.62,5.48C228.86,106.01,228.24,104.35,226.89,102.6z"/>
	<path d="M238.78,110.24c2.27,0.31,4.55,0.21,7.34-0.93C243.32,109.42,240.84,108.49,238.78,110.24z"/>
	<path d="M608.25,477.54c1.34-2.27,0.93-4.86,1.03-7.44C607.42,472.38,608.14,474.96,608.25,477.54z"/>
	<path d="M576.84,109.21c0.41-2.27,0.1-3.62-1.45-5.17C574.87,106.11,574.46,107.66,576.84,109.21z"/>
	<path d="M199.51,403.57c-1.14,2.38,0.83,3.31,1.76,4.55C200.86,406.66,201.68,404.6,199.51,403.57z"/>
	<path d="M604.32,515.46c0,1.76,0,3.72,0,5.58C605.35,517.63,605.35,517.22,604.32,515.46z"/>
	<path d="M548.84,405.32c-1.34,1.96-1.34,1.96,1.45,4.34C549.56,408.42,550.08,406.77,548.84,405.32z"/>
	<path d="M231.54,121.71c0,3.1,0,3.1,1.03,4.44C232.68,123.98,232.68,123.98,231.54,121.71z"/>
	<path d="M255,508.64c0.31-1.45,0.62-2.89-0.41-4.86C254.17,505.85,253.86,507.3,255,508.64z"/>
	<path d="M603.91,510.81c0.21-1.96,0.31-3.2-0.21-5.27C602.67,507.61,602.67,508.95,603.91,510.81z"/>
	<path d="M256.13,513.5c-0.72,2.38-1.03,4.75,0,7.03C256.13,518.25,256.13,515.87,256.13,513.5z"/>
	<path d="M586.96,124.4c0.52-1.76,1.34-3.62,0-5.58C586.96,120.68,586.96,122.54,586.96,124.4z"/>
	<path d="M593.99,106.52c-1.24,0.62-2.79,0.31-4.24,1.86C594.89,107.17,593.99,107.65,593.99,106.52z"/>
	<path d="M524.14,529.51c0.62-0.93,0.72-1.96,0.52-3.31C523.63,527.34,523.32,528.38,524.14,529.51z"/>
	<path d="M538.81,465.76c0.52-1.55,1.34-2.69,0.72-4.24C539.02,462.87,538.3,463.9,538.81,465.76z"/>
	<path d="M514.02,458.22c0.09-0.95,0.19-3.41,0-3.41C514.02,455.64,514.02,457.46,514.02,458.22z"/>
	<path d="M190.42,460.6c-0.41,1.24-0.62,2.17-0.93,3.1C190.42,463.08,191.15,462.15,190.42,460.6z"/>
	<path d="M165.63,451.3c0-0.83,0-1.76,0.1-2.69C165.57,448.61,165.63,448.29,165.63,451.3z"/>
	<path d="M523.73,518.25c0.1,0.72,0.21,1.34,0.31,1.96C524.14,519.59,524.97,518.97,523.73,518.25z"/>
	<path d="M175.23,527.96c0.83-0.93,0.62-2.07,1.03-3.72C174.61,525.59,174.82,526.72,175.23,527.96z"/>
	<path d="M225.03,86.27c-0.72-0.83-1.14-1.45-1.96-0.83C223.07,86.58,223.48,86.99,225.03,86.27z"/>
	<path d="M585.62,92.37c-1.34,0.1-1.86,0.62-2.17,1.76C584.79,94.12,585,93.4,585.62,92.37z"/>
	<path d="M607.21,481.78c0.33-1.34-1.39-1.19-0.62,0.62C607.01,482.09,607.21,481.98,607.21,481.78z"/>
	<path d="M573.84,88.03c-0.83-0.83-1.14-1.55-2.07-0.52C571.98,88.65,572.6,88.65,573.84,88.03z"/>
	<path d="M175.23,517.22c0,0.72,0,1.34,0,2.17C176.06,518.23,175.23,516.28,175.23,517.22z"/>
	<path d="M236.4,90.92c-0.58-0.46-2.19,0.67-1.14,1.55C235.88,92.16,236.5,91.85,236.4,90.92z"/>
	<path d="M193.11,450.68c0,0.41,0,0.72,0,1.03C193.42,451.3,193.52,450.99,193.11,450.68z"/>
	<path d="M546.25,380.01c1.67-1.88,2.14-15.87,13.64-32.24C573.36,328.6,545.2,358.93,546.25,380.01z"/>
	<path d="M557.72,275.86c1.55-6.82,1.86-13.64,0.83-20.56C555.86,262.02,558.55,269.04,557.72,275.86z"/>
	<path d="M630.25,384.55c0.31-5.37-0.62-7.13-3.72-7.13C621.65,377.43,619.22,386.46,630.25,384.55z M628.91,381.66
		c-3.53,0-1.74,0.66-1.96,1.76C621.22,384.65,625.82,373.94,628.91,381.66z"/>
	<path d="M587.06,322.15c5.58,7.44,12.81,13.02,20.77,17.67C600.91,334.03,593.68,328.45,587.06,322.15z"/>
	<path d="M612.69,378.56c-1.53-1.88-3.72-1.03-5.79-1.03c0,2.79-0.52,5.17,0.31,7.44c1.86,0,0.41-2.38,2.07-2.27
		c1.55,0.21,1.55,2.79,3.51,2.17c0.21-0.93-0.83-1.34-0.93-2.48C612.79,381.35,613.94,380.1,612.69,378.56z M608.14,380.53
		c1.03-2.27,2.07-1.34,3.51-0.93C610.11,380.94,610.11,380.94,608.14,380.53z"/>
	<path d="M617.75,385.17c5.49-0.26,5.25-8-0.31-7.75C612.08,377.66,612.55,385.42,617.75,385.17z M617.65,378.87
		c2.92,0,3.34,4.75-0.1,4.75C614.39,383.17,614.52,378.87,617.65,378.87z"/>
	<path d="M590.06,358.83c-1.34-7.03-5.48-13.12-6.61-20.25C582.21,341.68,584.38,348.29,590.06,358.83z"/>
	<path d="M562.68,257.06c-0.83,5.27,2.07,10.02,2.17,15.19c0.31-0.1,0.72-0.1,1.03-0.21C563.5,255.33,563.84,256.67,562.68,257.06z"
		/>
	<path d="M537.68,268.01c3.82-14.14,3.69-11.45,1.55-11.99C538.3,259.85,537.27,263.88,537.68,268.01z"/>
	<path d="M567.85,366.89c1.45-3.51,2.69-7.13,2.07-11.06C568.78,359.45,567.64,363.06,567.85,366.89z"/>
	<path d="M613.62,288.26c-1.34-3.51-2.79-7.03-4.13-10.54C609.28,281.96,611.45,285.16,613.62,288.26z"/>
	<path d="M583.86,269.77c0-4.24,0-8.58,0-12.81C582.93,261.29,583.45,265.53,583.86,269.77z"/>
	<path d="M523.73,346.22c-1.03,3.51,0.1,6.72,1.45,9.92C525.18,352.84,523.42,349.63,523.73,346.22z"/>
	<path d="M555.97,254.37c-2.27-0.72-4.03,0.31-5.89,0.83C552.04,255.92,553.9,255.51,555.97,254.37z"/>
	<path d="M520.11,383.73c0.29,0,0.21,0.61,0.21-5.48C520.04,377.97,520.11,377.19,520.11,383.73z"/>
	<path d="M571.36,255.41c-2.48,0-4.13,0-6.2,0C568.16,256.44,568.16,256.44,571.36,255.41z"/>
	<path d="M589.85,253.13c-1.24,0.52-1.03,1.24-0.52,2.17C590.27,254.68,590.58,254.06,589.85,253.13z"/>
	<path d="M595.02,304.39c0.52,0.92,1.34,0.82,2.27,1.02c-0.5-1.19-1.37-1.15-2.18-1.04c-0.72-1.13-1.86-1.44-3.09-1.33
		C592.93,303.84,593.74,304.54,595.02,304.39z"/>
	<path d="M585.62,253.03c-1.58,1.06,0.11,3.16,0.62,1.14C586.24,253.75,586.45,253.13,585.62,253.03z"/>
	<path d="M567.23,370.71c0.1-0.52,0.1-0.93,0.21-1.34C566.92,369.78,566.61,370.19,567.23,370.71z"/>
	<path d="M563.3,341.57c0.93-0.31,1.34-0.93,1.34-2.17C563.71,340.13,563.2,340.75,563.3,341.57z"/>
	<path d="M575.39,327.52c1.63-0.51,2.46-1.32,3.28-2.23c0.05,0.1,1.79-0.33,1.58-1.59C579.07,323.57,576.42,326.14,575.39,327.52z"
		/>
	<path d="M581.8,254.06c0.52,0.62,0.93,0.72,1.45,0.31C582.83,253.86,582.42,253.13,581.8,254.06z"/>
	<path d="M520.84,375.05c0.14-0.14,0.1,0,0.1-0.62C520.8,374.43,520.84,374.33,520.84,375.05z"/>
	<path d="M521.56,371.23c0,0.66,0.21,0.67,0.21-0.21C521.66,370.81,521.56,370.92,521.56,371.23z"/>
	<path d="M633.87,134.42c2.58,3,9.51,3.93,12.81,1.76C642.65,134.73,638.62,133.7,633.87,134.42z"/>
	<path d="M586.76,226.17c3.41-4.03,1.34-8.58,1.14-12.91C585.52,217.38,586.96,221.83,586.76,226.17z"/>
	<path d="M530.34,165.1c-1.34,4.34,1.45,7.44,7.13,7.85C533.75,171.1,531.79,168.41,530.34,165.1z"/>
	<path d="M586.34,235.15c-0.99-2.15,1.97-11.75-4.03,7.75c2.05,0.68,1.79-4.7,3.93-7.59c0.29,3.49-1.65,6.99-0.31,10.69
		C588.12,239.24,585.97,235.65,586.34,235.15z"/>
	<path d="M588.41,197.03c-1.17,0-0.83-1.9-0.83,12.6C588.1,205.4,588.92,201.27,588.41,197.03z"/>
	<path d="M606.49,153.02c-3.62,0.93-6.72,0.93-9.82,0.93C599.67,155.7,603.29,155.29,606.49,153.02z"/>
	<path d="M589.44,206.74c3.31,2.07,4.75,2.07,8.78,0.52C591.36,206.85,591.4,205.76,589.44,206.74z"/>
	<path d="M583.86,205.81c-2.79-1.55-5.79-0.93-8.58-1.14C578.08,205.61,580.76,206.85,583.86,205.81z"/>
	<path d="M650.09,135.66c5.48-0.72,7.34-1.86,7.75-4.65C655.88,133.7,652.67,133.7,650.09,135.66z"/>
	<path d="M589.23,175.54c-0.31,2.17-2.07,4.24-0.93,7.03C590.06,180.09,589.54,177.81,589.23,175.54z"/>
	<path d="M527.24,173.37c-0.62,3.2,1.65,4.24,3.31,5.58C529.62,176.99,529.31,174.92,527.24,173.37z"/>
	<path d="M589.75,166.55c0,1.45-0.1,2.79-0.21,4.24C591.3,169.55,591.2,168,589.75,166.55z"/>
	<path d="M667.96,128.12c-1.76-0.41-3.1-2.27-5.17-1.65C664.24,127.5,665.9,128.43,667.96,128.12z"/>
	<path d="M578.49,217.8c1.24,0.52,2.38,1.65,4.03,0.31C580.97,217.28,579.73,217.38,578.49,217.8z"/>
	<path d="M532.51,226.06c0,0.15-0.37,0.1,3.31,0.1C535.67,226.02,536.19,226.06,532.51,226.06z"/>
	<path d="M564.85,205.3c0.93,1.34,2.07,1.45,3.51,0.72C567.33,204.78,566.3,204.88,564.85,205.3z"/>
	<path d="M604.11,104.25c-0.93,0.1-2.17-0.62-2.79,0.93C602.56,105.28,603.39,105.18,604.11,104.25z"/>
	<path d="M628.7,133.59c1.14,0.31,2.17,0.52,3.51-0.1C630.67,132.87,629.63,133.18,628.7,133.59z"/>
	<path d="M531.48,181.64c-0.31,1.34,0.62,1.65,1.76,2.07C533.03,182.57,532.41,182.05,531.48,181.64z"/>
	<path d="M537.99,173.99c0.13,1.38,2.2,2.66,2.58,1.14C539.95,174.61,539.43,173.78,537.99,173.99z"/>
	<path d="M665.59,136.17c1.24,0.41,1.86,0.1,2.69-0.41C667.24,135.35,666.52,135.35,665.59,136.17z"/>
	<path d="M566.71,151.78c-0.83-0.52-1.34-0.52-1.86-0.21C565.26,152.19,565.78,152.4,566.71,151.78z"/>
	<path d="M542.33,175.33c-0.1,1.34,0.62,1.65,1.86,1.65C544.08,175.85,543.36,175.44,542.33,175.33z"/>
	<path d="M589.34,192.79c-0.62,0.72-0.52,1.34-0.1,1.96C589.75,194.03,589.75,193.41,589.34,192.79z"/>
	<path d="M600.7,206.85c0.83,0.62,1.34,0.62,2.07,0C601.94,206.12,601.43,206.23,600.7,206.85z"/>
	<path d="M556.79,149.3c0.21,0.83,0.62,1.24,1.55,0.72C558.03,149.4,557.72,148.78,556.79,149.3z"/>
	<path d="M613.1,153.02c0.52,0.41,0.93,0.62,1.76,0C614.24,152.4,613.62,151.98,613.1,153.02z"/>
	<path d="M539.85,137.72c1.56-4.38-16.03-9.11-18.18-20.97c-0.11-0.62-0.31-1.34-1.45-1.14c-0.93,2.27,0.72,4.03,1.14,6.61
		c-3.31-1.03-6.1-2.79-9.51-3c0.93,1.45,2.17,1.85,3.31,2.17C525.6,124.39,537,138.38,539.85,137.72z"/>
	<path d="M520.22,115.41c0.1-2.27,1.24-3.41,0.83-5.58c-6.2-3-11.37-7.85-16.12-13.22C504.93,101.1,517.03,110.85,520.22,115.41z"/>
	<path d="M492.11,114.99c4.86,3,15.39,3.51,19.01,0.62C504.93,115.72,498.73,115.1,492.11,114.99z"/>
	<path d="M484.26,112.93c-11.37,1.82-7.4,0.01-12.5,0.52c6.61,2.89,13.02,0.83,19.32,1.65
		C489.22,113.03,486.64,112.55,484.26,112.93z"/>
	<path d="M512.26,126.36c-2.89,0.83-5.06,2.69-7.44,4.55C507.82,130.18,510.3,128.74,512.26,126.36z"/>
	<path d="M460.4,92.57c1.76-0.52,3.62-0.83,5.17-2.69C462.98,89.78,461.53,90.82,460.4,92.57z"/>
	<path d="M458.12,87.82c-0.31,1.34-0.62,2.79-0.83,4.13C458.74,90.71,459.36,89.47,458.12,87.82z"/>
	<path d="M446.65,110.35c-1.55-0.72-3-1.76-5.37-1.65C443.24,109.83,444.79,110.76,446.65,110.35z"/>
	<path d="M503.38,121.4c-1.24,0.21-2.58,0-3.82,1.45C501.41,122.85,502.45,122.43,503.38,121.4z"/>
	<path d="M427.75,70.77c-0.21,1.24,0.31,1.96,1.24,3.2C428.88,72.53,428.99,71.6,427.75,70.77z"/>
	<path d="M508.34,119.85c1.14,0.41,1.86,0.41,2.38-0.72C509.68,118.61,508.96,118.82,508.34,119.85z"/>
	<path d="M458.33,96.29c0.83-0.31,1.65-0.41,1.55-1.76C458.85,94.85,458.23,95.16,458.33,96.29z"/>
	<path d="M526.93,134.42c-0.21,0.93-0.1,1.65,1.03,2.38C527.86,135.76,528.07,134.83,526.93,134.42z"/>
	<path d="M425.99,66.74c-0.1,0.83-0.31,1.45,0.83,1.34C426.92,67.57,427.02,67.05,425.99,66.74z"/>
	<path d="M505.03,96.5c-0.83-0.1-1.03-1.96-2.27-0.83C503.27,96.6,504.1,96.6,505.03,96.5z"/>
	<path d="M432.5,102.6c0.1,0.62,0.52,0.72,1.76,1.03C433.43,102.8,433.22,102.18,432.5,102.6z"/>
	<path d="M512.37,126.36c0.52,0.1,0.93,0,1.03-1.55C512.98,125.84,512.16,125.43,512.37,126.36z"/>
	<path d="M450.89,65.61c-29.49-0.4-27.79-65.43-4.34-58.79c11.44,3.24,12.91,14.74,15.81,17.98c-7.74-23.92-22.99-22.72-27.9-15.7
		C414.48,37.65,440.4,74.35,450.89,65.61z"/>
	<path d="M452.13,24.69c0.93-0.72,0.52-1.03-0.41-1.24c0.1,0.41,0.1,0.83,0.21,1.24c-9.51-2.38-8.27,12.57-2.58,15.81
		c-1.03,0.21-1.65-0.21-1.86-1.03c-2.05,2.05,5.07,4.65,8.27,1.14C459.88,36.06,457.81,26.97,452.13,24.69z M448.72,37.92
		c-4.47-4.58-1.5-16.29,3.51-10.23C457.17,32.84,453.33,42.63,448.72,37.92z M452.34,41.12c1.34-1.34,2.38-2.07,3.2-3.1
		C455.44,39.57,454.71,40.6,452.34,41.12z"/>
	<path d="M465.35,41.33c-0.31-1.34,0.62-2.89-0.72-4.24c-0.69,0.46-0.77,0.79,0,4.24C464.94,41.33,465.15,41.33,465.35,41.33z"/>
	<path d="M465.15,33.89c0.31-1.34-0.21-2.07-0.93-3.62C464.11,32.13,463.91,33.17,465.15,33.89z"/>
	<path d="M463.7,29.14c0.52-1.03,0-1.76-0.72-2.48C462.77,27.48,462.46,28.52,463.7,29.14z"/>
	<path d="M453.89,65.19c0.93-0.21,1.76-0.62,2.79-1.76C455.13,63.64,453.89,63.44,453.89,65.19z"/>
	<path d="M450.99,65.71c0.94,0.28,1.7-0.29,2.53-0.55C452.66,65.17,451.62,64.17,450.99,65.71z"/>
	<path d="M453.78,65.09c-0.57,0.14-0.04,0.06,0.1,0H453.78z"/>
	<path d="M755.68,65.19c0.62,0.83,1.45,0.93,2.38,1.14c-5.63-5.63-21.7-8.09-21.7,7.34c0,22.6,23.31,39.11,33.58,31.93
		C741.43,112.5,721.14,53,755.68,65.19z"/>
	<path d="M753.51,75.22c-3.39,2.95-0.26,9.06,3.72,10.95c0.93,0.52,1.76,1.03,2.48,1.76c0.98-2.16,3.57,0.91,4.75-3.2
		c1.09-3.78-1.56-5.89-1.65-6.3C762,74.65,755.62,73.38,753.51,75.22z M762.81,80.38c0.55,1.93,1.81,4.51-0.83,6.1
		C763.02,84.52,763.22,82.55,762.81,80.38z M758.68,77.59c-0.51,0.26-1.13-0.93-1.96-0.72c-4.14,2.07-1.02,5.29,2.48,6.51
		c-0.31-2.17-3.62-2.58-2.27-5.27c0.41-1.24,1.86,2.48,2.17-0.1c3.14,1.57,3.88,7.37,0.72,7.44c-3.74,0.08-8.24-5.68-5.68-9.2
		C755.89,75.63,757.65,75.53,758.68,77.59z"/>
	<path d="M760.33,68.29c-0.62-1.24-1.34-1.76-2.38-1.96C758.27,67.47,759.09,67.88,760.33,68.29z"/>
	<path d="M765.19,72.53c0.21-0.62-0.41-0.72-0.72-0.93C764.46,72.22,764.67,72.53,765.19,72.53z"/>
	<path d="M770.25,79.45c0.21,0.83,0,1.45,1.24,1.55C771.28,80.38,771.08,79.87,770.25,79.45z"/>
	<path d="M412.46,42.46c-0.21-4.55,2.48-8.89,0.62-13.64C413.16,30.76,410.8,39.3,412.46,42.46z"/>
	<path d="M408.32,41.22c0.72,1.14,1.24,1.14,1.86,0.21C409.56,40.5,409.05,41.02,408.32,41.22z"/>
	<path d="M234.58,327.57c3.25-4.5-1.09-3.47,1.82-11.93c3.32-9.68,1.22-24.8-0.83-24.59c1.64,12.69,1.88,15.41,0,19.32
		c0-17.42-1.14,2.73-1.14,4.75c0,1.96-1.19,3.7-0.62,5.68C235.27,325.84,233.72,328.76,234.58,327.57z"/>
	<path d="M278.14,377.43c-4.78-0.1-7.43,9.01,3.62,7.13C282.17,379.29,281.24,377.49,278.14,377.43z M278.55,381.66
		c-0.72,0.41,0.1,1.24-0.31,1.76c-1.24,0.41-2.07-0.21-2.38-1.24c-1.45-3.49,3.98-5,4.55-0.83
		C279.79,382.07,279.17,381.35,278.55,381.66z"/>
	<path d="M209.02,274.11c1.45-6.82,1.55-13.64,1.34-20.56c-0.52,0-0.93,0-1.45-0.1C207.57,260.36,209.23,267.29,209.02,274.11z"/>
	<path d="M269.36,377.32c-5.78,0-5.39,7.74-0.31,7.85C274.66,385.3,274.77,377.32,269.36,377.32z M269.25,383.62
		c-3.35-0.24-3.24-4.75-0.21-4.75C272.22,378.87,272.53,383.41,269.25,383.62z"/>
	<path d="M238.16,320.29c5.68,7.65,13.12,13.22,21.18,17.98C252.21,332.38,244.97,326.59,238.16,320.29z"/>
	<path d="M264.19,378.56c-1.53-1.88-3.72-0.93-5.79-1.03c0,2.69-0.52,5.17,0.31,7.44c1.86,0,0.52-2.38,2.17-2.27
		c1.55,0.21,1.55,2.79,3.72,2.17c-0.41-0.83-0.83-1.55-1.24-2.38C264.3,381.25,265.45,380.1,264.19,378.56z M260.06,380.01
		c0.87-1.84,1.86-1.24,3.1,0C261.7,381.95,259.73,380.71,260.06,380.01z"/>
	<path d="M241.77,358.52c-1.65-7.85-5.79-14.15-7.23-21.39C233.3,339.51,236.71,350.05,241.77,358.52z"/>
	<path d="M213.67,255.41c-0.41,5.17,2.07,9.92,2.58,14.98c0.31,0,0.52-0.1,0.83-0.1C214.64,253.25,215.28,255,213.67,255.41z"/>
	<path d="M218.63,366.68c1.65-4.03,3.1-8.06,2.48-12.4C219.76,358.31,218.83,362.44,218.63,366.68z"/>
	<path d="M235.26,254.79c-1.34,3.1-0.72,6.41-0.52,9.51C235.06,261.09,234.95,257.89,235.26,254.79z"/>
	<path d="M176.58,353.77c-0.62-2.69-1.24-5.37-1.96-8.68C173.99,348.6,175.13,351.18,176.58,353.77z"/>
	<path d="M215.94,253.34c2.27,1.76,4.03,1.34,5.79,1.03C221.73,253.47,222.86,253.63,215.94,253.34z"/>
	<path d="M260.89,276.28c-0.41,2.79,0.52,5.06,2.48,6.92C262.54,280.93,261.71,278.55,260.89,276.28z"/>
	<path d="M200.96,253.55c2.38,1.14,4.03-0.52,5.89-0.83C204.89,252.62,202.92,252.2,200.96,253.55z"/>
	<path d="M231.44,321.74c-1.76,0.83-3.1,2.07-3.93,3.93C232.28,321.92,232.4,322.69,231.44,321.74z"/>
	<path d="M248.18,303.14c-1.55-0.83-3.2-1.55-4.75-2.27C244.56,302.62,246.32,303.04,248.18,303.14z"/>
	<path d="M197.03,378.67c3.37-2.76-2.22-8.56,19.22-40.71C215.77,337.48,199.1,355.05,197.03,378.67z"/>
	<path d="M236.92,253.34c0.41-0.62,1.14-1.14,0.21-1.96C236.14,251.38,235.83,252.61,236.92,253.34z"/>
	<path d="M241.36,251.69c-1.21-0.6-1.47,0.81-0.52,1.76C241.26,252.93,241.46,252.41,241.36,251.69z"/>
	<path d="M171.62,375.67c0.4,0,0.31,0.2,0.31-1.03C171.69,374.4,171.9,374.53,171.62,375.67z"/>
	<path d="M171.31,378.67c-0.1,0.93-0.21,1.24-0.21,1.65C171.51,380.01,171.2,379.7,171.31,378.67z"/>
	<path d="M173.17,368.23C173.27,367.82,173.17,368.02,173.17,368.23L173.17,368.23z"/>
	<path d="M233.09,252.41c0.21,0.41,0.62,0.52,1.14,0.21C234.02,252.2,233.71,251.48,233.09,252.41z"/>
	<path d="M254.69,272.35c0.11-0.98-0.86-2.03-1.14-1.76C253.55,271.32,253.86,271.94,254.69,272.35z"/>
	<path d="M172.55,371.64c0-0.21,0.1-0.41,0.1-0.83C172.51,371.09,172.32,371.19,172.55,371.64z"/>
	<path d="M237.64,224.31c2.58-1.76,3.1-9.61,1.03-12.81C236.61,215.63,238.26,220.07,237.64,224.31z"/>
	<path d="M188.56,171.92c-2.48-2.58-5.68-4.86-6.92-8.78c-1.86,1.65-0.83,2.79-0.41,3.82C182.56,170.27,185.57,170.99,188.56,171.92
		z"/>
	<path d="M239.81,195.27c-1.33,0-0.93-2.21-0.93,12.4C239.91,203.64,239.81,199.41,239.81,195.27z"/>
	<path d="M234.33,241.35c1.55-3.82,3-7.65,2.89-11.99C233.19,242.14,233.13,241.35,234.33,241.35z"/>
	<path d="M237.43,244.56c0.83-3.51,0.72-6.92,0.62-10.23C236.4,239.39,236.19,242.39,237.43,244.56z"/>
	<path d="M233.71,154.15c-1.55,2.07-2.17,4.75-4.65,5.89C233.82,158.91,235.47,156.84,233.71,154.15z"/>
	<path d="M235.06,204.16c-2.69-1.76-5.68-0.93-8.47-0.93C229.37,203.54,232.06,205.61,235.06,204.16z"/>
	<path d="M240.53,173.89c-0.62,2.07-1.65,4.03-1.03,6.41C241.05,178.43,240.95,176.16,240.53,173.89z"/>
	<path d="M248.07,205.71c-2.48-0.52-4.75-1.14-7.34-0.83C243.11,206.85,244.77,207.05,248.07,205.71z"/>
	<path d="M198.38,161.07c-1.55-0.72-2.48-1.86-4.13-2.07C195.38,161.49,195.48,161.49,198.38,161.07z"/>
	<path d="M229.89,216.66c1.14-0.41,2.27,1.34,3.72,0.1C231.34,215.73,231.34,215.73,229.89,216.66z"/>
	<path d="M219.76,203.95c-1.34-0.41-2.38-0.83-3.93,0.1C217.28,204.57,218.32,205.5,219.76,203.95z"/>
	<path d="M188.56,172.03c0.83,0.93,1.34,2.38,3.31,1.86C191.15,172.34,190.01,171.92,188.56,172.03z"/>
	<path d="M204.06,163.24c-0.83-1.03-1.55-1.34-2.69-0.72C201.99,163.35,202.72,163.66,204.06,163.24z"/>
	<path d="M187.22,224.72c3.45,0,1.63,0.06,0-0.21C187.22,224.62,187.22,224.62,187.22,224.72z"/>
	<path d="M254.07,205.09c-0.83-0.72-1.34-0.83-2.07-0.1C252.72,205.81,253.34,205.81,254.07,205.09z"/>
	<path d="M256.44,165.41c-1.03-0.62-1.86-0.83-3.31-0.62C254.27,165.83,255.1,166.24,256.44,165.41z"/>
	<path d="M182.47,179.78c0.1,1.34,0.83,1.76,1.86,1.86C183.91,180.91,183.5,180.19,182.47,179.78z"/>
	<path d="M192.9,173.68c0.93,1.03,1.45,1.86,2.69,1.55C195.17,174.3,194.66,173.58,192.9,173.68z"/>
	<path d="M262.23,164.79c-1.14-0.62-1.86-0.62-2.89-0.21C260.27,165.21,260.99,165.83,262.23,164.79z"/>
	<path d="M240.84,192.79c0.21-0.52,0.21-1.03-0.31-1.45C240.33,191.86,239.81,192.48,240.84,192.79z"/>
	<path d="M182.78,224.1C183.19,224,182.98,224,182.78,224.1L182.78,224.1z"/>
	<path d="M212.12,163.97c-0.62-0.52-1.24-0.93-1.65,0.21C211.09,164.59,211.6,164.59,212.12,163.97z"/>
	<path d="M179.78,133.39c-2.69,2.89-4.66,6.49-8.16,8.58c-3.42,2.04-6.61,4.44-9.4,7.23C166.66,149.71,179.57,138.65,179.78,133.39z
		"/>
	<path d="M177.2,101.15c-3.72-1.14-6.72,1.45-9.3,8.27C169.45,105.08,174.3,104.35,177.2,101.15z"/>
	<path d="M145.79,216.45c-2.17,3.31-1.96,13.22,0.31,16.32C145.79,227.1,145.27,221.83,145.79,216.45z"/>
	<path d="M173.27,148.68c-2.27,3.31-3.51,7.44-3.51,11.99C171,156.74,171.93,152.6,173.27,148.68z"/>
	<path d="M158.08,199.3c0,2.07-0.21,4.24,1.34,6.1C159.94,203.13,159.43,201.16,158.08,199.3z"/>
	<path d="M153.12,145.06c-0.41,1.65,0.21,3.1,0.83,4.44C154.57,147.85,154.05,146.4,153.12,145.06z"/>
	<path d="M146.3,237.84c0.31,1.55,0.31,3.31,1.55,4.55C147.54,240.84,147.85,239.08,146.3,237.84z"/>
	<path d="M156.33,189.9c-0.93,1.24-0.52,2.17,0.52,3.62C157.15,191.97,157.36,190.83,156.33,189.9z"/>
	<path d="M165.73,111.79c-1.55,1.03-1.24,2.38-0.93,3.62C165.32,114.27,166.56,113.34,165.73,111.79z"/>
	<path d="M159.74,150.95c-0.93,0.31-0.93,0.83-0.52,1.65C159.84,152.09,160.36,151.67,159.74,150.95z"/>
	<path d="M159.43,168.41c0.66-0.99-0.72-1.56-0.72-0.72C158.6,168.1,158.91,168.41,159.43,168.41z"/>
	<path d="M286.51,200.03c-1.45,2.48,1.55,3.72,1.65,4.96c-2.17,4.65,2.07,6.61,3,9.61C292.29,209.12,289.71,201.68,286.51,200.03z"
		/>
	<path d="M288.27,187.11c-3.37-0.75,0.87,8.89-8.89,12.5C284.34,201.47,288.68,193.62,288.27,187.11z"/>
	<path d="M286.72,164.28c0-3.41,0-6.82,0-10.23C286.51,157.36,284.65,160.87,286.72,164.28z"/>
	<path d="M287.54,137.1c-2.07,2.07-1.76,4.55-2.07,6.92C286.63,144.03,286.03,145.8,287.54,137.1z"/>
	<path d="M292.71,221.41c-1.14-1.76,0.52-4.24-1.86-5.68C291.67,217.49,290.23,220.17,292.71,221.41z"/>
	<path d="M290.02,180.91c-1.86,2.27-1.86,2.48-1.55,5.17C289.82,184.53,290.23,182.88,290.02,180.91z"/>
	<path d="M291.16,174.3c-1.03,1.45-1.03,1.45-0.72,3.41C291.26,176.26,291.26,176.26,291.16,174.3z"/>
	<path d="M297.36,250.14c-0.41,1.24,0.41,1.96,0.93,2.58C297.98,251.89,297.77,251.07,297.36,250.14z"/>
	<path d="M284.34,144.65c-0.93,0.21-1.14,0.52-0.62,1.14C284.34,145.78,284.55,145.47,284.34,144.65z"/>
	<path d="M191.56,320.19c4.45-3.44,11.71-13.35,9.71-16.84c-6.05,36.31-62.11,13.85-44.95-27.25c0.26,0.53,0.98-1.09,1.25-1.99
		c-0.89,0.8-1.39,1.21-1.25,1.96c-1.33,0.32-1.64,1.55-2.06,2.48C141.33,307,175.18,332.85,191.56,320.19z"/>
	<path d="M184,285.14c-0.11,0.04-0.56,0.04-0.81-0.08c-14.87-4.82-11.04,20.18,0.72,14.57c1.25-0.6,2.69-0.41,3.72-1.03
		c2.79-4.96,2.58-8.47-0.83-12.4c-5.13-6.92-12.74-3.27-13.84,1.14C177.91,283,180.8,282.48,184,285.14z M187.53,289.09
		c0.83,1.86,1.65,3.2,0.62,5.37C187.94,292.6,187.22,291.15,187.53,289.09z M181.43,298.28c-7.13,0.27-8.3-11.85-1.65-12.09
		C187.1,285.93,187.92,298.04,181.43,298.28z"/>
	<path d="M164.9,268.53c-0.72-0.21-0.93,0-1.03,0.31C164.18,269.25,164.49,269.15,164.9,268.53z"/>
	<path d="M202.1,298.7c-0.1,0.72-0.21,1.14,0.1,1.45C202.41,299.73,202.41,299.42,202.1,298.7z"/>
	<path d="M305.42,324.73c-13.32-2.62-24.49-16.53-24.59-30.07c-0.07-8.88,6.68-20.96,1.55-12.4c-9.09,19.84,5.45,39.89,21.28,43.7
		c19.68,4.75,28.24-17.4,25.83-18.91C327.87,314.72,319.1,327.43,305.42,324.73z"/>
	<path d="M312.21,288.56c-0.1,0.03-0.58,0.02-0.81-0.09c-14.78-4.93-11.1,20.21,0.72,14.57c1.25-0.6,2.69-0.41,3.72-1.03
		c2.79-4.86,2.58-8.47-0.83-12.4c-4.68-6.66-12.66-3.58-13.84,1.14C306.13,286.41,309.02,285.88,312.21,288.56z M316.57,297.97
		c-0.41-1.96-0.72-3.41-0.93-4.86C316.68,294.46,317.4,295.8,316.57,297.97z M309.45,301.8c-7.05-0.12-7.86-12.09-1.03-12.09
		C315.46,289.71,316.27,301.91,309.45,301.8z"/>
	<path d="M292.91,271.94c-0.31-0.1-0.62,0-0.93,0.52C292.71,272.56,293.12,272.56,292.91,271.94z"/>
	<path d="M330.52,302.42c-0.31,0.31-0.21,0.72,0,1.14C330.83,303.14,330.73,302.73,330.52,302.42z"/>
	<path d="M285.89,277.41c-0.93,0.93-1.45,1.34-1.24,2.17C285.37,279.27,285.58,278.65,285.89,277.41z"/>
	<path d="M447.89,30.07c-0.31,2.38,0.52,4.55,2.79,6.1c-0.52-5.58-0.52-5.58,0.83-6.3c1.34,0.52,0.31,2.58,2.07,3
		c0.21-1.86-1.03-3.41-1.34-5.17C450.58,27.9,448.41,27.59,447.89,30.07z"/>
	<path d="M178.88,295.47c-0.1,0.1,0.2,1.71,2.04,1.88c3.2-2.07,3.51-2.69,2.38-5.17c-0.21,2.48-1.34,3.72-4.03,3
		C178.45,292.76,176.71,294.76,178.88,295.47z"/>
	<path d="M307.59,298.7c-0.85,0.85,0.28,2.05,1.65,2.17c3.2-2.07,3.51-2.69,2.38-5.17C311.41,298.18,310.27,299.42,307.59,298.7z"/>
	<path d="M307.28,298.9c0.1,0,0.21-0.1,0.41-0.31C306.36,295.94,305.19,298.61,307.28,298.9z"/>
<path fill="#e6e6e6" d="m206.8 163.6c0-5.1 4.1-9.2 9.3-9.2s9.2 4.2 9.2 9.2-4.1 9.2-9.3 9.2-9.2-4.1-9.2-9.2zm17.3-.1c0-4.5-3.5-8.2-8.2-8.2s-8.2 3.7-8.2 8.3c0 4.5 3.5 8.2 8.2 8.2s8.2-3.7 8.2-8.3zm-13 0c0-2.8 2.1-5.1 5.1-5.1 1.9 0 2.9.6 3.9 1.5l-1.4 1.7c-.8-.7-1.5-1.1-2.5-1.1-1.7 0-2.8 1.4-2.8 3.1s1.1 3 2.8 3c1.1 0 1.7-.5 2.5-1.1l1.4 1.4c-1.1 1.1-2.1 1.7-4 1.7-2.9 0-5-2.3-5-5.1z"/><path fill="#e6e6e6" d="m226.6 154.7h3.4l4.2 13.2 4.4-13.3h2.6l4.4 13.3 4.2-13.2h3.3l-6.2 18h-2.7l-4.4-12.8-4.4 12.8h-2.7z"/><path fill="#e6e6e6" d="m252.8 165.8c0-3.9 3.1-7 7.2-7 4.2 0 7.2 3.2 7.2 7s-3.1 7-7.3 7c-4 0-7.1-3.1-7.1-7zm11.3 0c0-2.3-1.7-4.3-4.2-4.3s-4.1 2-4.1 4.3 1.7 4.3 4.1 4.3c2.7.1 4.2-1.9 4.2-4.3z"/><path fill="#e6e6e6" d="m269.5 159.1h3.1v3c.8-2 2.4-3.4 4.8-3.3v3.2h-.2c-2.7 0-4.6 1.7-4.6 5.4v5.1h-3.1z"/><path fill="#e6e6e6" d="m279.1 153.9h3.1v11.1l5.6-6h3.8l-5.4 5.5 5.5 8h-3.5l-4.1-5.8-1.9 2v3.9h-3.1z"/><path fill="#e6e6e6" d="m291.7 165.8c0-3.9 3.1-7 7.2-7 4.2 0 7.2 3.2 7.2 7s-3.1 7-7.3 7c-4 0-7.1-3.1-7.1-7zm11.3 0c0-2.3-1.7-4.3-4.2-4.3s-4.1 2-4.1 4.3 1.7 4.3 4.1 4.3c2.6.1 4.2-1.9 4.2-4.3z"/><path fill="#e6e6e6" d="m308.2 167.6v-8.6h3.1v7.6c0 2.1 1.1 3.3 2.9 3.3s3-1.3 3-3.3v-7.6h3.1v13.4h-3.1v-2.1c-.8 1.3-2.1 2.3-4.2 2.3-3.1.2-4.8-1.8-4.8-5z"/><path fill="#e6e6e6" d="m323.9 168.8v-7.1h-1.7v-2.6h1.7v-3.7h3.1v3.7h3.6v2.6h-3.6v6.6c0 1.2.6 1.7 1.7 1.7.7 0 1.3-.2 1.9-.5v2.5c-.8.5-1.7.7-2.8.7-2.3 0-3.9-.9-3.9-3.9z"/><path fill="#e6e6e6" d="m333.2 154.7h3.2v15h9.4v2.9h-12.5v-17.9z"/><path fill="#e6e6e6" d="m356 172.5v-1.7c-.9 1.1-2.3 2-4.4 2-2.6 0-4.8-1.4-4.8-4.2 0-3 2.3-4.4 5.4-4.4 1.7 0 2.6.2 3.7.5v-.2c0-1.9-1.2-2.9-3.3-2.9-1.5 0-2.6.3-3.9.8l-.8-2.5c1.5-.7 2.9-1.1 5.1-1.1 4 0 5.9 2.1 5.9 5.7v8zm.1-5.6c-.8-.3-1.9-.5-3.1-.5-2 0-3.1.8-3.1 2.1s1.1 2 2.6 2c2 0 3.5-1.1 3.5-2.9z"/><path fill="#e6e6e6" d="m364.9 170.5v2.1h-3.1v-18.7h3.1v7.4c1-1.4 2.4-2.5 4.5-2.5 3.2 0 6.3 2.5 6.3 7s-3.1 7-6.3 7c-2.1 0-3.5-1.1-4.5-2.3zm7.7-4.7c0-2.6-1.7-4.3-3.9-4.3s-3.9 1.7-3.9 4.4c0 2.6 1.8 4.3 3.9 4.3s3.9-1.7 3.9-4.4z"/><path fill="#e6e6e6" d="m376.9 170.8 1.4-2.1c1.4 1.1 3 1.7 4.4 1.7s2.1-.5 2.1-1.5-1.3-1.4-2.8-1.8c-.1 0-.2-.1-.2-.1-2-.6-4.2-1.4-4.2-4s2.1-4.1 4.8-4.1c1.7 0 3.5.6 5 1.5l-1.2 2.2c-1.3-.8-2.6-1.3-3.8-1.3s-1.9.5-1.9 1.4 1.3 1.4 2.8 1.8c.1 0 .2.1.2.1 2 .6 4.2 1.5 4.2 4 0 2.9-2.2 4.2-5 4.2-1.9 0-4-.7-5.8-2z"/><path fill="#e6e6e6" d="m505.6 163.6c0-5.1 4.1-9.2 9.3-9.2s9.2 4.2 9.2 9.2-4.1 9.2-9.3 9.2-9.2-4.1-9.2-9.2zm17.4-.1c0-4.5-3.5-8.2-8.2-8.2s-8.2 3.7-8.2 8.3c0 4.5 3.5 8.2 8.2 8.2s8.2-3.7 8.2-8.3zm-13.1 0c0-2.8 2.1-5.1 5.1-5.1 1.9 0 2.9.6 3.9 1.5l-1.4 1.7c-.8-.7-1.5-1.1-2.5-1.1-1.7 0-2.8 1.4-2.8 3.1s1.1 3 2.8 3c1.1 0 1.7-.5 2.5-1.1l1.4 1.4c-1.1 1.1-2.1 1.7-4 1.7-2.9 0-5-2.3-5-5.1z"/><path fill="#e6e6e6" d="m525.4 154.7h3.4l4.2 13.2 4.4-13.3h2.6l4.4 13.3 4.2-13.2h3.3l-6.2 18h-2.7l-4.4-12.8-4.4 12.8h-2.7z"/><path fill="#e6e6e6" d="m551.7 165.8c0-3.9 3.1-7 7.2-7 4.2 0 7.2 3.2 7.2 7s-3.1 7-7.3 7c-4.1 0-7.1-3.1-7.1-7zm11.2 0c0-2.3-1.7-4.3-4.2-4.3s-4.1 2-4.1 4.3 1.7 4.3 4.1 4.3c2.7.1 4.2-1.9 4.2-4.3z"/><path fill="#e6e6e6" d="m568.3 159.1h3.1v3c.8-2 2.4-3.4 4.8-3.3v3.2h-.2c-2.7 0-4.6 1.7-4.6 5.4v5.1h-3.1z"/><path fill="#e6e6e6" d="m577.9 153.9h3.1v11.1l5.6-6h3.8l-5.4 5.5 5.5 8h-3.5l-4.1-5.8-1.9 2v3.9h-3.1z"/><path fill="#e6e6e6" d="m590.6 165.8c0-3.9 3.1-7 7.2-7 4.2 0 7.2 3.2 7.2 7s-3.1 7-7.3 7c-4.1 0-7.1-3.1-7.1-7zm11.2 0c0-2.3-1.7-4.3-4.2-4.3s-4.1 2-4.1 4.3 1.7 4.3 4.1 4.3c2.6.1 4.2-1.9 4.2-4.3z"/><path fill="#e6e6e6" d="m607 167.6v-8.6h3.1v7.6c0 2.1 1.1 3.3 2.9 3.3s3-1.3 3-3.3v-7.6h3.1v13.4h-3.1v-2.1c-.8 1.3-2.1 2.3-4.2 2.3-3 .2-4.8-1.8-4.8-5z"/><path fill="#e6e6e6" d="m622.7 168.8v-7.1h-1.7v-2.6h1.7v-3.7h3.1v3.7h3.6v2.6h-3.6v6.6c0 1.2.6 1.7 1.7 1.7.7 0 1.3-.2 1.9-.5v2.5c-.8.5-1.7.7-2.8.7-2.3 0-3.9-.9-3.9-3.9z"/><path fill="#e6e6e6" d="m632 154.7h3.2v15h9.4v2.9h-12.6z"/><path fill="#e6e6e6" d="m654.8 172.5v-1.7c-.9 1.1-2.3 2-4.4 2-2.6 0-4.8-1.4-4.8-4.2 0-3 2.3-4.4 5.4-4.4 1.7 0 2.6.2 3.7.5v-.2c0-1.9-1.2-2.9-3.3-2.9-1.5 0-2.6.3-3.9.8l-.8-2.5c1.5-.7 2.9-1.1 5.1-1.1 4 0 5.9 2.1 5.9 5.7v8zm.1-5.6c-.8-.3-1.9-.5-3.1-.5-2 0-3.1.8-3.1 2.1s1.1 2 2.6 2c2 0 3.5-1.1 3.5-2.9z"/><path fill="#e6e6e6" d="m663.7 170.5v2.1h-3.1v-18.7h3.1v7.4c1-1.4 2.4-2.5 4.5-2.5 3.2 0 6.3 2.5 6.3 7s-3.1 7-6.3 7c-2.1 0-3.5-1.1-4.5-2.3zm7.8-4.7c0-2.6-1.7-4.3-3.9-4.3-2.1 0-3.9 1.7-3.9 4.4 0 2.6 1.8 4.3 3.9 4.3s3.9-1.7 3.9-4.4z"/><path fill="#e6e6e6" d="m675.8 170.8 1.4-2.1c1.4 1.1 3 1.7 4.4 1.7s2.1-.5 2.1-1.5-1.3-1.4-2.8-1.8c-.1 0-.2-.1-.2-.1-2-.6-4.2-1.4-4.2-4s2.1-4.1 4.8-4.1c1.7 0 3.5.6 5 1.5l-1.2 2.2c-1.3-.8-2.6-1.3-3.8-1.3s-1.9.5-1.9 1.4 1.3 1.4 2.8 1.8c.1 0 .2.1.2.1 2 .6 4.2 1.5 4.2 4 0 2.9-2.2 4.2-5 4.2-2 0-4.1-.7-5.8-2z"/><path fill="#e6e6e6" d="m61 298.6c0-5.1 4.1-9.2 9.3-9.2s9.2 4.2 9.2 9.2-4.1 9.2-9.3 9.2c-5.1 0-9.2-4.2-9.2-9.2zm17.4-.1c0-4.5-3.5-8.2-8.2-8.2s-8.2 3.7-8.2 8.3c0 4.5 3.5 8.2 8.2 8.2s8.2-3.7 8.2-8.3zm-13.1-.1c0-2.8 2.1-5.1 5.1-5.1 1.9 0 2.9.6 3.9 1.5l-1.4 1.7c-.8-.7-1.5-1.1-2.5-1.1-1.7 0-2.8 1.4-2.8 3.1s1.1 3 2.8 3c1.1 0 1.7-.5 2.5-1.1l1.4 1.4c-1.1 1.1-2.1 1.7-4 1.7-2.8.1-5-2.2-5-5.1z"/><path fill="#e6e6e6" d="m80.9 289.7h3.4l4.2 13.2 4.4-13.3h2.6l4.4 13.3 4.2-13.2h3.3l-6.2 18h-2.7l-4.4-12.8-4.4 12.8h-2.7z"/><path fill="#e6e6e6" d="m107.1 300.8c0-3.9 3.1-7 7.2-7s7.2 3.2 7.2 7-3.1 7-7.3 7c-4 0-7.1-3.1-7.1-7zm11.3 0c0-2.3-1.7-4.3-4.2-4.3s-4.1 2-4.1 4.3 1.7 4.3 4.1 4.3c2.6.1 4.2-1.9 4.2-4.3z"/><path fill="#e6e6e6" d="m123.7 294h3.1v3c.8-2 2.4-3.4 4.8-3.3v3.2h-.2c-2.7 0-4.6 1.7-4.6 5.4v5.1h-3.1z"/><path fill="#e6e6e6" d="m133.4 288.9h3.1v11.1l5.6-6h3.8l-5.4 5.5 5.5 8h-3.5l-4.1-5.8-1.9 1.9v3.9h-3.1z"/><path fill="#e6e6e6" d="m146 300.8c0-3.9 3.1-7 7.2-7s7.2 3.2 7.2 7-3.1 7-7.3 7c-4.1 0-7.1-3.1-7.1-7zm11.2 0c0-2.3-1.7-4.3-4.2-4.3s-4.1 2-4.1 4.3 1.7 4.3 4.1 4.3c2.6.1 4.2-1.9 4.2-4.3z"/><path fill="#e6e6e6" d="m162.4 302.6v-8.6h3.1v7.6c0 2.1 1.1 3.3 2.9 3.3s3-1.3 3-3.3v-7.6h3.1v13.4h-3.1v-2.1c-.8 1.3-2.1 2.3-4.2 2.3-3 .2-4.8-1.8-4.8-5z"/><path fill="#e6e6e6" d="m178.1 303.8v-7.1h-1.7v-2.7h1.7v-3.7h3.1v3.7h3.6v2.6h-3.6v6.6c0 1.2.6 1.7 1.7 1.7.7 0 1.3-.2 1.9-.5v2.5c-.8.5-1.7.7-2.8.7-2.3.1-3.9-.9-3.9-3.8z"/><path fill="#e6e6e6" d="m187.4 289.7h3.2v15h9.4v2.9h-12.5v-17.9z"/><path fill="#e6e6e6" d="m210.2 307.5v-1.7c-.9 1.1-2.3 2-4.4 2-2.6 0-4.8-1.4-4.8-4.2 0-3 2.3-4.4 5.4-4.4 1.7 0 2.6.2 3.7.5v-.2c0-1.9-1.2-2.9-3.3-2.9-1.5 0-2.6.3-3.9.8l-.8-2.5c1.5-.7 2.9-1.1 5.1-1.1 4 0 5.9 2.1 5.9 5.7v8zm.1-5.6c-.8-.3-1.9-.5-3.1-.5-2 0-3.1.8-3.1 2.1s1.1 2 2.6 2c2 0 3.5-1.1 3.5-2.9z"/><path fill="#e6e6e6" d="m219.2 305.5v2.1h-3.1v-18.7h3.1v7.4c1-1.4 2.4-2.5 4.5-2.5 3.2 0 6.3 2.5 6.3 7s-3.1 7-6.3 7c-2.2 0-3.6-1.1-4.5-2.3zm7.7-4.7c0-2.6-1.7-4.3-3.9-4.3s-3.9 1.7-3.9 4.4c0 2.6 1.8 4.3 3.9 4.3s3.9-1.7 3.9-4.4z"/><path fill="#e6e6e6" d="m231.2 305.8 1.4-2.1c1.4 1.1 3 1.7 4.4 1.7s2.1-.5 2.1-1.5-1.3-1.4-2.8-1.8c-.1 0-.2-.1-.2-.1-2-.6-4.2-1.4-4.2-4s2.1-4.1 4.8-4.1c1.7 0 3.5.6 5 1.5l-1.2 2.2c-1.3-.8-2.6-1.3-3.8-1.3s-1.9.5-1.9 1.4 1.3 1.4 2.8 1.8c.1 0 .2.1.2.1 2 .6 4.2 1.5 4.2 4 0 2.9-2.2 4.2-5 4.2-2 0-4.1-.7-5.8-2z"/><path fill="#e6e6e6" d="m360.6 298.6c0-5.1 4.1-9.2 9.3-9.2s9.2 4.2 9.2 9.2-4.1 9.2-9.3 9.2-9.2-4.2-9.2-9.2zm17.4-.1c0-4.5-3.5-8.2-8.2-8.2s-8.2 3.7-8.2 8.3c0 4.5 3.5 8.2 8.2 8.2s8.2-3.7 8.2-8.3zm-13.1-.1c0-2.8 2.1-5.1 5.1-5.1 1.9 0 2.9.6 3.9 1.5l-1.4 1.7c-.8-.7-1.5-1.1-2.5-1.1-1.7 0-2.8 1.4-2.8 3.1s1.1 3 2.8 3c1.1 0 1.7-.5 2.5-1.1l1.4 1.4c-1.1 1.1-2.1 1.7-4 1.7-2.8.1-5-2.2-5-5.1z"/><path fill="#e6e6e6" d="m380.5 289.7h3.4l4.2 13.2 4.4-13.3h2.6l4.4 13.3 4.2-13.2h3.3l-6.2 18h-2.7l-4.4-12.8-4.4 12.8h-2.7z"/><path fill="#e6e6e6" d="m406.7 300.8c0-3.9 3.1-7 7.2-7 4.2 0 7.2 3.2 7.2 7s-3.1 7-7.3 7c-4.1 0-7.1-3.1-7.1-7zm11.3 0c0-2.3-1.7-4.3-4.2-4.3s-4.1 2-4.1 4.3 1.7 4.3 4.1 4.3c2.7.1 4.2-1.9 4.2-4.3z"/><path fill="#e6e6e6" d="m423.3 294h3.1v3c.8-2 2.4-3.4 4.8-3.3v3.2h-.2c-2.7 0-4.6 1.7-4.6 5.4v5.1h-3.1z"/><path fill="#e6e6e6" d="m433 288.9h3.1v11.1l5.6-6h3.8l-5.4 5.5 5.5 8h-3.5l-4.1-5.8-1.9 2v3.9h-3.1z"/><path fill="#e6e6e6" d="m445.6 300.8c0-3.9 3.1-7 7.2-7 4.2 0 7.2 3.2 7.2 7s-3.1 7-7.3 7c-4.1 0-7.1-3.1-7.1-7zm11.3 0c0-2.3-1.7-4.3-4.2-4.3s-4.1 2-4.1 4.3 1.7 4.3 4.1 4.3c2.6.1 4.2-1.9 4.2-4.3z"/><path fill="#e6e6e6" d="m462.1 302.6v-8.6h3.1v7.6c0 2.1 1.1 3.3 2.9 3.3s3-1.3 3-3.3v-7.6h3.1v13.4h-3.1v-2.1c-.8 1.3-2.1 2.3-4.2 2.3-3.1.2-4.8-1.8-4.8-5z"/><path fill="#e6e6e6" d="m477.8 303.8v-7.1h-1.8v-2.7h1.7v-3.7h3.1v3.7h3.6v2.6h-3.6v6.6c0 1.2.6 1.7 1.7 1.7.7 0 1.3-.2 1.9-.5v2.5c-.8.5-1.7.7-2.8.7-2.2.1-3.8-.9-3.8-3.8z"/><path fill="#e6e6e6" d="m487.1 289.7h3.2v15h9.4v2.9h-12.5v-17.9z"/><path fill="#e6e6e6" d="m509.9 307.5v-1.7c-.9 1.1-2.3 2-4.4 2-2.6 0-4.8-1.4-4.8-4.2 0-3 2.3-4.4 5.4-4.4 1.7 0 2.6.2 3.7.5v-.2c0-1.9-1.2-2.9-3.3-2.9-1.5 0-2.6.3-3.9.8l-.8-2.5c1.5-.7 2.9-1.1 5.1-1.1 4 0 5.9 2.1 5.9 5.7v8zm.1-5.6c-.8-.3-1.9-.5-3.1-.5-2 0-3.1.8-3.1 2.1s1.1 2 2.6 2c2 0 3.5-1.1 3.5-2.9z"/><path fill="#e6e6e6" d="m518.8 305.5v2.1h-3.1v-18.7h3.1v7.4c1-1.4 2.4-2.5 4.5-2.5 3.2 0 6.3 2.5 6.3 7s-3.1 7-6.3 7c-2.2 0-3.5-1.1-4.5-2.3zm7.7-4.7c0-2.6-1.7-4.3-3.9-4.3s-3.9 1.7-3.9 4.4c0 2.6 1.8 4.3 3.9 4.3s3.9-1.7 3.9-4.4z"/><path fill="#e6e6e6" d="m530.8 305.8 1.4-2.1c1.4 1.1 3 1.7 4.4 1.7s2.1-.5 2.1-1.5-1.3-1.4-2.8-1.8c-.1 0-.2-.1-.2-.1-2-.6-4.2-1.4-4.2-4s2.1-4.1 4.8-4.1c1.7 0 3.5.6 5 1.5l-1.2 2.2c-1.3-.8-2.6-1.3-3.8-1.3s-1.9.5-1.9 1.4 1.3 1.4 2.8 1.8c.1 0 .2.1.2.1 2 .6 4.2 1.5 4.2 4 0 2.9-2.2 4.2-5 4.2-1.9 0-4.1-.7-5.8-2z"/><path fill="#e6e6e6" d="m659.5 298.6c0-5.1 4.1-9.2 9.3-9.2s9.2 4.2 9.2 9.2-4.1 9.2-9.3 9.2-9.2-4.2-9.2-9.2zm17.3-.1c0-4.5-3.5-8.2-8.2-8.2s-8.2 3.7-8.2 8.3c0 4.5 3.5 8.2 8.2 8.2 4.8 0 8.2-3.7 8.2-8.3zm-13-.1c0-2.8 2.1-5.1 5.1-5.1 1.9 0 2.9.6 3.9 1.5l-1.4 1.7c-.8-.7-1.5-1.1-2.5-1.1-1.7 0-2.8 1.4-2.8 3.1s1.1 3 2.8 3c1.1 0 1.7-.5 2.5-1.1l1.4 1.4c-1.1 1.1-2.1 1.7-4 1.7-2.9.1-5-2.2-5-5.1z"/><path fill="#e6e6e6" d="m679.3 289.7h3.4l4.2 13.2 4.4-13.3h2.6l4.4 13.3 4.2-13.2h3.3l-6.2 18h-2.6l-4.4-12.8-4.4 12.8h-2.7z"/><path fill="#e6e6e6" d="m705.5 300.8c0-3.9 3.1-7 7.2-7 4.2 0 7.2 3.2 7.2 7s-3.1 7-7.3 7c-4 0-7.1-3.1-7.1-7zm11.3 0c0-2.3-1.7-4.3-4.2-4.3s-4.1 2-4.1 4.3 1.7 4.3 4.1 4.3c2.7.1 4.2-1.9 4.2-4.3z"/><path fill="#e6e6e6" d="m722.1 294h3.1v3c.8-2 2.4-3.4 4.8-3.3v3.2h-.2c-2.7 0-4.6 1.7-4.6 5.4v5.1h-3.1z"/><path fill="#e6e6e6" d="m731.8 288.9h3.1v11.1l5.6-6h3.8l-5.4 5.5 5.5 8h-3.5l-4.1-5.8-1.9 2v3.9h-3.1z"/><path fill="#e6e6e6" d="m744.4 300.8c0-3.9 3.1-7 7.2-7 4.2 0 7.2 3.2 7.2 7s-3.1 7-7.3 7c-4.1 0-7.1-3.1-7.1-7zm11.3 0c0-2.3-1.7-4.3-4.2-4.3s-4.1 2-4.1 4.3 1.7 4.3 4.1 4.3c2.6.1 4.2-1.9 4.2-4.3z"/><path fill="#e6e6e6" d="m760.9 302.6v-8.6h3.1v7.6c0 2.1 1.1 3.3 2.9 3.3s3-1.3 3-3.3v-7.6h3.1v13.4h-3.1v-2.1c-.8 1.3-2.1 2.3-4.2 2.3-3.1.2-4.8-1.8-4.8-5z"/><path fill="#e6e6e6" d="m776.6 303.8v-7.1h-1.7v-2.7h1.7v-3.7h3.1v3.7h3.6v2.6h-3.6v6.6c0 1.2.6 1.7 1.7 1.7.7 0 1.3-.2 1.9-.5v2.5c-.8.5-1.7.7-2.8.7-2.3.1-3.9-.9-3.9-3.8z"/><path fill="#e6e6e6" d="m785.9 289.7h3.2v15h9.4v2.9h-12.5v-17.9z"/><path fill="#e6e6e6" d="m808.7 307.5v-1.7c-.9 1.1-2.3 2-4.4 2-2.6 0-4.8-1.4-4.8-4.2 0-3 2.3-4.4 5.4-4.4 1.7 0 2.6.2 3.7.5v-.2c0-1.9-1.2-2.9-3.3-2.9-1.5 0-2.6.3-3.9.8l-.8-2.5c1.5-.7 2.9-1.1 5.1-1.1 4 0 5.9 2.1 5.9 5.7v8zm.1-5.6c-.8-.3-1.9-.5-3.1-.5-2 0-3.1.8-3.1 2.1s1.1 2 2.6 2c2 0 3.5-1.1 3.5-2.9z"/><path fill="#e6e6e6" d="m817.6 305.5v2.1h-3.1v-18.7h3.1v7.4c1-1.4 2.4-2.5 4.5-2.5 3.2 0 6.3 2.5 6.3 7s-3.1 7-6.3 7c-2.1 0-3.5-1.1-4.5-2.3zm7.7-4.7c0-2.6-1.7-4.3-3.9-4.3-2.1 0-3.9 1.7-3.9 4.4 0 2.6 1.8 4.3 3.9 4.3 2.2 0 3.9-1.7 3.9-4.4z"/><path fill="#e6e6e6" d="m829.6 305.8 1.4-2.1c1.4 1.1 3 1.7 4.4 1.7s2.1-.5 2.1-1.5-1.3-1.4-2.8-1.8c-.1 0-.2-.1-.2-.1-2-.6-4.2-1.4-4.2-4s2.1-4.1 4.8-4.1c1.7 0 3.5.6 5 1.5l-1.2 2.2c-1.3-.8-2.6-1.3-3.8-1.3s-1.9.5-1.9 1.4 1.3 1.4 2.8 1.8c.1 0 .2.1.2.1 2 .6 4.2 1.5 4.2 4 0 2.9-2.2 4.2-5 4.2-1.9 0-4-.7-5.8-2z"/><path fill="#e6e6e6" d="m206.3 434.2c0-5.1 4.1-9.2 9.3-9.2s9.2 4.2 9.2 9.2-4.1 9.2-9.3 9.2-9.2-4.1-9.2-9.2zm17.4-.1c0-4.5-3.5-8.2-8.2-8.2s-8.2 3.7-8.2 8.3c0 4.5 3.5 8.2 8.2 8.2s8.2-3.7 8.2-8.3zm-13.1-.1c0-2.8 2.1-5.1 5.1-5.1 1.9 0 2.9.6 3.9 1.5l-1.4 1.7c-.8-.7-1.5-1.1-2.5-1.1-1.7 0-2.8 1.4-2.8 3.1s1.1 3 2.8 3c1.1 0 1.7-.5 2.5-1.1l1.4 1.4c-1.1 1.1-2.1 1.7-4 1.7-2.9.1-5-2.2-5-5.1z"/><path fill="#e6e6e6" d="m226.1 425.3h3.4l4.2 13.2 4.4-13.3h2.6l4.4 13.3 4.2-13.2h3.3l-6.2 18h-2.7l-4.4-12.8-4.4 12.8h-2.7z"/><path fill="#e6e6e6" d="m252.4 436.4c0-3.9 3.1-7 7.2-7 4.2 0 7.2 3.2 7.2 7s-3.1 7-7.3 7c-4.1 0-7.1-3.1-7.1-7zm11.2 0c0-2.3-1.7-4.3-4.2-4.3s-4.1 2-4.1 4.3 1.7 4.3 4.1 4.3c2.7.1 4.2-1.9 4.2-4.3z"/><path fill="#e6e6e6" d="m269 429.7h3.1v3c.8-2 2.4-3.4 4.8-3.3v3.2h-.2c-2.7 0-4.6 1.7-4.6 5.4v5.1h-3.1z"/><path fill="#e6e6e6" d="m278.6 424.5h3.1v11.1l5.6-6h3.8l-5.4 5.5 5.5 8h-3.5l-4.1-5.8-1.9 2v3.9h-3.1z"/><path fill="#e6e6e6" d="m291.3 436.4c0-3.9 3.1-7 7.2-7 4.2 0 7.2 3.2 7.2 7s-3.1 7-7.3 7c-4.1 0-7.1-3.1-7.1-7zm11.2 0c0-2.3-1.7-4.3-4.2-4.3s-4.1 2-4.1 4.3 1.7 4.3 4.1 4.3c2.6.1 4.2-1.9 4.2-4.3z"/><path fill="#e6e6e6" d="m307.7 438.2v-8.6h3.1v7.6c0 2.1 1.1 3.3 2.9 3.3s3-1.3 3-3.3v-7.6h3.1v13.4h-3.1v-2.1c-.8 1.3-2.1 2.3-4.2 2.3-3 .2-4.8-1.8-4.8-5z"/><path fill="#e6e6e6" d="m323.4 439.4v-7.1h-1.7v-2.6h1.7v-3.7h3.1v3.7h3.6v2.6h-3.6v6.6c0 1.2.6 1.7 1.7 1.7.7 0 1.3-.2 1.9-.5v2.5c-.8.5-1.7.7-2.8.7-2.3 0-3.9-.9-3.9-3.9z"/><path fill="#e6e6e6" d="m332.7 425.3h3.2v15h9.4v2.9h-12.5v-17.9z"/><path fill="#e6e6e6" d="m355.5 443.1v-1.7c-.9 1.1-2.3 2-4.4 2-2.6 0-4.8-1.4-4.8-4.2 0-3 2.3-4.4 5.4-4.4 1.7 0 2.6.2 3.7.5v-.2c0-1.9-1.2-2.9-3.3-2.9-1.5 0-2.6.3-3.9.8l-.8-2.5c1.5-.7 2.9-1.1 5.1-1.1 4 0 5.9 2.1 5.9 5.7v8zm.1-5.6c-.8-.3-1.9-.5-3.1-.5-2 0-3.1.8-3.1 2.1s1.1 2 2.6 2c2 0 3.5-1.1 3.5-2.9z"/><path fill="#e6e6e6" d="m364.4 441.1v2.1h-3.1v-18.7h3.1v7.4c1-1.4 2.4-2.5 4.5-2.5 3.2 0 6.3 2.5 6.3 7s-3.1 7-6.3 7c-2.1 0-3.5-1.1-4.5-2.3zm7.7-4.7c0-2.6-1.7-4.3-3.9-4.3-2.1 0-3.9 1.7-3.9 4.4 0 2.6 1.8 4.3 3.9 4.3 2.2 0 3.9-1.7 3.9-4.4z"/><path fill="#e6e6e6" d="m376.5 441.4 1.4-2.1c1.4 1.1 3 1.7 4.4 1.7s2.1-.5 2.1-1.5-1.3-1.4-2.8-1.8c-.1 0-.2-.1-.2-.1-2-.6-4.2-1.4-4.2-4s2.1-4.1 4.8-4.1c1.7 0 3.5.6 5 1.5l-1.2 2.2c-1.3-.8-2.6-1.3-3.8-1.3s-1.9.5-1.9 1.4 1.3 1.4 2.8 1.8c.1 0 .2.1.2.1 2 .6 4.2 1.5 4.2 4 0 2.9-2.2 4.2-5 4.2-2 0-4.1-.7-5.8-2z"/><path fill="#e6e6e6" d="m505.1 434.2c0-5.1 4.1-9.2 9.3-9.2s9.2 4.2 9.2 9.2-4.1 9.2-9.3 9.2-9.2-4.1-9.2-9.2zm17.4-.1c0-4.5-3.5-8.2-8.2-8.2s-8.2 3.7-8.2 8.3c0 4.5 3.5 8.2 8.2 8.2s8.2-3.7 8.2-8.3zm-13.1-.1c0-2.8 2.1-5.1 5.1-5.1 1.9 0 2.9.6 3.9 1.5l-1.4 1.7c-.8-.7-1.5-1.1-2.5-1.1-1.7 0-2.8 1.4-2.8 3.1s1.1 3 2.8 3c1.1 0 1.7-.5 2.5-1.1l1.4 1.4c-1.1 1.1-2.1 1.7-4 1.7-2.9.1-5-2.2-5-5.1z"/><path fill="#e6e6e6" d="m525 425.3h3.4l4.2 13.2 4.4-13.3h2.6l4.4 13.3 4.2-13.2h3.3l-6.2 18h-2.7l-4.4-12.8-4.4 12.8h-2.7z"/><path fill="#e6e6e6" d="m551.2 436.4c0-3.9 3.1-7 7.2-7 4.2 0 7.2 3.2 7.2 7s-3.1 7-7.3 7c-4.1 0-7.1-3.1-7.1-7zm11.2 0c0-2.3-1.7-4.3-4.2-4.3s-4.1 2-4.1 4.3 1.7 4.3 4.1 4.3c2.7.1 4.2-1.9 4.2-4.3z"/><path fill="#e6e6e6" d="m567.8 429.7h3.1v3c.8-2 2.4-3.4 4.8-3.3v3.2h-.2c-2.7 0-4.6 1.7-4.6 5.4v5.1h-3.1z"/><path fill="#e6e6e6" d="m577.5 424.5h3.1v11.1l5.6-6h3.8l-5.4 5.5 5.5 8h-3.5l-4.1-5.8-1.9 2v3.9h-3.1z"/><path fill="#e6e6e6" d="m590.1 436.4c0-3.9 3.1-7 7.2-7 4.2 0 7.2 3.2 7.2 7s-3.1 7-7.3 7c-4.1 0-7.1-3.1-7.1-7zm11.2 0c0-2.3-1.7-4.3-4.2-4.3s-4.1 2-4.1 4.3 1.7 4.3 4.1 4.3c2.6.1 4.2-1.9 4.2-4.3z"/><path fill="#e6e6e6" d="m606.5 438.2v-8.6h3.1v7.6c0 2.1 1.1 3.3 2.9 3.3s3-1.3 3-3.3v-7.6h3.1v13.4h-3.1v-2.1c-.8 1.3-2.1 2.3-4.2 2.3-3 .2-4.8-1.8-4.8-5z"/><path fill="#e6e6e6" d="m622.2 439.4v-7.1h-1.7v-2.6h1.7v-3.7h3.1v3.7h3.6v2.6h-3.6v6.6c0 1.2.6 1.7 1.7 1.7.7 0 1.3-.2 1.9-.5v2.5c-.8.5-1.7.7-2.8.7-2.3 0-3.9-.9-3.9-3.9z"/><path fill="#e6e6e6" d="m631.5 425.3h3.2v15h9.4v2.9h-12.5v-17.9z"/><path fill="#e6e6e6" d="m654.3 443.1v-1.7c-.9 1.1-2.3 2-4.4 2-2.6 0-4.8-1.4-4.8-4.2 0-3 2.3-4.4 5.4-4.4 1.7 0 2.6.2 3.7.5v-.2c0-1.9-1.2-2.9-3.3-2.9-1.5 0-2.6.3-3.9.8l-.8-2.5c1.5-.7 2.9-1.1 5.1-1.1 4 0 5.9 2.1 5.9 5.7v8zm.1-5.6c-.8-.3-1.9-.5-3.1-.5-2 0-3.1.8-3.1 2.1s1.1 2 2.6 2c2 0 3.5-1.1 3.5-2.9z"/><path fill="#e6e6e6" d="m663.3 441.1v2.1h-3.1v-18.7h3.1v7.4c1-1.4 2.4-2.5 4.5-2.5 3.2 0 6.3 2.5 6.3 7s-3.1 7-6.3 7c-2.2 0-3.6-1.1-4.5-2.3zm7.7-4.7c0-2.6-1.7-4.3-3.9-4.3s-3.9 1.7-3.9 4.4c0 2.6 1.8 4.3 3.9 4.3s3.9-1.7 3.9-4.4z"/><path fill="#e6e6e6" d="m675.3 441.4 1.4-2.1c1.4 1.1 3 1.7 4.4 1.7s2.1-.5 2.1-1.5-1.3-1.4-2.8-1.8c-.1 0-.2-.1-.2-.1-2-.6-4.2-1.4-4.2-4s2.1-4.1 4.8-4.1c1.7 0 3.5.6 5 1.5l-1.2 2.2c-1.3-.8-2.6-1.3-3.8-1.3s-1.9.5-1.9 1.4 1.3 1.4 2.8 1.8c.1 0 .2.1.2.1 2 .6 4.2 1.5 4.2 4 0 2.9-2.2 4.2-5 4.2-2 0-4.1-.7-5.8-2z"/></g>
</svg>
