<?xml version="1.0" encoding="utf-8"?>
<!-- Generator: Adobe Illustrator 23.0.1, SVG Export Plug-In . SVG Version: 6.00 Build 0)  -->
<svg version="1.2" baseProfile="tiny" id="Layer_1" xmlns="http://www.w3.org/2000/svg" xmlns:xlink="http://www.w3.org/1999/xlink"
	 x="0px" y="0px" viewBox="0 0 900 600" xml:space="preserve">
<g>
	<path d="M894.64,312.92c2.16-5.57,2.88-1.06-0.4-14.63c-1.21-5.01,2.64-10.98-1.51-17.86c-4.51-7.47-4.43-12.47-12.01-14.13
		c-13.3-2.9-15.78,14.2-12.81,22c3.02-3.27-3.39-5,3.53-16.85c2.78-4.76,11.49-3.88,14.43,1.01c2.8,4.66,5.85,9.59,5.15,15.44
		c-11.1,0.5-22.1,3.53-33.4,2.12c3.59-12.64-3.87-24.97-26.74-24.52c-12.09,0.24-11.42,6.23-17.15,13.22
		c-4.28,5.21-9.38,9.99-11.5,15.94c-14.33,1.82-28.25,4.04-42.28,4.64c-14.13,0.61-27.85,3.94-41.97,5.35
		c-6.35-9.64-19.99-3.07-6.46-9.08c1.31-0.1,1.62,1.1,2.52,1.21c9.43,1.14,8.81,8.54,12.21,5.15c-5.2-8.38-14.13-9.71-16.14-7.87
		c-2.16,1.97-4.84,3.04-7.47,4.14c-2.92,1.22-4.95,3.63-7.37,5.35c-2.83,2.01-5.85,4.54-7.06,8.98c-3.94-2.72-6.54-6.3-10.7-7.57
		c-4.12-1.26-8.37-2.32-12.21-4.94c2.11-6.16-2.08-19.44,8.88-27.95c7.06,1.61,14.52,2.23,20.79,6.66
		c1.87,1.32,5.87,5.79,14.83,4.74c12.14-1.42,12.56,5.67,20.58,7.06c-1.82-1.51-4.04-2.42-5.45-4.34
		c-3.75-5.13-8.98-5.12-14.43-4.64c-13.64,1.19-10.38-4.58-18.46-7.77c-6.02-2.37-12.17-3.9-18.67-3.93
		c0.42,3.2-8.37,0.72-8.37,29.86c-29.94-3.08-18.61-0.38-17.27-8.58c-0.53-0.53-5.15,5.24-5.63,5.75c-1.11,0.71-2.12,0.1-3.73,0
		c2.93-4.64,4.94-9.28,6.86-14.03c-4.04,4.04-6.66,9.08-9.69,13.62c-1.31,0.4-2.22-0.4-3.53-0.61c0.5-4.84,1.11-9.38,2.12-13.92
		c-2.52,4.04-3.94,8.48-4.24,13.42c-7.54,0.67-22.86-3.89-31.78,1.31c35.24-0.4,34.99,2.92,54.08,3.13c0.4,1.01-0.2,1.31-0.71,1.61
		c-8.07,6.46-17.57,22.6-18.97,32.79c-1.16,8.43-1.57,5.84-9.59,25.43c-7.06,0.2-14.03-0.91-21.29,1.72
		c0.4-5.65,2.52-10.49,2.32-15.74c-2.62,4.74-2.93,9.99-3.63,15.24c-8.78,3.63-17.96,5.55-27.85,6.46c3.1-22.93,2.9-36.18-1.51-0.4
		c-4.84,0.71-9.38-0.3-14.03-0.4c-6.46-6.81-1.92-8.26-8.88-11.5c-4.62-2.16-7.88-5.54-10.29-9.99c-2.13-3.93-5.75-6.96-7.16-11.5
		c3.07-4.92-0.07-6.53,6.56-14.43c11.13-13.25,11.18-11.27,9.99-14.83c1.21-0.61,2.52,0.5,3.13-0.5c1.41-1.31,0.5-2.62,0.71-4.04
		c2.62,0,5.09-0.18,3.53-4.14c-0.32-0.8,1.51-2.22-0.1-3.53c12.2-7.81,5.05-2.95,7.16,0.4c2.66-2.91,2.74-6.54,9.69-14.53
		c9.48,0.61,14.53-7.57,22.8-11.3c12.25,2.53,12.6,2.1,13.02,5.45c-1.31,1.41-4.74,0.71-4.34,4.44c1.72-1.31,3.03-2.62,4.94-3.33
		c2.02,0.81,4.14,0.91,6.36-0.1c0.1-1.01-1.31-0.61-1.31-1.61c25.15-5.51,14.49-0.38,36.12-2.12c7.82-0.63,14.31,0.5,23.97,0.5
		c0.42-0.34-0.46-2.38-4.1-2.32c-6.36,0.1-12.71-0.6-19.07,0.1c-8.37,0.92-16.75,0.17-25.02-0.4c-7.7-0.54-9.48,1.61-15.54,4.14
		c-3.74-6.91-4.05-2.64-15.14-6.46c-5.02-1.73-6.66-9.22-14.63-16.25c-2.93-2.59-3.02-8.85-7.87-14.33
		c-4.27-4.82-5.05-10.19-2.62-16.45c3.43,5.15,6.32,10.21,9.18,15.34c8.45,15.14-2.87-1.98,23.51,31.38
		c0.49,0.62,0.81,1.61,2.12,1.31c2.46-4.03-19.24-22.9-21.69-29.67c-5.11-14.07-12.53-18.19-13.32-23.11
		c-3.59-22.38-8.79-40.46-29.77-40.56c-8.01-0.04,2.52,2.95-23.81-3.83c-3.43-0.88-3.93-4.27-1.31-5.15
		c6.6-1.61,4.07-7.47,5.75-11.81c2.57-6.62-0.53-10.79,1.11-18.77c0.79-3.84-1.11-7.26-3.03-10.39
		c2.23,48.24,0.37,38.33-17.56,40.06c3.53,1.01,7.16,1.01,10.9,3.03c-2.62,1.11-3.03,2.72-2.52,4.74c1.31,0.2,1.21-1.31,2.32-1.41
		c1.11,1.51,1.51,3.83,3.73,4.44c0.81-0.81-0.4-1.51,0.2-2.12c11.4,7.37,17.36,18.36,21.79,30.88c-6.96,4.94-13.1,9.82-22.4,7.26
		c-20.83-5.73-11.2-6.51-49.64-25.73c19.54-28.09,6.48-26.85,11.7-44.09c-2.83,1.61-3.83,0.3-4.74-1.61c1.01-0.3,2.32,0.1,2.93-1.41
		c-0.81-1.51,0.1-3.63-0.71-5.45c-1.41-1.21-3.53-1.61-3.43-4.04c2.83,0.1,4.14,1.92,6.86,9.28c2.92-2.11,1.98-11.21,3.83-14.53
		c3.53-6.32,2.07-10.02,4.14-10.19c2.62-0.22,2.83-2.72,4.84-3.73c-5.38-5.38,0.68-4.03-6.86-3.03c0.55-2.75,2.62-3.16,4.18-1.31
		c1.58-0.15,2.03,1.73,3.09,2.52c1.11-0.71,0.2-1.41,0.4-2.32c1.82,0.1,3.22-1.35,5.15-1.61c4.93-0.69,10.19,0.5,15.24-3.13
		c-0.2,6.05,4.04,10.19,4.74,15.24c-8.17,5.45-9.18,7.67-5.85,12.61c0.71-1.31-0.71-2.72,0.3-4.14c2.52,0.91,4.34-0.91,6.46-1.92
		c0.2-3.13,1.63-6.67,0.2-9.18c-2.4-4.25-2.93-8.88-4.74-13.12c1.31-3.43,4.74-4.94,6.86-7.87c-0.91-1.11-0.1-2.72-0.71-3.73
		c-1.82-0.91-3.23,0.71-4.84,0.3c0.5-1.82,3.13-1.92,2.62-4.14c-2.52-1.31-3.83,1.31-5.65,2.22c-0.5-2.42-0.2-4.74-2.02-6.96
		c-6.18,9.03-2.79,3.58-5.45,2.83c-6.46,4.04-14.83,4.14-22.3,5.95c-1.51,1.01-0.91,3.33-3.13,3.23c-0.61-0.61,0-2.22-1.82-2.22
		c-1.92,3.13-4.54,5.75-8.58,6.66c-2.02-0.81-3.83-3.13-6.46-1.21c0.2,1.82,2.02,1.92,2.72,3.33c-2.22,1.31-0.5,3.73-1.92,5.25
		c1.41,1.11,2.22-0.5,2.83-0.3c1.51,0.5,1.82,1.72,2.72,1.72c1.11,0,1.61-1.21,2.62-0.81c0.61,0.91,0.1,1.61-0.61,2.52
		c-2.62-1.92-4.54,0.2-6.76,1.72c0.1-1.51,1.21-2.02,1.11-3.33c-1.01-0.3-1.92-0.91-3.13,0c0.2,0.81,0.9,1.21,0.61,2.32
		c-0.84,3.22-0.89,6.76-1.61,9.99c-3.31,14.73,9.23,14.39-6.26,17.25c-25.29,4.68-48.62,9.73-42.18,36.12
		c7.87,32.26,10.3,39.71,17.96,42.38c3.31,1.15,6.26,3.33,10.49,2.02c-0.91,1.51-2.33,1.51-2.83,2.93
		c-2.76,7.86-3.1,15.67,0.2,23.41c2.81,6.59-1.63,10.04,4.34,22.9c0.3,0.81,1.11,1.92,0.81,2.42c-1.21,2.52,0.2,4.24,1.51,5.75
		c3.83,4.44,16.11,24.63,18.16,35.11c6.1,31.1,36.75,55.28,49.74,78.8c0.47,1.09,6.5,4,6.86,9.38c0.25,3.72,2.42,5.22,4.33,9.61
		c-2.75-0.58-5.94,1.26-10.58,2.91c-9.36,3.31-19.24,5.01-28.56,8.88c-2.72,1.13-5.55,1.82-8.88,2.12
		c0.83-9.51,1.27-3.41,16.04-9.99c13.91-6.2,22.58-4.49,28.35-8.58c-15.54,1.31-29.46,8.27-44.4,11.7
		c-0.91,2.32-1.41,4.74-1.92,7.67c-5.75-0.3-9.69,3.53-14.33,5.85c2.02,0.81,3.64-0.09,4.94-1.01c5.81-4.12,12.52-2.55,23.81-7.26
		c9.92-4.15,17.08-4.66,25.43-7.77c11.42-4.25,9.01-4.71,13.22-2.62c2.41-3.95-4.12-5.48-3.84-11.91c2.3,0.71,4.14,2.12,6.8,2.65
		c0.53-1.42-4.94-3.49-7.71-3.66c-8.36-13.46-6.78-2.42-9.28-13.92c0.55,0.16,0.98,0.31,1.33,0.42c0.1,1.93,1.51,2.01,2.61,2.81
		c0.67-1.01,1.4-0.22-2.33-2.92c-0.38-0.28-0.28-0.27-0.28-0.05c-3.73-6.78-6.92-5.16-7.48-6.82c-0.3-3.23-3.37-4.42-4.74-6.96
		c-6.65-12.34-7.82-6.45-25.02-33.1c-5.15-7.97-7.26-17.15-11.4-25.43c-0.61-1.72-1.51-3.23-0.1-4.44
		c-9.47-23.96-17.39-27.98-17.96-34.91c4.16-0.11,9.03,6.95,9.57,4.03c-0.06-4.48-19.7-7.44-14.52-25.62
		c1.58-5.54-3.61-8.43-3.24-12.92c1.51,2.22,1.82,4.94,4.64,5.95c-1.72-2.72-1.41-6.56-5.05-8.37
		c-1.18-10.59,5.54-20.53,13.02-31.88c2.44-3.7,5.37-0.85,11.7-4.54c-2.12,0.2-4.24,0.5-6.26,0.71c5.19-1.98,2.45-6.61,10.7-1.92
		c30.26,17.21,32.58,33.18,32.99,51.26c-2.52,1.01-4.14-2.02-5.95,0.2c0.61,2.62,3.33,0.91,4.74,2.32
		c-0.4,5.05-3.33,9.59-4.04,14.83c-1.41-5.95-3.23-11.7-6.16-17.05c3.8-1.27,5.86-1.19,2.12-3.53c-5.75-4.31-0.48-6.63-4.14-12.81
		c0.3,5.25-0.4,9.99-5.25,13.42c1.58,0.7,4.82-1.89,5.25,1.21c1.16,8.47,4.41,16.35,5.75,24.82c0.97,6.1-0.31,20.07,0,29.77
		c0.34,10.41,15.7,25.98,19.78,46.92c1.4,7.17,4.61,13.75,9.38,19.37c1.81,2.13,2.12,4.74,3.13,7.16c-0.5,0.2-0.91,0.4-1.51,0.71
		c2.12,1.51,2.52,4.44,5.05,5.75c0.61-1.61-1.61-1.61-1.31-2.93c11-0.4,24.22,10.59,24.01,23.91c-9.79-4.12-2.78-2.85-2.42-6.05
		c-1.72-0.2-2.62,1.21-4.14,1.61c-1.92-1.41-1.92-4.44-4.54-5.35c2.72,3.33,2.83,8.27,7.47,10.49c6.85,3.28,4.36-1.78,7.47-1.01
		c0.91,0.71,0.5,1.82,0.3,3.23c-4.74,0.81-8.78,3.53-13.12,5.35c-2.12-0.4-3.33-2.72-6.05-2.93c1.31,1.82,3.23,2.12,4.34,3.83
		c-3.03,1.51-5.64-0.75-8.27-1.11c-0.34-0.05-5.06-1.27-4.84-0.2c-0.28-0.28,0.07-2.77-1.21-0.3c1.01,1.72,3.13,1.72,4.44,2.12
		c2.72,0.82,5.86,2.64,8.58,1.21c6-3.16,17.89-4.94,17.35-10.8c9.18-1.61,17.66-5.36,26.84-5.85c14.59-0.78,53.53-11.07,55.09-11.3
		c3.94-0.58,7.15-3.45,10.59-5.45c3.32-1.93,3.92-6.18,7.16-8.17c1.92-1.18,8.7-10.25,12.51-13.02c8.63,5.66,11.89,0.9,24.12,12.01
		c3.64,3.3,6.64,7.34,11.06,9.76c-0.09,0.04-0.18,0.08-0.26,0.13c0.99,1.98,0.95,0.89,1.04,0.1c2.96,1.08,5.92,2.52,7.85,4.64
		c4.86,5.34,10.19,10.19,14.63,16.04c6.5,8.57-0.52,5.25,21.39,26.23c10.97,10.51,4.19,5.56,2.83,6.56c0.1,1.21,1.72,0.71,2.02,1.61
		c0.2,0.81-0.81,1.51-0.4,2.22c1.21-0.3,1.31-1.41,2.42-1.82c2.42,1.01,5.65,0.4,8.17,2.22c-1.41,1.51-2.62,2.83-4.04,4.34
		c-17.36-1.42-26.69-3.16-30.17-1.01c10.9,1.11,21.09,2.12,31.38,3.13c1.61-2.62,3.94-4.54,5.85-6.86
		c-1.92-1.31-3.73-2.53-5.85-2.72c-4.27-0.39-3.86-2.96-7.16-5.55c-31.34-24.6-10.33-18.12-37.74-42.48
		c1.99-3.97-0.06,3.89,42.88,6.26c4.6,4.92,11.02,6.23,17.56,7.87c18.31,4.58,28.64-3.17,28.09-4.87c-12.05,7-26.89,4.62-39.5-1.28
		c-9.26-4.33-15.84-29.81-3.83-42.68c1.11-0.4,0.4,1.01,1.21,1.01c17.25-16.57,15.14-21.89,19.17-27.55
		c2.81-3.95,5.75-7.06,10.8-8.37c18.89-4.93,13.92-2.55,25.12,0.91c13.83,4.27,17.8,20.87,11.81,29.06
		c-3.45,4.72-6.08,9.97-9.38,14.93c-3.35,5.03-5.11,10.8-6.26,16.75c-1.04,5.41-5.85,15.23-8.88,17.07
		c1.46,0.94,0.48-0.26,0.81-0.42c0,0.41,2.36,0.91,3.94-2.02c2.89-5.37,5.86-10.69,7.16-16.75c0.3-1.41,0.4-3.03,2.12-3.94
		c7.26,5.85,9.48,13.92,9.79,22.8c-1.92,0.3-3.83-0.71-5.65,0.3c1.38,2.26,8.59,0.81,3.43,7.26c-6.58-4.78-21.04-6.49-22-6.15
		c-0.3,3.19,8.37,2.68,15.94,5.95c-2.42,2.02-0.81,4.13,0.5,4.74c6.06,2.81,11.1,7.56,17.56,9.18c9.75,2.46,21.11,10.58,23.61,11.2
		c1.23,0.41,3.04-1.38,1.31-2.42c-7.26-2.72-13.43-7.74-20.89-9.89c-7.58-2.19-13.82-6.76-20.48-10.49c1.61-0.1,3.03,0.31,4.44,0.61
		c1.51,0.31,2.92-0.42,4.44-0.61c11.14-1.34-1.46-7.83-3.73-24.42c-0.83-6.07-6.89-3.81-2.83-12.71c2.42-0.4,4.94-0.91,7.16-1.31
		c3.13,2.22,1.61,7.26,6.26,8.58c0.91-3.23-2.93-5.85-1.01-9.28c3.43,5.15,3.83,5.35,6.46,3.63c-2.54-3.8-5.03-5.43-1.21-7.97
		c1.61,0.81,3.13,0.81,4.64-0.81c-0.81-1.11-2.52-0.71-3.03-2.22c0.4-0.61,0.91-1.31,1.41-2.12c1.21-0.2,2.72,0.61,3.63-0.91
		c0.3-1.21-1.72-1.01-1.41-2.22c1.21-1.82,3.35-2.82,3.94-5.05c7.66-29.33,1.33-19.24,15.64-36.73c-2.05-2.92-1.26-3.23-8.78,7.06
		c-10.39,3.53-20.58,4.64-31.28,2.93c-4.19-6.78-11.7-6.15-13.72-7.37c-12.45-6.59-29.38,0.06-33.3,8.68
		c-21.59,2.72-43.08,3.03-64.58,4.24c0.04,0.28,2.83,5.76-2.83,1.51c2.52-12.31-4.44-17.76-15.84-19.57
		c4.44-5.35,9.08-2.12,13.12-1.51c2.36,2.03-1.38,7.43,20.38,4.64c5.65-0.72,11.4,0.02,17.15-0.71c11-1.38,21.9-3.23,33.1-3.23
		c27.67,0,23.43-2.3,49.85-5.05c79.19-8.23,54.87-12.29,64.07,11.81c-3.73,1.51-7.47,0-11.3,2.02c3.94,2.12,7.47,0.5,11,0.71
		c2.09,18.84,8.07,23.25,2.86,39.99c0.33-4.38,0.44-8.73-1.54-12.95c0.91,5.95,1.11,11.91,0.2,17.76c0.11-0.16,0.2-0.35,0.3-0.52
		c-0.76,7.77-9.26-1.47-12.21,4.06c4.04,1.31,7.87,2.02,11.7,1.41C906.91,340.84,894.64,325.3,894.64,312.92z M512.63,119.89
		c1.51-0.91,2.32-1.61,3.73-1.21C515.66,120.19,514.45,119.69,512.63,119.89z M516.67,89.02c-0.1,1.21-0.81,2.22-1.41,3.33
		C513.28,91.09,513.63,89.02,516.67,89.02z M507.89,83.87c1.51,1.21,0.81,2.02-0.4,3.13C507.28,85.79,507.39,84.88,507.89,83.87z
		 M508.19,99.31c-0.5-0.1-1.01,0-1.11-0.2C506.75,98.6,507.73,97.68,508.19,99.31z M497.3,98.2c1.31,0.4,2.72,0.4,3.53,1.82
		C496.78,99,496.92,99.33,497.3,98.2z M493.86,89.82c-0.71,1.41-1.41,2.52-2.72,3.13C490.53,90.53,491.64,89.82,493.86,89.82z
		 M481.66,110.1c1.92,1.61,0.1,2.22-0.4,3.13C481.05,112.12,480.44,111.01,481.66,110.1z M475.7,120.19
		c-0.5-1.61,0.1-2.22,1.41-2.72C477.52,118.98,476.81,119.59,475.7,120.19z M477.01,129.78c-0.5-0.91-0.2-1.51,0.71-2.02
		C478.02,128.77,477.52,129.27,477.01,129.78z M479.23,100.72c-0.4,2.02-1.51,3.53-3.13,5.35
		C475.8,103.04,478.02,102.13,479.23,100.72z M476.61,94.16c0,1.51-0.5,2.12-1.61,2.12C474.59,94.97,475.5,94.77,476.61,94.16z
		 M474.29,117.57c-0.4,1.11-1.11,1.51-1.92,1.92C472.07,118.18,472.47,117.47,474.29,117.57z M833.09,398.98
		c-1.21,1.41-2.83,1.21-4.64,1.11C830.32,395.02,830.16,391.15,833.09,398.98z M843.69,350.55c-8.61,18.33-19.62,5.88-23.81,15.94
		c-0.1,0.2-0.71,0.1-1.51,0.3c2.72-7.47,8.48-12.71,11.4-19.78C832.87,347.27,845.9,348.34,843.69,350.55z M856.4,318.26
		c-4.44,6.56-4.14,14.73-7.67,21.79c-0.5-3.33,0-7.16-4.34-8.27c0-1.51,0-2.72,0-4.04c-2.22,1.31-2.22,1.31-1.82,5.65
		c1.01,1.21,2.93,1.31,3.83,3.33c-1.31,2.52,1.41,4.54,2.32,7.57c-2.22,0.71-2.62,2.72-3.94,4.34c-3.73-3.13-8.48-2.62-13.52-3.23
		c2.32-3.94,3.43-7.77,2.22-12.11c4.04,0,6.13-2.24,7.97-4.74c2.09-2.85,5.18-4.68,6.86-7.87
		C849.04,319.33,853.35,319.55,856.4,318.26z M845.91,321.09c-2.15,2.01-12.28,17.81-14.13,6.86c-0.5-2.98-1.3-4.43-2.93-7.26
		C834.71,322.2,840.26,320.58,845.91,321.09z M628.97,354.89c-0.4,1.21-1.11,1.41-2.02,1.92
		C626.85,355.29,627.56,354.79,628.97,354.89z M549.16,358.93c1.83,0.91,0.86,5.08,6.05,9.08c-3.94,1.61-7.47,3.13-11.3,4.64
		c-4.04-7.37-7.47-14.93-11-22.9C539.88,350.85,543.91,355.9,549.16,358.93z M530.69,321.49c-0.61-1.11-0.1-1.61,0.5-2.12
		C531.7,320.18,531.9,320.79,530.69,321.49z M537.15,316.14c-0.4-0.61-0.91-1.11-0.81-1.82
		C538.06,314.83,538.06,314.83,537.15,316.14z M537.76,312.41c1.01-0.1,1.01-0.1,2.12,1.31
		C538.56,313.52,537.96,313.32,537.76,312.41z M540.58,308.88c1.11-0.2,1.51,0.3,1.51,1.41
		C541.09,310.29,540.28,310.29,540.58,308.88z M546.33,306.86c-1.31,0.91-2.22-0.1-3.33-0.3c0.2-1.31,0.71-2.12,1.82-3.03
		C545.93,304.44,546.53,305.45,546.33,306.86z M549.46,302.32c-1.23,0.89-4.09-0.63-0.91-2.22
		C549.66,300.81,549.46,301.61,549.46,302.32z M551.78,296.27c0.91-0.1,0.81,0.61,1.11,1.01
		C551.17,298.35,550.58,296.57,551.78,296.27z M561.06,286.88c0.73-1.09,2.62-2.61,2.62-1.31
		C563.08,286.58,562.48,287.29,561.06,286.88z M573.27,275.78c7.64-5.5,6.71-3.55,7.16-2.42
		C578.32,274.27,576.4,275.48,573.27,275.78z M582.35,271.85c-0.71,0.81-1.51-0.2-2.22,0.2c0.61-0.5,0.61-1.72,2.52-1.41
		C582.76,270.64,582.46,271.34,582.35,271.85z M583.77,269.43c0.61-0.5,1.11-1.51,2.32-0.71
		C585.58,270.03,584.78,269.93,583.77,269.43z M562.68,194.56c-2.42-2.12-2.62-5.65-5.95-7.47c1.61,3.13,2.83,5.65,4.14,8.27
		c2.07,0.89,0.89,3.09-0.3,0.3c0.61-0.61-15.28-9.91-22.9-17.15c-1.4-1.33-3.23-2.22-4.94-3.43
		C546.84,172.46,556.63,178.01,562.68,194.56z M468.64,116.66c0.91,1.92,0.1,3.33,0.3,4.74
		C468.13,120.09,467.23,118.78,468.64,116.66z M467.73,130.99c1.01-0.1,1.51,0.61,2.12,1.11c0.81,1.31-1.72,2.32-0.1,3.73
		C466.22,133.71,466.12,133.51,467.73,130.99z M459.46,186.69c-2.74,7.8-12.27,8.18-18.36,23.41c-8.27,5.45-17.99-2.52-19.07-10.09
		c-4.14-29.03-19.74-48.45,9.59-59.33c11.19-4.15,27.35-4.03,31.78-9.38c0.61,0.91,1.01,1.31,1.11,1.72
		c0.81,7.47,5.42,13.33,7.77,20.18c2.33,6.8,0.31,7.78-1.21,12.81C467.05,179.24,462.62,177.7,459.46,186.69z M497.8,261.86
		c1.51-0.1,2.83-0.1,4.14,0c-0.61-2.02-2.93-1.11-4.04-2.52c6.13-20.7,6.17-37.52-10.39-53.68c-25.34-24.72-29.96-10.26-23.71-20.68
		c29.19,13.77,52.01,42.75,74.67,16.85c-3.13-11.91-9.48-21.9-19.37-29.97c1.92-3.36,25.83,14.86,25.93,14.93
		c17.76,12.76,20.94,12.94,21.39,27.14c0.1,3.23-1.72,6.26-1.01,9.59c-1.72,1.51-3.43,1.41-4.94,0.3c-7.67,5.11,1.83,1.34,5.15,1.82
		c1.92,6.15,6.52,11.01,8.78,17.05c3.21,8.59,9.89,12.14,15.14,21.19c-4.04,2.42-7.85,4.77-11.7,6.96
		c-15.61,8.88-45.5,44.58-46.62,45.3c-2.56,1.67-3.13,5.15-3.23,7.67c0.5,2.02,2.12,0.61,2.62,2.02c-0.61,1.21-2.42-0.5-2.93,0.81
		c-1.01,1.61,1.31,2.42,0.3,4.64c-2.12-4.14-6.41-6.15-6.36-11.1c0.01-0.61-0.3-0.91-0.61-1.31c-26.45-41.28-28.17-14.81-25.93-44.6
		c2.12,0,4.24,0.2,5.85-1.92c-7.3-1.46-5.61,2.01-6.76-7.16C495.48,264.28,497.09,263.47,497.8,261.86z M494.47,291.52
		c5.85,6.36,9.99,13.42,15.34,18.97c0.3,1.51-0.81,2.22-0.81,3.43c1.21,0,1.21-1.51,2.22-1.72c5.06,4.64,3.99,2.86,1.51,7.47
		c0.3,0.3,0.13,0.58,1.92-0.91c9.18,11.47,9.08,11.62,10.19,12.41c5.49,3.22,6.76,7.95,11.1,15.54
		c-13.97-3.4-32.75-29.58-38.24-39.55C494.8,301.9,493.97,298.39,494.47,291.52z M507.99,325.83c1.11,1.61,2.42,2.52,2.52,4.04
		C509.1,329.16,508.19,328.15,507.99,325.83z M547.85,385.16c2.72-2.22,5.85-2.32,8.88-3.73c0.2,2.42,0.5,4.54,2.32,5.85
		c-2.22,2.32-6.76,0-7.47,4.34C550.37,389.5,550.27,386.88,547.85,385.16z M559.35,380.52c4.14-1.51,3.63,3.03,6.15,4.34
		C561.52,388.09,557.3,384.41,559.35,380.52z M654.3,365.18c-4.99,6.03-9.93,5.44-12.51,10.29c-1.19,2.23-4.44,2.83-7.26,4.04
		c0.2-7.57-5.14-9.71-10.7-11.5c-2.22-0.72-4.34-2.1-6.76-1.92c-6.05,0.45-12.21,0.1-18.06,2.52c12.71-0.89,21.59-2.98,31.68,4.24
		c2.41,1.73,2.32,4.14,1.92,6.76c-1.31,1.61-3.23,2.12-5.25,2.52c-31.27,6.17-36.25,7.47-46.11,8.17
		c-13.3,0.94-21.63,7.03-28.76,5.55c-0.94-1.03,0.45-3.94-1.01-3.94c0.43-0.43,3.1,1.02,12.41-3.63c2.62-1.31,2.91-2.51,1.41-5.15
		c-3.37-5.93-3.22-4.41-10.09-3.23c-3.02,0.52-5.85,2.02-8.88,3.53c-3.43-9.08-12.11-9.69-19.88-12.21c0.5-2.12-0.72-3.52-1.72-4.94
		c-9.77-13.99-7.5-26.32-7.97-27.45c-2.32,2.42-2.32,2.83-0.71,11.4c-2.02-6.86-3.33-13.72-5.65-20.28
		c10.12,10.75,13.85,15.31,18.77,17.36c3.35,1.39,0.64,3.24,13.32,26.54c0.3,0.71-1.41,1.21-0.4,2.93
		c4.74-3.63,10.8-4.74,15.64-8.17c28.65,4.32,40.45-10.75,66.39-6.56c2.42-2.32,4.94-4.74,7.77-7.37
		C668.93,358.64,669.78,346.47,654.3,365.18z M703.31,376.65c-0.12-0.12-0.08-0.06,0.05-0.03
		C703.34,376.63,703.33,376.64,703.31,376.65z M760.14,345.71c-2.42-1.72-5.35-2.72-7.97-4.24c4.24-0.3,8.37,0.2,12.61-0.1
		C763.07,342.68,761.76,344.09,760.14,345.71z M778.61,321.69c-4.14,5.95-5.95,12.71-11.6,17.25c-6.66,1.11-13.62-0.05-20.58,0
		c-2.72,0.02-5.34-1.42-7.77-2.62c-11.84-5.87-20.43-7.03-21.59-8.78C716.5,323.05,730.24,328.22,778.61,321.69z M757.92,347.52
		c-9.48,12.71-8.17,25.63-1.01,38.85c-2.45,0.61-36.03,0.62-57.31-17.15c-7.23-6.03-9.22-11.18-22.2-13.72
		c-2.62-0.51-5.05-1.11-7.47-3.03c3.13-0.4,5.85,0.5,8.78,0.1c-4.04-1.51-8.07-2.83-13.02-0.2c1.41-2.62,4.14-2.83,5.15-5.25
		c-10.8,4.38-15.29,6.89-25.12,5.25c-15.39-2.57-19.68,3.7-15.03-4.44c4.94-0.2,9.38-2.22,13.72-4.64c-4.14-0.1-7.77,2.02-11.7,2.22
		c1.82-13.12,6.05-25.02,13.52-35.82c3.43,0.81,6.46,1.51,10.19,2.42c-2.22-2.93-5.25-2.72-7.57-4.14
		c5.55-7.97,10.68-7.74,16.55-4.84c5.18,2.55,12.92,3.52,14.83,5.25c4.54,4.64,10.81,7.15,15.14,12.01
		C698.19,323.56,740.44,337.81,757.92,347.52z M705.05,311.5c4.34,2.01,6.56,7.67,5.55,13.72c-8.07-1.72-14.33-6.26-19.57-12.41
		C695.97,307.37,698.9,308.66,705.05,311.5z M810.19,286.58c11.7-14.43,14.79-19.53,23.61-18.46c12.86,1.56,22.47,1.09,23.51,18.36
		c0.12,2.02-0.4,4.03-2.83,4.14c-7.06,0.3-13.92,2.42-21.19,0.91c0.4-2.62,2.02-4.54,2.93-7.47c-2.52,2.62-3.23,5.55-5.05,7.97
		C804.53,292.94,798.16,301.42,810.19,286.58z M701.92,301.21c4.04-2.42,9.89-1.11,14.13,3.03
		C711,304.64,706.77,301.82,701.92,301.21z M889.6,292.23c1.54-1.54-93.94,10.7-94.04,10.7c-15.84-0.05-31.69,0.95-47.32,3.33
		c-6.46,0.98-13.01,0.02-19.47,0.91c-3.13,0.43-12.13,1.53-14.53-0.5c21.23-2.12,21.37-3.22,34.51-4.64
		c18.82-2.04,30.03-1.81,41.98-4.34c4.24-0.9,8.48-0.48,12.71-0.61c8.28-0.25,16.25-2.5,24.52-3.13c2.48-0.19,41.48-0.96,61.65-4.34
		c0.91,1.11-0.71,1.72,0.1,2.52c0,0.1-0.17,0.07,1.82-0.81c0.5,1.92,1.11,3.73,1.01,5.55c-0.7-1.71-2.29-2.91-2.82-4.7
		C889.68,292.19,889.64,292.21,889.6,292.23z M892.42,296.97c1.61,4.04,2.02,8.27,2.83,12.51
		C893.53,305.45,892.93,301.21,892.42,296.97z"/>
	<path d="M56.66,324.32c2.06,12.56,18.57,32.26,27.45,41.47c2.36,2.45,6.44,12.37,12.81,17.36c2.71,2.12,1.46,4.99,6.66,8.88
		c8.02,6,1.42,9.02,11.4,18.67c1.31,1.82,3.74,2.1,5.35,2.52c2.63,0.68,5.65,2.42,8.27,1.01c6.17-3.32,18.31-4.97,17.15-10.9
		c6.46-0.5,11.91-3.42,17.76-4.34c83.65-13.07,66.77-16.04,80.42-21.29c0,15.3-2.6,22.76,5.85,34.81
		c7.27,10.36,4.15,16.6,5.95,26.64c2.2-9.21-3.66-26.58,8.27,0c-4.24,2.02-8.27,3.94-12.21,5.75c4.74,0.3,8.17-3.23,12.71-4.04
		c4.12,8.59,2.25,11.5,5.85,10.49c0.17-0.34,0.12-0.1,0.1,0c0.13-0.13,0.06-0.05,0.06-0.18c-6.18-29.88-22.67-39.36-23.97-52.78
		c-2.3-23.68,2.68-30.57-0.2-36.12c1.37-1.16,4.61-0.77,4.61-1.36c-0.5-0.77-1.19-1.16-1.88-1.06c-8.39,1.23-9.45-4.56-30.77-2.62
		c0-1.72,1.01-2.83,1.72-4.24c5.45-0.2,10.19-2.72,15.14-4.94c-4.64-0.3-8.78,2.22-13.72,2.52c3.97-9.12,2.78-28.73,22.6-43.29
		c2.62-1.92,5.94-1.48,8.68-0.2c8.62,4.02,17.87,4.19,22.1,12.01c5.85,10.82,6.55,0.74,11,23.01c1.01-5.05-0.61-9.79-1.41-14.53
		c-0.63-2.52-1.59,1.2-7.77-10.29c-1.8-3.34-4.34-5.95-7.97-6.96c-6.56-1.82-12.31-5.97-19.27-6.56c-23-1.94-13.22,0.01-11.3-9.28
		c-6.05,6.87-6.65,8.73-9.89,6.96c2.87-4.21,15.82-29.93-2.83-0.1c-1.41,0.5-2.22-0.4-3.43-0.61c0.2-4.94,1.21-9.48,2.02-14.13
		c-8.28,12.74,1.66,15.29-13.12,13.22c-4.95-0.7-19.3-1.89-23.11,1.92c18.36-1.82,36.32,2.12,54.39,3.13
		c0.29,1.37-17.24,14.74-20.08,36.12c-1.21,9.13-5.18,10.59-9.18,23.71c-7.16,0.1-14.33-0.91-21.59,1.61
		c0.81-5.75,2.52-10.7,2.42-15.84c-2.22,4.84-3.23,9.89-3.33,15.34c-8.98,3.73-18.36,5.65-28.15,6.56
		c1.01-7.57,1.92-14.83,1.72-22.2c-7.28,27.21,5.13,21.89-17.25,21.39c-1.92-1.92-3.45-4.03-4.14-6.66
		c-1.57-6.05-7.61-2.62-15.34-15.24c-5.67-9.26-7.03-7.92-5.85-13.62c1.42-6.88,5.22-12.13,9.89-16.85
		c2.01-2.03,3.11-4.77,5.55-6.36c1.1-0.72,0.4-2.12,0.5-3.13c3.94-1.01,3.94-1.01,3.33-5.05c3.03,0.4,5.07-0.11,3.63-4.04
		c-0.3-0.81,1.31-2.12,0-3.33c1.72-2.52,4.94-2.12,6.46-4.74c1.31,1.92-0.81,3.23,0.81,5.05c2.83-5.25,5.55-10.29,9.48-14.53
		c16.86,0,14.57-18.24,34.71-8.17c0.61,0.3,0.81,1.51,1.21,2.22c-4.14,1.51-4.14,1.51-4.44,4.44c2.32-2.42,4.64-4.04,7.97-2.72
		c0.91,0.3,2.32-0.4,3.73-0.71c-0.81-0.61-1.31-1.01-1.72-1.41c0.2-0.2,0.3-0.5,0.5-0.5c5.75-0.81,11.4-3.33,17.36-2.22
		c5.45,1.01,11,0.88,16.45,0.3c8.88-0.95,17.66,0.81,27.65-0.2c-9.69,8.27-10.29,18.46-9.18,29.16c2.82-6.34-1.48-16.36,7.97-25.73
		c1.72-1.71,3.53-2.51,5.65-2.12c5.14,0.94,10.44,0.42,15.24,3.43c5.07,3.18,6.65,0.04,33.4,11.6c6.8,2.94,6.85,8.63,8.98,18.67
		c-0.15,0.09-0.28,0.19-0.39,0.3c1.81-0.61,1.4-2.12,1.3-3.43c-1.47-20.51-14.96-16.83-25.12-23.11c-3.12-1.93-6.77-2.6-10.29-3.43
		c-9.8-2.31-14.2-9.19-52.07-6.66c-27.67,1.85-24.52-4.34-40.87,3.83c-1.31-2.22-2.62-4.73-5.55-4.54
		c-3.29,0.21-11.51-1.91-13.12-4.24c-13.71-19.86-12.24-13.19-13.02-16.25c-1.89-7.47-7.99-12.67-10.49-19.78
		c-0.21-0.6-0.4-1.61-1.72-0.91c2.12,7.37,7.21,13.2,10.19,20.18c2.97,6.94,10.19,11.1,13.42,18.06
		c-4.81,2.85-21.84,11.23-38.54,30.37c-10.69,12.24-5.89,6.43-13.32,4.64c1.82,2.02,3.23,3.53,4.64,5.05
		c-2.42,3.33-5.59,5.73-7.67,8.98c-0.51,0.8-0.91,2.02-1.72,2.32c-4.73,1.74-4.04,5.85-4.64,9.28c0.5,1.11,2.02-0.3,2.22,1.21
		c-0.61,1.11-2.21-0.5-2.83,0.91c-0.7,1.62,1.41,2.42,1.21,4.04c-1.31-0.1-1.92-1.11-2.52-2.02c-2.04-3.11-5.35-5.65-5.15-9.89
		c-18.11-28.26-26.67-26.23-26.74-30.27c-0.26-15.23,1.63-5.5,8.07-9.18c-2.93-0.71-5.35-0.91-7.47-2.62
		c0.3-3.94-0.61-7.87-0.61-11.81c1.59-0.22,10.55,3.62,2.93-1.72c4.55-30.32,12.64-44.65-27.24-71.44c-2.6-1.75-5.75-1.72-8.98-2.83
		c4.95-5.77-3.86-6.44,26.03,9.18c1.82,0.95,16.05,13.14,34,14.13c3.47,0.19,11.58-2.97,17.15-10.8
		c-3.13-11.81-9.59-21.9-19.37-30.07c6.46,1.41,12.29,4.56,17.15,8.58c16.42,13.56,27.55,16.32,29.77,28.45
		c1.25,6.85-1.59,11.97,0.71,15.34c4.48-3.06-2.25-15.91,12.01,9.79c8.54,15.39,0.03-1.14,23.31,31.08c0.51,0.7,0.91,1.72,2.12,1.11
		c2.23-3.8-19.79-24.13-21.59-29.16c-2.92-8.17-7.87-15.24-13.42-21.9c-0.3-4.54-1.22-8.88-2.52-13.22
		c-3.15-10.55-6.33-30.21-29.06-29.06c-7.77,0.39-14.82-2.79-22.3-4.04c-1.91-0.32-3.13-1.51-2.62-3.94
		c3.11-1.77,5.67-2.15,5.85-4.84c0.38-5.85,3.29-11.31,2.22-17.36c-1.96-11.05,3.52-9.46-2.93-19.98
		c2.22,48.19,0.34,38.51-17.56,40.26c19.9,4.68,5.58,0.54,8.68,7.77c1.21,0.2,1.21-1.11,1.92-1.41c2.12,3.23,2.12,3.23,4.24,4.34
		c-0.1-0.91-0.2-1.72-0.3-2.32c11.3,7.47,17.56,18.46,21.9,31.08c-6.76,4.84-12.91,9.85-22.2,7.37
		c-20.07-5.37-20.65-11.22-37.23-19.37c-16.14-7.93-13.14-4.47-8.37-12.31c13.14-21.6,2.78-23.51,7.37-37.74
		c-2.52,0.91-3.83,0.1-4.44-2.02c4.94-0.55,1.23-2.12,2.77-7.07c5.6,11.08,1.66,4.5,9.03-16.03c0.4-1.11,0.41-3.01,1.61-3.13
		c2.53-0.26,2.83-2.72,4.84-3.53c-1.11-1.41-1.92-2.52-2.72-3.63c-1.31-0.1-2.52,0.81-3.53-0.5c1.82-2.02,5.05-1.11,7.87,2.12
		c1.51-0.3,0-1.41,0.3-1.82c6.26-3.83,13.82-0.61,20.18-5.05c0.4,5.65,3.23,10.19,5.15,14.83c-8.48,5.85-9.08,7.16-6.26,12.92
		c0.81-1.31-0.3-2.72,0.5-4.14c2.52,0.81,4.24-1.11,6.56-2.02c-0.3-3.13,1.75-6.68,0.2-9.18c-2.57-4.17-3.03-8.88-4.84-13.12
		c1.31-3.53,4.74-4.94,6.96-7.97c-1.11-0.91-0.5-2.42-0.71-3.63c-2.02-0.91-3.63,0.81-5.65,0.61c1.11-1.72,3.43-1.92,3.43-4.24
		c-2.62-1.61-3.94,0.81-5.75,2.12c-0.71-2.32,0-4.94-2.02-7.06c-1.31,1.41-1.72,3.23-3.43,4.34c-2.31-4.31-7.75,2.4-10.8,2.22
		c-4.84-0.29-9.18,1.82-13.42,2.02c-1.61,1.11-1.11,3.73-3.43,3.53c-0.81-0.61,0.3-2.22-1.72-2.42c-1.82,3.33-4.44,6.05-8.78,6.76
		c-1.92-0.91-3.73-2.83-6.26-1.31c0,1.92,2.12,2.02,2.62,3.43c-2.02,1.82-0.3,5.25-2.93,6.76c2.37,5.39-4.95,15.39,0.91,26.64
		c-8.12,4.96-58.84,3.63-50.75,38.24c0.02,0.1,7.83,29.81,10.09,34.91c1.57,3.55,3.64,6.75,7.77,8.07c3.43,1.1,6.46,4.14,10.7,1.82
		c-0.2,2.02-2.22,1.61-2.72,3.13c-2.62,7.87-3.12,15.63,0.1,23.41c2.97,7.18-1.18,9.91,4.14,22.5c2.26,5.35-1.22,4.17,2.42,8.58
		c2.75,3.33,17.65,27.06,17.65,31.37C51.01,315.67,56.17,321.36,56.66,324.32z M175.22,273.77c-0.3,1.31-1.01,1.21-1.72,1.01
		C173.5,273.77,174.01,273.46,175.22,273.77z M170.17,276.39c0.23-0.9,1.52-0.72,1.31,0.1c-0.1,0.4-0.2,0.71-0.71,0.5
		C170.48,276.99,169.97,276.99,170.17,276.39z M169.37,277.6c0.54,1.07,0.86,0.93-5.65,3.53c-0.1-0.3-0.2-0.61-0.4-0.91
		C165.43,279.52,166.74,276.99,169.37,277.6z M154.03,288.8c-0.91,2.02-1.61,3.13-3.83,3.63
		C151.2,290.72,152.21,290.01,154.03,288.8z M142.22,302.72c-0.81,0-1.51,0.2-1.51-0.71C140.71,301.28,141.78,300.75,142.22,302.72z
		 M138.09,305.05c0.5,1.01,1.21,1.61,0.61,2.52C137.58,308.12,134.52,306.83,138.09,305.05z M134.15,308.68
		c3.05,2.5,1.13,5.16-1.72,2.62C132.64,310.39,133.04,309.59,134.15,308.68z M131.63,315.14c-0.81,0.5-1.41,0.5-2.12-0.5
		C130.92,313.02,131.22,314.13,131.63,315.14z M128.7,318.47c-1.11,0.2-1.41-0.3-1.61-1.21C128.3,317.05,128.5,317.56,128.7,318.47z
		 M125.88,319.27c1.11,0.2,2.12,0.4,1.01,2.22C125.98,320.89,125.57,320.38,125.88,319.27z M151.81,199.6
		c-2.32-1.92-2.32-5.55-5.95-7.26c2.02,3.63,3.63,6.46,5.25,9.38c-9.38-7.67-20.08-13.32-28.66-21.49
		C134.35,176.4,148.98,185.68,151.81,199.6z M102.67,124.84c0.81-0.61,1.51-1.31,2.72-1.11
		C104.99,125.54,103.48,124.43,102.67,124.84z M106.3,94.06c-0.79,1.29-1.84,5.97-3.03,1.21C103.88,94.36,104.79,94.26,106.3,94.06z
		 M96.92,89.22c0.4,0.1,0.71,0,0.81,0.2c0.71,1.11,0.2,1.92-1.21,2.62C96.72,90.93,96.82,90.02,96.92,89.22z M96.51,103.55
		c0.5-0.3,0.71,0.2,1.11,0.71C96.01,104.94,95.97,103.82,96.51,103.55z M87.94,98c1.12,0,0.33,1.6-0.4,1.11
		C86.93,98.8,87.53,98.3,87.94,98z M90.16,104.96c-1.31-0.3-2.83,0-3.73-1.21C87.84,103.85,89.25,103.55,90.16,104.96z M83.4,94.56
		c-1.01,1.82-1.82,2.93-3.03,3.73C79.36,95.88,80.88,95.37,83.4,94.56z M70.48,115.45c1.31,1.21,1.31,1.21-0.2,2.83
		C70.18,117.27,69.88,116.36,70.48,115.45z M65.34,125.34c-0.91-1.41-0.4-2.12,1.01-2.62C66.75,124.23,66.04,124.63,65.34,125.34z
		 M66.04,119.49c0.4,0.4,0.3,0.81-0.2,1.41C65.44,120.09,65.54,119.79,66.04,119.49z M66.14,134.82c-0.5-0.91,0.3-1.31,0.71-2.02
		C67.15,134.02,67.05,134.52,66.14,134.82z M68.36,105.76c0.1,2.42-1.61,3.63-2.93,5.05C65.34,108.39,67.15,107.28,68.36,105.76z
		 M66.45,99.21c-0.71,1.41-1.01,2.62-2.62,2.12C64.23,100.22,64.83,99.51,66.45,99.21z M64.63,105.87c0,1.01-0.3,1.21-0.91,1.11
		C63.42,106.27,63.92,106.07,64.63,105.87z M218.1,359.94c0.78,0.78-1.06,1.74-2.22,1.92C216.39,360.64,216.79,359.63,218.1,359.94z
		 M146.86,373.66c28.54,4.46,39.72-10.32,66.59-6.56c2.42-2.22,4.94-4.64,7.47-7.06c8.27-0.71,16.25,0.4,24.01,2.93
		c0.81,3.83-0.71,7.16-0.91,10.7c-6.66,3.83-13.12,7.87-20.48,11.2c0.71-7.37-4.44-9.39-9.38-11.5c-8.77-3.75-17.56-1.92-26.23,0.3
		c13.78-0.73,20.78-2.87,30.88,3.33c3.44,2.11,3.63,3.03,3.13,7.67c-1.51,2.02-3.93,2.33-6.26,2.72
		c-16.74,2.87-33.2,7.13-50.15,8.58c-11.98,1.02-24.66,10.83-23.83,0.7c-0.69,0-1.64-0.73-1.8-2.21c-0.18-1.72-1.72-2.72-2.52-4.24
		c2.52-2.02,5.75-2.22,8.88-3.63c0,7.95,6.22,5.56-2.93,7.67c-2.48,0.57-2.15,2.25-1.72,2.32c0.12-0.12,0.12-0.17,0.08,0.09
		c6.94-0.18,15.36-4.49,13.94-7.15c-2.88-5.41-2.95-8.96-19.78-1.11c-0.82-3.29-2.99-5.58-5.62-7.25c4.13,0.61,5.55-2.91,8.44-3.45
		C141.73,377.13,144.64,375.78,146.86,373.66z M148.58,385.77c4.04-1.51,3.83,2.62,5.95,4.24
		C151.51,392.87,146.74,390.51,148.58,385.77z M106.6,343.29c-4.49,3.65-0.02,9.78-0.71,12.92c-2.27-7.11-3.49-14.59-6.09-21.61
		c1.44,1.77,7.95,9.35,12.75,13.54c5.21,4.56,6.66,2.33,10.09,11.5c6.71,17.95,11.36,18.48,7.52,21.45
		c-5.19-3.26-12.15-4.09-14.18-5.21C116.62,371.89,104.92,362.36,106.6,343.29z M130.82,358.83c2.5,2.83,8.44,3.73,9.69,9.18
		c1.78,7.79,10.86,1.95-7.26,9.79c-4.04-7.37-7.57-14.83-11.1-23.11C125.47,356.1,128.55,356.25,130.82,358.83z M120.33,324.32
		c0.91,1.21,0.5,1.82,0.1,2.32C119.32,325.83,119.82,325.33,120.33,324.32z M83.9,296.57c5.55,6.46,9.99,13.32,15.34,19.17
		c0,1.51-1.41,2.42-1.31,3.94c1.41-0.4,1.21-1.92,2.52-2.52c1.11,1.11,2.32,2.22,3.53,3.33c-0.1,2.02-1.92,3.03-2.22,4.74
		c1.31,0.3,1.01-1.41,2.32-1.41c1.4,1.89,9.13,12.21,12.92,14.33c2.89,1.62,5.91,10.08,7.97,13.72
		c-8.56-3.54-13.55-5.67-28.56-25.83C92.22,320.4,81.35,308.76,83.9,296.57z M99.44,334.21c-1.72,0.1-1.61-1.31-2.52-2.83
		C98.63,332.39,99.14,333.2,99.44,334.21z M63.62,122.82c-0.4,0.91-1.01,1.51-2.02,1.82C61.5,123.12,61.91,122.31,63.62,122.82z
		 M63.48,135.93c0.61,0-1.4,1.17-4.3-3.03C61.68,131.71,61.7,131.71,63.48,135.93z M58.68,141.18c-1.51-1.51-4.24-2.52-1.82-5.15
		c1.21,0,1.92,0.71,2.62,1.51C59.28,138.76,58.07,139.77,58.68,141.18z M58.27,121.51c0,2.22,0,3.73,0,5.25
		C57.47,125.14,56.66,123.62,58.27,121.51z M56.56,101.33c0.81-0.4,1.01,0.3,1.41,0.91C56.86,102.33,56.36,102.23,56.56,101.33z
		 M54.64,106.77c4.77,3.71,3.06,0.41,5.25,1.01c0.91,0.91,0.2,1.51-0.4,2.52c-2.62-1.51-4.74-0.2-6.86,1.72
		C53.93,110.61,52.93,108.19,54.64,106.77z M17.11,214.44c-5.58-3.45-4.31-5.7-13.02-41.37c-7.92-32.44,40.83-28.38,48.33-36.22
		c1.01,0.3,1.31,1.01,1.41,1.72c0.61,7.06,5.33,12.52,7.37,19.07c2.69,8.68,0.5,7.71-1.21,14.23c-2.9,11.08-8.5,11.59-11.4,19.98
		c-2.6,7.52-12.42,8.79-18.06,23.21C25.38,218.77,21.15,216.94,17.11,214.44z M35.47,272.96c3.83,0,5.65,4.34,9.69,4.74
		c-0.61-3.13-3.14-4.11-5.35-5.25c-7.42-3.84-11.42-11.71-9.69-19.68c1.71-7.9-3.15-9.34-2.72-13.42c1.61,1.82,1.92,4.44,4.34,5.35
		c-2.12-6.36-2.62-7.26-5.15-8.78c-0.8-12.5,6.52-21.18,12.92-31.99c1.87-3.16,3.81-0.89,11.6-4.14c-2.12,0-4.14,0.4-6.26,0.2
		c5.89-1.77,2.2-6.32,10.7-1.72c9.97,5.4,28.01,19.81,30.17,30.98c6.08,31.43,0.57,16.7-2.93,20.38c0.5,2.62,2.93,1.11,4.54,2.32
		c-0.2,5.15-3.13,9.79-3.83,14.93c-1.31-5.95-3.23-11.6-6.05-17.05c1.11-1.01,2.93-0.5,3.94-1.92c-0.59-1.76-5.79-2.87-4.74-7.47
		c0.56-2.43-0.61-4.74-1.21-7.26c1.01,6.15-1.31,10.8-6.36,14.63c1.98,0,5.82-3.23,6.26-0.2c2.24,15.64,8.96,19.26,5.35,51.66
		c-1.03,9.25,6.33,16.24,14.93,34.31c6.58,13.83,3.9,22.43,14.53,35.01c1.71,2.02,2.07,4.46,3.03,6.76
		c0.38,0.92-0.91,0.61-1.01,1.41c1.82,1.51,2.22,4.34,4.94,5.65c0.1-1.61-1.82-1.92-1.61-3.23c11.5-0.2,24.82,11.4,24.01,24.22
		c-1.72-0.81-3.33-1.61-5.05-2.42c0.3-1.92,2.42-2.02,2.83-3.73c-1.82-0.3-2.72,1.31-4.44,1.61c-1.61-1.51-1.82-4.24-4.04-5.45
		c2.12,6.86,4.24,9.28,10.09,12.11c2.12,0.2,2.22-2.72,4.24-2.62c1.21,0.91,0.91,1.92,0.4,3.43c-4.69,0.38-12.52,6.01-14.1,5.22
		c0.48-0.48-2.16-2.6-4.27-3.1c-0.54,1.09-1.19,0.17,4.04,3.33c-0.81,1.61-2.52,1.41-3.53,0.91c-2.12-1.21-4.73-0.52-6.76-2.02
		c-0.88-0.64-3.8,0-3.8-0.1c0-5.56-4.59-6.13-4.37-11.6c2.62,0.61,4.54,2.52,7.87,2.62c-3.03-2.12-5.45-3.73-8.88-3.63
		c-5.86-10.34-9.04-6.72-8.68-11.6c0.16-2.12-2.42-3.23-3.53-5.05c1.51-0.1,1.82,1.72,3.23,1.61c-0.31-3.72-1.61,1.65-13.72-17.15
		c-5.79-8.99-6.31-4.7-20.38-25.02c-4.25-6.14-14.38-29.18-13.72-31.99c4.14,5.85,6.66,13.12,14.73,15.14
		c-0.2-0.4-0.2-0.61-0.2-0.71c-7.85-4.07-15.4-17.29-17.46-23.01C46.86,291.48,35.57,278.01,35.47,272.96z"/>
	<path d="M325.96,309.59l-0.05-0.05l-0.01,0.01C325.94,309.58,325.91,309.59,325.96,309.59z"/>
	<path d="M306.51,329.16c0.01-0.01,0.02-0.01,0.02-0.01C306.55,329.13,306.58,329.1,306.51,329.16z"/>
	<path d="M389.73,426.43c-22.94-6.07-21.74-0.88-35.62-3.23c8.99-6.99,10.64-13.39,15.74-19.37c4.04-4.74,6.9-9.97,9.79-15.34
		c1.02-1.91,1.18-4.13,0.61-6.26c-1.32-4.93,2.17-12.18-10.29-19.57c-10.65-6.32-29.02,3.71-35.62,14.03
		c-1.06-0.79-0.24,1.7-3.73-42.38c-0.62-7.87-3.88-15.24-3.94-23.21c0-0.47-0.43-1.03-0.74-1.51c-2.44,0,3.63,22.07,5.28,52.87
		c0.9,16.9,5.55,18.74-18.67-28.56c2.42-8.27,7.29-15.14,5.25-23.81c-2.13-9.07-14.08-14.22-17.46-11.4
		c-2.31,2.31-15.66,7.23-20.99,16.55c-0.58,1.02-1.51,2.12-0.81,3.43c0.3,0,0.61,0.1,0.71,0c6.46-6.66,9.14-5.66,16.85-1.72
		c4.61,2.36,4.76,12.58,4.84,17.35c0.14,7.47-3.31,14.13-4.04,21.39c-0.59,5.85-2.76,11.32-4.54,16.85
		c-0.61,1.91-0.59,16.26-3.73-0.71c-1.72,0.4-1.61,1.72-1.41,2.93c2.33,14.02,1.97,28.25,3.43,42.38
		c1.06,10.26,6.92,7.21-20.08,34.21c-0.09-0.28-1.71,2.69-3.73,4.54c-5.31,4.85-5.7,13.72-3.13,20.48
		c5.9,15.54,12.36,15.78,22.2,19.46c9.84,3.69,15.13-0.72,21.49-1.21c-1.3-2.96-1.15-1.84,17.96-22.4c4.73,0.59-3.29,4.06-5.85,10.8
		c5.15-0.81,6.46-6.86,11.3-7.47c-1.09,1.99-3.55,3.01-3.91,5.74c0.49,0.74,2.77-2.4,4.61-2.11c0.81,1.31-1.21,2.12-0.71,3.43
		c1.51-0.1,1.51-0.1,4.74-5.35c1.61,0.81,3.56,1.09,4.74,2.72c0.72,1,1.92,1.21,3.03,1.21c14.91,1.21,15.41-1.95,21.59,5.15
		c-0.1,1.21-1.31,1.21-1.72,2.22c0.07,0.1,1.05,2.38,1.72,1.72c-0.2-3.04,7.66-3.44-8.48-11.3c-4.74-10.59-8.56-21.6-14.53-31.58
		c-1.37-2.28,1.24-10.96,0.4-16.25c-0.91-5.75-5.05-9.69-7.47-14.53c-2.25-4.5-6.85-5.57-11.5-6.96
		c-7.67-18.26-17.46-35.72-25.33-54.89c11.21-21.68,4.4-25.94,10.8-13.52c4.4,8.55,9.49,16.75,13.42,25.53
		c33.88,75.73,39.79,79.18,45.3,96.16c3.44,10.59,8.85,16.31,5.05,17.76c-1.52,0.58-3.03,1.41-4.84,3.03
		c3.23-0.5,5.85-0.3,8.17-2.22c-0.4-3.53,3.83-5.15,3.73-8.27c-4.44-6.46-6.66-13.62-9.99-20.89c9.17,1.59,16.77-10.37,22.6-18.46
		C394.99,430.07,394.28,427.63,389.73,426.43z M292.16,393.43c6.48,8.1,8.7,11.32,12.01,12.92c-17.13-20.76-15.13-13.44-9.79-37.23
		c8.78,12.31,10.09,26.54,13.52,40.16c-5.25,4.24-9.08,9.89-13.92,14.63C291.96,419.37,291.15,405.64,292.16,393.43z M321.42,472.95
		c0.2-1.11,1.01-1.61,1.92-2.02C323.24,472.04,322.53,472.64,321.42,472.95z M344.63,456.6c2.93,7.47,7.37,14.33,9.99,22.6
		c-12.21,1.82-21.09-4.74-30.67-10.29c2.22-3.94,4.34-7.29,9.38-7.77C342.1,460.3,340.67,456.2,344.63,456.6z M344.03,455.49
		c-4.74-0.61-7.87,3.53-13.02,3.33c3.63-3.23,6.86-6.05,10.19-9.08C342.21,451.05,343.32,452.97,344.03,455.49z M337.16,426.13
		c0.52,1.81,2.27,2.63,2.52,4.64c0.51,4.05-0.3,7.97-0.5,11.91c-0.4,7.87-6.46,12.01-10.9,17.15c-7.82,9.06-10.22,18.18-18.46,26.34
		c-2.03,2.01-4.24,4.24-5.35,7.16c-8.82,1.16-12.04,2.88-18.46,0.2c1.82-1.21,4.04-0.2,5.25-2.22c-8.23,0.22-18.76,3.04-24.12-11.5
		c-0.63-1.71-1.94-2.41-2.62-3.73c-2.6-5.01,0.21-15.23,4.14-19.27c20.81-21.39,15.16-17.93,35.72-41.87
		C311,407.2,332.84,411.05,337.16,426.13z M320.21,409.07c-3.33-0.61-6.46-1.82-9.79,0c-2.02-5.85-2.69-11.71-3.94-17.36
		c-4.81-21.84-6.58-17.54-9.08-22.2c-2.01-3.74-1.82-7.37,0.4-12.01C303.77,375.88,313.96,391.32,320.21,409.07z M307.2,333.6
		c-1.33-4.68-0.32-4.05-0.68-4.41c-4.77,11.15-1.09,2.76-4.77,2.39c0,1.01,0.61,2.12,0,3.23c-2.43-2.68,8.18-18.03-15.54-23.61
		c2.22-2.93,2.92-3.32,6.05-2.93c10.58,1.33,12.68,6.95,15.74,12.21c0-5.55-3.73-8.07-6.36-11.2c-3.43-0.91-6.86-1.72-10.49-2.62
		c4.14-3.63,11.3-0.91,18.06,6.36c-1.21-5.45-5.05-7.97-13.82-8.88c0.5-1.51,1.9-1.43,2.93-2.02c5.22-2.99,4.05-0.59,6.26,0
		c9.17,2.46,13.33,10.16,10.49,19.17c-5.22,16.6-3.93,8.03-7.57,3.94c-1.49,1.09-0.46,2.84-0.95,3.93c0.5-0.07,1.14-0.95,1.45,0.01
		c4.13,12.52,11.81,23.61,16.55,36.12C322.95,364.96,307.23,333.7,307.2,333.6z M330,378.5c1.51,1.31,1.92,3.23,2.52,5.05
		C330.91,382.23,330.4,380.32,330,378.5z M334.44,380.01c21.27-27.26,47.51-18.62,44.8,5.75c-0.83,7.47-7.86,12.29-13.92,22.1
		c-3.24,5.24-7.37,9.38-11.6,13.72c-4.94-7.77-8.88-17.96-8.07-19.78C340.7,394.85,337.27,387.58,334.44,380.01z M347.86,415.33
		c-0.91-0.71-1.21-1.72-1.31-3.03C347.66,413.21,347.86,414.22,347.86,415.33z M348.26,417.35c0-0.43-0.04-0.15,0.27,0.7
		C348.45,417.81,348.35,417.58,348.26,417.35z M371.77,461.64c1.81,3.94,3.43,7.97,5.65,11.91c-0.71,1.92-1.92,3.43-3.23,4.94
		c2.17-6.28-3.46-11.41-4.74-16.25c-5.55-20.88-15.71-25.53-21.45-46.38C345.52,411.53,358.98,433.84,371.77,461.64z M390.64,431.78
		c-3.34-0.73-3.1,2.39-4.54,3.73c1.01-0.71,2.02-1.41,3.03-2.12c-12.41,19.46-15.99,17.04-19.78,17.36
		c-2.52-6.26-5.45-12.31-9.48-17.66c1.92-3.13,6.46-3.03,7.06-7.06C373.45,425.8,394.62,427.8,390.64,431.78z"/>
	<path d="M730.48,430.97c0.71,1.61-0.3,3.53,1.31,4.74c1.21-3.43,1.12-5.05-0.5-6.26c-11.2-8.31-11.83-3.41-40.87-8.88
		c-2.78,1.39-10.59,11.12-13.52,16.14c-8.52,14.6-20.91,20.6-35.92,41.47c-1.51-2.83-2.93-5.25-4.24-7.67
		c13.26-14.33,15.04-16.96-0.61-1.31c-1.51-3.13-3.94-5.05-4.84-8.17c5.25-5.25,11.1-9.99,14.83-16.55
		c-5.75,4.34-9.99,10.29-15.74,14.53c-10.59-16.75-20.58-33.7-27.45-52.37c6.96-2.72,14.19-4.3,20.89-7.47
		c2.25-1.07,22.27,5.22,24.62,6.05c-0.1,10.49,0.3,20.99,2.83,31.18c-1.61-15.24-1.92-30.57-1.51-46.41
		c14.14-7.89,44.72-6.16,45.3-19.88c-3.37,11.18-22.91,9.18-49.54,20.08c-45.35,18.56-79.95,21.78-114.83,31.08
		c-11.74,3.13-19.81,9.34-35.32,11.91c-6.86,1.13-13.22,3.73-19.78,5.65c-0.91,0.2-2.02,0.4-1.82,2.62
		c11.5-4.74,23.51-6.66,35.42-9.99c2.62,1.61,5.75,2.51,8.98,2.93c8.66,1.11,18.55,7.32,39.65,11.81
		c8.04,1.71,9.04,7.98,13.12,18.06c-27.55-8.98-53.28-21.09-81.43-27.24c0.91,2.12,2.42,2.13,3.63,2.42
		c20.22,4.85,68.63,23.99,72.45,24.92c33.24,8.15,36.65,13.51,39.45,12.11c-7.77-4.74-16.35-6.96-25.53-10.19
		c6.56-2.02,5.55-5.95,2.93-10.29c14.34,3.12,14.27,3.12,14.93,4.24c23.98,40.63-0.89-5.81-25.12-46.62
		c3.23-1.31,6.46-0.91,9.69-1.72c2.91,8.08,50.38,92.93,52.27,92.93c1.9-0.76-7.98-13.48-11.91-23.01c2.32-0.4,4.04,1.51,6.46,0.3
		c-10.7-5.15-4.62,4.21-16.04-17.76c0.1,0.1,5.05,2.39,7.97,2.93c-1.61-1.92-3.22-2.75-5.05-3.13c-0.98-0.2-2.05-1.72-3.04-0.05
		c-10.31-17.04-20.23-34.28-29.45-52.12c2.83-1.21,5.05-2.12,6.76-2.22c17.25,26.44,30.57,54.59,46.52,81.63
		c-2.62-0.4-4.54-2.22-7.16-1.92c3.23,2.42,8.58,4.44,13.22,4.74c-8.2-2.94-24.66-42.18-38.54-63.16
		c-4.59-6.93-8.68-14.23-12.31-21.9c17.19-5.56,3.8-3.28,32.49,42.18c7.51,11.9,9.67,17.68,22.9,40.26
		c2.49-1.66-3.41-7.23-4.84-12.11c11.25-16.8,29.69-29.47,34.1-37.74c3.93-7.37,8.98-14.03,15.54-19.47
		c27.81,5.37,27.38,2.19,33.6,6.15C727.16,429.55,729.37,429.56,730.48,430.97z M648.34,390.71c0.61,4.34-0.1,8.37,0.2,12.92
		c-6.76-2.32-13.12-4.04-20.28-5.75C635.23,394.65,641.68,392.83,648.34,390.71z M583.46,462.05c-5.67,4.25-3.84,4.44-10.9,2.32
		c-5.01-14.87-14.42-23.77-19.27-39.15c-5.14-16.32-3.93,0.92,8.48,20.58c-17.56-3.63-33.3-11.4-50.45-15.03
		c16.04-7.16,32.99-11.2,49.64-15.84c3.43,5.15-2.66-2.67,11.1,23.41C576.11,446,580.34,453.57,583.46,462.05z M581.45,454.08
		c-5.25-12.92-14.13-24.42-18.87-38.65c2.93-0.71,5.45-1.21,8.37-1.92C595.08,464.15,606.88,459.9,581.45,454.08z"/>
	<path d="M207.51,447.22c29.97,53.45,28.01,49.14,29.56,49.14c-1.21-4.44-4.24-7.57-5.95-11.7c17.25-23.95,33.41-30.54,35.52-38.34
		c-7.37,2.62-14.13,4.84-19.88,9.28c5.45-1.21,9.89-4.84,15.94-5.95c-11.7,10.9-23.21,21.09-32.29,34.21
		c-1.51-2.83-2.83-5.15-4.24-7.67c5.12-5.66,9.26-11.03-0.3-1.01c-1.82-3.33-3.94-5.45-5.15-8.48c5.35-5.25,11-10.19,15.03-16.65
		c-5.95,4.24-10.09,10.19-15.94,14.53c-10.59-16.75-20.68-33.7-27.45-52.37c23.09-8.37,22.14-8,23.31-7.67
		c7.33,2.05,14.73,3.63,22.1,6.26c-0.2,10.49,0.4,20.89,2.83,31.18c-1.72-15.24-1.72-30.57-1.41-45.91c0.71-0.91,2.42-0.4,3.03-2.32
		c-8.92,2.12-26.44,8.11-33.7,11.1c-27.72,11.42-73.7,14.69-102.41,27.04c-23.9,10.28-44.38,9.8-43.19,15.03
		c11.4-4.74,23.51-6.66,35.21-9.99c6.2,3.67,9.48,2.12,15.64,4.44c36.01,13.57,37.82,7.64,42.18,18.26
		c1.24,3.02,2.22,6.26,4.04,9.18c-4.8,1.6-66.65-26.13-81.63-26.13c1.21,1.51,2.62,1.72,3.94,2.02c21.43,4.87,67,23.73,74.26,25.43
		c11.8,2.75,23.32,6.43,34.51,11.2c3.32,1.42,9.44,1.28-21.69-9.59c1.51-1.82,3.91-2.02,4.34-4.44c0.64-3.59-5.24-7.01,2.42-5.25
		c9.78,2.25,10.4,1.72,16.14,12.71c1.04,2,1.72,4.24,3.53,5.95c1.95-2.31-0.91-3.38-34.21-61.95c3.13-1.51,6.36-0.81,9.28-1.92
		c6.42,13.96,44.43,81.73,52.57,93.03c-3.03-8.17-8.88-14.83-12.01-23.01c2.22-0.61,4.04,1.72,6.36,0.1
		c-2.72-1.01-5.25-1.72-7.97-2.22c-11.91-23.01-26.23-44.7-37.74-68.11c2.93-0.81,5.05-2.02,6.66-2.02
		c17.46,26.44,30.67,54.59,46.82,81.93c-15.59-6.06-3.49,2.13,6.66,3.13c-8.2-2.15-28.72-48.27-35.72-58.32
		c-5.97-8.56-11.2-17.66-15.84-27.14c3.43-1.11,6.66-1.82,10.09-2.22C194.34,419.17,190.84,417.5,207.51,447.22z M237.37,395.86
		c0.91,4.34-0.1,8.37,0.2,12.81C213.59,400.55,209.49,405.57,237.37,395.86z M172.7,466.79c-1.51,1.82-3.43,2.72-5.15,4.14
		c-10.08-2.24-0.67,2.02-17.36-24.01c-4.61-7.19-6.86-15.24-10.39-22.8c2.02,9.59,5.75,18.36,11.5,26.84
		c-17.76-3.83-33.6-11.4-51.06-14.73c6.26-4.14,44.3-15.74,51.06-15.44C152.58,429.65,153.78,428.23,172.7,466.79z M170.88,459.53
		c-5.35-13.32-14.43-24.92-18.87-38.95c2.72-0.61,5.25-1.21,8.27-1.82C188.21,475.79,194.08,461.94,170.88,459.53z"/>
	<path d="M877.29,376.58c2.06-9.96,18.58-30.86,0-64.17c-1.41-2.52-3.53-5.45-7.26-5.55c7.88,9.05,10.28,11.1,12.51,31.68
		c1.37,12.62-2.22,24.02-6.56,35.32c-2.75,7.15-1.91,11.76-1.01,19.88c-1.82-1.37-0.52-2.92-1.92-3.23
		c-1.01,11.3,0.2,23.21-8.88,32.39c1.21,0.61,1.61,0.71,1.82,0.3c8.81-9.34,6.69-10.3,11.1-24.82
		C879.67,389.88,875.77,383.9,877.29,376.58z"/>
	<path d="M214.17,509.37c-0.1-0.02-6.79-1.58-6.72-1.65C209.16,510.27,211.76,509.67,214.17,509.37z"/>
	<path d="M205.89,507.45c0.46,0,1,0.01,1.47,0.16c-0.86-3.57-3.77-6.68-2.18-10.96c-22.94-10.86-22.4-6.25-123.5-42.58
		c-15.42-5.54-10.91-6.21-24.12,0.81c-0.81-0.2-1.21-1.72-2.72-0.61c1.21,1.51,0.1,2.62-0.91,4.04
		c34.24-10.34-24.58-14.63,122.39,29.36C204.66,496.16,201.55,494.04,205.89,507.45z"/>
	<path d="M617.47,502.81c1.06-3.8-4.35-8.44-1.31-11.3c-22.28-10.36-7.86,0.01-131.37-45.51c-6.83-2.52-5.42-2.16-16.55,3.73
		c-0.61-0.81-1.31-1.61-2.42-0.81c-0.71,0.91,0.7,1.21,0.61,1.72c-0.21,1.11-2.02,0.91-1.21,2.83c17.37-6.95,11.13-9.03,19.47-5.85
		c106.08,40.36,114.68,34.44,128.65,44.7C614.54,495.65,615.05,499.58,617.47,502.81z"/>
	<path d="M365.09,490.39c0.1,0,0.02,0.01,0.22-0.1C365.25,490.34,365.16,490.36,365.09,490.39z"/>
	<path d="M365.17,490.43c-7.17,6.21-8.68,9.99-20.14,14.2c-3.82,1.4-19.08,7.84-24.22,3.23c-7.7-6.9-28.67,8.53-44.6-1.31
		c0.3-5.14,0.91-9.86-1.19-14.49c-1.3,0.55-0.73-0.86-0.73,14.79c4.01,5.61,15.43,5.74,22.3,5.15c7.04-0.61,1.3-3.67,16.45-3.33
		c7.59,0.17,0.43,2.15,10.9,2.93C345.47,513.18,369.43,492.31,365.17,490.43z"/>
	<path d="M111.35,408.77c-0.11,0.03-42.49,13.91-47.73,14.53c0.5-2.22,0.5-4.14,1.82-6.15c7.77-0.3,14.31-4.2,21.29-6.66
		c7.04-2.48,14.83-2.02,21.69-5.85c-15.84,1.31-29.87,8.27-44.9,11.81c-0.71,2.32-1.31,4.74-1.92,7.06
		c-18.99,5.95-13.9,9.07-8.98,5.25c3.96-3.08,21.92-4.83,59.03-18.97C111.55,409.48,111.45,409.07,111.35,408.77z"/>
	<path d="M672.96,408.37c9.63-7.7,0.12-4.45-5.04,2.22c-0.91-3.33-0.81-6.26-0.71-9.38c2.52,0.71,4.74,1.41,7.06,2.02
		c-1.72-2.93-4.84-2.12-7.37-3.13c-0.87-4.99,0.67-13.57-2.52-14.73c0,23.35,1.18,23.68,1.11,39.86c-0.01,2.02,0.1,3.94,1.41,5.65
		c2.02-2.12,3.73-4.34,5.05-7.26c-2.22,0.5-2.42,2.93-4.34,3.23C667.62,416.41,665.82,413.33,672.96,408.37z"/>
	<path d="M690.92,379.11c5.65,7.16,11,14.13,15.44,22.4c-12.81-4.14-25.73-5.25-38.34-7.77c4.13,3.66,3.02,2.46,36.83,9.08
		c2.72,0.53,4.7,1.74,6.36,4.14c5.82,8.43,6.36,5.59,5.05,3.94C699.77,390.2,694.7,377.64,690.92,379.11z"/>
	<path d="M243.23,493.63c-9.18,6.15-14.43,16.04-23.01,22.6c-0.96-2.39-3.73-0.94-3.73-0.2c-0.3,1.72,1.82,1.01,2.02,2.22
		c-0.5,0.5-0.91,1.21-2.02,1.31c-3.94-3.43-9.38-3.33-14.53-4.84c3.84-6.79,5-3.28,3.83-7.37c-3.85,4.77-13.66,8.12,1.61,9.99
		c3.63,0.44,6.86,1.82,9.48,4.24c10.49-8.48,18.16-19.78,29.06-28.25c-3.03-2.42-6.05-2.42-8.98-2.83
		C238.38,492.92,241.21,492.12,243.23,493.63z"/>
	<path d="M647.54,485.66c1.51,2.12,4.44,1.21,6.36,2.83c-11.63,8.65-8.56,9.66-23.31,23.01c0-0.5,0-1.01-0.1-1.61
		c-1.31,0-2.72-0.4-3.43,1.21c0.4,1.51,1.61,1.31,2.72,1.21c0.43-0.43-0.5,1.81-2.42,2.22c-4.04-3.53-9.48-3.43-14.23-4.84
		c0.3-2.83,3.83-3.63,3.33-6.56c-2.42,2.02-5.35,3.43-6.66,5.75c3.81,5.37,9.83,0.69,17.96,7.57c10.49-8.48,18.16-19.78,28.86-28.15
		C653.39,486.06,650.46,485.26,647.54,485.66z"/>
	<path d="M82.99,432.89c2.42-0.39,3.03-2.42,3.94-4.34c3.33,2.83,3.43,2.83,8.78,0.4c-0.4-2.72,0-6.05-4.04-6.46
		c-3.03-0.3-4.54,1.51-5.35,4.44C77.21,419.48,74.29,434.28,82.99,432.89z M89.45,424.51c1.89-1.25,3.13-0.4,4.04,1.41
		c-0.3,1.11-1.31,0.3-1.61,0.91c-1.21,0.81,0.91,1.51-0.1,2.32C89.38,430.15,86.84,426.24,89.45,424.51z M81.98,426.13
		c3.26,0,3.53,5.24,0.2,5.45C78.76,431.37,78.62,426.13,81.98,426.13z"/>
	<path d="M93.59,126.65c-3.13-5.05-12.01-3.83-16.25,1.92c2.12,0.1,2.83-2.12,4.84-2.42c1.72,1.11,3.94-0.3,6.26,0.61
		c-3.03,1.61-6.36,1.92-8.68,4.34C95.85,130.62,85.74,128.15,93.59,126.65z"/>
	<path d="M503.95,121.1c-2.83-4.84-12.21-3.53-15.94,2.22c1.82,0,2.52-1.61,4.54-2.52c1.82,1.61,4.24-0.5,6.46,0.81
		c-3.03,1.31-6.36,1.82-8.68,4.14c3.84,0.43,6.44-0.42,10.19-1.21C499.92,121.81,502.84,122.31,503.95,121.1z"/>
	<path d="M765.79,296.67c-11.86-4.31-17.13,0.35-31.68-4.84c7.35,5.45,19.78,3.57,29.26,5.85
		C764.18,297.87,765.39,298.39,765.79,296.67z"/>
	<path d="M494.47,160.35c-5.03-4.51-11.32-4.26-13.32-7.97c-1.2-2.23-2.02-4.64-3.53-7.16c-1.28,10,4.86,10.68,16.35,16.04
		C494.07,160.96,494.27,160.66,494.47,160.35z"/>
	<path d="M83.8,165.3c-4.64-3.52-11.85-5-12.81-6.86c-1.66-3.2-3.53-6.26-4.24-9.89c-0.83,12.51,3.33,11.74,16.45,17.86
		C83.4,166,83.6,165.6,83.8,165.3z"/>
	<path d="M454.92,445c2.52-0.91,4.54-1.61,5.45-3.73c-2.22-5.25-1.41-11.1-4.74-15.74c0.4,5.25,0.91,10.39,2.72,15.34
		C457.54,442.47,455.72,442.98,454.92,445z"/>
	<path d="M43.84,449.74c2.42-0.4,4.74-1.11,5.95-3.53c-2.52-4.94-1.31-11-4.84-15.64C46.55,451.29,50.42,443.16,43.84,449.74z"/>
	<path d="M477.72,424.21c0.81,2.42,0.61,5.25,2.72,7.87c0.71-1.72-0.3-2.83,0.81-3.53c1.72-0.5,2.22,1.82,4.24,1.51
		c0.2-1.51-1.61-2.02-0.81-3.73C486.36,421.85,480,422.13,477.72,424.21z M480.55,426.93c-2.19-2.19,0.99-3.65,2.62-2.02
		C483.17,426.93,481.55,426.63,480.55,426.93z"/>
	<path d="M73.31,432.89c1.75-0.44,1.92,2.39,4.64,1.11c-3.74-2.49,1.53-6.86-3.94-6.86c-1.51-0.1-3.13,0.2-4.44,1.41
		c1.01,2.42,0.61,5.15,2.52,7.16C73.61,435.11,71.69,433.39,73.31,432.89z M72.4,431.27c-2.1-1.8,0.83-3.71,2.62-1.92
		C75.02,431.27,73.61,431.17,72.4,431.27z"/>
	<path d="M493.66,427.03c0.8-1.01,1.11-3.36,1.11-3.12c2.93,3.21,3.3,3.19,8.88,0.8c-0.61-5.45-1.72-6.87-4.84-6.56
		c-2.83,0.28-4.04,1.92-4.03,5.47c-2.14-4.23-6.25-3.77-8.08-1.43C483.13,426.74,490.22,431.41,493.66,427.03z M498.1,419.67
		c1.92-0.5,2.93,0.4,3.53,2.32c-2.02,0-2.72,0.91-1.21,2.62C496.29,425.82,495.4,420.9,498.1,419.67z M490.13,421.89
		c3.04,0.18,3.53,5.08,0,5.35C486.41,426.54,487.1,421.51,490.13,421.89z"/>
	<path d="M507.69,152.99c3.53,0.61,5.55,0.1,7.97-2.02C512.43,148.04,509.4,148.75,507.69,152.99z"/>
	<path d="M249.28,448.63c-3.33-0.4-6.05,1.31-8.68,2.62c-3.1,1.55-0.89,8.22,4.04,5.75c-3.13-0.4-4.14-1.82-3.94-4.24
		C243.63,451.55,246.15,449.44,249.28,448.63z"/>
	<path d="M99.74,154.7c-3.07,0.4-5.69,7.23,5.35,1.92C103.68,153.79,101.67,154.45,99.74,154.7z"/>
	<path d="M503.05,148.35c4.84,0.3,9.08-1.51,13.42-3.33C511.72,144.91,507.49,146.73,503.05,148.35z"/>
	<path d="M99.04,151.17c-2.13,0.88-5.15-0.2-6.56,2.62c4.84-0.2,9.18-1.51,13.52-3.43C103.38,148.85,101.05,150.34,99.04,151.17z"/>
	<path d="M661.76,433.9c-0.1-5.65,0.2-11.2-0.71-16.85C661.16,422.6,660.15,428.35,661.76,433.9z"/>
	<path d="M85.52,175.29c0.44,0.79,8.4,8.02,12.92,15.74C99.37,190.08,94.18,181.11,85.52,175.29z"/>
	<path d="M869.52,348.84c-0.71-4.84,0.3-10.09-2.22-14.53C867.4,339.25,867.91,344.09,869.52,348.84z"/>
	<path d="M120.13,241.88c4.74-2.22,9.38-4.64,13.92-7.16C129.11,236.53,124.06,238.05,120.13,241.88z"/>
	<path d="M250.59,419.87c-0.2,6.66-0.71,13.32,0.4,19.98C250.59,433.19,251.2,426.53,250.59,419.87z"/>
	<path d="M892.12,335.21c2.12-6.05-2.42-11.81,1.21-17.05C889.7,321.59,890.91,321.29,892.12,335.21z"/>
	<path d="M451.38,448.33c4.04,0.81,7.87,1.61,11.7,2.42C459.46,447.62,454.31,446.71,451.38,448.33z"/>
	<path d="M40.41,453.37c4.24,0.81,8.07,1.61,12.71,2.62C49.19,452.87,44.15,451.86,40.41,453.37z"/>
	<path d="M705.25,293.14c-0.91-3.83-1.41-7.97-5.95-9.59C700.81,287.08,704.45,289.2,705.25,293.14z"/>
	<path d="M730.18,413.62c-4.45-14.19-15.26-21.03-14.43-21.69C694.76,366.87,713.09,388.34,730.18,413.62z"/>
	<path d="M103.88,141.89c-4.34-0.81-6.26,0.3-5.95,3.83C99.14,142.8,102.57,144.91,103.88,141.89z"/>
	<path d="M499.72,173.67c8.97,10.35,7.26,9.09,8.48,8.27C498.62,170.84,501.27,173.28,499.72,173.67z"/>
	<path d="M120.63,283.96c0.1-3.94-4.34-7.06-2.32-11.4C114.98,277.2,119.82,280.22,120.63,283.96z"/>
	<path d="M867.91,331.08c-0.61-3.53-0.91-7.16-2.83-10.39C865.28,324.32,866.09,327.85,867.91,331.08z"/>
	<path d="M82.99,194.05c-3.63,0.4-7.26,0.1-10.7,1.51C75.93,195.77,79.46,195.67,82.99,194.05z"/>
	<path d="M69.07,193.75c3.23,0.3,4.84-1.41,5.85-3.94C72.9,190.82,70.18,190.62,69.07,193.75z"/>
	<path d="M493.46,188.81c-3.73,0.5-7.16,0.2-10.49,1.51C486.2,191.03,490.64,190.32,493.46,188.81z"/>
	<path d="M514.55,136.54c-2.65-0.97-8.49,1.14-5.45,3.53C510.01,137.75,513.54,139.77,514.55,136.54z"/>
	<path d="M869.82,367.6c-0.1,3.73-1.72,7.67,0,11.4C869.82,375.17,869.82,371.34,869.82,367.6z"/>
	<path d="M527.77,196.78c-1.72-3.03-4.14-5.05-7.57-5.65C522.52,193.35,525.35,194.76,527.77,196.78z"/>
	<path d="M864.37,416.74c0.5-4.44,0.4-8.98,0.91-13.52C863.77,407.66,863.87,412.1,864.37,416.74z"/>
	<path d="M866.19,399.49c-0.61-4.14,0.3-8.07,1.31-12.11C865.08,392.43,864.78,394.95,866.19,399.49z"/>
	<path d="M479.84,188.3c3.13,0.4,4.14-0.3,6.15-4.34C483.47,185.78,480.65,185.58,479.84,188.3z"/>
	<path d="M92.58,252.07c2.52,2.02,4.54,0.3,6.56-0.61C97.02,251.26,94.9,250.05,92.58,252.07z"/>
	<path d="M660.45,388.59c-0.61,2.93,0.3,5.85,0.61,8.78C661.26,394.44,661.36,391.52,660.45,388.59z"/>
	<path d="M696.47,282.54c-2.83-1.11-5.35-2.93-8.58-2.52C690.72,281.23,693.25,282.85,696.47,282.54z"/>
	<path d="M703.84,410.29c3.03,1.51,5.75,1.92,8.78,1.31C709.59,410.59,706.97,409.98,703.84,410.29z"/>
	<path d="M869.22,363.57c0-3.33,0-6.66,0-9.99C868.81,357.01,868.31,360.34,869.22,363.57z"/>
	<path d="M150.8,262.46c-2.93,0.91-5.35,2.52-7.37,4.84C146.06,266,148.88,264.89,150.8,262.46z"/>
	<path d="M209.93,472.64c-2.32-2.93-4.84-3.43-7.47-3.73C204.28,471.03,206.8,471.63,209.93,472.64z"/>
	<path d="M115.48,200.81c-1.21-2.62-3.23-4.14-5.65-4.84C109.14,197.01,108.46,196.25,115.48,200.81z"/>
	<path d="M689.92,408.77c-0.81,3.13-1.41,6.26,0,9.38C689.92,415.03,689.92,411.9,689.92,408.77z"/>
	<path d="M679.32,300.1c-2.22-0.81-4.24-1.61-6.56-1.72C675.89,300.61,676.29,300.71,679.32,300.1z"/>
	<path d="M624.43,504.33c-2.32-0.71-4.44-2.12-6.96-1.51C619.59,504.02,621.81,505.03,624.43,504.33z"/>
	<path d="M518.18,186.18c-5.85,0.56-5.23,0.06-4.84,1.21C514.85,187.6,516.47,188.6,518.18,186.18z"/>
	<path d="M91.47,270.74c1.82,1.72,3.23,2.12,5.25,1.72C95.3,271.04,93.69,270.94,91.47,270.74z"/>
	<path d="M106.81,191.73c-1.41,0.2-3.03-0.61-4.94,0.61C103.98,192.74,105.39,193.85,106.81,191.73z"/>
	<path d="M61.7,449.13c0.4-1.92,0.1-3.23-1.72-4.74C60.19,446.41,60.39,447.82,61.7,449.13z"/>
	<path d="M878.2,274.77c-0.2-1.61-0.5-3.33-0.91-5.75C876.58,271.65,877.09,273.36,878.2,274.77z"/>
	<path d="M461.78,444.89c-1.01-0.5-2.02-0.71-3.03-0.2C459.96,446.51,459.96,446.51,461.78,444.89z"/>
	<path d="M470.86,439.95c0.71,1.21,0,3.03,2.12,4.54C472.57,442.37,472.78,440.86,470.86,439.95z"/>
	<path d="M95,193.04c7.79,0.78,4.01-3.07,3.43-1.92C98.03,192.64,96.31,192.14,95,193.04z"/>
	<path d="M882.23,280.63c0.1,1.61,0.71,3.03,2.12,4.84C884.15,283.05,883.55,281.74,882.23,280.63z"/>
	<path d="M125.07,251.87c1.21-1.21,1.51-2.42,1.21-3.83C125.68,249.15,124.87,250.26,125.07,251.87z"/>
	<path d="M134.55,274.98c-0.91,1.11-1.92,2.12-2.22,4.04C134.05,277.7,134.55,276.49,134.55,274.98z"/>
	<path d="M241.61,445.9c1.41,0.5,2.52,0.2,3.83-1.21C243.73,444.69,242.42,444.09,241.61,445.9z"/>
	<path d="M50.71,450.75c0.1-0.1,0-0.4,0.1-0.91c-0.91,0.1-1.72-0.81-3.13,0.4C48.59,451.45,49.49,451.96,50.71,450.75z"/>
	<path d="M142.63,288.19c-0.61,0.61-1.21,1.11-2.12,2.02C141.82,289.81,142.32,289.2,142.63,288.19z"/>
	<path d="M93.49,283.75c1.21,1.21,2.22,1.31,3.23-0.1C95.61,282.95,94.6,282.85,93.49,283.75z"/>
	<path d="M155.64,260.55c1.21-0.5,2.02-1.31,3.33-2.93C156.35,258.93,156.35,258.93,155.64,260.55z"/>
	<path d="M103.78,250.76c-1.01-0.5-1.72-0.91-2.52,0.3C102.27,251.87,102.97,251.87,103.78,250.76z"/>
	<path d="M258.26,439.55c0.81-0.71,1.82-1.31,2.32-2.62C259.17,437.43,258.66,438.44,258.26,439.55z"/>
	<path d="M649.15,441.06c0.91-0.81,1.61-1.51,1.41-2.72C649.76,439.04,648.55,439.55,649.15,441.06z"/>
	<path d="M652.38,440.56c1.11,0.91,2.02,0.3,3.63-1.11C654.3,439.55,653.09,438.94,652.38,440.56z"/>
	<path d="M508.39,184.47c0.3,1.11,0.5,2.02,0.71,2.93C511.94,187.96,510.11,185.33,508.39,184.47z"/>
	<path d="M499.11,172.26c-1.61-1.72-1.61-1.72-3.23-1.82C496.69,171.35,497.6,172.06,499.11,172.26z"/>
	<path d="M686.49,408.47c-1.41,0.4-2.02,1.11-2.52,2.42C685.38,410.49,685.98,409.78,686.49,408.47z"/>
	<path d="M140,232.8c1.61,0.2,2.52-0.3,3.73-1.31C142.12,231.29,141.11,231.59,140,232.8z"/>
	<path d="M102.06,283.05c-1.21-0.71-2.02-0.61-2.62,0.5C100.45,284.36,101.16,284.26,102.06,283.05z"/>
	<path d="M77.65,168.53c-0.91-1.41-1.61-2.22-2.93-2.52C75.12,167.31,75.93,167.92,77.65,168.53z"/>
	<path d="M678.92,279.32c-1.01-0.91-1.72-1.51-2.72-0.81C676.7,279.72,677.5,279.82,678.92,279.32z"/>
	<path d="M519.7,184.57c1.31-0.3,2.32-0.4,2.12-1.92C520.81,182.75,520.1,183.26,519.7,184.57z"/>
	<path d="M164.32,274.27c-1.51-0.81-1.51,0.61-2.12,1.11C163.31,275.78,164.02,275.38,164.32,274.27z"/>
	<path d="M238.28,446.11c1.21-0.61,1.61-1.31,2.22-2.72C238.89,443.78,238.28,444.59,238.28,446.11z"/>
	<path d="M109.23,189.61c1.11,0.1,1.51-0.61,2.42-2.02C110.14,188.1,109.33,188.3,109.23,189.61z"/>
	<path d="M679.72,414.12c-0.91,0.3-1.82,0.5-1.82,2.02C679.12,415.73,679.72,415.13,679.72,414.12z"/>
	<path d="M104.99,270.03c-0.61-0.61-1.11-1.01-1.92,0.1C103.78,270.74,104.28,270.84,104.99,270.03z"/>
	<path d="M506.07,188c1.21-0.3,2.22,0.2,2.93-0.71C508.09,187.19,507.18,186.89,506.07,188z"/>
	<path d="M690.72,303.23c0.71,0.3,1.31,0.61,1.82-0.3C691.73,302.32,691.23,302.62,690.72,303.23z"/>
	<path d="M204.88,512.8c0.1,0.4,0.5,0.71,1.21,0.5C206.48,511.77,204.61,512.12,204.88,512.8z"/>
	<path d="M485.19,160.86c0.5,1.01,0.91,1.61,2.02,1.61C487,161.46,486.5,161.06,485.19,160.86z"/>
	<path d="M100.15,295.56c-0.91-0.71-1.51-0.3-2.52,0.3C98.94,296.97,99.54,296.47,100.15,295.56z"/>
	<path d="M114.27,299.5c0.3,1.01,0.91,1.31,2.02,0.71C115.79,299.19,115.28,298.59,114.27,299.5z"/>
	<path d="M681.74,279.72c0.61,0.91,1.21,0.81,2.12,0.4C683.05,279.21,682.45,279.32,681.74,279.72z"/>
	<path d="M736.33,420.98c-0.1,0.4,0,0.71,0.5,0.81C736.94,421.28,736.73,421.08,736.33,420.98z"/>
	<path d="M732.29,415.83c-0.3-0.2-0.3-0.81-0.91-0.71C731.49,415.63,731.69,416.04,732.29,415.83z"/>
	<path d="M615.65,507.35c0.28,1.42,1.71,0.85,1.21,0.1C616.56,507.05,616.06,506.95,615.65,507.35z"/>
	<path d="M744.6,431.37c0.5,0.4,0.81,0.61,1.11,0.81C745.82,431.47,745.51,431.37,744.6,431.37z"/>
	<path d="M123.96,302.42c-0.61-0.3-1.01-0.91-1.92-0.1C122.65,302.72,123.05,303.23,123.96,302.42z"/>
	<path d="M717.87,321.9c0.91-0.71,0.91-1.31,0.3-2.02C717.46,320.48,717.36,320.99,717.87,321.9z"/>
	<path d="M718.77,314.43c0.1-0.1-0.3-0.4-0.61-0.71C717.91,314.51,718.53,315.04,718.77,314.43z"/>
	<path d="M220.32,511.89c0.1,0.2,0.3,0.3,0.4,0.5C220.72,512.09,220.83,511.79,220.32,511.89z"/>
	<path d="M153.93,260.45c0-0.4,0-0.71,0-1.01C153.52,259.84,153.42,260.24,153.93,260.45z"/>
	<path d="M170.88,270.54c0.4-0.2,1.01-0.2,1.21-1.11C171.48,269.63,170.98,269.83,170.88,270.54z"/>
	<path d="M101.06,270.64c-0.71-0.1-1.31-0.61-1.92,0.61C99.84,271.34,100.45,271.75,101.06,270.64z"/>
	<path d="M168.66,271.82c-0.07,0.01-0.13,0.03-0.2,0.03C168.56,271.95,168.55,272,168.66,271.82z"/>
	<path d="M170.78,270.44c-0.95,0.09-1.62,0.65-2.12,1.38C169.56,271.74,170.21,271.18,170.78,270.44z"/>
	<path d="M168.46,271.95c-0.71,0.1-1.51,0.2-1.41,2.12C167.45,272.66,168.46,272.86,168.46,271.95z"/>
	<path d="M159.28,276.69c-0.2,0.61-1.31,0.4-1.21,1.41C158.77,277.9,159.48,277.8,159.28,276.69z"/>
	<path d="M157.88,278.01c-1.11,0.04-1.85,0.45-2.04,1.6C156.61,279.23,157.38,278.83,157.88,278.01z"/>
	<path d="M158.06,278l-0.1-0.1C157.88,278.06,157.79,278,158.06,278z"/>
	<path d="M154.33,280.83c0.5-0.5,1.01-0.81,1.51-1.21C155.04,279.52,154.33,279.42,154.33,280.83z"/>
	<path d="M151.2,282.14c-0.71,0.1-1.21,0.4-1.41,1.11C150.4,283.15,151,283.05,151.2,282.14z"/>
	<path d="M149.69,283.25c-0.86,0.19-1.61,0.59-2.04,1.47C148.56,284.58,149.22,284.1,149.69,283.25z"/>
	<path d="M147.57,284.86c0.02-0.05,0.06-0.09,0.08-0.14C147.41,284.76,147.46,284.75,147.57,284.86z"/>
	<path d="M147.47,284.66c-0.61,0.2-1.31,0.2-1.51,1.21C146.56,285.47,147.27,285.37,147.47,284.66z"/>
	<path d="M589.82,293.74c-15.23,0-14.19-0.26-15.64,0.3c-6.46,2.52-12.01,6.36-16.14,12.01c0.2,0.61,1.01,0.4,0.91,1.11
		c-2.82,3.44-7.94,7.88-8.07,12.71c-0.15,5.58-4,11.22-3.13,12.61c10.14-13.31,4.43-5.89,7.37-12.71
		c5.38-12.5,9.79-13.58,7.57-16.14c10.74-10.56,16.36-8.37,31.48-8.37C592.55,293.64,591.13,293.74,589.82,293.74z"/>
	<path d="M606.57,279.62c-4.79,3.89-10.53,3.5-22.1,5.25c-11.16,1.69-21.26,6.47-20.68,10.09c2.35,1.28,4.13-5.34,19.07-7.06
		C596.91,286.27,602.98,286.97,606.57,279.62z"/>
	<path d="M574.48,337.43c4.64,0.4,9.18,0.81,13.22,5.15c-1.21-5.35-1.51-9.99-3.43-15.03c-0.5,4.24,1.31,7.67,1.01,11.5
		c-5.15-2.72-10.59-2.42-16.04-3.33c1.82-4.44,3.43-8.88,3.83-13.62c-3.13,4.14-4.14,9.08-6.26,13.42c-2.32,0.61-4.44-0.5-6.46,0.91
		C565.1,336.12,569.74,337.03,574.48,337.43z"/>
	<path d="M555.92,336.43c-3.63-0.5-6.86-2.32-10.7-1.82c-4.14-4.74-5.45-9.69-1.61-15.34c-4.54,4.64-7.97,15.03-6.56,20.08
		c1.82-3.43,1.31-7.16,3.03-10.49c0.91,1.92,1.72,3.53,2.42,5.15c-2.32,2.42-2.32,2.42-2.12,4.74c1.31-0.81,1.51-2.62,2.62-3.13
		C547.54,335.62,551.68,337.03,555.92,336.43z"/>
	<path d="M621.61,292.94c-0.5-5.85-1.01-11.3-1.51-17.05C616.56,279.62,617.37,290.01,621.61,292.94z"/>
	<path d="M548.65,311.2c2.72-1.82,10.9-14.43,11-16.95C555.72,300.1,550.77,304.74,548.65,311.2z"/>
	<path d="M623.83,270.94c-3.73,0.5-6.15,1.72-6.96,5.05C619.59,275.08,621.71,273.56,623.83,270.94z"/>
	<path d="M589.22,347.52c-1.37,0-0.82-1.79-1.92,8.78C588.71,353.38,589.82,350.55,589.22,347.52z"/>
	<path d="M550.37,351.66c-0.3-3.53-2.42-5.45-3.63-7.67C546.74,346.82,547.24,349.44,550.37,351.66z"/>
	<path d="M559.45,331.38c1.15,0.38,0.36,1.87,4.34-7.16C561.47,326.23,559.75,328.45,559.45,331.38z"/>
	<path d="M624.43,282.85c-0.61-3.23,1.51-5.05,2.22-7.47C622.61,278.61,622.11,280.32,624.43,282.85z"/>
	<path d="M610.61,346.92c0.91,2.22,0.91,4.84,2.52,6.86C612.93,351.26,612.93,348.63,610.61,346.92z"/>
	<path d="M657.32,294.25c-2.71,2.26-3.84,3.28-4.14,3.53C655.76,297.78,656.85,296.51,657.32,294.25z"/>
	<path d="M569.34,304.94c1.41-0.61,2.52-1.61,2.93-3.13C571.26,302.83,570.25,303.83,569.34,304.94z"/>
	<path d="M587.2,297.38c1.92,0,3.23-0.4,4.54-1.11C590.23,296.06,588.81,295.86,587.2,297.38z"/>
	<path d="M609.8,337.74c-0.61,1.21-1.11,2.32-1.82,3.53C609.3,340.46,610.1,339.55,609.8,337.74z"/>
	<path d="M569.94,314.83c1.11-1.11,2.32-1.41,1.92-2.93C571.05,312.61,570.25,313.12,569.94,314.83z"/>
	<path d="M626.65,345.41c-0.5-0.1-1.11-0.1-1.82-0.1C625.44,345.3,626.05,345.41,626.65,345.41z"/>
	<path d="M626.65,345.41C626.75,345.3,626.65,345.3,626.65,345.41L626.65,345.41z"/>
	<path d="M626.45,339.15c-0.3,0.4-0.5,0.81,0,1.31C626.65,339.96,626.85,339.55,626.45,339.15z"/>
	<path d="M560.06,245.72c2.52,1.51-0.53-8.3-7.77-10.39C554.51,239.46,559.65,241.07,560.06,245.72z"/>
	<path d="M531,236.63c5.15-2.62,10.39-4.84,15.34-7.67C540.88,230.78,535.44,232.7,531,236.63z"/>
	<path d="M561.77,248.04c0.91,2.52,1.92,5.05,4.14,7.37C565.81,251.77,564.6,249.45,561.77,248.04z"/>
	<path d="M503.45,246.72c2.32,1.72,4.14,1.51,6.46-0.81C507.69,246.12,505.47,245.01,503.45,246.72z"/>
	<path d="M571.66,260.95c1.61,2.62,3.13,5.05,5.05,8.17C576.2,264.79,574.79,262.67,571.66,260.95z"/>
	<path d="M534.12,275.58c-0.61,3.03,0,6.15-0.2,9.18C534.93,281.64,533.82,278.61,534.12,275.58z"/>
	<path d="M534.93,299.5c1.51,1.72,2.52,4.14,5.25,4.64C539.07,301.72,537.35,300.2,534.93,299.5z"/>
	<path d="M531.4,256.21c-1.72,2.22-1.41,4.64-1.01,7.06C530.79,260.95,531.1,258.53,531.4,256.21z"/>
	<path d="M506.88,262.06c-1.61-0.2-3.23-1.01-4.94-0.2C503.55,263.27,505.17,263.68,506.88,262.06z"/>
	<path d="M567.83,257.12c-2.62,0.61-4.34,1.11-6.26,3.13C564.09,259.54,565.91,259.14,567.83,257.12z"/>
	<path d="M559.55,228.97c1.61-0.4,3.33-0.3,4.74-1.51C562.58,227.65,560.86,227.65,559.55,228.97z"/>
	<path d="M549.26,269.23c1.92-0.71,2.93-1.51,4.44-2.93C551.48,266.7,550.47,267.51,549.26,269.23z"/>
	<path d="M536.95,240.97c-0.81,0.91-1.31,1.92-1.61,3.53C536.95,242.59,536.95,242.59,536.95,240.97z"/>
	<path d="M507.28,280.32c-0.81,0.91-2.42,0.4-2.72,2.02C506.78,282.24,506.78,282.24,507.28,280.32z"/>
	<path d="M508.8,272.15c-0.91-0.2-1.82-0.61-2.62,0.3C508.29,273.16,508.9,273.06,508.8,272.15z"/>
	<path d="M550.77,227.75c1.51,0.1,2.52-0.4,4.04-1.41C552.89,226.14,551.78,226.34,550.77,227.75z"/>
	<path d="M545.02,291.12c0.61-0.3,1.41-0.4,1.51-1.31C545.73,289.81,545.32,290.41,545.02,291.12z"/>
	<path d="M514.25,245.92c-0.61-1.01-1.21-0.91-2.22-0.2C512.83,246.62,513.44,246.83,514.25,245.92z"/>
	<path d="M527.36,294.55c-0.91-0.71-1.31-1.61-3.03-1.01C525.45,294.15,525.55,295.56,527.36,294.55z"/>
	<path d="M531.3,297.68c-0.3-1.01-1.01-1.31-2.22-1.41C529.68,297.38,530.19,297.98,531.3,297.68z"/>
	<path d="M512.83,262.67c-1.11-0.5-1.51-1.41-2.22-0.3C510.82,263.27,511.42,263.07,512.83,262.67z"/>
	<path d="M550.17,286.68c0.61,0,0.81-0.2,0.61-0.81C550.57,286.18,550.37,286.38,550.17,286.68z"/>
	<path d="M516.16,262.87c2.42-0.4-0.22-2.37-0.4-0.5C515.76,262.46,516.06,262.87,516.16,262.87z"/>
	<path d="M561.37,220.59c-0.5-0.4-0.91-0.3-1.31,0.2C560.56,220.99,560.96,220.99,561.37,220.59z"/>
	<path d="M480.04,318.97c-0.22,0-0.24-0.09,0,0.1V318.97z"/>
	<path d="M468.34,308.27c-3.81-8.03-7.42-7.14,1.82,4.74c2.48,3.19,5.59,5.72,9.72,5.93C474.96,315.62,471.07,314.02,468.34,308.27z
		"/>
	<path d="M468.03,272.55c2.52-2.22,2.42-3.94-0.2-6.66C467.83,268.12,467.63,270.23,468.03,272.55z"/>
	<path d="M493.57,309.69c1.44,4.02,4.5,6.72,5.71,10.21C499.32,320,499.97,316.09,493.57,309.69z"/>
	<path d="M474.29,319.27c0,3.73,0.61,7.16,2.93,10.19C476.21,326.03,475.3,322.7,474.29,319.27z"/>
	<path d="M455.22,229.67c-0.4,2.72,0,5.15,1.72,7.26C456.63,234.41,455.62,232.09,455.22,229.67z"/>
	<path d="M488.52,290.41c-1.61,1.61-1.31,3.03,0,5.25C488.52,293.34,488.52,291.83,488.52,290.41z"/>
	<path d="M463.49,283.55c-0.71,2.02-0.2,3.53,0.71,5.35C464.7,285.77,464.7,285.77,463.49,283.55z"/>
	<path d="M490.74,303.33c0.66,1.9,0.83,3.12,2.83,4.24C492.45,306.05,492.55,304.54,490.74,303.33z"/>
	<path d="M482.46,322.4c-2.73-3.75-2.62-3.64-2.52-2.69C479.94,320.92,481.7,321.89,482.46,322.4z"/>
	<path d="M514.65,361.35c-0.61,1.51-0.61,2.72,0.1,3.94C515.05,364.07,515.26,362.86,514.65,361.35z"/>
	<path d="M467.23,260.65c-0.5,0.81-0.3,1.41,0.2,2.42C468.34,261.86,468.03,261.25,467.23,260.65z"/>
	<path d="M465.01,255.3c0,0.71,0.3,1.21,1.11,1.51C466.12,255.91,466.42,255.1,465.01,255.3z"/>
	<path d="M533.72,400.5c1.11,1.21,1.11,1.21,2.12,1.21C535.54,400.9,535.03,400.5,533.72,400.5z"/>
	<path d="M458.85,275.88c-0.91-0.71-0.61-1.82-2.02-1.31C457.14,275.18,457.14,275.99,458.85,275.88z"/>
	<path d="M455.42,208.58c-0.61,1.31-1.51,1.82-1.01,3.03C455.12,211.01,455.72,210.4,455.42,208.58z"/>
	<path d="M476.51,290.52c0.61,1.61,1.21,2.22,2.32,2.62C478.83,291.63,477.92,291.22,476.51,290.52z"/>
	<path d="M461.48,280.43c0.2-0.5,0.2-1.01-0.81-1.21C460.97,279.82,460.67,280.32,461.48,280.43z"/>
	<path d="M527.67,400.8c0.3-0.81,0.1-1.21-0.81-0.91C526.86,400.5,527.06,400.8,527.67,400.8z"/>
	<path d="M496.19,343.99c-0.61-0.4-0.81-1.21-1.51-1.21C494.97,343.29,494.97,344.09,496.19,343.99z"/>
	<path d="M493.56,341.27c0.4,0.61,0.71,1.01,1.11,1.41C494.57,342.18,494.57,341.47,493.56,341.27z"/>
	<path d="M538.06,385.87c-1.01,0.4-1.01,0.91-0.5,1.82C538.66,387.18,538.46,386.47,538.06,385.87z"/>
	<path d="M514.35,356c0.3-0.71,0.1-1.11-0.61-1.41C514.04,354.99,512.93,356,514.35,356z"/>
	<path d="M678.82,325.73c-3.84,0.9-5.25-3.33-8.58-3.23c1.82,4.74,2.32,4.94,6.96,4.54c1.61-0.23,0.15,0.79,10.19,0.4
		c0-0.3,0.1-0.61,0.1-0.71C684.57,326.34,681.44,325.12,678.82,325.73z"/>
	<path d="M691.63,351.46c6.05,1.11,11.3,4.44,17.86,5.25C702.83,352.37,693.95,349.85,691.63,351.46z"/>
	<path d="M658.03,325.73c2.52,1.41,2.52,1.41,6.46,0.71C662.07,325.93,660.25,324.62,658.03,325.73z"/>
	<path d="M711.81,357.61c1.21,1.31,2.72,1.82,4.44,1.82C715.04,357.92,713.53,357.51,711.81,357.61z"/>
	<path d="M658.43,313.82c-1.41,2.02-1.72,3.63-1.92,5.25C657.22,317.56,659.75,316.95,658.43,313.82z"/>
	<path d="M651.07,323.91c1.41-0.2,1.92-1.01,2.22-2.52C651.67,321.79,651.37,322.8,651.07,323.91z"/>
	<path d="M644.91,326.44c1.11-0.4,2.42-0.71,2.93-2.32C646.23,324.32,645.32,325.02,644.91,326.44z"/>
	<path d="M672.76,348.33c1.92,0.71,3.43,0.5,4.94-0.2C676.19,347.83,674.58,347.22,672.76,348.33z"/>
	<path d="M659.34,310.9c-0.71-1.01-1.51-1.41-2.72-0.91C657.22,311.4,658.13,311.3,659.34,310.9z"/>
	<path d="M724.02,362.86c-0.61-0.71-1.41-1.11-2.32-0.4C722.51,362.36,723.01,363.97,724.02,362.86z"/>
	<path d="M680.43,352.97c0.61,1.11,1.41,1.11,2.42,0.61C682.15,352.87,681.44,352.47,680.43,352.97z"/>
	<path d="M662.67,310.09c0.81,0.81,1.51,0.71,2.22,0C664.19,309.28,663.48,309.38,662.67,310.09z"/>
	<path d="M794.85,371.74c0-3.23-1.21-5.75-2.72-8.27c1.61-1.31,3.53-2.32,4.04-4.94c-2.02,1.31-2.93,3.43-5.35,3.83
		c-3.73-2.32-8.17-2.93-12.51-3.53c-1.41-2.12-1.72-4.54-2.52-6.86c-1.21,2.72-0.2,5.05,0.91,7.47c-1.92,0.61-3.33,1.51-5.05,1.61
		c-1.41-2.42-1.41-5.15-3.63-7.57c0.2,3.23,2.02,5.55,2.22,8.17c-2.02,1.51-4.84,2.02-5.45,5.25c5.35-3.43,10.29-6.66,16.65-5.65
		C787.79,362.26,792.33,365.59,794.85,371.74z"/>
	<path d="M790.51,387.99c-3.53,2.22-7.36,2.26-11.3,1.72c-4.13-0.57-6.94-3.15-10.09-5.55c-3.61-2.75-2.52-6.66-3.63-10.39
		C759.59,385.38,782.63,399.53,790.51,387.99z"/>
	<path d="M784.66,377.39c-3.23,4.04-7.37,3.73-12.31,2.02C775.9,386.93,785.84,381.91,784.66,377.39z"/>
	<path d="M795.66,372.35c0.91,5.65-1.21,9.99-3.53,14.33C797.68,382.84,799.39,376.28,795.66,372.35z"/>
	<path d="M783.75,349.14c4.54,2.62,10.29,1.51,14.73,4.74C795.66,350.75,790.82,349.24,783.75,349.14z"/>
	<path d="M803.13,359.94c1.82,4.24,4.34,8.17,6.15,12.31C808.47,367.5,807.16,362.96,803.13,359.94z"/>
	<path d="M777.4,349.34c-1.82-1.31-3.33-0.81-4.94-0.3C772.45,350.21,772.15,350,777.4,349.34z"/>
	<path d="M787.79,395.45c-0.34-1.36-0.34-2.64-2.12-3.33C785.57,393.94,786.47,394.57,787.79,395.45z"/>
	<path d="M768.32,349.34c-1.92,0.81-3.13,1.41-3.83,2.83C766.1,351.96,767.61,351.76,768.32,349.34z"/>
	<path d="M771.65,376.58c-0.1-1.31,0.1-2.62-0.3-3.83C770.54,374.06,770.64,375.27,771.65,376.58z"/>
	<path d="M802.93,383.45c-1.92-0.71-3.33-0.4-4.74-0.1C799.6,384.25,801.01,384.15,802.93,383.45z"/>
	<path d="M758.93,356.5c0.81-0.3,1.21-0.71,1.61-2.12C759.34,354.89,758.53,355.09,758.93,356.5z"/>
	<path d="M770.94,392.73c0.81,0.24,1.12-0.17,1.21-1.01C771.49,391.8,770.82,392.02,770.94,392.73z"/>
	<path d="M802.42,358.72c0,0.61,0.1,1.11,0.81,1.21C803.43,359.23,803.13,358.83,802.42,358.72z"/>
	<path d="M459.56,136.74c-8.37,3.23-18.06,3.23-25.33,9.48C442,141.28,451.49,141.08,459.56,136.74z"/>
	<path d="M420.31,159.34c-1.11,7.37,2.22,13.52,5.55,19.78C424.24,172.46,420.41,166.41,420.31,159.34z"/>
	<path d="M431.1,197.59c-0.3-1.31-1.01-2.52-1.72-3.63c-2.12,0.4-4.44,0.1-6.66,1.41C425.66,196.27,429.09,194.46,431.1,197.59z"/>
	<path d="M431.41,202.43c-1.82,0.81-3.94-0.2-6.46,1.01c8.33,1.11,8.93,0.61,6.05-5.85C430.4,199.3,432.11,200.81,431.41,202.43z"/>
	<path d="M422.53,152.28c1.72-1.01,2.62-1.61,3.63-2.22C424.55,149.96,423.54,150.46,422.53,152.28z"/>
	<path d="M527.46,352.67c3.13,5.55,4.54,11.91,8.27,17.15c-1.92-5.25-3.95-10.33-6.36-15.34
		C528.99,353.67,528.88,352.47,527.46,352.67z"/>
	<path d="M577.92,372.55c-4.24,0.61-7.97,3.13-12.41,3.63C570.04,376.18,574.18,374.97,577.92,372.55z"/>
	<path d="M588.41,372.85c1.31,2.83,2.72,5.75,4.04,8.58C592.07,379.04,590.12,371.14,588.41,372.85z"/>
	<path d="M583.26,371.44c-1.82,0.1-3.73,0-5.25,1.21C579.83,372.75,581.55,372.35,583.26,371.44z"/>
	<path d="M526.56,349.44c-0.1,1.31,0.61,2.22,1.01,3.13C528.07,351.36,527.46,350.45,526.56,349.44z"/>
	<path d="M579.93,378.5c0.4-0.4,0.2-0.81,0.1-1.21C579.53,377.69,579.73,378.1,579.93,378.5z"/>
	<path d="M832.49,273.56c-3.43,3.23-6.05,7.06-8.27,11.2C824.53,285.08,829.83,279.29,832.49,273.56z"/>
	<path d="M833.5,272.15c-0.71,0.61-0.71,0.61-1.01,1.51C833.2,273.36,833.6,272.86,833.5,272.15z"/>
	<path d="M824.32,284.86c-0.91,0.2-1.31,0.71-1.11,1.72C823.91,286.08,824.42,285.67,824.32,284.86z"/>
	<path d="M817.35,391.92c-0.5-0.91-1.11-1.41-2.32-0.81C815.74,392.43,816.45,392.43,817.35,391.92z"/>
	<path d="M811.91,391.11c-0.1-0.71-0.61-0.91-1.21-0.91C810.29,391.52,810.9,391.62,811.91,391.11z"/>
	<path d="M837.64,327.85c-0.3-2.93-0.3-2.93-2.52-4.44C836.22,324.92,836.02,326.54,837.64,327.85z"/>
	<path d="M179.25,298.59c-13.17-0.42-21-0.77-31.28,11.6c0.3,3.13-2.23,4.64-3.63,6.76c-5.58,8.46-1.53,0.41-6.56,17.86
		c-0.2,0.71-1.01,1.41-0.1,2.52c2.42-4.04,6.05-7.06,7.06-12.11c1.61-8.06,9.83-13.29,7.37-16.65c12.08-10.06,12.75-8.17,31.38-8.17
		C181.98,298.69,180.46,298.89,179.25,298.59z"/>
	<path d="M195.7,284.76c-3.89,3.5-8.95,3.3-22.2,5.25c-5.98,0.88-19.71,4.37-20.68,9.99c3.07,1.54,3.08-5.27,20.28-7.16
		C189.67,291.02,191.64,291.53,195.7,284.76z"/>
	<path d="M174.92,344.6c-5.45-3.43-11.1-2.42-16.35-4.04c1.92-4.44,3.33-8.68,3.63-13.12c-2.93,4.14-4.04,8.98-6.15,13.32
		c-4.94,0.1-4.94,0.1-5.95,0.81c9.18,1.31,19.47-1.11,28.05,6.76C175.54,344.22,171.35,319.06,174.92,344.6z"/>
	<path d="M145.75,341.27c-4.14-0.4-7.57-2.02-11.2-1.72c-4.34-4.94-4.74-8.17-1.82-14.73c-0.87-2.6-8.42,13.2-6.36,19.68
		c1.61-3.33,1.31-6.96,3.03-10.39c0.91,2.02,1.61,3.53,2.32,5.15c-0.81,1.41-3.03,2.22-2.22,4.74c1.31-1.11,1.72-2.72,3.03-3.43
		C135.77,341.37,143.23,341.87,145.75,341.27z"/>
	<path d="M207.71,281.64c-1.72,5.65-0.71,11,1.72,16.35c1.51-0.71,1.59-1.51,1.41-2.42C208.53,283.95,210.83,280.07,207.71,281.64z"
		/>
	<path d="M286.81,348.43c-0.2-0.71,0-1.92-1.82-1.92c2.31,8.34,2.43,16.89,3.63,25.33C291.73,370.65,287.08,349.6,286.81,348.43z"/>
	<path d="M149.08,299.29c-3.94,6.05-9.08,10.7-11.6,17.86C140.51,314.73,148.88,302.02,149.08,299.29z"/>
	<path d="M273.19,397.47c-2.22,0.95,1.7,12.33,1.31,17.66C275.51,411.4,274.5,400.2,273.19,397.47z"/>
	<path d="M309.52,298.69c-0.1-3.63-0.01-7.55-3.73-9.89c-1.11-0.7-2.52-1.82-3.83,0.1c2.12,1.31,4.54,1.82,5.95,4.14
		C307.5,295.06,308.31,296.97,309.52,298.69z"/>
	<path d="M212.65,276.29c-4.24,0.5-5.75,1.72-6.56,4.74c0.5,0.5,1.11,0.4,1.72,0.5C212.7,276.64,212.26,277.51,212.65,276.29z"/>
	<path d="M238.79,317.66c4.04-0.3,7.37,1.41,11.6,2.32C245.55,316.65,241.21,315.74,238.79,317.66z"/>
	<path d="M259.57,360.34c2.12,1.61,4.34,1.72,7.26,0.1C262.4,359.33,261.79,359.33,259.57,360.34z"/>
	<path d="M313.35,300.4c0.91,3.23,1.82,3.83,5.75,4.14C317.29,302.93,316.28,300.81,313.35,300.4z"/>
	<path d="M178.14,352.47c-0.81,2.83-1.51,5.55-1.01,8.48C177.94,358.22,179.35,355.5,178.14,352.47z"/>
	<path d="M213.26,287.59c-0.2-3.13,2.32-5.05,3.53-7.87C212.65,282.65,211.74,284.66,213.26,287.59z"/>
	<path d="M266.74,367.3c0.81,3.13,1.01,6.36,2.83,9.18C268.75,373.36,269.26,369.92,266.74,367.3z"/>
	<path d="M148.98,336.63c1.2,0.6,0.31,1.07,4.34-7.67C151,331.18,148.98,333.4,148.98,336.63z"/>
	<path d="M202.56,359.43c-0.4-2.62-0.3-5.45-2.72-7.26C200.95,354.49,200.95,357.21,202.56,359.43z"/>
	<path d="M139.4,356.1c-0.3-2.32-1.41-4.14-3.13-6.26C136.17,352.97,136.88,354.99,139.4,356.1z"/>
	<path d="M200.75,338.34c-0.91,2.42-1.92,4.94-2.93,7.47C199.84,343.69,200.54,341.17,200.75,338.34z"/>
	<path d="M261.79,303.73c1.92,1.11,3.83,2.42,6.36,1.61C266.13,304.54,264.21,303.33,261.79,303.73z"/>
	<path d="M282.38,366.39c-0.61-2.02-1.61-3.63-3.43-4.54C279.45,363.87,280.66,365.38,282.38,366.39z"/>
	<path d="M271.18,346.62c0.5,2.42,1.72,3.23,3.94,3.63C274.2,348.33,272.99,347.63,271.18,346.62z"/>
	<path d="M246.76,299.39c-1.77,1.36-3.95,3.02-4.24,3.23C245.11,303.07,246.02,301.77,246.76,299.39z"/>
	<path d="M257.15,325.23c-0.61-2.12-2.32-2.22-3.73-2.93C253.03,323.07,252.56,322.75,257.15,325.23z"/>
	<path d="M177.13,302.62c1.31-0.3,2.72-0.61,4.04-0.91C179.66,301.21,178.24,301.01,177.13,302.62z"/>
	<path d="M270.57,345.2c-0.23-3.2-3.19-3.37-1.72-0.91C269.26,344.8,269.56,345.51,270.57,345.2z"/>
	<path d="M267.74,321.79c-1.21,0-2.22-0.3-2.83,0.81C265.93,323.11,266.74,322.9,267.74,321.79z"/>
	<path d="M258.06,381.33c0.4,1.31,0.2,2.32,1.92,3.23C259.37,383.14,259.57,382.13,258.06,381.33z"/>
	<path d="M250.49,364.78c-0.92-0.83-1.64-1.49-2.52-0.61C248.55,365.26,249.36,365.2,250.49,364.78z"/>
	<path d="M260.48,394.54c-0.1,0.91-0.2,1.72,1.01,2.32C261.29,395.96,261.99,395.05,260.48,394.54z"/>
	<path d="M246.96,348.23c0.71,0.3,1.31,0.5,1.82-0.4C247.97,347.22,247.46,347.63,246.96,348.23z"/>
	<path d="M241.81,348.94c-0.91-0.61-1.82-0.71-2.93,0.1C240.2,349.54,241.01,349.74,241.81,348.94z"/>
	<path d="M272.18,388.39c-0.3,0.4-0.3,0.71,0.2,1.41C272.59,389.1,272.79,388.59,272.18,388.39z"/>
	<path d="M262.6,362.96c0.5,0.81,0.71,1.61,1.72,0.91C264.11,363.16,263.81,362.66,262.6,362.96z"/>
	<path d="M280.16,308.48c0.61,0.3,1.11,0.4,1.61-0.4C280.96,307.67,280.46,307.87,280.16,308.48z"/>
	<path d="M236.57,285.47c0.1-0.1,0.3-0.2,0.81-0.71C236.77,285.17,236.36,284.97,236.57,285.47z"/>
	<path d="M82.79,314.13c0.71,4.34,4.44,6.96,6.05,10.8C88.16,320.66,85.33,317.26,82.79,314.13z"/>
	<path d="M44.15,232.3c-0.1,3.43-0.1,6.76,2.22,9.69C45.46,238.85,44.85,235.52,44.15,232.3z"/>
	<path d="M62.71,323.81c0.91,3.43,1.21,7.16,3.63,10.19C62.98,322.57,63.71,323.32,62.71,323.81z"/>
	<path d="M57.36,277.4c2.42-2.12,1.82-4.14,0-6.76C57.36,273.36,57.36,275.38,57.36,277.4z"/>
	<path d="M103.58,366.49c-0.2,1.61-0.5,2.93,0.71,5.05C104.49,369.32,104.79,368.01,103.58,366.49z"/>
	<path d="M53.43,293.34c0.3-1.41,0.81-2.83-0.4-4.84C51.82,290.82,53.03,292.03,53.43,293.34z"/>
	<path d="M105.7,387.78c-1.16-1.74-2.37-2.51-4.35-3.83C102.45,386.02,103.32,386.95,105.7,387.78z"/>
	<path d="M80.77,309.59c0,1.82,1.11,3.13,2.02,4.54C82.89,312.31,81.88,310.9,80.77,309.59z"/>
	<path d="M68.57,298.18c-0.61-1.51-1.51-2.22-2.83-2.42C66.35,296.77,66.65,297.98,68.57,298.18z"/>
	<path d="M43.54,217.36c1.01-0.81,1.21-1.82,1.21-2.93C43.84,215.24,43.14,216.15,43.54,217.36z"/>
	<path d="M77.34,295.76c-0.71,1.21-0.81,2.52,0,4.24C77.95,298.39,77.85,297.17,77.34,295.76z"/>
	<path d="M34.76,248.14c0.4,1.31,1.11,2.42,3.23,3.03C36.98,249.45,35.97,248.64,34.76,248.14z"/>
	<path d="M56.46,265.79c-0.71,0.91-0.5,1.51,0.5,2.32C57.47,267.01,57.57,266.3,56.46,265.79z"/>
	<path d="M125.17,407.16c-0.3-1.11-0.81-1.61-2.02-1.51C123.46,406.65,123.86,407.26,125.17,407.16z"/>
	<path d="M46.37,279.42c-0.2,0.91,0.1,1.41,0.91,1.61C47.78,280.12,47.38,279.72,46.37,279.42z"/>
	<path d="M54.14,260.14c0.4,0.71-0.1,1.61,1.41,1.41C55.35,260.95,55.35,260.35,54.14,260.14z"/>
	<path d="M127.39,390.61c-0.81,0.81-1.21,1.21-0.61,2.02C127.69,392.53,128,392.02,127.39,390.61z"/>
	<path d="M33.45,246.32c0.1,1.11,0.81,1.41,1.41,1.72C34.76,247.33,34.66,246.52,33.45,246.32z"/>
	<path d="M72.9,302.72c-0.2-0.5-0.4-0.91-1.01-0.71C72.1,302.52,72.1,303.03,72.9,302.72z"/>
	<path d="M121.34,404.13c0.2-0.81,0-1.21-0.91-1.11C120.33,403.73,120.43,404.23,121.34,404.13z"/>
	<path d="M72.7,328.76c-0.3-0.3-0.1-0.91-0.81-0.91C71.69,328.45,72,328.76,72.7,328.76z"/>
	<path d="M69.17,340.66c0.1-0.81-0.3-1.01-1.01-1.41C68.26,340.16,68.57,340.46,69.17,340.66z"/>
	<path d="M81.78,345.1c0.3,0.2,0.4,0.61,0.91,0.3C81.63,344.7,81.97,344.72,81.78,345.1z"/>
	<path d="M50.1,284.26c-0.1,0.81-0.2,1.31,0.91,1.21C51.01,284.86,50.6,284.56,50.1,284.26z"/>
	<path d="M23.66,151.67c10.29-6.33,13.02-4.13,25.83-9.59C42.53,141.89,25.48,148.35,23.66,151.67z"/>
	<path d="M9.64,164.79c-1.01,7.16,1.82,13.32,5.65,19.17C13.27,177.61,9.84,171.65,9.64,164.79z"/>
	<path d="M18.92,199.8c-2.12-0.71-4.24-0.5-6.26,0.71C14.78,200.61,17,201.42,18.92,199.8z"/>
	<path d="M21.14,206.97c0,2.16-3.85,0.21-6.86,1.72C23.45,210.52,22.74,207.29,21.14,206.97z"/>
	<path d="M19.83,203.13c0.5,1.21,0.91,2.52,1.31,3.73C21.65,205.46,21.04,204.24,19.83,203.13z"/>
	<path d="M11.66,157.93c0.71-0.61,1.41-1.21,2.42-2.22C12.36,155.91,11.76,156.72,11.66,157.93z"/>
	<path d="M115.99,355.5c3.23,6.26,4.94,13.12,8.68,19.07C122.24,368.01,120.13,361.35,115.99,355.5z"/>
	<path d="M155.04,381.43c6.36,0.2,11.6-3.73,17.66-4.74C166.44,376.89,160.99,380.32,155.04,381.43z"/>
	<path d="M178.55,377.49c-0.98,0.33-1.55-0.59,2.93,8.37C181.07,382.84,180.06,380.12,178.55,377.49z"/>
	<path d="M169.47,384.86c0.1-0.81,0.5-1.61-0.61-2.62C169.16,383.45,169.37,384.15,169.47,384.86z"/>
	<path d="M296.4,475.97c1.82-0.4,3.53-0.81,4.94-2.62c-1.92-0.1-3.33,1.01-5.05,1.21c-0.71-3.13-3.43-5.75-1.61-9.38
		c-1.41-0.3-1.21,1.72-2.72,1.21c-0.81-1.61-3.43-1.82-3.83-4.04c-2.32,2.72-5.55,1.11-8.17,1.92c-1.31-1.82-0.91-4.44-3.43-5.75
		c0.61,2.32,2.12,4.14,1.61,6.26c-4.34,2.22-4.34,2.22-5.75,5.75c4.14-4.34,8.98-4.51,13.82-4.14
		C291.96,466.83,292.87,472.84,296.4,475.97z"/>
	<path d="M270.87,473.25c-1.51,9.99,6.26,18.97,14.13,16.35C269.72,484.25,273.74,482.52,270.87,473.25z"/>
	<path d="M278.14,479.5c2.22,4.65,10.09,5.8,10.09,0.71C284.7,481.72,281.57,479.2,278.14,479.5z"/>
	<path d="M296.3,486.26c-0.1-1.72,1.11-3.33,0-5.55c-0.91,3.03-1.61,5.55-2.42,8.27c3.43-1.82,7.37,0.4,10.49-2.32
		C301.65,485.86,298.92,487.37,296.3,486.26z"/>
	<path d="M293.27,457c-2.42-1.72-5.05-1.82-7.87-1.31C287.82,457.1,290.55,457,293.27,457z"/>
	<path d="M270.77,457.51c2.12-0.71,4.44-1.11,6.46-3.13C274.5,454.78,272.39,455.69,270.77,457.51z"/>
	<path d="M304.67,482.93c1.31-1.11,1.01-2.52,0.91-4.44C304.98,480.31,304.17,481.42,304.67,482.93z"/>
	<path d="M268.15,465.18c1.11,1.01,2.32,1.82,4.34,1.72C271.07,465.38,269.76,465.18,268.15,465.18z"/>
	<path d="M302.15,463.36c-0.3-2.02-1.82-2.83-3.33-3.63C300.03,460.84,300.54,462.65,302.15,463.36z"/>
	<path d="M300.34,453.57c-1.11,0.5-2.12,1.01-2.83,2.52C299.23,455.69,299.73,454.68,300.34,453.57z"/>
	<path d="M303.06,465.28c1.31-2.18,1.16-1.82-1.01-1.82C302.05,464.07,301.65,464.97,303.06,465.28z"/>
	<path d="M350.48,402.21c-0.2,0.4-1.41,0.5-0.71,1.41C349.88,403.73,350.58,402.92,350.48,402.21z"/>
	<path d="M352,399.99c1.13-1.51,1.16-1.28-0.4-0.5C351.8,399.59,351.9,399.79,352,399.99z"/>
	<path d="M368.54,379.31c-0.3,0.2-0.5,0.3-0.81,0.5C368.14,379.91,368.65,379.91,368.54,379.31z"/>
	<path d="M371.47,375.88c0-0.54-0.4-0.21-1.01,0.2C370.67,376.28,370.75,376.6,371.47,375.88z"/>
	<path d="M300.94,409.07c-1.21-1.01-2.32-1.21-4.44-0.91C298.32,408.77,299.43,409.48,300.94,409.07z"/>
	<path d="M297.11,415.73c-1.11-0.2-1.61-0.5-2.22-0.1C295.39,416.04,296,416.04,297.11,415.73z"/>
	<path d="M363.3,434.4c1.41-1.61,4.64-1.31,4.84-4.94C364.91,429.86,363.8,431.78,363.3,434.4z"/>
	<path d="M310.83,318.26c-0.71,0.91-0.5,1.92-0.4,3.63C311.23,320.48,311.54,319.47,310.83,318.26z"/>
	<path d="M574.08,454.68c0.54,1.61,5.67,8.08-6.36-12.31C569.14,446.81,571.05,451.05,574.08,454.68z"/>
	<path d="M559.35,426.93c-1.11-2.93-2.12-5.85-3.23-8.68C556.22,421.49,557.23,424.41,559.35,426.93z"/>
	<path d="M561.47,431.27c-0.1,0.91,0.2,1.72,1.51,2.52C562.38,432.58,562.48,431.58,561.47,431.27z"/>
	<path d="M559.85,429.25c0.71,0.81,0.61,1.82,1.72,1.92C561.47,430.36,561.37,429.46,559.85,429.25z"/>
	<path d="M577.01,458.01c-0.15-0.25-0.65-1.78-1.31-1.11C575.8,457.61,576,458.21,577.01,458.01z"/>
	<path d="M644.11,393.13c0.81,0.71,1.61,0.91,2.62,0.2C645.92,392.63,645.12,392.53,644.11,393.13z"/>
	<path d="M165.93,462.55c-3.13-5.15-6.26-10.39-9.79-16.25C157.96,451.96,162.4,459.53,165.93,462.55z"/>
	<path d="M148.98,433.29c-1.21-3.33-2.42-6.56-3.63-9.89C146.02,429.41,148.42,433.85,148.98,433.29z"/>
	<path d="M149.08,433.29c-0.59,0.88,1.67,3.54,2.52,4.74C151.2,436.22,150.5,434.5,149.08,433.29z"/>
	<path d="M236.06,398.48c-1.01-0.71-1.72-0.81-2.52-0.1C234.35,398.98,235.05,399.29,236.06,398.48z"/>
<path fill="#e6e6e6" d="m206.8 163.6c0-5.1 4.1-9.2 9.3-9.2s9.2 4.2 9.2 9.2-4.1 9.2-9.3 9.2-9.2-4.1-9.2-9.2zm17.3-.1c0-4.5-3.5-8.2-8.2-8.2s-8.2 3.7-8.2 8.3c0 4.5 3.5 8.2 8.2 8.2s8.2-3.7 8.2-8.3zm-13 0c0-2.8 2.1-5.1 5.1-5.1 1.9 0 2.9.6 3.9 1.5l-1.4 1.7c-.8-.7-1.5-1.1-2.5-1.1-1.7 0-2.8 1.4-2.8 3.1s1.1 3 2.8 3c1.1 0 1.7-.5 2.5-1.1l1.4 1.4c-1.1 1.1-2.1 1.7-4 1.7-2.9 0-5-2.3-5-5.1z"/><path fill="#e6e6e6" d="m226.6 154.7h3.4l4.2 13.2 4.4-13.3h2.6l4.4 13.3 4.2-13.2h3.3l-6.2 18h-2.7l-4.4-12.8-4.4 12.8h-2.7z"/><path fill="#e6e6e6" d="m252.8 165.8c0-3.9 3.1-7 7.2-7 4.2 0 7.2 3.2 7.2 7s-3.1 7-7.3 7c-4 0-7.1-3.1-7.1-7zm11.3 0c0-2.3-1.7-4.3-4.2-4.3s-4.1 2-4.1 4.3 1.7 4.3 4.1 4.3c2.7.1 4.2-1.9 4.2-4.3z"/><path fill="#e6e6e6" d="m269.5 159.1h3.1v3c.8-2 2.4-3.4 4.8-3.3v3.2h-.2c-2.7 0-4.6 1.7-4.6 5.4v5.1h-3.1z"/><path fill="#e6e6e6" d="m279.1 153.9h3.1v11.1l5.6-6h3.8l-5.4 5.5 5.5 8h-3.5l-4.1-5.8-1.9 2v3.9h-3.1z"/><path fill="#e6e6e6" d="m291.7 165.8c0-3.9 3.1-7 7.2-7 4.2 0 7.2 3.2 7.2 7s-3.1 7-7.3 7c-4 0-7.1-3.1-7.1-7zm11.3 0c0-2.3-1.7-4.3-4.2-4.3s-4.1 2-4.1 4.3 1.7 4.3 4.1 4.3c2.6.1 4.2-1.9 4.2-4.3z"/><path fill="#e6e6e6" d="m308.2 167.6v-8.6h3.1v7.6c0 2.1 1.1 3.3 2.9 3.3s3-1.3 3-3.3v-7.6h3.1v13.4h-3.1v-2.1c-.8 1.3-2.1 2.3-4.2 2.3-3.1.2-4.8-1.8-4.8-5z"/><path fill="#e6e6e6" d="m323.9 168.8v-7.1h-1.7v-2.6h1.7v-3.7h3.1v3.7h3.6v2.6h-3.6v6.6c0 1.2.6 1.7 1.7 1.7.7 0 1.3-.2 1.9-.5v2.5c-.8.5-1.7.7-2.8.7-2.3 0-3.9-.9-3.9-3.9z"/><path fill="#e6e6e6" d="m333.2 154.7h3.2v15h9.4v2.9h-12.5v-17.9z"/><path fill="#e6e6e6" d="m356 172.5v-1.7c-.9 1.1-2.3 2-4.4 2-2.6 0-4.8-1.4-4.8-4.2 0-3 2.3-4.4 5.4-4.4 1.7 0 2.6.2 3.7.5v-.2c0-1.9-1.2-2.9-3.3-2.9-1.5 0-2.6.3-3.9.8l-.8-2.5c1.5-.7 2.9-1.1 5.1-1.1 4 0 5.9 2.1 5.9 5.7v8zm.1-5.6c-.8-.3-1.9-.5-3.1-.5-2 0-3.1.8-3.1 2.1s1.1 2 2.6 2c2 0 3.5-1.1 3.5-2.9z"/><path fill="#e6e6e6" d="m364.9 170.5v2.1h-3.1v-18.7h3.1v7.4c1-1.4 2.4-2.5 4.5-2.5 3.2 0 6.3 2.5 6.3 7s-3.1 7-6.3 7c-2.1 0-3.5-1.1-4.5-2.3zm7.7-4.7c0-2.6-1.7-4.3-3.9-4.3s-3.9 1.7-3.9 4.4c0 2.6 1.8 4.3 3.9 4.3s3.9-1.7 3.9-4.4z"/><path fill="#e6e6e6" d="m376.9 170.8 1.4-2.1c1.4 1.1 3 1.7 4.4 1.7s2.1-.5 2.1-1.5-1.3-1.4-2.8-1.8c-.1 0-.2-.1-.2-.1-2-.6-4.2-1.4-4.2-4s2.1-4.1 4.8-4.1c1.7 0 3.5.6 5 1.5l-1.2 2.2c-1.3-.8-2.6-1.3-3.8-1.3s-1.9.5-1.9 1.4 1.3 1.4 2.8 1.8c.1 0 .2.1.2.1 2 .6 4.2 1.5 4.2 4 0 2.9-2.2 4.2-5 4.2-1.9 0-4-.7-5.8-2z"/><path fill="#e6e6e6" d="m505.6 163.6c0-5.1 4.1-9.2 9.3-9.2s9.2 4.2 9.2 9.2-4.1 9.2-9.3 9.2-9.2-4.1-9.2-9.2zm17.4-.1c0-4.5-3.5-8.2-8.2-8.2s-8.2 3.7-8.2 8.3c0 4.5 3.5 8.2 8.2 8.2s8.2-3.7 8.2-8.3zm-13.1 0c0-2.8 2.1-5.1 5.1-5.1 1.9 0 2.9.6 3.9 1.5l-1.4 1.7c-.8-.7-1.5-1.1-2.5-1.1-1.7 0-2.8 1.4-2.8 3.1s1.1 3 2.8 3c1.1 0 1.7-.5 2.5-1.1l1.4 1.4c-1.1 1.1-2.1 1.7-4 1.7-2.9 0-5-2.3-5-5.1z"/><path fill="#e6e6e6" d="m525.4 154.7h3.4l4.2 13.2 4.4-13.3h2.6l4.4 13.3 4.2-13.2h3.3l-6.2 18h-2.7l-4.4-12.8-4.4 12.8h-2.7z"/><path fill="#e6e6e6" d="m551.7 165.8c0-3.9 3.1-7 7.2-7 4.2 0 7.2 3.2 7.2 7s-3.1 7-7.3 7c-4.1 0-7.1-3.1-7.1-7zm11.2 0c0-2.3-1.7-4.3-4.2-4.3s-4.1 2-4.1 4.3 1.7 4.3 4.1 4.3c2.7.1 4.2-1.9 4.2-4.3z"/><path fill="#e6e6e6" d="m568.3 159.1h3.1v3c.8-2 2.4-3.4 4.8-3.3v3.2h-.2c-2.7 0-4.6 1.7-4.6 5.4v5.1h-3.1z"/><path fill="#e6e6e6" d="m577.9 153.9h3.1v11.1l5.6-6h3.8l-5.4 5.5 5.5 8h-3.5l-4.1-5.8-1.9 2v3.9h-3.1z"/><path fill="#e6e6e6" d="m590.6 165.8c0-3.9 3.1-7 7.2-7 4.2 0 7.2 3.2 7.2 7s-3.1 7-7.3 7c-4.1 0-7.1-3.1-7.1-7zm11.2 0c0-2.3-1.7-4.3-4.2-4.3s-4.1 2-4.1 4.3 1.7 4.3 4.1 4.3c2.6.1 4.2-1.9 4.2-4.3z"/><path fill="#e6e6e6" d="m607 167.6v-8.6h3.1v7.6c0 2.1 1.1 3.3 2.9 3.3s3-1.3 3-3.3v-7.6h3.1v13.4h-3.1v-2.1c-.8 1.3-2.1 2.3-4.2 2.3-3 .2-4.8-1.8-4.8-5z"/><path fill="#e6e6e6" d="m622.7 168.8v-7.1h-1.7v-2.6h1.7v-3.7h3.1v3.7h3.6v2.6h-3.6v6.6c0 1.2.6 1.7 1.7 1.7.7 0 1.3-.2 1.9-.5v2.5c-.8.5-1.7.7-2.8.7-2.3 0-3.9-.9-3.9-3.9z"/><path fill="#e6e6e6" d="m632 154.7h3.2v15h9.4v2.9h-12.6z"/><path fill="#e6e6e6" d="m654.8 172.5v-1.7c-.9 1.1-2.3 2-4.4 2-2.6 0-4.8-1.4-4.8-4.2 0-3 2.3-4.4 5.4-4.4 1.7 0 2.6.2 3.7.5v-.2c0-1.9-1.2-2.9-3.3-2.9-1.5 0-2.6.3-3.9.8l-.8-2.5c1.5-.7 2.9-1.1 5.1-1.1 4 0 5.9 2.1 5.9 5.7v8zm.1-5.6c-.8-.3-1.9-.5-3.1-.5-2 0-3.1.8-3.1 2.1s1.1 2 2.6 2c2 0 3.5-1.1 3.5-2.9z"/><path fill="#e6e6e6" d="m663.7 170.5v2.1h-3.1v-18.7h3.1v7.4c1-1.4 2.4-2.5 4.5-2.5 3.2 0 6.3 2.5 6.3 7s-3.1 7-6.3 7c-2.1 0-3.5-1.1-4.5-2.3zm7.8-4.7c0-2.6-1.7-4.3-3.9-4.3-2.1 0-3.9 1.7-3.9 4.4 0 2.6 1.8 4.3 3.9 4.3s3.9-1.7 3.9-4.4z"/><path fill="#e6e6e6" d="m675.8 170.8 1.4-2.1c1.4 1.1 3 1.7 4.4 1.7s2.1-.5 2.1-1.5-1.3-1.4-2.8-1.8c-.1 0-.2-.1-.2-.1-2-.6-4.2-1.4-4.2-4s2.1-4.1 4.8-4.1c1.7 0 3.5.6 5 1.5l-1.2 2.2c-1.3-.8-2.6-1.3-3.8-1.3s-1.9.5-1.9 1.4 1.3 1.4 2.8 1.8c.1 0 .2.1.2.1 2 .6 4.2 1.5 4.2 4 0 2.9-2.2 4.2-5 4.2-2 0-4.1-.7-5.8-2z"/><path fill="#e6e6e6" d="m61 298.6c0-5.1 4.1-9.2 9.3-9.2s9.2 4.2 9.2 9.2-4.1 9.2-9.3 9.2c-5.1 0-9.2-4.2-9.2-9.2zm17.4-.1c0-4.5-3.5-8.2-8.2-8.2s-8.2 3.7-8.2 8.3c0 4.5 3.5 8.2 8.2 8.2s8.2-3.7 8.2-8.3zm-13.1-.1c0-2.8 2.1-5.1 5.1-5.1 1.9 0 2.9.6 3.9 1.5l-1.4 1.7c-.8-.7-1.5-1.1-2.5-1.1-1.7 0-2.8 1.4-2.8 3.1s1.1 3 2.8 3c1.1 0 1.7-.5 2.5-1.1l1.4 1.4c-1.1 1.1-2.1 1.7-4 1.7-2.8.1-5-2.2-5-5.1z"/><path fill="#e6e6e6" d="m80.9 289.7h3.4l4.2 13.2 4.4-13.3h2.6l4.4 13.3 4.2-13.2h3.3l-6.2 18h-2.7l-4.4-12.8-4.4 12.8h-2.7z"/><path fill="#e6e6e6" d="m107.1 300.8c0-3.9 3.1-7 7.2-7s7.2 3.2 7.2 7-3.1 7-7.3 7c-4 0-7.1-3.1-7.1-7zm11.3 0c0-2.3-1.7-4.3-4.2-4.3s-4.1 2-4.1 4.3 1.7 4.3 4.1 4.3c2.6.1 4.2-1.9 4.2-4.3z"/><path fill="#e6e6e6" d="m123.7 294h3.1v3c.8-2 2.4-3.4 4.8-3.3v3.2h-.2c-2.7 0-4.6 1.7-4.6 5.4v5.1h-3.1z"/><path fill="#e6e6e6" d="m133.4 288.9h3.1v11.1l5.6-6h3.8l-5.4 5.5 5.5 8h-3.5l-4.1-5.8-1.9 1.9v3.9h-3.1z"/><path fill="#e6e6e6" d="m146 300.8c0-3.9 3.1-7 7.2-7s7.2 3.2 7.2 7-3.1 7-7.3 7c-4.1 0-7.1-3.1-7.1-7zm11.2 0c0-2.3-1.7-4.3-4.2-4.3s-4.1 2-4.1 4.3 1.7 4.3 4.1 4.3c2.6.1 4.2-1.9 4.2-4.3z"/><path fill="#e6e6e6" d="m162.4 302.6v-8.6h3.1v7.6c0 2.1 1.1 3.3 2.9 3.3s3-1.3 3-3.3v-7.6h3.1v13.4h-3.1v-2.1c-.8 1.3-2.1 2.3-4.2 2.3-3 .2-4.8-1.8-4.8-5z"/><path fill="#e6e6e6" d="m178.1 303.8v-7.1h-1.7v-2.7h1.7v-3.7h3.1v3.7h3.6v2.6h-3.6v6.6c0 1.2.6 1.7 1.7 1.7.7 0 1.3-.2 1.9-.5v2.5c-.8.5-1.7.7-2.8.7-2.3.1-3.9-.9-3.9-3.8z"/><path fill="#e6e6e6" d="m187.4 289.7h3.2v15h9.4v2.9h-12.5v-17.9z"/><path fill="#e6e6e6" d="m210.2 307.5v-1.7c-.9 1.1-2.3 2-4.4 2-2.6 0-4.8-1.4-4.8-4.2 0-3 2.3-4.4 5.4-4.4 1.7 0 2.6.2 3.7.5v-.2c0-1.9-1.2-2.9-3.3-2.9-1.5 0-2.6.3-3.9.8l-.8-2.5c1.5-.7 2.9-1.1 5.1-1.1 4 0 5.9 2.1 5.9 5.7v8zm.1-5.6c-.8-.3-1.9-.5-3.1-.5-2 0-3.1.8-3.1 2.1s1.1 2 2.6 2c2 0 3.5-1.1 3.5-2.9z"/><path fill="#e6e6e6" d="m219.2 305.5v2.1h-3.1v-18.7h3.1v7.4c1-1.4 2.4-2.5 4.5-2.5 3.2 0 6.3 2.5 6.3 7s-3.1 7-6.3 7c-2.2 0-3.6-1.1-4.5-2.3zm7.7-4.7c0-2.6-1.7-4.3-3.9-4.3s-3.9 1.7-3.9 4.4c0 2.6 1.8 4.3 3.9 4.3s3.9-1.7 3.9-4.4z"/><path fill="#e6e6e6" d="m231.2 305.8 1.4-2.1c1.4 1.1 3 1.7 4.4 1.7s2.1-.5 2.1-1.5-1.3-1.4-2.8-1.8c-.1 0-.2-.1-.2-.1-2-.6-4.2-1.4-4.2-4s2.1-4.1 4.8-4.1c1.7 0 3.5.6 5 1.5l-1.2 2.2c-1.3-.8-2.6-1.3-3.8-1.3s-1.9.5-1.9 1.4 1.3 1.4 2.8 1.8c.1 0 .2.1.2.1 2 .6 4.2 1.5 4.2 4 0 2.9-2.2 4.2-5 4.2-2 0-4.1-.7-5.8-2z"/><path fill="#e6e6e6" d="m360.6 298.6c0-5.1 4.1-9.2 9.3-9.2s9.2 4.2 9.2 9.2-4.1 9.2-9.3 9.2-9.2-4.2-9.2-9.2zm17.4-.1c0-4.5-3.5-8.2-8.2-8.2s-8.2 3.7-8.2 8.3c0 4.5 3.5 8.2 8.2 8.2s8.2-3.7 8.2-8.3zm-13.1-.1c0-2.8 2.1-5.1 5.1-5.1 1.9 0 2.9.6 3.9 1.5l-1.4 1.7c-.8-.7-1.5-1.1-2.5-1.1-1.7 0-2.8 1.4-2.8 3.1s1.1 3 2.8 3c1.1 0 1.7-.5 2.5-1.1l1.4 1.4c-1.1 1.1-2.1 1.7-4 1.7-2.8.1-5-2.2-5-5.1z"/><path fill="#e6e6e6" d="m380.5 289.7h3.4l4.2 13.2 4.4-13.3h2.6l4.4 13.3 4.2-13.2h3.3l-6.2 18h-2.7l-4.4-12.8-4.4 12.8h-2.7z"/><path fill="#e6e6e6" d="m406.7 300.8c0-3.9 3.1-7 7.2-7 4.2 0 7.2 3.2 7.2 7s-3.1 7-7.3 7c-4.1 0-7.1-3.1-7.1-7zm11.3 0c0-2.3-1.7-4.3-4.2-4.3s-4.1 2-4.1 4.3 1.7 4.3 4.1 4.3c2.7.1 4.2-1.9 4.2-4.3z"/><path fill="#e6e6e6" d="m423.3 294h3.1v3c.8-2 2.4-3.4 4.8-3.3v3.2h-.2c-2.7 0-4.6 1.7-4.6 5.4v5.1h-3.1z"/><path fill="#e6e6e6" d="m433 288.9h3.1v11.1l5.6-6h3.8l-5.4 5.5 5.5 8h-3.5l-4.1-5.8-1.9 2v3.9h-3.1z"/><path fill="#e6e6e6" d="m445.6 300.8c0-3.9 3.1-7 7.2-7 4.2 0 7.2 3.2 7.2 7s-3.1 7-7.3 7c-4.1 0-7.1-3.1-7.1-7zm11.3 0c0-2.3-1.7-4.3-4.2-4.3s-4.1 2-4.1 4.3 1.7 4.3 4.1 4.3c2.6.1 4.2-1.9 4.2-4.3z"/><path fill="#e6e6e6" d="m462.1 302.6v-8.6h3.1v7.6c0 2.1 1.1 3.3 2.9 3.3s3-1.3 3-3.3v-7.6h3.1v13.4h-3.1v-2.1c-.8 1.3-2.1 2.3-4.2 2.3-3.1.2-4.8-1.8-4.8-5z"/><path fill="#e6e6e6" d="m477.8 303.8v-7.1h-1.8v-2.7h1.7v-3.7h3.1v3.7h3.6v2.6h-3.6v6.6c0 1.2.6 1.7 1.7 1.7.7 0 1.3-.2 1.9-.5v2.5c-.8.5-1.7.7-2.8.7-2.2.1-3.8-.9-3.8-3.8z"/><path fill="#e6e6e6" d="m487.1 289.7h3.2v15h9.4v2.9h-12.5v-17.9z"/><path fill="#e6e6e6" d="m509.9 307.5v-1.7c-.9 1.1-2.3 2-4.4 2-2.6 0-4.8-1.4-4.8-4.2 0-3 2.3-4.4 5.4-4.4 1.7 0 2.6.2 3.7.5v-.2c0-1.9-1.2-2.9-3.3-2.9-1.5 0-2.6.3-3.9.8l-.8-2.5c1.5-.7 2.9-1.1 5.1-1.1 4 0 5.9 2.1 5.9 5.7v8zm.1-5.6c-.8-.3-1.9-.5-3.1-.5-2 0-3.1.8-3.1 2.1s1.1 2 2.6 2c2 0 3.5-1.1 3.5-2.9z"/><path fill="#e6e6e6" d="m518.8 305.5v2.1h-3.1v-18.7h3.1v7.4c1-1.4 2.4-2.5 4.5-2.5 3.2 0 6.3 2.5 6.3 7s-3.1 7-6.3 7c-2.2 0-3.5-1.1-4.5-2.3zm7.7-4.7c0-2.6-1.7-4.3-3.9-4.3s-3.9 1.7-3.9 4.4c0 2.6 1.8 4.3 3.9 4.3s3.9-1.7 3.9-4.4z"/><path fill="#e6e6e6" d="m530.8 305.8 1.4-2.1c1.4 1.1 3 1.7 4.4 1.7s2.1-.5 2.1-1.5-1.3-1.4-2.8-1.8c-.1 0-.2-.1-.2-.1-2-.6-4.2-1.4-4.2-4s2.1-4.1 4.8-4.1c1.7 0 3.5.6 5 1.5l-1.2 2.2c-1.3-.8-2.6-1.3-3.8-1.3s-1.9.5-1.9 1.4 1.3 1.4 2.8 1.8c.1 0 .2.1.2.1 2 .6 4.2 1.5 4.2 4 0 2.9-2.2 4.2-5 4.2-1.9 0-4.1-.7-5.8-2z"/><path fill="#e6e6e6" d="m659.5 298.6c0-5.1 4.1-9.2 9.3-9.2s9.2 4.2 9.2 9.2-4.1 9.2-9.3 9.2-9.2-4.2-9.2-9.2zm17.3-.1c0-4.5-3.5-8.2-8.2-8.2s-8.2 3.7-8.2 8.3c0 4.5 3.5 8.2 8.2 8.2 4.8 0 8.2-3.7 8.2-8.3zm-13-.1c0-2.8 2.1-5.1 5.1-5.1 1.9 0 2.9.6 3.9 1.5l-1.4 1.7c-.8-.7-1.5-1.1-2.5-1.1-1.7 0-2.8 1.4-2.8 3.1s1.1 3 2.8 3c1.1 0 1.7-.5 2.5-1.1l1.4 1.4c-1.1 1.1-2.1 1.7-4 1.7-2.9.1-5-2.2-5-5.1z"/><path fill="#e6e6e6" d="m679.3 289.7h3.4l4.2 13.2 4.4-13.3h2.6l4.4 13.3 4.2-13.2h3.3l-6.2 18h-2.6l-4.4-12.8-4.4 12.8h-2.7z"/><path fill="#e6e6e6" d="m705.5 300.8c0-3.9 3.1-7 7.2-7 4.2 0 7.2 3.2 7.2 7s-3.1 7-7.3 7c-4 0-7.1-3.1-7.1-7zm11.3 0c0-2.3-1.7-4.3-4.2-4.3s-4.1 2-4.1 4.3 1.7 4.3 4.1 4.3c2.7.1 4.2-1.9 4.2-4.3z"/><path fill="#e6e6e6" d="m722.1 294h3.1v3c.8-2 2.4-3.4 4.8-3.3v3.2h-.2c-2.7 0-4.6 1.7-4.6 5.4v5.1h-3.1z"/><path fill="#e6e6e6" d="m731.8 288.9h3.1v11.1l5.6-6h3.8l-5.4 5.5 5.5 8h-3.5l-4.1-5.8-1.9 2v3.9h-3.1z"/><path fill="#e6e6e6" d="m744.4 300.8c0-3.9 3.1-7 7.2-7 4.2 0 7.2 3.2 7.2 7s-3.1 7-7.3 7c-4.1 0-7.1-3.1-7.1-7zm11.3 0c0-2.3-1.7-4.3-4.2-4.3s-4.1 2-4.1 4.3 1.7 4.3 4.1 4.3c2.6.1 4.2-1.9 4.2-4.3z"/><path fill="#e6e6e6" d="m760.9 302.6v-8.6h3.1v7.6c0 2.1 1.1 3.3 2.9 3.3s3-1.3 3-3.3v-7.6h3.1v13.4h-3.1v-2.1c-.8 1.3-2.1 2.3-4.2 2.3-3.1.2-4.8-1.8-4.8-5z"/><path fill="#e6e6e6" d="m776.6 303.8v-7.1h-1.7v-2.7h1.7v-3.7h3.1v3.7h3.6v2.6h-3.6v6.6c0 1.2.6 1.7 1.7 1.7.7 0 1.3-.2 1.9-.5v2.5c-.8.5-1.7.7-2.8.7-2.3.1-3.9-.9-3.9-3.8z"/><path fill="#e6e6e6" d="m785.9 289.7h3.2v15h9.4v2.9h-12.5v-17.9z"/><path fill="#e6e6e6" d="m808.7 307.5v-1.7c-.9 1.1-2.3 2-4.4 2-2.6 0-4.8-1.4-4.8-4.2 0-3 2.3-4.4 5.4-4.4 1.7 0 2.6.2 3.7.5v-.2c0-1.9-1.2-2.9-3.3-2.9-1.5 0-2.6.3-3.9.8l-.8-2.5c1.5-.7 2.9-1.1 5.1-1.1 4 0 5.9 2.1 5.9 5.7v8zm.1-5.6c-.8-.3-1.9-.5-3.1-.5-2 0-3.1.8-3.1 2.1s1.1 2 2.6 2c2 0 3.5-1.1 3.5-2.9z"/><path fill="#e6e6e6" d="m817.6 305.5v2.1h-3.1v-18.7h3.1v7.4c1-1.4 2.4-2.5 4.5-2.5 3.2 0 6.3 2.5 6.3 7s-3.1 7-6.3 7c-2.1 0-3.5-1.1-4.5-2.3zm7.7-4.7c0-2.6-1.7-4.3-3.9-4.3-2.1 0-3.9 1.7-3.9 4.4 0 2.6 1.8 4.3 3.9 4.3 2.2 0 3.9-1.7 3.9-4.4z"/><path fill="#e6e6e6" d="m829.6 305.8 1.4-2.1c1.4 1.1 3 1.7 4.4 1.7s2.1-.5 2.1-1.5-1.3-1.4-2.8-1.8c-.1 0-.2-.1-.2-.1-2-.6-4.2-1.4-4.2-4s2.1-4.1 4.8-4.1c1.7 0 3.5.6 5 1.5l-1.2 2.2c-1.3-.8-2.6-1.3-3.8-1.3s-1.9.5-1.9 1.4 1.3 1.4 2.8 1.8c.1 0 .2.1.2.1 2 .6 4.2 1.5 4.2 4 0 2.9-2.2 4.2-5 4.2-1.9 0-4-.7-5.8-2z"/><path fill="#e6e6e6" d="m206.3 434.2c0-5.1 4.1-9.2 9.3-9.2s9.2 4.2 9.2 9.2-4.1 9.2-9.3 9.2-9.2-4.1-9.2-9.2zm17.4-.1c0-4.5-3.5-8.2-8.2-8.2s-8.2 3.7-8.2 8.3c0 4.5 3.5 8.2 8.2 8.2s8.2-3.7 8.2-8.3zm-13.1-.1c0-2.8 2.1-5.1 5.1-5.1 1.9 0 2.9.6 3.9 1.5l-1.4 1.7c-.8-.7-1.5-1.1-2.5-1.1-1.7 0-2.8 1.4-2.8 3.1s1.1 3 2.8 3c1.1 0 1.7-.5 2.5-1.1l1.4 1.4c-1.1 1.1-2.1 1.7-4 1.7-2.9.1-5-2.2-5-5.1z"/><path fill="#e6e6e6" d="m226.1 425.3h3.4l4.2 13.2 4.4-13.3h2.6l4.4 13.3 4.2-13.2h3.3l-6.2 18h-2.7l-4.4-12.8-4.4 12.8h-2.7z"/><path fill="#e6e6e6" d="m252.4 436.4c0-3.9 3.1-7 7.2-7 4.2 0 7.2 3.2 7.2 7s-3.1 7-7.3 7c-4.1 0-7.1-3.1-7.1-7zm11.2 0c0-2.3-1.7-4.3-4.2-4.3s-4.1 2-4.1 4.3 1.7 4.3 4.1 4.3c2.7.1 4.2-1.9 4.2-4.3z"/><path fill="#e6e6e6" d="m269 429.7h3.1v3c.8-2 2.4-3.4 4.8-3.3v3.2h-.2c-2.7 0-4.6 1.7-4.6 5.4v5.1h-3.1z"/><path fill="#e6e6e6" d="m278.6 424.5h3.1v11.1l5.6-6h3.8l-5.4 5.5 5.5 8h-3.5l-4.1-5.8-1.9 2v3.9h-3.1z"/><path fill="#e6e6e6" d="m291.3 436.4c0-3.9 3.1-7 7.2-7 4.2 0 7.2 3.2 7.2 7s-3.1 7-7.3 7c-4.1 0-7.1-3.1-7.1-7zm11.2 0c0-2.3-1.7-4.3-4.2-4.3s-4.1 2-4.1 4.3 1.7 4.3 4.1 4.3c2.6.1 4.2-1.9 4.2-4.3z"/><path fill="#e6e6e6" d="m307.7 438.2v-8.6h3.1v7.6c0 2.1 1.1 3.3 2.9 3.3s3-1.3 3-3.3v-7.6h3.1v13.4h-3.1v-2.1c-.8 1.3-2.1 2.3-4.2 2.3-3 .2-4.8-1.8-4.8-5z"/><path fill="#e6e6e6" d="m323.4 439.4v-7.1h-1.7v-2.6h1.7v-3.7h3.1v3.7h3.6v2.6h-3.6v6.6c0 1.2.6 1.7 1.7 1.7.7 0 1.3-.2 1.9-.5v2.5c-.8.5-1.7.7-2.8.7-2.3 0-3.9-.9-3.9-3.9z"/><path fill="#e6e6e6" d="m332.7 425.3h3.2v15h9.4v2.9h-12.5v-17.9z"/><path fill="#e6e6e6" d="m355.5 443.1v-1.7c-.9 1.1-2.3 2-4.4 2-2.6 0-4.8-1.4-4.8-4.2 0-3 2.3-4.4 5.4-4.4 1.7 0 2.6.2 3.7.5v-.2c0-1.9-1.2-2.9-3.3-2.9-1.5 0-2.6.3-3.9.8l-.8-2.5c1.5-.7 2.9-1.1 5.1-1.1 4 0 5.9 2.1 5.9 5.7v8zm.1-5.6c-.8-.3-1.9-.5-3.1-.5-2 0-3.1.8-3.1 2.1s1.1 2 2.6 2c2 0 3.5-1.1 3.5-2.9z"/><path fill="#e6e6e6" d="m364.4 441.1v2.1h-3.1v-18.7h3.1v7.4c1-1.4 2.4-2.5 4.5-2.5 3.2 0 6.3 2.5 6.3 7s-3.1 7-6.3 7c-2.1 0-3.5-1.1-4.5-2.3zm7.7-4.7c0-2.6-1.7-4.3-3.9-4.3-2.1 0-3.9 1.7-3.9 4.4 0 2.6 1.8 4.3 3.9 4.3 2.2 0 3.9-1.7 3.9-4.4z"/><path fill="#e6e6e6" d="m376.5 441.4 1.4-2.1c1.4 1.1 3 1.7 4.4 1.7s2.1-.5 2.1-1.5-1.3-1.4-2.8-1.8c-.1 0-.2-.1-.2-.1-2-.6-4.2-1.4-4.2-4s2.1-4.1 4.8-4.1c1.7 0 3.5.6 5 1.5l-1.2 2.2c-1.3-.8-2.6-1.3-3.8-1.3s-1.9.5-1.9 1.4 1.3 1.4 2.8 1.8c.1 0 .2.1.2.1 2 .6 4.2 1.5 4.2 4 0 2.9-2.2 4.2-5 4.2-2 0-4.1-.7-5.8-2z"/><path fill="#e6e6e6" d="m505.1 434.2c0-5.1 4.1-9.2 9.3-9.2s9.2 4.2 9.2 9.2-4.1 9.2-9.3 9.2-9.2-4.1-9.2-9.2zm17.4-.1c0-4.5-3.5-8.2-8.2-8.2s-8.2 3.7-8.2 8.3c0 4.5 3.5 8.2 8.2 8.2s8.2-3.7 8.2-8.3zm-13.1-.1c0-2.8 2.1-5.1 5.1-5.1 1.9 0 2.9.6 3.9 1.5l-1.4 1.7c-.8-.7-1.5-1.1-2.5-1.1-1.7 0-2.8 1.4-2.8 3.1s1.1 3 2.8 3c1.1 0 1.7-.5 2.5-1.1l1.4 1.4c-1.1 1.1-2.1 1.7-4 1.7-2.9.1-5-2.2-5-5.1z"/><path fill="#e6e6e6" d="m525 425.3h3.4l4.2 13.2 4.4-13.3h2.6l4.4 13.3 4.2-13.2h3.3l-6.2 18h-2.7l-4.4-12.8-4.4 12.8h-2.7z"/><path fill="#e6e6e6" d="m551.2 436.4c0-3.9 3.1-7 7.2-7 4.2 0 7.2 3.2 7.2 7s-3.1 7-7.3 7c-4.1 0-7.1-3.1-7.1-7zm11.2 0c0-2.3-1.7-4.3-4.2-4.3s-4.1 2-4.1 4.3 1.7 4.3 4.1 4.3c2.7.1 4.2-1.9 4.2-4.3z"/><path fill="#e6e6e6" d="m567.8 429.7h3.1v3c.8-2 2.4-3.4 4.8-3.3v3.2h-.2c-2.7 0-4.6 1.7-4.6 5.4v5.1h-3.1z"/><path fill="#e6e6e6" d="m577.5 424.5h3.1v11.1l5.6-6h3.8l-5.4 5.5 5.5 8h-3.5l-4.1-5.8-1.9 2v3.9h-3.1z"/><path fill="#e6e6e6" d="m590.1 436.4c0-3.9 3.1-7 7.2-7 4.2 0 7.2 3.2 7.2 7s-3.1 7-7.3 7c-4.1 0-7.1-3.1-7.1-7zm11.2 0c0-2.3-1.7-4.3-4.2-4.3s-4.1 2-4.1 4.3 1.7 4.3 4.1 4.3c2.6.1 4.2-1.9 4.2-4.3z"/><path fill="#e6e6e6" d="m606.5 438.2v-8.6h3.1v7.6c0 2.1 1.1 3.3 2.9 3.3s3-1.3 3-3.3v-7.6h3.1v13.4h-3.1v-2.1c-.8 1.3-2.1 2.3-4.2 2.3-3 .2-4.8-1.8-4.8-5z"/><path fill="#e6e6e6" d="m622.2 439.4v-7.1h-1.7v-2.6h1.7v-3.7h3.1v3.7h3.6v2.6h-3.6v6.6c0 1.2.6 1.7 1.7 1.7.7 0 1.3-.2 1.9-.5v2.5c-.8.5-1.7.7-2.8.7-2.3 0-3.9-.9-3.9-3.9z"/><path fill="#e6e6e6" d="m631.5 425.3h3.2v15h9.4v2.9h-12.5v-17.9z"/><path fill="#e6e6e6" d="m654.3 443.1v-1.7c-.9 1.1-2.3 2-4.4 2-2.6 0-4.8-1.4-4.8-4.2 0-3 2.3-4.4 5.4-4.4 1.7 0 2.6.2 3.7.5v-.2c0-1.9-1.2-2.9-3.3-2.9-1.5 0-2.6.3-3.9.8l-.8-2.5c1.5-.7 2.9-1.1 5.1-1.1 4 0 5.9 2.1 5.9 5.7v8zm.1-5.6c-.8-.3-1.9-.5-3.1-.5-2 0-3.1.8-3.1 2.1s1.1 2 2.6 2c2 0 3.5-1.1 3.5-2.9z"/><path fill="#e6e6e6" d="m663.3 441.1v2.1h-3.1v-18.7h3.1v7.4c1-1.4 2.4-2.5 4.5-2.5 3.2 0 6.3 2.5 6.3 7s-3.1 7-6.3 7c-2.2 0-3.6-1.1-4.5-2.3zm7.7-4.7c0-2.6-1.7-4.3-3.9-4.3s-3.9 1.7-3.9 4.4c0 2.6 1.8 4.3 3.9 4.3s3.9-1.7 3.9-4.4z"/><path fill="#e6e6e6" d="m675.3 441.4 1.4-2.1c1.4 1.1 3 1.7 4.4 1.7s2.1-.5 2.1-1.5-1.3-1.4-2.8-1.8c-.1 0-.2-.1-.2-.1-2-.6-4.2-1.4-4.2-4s2.1-4.1 4.8-4.1c1.7 0 3.5.6 5 1.5l-1.2 2.2c-1.3-.8-2.6-1.3-3.8-1.3s-1.9.5-1.9 1.4 1.3 1.4 2.8 1.8c.1 0 .2.1.2.1 2 .6 4.2 1.5 4.2 4 0 2.9-2.2 4.2-5 4.2-2 0-4.1-.7-5.8-2z"/></g>
</svg>
