<?xml version="1.0" encoding="utf-8"?>
<!-- Generator: Adobe Illustrator 23.0.1, SVG Export Plug-In . SVG Version: 6.00 Build 0)  -->
<svg version="1.2" baseProfile="tiny" id="Layer_1" xmlns="http://www.w3.org/2000/svg" xmlns:xlink="http://www.w3.org/1999/xlink"
	 x="0px" y="0px" viewBox="0 0 900 600" xml:space="preserve">
<g>
	<path d="M895.94,378.99c-0.91-1.65-2.05-2.77-4.41-1.85c0.31-2.36-0.1-4.31,0.92-6.16c2.28-4.14,3-26.62-3.18-34.18
		c-2.29-2.81,4.84-11.43,2.87-25.05c-1.33-9.25-6.67-30.67-15.91-34.59c-3.78-1.6-7.58-3.27-11.74-4.13
		c0.52-3.91-5.17-7-10.02-11.48c1.13-1.95,2.96-0.32,4.21-1.75c8.19-9.38,3.8-10.25,4.62-24.74c0.76-13.43-9.74-15.93-10.27-17.25
		c1.54-2.16,3.8-4.52,1.75-7.19c-1.74-2.26-4.31-4.11-7.49-2.16c-0.41-1.13-0.2-2.17-1.13-2.77c-1.63-1.05-3.08,0.72-4.52,0.51
		c-0.53-1.05,1.68-3.93-0.72-4.72c-3.24-1.08-2.91,4.95-4.21,6.36c-7.43-0.64-8.62,4.68-15.81,5.65
		c-9.77,1.31-6.96,6.69-14.37,14.89c-3.52,3.89-3.06,8.74-4.31,10.57c-5.24,1.44-10.16,0.43-14.99,1.03
		c-5.23,0.64-10.57,1.67-16.01,1.44c-17.11-0.73-18.47,6.26-20.74,7.08c-5.35,1.93-9.04,6.26-13.65,9.14
		c-15.34,9.57-22.53,22.93-28.33,23.51c-0.41,0-0.72,0.51-0.72,1.23c-0.1,1.13,1.85,1.13,1.75,2.46c-2.38,3.25-2.97-0.86-17.66-0.21
		c-7.3,0.32-2.82,4.12-6.36-14.37c-0.1-0.92-0.6-1.95-0.41-2.77c1.21-5.22-0.05-10.47-0.1-15.71c-0.06-5.95-2.73-3.87-2.67-6.57
		c0.27-12.87-17.29-12-29.87-9.24c-3.85-5.05-27.36,13.99-21.45,31.72c-2.82,6.85-14.14,7.92-18.99,12.32
		c2.71-8.47-29.51-0.38-33.88-3.28c1.84-13.05-10.03-38.41-10.27-43.73c-0.1-1.03-0.72-1.95-1.44-2.77
		c-8.48-8.49,15.04,46.81,8.21,46.81c-4.81-1.92-8.58-0.93-11.5,2.16c-7.23,7.64-2.53,17.33-17.04,20.84
		c0.72-1.64,1.44-3.28-0.41-4.21c-2.89-1.45-4.54,4.36-7.8,5.13c-2.69-9.4-7.38,0.72-8.62,1.85c0.82-2.87,1.54-5.14-1.13-6.16
		c-2.15-0.82-3.08,1.03-4.11,2.57c-3.8-0.72-5.13,2.36-6.57,4.82c-2.16,0.82-4.52,0.51-6.36,2.05c-6.27,5.23-13.24,9.24-20.94,11.81
		c-3.59,0.9-2.25,4.33-8.01,2.57c-8.5-2.6-16.58-3.84-15.91-12.93c0.83-11.25,5.24-20.99,13.15-29.05c-0.29,0.57-0.9,1.15-0.32,2.26
		c2.77-3.59,6.39-5.93,9.34-9.14c14.83-16.1,15.39,1.95,29.67-18.27c9.73-13.79,13.54-14.34,18.48-17.86
		c12.6-9,7.32-4.21,10.06-4.21c4.52-3.08,10.47-0.51,16.22-2.67c-4.47-4.47-9.21-1.57-10.78-2.26c-3.67-1.6-6.79-0.23-9.75,1.85
		c-6.28,4.41-18.43,9.7-25.66,23.51c-1.51,2.89-4.62,4.41-6.36,7.08c-1.1,1.93-14,0.81-22.84,10.32
		c-0.68-7.99-20.13,16.42-22.74,30.54c-1.39,7.54-1.5,16.86,5.85,19.09c5.03,1.53,9.44,4.41,14.27,5.85
		c5.75-3.9,12.23-6.35,18.27-9.55c6.17-3.27,12.32-6.98,20.02-7.6c-2.57,8.11-1.41,15.59,1.95,22.79c6.7,14.34,11.7,8.8,14.78,15.4
		c1.13-2.26,1.85-4.21,4.41-3.8c0.51,0.72,0.31,1.54,0.31,2.36c0,7.87-0.36,6.88-1.75,6.88c-3.08,0-6.39,44.63,11.39,102.65
		c-11.91,4.52-23.71-0.1-35.72-1.33c6.88,3.49,14.68,3.8,21.97,6.06c-7.49,0.1-14.78-1.03-21.97-2.87
		c10.88,6.06,23.1,4.82,35.42,7.29c-1.75-2.05-2.87-3.49-4.21-5.13c1.75-0.31,2.67-1.95,4.52-1.64
		c2.55,10.83,3.53,20.84,11.09,28.64c-1.95,6.16-1.03,7.49,7.19,10.68c2.16,16.53,2.87,33.36,4.31,50.1
		c-0.72-0.31-0.72-1.23-1.95-0.72c0.72,14.78,3.18,29.36,7.6,43.63c1.05-13.95-3.47-18.86-4.21-32.13
		c4.31-3.49,8.42-6.98,13.65-9.44c1.13,3.8,1.55,7.19,1.64,10.57c0.23,8.52,2.31,16.73,3.49,25.05c0.32,2.26,1.03,4.72,3.59,6.78
		c-1.33-14.99-5.24-28.85-6.47-43.42c18.35-11.93,15.98-0.6,12.83-35.93c-1.07-11.97-1.41-5.12,7.8-6.16
		c7.26-0.82,11.21-0.01,33.47,3.39c7.99,1.22,4.84-4.52,10.37,0.51c11.37,10.34,18.75,2.27,28.95,7.08c1.03,0.1,1.64-1.23,2.87-0.92
		c5.85,5.65,12.93,2.16,19.61,2.36c0,25.21-10.4,87.02-3.18,68.27c-3.14-2.55,1.37-10.78,3.18-32.44c0.68-8.07-0.42,2.52,2.36-36.96
		c3.81-0.49,13.73-4.36,14.99-8.83c1.89-6.73,4.57-8.87,13.86-22.07c-16.55,8.76-12.54,23.06-24.43,25.25
		c-0.82-1.95-0.92-4-1.23-6.06c0.47-0.05,4.2,3.63,2.98-6.98c-1.23,1.64,0.31,3.7-1.44,5.03c-2.05-7.9-1.95-8.01,2.98-11.19
		c1.54,2.36,1.75,5.75,4.82,6.98c-1.64-2.77-2.77-5.65-3.9-8.73c2.36-2.05,3.5-5.51,6.36-6.47c4.43-1.49,7.7-3.38,7.8-8.52
		c0.01-0.43,6.03-9.43,7.08-10.88c1.04-1.43,1.45-2.77,1.64-4.41c0.9-7.79,4.11-14.58,8.11-21.15c3.49,0.72,4.82,4.11,7.7,5.34
		c-1.75-2.77-3.9-5.03-6.57-6.98c9.62-13.63,8-7.49,9.85-8.93c-2.16-2.16,1.85-3.7,0.82-5.95c-1.23,0.41-1.03,2.26-2.57,2.26
		c-0.82-0.92-1.75-1.85-2.87-2.57c1.54-3.8,4.5-6.58,6.16-10.06c1.46-3.06,10.89-21.6,13.45-23.71c6.35,3.17,6.41,16.83,5.65,20.02
		c2.74,2.47,3.41,2.91,0.72,7.29c-5.24,8.52-11.82,16.11-16.32,25.36c-6.82,14.01-19.33,29.05-21.45,36.13
		c4.31-6.88,10.3-12.32,14.88-18.89c3.72-5.33,3.97-8.2,13.65-24.95c3.2-5.53,9.14-8.62,12.32-14.68
		c-0.16,2.65-2.47,43.77-5.03,46.81c-5.73,6.81,0.66,68.96-43.42,103.78c-18.25,14.42-17.29,15.91-23.51,18.89
		c-3.71,2.23,1.4,2.48,7.39-2.05c5.43-4.12,10.04-9.16,15.4-13.35c45.2-35.35,41.53-89.17,43.53-95.16
		c5.43-16.29,11.4-72.03,8.73-75.66c-1.95,1.13-0.31,3.39-1.95,4.62c-3.08-2.46-3.18-5.75-2.67-9.55c1.23,3.08,3.18,4.41,6.47,2.98
		c-0.31,1.23-0.41,2.04,0.72,2.26c11.54,2.24,20.14-5.02,29.56-14.78c2.34,1.17-5.76,22.83-3.49,40.55
		c1.44-14.17,4.72-28.13,6.06-42.91c5.65-6.47,12.93-12.22,19.61-19.2c2.77,7.9,8.42,14.06,8.62,22.48c0.51,3.04,2.4,2.25,1.85,7.6
		c-1.51,14.71,15.29,27.3,26.69,20.63c4.23-2.47,13.57-10.08,17.04-18.58C901.49,389.98,898.86,384.3,895.94,378.99z M485.83,270.69
		c-1.37,2.75-3.75,4.53-5.85,6.36C481.11,274.28,483.27,272.33,485.83,270.69z M544.86,459.06c0.72-0.31,1.33-0.41,1.33,0
		C546.19,459.47,545.58,459.27,544.86,459.06z M856.01,258.58c0.21-1.33,0.82-1.64,1.64-2.05
		C857.44,257.45,857.14,258.17,856.01,258.58z M856.31,253.55c1.03,0.62,0.72,1.33-1.23,2.77
		C853.67,255.47,853.88,254.16,856.31,253.55z M854.06,258.99c-1.33,0.72-1.33,0.72-3.18-0.62
		C852.11,258.07,853.13,258.07,854.06,258.99z M847.49,218.24c-0.21,1.33-1.13,1.03-2.05,1.64
		C845.74,218.03,845.95,217.11,847.49,218.24z M846.87,232.2c-1.23-0.72-1.75-1.33-0.51-2.26
		C847.38,230.66,846.56,231.38,846.87,232.2z M843.17,217.52c-0.51,2.16-1.33,2.26-2.57,0.82
		C841.12,217.11,841.84,216.9,843.17,217.52z M843.07,239.48c-1.44-0.51-1.44-1.33-0.82-2.77
		C843.4,237.63,844.45,239.48,843.07,239.48z M840.81,234.25c0.51,0.41,1.33,0.72,0.31,1.33
		C840.3,235.28,840.51,234.87,840.81,234.25z M841.43,247.7c0.5,0.5-0.75,1.08-1.75-0.41C840.61,246.57,841.02,247.29,841.43,247.7z
		 M839.07,231.89c-0.41,0.92-0.92,0.92-1.75,0.51C837.73,231.38,838.14,230.96,839.07,231.89z M835.89,219.06
		c-0.1,1.44-1.03,0.92-1.85,0.82C834.45,219.16,835.06,218.75,835.89,219.06z M831.57,238.36c1.13,0.41,0.82,1.03,0.21,1.75
		C831.27,239.69,830.86,239.18,831.57,238.36z M827.67,234.56c-0.21,2.36-1.95,1.33-3.7,1.64
		C825.83,234.45,825.83,234.45,827.67,234.56z M819.36,234.66c-1.23,1.95-2.36,3.28-4.41,3.49
		C816.48,235.17,816.48,235.17,819.36,234.66z M814.94,241.95c-0.72,0.92-1.54,0.41-2.57,0.51
		C813.82,240.31,813.82,240.31,814.94,241.95z M812.48,239.38c-0.31,0.72-0.72,1.13-1.44,0.41
		C811.25,238.77,811.86,239.07,812.48,239.38z M810.74,228.19c0.31,1.95-1.33,1.75-1.85,2.46
		C808.99,229.53,809.71,229.01,810.74,228.19z M808.78,230.55c0,0.62,0,1.33-0.92,1.44C807.96,231.38,807.96,230.76,808.78,230.55z
		 M778.19,243.8c11.7-2.67,24.33-2.87,29.46-0.51c-0.1,0.92-1.64,0.51-1.44,1.85c4.93,0.31,10.06-1.64,15.09,0.72
		c-0.51,1.44-1.95,0-2.67,1.44c2.36,2.26,5.65,2.77,8.52,3.9c3.28-2.77,7.9-2.46,12.42,0.82c-3.7,0.51-7.08-2.36-11.09,0.31
		c7.6,3.59,16.01,4.31,22.79,10.27c-22.62,2.64-14.65-1.89-40.34-2.57c-2.77,0.1-5.44-0.62-8.21-1.44c1.44-2.05,4.31-2.26,5.65-5.13
		c-3.8,0.62-5.85,2.87-8.01,4.72c-2.98,0.1-5.54-1.03-8.21-1.64c0.37-2.96,12.11-6.38,14.99-7.19c9.3-2.6-3.21-6.03-19.5,5.34
		c-4.31-0.82-6.16-4.93-9.44-7.19C777.68,246.16,779.22,245.03,778.19,243.8z M682.72,293.28c-0.21,2.16-0.31,3.9-2.16,4.41
		c0.72,5.03-0.82,9.65-2.67,14.78c-2.26-5.54,2.57-9.96,1.03-14.88C680.06,296.25,681.18,295.02,682.72,293.28z M568.47,280.34
		c1.44-0.82,2.16,0.32,3.08,0.1c1.24-0.29,0.51-1.75,1.44-2.36c4.84,3.87,34.87-1.49,36.96,2.67c-1.03,1.85-3.49,2.05-4.52,3.7
		c-2.05,3.28-5.02,5.76-7.49,8.62c-6.79,7.84-2.99,18.89-3.18,30.28c-0.06,3.67,3.48,6.03,8.93,10.37
		c7.98,6.35,19.91,1.38,23.2-1.75c2.79,2.79,4.28-2.34,15.91-1.13c1.95,0.2,4,0.62,5.34,2.26c0.92,1.13,2.36,0.92,3.28,1.23
		c4.62,6.16,4,12.73,2.46,19.5c-12.83-2.67-26.28-1.63-39.32-4.52c-6.47-1.43-13.03-1.28-19.61-1.75c-1.64-0.12-3.28-1.23-5.34-0.31
		c3.59,3.9,8.42,3.39,12.83,4.62c0.51,5.24-0.51,10.57,0.92,16.12c-5.36-4.39-5.92-10.55-12.52-14.78
		c-1.75-1.12-3.39-2.36-3.39-5.13c0-1.95-1.2-4.22-1.85-6.26c-2.65-8.36-2.65-17.25-5.54-25.56c-4.72-13.56-4.11-25.94-4.11-35.42
		C570.87,281.01,564.42,291.69,568.47,280.34z M652.95,368.01c-1.44,0.72-2.36-1.23-3.9-0.51c0.51,1.85,2.77,1.54,3.8,3.28
		c0.51,1.44,0.19,3.27-1.03,4.52c-3,3.05-3.72,7.22-5.13,10.98c-1.76,4.68,0.08-0.93-6.98-6.36c-1.02,0.51-1.57-1.21,5.95,12.52
		c-0.51,3.08-0.43,6.77-1.95,10.06c-0.14,0.31,0.06,23.37,5.85,39.52c1.43,3.99,3.49,1.88,4.52,8.52
		c0.97,6.29-0.83,13.44-6.67,10.06c-14.92-8.62,1.57-11.64-11.81-25.77c-1.27-1.34-4.78-17.14-28.64-17.14
		c1.25-34.88-1.49-18.31,7.29-39.21c5.97-14.22,5.82-7.54,16.73-24.12c7.7-0.21,15.09,2.67,23.1,1.23
		C652.44,359.9,652.95,364.01,652.95,368.01z M646.3,422.54c-0.77-2.11,2.01,3.85,2.85,13.53
		C647.27,431.79,646.44,427.21,646.3,422.54z M649.88,438.02c-1.13-0.62-0.82-1.33-0.82-1.85
		C649.88,436.48,649.46,437.3,649.88,438.02z M646.18,422.11c-0.41-0.41-0.72-0.92-0.51-1.64
		C646.38,420.98,645.97,421.59,646.18,422.11z M606.04,381.56c-0.62-9.96-2.36-19.71-2.16-29.98c7.49,0.92,14.27,0.92,21.45,2.16
		C618.15,362.88,609.94,370.68,606.04,381.56z M545.47,309.5c0.51-1.33-0.82-2.05-0.21-3.9c1.18-0.68,12.04-2.86,16.94-16.01
		c0.21,7.39-4.31,11.61-8.93,15.6c-2.97,2.57-5.65,5.75-10.16,6.47C543.52,309.91,545.37,310.62,545.47,309.5z M542.09,312.99
		c-2.16-0.21-2.16-0.21-2.87-1.75C540.75,311.34,541.16,312.58,542.09,312.99z M541.88,339.57c-8.43,1.78-20.6-17.17-16.73-32.64
		c3.82-2.21,4.8,0.52,14.89,9.34c1.38,1.38,3.6,11.35,3.9,12.83C545.79,338.25,544.9,338.94,541.88,339.57z M582.23,548.27
		c1.64,0.82,2.36-0.31,3.7,0.1c-10.9,6.23-3.78,2.6-7.29-6.16c2.16-0.41,1.75-1.95,1.64-3.18c-0.68-7.8-1.73-15.61-3.28-23.3
		c-1.32-6.57-0.62-13.24-1.44-20.12c5.95,0.41,10.78,3.08,16.32,2.87c2.61,12.31-1.14,5.33,3.8,39.01c0.21,1.44,1.23,2.46,1.85,3.7
		C592.9,544.37,587.87,546.63,582.23,548.27z M607.48,530.72c0.61,2.77,0,5.03-2.57,6.67c-1.85,1.03-3.28,2.46-5.13,2.98
		c-2.79-1.79-1.91-19.17-6.16-32.75c-1.28-4.1,1.54-4.3,0.21-8.52c-0.31-0.82,0.51-1.23,1.44-1.54c2.98,1.13,4.72,4.82,8.32,4.72
		C605.96,505.06,603.86,514.37,607.48,530.72z M610.87,500.74c-10.15,0.24-7.47-4.52-12.01-4.52c-14.12,0-11.96,0.54-23.92-3.7
		c-1.28-0.45-6.67-0.73-8.11-5.03c4.41-1.75,7.29,2.67,11.09,2.67c1.44,0,2.36-1.23,3.9-1.44c-20.77-6.15-25.41-25.6-24.53-29.46
		c0.45-1.99,1.88-8.37,0.21-9.55c-4.12-3.41-0.61-6.71-7.29-23.1c-12.99-31.87,1.76-90.16-5.75-101.42
		c1.13-5.54,0.92-6.47-1.75-8.11c14.28-4.2,8.36-7.48,16.53-12.73c5.52-3.55,2.78-6.49,13.35-16.63c-0.82,5.72,2.69,11.74-3.9,16.63
		c-3.41,2.53-4,6.36-1.44,9.85c1.85-3.59,2.98-7.49,7.08-9.03c3.84,13.58,8.55,36.86,10.57,43.42c2.96,9.61,14.26,15.86,14.17,29.36
		c-0.01,1.95,1.96,2.15,2.16,3.8c0.54,4.62,2.16,9.14,2.16,13.86c0,54.07-4.53,33.79-3.7,52.05c1.33-0.21,2.57,1.54,4.41,0.51
		c0.18-4.6-2.74-10.31,0.51-15.19c2.87,0.51,3.59-1.95,4.72-4.11c-1.54-0.92-2.36,0.72-3.8,0.92c0.31-2.87,0.62-5.75,1.33-8.73
		c6.57,0.82,12.83,1.95,17.76,6.67c5.27,5.06,12.26,14.42,13.35,20.74c1.28,7.43-7.44,4.23-15.6,9.24
		c-5.89,3.61-2.05,6.38,1.33,4.82c13.21-6.06,3.9-5.54,13.04-5.54c0.51,1.03,0.5,1.94-0.31,2.87
		c-12.64,14.58-19.03,9.49-17.45,16.32c-1.44,1.44-2.98,2.87-2.67,5.34c0.34,2.69-10.97,11.57-22.28,10.27
		c-4.18-0.48-8.48-4.4-9.75-4.82c-2.57,0.41,0.1,4-3.08,4.11c8.21,1.64,16.23,5.46,24.43,1.75c4.37-1.98,10.42-7.63,11.7-8.11
		c6.67-2.48,11.32-7.77,16.63-12.11c5.4-4.42,5.11-11.58,5.85-12.32c1.56-1.56,7.24,2.01,10.98,3.49c2.8,1.11,2.06,2.4,0.72,18.48
		c-0.42,2.95-3.61,4.86-1.33,9.96c1.37,3.07,0.8,6.48,2.26,9.44C655.56,508.01,628.53,500.32,610.87,500.74z M626.24,474.75
		c1.05-1.97,2.76-3.36,4.02-5.21c0.72-0.92,1.44-0.41,1.95,0.41c0,0.43,0.91,0.2-0.31,1.44c-0.41-0.31-0.1-0.62,0-1.03
		C630.32,471.05,632.13,470.29,626.24,474.75z M621.85,474.46c1.78-0.84,2.79,0.88,4.15,0.47c-1.22,0.92-2.74,2.04-4.67,3.43
		C621.95,476.82,621.85,475.59,621.85,474.46z M690.73,508.85c-1.44,0.21-2.87,1.75-4.62,0.31c4.62-3.28,9.96-5.54,14.27-9.24
		c0.95-0.81,7.91,0.03,13.04-3.59c0.31,4.62,0.1,8.93,2.05,13.35C706.01,512.43,695.52,516.66,690.73,508.85z M704.38,496.74
		c1.44-2.16,3.4-2.86,4.72-4.41c10.99-12.9,7.07-20.63,15.3-10.57C714.66,489.5,716.45,495.19,704.38,496.74z M719.78,474.67
		c0.92-1.54,1.54-2.57,2.16-3.7c3.08,1.85,4.82,4.72,6.47,7.7C724.78,482.11,723.17,474.67,719.78,474.67z M760.33,424.47
		c-12.7,14.51-3.35,4.81-2.57-2.98C759.31,422.31,759.92,423.24,760.33,424.47z M872.23,412.56c-14.43-4.95-12.15-6.11-15.6-28.54
		c-2.81-18.26-7.4-9.98-9.85-31.21c-2.57-22.21,8.81-24.33,2.31-27.43c-0.1,0.05,7.1-2.27,8.88-3.88c2.48-2.24,5.22-4.47,1.85-6.06
		c-2.56,0.85-1.37,4.01-13.14,6.26c-16.9,3.23-16.82,2.17-17.45,4.21c2.26,1.85,5.02-0.29,7.39,0.51c2.46,0.84,5.13-0.31,7.8,0
		c-5.44,4.31-9.33,10.73-17.04,11.81c-3.08,0.43-5.44-0.93-6.47-3.8c-0.92-2.57-2.57-4.93-2.26-8.52
		c-3.79,4.38,1.72,7.43-0.62,11.39c0.62,1.33,1.85,1.75,2.77,2.67c-13.48,11.03,5.32,0.54-22.99,15.71
		c1.15,1.66-0.33,1.2,16.01-6.88c0.41-0.2,1.03-0.31,1.23-0.62c3.49-5.24,9.45-6.14,14.68-8.21c9.05-3.58,8.89-7.83,16.01-11.19
		c2.69,3.36,0.69,6.61-1.03,11.19c-2.96,9.87,0.79,3.17-1.33,22.89c-0.51,4.74-6.17,4.22-16.94,17.35
		c-7.47,9.11-16.49,16.56-28.02,17.55c-13.15,1.13-11.61-6.89-16.53-11.81c-1.64-1.85-2.98-3.7-1.54-6.26
		c8.52,3.08,8.73,3.08,13.86,1.13c1.03,1.33-0.21,3.18,1.03,4.72c1.33-1.23,0.62-2.87,0.92-4.31c0.59-4.04,2.6-2.29,2.6-2.92
		c-1.4-0.9-2.21-1.51-3.02-2.01c-3.8,5.75-7.19,6.16-15.09,1.75c2.16-3.18,1.87-7.37,5.03-10.47c2.79-2.75,5.95-5.03,8.83-8.21
		c-2.98,0-4,2.57-6.16,2.87c-1.75,2.87-4.82,4.31-7.29,7.29c1.86,7.3-6.7,13.35-10.98,23.2c-5.6,12.9-12.89,23.11-14.58,29.26
		c-4.63,16.83-16.38,22.53-16.12,35.01c0.16,7.75-3.88,11.07-8.21,16.32c-8.84-12.07-15.92-5.09-22.79-22.89
		c2.98-7.7,4.31-15.91,6.36-24.23c0.51,3.8-0.92,7.08-0.92,10.57c2.87-8.62,7.49-16.94,3.7-26.18c0.31-1.33,1.75-1.33,1.75-2.46
		c-0.51-1.54-1.54-0.21-2.36-0.51c-4.82-10.06-10.56-19.61-13.35-30.49c-1.28-4.99-5.98-16.5-4.93-21.76
		c1.33,6.57,7.29,5.13,11.5,7.08c-9.42,10.17-5.67,11.23-3.28,6.47c4.38-8.75,11.01-7.65,17.86-8.01
		c-3.67-5.96-24.58,5.01-27.31-11.6c-4.39-26.71-7.27-22.58,3.08-22.58c7.48,0,6.47,0.33,6.47-1.03c-4.41-2.16-9.14,0.1-14.06-0.1
		c-2.26-6.06-4.21-12.32-5.34-18.79c-1.44,0.31-1.23,1.33-1.13,2.26c6.19,56.67,26.62,98.21,27.72,108.1
		c-1.64,0.21-2.33,1.44-2.57,2.98c-3.37,21.74-10.81,34.96-7.29,45.89c1.44-3.7,1.44-7.6,2.36-12.11
		c4.12,13.58,11.17,11.37,7.49,16.63c-3.29,4.72-4.49,10.2-6.16,15.6c-0.62,2.03,0.73,1.4-10.98,8.73
		c-9.82,6.14,2.1,3.84-21.76,14.78c-4.72-2.46-9.93-3.93-14.47-7.19c-3.47-2.49-5.21-6.18-8.11-9.14c-0.71-0.72-0.81-2.15-0.31-3.39
		c4.62-11.3-2.83-10.19,3.28-32.13c2.39-8.59-1.56-8.98-2.05-12.22c-5.24-34.47-8.94-44.82-2.36-62.31c0.73-1.95,1.44-3.9,1.64-6.16
		c1.23,0.82,0,2.26,1.23,3.18c2.67-1.54,0.41-5.24,2.98-6.57c-1.03-5.54-1.98-10.79-0.21-16.22c1.21-3.69,2.73-11.18,0.51-14.37
		c-1.35-1.94-0.21-4.21-1.03-6.06c0.51-1.33,2.36-1.44,2.57-2.77c0.41-1.13-0.72-1.75-0.72-2.57c1.85-2.36,3.7-4.62,5.44-6.88
		c-1.59-3.17-2.56-6.75-5.24-5.75c-1.13,0.42-1.75,1.44-1.44,2.57c0.69,2.5-1.4,10.31-4.72,6.57c1.54-2.26,0.82-5.24,2.46-7.49
		c-1.85-2.36-1.85-2.36-6.57,0.72c-0.62-1.23-1.03-2.98-2.87-2.87c-2.8,0.17-5.26,4.8-6.06,7.49c-3.49,2.57-6.98,2.46-10.16,0.31
		c-1.63-0.61-2.04,2.21-3.65,0.95c-0.01,0.03-0.03,0.05-0.04,0.07c-2.98,1.23-2.98,4.82-5.34,6.57c-1.03,0.62-0.72-0.72-1.64-1.13
		c-5.37,2.69-12.11,1.44-12.22,1.33c-2.7-2.75-6.07-5.02-7.39-8.93c-8.98-26.6,15.21-40.64,30.59-51.94
		c7.78-5.72-0.38-9.67,6.78-22.07c8.53-14.8,16.28-14.03,41.78-11.29c0.31,2.05-1.13,3.28-0.92,4.82c0.51,0.21,0.82-0.31,1.64-0.21
		c-3.7,4.31-7.6,8.62-9.14,14.47c1.13-0.1,2.26-0.21,3.39-0.31c2.05-3.9,6.78-5.95,7.29-11.6c1.64,4,1.75,6.67,0.62,9.75
		c1.44,1.23,1.71,2.66,1.03,4.62c-0.63,1.78,0.51-3.81,0.51,27.2c-5.32,2.84-14.67,13.61-7.8,14.99c-0.92,2.98-1.09,5.73,0,8.73
		c1.74,4.8-2.07,9.59,2.16,13.35c5.65-0.59,2.55-15.34,5.03-18.79c2.15-2.98,2.48-6.67,4.21-9.85c2.58-4.74-2.38-10.05,3.7-9.85
		c16.76,0.54,35.93,7.68,37.67,9.14c1.64-0.82,2.77-2.87,4.93-2.05c6.95,2.64,12.71,2.02,14.68,25.66
		c5.89,0.69-0.45-13.24-0.62-18.58c17.43,5.36,13.33,8.58,18.58,15.3c4,5.12-0.56,6.54,1.49,10.29c-0.34-2.29,0.55-4.25,2.21-6.28
		c14.04,17.09,8.23,39.57,12.38,47.56c0.06,0.11,7.59-14.82,1.17-33.91c-0.6,5.73,2.37,9.55-0.51,23.61
		c0.21-14.78-3.28-28.44-12.52-40.86c-4.58-1.06-2.39-11.56-18.68-16.32c-3.59-1.05-6.87-2.37-9.75-5.03
		c-3.68-3.4-8.93-3.59-13.45-5.44c-0.51-0.72,0.92-1.13,0.31-1.85c-5.44-0.82-11.19,0.62-16.63-0.62
		c1.37-2.56,12.32-16.15,17.96-19.71c9.45-5.96,17.43-14.47,22.69-16.94c11.88-5.57,5.74-5.66,10.68-6.16
		c21.37-2.18,10.87-1.49,12.11,2.98c7.09,6.25,5.72,5.59-1.54,10.06c3.8,0.51,6.26-1.03,8.62-2.36c1.13,0.1,1.64,1.03,2.87,1.44
		c-2.77,2.05-5.44,3.9-7.6,7.08c4.21-1.54,8.17-2.01,11.39-4.52c0.41-0.32,1.13-0.82,1.54-0.72c15.56,3.01,7.01,2.62,6.57,6.78
		c1.75,1.13,0.41,3.8,2.57,5.44c0.31-1.54,0.92-2.67,1.64-3.49c-0.31-1.75-1.95-1.03-2.57-2.05c0.82-1.75,3.39-1.95,3.9-4.31
		c11.09,2.77,22.38,2.78,33.36,5.44c5.54,1.34,11.22-0.1,16.63-1.54c0.72-0.19,1.23-1.03,2.16-1.85c6.66,7.4,5.41,5.37,3.52,5.83
		c-0.68,0.17-0.09-0.19-8.24,3.41c-51.02,22.51-33.74,61.21-32.53,52.95c0.19-1.3-8.22-18.26,21.03-44.12
		c6.43-5.68,16.5-6.6,21.74-11.85c0.08,0.08,0.03,0.09,0.12,0.04c2.22,0.3,2.66,3.29,4.81,3.47c0.03-0.1-0.04-0.13,0.11,0.02
		c-1.71,0,3.77,4.91,8.12,5.54c7.31,1.06,13.48,13.87,13.55,21.45c0.02,1.95,1.85,2.46,2.05,4c4.28,22.83-4.03,21.45,1.13,23.51
		c-1.22,6.09-3.14,4.93-0.51,14.58c7.73,28.32-3.2,32.52,3.9,38.39C905.86,391.66,887.17,417.69,872.23,412.56z M846.36,325.61
		c0.92-0.72,1.85-0.62,2.67-0.62C848.31,325.51,847.9,326.84,846.36,325.61z"/>
	<path d="M213.9,398.81c0.58-1.48-1.43-2.94,11.19,3.28c14,6.9,30.88,9.17,31.52,11.29c-1.75,2.16-4-0.21-6.57,0.72
		c10.57,5.24,21.97,6.67,31.93,11.6c0.1,6.26,0.1,6.26,1.33,7.8c3.39-4.31,4.11-11.39,1.44-13.14c-1.85-0.1-1.33,2.05-2.57,2.57
		c-0.72-1.75-2.77-1.64-3.8-2.87c1.33-0.62,2.87,0.62,4.21-0.62c0-5.64-21.28-3.15-25.25-4.82c5.65-2.05,12.52-5.65,12.32-9.65
		c-4.11,1.85-7.29,4.72-10.88,6.78c-12.52-5.13-25.87-7.19-37.67-13.55c-0.31-0.82,0.51-1.75-0.92-2.46
		c-3.39,0.92-6.06-1.33-9.03-2.77c1.44-2.98,2.08-3.43,4.41-1.95c2.7,1.7,5.85,2.36,8.62,3.8c1.85,0.82,3.28-0.4,5.03,0.31
		c10.24,4.16,20.84,7.39,31.82,11.09c-3.31-4.09-69.81-23.75-1.95-4c8.73,2.54,2.61-1.35-32.75-10.78c0.33,0.99,0.58,1.13,0.41,1.13
		c-4.21-0.92-8.52-1.95-12.63-3.9c1.54-2.87,3.28-5.24,5.34-7.49c6.12,0.35,6.67,0.02,12.52-3.59c2.79-1.72,12.88-8.54,12.52-11.81
		c-0.46-4.17,4.41-9.05,5.85-16.73c0.82-4.36,5.84-5.18,7.19-8.73c3.82-10.03,9.46-9.64,21.35-32.54c4.89-9.41,2.3,8.85,0.51,25.46
		c-0.17,1.54-1.66,2.26-1.54,3.8c0.55,7.29,0.28,14.37-1.54,21.56c-1.66,6.56-1.48,13.66-2.46,20.43
		c-1.92,13.21,1.84,4.17,0.31,17.35c-0.26,2.26,0,4.31,0.62,6.36c0.62,0,0.92-0.31,0.92-0.62c2.57-20.17,0.07-14.6,1.03-23.41
		c1.31-12.02,5.51-54.04,6.67-73.91c2.87-0.62,4.93-2.77,8.11-4.21c0.41,4.31,5.34,1.54,6.36,4.31c3.49-1.13,6.78-1.33,10.68-2.05
		c-1.44,29.67-6.57,58.62-7.08,88.08c1.33-0.51,2.36-0.92,3.8-1.54c1.36-18.01,0.67-18.64,2.36-20.84
		c-4.54,0.3,1.29-40.66,2.98-65.9c16.84-5.26,9.31-5.26,21.66-21.97c-2.48,0.97-3.33-1.68-4.08-1.18
		c0.76,4.77-4.09,10.88-7.73,15.76c-2.15,2.89-7.68,3.64-11.29,3.49c-3.18-0.13-5.85,1.23-9.34,2.57
		c0.72-5.44,2.36-10.16,2.46-15.19c1.95-0.82,3.8-0.21,5.75-0.21c0.21,2.98-1.13,5.85,0.41,9.24c1.54-3.7-0.51-8.01,3.59-10.06
		c-0.82-0.62-1.75-1.13-1.85-2.16c-1.33-0.31-0.92,1.64-2.05,1.64c-1.33-0.21-2.77-0.41-4.21-0.51c2.16-3.59,2.66-3.86,6.47-2.87
		c2.46,0.64,4.82,0,7.29-0.1c-0.31,1.33-1.95,1.44-2.46,2.77c1.03,0.92,0.62,2.67,1.64,4c1.54-1.64,0-3.08-0.1-4.52
		c3.49-2.26,6.47-6.06,11.39-4.11c0.04,0.21-0.01,0.23,0.21,0.1c0.31-2.26,3.9-3.39,2.05-6.16c2.77-2.98,5.5-5.56,6.88-9.14
		c7.25-18.89,8.58-15.81,5.85-15.81c3.13-7.42,8.13-14.11,8.52-14.37c0.51,1.52-7.48,11.77-6.98,14.37
		c5.03-5.44,7.7-12.32,11.39-18.27c-0.51-1.33-0.92-2.26-1.33-3.39c1.07-1.61,1.52-3.6,2.77-5.18c0.05,1.2,1.75,2,1.13,3.44
		c-0.83,1.95,0.21,2.98,1.85,3.7c-0.51-2.77-0.62-5.65-1.95-8.42c-1.2,0.92,0.64-2.7,1.75-4.11c1.03,0.1,1.23,1.33,2.57,1.13
		c-3.28-4.93,0.21-8.52,2.05-12.52c3.32,1.38,1.35,3.23-1.85,9.14c3.08-1.03,2.46-5.54,5.95-5.34c-0.51-4.72,4.52-7.6,4.11-12.32
		c-1.95,2.87-3.39,6.06-5.34,8.83c-1.03-0.82-1.85-1.44-1.85-2.77c1.95-2.36,2.26-5.95,5.13-7.39c0.41-0.92-0.82-1.64,0.1-2.36
		c1.08,1.08,1.13,3.47,3.38,3.05c-0.33-1.93-2.05-3.06-2.86-4.9c1.85-3.8,6.98-2.16,9.24-5.44c-1.64-0.51-2.87,0.92-4.72,0.51
		c6.73-7.85-0.66-11.09,3.49-16.42c1.72-2.21,5.37-3.95,6.19-5.59c0.07,0.3,0.01,0.31,0.48,0.06c15.72-7.27,15.57-11.51,22.07-11.51
		c1.19,0,4.37-4.26,10.06-4.62c2.16-4.41,6.26-6.36,10.27-8.42c1.23-0.21,1.23,1.54,2.36,1.44c1.54-1.54,0.31-3.39,0.21-5.24
		c5.78-1.4,13.08-5.99,8.01-8.32c-6.31,8.48-25.9,5.19-26.48,9.85c4.52-0.31,8.83,0.41,13.35-0.1c-1.58,1.24-15.78,17.58-20.74,6.67
		c-0.93-2.04-1.6-4.48-2.67-6.47c-0.75,3.95,1.27,8.09,2.05,12.01c-8.5,4.92,2.71,2.31-19.4,13.14c0.92,2.67,1.2-0.62-8.52,6.67
		c-5.93-2.97-0.3-9.88-5.34-25.36c-0.62,3.8,1.13,7.49,0.31,11.6c-3.58-4.68-2.47-17.22-13.14-27.2c-1.93-1.6-2.67-9.32-13.65-13.24
		c-5.98-2.14-7.96-1.64-9.34-4.11c-1.21-2.15-3.55-2.55-12.11-5.54c-0.72-0.62,0.31-1.44-0.72-2.05c-2.98,0.72-6.16-0.51-9.34-0.1
		c0.21,1.03,1.03,0.72,1.85,1.44c-1.85,0-3.18,0.92-4.62,0.51c-1.13-0.62-1.03-1.85-1.95-2.77c1.55-0.69,8.81-12.45,15.71-16.63
		c8.43-5.1,15.36-12.81,21.25-15.3c7.68-3.24,4.77-4.79,7.9-4.82c4.21-0.05,8.32-1.13,13.04-0.92c-2.26,3.39-0.1,6.16,0.82,8.93
		c1.75,5.25,27.53,11.36,28.46,12.82c2.74-1.73,30.42,2.65,38.27-1.73c1.64-0.92,3.18-0.1,4.41,1.44c-3.7,3.18-8.53,3.88-12.73,5.85
		c-12.31,5.77-23.94,20.49-25.97,27.1c-3.26,10.59-0.43,18.43,1.13,18.27c2.81-0.7-6.3-12.98,10.88-31.31
		c15.75-16.79,19.26-11.52,27.61-18.68c1.75,0.1,1.95,2.46,3.7,2.67c0.22,0.73,2.27-1.3,0-3.28c-2.03-1.77-3.69-3.81-5.95-5.34
		c-0.9-0.61-2.08-1.21-1.95-2.58c1.11-0.15,2.41,0.51,3.49-0.61c8.55-8.84,2.83-11.12,4-18.89c1.2-8-1.23-14.17-8.83-17.66
		c0.41-2.87,0.41-2.87-2.77-4.21c-1.54-4.62-2.36-4.93-6.98-2.57c-1.33-0.62-2.36-1.95-4.11-1.75c-7.61,5.17-21.09,5.01-29.36,21.76
		c-0.85,1.73,0,3.8-1.64,5.24c-3.8,0.92-7.8,0.28-11.7,0.72c-22.6,2.52-25.9,0.23-30.9,5.13c-1.73,1.69-20.73,14.28-27.2,20.94
		c-3.9,4.01-7.08,9.03-12.63,10.68c0,1.64,1.54,1.75,1.95,3.08c-30.33,10.92-24.26-3.79-48.56,19.4c-1.44-1.23-2.56,0.21-3.49,1.23
		c-8.69,9.58-18.58,18.38-21.76,31.72c-0.33,1.95-5.25,11.58-6.57,18.07c-1.65,8.1-12.3,19.8-17.96,25.77
		c-4.1,4.32-6.13,10.07-7.9,15.5c-1.01,3.09-2.87,5.54-3.9,8.52c-5.24-25.77-15.58-194.35-16.01-194.53
		c-3.92,1.68,13.33,202.53,16.32,204.9c-1.13,0.72-2.05,1.44-3.08,2.16c-2.7-3.24-1.96,0.65-4.21,0.31
		c-2.94-1.63-6.8-44.91-39.01-55.02c-6.57-2.06-12.73-5.24-19.3-6.57c-4.91-12.54-16.8-12.98-22.99-15.81
		c-1.63-0.75-3.59-0.72-5.34,0.72c9.24,2.26,18.17,4.82,24.12,13.65c-3-0.87-14.33-4.1-17.25-2.87c1.9,1.42,23.36,4.75,48.25,16.32
		c4.81,2.24,15.12,13.39,18.27,22.07c0.27,0.74,5.3,14.85,5.95,15.3c3.44,2.34,3.44,9.51,5.85,13.24
		c-6.26,5.65-14.47,6.16-22.17,9.14c-1.75-6.26-5.15-11.16-9.14-15.6c-4.94-5.52-37.34-15.59-39.93-16.22
		c-2.06-0.5-3.8,0.93-5.65,0.21c-5.24-2.05-10.37-4.21-15.81-6.36c0.1-3.8-0.51-7.49,0.82-11.29c4.21-0.31,8.42-1.23,11.6,2.67
		c2.74-1.83,11.01,4.44,30.08,11.39c4.38,1.6,18.24,6.98,21.25,10.47c14.09,16.34,10.16,20.33,13.76,20.33
		c-0.58-5.03-0.13-7.08-11.7-21.25c-5.92-7.25-52.56-22.34-53.28-24.74c-4.21-0.51-8.01,1.03-12.11-1.33
		c-0.41-8.01,1.54-16.12,4.21-23.92c-1.13-1.33-1.95-2.57-3.8-1.95c0,1.23,1.54,1.23,1.23,3.18c-4.21,8.21-3.49,18.48-6.67,28.02
		c-7.39-1.33-14.68-2.67-21.87-4c0.1,1.54,0,1.63,0.51,1.75c7.75,1.75,15.3,4.31,23.2,4.93c0.04,0.1,1.34,11.18,2.57,7.49
		c-0.51-0.1,0.51-0.51,0.31-0.21c4.16,4.86,20.21,7.49,29.56,9.65c-7.18,2.18-16.61,11.49-10.88,21.04
		c-0.16-0.01-23.05-4.31-4.52,1.33c-1.64,3.08-1.74,6.78-3.9,9.44c-3.64,4.48-6.92,15.21-8.73,17.45
		c-5.67,7.05-3.51,18.61-17.04,13.65c0.41-2.67,2.67-4.52,2.57-7.49c-2.67,1.95-2.87,5.03-4.72,7.29c-4.41-0.1-8.62-3.08-13.76-0.82
		c3.14-8.09,0.94-0.97,21.87-48.04c-4.21,1.13-4.4,4.32-5.54,6.67c-6.7,13.79-14.06,27.1-17.55,42.09
		c-10.89,5.13-11.67,11.36-15.71,15.09c-1.64-1.33-3.8-1.75-5.75-3.08c-1.95-7.7-1.95-16.01-5.34-23.61
		c4.69,36.55,5.04,19.38-3.49,24.43c-3.99,2.37-13.1,12.46-6.47,17.35c6.27,4.62-3.99,2.14,17.55,6.98
		c-1.44,2.57,1.02,3.8,1.54,5.65c0.91,3.19,2.41,6,4.62,8.52c5.76,6.56-7.69,1.12,10.06,8.73c2.77,5.95,1.54,13.24,7.49,18.48
		c0.31-4.41-0.92-7.7-0.92-10.88c-2.67-0.84-1.21,6.25-4-6.78c12.72,3.91,11.69,1.62,21.04,7.19c-0.77-0.77,7.69,4.29,14.47,5.85
		c-4.55,5.31-3.14,1.83-5.13,2.05c-1.54,1.23-2.67,2.98-3.9,4.41c0.1,0.92,0.62,1.23,1.44,1.54c0.82-2.36,3.57-0.95,5.03-2.67
		c1.41-1.66,2.46-3.7,4.31-4.72c7.08,0.21,13.55,4.72,20.84,2.46c-3.16-3.51-11.4,1.42-41.99-14.68c-6.08-2.7-7.53-0.62-20.43-7.19
		c-8.57-4.37-10.28-10.63-11.09-19.71c-0.42-4.77-5.11,4.62,0.72-13.86c2.13-6.75,13.56-23.93,25.66-20.02
		c5.89,1.91,30.02,4.73,30.18,4.72c-1.2,2.1-8.28,0.58,28.74,7.49c6.77,1.26,13.14,4.31,20.12,4.82c15.91,1.17,31.04,5.24,34.9,6.88
		c3.64,1.55,22.28,2.21,35.52,6.78c3.19,1.1,7.19-0.77-10.57-4.93c1.64-1.54,3.07-2.57,4.31-4c14.08-16.29,8.64-6.79,22.69-20.84
		c3.46-3.46,11.25-15.33,17.96-18.68c-2.36-0.92-3.8,0.41-5.65,0.62c0.92-5.24,1.33-10.16,3.08-14.78c0.1-0.02,20.06-0.44,27.31-0.1
		c6.13,0.28,4.89,3.83,12.73,13.86c-6,10.7-1.35,16.07-9.14,21.97c-0.82,0.72-1.85,1.23-1.85,2.46c3.78,4.26,12.47-4.33,9.44-13.24
		c2.16-2.36,2.16-5.75,4-8.73c3.08,2.26,5.75,4.62,9.44,5.65c-0.82,2.57-1.54,4.93-2.26,7.39c-2.57-0.72-2.87,2.05-4.41,2.98
		c-4.11,2.46-6.83,6.24-8.21,10.68c-1.35,4.33-7.98,10.79-12.32,9.34c-0.72-4.11,3.28-8.11,0.21-12.11
		c0.72-2.57,4.21-4.72,1.54-8.01c-5.73,2.97-2.7,6.89-4.52,16.01c-1.14,5.74-8.16,21.2-13.65,26.69
		c-7.91,7.91-9.56,14.34-13.96,17.35c-0.45-5.86,5.88-12.21-12.73-25.87c-1.24-0.91-2.87-2.77-4.72-1.03c0,2.16,2.36,1.75,3.08,3.39
		c-6.06-1.13-10.02,2.29-13.96,5.54c-0.73,0.6-1.64,1.33-1.33,3.08c2.63-3.73,14.58-10.68,21.25-4.41
		c7.94,7.46,8.31,21.02,5.03,24.74c1.27,1.48,1.14,2.26-2.98,13.04c-2.71,7.09,0.68,5.25-11.81,13.96
		c-0.61,0.42-1.44,1.23-1.85,0.72c-1.45-1.84-2.77,0.1-2.98,0.51c-2.96,5.17-12.73,2.47-13.35,2.92c-0.28,1.9,1.44,1.51,1.54,2.94
		C203,392.91,202.2,406.2,200.14,406.2c-5.75-4.31-10.68-9.65-17.35-12.52c-0.31-0.1-0.62-0.41-0.82-0.72
		c-3.05-4.74-9.51-3.16-10.98-5.13c6.16-2.36,9.03-7.49,11.29-13.35c4.82,1.75,9.76,1.43,14.58,2.57c4.72,1.12,9.44,3.49,14.78,2.46
		c-0.91-2.72-19.89-5.12-34.59-9.85c-11.96-3.85-47.38-13.71-50.92-13.14c9.15,7.57,18.75,1.21,52.46,16.94
		c-1.33,5.03-5.13,8.01-7.6,11.91c-1.03-0.1-1.53-1.53-2.57-0.72c-1.84,1.45-4.1,2.16-5.54,4.21
		c-12.66,17.91-15.67,15.63-19.3,22.89c-5.75,1.23-9.03,5.34-12.32,9.03c-0.57,7.44,1.62,8.66,7.49,16.42
		c11.35,15,17.99,9.39,28.95,27.2c1.33,1.03,2.16-0.11,3.28,0.92c2.89,2.66,14.45,12.38,19.4,12.93c4.62,0.51,8.21,3.08,12.52,4.41
		c1.03-1.44,2.58-0.86,4.21-0.41c10.38,2.88,4.25-0.25,11.29,0.92c1.64-1.33,1.51-3.3,2.46-4.82c6.24-10-5.85-14.3-5.95-19.5
		c-0.13-6.41-10.2-18.12-6.06-34.59c0.21-0.82,0.82-1.85-0.41-2.46c-1.75,0-1.23,2.16-2.57,2.57c0-6.8,10.28-13.37,1.23-22.89
		c-3.92,3.27,3.86,5.98-1.95,13.24c0.31-2.77,0.1-5.34-1.75-7.49c1.64-3.49,2.36-7.29,5.13-9.85
		C210.51,397.68,211.85,399.22,213.9,398.81z M429.57,135.92c0.22,0.1,0.31,0.02-0.04,0.53
		C428.49,137.95,427.75,135.14,429.57,135.92z M436.76,77.5c-0.41-0.92,0.1-1.13,0.82-1.33C437.69,76.88,437.28,77.19,436.76,77.5z
		 M437.28,73.08c0.1,1.85-1.33,2.16-2.16,2.77C434.61,74.01,435.33,73.18,437.28,73.08z M433.27,72.36c0.1,1.13-1.44,1.33-1.23,1.95
		c0.28,2.07,2.46,2.42,3.04,3.81c0.8,1.92-5.9-2.2-6.94-2.68C430.4,74.93,430.91,72.36,433.27,72.36z M428.14,54.19
		c-1.23-1.03-0.72-1.54,0.1-2.05C428.86,52.86,428.76,53.47,428.14,54.19z M427.93,41.77c0.29-0.15,1.68,0.64-0.41,1.54
		C427.32,42.49,427.32,41.87,427.93,41.77z M425.57,61.07c-1.33-0.82-1.85-1.33-1.33-2.67C425.47,58.81,425.68,59.53,425.57,61.07z
		 M425.27,71.75c-1.44,0.31-1.54-0.41-2.05-0.62C424.34,70.62,424.14,71.54,425.27,71.75z M424.75,41.16c0,1.33,0,1.33-1.54,1.33
		C423.32,41.16,424.03,41.16,424.75,41.16z M423.11,56.14c0.72,0.1,0.62,0.51,0.51,1.03C422.9,57.07,422.7,56.76,423.11,56.14z
		 M421.26,53.68c0.53,0,0.26,1.45-0.72,0.72C420.54,53.88,420.75,53.58,421.26,53.68z M414.9,59.84c1.33,0.41,1.03,0.82,0.1,1.23
		C414.8,60.66,414.59,60.25,414.9,59.84z M413.77,41.16c-0.72,1.23-1.03,1.95-2.46,1.95C411.72,41.77,412.64,41.77,413.77,41.16z
		 M411.92,56.66c-0.72,1.23-1.64,1.23-2.67,0.62C409.87,55.94,410.59,55.73,411.92,56.66z M411.1,62.82
		c-1.33-0.21-1.75-0.92-1.23-2.16C410.89,61.38,410.89,61.38,411.1,62.82z M404.12,56.66c-0.72,1.33-1.85,1.33-2.98,2.26
		C401.45,56.96,402.48,56.55,404.12,56.66z M396.93,50.81c-0.1,1.95-1.95,1.85-2.36,2.87C394.88,52.45,395.6,51.63,396.93,50.81z
		 M389.85,63.02c2.05,0.08,4.21,0.41,5.24,2.57c2.36,0.51,4.21-1.64,6.67,0.1c1.03,2.98,4.56,3.72,7.49,5.34
		c3.27,1.8,4.87-4.98,10.27,0.41c-2.16,0.31-4.41-1.13-6.88,0.82c3.9,2.46,8.1,2.79,11.81,4.41c3.79,1.66,7.29,4,11.29,5.44
		c-11.39,3.18-22.69,0.62-33.77,0.82c-1.23-1.03,0.21-2.16-1.33-2.67c-5.24,3.8-10.57,0.72-16.32-0.41
		c1.13-1.64,4.31-1.54,2.87-4.31c5.13-2.16,10.06-4.11,14.99-6.16c-1.44-2.87-1.85-2.77-8.32-0.1c-0.92-0.51,0.31-1.54-1.03-2.46
		c-2.67,4.82-6.57,8.42-11.09,11.39c-6.16,0-0.97-3.89-2.87-7.7c-1.03,2.05-1.85,3.7-2.77,5.34c-1.75-0.31-3.08-1.13-4.52-2.26
		C372.71,67.93,360.23,61.91,389.85,63.02z M183.21,213.72c-1.33-1.44-1.23-3.49-1.85-5.24C182.9,210.02,183,211.87,183.21,213.72z
		 M183.1,213.72c0.92,0.92,1.03,2.16,1.44,3.7C183.21,216.18,183.1,215.05,183.1,213.72z M43.39,310.21
		c0.92,1.23,1.44,2.77,0.92,4.52c-3.18-1.33-6.06-3.08-9.34-4c-7.8-2.19-4.84-13.44,1.64-16.22c3.18,1.33,6.57,3.18,11.19,2.77
		C45.24,301.59,45.24,305.9,43.39,310.21z M317.48,277.16c-2.25,0.63-4.62-1.03-6.88,0.92c-1.44-2.46-0.41-4.11,0.31-6.36
		C322.27,276.32,329.87,273.7,317.48,277.16z M250.03,267.2c-1.29,4.51-34.39,30.93-36.85,39.73c-1.13-7.6-0.62-15.3-2.26-22.69
		c-0.72,7.49,0.41,14.99,0.51,22.28c-2.16,1.33-3.59-1.23-5.34-0.21c-1.95-6.16-0.82-12.52-2.67-19.4
		c-1.74,2.6,0.81,18.99,0.82,19.09c-4.11-0.92-8.11-0.72-11.81-2.57c0-13.66,0.41-14.77-1.64-15.09c-2.27,9.99,2.85,16.8-4.11,12.63
		c-0.78-1.82,1.4-6.11-1.13-7.29c-2.05,1.54-2.05,1.54-1.33,6.78c-3.86-1.13-47.43-7.62-48.45-9.75c-0.3-0.62-1.13-0.91-1.85-0.92
		c-9.44-0.21-9.64-2.71-40.24-8.83c1.13-2.57,3.39-4.21,3.49-6.78c0.62-0.92,1.13,0.51,1.75-0.41c0.31-1.03-0.21-2.36,0.31-3.59
		c10.14-24.33,11.84-21.5,14.06-30.8c2.67,1.33,5.84,1.66,8.73,2.98c5.22,2.39,9.96,1.03,12.42-3.39
		c-5.44,4.52-10.27-0.35-15.4-0.72c-4.21-0.3-3.24-13.7,5.75-17.04c3.07-1.14,8.5,0.52,10.06,3.9c6.07,13.18,0.12,16.72-1.85,20.12
		c2.87-1.54,5.74-2.98,7.08-6.36c6.82-17.17-20.26-23.99,12.32-13.65c5.9,1.87,12.07,13.91,13.65,18.48
		c-0.4,2.77-0.49-2.58-12.01,8.93c-8.21,8.21-9.62,4.02-13.55,8.93c-9.18,11.48-14.67,11.21-16.42,18.27
		c-0.49,1.96-2.57,2.98-2.77,5.24c1.44,1.33,2.06,0.21,2.67-0.82c4.25-7.16,11.12-11.98,16.63-17.86c1.34-1.43,4.22-1.94,6.26-3.28
		c21.23-13.97,9.96-10.98,30.18-17.96c7.06-2.44,27.97-10.95,24.84-17.66c7.59-5.69,3.6-2.43,6.06-1.54
		c0.72-8.11,4.52-13.35,13.76-13.04c1.54,0.82,2.67,2.46,3.9,3.7c0.72,1.13-0.62,1.95,0,2.87c0.92,0.51,1.13-0.62,2.16-0.92
		c22.94,31.69,18.53,29.35,10.57,31.1c-12.39,2.72-9.88,8.78-5.85,7.08c8.86-3.74,5.35-4.69,12.73-5.03
		c-7.96,14-18.97,11.23-16.84,17.04c-3.9,4.72-9.03,7.8-14.06,11.5c3.59,1.13,4.21,0.92,13.04-5.34c2.67,1.75,6.06,2.36,8.42,4.62
		c4.21-1.75,6.71-10.92,10.57-14.37c3.05-2.72-0.98-9.95,5.54-13.96C250.86,256.63,251.16,262.07,250.03,267.2z M231.25,266.79
		c1.54-0.21,2.87,1.64,4.21-0.51c0.1,2.36-0.92,3.9-0.51,5.75c2.26-4.93,2.36-11.09,8.52-13.65c0,6.57-4.72,10.98-7.39,16.73
		C225.18,270.15,232.18,272.7,231.25,266.79z M303.72,264.53c-2.64-3.54-7.02-5.84-8.52-10.16c-4.66-13.42-17.13-9.14-38.5-9.14
		c1.75-5.65,0.78-11.51,3.28-16.84c2.1-4.46-0.04-10.68,9.65-29.46c2.64-5.11,6.36-18.67,6.36-20.74c-1.95,2.05-2.57,4.62-3.8,7.19
		c-4.11-3.19-13.15-0.44-15.5,2.46c4.93-0.41,9.75-2.36,14.99-0.72c-2.66,9.3,0.96,3.76-28.33,24.64
		c4.52-0.72,16.94-7.7,24.53-13.55c-0.51,4.82-3,9.11-6.78,12.01c-3.44,2.64-0.68,3.53-7.08,30.49c-0.51,3.9-1.03,4.11-5.44,3.49
		c-1.44-3.8-4.01-7.08-5.95-10.68c-4.64-8.6-1.22-7.7-18.17-24.12c-2.86-2.77-7.41,0.91-10.27-0.51c-2.77,1.33-4.72,4.62-8.62,3.39
		c6.08-14.92,1.38-7,17.86-18.27c-3.7,0.72-6.88,2.46-10.78,4.21c0.82-1.75,1.95-2.26,2.98-2.98c10.12-7.03,5.23-7.49,12.73-14.99
		c2.94-2.94,4.98-27.43,10.98-23.61c-0.34-5.07,18.03-1.46,21.35-5.03c-7.19-1.03-14.37,0-21.66,0.92c0.41-2.87,2.87-4.41,3.59-6.67
		c0.1-1.03-1.13-0.92-1.13-1.85c0.31-1.13,0.91-2.28,1.85-2.87c2.47-1.57,21.5-21.12,28.33-27.1c8.58-7.51,16.15-4.82,31.41-8.83
		c3.18-0.84,6.06,0.4,8.93,0.92c2.77,0.5,5.44,0.18,8.11,0.31c4,0.19,13.03,3.92,13.86,4.82c-1.75,0.41-3.18-1.13-5.44-0.1
		c26.78,7.44,22.36,8.18,30.08,21.04c0.1,0.1,1.24-0.82,1.95,0.51c3.39,6.36,5.85,9.91,5.85,16.94c3.28,7.7,3.95,16.1,6.67,23.92
		c1.36,3.89,1.23,6.98-1.85,9.44c-3.08,2.46-4.11,6.47-7.39,8.62c-0.36,0.18-0.84,5.66-6.16,18.38
		c-13.44,32.12-13.41,18.67-27.82,60.46c-0.39,1.14-1.13,1.75-2.26,2.26C323.66,269.34,305.51,266.93,303.72,264.53z M300.44,286.09
		c-1.59,19.43-0.13,13.51-7.39,12.52C296.33,295.02,295.72,289.48,300.44,286.09z M214.32,397.27c-2.04,0-3.14-0.18-4.42-2.36
		C210,394.96,214.21,397.27,214.32,397.27z M184.95,399.32c5.13,3.59,9.44,7.7,14.37,10.37c0.82,1.33,0.1,2.36,0,3.28
		c0.82,0,1.33-0.1,1.95-0.1c-0.1,1.23-0.31,2.36-1.54,3.18c-4.41-2.67-9.85-3.49-14.58-6.36
		C186.49,406.3,184.23,403.12,184.95,399.32z M204.04,418.52c-0.1,2.87,0.12,5.54,1.13,8.21c0.23,0.6-0.88,20.56,6.16,31.41
		c2.26,3.49,3.6,7.79,7.7,10.06c5.59,3.09-1.19,10-5.65,5.54c-7.29,1.03-12.11-3.18-17.14-6.57c1.03,3.18,4.32,4.92,9.44,6.98
		c11.32,4.56,12.42-0.91,11.19,5.85c-3.07,3.07-4.6-1.16-24.02-3.39c-2.3-0.26-2.81-2.62-5.65-2.05c-1.64,0.33-3.58-0.52-4.31-1.85
		c-1.42-2.58-3.8-3.7-6.16-5.03c-12.71-7.19-7.39-12.1-17.45-17.25c-9-4.6-21.35-14.31-24.43-22.89c-1.32-3.67-1.23-3.9,2.05-6.57
		c1.33,1.23,3.17,1.87,4.82,2.67c11.1,5.37,14.31,12.99,23.3,16.42c42.07,46.45,28.71,25.78,25.05,22.99
		c-14.32-10.88-7.6-7.87-13.45-13.96c-24.1-25.07-28.41-28.38-37.47-29.98c2.22-6.03,3.69-0.49,6.67-5.13
		c7.88-12.27,12.3-13.71,13.24-15.3c2.07-3.48,4.72-6.36,7.7-9.24c6.49,5.31,16.26-0.7,14.99,15.71c-0.38,4.93,2.06,7.98,6.47,9.55
		C194.63,416.99,199.01,419.14,204.04,418.52z"/>
	<path d="M214.82,377.7c0-0.02,0-0.02,0-0.04C214.79,377.71,214.8,377.72,214.82,377.7z"/>
	<path d="M458.94,214.95c17.53-11.08,19.28-25.01,12.32-32.75c-0.92-1.03-2.16-0.82-3.08-1.44c6.77-33.87-4.86-33.65-2.36-37.67
		c1.16-1.86,3.38-10.66,2.98-16.84c-0.45-6.88-2.63-13.36-4.82-19.71c-2.02-5.86-4.72-11.3-11.5-13.65
		c-0.1-0.04-8.88-3.01-8.99-2.89c2.02,5.14,7.59,2.35,13.51,8.95c2.89,3.22,9.16,19.18,8.62,30.28c-0.28,5.79-3.42,8.02,0.21,8.62
		c-5.54,9.8,5.64,20.28,0.72,39.73c-0.62,2.46-0.51,4.62,2.05,6.67c12.11,9.72-6.12,30.71-14.78,28.64
		c-4.13-0.99-14.17-3.2-14.17-8.83c-0.41-5.03-2.05-9.75-2.36-14.78c-0.31-5.02-2.35-9.73-3.89-14.43
		c-4.59-2.87-7.16-18.74-3.71-31.97c-6.55,4.01-1.7,22.49-6.06,27c-9.24,9.56-3.93,6.85-26.48,25.36
		c-9.4,7.71-15.73,3.75-16.22,4.72c-0.21,0.62-0.82,1.23-0.31,1.85c6.88,2.87,12.22-0.82,17.66-4.31c0.31,3.08-0.21,5.75-0.31,8.62
		c1.54-3.18,1.33-6.26,1.13-9.44c16.95-14.52,6.28-15.05,0,58.82c-3.62,42.6-16.68,71.18-20.43,79.76
		c-9.65,22.13-20.77,30.95-23.2,34.39c-4.52,6.41-20.99,21.65-21.45,21.45c-2.94-1.21-12.38,12.51-33.67,30.08
		c-7.76,6.4-8.21,10.12-10.88,10.06c-4.81-0.11-2.35,4.75-7.6,7.7c-11.81-2.26-22.38-7.08-32.44-11.7
		c-1.03-4.93,2.05-9.34-0.82-13.24c-2.84,0.28-3.4,1.37-2.77,11.29c0.12,1.95,0.73,4.5,2.26,5.24c2.69,1.3,4.93,3.47,7.8,4.41
		c6.17,2.02,12.61,2.81,18.68,5.03c2.56,0.94,5.34,1.54,8.01,1.23c12.33-13.97,79.68-66.75,93.83-96.09
		c24.29-50.35,24.72-87.4,31.21-140.33c0.7-5.75,2.36-11.39,2.26-17.55c5.13-5.95,11.5-11.09,17.35-17.14
		c2.26,6.78,7.44,12.11,7.49,19.4c0.02,2.47,2.1,2.03,1.54,6.98C434.74,209.93,450.72,220.14,458.94,214.95z M253.73,431.96
		c2.67-1.03,3.9,0.82,5.44,1.54C257.43,433.61,255.78,432.99,253.73,431.96z"/>
	<path d="M113.19,357.54c-3.13,2.23-4.58,5.64-6.58,8.67c-0.38-1.84,0.8-4.08-2.15-5.8c1.03,2.46-1.13,4.93,1.85,6.16
		c-0.19,0.19-2.13,5.32-5.24,12.73c-10.24-17.45-17.06-14.39-22.79-19.09c2.16-2.98,5.05-5.17,6.57-8.42c2.53-5.4-1.88-9.66-7.7,7.8
		c-1.33-0.72-2.67-1.33-3.9-0.1c-0.08,0.1-0.43-3.08-3.18-1.54c-8.3,4.64-14.97,10.89-19.81,18.99
		c-8.64,14.46-12.71,13.43-13.55,15.4c-0.31,1.03,0.71,1.44,0.72,2.05c0.23,11.96,20.87,18.51,30.18,27.82
		c1.23,1.23,2.17,2.95,3.8,3.9c4.52,2.64,1.86,6.61,4.21,12.63c-6.36,3.08-11.6,7.8-17.35,11.5c1.22,4.49,1.19,0.67,19.61-9.85
		c-1.85-3.49-2.16-6.78-1.54-10.47c9.73,3.65,30.01,23.47,33.26,10.06c4.11-13.35-1.13-9.98-1.13-13.24c0-2.67-1.5-4.84-2.57-7.19
		c-2.83-6.24-0.98-4.03-0.21-16.01c5.95-5.54,6.06-5.85,2.05-8.62c0.92-4.21,1.83-8.12,3.9-12.01c2.24-4.22-0.41-7.6-5.44-8.32
		c2.36-5.03,4.02-10.25,7.49-14.68C114.43,358.98,114.63,358.15,113.19,357.54z M89.48,370.88c13.36,14.31,13.65,13.24,13.65,16.53
		C91.46,378.92,85.93,378,89.48,370.88z M88.35,432.37C56.94,415,72.32,421.3,60.43,413.28c-5.45-3.68-8.1-5.89-8.81-6.48
		c1.61-1.42-0.12-1.94-0.74-2.65c-0.51-0.72-0.62-0.62-1.75-0.1c-4-2.46-6.78-6.06-9.96-9.44c2.92,1.75,11.23,1.56,19.4,9.55
		c24.48,23.94,13.16,8.41,37.06,27.2c1.84,1.45,2.56,3.6,3.39,5.65c1.68,4.16,4.81,4.4,5.14,3.84
		C104.17,446.5,95.81,436.5,88.35,432.37z M104.26,441c-4.03-8.07-7.98-14.66-16.53-19.3c-9.89-5.36-7.23-5.73-10.16-7.29
		c-23.51-12.47-15.36-17.42-33.77-21.56c1.33-1.95,2.77,0.62,4.11-0.41c-0.62-1.95-2.98-1.64-4-3.18
		c4.98-6.41,21.51-26.88,29.22-29.44c0.34-0.22,0.28-0.15,0.25-0.33c0.1,0.1,0.14,0.11,0.03,0.14c1.32,6.6,14.04,5.08,12.08,11.25
		c-0.65,2.04,0.41,3.59,0.92,5.24c0.2,1.17-2.01,2.69-0.82,3.28c14.01,10.5,14.19,11.73,17.86,10.68c0.51,1.03,0.31,2.05,0.1,3.08
		c-0.92,0.62-1.75-0.72-2.57-0.21c-0.67,2.22,2.95,2.13,2.46,6.67c-0.74,6.97-0.1,14.06-0.31,21.04
		C111.93,431.32,105.55,442.28,104.26,441z M106.21,399.73c-0.91,0.46-1.04-0.27-0.92-0.62
		C105.76,398.64,106.6,398.96,106.21,399.73z M106.73,383.82c-0.92-0.62-0.82-1.03-0.1-1.44
		C107.24,382.69,107.14,383.2,106.73,383.82z M106.42,379.81c-2.26,1.33-2.46,1.23-2.67-1.75
		C104.88,378.79,105.6,379.3,106.42,379.81z"/>
	<path d="M29.12,405.89c4.37,25.11,2.17,6.95-10.37,26.59c17.11-13.78,11-4.79,11.5-2.57c2.26,1.23,2.57,4,3.8,6.26
		c1.03-1.33-0.2-2.57,0-3.8c1.05-6.46-0.37-13.03-0.72-19.5c-0.25-4.62-2.65-8.73-3.59-13.14c-5.43-25.52-2.32-34.76-3.18-38.8
		c-7.76-36.35-7.3-53.46-8.83-58.51c-2.89-9.52-3.63-28.1-5.03-32.64c-6.74-21.78-8.91-53.99-8.42-76.89
		C4.79,169.41,48.54,18.65,45.65,14.47c-1.85,0.82-1.64,2.46-1.95,4C41.67,32.48,32.07,61.05,30.76,70.1
		c-0.64,4.41-0.83,8.93-2.67,13.24c-5.37,12.61-7.46,26.19-11.91,39.01c-7.53,21.68-5.97,30.76-10.37,41.47
		c-5.54,13.48-3.67,18.39-5.65,27.72c-2.29,10.79,19.06,148.75,20.63,154.6C25.97,365.39,22.58,368.3,29.12,405.89z"/>
	<path d="M499.69,496.12c0-4.3-6.68,6.86,21.97-26.9c-2.87-5.75-3.49-12.52-7.29-18.48c3.28-0.62,2.05-4.11,3.8-5.95
		c9.96,3.28,20.84,2.36,31.1,5.65c1.4-4.56-13.28-4.95-24.02-6.78c-5.56-0.95-7.9,0.08-7.9-6.06c30.86,6.67,23.46,3.22,16.22,1.13
		c-7.4-2.14-14.97-3.01-22.07-5.95c-2.25-0.93-5.03-1.23-7.08,1.13c-5.24-2.57-11.19-2.46-16.42-4.82c-0.1-0.62,1.03-1.64-0.51-2.36
		c-1.95,0.31-3.18,2.46-5.13,2.46c-0.82,1.03,0.82,2.16-0.41,2.98c-1.03,0.1-0.51-1.75-1.75-1.33c-2.16,1.23,0.41,2.67-0.21,4.11
		c-15.58-2.98-16.67-6.28-18.38-3.18c0.62,1.33,2.26,0.82,2.98,1.85c-1.03,0.82-2.05-0.1-3.59,0.92c6.78,2.05,13.45,1.13,19.61,3.39
		c1.44-2.36,2.57-4.82,5.54-6.47c-1.13,4.82-1.54,9.24,0.51,14.17c-10.78-3.28-21.35-3.49-32.03-5.34
		c3.72,4.96,7.66,4.22,14.37,5.13c9.44,1.29,18.49,4.45,27.72,6.36c1.44,0.3,1.23,1.54,1.54,1.95c5.03,1.54,9.03-1.13,13.35-2.26
		c2.87,5.85,4.93,11.91,7.29,17.86c-45.75,51.35-54.95,48.58-51.84,52.46c10.68-7.9,20.02-16.94,30.39-25.46
		c-2.02,8.29,11.21,61.06,13.35,82.12c0.13,1.33,0.41,2.77,2.36,3.18C515.88,567.27,498.02,510.36,499.69,496.12z M497.43,449.52
		c-5.39-3.75-8.78-2.23-9.96-5.34c-0.93-2.46-0.41-8.93,1.03-11.7c2.87,1.23,6.06,1.64,9.03,2.46
		C495.58,441.72,495.58,442.84,497.43,449.52z M512.63,447.98c-2.67,0.8-5.03-0.51-6.98-1.85c-0.51-2.57,1.54-3.49,2.36-5.13
		c-4.8-0.71-10.52,8.05,1.95,8.73c-2.36,1.03-4.31,1.85-6.16,2.67c-6.36-3.59-8.01-10.27-4.11-16.63c2.46,0.1,4.93,1.24,7.6-0.31
		c1.23-0.72,3.18-0.41,4.93,0.82c-1.54,1.03-3.8,1.54-2.98,3.9c1.9,0.68,1.22-3.71,5.34,0.41
		C513.34,442.95,516.83,446.72,512.63,447.98z"/>
	<path d="M64.43,169.17c-4.19,5.35-9.24,10.16-12.83,16.12c-1.05-0.58-4.97-3.96-5.65-0.1c-1.08,6.17-4.01,11.81-2.46,18.48
		c2.25,9.71-0.3,11.76,0.51,19.61c8.31,80.2,14.57,82.2,3.9,17.14c-1.5-9.16-1.05-5.91-2.87-41.27c-0.22-4.31,1.23-7.8,2.05-11.81
		c1.54,0.31,2.67,0.51,3.59,1.33c0.21,3.49,2.24,6.47,2.36,9.85c0.53,14.71,9.08,31.49,24.23,35.42c-3.9-4.31-9.24-6.88-12.32-11.19
		c-3.49-11.6-10.06-21.43-12.42-32.75c-0.21-1.02,1.33-0.62,1.33-1.44c0.1-0.92-1.03-1.23-0.62-1.95
		c1.13-2.66,15.29-19.93,23.51-24.12c4.97-2.54,22.56-7.26,28.02-8.21c-1.33-1.13-2.46-1.85-3.9-1.85
		C87.11,154.54,73.02,158.19,64.43,169.17z"/>
	<path d="M307.62,368.73l0.1,0.1C307.8,368.68,307.85,368.77,307.62,368.73z"/>
	<path d="M378.25,203.86c-0.26,2.15-0.5,4.22-1.64,6.06c-4.67,7.53-9.44,15.09-14.78,22.17c-4.1,5.44-5.13,12.11-7.9,18.07
		c6.47-11.91,12.01-24.33,22.48-32.85c-2.77,35.08-2.69,37.34-5.65,42.09c-0.31,0.41-0.51,1.13-0.51,1.64
		c0,5.95-1.95,11.6-2.77,17.35c1.59,0,2.04-2.47-0.62,10.98c-6.73,34.12-20.32,45.72-24.12,50.4c-2.11,2.6-10.2,11.9-13.04,10.16
		c1.15,3.12-8.55,7.6-12.52,13.55c-1.03,0.51-1.85-0.92-3.18-0.31c-0.19,3.34-5.15,3.5-6.2,5.55c1.68,0.06,3.27-2,4.87-0.11
		c12.93-12.93,50.62-28.62,57.18-85.1c3.08-26.48,3.54-16.33,6.47-38.7C382.46,197.71,378.81,199.13,378.25,203.86z"/>
	<path d="M554.2,495.3c-2.16,1.95-3.79-0.22-5.65-0.72c-29.13-7.79-18.48-8.06-35.31-8.42c57.45,22.66,32.86-5.66,42.09,53.79
		c5.55,35.76,4.25,37.08,7.6,40.24c0.92-3.39-0.72-6.36-0.21-9.44c1.44,2.16,0.72,4.82,1.95,6.98c2.13-11.22-0.9-15.78-8.11-61.9
		C555.52,509.16,555.64,502.28,554.2,495.3z"/>
	<path d="M769.47,586.56c3.14,0.84,15.37-17.97,17.76-22.79c24.32-49.16,26.35-81.27,32.75-135.2c-5.3,9.66-4.28,18.46-8.73,51.22
		C801.86,548.93,769.23,586.04,769.47,586.56z"/>
	<path d="M520.53,547.35c-1.88-19.4-6.09-25.24-5.95-51.94c0.03-5.85-3.49-9.84-3.49-2.77c2.04,24.45,1.03,18.34,2.77,42.81
		c2.29,32.15,9.16,36.75,8.62,44.55c-0.16,2.34,4,3.46,2.87-2.16C523.33,567.75,521.52,557.62,520.53,547.35z"/>
	<path d="M223.75,46.9c-0.96,0.48-2.95-9.42,7.08,110.35C233.71,146.93,224.75,57.19,223.75,46.9z"/>
	<path d="M214.62,180.56c4.6-3.28-1.75-11.98-1.75-63.24c0-16.86-3.23-27.27-3.7-44.14c-1.1-39.44-4.16-55.94-3.28-42.91
		C214.49,158.83,214.91,178.15,214.62,180.56z"/>
	<path d="M75.93,68.15c-1.22,0.76-20.74,77.3-21.66,82.84C58.33,147.34,77.9,72.43,75.93,68.15z"/>
	<path d="M50.27,445.82c-22.86-6.53-34.31-17.92-33.98-8.73c13.04,5.13,25.97,10.27,39.21,15.4
		C58.42,450.7,54.82,447.12,50.27,445.82z"/>
	<path d="M676.46,583.79c0.51-21.45,4.21-42.6,4.93-64.06c-0.51,0-1.13-0.1-1.75-0.1C677.23,561.91,668.3,588.98,676.46,583.79z"/>
	<path d="M91.12,10.77c-6.81,1.01-4.82,11.56-10.88,29.36c-2.59,7.59-2.36,15.6-3.59,23.41c3.08-7.19,3.39-15.3,7.39-22.07
		C83.51,39.12,88.43,20.18,91.12,10.77z"/>
	<path d="M40.52,147.92c-2.78,2.78-11.63,44.72-12.32,48.56c-0.8,4.46,0.27,17.87,0.82,20.94c1.52,8.52,2.16,13.73,2.26,13.8
		c0,1.01,0,2.02,0.1,2.94c0.41-1.02,0.21-2.04-0.1-2.96c0.07-0.27-0.52-6.8-1.34-22.09c-1.38-25.55,6.93-31.35,8.01-44.86
		C38.92,152.07,41.71,148.96,40.52,147.92z"/>
	<path d="M464.27,510.6c-9.41-29.87-9.05-23.54-4.82-27.31c29.84-26.6,31.48-28.92,29.67-32.13c-2.05,0.82-1.73,2.99-3.08,4.21
		c-19.32,17.36-29.25,29.3-29.46,29.15c-31.01-4.43-6.02,0.67-3.49,2.26c-0.31,1.44-1.95,1.54-2.05,2.87c1.54,0,1.95-1.54,3.39-1.64
		c4.99,11.05,4.15,22.83,12.01,28.23c-6.47-1.44-13.14-1.23-19.2-3.9c4.82,4,17.86,6.67,21.04,4.52
		C467.97,514.19,465.08,513.17,464.27,510.6z"/>
	<path d="M298.18,399.42c-2.26-0.21-2.98,1.75-4.82,2.36c0.21-1.44-0.92-1.13-1.75-1.64c0-11.81,0.62-23.71,1.03-35.62
		c-1.44,3.49-2.59,6.98-2.46,10.78c0.1,3.24,0.41,26.3-0.72,28.44c-1.75-1.85-3.49,1.75-5.24-0.21c-0.21-2.46,0.1-5.13-3.08-5.95
		c-1.13,0.51-1.85,1.23-2.26,2.36c0.51,0.82,1.65,1.24,0.82,2.77c-0.61,1.13,0.41,2.58,1.64,2.46
		C288.5,404.49,284.49,412.65,298.18,399.42z"/>
	<path d="M92.46,212.9c-11.73-4.55-17.67,7.99-9.85,15.81c0.92-0.92,2.16,1.54,3.7,0.72c-6.06-5.75-6.36-8.73-1.75-15.71
		c9.96,1.85,19.81,5.44,30.18,6.88c-0.31-1.85-2.05-1.44-2.57-2.46C115.41,214.09,101.84,216.54,92.46,212.9z"/>
	<path d="M206.41,347.68c-11.6-3.9-23.3-5.13-35.01-9.03c4.54,8.17,33.96,7.13,36.55,14.37c0.41-4.4,1.84-8.19,3.38-11.88
		c0,0.11,2.55-1.24,0.73-4.03c-1,1.6-0.92,2.81-0.73,4.01C207.95,342.36,207.43,345.73,206.41,347.68z"/>
	<path d="M387.28,296.56c-4.31,5.03-5.68,28.03-23.92,49.89C346.33,366.87,383.66,334.9,387.28,296.56z"/>
	<path d="M457.81,444.79c-6.16,5.85-12.93,11.29-16.63,19.4c3.28-3.7,6.57-7.39,10.47-10.47c-3.49,3.8-6.26,8.11-9.34,12.32
		C449.8,460.71,454.93,453.62,457.81,444.79z"/>
	<path d="M59.92,447.77c-0.21-1.54-0.75-2.67-0.62-3.9c0.59-5.56-0.6-10.99-1.03-16.42c-0.67-8.64-1.86-11.99-5.65-14.47
		c1.05,5.26-0.04-3.63,4.62,22.58c0.48,2.68,1.23,5.24-0.82,8.11C58.48,444.28,57.86,446.64,59.92,447.77z"/>
	<path d="M776.55,563.77c4.14-4.07,7.19-9.44,9.34-15.09c-8.73,14.37-21.45,25.15-32.64,38.09
		C758.73,586.16,766.67,573.49,776.55,563.77z"/>
	<path d="M237.1,378.89c11.09,6.36,23.61,8.42,35.83,12.52c-0.72-1.54-1.75-2.15-2.98-2.57C265.3,387.26,239.86,378.98,237.1,378.89
		z"/>
	<path d="M63.2,51.52c4.82-11.29,7.7-23.3,11.29-35.01C68.23,27.4,65.56,39.41,63.2,51.52z"/>
	<path d="M514.88,277.57c-14.25,21.13-7.32,13.38-29.15,31.93c-0.62,0.41-1.54,0.72-1.23,2.26
		C496.92,302.21,509.34,292.97,514.88,277.57z"/>
	<path d="M799.85,506.7c-3.9,12.63-7.39,25.56-12.01,38.08C792.46,537.39,799.96,516.04,799.85,506.7z"/>
	<path d="M691.24,585.43c3.52-1.76,1.67-16.17,4.31-25.97c0.58-2.16,0.1-4.31-1.23-6.26C693.81,563.87,690.94,574.35,691.24,585.43z
		"/>
	<path d="M292.94,411.74c11.81-7.7,21.35-18.07,31.62-27.61C313.17,392.34,303.62,402.71,292.94,411.74z"/>
	<path d="M524.23,469.95c11.19,3.8,22.99,4.41,34.39,6.78C547.53,472.82,535.83,471.38,524.23,469.95z"/>
	<path d="M519.09,272.75c6.66-4.34,5.16-7.31,9.44-9.65c2.63-1.44,14.89-9.75,17.35-13.86c-2.57,0.92-4.1,2.99-6.26,4.41
		C531.86,258.74,523.81,263.4,519.09,272.75z"/>
	<path d="M159.49,333.21c-3.7-3.59-18.89-5.44-21.56-2.98C145.12,329.92,151.69,334.44,159.49,333.21z"/>
	<path d="M280.52,278.6c-1.75-5.44,2.57-10.27,0.92-16.12C276.62,267.92,276.21,274.18,280.52,278.6z"/>
	<path d="M235.87,346.25c-0.21-6.57-2.67-12.32-3.9-19.2C229.91,332.49,232.27,344.09,235.87,346.25z"/>
	<path d="M191.62,42.39c-0.59-33.27-3.78-11.32-0.21,8.73C192.75,48.24,191.67,45.26,191.62,42.39z"/>
	<path d="M776.65,389.77c-1.54,2.43-3.5,10.08-6.06,14.17c4.37,2.73,8.97,10.85,10.88,8.93c-3.08-3.28-6.06-6.67-9.03-10.06
		C777.89,391.41,777.89,391.41,776.65,389.77z"/>
	<path d="M72.65,158.28c-5.85-2.26-11.19-5.13-17.25-8.32C57.37,154.44,70.18,161.78,72.65,158.28z"/>
	<path d="M461.5,519.43c-6.06-2.26-12.52-2.57-18.79-4C448.57,518.6,454.83,519.84,461.5,519.43z"/>
	<path d="M261.12,429.29c0.12,2.57,2.57,2.36,4.21,2.67c1.54,0.21,2.46-1.03,2.67-2.46C268,425.56,260.94,425.39,261.12,429.29z"/>
	<path d="M807.86,454.86c1.64-9.65,2.87-19.4,3.18-29.15c-1.33,3.34-1.3,11.5-3.7,25.25C807.12,452.28,806.73,453.62,807.86,454.86z
		"/>
	<path d="M53.55,159.82c0.38-1.24-0.41-1.95-2.36-1.44c1.29,2.58-0.35,3.59-3.08,15.71C45.72,184.73,50.35,170.27,53.55,159.82z"/>
	<path d="M813.1,394.6c-1.03,4.52-0.76,9.25-1.75,13.76c-0.29,1.34-1.03,2.87,0.31,4.82C812.8,409.85,814.75,397.9,813.1,394.6z"/>
	<path d="M214.21,373.35c-2.67-4.21-5.54-8.21-6.26-13.24C206.2,365.24,209.69,372.42,214.21,373.35z"/>
	<path d="M260.09,280.14c6.26-0.72,9.24-2.46,10.06-5.65c-1.5-1.2-1.59,1.38-7.7,3.18C261.26,278.03,259.22,279.26,260.09,280.14z"
		/>
	<path d="M97.9,320.48c-4.41-2.77-8.93-5.34-14.17-6.57C88.15,316.68,92.87,318.94,97.9,320.48z"/>
	<path d="M47.7,119.69c-2.16,4.31-3.39,8.83-3.8,13.45C45.85,128.93,47.19,124.41,47.7,119.69z"/>
	<path d="M56.73,71.85c2.46-4.93,3.9-10.27,5.03-15.71C59.2,61.07,57.97,66.41,56.73,71.85z"/>
	<path d="M200.25,400.24c1.03-2.46,2.57-4.41,2.57-6.98C199.01,394.49,197.99,396.96,200.25,400.24z"/>
	<path d="M270.56,308.37c-2.05,3.08-3.28,6.47-5.03,9.65C268.51,315.45,270.67,312.58,270.56,308.37z"/>
	<path d="M124.08,326.64c-3.28-0.62-6.57-1.23-9.96-1.75C116.58,327.25,120.38,327.87,124.08,326.64z"/>
	<path d="M259.48,260.02c2.26-1.85,2.77-4.21,2.57-6.78C259.89,255.09,258.86,257.35,259.48,260.02z"/>
	<path d="M219.96,21.24c-0.62,4.21-0.31,8.42,0.92,12.63C221.39,29.56,220.78,25.35,219.96,21.24z"/>
	<path d="M237.3,358.67c-3.08,1.64-6.36,6.78-6.16,9.65C232.17,364.62,235.97,362.67,237.3,358.67z"/>
	<path d="M281.45,412.15c1.84-0.46,1.58-3.28-0.31-3.49C277.07,407.79,277.97,413.31,281.45,412.15z"/>
	<path d="M561.9,231.48c-2.67,1.95-4.31,4.72-5.95,7.49C558.82,237.12,560.87,234.66,561.9,231.48z"/>
	<path d="M335.13,275.72c2.57-2.98,4.52-6.36,5.85-10.06C338.63,268.74,336.16,271.82,335.13,275.72z"/>
	<path d="M374.57,195.52c1.72,5.07,2.36,5.47,6.34,4.15C380.82,199.6,374.69,195.46,374.57,195.52z"/>
	<path d="M374.45,195.55c0.13-0.03,0.14-0.03,0.1-0.1L374.45,195.55z"/>
	<path d="M100.77,365.96c0.1,2.57,0.31,4.82,0.41,7.39C103.85,370.88,103.75,369.45,100.77,365.96z"/>
	<path d="M282.68,258.07c1.75-1.03,2.77-2.57,2.67-5.13C280.52,255.7,280.32,256.22,282.68,258.07z"/>
	<path d="M392.31,259.91c-1.64,2.67-1.95,5.44-1.44,8.32C392.21,266.28,392.62,263.2,392.31,259.91z"/>
	<path d="M542.4,442.43c2.67,0.82,4.72,1.33,7.08,1.23C547.32,441.2,545.78,440.89,542.4,442.43z"/>
	<path d="M255.47,283.11c-3.18,0.92-5.03,3.7-7.49,5.54C251.78,288.55,253.11,285.06,255.47,283.11z"/>
	<path d="M89.79,262.79c2.16-2.87,1.85-5.65,2.57-8.52C89.69,256.63,89.99,259.4,89.79,262.79z"/>
	<path d="M230.02,348.5c-2.46-1.95-4.52-1.54-6.67-0.21C225.4,348.09,227.45,349.22,230.02,348.5z"/>
	<path d="M206.83,386.96c-0.87,0.29-1.82,0.57-2.68,0.86c-0.92,1.64-1.75,3.39-1.23,5.44C204.52,391.36,205.64,389.07,206.83,386.96
		z"/>
	<path d="M207.02,386.9l-0.1-0.1C206.8,387,206.8,386.97,207.02,386.9z"/>
	<path d="M494.97,480.83c-0.41,1.95-1.85,3.8-0.92,5.85C495.38,484.93,495.79,482.98,494.97,480.83z"/>
	<path d="M766.59,417.49c1.23,1.85,2.26,3.39,3.39,5.03C770.19,419.13,769.47,418,766.59,417.49z"/>
	<path d="M296.82,325.65c0.02-0.35,0-0.7-0.08-1.07C296.77,324.95,296.79,325.29,296.82,325.65z"/>
	<path d="M295.51,332.49c1.52-2.05,1.48-4.42,1.31-6.84C296.69,328.02,294.62,329.99,295.51,332.49z"/>
	<path d="M339.65,372.83c-2.26,0.72-3.59,2.57-5.03,4.21C336.78,376.22,338.42,374.78,339.65,372.83z"/>
	<path d="M189.26,381.15c0.72-0.92,2.05-1.13,2.46-2.67C189.88,376.29,186.28,379.76,189.26,381.15z"/>
	<path d="M219.34,377.35c-1.13-1.13-2.16-2.46-4.31-2.77C215.75,377.15,217.29,377.66,219.34,377.35z"/>
	<path d="M270.26,266.79c-0.92-1.95-2.67-2.26-4.72-1.64C267.07,265.56,268.31,267,270.26,266.79z"/>
	<path d="M103.03,157.57c-3.49-1.23-3.49-1.23-6.47-0.1C98.82,157.57,100.57,158.39,103.03,157.57z"/>
	<path d="M111.55,226.04c-1.64-1.54-3.39-0.82-5.13-0.72C109.29,226.55,109.29,226.55,111.55,226.04z"/>
	<path d="M99.44,286.5c-0.72-1.44-2.57-0.62-3.18-1.85c-0.1,0.41-0.31,0.82-0.51,1.44C97.08,286.09,98.1,286.91,99.44,286.5z"/>
	<path d="M51.09,371.91c0.51-1.54-0.51-2.36-0.31-3.39C48.42,369.86,50.47,370.58,51.09,371.91z"/>
	<path d="M97.28,244.52c-1.54,1.13-2.05,2.16-2.05,3.8C96.67,247.49,97.18,246.57,97.28,244.52z"/>
	<path d="M86.61,222.75c1.33,0.62,2.26,0.51,3.28-0.21C88.66,221.21,87.74,221.62,86.61,222.75z"/>
	<path d="M485.22,316.99c1.33,0.62,2.26,0,3.49-1.13C486.86,315.04,485.94,315.55,485.22,316.99z"/>
	<path d="M185.36,384.13c1.23-0.1,2.26-0.51,2.98-1.95C186.39,381.66,185.36,382.18,185.36,384.13z"/>
	<path d="M92.97,223.16c1.58,1.58,2.67,1.13,2.67,0C94.82,222.75,94,222.55,92.97,223.16z"/>
	<path d="M256.91,328.18c1-1.09,2.06-4,1.33-4C257.12,325.1,256.6,326.23,256.91,328.18z"/>
	<path d="M54.17,150.89c-0.21,1.23-0.51,2.36-0.82,3.49C54.37,153.36,54.48,152.13,54.17,150.89z"/>
	<path d="M367.37,278.29c-0.31,1.33-0.62,2.57-1.03,3.7C367.57,280.96,367.57,279.62,367.37,278.29z"/>
	<path d="M231.86,313.7c-0.21-1.13-1.03-1.44-2.26-1.64C230.12,313.09,230.43,313.91,231.86,313.7z"/>
	<path d="M100.98,238.87c1.44-0.72,1.85-1.54,1.13-3.18C101.39,236.82,100.88,237.43,100.98,238.87z"/>
	<path d="M179.92,387.82c1.33-0.1,1.95-0.62,1.75-2.05C180.43,386.08,180.13,386.79,179.92,387.82z"/>
	<path d="M258.45,281.88c1.12-0.09,1.93-1.46,1.33-2.05C258.45,279.93,257.94,280.55,258.45,281.88z"/>
	<path d="M258.55,324.38c0.92-0.62,1.64-1.44,1.85-2.98C259.52,321.99,257.82,323.65,258.55,324.38z"/>
	<path d="M183.31,384.84c1.33,1.44,1.54-0.1,1.95-0.82C184.75,384.33,183.72,383.61,183.31,384.84z"/>
	<path d="M479.78,314.73c1.13,0.51,1.44,0,1.54-1.03C480.29,313.4,479.78,313.6,479.78,314.73z"/>
	<path d="M207.02,386.79c1.23,0.21,1.95-0.41,2.26-1.85C207.84,384.95,207.53,385.97,207.02,386.79z"/>
	<path d="M780.14,389.98c-0.62,1.23-0.41,1.95,0.92,2.36C781.38,391.11,780.97,390.49,780.14,389.98z"/>
	<path d="M52.22,369.24c0.58-1.75-1.69-2.42-1.33-0.62C51.29,368.83,51.5,369.45,52.22,369.24z"/>
	<path d="M811.25,424.26c-0.27,0-0.21-0.22-0.21,1.44C811.04,426.21,811.14,424.7,811.25,424.26z"/>
	<path d="M537.16,378.07c-0.28,0.55-0.28,0.44,0,0.72C537.58,378.37,537.78,378.69,537.16,378.07z"/>
	<path d="M346.53,261.56c-0.51,0.31-0.92,0.51-0.51,1.23C346.32,262.48,346.73,262.17,346.53,261.56z"/>
	<path d="M106.42,414.72c0.72,0.21,1.03-0.21,1.23-0.82C106.73,413.38,106.32,413.59,106.42,414.72z"/>
	<path d="M334.11,277.06c0.92-0.1,1.03-0.62,1.03-1.33C334.42,275.82,334.21,276.34,334.11,277.06z"/>
	<path d="M361.52,229.63c-0.21-0.51-0.31-1.03-1.03-1.13C360.59,229.12,360.39,229.84,361.52,229.63z"/>
	<path d="M769.88,406.09c-0.51,0.1-0.72,0.51-0.82,1.23C770.08,407.12,770.29,406.71,769.88,406.09z"/>
	<path d="M52.73,99.67c0-0.41,0-0.72,0-1.13C52.42,98.95,52.12,99.26,52.73,99.67z"/>
	<path d="M752.84,391.21c-3.7,9.24-10.57,15.71-13.76,24.43c-0.92-6.57-1.23-13.14-3.8-19.2c1.59,17.45,8.23,24.01-8.93,47.12
		c-1.13-11.7-2.57-22.69-2.26-34.29c-2.67,1.54-2.47,3.7-2.57,5.54c-1.31,24.64,4.17,30.58,0.1,35.62
		c-1.24,1.54-2.67,3.08-3.49,5.85c2.77-1.85,3.59-4.31,5.75-6.06c1.03,3.28,1.13,6.88,4,9.03c-3.3-19.83,0.72-11.35,8.21-30.18
		c2.79-7,1.81-7.18,4.31,16.42c1.53-8.63-2.74-22.02,0.21-29.05C746.02,403.6,754.3,396.83,752.84,391.21z"/>
	<path d="M872.74,319.25c-4.72-0.41-4.72-0.41-7.39-4.93c1.85-4.31,0.62-9.34,3.8-13.24c-4.12-2.3-7.08-2.31-6.06,5.54
		c0.63,4.84-0.51,9.55-0.62,14.17c3.7,0.31,6.98,2.36,11.7,2.26C872.12,321.81,873.87,320.38,872.74,319.25z"/>
	<path d="M769.98,298.92c-0.21,2.16,0.62,2.46,1.33,2.87c10.68,8.58,26.32,26.04,27.1,39.62c0,2.88,3.81-2.51-0.51-10.98
		C788.66,312.29,779.4,306.77,769.98,298.92z"/>
	<path d="M684.06,419.64c-0.09,2.98-0.73,6.06,0,9.03c3.48,14.17-0.73,14.43,2.46,17.35c0.62-3.28,1.89-6.46,1.33-10.06
		c-2.08-13.44,2.62-11.43-0.31-16.22c-2.5-4.08,1.48-8.52-2.36-12.52C683.44,411.53,684.18,415.74,684.06,419.64z"/>
	<path d="M655.93,289.38c-4.52,8.62-8.62,17.45-15.19,24.84c1.75-0.41,3.71-0.09,4.93-1.54
		C649.93,307.59,661.18,293.46,655.93,289.38z"/>
	<path d="M702.23,431.55c3.06,0.77,4.91-5.12,4.82-8.21c-0.17-6.1,2.04-21.08-4.31-23.2C706.75,430.59,700.63,426.26,702.23,431.55z
		"/>
	<path d="M817.92,365.44c1.54-1.03,3.08-1.95,5.03-3.18c0.82,3.18-0.1,6.26,1.75,9.24c1.09-6.56-2.75-10.18,3.39-14.27
		c1.03,0.62,0.62,2.16,1.95,2.67c0.31-1.54-0.51-2.67-0.51-3.28c0.31-1.54,2.05-1.95,1.44-3.39c-2.87,0.62-3.8,3.49-5.95,4.72
		c-0.82-0.41-0.41-1.85-1.75-1.54c-0.82,1.03,0.21,2.46-0.92,3.7c-4.93,2.98-10.98,5.03-14.17,11.39c3.18-0.72,4.82-3.39,7.9-4.41
		C816.07,382.44,817.17,367.54,817.92,365.44z"/>
	<path d="M785.58,334.65c-1.86,1.43,1.09,3.16,1.44,8.52c1.23,18.98-1.72,16.52,0.09,18.49
		C790.62,365.47,792.59,339.27,785.58,334.65z"/>
	<path d="M765.36,305.9c-0.62-0.62-1.23-1.13-2.67,0c5.75,7.8,14.17,13.45,19.5,21.66c0.31,0.41,0.82,0.82,1.75,0.1
		C779.63,318.73,771.62,312.99,765.36,305.9z"/>
	<path d="M685.19,474.46c2.36,1.03,2.36,1.03,4-0.51c3.49-3.28,4.11-6.47,2.16-11.19c1.13-1.33,2.05-2.98,0.92-4.82
		c1.13-1.23,3.08-1.44,3.18-3.28c-0.62-0.92-1.34-1.24-2.05-0.41c-2.08,2.44-3.59,5.13-4.72,7.7
		C688.98,464.01,694.22,464.35,685.19,474.46z"/>
	<path d="M780.25,315.35c9.96,9.55,11.29,22.69,15.6,34.49C792.76,327.56,785.31,314.55,780.25,315.35z"/>
	<path d="M676.19,327.14c-0.69-1.69-3.76,5.9-6.5,7.4c-3.18,1.74-6.57,0.1-10.37,0.82C667.95,344.22,678.23,332.13,676.19,327.14z"
		/>
	<path d="M698.43,473.23c-0.72,0.82,0.21,1.85-0.51,2.67c-0.72,0.41-1.64,0.1-2.57,1.64c-0.97,7.24-3.08,6.48-2.46,11.6
		c7.07-4.53,6.36-7.11,6.36-15.6C699.25,473.23,698.84,473.02,698.43,473.23z"/>
	<path d="M843.07,284.76c-0.82,1.03,0.62,1.75-0.21,2.57c-4.43,2.53-2.09-0.76-4.31-0.21c-1.64,1.64-4.62,1.75-6.06,5.03
		c5.48-1.61,11.58-0.59,12.42-2.98C847.01,283.26,855.07,282.36,843.07,284.76z"/>
	<path d="M725.84,358.36c3.39,1.54,5.74,5.22,10.68,3.18c4.51-1.86,5.95-5.65,7.39-9.65c-3.59,3.7-8.01,6.06-12.32,8.62
		C724.96,356.61,726.76,356.98,725.84,358.36z"/>
	<path d="M656.65,383.72c-0.51,6.26,1.64,12.11,2.87,18.89C662.09,397.88,660.24,385.97,656.65,383.72z"/>
	<path d="M801.09,328.38c0.92,5.54,2.67,11.09,3.08,16.73c0,0.62,0.51,1.33,1.44,1.23C808.17,342.45,805.91,332.7,801.09,328.38z"/>
	<path d="M890.81,385.26c-1.64,3.28-0.92,8.01-4.93,9.34c-2.26,4.11,2.46,5.54,2.26,8.93c3.7-2.98-0.1-5.75,0.21-8.42
		C892.55,392.13,893.89,387.51,890.81,385.26z"/>
	<path d="M750.27,290.2c9.34,4.72,19.92,6.57,30.18,11.19C777.26,296.82,761.34,293.92,750.27,290.2z"/>
	<path d="M856.31,326.23c-2.47,0.7-4.62,4.31-4.31,6.98c0,0.21,0.62-0.1,0.82,0.51c-0.82,1.75-2.26,3.49-1.75,6.06
		c1.03-1.75,2.26-3.28,2.87-5.03c3.22-9.15,9.22-8.84,7.19-10.88C859.19,323.76,858.16,325.7,856.31,326.23z"/>
	<path d="M694.84,452.6c5.13,0.1,11.19-10.98,8.32-15.91C700.28,442.43,700.38,449,694.84,452.6z"/>
	<path d="M767,259.71c1.95,0.62,3.28-0.62,3.8-2.36c-6.88,0.62-13.35,1.33-19.81,2.57C756.38,265.55,759.91,257.44,767,259.71z"/>
	<path d="M772.55,376.12c1.33-0.52,2.05-1.64,2.46-3.18c-8.42,2.67-13.24,9.65-20.33,14.68
		C760.33,387.83,764.13,379.44,772.55,376.12z"/>
	<path d="M729.43,328.69c0.31-6.57-3.39-12.32-4.11-18.68c-0.62,5.54,0.19,11.01,1.54,16.42
		C727.15,327.57,727.28,328.9,729.43,328.69z"/>
	<path d="M700.07,387.31c0.01,0.72,0.72,1.44,2.16,1.85c2.04-4.55-2.39-7.07-2.97-10.67c-0.54-3.38-2.46-6.78-4-10.16
		C695.04,375.19,700.02,380.63,700.07,387.31z"/>
	<path d="M777.48,353.39c-0.99-4.38-7.04,10.74-0.1,13.49C775.29,359.74,778.08,356.07,777.48,353.39z"/>
	<path d="M746.99,321.4c0,8.01-0.31,15.4-1.54,23.1c2.74-2.74,1.51-12.52,3.59-18.07C749.54,325.1,749.55,322.94,746.99,321.4z"/>
	<path d="M775.94,265.05c-4.72,2.77-8.21,6.57-12.01,10.06C768.95,273.87,776.14,267.72,775.94,265.05z"/>
	<path d="M835.27,350.97c1.54,2.87,0.62,6.16,1.95,8.83c0.62-3.59,0.31-7.19-0.21-10.47c0.92-1.54,2.46-2.16,2.98-3.8
		c-4.52,1.33-7.6,3.9-6.78,5.54C833.94,351.69,834.55,350.56,835.27,350.97z"/>
	<path d="M714.34,315.55c-3.28,2.46-1.64,6.98-4.82,9.55c3.8,1.54,0.82,5.13,2.87,7.29C713.73,326.84,712.19,320.99,714.34,315.55z"
		/>
	<path d="M625.95,327.24c3.54-4.59,9.64-6.87,12.83-12.01C634.89,317.44,625.95,322.52,625.95,327.24z"/>
	<path d="M729.54,288.04c5.24,1.33,9.96,4.11,15.5,4.21C742.37,289.99,732.51,287.22,729.54,288.04z"/>
	<path d="M718.14,285.58c4.62-0.41,9.24-0.41,13.65-2.36C727.07,283.01,722.45,283.63,718.14,285.58z"/>
	<path d="M659.32,415.23c1.13-3.59,0.62-7.08,1.23-11.19C657.68,407.33,657.37,411.53,659.32,415.23z"/>
	<path d="M871.82,407.02c3.28-0.92,3.59-3.08,0.92-6.57C870.17,403.01,870.07,403.53,871.82,407.02z"/>
	<path d="M887.93,359.8c-1.95,0.51-3.18,2.46-4.82,0.72c-2.46,2.16-4.52,4.31-4.52,7.7c1.86-0.27,1.05-5.34,6.47-5.34
		C886.49,362.88,887.73,361.95,887.93,359.8z"/>
	<path d="M851.69,363.7c0.51,3.28,0.72,6.26,3.9,8.42c0.51-1.23,0.4-1.74-1.03-5.65C854.16,365.34,853.85,364.01,851.69,363.7z"/>
	<path d="M718.35,307.85c1.75-1.03,2.78-2.36,3.18-4.11c0.42-1.85,2.77-2.16,2.98-4.11C719.68,301.18,720.91,300.67,718.35,307.85z"
		/>
	<path d="M703.36,400.14c1.44-3.59,0.21-5.95-0.72-9.14C700.48,394.39,701.51,396.96,703.36,400.14z"/>
	<path d="M682.31,359.9c0.21,5.03-0.31,10.06,1.44,14.78C682.52,369.75,683.14,364.72,682.31,359.9z"/>
	<path d="M671.12,329.41c-2.26,2.26-5.03,3.18-8.11,3.08C667.43,334.44,669.89,333.52,671.12,329.41z"/>
	<path d="M805.71,372.63c-2.46,0.62-4.82,1.44-6.67,4.31C802.73,377.25,804.17,374.89,805.71,372.63z"/>
	<path d="M740.01,321.81c-1.64,2.57-4.31,4.31-5.44,7.29C738.06,327.87,738.98,324.79,740.01,321.81z"/>
	<path d="M795.75,320.38c-1.03-2.26-2.26-4.21-4.41-5.85C792.15,318.73,793.08,319.97,795.75,320.38z"/>
	<path d="M802.42,315.96c1.64,1.33,3.08,3.59,5.85,1.75C806.73,315.24,804.37,316.27,802.42,315.96z"/>
	<path d="M802.11,276.13c-0.31-2.26,1.23-3.28,1.85-4.82c-0.62-1.23-1.54-0.92-2.77-0.51C802.93,272.33,798.93,273.87,802.11,276.13
		z"/>
	<path d="M654.91,490.78c-0.72,2.98,1.75,4,2.98,5.65C657.57,494.38,657.88,492.02,654.91,490.78z"/>
	<path d="M870.69,303.64c-0.72,1.75-2.05,2.98-0.92,5.24C872.33,307.03,872.43,306.83,870.69,303.64z"/>
	<path d="M738.77,278.19c1.75,1.44,3.8,1.75,6.36,1.95C743.19,277.57,740.93,277.88,738.77,278.19z"/>
	<path d="M772.23,329.62c1.44-1-2.89-0.34-5.73-2.56C767.9,329.45,769.94,331.2,772.23,329.62z"/>
	<path d="M875.92,322.84c-1.54,1.85-1.54,1.85,0.92,4.31C876.85,325.3,877.56,323.76,875.92,322.84z"/>
	<path d="M666.3,482.26c1.13-1.44,2.26-2.57,0.82-5.13C666.4,479.18,664.25,480.11,666.3,482.26z"/>
	<path d="M769.16,281.16c-2.26-0.1-2.77,1.85-3.8,3.08C768.95,282.81,768.95,282.81,769.16,281.16z"/>
	<path d="M658.5,278.6c1.13-2.16,1.95-3.7,2.77-5.24C659.22,274.18,657.98,275.52,658.5,278.6z"/>
	<path d="M822.44,322.84c2.26,1.75,2.46,1.85,4.93,1.75C825.31,322.74,825.21,322.74,822.44,322.84z"/>
	<path d="M817.82,320.38c1.23,0.62,2.16,1.54,3.9,0.41C820.49,319.66,819.56,318.53,817.82,320.38z"/>
	<path d="M875.41,393.36c0.51-1.44,0.51-2.46-0.31-3.59C874.48,390.8,873.87,392.03,875.41,393.36z"/>
	<path d="M683.65,466.66c1.33-1.85,1.33-1.85,0.21-3.49C683.55,464.2,683.34,465.22,683.65,466.66z"/>
	<path d="M734.67,374.89c-1.23,1.33-1.54,2.87-1.54,4.62C734.15,378.17,734.67,376.63,734.67,374.89z"/>
	<path d="M659.32,432.58c0.41-1.33,0.92-2.26-0.41-3.59C657.98,430.53,657.98,431.55,659.32,432.58z"/>
	<path d="M685.7,401.78c0.92-1.33,0.82-2.26-0.51-3.18C684.98,399.73,684.47,400.65,685.7,401.78z"/>
	<path d="M831.16,294.3c1.95,0.62,2.67,0.1,3.08-1.54C832.6,292.25,832.09,293.07,831.16,294.3z"/>
	<path d="M659.52,419.34c-1.54,0.41-1.85,1.13-1.33,2.46C659.22,421.39,660.04,420.98,659.52,419.34z"/>
	<path d="M684.98,391.82c0.92-1.33,0.31-2.16-0.92-2.77C684.37,389.87,683.65,391.21,684.98,391.82z"/>
	<path d="M684.88,383.51c1.23-1.75,0.31-2.57-1.23-3.7C683.96,381.35,683.75,382.59,684.88,383.51z"/>
	<path d="M676.46,504.64c-0.92,0.21-1.64,0.62-1.85,2.05C677.08,505.57,677.28,505.26,676.46,504.64z"/>
	<path d="M694.32,361.23c0.27,0.47,0.14,1.05,0.35,1.61C695.35,364.68,696.32,362.14,694.32,361.23z"/>
	<path d="M849.64,283.52c0.62-0.51,1.85-0.1,2.05-1.44C850.26,282.19,850.26,282.19,849.64,283.52z"/>
	<path d="M854.98,280.85c1.23,0.62,1.95,0.41,2.67-1.33C856.42,279.73,855.49,279.62,854.98,280.85z"/>
	<path d="M713.83,340.91c0.1,1.13-0.1,2.05,1.23,2.46C715.16,342.35,714.86,341.63,713.83,340.91z"/>
	<path d="M747.6,261.97c-0.92,0.1-1.44,0.41-1.13,1.44C747.5,263.51,747.91,263.1,747.6,261.97z"/>
	<path d="M721.63,352.3c-0.31,1.44,0.62,1.13,1.44,1.23C722.97,352.41,722.35,352.2,721.63,352.3z"/>
	<path d="M712.7,337.42c0.51-0.62,0.41-1.13,0-1.75C712.08,336.29,712.39,336.8,712.7,337.42z"/>
	<path d="M852.21,342.65c0.41-0.83,0.17-1.82-0.51-1.03C851.39,341.93,851.59,342.45,852.21,342.65z"/>
	<path d="M718.14,349.84c0.41,0.72,0.62,1.44,1.95,0.92C719.68,349.84,719.17,349.43,718.14,349.84z"/>
	<path d="M747.61,294.61c3.8,2.46,8.01,2.77,12.21,3.28C751.69,293.49,742.07,294.81,747.61,294.61z"/>
	<path d="M597.32,420.06c2.16-1.85,2.67-4.41,2.46-7.6c-1.44,1.13-10.68,16.84-11.39,18.99
		C586.81,436.18,598.22,431.63,597.32,420.06z"/>
	<path d="M594.24,470.97c-1.64,2.26-1.34,5.02-2.67,7.08c-1.45,2.25-4.52,2.98-5.44,6.47C592.11,484.19,598.68,477.74,594.24,470.97
		z"/>
	<path d="M566.93,373.76c-0.51,6.78-0.1,13.35,0.72,20.63C569.01,391.32,571.16,374.32,566.93,373.76z"/>
	<path d="M570.11,410.41c0.36-4.01-0.51-7.9-1.75-11.7c0.62,7.8-0.62,15.71,2.46,23.3C571.24,418.21,569.75,414.4,570.11,410.41z"/>
	<path d="M584.48,430.73c-8.73,4.62-9.75,5.34-10.16,8.11C576.99,438.53,582.74,434.12,584.48,430.73z"/>
	<path d="M568.37,315.45c-2.05,3.9-1.23,8.11-1.75,12.22C567.44,323.56,570.32,319.86,568.37,315.45z"/>
	<path d="M565.6,337.93c-0.51,4.41-1.54,8.93,0.31,13.24C565.39,346.76,567.34,342.35,565.6,337.93z"/>
	<path d="M576.78,477.34c-2.98,0-5.24-1.85-7.9-2.98C570.52,478.16,573.4,479.29,576.78,477.34z"/>
	<path d="M606.76,445.41c-0.82,2.36-0.82,2.57,1.75,5.34C610.25,447.67,609.84,446.44,606.76,445.41z"/>
	<path d="M593.83,469.12c0.1-2.26,1.44-4.62-1.03-6.57C593.11,464.81,592.29,467.17,593.83,469.12z"/>
	<path d="M563.54,460.19c2.26-2.05,1.23-3.8-0.21-5.65C563.34,456.5,563.23,458.35,563.54,460.19z"/>
	<path d="M574.63,475.49c-0.41-2.46-2.26-2.87-4-4.41C570.93,473.95,572.06,475.18,574.63,475.49z"/>
	<path d="M613.64,423.85c-2.26,0.51-2.26,0.51-2.26,2.57C613.33,425.8,613.33,425.8,613.64,423.85z"/>
	<path d="M602.45,453.01c-1.13-1.54-0.92-3.08-2.16-4C599.16,451.67,599.27,451.78,602.45,453.01z"/>
	<path d="M600.5,410.2c0.92-1.33,0.82-2.36-0.51-3.8C599.47,407.94,598.75,408.97,600.5,410.2z"/>
	<path d="M568.37,364.42c-0.41,1.64,0,2.57,1.13,3.49C570.21,366.37,569.7,365.55,568.37,364.42z"/>
	<path d="M600.91,392.13c1.03-0.51,1.23-1.13,0-2.05C600.09,390.9,599.98,391.52,600.91,392.13z"/>
	<path d="M599.47,403.12c0.82-0.51,0.82-1.03,0.21-1.75C598.75,401.99,598.65,402.5,599.47,403.12z"/>
	<path d="M551.12,357.44c-0.53,1.06,1.35,0.64,0.51-0.21C551.43,357.33,551.12,357.44,551.12,357.44z"/>
	<path d="M595.16,459.06c0.72-0.62,0.82-1.13,0.1-1.85C594.13,457.73,594.24,458.35,595.16,459.06z"/>
	<path d="M615.38,464.5c-0.82,0.1-1.23,0.31-1.13,1.03C614.97,465.74,615.28,465.53,615.38,464.5z"/>
	<path d="M651.41,446.95c0,0.32-0.24,0.27,0.21,0.72C651.62,447.46,651.83,447.05,651.41,446.95z"/>
	<path d="M793.18,246.57c-2.26,0.72-2.26,0.72-1.64,2.26C792.57,248.62,792.87,247.8,793.18,246.57z"/>
	<path d="M329.18,241.85c-2.18-2.13-5.54-1.33-8.21-3.08c3.91-4.69,13.81-14.73,10.37-18.48c-0.72,8.32-8.01,12.11-11.91,18.17
		c-4.62-0.72-7.7-3.9-11.5-5.75c1.64,4.72,6.16,6.16,9.75,8.83c-2.98,4.11-3.9,9.03-5.34,13.96c-5.34-4.82-8.93-10.37-12.01-16.22
		c1.75,7.39,6.57,12.83,11.39,17.66c1.33,2.98-1.44,3.9-1.75,5.95c2.57-0.31,3.28-2.36,4.11-3.8c1.03-0.1,1.23,0.92,2.26,0.72
		c-0.51-1.13-1.95-1.44-2.16-3.39c3.31-16.57,4.65-17.47,19.4-7.19C331.95,246.77,331.31,243.93,329.18,241.85z"/>
	<path d="M321.69,204.58c4.52-5.2,13.36,2.69,17.76,12.32c2.32,5.07,5.02,3.11,4.31,0.51C334.25,194.52,317.99,198.05,321.69,204.58
		z"/>
	<path d="M363.67,162.39c2.57,5.24,3.59,6.47,6.26,7.7c-2.26-10.98-2.26-10.98-4.52-12.63c-1.33,0.31-2.26,1.44-3.28,2.26
		C360.32,169.61,360.27,186.18,363.67,162.39z"/>
	<path d="M355.56,180.56c0.94-5.34,2.77-10.47,3.39-16.42c-3.46,2.44-3.52,22.44-9.96,26.59c-3.53,2.28-11.37,7.31-12.22,11.39
		C345.68,192.88,353.2,194.03,355.56,180.56z"/>
	<path d="M277.44,185.59c4-6.98,10.37-12.11,14.88-18.68C285.45,169.68,276.11,181.18,277.44,185.59z"/>
	<path d="M351.46,195.55c4.72-4.52,10.47-7.39,16.22-10.88C363.67,182.72,355.36,188.47,351.46,195.55z"/>
	<path d="M305.47,113.42c-2.97-2.22-14.77,7.44-17.76,9.65c-1.24,0.92-1.95,2.26-1.33,4.11
		C291.92,121.12,298.08,116.4,305.47,113.42z"/>
	<path d="M266.36,142.58c4.72,3.49,8.62,8.11,14.47,9.75C277.13,147.3,271.69,145.14,266.36,142.58z"/>
	<path d="M261.43,149.97c6.06,2.98,12.01,5.65,16.42,10.78C277.24,155.92,267.9,149.97,261.43,149.97z"/>
	<path d="M253.63,157.67c3.7,1.33,7.29,1.44,11.6,0.82C262.35,155.72,257.43,155.51,253.63,157.67z"/>
	<path d="M309.78,158.49c6.57,2.57,12.22,6.98,18.68,9.75C322.61,164.24,316.96,159.93,309.78,158.49z"/>
	<path d="M284.42,131.59c0,4.62,0.51,9.34-0.31,13.96C287.61,141.04,285.86,136.32,284.42,131.59z"/>
	<path d="M209.18,206.53c1.21,1.21-1.29,2.73,12.32-6.47c-0.21-0.21-0.31-0.51-0.51-0.72C216.98,201.71,212.56,203.25,209.18,206.53
		z"/>
	<path d="M290.89,161.98c2.16,1.54,7.39,1.85,9.34,0.62C297.15,161.67,294.18,161.16,290.89,161.98z"/>
	<path d="M332.06,179.53c-2.05-3.59-5.34-5.65-8.83-8.11C323.45,173.22,321.68,171.38,332.06,179.53z"/>
	<path d="M286.58,157.57c-2.26,0.31-2.26,0.31-2.77,2.57c1.13,0.72,2.26,0.82,3.59,0.92C287.2,159.62,287.5,158.49,286.58,157.57z"
		/>
	<path d="M253.63,238.36c-1.03,1.03-2.87,0.82-3.8,2.98C252.5,241.74,253.22,240.2,253.63,238.36z"/>
	<path d="M296.84,158.39c-1.75,0-3.39,0-5.44,0C293.56,160.75,295.2,158.7,296.84,158.39z"/>
	<path d="M319.84,111.99c0.67-0.67-0.17-1.4-2.67,0.1C318.2,113.12,319.02,112.3,319.84,111.99z"/>
	<path d="M313.47,112.09c-1.33-0.72-2.26-0.51-3.08,0.82C311.63,113.32,312.65,113.22,313.47,112.09z"/>
	<path d="M277.96,172.35c-1.33,1.13-1.64,2.05-0.92,3.39C277.96,174.81,278.26,173.89,277.96,172.35z"/>
	<path d="M340.27,157.26c-0.21-1.03-0.41-1.54-1.33-1.23C338.63,156.85,339.14,157.05,340.27,157.26z"/>
	<path d="M386.77,150.79c4.11-8.52-14.06-31.41-25.77-36.96c-0.31,1.03,0.72,1.33,1.23,1.85
		C389.27,137.21,383.64,151.42,386.77,150.79z"/>
	<path d="M444.05,113.94c-1.78,0.96-1.18,3.17-1.13,6.88c0.19,13.96-4.83,10.29,8.62,13.55c-0.32-4.14,0.85-3.23-4.72-4.52
		c-0.82-1.13-1.44-2.05-2.26-3.28c1.85-3.49,0.41-8.01,3.59-11.5C446.72,113.84,445.49,113.01,444.05,113.94z"/>
	<path d="M404.73,178.3c1.54-3.08,0.62-6.16-0.21-10.06c-6.16,4.72-11.91,9.14-17.86,13.65c0.99,6.25,0.63,5.44,1.33,5.44
		c1.32-7.46-1.19-4,7.29-10.27c2.3,14.47,1.86,12.52,2.77,12.52c0.82-4.41,0.1-8.93-0.41-13.35c1.95-1.64,3.7-3.18,5.65-4.82
		C404.43,173.79,403.71,176.25,404.73,178.3z"/>
	<path d="M359.57,101.41c0.82,0.1,2.05-0.51,1.85-1.23c-0.45-4.75,14.61-10.33,10.57-14.37C366.34,89.81,359.77,92.89,359.57,101.41
		z"/>
	<path d="M376.63,165.98c0.6,7.72,5.64-15.58-2.18-21.66C376.91,151.31,376.05,158.55,376.63,165.98z"/>
	<path d="M372.91,138.37c-4-8.42-10.88-14.17-17.25-20.22c-0.25,0.25-0.55,0.5-0.82,0.74C353.85,119.77,367.85,131.99,372.91,138.37
		z"/>
	<path d="M370.14,127.39c8.62,8.32,9.85,19.81,13.45,30.18C382.66,144.22,375.99,127.59,370.14,127.39z"/>
	<path d="M421.47,102.44c-2.57,1.85-6.06,2.67-6.26,6.57c3.14,1.18,0.68-3.55,5.34-2.87c5.86,0.85,7.49-3.8,10.16-7.19
		c-1.75,0.62-3.7,1.13-5.54,1.64c-0.72,0.72,0.41,1.33,0,1.95C423.93,103.88,422.7,103.88,421.47,102.44z"/>
	<path d="M390.06,146.79c0.5,2.57-0.21,5.65,2.36,8.42c2.67-6.88-1.33-11.5-3.8-16.42C388,141.65,389.53,144.12,390.06,146.79z"/>
	<path d="M467.25,188.88c-2.37,2.18,0.15,5.54-4.62,8.11c-1.33,3.59,2.16,4.82,2.26,7.7c3.08-2.67-0.1-4.93,0.1-7.29
		C468.79,194.42,469.82,190.93,467.25,188.88z"/>
	<path d="M367.68,112.91c-7.56-3.68-15.81-5.13-23.92-7.6C348.06,107.3,377.9,117.88,367.68,112.91z"/>
	<path d="M441.38,134.98c-1.95-0.51-2.67,1.22-4,1.44c-2.47,0.4-3.8,1.95-3.7,4.31c0.19,4.53-2.91,6.36-1.54,8.01
		c1.54-2.57,3.25-4.73,3.9-7.49C436.73,138.36,440.56,137.96,441.38,134.98z"/>
	<path d="M409.25,166.6c1.64-0.41,2.05-2.57,3.9-2.67c1.03,1.64,0.62,3.8,2.16,5.24c0.72-2.26-0.82-4.21-0.41-6.47
		C429.65,149.5,409.88,163.07,409.25,166.6z"/>
	<path d="M339.04,106.85c-4.11-2.36-8.62-3.18-13.35-3.8C330.1,104.49,334.21,107.06,339.04,106.85z"/>
	<path d="M327.74,98.64c-4.31,0.31-8.32,0.92-12.11,2.36C320.87,101.41,326,100.39,327.74,98.64z"/>
	<path d="M450.31,207.87c3.18-1.13,3.39-2.87,0.72-5.75C448.88,203.76,449.08,205.71,450.31,207.87z"/>
	<path d="M352.18,112.09c-4-2.36-8.62-2.57-13.04-3.59C343.35,110.24,347.56,111.88,352.18,112.09z"/>
	<path d="M460.07,167.11c-2.16,1.85-3.8,3.7-3.49,6.78c0.31-5.03,5.95-3.9,7.9-7.29C463.04,167.32,461.5,167.52,460.07,167.11z"/>
	<path d="M397.34,131.59c-2.26-1.85-4.11-2.26-7.39-1.44C392.31,130.57,393.85,134.47,397.34,131.59z"/>
	<path d="M422.49,162.49c2.46-4.82,2.46-9.03-0.41-9.55C423.93,156.13,421.26,159.21,422.49,162.49z"/>
	<path d="M436.35,176.87c0.65-3.27-5.26-11.67-2.8-3.35c0.18,0.62,0.19,1.19,0.13,1.5C434.75,175.24,434.96,176.98,436.35,176.87z"
		/>
	<path d="M396.11,87.11c0.23-0.87,0.64-0.96-1.4-0.46c-1.96,0.48-2.08,1.1-2,3.79C395.03,89.6,395.53,89.26,396.11,87.11z"/>
	<path d="M379.69,127.08c0.82,1.95,1.13,4.21,4,5.13C382.77,129.75,381.74,128,379.69,127.08z"/>
	<path d="M366.86,83.45c2.36-0.31,4.62-0.92,5.85-3.28C370.55,80.99,368.5,81.7,366.86,83.45z"/>
	<path d="M449.8,117.12c-1.23,1.44-2.16,2.57-1.03,4.72C450.83,120.41,450.72,118.97,449.8,117.12z"/>
	<path d="M333.18,94.43c1.95,1.64,3.7,1.64,5.44,1.54C337.29,94.33,335.55,94.33,333.18,94.43z"/>
	<path d="M356.59,88.27c2.26-0.62,3.49-1.44,3.9-3.18C358.85,85.5,357.51,86.12,356.59,88.27z"/>
	<path d="M411.72,135.39c-1.44-1.33-2.77-1.75-4.41-1.64C409.15,135.39,409.15,135.39,411.72,135.39z"/>
	<path d="M454.63,137.14c0.41-1.03,0.62-1.95-0.31-3.18C452.57,135.5,452.57,135.5,454.63,137.14z"/>
	<path d="M378.87,82.73c-1.95-0.1-2.98,0.62-3.8,2.05C376.92,85.19,377.94,84.68,378.87,82.73z"/>
	<path d="M403.06,131.39c-0.35,0.23,1.61,1.93,3.32,0.72C405.48,131.12,404.68,130.33,403.06,131.39z"/>
	<path d="M453.39,195.55c0.92-1.13,0.82-2.05-0.21-3.28C452.67,193.6,452.37,194.52,453.39,195.55z"/>
	<path d="M437.79,95.97c-0.82,0.1-1.64-0.31-2.16,1.23C436.87,97.62,437.48,97.41,437.79,95.97z"/>
	<path d="M430.81,99.05c0.72-0.1,1.85,0.41,1.64-1.23C431.32,97.51,431.12,98.33,430.81,99.05z"/>
	<path d="M432.66,150.18c-0.21,0.82,0.1,1.03,0.62,1.13C433.58,150.79,433.38,150.48,432.66,150.18z"/>
	<path d="M190.9,282.91c3.18-2.46,3.8-6.16,7.08-8.62c-2.57-0.31-4,0.31-4.93,1.44c-0.51,1.13,0.72,1.54,0.1,2.46
		c-1.64,1.33-3.78,2.57-4.52,4.62c-2.08,5.8-5.99,4.76-15.3,14.06c1.34,2.52,1.93,0.91,9.96-4.11c12.44-7.77,8.98-5.4,14.78-6.06
		c5.3-0.6,14.8-3.28,12.83-7.39C204.76,281.98,198.4,284.24,190.9,282.91z"/>
	<path d="M210.82,265.25c-1.25,3.05-3.48,4.93-11.5,12.22c2.14,3.51,7.65-1.97,9.85-5.44c2.03-3.2,2.77-7.29,6.57-9.44
		C213.39,262.48,211.5,263.59,210.82,265.25z"/>
	<path d="M171.91,263.81c-3.08,3.08-7.39,4.21-10.68,6.98C166.78,271.21,171.09,268.33,171.91,263.81z"/>
	<path d="M208.46,241.02c10.5-11.74,7.49-9.99-4.52,0.31C205.89,242.56,207.44,242.16,208.46,241.02z"/>
	<path d="M182.9,255.19c-3.8,2.36-5.95,6.26-9.65,8.42C177.56,264.43,182.69,259.91,182.9,255.19z"/>
	<path d="M183.82,246.57c3.7,0.92,6.98,1.33,9.75,3.28C192.14,246.88,188.24,245.44,183.82,246.57z"/>
	<path d="M151.18,278.6c3.18-1.03,5.75-2.87,7.8-5.34C156.1,274.7,153.33,276.13,151.18,278.6z"/>
	<path d="M231.35,244.52c-0.57-1.14,0-0.75-7.08,4.72C227.66,249.13,229.5,246.77,231.35,244.52z"/>
	<path d="M202.71,269.56c-4.21,3.49-4.21,3.49-3.28,5.34C201.68,274.18,202.2,272.23,202.71,269.56z"/>
	<path d="M207.84,293.58c-0.41-1.75,0.41-3.59-1.44-5.13C204.87,290.71,205.28,291.84,207.84,293.58z"/>
	<path d="M220.16,226.24c-3.9,1.54-4.11,1.85-3.08,4.31C218.62,229.73,219.55,228.4,220.16,226.24z"/>
	<path d="M208.25,297.59c-3.96,2.64-1.18,5.18,0.51,3.18C209.61,299.77,209.69,298.61,208.25,297.59z"/>
	<path d="M224.06,222.24c-1.75,0.1-2.46,0.82-2.36,2.46C223.14,224.5,224.16,224.09,224.06,222.24z"/>
	<path d="M222.01,260.22c1.44,0.21,2.57-0.1,3.49-2.05C223.86,258.58,222.63,258.78,222.01,260.22z"/>
	<path d="M184.75,254.58c0.82,0.51,1.23,0.21,1.85-1.33C185.46,253.65,184.54,253.24,184.75,254.58z"/>
	<path d="M202.09,252.32c0.62-0.41,0.21-0.82-0.1-1.13c-0.21-0.41-0.62-0.82-1.23-0.1C201.17,251.5,201.17,252.32,202.09,252.32z"/>
	<path d="M192.96,432.99c-1.34,0.08-2.46,0.72-3.59,1.23c3.27-8.71-5.48-12.18-9.44-7.6c-3.83,4.43,1.19,11.35,6.78,9.03
		c2.58-1.07,2.27-1.26,2.16-0.92c-2.36,5.54-1.54,7.19,5.24,11.29c3.43-3.43,6.62-4.87,4.72-9.34
		C197.8,434.32,195.42,432.84,192.96,432.99z M184.03,433.81c-3.91-0.46-3.81-6.78,0.82-6.78
		C189.21,427.04,188.51,434.34,184.03,433.81z M195.22,441.51c-1.03-0.51-0.51-2.05-1.95-1.95c-1.44,0.1-0.82,1.44-1.44,1.95
		c-4.58-4.34,1.48-7.73,3.9-5.24C197.4,437.99,197.27,439.76,195.22,441.51z"/>
	<path d="M181.77,422.52c0.05-3.49-2.98-4.62-5.03-6.67c-2.57,2.77-5.34,4.93-7.19,7.8c1.75,2.77,2.57-0.21,4-0.41
		c2.77,1.33-1.54,5.13,2.16,6.06c0.92-0.92,0.31-2.36,1.13-3.28C180.23,425.39,181.74,424.37,181.77,422.52z M175.4,421.49
		c0.54-3.26,3.72-1.92,3.9,0.92C177.15,424.26,176.43,422.42,175.4,421.49z"/>
	<path d="M180.74,409.28c0.31-1.33,0.72-2.46-0.82-3.28C179,407.43,179,408.46,180.74,409.28z"/>
	<path d="M403.71,79.65c3.18-0.62,6.57-0.31,9.44-2.26C409.46,75.75,406.58,77.7,403.71,79.65z"/>
	<path d="M378.25,66.72c-2.05,1.03-1.54,2.46-1.54,3.8C377.74,69.49,379.58,68.77,378.25,66.72z"/>
	<path d="M391.08,65.79c0.28,0,0.37-1.31-0.41-0.92C390.08,65.46,390.56,65.97,391.08,65.79z"/>
	<path d="M313.78,288.66c0.31-1.85,0.72-3.08-0.51-4.72C313.06,285.78,313.06,286.91,313.78,288.66z"/>
<path fill="#e6e6e6" d="m206.8 163.6c0-5.1 4.1-9.2 9.3-9.2s9.2 4.2 9.2 9.2-4.1 9.2-9.3 9.2-9.2-4.1-9.2-9.2zm17.3-.1c0-4.5-3.5-8.2-8.2-8.2s-8.2 3.7-8.2 8.3c0 4.5 3.5 8.2 8.2 8.2s8.2-3.7 8.2-8.3zm-13 0c0-2.8 2.1-5.1 5.1-5.1 1.9 0 2.9.6 3.9 1.5l-1.4 1.7c-.8-.7-1.5-1.1-2.5-1.1-1.7 0-2.8 1.4-2.8 3.1s1.1 3 2.8 3c1.1 0 1.7-.5 2.5-1.1l1.4 1.4c-1.1 1.1-2.1 1.7-4 1.7-2.9 0-5-2.3-5-5.1z"/><path fill="#e6e6e6" d="m226.6 154.7h3.4l4.2 13.2 4.4-13.3h2.6l4.4 13.3 4.2-13.2h3.3l-6.2 18h-2.7l-4.4-12.8-4.4 12.8h-2.7z"/><path fill="#e6e6e6" d="m252.8 165.8c0-3.9 3.1-7 7.2-7 4.2 0 7.2 3.2 7.2 7s-3.1 7-7.3 7c-4 0-7.1-3.1-7.1-7zm11.3 0c0-2.3-1.7-4.3-4.2-4.3s-4.1 2-4.1 4.3 1.7 4.3 4.1 4.3c2.7.1 4.2-1.9 4.2-4.3z"/><path fill="#e6e6e6" d="m269.5 159.1h3.1v3c.8-2 2.4-3.4 4.8-3.3v3.2h-.2c-2.7 0-4.6 1.7-4.6 5.4v5.1h-3.1z"/><path fill="#e6e6e6" d="m279.1 153.9h3.1v11.1l5.6-6h3.8l-5.4 5.5 5.5 8h-3.5l-4.1-5.8-1.9 2v3.9h-3.1z"/><path fill="#e6e6e6" d="m291.7 165.8c0-3.9 3.1-7 7.2-7 4.2 0 7.2 3.2 7.2 7s-3.1 7-7.3 7c-4 0-7.1-3.1-7.1-7zm11.3 0c0-2.3-1.7-4.3-4.2-4.3s-4.1 2-4.1 4.3 1.7 4.3 4.1 4.3c2.6.1 4.2-1.9 4.2-4.3z"/><path fill="#e6e6e6" d="m308.2 167.6v-8.6h3.1v7.6c0 2.1 1.1 3.3 2.9 3.3s3-1.3 3-3.3v-7.6h3.1v13.4h-3.1v-2.1c-.8 1.3-2.1 2.3-4.2 2.3-3.1.2-4.8-1.8-4.8-5z"/><path fill="#e6e6e6" d="m323.9 168.8v-7.1h-1.7v-2.6h1.7v-3.7h3.1v3.7h3.6v2.6h-3.6v6.6c0 1.2.6 1.7 1.7 1.7.7 0 1.3-.2 1.9-.5v2.5c-.8.5-1.7.7-2.8.7-2.3 0-3.9-.9-3.9-3.9z"/><path fill="#e6e6e6" d="m333.2 154.7h3.2v15h9.4v2.9h-12.5v-17.9z"/><path fill="#e6e6e6" d="m356 172.5v-1.7c-.9 1.1-2.3 2-4.4 2-2.6 0-4.8-1.4-4.8-4.2 0-3 2.3-4.4 5.4-4.4 1.7 0 2.6.2 3.7.5v-.2c0-1.9-1.2-2.9-3.3-2.9-1.5 0-2.6.3-3.9.8l-.8-2.5c1.5-.7 2.9-1.1 5.1-1.1 4 0 5.9 2.1 5.9 5.7v8zm.1-5.6c-.8-.3-1.9-.5-3.1-.5-2 0-3.1.8-3.1 2.1s1.1 2 2.6 2c2 0 3.5-1.1 3.5-2.9z"/><path fill="#e6e6e6" d="m364.9 170.5v2.1h-3.1v-18.7h3.1v7.4c1-1.4 2.4-2.5 4.5-2.5 3.2 0 6.3 2.5 6.3 7s-3.1 7-6.3 7c-2.1 0-3.5-1.1-4.5-2.3zm7.7-4.7c0-2.6-1.7-4.3-3.9-4.3s-3.9 1.7-3.9 4.4c0 2.6 1.8 4.3 3.9 4.3s3.9-1.7 3.9-4.4z"/><path fill="#e6e6e6" d="m376.9 170.8 1.4-2.1c1.4 1.1 3 1.7 4.4 1.7s2.1-.5 2.1-1.5-1.3-1.4-2.8-1.8c-.1 0-.2-.1-.2-.1-2-.6-4.2-1.4-4.2-4s2.1-4.1 4.8-4.1c1.7 0 3.5.6 5 1.5l-1.2 2.2c-1.3-.8-2.6-1.3-3.8-1.3s-1.9.5-1.9 1.4 1.3 1.4 2.8 1.8c.1 0 .2.1.2.1 2 .6 4.2 1.5 4.2 4 0 2.9-2.2 4.2-5 4.2-1.9 0-4-.7-5.8-2z"/><path fill="#e6e6e6" d="m505.6 163.6c0-5.1 4.1-9.2 9.3-9.2s9.2 4.2 9.2 9.2-4.1 9.2-9.3 9.2-9.2-4.1-9.2-9.2zm17.4-.1c0-4.5-3.5-8.2-8.2-8.2s-8.2 3.7-8.2 8.3c0 4.5 3.5 8.2 8.2 8.2s8.2-3.7 8.2-8.3zm-13.1 0c0-2.8 2.1-5.1 5.1-5.1 1.9 0 2.9.6 3.9 1.5l-1.4 1.7c-.8-.7-1.5-1.1-2.5-1.1-1.7 0-2.8 1.4-2.8 3.1s1.1 3 2.8 3c1.1 0 1.7-.5 2.5-1.1l1.4 1.4c-1.1 1.1-2.1 1.7-4 1.7-2.9 0-5-2.3-5-5.1z"/><path fill="#e6e6e6" d="m525.4 154.7h3.4l4.2 13.2 4.4-13.3h2.6l4.4 13.3 4.2-13.2h3.3l-6.2 18h-2.7l-4.4-12.8-4.4 12.8h-2.7z"/><path fill="#e6e6e6" d="m551.7 165.8c0-3.9 3.1-7 7.2-7 4.2 0 7.2 3.2 7.2 7s-3.1 7-7.3 7c-4.1 0-7.1-3.1-7.1-7zm11.2 0c0-2.3-1.7-4.3-4.2-4.3s-4.1 2-4.1 4.3 1.7 4.3 4.1 4.3c2.7.1 4.2-1.9 4.2-4.3z"/><path fill="#e6e6e6" d="m568.3 159.1h3.1v3c.8-2 2.4-3.4 4.8-3.3v3.2h-.2c-2.7 0-4.6 1.7-4.6 5.4v5.1h-3.1z"/><path fill="#e6e6e6" d="m577.9 153.9h3.1v11.1l5.6-6h3.8l-5.4 5.5 5.5 8h-3.5l-4.1-5.8-1.9 2v3.9h-3.1z"/><path fill="#e6e6e6" d="m590.6 165.8c0-3.9 3.1-7 7.2-7 4.2 0 7.2 3.2 7.2 7s-3.1 7-7.3 7c-4.1 0-7.1-3.1-7.1-7zm11.2 0c0-2.3-1.7-4.3-4.2-4.3s-4.1 2-4.1 4.3 1.7 4.3 4.1 4.3c2.6.1 4.2-1.9 4.2-4.3z"/><path fill="#e6e6e6" d="m607 167.6v-8.6h3.1v7.6c0 2.1 1.1 3.3 2.9 3.3s3-1.3 3-3.3v-7.6h3.1v13.4h-3.1v-2.1c-.8 1.3-2.1 2.3-4.2 2.3-3 .2-4.8-1.8-4.8-5z"/><path fill="#e6e6e6" d="m622.7 168.8v-7.1h-1.7v-2.6h1.7v-3.7h3.1v3.7h3.6v2.6h-3.6v6.6c0 1.2.6 1.7 1.7 1.7.7 0 1.3-.2 1.9-.5v2.5c-.8.5-1.7.7-2.8.7-2.3 0-3.9-.9-3.9-3.9z"/><path fill="#e6e6e6" d="m632 154.7h3.2v15h9.4v2.9h-12.6z"/><path fill="#e6e6e6" d="m654.8 172.5v-1.7c-.9 1.1-2.3 2-4.4 2-2.6 0-4.8-1.4-4.8-4.2 0-3 2.3-4.4 5.4-4.4 1.7 0 2.6.2 3.7.5v-.2c0-1.9-1.2-2.9-3.3-2.9-1.5 0-2.6.3-3.9.8l-.8-2.5c1.5-.7 2.9-1.1 5.1-1.1 4 0 5.9 2.1 5.9 5.7v8zm.1-5.6c-.8-.3-1.9-.5-3.1-.5-2 0-3.1.8-3.1 2.1s1.1 2 2.6 2c2 0 3.5-1.1 3.5-2.9z"/><path fill="#e6e6e6" d="m663.7 170.5v2.1h-3.1v-18.7h3.1v7.4c1-1.4 2.4-2.5 4.5-2.5 3.2 0 6.3 2.5 6.3 7s-3.1 7-6.3 7c-2.1 0-3.5-1.1-4.5-2.3zm7.8-4.7c0-2.6-1.7-4.3-3.9-4.3-2.1 0-3.9 1.7-3.9 4.4 0 2.6 1.8 4.3 3.9 4.3s3.9-1.7 3.9-4.4z"/><path fill="#e6e6e6" d="m675.8 170.8 1.4-2.1c1.4 1.1 3 1.7 4.4 1.7s2.1-.5 2.1-1.5-1.3-1.4-2.8-1.8c-.1 0-.2-.1-.2-.1-2-.6-4.2-1.4-4.2-4s2.1-4.1 4.8-4.1c1.7 0 3.5.6 5 1.5l-1.2 2.2c-1.3-.8-2.6-1.3-3.8-1.3s-1.9.5-1.9 1.4 1.3 1.4 2.8 1.8c.1 0 .2.1.2.1 2 .6 4.2 1.5 4.2 4 0 2.9-2.2 4.2-5 4.2-2 0-4.1-.7-5.8-2z"/><path fill="#e6e6e6" d="m61 298.6c0-5.1 4.1-9.2 9.3-9.2s9.2 4.2 9.2 9.2-4.1 9.2-9.3 9.2c-5.1 0-9.2-4.2-9.2-9.2zm17.4-.1c0-4.5-3.5-8.2-8.2-8.2s-8.2 3.7-8.2 8.3c0 4.5 3.5 8.2 8.2 8.2s8.2-3.7 8.2-8.3zm-13.1-.1c0-2.8 2.1-5.1 5.1-5.1 1.9 0 2.9.6 3.9 1.5l-1.4 1.7c-.8-.7-1.5-1.1-2.5-1.1-1.7 0-2.8 1.4-2.8 3.1s1.1 3 2.8 3c1.1 0 1.7-.5 2.5-1.1l1.4 1.4c-1.1 1.1-2.1 1.7-4 1.7-2.8.1-5-2.2-5-5.1z"/><path fill="#e6e6e6" d="m80.9 289.7h3.4l4.2 13.2 4.4-13.3h2.6l4.4 13.3 4.2-13.2h3.3l-6.2 18h-2.7l-4.4-12.8-4.4 12.8h-2.7z"/><path fill="#e6e6e6" d="m107.1 300.8c0-3.9 3.1-7 7.2-7s7.2 3.2 7.2 7-3.1 7-7.3 7c-4 0-7.1-3.1-7.1-7zm11.3 0c0-2.3-1.7-4.3-4.2-4.3s-4.1 2-4.1 4.3 1.7 4.3 4.1 4.3c2.6.1 4.2-1.9 4.2-4.3z"/><path fill="#e6e6e6" d="m123.7 294h3.1v3c.8-2 2.4-3.4 4.8-3.3v3.2h-.2c-2.7 0-4.6 1.7-4.6 5.4v5.1h-3.1z"/><path fill="#e6e6e6" d="m133.4 288.9h3.1v11.1l5.6-6h3.8l-5.4 5.5 5.5 8h-3.5l-4.1-5.8-1.9 1.9v3.9h-3.1z"/><path fill="#e6e6e6" d="m146 300.8c0-3.9 3.1-7 7.2-7s7.2 3.2 7.2 7-3.1 7-7.3 7c-4.1 0-7.1-3.1-7.1-7zm11.2 0c0-2.3-1.7-4.3-4.2-4.3s-4.1 2-4.1 4.3 1.7 4.3 4.1 4.3c2.6.1 4.2-1.9 4.2-4.3z"/><path fill="#e6e6e6" d="m162.4 302.6v-8.6h3.1v7.6c0 2.1 1.1 3.3 2.9 3.3s3-1.3 3-3.3v-7.6h3.1v13.4h-3.1v-2.1c-.8 1.3-2.1 2.3-4.2 2.3-3 .2-4.8-1.8-4.8-5z"/><path fill="#e6e6e6" d="m178.1 303.8v-7.1h-1.7v-2.7h1.7v-3.7h3.1v3.7h3.6v2.6h-3.6v6.6c0 1.2.6 1.7 1.7 1.7.7 0 1.3-.2 1.9-.5v2.5c-.8.5-1.7.7-2.8.7-2.3.1-3.9-.9-3.9-3.8z"/><path fill="#e6e6e6" d="m187.4 289.7h3.2v15h9.4v2.9h-12.5v-17.9z"/><path fill="#e6e6e6" d="m210.2 307.5v-1.7c-.9 1.1-2.3 2-4.4 2-2.6 0-4.8-1.4-4.8-4.2 0-3 2.3-4.4 5.4-4.4 1.7 0 2.6.2 3.7.5v-.2c0-1.9-1.2-2.9-3.3-2.9-1.5 0-2.6.3-3.9.8l-.8-2.5c1.5-.7 2.9-1.1 5.1-1.1 4 0 5.9 2.1 5.9 5.7v8zm.1-5.6c-.8-.3-1.9-.5-3.1-.5-2 0-3.1.8-3.1 2.1s1.1 2 2.6 2c2 0 3.5-1.1 3.5-2.9z"/><path fill="#e6e6e6" d="m219.2 305.5v2.1h-3.1v-18.7h3.1v7.4c1-1.4 2.4-2.5 4.5-2.5 3.2 0 6.3 2.5 6.3 7s-3.1 7-6.3 7c-2.2 0-3.6-1.1-4.5-2.3zm7.7-4.7c0-2.6-1.7-4.3-3.9-4.3s-3.9 1.7-3.9 4.4c0 2.6 1.8 4.3 3.9 4.3s3.9-1.7 3.9-4.4z"/><path fill="#e6e6e6" d="m231.2 305.8 1.4-2.1c1.4 1.1 3 1.7 4.4 1.7s2.1-.5 2.1-1.5-1.3-1.4-2.8-1.8c-.1 0-.2-.1-.2-.1-2-.6-4.2-1.4-4.2-4s2.1-4.1 4.8-4.1c1.7 0 3.5.6 5 1.5l-1.2 2.2c-1.3-.8-2.6-1.3-3.8-1.3s-1.9.5-1.9 1.4 1.3 1.4 2.8 1.8c.1 0 .2.1.2.1 2 .6 4.2 1.5 4.2 4 0 2.9-2.2 4.2-5 4.2-2 0-4.1-.7-5.8-2z"/><path fill="#e6e6e6" d="m360.6 298.6c0-5.1 4.1-9.2 9.3-9.2s9.2 4.2 9.2 9.2-4.1 9.2-9.3 9.2-9.2-4.2-9.2-9.2zm17.4-.1c0-4.5-3.5-8.2-8.2-8.2s-8.2 3.7-8.2 8.3c0 4.5 3.5 8.2 8.2 8.2s8.2-3.7 8.2-8.3zm-13.1-.1c0-2.8 2.1-5.1 5.1-5.1 1.9 0 2.9.6 3.9 1.5l-1.4 1.7c-.8-.7-1.5-1.1-2.5-1.1-1.7 0-2.8 1.4-2.8 3.1s1.1 3 2.8 3c1.1 0 1.7-.5 2.5-1.1l1.4 1.4c-1.1 1.1-2.1 1.7-4 1.7-2.8.1-5-2.2-5-5.1z"/><path fill="#e6e6e6" d="m380.5 289.7h3.4l4.2 13.2 4.4-13.3h2.6l4.4 13.3 4.2-13.2h3.3l-6.2 18h-2.7l-4.4-12.8-4.4 12.8h-2.7z"/><path fill="#e6e6e6" d="m406.7 300.8c0-3.9 3.1-7 7.2-7 4.2 0 7.2 3.2 7.2 7s-3.1 7-7.3 7c-4.1 0-7.1-3.1-7.1-7zm11.3 0c0-2.3-1.7-4.3-4.2-4.3s-4.1 2-4.1 4.3 1.7 4.3 4.1 4.3c2.7.1 4.2-1.9 4.2-4.3z"/><path fill="#e6e6e6" d="m423.3 294h3.1v3c.8-2 2.4-3.4 4.8-3.3v3.2h-.2c-2.7 0-4.6 1.7-4.6 5.4v5.1h-3.1z"/><path fill="#e6e6e6" d="m433 288.9h3.1v11.1l5.6-6h3.8l-5.4 5.5 5.5 8h-3.5l-4.1-5.8-1.9 2v3.9h-3.1z"/><path fill="#e6e6e6" d="m445.6 300.8c0-3.9 3.1-7 7.2-7 4.2 0 7.2 3.2 7.2 7s-3.1 7-7.3 7c-4.1 0-7.1-3.1-7.1-7zm11.3 0c0-2.3-1.7-4.3-4.2-4.3s-4.1 2-4.1 4.3 1.7 4.3 4.1 4.3c2.6.1 4.2-1.9 4.2-4.3z"/><path fill="#e6e6e6" d="m462.1 302.6v-8.6h3.1v7.6c0 2.1 1.1 3.3 2.9 3.3s3-1.3 3-3.3v-7.6h3.1v13.4h-3.1v-2.1c-.8 1.3-2.1 2.3-4.2 2.3-3.1.2-4.8-1.8-4.8-5z"/><path fill="#e6e6e6" d="m477.8 303.8v-7.1h-1.8v-2.7h1.7v-3.7h3.1v3.7h3.6v2.6h-3.6v6.6c0 1.2.6 1.7 1.7 1.7.7 0 1.3-.2 1.9-.5v2.5c-.8.5-1.7.7-2.8.7-2.2.1-3.8-.9-3.8-3.8z"/><path fill="#e6e6e6" d="m487.1 289.7h3.2v15h9.4v2.9h-12.5v-17.9z"/><path fill="#e6e6e6" d="m509.9 307.5v-1.7c-.9 1.1-2.3 2-4.4 2-2.6 0-4.8-1.4-4.8-4.2 0-3 2.3-4.4 5.4-4.4 1.7 0 2.6.2 3.7.5v-.2c0-1.9-1.2-2.9-3.3-2.9-1.5 0-2.6.3-3.9.8l-.8-2.5c1.5-.7 2.9-1.1 5.1-1.1 4 0 5.9 2.1 5.9 5.7v8zm.1-5.6c-.8-.3-1.9-.5-3.1-.5-2 0-3.1.8-3.1 2.1s1.1 2 2.6 2c2 0 3.5-1.1 3.5-2.9z"/><path fill="#e6e6e6" d="m518.8 305.5v2.1h-3.1v-18.7h3.1v7.4c1-1.4 2.4-2.5 4.5-2.5 3.2 0 6.3 2.5 6.3 7s-3.1 7-6.3 7c-2.2 0-3.5-1.1-4.5-2.3zm7.7-4.7c0-2.6-1.7-4.3-3.9-4.3s-3.9 1.7-3.9 4.4c0 2.6 1.8 4.3 3.9 4.3s3.9-1.7 3.9-4.4z"/><path fill="#e6e6e6" d="m530.8 305.8 1.4-2.1c1.4 1.1 3 1.7 4.4 1.7s2.1-.5 2.1-1.5-1.3-1.4-2.8-1.8c-.1 0-.2-.1-.2-.1-2-.6-4.2-1.4-4.2-4s2.1-4.1 4.8-4.1c1.7 0 3.5.6 5 1.5l-1.2 2.2c-1.3-.8-2.6-1.3-3.8-1.3s-1.9.5-1.9 1.4 1.3 1.4 2.8 1.8c.1 0 .2.1.2.1 2 .6 4.2 1.5 4.2 4 0 2.9-2.2 4.2-5 4.2-1.9 0-4.1-.7-5.8-2z"/><path fill="#e6e6e6" d="m659.5 298.6c0-5.1 4.1-9.2 9.3-9.2s9.2 4.2 9.2 9.2-4.1 9.2-9.3 9.2-9.2-4.2-9.2-9.2zm17.3-.1c0-4.5-3.5-8.2-8.2-8.2s-8.2 3.7-8.2 8.3c0 4.5 3.5 8.2 8.2 8.2 4.8 0 8.2-3.7 8.2-8.3zm-13-.1c0-2.8 2.1-5.1 5.1-5.1 1.9 0 2.9.6 3.9 1.5l-1.4 1.7c-.8-.7-1.5-1.1-2.5-1.1-1.7 0-2.8 1.4-2.8 3.1s1.1 3 2.8 3c1.1 0 1.7-.5 2.5-1.1l1.4 1.4c-1.1 1.1-2.1 1.7-4 1.7-2.9.1-5-2.2-5-5.1z"/><path fill="#e6e6e6" d="m679.3 289.7h3.4l4.2 13.2 4.4-13.3h2.6l4.4 13.3 4.2-13.2h3.3l-6.2 18h-2.6l-4.4-12.8-4.4 12.8h-2.7z"/><path fill="#e6e6e6" d="m705.5 300.8c0-3.9 3.1-7 7.2-7 4.2 0 7.2 3.2 7.2 7s-3.1 7-7.3 7c-4 0-7.1-3.1-7.1-7zm11.3 0c0-2.3-1.7-4.3-4.2-4.3s-4.1 2-4.1 4.3 1.7 4.3 4.1 4.3c2.7.1 4.2-1.9 4.2-4.3z"/><path fill="#e6e6e6" d="m722.1 294h3.1v3c.8-2 2.4-3.4 4.8-3.3v3.2h-.2c-2.7 0-4.6 1.7-4.6 5.4v5.1h-3.1z"/><path fill="#e6e6e6" d="m731.8 288.9h3.1v11.1l5.6-6h3.8l-5.4 5.5 5.5 8h-3.5l-4.1-5.8-1.9 2v3.9h-3.1z"/><path fill="#e6e6e6" d="m744.4 300.8c0-3.9 3.1-7 7.2-7 4.2 0 7.2 3.2 7.2 7s-3.1 7-7.3 7c-4.1 0-7.1-3.1-7.1-7zm11.3 0c0-2.3-1.7-4.3-4.2-4.3s-4.1 2-4.1 4.3 1.7 4.3 4.1 4.3c2.6.1 4.2-1.9 4.2-4.3z"/><path fill="#e6e6e6" d="m760.9 302.6v-8.6h3.1v7.6c0 2.1 1.1 3.3 2.9 3.3s3-1.3 3-3.3v-7.6h3.1v13.4h-3.1v-2.1c-.8 1.3-2.1 2.3-4.2 2.3-3.1.2-4.8-1.8-4.8-5z"/><path fill="#e6e6e6" d="m776.6 303.8v-7.1h-1.7v-2.7h1.7v-3.7h3.1v3.7h3.6v2.6h-3.6v6.6c0 1.2.6 1.7 1.7 1.7.7 0 1.3-.2 1.9-.5v2.5c-.8.5-1.7.7-2.8.7-2.3.1-3.9-.9-3.9-3.8z"/><path fill="#e6e6e6" d="m785.9 289.7h3.2v15h9.4v2.9h-12.5v-17.9z"/><path fill="#e6e6e6" d="m808.7 307.5v-1.7c-.9 1.1-2.3 2-4.4 2-2.6 0-4.8-1.4-4.8-4.2 0-3 2.3-4.4 5.4-4.4 1.7 0 2.6.2 3.7.5v-.2c0-1.9-1.2-2.9-3.3-2.9-1.5 0-2.6.3-3.9.8l-.8-2.5c1.5-.7 2.9-1.1 5.1-1.1 4 0 5.9 2.1 5.9 5.7v8zm.1-5.6c-.8-.3-1.9-.5-3.1-.5-2 0-3.1.8-3.1 2.1s1.1 2 2.6 2c2 0 3.5-1.1 3.5-2.9z"/><path fill="#e6e6e6" d="m817.6 305.5v2.1h-3.1v-18.7h3.1v7.4c1-1.4 2.4-2.5 4.5-2.5 3.2 0 6.3 2.5 6.3 7s-3.1 7-6.3 7c-2.1 0-3.5-1.1-4.5-2.3zm7.7-4.7c0-2.6-1.7-4.3-3.9-4.3-2.1 0-3.9 1.7-3.9 4.4 0 2.6 1.8 4.3 3.9 4.3 2.2 0 3.9-1.7 3.9-4.4z"/><path fill="#e6e6e6" d="m829.6 305.8 1.4-2.1c1.4 1.1 3 1.7 4.4 1.7s2.1-.5 2.1-1.5-1.3-1.4-2.8-1.8c-.1 0-.2-.1-.2-.1-2-.6-4.2-1.4-4.2-4s2.1-4.1 4.8-4.1c1.7 0 3.5.6 5 1.5l-1.2 2.2c-1.3-.8-2.6-1.3-3.8-1.3s-1.9.5-1.9 1.4 1.3 1.4 2.8 1.8c.1 0 .2.1.2.1 2 .6 4.2 1.5 4.2 4 0 2.9-2.2 4.2-5 4.2-1.9 0-4-.7-5.8-2z"/><path fill="#e6e6e6" d="m206.3 434.2c0-5.1 4.1-9.2 9.3-9.2s9.2 4.2 9.2 9.2-4.1 9.2-9.3 9.2-9.2-4.1-9.2-9.2zm17.4-.1c0-4.5-3.5-8.2-8.2-8.2s-8.2 3.7-8.2 8.3c0 4.5 3.5 8.2 8.2 8.2s8.2-3.7 8.2-8.3zm-13.1-.1c0-2.8 2.1-5.1 5.1-5.1 1.9 0 2.9.6 3.9 1.5l-1.4 1.7c-.8-.7-1.5-1.1-2.5-1.1-1.7 0-2.8 1.4-2.8 3.1s1.1 3 2.8 3c1.1 0 1.7-.5 2.5-1.1l1.4 1.4c-1.1 1.1-2.1 1.7-4 1.7-2.9.1-5-2.2-5-5.1z"/><path fill="#e6e6e6" d="m226.1 425.3h3.4l4.2 13.2 4.4-13.3h2.6l4.4 13.3 4.2-13.2h3.3l-6.2 18h-2.7l-4.4-12.8-4.4 12.8h-2.7z"/><path fill="#e6e6e6" d="m252.4 436.4c0-3.9 3.1-7 7.2-7 4.2 0 7.2 3.2 7.2 7s-3.1 7-7.3 7c-4.1 0-7.1-3.1-7.1-7zm11.2 0c0-2.3-1.7-4.3-4.2-4.3s-4.1 2-4.1 4.3 1.7 4.3 4.1 4.3c2.7.1 4.2-1.9 4.2-4.3z"/><path fill="#e6e6e6" d="m269 429.7h3.1v3c.8-2 2.4-3.4 4.8-3.3v3.2h-.2c-2.7 0-4.6 1.7-4.6 5.4v5.1h-3.1z"/><path fill="#e6e6e6" d="m278.6 424.5h3.1v11.1l5.6-6h3.8l-5.4 5.5 5.5 8h-3.5l-4.1-5.8-1.9 2v3.9h-3.1z"/><path fill="#e6e6e6" d="m291.3 436.4c0-3.9 3.1-7 7.2-7 4.2 0 7.2 3.2 7.2 7s-3.1 7-7.3 7c-4.1 0-7.1-3.1-7.1-7zm11.2 0c0-2.3-1.7-4.3-4.2-4.3s-4.1 2-4.1 4.3 1.7 4.3 4.1 4.3c2.6.1 4.2-1.9 4.2-4.3z"/><path fill="#e6e6e6" d="m307.7 438.2v-8.6h3.1v7.6c0 2.1 1.1 3.3 2.9 3.3s3-1.3 3-3.3v-7.6h3.1v13.4h-3.1v-2.1c-.8 1.3-2.1 2.3-4.2 2.3-3 .2-4.8-1.8-4.8-5z"/><path fill="#e6e6e6" d="m323.4 439.4v-7.1h-1.7v-2.6h1.7v-3.7h3.1v3.7h3.6v2.6h-3.6v6.6c0 1.2.6 1.7 1.7 1.7.7 0 1.3-.2 1.9-.5v2.5c-.8.5-1.7.7-2.8.7-2.3 0-3.9-.9-3.9-3.9z"/><path fill="#e6e6e6" d="m332.7 425.3h3.2v15h9.4v2.9h-12.5v-17.9z"/><path fill="#e6e6e6" d="m355.5 443.1v-1.7c-.9 1.1-2.3 2-4.4 2-2.6 0-4.8-1.4-4.8-4.2 0-3 2.3-4.4 5.4-4.4 1.7 0 2.6.2 3.7.5v-.2c0-1.9-1.2-2.9-3.3-2.9-1.5 0-2.6.3-3.9.8l-.8-2.5c1.5-.7 2.9-1.1 5.1-1.1 4 0 5.9 2.1 5.9 5.7v8zm.1-5.6c-.8-.3-1.9-.5-3.1-.5-2 0-3.1.8-3.1 2.1s1.1 2 2.6 2c2 0 3.5-1.1 3.5-2.9z"/><path fill="#e6e6e6" d="m364.4 441.1v2.1h-3.1v-18.7h3.1v7.4c1-1.4 2.4-2.5 4.5-2.5 3.2 0 6.3 2.5 6.3 7s-3.1 7-6.3 7c-2.1 0-3.5-1.1-4.5-2.3zm7.7-4.7c0-2.6-1.7-4.3-3.9-4.3-2.1 0-3.9 1.7-3.9 4.4 0 2.6 1.8 4.3 3.9 4.3 2.2 0 3.9-1.7 3.9-4.4z"/><path fill="#e6e6e6" d="m376.5 441.4 1.4-2.1c1.4 1.1 3 1.7 4.4 1.7s2.1-.5 2.1-1.5-1.3-1.4-2.8-1.8c-.1 0-.2-.1-.2-.1-2-.6-4.2-1.4-4.2-4s2.1-4.1 4.8-4.1c1.7 0 3.5.6 5 1.5l-1.2 2.2c-1.3-.8-2.6-1.3-3.8-1.3s-1.9.5-1.9 1.4 1.3 1.4 2.8 1.8c.1 0 .2.1.2.1 2 .6 4.2 1.5 4.2 4 0 2.9-2.2 4.2-5 4.2-2 0-4.1-.7-5.8-2z"/><path fill="#e6e6e6" d="m505.1 434.2c0-5.1 4.1-9.2 9.3-9.2s9.2 4.2 9.2 9.2-4.1 9.2-9.3 9.2-9.2-4.1-9.2-9.2zm17.4-.1c0-4.5-3.5-8.2-8.2-8.2s-8.2 3.7-8.2 8.3c0 4.5 3.5 8.2 8.2 8.2s8.2-3.7 8.2-8.3zm-13.1-.1c0-2.8 2.1-5.1 5.1-5.1 1.9 0 2.9.6 3.9 1.5l-1.4 1.7c-.8-.7-1.5-1.1-2.5-1.1-1.7 0-2.8 1.4-2.8 3.1s1.1 3 2.8 3c1.1 0 1.7-.5 2.5-1.1l1.4 1.4c-1.1 1.1-2.1 1.7-4 1.7-2.9.1-5-2.2-5-5.1z"/><path fill="#e6e6e6" d="m525 425.3h3.4l4.2 13.2 4.4-13.3h2.6l4.4 13.3 4.2-13.2h3.3l-6.2 18h-2.7l-4.4-12.8-4.4 12.8h-2.7z"/><path fill="#e6e6e6" d="m551.2 436.4c0-3.9 3.1-7 7.2-7 4.2 0 7.2 3.2 7.2 7s-3.1 7-7.3 7c-4.1 0-7.1-3.1-7.1-7zm11.2 0c0-2.3-1.7-4.3-4.2-4.3s-4.1 2-4.1 4.3 1.7 4.3 4.1 4.3c2.7.1 4.2-1.9 4.2-4.3z"/><path fill="#e6e6e6" d="m567.8 429.7h3.1v3c.8-2 2.4-3.4 4.8-3.3v3.2h-.2c-2.7 0-4.6 1.7-4.6 5.4v5.1h-3.1z"/><path fill="#e6e6e6" d="m577.5 424.5h3.1v11.1l5.6-6h3.8l-5.4 5.5 5.5 8h-3.5l-4.1-5.8-1.9 2v3.9h-3.1z"/><path fill="#e6e6e6" d="m590.1 436.4c0-3.9 3.1-7 7.2-7 4.2 0 7.2 3.2 7.2 7s-3.1 7-7.3 7c-4.1 0-7.1-3.1-7.1-7zm11.2 0c0-2.3-1.7-4.3-4.2-4.3s-4.1 2-4.1 4.3 1.7 4.3 4.1 4.3c2.6.1 4.2-1.9 4.2-4.3z"/><path fill="#e6e6e6" d="m606.5 438.2v-8.6h3.1v7.6c0 2.1 1.1 3.3 2.9 3.3s3-1.3 3-3.3v-7.6h3.1v13.4h-3.1v-2.1c-.8 1.3-2.1 2.3-4.2 2.3-3 .2-4.8-1.8-4.8-5z"/><path fill="#e6e6e6" d="m622.2 439.4v-7.1h-1.7v-2.6h1.7v-3.7h3.1v3.7h3.6v2.6h-3.6v6.6c0 1.2.6 1.7 1.7 1.7.7 0 1.3-.2 1.9-.5v2.5c-.8.5-1.7.7-2.8.7-2.3 0-3.9-.9-3.9-3.9z"/><path fill="#e6e6e6" d="m631.5 425.3h3.2v15h9.4v2.9h-12.5v-17.9z"/><path fill="#e6e6e6" d="m654.3 443.1v-1.7c-.9 1.1-2.3 2-4.4 2-2.6 0-4.8-1.4-4.8-4.2 0-3 2.3-4.4 5.4-4.4 1.7 0 2.6.2 3.7.5v-.2c0-1.9-1.2-2.9-3.3-2.9-1.5 0-2.6.3-3.9.8l-.8-2.5c1.5-.7 2.9-1.1 5.1-1.1 4 0 5.9 2.1 5.9 5.7v8zm.1-5.6c-.8-.3-1.9-.5-3.1-.5-2 0-3.1.8-3.1 2.1s1.1 2 2.6 2c2 0 3.5-1.1 3.5-2.9z"/><path fill="#e6e6e6" d="m663.3 441.1v2.1h-3.1v-18.7h3.1v7.4c1-1.4 2.4-2.5 4.5-2.5 3.2 0 6.3 2.5 6.3 7s-3.1 7-6.3 7c-2.2 0-3.6-1.1-4.5-2.3zm7.7-4.7c0-2.6-1.7-4.3-3.9-4.3s-3.9 1.7-3.9 4.4c0 2.6 1.8 4.3 3.9 4.3s3.9-1.7 3.9-4.4z"/><path fill="#e6e6e6" d="m675.3 441.4 1.4-2.1c1.4 1.1 3 1.7 4.4 1.7s2.1-.5 2.1-1.5-1.3-1.4-2.8-1.8c-.1 0-.2-.1-.2-.1-2-.6-4.2-1.4-4.2-4s2.1-4.1 4.8-4.1c1.7 0 3.5.6 5 1.5l-1.2 2.2c-1.3-.8-2.6-1.3-3.8-1.3s-1.9.5-1.9 1.4 1.3 1.4 2.8 1.8c.1 0 .2.1.2.1 2 .6 4.2 1.5 4.2 4 0 2.9-2.2 4.2-5 4.2-2 0-4.1-.7-5.8-2z"/></g>
</svg>
