<?xml version="1.0" encoding="utf-8"?>
<!-- Generator: Adobe Illustrator 23.0.1, SVG Export Plug-In . SVG Version: 6.00 Build 0)  -->
<svg version="1.2" baseProfile="tiny" id="Layer_1" xmlns="http://www.w3.org/2000/svg" xmlns:xlink="http://www.w3.org/1999/xlink"
	 x="0px" y="0px" viewBox="0 0 900 600" xml:space="preserve">
<g>
	<path d="M648.19,391.06c0.01,0,0.02,0,0.04,0c0-0.03,0-0.06-0.01-0.08C648.21,391.01,648.2,391.03,648.19,391.06z"/>
	<path d="M746.06,578.91c-4.89-1.31-8.2-5.1-12.69-7.06c-6.51-2.84-5.73-9.85-14.95-16.07c-9.88-6.68,0.28-11.97-4.2-16.17
		c10.25-29.33,27.9-49.56,29.79-66.44c2.02-18.04-0.27-22.01,2.05-28.46c3.01-8.38,2.74-16.99,1.43-25.59
		c-0.84-5.53-3.89-9.95-10.13-10.75c-5-0.64-10.19-6.68-14.02-8.19c-11.56-4.56-16.53-3.03-19.35-6.86
		c-1.31-1.79-15.62-3.37-17.71-3.58c-0.72-2.87,2.28-16.89-3.89-31.33c-3.41-7.99,2.78-9.19,1.95-27.33
		c-0.39-8.59-6.41-10.52-2.46-18.43c7.89-15.79,4.92-21.32-0.41-48.32c-2.19-11.09-10.98-9.09-18.73-18.22
		c-2.07-2.44-4.2-4.91-7.06-6.76c0.2-3.48-0.31-7.06,1.23-10.34c4.2,0.92,7.08,0.01,7.98-3.17c2.09-7.36,6.43-14.14,5.63-22.11
		c-0.09-0.92,0.1-2.05,0.61-2.87c2.56-4.09,1.43-8.29,0.61-12.49c-2.8-9.79-0.24,19.89-10.13,39.21c-4.4,0.61-8.19-0.2-12.49,0.1
		c4.71,2.97,0.1,4.91-0.1,7.27c1.02,0.2,1.33,1.23,2.25,2.25c4.6-17.64,0.06,7.17,4.3,8.39c2.89,0.84,7.9,12.33,6.04,23.03
		c-0.78,4.46-3.72,4.66-11.88,7.47c-16.56-12.36-20.18-25.98-28.56-33.99c0.41-1.74,1.95-3.17,0.61-5.12
		c-1.13,1.13-0.1,2.97-1.74,3.69c-8.77-10.02-10.14-8.68-8.39-10.95c10.48-13.65,5.81-22.43,11.06-32.55
		c-2.25,0.61-3.28-0.51-3.69-2.46c0.92-0.41,2.15,0.41,3.17-1.13c-0.51-1.84,0.92-3.99,0.41-6.24c-1.23-1.43-3.28-2.35-2.76-5.02
		c3.28,0.41,2.82,3.08,3.38,4.91c0.66,2.17,1.64,4.2,1.95,6.55c3.28-3.69,3.71-8.59,5.73-12.69c2.07-4.19,4.91-7.98,6.55-11.77
		c1.64-1.02,2.66,0.41,3.69-0.51c-0.82-2.56,3.07-1.23,2.56-3.69c-2.06-4.62-1.01-3.43-6.35-3.79c0.82-0.82,1.23-1.95,2.35-2.25
		c4.71,2.46,4.71,2.46,6.24,5.32c1.54-0.31,0.72-1.54,1.13-2.56c1.84,0.61,3.28-0.82,5.22-0.72c5.43,0.3,10.85,2.56,16.38,0.1
		c0.61,4.3,0.19,8.71,2.25,12.39c4.38,7.83-13.62,3.77-8.09,16.48c0.92-1.23-0.2-2.97,1.23-4.09c2.46,0.92,4.71-0.31,7.27-1.02
		c0.41-3.38,3.16-6.75,1.95-10.13c-1.76-4.91-1.54-9.83-2.35-14.54c1.95-3.58,6.04-4.3,8.7-7.17c-0.61-1.33,0.1-2.76,0-4.09
		c-1.64-1.13-3.48,0-5.02-0.72c1.02-1.43,3.28-1.33,3.48-3.28c-2.15-1.54-2.87-1.54-6.35,0.72c-0.41-2.56,1.02-5.22-0.92-7.68
		c-1.64,1.13-2.35,2.97-4.09,3.69c-3.83-4.07-8.71,1.28-12.18,0.51c-5.12-1.13-10.13,0-14.64-0.41c-1.95,0.72-1.74,3.28-4.09,2.87
		c-0.61-0.82,0.61-2.56-1.64-2.76c-2.46,3.28-5.84,5.22-10.24,5.53c-2.05-1.23-3.48-4.3-6.76-2.56c-0.2,1.95,1.95,2.46,2.25,3.89
		c-0.61,0.51-1.64,0.92-1.64,1.43c-0.13,1.26-5.74,13.35-6.14,17.91c-0.22,0.89-4.13,5.75-1.33,14.23c1.01,3.07,3.28,5.84,1.64,9.32
		c-0.1,0.31,0.1,0.92,0.41,1.33c3.78,5.02,0.82,11.57,3.69,16.79c0.09,0.14-0.97,16.77-10.95,19.35
		c-5.44,1.4-16.13,7.57-22.11,18.12c4.51,1.8,6.49-8.8,21.7-13.51c1.55,5.04,5.09,9.17,6.68,14.19c-4.24-0.9-8.49-1.68-12.83,0.04
		c11.58,0.59,12.98,2.67,13.07,0.81c6.78,8.5,7.45,27.43,7.5,38.3c0.04,8.39-4.91,14.13-9.52,20.47
		c-5.94-3.89-7.47-10.44-11.06-15.15c0-2.97,1.74-5.12,1.95-7.78c-2.56,3.28-5.63,6.76-5.43,11.06c0.81,16.75,1.44,39.37-8.8,52.11
		c-6.43,8-1.18,13.86-2.15,24.36c-4.01,43.53-13.4,56.26-1.02,74.01c-3.17,6.65-3.69,14.13-6.96,21.4c0.2,3.69,4.09,6.45,5.12,10.44
		c-0.72,1.13-2.15,1.43-2.56,0.82c-1.64-2.15-4.61-1.64-6.35-3.48c0.2-2.97-1.54-5.32-2.25-7.98c-1.64,2.97-1.02,5.63,0.72,8.19
		c-1.13,0.41-1.84,1.13-2.87,0.82c-1.64-0.5-1.13-2.66-2.76-3.38c-0.92-0.61-2.25,0.41-3.69-0.61c-0.82-8.8,2.66-17.4,2.46-26.41
		c-0.03-1.43-1.02-2.66-0.82-4.2c2.73-21.24-7.34-40.41-6.04-56.41c0.73-8.99,2.57-26.68-0.31-27.64c-0.82,2.15,0,4.3-0.51,6.45
		c-6.38,26.74,4.57,50.59-1.33,57.02c-4.5,0.72-6.86,2.76-7.27,7.27c-0.52,5.73-2.35,11.26-0.51,17.1c-2.87,1.74-2.46,4.4-2.56,7.17
		c-4.61,0.82-9.01,2.15-13.72,2.05c-2.1,4.72-5.86,19.72-1.54,26.62c4.69,7.47,5.71,12.35,9.11,10.03
		c-3.48-5.12-7.17-10.24-9.52-16.38c2.15-5.94,2.15-12.39,3.69-18.84c3.48,1.23,6.55-1.33,9.83-0.41
		c-1.13,5.53-2.97,10.75-2.56,16.99c5.43-22.97,0.12-13.21,20.27-19.55c0.1,6.14-1.42,11.77-1.02,17.51
		c0.32,4.71,0.41,5.02,5.12,4.81c1.13,1.54,1.74,3.67,3.99,3.89c4.92,0.48,9.62,2.56,14.64,1.43c3.56,5.14,5.01,8.97,11.57,7.58
		c21.68-4.6,22.18-3.37,21.91-6.35c-8.91,1.64-17.71,3.28-26.31,4.81c-4.4-6.55-8.5-12.69-12.18-19.25
		c2.26-4.37,8.58-20.62,5.94-24.77c-8.14-12.81-2.81-28.76-1.64-39.92c0.38-3.66,0.81-4.59,25.08-1.13c1.13,0,0.72,1.74,1.95,1.74
		c0.82-0.31,0.62-1.23,0.92-1.84c0.94-1.94,2.76-2.66,2.97-1.43c-0.2,1.33-1.43,1.33-2.15,2.25c0.82,0.72,0.2,2.15,1.64,2.97
		c1.54-1.95,3.07-0.82,5.02-0.2c0.2,4.81-1.84,9.52,0.2,14.64c1.95-4.91,1.23-9.83,2.25-14.54c4.2-0.92,8.29-1.74,13-2.66
		c0.51,0,0.1,1.95,1.54,1.43c1.02-0.72,0.31-2.25,1.43-2.87c0.92-0.61,1.43,1.02,2.35,0.41c0.92-0.61,0.72-2.15,1.95-2.35
		c1.13,0.2,1.33,1.64,2.46,1.43c13.82-9.38,3.02-6.69,18.02-10.85c-4.81,4.2-10.54,7.37-14.23,12.8c5.02-2.66,9.11-6.76,14.43-9.21
		c0.31,1.23-1.02,1.64,0.2,2.56c4.71-3.79,10.44-3.07,16.79-2.97c-2.18,1.09-11.43,6.03-12.28,8.6
		c11.36-7.98,23.34-11.47,36.85-6.35c-1.34,6.7-26.24,15.06-34.5,41.26c-3.44,10.91-11.53,26.45-4.2,33.78
		c-11.67,0.41-21.5-5.53-32.66-6.14c4.86-11.42,14.18-13.11,21.7-17.81c-5.73,0.41-10.34,3.69-15.25,6.35
		c6.62-12.32,7.94-19.08,27.23-37.37c-1.74-0.1-2.24,0.42-2.76,0.92c-15.27,14.53-22.16,26.27-32.45,47.3
		c-1.43,2.92-1,10.82-4.2,18.22c-4.98,11.52-18.79,12.41-26.92,25.49c-0.86,1.39-14.74,8.07-24.88,10.24
		c-4.2,0.9-8.91,0.1-12.49,3.38c-0.31,0.2-0.92,0.2-1.43,0.1c-24.8-3.05-16.43,0.51-16.79-26.51c-4.81,11.47-1.74,23.75-4.61,35.22
		c-10.36-14.67-26.47-11.28-45.56-16.28c-4.09-1.07-25.38-8.15-28.46-11.06c-1.32-1.24-2.87-2.25-4.3-3.38
		c-3.2-11.62-18.19,0.38-23.95,0.2c-15.01-0.45-17.19,28.58-5.32,32.45c-0.82,1.23-1.84,2.56-1.54,3.99
		c1.09,5.16-5.13,6.62-3.28,10.54c2.02,4.28-0.43,9.07,5.43,18.73c8.37,13.8,21.38,9.83,35.93,9.83c0.92,0,1.84-0.31,2.05-1.74
		c-1.33-0.92-2.66-0.42-3.89-0.31c-41.1,3.84-32.46-19.31-37.37-28.87c0.61-1.64,2.46-2.25,3.28-3.28c0.72-2.35,0.53-4.49,1.64-6.35
		c4.63-7.78-5.36-4.38-6.45-11.06c-1-6.15-0.77-12.21,2.35-17.81c3.51-6.29,8.79-1.32,16.17-6.86c2.01-1.7,7.61-3.33,4.2,0.2
		c-2.82,2.93-10.4,10.83-8.29,14.54c1.85,3.27,2.46,7.36,5.73,9.52c3.08,2.04,4.61,5.12,6.96,7.88c-2.46,0-4.2-1.84-6.35-1.43
		c-1.84,1.95,0,2.76,1.13,3.69c-0.92,1.23-2.56,0-3.28,1.33c0,1.84,3.87,1.19,0.92,2.66c-0.31,1.33,1.33,1.43,1.33,2.46
		c-0.51,0.51-1.33,0.72-1.43,1.43c0,1.23,1.43,0.82,1.84,1.74c-0.72,0.72-2.35,0-2.66,1.64c0.92,1.33,2.76,1.23,4.09,2.35
		c-0.41,0.72-1.64,1.13-1.33,2.25c5.12,3.89,10.34,2.05,14.33-4.91c1.02,1.74,0.31,3.38-0.1,4.5c0.2,1.43,1.54,1.43,1.43,2.76
		c-4.91,5.96,6.96,6.69-7.78,5.22c6.13-1.78,2.37-1.92,2.25-2.87c0-0.72,1.54-1.02,0.82-2.05c-3.38-0.2-3.99,0.31-4.5,3.89
		c-3.79,2.35-8.5,0.92-12.39,2.56c0.39,3.88,16.3,2.5,21.09,2.35c0.92-0.08,1.64-0.59,1.92-1.5c1.33,0.57,7.2,6.19,4.12,12.36
		c-0.1,0.1,0.2,0.31,0.31,0.51c4.71-3.99,4.89-6.63,0.72-10.75c-10.46-10.34,1.6-5.79-5.73-14.54c7.98-5.45,1.16-15.14,8.8-10.75
		c20.49,11.76,24.38,17.42,32.96,25.18c18.61,16.84,31.38,9.05,36.75,14.33c5.49,5.39,16.35,7.3,19.14,5.73
		c11.08-6.21,9.66-11.58,15.25-15.25c5.5-3.62,10.14-7.88,12.8-14.13c15.29-36.01,7.99-39.26,11.67-42.59
		c5.64-5.1,10.85-10.86,17.71-14.54c11.44-6.14,10.05-19.7,12.8-27.03c5.05-0.16,4.11,2.61,19.55,4.71c6.22,0.84,3.35,5.5,7.06,5.94
		c-0.2-1.84-1.64-3.17-1.54-5.02c3.07,0,6.04,0.2,9.11,1.02c-0.93,2.8-3.85,4.31-6.65,4.61c-19.51,2.08-12.72,6.06-19.04-3.28
		c-1.11-1.65-0.72-4.3-3.48-5.32c-0.1,4.4,2.3,7.55,3.99,10.95c1.16,2.34,2.76,3.07,5.32,2.56c6.24-1.24,12.49-2.25,18.63-3.99
		c0.72-1.02,1.23-2.15,2.35-2.46c4.5-0.2,8.91,2.25,13.41-0.2c1.74,1.02,3.48,2.05,5.32,0.31c1.23-1.02,2.35-2.15,1.23-3.99
		c-1.43,0-1.43,2.15-3.17,1.74c-3.28-1.95-3.79-5.02-3.17-8.7c1.74-1.74,3.79-2.66,6.24-3.28c0,6.55,3.22,12.28,3.07,18.73
		c-0.07,2.74,5.85,10.18,2.05,25.8c-7.13,29.29-3.76,36.32-11.16,41.97c-6.55-0.61-9.72,2.56-8.5,9.01
		c0.93,4.91-0.14,9.7-2.97,13.51c-2.8,3.76-3.71,8.38-6.24,12.28c-0.93,1.43-0.82,3.47,1.43,4.09c30.6,8.51,10.38-1.05,41.56,5.32
		c11.23,2.3,32.31,1.38,37.47-0.31c1.85-0.61,3.58-1.23,6.04-0.31C750.13,590.69,750.81,580.18,746.06,578.91z M666.92,182.63
		c0.92-0.51,1.84-0.82,3.38-0.61C668.97,183.35,667.95,182.63,666.92,182.63z M675.73,150.9c-0.31,1.02-0.72,1.95-1.64,2.56
		C673.01,153.06,672.41,150.16,675.73,150.9z M667.74,143.32c1.43,1.95,0.31,2.46-1.13,3.69
		C667.13,145.47,667.33,144.55,667.74,143.32z M665.08,159.49c-0.51,0.51-0.82,0-1.13-0.31
		C664.57,158.68,664.88,158.68,665.08,159.49z M656.79,158.47c-1.33,0.31-2.05-0.51-2.87-1.23
		C654.95,157.24,655.97,157.45,656.79,158.47z M649.32,156.01c1.33-0.82,1.23,0.31,2.05,0.61
		C650.24,156.93,649.83,156.53,649.32,156.01z M651.57,147.11c-0.61,1.54-2.05,2.05-3.07,3.17
		C648.19,147.72,649.32,147,651.57,147.11z M619.32,175.46c-0.41-1.43-0.72-2.87,0.51-3.89
		C620.45,173.11,619.53,174.24,619.32,175.46z M633.96,170.04c-0.2-1.64,0.1-2.56,0.92-3.79
		C636.52,168.3,634.68,168.71,633.96,170.04z M632.73,148.54c-0.31,1.33-0.72,2.05-2.15,1.74
		C630.69,149.15,631.5,148.85,632.73,148.54z M634.17,155.91c-0.41,2.35-2.46,3.17-3.89,4.5
		C630.48,157.86,632.53,157.04,634.17,155.91z M628.64,173.42c0.51,1.33-0.51,1.74-1.54,2.35
		C626.79,174.24,627.41,173.72,628.64,173.42z M627.31,184.58c0.1,0.82-0.2,1.33-0.72,1.64
		C625.67,185.09,627.1,184.98,627.31,184.58z M623.42,174.54c0.2-1.43,0.72-2.25,2.15-1.64
		C625.36,174.03,624.34,174.03,623.42,174.54z M623.72,149.56c-0.72,0.61-1.02,0.1-1.33-0.82
		C623.31,148.64,623.42,149.15,623.72,149.56z M619.42,154.48c1.13,0.31,1.33,1.64,2.56,2.35c0.71,0.41,1.64-0.92,2.76-0.51
		c0.72,1.02-0.1,1.54-0.82,2.35c-2.56-1.95-5.02-1.02-7.58,0.61C618.4,158.27,616.86,155.09,619.42,154.48z M616.05,185.8
		c1.33,0.31,1.74,1.13,2.35,1.64c0.41,1.54-2.25,2.05-1.02,3.79C615.74,189.59,613.49,188.26,616.05,185.8z M548.58,451.66
		c-1.02-1.84-1.13-3.28,1.13-3.99c1.84,0.61,2.87,2.66,4.81,2.87C552.58,451.25,550.63,451.66,548.58,451.66z M559.23,451.25
		c-4.31,2.16-0.54-0.43-0.41-1.33c-1.74-0.82-2.87,0.72-4.2,0.61c-2.34-4.1-6.78-7.6-3.48-15.56c1.05-2.55,0-5.53,0.92-8.5
		c2.25,0.82,3.79,3.38,6.65,2.46c-0.1-2.15-1.33-3.48-2.87-5.02c1.95-1.33,2.76-3.28,3.48-5.43
		C559.97,423.61,564.11,449.3,559.23,451.25z M672.35,255.72c3.18,1.93,5.83,4.5,6.76,8.29c0.8,3.3,7.4,29.85,4.2,30.92
		C675.53,261.49,659.03,247.65,672.35,255.72z M611.61,248.83c0-0.08,0.02-0.01,0.02,0.03L611.61,248.83z M608.16,308.55
		c-2.56,2.76-5.53,4.5-9.01,6.24c0.31-5.63-0.92-10.65-1.23-15.97C600.28,302.92,604.68,304.86,608.16,308.55z M586.26,351.95
		c0.61,2.46,2.05,4.81,0.61,7.37C586.46,356.87,585.13,354.51,586.26,351.95z M589.84,398.22c-1.13-1.54-1.33-2.46-0.92-4.3
		C590.15,395.56,589.94,396.48,589.84,398.22z M592.91,395.56c3.48,1.64,6.76,1.95,10.13,2.97
		C598.34,399.25,594.14,398.12,592.91,395.56z M614.92,402.11c0.51-1.13,0.92-0.31,1.84,0.2
		C615.74,402.63,615.23,402.83,614.92,402.11z M616.97,399.96c0.92-0.51,1.64-0.51,2.46,0C618.5,401.6,617.79,400.99,616.97,399.96z
		 M626.08,401.4c-0.73-0.73,0.31-0.92,1.13-0.51C627,401.4,626.39,401.7,626.08,401.4z M642.25,399.15
		c-0.92-2.76,1.13-2.97,2.25-3.79C644.1,396.69,643.58,397.92,642.25,399.15z M648.23,391.06c-0.01,0.35-0.48,1.6-1.68,4.4
		c-0.82,0.72-1.33-0.41-1.95-0.1c1.46-1.46,3.46-4.73,3.61-4.37c0.4-1,0.83-2.08,2.43-1.98
		C650.55,390.53,649.84,391.35,648.23,391.06z M651.06,379.29c-2.84,14.64-18.91,20.41-21.19,16.99c-1.71-2.99,0.95,4.42-30.3-1.95
		c-21.05-4.29-10.29-3.74-13.72-7.17c0.82-0.31,1.74,0.41,1.95-0.72c0-1.99-4.26,1.56,0.2-18.32c2.78-12.39,0.17-17.17,2.15-20.88
		c1.75-3.27,3.05-6.66,3.99-10.24c1-3.79,3.58-7.06,3.79-10.95c1.95-0.41,2.87,1.64,4.81,1.54c-0.92-2.35-4.43-2.45-4.2-5.22
		c0.15-1.74-0.61-3.69,0.92-5.22c2.05,0.2,3.38,2.76,5.73,1.74c-0.2-1.54-2.25-1.43-2.66-3.07c2.25-1.95,4.4-4.09,7.47-5.43
		c2.87,2.76,6.24,3.79,10.75,2.56c-2.76-2.35-6.65-1.43-8.7-4.5c7.08-8.4,12.08-17.49,10.44-35.52
		c-2.79-30.77-22.8-40.74-13.51-41.67c2.56,4.81,6.45,8.29,9.83,12.28c27.58,32.57,24.09,36.41,37.88,32.96
		c6.14-1.95,8.09-4.61,7.88-10.95c-0.2-6.35-1.54-12.49-4.2-18.43c6.22,4.44,19.04,43.36,22.52,51.39c1.92,4.44-5.7,15.94-4.5,18.32
		c-1.64-0.2-2.05,1.02-2.35,2.25c-1.23,3.99-2.66,7.99-2.76,12.18C672.87,347.29,654.32,362.47,651.06,379.29z M674.09,389.22
		c-3.08,0.88-6.45,0.82-10.03,1.23c0-6.54-1.32-5.07-8.19-2.66c0.2-2.15-0.72-3.69-2.56-4.4c0.23-6.95,8.28-20.87,13.1-25.59
		c3.26-3.19,4.37-10.9,7.78-15.05c4.09-4.99,0.35-13.18,4.09-25.8c7.26,19.66-4.08,25.02,4.2,51.29
		c3.37,10.68-1.01,20.01,1.43,21.81C680.23,391.67,677.46,388.25,674.09,389.22z M455.63,526.29c2.05-0.61,2.87,0.92,3.99,1.84
		C458.19,527.83,456.65,527.72,455.63,526.29z M593.11,533.05c-3.53,13.91-5.92,23.46-18.84,30.2c-3.55,3.03-9.39,19.1-22.62,13.1
		c-9.25-4.19-12.88-6.76-20.88-7.58c-15.66-1.59-33.87-18.92-37.77-24.36c-2.08-2.89-5.64-3.81-15.15-11.26
		c-3.27-2.56-7.68-2.87-11.88-2.56c-0.2,0-0.41,0.61-0.51,0.82c0.1,1.64,1.84,1.54,2.56,2.87c-1.33,1.02-1.64,2.76-2.46,4.5
		c-18.82-2.02-2.96-1.08,0.1-2.56c-1.18-7.58-9.32-1.26-9.32-7.06c9.6,3.66,6.24,0.74,6.86-0.92c-23.76-17.56-4.65-23.58-3.89-25.18
		c-2.02-4.05-16.43,4.16-7.17,18.63c-7.24-2.05-12.08-12.71-3.89-19.04c9.78-7.57,9.94,1.31,24.98,6.24
		c15.56,5.11,20.5,8.57,30.61,9.42c7.78,0.65,15.35,2.58,22.83,4.91c5.63,1.76,8.98,6.16,11.98,10.85
		c3.14,4.92-6.83,8.63-3.48,11.98c7.28-5.82,6.45-10.19,6.45-26.51c11.16,3.69,22.21,4.81,33.48,2.25c0-1.13-1.02-0.61-1.54-1.23
		C598.81,519.09,602.51,496.01,593.11,533.05z M729.68,572.36c-0.61,0.51-1.23,0.61-1.64-0.61
		C729.06,571.33,729.27,571.85,729.68,572.36z M665.49,467.12c4.4,0.82,8.39-1.23,12.69-1.54
		C671.94,471.62,668.77,472.03,665.49,467.12z M678.39,475.72c-2.87-1.95-6.04-0.51-8.91-1.95c3.58-0.41,6.35-2.56,9.11-4.4
		C679.62,471.52,679.62,471.52,678.39,475.72z M697.74,455.86c-3.38,4.71-5.02,9.52-6.65,14.74
		C687.6,462.72,688.12,461.49,697.74,455.86z M695.49,512.37c1.43-4.67-1.79-4.98,0.61-12.8c1.7-5.55-1.08-14.87-1.74-16.48
		c-5.94-14.63,7.87-28.14,16.99-38.9c2.48-2.48,4.18,0.97,8.09-0.82c-1.86-3.72-9.54-0.6-12.28,2.46
		c-3.55,3.95-24.32,18.12-42.07,18.12c-1.64-3.58-1.64-5.32,0.2-10.34c5.32-0.1,9.62-3.58,14.43-5.73
		c-6.67,0.74-15.35,4.1-13.82,0.31c12.11-30.08,10.05-23.04,38.7-50.88c9.21,3.28,18.66,5.64,26.92,11.06
		c1.12,0.73,2.25,1.21,3.69,1.33c5.64,0.46,10.34,5.84,10.34,11.36c0,5.53-0.1,10.95-0.1,16.48c0,6.58-3.03,5.42-3.38,10.34
		c-1.47,20.95,0.07,27.77-9.21,45.25c-10.96,20.64-18.2,33.91-22.83,47.81c-3.38,0.61-7.17-0.2-9.93,3.99
		c-0.82-3.48,0.51-6.14-0.82-8.91c-1.74,2.46-1.13,5.53-2.76,7.98c-2.46,0.31-5.02,1.33-7.98,0.61
		C691.49,533.87,692.26,522.89,695.49,512.37z M713.91,555.77c-0.72,1.33-1.74,0.72-2.76,0.72
		C712.07,555.88,712.79,555.16,713.91,555.77z M701.22,546.76c-9.36,3.79-5.87,9.25-15.97,8.91
		C690.97,546.27,677.8,549.75,701.22,546.76z M681.05,587.82c-4.97,0.26-9.48-1.63-15.36-2.25c5.18-2.83,1.55-4.72,5.12-9.73
		c8.08-10.1,4.91-19.49,4.91-21.7c0.46-1.55,2.31-1.58,3.79-1.95c0.51,1.54,0.92,2.66,1.23,3.69c5.73,3.48,10.3,3.13,14.54-1.33
		c7.31-7.7,9.81-5.1,11.06-6.35c1.36-1.36-1.2-1.83-1.54-2.76c1.74-2.15,4.09-1.02,6.35-1.13c-0.51,2.87-0.92,5.53-0.1,8.19
		c-2.56,2.35-6.86,0.92-9.11,4.2c1.13,1.54,2.76,0.31,3.99,0.82c-0.1,1.23-1.74,0.82-1.95,2.05c1.33,1.23,3.17,0.31,4.61,0.92
		c-0.1,0.82-1.33,0.72-1.13,1.84c2.25,1.02,4.6,0.88,7.06,0.61c16.7-1.8-1.8,1.35-3.38,2.66c1.95,1.84,4.2,1.02,6.24,1.43
		c-0.1,0.82-1.23,0.92-1.13,1.74c2.97,1.23,3.07,1.23,9.21-0.61c-1.74,1.95-0.2,3.79-1.13,5.43c4.71,2.35,6.14,2.46,8.39,0.72
		c4.4,1.84,7.99,5.1,12.39,6.96c2.87,1.22,2.35,4.4,2.66,7.17C716.74,595.88,707.34,586.43,681.05,587.82z"/>
	<path d="M206.15,112.71l0.1,0.1C206.22,112.71,206.27,112.71,206.15,112.71z"/>
	<path d="M152.61,340.18l-0.1-0.1C152.51,340.1,152.6,340.16,152.61,340.18z"/>
	<path d="M337.39,311.62c3.38,5.84,6.24,11.26,7.98,15.97c-3.28,7.37-4.5,14.43-6.35,21.4c-4.81-0.31-9.42,2.15-14.02-0.1
		c-2.76-5.73-4.3-11.98-7.58-17.51c-1,0.5-1.56-1.82,5.94,17.61c-3.79,1.33-7.78,0.51-11.88,0.92
		c-11.62-28.81-9.39-16.53,3.38-19.45c-3.58-1.84-7.47-0.82-11.47-1.64c1.54-5.12,5.32-8.91,6.96-13.62
		c8.5-2.66,17.51-1.13,25.8-3.89c-8.29,0.31-16.58,0.31-24.47,1.74c-5.9-3.06-3.89-19.32-4.91-30.51
		c-0.94-10.24,6.2-40.69-1.95-59.78c-2.97-6.96,6.36-23.23,0.2-33.99c-6.47-11.3,7.97-16.58,3.58-37.16
		c-4.96-23.23-3.42-28.76-13.51-33.37c-9.96-4.55-10.49-10.22-16.48-13.82c-0.61-3.48,0.1-9.21,1.54-12.69
		c1.33,0.1,2.35-0.9,3.79-0.82c6.37,0.35,5.52-6.6,7.88-10.75c3.93-6.92,1.66-11.8,4.81-20.37c1.43-3.89,0.2-7.88-1.33-11.57
		c-1.84,14.02-2.76,28.25-9.11,40.74c-6.35,1.13-11.67-0.92-17.4-2.25c0.67,3.84,5.09,1.37,6.15,3.79h-0.01
		c4.14,0,0.38,2.38,1.64,16.17c0.6,6.6,1.47,1,4.71,7.88c3.16,6.71,6.15,21.23-0.82,23.75c-2.56,0.93-5.22,1.84-7.78,2.76
		c-12.52-7.65-19.58-23.54-29.28-35.11c-3.38-2.76-6.45-6.04-9.83-9.73c12.92-5.13,8.15-24.61,14.13-37.26
		c-2.56,0.1-4.2-0.31-4.3-2.66c3.03-0.3,2.8,1.46,3.69-6.96c-1.33-1.74-3.69-2.56-2.97-5.94c4.4,3.28,3.48,8.29,5.73,13
		c13.72-33.38,12.36-24.25,15.46-25.8c-0.41-2.15,2.46-1.43,2.76-3.38c-0.51-1.13-1.23-2.46-1.95-3.89
		c-1.23-0.31-2.76,0.51-3.58-1.23c1.74-2.56,2.97,0.21,4.4,0.51c2.04,0.42,2.25,2.46,3.07,3.58c2.05-0.31,0.51-1.84,1.54-2.56
		c1.64,0.72,3.17-0.79,5.12-0.61c5.42,0.49,10.75,2.46,16.07,0.1c0.92,1.99,0.11,8.73,2.35,12.28c4.82,7.62-13.98,4.79-8.09,16.58
		c1.02-1.23-0.1-3.07,1.43-4.2c2.35,1.33,4.5-0.51,6.96-0.82c0.82-3.48,3.29-6.97,2.15-10.24c-1.72-4.92-1.54-10.03-2.46-14.64
		c2.25-3.48,6.04-4.3,8.91-7.06c-1.23-1.23,0.2-2.66-0.1-4.09c-1.95-1.33-3.79,0-5.73-0.31c1.02-1.84,3.99-1.33,4.09-4.09
		c-2.35-2.15-4.3,0.31-6.45,1.02c-0.1-2.66,1.13-5.22-0.82-7.58c-1.84,1.33-2.56,3.38-4.61,3.99c0-4.98-8.66,1-11.67,0.2
		c-5.14-1.36-10.13,0-14.54-0.51c-2.05,0.82-1.95,3.58-4.2,3.07c-1.92-9.58,0.03,2.39-11.88,2.66c-1.95-1.33-3.48-4.09-6.55-2.56
		c-0.41,1.95,1.84,2.46,2.15,3.99c-1.97,1.37-1.78,3.96-3.02,5.79c1.13,0.28,2.18-0.08,3.22-0.27c1.23,0.31,1.33,1.74,2.35,2.25
		c1.02,0.41,1.74-0.92,2.76-0.31c0.61,0.92,0,1.43-0.92,2.25c-2.46-2.25-4.91-1.02-7.37,1.02c0.1-1.84,1.64-2.15,1.84-3.28
		c-0.09-1.12-0.78-0.98-1.47-1.17c0.22,0.06,0.47,0.09,0.64,0.1c-0.4-0.14-0.84-0.23-1.15-0.49c-0.05,0.06-0.03,0.12,0.02,0.18
		c-0.03-0.02-0.06-0.03-0.09-0.05c-2.76,0.2-0.51,2.15-1.13,3.28c-1.74,3.18-3.07,6.65-3.48,10.34c0,0.4-4.87,7.49,0.2,17.1
		c2.41,4.55-1.1,3.31,1.23,9.01c5.24,12.8,2.82,22.55,0.82,29.89c-1.35,4.97-3.47,5.26-15.05,10.13
		c-5.69,2.4-17.77,13.12-16.91,16.08c3.49,0.95,7.49-10.18,21.42-14.24c1,3.73,9.18,17.77,7.17,15.77
		c6.16,7.09,6.82,25.63,7.27,35.63c0.4,9.11-4.5,15.56-9.52,22.21c-5.78-3.15-5.26-6.5-8.39-10.54c-6.19-7.99,1.97-11.15-1.13-12.39
		c-2.15,3.38-5.12,6.65-5.02,10.95c0.53,22.9,1.26,39.5-9.11,52.72c-5.58,7.12-0.78,9.8-2.56,31.43
		c-2.56,31.11-12.95,48.2-0.31,66.34c-3.38,6.65-3.69,14.33-7.06,21.09c0.72,3.99,4.09,6.96,5.32,11.57
		c-3.99,0.51-6.04-3.07-9.21-3.17c0.41-3.48-1.33-5.73-2.25-8.29c-1.02,2.87-1.02,5.63,0.92,8.09c-1.13,0.51-1.84,1.23-2.35,1.02
		c-1.95-0.8-1.74-2.56-2.87-3.38c-1.13-0.92-2.56,0.2-4.2-0.72c-0.55-9.54,3.02-15.23,2.15-33.78c-1.54-32.88-1.47-13.43-4.81-35.73
		c-3.76-25.04,1.98-41.16-1.43-45.25c-1.43,1.02-0.81,2.15-0.72,3.17c0.44,4.78-5.8,18.84,0.41,48.22
		c0.98,4.63,7.38,36.45,3.07,42.38c-1.84,0.51-0.92-1.23-2.46-1.33c-3.21,1.56-25.22,4.61-26.92,4.61
		c-2.46,7.06-3.38,14.13-3.89,21.29c0,0.1,7.61,18.26,11.16,15.66c0.32-2.42-6.21-8.04-8.32-15.73c2.29,0.4,4.49,0.84,6.89-1.05
		c-3.96-1.13-6.79,1.49-6.95,0.84c-1.27-1.02,0.05-0.54,1.83-13.02c0.31-2.15,0.61-4.2,1.02-6.45c3.89,0.82,7.17-0.92,10.44-1.13
		c-1.43,4.61-2.76,9.21-2.66,14.13c7.27-14.95-5.93-10.3,20.06-15.87c-0.71,20.57-3.94,22.38,3.99,22.21
		c1.02,1.54,1.74,3.67,3.99,3.89c4.92,0.48,9.62,2.56,14.64,1.43c7.04,10.56,4.66,9.03,31.02,3.79c4.25-0.84,3.43-2.63-0.2-2.05
		c-0.3,0.05-23.25,4.24-23.55,4.3c-18.28-26.78-10.38-13.22-5.94-38.7c1.66-9.53-7.62-6.13-4.3-31.43
		c1.08-8.2,2.46-16.58,5.43-24.36c5.84,3.07,9.11,3.79,15.66,3.07c-2.25-0.1-0.72-2.66-2.15-3.17c-1.43,0.41,0,1.74-1.02,2.15
		c-6.41,0-1.57-3.25-4.4-4.2c-1.56,0.55-0.67,8.39-2.04-0.92c11.98,1.09,24.63,7.48,57.83,11.47c-1.74,1.13-1.23,2.56-2.05,3.58
		c-1.23,0.31-2.46,0.41-3.48-0.1c-1.02-0.92,0.82-1.95-0.2-2.87c-1.43,0.51-0.82,2.15-1.95,2.66c-1.43,0.41-2.87-0.2-4.5,0.51
		c3.89,2.56,1.33,7.17,3.69,11.16c0.31-3.69,0.61-6.55,0.92-9.42c1.4,0,3.49-0.3,4.61,0.82c0.51,10.75,5.32,20.78,6.96,31.53
		c0.2-11.06-5.94-20.99-5.63-31.94c1.32-0.33,3,0.18,2.76,0.41c4.71-1.33,9.73-1.23,14.43-2.97c0.51,0.82-0.2,2.35,1.33,2.66
		c1.64-6.24,2.25-10.13-1.43-12.18c4.17-24.6,0.8-29.29,6.86-43.1c4.77-10.87,3.99-22.62,5.94-33.88c-0.6-0.02-1.05,0.28-1.23,0.92
		c-1.05,3.78-2.85,7.37-3.07,11.47c-0.84,15.83-8.5,26.36-8.5,41.77c0,30.32-1.04,27.95-24.77,25.18c-1.33-4.2-0.82-8.5-2.46-13.1
		c-0.41,4.81,0.82,8.7,1.23,12.59c-3.79,0.51-49.55-9.32-53.23-11.57c0.82-5.12,0.81-10.45,2.05-15.66
		c1.32-5.53,1.76-11.36,1.43-17.1c-0.25-4.48,2.53-5.57,5.32-15.87c0.92-3.38,3.28-6.04,3.28-9.52c2.15-0.51,2.97,1.64,4.91,1.33
		c-0.92-2.15-4.12-2.25-4.3-4.71c-0.77-10.79,3.26-2.14,6.76-3.89c-0.2-1.54-2.35-1.33-2.56-2.97c11.34-11.34,5.12,0.07,18.28-2.84
		c0.32-0.97-6.73-1.82-8.66-4.13c0-2.63,12.96-8.62,9.83-38.29c-2.94-27.93-22.49-38.28-13.21-39.21c2.15,4.09,5.44,6.95,8.29,10.24
		c23.01,26.5,26.31,38.66,37.16,35.42c9.62-2.88,11.37-5.31,10.13-15.25c-0.93-7.49-2.09-10.19-4.2-15.25
		c6.98,5.88,19.4,43.57,22.93,52.11c1.66,4-3.69,10.66-5.18,18.16c0.52,0.08,0.99,0.18,1.09,0.88c2.58,20.12,1.3,11.42,0,30.92
		c-0.98,14.72,5.2,16.47,4.71,28.56c-0.44,10.68-4.36,58.76,1.43,72.27c-1.43,3.07-2.76,5.94-4.2,8.91
		c0.2-4.52-5.1-21.81-6.14-35.52c-0.94-12.4-13.28-21.25-7.27-12.28c3.91,5.84,4.76,10.85,7.06,26.31
		c0.02,0.1,5.92,32.85,6.96,35.63c0.48,1.92-1.15,4.46,2.56,32.04c0.8,5.94,1.02,11.88,0.51,17.81
		c-18.73,6.45-37.47,4.09-56.41,1.74c0.2-1.12-0.6-2.33,1.1-1.96c-0.84-2.94-3.06-2.34-4.99-1.73c-7.9,2.48-14.17-1.65-23.65-2.76
		c-21.62-2.55-27.01-10.33-36.85-5.73c-2.26,0.75,3.01-9.96,1.74-24.26c2.66-2.15,6.55-2.97,5.94-7.68
		c-1.95,1.64-1.95,1.64-2.76,3.99c-9.03,3.01-9.73,4.2-12.28,4.09c-5.63-0.22-10.83,2.07-16.17,2.97c-0.71,0.12-1.43,0.41-1.13,2.15
		c8.19-0.61,16.07-2.97,24.36-4.5c-1.23,8.7-2.46,17.3-3.69,26.21c5.43,1.23,11.06-3.17,16.38,0.31c1.2,2.06-0.32,18.64,1.43,26.51
		c7.44,33.4-18.46,45.86-12.8,80.67c3.3,20.28,8.54,25.02,13.41,63.27c-9.87,8.8-2.65,21.8-11.77,40.33
		c4.93,6.72,19.01,3.13,24.47,5.43c21.64,9.09,52.46-2.53,56.82-2.15c24.85,2.16,28.98-0.44,39.31-1.95
		c4.77-0.7,3.42-3.57,2.35-9.93c-1.75-10.45-5.48-4.42-17.1-11.88c-8.22-5.27-13-13.72-19.86-20.27c0.41-2.87-0.31-5.63-0.31-8.09
		c-1.51-3.02-3.33,1.24-1.54-8.6c2.03-11.14,5.91-21.91,7.37-33.17c1.41-10.85,6.97-20.58,7.37-31.63
		c0.21-5.83,1.72-11.57,1.02-17.4c-2.55-21.37,6.52-27.88,3.28-41.05c-1.89-7.69,2.3-11.08,5.02-17.51
		c3.99-0.51,7.37-3.38,12.18-2.46c1.84-15.87-2.76-31.33-3.38-47.7c2.25,3.69,2.66,7.37,5.63,10.03c0.72-1.54,2.05-1.21,3.38-1.23
		c22.09-0.31,25.25,0.53,26.31-4.61c0.43-2.06,3.44-16.24,5.94-17.4C346.81,323.08,341.38,312.95,337.39,311.62z M291.94,44.22
		c0.72-0.72,1.54-0.41,2.87-0.61C293.47,45.25,292.76,44.63,291.94,44.22z M300.44,12.59c-0.2,1.23-0.92,2.05-1.74,2.87
		C296.92,14.7,297.73,11.69,300.44,12.59z M292.35,5.43c1.33,1.64,0.1,2.05-1.02,2.97C291.43,7.06,291.84,6.35,292.35,5.43z
		 M289.58,21.29c-0.51,0.31-0.82,0.2-1.13-0.41C289.17,20.27,289.48,20.68,289.58,21.29z M281.09,13.1
		c0.51,0.92-0.51,0.72-0.82,1.02C280.17,13.41,280.47,13.1,281.09,13.1z M281.6,20.37c-1.23-0.2-2.46-0.41-3.17-1.43
		C279.65,18.94,280.68,19.55,281.6,20.37z M273.61,17.81c1.33-0.51,1.64-0.1,1.74,0.51C274.64,18.84,274.33,18.22,273.61,17.81z
		 M276.28,9.01c-1.23,1.13-2.25,1.95-3.48,3.07C273.31,9.11,273.31,9.11,276.28,9.01z M259.49,28.25c1.43,1.64-0.2,2.15-1.02,2.87
		C258.46,30.1,258.36,29.07,259.49,28.25z M257.13,10.24c-0.1,1.23-0.51,2.15-2.05,1.64C255.29,10.75,256.31,10.65,257.13,10.24z
		 M258.57,17.71c-0.61,2.05-2.15,3.38-4.3,5.02C254.88,19.66,257.03,18.94,258.57,17.71z M253.34,35.11
		c-0.1,1.43-0.61,2.05-1.84,2.25C251.3,35.83,252.01,35.32,253.34,35.11z M251.81,46.27c0.41,0.72-0.31,1.02-0.51,1.64
		C250.48,46.99,250.99,46.58,251.81,46.27z M250.07,34.6c-0.2,1.23-1.23,1.13-2.15,1.64C248.23,34.91,248.53,33.99,250.07,34.6z
		 M244.03,33.07c1.54,1.64-0.51,3.07-0.2,4.4C243.52,36.03,243.11,34.6,244.03,33.07z M240.88,17.08c-0.01,0-0.01,0-0.02-0.01
		C240.87,17.08,240.87,17.08,240.88,17.08z M240.55,47.6c1.23,0,1.64,0.92,2.35,1.74c0.1,1.33-1.43,1.74-1.74,3.38
		C239.52,50.78,238.19,49.34,240.55,47.6z M284.06,263.91c1.26,2.3-0.61,3.53-0.61,2.97C282.93,265.86,283.14,264.94,284.06,263.91z
		 M281.09,265.04c1.33,2-0.67,3.01-0.92,2.25C280.06,266.37,279.65,265.35,281.09,265.04z M278.43,265.35
		c0.1,1.13,0.41,2.25-1.23,2.46c-1.02-0.51,0.31-1.43-0.72-2.05c-1.64,0.82-1.74,3.99-4.4,3.38
		C272.28,265.35,273,264.94,278.43,265.35z M212.19,253.47c0.82-0.31,1.43,0.2,2.05,0.41c-1.84-0.2-1.74,1.23-1.84,3.17
		C211.78,255.31,211.99,254.39,212.19,253.47z M209.22,252.86c1.33,0.82,1.13,1.95,0.82,3.79
		C209.02,254.9,209.12,253.98,209.22,252.86z M209.22,225.11c0.1-3.17-1.74-5.53-0.1-8.09
		C209.12,219.48,211.37,221.84,209.22,225.11z M221.81,180.38c0.41-6.35-0.72-12.28-1.84-18.32c1.95,5.32,7.06,7.68,10.85,11.57
		C228.57,176.9,224.89,178.13,221.81,180.38z M306.17,160.31c-3.38-14.33-9.42-27.64-16.28-41.26c6.65,1.74,10.91,5.11,12.28,11.06
		C303.05,133.87,309.1,159.33,306.17,160.31z M199.29,522.5c-2.26-9.44,0.38-10.21-1.54-12.18c-9.05-9.33-6.48-44.11-6.45-46.58
		c0.07-5.02,0.32,5.5,10.95-31.33c1.72-5.94,1.51-12.09,2.87-18.02c0.7-3.07-0.09-6.35-1.02-9.42c-2.23-7.38-2.05-14.95-2.76-22.62
		c2.09-0.61,29.8,4.26,31.12,5.73c2.78-0.28,8.2,3.3,16.79-0.2c-1.33,7.47-1.99,14.31-5.84,20.58c-2.38,3.87-4.45,8.2-3.58,13.1
		c1.12,6.37-4.11,10.05-4.61,17.2c-0.81,3.44-1.4-4.75-6.65,14.02c-3.67,13.11,1.33,13.84-5.32,45.56
		c-3.13,14.9-1.95,36.63-1.84,47.4c-2.15,1.54-4.71,2.76-5.32,5.73c-1.54-0.31-0.92-1.84-1.64-2.56c-0.87,3.04,1.1,1.66-10.24,3.79
		C200.57,538.87,204.66,544.93,199.29,522.5z M248.53,542.46c-0.31,2.25-0.31,4.4-0.92,6.96c-18.51,2.67-0.67,23.3-13,13.82
		c0.31-4.09-0.91-7.78-2.05-11.47c-1.42-4.61-6.24-3.99-9.11-5.73c1.07-12.18-1.86-31.51,5.02-56.71
		c5.11-18.74-2.09-29.97,5.32-40.74c3.63-5.28,2.3-5.6,7.98-19.96c3.37-8.52-2.86-3.88,3.58-18.12c4.83,10.68,2.02,22.06,5.12,29.38
		c2.37,5.6-15.18,23.95-3.69,51.7C249.88,499.04,248.18,498.59,248.53,542.46z M216.18,558.43c-3.99,2.56-9.73,0-12.9,5.12
		c-0.65-0.98-0.68,0.29,0.31-7.27C216.71,552.58,217.28,553.34,216.18,558.43z M248.94,595.8c-14.05,2.25-27.27-2.51-39.92-2.15
		c-5.53,0.16-10.85-0.92-16.48-1.54c1.02-5.94,3.86-11.06,4.5-16.99c0.59-5.43-0.51-11.36,2.05-16.69c0.82,2.87-1.23,5.94,1.54,8.19
		c1.43,0.41,2.25-0.61,2.66-0.72c4.5,2.46,7.18-0.49,10.03-2.25c7.26-4.5,6.83,0.55,5.53-11.16c1.02-1.64,2.56-3.07,4.2-4.2
		c1.43,0.2,2.15,1.52,3.99,1.23c2.62-0.42,3.27,5.51,4.5,11.47c-4.09,1.02-8.5,0.61-12.59,3.38c4.91,0.92,9.32-0.92,13.72,0
		c-3.58,1.64-7.58,1.23-10.95,3.48c0.92,1.23,2.46,0.1,3.38,1.02c-0.55,2.18-3.07,1.64,13.92,1.64c0,1.99-5.73-0.14-10.54,3.69
		c3.07,0.61,5.53,0.1,8.19,0.1c-0.61,1.54-2.76,1.02-3.28,2.97c3.89-0.31,7.68,0,11.47-1.84c4.71,5.12,10.67,8.03,16.79,10.65
		c2.57,1.1,2.05,3.89,3.07,6.45C259.28,593.65,254.16,594.96,248.94,595.8z M288.77,570.41c-1.95,2.97-4.61,0.31-6.96,0.72
		c1.64-1.23,3.99-0.82,5.43-2.46C288.25,569.18,288.66,569.59,288.77,570.41z M274.95,553.62c-1.54,1.54-2.97,1.43-4.3,1.64
		C271.87,554.65,273.1,553.93,274.95,553.62z M273.41,550.96c-1.95,0.92-3.89,0.82-6.24,1.43c1.57-4.72-1.75-8.78,5.02-7.98
		C273,546.35,273.1,548.61,273.41,550.96z M270.54,555.16c-0.51,0.92-1.33,0.51-2.66,0.82
		C269.21,555.06,269.93,555.06,270.54,555.16z M292.55,396.89c-7.51,7.32,1.14,13.76-4.61,31.63c-5.64,17.54,2.16,14.3-4.09,49.75
		c-2.54,14.4-9.71,25.13-14.13,62.96c-4.91,2.76-5.02,3.07-4.2,11.67c-1.02,1.13-2.66,1.74-2.97,3.48c0.51,1.33,1.54-0.1,2.25,0.51
		c-0.2,0.82-1.74,0.72-1.54,1.84c5.22,1.74,10.03-1.02,15.05-1.54c-3.79,2.05-8.39,1.84-11.88,4.91c9.18,2.59,12.99-4.81,15.36,0.51
		c-3.89,0.41-7.88-0.1-11.57,1.64c0.41,1.74,3.69,1.02,2.05,3.48c4.5,0.41,8.6-0.61,12.69-1.02c-2.97,1.54-6.65,1.02-9.62,3.99
		c5.22,0.72,9.32,3.79,14.23,3.99c1.33-0.82,0-2.05,0.92-2.87c2.68,0.89,5.72,5.14,10.03,5.22c7.78,0.15,11.26,5.02,9.93,12.59
		c-14.43,3.38-28.87,2.35-43.51,1.64c-0.2-4.5-2.05-6.86-5.84-8.09c-11.22-3.62-14.48-11.34-20.17-15.25
		c3.48-4.91,0.61-10.54,2.76-16.07c1.74,2.97,3.07,5.32,4.5,7.78c3.28,0.41,5.87-0.39,7.58-3.28c1.15-1.93,3.29-2.43,5.02-3.48
		c3.44-2.1,4.82-0.45,2.87-12.49c-1.6,8.32,0.21,6.52-7.27,8.6c-1.54-1.02-0.51-2.76-1.74-3.89c-1.74,1.43,1.02,5.84-3.48,5.22
		c-0.14-0.46,0.42-40.53,0.51-42.38c0.41-7.88-0.13-15.85-4.91-23.03c-4.41-6.64,1.4-28.93,4.5-37.06c0.82-2.15,0.61-4.5,1.33-7.17
		c2.05,2.15,3.89,3.99,7.06,3.69c-2.15-2.66-3.38-5.94-7.27-6.55c-5.79-13.32,5.6-16.03-5.63-30.3c2.66-4.5,4.2-9.52,4.4-15.25
		C274.18,398.24,299.29,390.32,292.55,396.89z M250.38,553.32c2.05-0.51,3.89-1.02,5.73-1.54
		C252.77,553.62,250.38,561.35,250.38,553.32z"/>
	<path d="M252.12,387.37v-0.1C252.08,387.27,252.1,387.32,252.12,387.37z"/>
	<path d="M582.98,246.92l-0.1-0.1C582.88,246.96,582.89,246.95,582.98,246.92z"/>
	<path d="M554.32,322.78c6.62,17.1,0.43,30.63,8.5,44.02c-1.84,1.64-2.69,3.69-2.15,5.94c1,4.19-2.46,7.73,2.66,9.83
		c-0.92-4.4-1.95-8.91-0.92-13.82c5.12,6.96,7.27,9.01,11.16,10.95c-3.3-6.33-7.39-4.45-9.83-13.92
		c-3.78-14.68-4.27-14.53-4.09-19.86c1.11-34.14-9.09-9.03-2.66-57.53c0.78-0.33,1.95,1.15,1.95-0.61
		c-1.67-15.05-2.79-16.97,10.75-32.66c5.09-5.9,13.75-2.77,13.22-8.17c-17.53,3.46-28.47,10.98-27.45,34.79
		C556,294.66,548.19,306.95,554.32,322.78z"/>
	<path d="M184.24,230.34c2.44,4.49-1.52,2.04-1.02,6.86c0.78,7.53-2.03,8.99,2.56,10.95c-0.61-4.4-2.05-8.8-0.61-13.62
		c2.15,2.05,2.05,5.53,5.43,5.84c0.46-0.46-1.51,0.7,5.02,4.3c-1.23-1.95-2.15-4.2-4.71-4.81c-0.02,0.02-0.05,0.04-0.07,0.07
		c-14.85-28.21-4.38-31.34-10.78-49.21c-1.24-3.47-2.66-7.06-2.66-10.54c0-8.91,0.92-17.71,2.46-26.41
		c1.34-0.38,2.32,2.37,1.43-3.48c-2.14-14.08,0.25-17.66,11.77-30.61c0.92-1.03,1.84-1.87,3.28-2.15c3.47-0.68,6.65-2.94,10.44-2.15
		c0.51,0.11,1.43-0.2,1.74-0.92c-0.41-1.33-2.76,0.2-2.46-1.95c-2.15-0.1-4.09,1.13-6.35,1.64c-4.61,0.51-8.8,2.26-12.18,5.43
		c-13.01,12.18-7.14,24.05-11.16,42.18c-4.53,20.44,0.28,22.72,2.25,33.37C182.17,214.33,178.23,219.27,184.24,230.34z"/>
	<path d="M614.72,441.73c18.33,31.35,12,24.1,19.45,2.56c5.1-14.76,0.19-13.08-6.76,15.05c-2.46-4.61-4.71-8.6-6.96-12.8
		c4.2-6.14,6.03-13.51,11.77-18.73c1.77-1.61,2.98-3.88,4.4-5.84c3.71-5.1,2.35-10.34-0.1-15.46c-0.31-0.51-0.61-0.82-1.54-0.2
		c1.13,2.97,1.95,6.24,2.66,9.32c-5.11,8.81-12.86,14.81-13,16.99c-0.31,4.81-3.89,8.09-5.12,12.49c-2.35-1.13-3.07-3.28-4.71-5.12
		c-7.88,0.41-15.36,4.91-23.75,4.09c-0.1-6.76,3.17-13,2.56-19.76c-2.35,6.65-5.02,13.21-5.22,20.17c-0.2,1.33-2.05,0.92-2.05,2.35
		c2.87,0.72,5.12-1.76,7.78-1.54C603.11,446.07,611.94,440.81,614.72,441.73z"/>
	<path d="M252.12,387.68c0.72,0,0.72,1.33,2.15,0.72c1.43-3.48,2.21-7.37,2.46-11.36c1.14-18.48,9.72-22.85,12.9-39.72
		c1.64,0.61,2.25,2.66,4.5,3.17c-1.43-2.76-3.28-4.4-5.53-5.63c-0.2-2.87,0-5.63,1.43-8.5c8.29,3.79,15.87,8.39,23.03,13.72
		c-4.56-7.48-17.82-12.17-23.34-16.17c-5.83,8.21-1.17,13.55-2.46,17.4c-6.89,20.64-11.71,20.76-13,33.17
		C253.81,378.87,253.86,383.48,252.12,387.68z"/>
	<path d="M239.63,347.96c2.35,1.54,3.07-0.51,3.89-1.84c6.21-8.22,4.27-17.28,6.55-21.09c-14.64-30.9-12.89-16.59-35.11-15.66
		c-2.05,0.09-4.2,0.92-5.84,2.46c9.52-1.64,19.25-1.74,28.05-5.63c3.99,7.06,7.68,13.51,11.26,19.86
		C245.87,331.36,244.1,344.23,239.63,347.96z"/>
	<path d="M652.39,185.39c2.16-4.33,2.83-1.17,4.3-2.97c0-5.41-7.21-3.73-9.32-4.2c-3.69-0.82-5.73,1.23-8.19,3.38
		c4.2-2.15,8.09-1.33,12.69,0.41c-3.99,0.61-7.58,0.41-10.44,2.76C645.12,185.39,648.7,186.11,652.39,185.39z"/>
	<path d="M539.17,493.12c1.71,0.41,36.23-3.6,32.14-12.8c-1.84,0.92-1.74,2.76-2.56,3.99c-5.91,1.82-8.68,4.19-11.98,4.09
		c-5.63-0.16-10.75,1.84-16.07,2.87C539.88,491.38,538.96,491.48,539.17,493.12z"/>
	<path d="M276.89,47.19c0.41-0.72,0.51-1.74,1.33-2.35c0.92-0.51,2.25,0.61,2.97-0.82c-0.22-5.17-7.39-3.73-9.73-4.09
		c-3.38-0.52-5.63,1.23-8.29,3.38c2.56,0.72,3.69-1.43,5.73-1.64c1.74,1.64,4.61,0.61,7.06,2.15c-3.89,0.31-7.37,0.61-10.13,2.76
		C269.52,47.4,273.1,47.6,276.89,47.19z"/>
	<path d="M273.61,367.21c2.38,2.97,9.4,6.76,12.59,10.34c0.41,0.51,0.72,1.54,1.54,0.72c-2.66-6.35-9.73-8.6-13.51-14.02
		c3.58-4.88-0.18-6.18-2.76-16.89c-0.31-1.02-0.31-2.15-1.84-2.76c0.51,3.99,0.97,7.9,2.46,11.47
		C275.45,364.13,269.94,362.62,273.61,367.21z"/>
	<path d="M594.55,401.29c2.15,5.02,7.27,5.63,11.36,7.58c-1.54,6.65-1.64,9.32,2.66,9.83c-1.54-3.48-0.72-6.96,0-10.95
		C603.45,406.11,598.13,405.49,594.55,401.29z"/>
	<path d="M626.18,461.28c-2.38,0.79-2.83,12.67-9.01,22.01C622.5,481.96,626.59,471.52,626.18,461.28z"/>
	<path d="M627.1,212.83c-0.82-2.15-1.23-4.61-2.66-7.27c-0.61,2.97,0,5.22-0.1,7.68c2.46,1.74,4.74,3.64,7.27,5.12
		c2.38,1.39,3.89,4.3,7.06,4.3C636.32,217.44,630.79,216.41,627.1,212.83z"/>
	<path d="M287.03,296.77c1.95,7.58,5.73,14.37,8.5,21.6C295.93,319.43,302.02,325.19,287.03,296.77z"/>
	<path d="M200.73,215.29c-1.72,1.72,1.93,11.68-1.33,20.17C203.59,231.15,204.1,219.28,200.73,215.29z"/>
	<path d="M576.94,350.21c-0.25,8.58,3.14,0.6-0.2,20.68c2.87-1.23,1.23-3.07,1.95-4.5C581.25,361.19,581.06,349.11,576.94,350.21z"
		/>
	<path d="M212.81,260.74c-2.05,2.66-4.71,11.77-5.12,17.81C214.03,264.63,214.44,263.3,212.81,260.74z"/>
	<path d="M567.42,305.17c-1.33,3.17,0.51,5.84,0.72,9.01c-1.95,2.25-1.74,4.61-0.61,7.27C569.88,318.26,570.93,306.22,567.42,305.17
		z"/>
	<path d="M278.84,78.93c3.07,1.33,5.94,0.82,9.32-0.51C284.47,74.01,280.68,74.42,278.84,78.93z"/>
	<path d="M274.84,73.3c5.12,0.82,10.13,0,15.87-0.82C288.15,70.74,276.58,71.35,274.84,73.3z"/>
	<path d="M650.44,210.99c0.31,1.74,1.74,1.33,2.87,1.23c3.99-0.61,8.29-0.31,12.9-1.74C663.34,209.04,652.59,209.66,650.44,210.99z"
		/>
	<path d="M563.43,384.61c0.72,7.78,0.82,15.77,5.12,22.62C565.99,399.86,565.68,391.98,563.43,384.61z"/>
	<path d="M654.54,216.72c2.66,1.84,5.84,1.64,8.7-0.41C660.68,212.42,656.69,212.52,654.54,216.72z"/>
	<path d="M205.84,302.51c2.46-6.04,2.97-12.28,3.79-18.53C207.38,287.05,205.13,299.13,205.84,302.51z"/>
	<path d="M196.02,373.35c-2.05-5.12-3.07-10.65-4.91-15.97C190.28,362.19,192.54,369.87,196.02,373.35z"/>
	<path d="M240.55,297.7c0.2-5.53,0.41-10.34-1.95-14.74C237.99,287.77,238.5,292.37,240.55,297.7z"/>
	<path d="M274.02,102.78c0.31-3.35,1.12-5.69,2.43-7.82c-0.63-0.67-0.67-1.57-0.76-2.44c-0.36-3.69-2.06-1.11-1.77-0.29
		c0.82,2.97-0.82,5.12-2.56,7.47C272.49,100.22,273.1,100.94,274.02,102.78z"/>
	<path d="M237.48,279.99c-0.41-5.12,3.99-8.6,4.71-13.72C238.19,268.93,236.04,274.97,237.48,279.99z"/>
	<path d="M191.72,272.31c-2.08-3.42-2.12-11.23-3.99-13.82C186.5,262.07,188.34,269.03,191.72,272.31z"/>
	<path d="M235.63,261.25c-1.54,0-1.23-1.74-2.56-1.64c-1.23,1.54-0.72,2.76,0.72,3.99c1.54-1.84,4.81,0.92,6.24-2.35
		C238.3,259.51,236.76,260.53,235.63,261.25z"/>
	<path d="M220.59,270.46c5.84-3.17,7.68-6.35,5.63-9.32C224.48,264.12,222.74,266.88,220.59,270.46z"/>
	<path d="M202.77,169.01c-2.76,3.07-2.56,6.86-2.35,10.65C200.09,173.88,207.69,170.77,202.77,169.01z"/>
	<path d="M560.87,288.48c-0.2,3.89,2.56,7.17,7.17,8.5C565.07,294.21,563.32,291.04,560.87,288.48z"/>
	<path d="M281.6,118.03c-4.71-0.41-8.09,1.54-9.32,5.22C274.95,121.11,278.43,120.29,281.6,118.03z"/>
	<path d="M649.42,258.49c2.87-2.35,5.94-3.58,8.8-5.43C654.03,252.45,650.14,254.8,649.42,258.49z"/>
	<path d="M234.71,114.14c-4.2-2.76-8.7-2.05-13.31-1.13C235.18,114.4,233.68,115.52,234.71,114.14z"/>
	<path d="M183.53,152.74c-0.61,4.4,2.87,8.5,6.96,9.11C187.83,159.29,185.98,156.22,183.53,152.74z"/>
	<path d="M577.25,314.79c1.84-1.54,0.38-3.4,1.54-4.71C585.31,302.68,577.7,299.57,577.25,314.79z"/>
	<path d="M189.87,170.04c-0.72,3.79,0.41,6.86,1.54,9.93C192.95,176.59,192.54,172.8,189.87,170.04z"/>
	<path d="M215.77,267.8c-1.74,2.25-1.54,6.76,0.31,9.73C216.7,274.15,217.41,271.08,215.77,267.8z"/>
	<path d="M217,333.22c2.35,5.02,6.55,8.6,10.03,12.8C224.17,341.31,221,336.9,217,333.22z"/>
	<path d="M217.72,325.34c1.74-4.3,3.17-8.8,3.48-13.51C219.05,316.12,218.03,320.63,217.72,325.34z"/>
	<path d="M595.16,459.44c1.74-4.2,2.97-8.5,3.48-13C596.49,450.54,595.57,454.94,595.16,459.44z"/>
	<path d="M288.77,62.24c-4.3-1.13-5.94-0.51-6.76,2.66C288.36,63.57,288.36,63.57,288.77,62.24z"/>
	<path d="M664.57,201.57c-2.26-3.08-9.44-0.95-6.24,2.05C659.76,201.06,662.62,203.82,664.57,201.57z"/>
	<path d="M595.37,469.58c2.35,4.5,6.14,7.88,9.32,11.67C603.5,479.2,596.32,468.62,595.37,469.58z"/>
	<path d="M243.72,91.21c-0.41,2.97-0.61,5.63,0.61,9.11C245.97,94.59,245.87,93.16,243.72,91.21z"/>
	<path d="M189.67,138.1c-0.2-5.12,1.84-9.83,2.87-14.74C189.57,127.86,189.16,132.88,189.67,138.1z"/>
	<path d="M279.04,280.6c-1.84-2.97-2.05-7.06-5.63-9.01C273.82,275.48,276.79,277.84,279.04,280.6z"/>
	<path d="M318.56,324.82c2.15-3.17,3.79-6.55,4.4-10.44C320.81,317.56,319.27,321.14,318.56,324.82z"/>
	<path d="M258.46,89.17c0.1,3.38,0.51,6.55,2.15,9.62C260,95.51,261.23,91.93,258.46,89.17z"/>
	<path d="M542.24,477.36c1.74,4.09,5.02,6.76,9.01,9.83C548.17,483.29,544.8,480.73,542.24,477.36z"/>
	<path d="M635.8,224.09c0.1,3.17,0.41,6.35,1.95,9.21C637.75,230.13,638.06,226.85,635.8,224.09z"/>
	<path d="M249.76,278.14c1.13-3.38,1.13-6.04-0.72-8.91C247.71,271.9,247.92,273.54,249.76,278.14z"/>
	<path d="M191.41,179.97c-2.35,1.23-2.66,2.76-1.13,6.65C192.54,184.68,192.02,182.32,191.41,179.97z"/>
	<path d="M257.95,290.53c1.13,4.2,2.76,8.09,5.22,11.36C264.33,301.31,264.3,302.56,257.95,290.53z"/>
	<path d="M185.68,249.17c0,3.58-0.41,6.65,2.05,9.21C188.03,254.09,187.62,251.63,185.68,249.17z"/>
	<path d="M621.57,234.33c1.43-2.76,1.43-5.53-0.1-8.19C620.86,228.8,620.55,231.56,621.57,234.33z"/>
	<path d="M569.77,258.18c-1.95,3.28-3.07,6.65-2.56,10.54C567.52,265.14,569.36,261.87,569.77,258.18z"/>
	<path d="M571.72,395.36c0-2.87-0.2-5.84-1.43-8.6C569.67,389.83,569.98,392.8,571.72,395.36z"/>
	<path d="M258.57,372.84c0,2.87,1.02,5.43,2.76,7.68C261.13,377.75,260.82,374.99,258.57,372.84z"/>
	<path d="M273.51,138.3c0.82-3.07-0.72-5.43-2.35-7.78C271.36,133.29,272.08,135.95,273.51,138.3z"/>
	<path d="M650.65,273.54c0.72-3.38,0.1-5.43-2.97-8.5C649.01,268.21,649.21,270.87,650.65,273.54z"/>
	<path d="M193.15,251.94c-0.82,3.07-0.41,5.94,1.23,8.7C194.69,257.67,193.97,254.8,193.15,251.94z"/>
	<path d="M260.51,88.14c0.72-1.95-0.72-3.38-1.02-5.12c1.33,0.2,2.15,1.95,4.3,1.13c-3.58-4.2-8.09-6.45-11.88-9.01
		c-1.95-4.4-3.07-8.5-2.97-12.9c-3.82,10.69,1.78,14.22,9.11,19.45C257.34,83.64,258.57,86.91,260.51,88.14z"/>
	<path d="M191.31,287.15c0.72,2.56,1.43,5.12,2.87,7.47C194.58,291.66,194.07,288.99,191.31,287.15z"/>
	<path d="M260.72,101.96c-0.51,3.17,0.31,5.22,2.46,7.37C262.97,106.47,262.35,104.42,260.72,101.96z"/>
	<path d="M591.68,411.33c-2.35,3.07-2.46,3.58-1.23,6.86C590.97,415.83,592.4,414.09,591.68,411.33z"/>
	<path d="M569.06,422.18c0.41,3.07,0.92,5.43,2.66,8.09C572.03,426.89,571.31,424.64,569.06,422.18z"/>
	<path d="M565.17,414.6c0.41,2.56,1.54,4.81,3.28,6.76C568.55,418.49,566.4,416.75,565.17,414.6z"/>
	<path d="M165.51,342.94c0.92,3.07,2.97,5.22,5.84,6.45C169.4,347.24,167.46,345.09,165.51,342.94z"/>
	<path d="M638.16,236.78c-0.82,3.17,0.2,5.12,2.05,7.47C640.41,241.19,639.59,239.24,638.16,236.78z"/>
	<path d="M197.25,268.11c0.82-2.46-0.92-3.79-1.64-5.63C194.29,263.14,194.09,262.16,197.25,268.11z"/>
	<path d="M243.01,264.42c2.66,1.54,4.71,2.15,7.88,1.74C248.23,264.83,246.18,264.32,243.01,264.42z"/>
	<path d="M588.61,248.45c2.46,0.61,4.2-0.51,6.04-0.72C592.6,246.1,590.97,247.12,588.61,248.45z"/>
	<path d="M188.03,279.88c0.51,2.76,1.54,5.12,3.38,7.17C192.02,283.88,189.06,282.34,188.03,279.88z"/>
	<path d="M196.32,168.4c-2.05-1.23-2.35-3.69-4.09-5.12C192.95,166.86,193.66,167.79,196.32,168.4z"/>
	<path d="M211.27,113.63c2.66,0.41,4.4-0.31,6.76-0.61C215.37,111.18,213.63,112.3,211.27,113.63z"/>
	<path d="M536.61,473.98c-2.15-0.51-3.79,0-5.32,1.13C533.02,475.31,534.97,476.03,536.61,473.98z"/>
	<path d="M574.79,402.83c0.61-2.35-1.02-3.79-2.56-5.94C571.92,399.76,574.28,400.89,574.79,402.83z"/>
	<path d="M601.2,283.47c2.35-0.61,2.66-2.56,3.28-4.09C603.15,280.29,601.3,281.01,601.2,283.47z"/>
	<path d="M580.93,254.29c-0.31,2.35-0.1,3.99,0.2,6.04C582.06,258.28,582.78,256.64,580.93,254.29z"/>
	<path d="M188.24,303.33c-0.41,1.33-1.13,2.25-0.72,3.99C189.26,305.37,189.26,305.37,188.24,303.33z"/>
	<path d="M227.14,144.34c-1.23,1.13-2.97,1.84-3.38,4.61C226.11,147.82,226.83,146.29,227.14,144.34z"/>
	<path d="M585.44,291.96c-1.33,1.43-2.35,2.66-3.07,4.71C585.03,295.03,585.03,294.93,585.44,291.96z"/>
	<path d="M203.9,119.26c-0.82,2.25-0.61,3.58,0.41,5.12C204.72,122.03,204.72,122.03,203.9,119.26z"/>
	<path d="M562.4,339.26c0.92-1.54,1.54-2.56,1.43-4.71C562.2,336.08,561.69,337.11,562.4,339.26z"/>
	<path d="M571.51,337.31c-1.02-1.64-0.61-3.07-2.25-4.4C569.26,335.67,569.26,335.67,571.51,337.31z"/>
	<path d="M566.4,327.08c1.23-1.33,1.84-2.35,0.92-3.99C565.78,324.11,566.09,325.34,566.4,327.08z"/>
	<path d="M189.16,192.66c1.43-2.87,1.43-2.87,0.41-4.09C188.65,189.59,189.06,190.72,189.16,192.66z"/>
	<path d="M565.07,442.45c1.43-1.54,1.74-2.66,0.82-4.3C564.96,439.38,564.45,440.4,565.07,442.45z"/>
	<path d="M207.79,157.45c-1.13,1.13-2.15,2.35-2.76,4.71C207.69,159.9,207.69,159.9,207.79,157.45z"/>
	<path d="M193.46,202.08c-0.1-1.43,0.1-2.87-1.64-3.89C191.51,200.14,192.02,201.36,193.46,202.08z"/>
	<path d="M580.63,467.73c2.35,1.02,3.58-0.72,5.12-0.31C584.11,465.79,582.78,467.12,580.63,467.73z"/>
	<path d="M684.94,467.94c0.61-1.64,0.51-2.66-0.72-3.58C683.51,465.79,683.92,466.71,684.94,467.94z"/>
	<path d="M576.84,346.73c-0.72,1.33-0.61,2.46,0.1,3.48C577.25,349.09,578.89,347.96,576.84,346.73z"/>
	<path d="M207.79,331.78c-1.64,0.1-2.76,0.2-4.4,1.54C205.54,333.42,206.56,333.12,207.79,331.78z"/>
	<path d="M202.77,133.7c-1.23,1.33-1.02,2.56-0.82,3.89C202.16,136.36,203.29,135.33,202.77,133.7z"/>
	<path d="M184.96,203.82c1.33-1.64,1.33-1.64,1.02-3.48C184.86,201.36,184.45,202.39,184.96,203.82z"/>
	<path d="M270.54,319.4c1.84-1.33,1.64-2.87,1.84-4.2C271.46,316.43,270.65,317.56,270.54,319.4z"/>
	<path d="M282.42,275.38c0.2,1.43,0.51,2.87,2.15,3.48C284.36,277.43,283.85,276.09,282.42,275.38z"/>
	<path d="M265.22,125.2c-0.61-1.23-1.33-2.15-2.76-2.35C262.87,124.18,264.09,124.59,265.22,125.2z"/>
	<path d="M579.5,268.93c-0.2,1.02-0.51,2.05-0.72,3.07C580.01,271.28,580.11,270.16,579.5,268.93z"/>
	<path d="M228.57,261.05c-0.1-1.43-0.1-2.56-2.35-3.17C226.93,259.41,227.04,260.53,228.57,261.05z"/>
	<path d="M187.62,197.17c0.82-0.51,1.64-1.02,0.61-2.46C187.52,195.43,186.8,195.84,187.62,197.17z"/>
	<path d="M243.52,105.95c1.95-0.72,1.43-2.25,0.72-3.79C243.93,103.39,243.72,104.73,243.52,105.95z"/>
	<path d="M571.51,301.38c-0.31-1.23-0.51-2.66-2.46-3.48c0.31,1.84,0.82,2.97,2.05,3.89C573.48,306.06,574.42,302.25,571.51,301.38z
		"/>
	<path d="M582.88,438.15c0.1-1.13,1.13-1.54,0.31-2.56C582.37,436.2,582.47,436.92,582.88,438.15z"/>
	<path d="M565.07,331.89c0.61-0.61,1.64-1.02,0.41-2.25C564.55,330.25,564.14,330.86,565.07,331.89z"/>
	<path d="M585.85,248.97c-1.02-0.51-1.95-0.1-2.87-0.1C583.9,250.4,583.9,250.4,585.85,248.97z"/>
	<path d="M641.02,258.9c0.15-0.15,0.54-0.18,0.2-0.51C638.69,255.84,638.43,257.92,641.02,258.9z"/>
	<path d="M644.1,226.45c0.2-0.92,0.1-1.64-0.61-2.25C642.87,225.32,643.89,225.73,644.1,226.45z"/>
	<path d="M573.46,341.31c0,0.92-0.1,2.05,1.33,2.35C575.51,342.23,574.38,341.82,573.46,341.31z"/>
	<path d="M569.57,458.42c-0.31,1.33-0.31,1.95,0.61,2.46C570.7,460.16,570.8,459.44,569.57,458.42z"/>
	<path d="M588.92,466.81c-1.13,0.2-2.15,0.41-3.17,0.61C586.87,467.63,587.89,468.25,588.92,466.81z"/>
	<path d="M567.11,275.99c0.1-0.31,0.1-0.61,0.1-1.02C567.21,275.38,567.11,275.69,567.11,275.99z"/>
	<path d="M199.7,212.11c-0.51,0.72-0.82,1.54,0.1,2.56C200.42,213.65,200.93,212.93,199.7,212.11z"/>
	<path d="M197.76,208.73c0.1-1.02-0.2-1.64-1.33-1.74C196.04,208.29,197,209.12,197.76,208.73z"/>
	<path d="M200.73,189.9c0.41-0.41,1.02-0.61,0.31-1.74C200.32,188.87,199.91,189.28,200.73,189.9z"/>
	<path d="M266.65,91.01c0.2-0.61,0.41-1.23-0.41-1.64C265.63,90.09,266.24,90.6,266.65,91.01z"/>
	<path d="M577.45,472.55c-0.41,1.02-0.31,1.64,1.02,1.95C578.68,473.47,578.37,472.95,577.45,472.55z"/>
	<path d="M569.88,463.43c-0.31,0.51-1.02,1.02,0.31,1.64C570.39,464.46,570.7,464.05,569.88,463.43z"/>
	<path d="M573.56,341.2c-0.41-0.51,0.1-1.74-1.33-1.54C571.82,341,573.05,340.79,573.56,341.2z"/>
	<path d="M199.91,337.21c0.2,1.33-0.2,2.25,1.54,2.46C201.24,338.85,201.24,338.23,199.91,337.21z"/>
	<path d="M211.58,331.99c-0.82,0-1.43,0.1-1.74,1.02C210.55,332.91,211.07,332.81,211.58,331.99z"/>
	<path d="M188.13,327.79c-1.23,0.2-1.23,0.72-0.72,1.43C188.13,329.12,188.44,328.82,188.13,327.79z"/>
	<path d="M285.69,281.21c0-0.92-0.41-1.74-1.23-2.25C284.47,279.88,284.47,280.8,285.69,281.21z"/>
	<path d="M192.74,326.26c0.72-1.13,0.51-1.74-0.31-2.25C192.02,324.82,192.02,325.44,192.74,326.26z"/>
	<path d="M578.37,323.19c-0.72,0.61-1.23,1.02-0.72,1.84C578.58,324.72,578.89,324.31,578.37,323.19z"/>
	<path d="M594.24,467.94c0.09,0.74,0.76,2,1.33,1.43C595.47,468.55,595.26,467.94,594.24,467.94z"/>
	<path d="M186.8,274.56c0-0.41,0.2-0.92-0.72-1.23C186.29,273.84,185.88,274.35,186.8,274.56z"/>
	<path d="M262.56,122.74c-0.2-0.72-0.61-1.02-1.43-1.02C261.23,122.54,261.74,122.85,262.56,122.74z"/>
	<path d="M216.18,331.58c-0.1,0.82,0.2,1.33,0.92,1.54C217.11,332.5,217.11,331.78,216.18,331.58z"/>
	<path d="M653,305.27c2.46,2.76,4.5,4.81,7.78,6.04C659.14,307.11,656.58,304.96,653,305.27z"/>
	<path d="M652.69,301.28c1.74-2.87,1.95-8.09,0.61-10.34C652.49,294.32,652.39,297.59,652.69,301.28z"/>
	<path d="M646.96,367.51c1.84-2.25,1.33-4.61,1.64-6.96C647.37,362.5,646.76,364.75,646.96,367.51z"/>
	<path d="M663.65,314.38c1.23,1.95,2.97,1.13,4.4,1.33C666.92,314.28,665.59,313.77,663.65,314.38z"/>
	<path d="M647.78,332.5c1.84-0.82,2.46-2.35,2.87-3.99C649.83,329.84,647.47,330.15,647.78,332.5z"/>
	<path d="M621.78,313.36c0.92,1.23,1.95,1.84,3.79,1.02C624.34,313.26,623.11,313.05,621.78,313.36z"/>
	<path d="M652.39,341.31c0.31-2.05,0.51-3.48,0.72-4.91C651.98,337.72,651.88,339.16,652.39,341.31z"/>
	<path d="M602.12,334.55c-1.23,1.13-1.95,2.05-1.23,3.48C601.3,337.01,602.33,336.19,602.12,334.55z"/>
	<path d="M607.04,319.4c0.31,1.74,1.23,2.05,2.87,1.84C609.08,319.81,608.37,319.3,607.04,319.4z"/>
	<path d="M652.29,280.5c-0.1,1.64,0,2.66,0.82,4.3C653.62,283.16,653.72,281.93,652.29,280.5z"/>
	<path d="M626.79,354.92c0.82-1.13,1.43-1.84,0.51-2.87C626.69,352.87,625.98,353.49,626.79,354.92z"/>
	<path d="M594.75,358.09c1.33,1.23,1.95,1.74,3.07,1.64C597.41,358.71,596.6,358.3,594.75,358.09z"/>
	<path d="M600.9,361.57c0.31,1.02,1.02,1.13,1.84,1.13C602.53,361.57,601.82,361.57,600.9,361.57z"/>
	<path d="M611.23,320.93c0.72,1.02,1.74,0.41,2.56,0.51C613.54,319.91,611.51,319.55,611.23,320.93z"/>
	<path d="M604.68,364.03c-0.31,1.13,0.1,1.64,0.92,2.05C606.12,364.65,605.5,364.34,604.68,364.03z"/>
	<path d="M613.9,323.08c0.92-0.72,1.64-0.92,1.13-2.05C613.06,321.82,613.9,320.99,613.9,323.08z"/>
	<path d="M719.85,472.03c-1.11-6.45,2.62-11.16-1.43-17.3c0.92,9.83-1.54,18.63-1.95,27.64
		C718.83,479.2,720.48,475.72,719.85,472.03z"/>
	<path d="M738.99,425.86c-0.78-3.36-4.91-4.09-5.43-7.78C729.58,423.63,739.62,428.58,738.99,425.86z"/>
	<path d="M713.4,494.86c-1.02,3.28-0.61,6.76-1.02,10.24C713.91,501.93,714.73,498.55,713.4,494.86z"/>
	<path d="M715.96,484.11c-1.64,2.05-2.87,4.2-3.07,6.96C714.73,489.13,716.98,487.39,715.96,484.11z"/>
	<path d="M720.26,421.46c2.76-0.31,5.63-0.61,8.39-3.28C724.56,417.78,722.61,420.13,720.26,421.46z"/>
	<path d="M710.13,508.17c-1.13,3.48-1.54,6.65-1.74,10.24C710.53,515.03,711.25,511.24,710.13,508.17z"/>
	<path d="M699.79,522.91c-1.43,2.66-1.54,5.53-1.23,8.5C699.99,528.75,700.3,525.88,699.79,522.91z"/>
	<path d="M723.95,441.73c1.89,1.31,6.19,5.66,6.94,5.16c0.01,0.02,0.01,0.04,0.02,0.06c3.07,2.56,4.61,6.45,7.27,9.42
		c-1.02-4.2-2.46-7.98-6.86-9.83C727.43,441.63,727.12,441.42,723.95,441.73z"/>
	<path d="M741.45,438.05c1.02-3.99,0.51-5.22-2.66-6.35C740.53,433.34,740.02,436,741.45,438.05z"/>
	<path d="M681.67,447.16c2.76,0.82,4.09-0.72,5.53-2.35C685.25,445.11,682.89,444.39,681.67,447.16z"/>
	<path d="M731.32,451.46c0.72,2.25,1.54,3.89,2.97,5.12C733.36,454.94,734.08,452.48,731.32,451.46z"/>
	<path d="M709,420.64c1.33,1.02,2.76,1.43,4.91,0.1C711.97,419.82,710.53,420.13,709,420.64z"/>
	<path d="M701.73,516.26c-0.82,1.43-1.84,2.76-1.13,4.91C702.14,519.53,702.04,518,701.73,516.26z"/>
	<path d="M706.23,498.55c-1.43,0.2-1.84,1.02-1.95,2.87C705.62,500.39,706.44,499.78,706.23,498.55z"/>
	<path d="M710.33,493.63c-1.43,0.41-1.54,1.23-1.74,2.35C710.02,495.58,710.53,495.07,710.33,493.63z"/>
	<path d="M693.13,442.86c0.39,1.38,2.39,0.61,2.05-0.41C694.36,442.04,693.64,442.04,693.13,442.86z"/>
	<path d="M701.12,420.03c-0.56,0.84,1.23,1.35,1.23,0C701.94,419.62,701.53,419.52,701.12,420.03z"/>
	<path d="M576.53,552.19c-2.35,3.17-3.48,6.96-4.5,10.65c0.82,0.92,1.54,0.31,2.25,0.41C577.4,551.12,577.93,552.66,576.53,552.19z"
		/>
	<path d="M495.35,536.22c1.54-5.22-2.05-9.01-3.38-13.51C491.26,527.62,494.63,531.61,495.35,536.22z"/>
	<path d="M493.92,522.2c5.02,0.82,10.03,0.31,14.95-0.61C503.85,521.68,498.83,520.45,493.92,522.2z"/>
	<path d="M512.75,522.6c4.2,3.07,9.42,4.2,13.51,7.47C522.99,525.47,517.77,524.24,512.75,522.6z"/>
	<path d="M498.52,538.27c-1.33-0.82-1.95,0-2.66,1.02c2.35,3.69,3.99,7.68,8.39,9.21C501.6,545.54,497.6,543.39,498.52,538.27z"/>
	<path d="M561.79,556.39c4.2-0.1,5.73-1.33,6.86-5.53C566.4,552.5,563.63,553.62,561.79,556.39z"/>
	<path d="M460.54,510.32c-1.74-1.43-2.87-2.15-4.91-1.84c2.05,3.48-3.17,2.87-2.97,5.73C455.94,514.11,456.55,509.71,460.54,510.32z
		"/>
	<path d="M553.8,561.4c3.58,0.51,5.32-0.31,7.47-3.99C555.85,559.05,555.03,559.56,553.8,561.4z"/>
	<path d="M462.59,524.75c2.56,2.25,5.32,3.17,8.39,3.89C468.53,525.47,465.25,523.94,462.59,524.75z"/>
	<path d="M531.18,566.01c3.17,0.72,3.79-1.43,4.91-3.89C533.64,562.94,531.59,563.14,531.18,566.01z"/>
	<path d="M538.45,546.46c-1.33,2.15-1.64,4.3,0.41,6.24C538.45,550.65,540.7,548.5,538.45,546.46z"/>
	<path d="M545.92,556.49c1.64,2.56,2.76,4.3,5.43,3.79C550.32,558.33,548.69,557.21,545.92,556.49z"/>
	<path d="M464.23,513.49c-1.13-1.23-2.35-2.46-4.71-1.74C460.65,514.01,462.49,513.49,464.23,513.49z"/>
	<path d="M534.87,551.68c-0.82,1.64-1.43,2.97,0.1,5.22C535.58,554.65,536.81,553.32,534.87,551.68z"/>
	<path d="M539.68,565.09c0.41,1.33,0.41,2.76,2.05,3.89C541.32,565.6,541.32,565.6,539.68,565.09z"/>
	<path d="M580.83,543.9c1.02-1.23,1.95-2.46,1.23-4.4C580.52,540.72,580.63,542.36,580.83,543.9z"/>
	<path d="M577.35,550.45c1.33-1.54,2.05-2.66,1.64-4.61C577.55,547.07,576.84,548.2,577.35,550.45z"/>
	<path d="M569.16,549.63c1.54-0.61,1.74-1.64,1.13-3.07C568.85,547.28,568.65,548.2,569.16,549.63z"/>
	<path d="M570.7,545.64c1.43-0.2,1.64-1.23,1.64-2.97C570.8,543.49,570.29,544.31,570.7,545.64z"/>
	<path d="M533.43,537.96c0.2-1.43-0.61-2.05-1.43-2.76c-0.31-0.82-0.82-1.23-1.84-1.13C532.67,537.21,532.27,537.57,533.43,537.96z"
		/>
	<path d="M469.86,515.34c0.31,0.82,0.72,1.23,1.64,0.72C471.29,515.03,470.88,514.62,469.86,515.34z"/>
	<path d="M500.98,542.57c-0.1,1.13,0.41,1.54,1.54,1.64C502.52,542.98,502.21,542.46,500.98,542.57z"/>
	<path d="M707.36,569.18c-2.77-1.53-5.02-0.2-6.76,2.15c-2.35-3.58-4.91-4.4-7.37-2.66c-4.22,2.97-0.22,11.63,7.17,4.91
		c1.95,4.2,5.12,3.48,8.5,2.97C709.2,573.79,710.53,570.93,707.36,569.18z M695.59,574.51c-3.16-0.21-2.98-5.16,0.2-4.91
		C699.18,569.59,698.76,574.72,695.59,574.51z M704.8,575.12c-5.66-0.33,0.59-9.34,2.87-2.15
		C705.31,573.38,705.31,573.38,704.8,575.12z"/>
	<path d="M684.43,567.44c-0.41,2.46-0.82,5.02-0.2,7.58c1.95,0,1.03-2.27,2.35-2.05c1.74,0.29,1.54,2.87,3.79,2.25
		c-0.61-1.43-0.69-2.65,0.31-4.2C692.88,567.6,686.96,566.34,684.43,567.44z M685.86,569.59c1.33-1.13,2.25-0.61,3.17,0
		C687.71,571.33,687.71,571.33,685.86,569.59z"/>
	<path d="M241.88,254.7c3.79-5.43,1.23-14.13-4.81-17.1c1.64,2.46,3.76,4.61,4.61,7.78C242.47,248.36,240.65,251.42,241.88,254.7z"
		/>
	<path d="M268.64,237.58c0.67,6.38,1.84,12.67,0.98,19.06C273.65,249.03,269.12,240.52,268.64,237.58z"/>
	<path d="M268.64,237.58c-0.05-0.47-0.1-0.94-0.14-1.41C268.51,236.65,268.57,237.12,268.64,237.58z"/>
	<path d="M277.2,169.73c-0.31,0.41-0.61,0.82-0.92,1.33c1.95,2.46,4.4,4.3,7.37,5.53C282.11,173.52,280.17,170.96,277.2,169.73z"/>
	<path d="M276.89,155.91c-1.25,0-1.02-1.68-1.74,10.13c0.41,0,0.82,0.1,1.23,0.1C276.69,162.77,277.1,159.39,276.89,155.91z"/>
	<path d="M253.24,243.95c0.72,3.69,2.15,7.27,3.79,10.75C256.21,250.91,254.98,247.33,253.24,243.95z"/>
	<path d="M271.16,225.83c-1.43,2.15-1.54,4.2-1.13,6.35C270.95,230.34,271.57,228.39,271.16,225.83z"/>
	<path d="M275.35,207.81c0.2-2.15,0-4.3,0.2-6.35C274.84,203.62,274.95,205.66,275.35,207.81z"/>
	<path d="M286,179.35c1.84,1.95,3.48,1.43,5.02,1.54C289.89,179.35,288.36,179.05,286,179.35z"/>
	<path d="M244.44,178.54c0.92,1.33,2.05,1.84,3.89,1.13C247.1,178.23,245.77,178.23,244.44,178.54z"/>
	<path d="M274.95,145.98c0.2,1.43-0.31,2.66,1.13,4.09C276.48,148.23,276.58,147.11,274.95,145.98z"/>
	<path d="M223.66,203.92c0.51-1.54,0.92-2.56,1.33-3.58C223.55,200.95,222.53,201.88,223.66,203.92z"/>
	<path d="M229.59,184.98c0.72,1.23,1.43,1.84,3.07,1.23C231.64,185.09,231.03,184.17,229.59,184.98z"/>
	<path d="M236.45,188.47c2.21-0.98,1.69-3.55,0.1-1.43C236.35,187.44,235.74,187.95,236.45,188.47z"/>
	<path d="M228.47,231.26c0.41-1.33-0.41-1.95-1.64-2.35C227.34,229.62,226.93,230.95,228.47,231.26z"/>
	<path d="M272.8,194.1c-1.33,1.33-2.56,1.84-2.66,3.69C271.77,196.96,272.59,196.25,272.8,194.1z"/>
	<path d="M249.56,220.3c0.61-1.64,1.43-2.46,0.72-3.69C249.25,217.54,249.05,218.46,249.56,220.3z"/>
	<path d="M233.79,186.01c0.92,0.82,1.54,0.82,2.46,0.1C235.43,185.09,234.71,185.09,233.79,186.01z"/>
	<path d="M282.62,259.31c-0.22,0.56-0.34,0.98,0.61,1.64C282.84,260.1,283.43,259.71,282.62,259.31z"/>
	<path d="M218.03,223.58c0.51,0.82,0.92,1.33,1.74,0.72C219.36,223.78,219.05,223.27,218.03,223.58z"/>
	<path d="M272.28,419.72c1.74,1.13,2.76-0.2,4.09,0.61c-0.1,4.09,0.31,8.29,5.63,9.01c1.13,1.23,1.54,2.76,3.58,3.89
		c-3.76-12.1-6.76-6.13-6.76-13.82c7.37-4.61,9.01-11.98,6.76-18.43C284.67,409.59,280.78,416.24,272.28,419.72z"/>
	<path d="M252.32,494.45c2.35-0.82,2.56-3.48,4.3-4.71c4.09-0.2,7.47-3.79,8.29-9.21C253.14,490.15,252.01,491.28,252.32,494.45z"/>
	<path d="M270.75,417.67c-4.2-0.61-6.65-3.99-10.85-3.99C261.74,417.78,265.12,419.01,270.75,417.67z"/>
	<path d="M265.22,435.69c1.23,3.79,3.07,5.53,6.86,6.14C269.62,439.58,268.09,437.12,265.22,435.69z"/>
	<path d="M278.32,430.98c-1.95,1.95-1.23,3.38,0.72,4.91C280.06,433.95,280.06,432.42,278.32,430.98z"/>
	<path d="M264.61,479.61c2.25-1.54,1.64-3.28,1.23-4.91C264.71,476.03,263.99,477.46,264.61,479.61z"/>
	<path d="M265.94,473.57c1.54-1.95,2.25-3.28,1.23-5.63C266.04,469.68,265.32,471.01,265.94,473.57z"/>
	<path d="M262.46,432.42c-1.23-3.28-1.23-3.28-3.28-4.3C259.69,429.65,260.61,430.88,262.46,432.42z"/>
	<path d="M273.82,443.37c0.92,2.15,0.92,2.15,2.97,2.97C276.38,444.7,275.05,444.09,273.82,443.37z"/>
	<path d="M264.4,538.27c0.61-1.23,0.61-2.25-0.2-3.99C263.17,536.02,262.76,537.14,264.4,538.27z"/>
	<path d="M253.96,399.66c-0.2,1.13-0.31,1.95,0.92,2.76C255.49,401.19,255.29,400.48,253.96,399.66z"/>
	<path d="M266.35,454.22c-0.72,1.43-0.51,2.46,0.51,3.48C267.27,456.47,267.37,455.35,266.35,454.22z"/>
	<path d="M267.37,465.58c0.82-1.33,0.51-2.25-0.41-3.17C266.35,463.54,266.45,464.56,267.37,465.58z"/>
	<path d="M257.03,408.26c-0.1,1.02,0.1,1.84,1.13,2.35C258.46,409.38,258.16,408.67,257.03,408.26z"/>
	<path d="M286.92,398.84c0.92-0.72,1.33-1.33,0.31-2.35C286.51,397.1,286.1,397.71,286.92,398.84z"/>
	<path d="M264.4,532.64c0.72-0.92,0.72-1.64,0.1-2.87C263.68,530.79,263.58,531.72,264.4,532.64z"/>
	<path d="M219.87,404.57c-4.3,3.79-5.63,17.61,1.33,18.73c0-3.79-2.76-6.04-3.99-8.8C218.23,411.33,220.07,408.46,219.87,404.57z"/>
	<path d="M225.7,454.12c-0.2-8.8-5.02-15.66-9.52-22.62C219.56,438.97,222.74,446.54,225.7,454.12z"/>
	<path d="M199.5,479.4c1.74-4.71,2.66-9.42,2.35-14.43C199.19,469.47,197.96,474.18,199.5,479.4z"/>
	<path d="M222.53,395.66c4.14,0.17,10.41-3.41,9.93-7.58C229.73,388.64,233.6,385.83,222.53,395.66z"/>
	<path d="M236.56,403.04c0.1,4.91,1.13,8.09,3.58,10.54C240.14,409.18,238.71,406,236.56,403.04z"/>
	<path d="M213.63,417.78c-3.17,5.12-2.35,9.32,2.25,11.88C213.42,425.86,213.52,422.18,213.63,417.78z"/>
	<path d="M206.87,446.65c-2.25,3.17-3.28,7.58-3.17,12.08C204.1,454.73,207.18,451.35,206.87,446.65z"/>
	<path d="M234.3,389.62c0.41,3.79,0.92,7.17,0.92,10.44C236.56,395.36,236.25,392.18,234.3,389.62z"/>
	<path d="M233.59,425.25c-0.31-1.33-2.46-1.13-4.09,0.1c2.35,2.05,4.5,3.17,7.68,3.07C236.56,426.27,234.2,427.09,233.59,425.25z"/>
	<path d="M211.78,521.79c-0.51,2.46-1.02,5.02,0.2,7.47C213.01,526.8,213.11,524.24,211.78,521.79z"/>
	<path d="M220.07,398.74c-2.87-1.23-5.84-1.74-8.5-3.17C213.83,398.43,216.59,399.66,220.07,398.74z"/>
	<path d="M214.55,443.27c1.23,2.05,1.64,4.61,3.69,6.24C217.52,447.05,216.9,444.7,214.55,443.27z"/>
	<path d="M196.94,506.33c1.43-2.25,1.33-3.99,0-5.84C196.53,502.23,196.32,503.97,196.94,506.33z"/>
	<path d="M198.88,485.65c0.41-1.84,1.43-2.87,0.1-4.5C198.58,482.58,197.86,483.6,198.88,485.65z"/>
	<path d="M221.41,427.3c0.1,1.74,0.72,2.87,1.74,3.99C222.74,430.06,223.55,428.22,221.41,427.3z"/>
	<path d="M206.87,437.84c1.64,1.33,2.35,2.46,3.99,2.56C210.04,439.38,209.63,437.84,206.87,437.84z"/>
	<path d="M197.55,495.68c0.92-1.02,1.64-1.74,0.61-2.87C197.14,493.53,197.14,494.35,197.55,495.68z"/>
	<path d="M213.11,540.42c-0.51,0.61-0.51,1.02,0.31,1.23C214.14,541.03,213.73,540.72,213.11,540.42z"/>
	<path d="M225.91,429.96c1.7-0.68-0.82-1.83-0.82-0.31C225.3,430.16,225.6,430.06,225.91,429.96z"/>
	<path d="M226.11,577.17c-2.16-1.21-4.09-0.61-6.55,2.05c-6.64-9.14-13.68,2.93-5.53,5.02c2.36,0.6,3.79-1.13,5.43-2.46
		c1.84,4.09,5.02,3.38,8.29,2.87C227.96,581.88,229.47,579.04,226.11,577.17z M214.85,582.49c-3.01,0-3.65-4.66,0.1-4.91
		C218.4,578.27,217.64,582.71,214.85,582.49z M223.86,583.21c-3.39-0.54-3.02-4.81-0.1-4.81c1.64,0,2.56,0.82,2.66,3.07
		C224.58,580.85,223.45,581.06,223.86,583.21z"/>
	<path d="M203.39,575.63c-0.31,2.46-0.92,5.02,0.1,7.37c1.84,0.1,0.82-2.15,2.66-1.95c1.02,0.31,1.02,2.35,3.58,2.35
		c-1.13-1.64-1.02-2.76-0.1-4.3C212.08,575.78,205.65,574.13,203.39,575.63z M204.92,577.68c1.13-1.13,2.15-0.72,3.58,0.2
		C206.87,579.52,205.95,579.52,204.92,577.68z"/>
	<path d="M242.08,581.26c2.35-1.13,4.09,2.97,6.76,0.2c-1.54-1.13-2.56-2.66-4.61-3.48C243.62,579.11,242.19,579.52,242.08,581.26z"
		/>
<path fill="#e6e6e6" d="m206.8 163.6c0-5.1 4.1-9.2 9.3-9.2s9.2 4.2 9.2 9.2-4.1 9.2-9.3 9.2-9.2-4.1-9.2-9.2zm17.3-.1c0-4.5-3.5-8.2-8.2-8.2s-8.2 3.7-8.2 8.3c0 4.5 3.5 8.2 8.2 8.2s8.2-3.7 8.2-8.3zm-13 0c0-2.8 2.1-5.1 5.1-5.1 1.9 0 2.9.6 3.9 1.5l-1.4 1.7c-.8-.7-1.5-1.1-2.5-1.1-1.7 0-2.8 1.4-2.8 3.1s1.1 3 2.8 3c1.1 0 1.7-.5 2.5-1.1l1.4 1.4c-1.1 1.1-2.1 1.7-4 1.7-2.9 0-5-2.3-5-5.1z"/><path fill="#e6e6e6" d="m226.6 154.7h3.4l4.2 13.2 4.4-13.3h2.6l4.4 13.3 4.2-13.2h3.3l-6.2 18h-2.7l-4.4-12.8-4.4 12.8h-2.7z"/><path fill="#e6e6e6" d="m252.8 165.8c0-3.9 3.1-7 7.2-7 4.2 0 7.2 3.2 7.2 7s-3.1 7-7.3 7c-4 0-7.1-3.1-7.1-7zm11.3 0c0-2.3-1.7-4.3-4.2-4.3s-4.1 2-4.1 4.3 1.7 4.3 4.1 4.3c2.7.1 4.2-1.9 4.2-4.3z"/><path fill="#e6e6e6" d="m269.5 159.1h3.1v3c.8-2 2.4-3.4 4.8-3.3v3.2h-.2c-2.7 0-4.6 1.7-4.6 5.4v5.1h-3.1z"/><path fill="#e6e6e6" d="m279.1 153.9h3.1v11.1l5.6-6h3.8l-5.4 5.5 5.5 8h-3.5l-4.1-5.8-1.9 2v3.9h-3.1z"/><path fill="#e6e6e6" d="m291.7 165.8c0-3.9 3.1-7 7.2-7 4.2 0 7.2 3.2 7.2 7s-3.1 7-7.3 7c-4 0-7.1-3.1-7.1-7zm11.3 0c0-2.3-1.7-4.3-4.2-4.3s-4.1 2-4.1 4.3 1.7 4.3 4.1 4.3c2.6.1 4.2-1.9 4.2-4.3z"/><path fill="#e6e6e6" d="m308.2 167.6v-8.6h3.1v7.6c0 2.1 1.1 3.3 2.9 3.3s3-1.3 3-3.3v-7.6h3.1v13.4h-3.1v-2.1c-.8 1.3-2.1 2.3-4.2 2.3-3.1.2-4.8-1.8-4.8-5z"/><path fill="#e6e6e6" d="m323.9 168.8v-7.1h-1.7v-2.6h1.7v-3.7h3.1v3.7h3.6v2.6h-3.6v6.6c0 1.2.6 1.7 1.7 1.7.7 0 1.3-.2 1.9-.5v2.5c-.8.5-1.7.7-2.8.7-2.3 0-3.9-.9-3.9-3.9z"/><path fill="#e6e6e6" d="m333.2 154.7h3.2v15h9.4v2.9h-12.5v-17.9z"/><path fill="#e6e6e6" d="m356 172.5v-1.7c-.9 1.1-2.3 2-4.4 2-2.6 0-4.8-1.4-4.8-4.2 0-3 2.3-4.4 5.4-4.4 1.7 0 2.6.2 3.7.5v-.2c0-1.9-1.2-2.9-3.3-2.9-1.5 0-2.6.3-3.9.8l-.8-2.5c1.5-.7 2.9-1.1 5.1-1.1 4 0 5.9 2.1 5.9 5.7v8zm.1-5.6c-.8-.3-1.9-.5-3.1-.5-2 0-3.1.8-3.1 2.1s1.1 2 2.6 2c2 0 3.5-1.1 3.5-2.9z"/><path fill="#e6e6e6" d="m364.9 170.5v2.1h-3.1v-18.7h3.1v7.4c1-1.4 2.4-2.5 4.5-2.5 3.2 0 6.3 2.5 6.3 7s-3.1 7-6.3 7c-2.1 0-3.5-1.1-4.5-2.3zm7.7-4.7c0-2.6-1.7-4.3-3.9-4.3s-3.9 1.7-3.9 4.4c0 2.6 1.8 4.3 3.9 4.3s3.9-1.7 3.9-4.4z"/><path fill="#e6e6e6" d="m376.9 170.8 1.4-2.1c1.4 1.1 3 1.7 4.4 1.7s2.1-.5 2.1-1.5-1.3-1.4-2.8-1.8c-.1 0-.2-.1-.2-.1-2-.6-4.2-1.4-4.2-4s2.1-4.1 4.8-4.1c1.7 0 3.5.6 5 1.5l-1.2 2.2c-1.3-.8-2.6-1.3-3.8-1.3s-1.9.5-1.9 1.4 1.3 1.4 2.8 1.8c.1 0 .2.1.2.1 2 .6 4.2 1.5 4.2 4 0 2.9-2.2 4.2-5 4.2-1.9 0-4-.7-5.8-2z"/><path fill="#e6e6e6" d="m505.6 163.6c0-5.1 4.1-9.2 9.3-9.2s9.2 4.2 9.2 9.2-4.1 9.2-9.3 9.2-9.2-4.1-9.2-9.2zm17.4-.1c0-4.5-3.5-8.2-8.2-8.2s-8.2 3.7-8.2 8.3c0 4.5 3.5 8.2 8.2 8.2s8.2-3.7 8.2-8.3zm-13.1 0c0-2.8 2.1-5.1 5.1-5.1 1.9 0 2.9.6 3.9 1.5l-1.4 1.7c-.8-.7-1.5-1.1-2.5-1.1-1.7 0-2.8 1.4-2.8 3.1s1.1 3 2.8 3c1.1 0 1.7-.5 2.5-1.1l1.4 1.4c-1.1 1.1-2.1 1.7-4 1.7-2.9 0-5-2.3-5-5.1z"/><path fill="#e6e6e6" d="m525.4 154.7h3.4l4.2 13.2 4.4-13.3h2.6l4.4 13.3 4.2-13.2h3.3l-6.2 18h-2.7l-4.4-12.8-4.4 12.8h-2.7z"/><path fill="#e6e6e6" d="m551.7 165.8c0-3.9 3.1-7 7.2-7 4.2 0 7.2 3.2 7.2 7s-3.1 7-7.3 7c-4.1 0-7.1-3.1-7.1-7zm11.2 0c0-2.3-1.7-4.3-4.2-4.3s-4.1 2-4.1 4.3 1.7 4.3 4.1 4.3c2.7.1 4.2-1.9 4.2-4.3z"/><path fill="#e6e6e6" d="m568.3 159.1h3.1v3c.8-2 2.4-3.4 4.8-3.3v3.2h-.2c-2.7 0-4.6 1.7-4.6 5.4v5.1h-3.1z"/><path fill="#e6e6e6" d="m577.9 153.9h3.1v11.1l5.6-6h3.8l-5.4 5.5 5.5 8h-3.5l-4.1-5.8-1.9 2v3.9h-3.1z"/><path fill="#e6e6e6" d="m590.6 165.8c0-3.9 3.1-7 7.2-7 4.2 0 7.2 3.2 7.2 7s-3.1 7-7.3 7c-4.1 0-7.1-3.1-7.1-7zm11.2 0c0-2.3-1.7-4.3-4.2-4.3s-4.1 2-4.1 4.3 1.7 4.3 4.1 4.3c2.6.1 4.2-1.9 4.2-4.3z"/><path fill="#e6e6e6" d="m607 167.6v-8.6h3.1v7.6c0 2.1 1.1 3.3 2.9 3.3s3-1.3 3-3.3v-7.6h3.1v13.4h-3.1v-2.1c-.8 1.3-2.1 2.3-4.2 2.3-3 .2-4.8-1.8-4.8-5z"/><path fill="#e6e6e6" d="m622.7 168.8v-7.1h-1.7v-2.6h1.7v-3.7h3.1v3.7h3.6v2.6h-3.6v6.6c0 1.2.6 1.7 1.7 1.7.7 0 1.3-.2 1.9-.5v2.5c-.8.5-1.7.7-2.8.7-2.3 0-3.9-.9-3.9-3.9z"/><path fill="#e6e6e6" d="m632 154.7h3.2v15h9.4v2.9h-12.6z"/><path fill="#e6e6e6" d="m654.8 172.5v-1.7c-.9 1.1-2.3 2-4.4 2-2.6 0-4.8-1.4-4.8-4.2 0-3 2.3-4.4 5.4-4.4 1.7 0 2.6.2 3.7.5v-.2c0-1.9-1.2-2.9-3.3-2.9-1.5 0-2.6.3-3.9.8l-.8-2.5c1.5-.7 2.9-1.1 5.1-1.1 4 0 5.9 2.1 5.9 5.7v8zm.1-5.6c-.8-.3-1.9-.5-3.1-.5-2 0-3.1.8-3.1 2.1s1.1 2 2.6 2c2 0 3.5-1.1 3.5-2.9z"/><path fill="#e6e6e6" d="m663.7 170.5v2.1h-3.1v-18.7h3.1v7.4c1-1.4 2.4-2.5 4.5-2.5 3.2 0 6.3 2.5 6.3 7s-3.1 7-6.3 7c-2.1 0-3.5-1.1-4.5-2.3zm7.8-4.7c0-2.6-1.7-4.3-3.9-4.3-2.1 0-3.9 1.7-3.9 4.4 0 2.6 1.8 4.3 3.9 4.3s3.9-1.7 3.9-4.4z"/><path fill="#e6e6e6" d="m675.8 170.8 1.4-2.1c1.4 1.1 3 1.7 4.4 1.7s2.1-.5 2.1-1.5-1.3-1.4-2.8-1.8c-.1 0-.2-.1-.2-.1-2-.6-4.2-1.4-4.2-4s2.1-4.1 4.8-4.1c1.7 0 3.5.6 5 1.5l-1.2 2.2c-1.3-.8-2.6-1.3-3.8-1.3s-1.9.5-1.9 1.4 1.3 1.4 2.8 1.8c.1 0 .2.1.2.1 2 .6 4.2 1.5 4.2 4 0 2.9-2.2 4.2-5 4.2-2 0-4.1-.7-5.8-2z"/><path fill="#e6e6e6" d="m61 298.6c0-5.1 4.1-9.2 9.3-9.2s9.2 4.2 9.2 9.2-4.1 9.2-9.3 9.2c-5.1 0-9.2-4.2-9.2-9.2zm17.4-.1c0-4.5-3.5-8.2-8.2-8.2s-8.2 3.7-8.2 8.3c0 4.5 3.5 8.2 8.2 8.2s8.2-3.7 8.2-8.3zm-13.1-.1c0-2.8 2.1-5.1 5.1-5.1 1.9 0 2.9.6 3.9 1.5l-1.4 1.7c-.8-.7-1.5-1.1-2.5-1.1-1.7 0-2.8 1.4-2.8 3.1s1.1 3 2.8 3c1.1 0 1.7-.5 2.5-1.1l1.4 1.4c-1.1 1.1-2.1 1.7-4 1.7-2.8.1-5-2.2-5-5.1z"/><path fill="#e6e6e6" d="m80.9 289.7h3.4l4.2 13.2 4.4-13.3h2.6l4.4 13.3 4.2-13.2h3.3l-6.2 18h-2.7l-4.4-12.8-4.4 12.8h-2.7z"/><path fill="#e6e6e6" d="m107.1 300.8c0-3.9 3.1-7 7.2-7s7.2 3.2 7.2 7-3.1 7-7.3 7c-4 0-7.1-3.1-7.1-7zm11.3 0c0-2.3-1.7-4.3-4.2-4.3s-4.1 2-4.1 4.3 1.7 4.3 4.1 4.3c2.6.1 4.2-1.9 4.2-4.3z"/><path fill="#e6e6e6" d="m123.7 294h3.1v3c.8-2 2.4-3.4 4.8-3.3v3.2h-.2c-2.7 0-4.6 1.7-4.6 5.4v5.1h-3.1z"/><path fill="#e6e6e6" d="m133.4 288.9h3.1v11.1l5.6-6h3.8l-5.4 5.5 5.5 8h-3.5l-4.1-5.8-1.9 1.9v3.9h-3.1z"/><path fill="#e6e6e6" d="m146 300.8c0-3.9 3.1-7 7.2-7s7.2 3.2 7.2 7-3.1 7-7.3 7c-4.1 0-7.1-3.1-7.1-7zm11.2 0c0-2.3-1.7-4.3-4.2-4.3s-4.1 2-4.1 4.3 1.7 4.3 4.1 4.3c2.6.1 4.2-1.9 4.2-4.3z"/><path fill="#e6e6e6" d="m162.4 302.6v-8.6h3.1v7.6c0 2.1 1.1 3.3 2.9 3.3s3-1.3 3-3.3v-7.6h3.1v13.4h-3.1v-2.1c-.8 1.3-2.1 2.3-4.2 2.3-3 .2-4.8-1.8-4.8-5z"/><path fill="#e6e6e6" d="m178.1 303.8v-7.1h-1.7v-2.7h1.7v-3.7h3.1v3.7h3.6v2.6h-3.6v6.6c0 1.2.6 1.7 1.7 1.7.7 0 1.3-.2 1.9-.5v2.5c-.8.5-1.7.7-2.8.7-2.3.1-3.9-.9-3.9-3.8z"/><path fill="#e6e6e6" d="m187.4 289.7h3.2v15h9.4v2.9h-12.5v-17.9z"/><path fill="#e6e6e6" d="m210.2 307.5v-1.7c-.9 1.1-2.3 2-4.4 2-2.6 0-4.8-1.4-4.8-4.2 0-3 2.3-4.4 5.4-4.4 1.7 0 2.6.2 3.7.5v-.2c0-1.9-1.2-2.9-3.3-2.9-1.5 0-2.6.3-3.9.8l-.8-2.5c1.5-.7 2.9-1.1 5.1-1.1 4 0 5.9 2.1 5.9 5.7v8zm.1-5.6c-.8-.3-1.9-.5-3.1-.5-2 0-3.1.8-3.1 2.1s1.1 2 2.6 2c2 0 3.5-1.1 3.5-2.9z"/><path fill="#e6e6e6" d="m219.2 305.5v2.1h-3.1v-18.7h3.1v7.4c1-1.4 2.4-2.5 4.5-2.5 3.2 0 6.3 2.5 6.3 7s-3.1 7-6.3 7c-2.2 0-3.6-1.1-4.5-2.3zm7.7-4.7c0-2.6-1.7-4.3-3.9-4.3s-3.9 1.7-3.9 4.4c0 2.6 1.8 4.3 3.9 4.3s3.9-1.7 3.9-4.4z"/><path fill="#e6e6e6" d="m231.2 305.8 1.4-2.1c1.4 1.1 3 1.7 4.4 1.7s2.1-.5 2.1-1.5-1.3-1.4-2.8-1.8c-.1 0-.2-.1-.2-.1-2-.6-4.2-1.4-4.2-4s2.1-4.1 4.8-4.1c1.7 0 3.5.6 5 1.5l-1.2 2.2c-1.3-.8-2.6-1.3-3.8-1.3s-1.9.5-1.9 1.4 1.3 1.4 2.8 1.8c.1 0 .2.1.2.1 2 .6 4.2 1.5 4.2 4 0 2.9-2.2 4.2-5 4.2-2 0-4.1-.7-5.8-2z"/><path fill="#e6e6e6" d="m360.6 298.6c0-5.1 4.1-9.2 9.3-9.2s9.2 4.2 9.2 9.2-4.1 9.2-9.3 9.2-9.2-4.2-9.2-9.2zm17.4-.1c0-4.5-3.5-8.2-8.2-8.2s-8.2 3.7-8.2 8.3c0 4.5 3.5 8.2 8.2 8.2s8.2-3.7 8.2-8.3zm-13.1-.1c0-2.8 2.1-5.1 5.1-5.1 1.9 0 2.9.6 3.9 1.5l-1.4 1.7c-.8-.7-1.5-1.1-2.5-1.1-1.7 0-2.8 1.4-2.8 3.1s1.1 3 2.8 3c1.1 0 1.7-.5 2.5-1.1l1.4 1.4c-1.1 1.1-2.1 1.7-4 1.7-2.8.1-5-2.2-5-5.1z"/><path fill="#e6e6e6" d="m380.5 289.7h3.4l4.2 13.2 4.4-13.3h2.6l4.4 13.3 4.2-13.2h3.3l-6.2 18h-2.7l-4.4-12.8-4.4 12.8h-2.7z"/><path fill="#e6e6e6" d="m406.7 300.8c0-3.9 3.1-7 7.2-7 4.2 0 7.2 3.2 7.2 7s-3.1 7-7.3 7c-4.1 0-7.1-3.1-7.1-7zm11.3 0c0-2.3-1.7-4.3-4.2-4.3s-4.1 2-4.1 4.3 1.7 4.3 4.1 4.3c2.7.1 4.2-1.9 4.2-4.3z"/><path fill="#e6e6e6" d="m423.3 294h3.1v3c.8-2 2.4-3.4 4.8-3.3v3.2h-.2c-2.7 0-4.6 1.7-4.6 5.4v5.1h-3.1z"/><path fill="#e6e6e6" d="m433 288.9h3.1v11.1l5.6-6h3.8l-5.4 5.5 5.5 8h-3.5l-4.1-5.8-1.9 2v3.9h-3.1z"/><path fill="#e6e6e6" d="m445.6 300.8c0-3.9 3.1-7 7.2-7 4.2 0 7.2 3.2 7.2 7s-3.1 7-7.3 7c-4.1 0-7.1-3.1-7.1-7zm11.3 0c0-2.3-1.7-4.3-4.2-4.3s-4.1 2-4.1 4.3 1.7 4.3 4.1 4.3c2.6.1 4.2-1.9 4.2-4.3z"/><path fill="#e6e6e6" d="m462.1 302.6v-8.6h3.1v7.6c0 2.1 1.1 3.3 2.9 3.3s3-1.3 3-3.3v-7.6h3.1v13.4h-3.1v-2.1c-.8 1.3-2.1 2.3-4.2 2.3-3.1.2-4.8-1.8-4.8-5z"/><path fill="#e6e6e6" d="m477.8 303.8v-7.1h-1.8v-2.7h1.7v-3.7h3.1v3.7h3.6v2.6h-3.6v6.6c0 1.2.6 1.7 1.7 1.7.7 0 1.3-.2 1.9-.5v2.5c-.8.5-1.7.7-2.8.7-2.2.1-3.8-.9-3.8-3.8z"/><path fill="#e6e6e6" d="m487.1 289.7h3.2v15h9.4v2.9h-12.5v-17.9z"/><path fill="#e6e6e6" d="m509.9 307.5v-1.7c-.9 1.1-2.3 2-4.4 2-2.6 0-4.8-1.4-4.8-4.2 0-3 2.3-4.4 5.4-4.4 1.7 0 2.6.2 3.7.5v-.2c0-1.9-1.2-2.9-3.3-2.9-1.5 0-2.6.3-3.9.8l-.8-2.5c1.5-.7 2.9-1.1 5.1-1.1 4 0 5.9 2.1 5.9 5.7v8zm.1-5.6c-.8-.3-1.9-.5-3.1-.5-2 0-3.1.8-3.1 2.1s1.1 2 2.6 2c2 0 3.5-1.1 3.5-2.9z"/><path fill="#e6e6e6" d="m518.8 305.5v2.1h-3.1v-18.7h3.1v7.4c1-1.4 2.4-2.5 4.5-2.5 3.2 0 6.3 2.5 6.3 7s-3.1 7-6.3 7c-2.2 0-3.5-1.1-4.5-2.3zm7.7-4.7c0-2.6-1.7-4.3-3.9-4.3s-3.9 1.7-3.9 4.4c0 2.6 1.8 4.3 3.9 4.3s3.9-1.7 3.9-4.4z"/><path fill="#e6e6e6" d="m530.8 305.8 1.4-2.1c1.4 1.1 3 1.7 4.4 1.7s2.1-.5 2.1-1.5-1.3-1.4-2.8-1.8c-.1 0-.2-.1-.2-.1-2-.6-4.2-1.4-4.2-4s2.1-4.1 4.8-4.1c1.7 0 3.5.6 5 1.5l-1.2 2.2c-1.3-.8-2.6-1.3-3.8-1.3s-1.9.5-1.9 1.4 1.3 1.4 2.8 1.8c.1 0 .2.1.2.1 2 .6 4.2 1.5 4.2 4 0 2.9-2.2 4.2-5 4.2-1.9 0-4.1-.7-5.8-2z"/><path fill="#e6e6e6" d="m659.5 298.6c0-5.1 4.1-9.2 9.3-9.2s9.2 4.2 9.2 9.2-4.1 9.2-9.3 9.2-9.2-4.2-9.2-9.2zm17.3-.1c0-4.5-3.5-8.2-8.2-8.2s-8.2 3.7-8.2 8.3c0 4.5 3.5 8.2 8.2 8.2 4.8 0 8.2-3.7 8.2-8.3zm-13-.1c0-2.8 2.1-5.1 5.1-5.1 1.9 0 2.9.6 3.9 1.5l-1.4 1.7c-.8-.7-1.5-1.1-2.5-1.1-1.7 0-2.8 1.4-2.8 3.1s1.1 3 2.8 3c1.1 0 1.7-.5 2.5-1.1l1.4 1.4c-1.1 1.1-2.1 1.7-4 1.7-2.9.1-5-2.2-5-5.1z"/><path fill="#e6e6e6" d="m679.3 289.7h3.4l4.2 13.2 4.4-13.3h2.6l4.4 13.3 4.2-13.2h3.3l-6.2 18h-2.6l-4.4-12.8-4.4 12.8h-2.7z"/><path fill="#e6e6e6" d="m705.5 300.8c0-3.9 3.1-7 7.2-7 4.2 0 7.2 3.2 7.2 7s-3.1 7-7.3 7c-4 0-7.1-3.1-7.1-7zm11.3 0c0-2.3-1.7-4.3-4.2-4.3s-4.1 2-4.1 4.3 1.7 4.3 4.1 4.3c2.7.1 4.2-1.9 4.2-4.3z"/><path fill="#e6e6e6" d="m722.1 294h3.1v3c.8-2 2.4-3.4 4.8-3.3v3.2h-.2c-2.7 0-4.6 1.7-4.6 5.4v5.1h-3.1z"/><path fill="#e6e6e6" d="m731.8 288.9h3.1v11.1l5.6-6h3.8l-5.4 5.5 5.5 8h-3.5l-4.1-5.8-1.9 2v3.9h-3.1z"/><path fill="#e6e6e6" d="m744.4 300.8c0-3.9 3.1-7 7.2-7 4.2 0 7.2 3.2 7.2 7s-3.1 7-7.3 7c-4.1 0-7.1-3.1-7.1-7zm11.3 0c0-2.3-1.7-4.3-4.2-4.3s-4.1 2-4.1 4.3 1.7 4.3 4.1 4.3c2.6.1 4.2-1.9 4.2-4.3z"/><path fill="#e6e6e6" d="m760.9 302.6v-8.6h3.1v7.6c0 2.1 1.1 3.3 2.9 3.3s3-1.3 3-3.3v-7.6h3.1v13.4h-3.1v-2.1c-.8 1.3-2.1 2.3-4.2 2.3-3.1.2-4.8-1.8-4.8-5z"/><path fill="#e6e6e6" d="m776.6 303.8v-7.1h-1.7v-2.7h1.7v-3.7h3.1v3.7h3.6v2.6h-3.6v6.6c0 1.2.6 1.7 1.7 1.7.7 0 1.3-.2 1.9-.5v2.5c-.8.5-1.7.7-2.8.7-2.3.1-3.9-.9-3.9-3.8z"/><path fill="#e6e6e6" d="m785.9 289.7h3.2v15h9.4v2.9h-12.5v-17.9z"/><path fill="#e6e6e6" d="m808.7 307.5v-1.7c-.9 1.1-2.3 2-4.4 2-2.6 0-4.8-1.4-4.8-4.2 0-3 2.3-4.4 5.4-4.4 1.7 0 2.6.2 3.7.5v-.2c0-1.9-1.2-2.9-3.3-2.9-1.5 0-2.6.3-3.9.8l-.8-2.5c1.5-.7 2.9-1.1 5.1-1.1 4 0 5.9 2.1 5.9 5.7v8zm.1-5.6c-.8-.3-1.9-.5-3.1-.5-2 0-3.1.8-3.1 2.1s1.1 2 2.6 2c2 0 3.5-1.1 3.5-2.9z"/><path fill="#e6e6e6" d="m817.6 305.5v2.1h-3.1v-18.7h3.1v7.4c1-1.4 2.4-2.5 4.5-2.5 3.2 0 6.3 2.5 6.3 7s-3.1 7-6.3 7c-2.1 0-3.5-1.1-4.5-2.3zm7.7-4.7c0-2.6-1.7-4.3-3.9-4.3-2.1 0-3.9 1.7-3.9 4.4 0 2.6 1.8 4.3 3.9 4.3 2.2 0 3.9-1.7 3.9-4.4z"/><path fill="#e6e6e6" d="m829.6 305.8 1.4-2.1c1.4 1.1 3 1.7 4.4 1.7s2.1-.5 2.1-1.5-1.3-1.4-2.8-1.8c-.1 0-.2-.1-.2-.1-2-.6-4.2-1.4-4.2-4s2.1-4.1 4.8-4.1c1.7 0 3.5.6 5 1.5l-1.2 2.2c-1.3-.8-2.6-1.3-3.8-1.3s-1.9.5-1.9 1.4 1.3 1.4 2.8 1.8c.1 0 .2.1.2.1 2 .6 4.2 1.5 4.2 4 0 2.9-2.2 4.2-5 4.2-1.9 0-4-.7-5.8-2z"/><path fill="#e6e6e6" d="m206.3 434.2c0-5.1 4.1-9.2 9.3-9.2s9.2 4.2 9.2 9.2-4.1 9.2-9.3 9.2-9.2-4.1-9.2-9.2zm17.4-.1c0-4.5-3.5-8.2-8.2-8.2s-8.2 3.7-8.2 8.3c0 4.5 3.5 8.2 8.2 8.2s8.2-3.7 8.2-8.3zm-13.1-.1c0-2.8 2.1-5.1 5.1-5.1 1.9 0 2.9.6 3.9 1.5l-1.4 1.7c-.8-.7-1.5-1.1-2.5-1.1-1.7 0-2.8 1.4-2.8 3.1s1.1 3 2.8 3c1.1 0 1.7-.5 2.5-1.1l1.4 1.4c-1.1 1.1-2.1 1.7-4 1.7-2.9.1-5-2.2-5-5.1z"/><path fill="#e6e6e6" d="m226.1 425.3h3.4l4.2 13.2 4.4-13.3h2.6l4.4 13.3 4.2-13.2h3.3l-6.2 18h-2.7l-4.4-12.8-4.4 12.8h-2.7z"/><path fill="#e6e6e6" d="m252.4 436.4c0-3.9 3.1-7 7.2-7 4.2 0 7.2 3.2 7.2 7s-3.1 7-7.3 7c-4.1 0-7.1-3.1-7.1-7zm11.2 0c0-2.3-1.7-4.3-4.2-4.3s-4.1 2-4.1 4.3 1.7 4.3 4.1 4.3c2.7.1 4.2-1.9 4.2-4.3z"/><path fill="#e6e6e6" d="m269 429.7h3.1v3c.8-2 2.4-3.4 4.8-3.3v3.2h-.2c-2.7 0-4.6 1.7-4.6 5.4v5.1h-3.1z"/><path fill="#e6e6e6" d="m278.6 424.5h3.1v11.1l5.6-6h3.8l-5.4 5.5 5.5 8h-3.5l-4.1-5.8-1.9 2v3.9h-3.1z"/><path fill="#e6e6e6" d="m291.3 436.4c0-3.9 3.1-7 7.2-7 4.2 0 7.2 3.2 7.2 7s-3.1 7-7.3 7c-4.1 0-7.1-3.1-7.1-7zm11.2 0c0-2.3-1.7-4.3-4.2-4.3s-4.1 2-4.1 4.3 1.7 4.3 4.1 4.3c2.6.1 4.2-1.9 4.2-4.3z"/><path fill="#e6e6e6" d="m307.7 438.2v-8.6h3.1v7.6c0 2.1 1.1 3.3 2.9 3.3s3-1.3 3-3.3v-7.6h3.1v13.4h-3.1v-2.1c-.8 1.3-2.1 2.3-4.2 2.3-3 .2-4.8-1.8-4.8-5z"/><path fill="#e6e6e6" d="m323.4 439.4v-7.1h-1.7v-2.6h1.7v-3.7h3.1v3.7h3.6v2.6h-3.6v6.6c0 1.2.6 1.7 1.7 1.7.7 0 1.3-.2 1.9-.5v2.5c-.8.5-1.7.7-2.8.7-2.3 0-3.9-.9-3.9-3.9z"/><path fill="#e6e6e6" d="m332.7 425.3h3.2v15h9.4v2.9h-12.5v-17.9z"/><path fill="#e6e6e6" d="m355.5 443.1v-1.7c-.9 1.1-2.3 2-4.4 2-2.6 0-4.8-1.4-4.8-4.2 0-3 2.3-4.4 5.4-4.4 1.7 0 2.6.2 3.7.5v-.2c0-1.9-1.2-2.9-3.3-2.9-1.5 0-2.6.3-3.9.8l-.8-2.5c1.5-.7 2.9-1.1 5.1-1.1 4 0 5.9 2.1 5.9 5.7v8zm.1-5.6c-.8-.3-1.9-.5-3.1-.5-2 0-3.1.8-3.1 2.1s1.1 2 2.6 2c2 0 3.5-1.1 3.5-2.9z"/><path fill="#e6e6e6" d="m364.4 441.1v2.1h-3.1v-18.7h3.1v7.4c1-1.4 2.4-2.5 4.5-2.5 3.2 0 6.3 2.5 6.3 7s-3.1 7-6.3 7c-2.1 0-3.5-1.1-4.5-2.3zm7.7-4.7c0-2.6-1.7-4.3-3.9-4.3-2.1 0-3.9 1.7-3.9 4.4 0 2.6 1.8 4.3 3.9 4.3 2.2 0 3.9-1.7 3.9-4.4z"/><path fill="#e6e6e6" d="m376.5 441.4 1.4-2.1c1.4 1.1 3 1.7 4.4 1.7s2.1-.5 2.1-1.5-1.3-1.4-2.8-1.8c-.1 0-.2-.1-.2-.1-2-.6-4.2-1.4-4.2-4s2.1-4.1 4.8-4.1c1.7 0 3.5.6 5 1.5l-1.2 2.2c-1.3-.8-2.6-1.3-3.8-1.3s-1.9.5-1.9 1.4 1.3 1.4 2.8 1.8c.1 0 .2.1.2.1 2 .6 4.2 1.5 4.2 4 0 2.9-2.2 4.2-5 4.2-2 0-4.1-.7-5.8-2z"/><path fill="#e6e6e6" d="m505.1 434.2c0-5.1 4.1-9.2 9.3-9.2s9.2 4.2 9.2 9.2-4.1 9.2-9.3 9.2-9.2-4.1-9.2-9.2zm17.4-.1c0-4.5-3.5-8.2-8.2-8.2s-8.2 3.7-8.2 8.3c0 4.5 3.5 8.2 8.2 8.2s8.2-3.7 8.2-8.3zm-13.1-.1c0-2.8 2.1-5.1 5.1-5.1 1.9 0 2.9.6 3.9 1.5l-1.4 1.7c-.8-.7-1.5-1.1-2.5-1.1-1.7 0-2.8 1.4-2.8 3.1s1.1 3 2.8 3c1.1 0 1.7-.5 2.5-1.1l1.4 1.4c-1.1 1.1-2.1 1.7-4 1.7-2.9.1-5-2.2-5-5.1z"/><path fill="#e6e6e6" d="m525 425.3h3.4l4.2 13.2 4.4-13.3h2.6l4.4 13.3 4.2-13.2h3.3l-6.2 18h-2.7l-4.4-12.8-4.4 12.8h-2.7z"/><path fill="#e6e6e6" d="m551.2 436.4c0-3.9 3.1-7 7.2-7 4.2 0 7.2 3.2 7.2 7s-3.1 7-7.3 7c-4.1 0-7.1-3.1-7.1-7zm11.2 0c0-2.3-1.7-4.3-4.2-4.3s-4.1 2-4.1 4.3 1.7 4.3 4.1 4.3c2.7.1 4.2-1.9 4.2-4.3z"/><path fill="#e6e6e6" d="m567.8 429.7h3.1v3c.8-2 2.4-3.4 4.8-3.3v3.2h-.2c-2.7 0-4.6 1.7-4.6 5.4v5.1h-3.1z"/><path fill="#e6e6e6" d="m577.5 424.5h3.1v11.1l5.6-6h3.8l-5.4 5.5 5.5 8h-3.5l-4.1-5.8-1.9 2v3.9h-3.1z"/><path fill="#e6e6e6" d="m590.1 436.4c0-3.9 3.1-7 7.2-7 4.2 0 7.2 3.2 7.2 7s-3.1 7-7.3 7c-4.1 0-7.1-3.1-7.1-7zm11.2 0c0-2.3-1.7-4.3-4.2-4.3s-4.1 2-4.1 4.3 1.7 4.3 4.1 4.3c2.6.1 4.2-1.9 4.2-4.3z"/><path fill="#e6e6e6" d="m606.5 438.2v-8.6h3.1v7.6c0 2.1 1.1 3.3 2.9 3.3s3-1.3 3-3.3v-7.6h3.1v13.4h-3.1v-2.1c-.8 1.3-2.1 2.3-4.2 2.3-3 .2-4.8-1.8-4.8-5z"/><path fill="#e6e6e6" d="m622.2 439.4v-7.1h-1.7v-2.6h1.7v-3.7h3.1v3.7h3.6v2.6h-3.6v6.6c0 1.2.6 1.7 1.7 1.7.7 0 1.3-.2 1.9-.5v2.5c-.8.5-1.7.7-2.8.7-2.3 0-3.9-.9-3.9-3.9z"/><path fill="#e6e6e6" d="m631.5 425.3h3.2v15h9.4v2.9h-12.5v-17.9z"/><path fill="#e6e6e6" d="m654.3 443.1v-1.7c-.9 1.1-2.3 2-4.4 2-2.6 0-4.8-1.4-4.8-4.2 0-3 2.3-4.4 5.4-4.4 1.7 0 2.6.2 3.7.5v-.2c0-1.9-1.2-2.9-3.3-2.9-1.5 0-2.6.3-3.9.8l-.8-2.5c1.5-.7 2.9-1.1 5.1-1.1 4 0 5.9 2.1 5.9 5.7v8zm.1-5.6c-.8-.3-1.9-.5-3.1-.5-2 0-3.1.8-3.1 2.1s1.1 2 2.6 2c2 0 3.5-1.1 3.5-2.9z"/><path fill="#e6e6e6" d="m663.3 441.1v2.1h-3.1v-18.7h3.1v7.4c1-1.4 2.4-2.5 4.5-2.5 3.2 0 6.3 2.5 6.3 7s-3.1 7-6.3 7c-2.2 0-3.6-1.1-4.5-2.3zm7.7-4.7c0-2.6-1.7-4.3-3.9-4.3s-3.9 1.7-3.9 4.4c0 2.6 1.8 4.3 3.9 4.3s3.9-1.7 3.9-4.4z"/><path fill="#e6e6e6" d="m675.3 441.4 1.4-2.1c1.4 1.1 3 1.7 4.4 1.7s2.1-.5 2.1-1.5-1.3-1.4-2.8-1.8c-.1 0-.2-.1-.2-.1-2-.6-4.2-1.4-4.2-4s2.1-4.1 4.8-4.1c1.7 0 3.5.6 5 1.5l-1.2 2.2c-1.3-.8-2.6-1.3-3.8-1.3s-1.9.5-1.9 1.4 1.3 1.4 2.8 1.8c.1 0 .2.1.2.1 2 .6 4.2 1.5 4.2 4 0 2.9-2.2 4.2-5 4.2-2 0-4.1-.7-5.8-2z"/></g>
</svg>
