<?xml version="1.0" encoding="utf-8"?>
<!-- Generator: Adobe Illustrator 23.0.1, SVG Export Plug-In . SVG Version: 6.00 Build 0)  -->
<svg version="1.2" baseProfile="tiny" id="Layer_1" xmlns="http://www.w3.org/2000/svg" xmlns:xlink="http://www.w3.org/1999/xlink"
	 x="0px" y="0px" viewBox="0 0 900 600" xml:space="preserve">
<g>
	<path d="M271.02,149.2c-24.28,0-16.98,4.67-19.1,8.07c0,0,0,0,0,0c-0.04-0.08-0.08-0.06-0.12,0.05c-1.39,0.64-2.88,0.49-4.16,1.68
		c-0.51,0.2,0.2,1.23-0.92,1.94c-10.73,1.63-21.76,3.37-33,5.11c-4.23-5.92-11.45-2.57-16.75-3.68c-0.82,0.72-1.53,1.33-2.15,1.94
		c-7.26-0.56-1.48,4.77-6.23,5.62c-34.28,6.11-33.09,5.4-34.22,4.9c-1.43-1.23-2.15-3.17-4.09-3.68c-1.74-0.2-3.27,0.69-4.8,1.02
		c-1.74,0.38-3.37-0.31-5.11-0.1c-2.25,1.43-4.8,2.25-6.54,3.58c-2.91,2.62,6.17,2.75-24.93,6.44c-1.53-1.63-3.17-2.86-3.68-4.9
		c-6.37-1.76-10.09-0.18-10.83-0.51c-1.34-0.59-2.55-0.2-3.78,0.1c-7.5,1.88-0.27-36.33-11.44,341c0,0.11-1.33,71.83-1.33,79.78
		c0,0.67,1.15,1.5,2.35,0.31c0-0.1,3.64-195.89,3.78-215.14c0.01-1.82-0.17-2.42,3.58-2.04c3.65,0,3.22-0.56,3.17,3.78
		c-0.17,13.76-3.71,212.18-3.27,213.4c5.22,5.22,6.4-400.89,9.6-402.09c5.76,1.15,5.02,0.68,5.01,2.86
		c-1.5,184.44-2.66,300.31-3.29,357.5c0.56-42.58,1.58-115.67,3.19-214.38c0.37-22.97,0.31-20.58,0.51-24.42
		c0.43-8.1-0.27-4.84,1.53-6.64c2.9-2.23-1.01-3.73-1.23-4.49c0-22.86,0-11.93,1.02-64.87c1.13-58.39-0.45-41.81,4.8-46.48
		c2.97-5.93-8.24-3.32,22.88-7.97c2.24,0,2.11,5.52,1.43,7.66c-1.26,3.96,0.96,7.79,3.47,31.67c1.66,15.83,8.3,17.05,8.17,23.7
		c0,0.17,1.35,4.82,1.02,8.58c-0.68,7.76,2.67,8.72,3.68,15.43c0.43,2.86,0.78,5.73,1.74,8.48c1.61,4.63-1.31,19.17,7.15,30.75
		c-1.24,1.41,0.61,3.19,1.12,5.52c4.86,22.01,16.28,17.62,20.53,26.66c7,14.91,5.51,6.01,6.33,16.86
		c0.27,3.56,3.07,10.53,4.09,12.46c0.99,1.89,0.72,1.25,0.72,14.71c-1.53,0.51-1.33,2.35-2.35,3.78
		c-3.53,0.71-15.17,18.9-11.34,34.22c-1.53,2.86-1.23,6.13-2.25,9.19c3.51,9.12-4.77,38.32-4.29,40.25
		c-3.61,6.19-0.41,3.39-0.41,5.82c-7.36,0.96-10.11,0.87-13.38,2.76c-10.59,6.11-8.88,6.88-16.04,15.53
		c-7.58,9.16-6.51,9.5-8.17,9.81c-2.66-0.72-5.72-0.44-8.68-0.72c-2.45-0.23-3.97,0.82-5.11,2.86c-4.33,7.78-1.33,6.77-2.55,14.1
		c-3.78,0.31-6.84,2.66-10.22,3.58c-0.81,8.31,1.3,8.31,0.72,12.46c-1.62,11.47-15.82,22.21,12.46,35.45
		c1.53-0.31,3.06-0.51,4.49-0.92c4.09-0.74,5.93-8.19,4.9-12.05c-2.61-9.83-2.97-11.29-1.53-15.32c4.25-2.67,8.96-9.04,18.39-14
		c2.09-0.95,4.26-4.01,4.8-5.31c-0.35-1.73-0.59-1.75,0.82-2.45c12.47-7.41,53.4-22.17,56.8-22.47c8.23-0.74,8.21-6.21,12.26-9.5
		c1.35,0.67,0.64,0.22,6.13,2.66c1.83-0.73,2.63-3.19,2.76-4.7c0.71-8.29,4.3-14.32,5.31-19c13.85-64.26,10.63-73.11,8.07,34.22
		c-2.16,90.42-3.1,91.16,0.31,87.75c0,0,0.62-20.86,3.37-130.45c3.37-134.25,5.1-215.88,5.76-261.37c0.68-14.99,1.41-31.3,2.2-49.08
		c0.14-3.18-0.13-5.61,9.91-5.21c0.78,8.54-15.76,749.15-2.86,307.28c8.96-306.77,0.96-309.71,9.5-307.39
		c2.21,2.21,1.86,0.81,1.84,4.9c0,0.11-0.96,58.43-1.12,62.42c-1.44,34.76,1.86,22.02-4.8,26.46c4.8,2.95,4.39-6.42,3.98,16.34
		c-1,56.24,0.02,29.89-5.52,39.13c1.33,1.23,3.17-0.2,4.7,0.82c0.74,1.86-4.88,295.83-4.19,296.66c3.38,3.38,1.77,1.04,4.9-175.91
		c2.43-137.28,0.64-107.41,3.88-113.09c0.31-2.66,0.31-2.66-1.94-4.9C272.45,160.42,279.82,153.26,271.02,149.2z M89.91,378.33
		c-6.6,0-6.37,0.64-6.34-2.15c0.06-6.83,0.49-30.19,0.92-33.2c1.46-0.89,7.61,1.45,5.11-2.55c-5.08,0-4.72,0.16-5-0.47
		c-0.23-0.52,0.4-32.02,0.4-32.12c3.18-141.87-1.35-126.72,7.87-129.43C93.99,179.74,90.9,376.93,89.91,378.33z M97.97,178.01
		c7.47,0.93,5.88,0.81-1.33,2.15C96.03,178.5,96.54,178.01,97.97,178.01z M102.98,309.07c0.4,0-0.2,0.77-0.2,0.2
		C102.77,309.17,102.88,309.17,102.98,309.07z M97.26,194.45c-2.45-2.23-1.17-10.45-0.61-11.95c3.06-1.11,6.79-2.07,9.4-0.1
		c-2.8,1.51-4.73,0.55-6.23,1.64c-2.46,2.19-0.81,9.78,6.66,6.68C106.57,190.69,110.74,195.32,97.26,194.45z M132.19,184.24
		c-4.51,1.15-26.97,4.19-29.73,4.6c-0.86-0.46-1.37-1.17-1.23-2.15c0.67-1.35,29.27-5.15,30.74-5.31
		C132.08,181.38,133.11,182.23,132.19,184.24z M251.32,160.12c0.03,0.03,0.05,0.08,0.07,0.12c-0.23,2.38-0.48,6.08-0.77,10.84
		c-0.85-0.37-1.39-1.21-1.35-1.34C249.71,164.67,248.73,159.18,251.32,160.12z M250.44,174.17c-2.17,38.52-5.57,131.87-6.2,165.38
		c-0.69-3.76-1.82-7.32-3.59-9.17c-4.85-5.08,0.16-9.42-5.18-19.67c-0.71-1.37-3.37-5.7-6.33-11.34c0.86-17.99,1.51-15,0.61-19.61
		c-2.08-10.65-2.12-11.16-3.17-13.48c-2.74-6.11-0.72-5.89-3.88-15.02c-2.3-6.65,0.38-11.78-2.25-26.15
		c-2.29-12.53-6.9-15.03-10.93-25.33c-2.05-5.25-1.97-10.29-3.47-12.36c7.84-14.48-13.46-9.98,40.96-17.88
		C248.63,173.84,249.73,174.14,250.44,174.17z M247.02,163.4c1.1,1.65,0.52,3.58-0.1,3.58c-41.9,6.23-38.06,6.94-37.19,2.5
		C209.72,168.75,242.42,164.17,247.02,163.4z M191.65,176.61c0.16-9.55-0.16-8.7,0.31-9.63c1.12-1.5,3.58,1.16,5.62-2.25
		c0.11-0.01,6.75-0.81,7.66-0.31c2.3,1.53,4.14-1.44,5.46,1.92c0.39,0.78-1.27,0.34-1.47,0.74c-1.27,1.69-0.22,2.62-1.23,3.88
		c-1.96,2.47-1.53,4.48-1.53,11.85c0,0.92-2.18,1.53-2.14,4.22c0.03,1.77-1.5,3.31-0.42,5.08c1.02-0.41,0.92-1.43,1.43-2.04
		c0.46,0.46,1.15,3.97,0.82,5.52c-0.34,1.02,0.26,2.69,0.61,3.68c5.78,16.32,10.54,14.42,11.75,26.87
		c0.88,9.04,2.23,11.26,1.56,15.78c-0.58,3.93-0.87,2.05,3.24,19.05c8,33.15,4.5,14.31,3.65,38.36c-0.27,7.57-0.54,11.14,2.08,3.93
		c4.71,10.05,12.63,22.78,1.43,26.97c-19.06,7.13-42.68-18.86-25.74-49.84c1.16-2.12,1.36-4.55,0.51-7.05
		c-4.65-13.63-0.23-21.52-3.58-28.4c-4.36-8.98-5.11-30.03-5.11-37.06c0-6.68-1.85-4.17-2.86-20.25
		C193.17,179.08,191.58,180.67,191.65,176.61z M201.15,252.38c0,0.71-0.41,0.69-0.41,0.31
		C200.95,252.58,201.05,252.48,201.15,252.38z M195.33,224.69c0,19.78,3.93,14.25,2.62,17.21c-0.68,1.53-1.6,0.18-2.72,0.87
		c-7.99,4.95-11.63-1.44-22.58,6.23c-8.56,6-2.92,7.2-11.85-10.22c-1.05-2.04,0.15-3.47-1.63-11.65
		c-0.88-4.01-13.81-18.78-12.36-32.08c7.34-9.06,6.32-1.2,9.5-11.54c0.1,0,21.49-3.45,33.1-5.11
		C193.84,193.22,195.12,221.56,195.33,224.69z M197.87,251.97c0,0,0.06-0.05,0.12-0.11C198.18,251.67,197.87,252.63,197.87,251.97z
		 M194.71,250.03c0.15-0.1,0.29-0.22,0.41-0.34C196.13,248.91,195.83,250.87,194.71,250.03z M190,265.86c1.78,0.59,0.71,0.98,0,2.86
		C190.19,267.99,189.28,266.94,190,265.86z M188.59,268.06c-0.11,2.81-2.6-1.67,1.11-4.34c0.42,0.42,0.88-0.46-1.12,2.35
		C188.52,266.73,188.62,267.39,188.59,268.06z M183.89,255.65c-0.41-0.61-0.41-0.92-0.1-1.33
		C184.29,254.73,183.99,255.13,183.89,255.65z M176.12,272.4c-0.13-0.13-0.13-0.1,0-0.1C176.26,272.3,176.25,272.27,176.12,272.4z
		 M172.94,259.32c-0.68,0-0.39-1.02,0.21-1.02C173.35,258.11,174.12,259.08,172.94,259.32z M189.61,172.29c0,4.6,3.1,3.16-23.6,7.05
		c-7.37,1.07-15.51,2.35-16.65,2.35c-1.71-0.85-1.5-2.79-1.24-2.88C151.9,177.94,148.69,178.48,189.61,172.29z M166.31,328.58
		c-2.68-2.01-2.46-2.88-6.33-14.51c0.73-1.28,0.18-2.14-1.63-5.01c-6.65-10.51-3.22-22.64-5.72-28.81
		c-2.5-6.17-2.6-13.58-4.49-17.06c-1.59-2.92-0.03-3.71-1.53-11.65c-3.1-16.45-6.56-5.61-10.52-40.25c-1.51-13.22,0.84-9.28,0.2-14
		c-1.55-0.52-1.23-0.13-1.23-3.88c0-8.61-1.54-7.41-0.28-16.39c0.14-0.98,1.77-0.65,3.14-2.41c2.04,0.51,0.55,2.22,2.15,2.45
		c1.12-1.35-0.97-1.99,0.82-3.78c0.92,0,0.72,0.92,1.53,1.23c2.04-1.53,4.6-1.94,7.25-2.15c1.16,0.53,2.78,2.29,1.89,2.63
		c-1.36,0.52-2.6-1.99-4.65,0.75c-1.63,2.17,0.12,9.25,6.74,7.36c1.44,4.32-3.21,3.73-7.46,9.4c-0.13-0.18-0.5-3.76-1.78-1.2
		c-3.06,9.75,8.04,27.2,12.1,33.89c1.03,1.69,1.23,3.34,1.23,6.03c0,8.45,4.6,13.9,5.52,17.78c0.9,3.83,3.16,3.41,2.3,4.53
		c-0.63,0.81-2.58,0.34-2.58,1.3c0.16,1.05,2.81,2.1,1.81,2.93c-0.34,0.29-1.21,0.39-1.21,0.93c0.07,1.31,1.63,0.86,2.14,1.86
		c0,15.43,8.24,27.3,8.79,32.79c1,0.4,2.52,0.87,1.33,3.58c-5.21,11.78-5.77,7.88-6.39,9.81c-0.52,1.6,0.67,0.72-1.27,2.66
		C168.15,310.11,166.42,328.04,166.31,328.58z M188.07,360.66c-0.61-7.2-5.79-12.19-6.84-17.26c-3.09-3.27-4.54-4.53-5.1-4.95
		c0.42,0.16,1.13,0.13,1.13-1.62c-0.34,0-0.62-0.31-0.68-0.52c-0.06-0.3,0.43-0.16,0.62,0.35c-0.02,0-0.03,0-0.05,0
		c0.15,0.15,0.1,0.12,0.07,0.01c0.93,0.05,1.94-0.34,3.09-0.92c-0.37-1.86-3.78,0.41-3.78,0.31c0,0.67-2.1-2.17-2.45-0.46
		c-0.3,1.46,2.47,3.52-5.61-4.56c1.83-23.36,1.12-16.85,4.62-25.24c2.88-6.91,0.59,2.28,3.03,7.16c1.7,3.4,3.08,2.82,4.8,3.68
		c0.41,2.76,1.38,5.52,1.02,8.48c-0.5,4.12,1.28,8.18,2.83,9.11c-4.92-27.65-0.45-10.12,5.15-21.06c3.88-7.59,3.3-5.52,3.88-6.69
		c0.84-1.71-0.57-3.81-6.84,8.73c-6.08,2.03-3.68-3.07-5.72-5.11c-2.53-0.28,0.18,5.59-0.94,4.47c-4.18-2.83-3.74-12.01-3.85-12.54
		c0-0.8,0.99,1.94,2.03,1.94c1.63-5.15-2.62-12.45-0.1-14.61c2.71,0.45,2.21,0.07,3.17-1.84c2.07,0,0.21,0,3.06-2.15
		c-0.49-2.95-0.09-1.54,0.75-2.28c0.03-0.03,0.33-1.31,0.47-1.63c0.42-1.01,1.79-1.76,2.15-2.11c0.31-2.14,0.16-2.39,0.72-6.84
		c1.84,0.69,3.9,4.54,5.26,1.56c0.63-1.37-1.73-2.18-2.2-2.18c0,0.78,0.67,0.8,1.34,0.8c0,1.99-1.91,1.45-2.57-1.52
		c-0.45,0-0.72-0.22-0.72-0.72c-0.82,0-1.36-0.16-1.33-1.26c1.38,0.86,1.95,2.48,3.35,2.48c-0.18-0.8,0.43-1.3,0.79-2.09
		c0.36-0.79-1.17-1.58-0.8-3.7c0.43-2.43,1.56,2.86,2.87,4.77c1.34,0,0.54-2.2,1.65-6.81c0.29-1.22,0.75-2.39,1.41-3.5
		c1.03-1.73,0.92-3.78,1.84-5.62c1.96,0,0.9,2.72,1.43,4.7c0.19,0.69,3.32,16.44,3.27,16.96c-0.87,1.73-3.34,5.19-4.7,8.58
		c-4.01,0-2.88-5.85-6.23-8.68c-0.41,3.08,1.94,5.19,1.94,7.66c1.32,1.99,3.94,1.87,3.68,3.06c-0.42,1.9-0.86,3.63-2.15,4.91
		c1.03,2.41-1.02,5.44,0,8.07c-2.53,1.45-2.3,2-2.04,4.6c0.82-0.1,0.82-1.02,1.33-1.43c0.78-0.26,2.75,25.39,22.47,29.42
		c2.11,0.6,1.74,0.13,3.47,1.43c1.61-1.61-0.75-0.9,10.42-3.98c1.43-0.92,2.25-2.86,4.49-3.68c-0.13,0.97-0.27,1.34-0.59,3.17
		c-0.53,2.11,0.46,5.04,1.31,1.44c0.09-0.4,0.21-0.79,0.51-1.12c1.84,2.15,3.06,4.6,3.78,7.25c0.34,1.25,4.64,39.1-0.41,45.77
		c0.25,0.4-0.6,6.98-2,9.39c-12.11-2.91-41.49-3.19-45.77-2.86c-1.51-1.01-0.06-1.96-1.02-8.68c-0.58-4.03,1.11-1.5-0.41-6.44
		C189.52,365.05,188.37,364.13,188.07,360.66z M241.09,395.29c-0.79,0.63-1.22-0.61-0.46-0.61
		C240.98,394.68,241.35,395.29,241.09,395.29z M234.45,395.91c-0.43-0.61-0.64-0.94-0.65-1.16
		C233.76,393.88,235.88,393.82,234.45,395.91z M232.73,395.8c-4.2,2.07-0.61-5.84-0.19-0.69
		C232.55,395.36,232.59,395.6,232.73,395.8z M209.53,393.04c-0.69,0-0.15-0.87,0.1-1.53C209.93,392.12,210.49,393.04,209.53,393.04z
		 M197.77,392.22c0.02,0.32-0.16,0.58-0.6,0.73C196.67,392.19,197.72,391.45,197.77,392.22z M147.72,495
		c11.28-11.02,19.87-9.28,25.64-11.44c0.92,0.23,0.96,0.78,0.61,1.12c-22.05,16.76-17.51,17.57-33.81,27.79
		c-1.53-0.61-3.27-0.72-5.31-1.33C151.22,492.43,144.7,497.95,147.72,495z M114.42,529.83c2.34-1.87,2.45,0,1.02,0.61
		c-0.56-0.38-1.64-1.35-0.82,1.12c0,0.41-2.2,3.8-2.89,2.35c-0.16-0.34-0.14-0.92-0.67-0.92c-1.65,0-0.27,2.84-0.45,3.02
		c-1.06,2.05-2.31,2.07-2.31-2.32C108.3,532.25,110.02,530,114.42,529.83z M144.45,535.14c-13.94,7.44-7.84,8.32-21.96,16.04
		c-3.51,1.92-5.81,4.68-7.25,6.13c3.23-0.68,4.1-2.51,9.3-5.11c1.09,1.09-0.2,2.16-0.1,3.17c2.62,11.14,4.33,13.23,1.02,19.41
		c-1.63,1.23-3.68,1.33-5.52,1.84c-8.6-4.75-14.99-7.22-16.65-16.45c1.98-3.96,2.06-8.46,3.2-6.66c0.29,0.46,0.2,1.7,0.98,2.94
		c0.49,0.78,4.91,3.76,4.91,4.8c0.52,0.86-0.77-1.58,1.23-1.58c1.67,6.84,0.18,2.18-1.02,1.94c0.21,2.99,3.43,9.32,5.82,7.46
		c-0.92-3.37-3.06-6.33-3.78-9.81c-0.13-1.04,1.79-2.18,0.14-1.62c-1.18,0.4-3.58,1.2-3.95,0.01c-1.6-5.02-3.77-9.11-1.6-16.06
		c1.5-4.82,13.38-8.47,9.19-21.04c0.63-2.72,2.88-9.51,5.52-8.07c0.72,0.72-0.43,0.63,0.38,2.19c2.11,4.08-0.14,8.76,0.12,11.26
		c2.37-3.49,2.86-5.96,2.26-10.69c2.42-1.1,8.91,0.43,6.74-0.67c-3.33-1.7-11.7-0.7-7.41-1.36c3.74-0.58,6.91-0.28,12,1.11
		c0.45,0.63,1.06,1.35,1.62,2.07c1.6,2.06-9.25,3.95-3.05,14.27c6.39,3.03,5.35,2.71,10.29,1.15
		C147.84,531.51,146.51,534.04,144.45,535.14z M140.67,529.32c-0.47,0.65-1.19,0.45-1.43,0c-1.71-3.28-4.31-8.58-0.61-8.58
		C139.14,523.7,139.86,526.56,140.67,529.32z M147.39,531.56c0.03-0.06,0.06-0.13,0.13-0.19
		C147.7,531.46,147.63,531.55,147.39,531.56z M214.12,502.45c-0.96,1.15-6.19,3.46-8.68,3.06c-1.3-0.29-9.9,3.93-18.29,6.54
		c-17.73,5.51-21.38,6.01-29.22,10.01c-13.79,7.05-11.64,8.89-14.51,8.68c-1.1-3.52-2.97-7.03-3.37-10.93
		c3.9,1.19,5.86-2.82,8.38-3.78c0.9-0.34,1.07-1.39,0.61-1.73c-0.31-0.27,0.22-0.27-7.56,3.46c-1.07-4.26,0.71-4.18,8.99-9.7
		c12.62-9.46,23.18-30.06,47.5-23.7c2.99,0.78,2.3-0.99,4.41,1.06C218.05,500.6,222.5,492.41,214.12,502.45z M245.79,387.33
		c-1.19,25.53,0.33,15.01-2.85,12.37c-4.05-3.36,2.32,10.72,1.62,14.8c-3.27,19.28-5.88,22.43-3.88,28.81
		c-1.33,1.83-1.66,3.97-2.15,6.12c-10.43,45.81-10.32,35.26-11.14,45.15c-0.09,1.14-0.45,2.16-1.23,3.06
		c-5.81-3.16-16.43-7.02-21.55-12.87c-4.07-4.64-7.71-4.7-13.18-4.7c0.56-2.81,3.41-1.61,10-0.83c11.07,1.32,10.33,2.09,11.15,1.44
		c-0.44-2.64-11.31-3.42-14.71-3.78c-5.5-0.58-0.03-1.02-0.2-15.63c-0.03-2.38,3.84-24.78,0.51-15.94
		c-2.33,7.76-0.97,7.78-2.15,10.52c-0.19,0.13-6.59,3.33-3.94,2.81c4.17-0.81,4.05-1.68,3.34,7.2c-0.76,1.19-4.29,2.72-4.29,3.36
		c2.39,0.34,4.86-5.07,1.33,6.54c-0.67,0.87-1.52,1.2-2.39,1.64c-0.27,0.16-0.19,0.01-0.99-0.17c-1.66-0.39-11.54,0.38-2.68,1.42
		c0.31,0.04,2.12,0.23,2.38,0.29c-0.45,3.63-6.02,1.29-10.01,2.66c-0.11,0.04-3.5,0.16-4.7-0.72c-0.51-0.37-1.33-0.21-1.89-0.22
		c-2.96-0.06-0.62-2.56-0.06-4.36c-0.1-0.61-0.2-1.33-0.31-2.15c3.07-5.41,6.45-30.13,4.39-36.57c1.02-2.45,0.31-5.11,1.63-7.66
		c3.15,2,5.66,4.02,8.68,4.8c2.51-2-5.19-4.18-8.07-5.62c-0.59-0.83,0.64-0.53-0.92-5.21c-1.12-3.37,1.17-14.42,3.98-20.64
		c6.9-7.29,5.74-8.91,9.6-8.17c0.19-0.09,1.08-0.98,1.23-1.12c0.35,0.08,0.78,0.12,1.12,0.15c6.39,0.53,4.87-0.33,5.12-1.58
		c0.25-1.26,1.11-1.42,1.43-0.95c0.62,0.92,1.28,3.47,2.46,2.91c1.13-0.53,2.41,2.18,8.25-0.32c0.27-1.87-0.14-2.45,0.92-2.45
		c4.32,0.62,2.86-0.9,6.8-0.16c1.53,0.28,0.27,2.43,1.27,3.53c1.09,0.21,0.73-1.23,1.43-1.53c0.67-0.29,1.15,0.59,1.8,0.35
		c0.14-0.05,0.15-0.07,0.18,0.08c1.4,4.71,1.63-0.74,2.82,0.91c0.59,0.82,0.6,1.01,1.04,0.4c0.3-0.41,0.7-3.86,1.46-2.04
		c0.82,1.96-1.48,3.7,4.07,4.23c5.82,0.56,2.34-0.81,3.34-2.4c0.1-0.1,0.63-1.51,1.38-0.76c0.34,0.34,0.08,1.12,0.56,1.37
		c2.15,0.92,2.15,0.92,3.47,2.96c2.32,0-0.12-6.38,1.84-9.6c1.66-2.73,1.67-14.99,2.35-19.72c0.72,0.72,0.5,1.43,0.51,2.15
		c0.1,4.65,0.19,6.92,0.27,7.92C246.16,380.36,246.01,382.6,245.79,387.33z M245.18,350.85c0.04-1.47-0.02-3.51-0.21-5.74
		c0.85-11.99,2.4-41.1,4.93-94.97C248.41,311.88,246.25,385.68,245.18,350.85z"/>
	<path d="M98.77,556.14C98.05,611.64,98.12,615.26,98.77,556.14L98.77,556.14z"/>
	<path d="M550.11,148.18c-6.13-0.2-12.26,0.2-17.98,2.25c-1.63,1.74-0.51,3.98-1.43,5.82c-1.33,0.61-2.96,0.41-4.19,1.63
		c-0.31,0.51,0,1.33-0.92,1.84c-39.72,6.18-34.64,6.12-36.67,2.55c-3.77-1.67-3.13-0.67-5.31-0.41c-0.82,0.1-1.73-0.61-2.66-0.1
		c-1.32,0.72-2.76,0.31-3.98-0.2c-1.02,0.61-1.94,1.12-2.86,1.63c-1.94-0.61-3.58-0.1-4.8,1.43c-2.15,5.59,7.46,2.72-36.88,9.6
		c-2.25-2.02,0-2.98-5.72-3.47c-6.19-0.54-3.76-0.38-6.44,0.51c-0.1,0.03-7.04,0.83-7.15,0.82c-2.73-0.32-1.98,3.52-3.78,5.62
		c-2.96,0.51-6.13,0.92-9.19,1.43c-1.63-3.37-4.29-5.62-6.84-8.27c1.12-0.92-0.3-1.74-0.1-2.76c1.02-5.21-6.78-8.27-5.11-12.46
		c0.98-3.37,1.69-5.97,0.82-8.58c-0.31-0.1-0.72-0.1-1.02-0.2c-1.99-5.98-1.64,0.13-5.93-0.82c-0.38,0-1.37,1.18-2.66,1.43
		c-16.11,3.13-15.14-0.7-27.48,10.52c-0.11-0.02-2.99-3.26-2.25-0.31c0.62,2.47-2.69,0.69-3.06,2.55c0.2,1.33,2.25,1.23,2.25,2.96
		c-0.2,0.61-1.53,0.31-1.63,1.33c0,1.02,1.23,0.72,1.63,1.53c-3.8,3.8-0.57,7.81,0.82,11.85c2.05,5.98,3.14,3.93,3.88,7.25
		c1.02,4.58,1.35,1.45,4.09,11.03c0.72,3.26,3.37,3.02,1.53,5.72c-2.61,3.85-17.8,14.34-10.22,30.03c0.89,1.85,2.04,3.68,3.17,5.62
		c-0.31,1.43,0.3,2.76,1.12,4.09c7.57,12.14,9.3,3.8,9.3,11.85c0,2.22-6.35,343.2-5.62,344.67c4.12,2.95,4.31-217.22,6.44-218.82
		c8.31,0,6.16-4.26,5.72,22.99c-3.83,239.08-2.23,284.15,2.35,7.56c2.83-170.91,0.39-152.64,6.44-146.59
		c5.73,5.73-11.8,647.81,1.94,138.93c2.73-101-0.23-89.99,2.96-93.06c1.79-1.72,0.92-2.72-1.12-4.09c-0.41-4.6,0.1-31.77,0.61-34.94
		c1.02-0.2,1.12,1.12,2.04,1.12c0.09-0.65-0.21-1.16-0.61-1.74c-2.35-3.36-0.93-5.44-3.27-7.05c-3.34-2.67-2.03-4.34-7.25-7.87
		c-1.53-1.03-3.06-2.15-4.29-3.58c-1.23,0.2-2.35-0.2-3.17-1.12c-3.98-3.98-8.94-2.13-15.02-19.82c-2.64-7.69-0.42-11.97,0.3-15.01
		c0.6-2.55,1.3-4.47,4.4-5.82c0.72,3.25,0.51,6.51,3.98,10.52c5.22,6.03,11.42,4.69,17.16-0.2c4.27-3.64,6.72-3.07,9.81-7.46
		c6.44-9.14,6.31-9.27,7.56-9.5c1.13-0.13,0.71,2.46,1.94,0c6.99-2-5.85,3.36,0.2,22.78c1.91,6.11,1.89,11.23,7.56,17.76
		c4.53,5.22,8.87,5.19,8.87,5.61c-0.16,0.83-1.16,1.42-0.29,2.25c1.33,0.1,1.43-1.33,2.45-1.94c2.25-0.2,4.7,0.31,7.25-0.31
		c2.55-2.35,6.23-3.17,8.89-5.92c0.32,1.35,0.21,3.05-0.61,5.01c-0.82,1.94-0.51,4.09-0.82,6.13c-0.43,0.86,1.91,2.29,4.08-9.5
		c1.09,3.71,2.48,1.18,7.76,15.22c3.05,8.1,6.22,11.05,6.22,11.53c-0.26,2.69-1.89,11.51-4.58,11.87c-1.67,0.33,0.5,0.86-6.74,5.82
		c-1.8,1.23-6.15,3.49-7.15,4.49c-1.75,1.4,0.72,1.91-7.36,2.76c-17.47,1.84-13.7,3.25-36.88-24.42c-0.05-0.1-5.13-5.37,17.46,22.97
		c3.59,4.5,4.29,1.2,4.29,7.15c0,4.46,7.74,17.2,11.54,18.39c14.99,4.68,34.63,3.1,36.37,3.68c5.82,1.94,4.08,1.27,15.53,7.36
		c0.82,1.8,0.43,6.25,2.45,10.52c9.03,19.12,7.28,14.22,7.97,16.65c5.2,18.47,2.55,8.68,0.51,14c0,3.84,0.38,6.7-1.33,10.32
		c-0.54,1.14-1.2,8.2-3.17,11.75c0.51,0.92,0.92,1.74,1.43,2.55c4.9,1.53,9.6,3.78,15.02,2.55c1.33,2.51,7.64,3.74,9.7,4.09
		c11.26,1.88,5.33-1.13,20.43,1.33c1.39,0,0.7-11.22-2.96,172.03c-0.41,20.48-1.63,23.35,1.84,21.04
		c0-0.1,10.04-443.91,12.26-446.63c2.25-0.82,6.13-1.33,8.68-1.12c0.21,2.3-8.44,447.16-6.84,447.95
		c3.21,0.8,4.15-176.91,5.52-224.23c6.7-231.21-0.23-228.64,10.01-222.5c-1.19,111.63-1.23,87.33-5.93,92.45
		c5.42,1.55,4.27-5.75,3.88,20.94c-0.55,37.64,0.43,32.48-3.68,32.89c-1.12,0.11-1.33,0.31-1.63,1.63
		c8.53,6.71,2.01-49.74,0.41,286.24c-0.03,7.2-0.54,11.03-0.1,12.46c2.24,0.61,2.32,0.1,2.35-2.04
		c0.49-38.71,3.43-282.17,6.64-288.59c0.92-2.15-0.41-3.47-1.94-4.6C551.33,165.53,558.46,154.25,550.11,148.18z M358.13,164.12
		c-0.72,1.09-1.55-0.9-0.34-0.9C358.13,163.22,358.42,163.61,358.13,164.12z M381.86,307.34c0,0.15,0.1,0.07,0.1,0.51
		C381.73,307.96,381.42,307.78,381.86,307.34z M362.56,375.27c0.14-12.23,0.43-27.86,0.72-33.61c1.81-1.21,3.7,0.6,5.11-0.31
		c0.79-0.59,0.32-1.39,0.41-2.04c-7.04-3.52-5.86,18.81-3.98-87.24c1.88,1.25,4.71,2.25,6.54,4.19c0,0.99-1.59,115.63-1.94,120.85
		C362.47,377.11,362.53,377.82,362.56,375.27z M525.7,161.97c1.14,1.25,0.71,3.28,0.6,3.28c-2.54,0.85-35.06,5.74-37.7,5.82
		C484.85,167.32,491.77,167.06,525.7,161.97z M467.88,174.12c-1.19,0.79-38.67,6.69-40.96,5.72c-0.78-0.78-0.97-1.51-0.41-2.45
		C474.31,169.67,468.32,170.17,467.88,174.12z M432.94,182.4c2.55-0.73,34.12-6.1,34.12-4.29c-1.88,14.12,0.98,16.79-7.43,30.89
		c-0.64,1.27-1.64-2.08-10.14-2.08c-3.98,0-7.87,0.2-11.95,0.31c-2.55-1.74-5.41-2.76-8.58-3.06c-0.85,0-4.78-2.51-12.26-4.09
		C413.95,195.13,434.57,188.64,432.94,182.4z M417.92,172.69c0.41-0.1,0.92,0.2,1.23,0.31c0.72,0.82-0.41,1.94,0.82,2.55
		c1.77-1.18-0.35-2.85,1.53-3.58c2.07-0.38,7.6-0.75,8.46,2.18c0.24,0.48-2.98-0.24-4.65,0.54c-2.97,1.4-0.85,5.5,1.2,7.8
		c2.39,0.89,5.8-1.57,4.6,1.43c-0.4,1.19-5.91,6.26-10.73,7.87c0,0.3-0.14,0.52-0.43,0.64c-0.44,0.22,0-0.45,0.22-0.52
		c0.16-0.05-0.25-1.38-1.36-0.89c-1.88,0.83-0.38,3.42-5.39,8.43c-7.69-0.2-19.56,5.91-6.13-6.54c3.14-2.91,4.22-6.54,4.1-10.62
		C411,169.79,413.65,174.53,417.92,172.69z M409.35,180.14c3.16,3.55-3.1,3.55-10.42,4.6C396.53,180.82,404.35,180.26,409.35,180.14
		z M398.1,177.12c0.6,1.05-1.93,3.4-1.93-2.07C396.87,175.67,397.63,176.3,398.1,177.12z M385.23,156.66c-0.12,0-0.2-0.07-0.2-0.2
		C385.17,156.59,385.19,156.62,385.23,156.66z M384.86,156.01c0,0.16,0.15,0.28-0.34,0.04
		C385.15,155.42,384.83,155.61,384.86,156.01z M382.17,153.49c0.19-0.19,0.2-0.67,0.2-0.2c-0.38,0.38-0.22,0.67-0.66,0.84
		C380.25,154.68,380.89,153.13,382.17,153.49z M380.6,154.15c0.26-0.13,0.06,0.5-0.05,0.37
		C380.11,154.32,380.29,154.23,380.6,154.15z M378.7,148.89v0.2C378.31,148.97,378.29,149.03,378.7,148.89z M377.31,177.96
		c0.38,0.14,0.54,0.38,0.54,0.56C377.3,178.54,377.21,177.96,377.31,177.96z M376.96,174.64c-0.7,0.3-1.01-0.18-0.82-0.61
		c0.54-1.2-1.31-2.29,0.72-2.96C377.66,172.3,376.76,173.51,376.96,174.64z M377.12,177.77c-0.28-0.06-0.42-0.28-0.51-0.55
		C377.1,177.32,377.06,177.77,377.12,177.77z M376.42,176.93c-0.64-0.2-1.1-0.51-1.26-1.15
		C376.01,175.82,376.35,176.19,376.42,176.93z M376.42,169.35c-2.61,1.78-1.9,3.1-1.42,6.29
		C371.28,175.35,375.44,166.4,376.42,169.35z M369.3,158.8c0.43,0.53,0.48,0.95-0.1,1.43C368.82,159.74,368.77,159.33,369.3,158.8z
		 M367.26,194.86c0.45,0.23,0.05,0.41-0.02,0.17C367.21,195,367.21,194.93,367.26,194.86z M388.6,199.96
		c-4.94-2.55-5.32-3.31-6.3-3.26c0-0.04-0.01-0.07-0.02-0.1c0,0-0.01,0.01-0.01,0.01c0-0.02-0.04-0.01-0.19-0.01
		c-0.14,0-0.16-0.03,0.1,0.1c0.01-0.01,0.01-0.01,0.02-0.02c-0.01,0.02,0.01,0.03,0.1,0.03c0.97,6.16,10.81,3.67,7.75,7.65
		c-6.58,8.56-6.71,10.22-9.4,10.22c-1.38,0-1.33,2.21-9.19,6.03c-8.53,4.14-4.8-4.25-6.33-8.38c-2.55-0.36-0.02,6.65-0.89,8.11
		c-1.01-0.31-8.06-2.15-6.97-12.81c1.33-1.33,3.07-2.55,4.19-4.29c1.45-2.24,1.75-7.91,3.16-4.39c0.78,1.57,1.43,1.73,1.43,1.62
		c-0.05-1.99,0.58-3.6,1.47-5.19c1.98,0.62,0.38-0.43,3.22-2.56c-0.98-2.83,0.23-1.76,1.12-2.66c-0.99-2.83,2.44-3.2,2.44-4.12
		c-0.08-1.17,0.41-2.86,0.42-4.24c0.03-6.51,1.7-0.82,4.51-0.33c1.96-0.41,1.86-2.12,1.34-2.57c-0.42-0.36-1.18-0.35-1.23-0.4
		c1.13,2.25-1.36,2.21-1.36,0.2c1.97,0,1.13-0.03,0.22-1.84c0.41-1.23,1.98-0.52-0.2-3.58c0.63-1.14-0.51-3.18,0.11-2.99
		c1.24,0.38,1.75,3.79,3.67,6.67c0.69-1.39,0.99-2.57,1.02-4.19c0.1-5.36,1.17-3.81,3.88-14.2c2.04,1.7,3.87,4.74,5.52,6.84
		c-0.51,1.43-1.95,2.35-2.15,3.88c-0.11,0.82,0.51,0.41,0.92,0.51c3.32,5.91,3.91,5.24,4.09,6.74c0.25,2.14,1.33,3.88,2.35,5.41
		c0.32,2.06-2.9,1.63,0,3.37c0.2,1.12-0.2,2.35,0.51,3.58c2.27,3.41,0.56,5.85-1.84,6.23C389.61,196.07,392.59,202.02,388.6,199.96z
		 M394.02,200.38c-1.99-2.56,4.41-2.28,6.23-7.75c0.05-1.98-1.59-3.28-1.33-5.23c2.77-0.69,9.91-1.69,9.91-1.58
		c-0.04,1.91-0.17,3.09-1.33,4.44C403.28,195.21,401,200.81,394.02,200.38z M420.38,237.46c-1.35,1.74-1.74,4.2-1.74,6.54
		c5.35-3.74,1.12-5.52,6.33-5.52c1.28,0,1.88,0.24,5.11-0.41c1.22,2.74-8.01,8.33-9.19,9.09c-0.21,0.04-3.48,0.53-3.48-0.13
		c-0.42-0.8,0.79-2.18-0.37-2.27c-0.86-0.06-0.4,1.64-0.95,2.3c-6.24,0-15.98-8.15-17.26-19.1c-0.58-4.96-2.1-0.37-2.55-9.81
		c-0.48-10.12,2.83-11.38,3.68-15.63c5-1.58,5.42,0.83,12.05-0.1c7.98-1.12,12.63,2.92,14.04,3.39c1.02,0.44-3.67-0.98,15.28,3.96
		c2.26,0.38,3.07-0.69,8.99,0c2.33,0.27,6.07,0.41,6.23,0.41c2.47,2.07,3.14,2.24,6.23,2.04c0.62-1.11-1.02-0.83-1.02-2.15
		c1.17-4.97,4.5-7.58,5.92-14.71c1.53-7.64,1.28-25.24,3.47-30.44c3.16,0,5.32-1.23,5.42-1.23c3.63-0.73,8.47-0.53,9.09-0.61
		c1.21-0.23,2.59,0.32,3.17,1.63c-0.62,0.94-2.25-1.79-2.25,3.27c0,2.94-1.56,10.31-4.19,12.16c-1.48,0.49-1.72-3.43-3.27,2.76
		c1.56,1.17,1.16-0.48,1.33,12.67c0.03,2.1,0.5,8.6,1.23,18.39c0.36,4.82-2.13,6.6-3.27,17.67c-0.37,1.83-1.12,3.75-4.7,4.19
		c-1.24,0.15-6.78,0.74-6.57,0.31c1.15-1.53,1.21-1.55,3.71-2.45c0.37-1.12-0.97-1.07-1.94-0.61c-4.77,2.25-5.24,0.25-7.76,2.15
		c0,0.82,0.92,0.92,1.33,1.63C433.29,241.02,439.34,233,420.38,237.46z M446.02,282.72c0,0.27,0.05,0.23-0.2,0.1L446.02,282.72z
		 M444.38,286.8c-0.64-0.39-0.92-0.89-0.91-1.47C443.54,282.48,446.76,286.01,444.38,286.8z M438.36,291.09
		c-0.13,0.26-0.08,0.26-0.2,0H438.36z M415.57,300.39c-1.23-0.2-1.94-0.31-2.45-0.92C413.84,298.86,413.84,298.86,415.57,300.39z
		 M450.41,321.54c-11.24-0.15-8.86-1.05-17.26-1.53c-5.71-0.33-15.56-0.11-20.33-9.19c-6.23-11.86-4.39-9.53-0.92-9.3
		c5.97,0.4,6.33-2.24,6.44-2.24c2,0.19,3.18,0.39,3.29,0.29c0.88-0.14,0.96-2.19,2.98-1.65c3.67,0.98,7.04,0.69,8.03-2.93
		c0.15-0.54-1.63-1.32-0.28-1.48c0.75-0.09,1.43,0.75,2.22,0.36c0.82-0.82-1.05-1.21,0.51-2.15c0.96,0,2.2,1.51,3.47,1.24
		c0,3.11,3.62-1.2,2.74-2.3c2.18,0-1.4-3.49,0.65-2.77c2.7,0.95,1.83,1.03,2.42,0.67c2.02-1.37,2.85-3.77,4.51-5.62
		c-1.33-3.68,0.1-6.64,2.96-9.5c4.42-1.06,8.54-0.77,12.26,1.84c18.35,1.53,5.12,0.41,15.53,0.41c-0.76,1.18-6.64,6.09-4.06,5.33
		c0.48,0,6.06-4.63,7.12-5.54c3.15-0.63,6.01-1.37,5.21,1.84c-1.24,4.01-3.54,10.83-1.23,6.95c5.22-8.76,0.64-9.42,6.25-8.44
		c7.64,1.33,8.3,0.94,10.3,2c-0.42,1.18-4.85,5.08-2.35,3.68c5.75-3.22,1.39-4.87,12.57-1.74c1.42,0.89,0.54,4.27,2.66,6.74
		c0.87,1.17,0.76,6.16,0.61,7.66c-5.28,1.17-7.66-2.39-14.71-1.94c-17.53,1.12-15.97,0.12-23.7,2.25c-0.62,0.32-0.94,0.49-0.99,0.57
		c-0.06,0-0.13,0.01-0.23,0.04c-1.26-0.07-1.82,0.61-1.29,0.6c1.16-0.01,1.69-0.45,1.62-0.59c0.73,0.02,5.81-1.2,14.26-0.83
		c1.61,0.07,2.84-0.56,4.49-1.12c5.69,1.14,8.06-0.36,10.92,0.51c9.54,2.9,10.1,1.75,9.6,4.6c-1.54,8.82-3.69,9.57-7.76,12.36
		c-18.15,12.41-1.37,8.48-27.17,6.64c1.62-6.88,14.17-7.35,16.24-7.66c1.28,0,0.77-1.22-0.1-1.23c-4.64-0.04-9.11,0.48-13.08,2.86
		c-10.8,6.47,8.21,5.91-28.71,9.3C451.07,320.99,453.99,321.58,450.41,321.54z M502.41,351.26c1.31,32.03,0.75,16.41-5.72,16.65
		c-1.25-2.09-4.39-17.7,0.2-31.97c0.37-1.16,0.27-1.21-0.22-5.37c-1.13-9.49-3.01-10.07,1.35-8.62c4.09,1.02,2.55-1.67,2.55,8.89
		C500.57,337.01,501.6,331.68,502.41,351.26z M467.57,327.05c-10.28-6.19-19.17-4.47,14.1-7.05c1.43-0.11,2.86-0.82,4.6-0.41
		c-0.31,1.23-0.92,1.95-1.74,2.45C477.74,326.22,472.58,330.07,467.57,327.05z M482.49,357.6c-1.1-3.9-7.44-9.64-10.1-26.75
		c6.71-2.24,8.91-2.89,16.76-10.75c2.68-1.29,3.67,4.18,3.67,5.32c0.77,5.38,2.74,5.73,1.12,16.33c0,4.32-2.95,7.2-1.01,19.73
		c0.69,4.47,0.6,8.45,5.82,10.62c-2.18,6.92-3.43,1.26-6.95-1.94C483.47,368.91,487.11,374,482.49,357.6z M494.34,396.11
		c-2.51,2.51-9.34,0.01-15.53-1.02c0-1.59,2.7-3.85,1.94-6.13c-0.1-0.31-0.1-0.72,0-1.02c1.43-3.27,1.26-6.87,2.35-10.11
		c1.15-3.43-1.35-5.21,3.32-5.23c1.55-0.01,2.88,0.05,4.1-0.8c0.53-0.32,1.23,3.68,5.77,6.64c2.52,0.63,4.85-5.75-0.2,8.89
		C493.24,395.57,495.01,392.76,494.34,396.11z M524.27,402.55c-2.73-1.3-15.07-0.45-20.33-1.43c-12.19-2.27-7.34-1.44-7.66-3.98
		c0-1.77,0.17-4.25,0.72-5.82c3.23-9.4,2.84-11.66,3.37-12.46c1.65-2.2,0.52-3.85,1.03-4.07c1.5-0.62,2.61,0.61,3.97,0.39
		c1.13-0.18,2.55-0.1,3.88,0.72c0.05,0.11,4,11.07,6.9,6.71c0.68-1.03,1.04-2.74,1.48-3.95c1.65,0.82,2.08,2.71,3.06,3.88
		C525.51,388.24,525.14,377.83,524.27,402.55z M514.87,380.48c-0.1,0-0.2,0.1-0.31,0.1C513.75,380.29,514.87,379.91,514.87,380.48z
		 M525.49,376.39c0.31,1.6,0.2,2.29,0.2,2.41c-0.7,7.67-5.54-2.75-9.18-6.39c0.2-6.97-0.09-7.79,4.7-21.76
		C530.28,314.37,522.97,363.49,525.49,376.39z M526.13,321.33c-0.61,15.04-8.61,26-10.73,38.72c-0.38,3.81-3.45,7.95-3.27,12.16
		c1.36,0.78,4.38,2.88,3.27,3.98c-12.03-11.62-9.9,12.22-11.34-35.14c-0.62-7.43-2.72-4.56-1.23-15.83
		c2.01-15.19,11.51-11.37,14.61-19.31c1.05-2.69,2.43-1.85,1.97-2.92c-1.26-2.94,0.34-1.09,0.15-14.64
		c-0.05-4.05-5.17-7.73,3.29-2.77C527.82,288.49,527.42,289.6,526.13,321.33z M530.19,179.44c-4.61,121.47-2.46,93.16-3.05,105.73
		c-2.76-2.25-5.72-3.47-8.58-4.8c-2.71-0.77-0.42-2.36-5.72-4.29c-16.88-6.14-37.12-1.32-46.38-2.76
		c-2.8-3.67-12.44-3.43-15.86-0.66c-0.1,0.1-0.18-1.47-0.18-1.57c-0.36-0.5-5.21-7.13-5.15-7.76c0.68-4.06-12.19-23.3-9.44-23.3
		c1.04-1.18,5.14,2.28,16.43,0.42c17.39-2.87,18.72-0.33,24.01-3.06c6.72-3.48,2.35-6.65,5.92-14.91
		c4.71-10.89-1.77-20.63-0.1-39.94c10.25-11.33-7.2-6.92,43.62-14.3C529.18,178.13,530.69,166.35,530.19,179.44z M530.4,169.64
		c0.1,0-1.14,0.52-2.35-1.33c0.45-6.46-0.5-9.73,1.57-9.73C531.38,158.59,530.52,168.7,530.4,169.64z"/>
	<path d="M819.4,302.02c0-154.54,10.75-158.96-10.22-154.77c-13.59,2.72-8.11,1.14-10.32,7.76c-1.53,0.41-3.17,0.41-4.09,1.33
		c-0.61,0.72-0.31,1.63-1.43,2.15c-30.53,4.25-22.43,6.26-32.49-3.37c4.6-16.09,4.22-16.26,4.9-17.06
		c3.01-3.52,12.16-27.85,10.01-39.84c-0.47-2.62,1.43-11.11,2.55-12.67c1.92-3.07,6.66-8.7,6.74-19c0.04-4.45,7.24-13.79,1.23-26.36
		c1.43-1.43,3.98-0.72,4.6-3.06c-1.46-13.88,0.89-7.81-0.31-13.59c-2.92-14.09-5.44-15.69-18.69-21.45
		c-8.66,1.44-4.91-0.75-6.64-2.04c-2.04-0.41-1.23,1.74-2.04,2.45c-4.63,1.98-1.03,1.77-6.03,3.06c-3.84,0.99-7.53,8.19-8.17,11.44
		c-0.65,3.3-4.3,5-7.76,12.57c-3.78,1.62-17.87-5.43-32.38,12.57c-2.54,0.18-8.03,5.86-10.73,13.59c-6.38,18.27-0.2,27.5-1.94,48.22
		c-0.35,4.19-2.01,2.5-2.76,6.54c-0.5,2.71-0.41,7.04-4.49,8.17c-2.25,2.55-5.11,4.39-7.25,7.05c-0.51,0.72-1.14,1.52-1.84,2.04
		c-14.44,10.82-8.97,47.9-12.26,50.36c-3.78,0.51-7.76,1.43-11.75,1.74c-1.02-1.84-3.17-2.55-3.27-4.6
		c-2.94-1.76-14.51-0.95-14.61-0.92c-9.11,2.78-4.42-7.22-7.15,77.84c-0.95,29.7,1.2,44.69-4.9,55.27
		c-2.16,3.74-2.52,7.41,0.41,10.62c3.81,4.17,3.19,2.44,3.17,6.44c-1.55,263-7.39,278.2-2.55,273.37
		c0.28-0.85,0.61-21.66,0.61-21.76c3.26-218.12,1.43-197.57,6.54-197.57c5.28,0,4.05-21.73-0.1,216.88
		c-0.37,3.31,1.18,3.62,2.35,2.45c0-0.1,4.16-252.81,4.39-253.55c6.16,4.54,5.65,1.49,5.62,6.84c-2.37,351.57-2.46,304.83,2.45,0.51
		c0.04-2.29,1.19-1.59,8.79,1.23c3.21-0.51,7.49-3.21,7.76-6.64c0.27-3.44,0.58-3.21,0.6-3.18c-0.02-0.03-0.31-0.52-1.12-4.59
		c-1.77-8.93,0.07-4.25-0.61-10.01c-0.9-7.62,0.23-15.2,4.29-24.62c1.04-2.41-0.39-3.56-2.86-7.15
		c15.62-33.47,24.64-31.21,31.87-50.67c2.42-6.5,4.14-6.82,9.6-12.97c2.65-2.98,2.46-5.19,4.09-6.64c2.9,1.32,1.45,2.97,4.7,4.6
		c3.28,1.64,3.75,2.53,5.01,1.43c-1.32-4.48,6.18-1.97,15.53-47.91c1.93-9.48-0.3-10.03,9.19-10.22c1.33-0.03,2.75-0.6,3.78-0.1
		c1.52,0.74,3.06,0.51,4.7,0.41c13.56,0,12.28-0.74,14.71-3.98c32.56-5.07,23.61-4.28,26.66-0.41c3.52,4.46,3.41-10.56,2.25,37.9
		c-2.33,97.34-17.27,643.94-3.58,236.08c10.54-313.88,0.16-294.64,17.16-295.03c0.22,0.31-7.86,446.32-7.87,446.42
		c-0.02,2.09,0.18,3.8,2.35,2.35c0-0.1,7.52-447.05,8.58-448.46c2.04-0.41,4.56-0.35,5.52,2.04c-0.49,12.17-1.64,89.56-2.25,90.41
		c-8.86,2.21-1.57,0.76,0.1,1.74c0.41,3.58-0.31,49.65-0.92,53.12c-3.14,0.29-4.8,0.07-4.8,1.74c1.33,1.53,3.27-0.2,5.01,0.82
		c0,1.76-5.4,297.41-4.6,299.01c3.58,1.79,1.65,8.6,5.21-191.75c2.22-124.68,1.16-93.78,3.68-100.01
		C822.2,304.49,821.34,303.05,819.4,302.02z M784.7,24.83c0.14-0.14,0.51,0.57,0.06,1.16c-0.41,0-0.62-0.23-0.72-0.61
		C784.23,25.29,784.43,25.1,784.7,24.83z M783.34,15.17c0,0.37,0.03,0.31-0.1,0.31L783.34,15.17z M778.43,24.26
		c0.41,0.31,0.41,0.61,0,0.92C778.23,24.88,778.23,24.57,778.43,24.26z M773.73,23.45c0.49,0,0.71,0.32-0.51,0.32
		C773.09,23.76,772.96,23.83,773.73,23.45z M772.81,20.38c0,1.55-0.01,1.53-1.12,1.53C771.79,21.2,772.41,20.79,772.81,20.38z
		 M773.04,23.96c-0.11,0.5,0.07,0.2-0.22,0.2C772.88,24.1,772.97,24.04,773.04,23.96z M773.94,26.82c0.92-0.62,0.92-2.15,2.45-2.46
		c0.2,1.33-0.92,2.25-1.02,3.58c0.72,1.23-0.51,3.47,1.94,4.19c1.43-0.2,1.63-1.84,3.06-2.55c1.53-0.31,3.37-0.72,5.31,0.2
		c-1.63,13.34-2.32,5.03-10.62,3.37c-5.94-0.59-2.06-1.69-4.49-3.88C771.46,25.74,771.49,27.37,773.94,26.82z M765.97,9.65
		c0,0.1,0.1,0.2,0.1,0.31C765.93,10.1,765.97,10.47,765.97,9.65z M765.05,21.91c0.1,0.05,0.06,0.03,0.2,0.1
		C765,22.14,765.05,22.18,765.05,21.91z M759.66,12.99c0.05-0.1,1.65-1.46,0.08,0.63C759.58,13.37,759.57,13.16,759.66,12.99z
		 M756.67,21.1c1.45,0.86,0.06,2.33-0.72,1.02C756.06,21.61,756.37,21.4,756.67,21.1z M757.59,26.61c2.03-1.16,2.14-1.53,2.79-0.89
		c2.16,2.15,2.29-0.23,3.66-1.05c5.95,0,4.7-0.41,5.31-0.41c0.92,1.23-0.61,1.63-0.61,2.45c-1.09,3.65,3.75,4.49-7.46,1.23
		C758.63,27.17,748.32,26.61,757.59,26.61z M746.87,25.9c1.1-0.55,1.01,0.63,2.48,0.63c0.37,0,0.76,0.04,1.1,0.59
		C744.46,28.18,744.84,28.33,746.87,25.9z M738.8,32.23c9.56-2.19,7.57-2.79,11.74-2.76c6.25,0.05,4.88,0.59-0.79,3.25
		c-1.5,0-1.68-1.59-5.23,1.96c-1.32,0.3-2.39-0.07-3.3-0.19c-1.96,0-0.04,2.24-6.1,2.24c-1.59,0.17-2.35-0.94-2.25-1.04
		C734.33,35.68,737.03,34.47,738.8,32.23z M735.42,32.74c-1.48,1.01-2.51,1.63-2.65,2.88c0-0.14-1.05,0.45-2.66-0.17
		C721.56,32.11,739.6,29.89,735.42,32.74z M703.44,48.98c-0.03,0.53-0.27,0.65-0.6,0.61C702.84,49.21,703.06,49.03,703.44,48.98z
		 M696.91,106.29c2.91-7.46-0.2-33.18-0.2-37.39c0-5.06,7.27-17.21,4.96-15.22c-0.51,0.44-2.91,4.05-2.64,2.63
		c0.25-1.28,2.87-5.67,3.43-6.3c0.84-0.94-0.31,0.86,0.77,1.64c0.67-0.86,0.94-1.21,0.85-1.62c-0.11-0.51-0.69-1.03-0.47-1.03
		c0.75,0-0.28-1.57,3.21-3.68c6.84-4.13,9.4-11.76,17.67-11.76c4.05,1.01,7.44,8.93,23.09,2.35c14.64-6.16,8.03-5.72,15.53-5.72
		c0,2.43-11.65,6.12-15.02,26.87c-1.13,6.94,0.35,12.41,7.15,17.06c-0.2,3.06,1.23,5.82,1.33,8.89c-0.62,1.64-2.16,2.71-2.66,4.7
		c2.6-0.42,3.53-4.57,2.55,3.78c-1.25,10.71-5.96,11.42-6.23,21.45c-0.25,2.78-4.01,9.69-4.09,9.81c-2.33,3.53-1.07,7.51-2.35,6.23
		c-4.15-4.15-12.37-7.61-12.37-7.44c-1.4,1.72-0.99,1.54-3.15,0.84c-5.42-1.76,3.02-2.49-4.89-5.05c-4.04-1.3-10.43-2.39-13.71-2.04
		c0,0.41-0.1,0.92-0.1,1.33c-1.18,0.59-3.84-0.05-3.74-0.15c1.59-1.61,0.8-3.64,1.9-5.16c1.51-2.08,2.4-8.37,1.57-6.88
		c-1.86,2.96-3.34,5.85-4.43,9.22c-1.53,0.41-3.17-0.51-4.9-0.2c-0.92,0.16-4.95,0.42-5.07,0.19
		C694.43,112.73,695.77,109.23,696.91,106.29z M751.39,52.29c0.71-0.71-0.56,1.27,5.67,0.28c3.97-0.4,2.09-1.74,3.47,0.1
		c-7.65,11.48-2.79,23.91-8.76,17.05C748.15,65.57,748.73,54.21,751.39,52.29z M742.98,133.16c-0.1,0.1-0.1,0.2-0.1,0.2
		c0-0.1-0.1-0.2-0.1-0.31c0,0,0.1-0.1,0.1-0.2C742.88,132.96,742.98,133.06,742.98,133.16z M739.72,130.71
		c0.1-1.02,0.51-1.53,1.02-2.04C743.6,128.67,742.65,134.82,739.72,130.71z M734.61,125.4c-0.4,0-0.48,0.47-0.32-0.02
		C734.31,125.27,734.27,125.06,734.61,125.4z M732.43,124.6c-0.26,0.17-0.52-0.04-0.79-0.63
		C732.36,122.9,733.33,124.03,732.43,124.6z M723.99,120.05c-0.05-0.44,0.23-0.77,0.81-1.09
		C725.64,120.65,724.12,121.11,723.99,120.05z M721.93,119.84c-1.06,0.01-1.55-0.74-1.73-1.8
		C723.02,117.24,723.4,119.83,721.93,119.84z M704.27,114.67c-1.02,0.2-1.63,1.23-2.76,1.94
		C702.22,114.57,702.22,114.57,704.27,114.67z M693.64,116.71c0.24-0.21,0.88-0.27,1.12,0.1
		C694.15,117.28,693.44,116.91,693.64,116.71z M680.16,214.27c1.74,0.41,3.68,0,5.72,0.92c-0.41,2.76-2.24,5.36-3.32,6.28
		c-32.27,27.66-15.87,18.49-33.05,66.45c-0.56,1.57-0.94,0.89-2.59,0.87c-4.86-0.07-2.81,5.37-2.81-10.57
		c0-12.79,2.68-17.76,1.33-19.61c-0.68-0.68,1.46-9.24,4.9-14.61c0.12-0.23,11.96-13.79,12.05-13.89c5.5-5.94,9.94-9.11,11.85-16.75
		c1.04-1.16,3.84-1.95,5.61-2.96C680.78,211.32,679.36,212.87,680.16,214.27z M652.79,238.49c-0.94,1.23-2.17,0.98-2.16-0.5
		c0.59-56.01-0.41-41.19,4.7-45.28c2.06-3-4.1-5.05,11.66-6.12c1.39,8.27-1.54,23.02-1.55,23.12c-0.08,0.79,0.65-0.26,0.33,5.18
		c2.63,0.55,4.88-0.61,6.03-0.61C670.57,222.56,667.07,219.83,652.79,238.49z M666.98,183.93c-5.93,0.92-11.85,1.74-17.57,2.66
		c-1.79-1.07-1.6-2.86-0.92-2.86C669.3,180.26,667.8,179.83,666.98,183.93z M650.23,176.88c-7.87,1.03-6.47,1.39-6.95-0.51
		C645.16,176.38,642.81,175.23,650.23,176.88z M642.97,181.68c0.05-2.41,5.17-2.9,7.36-2.66c2,0,1.79,0.72,2.15,1.43
		c-2.81,1.08-5.18,0.55-6.38,1.82c-2.21,2.33,0.88,9.65,7.1,6.15c1.09,1,0.83,1.8,0.62,2.7c0,1.28-8.8,1.2-9.51,1.18
		C642.7,191.19,642.8,190.15,642.97,181.68z M643.59,193.74c8.02,1.5,4.97-6.73,4.6,47.91c-0.03,4.67-4.8,8.98-5.52,22.78
		c-0.28,5.42-0.51,10.93-0.82,16.34C641.73,279.92,642.16,195.6,643.59,193.74z M633.98,190.57c0.28-13.22-0.32-13.89,6.23-13.89
		c1.21,1.51,0.46,10.13-1.33,112.37C629.41,295.13,631.12,326.59,633.98,190.57z M640.11,293.14c-1.5,2.5-3.17,0.51-1.53-0.31
		C639.24,292.45,639.53,292.84,640.11,293.14z M637.76,294.57c0-0.1,0-0.2,0-0.2C638.03,294.36,637.76,294.36,637.76,294.57z
		 M626.63,309.99c2.61,8.96,6.64,5.02,9.4,11.65c2.06,6.86-1.53,0.21-5.93-2.35C627.33,317.68,624.1,312.21,626.63,309.99z
		 M631.53,333.28c-0.14-2.19-0.09-8.44,0.41-10.22c4.31,3.44,1.11,5.21,3.78,9.91c0.7,1.23,0.92,2.96,0.72,4.7
		c-1.16,0.54-2.19,0.49-3.45,0.49C630.73,338.17,631.68,335.64,631.53,333.28z M637.46,376.29c-2.45,0-4.39,0-6.23,0.1
		c-0.93-1.08,0.05-34.35,0.1-35.45c1.16-0.77,2.11-0.55,3.27-0.31C638.28,341.43,639.34,334.95,637.46,376.29z M644.71,344.52
		c-10.13-6.23-5.58-8.78-7.15-23.09c-0.14-1.25-0.98-2.03-3.86-4.54c-4.5-3.91-7.14-11.63-2.57-15.59c0.57-0.5,2.25-3.41,2.25-0.92
		c0.1,0.07,11.13,5.6,10.32,8.79c3.77,3.77,1.83,7.19,5.82,17.16c2.29,4.41,6.89,4.38,11.44,22.17
		C654.45,353.84,650.06,347.81,644.71,344.52z M662.89,313.67c0.09,4.42-2.51,7.88-1.02,16.55c0.77,3.07-0.5,4.2,1.43,12.46
		c0.46,1.97,0.47,3.5-0.82,5.11c-7.17-22.72-11.16-17.23-12.36-23.9c-2.48-13.85-2.7-15.82-7.46-19.61
		c-14.03-11.19-9.43,0.5,2.96-13.18c2.66-1.12,3.98,1.33,5.82,1.94c0.86,1.71-1.69,9.01,1.94,10.83c0.61,0.31,1.23,0.61,1.84,0.92
		c3.17-0.61,6.54-0.1,9.09-2.96C668.27,307.36,662.76,306.94,662.89,313.67z M664.18,300.2c0.2,0.01,0.33,0.08,0.14,0.2
		C664.12,300.2,664.07,300.41,664.18,300.2z M700.39,236.85c-4.97,7.45-2.46,7.15-12.46,22.88c-1.37,2.16-8.48,6.98-24.42,37.49
		c-0.75,1.43-0.55,3.79-0.9,3.79c-4.91,0.77-10.36,1.4-8.83-3.38c0.5-1.55,7.99,8.99,7.99-4.29c-1.79,0.13-2.99,4.58-3.31,4.58
		c-8.35-5.23-2.73-4.05-7.42-8.15c3.79-10.34,7.53-17.66,8.58-27.99c2.21-21.78,10.6-25.9,23.26-38.34
		c9.9-9.73-0.16-8.47,12.18-7.94c2.21,4.65,12.31,4.68,12.57,9.7c0,0,0.01,0,0.01,0c-0.2,0.19-0.72-0.01-0.2,0.51
		c0-0.1,0.1-0.31,0.2-0.51c0.41,0.1,0.91-0.1,1.52,0.41C708.36,230.98,703.14,236.3,700.39,236.85z M736.45,170.86
		c-0.68,9.88-6.37,30.09-8.07,38.1c-1.67,7.9-9,21.45-9.1,21.45c-3.58-0.54-3.14-1.61-6.24-4.71c-1.94-1.73-4.28-3.05-6.11-5.09
		c-2.38-2.38-9.39-2.28-10.6-6.39c0-0.72-9.8-0.22-14.18-1.36c-0.16,0,0.48-3.51,0.48-11.35c-1.88,2.38-1.8,6.4-2.45,7.05
		c-14.13,5.35-13.53,6.56-11.44-3.46c0-0.1,0.67-23.41,1.53-28.1c0.7-5.64-1.46-29.26,7.15-44.54c1.28-2.27,2.09-2.56,12.26-12.05
		c2.25-0.31,4.29-1.84,6.64-2.45c4.9,1.33,9.91,0.1,14.51,1.02c1.15-0.16,1.48-0.99,2.06-1.62c1.7-1.83,0.21,1.68,0.58,2.24
		c0.61,0.92,1.12-0.1,2.15,0c6.05,2.42,3.44,0.67,8.07,2.45c0.5,2.15-1.32,3.32-1.52,5.11c1.61,2.25,3.04-4.93,4.93-4.1
		c2.29,1,11.19,8.89,12.95,10.64C748.93,142.57,737.72,152.23,736.45,170.86z M741.25,172.8c-0.79,0.1-1.57,0.1-2.35,0.1
		c-0.62-0.69-1.39-3.82,2.96-3.37C742.39,170.06,744,172.8,741.25,172.8z M740.02,167.08c-2.05,0,0.54-7.15,3.17-16.55
		c1.69-6.06-0.11-5.26,2.25-6.44c-0.1-3.27,0.31-6.33-0.72-8.79c0-2.39,1.9-3.15,1.94-5.93c0.05-3.47,2.04-6.33,2.76-9.6
		c0-0.19,0.38-0.37,0.51-0.41c1.09,2.71-0.01,4.76-0.92,20.74C748.57,147.8,748.15,165.92,740.02,167.08z M751.26,173.21
		c-1.37-0.46-0.44-1.37,0.2-0.51C751.56,172.79,751.35,173,751.26,173.21z M751.57,164.72c-0.72,3.06-2.66,5.21-3.78,7.66
		c-3.14,1.4-4.11-3.42-3.93-5.09c0.41-3.79,3.81-3.01,4.95-9.21c5.12-27.73,0.11-46.59,8.8-62.1c1.35-2.41-0.06-2.92,0.97-7.73
		c0.99-4.66-2.3-13.43-1.28-18.21c1.54-7.22,5.41-18.19,5.41-17.57c0.56,0,5.1,3.58,5.72,3.58c-0.28-3.59-1.81-1.93-3.37-3.88
		c-0.91-0.91-1.24-2.48-2.62-1.48c-1.13,0.82-0.96-2.91-0.96-4.34c-1.33,0.51-1.23,1.74-1.94,2.45c-6.8,3.6-7.07,3.63-8.01,3.29
		c-1.49-2.9,4.43-17.39,14.55-20.96c3.95,0.99,2.99,3.33,8.58,4.29c4.19,0.72,10.54,5.53,10.32,10.01c4.08,5.3-4.86,34.44-9.2,41.57
		c-1.92,3.15-1.02,19.09-3.03,26.58c-1.18,4.4-2.23,5.68-3.4,10.81c-1.52,6.62,0.4-4.7-10.22,31.06c-0.54,1.19,7.07,5.91,6.32,7.71
		c-0.16,0.38-0.26,0.69-0.4,1.07c-1.63,0.31-3.46,0.12-4.7,1.12C757.62,167.54,754.45,167.16,751.57,164.72z M762.24,51.14
		c0.31,0.19,0.37,0.52,0.4,0.89C762.34,51.83,762.28,51.49,762.24,51.14z M754.94,172.9c-0.9,0.22-0.97,0.08-1.53-0.2
		c-0.14-0.55-0.28-1.19-0.1-1.63C755.07,170.86,755.02,170.9,754.94,172.9z M759.19,173.38c-3.21-0.04-3.02-4.87,0.86-0.99
		C759.96,173.11,759.63,173.38,759.19,173.38z M764.25,172.79c-2.73-0.13-0.46-1.56,1.72-0.91
		C765.47,172.5,764.93,172.82,764.25,172.79z M761.88,169.63c-1.6,0.26-2.98-0.03-5.62-0.41c2.45-0.61,4.29-1.84,6.13-3.17
		c4.84-0.72,16.35-2.46,31.36-4.8C797.65,166.02,792.39,164.72,761.88,169.63z M798.35,169.02c-1.02-0.1-1.53-0.61-2.15-1.23
		c0-9.87-0.07-10.26,1.99-9.95C799.38,158.02,798.76,167.11,798.35,169.02z M819.65,305.55c-0.03,0.05-0.05,0.1-0.05,0.15
		C819,305.1,819.89,304.94,819.65,305.55z"/>
	<path d="M665.95,343.08C665.95,343.08,665.95,343.08,665.95,343.08L665.95,343.08z"/>
	<path d="M269.7,162.27c0.31-0.92,0.72-1.94,1.12-2.86c-0.41-0.82-1.12-0.92-1.74-0.51C266.96,160.32,267.89,163.08,269.7,162.27z"
		/>
	<path d="M548.58,157.06c-1.64,0.75-3.25,2.83-0.31,3.88C550.07,157.35,549.87,157.71,548.58,157.06z"/>
	<path d="M816.33,156.45c-1.7,2.07-2.31,3.22,0.31,3.78C818.17,156.41,817.81,156.82,816.33,156.45z"/>
	<path d="M191.34,458.94c0.12-0.2,0.22-0.15-0.1-0.1L191.34,458.94z"/>
	<path d="M184.8,334.41l0.1-0.1C184.74,334.18,184.77,334.22,184.8,334.41z"/>
	<path d="M124.33,526.05l0.1,0.1C124.4,525.92,124.48,525.8,124.33,526.05z"/>
	<path d="M485.35,285.17l0.1,0.1C485.45,285.11,485.54,285.17,485.35,285.17z"/>
	<path d="M499.96,281.69l0.1,0.1C500.1,281.67,500.18,281.69,499.96,281.69z"/>
	<path d="M200.54,441.58c1.21-4.85,14.78-13.63,17.83-16.6c1.7-1.66-2.33-3.49-14.81,9.18c-2.49,2.53-0.66-2.71-0.66-8.11
		c-2.06,2.27-4.4,9.6-2.25,11.75C199.84,440.74,199.21,441.58,200.54,441.58z"/>
	<path d="M230.47,454.13c1.33-4.74,7.56-20.22,4.09-23.7C234.15,443.36,229.63,449.46,230.47,454.13z"/>
	<path d="M209.73,437.48c0.84-0.06,3.92-1.44,12.92-3.97c1.17-0.33,2.45-0.75,3.73-1.95C222.36,431.56,207.39,435.14,209.73,437.48z
		"/>
	<path d="M236.8,401.32c-0.22,5.74-1.93,10.86-1.33,16.86C237.72,405.83,239.89,399.78,236.8,401.32z"/>
	<path d="M194.41,433.19c-1.3-1.99-2.58-8.04-2.97-7.64c-1.11,3.54,1.25,2.49,0.92,8.06c0.61,1.53,1.61,1.24,2.15,2.35
		c0.2,0.41,0,1.74,1.12,2.25C197.52,438.21,196.08,433.72,194.41,433.19z"/>
	<path d="M183.48,435.75c1.63,0.72,3.05,1.56,4.6,2.15C198.27,441.73,194.51,436.42,183.48,435.75z"/>
	<path d="M174.28,475.18c2.22,0.56,8.73,1.55,8.27-0.72C179.49,473.85,178.06,473.95,174.28,475.18z"/>
	<path d="M219.23,415.72c1.61-0.4,3.06-1.36,4.39-1.94C233.16,411.09,223.94,409.56,219.23,415.72z"/>
	<path d="M226.08,425.63c3.73,0.81,9.01,0.98,10.62,0.72C235.31,424.27,227.75,425.12,226.08,425.63z"/>
	<path d="M198.29,397.34c-2.8,5.26-3.16,5.97-2.9,6.97c0.22,0.67,2.92-4.66,4.02-6.35C199.1,397.33,198.75,397.24,198.29,397.34z"/>
	<path d="M199.41,472.32c0,2.86,3.55-1.18,6.33-1.43C203.5,470.79,201.15,470.27,199.41,472.32z"/>
	<path d="M228.12,477.94c-3.04-2.92-5.07-5.56-4.3-1.81c-0.21,0.5-0.68,0.91,0.01,1.81c0-0.77,0-1.26,0-1.74
		c1.99-0.18,3.19,2.67,4.49,2.96C228.85,478.64,228.44,478.24,228.12,477.94z"/>
	<path d="M225.26,463.74c1.33,1.63,1.33,1.63,3.37,2.55C227.91,464.66,226.79,463.94,225.26,463.74z"/>
	<path d="M179.06,463.74c0.62,0.35,0.79,0.26,1.45,0C179.61,462.43,175.7,461.49,179.06,463.74z"/>
	<path d="M180.72,413.48c0.31,1.23,0.72,2.35,2.15,3.58C182.46,415.21,181.64,414.29,180.72,413.48z"/>
	<path d="M212.39,394.37c0.31,0.02,0.62,0.07,0.76,0.11C217.98,395.43,217.55,393.3,212.39,394.37z"/>
	<path d="M220.66,488.56c0.61-0.82,0.41-1.63,0.2-2.55C220.15,487.64,220.15,487.64,220.66,488.56z"/>
	<path d="M183.19,435.55c-0.24-0.11-1.13,0.18,0.29,0.18C183.6,435.74,183.74,435.81,183.19,435.55z"/>
	<path d="M189.81,469.97c0.24,0.05,1.3,0.02,1.3-0.73C190.39,469.14,189.99,469.26,189.81,469.97z"/>
	<path d="M189.47,469.94c-1.35-0.17-1.28,1.49-0.11,0.62C189.47,470.48,189.92,469.99,189.47,469.94z"/>
	<path d="M188.28,470.68l0.1,0.1C188.42,470.67,188.41,470.72,188.28,470.68z"/>
	<path d="M224.76,463.2c-0.13,0.07-0.21,0.13-0.32,0.23C225.68,464.26,225.33,462.95,224.76,463.2z"/>
	<path d="M222.81,480.49c0.14,0,0.1,0.06,0.1-0.31C222.85,480.37,222.87,480.3,222.81,480.49z"/>
	<path d="M190.33,459.04c0.09,0.08,0.18,0.11,0.27,0.11C190.8,459.15,191.66,458.6,190.33,459.04z"/>
	<path d="M199.72,443.41c0,0,0.1-0.1,0.1-0.2C199.54,443.49,199.58,443.41,199.72,443.41z"/>
	<path d="M202.99,426.04l0.1-0.1C202.83,426.07,202.84,426.04,202.99,426.04z"/>
	<path d="M195.25,404.47c-0.03,0.01-0.05,0.01-0.07,0.02C194.99,404.49,194.88,404.84,195.25,404.47z"/>
	<path d="M195.25,404.47l0.03-0.01C195.33,404.43,195.37,404.34,195.25,404.47z"/>
	<path d="M188.07,470.68c0,0.34-0.03,0.21,0.2-0.1C188.28,470.68,188.18,470.68,188.07,470.68z"/>
	<path d="M196.45,369.24c1.53-1.53-0.88-8.18-1.39-8.47C192.7,359.59,195.93,368.21,196.45,369.24z"/>
	<path d="M192.47,302.13c-7.23,2.47-5.39,7.03,0.82,0.82C193.08,302.33,192.77,302.02,192.47,302.13z"/>
	<path d="M200.33,388.96c-0.82-3.67,0.5-6.82-1.21-9.78c-0.1-0.1-0.47,0.9,0.29,3.03C198.69,385.18,198.82,385.93,200.33,388.96z"/>
	<path d="M186.24,323.99c1.53-0.31,1.94-1.12,2.45-4.39C186.64,320.51,186.13,321.43,186.24,323.99z"/>
	<path d="M177.35,336.86l-0.1-0.1C177.25,336.84,177.26,336.83,177.35,336.86z"/>
	<path d="M187.67,339.52c0.57,1.93,1.48,3.31,3.47,3.58C189.46,340.21,188.95,338,187.67,339.52z"/>
	<path d="M180.82,309.07c0.74-1.79,0.47-2.81-0.41-3.88C180.31,306.31,179.7,307.44,180.82,309.07z"/>
	<path d="M180.72,299.78c0.12-1.46,0.39-2.5-0.41-4.19C179.53,297.26,179.06,300.33,180.72,299.78z"/>
	<path d="M198.49,377.21c1.14-2.28-0.94-5.65-0.73-2.11C197.82,375.91,198.12,376.47,198.49,377.21z"/>
	<path d="M236.09,335.02c-0.31,1.43,0.2,2.04,0.92,2.86C237.42,336.55,237.52,335.74,236.09,335.02z"/>
	<path d="M191.34,319.29c1.05-0.53,0.33-1.73,0.01-1.62C190,317.86,190.49,319.86,191.34,319.29z"/>
	<path d="M191.66,344.46c0.35,0.32,1.12,0.32,1.23,0.37C191.41,341.96,190.37,343.28,191.66,344.46z"/>
	<path d="M194.51,314.49c-0.9,0-1.4,0.49-1.74,1.33C193.98,315.92,194.21,315.37,194.51,314.49z"/>
	<path d="M185.16,334.85c-0.77-0.4-0.18,1.02,0.67,1.6C186.23,335.92,185.45,334.99,185.16,334.85z"/>
	<path d="M185.01,308.36c0,0.89,1.71,0.18,0.82-0.72C185.52,307.44,184.91,307.95,185.01,308.36z"/>
	<path d="M179.7,293.24c-0.61,0.41-0.51,0.92-0.1,1.43C180.11,294.16,180.21,293.65,179.7,293.24z"/>
	<path d="M180.85,301.26c0.47,0.71,0.57-0.3-0.23-1.38C180.73,300.41,180.59,300.86,180.85,301.26z"/>
	<path d="M234.96,341.97c0-0.72-0.41-0.73-0.41,0C234.73,342.36,234.96,342.07,234.96,341.97z"/>
	<path d="M192.88,282.41c-0.2-0.2-0.01,0.01-0.2,0.2C192.78,282.72,192.88,282.74,192.88,282.41z"/>
	<path d="M194.71,314.38c-0.03,0-0.05,0.02-0.06,0.04C194.5,314.65,194.71,314.49,194.71,314.38z"/>
	<path d="M177.04,319.19c0,0.1,0,0.2,0.2,0.1C177.14,319.29,177.04,319.29,177.04,319.19z"/>
	<path d="M177.25,319.38c-0.03,0-0.07,0-0.1,0.01C177.44,320.3,178.07,319.29,177.25,319.38z"/>
	<path d="M187.36,306.28c-0.03,0.12,0.2,0.24,0.2-0.17C187.45,306.17,187.37,306.22,187.36,306.28z"/>
	<path d="M208.3,235.93c-1.7,0.76-1.63,5.06-0.92,5.93C209.59,241.85,209.46,237.84,208.3,235.93z"/>
	<path d="M222.19,296.61c2.06-1.03,0.16-6.62-1.63-8.08C222.14,297.06,221.91,296.61,222.19,296.61z"/>
	<path d="M194.71,174.02c-0.1,0.51,0.2,1.12,1.43,1.33c-0.29-1.93-0.4-7.76-0.4-7.87C192.64,165.93,195.58,171,194.71,174.02z"/>
	<path d="M220.76,318.3c-0.4,0.25,0.33,5.07,1.84,4.77C222.53,321.84,222.85,316.98,220.76,318.3z"/>
	<path d="M222.09,299.88c-0.9,1.52,0.17,2.79,0.61,4.69C223.88,302.38,224.26,299.68,222.09,299.88z"/>
	<path d="M217.7,244.92c-0.1,1.26-1.54,2.12-0.51,3.58C219.3,248.96,219.93,245.95,217.7,244.92z"/>
	<path d="M210.04,232.56c-0.1-0.55-0.4-0.82-1.02-0.82c-0.14,0.33-0.77,1.12-0.77,1.46C207.91,235.11,210.26,234.31,210.04,232.56z"
		/>
	<path d="M209.92,256.59c-0.2,0.3-0.49,0.4-0.19,0.9c0.41-1.68,1.28-0.5,1.84-3.06C211.9,252.9,209.35,252.96,209.92,256.59z"/>
	<path d="M205.54,230.31c0.64-0.64,0.05-1.9-0.1-2.66C204.22,228.97,204.12,229.56,205.54,230.31z"/>
	<path d="M221.89,325.72c-1.08-0.81-1.54,1.4,0.31,1.63C222.63,326.7,222.56,326.1,221.89,325.72z"/>
	<path d="M219.44,286.6c1.11,0.56,1.11-0.34,0.72-1.53C219.47,285.28,219.06,286.1,219.44,286.6z"/>
	<path d="M218.21,282c-0.1,0.3,0.18,1.56,1.12,0.61C218.85,281.88,218.7,281.51,218.21,282z"/>
	<path d="M209.53,228.98c0.41-0.41,0.41-0.82,0-1.23C208.61,228.17,208.61,228.17,209.53,228.98z"/>
	<path d="M209.63,259.83c-1.18,0.99,0.6,1.7,0.46,0.58C210.06,260.22,209.92,260.03,209.63,259.83z"/>
	<path d="M204.33,197.21c-0.24-0.12-0.41,0-0.41,0.45C204.01,198.04,205.07,197.95,204.33,197.21z"/>
	<path d="M200.13,168.61c0.67,0-0.01-0.5-0.2-0.31C199.72,168.51,199.82,168.61,200.13,168.61z"/>
	<path d="M200.13,171.57c0-0.26-0.51-0.71-0.51,0.2C199.93,172.08,200.13,171.72,200.13,171.57z"/>
	<path d="M205.31,224.11c0.12-0.12,0.28-0.25-0.07-0.43C205.06,223.86,205.19,224.23,205.31,224.11z"/>
	<path d="M216.17,280.88c0.2-0.1,0.31-0.1,0.51-0.2C216.26,280.06,215.65,280.88,216.17,280.88z"/>
	<path d="M204.83,200.48c0-0.1,0.1-0.31,0.2-0.51c-0.1,0-0.2-0.1-0.2-0.2C204.42,200.18,204.72,200.38,204.83,200.48z"/>
	<path d="M209.42,263.31l0.2,0.1C209.63,263.14,209.68,263.18,209.42,263.31z"/>
	<path d="M170.61,286.8c-5.49,0-9.81,2.14-9.4,3.37c2.35,0,4.7-0.89,7.05-1.33C169.28,288.65,169.99,287.93,170.61,286.8z"/>
	<path d="M154.29,236.39c0,1.82-0.59,3.63,0.68,5.27c2.13-0.71,0.93-4.36-0.7-5.93C154.17,235.63,154.29,235.7,154.29,236.39z"/>
	<path d="M136.7,207.43c0.2,1.02-0.1,2.15,1.33,3.06C138.21,206.6,135.87,200.87,136.7,207.43z"/>
	<path d="M150.89,261.77c-0.07,1.04-0.09,1.32,0.34,1.32C152.51,263.09,151.84,261.6,150.89,261.77z"/>
	<path d="M139.34,181.78c0.03-0.85,0.26-1.49-0.6-2.44C138.8,179.53,139.2,183.11,139.34,181.78z"/>
	<path d="M152.01,227.45c0.2,0.72-0.2,1.53,0.51,2.35C153.14,228.78,152.83,228.06,152.01,227.45z"/>
	<path d="M153.85,233.48c0.1-0.92,0.1-0.92-0.51-1.53C153.34,232.86,153.34,232.86,153.85,233.48z"/>
	<path d="M152.04,227.3c0.15,0.15,0.1-0.58-0.22-1.06C151.82,226.13,151.12,226.72,152.04,227.3z"/>
	<path d="M149.46,259.73c0.68,0.34,0.52,0.2,0.72,0C149.71,259.27,149.56,259.63,149.46,259.73z"/>
	<path d="M160.8,290.58c0.1-0.2,0.2-0.31,0.31-0.51C160.9,290.17,160.39,290.07,160.8,290.58z"/>
	<path d="M145.37,189.35c0.06,0.03,0.01,0.01,0.2,0.1C145.45,189.19,145.51,189.21,145.37,189.35z"/>
	<path d="M196.99,492.46c-8.32,3.04,1.78,1.93,3.85,1.21C202.89,493.08,202.72,490.37,196.99,492.46z"/>
	<path d="M212.59,496.63c-1.58,1.58,0.65,2.38,2.15-0.61C213.71,495.4,213.2,496.12,212.59,496.63z"/>
	<path d="M204.32,499.29c-0.89,0.67-2.17,0.57-2.66,2.04C202.69,501.64,205.89,500.41,204.32,499.29z"/>
	<path d="M207.9,501.35c0.01,0.15,0.04,0.32,0.09,0.49C211.38,498.71,207.74,499.25,207.9,501.35z"/>
	<path d="M158.04,509.81c0.72,0.2,1.23-0.1,2.04-0.72C158.39,509.01,158.36,508.96,158.04,509.81z"/>
	<path d="M191.57,493.95c-0.5,0-0.79,0.51-1.25,0.74C191.59,495.54,192.77,494.03,191.57,493.95z"/>
	<path d="M151.6,512.67c-0.83,0-0.51,0.72-0.41,0.72C151.75,513.57,152.14,512.67,151.6,512.67z"/>
	<path d="M193.6,506.54c0.2,0,0.42,0.2,0.61,0.1C194.88,506.42,194.25,505.24,193.6,506.54z"/>
	<path d="M179.8,498.16c-0.1,0-0.2,0.1-0.2,0.2C179.59,499,180.56,498.16,179.8,498.16z"/>
	<path d="M197.57,503.58c-0.39,0-0.35,0.31-0.2,0.31C197.95,503.88,197.92,503.69,197.57,503.58z"/>
	<path d="M155.18,511.24c-0.5-0.5-1.04,0.78,0.1,0.2C155.28,511.34,155.28,511.24,155.18,511.24z"/>
	<path d="M186.13,496.12c0.38,0,0.43,0.04,0-0.1V496.12z"/>
	<path d="M201.37,501.33c-0.38,0,0.18,0.63,0.18-0.1C201.56,501.3,201.45,501.32,201.37,501.33z"/>
	<path d="M122.69,529.42c-2.41,2.41-4.18,11.79-4.8,16.45c-0.76,5.74-6.08,8.62-3.36,8.62c3.02-0.5,5-7.42,5.61-12.61
		C121.39,531.22,125.08,529.42,122.69,529.42z"/>
	<path d="M115.13,541.68c-0.76,1.61-3.69,9.39-2.57,10.46C113.49,553.03,116.97,537.81,115.13,541.68z"/>
	<path d="M121.47,524.62c-0.59-2.38,1.31-5.63,1.02-8.48C120.69,518.62,118.76,523.14,121.47,524.62z"/>
	<path d="M111.97,540.76c0.42-0.31-0.02-0.29-0.31,0c-2.16,2.43-2.62,7.63-0.95,7.33c0.98-0.17-0.43-3.84,1.46-7.03
		C112.57,541.07,111.55,540.97,111.97,540.76z"/>
	<path d="M123.92,526.46c0.06-0.17,0.19-0.75,0.21-0.82C124.04,525.92,123.75,526.11,123.92,526.46z"/>
	<path d="M116.05,540.86c0-0.32,0.03-0.25-0.14,0.1C115.71,541.17,116.05,540.97,116.05,540.86z"/>
	<path d="M120.19,562.15c1.49,6.65,1.2,12.33,2.72,11.26C125.64,571.49,118.66,555.3,120.19,562.15z"/>
	<path d="M107.98,563.03c2.74,6.09,5.89,5.18,3.37,2.66C110.84,564.97,109.42,563.03,107.98,563.03z"/>
	<path d="M119.97,560.02c-0.11-0.51-0.61-0.44-0.45,0.21C119.57,560.38,120.17,560.96,119.97,560.02z"/>
	<path d="M382.68,254.32c-2.91-2.28-3.88-4.6-5.11-6.44c-0.34,0.07-1.21,0.13-0.31,1.94C380.42,255.07,389.12,259.37,382.68,254.32z
		"/>
	<path d="M428.55,260.45c0.22-1.19,0.45-2.12,0.92-4.9c-1.85,0.13-1.94-0.31-1.94,4.19C427.53,260.21,427.91,260.55,428.55,260.45z"
		/>
	<path d="M386.97,260.65c-1.85-1.85-0.56,2.55,2.35,3.68C388.61,263.1,387.79,261.88,386.97,260.65z"/>
	<path d="M391.47,268.52c0.1,0.1,0.2,0.31,0.31,0.51C392.75,269.03,391.69,268.06,391.47,268.52z"/>
	<path d="M366.44,225.3c-1.01,2.28,4.35,18.52,7.98,17.39c0.27,0.27,0.03-0.9-0.62-1.55C369.4,235.28,369.18,225.3,366.44,225.3z"/>
	<path d="M385.11,256.94c0.25,0.16,0.02-0.07-0.11-0.2C384.82,256.56,384.99,256.88,385.11,256.94z"/>
	<path d="M457.05,273.32c-1.44,0.8-1.56,4.48-5.82,10.52c-7.74,10.97-11.34,8.15-9.62,9.96c0.6,0.63,4.46,2.05,7.61,1.59
		c0.75,0-3.56-1.21-4.72-2.17c0.32-0.73,0.95-1.04,1.23-1.43C453.99,286.87,460.44,273.32,457.05,273.32z"/>
	<path d="M460.52,277.4c-3.7,5.38-0.28,1.5-7.46,9.7c3.44,1.15,7.12-4.19,8.38-8.07C461.77,278.25,461.3,277.75,460.52,277.4z"/>
	<path d="M463.69,296.2c-5.78-0.96,3.76,4.47,11.75-0.61C475.34,295.64,470.15,296.76,463.69,296.2z"/>
	<path d="M418.75,302.37c-0.18-0.05-0.48,0.48-0.4,0.48c1.63,4.84,6.71,8.15,4.78,6.22C418.84,302.13,419.48,302.57,418.75,302.37z"
		/>
	<path d="M427.83,311.93c-0.1-0.1-0.41,0.1-0.72,0.31c1.09,1.28,2.52,2.21,4.31,2.74C438.44,317.06,431.67,314.03,427.83,311.93z"/>
	<path d="M466.55,314.59c1.66-0.21,1.9,0.06,5.21-0.31C470.99,313.12,468.44,313.08,466.55,314.59z"/>
	<path d="M470.13,286.39c0.38-0.38,2.95-2.95,3.27-3.27C471.76,283.94,471.76,283.94,470.13,286.39z"/>
	<path d="M499.94,282.41C499.94,282.41,499.94,282.41,499.94,282.41C499.94,282.41,499.94,282.41,499.94,282.41z"/>
	<path d="M499.13,283.34c0.67-0.38,0.79-0.92,0.81-0.93c-0.55,0.08-1.09,0.1-1.22,0.58C498.53,283.7,498.84,283.5,499.13,283.34z"/>
	<path d="M500.54,281.81c-0.4,0.03-0.64,0.21-0.6,0.6c0,0,0,0,0,0c0,0.01,0,0.03,0,0.06C499.95,282.56,500.54,282.2,500.54,281.81z"
		/>
	<path d="M433.86,298.35c0,0.76,0.76,1.19,1.23-0.2C434.49,297.66,434.07,297.61,433.86,298.35z"/>
	<path d="M474.32,282.32c0.29-0.29,1.12-0.44,1.22-1.24C474.75,281.08,474.31,281.48,474.32,282.32z"/>
	<path d="M485.87,298.55c0.06,0,0.13,0,0.19,0C485.96,298.45,485.97,298.41,485.87,298.55z"/>
	<path d="M484.02,299.28c0.31-0.16,0.66-0.19,1.01-0.27C487.07,298.56,484.59,298.13,484.02,299.28z"/>
	<path d="M463.89,315.61c-0.1-0.1-0.31-0.1-0.51-0.1C463.59,315.51,463.69,315.51,463.89,315.61z"/>
	<path d="M466.04,314.54c-0.11,0.02-0.23,0.07-0.33,0.19C465.24,315.33,467.15,314.36,466.04,314.54z"/>
	<path d="M486.98,298.14c-0.51-0.2-0.82-0.1-0.92,0.41C486.27,298.35,486.68,298.55,486.98,298.14z"/>
	<path d="M483.82,288.03c-0.15,0.15-0.15,0.13,0.1,0H483.82z"/>
	<path d="M484.53,287.31c0.03,0.03,0.03,0.06,0.01,0.1C484.72,287.24,484.89,287.13,484.53,287.31z"/>
	<path d="M484.54,287.41c-0.03,0.03-0.06,0.06-0.09,0.1C483.18,288.39,484.44,287.74,484.54,287.41z"/>
	<path d="M500.54,281.81c0.05,0,0.1-0.01,0.13-0.01C500.52,281.65,500.59,281.68,500.54,281.81z"/>
	<path d="M473.6,283.23c0-0.03,0.03-0.2,0.04-0.25l0,0c0.19-0.19,0.41-0.41,0.57-0.57c0.01,0.02,0.04,0.04,0.11,0.1
		c0-0.23,0-0.18,0-0.19c-0.08,0.06-0.13,0.06-0.11,0.09c-0.31,0.16-0.5,0.32-0.58,0.58C473.46,283.16,473.47,283.03,473.6,283.23z"
		/>
	<path d="M416.7,226.5c-1.49,0.29-3.06,0.25-3.06,1.77C414.61,232.18,430.37,223.81,416.7,226.5z"/>
	<path d="M450.21,232.15c-2.17,0.32-4.21,0.57-6.14,1.63C442.28,234.38,446.05,236.86,450.21,232.15z"/>
	<path d="M465.63,219.99c2.52-0.88,0.52-3.25-2.76-0.51C463.32,219.48,463.8,220.63,465.63,219.99z"/>
	<path d="M476.87,224.28c1.12-1.12,1.53-2.55,1.23-4.39C476.47,221.14,475.12,224.28,476.87,224.28z"/>
	<path d="M427.02,223.26c2.04,0.92,2.66,0.61,3.68-1.43C428.97,221.53,427.73,221.54,427.02,223.26z"/>
	<path d="M479.93,189.04c-0.43-1.57,0.24-5.75-1.23-4.29c-0.51,1.23-0.41,2.35,0,3.58C478.81,188.53,479.12,188.53,479.93,189.04z"
		/>
	<path d="M405.87,225.51c0.67,0.74,2.95,2.92,3.87,2.58C410.96,227.64,409.57,225.94,405.87,225.51z"/>
	<path d="M481.77,164.42c-1.63,0.92-1.74,1.02-1.12,3.58C480.75,166.67,482.08,165.85,481.77,164.42z"/>
	<path d="M476.97,164.83c-1.12-2.25-1.46,1.68-1.2,2.95C476.02,168.96,476.92,164.98,476.97,164.83z"/>
	<path d="M479.52,193.84c0.33-1.14,0.49-1.9-0.1-2.96C479.01,192.72,479.01,192.72,479.52,193.84z"/>
	<path d="M423.44,225.61c0.32,0.53,0.63,0.91,1.23,0.72C426.43,225.89,425.04,224.41,423.44,225.61z"/>
	<path d="M466.04,212.23c-0.61-0.72-0.61-0.72-1.43-0.41C465.22,212.54,465.22,212.54,466.04,212.23z"/>
	<path d="M473.91,166.87c-0.69,0.52-0.85,0.9-0.23,1.51C473.67,168.04,473.91,168.88,473.91,166.87z"/>
	<path d="M479.12,170.65c0.47,0,0.31-0.61,0.31-0.72C478.51,170.39,478.78,170.65,479.12,170.65z"/>
	<path d="M458.17,219.69c0.57-0.57-0.47-0.5-0.59-0.33C457.43,219.51,457.52,220.34,458.17,219.69z"/>
	<path d="M460.73,219.38c-0.59-0.59-0.61-0.26-1.12,0C460.23,219.59,460.23,219.58,460.73,219.38z"/>
	<path d="M477.38,217.44c0.42-0.42-0.2-0.88-0.2-0.51C476.96,217.14,477.13,217.36,477.38,217.44z"/>
	<path d="M478.09,213.76c-0.42-0.42-0.18,0-0.72,0C477.66,214.04,477.55,214.04,478.09,213.76z"/>
	<path d="M478.61,196.09h0.1C478.71,195.84,478.74,195.81,478.61,196.09z"/>
	<path d="M451.23,231.43c0.32-0.32,0.57-0.07-0.31-0.51C450.52,231.13,450.74,231.6,451.23,231.43z"/>
	<path d="M452.85,230.48c0.44,0,0.27-0.37,0.05-0.64C452.6,229.54,452.67,230.55,452.85,230.48z"/>
	<path d="M507.49,326.88c-2.54-3.5-1.38,11.49,1.14,12.12c0.67,0.24,1.14-0.62,0.42-1.33C506.22,334.85,508.65,328.73,507.49,326.88
		z"/>
	<path d="M513.58,356.16c-0.26,0.23-0.25,0.59-0.04,0.93c0.2,0.51,0,1.33,0.92,1.53C514.87,357.69,514.54,355.34,513.58,356.16z"/>
	<path d="M513.44,364.34c0.72-1.63,0.72-1.63,0.2-2.86C513.1,362.48,512.85,363.35,513.44,364.34z"/>
	<path d="M514.87,352.8c0.51-1.12,0.41-1.74,0.1-2.66C514.26,351.06,513.95,351.77,514.87,352.8z"/>
	<path d="M510.07,340.33c-0.72,0.82-0.1,1.12,0.92,1.43C510.99,340.85,510.67,340.53,510.07,340.33z"/>
	<path d="M381.37,187.69c0.49,1.07,0.91,1.98,0.99,2.98c0.1,1.24,4.81,4.03,8.48,3.17h0.01c-3.07,0-6.98-3.37-7.05-3.37
		C382.67,183.11,377.47,179.19,381.37,187.69z"/>
	<path d="M365.62,202.73c0,0.46-0.62,1.63,0.2,1.63C366.44,203.24,366.44,203.24,365.62,202.73z"/>
	<path d="M479.21,331.08c-1.69,0.29-0.51,3.3,0.21,4.86C480.39,333.5,480.29,330.89,479.21,331.08z"/>
	<path d="M481.57,342.38c-0.51,0.82-0.51,1.43,0.51,1.84C482.69,343.19,482.49,342.68,481.57,342.38z"/>
	<path d="M480.65,339.31c-0.41,0.35-0.55,0.78,0.2,1.43C481.01,340.34,481.46,339.31,480.65,339.31z"/>
	<path d="M503.74,377.62c-0.82,2.55-0.31,5.11-0.72,7.76c1.23-1.84,1.23-4.09,1.84-6.23C504.96,378.54,504.86,377.82,503.74,377.62z
		"/>
	<path d="M500.99,395.92c0.8,1.29,0.48-2.4,0.69-3.18C504.11,384.13,499.33,393.24,500.99,395.92z"/>
	<path d="M420.48,176.99c-1.9-0.48,0.06,1.25-1.23,3.58c-0.09,0.09,0.15,0.61,0.2,0.72C420.99,180.05,420.07,178.31,420.48,176.99z"
		/>
	<path d="M414.85,175.56c0.75-0.6,0.74-0.68-0.31-1.12C413.95,175.02,414.08,176.17,414.85,175.56z"/>
	<path d="M485.86,383.03c-0.1-2.04,1.33-3.98,0.2-6.74C484.43,378.95,484.22,380.99,485.86,383.03z"/>
	<path d="M484.34,393.14c1.27-1.14,2.21-0.8,1.84-7.56C484.52,385.91,484.34,385.9,484.34,393.14z"/>
	<path d="M693.13,158.29c0.32-1.63,1.02-3.16,0.2-5.01c-0.72-1.63,0.31-3.68-0.72-5.41c-0.3-0.51,0.18-1.41-0.82-1.53
		c-1.41,4.53,3.01,11.52-1.94,7.46c-2.11-1.73-4.06-3.74-6.48-5.07c-0.28,0.93,0.41,1.57,1.06,2.22c9.09,9.08,7.74,3,6.44,13.89
		c0,0.41-0.1,0.92-0.72,0.92c-3.06-3.06-3.06-3.06-5.41-3.68c6.85,9.89,5.52,2.26,5.52,11.54c-4.15,7.83-1.09,1.14-5.21,13.48
		c-1.64,4.91-1.06,3.17-2.86,3.17c-2.65,0-4.98,0.81-6.54,2.96c8.15-2.04,8.36-2.57,5.93,5.21c-4.74,2.15-4.84,1.96-5.47,2.79
		c-0.19,0.19,1.4,0.58,3.42-0.54c2.69-1.22,2.69,1.72,4.39-2.55c3.15-7.91,4.87-18.91,7.36-23.81
		C692.39,172.16,690.71,170.48,693.13,158.29z"/>
	<path d="M683.4,148.69c0.01-0.03,0.02-0.06,0.03-0.1C683.28,148.74,683.4,148.76,683.4,148.69z"/>
	<path d="M729.81,174.64c-1.46,8.77-5.31,13.5-5.31,25.74c0,9.47,2.06-9.79,4.29-17.37c0.97-3.29,3.66-9.99,1.74-12.86
		C729.7,171.88,730.03,173.31,729.81,174.64z"/>
	<path d="M717.02,176.52c0.46-2.38-50.4,30.12-5.6,4.15C711.97,180.34,716.9,177.14,717.02,176.52z"/>
	<path d="M700.54,162.99c-2.86,2.86,14.74-4.05,15.47-4.38C713.57,158.61,701.38,161.75,700.54,162.99z"/>
	<path d="M722.86,209.06c-2.04,5.31-5.87,10.96-6.33,12.36C715.14,225.59,722.45,215.81,722.86,209.06z"/>
	<path d="M733.18,136.84c0-4.33,0.27-6.04-0.61-8.38c-1.59,0.5-1.83,0.81-1.84,1.86C730.72,131.06,731.74,136.84,733.18,136.84z"/>
	<path d="M732.95,153.69c0.97,10.49,7.5,16.94-0.08-1.34C732.88,152.82,732.91,153.25,732.95,153.69z"/>
	<path d="M731.75,143.17c-1.16,1.75,3.07,5.43,5.21,6.84c0.52,0.35,0.98-0.04,1.23-0.61C736.14,147.36,734.3,144.91,731.75,143.17z"
		/>
	<path d="M691.27,121.42c-1.17-1.82-4.47,4.46-4.47,5.61C689.65,125.84,691.73,122.13,691.27,121.42z"/>
	<path d="M696.61,138.17c-2.91,2.1-3.21,2.44-4.38,5.29C693.85,142.87,694.05,142.56,696.61,138.17z"/>
	<path d="M695.71,130.87c2.18-5.32-1.49-3.28-1.04,2.28C695.05,132.31,695.42,131.58,695.71,130.87z"/>
	<path d="M693.03,190.37c-1.54,0.1-2.99,1.05-4.09,2.15C690.99,192.37,692.13,191.61,693.03,190.37z"/>
	<path d="M737.16,135.61c-0.9,1.19-0.93,1.25-0.41,2.45C737.16,137.35,737.88,136.74,737.16,135.61z"/>
	<path d="M698.02,202.2c-0.37,0.5,0.02-0.82-2.84,1.35c-9.38,5.18-9.53,4.36-9.16,4.91c1.06,1.61,14.29-6.9,15.39-8.28
		C700.38,200.17,699.02,200.82,698.02,202.2z"/>
	<path d="M699.26,149.3c-1.42,0.57-1.65,0.33-2.43,1.5C696.73,150.91,698.03,150.94,699.26,149.3z"/>
	<path d="M698.34,122.33c0.43-0.33,0.47-0.73,0-1.02C697.93,121.62,697.83,122.03,698.34,122.33z"/>
	<path d="M737.26,141.53c0.06-0.28-0.22-0.44-0.31-0.6C737.25,141.5,737.11,142.05,737.26,141.53z"/>
	<path d="M702.22,199.35c0.5,0,0.95-0.19,1.23-0.6C703.35,198.79,702.22,199.12,702.22,199.35z"/>
	<path d="M688.84,192.41c-0.2,0.2-0.41,0.31-0.82,0.31C688.54,193.02,688.74,192.72,688.84,192.41z"/>
	<path d="M703.55,198.85c0.13-0.27,0.17-0.24-0.1-0.1L703.55,198.85z"/>
	<path d="M701.51,200.28c-0.01-0.05,0-0.09,0-0.13C701.38,200.19,701.38,200.15,701.51,200.28z"/>
	<path d="M702.04,199.38C702.19,199.48,702.33,199.27,702.04,199.38L702.04,199.38z"/>
	<path d="M702.01,199.39c-0.03,0.01-0.06,0.02-0.1,0.04C700.75,200.25,702.16,200.3,702.01,199.39z"/>
	<path d="M702.01,199.39c0.01,0,0.02-0.01,0.03-0.01c-0.01-0.01-0.02-0.01-0.03-0.02C702.01,199.37,702.01,199.38,702.01,199.39z"/>
	<path d="M702.09,147.23c-0.12-0.12-0.17,0.03-0.07,0.03C702.18,147.26,702.35,147.06,702.09,147.23z"/>
	<path d="M736.86,140.82c0.13,0.13,0.08,0.13,0.2,0H736.86z"/>
	<path d="M685.88,127.95c0.1-0.1,0.1-0.2,0.1-0.31C685.98,127.75,685.88,127.85,685.88,127.95z"/>
	<path d="M686.7,126.93c-0.41,0.08-0.57,0.35-0.59,0.69C686.44,127.56,686.7,127.3,686.7,126.93z"/>
	<path d="M686.08,127.75c0-0.05,0.01-0.08,0.01-0.12C685.95,127.66,685.95,127.61,686.08,127.75z"/>
	<path d="M701.54,147.29c-1.21,0.17-1.42,1.39-1.47,1.29C701.21,148.54,702.52,147.15,701.54,147.29z"/>
	<path d="M699.97,148.63c-0.33,0.11-0.59,0.29-0.59,0.64C699.37,149.37,699.91,149.23,699.97,148.63z"/>
	<path d="M683.07,148.36c0.65,0.46-0.14-0.19-0.25-0.29C682.82,148.08,682.79,148.05,683.07,148.36z"/>
	<path d="M682.82,148.08c-0.17-0.3-0.04-0.38-0.18-0.23C682.54,147.79,682.34,147.65,682.82,148.08z"/>
	<path d="M675.36,193.33c0.1,0,0.2-0.1,0.2-0.2C675.46,193.23,675.46,193.23,675.36,193.33z"/>
	<path d="M725,47.04c2.35-1.94,3.37-4.9,5.62-6.84C728.51,36.31,723.06,47.04,725,47.04z"/>
	<path d="M726.01,65.34c-0.1,5.47,0.11-1.65,4.62-5.93C732.53,58.11,726.15,57.65,726.01,65.34z"/>
	<path d="M718.1,51.77c3.49,0.02,2.85-2.51-1.58-0.75c-1.23-0.51-1.23-0.51-1.43,0.51C716.19,51.44,717.02,51.77,718.1,51.77z"/>
	<path d="M723.78,50.83c-1.1,1-1.28,2.22-1.42,3.54C722.36,54.48,723.78,52.62,723.78,50.83z"/>
	<path d="M747.99,112.63c0.56-0.99,0.07-1.96-0.51-2.96C747.21,111.33,746.95,112.63,747.99,112.63z"/>
	<path d="M711.62,97.1c-1.12,0.61-1.53,1.43-0.72,2.55C712.13,99.04,712.13,98.22,711.62,97.1z"/>
	<path d="M725.52,70.64c0.82-0.31,0.82-0.92,0.51-1.63C725.31,69.42,725.11,69.93,725.52,70.64z"/>
	<path d="M713.04,93.51c0.08-1.52-1.08-0.6-1.08,0.3C711.96,95.89,713.02,93.94,713.04,93.51z"/>
	<path d="M752.59,87.5c-0.92,0.1-1.33,0.41-1.12,1.63C752.38,88.82,752.89,88.52,752.59,87.5z"/>
	<path d="M712.75,67.1c-0.62-0.06-1.04,1.05-0.51,1.5C712.34,68.5,713.9,67.22,712.75,67.1z"/>
	<path d="M715.9,78.72c0.11,0.95,1.2,0.17,0.52-1.24C716.2,77.95,715.85,78.28,715.9,78.72z"/>
	<path d="M740.12,51.44c0.44,0.18,0.91,0.15,0.91-0.56C740.83,49.8,739.3,51.02,740.12,51.44z"/>
	<path d="M745.23,51.03c-0.1,0.1-0.79,0.47-0.22,0.95C746,52.82,746.41,51.03,745.23,51.03z"/>
	<path d="M747.07,106.91c-0.41,0.92-0.41,0.92,0,1.74C747.48,107.83,747.48,107.83,747.07,106.91z"/>
	<path d="M712.06,70.58c-0.06,0.12,0.17,0.26,0.17-0.14C712.03,70.23,712.22,70.37,712.06,70.58z"/>
	<path d="M720.71,58.59c-0.07,0-0.13,0-0.2,0C720.51,58.99,720.46,58.97,720.71,58.59z"/>
	<path d="M737.98,50.52c-0.29,0.1-0.31,0.3-0.1,0.51C737.88,51.34,738.46,50.52,737.98,50.52z"/>
	<path d="M748.5,91.99c0.23,0.12,0.4-0.29,0.31-0.51C748.27,91.48,748.07,91.64,748.5,91.99z"/>
	<path d="M749.3,91.22c0-0.44-0.5-0.52-0.51-0.01C748.78,91.55,749.3,91.41,749.3,91.22z"/>
	<path d="M725.33,74.67c0,0.09-0.14,0.08-0.22,0.06c0.1,0.31,0.31,0.31,0.31,0.1C725.3,74.61,725.34,74.63,725.33,74.67z"/>
	<path d="M725,74.42c0-0.34-0.61,0.2,0.1,0.2C725,74.63,725.11,74.52,725,74.42z"/>
	<path d="M722.35,54.4C722.04,54.81,722.35,54.5,722.35,54.4L722.35,54.4z"/>
	<path d="M765.25,98.22c-1.8,2.02-1.04,8.28-3.06,12.05c-0.17,0.17-0.1,0.85-0.1,0.95c0.05,2.83,1.99-0.62,1.84-2.8
		c0.24,0-0.6-0.45,0.61-3.83C766.61,98.82,766.37,98.67,765.25,98.22z"/>
	<path d="M769.95,99.24c-0.33,1.01,0.2,2.25,1.12,3.17c0.31-7.51,1.64-11.14-0.51-10.52C769.79,94.98,770.79,96.66,769.95,99.24z"/>
	<path d="M783.23,49.49c1.48,0.18,1.23-1.02,1.68-3.71c0.31-1.24-2.06-3.38-3.31-4.26C784.07,47.88,782.27,47.38,783.23,49.49z"/>
	<path d="M766.13,70.33c0.2,0.16-0.65-3.47-0.67-3.58c-0.11-0.51-0.51-0.61-1.02-0.72C763.74,68.36,763.83,68.68,766.13,70.33z"/>
	<path d="M770.06,76.58c1.23-1.64,0.51-3.18-1.74-3.89C768.51,74,769.21,74.89,770.06,76.58z"/>
	<path d="M764.13,86.48c-2.35,1.12-2.35,1.12-1.84,3.17C763.7,89.06,764.13,88.01,764.13,86.48z"/>
	<path d="M760.96,89.64c-1.33,0.1-1.84,0.92-2.15,2.25C760.56,92.09,760.56,92.09,760.96,89.64z"/>
	<path d="M752.38,159.62c1.33-0.92,1.33-0.92,0.2-2.55C751.77,157.88,751.36,158.7,752.38,159.62z"/>
	<path d="M761.47,42.24c-0.1,1.05,0.04,1.71,0.72,2.55C763.13,42.95,763.1,42.86,761.47,42.24z"/>
	<path d="M768.42,72.58c-0.06-0.02-0.12-0.03-0.17-0.05C768.33,72.74,768.31,72.69,768.42,72.58z"/>
	<path d="M768.25,72.54c-0.24-0.48-0.51-1.19-0.9-1.56C765.91,69.62,765.22,71.75,768.25,72.54z"/>
	<path d="M754.32,148.69c0.64-0.76,1.17-1.18,0.41-1.94C753.92,147.67,753.92,147.67,754.32,148.69z"/>
	<path d="M765.36,85.66c0.2-0.41,0.41-0.92,0.82-1.94C764.14,84.24,764.01,85.86,765.36,85.66z"/>
	<path d="M753.2,155.84c0.82-0.61,0.61-1.33,0-1.94C752.59,154.51,752.48,155.12,753.2,155.84z"/>
	<path d="M777.74,38.18c0.12-0.18-0.02-0.33-0.12-0.33C777.04,37.85,777.25,38.42,777.74,38.18z"/>
	<path d="M753.81,150.94c0,0.24,0.69,0.46,0.2-0.51C753.92,150.63,753.81,150.83,753.81,150.94z"/>
	<path d="M690.68,237.77c-1.16,0.64-3.58,10.16-3.47,10.83C691.37,244.43,693.61,236.77,690.68,237.77z"/>
	<path d="M664.84,255.13c1.02-1.02,1.23-1.23,1.43-2.55C667.57,246.99,664.84,246.15,664.84,255.13z"/>
	<path d="M689.76,221.42c0.31,0.2,0.61,0.31,1.02,0.61c2.15-1.84,2.15-1.84,2.55-4.8C690.78,218.97,690.68,219.07,689.76,221.42z"/>
	<path d="M683.53,252.89c2.04-1.12,2.04-1.12,2.15-2.96C684.59,250.61,683.9,251.64,683.53,252.89z"/>
	<path d="M704.88,228.57c1.23-0.82,1.23-0.82,1.12-2.25C704.78,227.35,704.78,227.35,704.88,228.57z"/>
	<path d="M701.3,234.19c0.67-0.52,1.03-0.75,1.43-1.94C701.41,233.27,701.41,233.27,701.3,234.19z"/>
	<path d="M664.12,288.34c0.82-0.2,1.33-0.51,0.61-1.33C663.81,287.11,663.4,287.52,664.12,288.34z"/>
	<path d="M681.18,256.36c0.49,0.2,0.73-0.24,0.92-0.72C681.69,255.65,681.18,255.54,681.18,256.36z"/>
	<path d="M662.16,291.74c0.29,0.04,0.79-0.32,0.9-0.68C663.06,288.63,661.08,291.74,662.16,291.74z"/>
	<path d="M675.87,261.37c-0.61-0.2-1.02,0-1.12,0.61C675.89,262.66,676.14,261.37,675.87,261.37z"/>
	<path d="M702.84,232.35c0.63-0.53,1.27-1.09,1.12-2.04C702.94,230.82,702.94,231.54,702.84,232.35z"/>
	<path d="M665.96,285.07c-0.21,0.21,0.2,1.24,0.92-0.2C666.47,284.45,666.16,284.56,665.96,285.07z"/>
	<path d="M665.55,256.56c0-0.22-1.02,0.56-0.2,1.12C665.57,257.91,666.34,257.09,665.55,256.56z"/>
	<path d="M666.98,261.37c0,0,0.31-0.2,0.51-0.31C667.49,260.01,665.85,260.24,666.98,261.37z"/>
	<path d="M677.6,260.14c-0.02,0.02-0.06,0.06-0.09,0.09C677.56,260.22,677.6,260.2,677.6,260.14z"/>
	<path d="M677.51,260.23c-0.03,0.01-0.07,0.01-0.11,0.01C677.3,260.24,677.16,260.59,677.51,260.23z"/>
	<path d="M654.08,253.86c0.25-1.15,0.34-2.34,0.34-3.52C650,256.12,652.93,259.19,654.08,253.86z"/>
	<path d="M652.75,259.73c-0.2,1.74,0.59,2.76,2.07,3.68C654.82,260.91,653.24,255.38,652.75,259.73z"/>
	<path d="M655.13,249.52c1.12-0.61,1.12-0.61,1.12-2.96C654.93,247.57,654.93,247.57,655.13,249.52z"/>
	<path d="M657.89,245.74c0.31-1.12,1.12-1.53,0.51-2.76C657.38,243.69,657.07,244.31,657.89,245.74z"/>
	<path d="M645.57,330.21c7.51,7.38,3.24,7.18,1.5,1.65c-0.02,0-0.06,0.06-0.07,0.08c-0.7,1.02-0.54,1.41,0.47,3.18
		c7.46,11.52,6.73,10.93,7.56,10.93c2.59,0-3.08-9.97-4.85-12.35C645.06,326.83,642.04,326.74,645.57,330.21z M650.46,337.41
		c-0.41-0.29-0.59-0.72-0.54-1.24C650.55,336.39,650.54,336.88,650.46,337.41z"/>
	<path d="M637.06,309.03c-0.23-0.45,1.31-0.44-1.14-4.14c-5.14-0.54-2.02-1.44-0.41,5.52c1.12,4.86,5.46,7.56,4.1,4.19
		C639.12,313.41,639.35,315.53,637.06,309.03z"/>
	<path d="M644.1,339.52c-0.31-2.35-0.92-3.47-3.06-6.03C640.55,336.89,642.79,339.17,644.1,339.52z"/>
	<path d="M631.63,307.54c-0.1,2.04,0.92,3.68,2.86,5.41C634.29,310.3,633.27,308.77,631.63,307.54z"/>
	<path d="M631.33,306.62c-0.33,0.55-0.13,0.78,0.41,0.92C631.74,307.01,631.78,306.73,631.33,306.62z"/>
<path fill="#e6e6e6" d="m206.8 163.6c0-5.1 4.1-9.2 9.3-9.2s9.2 4.2 9.2 9.2-4.1 9.2-9.3 9.2-9.2-4.1-9.2-9.2zm17.3-.1c0-4.5-3.5-8.2-8.2-8.2s-8.2 3.7-8.2 8.3c0 4.5 3.5 8.2 8.2 8.2s8.2-3.7 8.2-8.3zm-13 0c0-2.8 2.1-5.1 5.1-5.1 1.9 0 2.9.6 3.9 1.5l-1.4 1.7c-.8-.7-1.5-1.1-2.5-1.1-1.7 0-2.8 1.4-2.8 3.1s1.1 3 2.8 3c1.1 0 1.7-.5 2.5-1.1l1.4 1.4c-1.1 1.1-2.1 1.7-4 1.7-2.9 0-5-2.3-5-5.1z"/><path fill="#e6e6e6" d="m226.6 154.7h3.4l4.2 13.2 4.4-13.3h2.6l4.4 13.3 4.2-13.2h3.3l-6.2 18h-2.7l-4.4-12.8-4.4 12.8h-2.7z"/><path fill="#e6e6e6" d="m252.8 165.8c0-3.9 3.1-7 7.2-7 4.2 0 7.2 3.2 7.2 7s-3.1 7-7.3 7c-4 0-7.1-3.1-7.1-7zm11.3 0c0-2.3-1.7-4.3-4.2-4.3s-4.1 2-4.1 4.3 1.7 4.3 4.1 4.3c2.7.1 4.2-1.9 4.2-4.3z"/><path fill="#e6e6e6" d="m269.5 159.1h3.1v3c.8-2 2.4-3.4 4.8-3.3v3.2h-.2c-2.7 0-4.6 1.7-4.6 5.4v5.1h-3.1z"/><path fill="#e6e6e6" d="m279.1 153.9h3.1v11.1l5.6-6h3.8l-5.4 5.5 5.5 8h-3.5l-4.1-5.8-1.9 2v3.9h-3.1z"/><path fill="#e6e6e6" d="m291.7 165.8c0-3.9 3.1-7 7.2-7 4.2 0 7.2 3.2 7.2 7s-3.1 7-7.3 7c-4 0-7.1-3.1-7.1-7zm11.3 0c0-2.3-1.7-4.3-4.2-4.3s-4.1 2-4.1 4.3 1.7 4.3 4.1 4.3c2.6.1 4.2-1.9 4.2-4.3z"/><path fill="#e6e6e6" d="m308.2 167.6v-8.6h3.1v7.6c0 2.1 1.1 3.3 2.9 3.3s3-1.3 3-3.3v-7.6h3.1v13.4h-3.1v-2.1c-.8 1.3-2.1 2.3-4.2 2.3-3.1.2-4.8-1.8-4.8-5z"/><path fill="#e6e6e6" d="m323.9 168.8v-7.1h-1.7v-2.6h1.7v-3.7h3.1v3.7h3.6v2.6h-3.6v6.6c0 1.2.6 1.7 1.7 1.7.7 0 1.3-.2 1.9-.5v2.5c-.8.5-1.7.7-2.8.7-2.3 0-3.9-.9-3.9-3.9z"/><path fill="#e6e6e6" d="m333.2 154.7h3.2v15h9.4v2.9h-12.5v-17.9z"/><path fill="#e6e6e6" d="m356 172.5v-1.7c-.9 1.1-2.3 2-4.4 2-2.6 0-4.8-1.4-4.8-4.2 0-3 2.3-4.4 5.4-4.4 1.7 0 2.6.2 3.7.5v-.2c0-1.9-1.2-2.9-3.3-2.9-1.5 0-2.6.3-3.9.8l-.8-2.5c1.5-.7 2.9-1.1 5.1-1.1 4 0 5.9 2.1 5.9 5.7v8zm.1-5.6c-.8-.3-1.9-.5-3.1-.5-2 0-3.1.8-3.1 2.1s1.1 2 2.6 2c2 0 3.5-1.1 3.5-2.9z"/><path fill="#e6e6e6" d="m364.9 170.5v2.1h-3.1v-18.7h3.1v7.4c1-1.4 2.4-2.5 4.5-2.5 3.2 0 6.3 2.5 6.3 7s-3.1 7-6.3 7c-2.1 0-3.5-1.1-4.5-2.3zm7.7-4.7c0-2.6-1.7-4.3-3.9-4.3s-3.9 1.7-3.9 4.4c0 2.6 1.8 4.3 3.9 4.3s3.9-1.7 3.9-4.4z"/><path fill="#e6e6e6" d="m376.9 170.8 1.4-2.1c1.4 1.1 3 1.7 4.4 1.7s2.1-.5 2.1-1.5-1.3-1.4-2.8-1.8c-.1 0-.2-.1-.2-.1-2-.6-4.2-1.4-4.2-4s2.1-4.1 4.8-4.1c1.7 0 3.5.6 5 1.5l-1.2 2.2c-1.3-.8-2.6-1.3-3.8-1.3s-1.9.5-1.9 1.4 1.3 1.4 2.8 1.8c.1 0 .2.1.2.1 2 .6 4.2 1.5 4.2 4 0 2.9-2.2 4.2-5 4.2-1.9 0-4-.7-5.8-2z"/><path fill="#e6e6e6" d="m505.6 163.6c0-5.1 4.1-9.2 9.3-9.2s9.2 4.2 9.2 9.2-4.1 9.2-9.3 9.2-9.2-4.1-9.2-9.2zm17.4-.1c0-4.5-3.5-8.2-8.2-8.2s-8.2 3.7-8.2 8.3c0 4.5 3.5 8.2 8.2 8.2s8.2-3.7 8.2-8.3zm-13.1 0c0-2.8 2.1-5.1 5.1-5.1 1.9 0 2.9.6 3.9 1.5l-1.4 1.7c-.8-.7-1.5-1.1-2.5-1.1-1.7 0-2.8 1.4-2.8 3.1s1.1 3 2.8 3c1.1 0 1.7-.5 2.5-1.1l1.4 1.4c-1.1 1.1-2.1 1.7-4 1.7-2.9 0-5-2.3-5-5.1z"/><path fill="#e6e6e6" d="m525.4 154.7h3.4l4.2 13.2 4.4-13.3h2.6l4.4 13.3 4.2-13.2h3.3l-6.2 18h-2.7l-4.4-12.8-4.4 12.8h-2.7z"/><path fill="#e6e6e6" d="m551.7 165.8c0-3.9 3.1-7 7.2-7 4.2 0 7.2 3.2 7.2 7s-3.1 7-7.3 7c-4.1 0-7.1-3.1-7.1-7zm11.2 0c0-2.3-1.7-4.3-4.2-4.3s-4.1 2-4.1 4.3 1.7 4.3 4.1 4.3c2.7.1 4.2-1.9 4.2-4.3z"/><path fill="#e6e6e6" d="m568.3 159.1h3.1v3c.8-2 2.4-3.4 4.8-3.3v3.2h-.2c-2.7 0-4.6 1.7-4.6 5.4v5.1h-3.1z"/><path fill="#e6e6e6" d="m577.9 153.9h3.1v11.1l5.6-6h3.8l-5.4 5.5 5.5 8h-3.5l-4.1-5.8-1.9 2v3.9h-3.1z"/><path fill="#e6e6e6" d="m590.6 165.8c0-3.9 3.1-7 7.2-7 4.2 0 7.2 3.2 7.2 7s-3.1 7-7.3 7c-4.1 0-7.1-3.1-7.1-7zm11.2 0c0-2.3-1.7-4.3-4.2-4.3s-4.1 2-4.1 4.3 1.7 4.3 4.1 4.3c2.6.1 4.2-1.9 4.2-4.3z"/><path fill="#e6e6e6" d="m607 167.6v-8.6h3.1v7.6c0 2.1 1.1 3.3 2.9 3.3s3-1.3 3-3.3v-7.6h3.1v13.4h-3.1v-2.1c-.8 1.3-2.1 2.3-4.2 2.3-3 .2-4.8-1.8-4.8-5z"/><path fill="#e6e6e6" d="m622.7 168.8v-7.1h-1.7v-2.6h1.7v-3.7h3.1v3.7h3.6v2.6h-3.6v6.6c0 1.2.6 1.7 1.7 1.7.7 0 1.3-.2 1.9-.5v2.5c-.8.5-1.7.7-2.8.7-2.3 0-3.9-.9-3.9-3.9z"/><path fill="#e6e6e6" d="m632 154.7h3.2v15h9.4v2.9h-12.6z"/><path fill="#e6e6e6" d="m654.8 172.5v-1.7c-.9 1.1-2.3 2-4.4 2-2.6 0-4.8-1.4-4.8-4.2 0-3 2.3-4.4 5.4-4.4 1.7 0 2.6.2 3.7.5v-.2c0-1.9-1.2-2.9-3.3-2.9-1.5 0-2.6.3-3.9.8l-.8-2.5c1.5-.7 2.9-1.1 5.1-1.1 4 0 5.9 2.1 5.9 5.7v8zm.1-5.6c-.8-.3-1.9-.5-3.1-.5-2 0-3.1.8-3.1 2.1s1.1 2 2.6 2c2 0 3.5-1.1 3.5-2.9z"/><path fill="#e6e6e6" d="m663.7 170.5v2.1h-3.1v-18.7h3.1v7.4c1-1.4 2.4-2.5 4.5-2.5 3.2 0 6.3 2.5 6.3 7s-3.1 7-6.3 7c-2.1 0-3.5-1.1-4.5-2.3zm7.8-4.7c0-2.6-1.7-4.3-3.9-4.3-2.1 0-3.9 1.7-3.9 4.4 0 2.6 1.8 4.3 3.9 4.3s3.9-1.7 3.9-4.4z"/><path fill="#e6e6e6" d="m675.8 170.8 1.4-2.1c1.4 1.1 3 1.7 4.4 1.7s2.1-.5 2.1-1.5-1.3-1.4-2.8-1.8c-.1 0-.2-.1-.2-.1-2-.6-4.2-1.4-4.2-4s2.1-4.1 4.8-4.1c1.7 0 3.5.6 5 1.5l-1.2 2.2c-1.3-.8-2.6-1.3-3.8-1.3s-1.9.5-1.9 1.4 1.3 1.4 2.8 1.8c.1 0 .2.1.2.1 2 .6 4.2 1.5 4.2 4 0 2.9-2.2 4.2-5 4.2-2 0-4.1-.7-5.8-2z"/><path fill="#e6e6e6" d="m61 298.6c0-5.1 4.1-9.2 9.3-9.2s9.2 4.2 9.2 9.2-4.1 9.2-9.3 9.2c-5.1 0-9.2-4.2-9.2-9.2zm17.4-.1c0-4.5-3.5-8.2-8.2-8.2s-8.2 3.7-8.2 8.3c0 4.5 3.5 8.2 8.2 8.2s8.2-3.7 8.2-8.3zm-13.1-.1c0-2.8 2.1-5.1 5.1-5.1 1.9 0 2.9.6 3.9 1.5l-1.4 1.7c-.8-.7-1.5-1.1-2.5-1.1-1.7 0-2.8 1.4-2.8 3.1s1.1 3 2.8 3c1.1 0 1.7-.5 2.5-1.1l1.4 1.4c-1.1 1.1-2.1 1.7-4 1.7-2.8.1-5-2.2-5-5.1z"/><path fill="#e6e6e6" d="m80.9 289.7h3.4l4.2 13.2 4.4-13.3h2.6l4.4 13.3 4.2-13.2h3.3l-6.2 18h-2.7l-4.4-12.8-4.4 12.8h-2.7z"/><path fill="#e6e6e6" d="m107.1 300.8c0-3.9 3.1-7 7.2-7s7.2 3.2 7.2 7-3.1 7-7.3 7c-4 0-7.1-3.1-7.1-7zm11.3 0c0-2.3-1.7-4.3-4.2-4.3s-4.1 2-4.1 4.3 1.7 4.3 4.1 4.3c2.6.1 4.2-1.9 4.2-4.3z"/><path fill="#e6e6e6" d="m123.7 294h3.1v3c.8-2 2.4-3.4 4.8-3.3v3.2h-.2c-2.7 0-4.6 1.7-4.6 5.4v5.1h-3.1z"/><path fill="#e6e6e6" d="m133.4 288.9h3.1v11.1l5.6-6h3.8l-5.4 5.5 5.5 8h-3.5l-4.1-5.8-1.9 1.9v3.9h-3.1z"/><path fill="#e6e6e6" d="m146 300.8c0-3.9 3.1-7 7.2-7s7.2 3.2 7.2 7-3.1 7-7.3 7c-4.1 0-7.1-3.1-7.1-7zm11.2 0c0-2.3-1.7-4.3-4.2-4.3s-4.1 2-4.1 4.3 1.7 4.3 4.1 4.3c2.6.1 4.2-1.9 4.2-4.3z"/><path fill="#e6e6e6" d="m162.4 302.6v-8.6h3.1v7.6c0 2.1 1.1 3.3 2.9 3.3s3-1.3 3-3.3v-7.6h3.1v13.4h-3.1v-2.1c-.8 1.3-2.1 2.3-4.2 2.3-3 .2-4.8-1.8-4.8-5z"/><path fill="#e6e6e6" d="m178.1 303.8v-7.1h-1.7v-2.7h1.7v-3.7h3.1v3.7h3.6v2.6h-3.6v6.6c0 1.2.6 1.7 1.7 1.7.7 0 1.3-.2 1.9-.5v2.5c-.8.5-1.7.7-2.8.7-2.3.1-3.9-.9-3.9-3.8z"/><path fill="#e6e6e6" d="m187.4 289.7h3.2v15h9.4v2.9h-12.5v-17.9z"/><path fill="#e6e6e6" d="m210.2 307.5v-1.7c-.9 1.1-2.3 2-4.4 2-2.6 0-4.8-1.4-4.8-4.2 0-3 2.3-4.4 5.4-4.4 1.7 0 2.6.2 3.7.5v-.2c0-1.9-1.2-2.9-3.3-2.9-1.5 0-2.6.3-3.9.8l-.8-2.5c1.5-.7 2.9-1.1 5.1-1.1 4 0 5.9 2.1 5.9 5.7v8zm.1-5.6c-.8-.3-1.9-.5-3.1-.5-2 0-3.1.8-3.1 2.1s1.1 2 2.6 2c2 0 3.5-1.1 3.5-2.9z"/><path fill="#e6e6e6" d="m219.2 305.5v2.1h-3.1v-18.7h3.1v7.4c1-1.4 2.4-2.5 4.5-2.5 3.2 0 6.3 2.5 6.3 7s-3.1 7-6.3 7c-2.2 0-3.6-1.1-4.5-2.3zm7.7-4.7c0-2.6-1.7-4.3-3.9-4.3s-3.9 1.7-3.9 4.4c0 2.6 1.8 4.3 3.9 4.3s3.9-1.7 3.9-4.4z"/><path fill="#e6e6e6" d="m231.2 305.8 1.4-2.1c1.4 1.1 3 1.7 4.4 1.7s2.1-.5 2.1-1.5-1.3-1.4-2.8-1.8c-.1 0-.2-.1-.2-.1-2-.6-4.2-1.4-4.2-4s2.1-4.1 4.8-4.1c1.7 0 3.5.6 5 1.5l-1.2 2.2c-1.3-.8-2.6-1.3-3.8-1.3s-1.9.5-1.9 1.4 1.3 1.4 2.8 1.8c.1 0 .2.1.2.1 2 .6 4.2 1.5 4.2 4 0 2.9-2.2 4.2-5 4.2-2 0-4.1-.7-5.8-2z"/><path fill="#e6e6e6" d="m360.6 298.6c0-5.1 4.1-9.2 9.3-9.2s9.2 4.2 9.2 9.2-4.1 9.2-9.3 9.2-9.2-4.2-9.2-9.2zm17.4-.1c0-4.5-3.5-8.2-8.2-8.2s-8.2 3.7-8.2 8.3c0 4.5 3.5 8.2 8.2 8.2s8.2-3.7 8.2-8.3zm-13.1-.1c0-2.8 2.1-5.1 5.1-5.1 1.9 0 2.9.6 3.9 1.5l-1.4 1.7c-.8-.7-1.5-1.1-2.5-1.1-1.7 0-2.8 1.4-2.8 3.1s1.1 3 2.8 3c1.1 0 1.7-.5 2.5-1.1l1.4 1.4c-1.1 1.1-2.1 1.7-4 1.7-2.8.1-5-2.2-5-5.1z"/><path fill="#e6e6e6" d="m380.5 289.7h3.4l4.2 13.2 4.4-13.3h2.6l4.4 13.3 4.2-13.2h3.3l-6.2 18h-2.7l-4.4-12.8-4.4 12.8h-2.7z"/><path fill="#e6e6e6" d="m406.7 300.8c0-3.9 3.1-7 7.2-7 4.2 0 7.2 3.2 7.2 7s-3.1 7-7.3 7c-4.1 0-7.1-3.1-7.1-7zm11.3 0c0-2.3-1.7-4.3-4.2-4.3s-4.1 2-4.1 4.3 1.7 4.3 4.1 4.3c2.7.1 4.2-1.9 4.2-4.3z"/><path fill="#e6e6e6" d="m423.3 294h3.1v3c.8-2 2.4-3.4 4.8-3.3v3.2h-.2c-2.7 0-4.6 1.7-4.6 5.4v5.1h-3.1z"/><path fill="#e6e6e6" d="m433 288.9h3.1v11.1l5.6-6h3.8l-5.4 5.5 5.5 8h-3.5l-4.1-5.8-1.9 2v3.9h-3.1z"/><path fill="#e6e6e6" d="m445.6 300.8c0-3.9 3.1-7 7.2-7 4.2 0 7.2 3.2 7.2 7s-3.1 7-7.3 7c-4.1 0-7.1-3.1-7.1-7zm11.3 0c0-2.3-1.7-4.3-4.2-4.3s-4.1 2-4.1 4.3 1.7 4.3 4.1 4.3c2.6.1 4.2-1.9 4.2-4.3z"/><path fill="#e6e6e6" d="m462.1 302.6v-8.6h3.1v7.6c0 2.1 1.1 3.3 2.9 3.3s3-1.3 3-3.3v-7.6h3.1v13.4h-3.1v-2.1c-.8 1.3-2.1 2.3-4.2 2.3-3.1.2-4.8-1.8-4.8-5z"/><path fill="#e6e6e6" d="m477.8 303.8v-7.1h-1.8v-2.7h1.7v-3.7h3.1v3.7h3.6v2.6h-3.6v6.6c0 1.2.6 1.7 1.7 1.7.7 0 1.3-.2 1.9-.5v2.5c-.8.5-1.7.7-2.8.7-2.2.1-3.8-.9-3.8-3.8z"/><path fill="#e6e6e6" d="m487.1 289.7h3.2v15h9.4v2.9h-12.5v-17.9z"/><path fill="#e6e6e6" d="m509.9 307.5v-1.7c-.9 1.1-2.3 2-4.4 2-2.6 0-4.8-1.4-4.8-4.2 0-3 2.3-4.4 5.4-4.4 1.7 0 2.6.2 3.7.5v-.2c0-1.9-1.2-2.9-3.3-2.9-1.5 0-2.6.3-3.9.8l-.8-2.5c1.5-.7 2.9-1.1 5.1-1.1 4 0 5.9 2.1 5.9 5.7v8zm.1-5.6c-.8-.3-1.9-.5-3.1-.5-2 0-3.1.8-3.1 2.1s1.1 2 2.6 2c2 0 3.5-1.1 3.5-2.9z"/><path fill="#e6e6e6" d="m518.8 305.5v2.1h-3.1v-18.7h3.1v7.4c1-1.4 2.4-2.5 4.5-2.5 3.2 0 6.3 2.5 6.3 7s-3.1 7-6.3 7c-2.2 0-3.5-1.1-4.5-2.3zm7.7-4.7c0-2.6-1.7-4.3-3.9-4.3s-3.9 1.7-3.9 4.4c0 2.6 1.8 4.3 3.9 4.3s3.9-1.7 3.9-4.4z"/><path fill="#e6e6e6" d="m530.8 305.8 1.4-2.1c1.4 1.1 3 1.7 4.4 1.7s2.1-.5 2.1-1.5-1.3-1.4-2.8-1.8c-.1 0-.2-.1-.2-.1-2-.6-4.2-1.4-4.2-4s2.1-4.1 4.8-4.1c1.7 0 3.5.6 5 1.5l-1.2 2.2c-1.3-.8-2.6-1.3-3.8-1.3s-1.9.5-1.9 1.4 1.3 1.4 2.8 1.8c.1 0 .2.1.2.1 2 .6 4.2 1.5 4.2 4 0 2.9-2.2 4.2-5 4.2-1.9 0-4.1-.7-5.8-2z"/><path fill="#e6e6e6" d="m659.5 298.6c0-5.1 4.1-9.2 9.3-9.2s9.2 4.2 9.2 9.2-4.1 9.2-9.3 9.2-9.2-4.2-9.2-9.2zm17.3-.1c0-4.5-3.5-8.2-8.2-8.2s-8.2 3.7-8.2 8.3c0 4.5 3.5 8.2 8.2 8.2 4.8 0 8.2-3.7 8.2-8.3zm-13-.1c0-2.8 2.1-5.1 5.1-5.1 1.9 0 2.9.6 3.9 1.5l-1.4 1.7c-.8-.7-1.5-1.1-2.5-1.1-1.7 0-2.8 1.4-2.8 3.1s1.1 3 2.8 3c1.1 0 1.7-.5 2.5-1.1l1.4 1.4c-1.1 1.1-2.1 1.7-4 1.7-2.9.1-5-2.2-5-5.1z"/><path fill="#e6e6e6" d="m679.3 289.7h3.4l4.2 13.2 4.4-13.3h2.6l4.4 13.3 4.2-13.2h3.3l-6.2 18h-2.6l-4.4-12.8-4.4 12.8h-2.7z"/><path fill="#e6e6e6" d="m705.5 300.8c0-3.9 3.1-7 7.2-7 4.2 0 7.2 3.2 7.2 7s-3.1 7-7.3 7c-4 0-7.1-3.1-7.1-7zm11.3 0c0-2.3-1.7-4.3-4.2-4.3s-4.1 2-4.1 4.3 1.7 4.3 4.1 4.3c2.7.1 4.2-1.9 4.2-4.3z"/><path fill="#e6e6e6" d="m722.1 294h3.1v3c.8-2 2.4-3.4 4.8-3.3v3.2h-.2c-2.7 0-4.6 1.7-4.6 5.4v5.1h-3.1z"/><path fill="#e6e6e6" d="m731.8 288.9h3.1v11.1l5.6-6h3.8l-5.4 5.5 5.5 8h-3.5l-4.1-5.8-1.9 2v3.9h-3.1z"/><path fill="#e6e6e6" d="m744.4 300.8c0-3.9 3.1-7 7.2-7 4.2 0 7.2 3.2 7.2 7s-3.1 7-7.3 7c-4.1 0-7.1-3.1-7.1-7zm11.3 0c0-2.3-1.7-4.3-4.2-4.3s-4.1 2-4.1 4.3 1.7 4.3 4.1 4.3c2.6.1 4.2-1.9 4.2-4.3z"/><path fill="#e6e6e6" d="m760.9 302.6v-8.6h3.1v7.6c0 2.1 1.1 3.3 2.9 3.3s3-1.3 3-3.3v-7.6h3.1v13.4h-3.1v-2.1c-.8 1.3-2.1 2.3-4.2 2.3-3.1.2-4.8-1.8-4.8-5z"/><path fill="#e6e6e6" d="m776.6 303.8v-7.1h-1.7v-2.7h1.7v-3.7h3.1v3.7h3.6v2.6h-3.6v6.6c0 1.2.6 1.7 1.7 1.7.7 0 1.3-.2 1.9-.5v2.5c-.8.5-1.7.7-2.8.7-2.3.1-3.9-.9-3.9-3.8z"/><path fill="#e6e6e6" d="m785.9 289.7h3.2v15h9.4v2.9h-12.5v-17.9z"/><path fill="#e6e6e6" d="m808.7 307.5v-1.7c-.9 1.1-2.3 2-4.4 2-2.6 0-4.8-1.4-4.8-4.2 0-3 2.3-4.4 5.4-4.4 1.7 0 2.6.2 3.7.5v-.2c0-1.9-1.2-2.9-3.3-2.9-1.5 0-2.6.3-3.9.8l-.8-2.5c1.5-.7 2.9-1.1 5.1-1.1 4 0 5.9 2.1 5.9 5.7v8zm.1-5.6c-.8-.3-1.9-.5-3.1-.5-2 0-3.1.8-3.1 2.1s1.1 2 2.6 2c2 0 3.5-1.1 3.5-2.9z"/><path fill="#e6e6e6" d="m817.6 305.5v2.1h-3.1v-18.7h3.1v7.4c1-1.4 2.4-2.5 4.5-2.5 3.2 0 6.3 2.5 6.3 7s-3.1 7-6.3 7c-2.1 0-3.5-1.1-4.5-2.3zm7.7-4.7c0-2.6-1.7-4.3-3.9-4.3-2.1 0-3.9 1.7-3.9 4.4 0 2.6 1.8 4.3 3.9 4.3 2.2 0 3.9-1.7 3.9-4.4z"/><path fill="#e6e6e6" d="m829.6 305.8 1.4-2.1c1.4 1.1 3 1.7 4.4 1.7s2.1-.5 2.1-1.5-1.3-1.4-2.8-1.8c-.1 0-.2-.1-.2-.1-2-.6-4.2-1.4-4.2-4s2.1-4.1 4.8-4.1c1.7 0 3.5.6 5 1.5l-1.2 2.2c-1.3-.8-2.6-1.3-3.8-1.3s-1.9.5-1.9 1.4 1.3 1.4 2.8 1.8c.1 0 .2.1.2.1 2 .6 4.2 1.5 4.2 4 0 2.9-2.2 4.2-5 4.2-1.9 0-4-.7-5.8-2z"/><path fill="#e6e6e6" d="m206.3 434.2c0-5.1 4.1-9.2 9.3-9.2s9.2 4.2 9.2 9.2-4.1 9.2-9.3 9.2-9.2-4.1-9.2-9.2zm17.4-.1c0-4.5-3.5-8.2-8.2-8.2s-8.2 3.7-8.2 8.3c0 4.5 3.5 8.2 8.2 8.2s8.2-3.7 8.2-8.3zm-13.1-.1c0-2.8 2.1-5.1 5.1-5.1 1.9 0 2.9.6 3.9 1.5l-1.4 1.7c-.8-.7-1.5-1.1-2.5-1.1-1.7 0-2.8 1.4-2.8 3.1s1.1 3 2.8 3c1.1 0 1.7-.5 2.5-1.1l1.4 1.4c-1.1 1.1-2.1 1.7-4 1.7-2.9.1-5-2.2-5-5.1z"/><path fill="#e6e6e6" d="m226.1 425.3h3.4l4.2 13.2 4.4-13.3h2.6l4.4 13.3 4.2-13.2h3.3l-6.2 18h-2.7l-4.4-12.8-4.4 12.8h-2.7z"/><path fill="#e6e6e6" d="m252.4 436.4c0-3.9 3.1-7 7.2-7 4.2 0 7.2 3.2 7.2 7s-3.1 7-7.3 7c-4.1 0-7.1-3.1-7.1-7zm11.2 0c0-2.3-1.7-4.3-4.2-4.3s-4.1 2-4.1 4.3 1.7 4.3 4.1 4.3c2.7.1 4.2-1.9 4.2-4.3z"/><path fill="#e6e6e6" d="m269 429.7h3.1v3c.8-2 2.4-3.4 4.8-3.3v3.2h-.2c-2.7 0-4.6 1.7-4.6 5.4v5.1h-3.1z"/><path fill="#e6e6e6" d="m278.6 424.5h3.1v11.1l5.6-6h3.8l-5.4 5.5 5.5 8h-3.5l-4.1-5.8-1.9 2v3.9h-3.1z"/><path fill="#e6e6e6" d="m291.3 436.4c0-3.9 3.1-7 7.2-7 4.2 0 7.2 3.2 7.2 7s-3.1 7-7.3 7c-4.1 0-7.1-3.1-7.1-7zm11.2 0c0-2.3-1.7-4.3-4.2-4.3s-4.1 2-4.1 4.3 1.7 4.3 4.1 4.3c2.6.1 4.2-1.9 4.2-4.3z"/><path fill="#e6e6e6" d="m307.7 438.2v-8.6h3.1v7.6c0 2.1 1.1 3.3 2.9 3.3s3-1.3 3-3.3v-7.6h3.1v13.4h-3.1v-2.1c-.8 1.3-2.1 2.3-4.2 2.3-3 .2-4.8-1.8-4.8-5z"/><path fill="#e6e6e6" d="m323.4 439.4v-7.1h-1.7v-2.6h1.7v-3.7h3.1v3.7h3.6v2.6h-3.6v6.6c0 1.2.6 1.7 1.7 1.7.7 0 1.3-.2 1.9-.5v2.5c-.8.5-1.7.7-2.8.7-2.3 0-3.9-.9-3.9-3.9z"/><path fill="#e6e6e6" d="m332.7 425.3h3.2v15h9.4v2.9h-12.5v-17.9z"/><path fill="#e6e6e6" d="m355.5 443.1v-1.7c-.9 1.1-2.3 2-4.4 2-2.6 0-4.8-1.4-4.8-4.2 0-3 2.3-4.4 5.4-4.4 1.7 0 2.6.2 3.7.5v-.2c0-1.9-1.2-2.9-3.3-2.9-1.5 0-2.6.3-3.9.8l-.8-2.5c1.5-.7 2.9-1.1 5.1-1.1 4 0 5.9 2.1 5.9 5.7v8zm.1-5.6c-.8-.3-1.9-.5-3.1-.5-2 0-3.1.8-3.1 2.1s1.1 2 2.6 2c2 0 3.5-1.1 3.5-2.9z"/><path fill="#e6e6e6" d="m364.4 441.1v2.1h-3.1v-18.7h3.1v7.4c1-1.4 2.4-2.5 4.5-2.5 3.2 0 6.3 2.5 6.3 7s-3.1 7-6.3 7c-2.1 0-3.5-1.1-4.5-2.3zm7.7-4.7c0-2.6-1.7-4.3-3.9-4.3-2.1 0-3.9 1.7-3.9 4.4 0 2.6 1.8 4.3 3.9 4.3 2.2 0 3.9-1.7 3.9-4.4z"/><path fill="#e6e6e6" d="m376.5 441.4 1.4-2.1c1.4 1.1 3 1.7 4.4 1.7s2.1-.5 2.1-1.5-1.3-1.4-2.8-1.8c-.1 0-.2-.1-.2-.1-2-.6-4.2-1.4-4.2-4s2.1-4.1 4.8-4.1c1.7 0 3.5.6 5 1.5l-1.2 2.2c-1.3-.8-2.6-1.3-3.8-1.3s-1.9.5-1.9 1.4 1.3 1.4 2.8 1.8c.1 0 .2.1.2.1 2 .6 4.2 1.5 4.2 4 0 2.9-2.2 4.2-5 4.2-2 0-4.1-.7-5.8-2z"/><path fill="#e6e6e6" d="m505.1 434.2c0-5.1 4.1-9.2 9.3-9.2s9.2 4.2 9.2 9.2-4.1 9.2-9.3 9.2-9.2-4.1-9.2-9.2zm17.4-.1c0-4.5-3.5-8.2-8.2-8.2s-8.2 3.7-8.2 8.3c0 4.5 3.5 8.2 8.2 8.2s8.2-3.7 8.2-8.3zm-13.1-.1c0-2.8 2.1-5.1 5.1-5.1 1.9 0 2.9.6 3.9 1.5l-1.4 1.7c-.8-.7-1.5-1.1-2.5-1.1-1.7 0-2.8 1.4-2.8 3.1s1.1 3 2.8 3c1.1 0 1.7-.5 2.5-1.1l1.4 1.4c-1.1 1.1-2.1 1.7-4 1.7-2.9.1-5-2.2-5-5.1z"/><path fill="#e6e6e6" d="m525 425.3h3.4l4.2 13.2 4.4-13.3h2.6l4.4 13.3 4.2-13.2h3.3l-6.2 18h-2.7l-4.4-12.8-4.4 12.8h-2.7z"/><path fill="#e6e6e6" d="m551.2 436.4c0-3.9 3.1-7 7.2-7 4.2 0 7.2 3.2 7.2 7s-3.1 7-7.3 7c-4.1 0-7.1-3.1-7.1-7zm11.2 0c0-2.3-1.7-4.3-4.2-4.3s-4.1 2-4.1 4.3 1.7 4.3 4.1 4.3c2.7.1 4.2-1.9 4.2-4.3z"/><path fill="#e6e6e6" d="m567.8 429.7h3.1v3c.8-2 2.4-3.4 4.8-3.3v3.2h-.2c-2.7 0-4.6 1.7-4.6 5.4v5.1h-3.1z"/><path fill="#e6e6e6" d="m577.5 424.5h3.1v11.1l5.6-6h3.8l-5.4 5.5 5.5 8h-3.5l-4.1-5.8-1.9 2v3.9h-3.1z"/><path fill="#e6e6e6" d="m590.1 436.4c0-3.9 3.1-7 7.2-7 4.2 0 7.2 3.2 7.2 7s-3.1 7-7.3 7c-4.1 0-7.1-3.1-7.1-7zm11.2 0c0-2.3-1.7-4.3-4.2-4.3s-4.1 2-4.1 4.3 1.7 4.3 4.1 4.3c2.6.1 4.2-1.9 4.2-4.3z"/><path fill="#e6e6e6" d="m606.5 438.2v-8.6h3.1v7.6c0 2.1 1.1 3.3 2.9 3.3s3-1.3 3-3.3v-7.6h3.1v13.4h-3.1v-2.1c-.8 1.3-2.1 2.3-4.2 2.3-3 .2-4.8-1.8-4.8-5z"/><path fill="#e6e6e6" d="m622.2 439.4v-7.1h-1.7v-2.6h1.7v-3.7h3.1v3.7h3.6v2.6h-3.6v6.6c0 1.2.6 1.7 1.7 1.7.7 0 1.3-.2 1.9-.5v2.5c-.8.5-1.7.7-2.8.7-2.3 0-3.9-.9-3.9-3.9z"/><path fill="#e6e6e6" d="m631.5 425.3h3.2v15h9.4v2.9h-12.5v-17.9z"/><path fill="#e6e6e6" d="m654.3 443.1v-1.7c-.9 1.1-2.3 2-4.4 2-2.6 0-4.8-1.4-4.8-4.2 0-3 2.3-4.4 5.4-4.4 1.7 0 2.6.2 3.7.5v-.2c0-1.9-1.2-2.9-3.3-2.9-1.5 0-2.6.3-3.9.8l-.8-2.5c1.5-.7 2.9-1.1 5.1-1.1 4 0 5.9 2.1 5.9 5.7v8zm.1-5.6c-.8-.3-1.9-.5-3.1-.5-2 0-3.1.8-3.1 2.1s1.1 2 2.6 2c2 0 3.5-1.1 3.5-2.9z"/><path fill="#e6e6e6" d="m663.3 441.1v2.1h-3.1v-18.7h3.1v7.4c1-1.4 2.4-2.5 4.5-2.5 3.2 0 6.3 2.5 6.3 7s-3.1 7-6.3 7c-2.2 0-3.6-1.1-4.5-2.3zm7.7-4.7c0-2.6-1.7-4.3-3.9-4.3s-3.9 1.7-3.9 4.4c0 2.6 1.8 4.3 3.9 4.3s3.9-1.7 3.9-4.4z"/><path fill="#e6e6e6" d="m675.3 441.4 1.4-2.1c1.4 1.1 3 1.7 4.4 1.7s2.1-.5 2.1-1.5-1.3-1.4-2.8-1.8c-.1 0-.2-.1-.2-.1-2-.6-4.2-1.4-4.2-4s2.1-4.1 4.8-4.1c1.7 0 3.5.6 5 1.5l-1.2 2.2c-1.3-.8-2.6-1.3-3.8-1.3s-1.9.5-1.9 1.4 1.3 1.4 2.8 1.8c.1 0 .2.1.2.1 2 .6 4.2 1.5 4.2 4 0 2.9-2.2 4.2-5 4.2-2 0-4.1-.7-5.8-2z"/></g>
</svg>
