<?xml version="1.0" encoding="utf-8"?>
<!-- Generator: Adobe Illustrator 23.0.1, SVG Export Plug-In . SVG Version: 6.00 Build 0)  -->
<svg version="1.2" baseProfile="tiny" id="Layer_1" xmlns="http://www.w3.org/2000/svg" xmlns:xlink="http://www.w3.org/1999/xlink"
	 x="0px" y="0px" viewBox="0 0 900 600" xml:space="preserve">
<g>
	<path d="M325.14,339.46l-0.1-0.1C325.11,339.31,325.1,339.26,325.14,339.46z"/>
	<path d="M145.83,502.24c5.57-15.14,7.8-14.28,7.04-14.28c1.19-3.82,1.82-1.17,26.31-2.55c26.12-1.48,24.04,1.45,40.39,0.31
		c4.32-6.48,8.5-9.27,17.14-25.91c2.71-5.21,0.11-16.44,4.39-26.11c2.03-4.59,4.79-8.77,5.92-13.87c-1.94-2.45-3.17-5.71-2.65-8.57
		c1.45-7.92-2.91-16.78,2.14-29.78c4.77-12.28,14.3-8.08,22.34-10.91c6.8-2.4,11.57,1.54,16.93,5.92
		c-1.94-7.22-7.51-10.62-6.73-14.89c2.24,4.39,5.41,7.14,8.87,8.98c1.33,0.41,0.61-1.12,1.33-0.82c5,5.3,5.2,12.44,7.96,18.66
		c-6.62,0.66-0.59-13.12-12.65-18.56c2.55,3.98,2.96,8.36,6.94,11.42c-1.02,0-1.43,0-2.04,0c1.65,5.57,2.5,0.43,3.06,17.24
		c3.57,0,7.14-1.53,11.22,0.41c-4.59,1.43-8.77,1.22-12.65,2.04c-2.45,2.35-4.28,4.79-3.98,8.36c1.46,0.59,5.95-1.27,9.59,0
		c-3.67,1.84-7.34,1.22-10.4,2.96c-0.41,2.55-2.04,4.79-2.24,7.55c11.02-0.51,21.72-2.14,32.03-0.51c2.75-5.2-0.1-9.79-0.61-14.48
		c-2.75-2.96-6.63-4.28-10-6.43c0.61-1.02,1.02-0.92,1.53-0.82c22.04,6.15,4.83,23.36,19.38,34.07c6.86,4.41,5.16,5.73,7.24,6.32
		c5.37,1.54,10.85,2.2,20.7-6.02c0.71-2.75,1.73-5.51,1.63-8.36c-8.16-3.77-16.32-6.53-24.99-7.85c8.16-1.53,15.71,0.1,23.05,3.26
		c0.71-0.41,0.71-1.73,1.94-1.12c2.55,2.65,3.52,4.92,2.65,7.04c-1.65,4.03-2.08,15.9-3.98,20.81c-2.89,7.46-1.21,18.51,0.82,26.21
		c5.47,20.82,2.62,23.83,7.24,42.33c0.1,0.82,0.09,1.73-0.1,2.55c-1.7,7.12-0.61,14.28-0.71,20.81c3.88,3.77,8.67,1.63,12.65,3.47
		c0.1-1.94-0.82-3.98-0.2-5.92c2.04-1.94,5-1.33,7.14-2.75c0.92-5.41,0.42-11.01,1.53-16.32c11.57-55.35,12.71-54.7,10.61-86.69
		c-1.53,2.04-1.33,4.59-3.88,6.32c1.73-3.16,1.43-6.43,3.88-8.06c0-3.17,0.6-11.04-1.53-14.28c-2.63-3.99-2.45-7.96-0.41-12.04
		c-10.01-23.1-8.5-25.91-22.54-27.95c-2.24-0.33-4.79-0.71-6.32,1.73c-1.02,0-1.63-1.43-2.96-1.02
		c-7.82,2.43-14.14,3.04-18.26,18.87c-3.81,14.66-19.4,13.55-11.12,27.74c5.71,9.78,2.87,12.18,8.67,16.32
		c2.04,0.41,3.47-1.22,5.3-0.2c-4.79,3.06-10.06,1.22-11.22-4.39c-2.32-11.22-13.4-18.92-2.24-27.84c9.6-7.68,4.27-5.64,12.85-22.23
		c5.04-9.75,20.75-14.16,31.31-9.79c-3.98-7.34-9.79-11.83-16.42-15.71c-9.08,3.67-18.77,5.92-27.84,9.89
		c8.06-5.3,17.64-6.94,26.11-11.02c-1.73-4.18-5.39-6.45-8.98-8.57c-3.15-1.86-5.81-4.63-9.89-4.9c-1.83-0.12-2.96-1.73-3.16-3.37
		c-1.33-0.61-2.45,0.92-3.26-0.51c0.71-1.73,2.35,0.31,3.37-1.22c-0.75-5.22,0.6-5.92-6.73-5.92c1.2,3.44-1.9,0.2-9.08,4.9
		c2.65,0.2,4.69-0.82,6.43,0.61c0.3,0.99,0.4,1.89-0.54,2.5c-0.7-4.11-6.66,0.45-10.17-1.68c2.19-2.47,2.02-2.25,2.14-1.94
		c2.04-0.61,0.92-2.14,1.33-3.47c-1.66,0.42-1.36,1.58-1.47,2.49c-0.6,0.6-1.22-4.18-4.65-0.24c-2.55-3.26-5.61-0.2-8.36-0.92
		c-1.9,4.29-1.21,0.46-3.16,0.31c-2.04,0.2-4.18-0.1-6.32,0.41c-0.51,1.22,1.63,2.04,0.31,3.26c-1.09-0.19-1.13-1.84-2.45-1.73
		c-0.41,0.92,0.61,2.14-0.41,2.96c-1.22,0-0.92-1.53-1.63-1.94c-3.02,4.22-0.19-3.33-4.28-2.35c-0.71,1.33,0.61,2.35-0.2,3.47
		c-1.63-0.61-1.12-3.37-3.26-3.37c-0.92,0.71,0.31,2.04-0.92,2.86c-0.51-0.92-0.51-2.04-1.63-2.35c-0.82,0.61,0.51,1.94-0.92,2.35
		c-1.22-0.41-0.51-2.24-1.84-2.24c-8.77,0-17.44,0-26.21,0c0.41,0.41,0.2,1.53,1.73,1.94c11.06-0.82,14.04-1.49,17.44-0.61
		c1.92,0.5,13.75,3.46,15.35,5.86c1-1.6,7.38-0.32,13.51-3.21c1.94-0.91,3.88-1.84,5.3-1.73c1.63-0.71,0.2-1.94,1.63-2.35
		c0.41,1.12,0.61,2.75,2.55,1.84c0.92-0.61-0.41-1.94,0.71-2.55c1.02,0.71,0.09,1.84,0.61,2.65c0.6,0.93,2.45,0.2,2.65,1.84
		c-15.26,1.27-17.35,5.18-26.69,3.82c3.66,3.15-1.09,1.24-5.54-0.66c-12.54-5.36-15.72-4.62-25.19-3.88
		c-15.52,1.22-5.59,0.04-4.79-2.55c-2.75,2.65-3.37,0.31-4.28-1.02c-0.82,0.92-0.92,2.04-2.14,2.45c-1.63-0.82-3.47-1.63-3.57-4.18
		c-1.43,1.12-0.2,2.65-1.33,3.77c-2.55,0.31-5.2,1.22-7.96,2.14c-1.12,5-2.5,9.95-6.73,13.36c-2.5,2.02,0.46,6.43-1.12,11.42
		c-3.15,9.97,6.21,14.6,0.1,20.7c0.51-4.79-1.25-8.15-2.35-11.73c-2.45-7.99,1.01-9.19,0.41-13.36c-0.65-4.48,0.31-8.36,4.79-11.12
		c-2.14-1.43-1.82-3.16-1.84-4.9c0-0.1,1.15-56.52,1.63-61.91c0.6-6.77-2.41-11.89-4.28-15.81c-14.85-31.12-5.6-51.07-7.34-46.71
		c-2.72-4.08-7.03-17.37-6.94-25.4c0.24-3.34-0.78-4.15-4.69-18.26c-6.8-24.54-0.82-34.27,1.63-51.2c0.19-1.33,0.51-2.55,1.33-3.77
		c2.24,1.63-0.61,4.59,1.73,6.02c-0.71,1.33-2.85,1.84-2.35,3.57c0.72,2.45-0.71,4.28-1.22,6.43c-5.81,24.19,5.25,47.78,5.51,61.81
		c0.1,5.61,3.26,11.12,5.2,16.93c3.26-6.12,3.88-6.73,6.73-7.34c-2.96,3.05-4.84,6.73-6.58,10.45c3.35-0.62-1.18,4.33,3.01,28.92
		c0.49,2.86,0.92,5.71,2.75,8.67c4.28-4.69,9.51-7.83,13.87-12.14c2.47-2.44-0.57-2.64,4.28-5.61c-1.84-2.55-1.02-5.3-0.92-8.16
		c1.43,1.73,0.92,3.98,1.73,6.02c15.32-22.13,6.6-37.54,7.04-49.47c0.23-6.22-2.65-10.3-6.73-14.18c-1.02,1.53,0.71,3.06-1.02,4.59
		c-1.71-3.85,1.46-20.82,0.1-35.09c-2.85-29.87-9.26-29.49-6.53-31.31c4.22,0.92,10.33,21.47,8.98,33.66
		c-0.81,7.24-0.19,14.6-0.92,21.83c-0.18,1.74-0.21,3.57,1.22,4.79c4.79,4.09,8.57,9.08,13.57,13.06
		c2.55-7.96,0.61-15.61-0.31-23.46c-1.73,0.31-2.24,2.35-4.08,2.14c-0.61-3.88-3.47-7.75,0.71-11.42c-2.5-2.63-1.75-2.96,1.63-27.33
		c0.1-0.71,0.1-1.43,0.71-1.94c3.15-2.95,7.62-13.26,17.14-11.22c2.45-1.02,3.16-4.18,5.81-4.28c1.84,0.61,1.43,2.04,1.94,3.37
		c0.82-2.55,1.73-4.9,4.59-5.3c0.92,1.73-1.12,2.45-0.71,3.98c1.94-0.51,3.26-2.14,5.41-2.24c2.67,6.86,5.13,0.54,1.84,7.14
		c0.61,0.82,1.12,2.35,1.84,2.45c6.44,0.84,8.3,22.53,7.14,25.09c1.19,2.98,7.03,5.45,1.94,13.87c-1.65,2.74,0.39,5.7-3.88,6.22
		c-2.7,0.33-1.29,16.31-0.41,20.4c4.18-4.9,5.71-11.32,11.73-13.57c0.31-3.16-0.31-6.12,0.71-8.98c0.82,5.1,1.33,10.2,0.92,15.61
		c-4.58-1.88,3.6-12.48-10.3,8.36c21.47,47.96,12.09,29.25,17.34,21.11c2.32,8.49-5.94,10.56,1.02,19.76c0-1.25,0-2.58,0-4.46
		c2.02,2.2,0.66,3.33,0.14,4.57c3.77,8.53,9.17,15.75,16.69,21.34c4.53-12.36,1.77-21.38-0.92-32.13
		c-2.76-11.03,18.88-39.53,13.06-77.72c-0.33-2.14-0.61-4.18,1.22-5.81c-6.05-13,5.08-14.07-10.71-49.06
		c-0.15-0.34-24.74-52.87-28.15-54.26c-1.43,1.22-3.26,1.53-5.1,2.45c1.12,1.12,3.47-0.1,3.67,2.35c-10.3-2.86-20.3-5.2-28.86,2.75
		c-1.33-0.31-0.41-1.33-1.22-1.53c-0.92,0-1.73,0.31-2.35,1.12c5.1,2.75,5.1,2.75,6.02,4.79c-3.57-1.63-6.83-4.9-10.91-1.94
		c3.22,7.27,3.73,6.58,18.56,5.51c1.23-0.09,2.65-0.51,3.77,1.12c-4.39,1.33-8.57,1.94-13.26,1.73c-1.12,5.81-2.04,11.53-2.65,17.54
		c0.1,0.03,21.81,6.8,23.05,11.63c4.24,16.49-17.83,14-34.58,10.91c-8.26-1.52-16.63-3.06-24.89-6.12
		c-1.53,5.51-2.04,11.02-4.28,16.01c-2.24,5-1.63,10.71-4.69,15.4c0-13.98,6.82-20.66,8.36-47.73c0.46-8.16,4.28-15.2,7.24-21.72
		c6.12-2.24,11.93-1.63,17.34-3.57c5.41-1.94,9.49-6.22,15.2-8.06c-3.77-2.24-7.24-2.65-10.61-0.2c-1.73,1.26-2.91,0.69-8.67-1.33
		c3.81-1.48,7.16,1.67,8.77-1.22c-3.57-2.14-7.55-0.71-10.91-1.33c-1.12-0.82,0-1.22-0.2-1.73c-7.24-1.84-14.08-4.28-19.48-9.79
		c-4.91,4.91-7.67,7.05-6.63,10.2c4.32,13.13-17.05,31.62-21.01,62.52c-0.8,6.22-4.49,11.73-4.49,18.15
		c0,13.31,0.17,13.56-1.53,14.79c0.31-5.1-1.02-10-0.71-15.1c0.52-8.77,4.4-16.83,5.92-25.5c4.52-25.78,22.82-40.31,19.68-53.85
		c-0.61-2.65,0.19-5.84,2.86-7.85c9.81-7.41,2.92-15.27,15.71-16.01c17.67-1.02,43.88,4.33,57.32,11.02
		c6.58,3.27,4.99,6.92,4.59,12.55c8.38,7.24,3.2,5.57,6.12,10.1c11.47,17.81,14.05,21.46,31.72,68.13
		c2.98,7.87-2.16,5.31,0.51,21.01c0.06,0.38,4.41,25.95,2.35,36.21c-6.04,29.97-19.08,42.72-13.06,59.77
		c4.88,13.81,1.3,17.09-8.98,61.6c-2.47,10.71,0.21-2.27-0.61,19.17c-0.13,3.26-1.11,6.53-0.71,9.79c0.53,4.38-0.21,8.77-0.61,13.06
		c-0.1,1.12-0.31,2.75-2.55,2.55c6.04-70.02-4.91-11.88,9.79-77.01c-29.6-26.57-31.25-60.97-37.33-63.85
		c-0.14,3.22,3.04,25.15-2.04,3.57c-1.53,1.53-1.94,3.57-3.77,4.59c-0.56-1.95,4.12-7.42,2.35-12.34
		c-2.71-7.53,1.87-15.48-2.65-5.92c-3.57,7.55-10.54,11.54-15.3,8.47c-3.01-1.95-5.57,4.87-10.2-1.53
		c-1.71-2.36-3.77-4.39-6.43-6.43c-0.2,4.18-0.82,7.96-1.73,11.73c2.32,1.23,8.07,7.87,8.1,7.98c-0.29,0-0.55,1.41-2.08-0.12
		c-2.65-2.65-6.12-4.18-9.38-6.43c3.88,14.79,21.52,31.11,29.88,28.56c0.24-11.23-13.64-16.78-14.89-19.68
		c-1.38-0.17-2.13-1.81-3.42-2.28c2.16-0.67,3.17,2.1,3.62,1.88c4.59,1.02,7.04,6.43,12.44,6.02c1.43-1.73,2.35-3.98,4.59-5.61
		c1.63,4.69-3.77,5.1-4.59,7.75c1.43,4.28,4.28,7.45,4.79,11.93c8.06-3.26,11.73-8.77,11.02-17.24c2.45,3.77,1.8,9.24-1.22,11.83
		c-3.01,2.57-6.39,9.57-15.5,7.24c-16.44-4.19-21.17-14.16-25.8-21.32c-2.52-3.9-4.59-7.96-3.57-12.75
		c-11.65-11.65,11.84,20.14-10,52.83c-1.3,1.95-2.45,3.88-2.86,6.22c-2.65,2.04-1.33,6.02-2.96,7.04c-2.27-3.98,6.09-9.3-13.46,7.14
		c18.55,43.29,9.22,32.54,13.16,45.9c2.11,7.15,3.98,14.38,3.06,22.03c-0.8,3.21,22.36,3.1,36.31,6.43
		c2.56,0.61,14.47-2.32,34.58-1.12c8.89,0.53,9.6-2.38,13.26-2.96c2.04-0.32,3.98-0.61,4.79-2.86c2.04,0.92,1.02,2.86,1.84,3.98
		c2.65,0.82,6.26-0.94,7.96,2.24c1.35,2.54,2.04,5.51,0.71,8.57c18.22,6.25,17.86,11.84,31.11,19.17
		c3.04,1.01,27.67,32.29,24.17,44.98c-0.82,2.96-0.22,5.51,1.22,8.06c3.81,6.73,0.57,4.78,2.35,18.26
		c5.22,39.62-13.63,83.36-11.73,101.38c1.33,0.71,2.75-0.1,3.88,0.82c2.24,3.37,3.26,6.73,0.61,10.4c-0.14,0.07,3.2,4.56,5.1,6.53
		c6.57,6.8,2.35,7.22,11.02,15.3c4.38,4.08,7.67,9.06,12.24,12.95c2.48,2.11,0.83,3.63,2.04,8.47c-1.94,3.16-5.1,3.78-8.26,3.98
		c-19.94,1.27-24.55-0.01-32.54-3.26c-11.6-4.73-4.78-8.55-13.67-9.79c-4.92-0.69-18.56-6.52-19.79-11.12
		c0.1-2.55,2.14-4.28,2.86-6.63c3.36-11.05,3.28-25.98,11.63-26.42c0-13.88-1.78-48.45-8.06-65.68
		c-5.48-15.04,3.44-21.85,2.14-33.05c-14.36,11.13-28.05,3.6-28.05,0.1c-4.39-3.67-8.67-7.45-11.73-12.44
		c-3.37,0.92-6.53,0.61-9.59,1.22c0.76,11.08,3.05,12.18-20.91,30.29c-1.22,10.51,1.02,20.19,3.06,29.88
		c31.89,0.94,40.19-8.73,44.57,18.97c0.11,0.71,0.31,1.53-0.82,1.94c-2.83-4.02-3.53,0.04-7.96-0.31
		c-7.95-0.62-15.81,0.25-23.76,0.2c-12.5-0.08-0.44-4.92,11.12,44.27c6.63,0.61,9.43,2.06,10.3,5.1c0.38,1.33,0.82,2.96-1.63,4.39
		c0.92-7.75-4.28-7.55-8.77-7.65c-1.22-1.12-1.82-2.25-2.14-3.37c-13.8-48-16.64-38.89-20.4-46.41c-3.16,0.71-4.8,2.34-5.71,5
		c-1.54,4.48-3.58,8.77-4.39,13.46c-0.93,5.4-3.98,10.1-4.79,15.61c-0.72,4.89-2.04,9.49-4.49,13.87
		c3.33,7.14-5.17,12.72,0.82,23.25c4.55,8,7.99,23.01,1.33,24.58c-2.27,0.54-14.47,1.91-24.58,0.82
		c-10.3-1.11-18.95-2.25-16.42-12.65c1.31-5.41-3.34-2.65,2.86-20.5c3.72-10.71,1.1-20.2,5.81-18.26
		c-1.33,4.28-0.62,8.87-1.63,13.36c-0.82,3.67-2.45,7.14-3.57,10.71c-1.83,5.81-0.92,11.83-1.73,17.64
		c-0.81,4.06,6.79,7.37,11.24,7.63c-0.19-0.11-0.38-0.31-0.53-0.69c12.54-2.51,16.38-7.5,24.58-0.41c-0.51-0.2-1.22,0-1.63-0.2
		c-5-2.86-10.01-2.39-15.1-0.31c-3.44,1.41-5.51,1.36-6.53,1.66c26.35,1.2,1.86,0.03,23.45-0.31c-0.59-1.65,1.26-0.38,1.47,0
		c6.24,0.11,5.75-18.08-5.23-21.86c1.73-1.63,2.96,0.41,4.28-0.1c-3.06-5.41-3.89-10.92-1.43-16.52c1.52-3.47-1.73-6.12-0.82-9.59
		c-12.01,0-2.32-9.64-8.77-13.06c-12.63,3.34-10.79-1.55-12.55,7.24c-0.41,3.37-2.75,4.39-5.92,2.65c0.61-1.94,2.75-1.43,3.98-2.75
		c2.96-12.24,1.43-24.58-0.2-36.82c-3.28-1.44-82.83,3.77-87.94,2.52c29.3-1.2,58.22-2.13,87.23-4.05
		c-1.12-13.26-2.24-26.31-3.37-39.68c-4.08,9.49-9.79,17.85-16.12,25.91c-1.58,1.58-23.43-0.3-25.6-0.51
		c-6.82-0.66-29.62,2.18-42,0.22c0.75,0.88,0.47,0.53-0.52,1.01c0,3.53-2.14,6.03-5.2,13.46c1.49,1.49,3.48,2.14,4.52,3.33
		C149.73,505.07,147.86,503.86,145.83,502.24z M250.89,146.18c-1.12,1.02,0.2,1.22,0.51,2.35C252.01,147,251.8,146.38,250.89,146.18
		z M250.17,155.05c0.61,1.73,1.02,2.86,1.73,4.49C253.74,156.79,251.8,156.28,250.17,155.05z M297.5,156.89
		c1.22-2.45,3.26-3.77,2.86-6.32C298.92,152.2,297.09,153.63,297.5,156.89z M297.5,146.18c1.12-0.2,1.53-0.71,1.12-2.14
		C297.8,144.65,297.19,145.06,297.5,146.18z M240.89,76.21c8.19,3.42,26.66,7.68,44.16,8.26c11.79,0.39,12.35-2.61,13.16-6.83
		c-19.48,2.86-37.84-1.73-56.3-6.83C240.79,72.44,240.89,74.28,240.89,76.21z M241.81,67.95c11.63,6.94,48.96,11.32,56.4,6.22
		c-6.22-6.32-14.69-6.63-21.62-10.4c-2.41,1.41-0.31,7.95-6.94,7.55c-5-0.3-9.79-1.43-13.97-4.9c2.45-1.33,2.14-3.47,2.24-5.61
		c-5.1-1.12-10.1-1.12-15.4-0.92C242.22,62.75,241.71,65.4,241.81,67.95z M247.83,42.86c-0.41,5.1-6.12,8.47-4.39,14.69
		c4.9,0.92,10.1,0.51,15.3,0.92c2.24-6.12,3.16-12.34,3.47-18.77C257.21,39.7,252.62,40.31,247.83,42.86z M267.92,36.95
		c-4.58,1.53-3.67,10.61-5.2,17.34c-3.08,13.54-3.02,5.65-3.47,12.85c3.47,1.94,7.24,2.45,11.02,2.65
		c5.07,0.27,3.56-9.17,6.83-24.89C273.02,43.57,269.14,41.64,267.92,36.95z M296.88,26.95c6.95,0.07,11.56-0.67,11.73-6.53
		c-23.56,2.04-45.8-2.45-67.21-12.24C233.65,20.07,282.53,26.81,296.88,26.95z M287.6,18.38c0,0.28-0.46,0.2,3.06,0.2
		C290.66,18.31,291.12,18.38,287.6,18.38z M282.91,17.87c-1.22-0.31-2.14-0.41-2.96-0.61C280.67,18.08,281.69,17.97,282.91,17.87z
		 M279.85,17.26c-2.7-0.34-2.35-0.42-2.35,0C278.32,17.26,279.14,17.26,279.85,17.26z M300.05,10.94
		c-20.79-8.38-66.29-13.78-55.28-3.77c0.1-1.43-1.53-1.63-1.02-2.75c0.82-0.51,1.12-0.1,1.73,0.61c4.68,6.63,52.37,16.1,61.5,10.81
		c1.02,0.92,0.1,1.43,0,2.04C308.25,18,312.52,15.97,300.05,10.94z M273.73,121.6c-1.52,2.53,0.31,2.8,0.31,1.43
		C274.04,122.82,273.83,122.42,273.73,121.6z M291.48,125.78c1.02,0.1,1.53,0.1,1.94-0.82C292.5,124.66,291.89,124.46,291.48,125.78
		z M258.23,168.52c1.39,5.82,5.74,9.75,10.71,12.85c1.13,0.7,2.66,0.44,3.98,0.1c4.51-1.16,12.37,1.99,15.61-8.26
		c0.37-1.18,2.67-9.03,3.57-9.89c7.22-6.97-0.51-24.91-0.61-30.6c-0.06-3.21-3.54-2.02-2.04-6.02c-4.01,3.35-1.41-0.11-3.57-0.41
		c-9.42-1.3-8.34,3.58-12.65,0.82c-3.18-2.05-9.38-1.68-8.98,1.12c-1.22,0-0.61-1.22-1.43-1.33c-0.49,0.24-9.36,14.22-8.26,26.82
		C254.8,156.54,255.1,155.39,258.23,168.52z M234.06,313.14c-3.44-11.51-2.88-24.71-5.3-27.13c1.22,14.26,2.14,21.27,0.31,31.31
		c-2.9,15.86,1.05,16.9-2.24,27.13c-0.3,0.92-0.82,1.43-0.2,2.35c2.24-2.65,1.43-6.32,3.37-9.18c1.22-0.31,2.55-0.71,4.28-1.22
		C232.46,329.87,235.51,317.99,234.06,313.14z M235.38,318.96c-0.51,0.51-0.41,1.12-0.1,2.04
		C235.69,320.08,235.59,319.57,235.38,318.96z M234.87,329.06c-1.02,2.24-0.41,4.28,0.61,6.73
		C235.89,333.24,235.38,331.2,234.87,329.06z M238.34,328.75c-2.32,5.81,21.7,4.5,27.03,4.18
		C244.08,330.57,249.62,331.31,238.34,328.75z M290.26,334.87c0.41,0.71,1.12,1.12,1.84,1.33
		C292.4,334.46,291.48,334.46,290.26,334.87z M321.47,330.48c-1.02,1.22-0.92,2.04-0.51,2.96
		C322.69,332.83,322.08,331.91,321.47,330.48z M325.44,329.36c-0.71,1.12-0.71,1.94-0.2,2.96
		C326.87,331.3,326.16,330.48,325.44,329.36z M346.25,566.4c6.32,3.67,11.83,7.55,18.97,8.98c-0.71-3.37-2.14-5.81-4.49-7.75
		c2.65-0.31,2.64-0.4,3.67,0.92c12.27,15.55,11.99,21.9,47.63,20.3c1.84-0.08,4.3-0.1,4.13-2.87c-1.75,2.26-5.22-5.05-14.64,0.44
		c-1.07,0.62-2.14,1.66-3.77,0.9c6.74-5.18,10.62-5.6,18.36-1.89c0-9.58,2.64,1.2-14.18-18.01c-4.87,1.15-7.49,2.56-8.7,0.22
		c2.01-1.95,4.62-0.87,6.86-1.35c-0.5-2.86-2.66-1.6-6.9-0.79c0.34-0.47,1.48-1.04-0.99,0.19c-3.6,0.69-4.86,1.38-5.87-0.53
		c2.55-3.26,6.73-2.45,10.61-4.18c-3.7-0.45-7.02,1.05-10.35,1.15c0.12-0.09,0.26-0.17,0.39-0.25c-0.38,0.08-0.77,0.16-1.21,0.25
		c-1.28-0.06-2.13-0.18-2.62-0.91c1.02-4.12,6.93-3.06,9.81-4.73c-3.19-0.37-10.68,2.99-12.37,0.02c1.59-2.43,4.67-1.71,6.46-3.59
		c-4.75,0-8.15,1.41-9.54,0.91c-1.09-0.88-0.96-3.02-2.91-2.08c-1.92-2.34,6.86-4.88,10.81-5.35c2.14-0.25,2.86-1.12,3.16-2.65
		c-4.6,1.53,0.48-1.06-1.94-8.58c-15.21,2.24-10.38,3.95-7.52,10.17c0.91,1.97,0.57,1.28-1.17,0.41c-3.72-1.87-9.12-1.93-11.81,0.94
		c-1.53,1.63-3.57,2.55-6.02,3.06c-0.82-1.02-1.93-1.85-3.26-2.45c-1.42-0.63-1.84-2.14-2.86-3.47
		C350.53,551.2,352.78,559.97,346.25,566.4z M386.16,556.71c-0.56,0.18-1.12,0.39-1.68,0.58
		C385.04,557.12,385.6,556.91,386.16,556.71z M359.31,536.61c-3.37-0.51-3.47-0.41-4.79,4.9c2.86-0.2,1.22-3.47,3.26-3.98
		c1.53,0.71,0,2.35,1.22,3.26C359.51,539.37,359.2,537.94,359.31,536.61z M356.65,543.14c0,2.84,5.14,5.61,8.57,1.12
		c-0.17-0.86-0.22-0.58-3.77-2.55c-0.92,1.02,0.1,2.86-1.53,3.47C358.69,544.98,359,542.22,356.65,543.14z M317.9,424.83
		c-0.71-1.63-1.02-2.65-2.45-2.14C315.55,424.01,316.57,424.01,317.9,424.83z M246.81,418.3c1.22-1.94,0.51-3.26-0.41-5
		C245.89,415.24,246.5,416.46,246.81,418.3z M294.23,423.3c-3.47,1.12-7.45-0.61-10.91,1.94c0.1-0.71,0.2-1.22,0.31-1.84
		c-3.47,1.53-4.28,5.2-2.65,12.55C296.06,422.82,294.92,424.32,294.23,423.3z M310.86,421.16c-4.6-1.53-2.95-1.34-7.24,0.61
		C306.06,422.38,308.31,421.46,310.86,421.16z M301.27,436.05c1.58-1.94,1.1-10.61,0.41-13.87c-4.07-1.48-4.92,2.93-20.5,15.4
		c-0.2,5,0.82,9.79,1.43,15.1C289.85,447.88,296.02,442.51,301.27,436.05z M291.89,489.19c-1.43,0.92-3.16,0-4.49,0.71
		c-1.18,4.36,0.46,13.53,6.43,13.57c25.19,0.16,30.42-2.13,34.17-2.24c-5.36-18.99-1.86-7.45-8.47-14.99
		c-2.24-2.56-14.41,0.66-32.84-0.82C285.27,490.71,289.22,487.76,291.89,489.19z M278.12,508.16c2.16-3.05,2.44-7.14,6.22-8.16
		c-3-0.36-3.74-22.09-3.88-23.46c2.5,2.27,2.25,26.74,5.93,23.24c-1.33-9.69-2.55-18.97-4.79-28.76c-0.6,2.21-1.59,3.63-1.14,5.52
		c-2.31,2.31-1.32,3.27-2.44,5.49C272.45,493.03,275.98,496.61,278.12,508.16z M265.37,537.23c2.14,2.86,0.92,5.92,0.82,9.08
		c1.73-2.55,2.63-5.41,3.26-8.26c4.02-18.06,9.27-20.29,5.51-32.84c-6.82-0.8-4.85-1.81-7.24,8.57
		C265.56,523.13,265.32,537.12,265.37,537.23z M274.55,502.55c0-2.55-0.61-4.59-1.63-7.04c-1.12,2.35-1.94,4.39-2.55,6.73
		C271.79,502.45,273.02,502.45,274.55,502.55z M261.29,544.98c1.02,0.71,1.84,0.61,2.65,0.31c0.51-1.33,0-2.65,0.2-4.28
		C258.34,539.76,262.03,542.75,261.29,544.98z M243.54,532.94c4.79,1.53,9.59-1.94,13.97,0.71c1.12-1.63,0.1-3.47,1.43-4.9
		c1.84,3.06-0.41,6.73,2.24,10c5.55,3.7-2.33-11.48,7.96-39.78c19.16-52.7,9.08-30.66,9.08-69.76c-1.12-0.51-1.02,1.22-2.04,0.92
		c-0.33-4.36,4.8-1.37,7.85-19.99c0.32-1.94,1.12-3.67,2.24-5.3c11.32-16.43-7.69-33.59-16.52-31.01
		c-11.26,3.3-16.01,0.28-19.89,6.32c-8.02,12.49-3.87,18.07-3.77,29.78c0.01,1.63,1.12,2.55,2.35,3.67c1.33-3.06-0.2-5.61-0.41-8.26
		c5.6,5.88-1.33,10.1,2.14,15.61c-6.56,10.94-9.87,47.32-9.89,51.51C240.13,495.8,245.25,502.17,243.54,532.94z"/>
	<path d="M285.46,342.11c-0.04-0.03-0.1-0.05-0.1-0.1L285.46,342.11z"/>
	<path d="M317.79,229.92l-0.1-0.1C317.79,229.88,317.76,229.88,317.79,229.92z"/>
	<path d="M553.91,488.68c9.46-11.46,19.25-27.32,19.07-30.09c-1.24-19.97,5.96-25.32,8.98-36c-1.94-2.55-3.05-5.81-2.65-8.47
		c1.6-10.62-3.06-15.82,2.04-29.78c4.34-11.89,13.06-8.34,22.23-11.02c7.45-2.18,12.06,1.27,17.64,6.43
		c-4.47-10.56-7.37-10.76-7.65-14.89c2.35,2.24,3.88,5.2,6.63,6.63c-0.36,1.96,2.55,9.47,5.71,12.04c-0.31,1.02-0.92,0.2-1.63,0.92
		c4.49,4.69,1.43,11.02,3.47,16.63c3.47,0,6.94-1.53,10.71,0.41c-4.28,1.73-8.47,1.12-12.34,2.14c-2.35,2.35-4.39,4.69-3.77,8.26
		c1.72,0.54,0.5-0.31,8.67-0.31c0,2.18-5.29,1.18-9.59,3.26c-0.31,2.55-2.04,4.69-2.04,7.65c10.91-0.51,21.62-2.24,32.03-0.51
		c2.35-5.3-0.1-9.89-0.92-14.69c-2.75-2.86-6.73-4.18-10.51-6.73c5.56-1.52,15.55,5.18,14.99,16.32c-0.19,3.88,0.1,7.55,1.22,11.12
		c-2.24-0.41-2.55-3.67-5.92-3.77c2.55,1.67,3.12,3.77,5.92,3.77c0.55,3.51,8.82,10.27,11.83,12.24c7.96,5.2,14.9-2.48,20.81-5.3
		c0.92-2.96,1.84-5.81,1.73-9.08c-4.49-0.82-8.15-3.18-12.34-4.59c-3.97-1.34-8.36-1.12-12.24-2.96c7.96-1.12,15.5,0.31,22.95,3.57
		c0.51-0.51,0.51-1.84,2.04-1.22c2.04,2.24,3.07,4.69,1.94,8.26c-2.13,6.74-1.39,13.99-3.98,20.7c-4.22,10.95,3.42,29.75,4.69,42.74
		c3.02,30.7,4.93,22.81,3.88,26.42c-2.11,7.25-0.71,14.48-1.12,21.32c3.98,3.77,8.87,1.63,12.85,3.57c0.2-1.94-0.92-3.88-0.31-5.81
		c1.84-2.35,5.1-1.33,7.14-2.96c0.98-1.64,0.67-13.48,2.04-19.17c9.87-41.02,12.8-60.96,10-83.23c-1.53,1.12-0.82,3.77-3.57,5.2
		c1.73-2.65,1.22-5.61,3.57-7.24c0.43-0.14,1.17-11.34-2.24-16.52c-1.01-1.54-1.66-3.58-0.92-5.2c3.05-6.67-7.35-29.31-13.36-31.01
		c-7.56-2.14-11.88-3.5-14.08-0.2c-1.02-0.1-1.64-1.44-2.96-1.02c-5.32,1.69-10.91,2.86-13.87,8.47
		c-6.16,11.67-4.1,16.5-13.06,23.05c-10.32,7.56-0.27,15.72,1.63,24.27c0.7,3.16,2.24,5.51,4.69,7.04c1.84,0.41,3.37-1.12,5.2-0.2
		c-4.69,3.06-10.18,1.02-11.22-4.49c-0.9-4.8-3.48-8.77-5.41-12.95c-6.58-14.27,8.05-14.13,10.51-23.87
		c1.21-4.8,3.37-8.98,5.61-13.36c4.82-9.42,20.7-14.24,31.41-9.59c-4.18-7.34-9.89-12.04-16.63-15.81
		c-9.08,3.67-18.66,5.92-27.64,9.79c8.06-5.3,17.64-6.83,26.11-11.02c-1.73-3.77-4.9-6.12-8.26-7.96s-6.13-5-10.4-5.41
		c-1.74-0.16-3.26-1.43-3.26-3.37c-1.02-1.02-2.55,1.02-3.47-0.61c0.92-1.53,2.45,0.41,3.47-1.22c-0.65-4.52,0.89-5.71-6.12-5.71
		c-2.14,3.57-7.14,1.53-9.28,5c2.14,0.1,4.28-1.02,6.12,0.61c1.08,3.39-10.94,11.29-20.91,23.05c-1.03,1.22-1.73,2.96-3.57,3.98
		c0.95-9.79,23.76-24.28,23.56-25.91c-2.96-2.14-6.53,1.43-9.49-0.41c0-2.35,4.69-2.24,2.35-5.51c-0.82,0.51,0.1,1.84-1.33,2.04
		c-1.53-3.26-2.86-0.92-4.28,0.2c-0.92-1.22-1.94-2.35-3.57-1.02c0.13-0.13-3.89,0.06-4.39,0.1c-1.02,0.51-0.2,1.84-1.33,2.04
		c-2.35-3.47-5.51-1.43-8.67-1.63c0.2,1.33,1.43,2.24,0.61,3.47c-1.84-0.51-1.84-3.57-4.28-3.26c1.84,2.24,2.24,3.77,1.12,4.49
		c-1.02-0.2-0.41-1.94-1.53-1.94c-0.61,0.31-0.2,1.33-1.22,1.12c-1.02-1.12,0-4.28-3.26-3.47c0.1,1.22,0.82,2.45,0.1,3.57
		c-1.53-0.82-1.12-3.37-3.37-3.57c-0.51,1.02,0.51,2.24-0.41,3.06c-1.12-0.41-0.61-2.14-1.94-2.45c-0.92,0.51,0.31,1.94-0.82,2.35
		c-1.12-0.41-0.71-2.14-1.94-2.14c-30.08,0-26.59-0.92-24.89,2.14c12.44-1.94,24.58-1.94,34.98,6.73c-2.35,0.1-4.39-1.01-6.43-1.84
		c-17.53-7.06-20.28-3.88-25.8-3.88c-13.97,0-5.46,0.15-4.69-2.04c-2.45,1.43-3.26,0-3.98-1.53c-1.12,0.51-0.92,2.14-2.45,2.35
		c-1.33-1.12-3.57-1.53-3.16-4.28c-1.73,1.12-0.31,2.86-1.63,3.98c-2.55,0.1-4.9,1.33-7.55,1.84c-0.2,0.51-0.52,1.02-0.61,1.43
		c-3.32,14.05-8.81,10.37-7.45,16.42c1.9,8.45-3.21,8.53,1.22,19.58c1.06,2.64,1.12,5.1-0.92,7.65c0.2-4.49-2.09-8.15-3.06-12.24
		c-1.84-7.81,1.59-7.73,0.61-14.38c-0.69-4.72,2-6.38,4.83-9.63c-5.35-1.17,4.47-65.5-3.3-80.02c-6.12-11.44-9.39-21.56-9.89-41.1
		c-0.09-3.67,1.53-6.83,2.75-10.2c-0.2,13.16,0,26.31,4.9,38.96c6.87-8.81,8.82-1.95,22.13-24.78c8.55-14.66,6.1-25.34,3.77-43.65
		c-0.87-6.85-0.46-1.06-14.18-11.83c2.45,15.61,1.94,30.6,7.24,44.88c-2.77-1.39-8.96-22.62-7.14-25.29
		c0.62-0.91,0.38-1.93,0.1-2.86c-6.74-22.09,3.24-28.96-19.58-57.83c-3.28-4.14-1.29-6.84,14.28,15.3
		c16.84-3.29,22.64,5.83,22.64-12.85c-1.22,0-2.55,0-3.77,0c-0.2,2.04,1.84,1.53,2.75,2.55c-1.02,0.51-1.33,1.43-1.94,2.14
		c-1.94-1.84-3.46-4.31-6.22-4.9c-2.54-0.54-5.1,1.12-8.06,0.51c5.2-5,10.81-1.22,16.12-1.33c0.2-3.26,2.75-5.71,1.73-9.18
		c-6.53-0.61-13.26-1.22-18.97-5.1c22.4,5.25,18.44,4.73,22.13-0.61c-1.73-0.51-3.88,0.31-4.9-1.63c0.61-3.16,3.57-1.63,5.71-2.86
		c-6.32-1.12-11.93,0.1-17.54,0.71c13.76-5.16,22.12-0.91,25.6-4.39c2.55-2.55,5.3-2.45,8.26-1.63c2.35-1.02,3.16-4.08,5.61-4.28
		c2.04,0.51,1.53,2.04,1.94,3.16c1.33-2.14,1.94-4.9,5.1-4.9c0.31,2.04-1.63,2.86-1.84,4.59c2.14-0.92,3.67-2.65,6.32-2.96
		c0.41,1.73,1.53,3.06,3.26,3.77c-0.51,1.33-1.02,2.45-1.43,3.47c0.61,0.92,1.12,2.36,1.73,2.45c5.49,0.78,5.44,10.65,7.85,15.81
		c18.68-13.49,17.17-16.23,40.7-21.42c5.92-1.3,12.04-1.51,17.95-3.06c3.06-0.8,5.6,0.51,7.04,3.26c5.9,11.3,0.6,12.99,3.37,18.87
		c-0.41,0.82-1.04,1.53-1.12,2.35c-0.63,6.01-2.25,11.93-3.06,17.95c-2.41,17.87-6.82,26.43-25.09,53.24
		c-7.52,11.04,3.75,15.8-0.51,37.43c-3.76,19.12-12.06,42.06-9.89,49.26c0.59,1.96-1.28,11.79-1.12,19.28
		c0.13,6.11,0.31,15.3-2.24,16.22c-2.21-1.36,1.23-8.82,0.61-12.44c-1.31-7.68,1.24-17.05,0.61-22.54
		c-1.51-13.18,3.31-18.92,7.75-42.23c-25.49-19.83-31.29-60.95-37.13-63.54c-0.31,4.59,1.12,8.67,0.92,13.57
		c-2.75-3.16-1.94-6.83-3.26-9.89c-1.43,1.53-1.73,3.47-3.67,4.28c0-1.76,4.17-8.79,2.24-13.16c-1.22-2.76-0.41-5.51-1.02-8.26
		c-2.32,6.77-8.69,14.39-15.5,12.04c-5.32-1.84-7.67,3.89-11.22-1.33c-1.74-2.55-3.77-4.9-6.53-6.63
		c-3.12,19.23-2.25,5.66,5.41,19.68c-3.26-2.96-7.24-4.69-10.91-7.04c6.39,17.74,22.13,30.34,29.99,28.46
		c0.41-5.61-2.53-9.4-6.63-12.55c-1.99-1.52-7.11-6.25-6.94-6.43c2.55,0,4.15,1.86,5.61,3.47c1.7,1.87,4.28,0.71,5.92,2.35
		c0.8,0.8-0.9,0.93,1.12,4.49c1.56,2.74,2.96,5.41,3.67,8.57c1.84-0.2,3.19-0.69,4.39-1.94c1.28-1.33,3.53-3.51,4.08-2.96
		c-9.67,18.34-39.37-0.79-44.37-25.4c-10.13-7.6,11.09,15.68-8.16,48.96c-8.75,15.13-5.21,13.88-7.96,16.63
		c-1.32-4.22,6.17-9.37-13.26,7.04c17.16,34.33,7.65,24.91,16.32,59.97c2.35,9.49-9.32,15.74,27.84,14.48
		c-8.57-1.63-17.44-1.33-25.6-4.69c8.36,1.53,16.83,1.92,25.29,2.96c4.08,0.5,7.95,2.13,12.24,1.53c35.84-5,27.93,4.01,49.98-6.63
		c1.33,0.82,0,2.75,1.02,3.57c2.96,0.92,6.44-0.82,8.16,2.45c3.79,7.21-2.48,8.99,5.2,9.59c2.98,0.23,20.1,13.39,22.34,15.2
		c12.26,9.91,22.24,21.77,28.25,41c2.02,6.46-2.48,8.28,1.43,14.89c4.05,6.86,0.11,1.68,2.75,22.54c2.7,21.35-1.09,29.02-2.86,40.19
		c-1.82,11.53-4.04,23.06-6.83,34.37c-1.81,7.35-1.63,14.99-2.75,22.13c1.53,1.12,3.06,0.1,4.18,1.02c2.35,3.37,3.16,6.83,0.82,10.4
		c1.33,2.35,2.78,4.56,4.69,6.22c3,2.61,3.88,6.42,6.12,9.38c14.23,18.87,18.71,14.89,19.58,27.95c-2.04,3.16-5.2,3.78-8.36,3.98
		c-19.75,1.25-24.21,0.02-32.23-3.16c-12.06-4.78-4.84-8.64-14.08-10c-6.54-0.96-12.03-4.5-17.34-8.06
		c-2.75-1.84-2.9-3.29-1.12-6.22c5.63-9.26,3.44-29.05,13.16-29.78c0-25.58,0.33-16.54-2.35-34.78c-0.79-5.41-0.41-11.01-1.12-16.32
		c-1.03-7.69-10.06-18.8-3.98-36c1.23-3.47,1.73-7.14,1.84-11.12c-8.73,4.53-16.25,10.44-27.44,0.41
		c-4.51-4.05-9.08-8.06-12.65-12.85c-3.26,0.31-6.43,0.61-9.89,1.02c3.86,12.16-4.57,18.78-20.4,30.19
		c-1.53,10.61,0.71,20.3,2.96,30.19c34.6-1,33.1-1.3,34.47-0.31c6.02,4.33,7.14,6.17,9.59,16.73c0.33,1.42,0.71,2.86-0.31,4.69
		c-2.37-4.55-3.83-0.38-8.06-0.71c-7.74-0.61-15.6,0.25-23.36,0.2c-13.62-0.09-0.22-4.7,10.61,44.16c9.18,1.02,11.63,3.37,9.89,8.87
		c-0.11,0.01-41.19,4.26-51.91,2.35c10.99-3.35,21.95,0.17,50.49-2.96c0.82-9.63-8.56-2.49-10.61-9.89
		c-13.54-49.04-16.24-38.49-20.5-46.61c-1.84,0.82-3.67,1.23-4.28,2.65c-1.72,3.98-4,7.75-4.79,12.14
		c-2.01,11.1-3.34,7.64-6.12,22.13c-0.74,3.87-1.84,7.55-3.98,11.02c1.22,2.96,0.8,6.01-0.2,9.08c-4.76,14.59,7.99,17.63,5.71,34.98
		c-1.01,7.68-30.87,5.02-37.84,3.06c-10.27-2.89-5.64-12.21-6.02-13.26c-3.48-9.59,5.34-20.28,4.79-30.6c-0.12-2.24,0-5.1,3.26-6.32
		c-1.22,4.59,0.08,9.38-1.43,13.87c-15.76,47.05,6.82,33.42,34.07,35.8c4.18-9.79,1.02-16.93-6.83-22.44c1.33-1.12,2.35,0.71,3.57,0
		c-6.37-12.51,1.22-16.24-1.22-20.81c-0.82-1.53-0.92-3.16-1.02-4.79c-11.3-1.15-2.63-11.13-8.77-13.46
		c-3.47,1.12-7.24,1.22-10.91,1.63c-2.2,7.49-1.21,9.96-7.34,8.47c0.2-2.24,2.75-1.53,3.98-3.16c2.65-12.14,1.33-24.58-0.41-37.13
		c-8.28,0-27.95,1.33-52.12,2.35c-40.1,1.69-35.96,1.9-43.04-3.47c2.35-5.61,4.39-10.91,7.85-15.71
		C510.56,488.06,532.59,486.84,553.91,488.68z M583.39,150.77c-6.43,4.39-13.16,0.61-19.79,2.55c2.55,7.34,2.14,14.89,4.18,22.13
		c2.22,1.94,2.25,1.18,18.36-0.61c-0.92-6.12,1.07-12.37-2.35-17.95C582.79,155.25,583.28,153.32,583.39,150.77z M585.32,151.18
		c-0.51,1.43-0.51,2.55-0.2,4.39C586.14,153.93,587.16,152.81,585.32,151.18z M586.75,147.51c-1.12,1.12-0.31,1.53,0.1,2.24
		C587.67,148.73,587.16,148.32,586.75,147.51z M585.83,157.09c0.51,1.22,1.12,2.55,1.63,3.88c0.82-0.61,1.12-1.22,1.02-2.24
		C588.08,157.6,586.45,157.91,585.83,157.09z M602.87,123.03c-0.76-0.19-1.05,1.54,0.82,0.92
		C603.27,123.54,603.07,123.03,602.87,123.03z M609.6,123.95c-0.92,0.31-1.12,0.82-0.51,1.53
		C610.01,125.17,609.6,124.56,609.6,123.95z M626.63,127.21c1.53,0.61,1.94-0.1,2.75-0.31C628.16,125.68,627.65,126.5,626.63,127.21
		z M633.06,147.81c1.12-0.41,1.63-0.92,1.33-2.14C633.26,145.98,633.06,146.69,633.06,147.81z M633.36,157.6
		c3.06-3.88,3.06-3.88,1.84-6.32C635.2,154.37,632.86,153.61,633.36,157.6z M652.23,205.44c1.12,3.06,0.22,6.03-0.92,8.67
		c-3.82,8.84,11.24,27.19,19.07,32.74c2.75-17.11,3.62-4.65-2.65-41.92c-0.22-1.32-0.71-2.65,0.1-4.18
		c1.63,1.94,1.43,4.49,2.75,6.94c1.56-3.41,11.68-20.29,15.2-25.29c10.56-15.02,10.75-28.26,14.59-48.04
		c0.32-1.63,0.2-3.16-0.51-4.59c1.53-1.22,1.94-2.55,1.53-4.49c-0.07-0.33-0.48-16.25-8.57-14.38
		c-16.79,3.87-32.81,3.25-49.57,17.95c-14.42,12.66-6.17,4.95-9.59,14.08c2.55,2.04,4.18,4.69,4.18,8.26
		c17.3-7.83,18.19-4.61,20.4-8.16c3.44-5.53,8.67-9.18,14.18-13.06c-1.3,7.46-10.58,2.59-21.42,31.01
		c-2.94,7.7-0.39,16.98-2.24,18.46c-1.22-1.53,0.1-3.77-1.43-5.41c-4.69,2.75-9.49,5.41-12.34,10.61
		C656.36,231.08,646.72,215.49,652.23,205.44z M631.32,182.69c6.02-2.55,10-7.85,16.12-10.81c-1.94-9.08,4.28-16.01,6.94-24.38
		c-5.51,1.12-10.4,3.16-15.71,5c-0.92,2.65-4.28,4.59-3.47,8.47c0.1,0.31-0.71,1.22-1.12,1.22
		C628.59,162.55,631.21,176.96,631.32,182.69z M594.1,170.66c1.48,5.6,5.56,9.56,10.51,12.55c1.21,0.73,2.86,0.41,4.28,0
		c6.42-1.83,7.64,3.65,14.08-5.61c2.17-3.12,2.68-10.88,6.32-14.59c5-5.09-1.85-23.3-2.14-28.46c-0.12-2.14-2.96-3.06-1.94-6.12
		c-1.12,0.82-1.63,1.22-2.14,1.63c-0.92-2.55-3.05-2.71-5-2.35c-1.83,0.34-3.77,0-5.41,1.63c-2.14,2.14-3.95-2.91-10.2-1.63
		c-1.53,0.31-2.35,0.92-2.55,2.24c-1.33,0.31-0.61-1.33-1.43-1.22C586.59,148.56,590.43,156.82,594.1,170.66z M589.81,186.57
		c1.22-1.33,0.82-2.75,1.22-4.18c-2.14-0.41-4.59-0.2-5.41-3.37c2.14,0.1,3.37,2.14,5.71,1.43c1.33-6.02-0.82-11.93-1.12-18.05
		c-4.9,0.61-1.76,6.17-3.16,14.38c-4.79-0.71-9.38,0.92-14.79,1.12C577.47,183,584.61,182.69,589.81,186.57z M569.82,316.41
		c-0.76-9.91-2.59-4.08-3.26-20.09c-0.19-4.52-3.9-17.3-1.22,3.57c1.85,14.4-2.32,19.22-1.63,34.78c0.43,9.69-1.11,8.63-2.04,14.98
		c2.75-2.75,1.84-6.94,3.88-10.1c1.02-0.92,2.75-0.51,4.08-1.63C568.6,330.79,570.38,323.65,569.82,316.41z M570.74,320.49
		c-0.51,0.61-0.51,1.12,0,1.63C571.25,321.61,571.04,321.1,570.74,320.49z M571.04,330.69c-1.43,1.84-1.12,3.57,0,6.22
		C571.04,334.26,571.04,332.52,571.04,330.69z M656.82,332.42c-0.92,1.12-0.61,1.84,0.41,2.65
		C658.35,333.85,657.94,333.24,656.82,332.42z M661.21,330.89c-1.02,1.02-1.02,1.84-0.2,3.16
		C662.13,332.93,661.82,332.01,661.21,330.89z M697.31,543.24c-0.92,1.22-0.2,2.65-1.53,3.47c-1.73,0.41-0.61-3.37-3.37-1.84
		c-0.4,2.37,4.92,5.59,8.36,0.82C699.97,544.37,698.23,544.57,697.31,543.24z M682.01,568.13c6.32,3.37,11.73,7.34,18.87,8.67
		c-0.82-3.88-2.65-6.53-6.02-8.87c3.26,0.2,5.12,1.41,6.53,3.47c13.97,20.44,22.81,18.77,45.49,18.77c2.04,0,3.77-0.51,5.41-2.35
		c-3.47-0.31-6.21-3.01-9.69-2.14c-3.05,0.76-5.92,2.24-8.98,2.96c5.51-4.9,11.63-5.71,18.15-2.04c0.71-1.73,0.41-3.06,0.41-4.9
		c-6.02-2.55-10.1-7.85-14.18-12.65c-3.26,0.1-5.92,2.24-9.38,0.51c2.24-2.45,5-1.43,7.34-1.84c-0.6-5.07-11.15,2.5-13.87-1.12
		c2.55-3.26,6.73-2.55,10.61-4.18c-5-0.82-9.38,2.55-14.08,0.2c2.55-3.98,6.73-3.16,10.4-4.79c-4.59-0.41-8.47,2.65-12.95,0.71
		c1.73-3.26,5.1-2.45,7.14-4.28c-9.2,0-9.52,3.35-10.61-1.02c-0.71-0.61-1.94,0.71-2.65-0.92c3.47-4.18,9.79-3.16,14.08-5.71
		c-0.71-1.43-1.53-0.51-1.94-1.43c0.71-2.65,1.22-5.51-0.1-8.57c-3.26,0.61-6.53,1.22-9.69,2.14c-1.94,3.67,1.33,5.71,3.26,8.98
		c-16.35-4.75-10.7,1.82-19.79,3.47c-1.73-2.35-5.71-2.45-5.81-7.14C686.3,552.22,688.13,561.19,682.01,568.13z M693.74,537.53
		c-3.16,0.71-2.86,3.06-3.37,5.41c3.21-0.54,1-3.16,3.06-3.77c1.33,0.82,0.1,2.24,1.12,3.57
		C694.66,540.69,695.89,539.06,693.74,537.53z M630.1,424.93c-3.67,1.33-8.06-1.12-11.32,2.65c-0.82-1.02,0.92-1.63,0.31-2.55
		c-3.26,1.94-4.08,6.02-2.35,12.44C631.72,424.41,630.6,425.93,630.1,424.93z M646.52,423.09c-2.75-1.94-5-1.43-7.75,0.92
		C641.73,423.71,644.07,423.4,646.52,423.09z M618.17,453.69c1.83,0.7,12.61-9.58,15.61-12.24c3.89-3.45,4.92-7.65,4.18-12.44
		c-0.3-1.94,0-3.77-0.71-5.41c-3.99-1.05-4.3,2.49-20.4,15.61C616.74,444.11,617.76,448.9,618.17,453.69z M627.65,490.92
		c-1.53,0.82-3.26-0.1-4.69,0.61c-0.71,6.12,0.41,9.89,4.08,13.57c11.83-0.1,23.97-0.2,36.21-2.35c-0.41-3.88-2.04-7.34-2.86-11.12
		c-1.94-1.12-3.85-2.06-5.3-3.77c-2.2-2.59-15.54,0.57-32.64-0.82C621,492.48,624.88,489.36,627.65,490.92z M613.68,510.2
		c2.24-4.28,2.86-9.28,8.06-8.87c-0.71-9.69-2.55-18.87-4.39-28.56c-1.83,3.16-0.05,1.36-6.83,19.28
		C609.29,495.29,612.29,497.94,613.68,510.2z M601.85,541.31c0.91,2.15,0.2,4.39-0.2,6.73c1.84-3.47,3.27-7.04,3.98-10.81
		c2.49-13.27,8.77-16.65,5.1-30.19c-1.53-0.61-3.26-0.41-4.9-0.61C604.17,507.44,599.14,534.91,601.85,541.31z M608.68,497.04
		c-1.43,2.24-1.94,4.28-2.65,6.53c1.33,0.71,2.65,0.51,3.98,0.61C610.53,502.91,609.01,498.17,608.68,497.04z M597.16,546.81
		c0.82,0.51,1.63,0.51,2.55-0.1c0-5.13,0.51-4.38-3.67-4.08C597.05,544.06,596.75,545.49,597.16,546.81z M579.2,509.48
		c1.59,16.27,0.1,18.17,0.1,25.29c4.69,1.33,9.49-1.84,13.97,0.51c1.02-1.53-0.1-3.37,1.33-5c2.2,3.78-1.31,11.26,4.39,10
		c1.27-2.54-2.3-1.09,2.04-26.31c2.42-14.08,8.88-23.78,13.46-40.8c4.31-16-0.34-16.06-0.71-42.74c-1.33-0.1-1.02,1.84-2.45,1.73
		c0.51-2.04,1.55-3.95,2.96-5.41c6.1-6.32,2.97-14.7,8.47-21.72c4.65-5.95,4.51-19.42-10.61-28.66c-4.58-2.8-5.64-0.19-19.99,1.43
		c-8.82,0.99-12.78,14.77-11.53,23.56c1.35,9.47-0.11,11.04,3.47,13.87c1.43-3.06-0.2-5.51-0.71-8.36c2.24,2.45,2.89,4.39,2.35,7.45
		c-1.71,9.54,0.93,6.63-0.41,9.18c-6.18,11.75-9.28,46.75-9.28,52.22C576.04,487.15,578.11,498.26,579.2,509.48z M582.57,419.42
		c1.22-1.43,0.41-2.35-0.41-3.67C581.86,417.18,581.96,418.2,582.57,419.42z M487.82,507.75c29.58-1.22,58.85-2.04,88.12-4.08
		c-1.53-13.36-2.65-26.42-3.47-39.98c-4.18,9.79-9.89,18.15-17.03,26.62c-10.3,1.12-21.52-1.58-32.74-0.82
		c-11.22,0.76-22.54,0.92-33.76,0.61C480.87,512.08,481.07,499.78,487.82,507.75z"/>
	<path d="M565.23,131.39c1.63,1.94,4.18,1.43,5.71,2.86c-1.73,2.55-2.55,2.45-5.71-0.82c-1.22,1.43-3.16,1.63-5,2.35
		c1.84,1.94,4.28,2.75,5.2,5.1c-12.31-6.02-7.62-8.99-17.14-19.17c-9.85-10.54-14.81-5.34-23.56-11.22
		c-7-4.7-13.53,5.44-13.67,10.91c-0.29,11.5-1.39,18.85,4.9,23.56c0.92-3.47,0.1-6.53-1.53-9.49c7.83,5.22-5.62,10.01,12.34,33.45
		c4.48,5.84,9.08,14.36,11.22,28.25c1.49,9.68,9.4,18.91,9.89,22.54c-13.21-11.77-10.89-26.61-12.04-28.86
		c-15.33-30.22-17.59-26.64-20.6-41.21c-1.81-8.76-6.98-5.65-6.32-18.05c0.57-10.71-1.74-13.76,4.59-20.09
		c8.24-8.24,12.34-0.3,19.07,0.31c18.96,1.72,24.04,19.65,27.03,22.23c1.43-1.12,3.47-0.71,4.9-1.94
		c-1.43-9.18,0.1-12.75,5.71-12.34C564.73,122.33,565.98,120.12,565.23,131.39z"/>
	<path d="M295.46,41.13c0.82,0.51-0.2,1.32,0.61,2.14c16.05,16.3,7.4,30.89,21.83,62.52c0.51,1.12,0.41,2.95,2.55,3.37
		c0.51,0.1,1.53,2.45-0.61,3.26c-7.73-5.27-13.91-34.72-15.2-43.96C301.68,47.27,290.07,41.13,295.46,41.13z"/>
	<path d="M259.56,555.28c-3.67,1.94-16.01,1.94-18.46-0.1c2.14-1.63,4.59-1.12,6.83-1.53c-1.63-0.31-3.67,0.31-5.3-0.82
		c-0.41-1.43,1.02-1.53,1.02-2.24c-0.92-0.51-2.45-0.1-2.14-2.35c4.59-1.53,9.48-1.84,14.48-1.73c1.22,0.02,2.24,0.82,1.94,2.75
		c-3.88-0.31-7.65,0.31-11.93,0.71c4.9,0.92,9.69-0.92,14.08,1.43c-0.61,1.73-2.35,1.12-2.96,2.24
		C257.92,554.26,259.56,553.65,259.56,555.28z"/>
	<path d="M308.31,156.07c-1.14-1.71,1.6-13.29,2.04-17.85c0.92-9.48,3.26-18.36,9.59-25.8c-0.2,3.88-1.81,7.25-3.06,10.81
		C306.99,151.51,312.43,153.39,308.31,156.07z"/>
	<path d="M595.42,553.65c-0.51,1.12-2.24,0.41-2.86,1.63c0.92,0.51,2.45-0.2,2.55,1.53c-3.57,2.04-16.01,1.94-18.36-0.1
		c2.04-1.63,4.49-1.12,6.53-1.53c-1.53-0.51-3.67,0.41-5.1-1.12c0-1.52,2.14-2.04,2.24-2.04c0-0.1-2.82,0.15-3.67-1.73
		c4.59-2.45,9.49-1.99,14.28-2.35c2.26-0.17,4.65,2.96,0.41,2.96c-3.66,0-7.33,0.1-10.99,1.12
		C593.59,551.5,593.6,551.51,595.42,553.65z"/>
	<path d="M562.07,374.04c-2.86-3.88-0.71-8.06,10.3-20.81c-2.65,0.61-4.49,2.14-6.63,3.06c3.67-5.41,10.51-4.79,15.2-8.16
		c-2.55-0.71-5,0.82-8.26,0.61c7.04-2.86,13.67-2.96,17.44-0.71c-1.63,0-3.78-0.42-5.51,0.1
		C569.23,352.75,562.31,366.84,562.07,374.04z"/>
	<path d="M293.11,552.42c-3.57-15.4-5.3-31.11-7.96-46.71C289.64,520.91,291.58,536.72,293.11,552.42z"/>
	<path d="M629.08,554.05c-1.94-2.45-8.67-44.78-7.75-47.22C625.31,522.64,627.14,538.35,629.08,554.05z"/>
	<path d="M605.01,245.42c-0.51-1.43-0.39-2.96-0.82-4.28c-0.79-2.46,0.52-5.08,2.65-6.22c4.46-2.39,10.37,1.62,8.16,7.14
		c-0.9,2.25-3.47,3.97-5.81,3.47C607.76,245.21,606.44,245.52,605.01,245.42z M609.39,243.28c5.08-0.41,4.17-6.94,0.41-6.73
		c-2.55,0-3.26,1.63-3.26,4.49C609.29,239.81,610.11,240.63,609.39,243.28z"/>
	<path d="M270.57,241.75c-0.71-1.53-0.41-2.86-0.92-4.08c-0.92-2.65,0.11-4.78,2.35-6.32c4.17-2.88,10.8,1.16,8.47,6.94
		C278.7,242.65,274.97,241.44,270.57,241.75z M275.26,232.67c-2.45,0-3.16,1.73-3.47,4.49c2.55-0.82,4.08-0.82,2.86,2.35
		C279.99,239.3,278.86,232.67,275.26,232.67z"/>
	<path d="M621.53,232.67c14.95,6.79-0.79,17.92-4.69,8.67C614.96,236.87,618.27,234.81,621.53,232.67z M622.04,242.57
		c4.25,0.22,4.26-6.84-0.1-6.73C617.97,235.93,617.9,242.35,622.04,242.57z"/>
	<path d="M300.86,364.14c0.28-5.52,14.85-17.89,19.17-21.42c4.33-3.53,7.16-4.18,2.86-0.41
		C297.68,366.83,302.52,364.56,300.86,364.14z"/>
	<path d="M287.5,229.71c7.69-0.12,7.65,10.95,0.2,11.32C280.6,241.39,279.38,229.84,287.5,229.71z M286.99,238.69
		c3.55,0.67,5.69-4.7,1.22-6.73C282.01,233.37,284.34,238.38,286.99,238.69z"/>
	<path d="M303,228.8c0.2,3.98,1.22,7.34,0.71,10.61c-3.06,1.02-1.53-2.24-3.37-2.86c-2.35-0.2-2.04,5-5.61,3.47
		c0.51-1.12,1.12-2.14,1.73-3.47c-1.63-1.33-3.07-2.97-1.84-5.2C296.46,228.07,299.84,229.51,303,228.8z M300.56,234.41
		c1.92-3.29-2.14-4.51-3.88-1.73C297.29,235.12,299.13,234.2,300.56,234.41z"/>
	<path d="M637.44,232.77c0.51,3.67,1.22,7.04,0.82,10.51c-3.26,1.22-1.43-2.58-3.98-2.75c-1.83-0.12-1.53,4.9-5.1,3.37
		c0.61-1.22,1.12-2.35,1.73-3.37c-1.53-1.63-3.07-3.27-1.63-5.51C631.2,232.05,634.48,233.18,637.44,232.77z M631.22,236.55
		c0.61,2.35,2.45,1.43,3.77,1.63c0.92-1.22,0.31-2.04,0.41-2.86C633.57,234.81,632.14,234.92,631.22,236.55z"/>
	<path d="M266.69,561.3c2.46-4.38,23.98-0.82,48.96-3.26C299.64,560.58,283.42,560.38,266.69,561.3z"/>
	<path d="M648.25,340.58c-10.03-0.67-19.83,6.08-26.52,2.96c6.94,0.1,12.85-3.16,19.38-4.79c0.61-0.51-0.82-1.63,0.41-2.14
		c0.82,2.14,0.82,2.14,3.06,1.73c-0.2-1.02-0.31-1.94-0.41-2.86c2.45,0.2,0.72,2.54,1.84,3.47
		C646.62,339.46,648.05,339.05,648.25,340.58z"/>
	<path d="M264.35,348.94c3.47,0.85,26.06,8.05,25.4,16.63C284.21,355.87,267.77,353.89,264.35,348.94z"/>
	<path d="M315.55,374.95c11.8-13.43,20.46-24.74,25.29-21.11C330.03,356.84,322.02,373.88,315.55,374.95z"/>
	<path d="M244.46,569.05c5.89-3.73,23.05-0.58,5,1.22c1.84,1.73,3.88,0.92,5.71,1.63c-3.06,2.14-4.69,2.45-7.34,1.73
		c-0.71-0.92,0.2-1.94-0.41-2.75C246.5,570.17,244.77,570.58,244.46,569.05z"/>
	<path d="M580.02,570.68c2.75-1.73,10.1-2.35,13.06-1.02c-2.04,2.45-5,1.73-7.65,2.35c1.53,1.84,3.57,0.61,5.2,1.53
		c-1.63,1.22-2.35,1.5-4.08,1.94c-2.97,0.76-3.47,0.41-3.37-2.86C582.37,571.6,580.43,572.41,580.02,570.68z"/>
	<path d="M258.94,559.87c-6.02,1.22-11.83,2.04-18.26,0.71C243.28,558.44,257.81,555.35,258.94,559.87z"/>
	<path d="M594.81,561.4c-6.12,1.33-11.93,2.04-18.66,0.82C580.43,558.95,591.85,558.54,594.81,561.4z"/>
	<path d="M651.42,376.08c13.55-15.18,20-24.37,25.5-20.7C665.6,357.75,656.95,376.35,651.42,376.08z"/>
	<path d="M234.26,350.78c4.18-0.42,7.34-3.47,11.32-3.98c-2.75-0.92-5.3,0.31-8.36,0.51c5.61-2.86,11.73-3.16,16.63-1.12
		c-8.67,0.61-16.12,5-23.97,8.47C231.1,353.13,232.32,350.98,234.26,350.78z"/>
	<path d="M668.75,344.87c-9.08,4.69-16.42,11.63-24.48,18.36C648.25,356.59,662.53,345.78,668.75,344.87z"/>
	<path d="M621.43,373.22c9.57,2.13,6.38,9.46,11.12,17.95C626.15,392.24,630.63,377.37,621.43,373.22z"/>
	<path d="M578.69,564.87c5.3,0.82,10.1-1.94,15.2,0.82C590.32,568.44,581.35,568.23,578.69,564.87z"/>
	<path d="M310.45,359.35c6.43-6.94,13.46-13.06,22.54-16.32C324.83,347.52,318,353.84,310.45,359.35z"/>
	<path d="M258.43,563.95c-3.67,2.75-11.93,2.65-15.81-0.2C248.13,563.64,252.93,561.7,258.43,563.95z"/>
	<path d="M335.13,163.01c-2.14,5.1-4.08,10.1-5.92,15.2C327.08,174.43,330.95,164.95,335.13,163.01z"/>
	<path d="M234.57,201.26c1.73,6.63,1.94,13.16,5.61,19.38C235.69,216.96,232.32,205.24,234.57,201.26z"/>
	<path d="M226.31,372.51c-2.45-5,3.77-16.73,10.3-19.28C231.61,358.84,227.02,364.55,226.31,372.51z"/>
	<path d="M600.83,595.26c-11.97-6.32-16.84,1.94-23.97,0.51c14.15-4.04,13.32-6.05,21.72-2.86
		C599.61,593.3,601.03,593.53,600.83,595.26z"/>
	<path d="M270.67,555.38c9.49,0.82,18.97-0.31,28.56,0.2C289.75,556.09,280.16,557.11,270.67,555.38z"/>
	<path d="M606.33,558.13c-0.1-0.61-0.1-1.22,0-1.84c9.49,1.73,18.97,0.2,28.46,0.41C634.79,558.72,638.45,558.13,606.33,558.13z"/>
	<path d="M345.03,396.88c2.96,4.79,6.63,8.67,11.22,11.73C349.51,406.78,344.01,400.96,345.03,396.88z"/>
	<path d="M691.7,410.04c-6.22-1.43-11.53-6.94-11.32-11.83C683.54,403,687.01,407.08,691.7,410.04z"/>
	<path d="M654.88,367.71c0.98-2.35,8.54-11.72,19.58-17.75C660.15,360.47,657.02,366.65,654.88,367.71z"/>
	<path d="M237.83,404.53c8.24,1.27,1.7,6.96,2.35,12.75c-3.47-2.65,0.41-6.89,0.2-10C239.97,405.55,238.03,406.06,237.83,404.53z"/>
	<path d="M323,262.76c-1.53-4.39-3.16-8.77-4.69-13.26C321.57,251.85,323.71,258.17,323,262.76z"/>
	<path d="M305.45,389.44c3.06-5,7.24-8.67,12.14-11.63C314.33,382.5,309.43,385.56,305.45,389.44z"/>
	<path d="M630.3,212.68c1.94-3.67,2.55-7.65,2.65-11.83C637.18,208.04,630.88,213.83,630.3,212.68z"/>
	<path d="M574.61,407.39c-0.51-0.31-1.02-0.51-1.12-1.22c8.22,1.05,1.81,6.55,2.24,12.44C572.11,414.36,578.92,408.82,574.61,407.39
		z"/>
	<path d="M216.21,159.13c3.06,4.18,4.49,8.87,5.1,13.87C219.89,173.48,221.14,175.7,216.21,159.13z"/>
	<path d="M640.4,390.86c3.26-4.59,7.45-8.16,10.51-10.2C639.9,393.05,641.35,391.81,640.4,390.86z"/>
	<path d="M567.47,263.17c2.05,3.59-0.69,6.84,1.02,10.81c0.4,0.92-0.2,2.45-1.94,2.96C567.37,272.45,565.54,267.96,567.47,263.17z"
		/>
	<path d="M599.3,355.78c-3.37-3.06-7.96-3.16-11.83-5C592.16,350.78,596.75,351.09,599.3,355.78z"/>
	<path d="M221.82,210.74c1.94-3.88,5.41-5.41,8.87-6.94C231.57,205.56,233.01,204.24,221.82,210.74z"/>
	<path d="M611.54,199.42c-1.36,0.68-0.35,2.38-7.34-10.91c0.31-0.2,0.51-0.41,0.82-0.61C607.97,191.36,609.8,195.34,611.54,199.42z"
		/>
	<path d="M231.2,275.31c0.1-4.59-0.82-8.98,0.41-13.26c2.9,0.36-0.29,5.55,1.33,10.51C233.27,273.56,232.53,274.69,231.2,275.31z"/>
	<path d="M263.84,355.06c-3.47-3.88-7.96-3.98-12.44-5.81C258.33,348.74,262.72,350.68,263.84,355.06z"/>
	<path d="M365.53,425.03c-2.24-4.39-4.39-8.77-4.59-13.77C362.98,415.75,364.61,420.24,365.53,425.03z"/>
	<path d="M269.45,186.37c2.96,3.37,4.69,7.45,6.53,11.53c-0.41,0.2-0.71,0.41-1.12,0.61C267.68,184.86,268.07,187.29,269.45,186.37z
		"/>
	<path d="M604.6,551.5c4.69,0,9.38,0,14.08,0C615.99,552.03,604.6,554.27,604.6,551.5z"/>
	<path d="M697.01,412.69c9.33,26.75,0.25,7.96-0.92,0.31C696.4,412.9,696.7,412.79,697.01,412.69z"/>
	<path d="M327.69,187.9c-1.43,3.06-2.86,6.12-4.59,9.79C321.87,193.2,323.81,189.73,327.69,187.9z"/>
	<path d="M269.04,550.79c0-1.26-2.23-0.92,13.87-0.92C278.32,550.89,273.73,551.71,269.04,550.79z"/>
	<path d="M546.36,146.18c1.94,2.96,2.75,6.32,3.37,9.69C546.67,152.2,545.65,149.34,546.36,146.18z"/>
	<path d="M219.78,64.18c0.2,5.2-1.33,11.22-3.47,13.36C219.32,62.18,218.65,64.18,219.78,64.18z"/>
	<path d="M525.76,113.44c6.02,0.71,9.38,3.26,10.81,9.08c-2.14-1.84-3.67-3.77-4.59-6.02C529.94,115.48,527.49,115.58,525.76,113.44
		z"/>
	<path d="M560.85,388.82c4.28,2.14,5.61,7.24,9.89,9.38C565.13,397.29,564.01,391.99,560.85,388.82z"/>
	<path d="M339.93,101.71c1.12,3.57,5.1,6.12,3.47,10.61C342.48,108.75,339.52,105.79,339.93,101.71z"/>
	<path d="M706.59,444.21c1.4,0,1.09-1.55,2.14,11.02C707.51,451.65,704.76,448.18,706.59,444.21z"/>
	<path d="M702.31,520.7c0.51-5.1,0.1-10.1-0.92-15.1C703.13,510.5,703.84,515.5,702.31,520.7z"/>
	<path d="M225.69,386.99c3.77,2.45,5.1,7.45,9.59,9.38C231.71,396.17,226.2,390.35,225.69,386.99z"/>
	<path d="M703.84,381.58c2.65,1.63,5.51,3.77,7.24,7.24C708.53,386.27,706.08,383.72,703.84,381.58z"/>
	<path d="M702.21,528.45c0.31,4.08-0.82,8.26,0.61,12.34C700.68,536.72,700.27,532.64,702.21,528.45z"/>
	<path d="M228.55,189.83c-3.67-2.55-5.1-6.22-3.06-8.87C227.33,183.71,226.82,187.18,228.55,189.83z"/>
	<path d="M261.6,356.9c6.32-0.7,13.29,1.24,10.51,1.94C259.77,357.78,261.6,357.9,261.6,356.9z"/>
	<path d="M366.34,519.07c0.82-5.2,0.41-10.3-0.92-15.4C367.77,507.34,368.28,516.42,366.34,519.07z"/>
	<path d="M603.89,277.24c-3.37,3.47-4.08,8.36-6.02,12.65C598.48,283.77,599.4,280.2,603.89,277.24z"/>
	<path d="M372.56,442.37c0,3.37,0,6.32,0,9.28C369.81,447.47,369.61,444.41,372.56,442.37z"/>
	<path d="M608.37,358.94c-0.76,1.9,1.76,1.75-11.42,0.2C600.83,357.51,604.6,359.25,608.37,358.94z"/>
	<path d="M366.55,526.92c0.31,4.08-0.71,8.26,0.82,12.24C364.61,535.29,365.02,531.11,366.55,526.92z"/>
	<path d="M375.42,387.5c-2.45-2.65-4.9-5.3-6.32-6.73C371.03,381.38,374.2,384.23,375.42,387.5z"/>
	<path d="M268.02,275.51c-2.55,3.98-4.18,8.47-6.02,12.85C262.37,283.81,264.04,277.68,268.02,275.51z"/>
	<path d="M338.91,348.64c-12.91,10.12-11.12,8.87-11.83,8.16C328.48,355.56,337.57,347.31,338.91,348.64z"/>
	<path d="M253.95,27.05c-3.47-1.02-6.94,0.82-10.4,0.41C246.91,24.71,250.38,25.01,253.95,27.05z"/>
	<path d="M652.13,249.91c0.92,2.96,1.84,5.71,2.75,8.57C650.19,252.36,650.19,252.36,652.13,249.91z"/>
	<path d="M636.01,386.38c-1.43-4.08,0.71-8.16-0.31-12.34C637.95,378.12,635.91,382.3,636.01,386.38z"/>
	<path d="M544.93,206.36c-2.24-3.26-4.18-6.22-6.22-9.18C542.38,199.22,544.63,202.89,544.93,206.36z"/>
	<path d="M657.03,266.53c-2.04-1.33-2.86-0.92-3.16,0.71c-0.1-2.86,1.53-4.9,3.67-7.04C658.56,262.76,655.6,264.09,657.03,266.53z"
		/>
	<path d="M230.18,199.42c0.2-3.57-1.33-6.53-1.53-9.69C231.51,192.59,232.42,197.28,230.18,199.42z"/>
	<path d="M567.58,262.15c0.51-2.65-0.1-5.3,1.43-7.65C570.74,257.76,570.33,259.9,567.58,262.15z"/>
	<path d="M545.55,129.35c-2.24-2.14-2.55-5-3.06-7.75C544.83,123.64,545.75,126.29,545.55,129.35z"/>
	<path d="M232.22,260.92c-0.2-3.06-0.1-5.51,0.92-7.96C234.97,255.72,234.87,257.15,232.22,260.92z"/>
	<path d="M617.35,204.93c-0.88-0.88,5.39-10.36,4.49-4.08C621.33,203.4,618.78,203.5,617.35,204.93z"/>
	<path d="M322.18,198.1c-0.2,2.24,1.94,3.26,3.26,5.71C318.9,202,319.34,197.49,322.18,198.1z"/>
	<path d="M300.45,373.83c1.02,3.67,0.1,7.24-0.2,10.91C299.03,381.17,300.86,377.5,300.45,373.83z"/>
	<path d="M374.6,456.65c1.33,3.37,1.02,5.92-0.31,8.47C373.58,462.46,373.28,459.91,374.6,456.65z"/>
	<path d="M317.49,236.96c0.1,2.86,0.31,5.81,0.51,8.67C315.96,242.87,315.86,240.02,317.49,236.96z"/>
	<path d="M566.56,203.5c-1.63,1.94-3.67,2.55-5.92,3.88C562.38,202.89,563.6,202.07,566.56,203.5z"/>
	<path d="M285.77,256.33c-1.63,2.86-3.47,5.71-6.63,7.34C285.63,254.8,285.15,255.72,285.77,256.33z"/>
	<path d="M710.16,459c0.82,2.65,1.12,5.2-0.2,7.65C709.04,464.1,709.14,461.55,710.16,459z"/>
	<path d="M385.11,396.17c-3.26-0.82-6.02-1.02-8.77,0.2C380.01,393.31,381.95,393.21,385.11,396.17z"/>
	<path d="M278.22,370.16c-2.35-1.84-4.59-3.67-7.24-5.1C274.24,365.57,277,366.79,278.22,370.16z"/>
	<path d="M606.54,366.49c3.26,0.51,6.02,1.84,7.34,5.2C611.43,369.85,609.09,368.02,606.54,366.49z"/>
	<path d="M720.47,398c-2.86-1.22-5.3-1.12-7.85-0.41C715.88,394.84,718.12,394.84,720.47,398z"/>
	<path d="M224.88,102.73c-0.71,3.37-1.22,6.22-3.47,8.26C222.02,108.24,222.63,105.49,224.88,102.73z"/>
	<path d="M621.33,257.86c-1.63,2.96-3.47,5.81-6.63,7.55C621.37,256.74,620.38,256.91,621.33,257.86z"/>
	<path d="M542.79,190.14c-1.33-2.75-1.33-5.51-0.61-8.47C542.79,184.53,543.71,187.28,542.79,190.14z"/>
	<path d="M298.31,359.14c1.22,2.65,2.04,5.51,1.63,8.57C298.82,364.96,298.01,362.2,298.31,359.14z"/>
	<path d="M345.03,413.71c2.65,0.71,5.41,1.02,7.55,3.06C349.72,416.67,347.37,415.24,345.03,413.71z"/>
	<path d="M634.08,360.67c1.33,2.86,1.73,5.81,1.73,8.98C634.48,366.79,633.67,363.84,634.08,360.67z"/>
	<path d="M309.43,367.92c-2.24,1.94-4.59,3.57-7.55,4.08C304.13,370.06,306.47,368.53,309.43,367.92z"/>
	<path d="M244.15,252.76c1.73,2.75,4.49,4.18,7.34,5.51C248.34,257.35,244.87,256.74,244.15,252.76z"/>
	<path d="M645.7,369.34c-2.24,2.14-5.1,3.26-8.06,4.28C640.09,371.69,642.34,369.55,645.7,369.34z"/>
	<path d="M571.55,406.78c-2.96-1.63-0.92-4.59-2.24-6.32C571.86,401.98,571.55,404.23,571.55,406.78z"/>
	<path d="M558.19,203.5c-1.53,2.75-2.75,5.2-4.18,7.96C554.52,206.87,555.24,205.44,558.19,203.5z"/>
	<path d="M549.22,212.07c0-3.57,1.12-5.81,2.86-7.85C551.46,206.66,550.95,209.21,549.22,212.07z"/>
	<path d="M236.2,405.25c-3.37-1.43-1.12-4.49-2.45-6.22C236.61,400.25,235.59,402.9,236.2,405.25z"/>
	<path d="M652.95,238.59c0.2,2.96,0.51,5.81,0.71,8.57C651.62,244.2,651.62,241.75,652.95,238.59z"/>
	<path d="M222.02,115.48c-1.12,2.35,0.82,4.59-0.2,6.94C221.1,120.07,220.08,117.83,222.02,115.48z"/>
	<path d="M308.82,259.9c2.14-1.43,2.96-4.59,5.81-5.41C312.49,256.13,311.67,259.09,308.82,259.9z"/>
	<path d="M375.83,411.47c1.33,1.84,3.77,3.16,3.26,5.92C377.66,415.65,376.03,414.02,375.83,411.47z"/>
	<path d="M292.4,368.83c2.35,2.04,3.98,3.57,5.61,5.1C295.15,373.63,293.52,372.2,292.4,368.83z"/>
	<path d="M288.73,286.83c1.84,2.55,0.92,5.41,0.82,8.16C289.54,292.24,288.52,289.58,288.73,286.83z"/>
	<path d="M307.39,381.58c1.43-2.75,3.88-3.77,6.63-3.98C311.78,378.93,309.63,380.26,307.39,381.58z"/>
	<path d="M217.23,199.22c-0.92,2.75-2.04,5.3-3.06,7.85C213.96,204.01,215.09,201.46,217.23,199.22z"/>
	<path d="M636.01,389.44c-0.1,3.26-1.84,5.3-2.55,7.75C632.96,394.43,634.48,392.39,636.01,389.44z"/>
	<path d="M688.13,418.5c-2.45-0.41-4.79-1.33-6.73-3.06C683.65,416.46,686.4,416.26,688.13,418.5z"/>
	<path d="M711.69,413.61c1.63,1.53,3.37,2.86,3.06,5.3C713.53,417.28,711.9,415.85,711.69,413.61z"/>
	<path d="M242.11,25.11c0-2.24-2.55-3.67-1.73-6.22C240.07,21.24,244.26,22.36,242.11,25.11z"/>
	<path d="M624.69,288.26c0.82,2.04,1.22,4.18,0.71,6.43C624.49,292.64,624.18,290.5,624.69,288.26z"/>
	<path d="M628.26,371.49c0.91-0.46-0.88-1.77,5.92,4.39C630.71,375.36,629.39,373.53,628.26,371.49z"/>
	<path d="M613.07,192.69c0.61-1.94,1.33-3.47,3.77-4.08C616.13,190.96,615,192.18,613.07,192.69z"/>
	<path d="M273.73,325.38c2.35,0.2,4.59,0.92,6.53,2.45C277.91,327.42,275.77,326.61,273.73,325.38z"/>
	<path d="M607.46,356.9c2.75,2.14,4.79,3.57,5.61,6.32C607.55,358.4,608.25,358.8,607.46,356.9z"/>
	<path d="M339.82,93.76c0.92,1.73,1.84,3.47,0,6.02C338.62,92.85,338.76,93.76,339.82,93.76z"/>
	<path d="M542.49,173.72c1.12-1.84,2.24-3.77,3.26-5.71C545.95,170.56,544.12,172.09,542.49,173.72z"/>
	<path d="M300.25,389.74c-0.82,2.04-1.53,4.18-2.35,6.22C297.5,393.52,298.31,391.37,300.25,389.74z"/>
	<path d="M631.53,346.5c-2.24-0.92-4.49,0.41-6.63,0C627.14,345.99,629.28,345.27,631.53,346.5z"/>
	<path d="M276.89,190.85c1.22-1.63,1.94-3.26,3.98-3.88C279.95,190.14,279.75,190.34,276.89,190.85z"/>
	<path d="M642.24,383.21c1.84-2.45,3.67-3.37,5.81-3.57C646.32,380.87,644.89,382.4,642.24,383.21z"/>
	<path d="M362.57,538.25c-0.51-1.94-0.82-3.37,0.92-5C363.9,535.19,364.1,536.72,362.57,538.25z"/>
	<path d="M211.21,113.75c-0.41,1.73,0.1,3.67-1.53,4.9C210.39,117.01,209.68,115.07,211.21,113.75z"/>
	<path d="M309.33,175.25c2.04,1.84,2.14,3.77,2.55,5.61C310.96,179.33,309.23,178.1,309.33,175.25z"/>
	<path d="M342.68,148.83c-0.71-2.35-1.22-3.88-0.61-5.92C343.19,144.75,343.8,146.28,342.68,148.83z"/>
	<path d="M639.69,551.61c-3.06,0.82-5-0.31-7.75-0.92C634.79,550.38,636.83,551.1,639.69,551.61z"/>
	<path d="M584.1,258.88c-2.55-0.51-3.98-2.14-4.39-4.79C580.43,256.33,583.28,256.64,584.1,258.88z"/>
	<path d="M289.13,344.97c2.14-0.31,4.39-1.53,6.53,0.1C293.52,344.36,291.38,345.27,289.13,344.97z"/>
	<path d="M699.05,527.23c0.51,1.53,0.92,3.06-0.51,4.49C697.72,529.98,698.03,528.56,699.05,527.23z"/>
	<path d="M574.61,261.33c-1.33-1.02-3.57-1.33-3.47-4.08C572.78,258.58,574,259.6,574.61,261.33z"/>
	<path d="M272.51,357.92c-0.1-1.73-2.04-2.24-2.45-3.88c0.57,0.43,6.9,4.84,7.55,7.45C274.23,359.56,275.37,358.4,272.51,357.92z"/>
	<path d="M724.85,440.64c-0.61,2.04,0.1,3.77-1.63,5.1C723.73,444.21,722.61,442.47,724.85,440.64z"/>
	<path d="M630.41,263.17c-1.33-0.92-2.86-1.63-3.37-3.37C628.57,260.62,629.79,261.54,630.41,263.17z"/>
	<path d="M576.04,249.3c-1.53-1.63-3.06-2.55-2.55-4.59C574.82,245.62,575.94,246.75,576.04,249.3z"/>
	<path d="M220.8,143.53c0.31,1.53,0.92,3.06,0.2,4.69C220.59,146.69,220.19,145.16,220.8,143.53z"/>
	<path d="M707.41,480.01c0.51-1.22-0.31-2.86,1.43-4.39C709.65,477.87,708.84,479.09,707.41,480.01z"/>
	<path d="M303.72,550.18c-2.75,0.61-4.59-0.41-7.45-0.92C299.23,548.75,301.07,549.46,303.72,550.18z"/>
	<path d="M387.35,444.21c1.02-1.43-0.31-3.37,1.43-4.69C388.17,441.05,389.29,442.98,387.35,444.21z"/>
	<path d="M362.67,530.49c-0.41-2.04-0.61-3.47,0.92-4.69C363.49,527.13,364.41,528.76,362.67,530.49z"/>
	<path d="M238.65,259.8c-1.73-1.02-3.06-1.84-3.67-4.28C236.91,256.84,238.34,257.56,238.65,259.8z"/>
	<path d="M337.27,175.25c-0.92,2.55-0.92,2.55-2.55,3.57C335.34,177.6,335.64,176.27,337.27,175.25z"/>
	<path d="M648.76,232.67c0.41,2.14-0.31,3.26-1.33,4.28C647.34,235.63,647.13,234.3,648.76,232.67z"/>
	<path d="M698.64,534.88c1.02,1.73,0.51,3.16-0.2,4.49C697.01,537.94,698.03,536.61,698.64,534.88z"/>
	<path d="M697.93,379.95c1.33,0.2,2.86-0.2,3.67,1.53C699.76,382.09,698.84,380.97,697.93,379.95z"/>
	<path d="M258.54,29.81c-2.04-0.31-3.26-1.63-4.49-2.86C256.19,26.85,257.21,28.58,258.54,29.81z"/>
	<path d="M371.95,478.27c-0.2-1.43-0.1-2.65,1.22-3.57C373.58,476.03,373.69,477.36,371.95,478.27z"/>
	<path d="M328.91,210.44c1.94,0.92,2.75,2.04,3.16,4.18C330.24,213.39,329.52,212.27,328.91,210.44z"/>
	<path d="M321.47,104.06c0.61,1.22,1.73,2.35,1.02,4.18C320.75,106.91,321.06,105.49,321.47,104.06z"/>
	<path d="M327.69,198.2c2.14-0.2,3.47,1.12,4.79,2.24C330.95,199.83,329.01,199.93,327.69,198.2z"/>
	<path d="M614.9,329.06c-2.04,0-3.67-1.02-5.3-2.14C611.43,327.32,613.58,327.22,614.9,329.06z"/>
	<path d="M262.11,291.42c-0.71,1.63-0.71,2.96-1.94,4.39C260.17,293.15,260.17,293.15,262.11,291.42z"/>
	<path d="M327.38,205.34c1.73,0.92,2.35,2.04,2.45,3.57C328.91,207.99,327.48,207.38,327.38,205.34z"/>
	<path d="M240.48,247.77c-1.53-1.73-3.16-2.55-2.24-4.69C239.26,244.3,240.38,245.32,240.48,247.77z"/>
	<path d="M237.93,31.34c-1.63-0.61-2.65-1.22-3.47-2.24C235.89,28.99,237.12,29.3,237.93,31.34z"/>
	<path d="M544.02,136.8c1.12,0.92,1.73,2.04,1.84,3.47C544.63,139.45,543.91,138.33,544.02,136.8z"/>
	<path d="M320.85,364.24c0.61-1.63,1.63-2.86,3.16-3.67C323.51,362.2,322.28,363.22,320.85,364.24z"/>
	<path d="M290.97,257.86c1.94,0.82,2.86,2.04,3.47,3.47C293.21,260.52,291.68,260.01,290.97,257.86z"/>
	<path d="M307.39,378.83c-1.63,1.63-2.96,2.14-4.49,2.24C304.02,380.15,305.15,379.14,307.39,378.83z"/>
	<path d="M322.08,274.08c-1.33,1.73-2.35,2.65-3.88,2.55C319.12,275.61,319.94,274.49,322.08,274.08z"/>
	<path d="M584.2,235.02c-1.53-0.41-2.55-0.82-2.96-2.75C582.77,232.98,583.59,233.59,584.2,235.02z"/>
	<path d="M363.18,519.89c0.92,1.22,0.51,2.04-0.61,3.16C362.06,521.62,362.06,520.7,363.18,519.89z"/>
	<path d="M325.55,269.9c0,3.17-1.78,1.21-1.02-1.33C325.24,268.78,325.55,269.29,325.55,269.9z"/>
	<path d="M657.03,276.12c-1.22,1.53-1.22,1.53-3.16,2.14C655.19,276.84,655.19,276.84,657.03,276.12z"/>
	<path d="M315.04,251.34c0.61-0.92-0.1-2.04,0.82-2.86C316.88,249.91,316.88,249.91,315.04,251.34z"/>
	<path d="M339.62,154.95c-0.2-1.53-0.2-2.65,1.43-3.37C341.05,152.91,340.95,154.03,339.62,154.95z"/>
	<path d="M565.23,376.38c-0.2-1.73,0.61-2.65,2.24-2.96C566.76,374.34,565.95,375.36,565.23,376.38z"/>
	<path d="M362.26,378.42c1.43,0,2.86-0.2,3.77,1.53C364.3,380.36,363.18,379.54,362.26,378.42z"/>
	<path d="M319.53,94.27c0.61,1.22,1.22,2.04,0.71,3.67C319.12,96.82,318.92,95.8,319.53,94.27z"/>
	<path d="M583.28,269.7c-0.92-0.41-1.94-0.31-2.24-1.63C582.16,268.17,583.08,268.06,583.28,269.7z"/>
	<path d="M312.9,231.55c0.92,1.12,0.31,1.94-0.71,3.06C311.67,233.28,311.37,232.26,312.9,231.55z"/>
	<path d="M626.43,187.59c-0.61,1.43-1.63,1.84-2.75,1.84C624.39,188.71,624.9,187.69,626.43,187.59z"/>
	<path d="M309.63,327.63c-0.2-2.04,0-3.16,1.22-4.08C311.06,324.98,310.45,325.89,309.63,327.63z"/>
	<path d="M597.36,292.95c0.1,1.63-0.51,2.65-1.33,4.08C595.73,295.19,595.73,293.97,597.36,292.95z"/>
	<path d="M241.4,276.73c-1.84-0.41-2.86-0.82-3.37-2.45C239.36,274.8,240.38,275.2,241.4,276.73z"/>
	<path d="M315.45,270.61c-1.02,1.12-1.73,2.14-3.57,1.84C312.9,271.33,313.61,270.41,315.45,270.61z"/>
	<path d="M577.06,278.36c-1.94-0.51-2.96-0.82-3.47-2.55C575.02,276.22,575.94,276.84,577.06,278.36z"/>
	<path d="M582.47,122.62c1.53-0.61,2.35,0.1,3.26,0.71C584.51,123.95,583.49,123.95,582.47,122.62z"/>
	<path d="M243.13,34.29c0.92,0.61,2.35,0.82,2.04,2.75C243.75,36.54,243.24,35.62,243.13,34.29z"/>
	<path d="M571.25,393.72c-0.41-1.43,0.31-1.84,1.63-2.45C572.68,392.8,572.06,393.21,571.25,393.72z"/>
	<path d="M374.81,468.89c-1.99-1.77,0.29-3.46,0.71-1.33C375.52,468.07,375.73,468.79,374.81,468.89z"/>
	<path d="M235.69,392.19c-0.89-1.04,0.61-2.6,1.53-1.94C237.01,391.17,236.61,391.78,235.69,392.19z"/>
	<path d="M710.37,470.83c-0.61-1.02-0.92-1.84-0.1-2.86C711.39,468.99,711.39,469.81,710.37,470.83z"/>
	<path d="M539.73,127.52c-3.19-3.19-0.16-2.98,0.41-0.41C540.14,127.21,539.94,127.31,539.73,127.52z"/>
	<path d="M572.37,272.96c-1.73-0.82-2.55-1.22-2.86-2.96C570.74,270.72,571.45,271.33,572.37,272.96z"/>
	<path d="M319.53,262.76c-0.51,0.71-0.41,1.73-2.04,2.04C318.3,263.78,318.2,262.56,319.53,262.76z"/>
	<path d="M647.74,274.18c0.71-1.43,1.63-1.84,2.86-1.94C650.09,273.37,649.38,274.18,647.74,274.18z"/>
	<path d="M587.87,260.21c-1.84-0.2-2.75-0.61-3.67-1.33C585.32,258.68,586.45,258.58,587.87,260.21z"/>
	<path d="M647.13,259.5c-0.51,1.43-1.33,2.04-3.16,2.45C644.89,260.41,645.7,259.8,647.13,259.5z"/>
	<path d="M647.64,258.17c0.82-1.33,1.43-2.04,2.86-2.35C649.89,257.05,649.27,257.76,647.64,258.17z"/>
	<path d="M236.4,271.12c-1.53-0.61-2.35-1.12-2.65-2.86C235.08,269.08,235.89,269.7,236.4,271.12z"/>
	<path d="M547.28,212.17c1.02,1.02,1.33,1.73,0.92,2.96C547.28,214.21,547.08,213.5,547.28,212.17z"/>
	<path d="M555.85,213.19c0.51-1.53,1.12-2.24,2.24-2.55C557.99,212.07,557.17,212.48,555.85,213.19z"/>
	<path d="M698.33,524.68c-0.71-1.43-0.31-2.24,0.51-3.26C699.35,522.54,699.35,523.46,698.33,524.68z"/>
	<path d="M247.32,268.17c-0.51-0.61-1.43-0.41-1.94-1.43C246.21,266.14,248.2,266.69,247.32,268.17z"/>
	<path d="M248.44,233.18c-1.73-0.41-2.55-0.92-2.86-2.14C247.11,230.94,247.52,231.96,248.44,233.18z"/>
	<path d="M375.01,404.63c-0.1-0.82-0.61-1.53,1.02-1.84C376.13,403.61,376.13,404.33,375.01,404.63z"/>
	<path d="M288.83,311.82c-0.31-0.71-0.31-1.33,0.2-2.75C288.93,310.49,289.34,311.21,288.83,311.82z"/>
	<path d="M239.26,189.63c0.1,1.22,0.71,1.94-0.41,3.26C238.95,191.67,238.24,190.85,239.26,189.63z"/>
	<path d="M605.42,198.91c-1.33-0.1-2.04-0.92-2.55-1.94C604.83,197.51,605.71,198.62,605.42,198.91z"/>
	<path d="M315.04,188.61c-0.41-1.12-1.63-1.63-0.51-2.86C315.24,186.37,315.65,186.98,315.04,188.61z"/>
	<path d="M644.99,328.34c0.2-1.02,0.31-1.84,1.43-2.65C646.21,326.81,646.52,327.93,644.99,328.34z"/>
	<path d="M313.51,365.77c-0.71,0-0.92,1.02-1.94,0.61C312.29,365.98,312.59,365.26,313.51,365.77z"/>
	<path d="M211.62,150.26c-1.02-0.51-1.73-1.02-1.63-2.24C211.21,148.12,211.62,148.73,211.62,150.26z"/>
	<path d="M616.64,329.87c-0.61-0.31-1.53,0.1-1.73-0.92C615.62,328.95,616.43,328.85,616.64,329.87z"/>
	<path d="M297.09,346.7c-0.51-0.71-0.92-1.22-1.33-1.73C296.58,344.97,297.19,345.38,297.09,346.7z"/>
	<path d="M624.59,311.92c0.41,0.61,0.51,1.02,0,1.63C624.59,312.94,624.59,312.43,624.59,311.92z"/>
	<path d="M512.6,122.82c0.61,0.82,0.41,1.22-0.31,1.33C511.99,123.74,511.99,123.33,512.6,122.82z"/>
	<path d="M633.16,355.37c0,1.05-1.68-0.43-1.12-1.33C632.65,354.35,633.06,354.76,633.16,355.37z"/>
	<path d="M317.28,199.93c-0.61-0.31-1.12-0.71-0.51-2.14C317.59,198.61,318.1,199.12,317.28,199.93z"/>
	<path d="M650.7,555.99c-4.38,1.1-4.55,1.01-5.1,0.51c0.88,0,1.67,0.09,2.45,0.1C648.87,555.69,649.89,555.79,650.7,555.99z"/>
	<path d="M288.73,187.28c2-2.4,2.72-0.28,0.31,0.41C288.62,187.59,288.52,187.49,288.73,187.28z"/>
	<path d="M315.24,554.46c-0.61,0-1.12,0-1.63,0C314.12,554.16,314.63,554.26,315.24,554.46z"/>
	<path d="M329.73,185.45c0.31-0.71,0.31-1.53,1.94-1.43C330.85,184.63,331.36,185.75,329.73,185.45z"/>
	<path d="M542.59,132.92c-0.92-0.51-1.43-1.02-1.12-2.04C542.28,131.39,542.79,131.8,542.59,132.92z"/>
	<path d="M240.28,417.18c0.31,0.61,1.02,0.92,1.02,1.63C240.58,418.5,240.28,417.89,240.28,417.18z"/>
	<path d="M538.81,118.54c0.71,0,1.22,0.31,1.33,1.22C539.12,119.97,538.71,119.46,538.81,118.54z"/>
	<path d="M369.81,483.68c-0.1-1.02,0.2-1.43,1.02-1.43C371.34,483.17,370.93,483.58,369.81,483.68z"/>
	<path d="M367.67,488.27c-0.31-0.71,0-1.12,0.82-1.43C368.79,487.86,368.48,488.27,367.67,488.27z"/>
	<path d="M604.47,354.03c-1.83-0.61-3.44-1.22-4.66-3.15c2.15-0.06,25.48,6.94,25.8,16.63c-5.41-7.65-13.26-10.51-21.11-13.46
		C607.21,356.21,603.64,355.86,604.47,354.03z"/>
	<path d="M711.59,404.63c0.1,0.51,0.1,1.12-1.02,2.24C710.78,405.55,709.96,404.63,711.59,404.63z"/>
	<path d="M639.38,381.99c0.82-0.51,1.33-1.33,2.45-0.82C641.11,381.79,640.6,382.5,639.38,381.99z"/>
	<path d="M317.49,377.71c0.51-0.31,0.82-0.82,1.53-0.71C318.61,377.71,318.1,377.81,317.49,377.71z"/>
	<path d="M310.86,555.07c-0.31,0.31-0.61,0.2-0.92,0.1C310.25,554.87,310.55,554.87,310.86,555.07z"/>
	<path d="M318,367.51c0.2-0.41,0.31-0.82,0.82-0.82C318.92,367.2,318.61,367.51,318,367.51z"/>
	<path d="M298.21,39.29c0.31,0.82-0.2,1.02-0.71,1.33C297.09,39.8,297.4,39.39,298.21,39.29z"/>
	<path d="M647.03,368.22c-0.31,0.61-0.82,0.82-1.43,1.02C645.81,368.43,646.32,368.22,647.03,368.22z"/>
	<path d="M552.89,164.54c-0.61-0.31-0.82-0.61-0.51-1.12C552.89,163.62,553.3,163.93,552.89,164.54z"/>
	<path d="M544.53,160.87c0.31,0.51,0.41,1.02-0.2,1.43C544.02,161.68,543.51,161.17,544.53,160.87z"/>
	<path d="M296.17,352.82c-0.31-0.31-0.61-0.71-0.82-1.02C296.07,351.8,296.68,352,296.17,352.82z"/>
	<path d="M603.07,596.48c-1.33,0.51-1.43-0.92-2.14-1.33C601.64,595.36,602.87,594.95,603.07,596.48z"/>
	<path d="M372.67,451.55c0.61,0.61,0.51,1.33,0,2.04C372.67,452.88,372.67,452.26,372.67,451.55z"/>
	<path d="M634.59,411.88c0.82-0.61,1.43-0.92,1.84,0.2C635.81,412.49,635.3,412.79,634.59,411.88z"/>
	<path d="M268.84,274.29c-0.1,0.61-0.2,1.12-0.92,1.22C267.92,274.9,268.12,274.39,268.84,274.29z"/>
	<path d="M304.33,273.37c0.51,0.2,0.92,0.41,0.51,1.02C304.53,274.08,304.02,273.98,304.33,273.37z"/>
	<path d="M641.32,277.04c-0.2-0.2-0.41-0.51-0.61-0.71C641.11,276.22,641.73,276.43,641.32,277.04z"/>
	<path d="M294.64,403.61c0,0.31,0,0.61,0,0.92C294.6,404.39,294.42,403.61,294.64,403.61z"/>
	<path d="M317.39,267.55c-0.1-0.61,0.31-0.92,1.02-1.43C318.3,267.15,318.1,267.66,317.39,267.55z"/>
	<path d="M646.01,412.39c0,0.31-0.51,0.31-1.02-0.31C645.6,411.77,646.11,411.57,646.01,412.39z"/>
	<path d="M316.57,232.16c0.1-0.92,0.41-1.53,1.12-2.04C317.39,230.73,318.1,231.86,316.57,232.16z"/>
	<path d="M302.9,403.72c0.51,0.51,0.2,0.92-0.2,1.22C302.49,404.43,302.29,404.02,302.9,403.72z"/>
	<path d="M641.93,412.08c-1.02-0.41-1.84,0-1.84-1.12C640.71,410.65,641.22,410.65,641.93,412.08z"/>
	<path d="M312.49,408.92c-1.12,0.2-1.63-0.1-0.92-1.33C312.29,407.8,312.59,408.2,312.49,408.92z"/>
	<path d="M316.77,192.49c0.2-0.2,0.61,0.2,0.61,1.12C316.77,193.2,316.16,193,316.77,192.49z"/>
	<path d="M305.86,410.14c-0.71,0.2-1.22,0.2-1.43-0.61C305.25,408.92,305.76,408.92,305.86,410.14z"/>
	<path d="M299.03,410.24c0.61-0.51,1.12-0.71,1.73,0.1C300.15,410.96,299.64,411.26,299.03,410.24z"/>
	<path d="M260.47,393.62c1.53,4.08,0,8.47,2.14,12.24C258.64,403.31,257.82,398.11,260.47,393.62z"/>
	<path d="M266.18,383.32c-3.06,3.37-5.92,6.63-8.98,10.1C258.43,388.42,262.82,383.42,266.18,383.32z"/>
	<path d="M246.91,460.02c-2.14-3.06-1.94-5.3,0.71-7.75C248.13,455.02,247.21,457.47,246.91,460.02z"/>
	<path d="M248.34,435.44c0.82,4.18,0.2,8.36-0.82,12.44C247.42,443.7,247.11,439.52,248.34,435.44z"/>
	<path d="M278.63,399.53c-0.92-2.35-3.37-3.88-3.88-6.63C277.81,392.9,279.85,396.47,278.63,399.53z"/>
	<path d="M275.57,406.98c0.41-2.65,1.73-5,3.16-7.34C280.16,403.1,277.51,404.94,275.57,406.98z"/>
	<path d="M251.19,406.98c-1.43-1.94-2.65-4.08-4.08-6.12C249.87,401.98,251.19,404.02,251.19,406.98z"/>
	<path d="M270.98,428.09c-1.53,1.22-3.16,2.35-5.2,2.65C267.2,429.21,268.33,427.28,270.98,428.09z"/>
	<path d="M256.09,424.32c-2.35-3.26-2.35-3.47-1.33-6.53C256.09,419.93,256.09,421.97,256.09,424.32z"/>
	<path d="M260.47,413.3c0.51-2.04,0.82-3.47,1.33-5.51C262.72,410.75,262.72,410.75,260.47,413.3z"/>
	<path d="M273.83,433.29c-0.2,1.63-0.51,2.75-2.35,4.08C272.1,435.44,272.1,434.11,273.83,433.29z"/>
	<path d="M246.5,463.38c1.43,0.61,1.12,1.63,0.51,3.16C245.99,465.22,245.79,464.4,246.5,463.38z"/>
	<path d="M259.35,523.86c-0.82-0.31-0.82-0.71-0.2-1.73C259.66,522.95,260.27,523.35,259.35,523.86z"/>
	<path d="M266.69,463.08c-0.2-0.51-0.31-1.12,0.1-1.73C268.02,462.06,267.51,462.57,266.69,463.08z"/>
	<path d="M271.39,438.29c0.41,1.53-0.2,1.94-1.33,2.55C269.96,439.41,270.37,438.9,271.39,438.29z"/>
	<path d="M246.4,471.75c-0.71-0.1-0.92-0.61-0.71-1.84C246.6,470.52,247.01,470.93,246.4,471.75z"/>
	<path d="M261.49,415.34c0.41,0.82,0.2,1.43-0.71,1.84C260.68,416.46,260.17,415.55,261.49,415.34z"/>
	<path d="M269.75,417.18c-0.51-1.02-0.2-1.63,0.82-2.14C271.08,416.26,270.57,416.77,269.75,417.18z"/>
	<path d="M268.43,450.53c0.82,0.92,0.41,1.22-0.2,1.53C267.82,451.45,267.82,451.04,268.43,450.53z"/>
	<path d="M244.36,492.35c0.31,0.51,0.61,0.92,0,1.73C243.75,493.47,243.75,492.96,244.36,492.35z"/>
	<path d="M292.5,143.84c-3.06-1.84-5.92-1.02-9.28,0.1c2.86,0.92,5.61,0.51,7.85,2.24C267.61,149.61,284.35,134.33,292.5,143.84z"/>
	<path d="M272.2,144.14c-8.67,3.06-8.67,3.06-12.04,2.14c0.71-1.94,2.56-0.79,3.77-1.43c2.12-1.11,8.04-0.6-1.22-2.14
		c-1.94,0-2.65,1.73-4.28,0.92C263.23,139.45,270.47,139.76,272.2,144.14z"/>
	<path d="M284.34,167.19c-2.32,2.04-8.42-0.28-11.63,0.31c-1.83,0.34-3.57,0.82-5.71-0.51
		C271.08,165.36,281.59,165.56,284.34,167.19z"/>
	<path d="M277.71,169.23c1.84,0.09,2.86,0.82,3.26,2.55c-2.65,1.02-7.04,0.92-10.1-0.2C272.61,168.93,272.61,168.99,277.71,169.23z"
		/>
	<path d="M273.02,160.77c0.66-3.78,5.56-3,5.41,0.31C276.59,160.46,274.96,160.26,273.02,160.77z"/>
	<path d="M188.16,492.86c-9.08,1.22-18.15,1.53-27.33,0.61C169.9,493.57,179.08,492.45,188.16,492.86z"/>
	<path d="M211.21,492.35c7.24-0.2,14.59-0.61,21.93,0.1C225.8,492.45,218.55,493.06,211.21,492.35z"/>
	<path d="M154.91,500.61c0.71-2.24,0.82-4.69,2.75-6.32C157.15,496.53,156.64,498.77,154.91,500.61z"/>
	<path d="M230.59,487.76c-1.73,0.71-3.47,0.82-5.61,0.31C227.12,486.43,228.86,487.15,230.59,487.76z"/>
	<path d="M156.64,492.65c-1.12-0.41-1.84-0.61-2.14-1.84C155.73,490.92,156.34,491.23,156.64,492.65z"/>
	<path d="M312.49,489.49c-0.71,0-1.43,0-2.14,0C311.16,489.39,311.88,488.88,312.49,489.49z"/>
	<path d="M318.81,489.59c-0.31,0.2-0.61,0.1-0.92-0.1C318.3,489.19,318.61,489.08,318.81,489.59z"/>
	<path d="M267.2,8.9c3.67-2.86,16.01-0.71,19.07,3.26C283.22,15.73,269.35,13.28,267.2,8.9z M281.48,12.16
		c3.32,0.55,1-1.54-1.12-1.33C280.67,11.34,280.87,11.96,281.48,12.16z M270.57,9.2c0,1.25-1.87,0.29,9.69,1.73
		C277.2,8.9,273.73,9.71,270.57,9.2z"/>
	<path d="M595.93,395.56c1.22,3.98,0.41,8.16,2.14,11.83C594.1,404.74,593.38,400.96,595.93,395.56z"/>
	<path d="M600.93,384.64c-2.04,3.98-5.51,6.73-8.16,10.1C594.4,390.46,596.95,386.99,600.93,384.64z"/>
	<path d="M583.08,449.82c-0.41-4.39-0.31-8.67,1.02-12.85C584,441.25,584.92,445.64,583.08,449.82z"/>
	<path d="M582.47,461.65c-2.14-3.37-1.73-5.92,0.82-7.45C583.79,456.75,582.67,459.2,582.47,461.65z"/>
	<path d="M610.92,394.13c2.75,1.22,3.77,3.57,3.67,6.43C613.07,398.62,610.62,397.19,610.92,394.13z"/>
	<path d="M614.39,401.37c0.41,3.37-0.61,5.41-3.98,7.65C611.64,406.27,612.76,403.82,614.39,401.37z"/>
	<path d="M586.85,408.51c-1.63-1.94-2.75-4.18-4.18-6.22C585.22,403.61,586.96,405.45,586.85,408.51z"/>
	<path d="M591.24,424.83c-1.22-1.53-2.24-3.06-0.92-5.71C591.75,421.16,591.65,422.99,591.24,424.83z"/>
	<path d="M606.54,429.72c-1.53,0.82-2.65,2.24-5,2.35C603.07,430.13,604.29,428.91,606.54,429.72z"/>
	<path d="M596.54,414.22c0.41-1.33-0.31-3.06,1.43-4.49C598.38,411.67,598.28,413.1,596.54,414.22z"/>
	<path d="M609.6,434.52c-0.41,2.14-0.82,3.26-2.04,3.88C607.56,436.97,607.76,435.74,609.6,434.52z"/>
	<path d="M582.47,467.87c-0.71-1.02-1.02-1.84-0.1-3.37C583.28,465.83,583.69,466.75,582.47,467.87z"/>
	<path d="M579.82,493.88c0.71,0.51,0.92,1.12,0.41,1.84C579.41,495.2,579.2,494.59,579.82,493.88z"/>
	<path d="M597.36,417.08c-0.1,0.82,0.1,1.73-1.33,1.94C596.14,418.1,595.73,417.08,597.36,417.08z"/>
	<path d="M607.05,439.82c0.1,1.43,0.1,2.35-1.53,2.24C605.72,441.25,605.93,440.64,607.05,439.82z"/>
	<path d="M604.4,452.26c0.41,0.51,0.31,1.02-0.31,1.53C603.17,452.77,603.58,452.47,604.4,452.26z"/>
	<path d="M605.31,418.5c-0.1-0.82-0.31-1.63,1.33-1.84C606.44,417.59,606.74,418.5,605.31,418.5z"/>
	<path d="M594.91,431.46c0.68,0.34,0.69,0.25,0.51,0.61C594.74,431.73,594.73,431.82,594.91,431.46z"/>
	<path d="M594.71,519.99c0.61,0.61-0.18,0.75-0.31,0.82C594.01,520.02,594.22,520.23,594.71,519.99z"/>
	<path d="M611.13,410.35c-0.1,0.92-0.2,1.43-1.02,1.33C609.9,410.96,610.21,410.65,611.13,410.35z"/>
	<path d="M659.98,201.77c-2.35-4.9-0.41-12.04,3.98-16.01C662.64,190.96,661.31,196.16,659.98,201.77z"/>
	<path d="M650.09,182.8c0.92,3.88,3.77,7.24,2.14,11.73C648.63,181.2,649.06,183.31,650.09,182.8z"/>
	<path d="M657.94,199.52c-0.61,2.65,2.04,3.37,2.86,5.71C654.8,203.93,654.55,199.88,657.94,199.52z"/>
	<path d="M668.96,177.29c-1.73,2.75-2.55,6.12-5.1,8.47C664.78,182.49,666.61,179.74,668.96,177.29z"/>
	<path d="M680.18,160.26c-0.82,2.24-1.94,4.28-3.67,5.92C676.61,163.42,678.34,161.79,680.18,160.26z"/>
	<path d="M689.46,118.34c-0.2,2.04-1.12,3.16-2.55,3.88C687.01,120.68,687.22,119.05,689.46,118.34z"/>
	<path d="M671,189.63c0.1-1.94,0.61-3.57,2.35-5.3C673.45,186.88,672.32,188.3,671,189.63z"/>
	<path d="M686.2,150.46c-0.1,1.53-0.41,3.06-2.65,4.49C684.36,152.81,684.67,151.38,686.2,150.46z"/>
	<path d="M663.66,126.6c0.1,1.73,0.31,3.47,0.41,5.2C662.74,130.27,663.25,128.43,663.66,126.6z"/>
	<path d="M667.43,216.56c-1.22-1.53-2.14-2.55-2.45-4.08C666.31,213.09,667.63,213.9,667.43,216.56z"/>
	<path d="M665.59,210.85c-1.33-1.22-2.35-1.94-2.55-4.18C664.68,207.99,665.49,208.81,665.59,210.85z"/>
	<path d="M699.15,125.27c-0.71-0.92-1.53-1.94-0.1-3.26C699.97,123.03,699.86,124.15,699.15,125.27z"/>
	<path d="M693.54,159.75c-0.1,1.43-0.41,2.96-1.94,4.79C691.91,162.19,692.21,160.77,693.54,159.75z"/>
	<path d="M669.98,194.83c0.61,1.02,0.2,1.73-1.02,2.96C669.26,196.36,668.75,195.34,669.98,194.83z"/>
	<path d="M665.39,122.11c0.82-1.43,1.53-1.94,2.86-2.14C667.53,121.09,666.82,121.6,665.39,122.11z"/>
	<path d="M654.07,223.49c-0.61-0.82-0.82-1.63-0.1-2.55C654.88,221.76,654.58,222.57,654.07,223.49z"/>
	<path d="M652.84,201.56c-0.61-0.51-1.02-1.02-0.31-2.04C653.05,200.14,653.86,200.54,652.84,201.56z"/>
	<path d="M672.22,173.01c0-1.12,0.41-1.53,1.43-1.63C673.55,172.29,673.04,172.8,672.22,173.01z"/>
	<path d="M614.6,145.47c2.35-4.18,10.3-4.39,13.67-0.1c-1.53,0.1-2.45-1.22-4.28-1.33c-0.92,1.53-3.26,0.2-5.2,1.73
		c2.96,0.51,5.61,0.2,7.85,1.84C618.88,149.04,618.57,149.04,614.6,145.47z"/>
	<path d="M607.56,146.38c-2.14-1.02-2.75,0.82-3.57,1.84c-2.86,0.31-5.61,0.31-8.36-0.41c3.23-2.25,12.82-2.19,5-3.06
		c-0.92-0.1-1.84-0.41-2.55-0.61c-1.53,0.1-2.24,1.73-4.18,1.12C599.3,140.88,606.74,141.39,607.56,146.38z"/>
	<path d="M620.51,168.21c-2.14,1.33-14.79,1.43-17.14,0.2C608.88,166.78,614.39,167.7,620.51,168.21z"/>
	<path d="M613.98,170.86c1.73-0.2,2.55,1.02,2.55,3.16c-3.37,0.2-6.53,0-10.1-0.31C608.07,168.62,611.54,171.37,613.98,170.86z"/>
	<path d="M608.68,162.91c0.31-2.86,1.63-3.06,2.96-2.86c1.22,0.1,2.55,0.51,2.45,2.65C612.35,162.3,610.82,161.58,608.68,162.91z"/>
	<path d="M523.52,494.69c-0.11,0.01-26.72,2.46-26.72,0.1C505.77,495.1,514.64,494.18,523.52,494.69z"/>
	<path d="M569,493.98c-7.24,0-14.59,0.61-21.83,0C554.42,493.67,561.66,493.47,569,493.98z"/>
	<path d="M493.33,495.82c-0.31,2.14-0.92,4.18-2.45,5.92C491.18,499.59,491.49,497.35,493.33,495.82z"/>
	<path d="M561.15,489.49c1.73-1.22,3.57-1.02,5.81,0C564.72,490.21,562.99,490.1,561.15,489.49z"/>
	<path d="M492,493.98c-0.92,0-1.43-0.41-1.84-1.43C491.39,492.55,492.2,492.76,492,493.98z"/>
	<path d="M647.95,490.82c0,0.27,0.35,0.2-2.35,0.2C645.89,490.74,645.11,490.82,647.95,490.82z"/>
	<path d="M654.27,490.82c-0.2,0.51-0.51,0.41-0.82,0.31C653.26,490.92,653.37,490.82,654.27,490.82z"/>
	<path d="M620.21,500.41c0.1,0.31,0,0.71-0.82,0.71c-3.58-8.65-2.08-15.07-3.67-23.05C618.84,479.03,617.16,490.56,620.21,500.41z"
		/>
<path fill="#e6e6e6" d="m206.8 163.6c0-5.1 4.1-9.2 9.3-9.2s9.2 4.2 9.2 9.2-4.1 9.2-9.3 9.2-9.2-4.1-9.2-9.2zm17.3-.1c0-4.5-3.5-8.2-8.2-8.2s-8.2 3.7-8.2 8.3c0 4.5 3.5 8.2 8.2 8.2s8.2-3.7 8.2-8.3zm-13 0c0-2.8 2.1-5.1 5.1-5.1 1.9 0 2.9.6 3.9 1.5l-1.4 1.7c-.8-.7-1.5-1.1-2.5-1.1-1.7 0-2.8 1.4-2.8 3.1s1.1 3 2.8 3c1.1 0 1.7-.5 2.5-1.1l1.4 1.4c-1.1 1.1-2.1 1.7-4 1.7-2.9 0-5-2.3-5-5.1z"/><path fill="#e6e6e6" d="m226.6 154.7h3.4l4.2 13.2 4.4-13.3h2.6l4.4 13.3 4.2-13.2h3.3l-6.2 18h-2.7l-4.4-12.8-4.4 12.8h-2.7z"/><path fill="#e6e6e6" d="m252.8 165.8c0-3.9 3.1-7 7.2-7 4.2 0 7.2 3.2 7.2 7s-3.1 7-7.3 7c-4 0-7.1-3.1-7.1-7zm11.3 0c0-2.3-1.7-4.3-4.2-4.3s-4.1 2-4.1 4.3 1.7 4.3 4.1 4.3c2.7.1 4.2-1.9 4.2-4.3z"/><path fill="#e6e6e6" d="m269.5 159.1h3.1v3c.8-2 2.4-3.4 4.8-3.3v3.2h-.2c-2.7 0-4.6 1.7-4.6 5.4v5.1h-3.1z"/><path fill="#e6e6e6" d="m279.1 153.9h3.1v11.1l5.6-6h3.8l-5.4 5.5 5.5 8h-3.5l-4.1-5.8-1.9 2v3.9h-3.1z"/><path fill="#e6e6e6" d="m291.7 165.8c0-3.9 3.1-7 7.2-7 4.2 0 7.2 3.2 7.2 7s-3.1 7-7.3 7c-4 0-7.1-3.1-7.1-7zm11.3 0c0-2.3-1.7-4.3-4.2-4.3s-4.1 2-4.1 4.3 1.7 4.3 4.1 4.3c2.6.1 4.2-1.9 4.2-4.3z"/><path fill="#e6e6e6" d="m308.2 167.6v-8.6h3.1v7.6c0 2.1 1.1 3.3 2.9 3.3s3-1.3 3-3.3v-7.6h3.1v13.4h-3.1v-2.1c-.8 1.3-2.1 2.3-4.2 2.3-3.1.2-4.8-1.8-4.8-5z"/><path fill="#e6e6e6" d="m323.9 168.8v-7.1h-1.7v-2.6h1.7v-3.7h3.1v3.7h3.6v2.6h-3.6v6.6c0 1.2.6 1.7 1.7 1.7.7 0 1.3-.2 1.9-.5v2.5c-.8.5-1.7.7-2.8.7-2.3 0-3.9-.9-3.9-3.9z"/><path fill="#e6e6e6" d="m333.2 154.7h3.2v15h9.4v2.9h-12.5v-17.9z"/><path fill="#e6e6e6" d="m356 172.5v-1.7c-.9 1.1-2.3 2-4.4 2-2.6 0-4.8-1.4-4.8-4.2 0-3 2.3-4.4 5.4-4.4 1.7 0 2.6.2 3.7.5v-.2c0-1.9-1.2-2.9-3.3-2.9-1.5 0-2.6.3-3.9.8l-.8-2.5c1.5-.7 2.9-1.1 5.1-1.1 4 0 5.9 2.1 5.9 5.7v8zm.1-5.6c-.8-.3-1.9-.5-3.1-.5-2 0-3.1.8-3.1 2.1s1.1 2 2.6 2c2 0 3.5-1.1 3.5-2.9z"/><path fill="#e6e6e6" d="m364.9 170.5v2.1h-3.1v-18.7h3.1v7.4c1-1.4 2.4-2.5 4.5-2.5 3.2 0 6.3 2.5 6.3 7s-3.1 7-6.3 7c-2.1 0-3.5-1.1-4.5-2.3zm7.7-4.7c0-2.6-1.7-4.3-3.9-4.3s-3.9 1.7-3.9 4.4c0 2.6 1.8 4.3 3.9 4.3s3.9-1.7 3.9-4.4z"/><path fill="#e6e6e6" d="m376.9 170.8 1.4-2.1c1.4 1.1 3 1.7 4.4 1.7s2.1-.5 2.1-1.5-1.3-1.4-2.8-1.8c-.1 0-.2-.1-.2-.1-2-.6-4.2-1.4-4.2-4s2.1-4.1 4.8-4.1c1.7 0 3.5.6 5 1.5l-1.2 2.2c-1.3-.8-2.6-1.3-3.8-1.3s-1.9.5-1.9 1.4 1.3 1.4 2.8 1.8c.1 0 .2.1.2.1 2 .6 4.2 1.5 4.2 4 0 2.9-2.2 4.2-5 4.2-1.9 0-4-.7-5.8-2z"/><path fill="#e6e6e6" d="m505.6 163.6c0-5.1 4.1-9.2 9.3-9.2s9.2 4.2 9.2 9.2-4.1 9.2-9.3 9.2-9.2-4.1-9.2-9.2zm17.4-.1c0-4.5-3.5-8.2-8.2-8.2s-8.2 3.7-8.2 8.3c0 4.5 3.5 8.2 8.2 8.2s8.2-3.7 8.2-8.3zm-13.1 0c0-2.8 2.1-5.1 5.1-5.1 1.9 0 2.9.6 3.9 1.5l-1.4 1.7c-.8-.7-1.5-1.1-2.5-1.1-1.7 0-2.8 1.4-2.8 3.1s1.1 3 2.8 3c1.1 0 1.7-.5 2.5-1.1l1.4 1.4c-1.1 1.1-2.1 1.7-4 1.7-2.9 0-5-2.3-5-5.1z"/><path fill="#e6e6e6" d="m525.4 154.7h3.4l4.2 13.2 4.4-13.3h2.6l4.4 13.3 4.2-13.2h3.3l-6.2 18h-2.7l-4.4-12.8-4.4 12.8h-2.7z"/><path fill="#e6e6e6" d="m551.7 165.8c0-3.9 3.1-7 7.2-7 4.2 0 7.2 3.2 7.2 7s-3.1 7-7.3 7c-4.1 0-7.1-3.1-7.1-7zm11.2 0c0-2.3-1.7-4.3-4.2-4.3s-4.1 2-4.1 4.3 1.7 4.3 4.1 4.3c2.7.1 4.2-1.9 4.2-4.3z"/><path fill="#e6e6e6" d="m568.3 159.1h3.1v3c.8-2 2.4-3.4 4.8-3.3v3.2h-.2c-2.7 0-4.6 1.7-4.6 5.4v5.1h-3.1z"/><path fill="#e6e6e6" d="m577.9 153.9h3.1v11.1l5.6-6h3.8l-5.4 5.5 5.5 8h-3.5l-4.1-5.8-1.9 2v3.9h-3.1z"/><path fill="#e6e6e6" d="m590.6 165.8c0-3.9 3.1-7 7.2-7 4.2 0 7.2 3.2 7.2 7s-3.1 7-7.3 7c-4.1 0-7.1-3.1-7.1-7zm11.2 0c0-2.3-1.7-4.3-4.2-4.3s-4.1 2-4.1 4.3 1.7 4.3 4.1 4.3c2.6.1 4.2-1.9 4.2-4.3z"/><path fill="#e6e6e6" d="m607 167.6v-8.6h3.1v7.6c0 2.1 1.1 3.3 2.9 3.3s3-1.3 3-3.3v-7.6h3.1v13.4h-3.1v-2.1c-.8 1.3-2.1 2.3-4.2 2.3-3 .2-4.8-1.8-4.8-5z"/><path fill="#e6e6e6" d="m622.7 168.8v-7.1h-1.7v-2.6h1.7v-3.7h3.1v3.7h3.6v2.6h-3.6v6.6c0 1.2.6 1.7 1.7 1.7.7 0 1.3-.2 1.9-.5v2.5c-.8.5-1.7.7-2.8.7-2.3 0-3.9-.9-3.9-3.9z"/><path fill="#e6e6e6" d="m632 154.7h3.2v15h9.4v2.9h-12.6z"/><path fill="#e6e6e6" d="m654.8 172.5v-1.7c-.9 1.1-2.3 2-4.4 2-2.6 0-4.8-1.4-4.8-4.2 0-3 2.3-4.4 5.4-4.4 1.7 0 2.6.2 3.7.5v-.2c0-1.9-1.2-2.9-3.3-2.9-1.5 0-2.6.3-3.9.8l-.8-2.5c1.5-.7 2.9-1.1 5.1-1.1 4 0 5.9 2.1 5.9 5.7v8zm.1-5.6c-.8-.3-1.9-.5-3.1-.5-2 0-3.1.8-3.1 2.1s1.1 2 2.6 2c2 0 3.5-1.1 3.5-2.9z"/><path fill="#e6e6e6" d="m663.7 170.5v2.1h-3.1v-18.7h3.1v7.4c1-1.4 2.4-2.5 4.5-2.5 3.2 0 6.3 2.5 6.3 7s-3.1 7-6.3 7c-2.1 0-3.5-1.1-4.5-2.3zm7.8-4.7c0-2.6-1.7-4.3-3.9-4.3-2.1 0-3.9 1.7-3.9 4.4 0 2.6 1.8 4.3 3.9 4.3s3.9-1.7 3.9-4.4z"/><path fill="#e6e6e6" d="m675.8 170.8 1.4-2.1c1.4 1.1 3 1.7 4.4 1.7s2.1-.5 2.1-1.5-1.3-1.4-2.8-1.8c-.1 0-.2-.1-.2-.1-2-.6-4.2-1.4-4.2-4s2.1-4.1 4.8-4.1c1.7 0 3.5.6 5 1.5l-1.2 2.2c-1.3-.8-2.6-1.3-3.8-1.3s-1.9.5-1.9 1.4 1.3 1.4 2.8 1.8c.1 0 .2.1.2.1 2 .6 4.2 1.5 4.2 4 0 2.9-2.2 4.2-5 4.2-2 0-4.1-.7-5.8-2z"/><path fill="#e6e6e6" d="m61 298.6c0-5.1 4.1-9.2 9.3-9.2s9.2 4.2 9.2 9.2-4.1 9.2-9.3 9.2c-5.1 0-9.2-4.2-9.2-9.2zm17.4-.1c0-4.5-3.5-8.2-8.2-8.2s-8.2 3.7-8.2 8.3c0 4.5 3.5 8.2 8.2 8.2s8.2-3.7 8.2-8.3zm-13.1-.1c0-2.8 2.1-5.1 5.1-5.1 1.9 0 2.9.6 3.9 1.5l-1.4 1.7c-.8-.7-1.5-1.1-2.5-1.1-1.7 0-2.8 1.4-2.8 3.1s1.1 3 2.8 3c1.1 0 1.7-.5 2.5-1.1l1.4 1.4c-1.1 1.1-2.1 1.7-4 1.7-2.8.1-5-2.2-5-5.1z"/><path fill="#e6e6e6" d="m80.9 289.7h3.4l4.2 13.2 4.4-13.3h2.6l4.4 13.3 4.2-13.2h3.3l-6.2 18h-2.7l-4.4-12.8-4.4 12.8h-2.7z"/><path fill="#e6e6e6" d="m107.1 300.8c0-3.9 3.1-7 7.2-7s7.2 3.2 7.2 7-3.1 7-7.3 7c-4 0-7.1-3.1-7.1-7zm11.3 0c0-2.3-1.7-4.3-4.2-4.3s-4.1 2-4.1 4.3 1.7 4.3 4.1 4.3c2.6.1 4.2-1.9 4.2-4.3z"/><path fill="#e6e6e6" d="m123.7 294h3.1v3c.8-2 2.4-3.4 4.8-3.3v3.2h-.2c-2.7 0-4.6 1.7-4.6 5.4v5.1h-3.1z"/><path fill="#e6e6e6" d="m133.4 288.9h3.1v11.1l5.6-6h3.8l-5.4 5.5 5.5 8h-3.5l-4.1-5.8-1.9 1.9v3.9h-3.1z"/><path fill="#e6e6e6" d="m146 300.8c0-3.9 3.1-7 7.2-7s7.2 3.2 7.2 7-3.1 7-7.3 7c-4.1 0-7.1-3.1-7.1-7zm11.2 0c0-2.3-1.7-4.3-4.2-4.3s-4.1 2-4.1 4.3 1.7 4.3 4.1 4.3c2.6.1 4.2-1.9 4.2-4.3z"/><path fill="#e6e6e6" d="m162.4 302.6v-8.6h3.1v7.6c0 2.1 1.1 3.3 2.9 3.3s3-1.3 3-3.3v-7.6h3.1v13.4h-3.1v-2.1c-.8 1.3-2.1 2.3-4.2 2.3-3 .2-4.8-1.8-4.8-5z"/><path fill="#e6e6e6" d="m178.1 303.8v-7.1h-1.7v-2.7h1.7v-3.7h3.1v3.7h3.6v2.6h-3.6v6.6c0 1.2.6 1.7 1.7 1.7.7 0 1.3-.2 1.9-.5v2.5c-.8.5-1.7.7-2.8.7-2.3.1-3.9-.9-3.9-3.8z"/><path fill="#e6e6e6" d="m187.4 289.7h3.2v15h9.4v2.9h-12.5v-17.9z"/><path fill="#e6e6e6" d="m210.2 307.5v-1.7c-.9 1.1-2.3 2-4.4 2-2.6 0-4.8-1.4-4.8-4.2 0-3 2.3-4.4 5.4-4.4 1.7 0 2.6.2 3.7.5v-.2c0-1.9-1.2-2.9-3.3-2.9-1.5 0-2.6.3-3.9.8l-.8-2.5c1.5-.7 2.9-1.1 5.1-1.1 4 0 5.9 2.1 5.9 5.7v8zm.1-5.6c-.8-.3-1.9-.5-3.1-.5-2 0-3.1.8-3.1 2.1s1.1 2 2.6 2c2 0 3.5-1.1 3.5-2.9z"/><path fill="#e6e6e6" d="m219.2 305.5v2.1h-3.1v-18.7h3.1v7.4c1-1.4 2.4-2.5 4.5-2.5 3.2 0 6.3 2.5 6.3 7s-3.1 7-6.3 7c-2.2 0-3.6-1.1-4.5-2.3zm7.7-4.7c0-2.6-1.7-4.3-3.9-4.3s-3.9 1.7-3.9 4.4c0 2.6 1.8 4.3 3.9 4.3s3.9-1.7 3.9-4.4z"/><path fill="#e6e6e6" d="m231.2 305.8 1.4-2.1c1.4 1.1 3 1.7 4.4 1.7s2.1-.5 2.1-1.5-1.3-1.4-2.8-1.8c-.1 0-.2-.1-.2-.1-2-.6-4.2-1.4-4.2-4s2.1-4.1 4.8-4.1c1.7 0 3.5.6 5 1.5l-1.2 2.2c-1.3-.8-2.6-1.3-3.8-1.3s-1.9.5-1.9 1.4 1.3 1.4 2.8 1.8c.1 0 .2.1.2.1 2 .6 4.2 1.5 4.2 4 0 2.9-2.2 4.2-5 4.2-2 0-4.1-.7-5.8-2z"/><path fill="#e6e6e6" d="m360.6 298.6c0-5.1 4.1-9.2 9.3-9.2s9.2 4.2 9.2 9.2-4.1 9.2-9.3 9.2-9.2-4.2-9.2-9.2zm17.4-.1c0-4.5-3.5-8.2-8.2-8.2s-8.2 3.7-8.2 8.3c0 4.5 3.5 8.2 8.2 8.2s8.2-3.7 8.2-8.3zm-13.1-.1c0-2.8 2.1-5.1 5.1-5.1 1.9 0 2.9.6 3.9 1.5l-1.4 1.7c-.8-.7-1.5-1.1-2.5-1.1-1.7 0-2.8 1.4-2.8 3.1s1.1 3 2.8 3c1.1 0 1.7-.5 2.5-1.1l1.4 1.4c-1.1 1.1-2.1 1.7-4 1.7-2.8.1-5-2.2-5-5.1z"/><path fill="#e6e6e6" d="m380.5 289.7h3.4l4.2 13.2 4.4-13.3h2.6l4.4 13.3 4.2-13.2h3.3l-6.2 18h-2.7l-4.4-12.8-4.4 12.8h-2.7z"/><path fill="#e6e6e6" d="m406.7 300.8c0-3.9 3.1-7 7.2-7 4.2 0 7.2 3.2 7.2 7s-3.1 7-7.3 7c-4.1 0-7.1-3.1-7.1-7zm11.3 0c0-2.3-1.7-4.3-4.2-4.3s-4.1 2-4.1 4.3 1.7 4.3 4.1 4.3c2.7.1 4.2-1.9 4.2-4.3z"/><path fill="#e6e6e6" d="m423.3 294h3.1v3c.8-2 2.4-3.4 4.8-3.3v3.2h-.2c-2.7 0-4.6 1.7-4.6 5.4v5.1h-3.1z"/><path fill="#e6e6e6" d="m433 288.9h3.1v11.1l5.6-6h3.8l-5.4 5.5 5.5 8h-3.5l-4.1-5.8-1.9 2v3.9h-3.1z"/><path fill="#e6e6e6" d="m445.6 300.8c0-3.9 3.1-7 7.2-7 4.2 0 7.2 3.2 7.2 7s-3.1 7-7.3 7c-4.1 0-7.1-3.1-7.1-7zm11.3 0c0-2.3-1.7-4.3-4.2-4.3s-4.1 2-4.1 4.3 1.7 4.3 4.1 4.3c2.6.1 4.2-1.9 4.2-4.3z"/><path fill="#e6e6e6" d="m462.1 302.6v-8.6h3.1v7.6c0 2.1 1.1 3.3 2.9 3.3s3-1.3 3-3.3v-7.6h3.1v13.4h-3.1v-2.1c-.8 1.3-2.1 2.3-4.2 2.3-3.1.2-4.8-1.8-4.8-5z"/><path fill="#e6e6e6" d="m477.8 303.8v-7.1h-1.8v-2.7h1.7v-3.7h3.1v3.7h3.6v2.6h-3.6v6.6c0 1.2.6 1.7 1.7 1.7.7 0 1.3-.2 1.9-.5v2.5c-.8.5-1.7.7-2.8.7-2.2.1-3.8-.9-3.8-3.8z"/><path fill="#e6e6e6" d="m487.1 289.7h3.2v15h9.4v2.9h-12.5v-17.9z"/><path fill="#e6e6e6" d="m509.9 307.5v-1.7c-.9 1.1-2.3 2-4.4 2-2.6 0-4.8-1.4-4.8-4.2 0-3 2.3-4.4 5.4-4.4 1.7 0 2.6.2 3.7.5v-.2c0-1.9-1.2-2.9-3.3-2.9-1.5 0-2.6.3-3.9.8l-.8-2.5c1.5-.7 2.9-1.1 5.1-1.1 4 0 5.9 2.1 5.9 5.7v8zm.1-5.6c-.8-.3-1.9-.5-3.1-.5-2 0-3.1.8-3.1 2.1s1.1 2 2.6 2c2 0 3.5-1.1 3.5-2.9z"/><path fill="#e6e6e6" d="m518.8 305.5v2.1h-3.1v-18.7h3.1v7.4c1-1.4 2.4-2.5 4.5-2.5 3.2 0 6.3 2.5 6.3 7s-3.1 7-6.3 7c-2.2 0-3.5-1.1-4.5-2.3zm7.7-4.7c0-2.6-1.7-4.3-3.9-4.3s-3.9 1.7-3.9 4.4c0 2.6 1.8 4.3 3.9 4.3s3.9-1.7 3.9-4.4z"/><path fill="#e6e6e6" d="m530.8 305.8 1.4-2.1c1.4 1.1 3 1.7 4.4 1.7s2.1-.5 2.1-1.5-1.3-1.4-2.8-1.8c-.1 0-.2-.1-.2-.1-2-.6-4.2-1.4-4.2-4s2.1-4.1 4.8-4.1c1.7 0 3.5.6 5 1.5l-1.2 2.2c-1.3-.8-2.6-1.3-3.8-1.3s-1.9.5-1.9 1.4 1.3 1.4 2.8 1.8c.1 0 .2.1.2.1 2 .6 4.2 1.5 4.2 4 0 2.9-2.2 4.2-5 4.2-1.9 0-4.1-.7-5.8-2z"/><path fill="#e6e6e6" d="m659.5 298.6c0-5.1 4.1-9.2 9.3-9.2s9.2 4.2 9.2 9.2-4.1 9.2-9.3 9.2-9.2-4.2-9.2-9.2zm17.3-.1c0-4.5-3.5-8.2-8.2-8.2s-8.2 3.7-8.2 8.3c0 4.5 3.5 8.2 8.2 8.2 4.8 0 8.2-3.7 8.2-8.3zm-13-.1c0-2.8 2.1-5.1 5.1-5.1 1.9 0 2.9.6 3.9 1.5l-1.4 1.7c-.8-.7-1.5-1.1-2.5-1.1-1.7 0-2.8 1.4-2.8 3.1s1.1 3 2.8 3c1.1 0 1.7-.5 2.5-1.1l1.4 1.4c-1.1 1.1-2.1 1.7-4 1.7-2.9.1-5-2.2-5-5.1z"/><path fill="#e6e6e6" d="m679.3 289.7h3.4l4.2 13.2 4.4-13.3h2.6l4.4 13.3 4.2-13.2h3.3l-6.2 18h-2.6l-4.4-12.8-4.4 12.8h-2.7z"/><path fill="#e6e6e6" d="m705.5 300.8c0-3.9 3.1-7 7.2-7 4.2 0 7.2 3.2 7.2 7s-3.1 7-7.3 7c-4 0-7.1-3.1-7.1-7zm11.3 0c0-2.3-1.7-4.3-4.2-4.3s-4.1 2-4.1 4.3 1.7 4.3 4.1 4.3c2.7.1 4.2-1.9 4.2-4.3z"/><path fill="#e6e6e6" d="m722.1 294h3.1v3c.8-2 2.4-3.4 4.8-3.3v3.2h-.2c-2.7 0-4.6 1.7-4.6 5.4v5.1h-3.1z"/><path fill="#e6e6e6" d="m731.8 288.9h3.1v11.1l5.6-6h3.8l-5.4 5.5 5.5 8h-3.5l-4.1-5.8-1.9 2v3.9h-3.1z"/><path fill="#e6e6e6" d="m744.4 300.8c0-3.9 3.1-7 7.2-7 4.2 0 7.2 3.2 7.2 7s-3.1 7-7.3 7c-4.1 0-7.1-3.1-7.1-7zm11.3 0c0-2.3-1.7-4.3-4.2-4.3s-4.1 2-4.1 4.3 1.7 4.3 4.1 4.3c2.6.1 4.2-1.9 4.2-4.3z"/><path fill="#e6e6e6" d="m760.9 302.6v-8.6h3.1v7.6c0 2.1 1.1 3.3 2.9 3.3s3-1.3 3-3.3v-7.6h3.1v13.4h-3.1v-2.1c-.8 1.3-2.1 2.3-4.2 2.3-3.1.2-4.8-1.8-4.8-5z"/><path fill="#e6e6e6" d="m776.6 303.8v-7.1h-1.7v-2.7h1.7v-3.7h3.1v3.7h3.6v2.6h-3.6v6.6c0 1.2.6 1.7 1.7 1.7.7 0 1.3-.2 1.9-.5v2.5c-.8.5-1.7.7-2.8.7-2.3.1-3.9-.9-3.9-3.8z"/><path fill="#e6e6e6" d="m785.9 289.7h3.2v15h9.4v2.9h-12.5v-17.9z"/><path fill="#e6e6e6" d="m808.7 307.5v-1.7c-.9 1.1-2.3 2-4.4 2-2.6 0-4.8-1.4-4.8-4.2 0-3 2.3-4.4 5.4-4.4 1.7 0 2.6.2 3.7.5v-.2c0-1.9-1.2-2.9-3.3-2.9-1.5 0-2.6.3-3.9.8l-.8-2.5c1.5-.7 2.9-1.1 5.1-1.1 4 0 5.9 2.1 5.9 5.7v8zm.1-5.6c-.8-.3-1.9-.5-3.1-.5-2 0-3.1.8-3.1 2.1s1.1 2 2.6 2c2 0 3.5-1.1 3.5-2.9z"/><path fill="#e6e6e6" d="m817.6 305.5v2.1h-3.1v-18.7h3.1v7.4c1-1.4 2.4-2.5 4.5-2.5 3.2 0 6.3 2.5 6.3 7s-3.1 7-6.3 7c-2.1 0-3.5-1.1-4.5-2.3zm7.7-4.7c0-2.6-1.7-4.3-3.9-4.3-2.1 0-3.9 1.7-3.9 4.4 0 2.6 1.8 4.3 3.9 4.3 2.2 0 3.9-1.7 3.9-4.4z"/><path fill="#e6e6e6" d="m829.6 305.8 1.4-2.1c1.4 1.1 3 1.7 4.4 1.7s2.1-.5 2.1-1.5-1.3-1.4-2.8-1.8c-.1 0-.2-.1-.2-.1-2-.6-4.2-1.4-4.2-4s2.1-4.1 4.8-4.1c1.7 0 3.5.6 5 1.5l-1.2 2.2c-1.3-.8-2.6-1.3-3.8-1.3s-1.9.5-1.9 1.4 1.3 1.4 2.8 1.8c.1 0 .2.1.2.1 2 .6 4.2 1.5 4.2 4 0 2.9-2.2 4.2-5 4.2-1.9 0-4-.7-5.8-2z"/><path fill="#e6e6e6" d="m206.3 434.2c0-5.1 4.1-9.2 9.3-9.2s9.2 4.2 9.2 9.2-4.1 9.2-9.3 9.2-9.2-4.1-9.2-9.2zm17.4-.1c0-4.5-3.5-8.2-8.2-8.2s-8.2 3.7-8.2 8.3c0 4.5 3.5 8.2 8.2 8.2s8.2-3.7 8.2-8.3zm-13.1-.1c0-2.8 2.1-5.1 5.1-5.1 1.9 0 2.9.6 3.9 1.5l-1.4 1.7c-.8-.7-1.5-1.1-2.5-1.1-1.7 0-2.8 1.4-2.8 3.1s1.1 3 2.8 3c1.1 0 1.7-.5 2.5-1.1l1.4 1.4c-1.1 1.1-2.1 1.7-4 1.7-2.9.1-5-2.2-5-5.1z"/><path fill="#e6e6e6" d="m226.1 425.3h3.4l4.2 13.2 4.4-13.3h2.6l4.4 13.3 4.2-13.2h3.3l-6.2 18h-2.7l-4.4-12.8-4.4 12.8h-2.7z"/><path fill="#e6e6e6" d="m252.4 436.4c0-3.9 3.1-7 7.2-7 4.2 0 7.2 3.2 7.2 7s-3.1 7-7.3 7c-4.1 0-7.1-3.1-7.1-7zm11.2 0c0-2.3-1.7-4.3-4.2-4.3s-4.1 2-4.1 4.3 1.7 4.3 4.1 4.3c2.7.1 4.2-1.9 4.2-4.3z"/><path fill="#e6e6e6" d="m269 429.7h3.1v3c.8-2 2.4-3.4 4.8-3.3v3.2h-.2c-2.7 0-4.6 1.7-4.6 5.4v5.1h-3.1z"/><path fill="#e6e6e6" d="m278.6 424.5h3.1v11.1l5.6-6h3.8l-5.4 5.5 5.5 8h-3.5l-4.1-5.8-1.9 2v3.9h-3.1z"/><path fill="#e6e6e6" d="m291.3 436.4c0-3.9 3.1-7 7.2-7 4.2 0 7.2 3.2 7.2 7s-3.1 7-7.3 7c-4.1 0-7.1-3.1-7.1-7zm11.2 0c0-2.3-1.7-4.3-4.2-4.3s-4.1 2-4.1 4.3 1.7 4.3 4.1 4.3c2.6.1 4.2-1.9 4.2-4.3z"/><path fill="#e6e6e6" d="m307.7 438.2v-8.6h3.1v7.6c0 2.1 1.1 3.3 2.9 3.3s3-1.3 3-3.3v-7.6h3.1v13.4h-3.1v-2.1c-.8 1.3-2.1 2.3-4.2 2.3-3 .2-4.8-1.8-4.8-5z"/><path fill="#e6e6e6" d="m323.4 439.4v-7.1h-1.7v-2.6h1.7v-3.7h3.1v3.7h3.6v2.6h-3.6v6.6c0 1.2.6 1.7 1.7 1.7.7 0 1.3-.2 1.9-.5v2.5c-.8.5-1.7.7-2.8.7-2.3 0-3.9-.9-3.9-3.9z"/><path fill="#e6e6e6" d="m332.7 425.3h3.2v15h9.4v2.9h-12.5v-17.9z"/><path fill="#e6e6e6" d="m355.5 443.1v-1.7c-.9 1.1-2.3 2-4.4 2-2.6 0-4.8-1.4-4.8-4.2 0-3 2.3-4.4 5.4-4.4 1.7 0 2.6.2 3.7.5v-.2c0-1.9-1.2-2.9-3.3-2.9-1.5 0-2.6.3-3.9.8l-.8-2.5c1.5-.7 2.9-1.1 5.1-1.1 4 0 5.9 2.1 5.9 5.7v8zm.1-5.6c-.8-.3-1.9-.5-3.1-.5-2 0-3.1.8-3.1 2.1s1.1 2 2.6 2c2 0 3.5-1.1 3.5-2.9z"/><path fill="#e6e6e6" d="m364.4 441.1v2.1h-3.1v-18.7h3.1v7.4c1-1.4 2.4-2.5 4.5-2.5 3.2 0 6.3 2.5 6.3 7s-3.1 7-6.3 7c-2.1 0-3.5-1.1-4.5-2.3zm7.7-4.7c0-2.6-1.7-4.3-3.9-4.3-2.1 0-3.9 1.7-3.9 4.4 0 2.6 1.8 4.3 3.9 4.3 2.2 0 3.9-1.7 3.9-4.4z"/><path fill="#e6e6e6" d="m376.5 441.4 1.4-2.1c1.4 1.1 3 1.7 4.4 1.7s2.1-.5 2.1-1.5-1.3-1.4-2.8-1.8c-.1 0-.2-.1-.2-.1-2-.6-4.2-1.4-4.2-4s2.1-4.1 4.8-4.1c1.7 0 3.5.6 5 1.5l-1.2 2.2c-1.3-.8-2.6-1.3-3.8-1.3s-1.9.5-1.9 1.4 1.3 1.4 2.8 1.8c.1 0 .2.1.2.1 2 .6 4.2 1.5 4.2 4 0 2.9-2.2 4.2-5 4.2-2 0-4.1-.7-5.8-2z"/><path fill="#e6e6e6" d="m505.1 434.2c0-5.1 4.1-9.2 9.3-9.2s9.2 4.2 9.2 9.2-4.1 9.2-9.3 9.2-9.2-4.1-9.2-9.2zm17.4-.1c0-4.5-3.5-8.2-8.2-8.2s-8.2 3.7-8.2 8.3c0 4.5 3.5 8.2 8.2 8.2s8.2-3.7 8.2-8.3zm-13.1-.1c0-2.8 2.1-5.1 5.1-5.1 1.9 0 2.9.6 3.9 1.5l-1.4 1.7c-.8-.7-1.5-1.1-2.5-1.1-1.7 0-2.8 1.4-2.8 3.1s1.1 3 2.8 3c1.1 0 1.7-.5 2.5-1.1l1.4 1.4c-1.1 1.1-2.1 1.7-4 1.7-2.9.1-5-2.2-5-5.1z"/><path fill="#e6e6e6" d="m525 425.3h3.4l4.2 13.2 4.4-13.3h2.6l4.4 13.3 4.2-13.2h3.3l-6.2 18h-2.7l-4.4-12.8-4.4 12.8h-2.7z"/><path fill="#e6e6e6" d="m551.2 436.4c0-3.9 3.1-7 7.2-7 4.2 0 7.2 3.2 7.2 7s-3.1 7-7.3 7c-4.1 0-7.1-3.1-7.1-7zm11.2 0c0-2.3-1.7-4.3-4.2-4.3s-4.1 2-4.1 4.3 1.7 4.3 4.1 4.3c2.7.1 4.2-1.9 4.2-4.3z"/><path fill="#e6e6e6" d="m567.8 429.7h3.1v3c.8-2 2.4-3.4 4.8-3.3v3.2h-.2c-2.7 0-4.6 1.7-4.6 5.4v5.1h-3.1z"/><path fill="#e6e6e6" d="m577.5 424.5h3.1v11.1l5.6-6h3.8l-5.4 5.5 5.5 8h-3.5l-4.1-5.8-1.9 2v3.9h-3.1z"/><path fill="#e6e6e6" d="m590.1 436.4c0-3.9 3.1-7 7.2-7 4.2 0 7.2 3.2 7.2 7s-3.1 7-7.3 7c-4.1 0-7.1-3.1-7.1-7zm11.2 0c0-2.3-1.7-4.3-4.2-4.3s-4.1 2-4.1 4.3 1.7 4.3 4.1 4.3c2.6.1 4.2-1.9 4.2-4.3z"/><path fill="#e6e6e6" d="m606.5 438.2v-8.6h3.1v7.6c0 2.1 1.1 3.3 2.9 3.3s3-1.3 3-3.3v-7.6h3.1v13.4h-3.1v-2.1c-.8 1.3-2.1 2.3-4.2 2.3-3 .2-4.8-1.8-4.8-5z"/><path fill="#e6e6e6" d="m622.2 439.4v-7.1h-1.7v-2.6h1.7v-3.7h3.1v3.7h3.6v2.6h-3.6v6.6c0 1.2.6 1.7 1.7 1.7.7 0 1.3-.2 1.9-.5v2.5c-.8.5-1.7.7-2.8.7-2.3 0-3.9-.9-3.9-3.9z"/><path fill="#e6e6e6" d="m631.5 425.3h3.2v15h9.4v2.9h-12.5v-17.9z"/><path fill="#e6e6e6" d="m654.3 443.1v-1.7c-.9 1.1-2.3 2-4.4 2-2.6 0-4.8-1.4-4.8-4.2 0-3 2.3-4.4 5.4-4.4 1.7 0 2.6.2 3.7.5v-.2c0-1.9-1.2-2.9-3.3-2.9-1.5 0-2.6.3-3.9.8l-.8-2.5c1.5-.7 2.9-1.1 5.1-1.1 4 0 5.9 2.1 5.9 5.7v8zm.1-5.6c-.8-.3-1.9-.5-3.1-.5-2 0-3.1.8-3.1 2.1s1.1 2 2.6 2c2 0 3.5-1.1 3.5-2.9z"/><path fill="#e6e6e6" d="m663.3 441.1v2.1h-3.1v-18.7h3.1v7.4c1-1.4 2.4-2.5 4.5-2.5 3.2 0 6.3 2.5 6.3 7s-3.1 7-6.3 7c-2.2 0-3.6-1.1-4.5-2.3zm7.7-4.7c0-2.6-1.7-4.3-3.9-4.3s-3.9 1.7-3.9 4.4c0 2.6 1.8 4.3 3.9 4.3s3.9-1.7 3.9-4.4z"/><path fill="#e6e6e6" d="m675.3 441.4 1.4-2.1c1.4 1.1 3 1.7 4.4 1.7s2.1-.5 2.1-1.5-1.3-1.4-2.8-1.8c-.1 0-.2-.1-.2-.1-2-.6-4.2-1.4-4.2-4s2.1-4.1 4.8-4.1c1.7 0 3.5.6 5 1.5l-1.2 2.2c-1.3-.8-2.6-1.3-3.8-1.3s-1.9.5-1.9 1.4 1.3 1.4 2.8 1.8c.1 0 .2.1.2.1 2 .6 4.2 1.5 4.2 4 0 2.9-2.2 4.2-5 4.2-2 0-4.1-.7-5.8-2z"/></g>
</svg>
