<?xml version="1.0" encoding="utf-8"?>
<!-- Generator: Adobe Illustrator 23.0.1, SVG Export Plug-In . SVG Version: 6.00 Build 0)  -->
<svg version="1.2" baseProfile="tiny" id="Layer_1" xmlns="http://www.w3.org/2000/svg" xmlns:xlink="http://www.w3.org/1999/xlink"
	 x="0px" y="0px" viewBox="0 0 900 600" xml:space="preserve">
<g>
	<path d="M336.11,519.69l-0.1-0.1C336.08,519.76,335.99,519.74,336.11,519.69z"/>
	<path d="M280.43,350.44C281.53,350.87,284.26,351.25,280.43,350.44L280.43,350.44z"/>
	<path d="M280.39,350.43c0.01,0.01,0.01,0.01,0.04,0.01c-0.02-0.01-0.02-0.01-0.04-0.02V350.43z"/>
	<path d="M462.4,197.17c-5.84-21.75-18.78-40.18-41-44.02c-30.45-5.26-54.61,10.5-58.79,43.92c-1.3,0.27-2.66-2.23-3.74-0.39
		c0,0,0,0,0,0c-0.33,0.59-0.26,0.51,0.01,0.75c-0.09-0.22-0.1-0.46,0-0.75c5.27,0.41-2.09,10.5,9.96,10.14
		c7.03-0.21,4.4,5.26,9.65,4.82c2.71-0.23,4.68,3.2,3.92,5.83c-5.84,20.18-3,47.81-12.86,63.52c-28.99,46.19-8.44,19.64-22.41,53.67
		c-2.81,6.84-7.94,11.86-13.57,16.48c-10.46,8.59-7.5,15.01-8.04,17.69c-1.4-0.8-0.41-2.99-2.18-3.41
		c0.86,3.9-26.04-24.75-29.58-30.36c8.24-10.89,21.34-9.52,21.61-14.57c-15.22,6.29-16.04,3.85-24.42,14.37
		c-0.74,0.93-1.52,2.52-0.8,2.81c-0.15,0.14-7.42-2.84-9.76-7.15c-6.58-12.12,7.31-5.27,5.13-17.79
		c-1.52-8.74-3.84-17.38-4.72-26.23c-0.11-1.13-2.96-8.31-8.14-12.36c3.64-4.92,0.66-9.16-0.61-13.95
		c-0.08-0.07-0.16-0.13-0.25-0.19c-1.17,0.8-2.49-1.82-3.35,0.67c-1.05-0.81-0.41-2.19-2.03-2.27c-1.17,1.37-2.54,1.63-4.19,0.66
		c-0.9,0.6-1.2,1.71-2.31,2.11c-0.88-0.99,1.92-2.99-0.84-2.38c-3.58,3.52-7.58,2.9-9.81,5.59c-3.09,3.74-7.42,5.95-10.55,9.55
		c-0.79,0.91-1.6,1.81-2.81,2.01c-1.28-3.83,0.17-0.5-4.33,0.15c-0.1,0.11-0.19,0.22-0.28,0.33c1.64,3.75-1.16,5.91-2.63,7.87
		c0,1.81,1.71,1.81,1.71,2.31c-1.01,4.62-1.4,8.54,0.4,12.36c11.36,24.12,17.77,30.41,7.84,37.29c-6.08,4.21-0.01,0.64-7.03-1.11
		c-1.92-0.48-2.84-1.6-3.32-3.32c-1.17-4.2-3.29-8.05-4.72-12.16c-6.32-18.19-18.58-16.04-21-29.85
		c-6.48-36.96-28.78-46.88-11.6-67.88c-0.08-0.01-0.08-0.02,0.02-0.04c0.36,0.02,1.56-0.05,0.49-0.06c1.9-0.2,9.43-0.72,33.91-2.07
		c1.81-0.1,3.42,0.7,5.43,0.3c5.51-1.1,11.05-2,16.65-0.81c0,0,0,0,0.01,0c0.05,0.02,0.11,0.01,0.04-0.02
		c0.66-0.31,9.45-1.77,89.22-6c18.4-0.98,10.85-0.57,13.17,2.91c4.48,1.91,18.11,8.11,18.99,2.81c-6.33,1.21-11.55-1.91-17.08-3.92
		c-0.5-0.8-0.6-1.61-0.1-2.51c1.3-0.41,3.01-0.1,4.42-1.41c0.1-3.92-0.8-8.14,1.31-12.06c0.88-0.48,1.67,1.1,2.54,0.18
		c-0.32-0.75-0.94-1.19-1.34-1.79c-2.42,2.91-7.14,2.31-9.35,6.23c-180.4,10.48-162.11,11.04-164.61,4.92
		c-0.75-2.25-5.31-0.38-9.15-3.72c-1.71,0.71-1.41,2.21-2.31,3.42c-6.53-0.71-12.66,1.7-18.69,4.92
		c-13.01-73.19-93.91-73.21-107.93-11.26c-5.19,22.92,6.08,18.6-17.59,19.9c-7.53,0.41-15.07,1.29-22.61,1
		c-3.86-0.15-9.07,4.97-4.81,9.92c3.34,3.88-1.39,1.72,43.52,0.1c1.64,3.28,2.27,19.78,16.08,37.08
		c23.33,29.23,88.33,33.09,94.16-37.69c1.91,2.61,4.52,1.3,6.83,2.31c0.2,4.72,1.8,9.25,2.21,14.07
		c6.2,73.1,15.69,52.18,21.51,81.71c5.02,25.46,10.49,32.58,17.69,40.5c17.44,19.17,13.38,24.28,25.73,39.9
		c1.72,2.17,4.16,8.09,5.33,9.95c5.47,8.68,4.08,12.35,4.72,16.18c1.44,2.88,1.11-3.43,1.11-5.73c6.65,10.89,3.46,23.54,12.76,34.57
		c-2.51,1.91-4.22,3.82-4.42,7.24c1.81-1.91,2.01-4.43,4.62-5.33c3.41,11.91,3,12.79,5.33,12.06c0.99-0.7,0.55-0.57,0-0.7
		c-0.23-14.87-7.65-17.1-10.25-31.36c-2.25-12.37-6.05-18.05-12.56-30.35c9.19-3.81,11.29-10.08,13.27-8.64
		c2.61-5.72,6.93-10.65,6.93-16.88c0.96-0.57,2,0.11,2.62-0.69c0-1.06-2-0.74-2.42-2.32c1.08-9.12-12.49-41.19-15.27-45.61
		c2.78,2.62,11.87,17.5,29.74,22.7c4.27,1.24,24.84,5.05,27.84,2.61c5.34-4.34,7.9-12.36-0.4-22.41c-2.36-2.86-4.02-6.13-7.03-9.25
		c4.62,0.39,4.95,8.97,28.74,29.25c2.39,2.04,5.02,4.43,5.73,7.34c1.2,4.92,1.81,10.05,1.81,15.07c0,2.92,2.11,6.24-1.41,9.25
		c5.85-1.17,0.42,16.73,3.62,28.54c2.56,9.43,3.85,19.18,7.74,28.24c1.72,4.01,1.3,8.44,2.61,12.56c0.1,0.41-0.1,1.51-1.51,1.21
		c0.3-1,0.5-2.21-1.41-2.81c-0.98,3.08-4.92,0.29-7.64,1.91c-10.99,6.54-30.85,6.56-34.07,9.45c-12.39-2.78-13.34,4.11-15.68,0.6
		c1.66-4.59,4.16-8.8,5.13-13.54c-2.84,4.45-3.79,9.73-6.63,14.44c-6.26-0.58-12.34,2.07-18.67,0.87c-1.39,0.95-0.93,2.88-4.44,1.64
		c-2.06,8.5-7.28,6.61-5.93,17.08c0.1,0.2,0.81,1.41-0.8,1.61c-0.7,2.52-2.41,4.73-2.71,7.54c1.81-1.31,2.41-3.42,3.92-5.33
		c2.01,4.32,0.8,8.64,0.1,12.86c2.55,0,0.55-5.89,4.72,5.23c-21.88-2.09-17.37-21.63-17.69-23.72c-1.65-10.72-7.44-59.16-7.44-82.61
		c-5.82,4.36-0.07,22.88,0,34.87c0.05,8.45,0.18,16.99,2.81,25.23c0.9,2.81-0.29,5.72,0.3,8.74c0.02,0.11,2.87,14.52,2.21,19.2
		c-1.41,10.05,5.35,7.23,4.02,25.33c-1.4,19.04-25.23,53.74-26.33,57.39c1.81,1.2,2.49-0.02,3.12-1.11
		c11.86-20.51,25.63-42.87,25.63-65.02c1.81,0.2,2.51,1.61,3.72,2.11c3.62-0.3,6.83,2.01,10.25,1.81
		c3.11,5.73,8.08,9.83,10.95,15.48c1.2,2.36,5.54,4.25,7.44,8.04c1.81,3.62,4.22,6.43,7.74,8.64c5.43,3.42,6.4,9.83,3.02,15.28
		c-6.72,10.83-2.42,10.44-7.54,9.25c-6.97-1.62-8.03,0.08-20.8,8.24c2.31,1.46,4.44,0.81,10.55-3.92c6.88-5.33,16.11-2.17,9.45,1.21
		c-2.68,1.36-5.42,2.34-8.34,2.61c-6.76,0.63-2.29,3.51,8.64-0.3c0.6,0.91-1.11,3.12,2.01,3.12c0.81-6.43,5.73-11.46,7.24-18.39
		c0.1-0.1,0.71,1.01,1.41,0c2.93-4.21,3.05-10.97-0.1-14.97c-2.39-3.03-4.44-6.41-7.54-8.84c-6.68-5.22,11-22.37,12.76-23.32
		c7.32-3.96,21.44-8.95,26.53-2.41c8.05,10.34,10.6,26.88,9.15,29.95c-3.18,6.76-4.42,14.18-6.83,21.21
		c-3.82,1.21-4.82,4.83-6.73,7.84c2.89,3.38,0.25,8.89,4.12,7.44c1.4-4.36-0.71-11.78,2.21-13.37c3.51-2.21,4.12-5.73,4.62-9.45
		c10.68-5.69,22.22-2.82,25.73-8.94c3.47-6.05,3.41-7.13-1.11-12.56c2.62-2.42,7.44-0.81,9.45-5.13
		c-9.85,1.91-18.49,7.34-28.84,6.23c-3.44-21-8.17-22.87,16.58-20.4c2.37,0,12.08,6.25,13.37,13.67c1.12,4.49,10.06-3.48,13.06-5.02
		c11.97,3.72,13.53,1.47,37.89,2.71c7.01,0.36,2.3,2.5,6.63,3.12c-11.82,18.78-6.48,38.12-5.13,45.73c0.29,1.61,1.41,1.71,3.12,0.4
		c-5.12-15.48-4.02-30.86,3.62-45.73c0.61-0.81,2.01,0.1,3.32-1.21c-2.72,0.31-3.52-2.01-5.13-2.91c-6.34-3.53-16.17-0.74-39.8-2.81
		c23.98-15.11,35.82-48.23,53.57-38.59c7.94,4.32,15.07,9.66,21.91,15.48c6.3,5.36,4.67,15.3,4.02,16.28
		c-4.47,8.35-2.27,21.87-6.13,25.63c-1.02,0.99,1.57,4.28-5.13,22.31c-1.27,3.43-2.21,6.93-2.91,10.55c1.5,0.9,2.39,0.29,2.81-1.21
		c0.03-0.1,9.36-33.24,10.05-40.7c1.58-16.99,7.83-23.07,1.11-31.96c-3.04-3.55-14.93-13.25-21.91-16.48
		c-33.7-15.6-22.9-13.56-43.52-18.89c-12.03-3.11-12.32-5.76-15.68-6.13c-13.32-2.92-12.64-4.34-13.57-3.72
		c-4.32,1.5-9.15,0.9-14.07,2.71c7.24,2.64,15.15-6.38,2.21,9.25c7.28-2.95,5.77-9.86,12.16-10.35c1.11,0.3,2.01,1.41,3.32,2.21
		c-3.82,4.02-8.64,6.23-12.86,9.35c5.93-2.21,11.76-4.63,15.78-9.55c4.32,1.91,9.14,1.61,12.66,5.33
		c-6.83,4.22-14.97,5.93-22.31,9.35c34.05-7.05,11.93-17.01,64.12,7.14c-14.39,2.16-28.06,25.96-40,35.17
		c-2.41-2.51-5.02-4.72-8.14-6.23c0.72,2.04,5.3,3.56,7.14,7.24c-7.04,2.61-12.87,7.23-19.6,10.85
		c-2.54-6.77-6.67-10.21-12.46-14.07c3.9,0.42,20.48,2.03,23.42-2.51c-12.87,3.52-25.63-0.3-37.79,1.81
		c-1.15-1.43,0.16-2.14,0.03-2.98c-1.23,0.33-1.45,1.69-2.54,2.38c-4.73,0.8-4.73,0.8-7.64,4.02c-1.31-2.81-1.61-5.93-3.82-8.24
		c1.5-0.9,2.71,1.21,4.72-0.2c-2.71-1.7-5.73-1.8-8.44-2.91c1.31,2.51,4.22,4.12,4.22,8.14c-3.82-7.44-9.55-7.76-16.08-6.33
		c-6.46,1.41-14.32,1.62-20.4,9.75c-2.79,3.73-6.73,6.63-8.84,11.05c-3.22-2.61-4.92-6.23-8.04-8.54c1.71,3.72,4.63,6.63,7.44,9.75
		c-0.21,1.5-1.11,2.81-1.01,4.52c-27.38-27.39-22.92-35.92-24.12-47.84c-0.66-6.55,3.31-5.34,5.33-12.56c2.11-1.2,4.32-1,6.93-0.9
		c-2.01,2.21-5.82,0.5-6.93,4.02c3.62,0.2,6.93-1,10.15-1.61c3.72-0.7,7.54-0.1,11.26-0.9c6.84-1.47,5.18-5.85,15.88-3.92
		c11.47,2.07,5.44,0.24,6.23,3.02c6.94,0.4,14.48-1.91,21.41,2.51c-0.9-4.32-1.71-4.62-14.47-4.82c1.51-1.71,5.43-0.2,5.23-4.02
		c1,0.1,1.71,0.71,2.41,1.21c-0.41,0.51-0.81,0.91-1.21,1.41c7.98,2,15.13-11.32,20.2-8.94c2.31,1.09,4.72,0.7,7.03,0.8
		c0.3,0.81-1,0.81-0.4,1.61c2.21,0.1,3.82-1.51,5.83-2.11c1.71,1.91-0.4,2.81-1.61,4.82c2.81-1.4,4.62-2.71,6.13-4.52
		c-0.9-1.21-1.41,0.6-2.21,0c-0.81-3.22-2.42-4.12-7.24-3.92c1.84-10.62-7.55-18.08-9.95-48.44c-0.35-4.43,1.21-0.56-0.9-23.52
		c-2.47-26.9-6.13-32.56,4.92-41.51c12.18-9.86,19.03-30.07,20.7-44.32c0.29-2.44,8.01-16.89,13.17-23.62
		c13.02-16.99,7.47-34.3,10.05-38.49c2.89-0.52,7.35,16.74,44.22,13.87c21.3-1.66,39.9-19.47,39.9-51.56
		c6.33-1.21,12.46-0.6,18.59-1.61c2.13-2.98,3.99-5.7,1.91-8.24C480.56,194.87,480.6,196.12,462.4,197.17z M3.68,231.17
		c-2.11-3.22-2.01-3.82,1.51-6.23C10.08,228.29,7.51,231.94,3.68,231.17z M8.81,231.98c10.53-9.51-34.11-6.01,85.22-12.36
		c4.12-0.22,5.23,1.4,3.82,6.73C85.54,227.96,85.85,227.44,8.81,231.98z M98.15,228.86c2.82-2.92,3.73-5.13,2.81-7.74
		c-1.38-3.93-4.92-3.72-8.74-3.92c8.01-6.57,15.18,1.4,13.97,7.54C104.89,231.3,98.6,234.26,98.15,228.86z M102.57,255.19
		c-6.04,1.08-3.89-13.44-7.34-24.42c-0.19-0.61,0.1-1.51,1.11-1.41C100.56,237.4,106.39,245.14,102.57,255.19z M93.73,229.66
		c-5.03,7.64-5.77,13.95-8.34,25.03c-12.1-4.23-4.94-13.41,3.42-23.32C90.18,229.75,91.52,229.16,93.73,229.66z M49.41,239.41
		c-0.61-2.41-1.41-4.72-1.2-7.22c1.51-0.2,2.71-0.5,4.32-0.1c5.78,31.84,29.66,54.59,47.23,47.94c-1.5-0.3-3.01-0.49-4.52-0.3
		c-15.32,1.93-36.49-21.68-40.3-47.94c35.39-1.99,31.45-2.14,31.96-1.11c-4.02,3.32-6.61,7.86-9.75,11.86
		c-3.27,4.17-1.63,11.66,7.84,15.18c6.31,2.35,3.75-13.53,9.04-23.52c-1.01,6.33,1.4,12.56,0.5,18.89
		c-1.05,5.27,14.72,12.13,13.27-3.62c-0.55-5.93-2.81-11.06-6.43-15.68c20.11-10.94-2.27-31.83-12.26-16.08
		c-39.66,2.03-35.47,3.23-35.38-1.51c0.55-28.93,19.12-58.51,52.86-47.74c-2.01-2.61-4.52-2.32-6.43-2.91
		c-5.31-1.65-10.94-3.29-16.58-1.11c-21.86,8.45-31.48,30.74-32.26,55.07c-1.61,0.4-2.91,0.6-4.42,0
		c1.19-58.09,47.33-76.55,74.57-43.62c20.06,24.26,23.33,63.66,6.03,90.55C106.2,299.54,61.85,288.77,49.41,239.41z M102.57,287.05
		c52.27-13.39,51.18-111.31-4.12-128.43c3.36-1.44,25.33,0.18,39.8,19.7C166.94,217.02,155.24,287.88,102.57,287.05z M238.84,301.92
		c-0.61,1.11-1.11,1.01-1.51-0.2C237.94,301.22,238.34,301.42,238.84,301.92z M240.55,342.52c-1.2-0.5-2.01-1.4-2.41-2.61
		C239.24,340.51,240.35,341.22,240.55,342.52z M355.31,201.43c-1.01,1.81-2.11,1.51-3.82,1.01
		C352.7,201.13,353.8,201.03,355.31,201.43z M354.91,208.97c-0.8,1.6-179.58,11.86-180.49,10.96c-0.72-0.72,3.84-4.99,10.25-5.33
		C369.15,204.74,354.91,203.58,354.91,208.97z M184.87,212.08c-3.71,0.3-8.94-3.21-8.94-6.23
		C185.15,210.47,182.59,206.14,184.87,212.08z M173.42,208.27c5.32,2.01,6.53,3.61,4.32,5.83c-2.31-0.4-2.21-3.52-4.42-4.02
		C173.72,209.58,172.42,208.97,173.42,208.27z M173.32,210.17c-0.3,2.21,1.91,3.62,2.11,5.83c-2.34,1.67-1.62,2.48-5.63-6.63
		C171.51,208.67,172.11,210.58,173.32,210.17z M167.99,209.06c1.21,2.52,2.31,4.73,3.42,7.14c-0.61,1.71-2.18,2.4-3.12,1.01
		c-1.66-2.45-5.03-3.72-5.23-7.44C164.77,209.47,166.28,209.27,167.99,209.06z M163.57,215.49c-3.12,1.21-4.63-1.1-7.24-2.61
		C159.71,213.47,162.79,210.07,163.57,215.49z M155.43,219.21c-0.93-7.4,5.66,2.02,9.95-3.01c0.9,2.11,3.02,2.41,3.92,4.32
		C163,218.19,155.43,225.01,155.43,219.21z M245.47,356.99c-0.65,10.23,14.06,23.25,5.23,43.01c-1.97,4.41-11.72,14.07-16.48,14.07
		c-0.91-2.81-3.61-4.43-5.13-6.83c-9-14.19-1.28-8.77-22.01-35.17c-23.56-30-10.84-34.91-24.42-58.59
		c-11.95-20.85-12.45-46.68-16.68-74.67c-1.23-8.14-6.78-6.66-8.24-7.64c-1.21-2.21-2.82-4.42-1.49-7.24c1.4,0.1,0,1.21,0.8,1.61
		c2.21-1.11,3.82-3.52,6.63-3.52c8.24,0,16.48,0.6,24.92,0.1c-0.45,3.17-11.63,9.59-4.22,26.83c4.07,9.48,11.86,21.19,12.16,27.34
		c0.5,10.35,6.43,18.99,8.74,28.94c0.91-1,0.3-2.61,1.71-3.01c10.33,9.31,10.76,7.99,20.6,31.86c2.56,6.22,8.04,4.89,10.95,9.95
		C243.39,352.48,245.66,354.02,245.47,356.99z M292.89,340.6c1.71,4.89,9.01,10.88,8.64,19.2c-0.42,9.36-7.74,6.37-18.99,5.23
		c-12.26-1.25-22.62-6.43-31.56-15.07c1.21-0.1,2.22-0.33,3.22-0.2c16.12,2.06,22.17-0.45,26.03,0.6c0.04,0.02,0.09,0.04,0.14,0.06
		c-0.38-1.14-1.61-0.53-25.86-1.77c-0.1-1.1,2.01-1,1.41-2.41c-2.41,0.3-4.12,1.8-6.33,2.81c-3.71-3.11-6.93-6.63-9.86-10.64
		c1.7-1.61,2.71-3.72,4.82-4.12c3.11-7.54-1.11-14.07-1.61-21.61c0.4-0.51,3.21-1.21,0.8-3.32c-5.43,2.22-9.35-2.81-7.74-6.93
		c0.9,0.81-0.31,2.32,0.9,3.12c3.21-2.56-0.92,2.61,5.03,2.11c0.6-2.01-1.91-3.82-0.1-5.63c1.91,1.71,2.82,4.52,5.33,5.93
		c1.11-1.81,0.49-3.31-0.1-4.62c-3.3-7.34,1.59-14,2.81-25.93c3.06-2.65,13.31-7.54,16.68-5.23c3.07,2.1,11.36,8.22,11.36,12.06
		c-0.3,1-2.21,0.5-1.81,2.11c1.11,1.2,2.51-0.2,3.82,0.5c-0.1,0.9,0.51,2.01-0.5,2.91c-2.49,1.19-3.35-2.81-4.76-1.91
		c1.41,4.16,6.81,6.03,5.07,11.05c1.51,0.3,2.21,1,2.41,2.31c2.8,18.49,4.11,16.54-2.41,20.3c-2.3,1.33-2.9,3.11-2.41,5.93
		c1.13,6.53,6.44,8.83,11.05,11.86c1.08,0.71,1.59,0.06,1.81-1.21C291.68,338.19,292.5,339.49,292.89,340.6z M348.38,556.18
		c2.21-8.04,1.1-6.83-1.81-11.96C351.89,546.53,352.5,551.65,348.38,556.18z M330.38,546.73c17.34-1.24,13.53-2.69,15.68,0
		c3.53,4.42,0.8,11.19-4.82,12.16c-4.93,0.85-10.05,0.81-15.07,3.42C328.18,556.88,331.39,552.46,330.38,546.73z M316.53,476.08
		c-0.2-1.31-0.1-2.21,1.81-1.21C317.74,475.78,317.23,475.98,316.53,476.08z M345.26,468.44c-1.41-0.4-2.41,0.2-3.82-0.6
		C343.05,467.03,344.05,466.93,345.26,468.44z M364.46,204.85c0.6-1.21-0.3-2.61,0.5-3.92
		C368.02,201.63,368.38,206.15,364.46,204.85z M375.61,208.87c-1-1.71-2.71-2.41-4.12-3.62c-0.7,0.2-1.51,0-2.41-0.4
		c1.1-1.9-0.49-3.11-1.1-4.6c6.06,0.67,2.87,2.74,3.41,4.91c2.25-1.93,2.6-1.06,28.34-2.81c7.69-0.52,7.47,5.44,4.73,6.22
		c-1.03,0.29-0.56-1.36-2.42-1.11C399.76,207.76,400.61,207.46,375.61,208.87z M379.83,243.23c1.11-7.53,2.21-15.37,3.62-23.11
		c1.79-9.83-4.31-8.71,0.8-9.35c6.59-0.82,13.21-0.11,19.71-1.99c0.05,0.57-0.17,1.12,0.39,1.49c7.61-2.14,4.67-10.54-1.31-10.35
		c-3.61,0.11-7.23,0.3-10.95,0.5c1.71-9.05,10.96-12.57,17.79-7.14c9.77,7.76,7.31,25.51-4.12,27.13
		c-8.63,1.22-11.93-7.8-13.47-8.24c-2.11,1.88,4.65,12.1,18.09,9.35c14.63-2.99,14.2-30.87-4.52-32.66
		c-8.48-0.81-13.37,3.62-16.08,11.76c-6.23-0.61-12.66,2.41-18.89-1.21c-0.9-0.41-2.31-0.71-3.01,0.8
		c-1.11-0.41-2.21-0.81-3.32-1.31c0-35.44,37.57-59.24,66.63-34.87c26.93,22.59,26.99,68.93,0.8,87.54
		C415.01,263.63,392.49,258.61,379.83,243.23z M414.91,195.8c5.32,5.03,5.62,15.08,0.2,21C418.83,209.17,418.53,202.43,414.91,195.8
		z M426.16,257.2c44.19-22.61,31.77-92.72-12.26-103.91C473.48,155.17,476.55,254.61,426.16,257.2z M463.65,205.65
		c-0.3-2.31-0.6-4.32-0.91-6.73c15.3-1.09,19.41-1.81,19.7,2.01C482.79,205.52,478.99,204.78,463.65,205.65z"/>
	<path d="M784.28,84.73c0.05-0.02,0.08,0.01,0.04-0.08C784.31,84.68,784.3,84.7,784.28,84.73z"/>
	<path d="M892.86,48.78c-5.04,0.97-10.15,1.71-15.28,2.21c-1.51-3.52-2.69-6.84-4.22-9.95c-12.53-25.48-36.22-35.34-60.9-28.64
		c-26.08,7.08-31.22,24.49-34.67,46.93c-1.11,0.4-1.81-0.9-3.22-0.3c-2.32,1.7-3.62,5.52-7.34,5.02
		c-6.55,4.54,19.88-0.08-76.68,13.77c-0.2-5.32-1.2-10.15-2.51-14.87c-1.46-5.27,0.1-13.74-9.55-21.91
		c3.62-4.73,0.61-9.15-0.6-13.77c-1.31,0.2-2.61-1.71-3.82,0.3c-0.6-0.7-0.5-1.81-1.61-2.41c-1.2,0.7-2.41,2.51-4.22,0.5
		c-0.8,0.8-1.51,1.61-2.21,2.31c-1.35-0.54,0.76-1.62-0.4-3.02c-1.61,0.81-2.11,2.71-3.92,3.72c-2.92-0.2-5.31,1.33-7.54,3.42
		c-17.62,16.51-10.66,9.13-13.57,9.35c-0.61,0.91-1.61,1.61-3.52,1.31c1.31,3.82-0.4,6.43-2.71,8.34c0,1.71,1.21,2.01,1.71,2.61
		c-3.12,15.61,5.39,16.45,8.64,30.15c-0.71,1.21-2.01,1.03-3.12,1.21c-41.65,6.7-37.03,6.31-39.8,0.9
		c-1.37-2.05-4.77,0.08-9.45-2.91c-1.61,0.81-1,2.31-2.11,3.52c-6.53-0.1-12.36,2.91-18.09,6.73
		c-23.03-79.34-114.79-62.16-108.93,16.98c-42.98,6.32-41.05,3.73-43.52,9.85c-1.22,3.03,0.99,5.29,3.72,7.24
		c6.84,0.09,9.99-0.8,41.71-5.33c3.64,12.05,7.73,23.28,17.79,34.37c26.76,29.49,91.77,25.56,91.77-43.53
		c2.52,1.5,5.03,0.4,7.44,0.6c-1.41-1.81-3.52-1.1-5.39-1.93c-1.1-1.2-1.71-2.91-2.61-4.32c3.77-3.02,3.79-4.76,10.25-5.53
		c6.62-0.79,13.48-0.15,20-1.71c0.8-0.19,1.6-0.4,2.61,0.1c-1.91,2.71-2.55,6-4.52,8.64c-0.82,1.1-0.6,2.31-0.4,3.42
		c2.88,15.99,0,13.03,4.92,26.93c7.81,22.05,5.17,28.51,7.54,31.15c1.41-2.61-0.3-5.23-0.1-7.74c0.34-4.36-1.68-13.26-2.31-16.18
		c2.21-1.21,3.92-3.32,6.83-4.02c-3.02-1.4-4.32-1.1-7.64,1.51c-3.92-11.35,4.62-26.53,12.66-25.12c0.9-0.7-1.02-1.54,0.3-2.21
		c8.1-4.11,6.19,0.91,12.96-6.23c1.71,1.51,3.42,2.72,3.72,5.43c7.06,2.94,18.84,30.44,16.88,38.59
		c-10.76-4.3-13.77-8.54-22.41-12.36c-1.4-0.62-1.91-2.01-2.81-3.12c-3.13,3.8,2.91,4.65,3.62,8.24
		c2.58,13.08-14.48,15.04-9.04,19.2c3.71-1.51,5.52-5.43,8.94-8.04c-0.81,4.32-1.51,8.24-1.41,12.26
		c0.09,3.61-9.63,17.26-20.5,21.71c-5.42,2.22-10.55,5.23-16.88,5.23c-21.53-34.15-8.08-20.82-11.76-74.17
		c-0.23-3.32-0.1-6.83-1.41-9.95c-1.4,0.2-1,1.21-0.9,1.91c3.16,22.46-0.77,49.12-0.5,53.87c0.94,16.4,10.39,23.81,11.86,27.44
		c1.22,3,3.52,3.42,6.03,2.81c44.2-10.76,26.04-39.69,32.16,3.42c2.28,16.04,0.08,23.32,3.72,36.38c0.98,3.53,0.1,7.44,0.7,11.16
		c1.01,6.23,2.66,12.36,1.81,18.89c-1.53,11.83,20.03,9.54-18.99,74.57c-6.74,11.23-0.66,3.83-31.26,12.66
		c-11.85,3.42-31.64,6.51-33.06,9.95c-1.37,3.33-3.61,6.33-4.62,9.85c1.41,3.42,5.03,3.62,7.64,5.23c-1.21-2.51-4.12-2.61-5.93-4.42
		c1.2-3.22,3.52-6.03,4.42-9.45c0.09-0.46,0.7-0.5,1.11-0.58c-0.1-3.24,18.96-6.01,19.9-6.15c6.31-0.96-4.69-0.03,33.87-8.24
		c0.9-0.19,1.8-0.5,3.01-0.8c1.31,2.41,3.82,0.3,5.93,2.31c-0.96-3.63-4.88,0.2,0.7-8.44c9.16-14.19,26.94-46.11,23.72-62.61
		c4.83,1.71,9.35,3.62,13.77,4.22c6.13,6.73,9.96,14.74,16.58,20.5c1.02,0.89,1.83,2.2,2.51,3.42c6.26,11.24,13.4,6.1,12.26,20.4
		c0,1.38-3.13,3.49-6.53,13.27c-5.73-2.61-10.55-1.3-15.38,2.01c-8.23,5.64-17.39,9.74-26.23,14.37c-4.22,2.21-8.14,1.31-12.06,0.3
		c-1.01-1.5-0.4-3.31-1.71-4.62c-3.04,11.13,16.28,0.16-64.42,25.02c13.53-0.23,23.08-7.54,35.17-7.84c0.8-0.02,1.6-0.51,2.31-0.8
		c9.39-3.85,19.4-5.8,29.04-8.74c4.04-1.23,4.71,2.42,11.26-0.5c13.66-6.08,12.72-8.02,17.19-7.64c2.61,0.22,5.13-0.7,7.64-1.41
		c4.62-1.3,9.65-1.01,14.57-4.02c-1.91,6.03-1.5,11.55-0.6,16.88s-0.51,11.05,2.71,16.18c1.79-4.01-0.21-2.94-0.4-29.04
		c-0.03-4.09,2.34-7.91,6.96-16.84c-1.38-1.16,0.58-1.97,0.44-0.52c2.28-1.52,4.82-8.27,1.96-15.43c1.21,1.06,1.78,2.92,4,3.45
		c-1.51-2.62-2.81-4.93-4.12-7.44c-1.57,1.04-0.28,2.24-0.29,3.19c-1.95-1.2-2.88-3.28-4.12-5.18c3.54,1.25,1.53-0.51-1.33-2.93
		c-0.15,1.42,0.67,1.8-3.42-1.61c-0.8-5.53,0.79-9.87,5.03-13.47c1.9-1.62,3.22-4.01,4.92-5.93c5.61-6.33,18.16-9.7,25.63-8.54
		c7.21,1.12,17.9,24.78,12.46,36.58c-2.6,5.64-3.22,11.86-5.63,17.49c-0.1,0.3,0.1,0.71,0.2,1.31c3.62-2.11,3.21-5.83,4.22-8.84
		c7.55-5.22,21.78-2.33,25.63-9.04c3.38-5.89,3.31-7.03-1.11-12.26c2.36-2.52,8.13-0.91,9.25-5.02c-9.55,1.91-18.29,7.24-28.54,6.13
		c-3.9-21.04-7.83-22.78,16.48-20.4c2.49,0,12.19,6.5,13.47,13.97c0,4.11,12.46-5.05,13.07-5.23c17.17,5.24,42.51-0.75,42.51,5.33
		c2.31,0.3,4.42,0.5,6.53-0.1c-2.82,0.1-3.32-2.82-5.43-3.62c-7.99-3.02-12.8-0.18-38.69-2.61c13.72-9.26,16.86-15.93,23.72-23.32
		c17.69-19.07,21.62-25.26,50.95,0.3c5.05,4.4,6.03,10.75,3.92,16.58c-2.01,5.53-2.33,11.05-3.32,16.68
		c-2.48,14.08-2.43,3.91-3.12,13.77c-0.44,6.37-2.44,9.54-8.34,29.55c-5.1,17.31-2.55,17.97-4.42,29.55
		c-0.3,1.85,2.09,3.7,2.81-2.31c2.06-17.25,0.4-14.18,3.82-25.43c0.55-1.8,11.93-38.23,11.76-47.84
		c-0.16-9.05,7.72-19.76,1.01-29.45c-7.51-10.85-48.1-31.13-65.32-35.48c-12.07-3.05-9.73-4.45-16.68-6.43
		c-3.74-1.07-7.6-1.71-11.16-3.22c-0.5-0.21-1.11-0.6-1.71-0.4c-5.01,1.66-12.95,1.18-13.87,3.02c1.11,2.11,5.58,0.19,9.04,0.4
		c-1.98,4.5-5.94,7.43-5.43,7.94c2.18,0.25,5.51-5.8,7.03-8.04c3.95-1.07,2.74-1.73,6.93,1.41c-4.29,4.08-13.38,9.24-13.14,9.24
		c6.02-2.21,11.94-4.62,16.15-9.94c2.01,1.91,4.43,1.67,6.53,2.21c2.22,0.57,3.92,2.21,6.43,3.42c-5.73,2.91-11.15,5.04-16.78,6.83
		c-21.19,6.73,5.41,1.47,17.29-5.83c15.17,1.41,27.44,9.25,40.5,15.38c-18.42,6.05-25.07,24.26-39.9,35.48
		c-2.01-2.92-4.63-4.42-7.44-5.83c2.01,2.21,4.82,3.61,6.73,6.83c-7.54,2.31-13.07,7.63-20,10.65c-2.41-6.43-6.63-10.85-12.16-14.07
		c7.94,0.91,15.67,1.71,23.01-2.31c-9.05,3.52-18.47-0.15-27.74,1.51c-3.11,0.56-6.33-0.3-9.55-0.4c-0.9-0.1-1.1-0.6-1.3-1.3
		c1.18-0.1,1.29-1.14,1.71-2.01c-1.07,0.29-1.62,1.06-1.71,2c-4.72,3.43-5.09-0.03-7.34,3.72c-2.75,5.5-1.51-3.43-5.63-6.33
		c-0.61-0.1-0.3-0.3-0.2-0.4c0.46-2.05,2.46,1.46,5.02-0.3c-2.81-1.71-5.83-1.91-8.34-3.22c-0.48,0.96-0.95,0.2,1.94,2.97
		c1.13,1.08,0.95,0.96,1.02,0.86c0.36,1.89,1.7,2.78,1.47,5.61c-4.26-10.21-13.03-8.33-24.52-5.33c-4.93,1.29-8.82,3.84-12.06,8.04
		c-2.88,3.74-6.73,6.74-8.94,11.16c-3.02-2.71-4.62-6.13-7.64-8.14c1.6,3.72,4.62,6.33,7.03,9.45c-0.41,1.51-0.81,2.91-1.21,4.22
		c-4.73-4.02-8.9-8.17-11.56-13.57c-0.54-1.09-9.63-8.69-11.66-23.22c-0.13-0.9-1.73-14.09,0.9-16.88c4.79-5.09,1.85-9,10.15-7.34
		c-5.23,2.11-5.53,2.31-6.13,3.52c0.41,0.4,0.81,0.4,1.31,0.3c20.04-4.04,20.26-0.49,24.92-5.03c4.39-4.28,13.1-0.18,18.09-0.8
		c0,1-1.8,0.7-0.9,2.31c6.94-0.2,14.28-1.61,21.31,1.51c-3.62-5.73-9.44-3.42-14.67-4.12c2.11-1.21,5.23-0.6,5.63-3.72
		c1.11,0.1,2.23,1.19,3.02,0.4c0.1,0.1,0.19,0.11-0.24,0.23c-1.91,1.84-2.29,1.52-0.9,1.98c5.06,0.07,9.4-4.28,11.8-6.22
		c5.94-4.81,3.57-2.67,14.67-2.21c0.2,0.91-1.4,0.6-0.7,1.61c2.31,0,4.02-1.61,6.13-2.21c1.21,1.41-0.2,2.61-0.7,4.32
		c2.21-1.41,3.81-2.41,5.02-4.02c-1.2-1.47-2.31,2.51-2.31-1.89c-0.11-0.04-0.15,0.03,0-0.12c0,0.17-0.02,0.1,0.09,0.14
		c-0.34-0.85-4.68-3.33-8.03-1.55c5.01-5.02-10.87-29.04-9.35-53.37c0.39-6.23,0.2-12.46-0.8-19.09c2.31,0.31,4.52,0.31,6.43,1.01
		c14.23,5.23,21.94-0.35,41-0.2c8.9,0.07,8.91-0.18,11.96-7.24c5.18-12,8.34-26.71,8.34-42.31c2.24,0.16,13.36,10.22,31.15,7.44
		c8.55-1.34,25.48,0.36,38.09-20c8.15-13.15,7.74-24.02,7.74-35.98c19.44-4.61,16.61-0.05,19.3-5.43
		C902.04,51.42,896.71,48.04,892.86,48.78z M662.32,354.38c3.42-2.21,6.54-4.11,9.45-6.23
		C681.24,341.24,693.81,350.33,662.32,354.38z M752.47,322.12c2.21-4.22,2.41-8.24-1.31-11.86
		C757.09,312.27,756.48,318.5,752.47,322.12z M749.05,310.67c0.9,1.1,1.59,1.81,2.21,2.81c2.07,3.34-0.1,10.05-3.72,10.85
		c-5.52,1.22-11.25,0.91-16.98,3.72c2.31-5.43,5.22-9.85,4.22-15.57C739.6,312.18,744.43,312.48,749.05,310.67z M750.05,233.98
		c-1.71,0-2.71,0.3-3.82-0.3C747.34,232.57,748.34,232.87,750.05,233.98z M777.99,64.75c0.81,0.3,1.01,0.81,0.9,2.11
		C778.29,65.96,777.59,65.55,777.99,64.75z M770.35,64.76c-0.7,2.46-2.71,2.16-2.71,0.8C768.54,65.25,769.45,65.05,770.35,64.76z
		 M644.54,68.47c-0.61,0-0.41,1-1.21,0.4C642.2,68.5,643.35,67.04,644.54,68.47z M641.32,68.67c0.9,1.21,0.1,2.42,0.8,3.22
		c1.01,0.41,1.01-1,1.81-0.7c0.2,2.82,0.2,2.82,4.22,3.12c-1.21-2.11-1.91-3.92-1.31-5.73c2.31,1.41,2.82,4.72,5.63,5.83
		c1.01-1.81,0.4-3.31-0.2-4.62c-3.19-6.94,1.44-13.59,2.91-25.93c3.26-2.65,13.88-7.32,16.48-5.33c4.45,3.41,9.55,6.23,11.56,12.36
		c-0.1,0.8-2.11,0.3-1.91,1.91c1.01,1.3,2.61-0.2,3.82,0.5c0.2,1.1,0.5,2.21-0.2,2.81c-2.61,1.31-3.01-1.91-5.02-2.21
		c0.91,4.42,6.84,6.03,5.23,11.05c4.42,3.52,2.71,8.44,3.52,13.08c-47.37,6.53-30.47,5.47-37.29,0.6c-0.31,1.71,1.2,2.91,1,4.42
		c-2.68,1.49-4.32-1.34-4.32-3.32c0.91-1.01,3.42-1.51,1.21-3.82C643.57,78.23,640.04,72.98,641.32,68.67z M592.88,84.85
		c9.71,3.8,6.08-0.8,9.14,5.33c-4.02,1.6-5.93-2.32-8.84-3.32C592.38,86.66,591.98,85.86,592.88,84.85z M590.57,87.36
		c8.47,2.76,6.25,7.2,2.72,4.32c-1.11-0.9-1.41-2.61-3.12-2.61C590.67,88.67,589.36,87.86,590.57,87.36z M580.82,94.3
		c0.2,0.31,0.2,0.71,0.2,1.01c-2.11,0.7-2.11,0.7-6.53-1.71C576.98,93.73,578.92,90.5,580.82,94.3z M422.84,124.35
		c-1.91-2.91-1.91-3.21,1.21-6.23C430.6,122.94,425.16,125.07,422.84,124.35z M428.27,125.05c3.02-3.12,0.2-5.03-0.2-7.34
		c5.86-0.97,19.31-2.82,32.46-4.72c48.19-6.96,61.09-11.19,56.08-1.81C511.71,113.76,516.9,112.2,428.27,125.05z M518.81,117.32
		c-0.5-1.11-1.71-1.81-1.71-3.42c2.72-1.81,3.09-4.62,2.11-7.43c-1.44-4.11-5.32-3.22-8.74-3.32
		C520.18,92,532.42,112.92,518.81,117.32z M519.01,120.83c4.79,5.72,7.51,17.53,3.82,19.7c-2.47-0.07-2.52-0.46-5.53-12.26
		c-0.59-2.31-1.31-4.62-1.31-6.93c0-2.22-2.41-4.13-1-7.14C516.7,116.81,517.51,119.03,519.01,120.83z M512.68,115.6
		c-4.52,8.04-4.72,16.99-6.13,25.83c-11.51-5.11-7.51-11.08,2.01-24.72C509.56,115.29,510.97,115.1,512.68,115.6z M492.88,163.25
		c-14.4-10.44-23.56-29.86-25.43-40.8c0.53-0.6,3.35-1.43,4.32-0.7c2.36,6.51,4.94,16.38,12.86,25.93
		c26.54,31.99,46.26,14.33,37.29,17.08c-27.2,8.33-50-40.11-47.23-43.92c10.36-1.5,20.81-3.01,31.26-4.52
		c-4.72,4.62-6.83,10.75-10.35,16.28c1.27,11.07,14.02,14.87,14.37,9.04c0.45-7.44,1.35-16.03,3.42-21.31
		c-0.81,6.43,2.71,12.36,2.21,18.99c-0.7,4.22,13.17,9.84,13.17-1.61c0-7.33-3.12-13.26-7.94-18.59
		c19.59-12.91-6.27-31.79-13.37-14.97c-34.55,4.76-35.28,5.48-35.28,4.12c-4.57-22.89,14.87-60.03,35.38-55.88
		c2.26,0.46,10.33,0.36,7.14-0.7c-21.42-9.19-46.56,18.72-45.12,52.86c0.07,1.6,0.5,3.31,0,5.02c-1.41,0.2-2.61,0.7-4.22,0
		c-5.39-53.86,39.48-81.74,69.83-50.24C585.02,111.08,543.74,200.13,492.88,163.25z M527.55,171.68
		c51.75-19.84,37.6-120.13-18.39-127.62C578.76,34.68,599.25,165.11,527.55,171.68z M574,101.84c-0.91-1.61-0.71-3.01-1.01-4.52
		c3.78-1.71,5.81,2.82,10.15-1.21c1.3,1.71,3.21,2.11,4.72,3.62C582.93,98.42,578.71,101.94,574,101.84z M586.05,96.61
		c-1.91-2.3-5.33-3.31-5.83-6.73c1.3-0.91,2.91-0.81,4.72-1.41c1.41,2.61,2.71,4.92,4.22,7.03
		C588.36,97.11,587.05,97.82,586.05,96.61z M586.75,88.77c1.41-1.01,2.21,0.8,3.42,0.4c0.2,2.21,2.31,3.62,2.91,5.83
		C590.45,96.5,591.91,97.61,586.75,88.77z M592.28,98.72c-0.93-0.92,4.22-5.27,9.25-6.03c186.31-28.16,167.68-25,169.83-20.7
		c-0.3,0.91-0.62,1.91-1.71,1.91C589.05,100.13,593.17,99.61,592.28,98.72z M698.89,105.44c2.13,0.85,2.59,6.14,5.13,9.25
		c4.17,5.09,3.12,10.25,2.01,15.68c-2.41,1.81-5.03,2.16-7.84,1.81c-12.51-1.56-26.55-0.66-42.71-16.28
		c3.42-0.95,12.92,1.35,23.01,0.3c3.82-0.4,7.33-0.4,10.55,1.81c-4.32-3.31-9.45-2.42-14.37-2.71c-23.53-1.39-13.16-0.49-14.37-3.32
		c-2.31,0.4-4.12,1.9-6.33,2.91c-4.22-2.41-7.64-5.92-11.86-9.04c4.32-3.82,8.64-6.83,9.85-12.36c10.35-1.71,20.7-3.31,31.96-4.62
		c-3.11,3.62,0,7.04-1.31,10.04c3.71,0.7,2.11,5.22,4.72,6.53C689.5,103.87,682.47,99.96,698.89,105.44z M635.09,109.08
		c-1.76,2.35-4.01,3.55-6.73,4.12c-5.01,1.05-8.76,4.39-12.86,7.03c-4.35,2.8-5.02,7.29-7.14,15.18
		c-2.81-3.93-2.22-12.84-3.52-17.39c-2.01-7.04,0.6-12.67,4.02-18.58c13.17-1.61,26.23-4.33,39.8-5.23
		C646.42,103.16,640.4,101.99,635.09,109.08z M635.79,170.89c3.2-11.66,1.9-21.2,2.91-23.22c0.7,0.3,1.41,0.7,1.81,1.71
		c-0.9,1.91-0.5,4.12-1,6.63c2.41-1.41,2.41-3.52,2.71-5.33c2.72,0.3,5.54,0,7.44,1.51c2.52,2,5.23,3.31,8.35,3.74
		c-0.61,5.72-2.51,10.55-5.63,14.87c-2.81-1.81-1-4.93-2.71-7.64c-1.41,3.92-0.61,7.33-1.01,10.75c-2.82,2.31-5.53,5.02-9.65,6.13
		C635.91,174.62,634.72,174.78,635.79,170.89z M710.85,242.32c0.3-0.4,0.51-0.9,1.31-0.2C711.66,242.63,711.36,242.73,710.85,242.32
		z M720.3,241.92c0.6-0.5,0.4-1.81,1.91-1.81C722.41,241.82,721.51,242.02,720.3,241.92z M741.34,218.28
		c4.24,10.2,0.85,12.84,3.92,13.86c-0.8,0.4-0.3,2.21-2.01,1.91c-0.1-1.1,0.7-2.51-1.51-2.91c-0.74,2.8-4.9,0.42-7.64,2.01
		c-12.55,7.28-30.1,6.06-33.87,9.45c-11.93-2.68-13.02,3.92-15.78,0.7c0.1-1,0.9-1.8,0.6-2.81c-1.41,0.81-1,2.72-2.11,3.22
		c-8.04,1.1-15.88,1-23.42,2.41c-0.9,1.91-1.11,4.11-2.61,5.53c-3.04,2.89-3.89,6.33-3.32,10.35c0.66,4.69-3.85,6.01-3.12,10.75
		c1.31-1.71,2.31-3.62,3.72-5.33c1.71,4.63,0.81,8.95-0.3,13.37c2.59-0.35,0.76-6.26,4.92,4.82c-9.05-0.37-18.17-7.64-17.79-16.98
		c0.35-8.54-4.31-41.51-4.32-41.61c-0.69-6.33-0.2-12.66-1.11-18.99c-4.08-28.3-0.36-28.74-3.12-28.74c0-1.38,1.08-2.35,2.11-3.12
		c6.76,16.47,8.54,14.27,8.54,18.99c0,2.52,0.2,4.93,1.21,7.54c1.4-2.11,0.3-4.12,0.7-6.73c7.32,16.38,3.66,23.18,11.56,33.57
		c2.27,2.99-2.92,2.28-3.32,9.25c1.91-2.11,2.01-4.93,4.62-5.83c1.77,3.84,2.03,8.21,4.1,12.13c0.29,0.55,2.13-1.14,1.53-2.88
		c-1.68-4.9-2.11-10.25-4.92-14.67c-8.13-12.79-0.18-10.97-18.29-44.92c9.62-3.89,10.91-10.2,13.77-8.44
		c-0.3-5.16,3.57-2.3,6.53-17.08c1-0.4,2.01,0.2,2.71-0.5c-0.4-1.21-2.11-0.8-2.21-2.11c-3.88-28.42-16.59-41.66-20.78-47.37
		c8.26,9.58,10.78,9.35,20.4,16.59c7.59,5.71,13.96,9.77,38.69,11.05c7.69,0.4,13.65-7.12,7.34-19.8c-1.5-3.02-3.11-5.93-4.92-9.45
		c5.52,3.12,19.19,25.33,28.74,39.3c-0.7,2.21-3.11,3.72-2.71,6.53c2.31-0.26,2.89-2.34,3.12-2.11c-0.56,0.85,3.13,10.74-0.1,13.97
		c5.65-0.4,0.01,18.58,3.52,29.55C737.09,201.11,737.92,210.05,741.34,218.28z M800.7,115.8c-2.98,30.75-8.65,33.98-9.85,41.91
		c-14.32,2.65-9.58-0.79-22.41,1.91c-11.55,2.44-22.71,0.71-33.66-3.04c-1.9-7.19-1.89-8.06-3.69-6.79
		c0.38-0.64,0.34-0.51,0.75-0.65c-0.28-0.06-0.59-0.07-0.97,0.01c6.03-6.03,6.13-14.17,7.74-22.41c-2.21,0.4-1.31-2.01-3.42-3.02
		c1.7,7.13-0.91,12.96-3.32,18.49c-7.74-9.75-12.86-21.2-20.8-30.75c0.1-1.21,1.61-1.61,1.61-3.12c-3.61,0.61-0.41,4.76-6.73-2.91
		c3.41-0.4,6.12-2.2,9.04-1.81c12.73,1.71,15.68,5.94,29.04,19.3c0.6-0.1,1-0.9,2.01-0.8c17.74,0.81,22.33,10.84,28.64,12.76
		c-1.11-2.61-3.72-3.72-5.63-5.63c15.99-23.03,12.33-17.76,15.58-39.7c0.19-1.27,0.52-5.1-0.36-4.8c-3.92,8.34-1.23,12.69-4.77,24.1
		c-2.31,7.44-9.35,11.76-11.56,19.2c-6.44-4.33-13.46-6.83-21.21-7.34c-4.76-0.31-3.86-3.62-16.58-13.67
		c-14.79-11.68-22.96,1.36-33.87-4.32c-8.86-4.61-7.85,2.65-11.05-8.64c-1.08-3.8-1.04-4,2.41-5.63c0.89-0.42,1.81-0.58,2.71-0.7
		c97.09-12.72,71.31-11.09,76.28-7.54c3.71,1.32,18.76,6.75,19.3,1.31c-6.43,1.61-11.96-0.9-17.59-2.61
		c-1.66-3.31,1.23-1.73,4.22-3.92c-0.99-3.14-1.6-10.01,0.1-12.36c0.9-0.4,1.71,1.11,2.51-0.1c0.1-0.9-1.91-1-0.8-2.31
		c4.02,0-0.01,5,4.82,8.34c4.13,2.86,8.21-2,11.86,3.42c0.69,1.02,1.81,1.51,3.62,1.21c2.41-0.4,5.12,2.71,4.72,5.02
		C797.22,90.68,801.46,107.96,800.7,115.8z M780.09,63.65c2.72-0.1,2.82,1.81,3.22,3.42c-0.8,0.7-1.5,0.7-2.91,0.7
		C780.91,66.26,780,65.05,780.09,63.65z M802.62,107.78c-2.76-30.33-0.96-31.79-4.22-35.48c6.26-2.04,21.96-1.57,21-5.43
		c-40.39,5.71-20.58,4.05-34.17,0.5c-0.51-3.62-1.21-4.32-5.23-5.73c-1.13-56.49,63.3-65.48,83.01-14.98
		C882.68,97.09,837.21,136.05,802.62,107.78z M845.32,115c41.16-22.73,27.43-93.17-18.79-102.8C884.08,9.92,895.93,106.7,845.32,115
		z M879.19,59.93c-0.4-2.31-1.1-4.32-1.1-6.63c13.95-1.88,18.74-4.11,19.4,0.3C898.49,58.39,893.67,57.74,879.19,59.93z"/>
	<path d="M558.31,367.04l0.1-0.1C558.29,366.98,558.31,366.92,558.31,367.04z"/>
	<path d="M816.18,344.52c4.61,17.07,2.11,37.41,3.72,39.5c1.61-0.2,1.71-1.4,1.71-2.51c0-36.81,0.48-21.05-3.82-43.01
		c-2.95-15.07,4.79-28.21,5.53-33.77C818.57,307.58,811.46,327.06,816.18,344.52z"/>
	<path d="M718.6,346.34c4.88,6.42-1.76,34.65-2.91,36.48c3.31-1.31,4.11-3.52,4.62-5.93c1.8-8.55,2.74-17.19,2.91-25.93
		c0.29-14.76,2.65-9.19,1.01-12.46C721.62,340.81,720.21,343.53,718.6,346.34z"/>
	<path d="M341.44,510.55c1.61-4.12,0.6-8.24,0.91-12.46c-10.15,1.31-20-1.01-29.95,0c9.35,1.1,18.59,2.61,28.24,2.21
		c0.7,0.91,0.3,2.11,0,3.62c-6.44-0.4-12.87,0.4-19.3,0.2c1.91,1.71,11.45,3.32,18.59,3.62
		C341.24,508.24,340.43,509.75,341.44,510.55z"/>
	<path d="M380.43,485.23c-11.35,3.31-22.81,6.53-32.96,13.06C358.12,493.16,369.58,490.05,380.43,485.23z"/>
	<path d="M353.1,514.37c5.22-2.41,10.35-3.02,14.87-5.53c-3.11-0.2-5.83,1.71-8.84,1.81c4.32-2.61,9.35-3.62,13.57-6.33
		c-6.54,1.81-12.97,4.12-19.4,6.83c1.71,1.41,2.81-0.6,4.22,0.1C356.52,512.46,354.51,512.36,353.1,514.37z"/>
	<path d="M643.63,337.6c-1.54,3.55,1.94,5.01,4.32,6.33c4.33-3.72,4.43-4.22,2.51-8.44C648.03,334.95,645.24,333.89,643.63,337.6z
		 M648.56,337c1.3,0.9,1.91,2.01,0.6,3.72c-1-1.41-2.01-1.31-2.71,0.2C643.3,338.4,646.55,335.6,648.56,337z"/>
	<path d="M246.25,567.02c-1.11,0.19-2.3-0.1-3.4,0.5c-2.81,1.3-3.01,3.8-0.92,7.11c-0.97-0.2-2.03-0.57-2.99-0.57
		c-3.32,0-5.68,4.63-2.52,7.12c1.01,0.8,2.11,1.31,3.22,1.91c4.21-3.71,4.42-4.22,2.43-8.4c4.71,1.7,7.13-1.21,6.41-4.86
		C248.21,568.47,246.88,567.95,246.25,567.02z M240.75,579.99c-0.9-1.91-1.91-1.01-2.81,0.1c-2.96-2.95,0.41-5.07,2.11-3.92
		C241.36,577.05,242.06,578.18,240.75,579.99z M244.77,573.46c-2.88-0.2-3.73-4.18-0.2-4.72
		C248.1,569.55,247.44,573.64,244.77,573.46z"/>
	<path d="M334.91,513.56c-4.72-2.41-9.85-1.1-14.47-2.41C325.06,515.67,332.3,517.08,334.91,513.56z"/>
	<path d="M338.82,492.25c-7.03-6.99-8.66-4.8-5.73-3.82c0.81,1.31,2.62,1.61,3.42,3.32c-8.34,1.41-16.58,0.1-24.62,1.91
		C320.74,493.76,329.58,494.37,338.82,492.25z"/>
	<path d="M346.06,505.12c0.1,0.3,0.2,0.7,0.2,1.01c10.35-2.01,20.6-4.43,30.65-7.34C377.66,497.29,377.73,497.98,346.06,505.12z"/>
	<path d="M841.91,322.42c-1.91,5.33-1.91,10.46-4.42,15.28C842.11,335.39,844.72,326.95,841.91,322.42z"/>
	<path d="M433.2,572.25c4.42-3.11,6.43-9.04,5.02-14.97C435.38,558.89,437.41,558.68,433.2,572.25z"/>
	<path d="M246.18,566.93c0.02,0.02,0.08,0.1,0.1,0.1L246.18,566.93z"/>
	<path d="M650.47,335.49c0,0-0.03-0.07-0.1-0.1L650.47,335.49z"/>
	<path d="M651.17,328.15c-2.67,1.43-3,3.88-0.75,7.26C659.82,338.88,658.04,324.48,651.17,328.15z M655.29,331.87
		c0.22,3.1-4.19,3.2-4.62,0C650.27,328.89,655.06,328.63,655.29,331.87z"/>
	<path d="M248.59,560.3c-1.91,1.8-4.02,3.51-2.41,6.53c3.69,0.37,3.25,0.06,4.52,2.61c1.91-1.21-0.1-2.71,0.7-4.12
		c0.81-1,1.71,1.21,3.02-0.2C253.11,562.91,250.7,561.81,248.59,560.3z M247.79,565.12c-0.61-1.01,0-1.71,0.9-2.41
		C251.27,563.83,249.07,565.89,247.79,565.12z"/>
	<path d="M662.73,325.84c-1.31-2.21-3.72-3.31-5.83-4.82c-1.91,1.91-3.92,3.62-2.31,6.53c3.69,0.37,3.25,0.06,4.52,2.61
		c1.91-1.2-0.1-2.71,0.81-4.32C660.52,325.04,661.42,327.35,662.73,325.84z M655.59,325.94c0.71-1.61,0.71-3.22,2.81-1.51
		C658,325.44,657.6,326.24,655.59,325.94z"/>
	<path d="M353.3,481.6c8.24-2.81,16.18-6.33,24.42-8.74C374.4,472.06,361.44,476.68,353.3,481.6z"/>
	<path d="M304.77,563.41c-2.66-5.31-4.43-7.16-3.72-10.95c0.26-1.42,0.2-2.82-1.61-3.42C297.93,555.07,300.05,561.5,304.77,563.41z"
		/>
	<path d="M703.62,314.89c-1.96,12.18,7.32,16.92,4.62,12.36C702.53,317.58,707.93,315.65,703.62,314.89z"/>
	<path d="M313.11,506.22c21.69,4.9,18.36,4.6,18.79,3.32C326.17,505.82,319.34,507.23,313.11,506.22z"/>
	<path d="M723.22,324.73c1.14-4.04,2.41-8.14-0.81-12.06c1.41,5.13,0.2,9.75-2.41,14.17C722.32,326.74,722.69,326.63,723.22,324.73z
		"/>
	<path d="M430.28,496.68c6.74,3.11,13.87,5.73,13.87,15.07C447.36,506.33,440.43,498.69,430.28,496.68z"/>
	<path d="M254.52,502.61c2.81-6.74,9.55-8.04,14.47-11.76C263.17,492.45,250.64,498.52,254.52,502.61z"/>
	<path d="M317.73,546.93c1.61,5.12,0.4,9.75-2.31,14.37C320.11,561.75,321.82,550.88,317.73,546.93z"/>
	<path d="M847.43,289.26c-6.33,0.81-12.66,1.51-19.09,1.81C834.87,292.17,841.21,291.77,847.43,289.26z"/>
	<path d="M443.05,523.51c-6.44,0.7-12.97,1.61-19.4,1.81C430.28,526.43,436.71,526.02,443.05,523.51z"/>
	<path d="M241.15,462.21c1-4.72,1.1-9.45,0.5-14.07C239.85,448.14,240.45,446.03,241.15,462.21z"/>
	<path d="M297.33,485.42c-16.84-1.43-13.79-1.95-14.27-0.5C287.78,486.02,292.51,486.32,297.33,485.42z"/>
	<path d="M835.08,262.43c4.62,2.21,9.44,4.12,12.46,8.54C845.43,265.34,840.3,263.73,835.08,262.43z"/>
	<path d="M248.39,499.59c-0.2-0.4-0.3-0.8-0.6-1.61c-3.22,2.62-5.03,5.93-7.34,9.35C243.34,507.67,245.1,501.51,248.39,499.59z"/>
	<path d="M296.03,570.65c1.4,3.01,4.32,4.72,6.53,7.03C301.35,574.47,299.54,571.75,296.03,570.65z"/>
	<path d="M582.13,365.54c-4.63,0.9-9.25,1.91-13.47,4.22C573.28,368.95,577.81,367.55,582.13,365.54z"/>
	<path d="M700.81,336.19c0.1,1.81,2.11,4.32,6.53,7.54C706.13,340.01,704.12,337.7,700.81,336.19z"/>
	<path d="M255.52,511.95c1.81-1,1.21-3.11,2.81-3.32c-0.8-2.51,1.61-4.22,2.01-6.93C257.03,504.51,256.02,507.73,255.52,511.95z"/>
	<path d="M338.12,528.14c-3.31-0.51-6.03,0.1-8.94,0.6C331.09,530.45,333.8,530.35,338.12,528.14z"/>
	<path d="M733.87,294.89c2.82,1.5,5.43,0.3,8.04-0.7C739.2,293.38,736.48,294.09,733.87,294.89z"/>
	<path d="M292.6,560.4c-1.81-2.81-3.51-5.13-4.72-7.84C287.18,555.77,288.59,558.18,292.6,560.4z"/>
	<path d="M748.85,294.38c-0.1,3.62,1.1,6.94,2.31,10.15C750.96,300.91,750.06,297.6,748.85,294.38z"/>
	<path d="M709.45,293.48c1.3,2.51,2.71,4.82,4.82,6.83C714.17,298.1,712.06,294.99,709.45,293.48z"/>
	<path d="M359.93,496.48c-3.62,0.8-7.04,2.11-10.05,4.22C353.5,500,356.72,498.29,359.93,496.48z"/>
	<path d="M613.69,128.36c2.21-2.41,4.22-4.52,6.63-7.03C616.8,122.64,614.69,124.95,613.69,128.36z"/>
	<path d="M451.39,521.4c2.81-0.6,4.42-1.81,4.92-4.12C454.5,518.29,452.29,518.79,451.39,521.4z"/>
	<path d="M831.36,383.53c0-2.21,0-4.33,0-6.63C829.55,379.01,829.35,381.22,831.36,383.53z"/>
	<path d="M344.55,528.74c-0.2,0.1-0.5,0.1-0.7,0.2C348.13,547.27,345.89,532.88,344.55,528.74z"/>
	<path d="M305.17,527.63c1.11,2.62,2.41,5.13,4.92,6.73C308.99,531.75,307.48,529.34,305.17,527.63z"/>
	<path d="M623.74,175.6c2.41-1.11,1.51-3.72,2.31-5.63C623.63,171.18,624.44,173.69,623.74,175.6z"/>
	<path d="M861.1,283.03c-2.01,0.8-4.12,1.4-5.13,4.22C858.69,286.45,860.3,285.24,861.1,283.03z"/>
	<path d="M563.34,379.91c2.31-2.11,2.11-4.73,2.21-7.24C564.22,372.67,565.17,371.1,563.34,379.91z"/>
	<path d="M428.67,538.69c1.81,1.91,4.22,2.11,5.73,3.72C432.9,540.7,431.89,538.49,428.67,538.69z"/>
	<path d="M334.31,474.37c-2.22,1.2-3.92,2.91-5.23,4.92C331.19,477.99,333.1,476.48,334.31,474.37z"/>
	<path d="M373.8,481.61c-2.41,0.7-4.82,1.2-6.83,2.91C369.58,484.12,371.79,483.11,373.8,481.61z"/>
	<path d="M302.15,542.71c-1.2,1.3-2.21,2.61-2.71,4.52C301.65,546.12,301.65,546.12,302.15,542.71z"/>
	<path d="M706.84,308.35c-1.41,1.21-2.31,2.62-2.41,4.52C706.34,312.07,706.64,310.26,706.84,308.35z"/>
	<path d="M712.97,330.46c-1.54,0-0.86-0.73-1.21,4.82C713.57,333.78,714.28,332.17,712.97,330.46z"/>
	<path d="M848.04,278c2.51-2.82,2.51-3.12-0.1-5.83C847.74,274.28,848.74,275.69,848.04,278z"/>
	<path d="M369.98,517.78c-1.61-2.11-2.61-2.61-5.83-2.91C364.82,515.98,368.78,517.64,369.98,517.78z"/>
	<path d="M452.89,529.04c1.81-0.6,2.82-1.71,2.51-4.22C453.89,526.23,453.09,527.43,452.89,529.04z"/>
	<path d="M593.19,117.42c0.6-2.62-0.1-4.02-1.31-5.33C591.37,113.8,591.57,115.3,593.19,117.42z"/>
	<path d="M438.62,552.85c0.81-1.6,1.01-3.11-0.3-4.82C436.71,549.84,438.52,551.35,438.62,552.85z"/>
	<path d="M255.02,490.85c1.11-0.91,2.31-2.01,3.82-3.12C256.53,487.63,256.53,487.63,255.02,490.85z"/>
	<path d="M259.75,489.24c2.11-1.3,4.72-1,6.83-2.51C262.16,486.83,261.86,486.93,259.75,489.24z"/>
	<path d="M594.89,176.51c0.5,2.11,1.01,4.22,2.71,5.83C597.1,180.13,596.2,178.22,594.89,176.51z"/>
	<path d="M428.87,578.99c1.71-0.5,3.22-1.11,3.52-3.72C430.08,576.07,429.68,577.58,428.87,578.99z"/>
	<path d="M307.48,564.72c0.4,1.61-0.4,3.21-0.3,4.92C309.69,567.33,309.79,566.53,307.48,564.72z"/>
	<path d="M833.66,344.63c-0.81,0.2-1.8,0.2-1.9,1.51C832.96,346.24,833.07,345.14,833.66,344.63c2.32-1,2.32-1,3.12-3.01
		C834.77,342.02,834.77,342.02,833.66,344.63z"/>
	<path d="M324.76,482.01c0.71,1.51,1.41,3.12,3.62,4.12C327.57,483.81,326.06,483.01,324.76,482.01z"/>
	<path d="M859.59,290.87c-1.2,1.2-2.11,2.41-2.91,4.22C859.7,293.88,859.7,293.88,859.59,290.87z"/>
	<path d="M563.74,370.46c-1.41-1.71-3.12-3.01-5.43-3.22C559.62,369.15,561.73,369.66,563.74,370.46z"/>
	<path d="M715.48,355.28c1.91-1.4,2.41-2.81,2.61-4.52C716.89,351.87,715.98,353.08,715.48,355.28z"/>
	<path d="M603.33,184.45c1.41,0.9,2.82,1.91,4.92,1.31C606.65,184.45,604.84,184.85,603.33,184.45z"/>
	<path d="M594.09,124.95c1.31-1.91,1.31-1.91-0.2-3.82C593.28,122.44,593.68,123.64,594.09,124.95z"/>
	<path d="M367.87,508.74c2.11,0.2,3.72-0.81,5.43-1.71C371.49,507.43,369.58,507.73,367.87,508.74z"/>
	<path d="M842.81,319.11c1.01-3.02,1.01-3.02-0.2-5.13C841.41,315.69,842.71,317,842.81,319.11z"/>
	<path d="M700.4,327.25c0.91,1.91,2.42,2.61,3.02,3.92C703.02,328.85,703.02,328.85,700.4,327.25z"/>
	<path d="M266.18,521.81c-0.61-2.01-2.01-2.82-3.12-3.72C263.66,519.49,264.37,520.9,266.18,521.81z"/>
	<path d="M285.17,550.85c-0.5-1.51-1.61-2.31-2.91-2.91C282.66,549.44,283.66,550.35,285.17,550.85z"/>
	<path d="M296.23,562.1c0.9,1.11,1.81,2.21,2.71,3.32C299.14,563.41,298.04,562.51,296.23,562.1z"/>
	<path d="M391.29,500c1.61-0.21,3.11-0.51,4.22-1.81C393.8,498.09,392.6,499.1,391.29,500z"/>
	<path d="M589.57,111.98c-1.21-1.3-2.31-0.9-3.32-0.8C587.15,112.19,588.06,112.29,589.57,111.98z"/>
	<path d="M242.06,472.56c-0.31,1.51,0.4,2.31,0.9,3.52C243.56,474.57,243.26,473.56,242.06,472.56z"/>
	<path d="M311.71,588.44c1.61-1.11,1.91-2.21,2.51-3.92C312.61,585.62,312.11,586.63,311.71,588.44z"/>
	<path d="M831.06,374.68c0.6-0.9,0.6-1.71,0.1-2.71C830.05,372.97,829.95,373.68,831.06,374.68z"/>
	<path d="M448.07,531.85c-1.61,0.2-2.41,0.81-3.32,2.21C446.46,533.86,447.47,533.56,448.07,531.85z"/>
	<path d="M260.45,512.76c-0.9-1.71-1.51-2.91-2.01-4.12C258.14,510.25,258.64,511.45,260.45,512.76z"/>
	<path d="M833.67,304.63c0.9,1.01,1.81,1.71,3.32,1.71C836.18,304.63,834.98,304.33,833.67,304.63z"/>
	<path d="M717.89,303.93c-0.2,1.51,1.01,1.41,2.51,2.01C719.6,304.63,719.3,303.53,717.89,303.93z"/>
	<path d="M852.46,297.7c-1.61,0.2-2.31,0.7-2.91,1.91C850.95,299.61,851.76,299.31,852.46,297.7z"/>
	<path d="M614.19,178.92c1.1-0.8,0.5-1.81,0.7-3.12C613.49,176.91,614.29,178.02,614.19,178.92z"/>
	<path d="M237.24,448.03c1.2,0.91,1.91,0.71,2.61-0.7C238.64,447.13,237.84,447.03,237.24,448.03z"/>
	<path d="M238.84,458.79c-1.01-0.9-1.91-0.4-3.62,0C236.83,459.19,237.74,459.8,238.84,458.79z"/>
	<path d="M266.58,486.73c1.31,0,2.51,0,3.82,0C269.09,486.13,267.89,486.33,266.58,486.73z"/>
	<path d="M827.24,351.27c1.71-0.3,1.91-1.21,2.21-2.01C827.74,348.85,827.84,350.06,827.24,351.27z"/>
	<path d="M313.51,538.18c-0.3,1.41,0.8,1.31,1.91,1.91C314.92,538.59,314.62,537.98,313.51,538.18z"/>
	<path d="M351.29,529.84c0.31-0.9-0.2-1.41-0.8-2.21C350.18,528.84,350.69,529.34,351.29,529.84z"/>
	<path d="M622.63,179.32c0.3-0.4,0.3-0.9-0.2-1.21C620.59,178.57,621.78,181.01,622.63,179.32z"/>
	<path d="M379.13,504.92c-0.8-0.3-1.31,0.3-2.01,0.6C378.02,506.03,378.63,505.52,379.13,504.92z"/>
	<path d="M246.08,495.47c-0.1,0.71,0.2,1.01,0.8,1.31C247.29,495.87,246.78,495.57,246.08,495.47z"/>
	<path d="M385.96,502.31c1.41,0,1.91-0.41,2.51-0.9C387.57,500.8,386.97,501.61,385.96,502.31z"/>
	<path d="M398.73,496.98c-1.51,0-2.52,0.31-3.22,1.21C396.62,498.39,397.52,497.88,398.73,496.98z"/>
	<path d="M304.56,583.81c-0.5,1.01,0.21,1.51,1.01,1.91C305.97,584.72,305.87,584.11,304.56,583.81z"/>
	<path d="M709.45,349.66c-0.2,0.9-0.2,0.9,0.8,1.91C710.56,350.46,710.15,349.96,709.45,349.66z"/>
	<path d="M243.94,481.09c-0.06-0.56-0.09-1.09-0.17-1.6C243.5,480.01,243.84,480.52,243.94,481.09z"/>
	<path d="M243.97,481.37c0-1.39-0.4,2.65,0.5,3.95C245.8,482.23,243.97,481.27,243.97,481.37z"/>
	<path d="M755.28,293.38c-1.21,0.9,0.3,1.1,0,1.71C755.88,294.39,755.48,293.98,755.28,293.38z"/>
	<path d="M713.47,359.51c0.9-0.4,1.1-0.91,0.9-1.61C713.17,358.2,713.47,358.8,713.47,359.51z"/>
	<path d="M626.95,167.06c-1,0.3-0.9,0.91-0.5,1.91C627.25,168.37,627.55,167.86,626.95,167.06z"/>
	<path d="M613.68,180.63c0.71-0.4,0.61-1.11,0.6-1.61C613.58,179.32,613.38,179.83,613.68,180.63z"/>
	<path d="M337.22,518.19c-1.01,0-1.11,0.6-1.21,1.21C336.72,519.4,336.72,518.69,337.22,518.19z"/>
	<path d="M831.46,369.36c0.7-0.61,0.7-0.91,0.5-1.31C831.26,368.15,831.46,368.55,831.46,369.36z"/>
	<path d="M309.79,507.83c-0.91-0.3-1.41-0.4-1.81-0.6C308.29,507.83,308.79,507.93,309.79,507.83z"/>
	<path d="M592.58,118.32c-0.1,0.7,0.3,1,0.9,1.11C594.45,118.46,593.02,117.43,592.58,118.32z"/>
	<path d="M307.88,507.23c-0.6-0.1-1.1-0.3-2.31-0.6C306.77,507.53,307.38,507.23,307.88,507.23z"/>
	<path d="M601.32,361.82c-0.73,0.18-1.22,0.08-0.9,0.4C600.72,362.22,601.12,362.32,601.32,361.82z"/>
	<path d="M237.03,439.19c0.2,0.71,0.5,0.61,0.9,0C237.63,438.89,237.33,438.89,237.03,439.19z"/>
	<path d="M365.97,222.23c0.96,5.12-1.35,8.57-3.12,12.96c-16.05,39.88-11.48,8.79-27.64,52.06c-2.64,7.06-8.96,12.57-19.8,33.16
		c2.8,0.3,0.26,0.02,16.38-22.81c8.7-12.33,6.19-24.63,24.52-44.42c2.51-2.71,10.65-23.53,11.66-27.74
		C367.49,224.76,367.41,223.28,365.97,222.23z"/>
	<path d="M323.86,349.65c-1.71-0.9-1.31-3.21-3.22-4.52c0.22,3.09,2.42,23.03,2.76,19.49c1.34-4,1.22-5.21,0.16-11.25
		c3.12-3.32,6.23-6.63,9.55-10.25C329.19,344.32,326.47,346.84,323.86,349.65z"/>
	<path d="M356.42,300.41c-2.43-1.21,0.42-1.06-9.45,7.04c-1.1,0.9-1.61,2.51-0.6,5.02C348.88,307.34,353.51,304.63,356.42,300.41z"
		/>
	<path d="M320.85,342.02c0.2-3.52,1.3-7.03,0.5-10.45C319.14,335.29,318.94,339.01,320.85,342.02z"/>
	<path d="M375.91,236.7c1.61-1.81,0.71-4.02,1.41-5.93C376.01,232.58,375.81,234.69,375.91,236.7z"/>
	<path d="M377.72,228.05c1.91-1.91,2.11-2.51,2.01-6.33C378.22,224.03,377.82,225.84,377.72,228.05z"/>
	<path d="M367.97,234.18c1.81-2.31,1.31-4.52,1.71-6.43C368.07,229.46,368.58,231.57,367.97,234.18z"/>
	<path d="M339.84,340.32c-2.01,0.4-3.92,1.1-5.13,2.81C335.47,343.89,334.24,344.41,339.84,340.32z"/>
	<path d="M319.64,322.12c0.1,1.51-0.2,3.01,1.31,4.42C321.34,324.53,321.04,323.13,319.64,322.12z"/>
	<path d="M344.76,313.18c-1.91,1.1-2.01,2.51-2.31,3.82C343.75,316.3,344.46,315.29,344.76,313.18z"/>
	<path d="M367.37,236.5c-2.01,0.3-1.71,1.6-2.51,3.01C366.57,238.71,366.77,237.6,367.37,236.5z"/>
	<path d="M342.44,316.99c-1.2,0.51-1.71,1.51-2.21,3.32C341.94,319.31,342.24,318.2,342.44,316.99z"/>
	<path d="M351.49,282.62c-1.5,3.9-6.16,3.04-8.39,5.98c-0.54-0.53-2.71,1.47-3.17,1.96c3.23-0.62,3.03-2,3.32-1.71
		C348.88,288.55,350.38,287.44,351.49,282.62z"/>
	<path d="M357.22,297.4c1.17-0.49,2.02-1.07,2.17-2.32C359.56,293.73,357.95,295.22,357.22,297.4z"/>
	<path d="M375.31,240.51c-0.7,0.31-0.9,0.61-0.7,1.11C375.11,241.42,375.31,241.12,375.31,240.51z"/>
	<path d="M292.01,417.08c-6.24,2.42-11.86,10.56-10.75,15.78c2.61-2.41,3.01-5.93,4.62-8.64
		C287.39,421.3,290.4,419.79,292.01,417.08z"/>
	<path d="M311.91,443.01c0.6,7.44-0.4,14.97,2.41,22.11C313.51,457.79,313.91,450.25,311.91,443.01z"/>
	<path d="M295.82,387.85c3.52-0.91,4.23-5.53,1.41-9.04C296.83,381.92,296.72,384.94,295.82,387.85z"/>
	<path d="M317.83,411.76c-1.81-3.12-5.83-6.03-9.35-6.33C311.5,407.44,314.51,409.55,317.83,411.76z"/>
	<path d="M251.71,409.34c0.4,3.22,1.1,3.72,4.62,3.92C255.22,411.15,253.21,410.65,251.71,409.34z"/>
	<path d="M300.75,404.12c-1.81,2.81-3.72,5.62-5.83,8.74C297.83,410.85,299.74,408.24,300.75,404.12z"/>
	<path d="M255.52,423.31c-1.5-1.6-3.11-3.01-5.93-3.82C251,422.51,253.11,423.11,255.52,423.31z"/>
	<path d="M302.76,396.99c-1.71,2.11-1.71,3.52-0.3,5.63C303.16,400.71,303.16,399,302.76,396.99z"/>
	<path d="M252.41,431.66c1.21,2.31,1.21,2.31,3.82,2.11C255.62,431.76,254.12,431.86,252.41,431.66z"/>
	<path d="M268.28,478.59c0-1.93-2.94-3.37-4.62-4.12C264.68,475.56,266,478.59,268.28,478.59z"/>
	<path d="M254.62,429.24c1,2.32,1.21,2.42,5.43,3.72C257.94,431.45,256.33,430.35,254.62,429.24z"/>
	<path d="M308.89,418.69c0.1,2.31,0.3,4.52,1.81,6.43C310.3,422.91,310.2,420.6,308.89,418.69z"/>
	<path d="M269.49,434.77c1.21,0.2,2.52,0.81,4.22-0.7C271.9,434.37,270.7,434.57,269.49,434.77z"/>
	<path d="M267.39,410.05c-0.41,1.01,0,1.61,0.9,1.91C268.59,411.05,268.49,410.35,267.39,410.05z"/>
	<path d="M259.95,424.62c0.8,1.11,1.8,0.91,3.22,0.4C262.06,424.22,261.06,424.32,259.95,424.62z"/>
	<path d="M293.21,467.84c-0.1,1.1-0.2,2.21-0.4,3.32C293.91,470.25,293.21,468.95,293.21,467.84z"/>
	<path d="M259.14,413.96c-0.4,0.71-0.2,1.11,0.4,1.41C261.23,416.22,261.27,413.97,259.14,413.96z"/>
	<path d="M265.77,423.72c0.9,1.01,1.41,0.4,2.01,0C267.18,422.81,266.58,423.21,265.77,423.72z"/>
	<path d="M311.8,429.75c-0.3,0.9-0.3,1.4,0,2.11C311.8,431.16,311.8,430.65,311.8,429.75z"/>
	<path d="M285.17,463.51c0.91-0.5,0.7-1.6,1.11-2.31C285.37,461.74,285.02,462.58,285.17,463.51z"/>
	<path d="M262.56,414.37c0.8,0.9,1.1,0.4,1.61,0.2C263.77,413.67,263.26,413.97,262.56,414.37z"/>
	<path d="M313.82,387.75c-0.71,0-1.11,0.2-1.31,0.9C313.61,389.36,314.12,389.15,313.82,387.75z"/>
	<path d="M319.24,386.74c-0.9-0.5-1.31-0.3-1.61,0.7C318.34,387.95,318.94,387.85,319.24,386.74z"/>
	<path d="M281.85,444.32c0.51-0.81,0-1.21-0.6-1.51C280.85,443.51,281.45,443.82,281.85,444.32z"/>
	<path d="M292.61,473.16c0.5-0.7,0.2-1.4,0.3-1.91C292.61,471.85,292.11,472.36,292.61,473.16z"/>
	<path d="M298.44,375.39c-0.91,0.8-0.51,1.2-0.3,1.81C299.45,376.4,298.44,376.09,298.44,375.39z"/>
	<path d="M310.8,425.36c0,0.51,0,0.97,0,1.57C311.32,426.32,310.87,425.86,310.8,425.36z"/>
	<path d="M105.69,277.9c-0.41,0.09-0.91,0.1-0.9,0.8C106.28,279.64,108.21,277.34,105.69,277.9z"/>
	<path d="M235.13,367.54c4.02,11.14-2.76,2.08,8.94,13.17c-1.97-10.61-4.55-2.83-7.94-16.38
		C234.12,365.03,234.73,366.44,235.13,367.54z"/>
	<path d="M218.84,351.27c-0.1,6.53,7.44,14.37,12.36,12.66C225.17,361.42,221.45,357.5,218.84,351.27z"/>
	<path d="M197.94,326.24c-1.11,5.23,4.82,12.97,10.05,13.77C203.57,336.19,199.14,332.37,197.94,326.24z"/>
	<path d="M233.31,350.26c-0.1,7.94,0.2,9.55,2.21,12.06C237.13,360.21,236.23,355.08,233.31,350.26z"/>
	<path d="M241.35,402.51c2.52-2.91,2.72-8.14,0.1-11.05C241.15,395.28,239.94,398.8,241.35,402.51z"/>
	<path d="M240.55,387.35c0-3.12,0-6.24-2.91-9.25C236.23,382.43,239.24,384.64,240.55,387.35z"/>
	<path d="M220.75,362.92c-1,2.42,1.01,4.83-0.2,6.93C223.66,367.94,223.87,365.23,220.75,362.92z"/>
	<path d="M176.73,252.28c-0.4-3.62-0.2-7.14-2.91-9.65C174.82,245.74,174.92,249.16,176.73,252.28z"/>
	<path d="M193.82,316.9c-0.91-3.02-1.71-5.23-2.41-7.74C189.9,312.28,190.6,315.09,193.82,316.9z"/>
	<path d="M220.65,369.96c-1.81,1.11-3.72,2.21-5.83,3.52C218.64,373.48,220.15,372.47,220.65,369.96z"/>
	<path d="M166.68,231.17c2.01,0.1,3.11-0.91,4.32-1.81C169.3,228.86,167.89,229.26,166.68,231.17z"/>
	<path d="M187.09,301.52c0,1.41,1,2.21,2.41,3.72C189.6,302.72,188.49,302.02,187.09,301.52z"/>
	<path d="M172.51,237.4c0.1-1.61,0.4-2.81-0.6-4.22C170.8,234.99,171.3,235.99,172.51,237.4z"/>
	<path d="M182.26,290.26c0.2,1.41,0.4,2.81,1.41,3.92C183.77,292.17,183.77,292.17,182.26,290.26z"/>
	<path d="M180.35,283.73c0.3-1.91-0.4-2.81-1.31-3.82C178.74,281.82,178.74,281.82,180.35,283.73z"/>
	<path d="M243.56,401.82c0.91,1.91,1.41,3.01,3.22,2.31C246.38,402.71,245.37,402.41,243.56,401.82z"/>
	<path d="M190.4,305.94c-0.6,1.41-0.1,2.01,1.31,2.01C191.81,306.74,191.41,306.24,190.4,305.94z"/>
	<path d="M177.24,274.89c-0.61,1-0.2,1.71,0.7,2.51C178.44,276.29,178.14,275.49,177.24,274.89z"/>
	<path d="M246.48,382.82c-0.4-1.41-1.41-1.81-2.31-2.21C244.07,382.02,244.67,382.82,246.48,382.82z"/>
	<path d="M232.61,348.15c0.5-1.1,0.2-1.71-0.4-2.51C231.6,346.64,231.91,347.25,232.61,348.15z"/>
	<path d="M180.05,228.96c-0.7-0.4-1.21-0.5-1.81,0.1C178.94,229.76,179.45,229.76,180.05,228.96z"/>
	<path d="M199.44,311.57c0.11-1.01,0.11-1.71-0.9-1.61C198.14,310.76,198.54,311.17,199.44,311.57z"/>
	<path d="M211.1,341.92c-0.2,1.41,0.71,1.11,1.61,1.41C212.41,342.12,212.01,341.72,211.1,341.92z"/>
	<path d="M207.19,309.76c0.1-1.11,0.2-1.91-1.11-1.81C205.78,308.86,206.28,309.36,207.19,309.76z"/>
	<path d="M230.9,343.43c-0.2,0.3-0.1,0.7,0.5,1.01C232.44,343.81,231.29,342.64,230.9,343.43z"/>
	<path d="M249.29,386.14c0.2-0.8,0-1.31-0.8-1.21C247.78,385.94,248.99,385.74,249.29,386.14z"/>
	<path d="M177.54,224.14c-1-0.2-0.4,0.4-0.2,0.7C178.09,226.35,178.42,224.13,177.54,224.14z"/>
	<path d="M182.36,302.62c0,1.61,0.41,1.81,1.31,1.51C183.97,303.13,183.16,303.23,182.36,302.62z"/>
	<path d="M217.84,347.85c0.5-0.51,0.2-0.81-0.2-1.11C217.13,347.25,217.13,347.55,217.84,347.85z"/>
	<path d="M272,285.95c-3.31-3.52-8.44-3.12-12.76,0.8C263.36,284.33,267.68,285.34,272,285.95z"/>
	<path d="M281.79,305.52c0.64,0.11-3.11-4.09-11.3,1.83C274.35,307.35,277.83,304.84,281.79,305.52z"/>
	<path d="M267.89,289.46c-2.12,1.51-5.23,0.6-7.54,3.01c1.71,0.31,3.21,0.21,4.42,1.01c1.51-0.51,2.31-1.51,3.42-1.41
		C268.69,290.97,268.49,290.26,267.89,289.46z"/>
	<path d="M246.18,312.17c0.91,4.53,3.12,7.94,7.64,9.55C249.3,317.5,249.63,318.39,246.18,312.17z"/>
	<path d="M281.84,308.79c0.61-0.1-2.38-4.01-7.02,0.96C277.35,310.44,279.5,309.18,281.84,308.79z"/>
	<path d="M250.8,331.97c0.31,1.81,0.61,3.62,3.12,3.52C253.01,334.28,252.41,332.67,250.8,331.97z"/>
	<path d="M277.84,298.5c-2.11-0.9-2.11-0.9-3.22,1.31C276.23,300.61,276.83,299.21,277.84,298.5z"/>
	<path d="M283.06,318c-1.93-0.27-2.94,0.25-4.62,0.9C280.18,319.15,281.55,319.25,283.06,318z"/>
	<path d="M288.59,356.59l0.1-0.1C288.34,356.09,288.5,356.24,288.59,356.59z"/>
	<path d="M258.94,340.22c-0.1,1.9,1,2.41,2.61,2.91C261.15,341.42,260.55,340.61,258.94,340.22z"/>
	<path d="M278.53,344.34c0,1.1,0.1,2.21,1.21,3.01C280.65,345.64,279.44,345.04,278.53,344.34z"/>
	<path d="M265.78,330.97c0.5,1.61,0.5,1.61,3.01,2.41C267.78,332.17,266.98,331.37,265.78,330.97z"/>
	<path d="M275.92,333.68c1.2-0.9,1.41-1.73,1.01-3.02C275.74,331.39,276.01,332.66,275.92,333.68z"/>
	<path d="M260.15,326.74c0.8,1.71,1.91,2.01,3.62,2.41C262.76,327.54,261.76,327.24,260.15,326.74z"/>
	<path d="M273.52,300.91c-0.1-1.4-0.2-2.31-1.21-2.71C271.3,298.6,271.4,299.01,273.52,300.91z"/>
	<path d="M283.06,351.03c0-0.03,0-0.05,0-0.07C282.57,350.87,281.96,350.66,283.06,351.03z"/>
	<path d="M285.28,351.76c-1.08-0.36-1.78-0.59-2.21-0.73c-0.02,0.81,0.55,1.35,1.3,1.54c0.53,0.18,0.59-0.36,0.81-0.69
		c0.1,0.1,1.06-0.51,1.2,0.39c0,0,0-0.01-0.01-0.01c-1.04,2.35,1.01,2.85,2.1,3.98c-0.4-1.46-1.09-2.63-2.09-3.96
		c6.79-4.08,8.53-4.25,7.74-5.04C285.12,350.9,285.27,350.11,285.28,351.76z"/>
	<path d="M254.02,335.39c0.1,1.1,0.91,1.51,1.91,2.11C255.83,335.99,255.42,335.19,254.02,335.39z"/>
	<path d="M282.56,344.13c0.7-0.9,0.2-1.31-0.5-2.01C281.35,343.33,281.96,343.73,282.56,344.13z"/>
	<path d="M289.29,358c0.2-0.91-0.4-1.01-0.5-1.51C288.89,356.89,289.09,357.3,289.29,358z"/>
	<path d="M685.75,198.42c3.21-5.53,5.02-11.86,11.05-15.28C691.37,183.64,685.14,192.29,685.75,198.42z"/>
	<path d="M718.9,230.87c-0.9-7.34-0.6-14.77-2.41-21.91C717.19,216.3,715.88,223.83,718.9,230.87z"/>
	<path d="M701.72,144.55c-0.71,3.11-0.31,6.13-1.11,9.04C704.12,152.19,704.53,148.27,701.72,144.55z"/>
	<path d="M645.95,213.98c-0.09-0.5-0.81-0.3-1.11-0.4c0.3,4.83,0.5,9.65,0.81,14.37C647.26,223.33,646.78,218.68,645.95,213.98z"/>
	<path d="M651.88,194.91c-0.58-1.02-0.21-2.21-1.11-3.22c-1.31,0.5-0.61,2.21-1.61,2.81c0.91,1.21,1.31,2.51,1.61,3.82
		c1.1,0,0.5-1.01,0.9-1.31c1.01-0.6,2.01,0.91,3.12-0.2C654.49,195.4,652.61,196.19,651.88,194.91z"/>
	<path d="M645.54,272.88c2.83-2.25,5.12-5.42,6.73-8.64C649.08,266.37,647.19,269.38,645.54,272.88z"/>
	<path d="M690.37,227.45c-1.94,4.18-4.14,8.18-5.21,12.6C684.64,242.17,687.39,237.76,690.37,227.45z"/>
	<path d="M650.37,179.62c-0.71,2.72-1.41,5.33,0.1,7.94C650.57,184.95,651.48,182.23,650.37,179.62z"/>
	<path d="M713.37,170.47c-0.8,1.2-1.66-0.09,7.54,5.93c0.5,0.71,1.2,1.11,2.31,1.61C722.79,177,717.97,172.32,713.37,170.47z"/>
	<path d="M661.53,178.92c-2.21-1.71-3.72-2.81-5.43-4.12C656.1,178.01,657.2,178.92,661.53,178.92z"/>
	<path d="M654.59,185.25c1,2.81,1.81,3.32,5.93,3.92C658.71,187.46,656.9,186.15,654.59,185.25z"/>
	<path d="M698.7,179.73c1.41-0.3,1.81-1.11,2.11-1.91c-0.49-0.49,1.75-0.4,4.92-7.54C704.5,169.04,705.01,170.74,698.7,179.73z"/>
	<path d="M715.58,192.29c-0.7-2.61-0.7-5.43-2.21-7.74C713.47,187.26,714.07,189.87,715.58,192.29z"/>
	<path d="M705.93,168.57c1.91-2.31,2.02-2.61,1.01-6.33C705.53,164.55,706.33,166.36,705.93,168.57z"/>
	<path d="M668.25,240.11c1.06,1.15,1.61,2.99,3.28,3.71c1.82,0.79,1.26,0.04,1.02-0.39C671.52,241.59,669.69,241.01,668.25,240.11z"
		/>
	<path d="M656.9,197.51c1.21,2.21,1.21,2.21,4.02,2.01C659.91,197.61,658.51,197.41,656.9,197.51z"/>
	<path d="M648.56,247.45c-0.1,1.21-0.81,2.61,0.5,4.02C649.77,249.86,649.77,248.56,648.56,247.45z"/>
	<path d="M664.03,198.32c-1.6-1.11-3.21-2.21-4.82-3.32C659.91,197.41,661.92,198.01,664.03,198.32z"/>
	<path d="M674.18,200.63c1.11,0.3,2.21,0.5,3.42-0.3C676.3,199.62,675.29,200.63,674.18,200.63z"/>
	<path d="M641.52,213.68c1.41,1.41,2.31,0.2,3.22-0.1C643.63,212.28,642.63,212.89,641.52,213.68z"/>
	<path d="M664.13,190.28c1.01,1.3,2.01,1,3.62,0.4C666.25,190.18,665.34,189.77,664.13,190.28z"/>
	<path d="M639.71,224.54c1.41,0.4,2.41,0.9,3.72,0C642.13,223.73,641.12,224.13,639.71,224.54z"/>
	<path d="M665.44,181.03c-0.6-0.9-1-1.51-2.31-1.11C663.43,181.13,664.13,181.43,665.44,181.03z"/>
	<path d="M646.75,240.52c1.49-0.41,0.65-2.07-0.2-2.21C645.74,239.21,647.05,239.72,646.75,240.52z"/>
	<path d="M703.02,142.84c0.91-1.1-0.5-1.5-0.4-2.91C702.01,141.43,702.01,142.24,703.02,142.84z"/>
	<path d="M671.97,175.8c-0.7,1.11,0.31,1.61,0.8,2.51C673.08,177.01,673.08,176.3,671.97,175.8z"/>
	<path d="M718.3,153.6c-0.71-0.11-1.11,0.2-1.31,0.9C718.09,155.1,718.5,154.8,718.3,153.6z"/>
	<path d="M685.34,208.06c-0.1,0.71,0.31,1.01,1.01,1.61C686.25,208.57,686.14,208.06,685.34,208.06z"/>
	<path d="M696.9,238.3c0.9-0.5,0.6-1.31,0.9-2.21C696.79,236.8,697.2,237.7,696.9,238.3z"/>
	<path d="M672.08,189.17c-0.6-0.4-1.11-0.3-1.61,0.1C671.17,190.48,671.67,190.18,672.08,189.17z"/>
	<path d="M716.59,199.02c0-1.55,0.06-1.01-0.2-1.01C716.39,199.08,716.47,199.02,716.59,199.02z"/>
	<path d="M723.82,152.79c-0.2-0.2-0.3-0.4-0.4-0.6C721.39,151.93,722.33,154.65,723.82,152.79z"/>
	<path d="M715.58,192.29c0,2,0,1.13,0,2.31c0.7-0.81,0.1-1.51,0-2.41C715.58,192.23,715.58,192.26,715.58,192.29z"/>
	<path d="M707.54,161.94c1.01-1.01,0.1-1.11,0-1.71C706.64,161.23,707.24,161.43,707.54,161.94z"/>
	<path d="M696.79,240.11c0.4-0.6,0.2-1.2,0.2-1.81C696.79,238.9,696.3,239.41,696.79,240.11z"/>
	<path d="M643.43,211.48c-0.2-0.5-0.5-0.5-0.8-0.2C642.83,211.58,643.03,211.78,643.43,211.48z"/>
	<path d="M668.76,180.03c-0.51-0.4-1.01-0.5-1.41,0.3C667.95,181.03,668.36,180.73,668.76,180.03z"/>
	<path d="M516.3,51.99c1.01,1.41,2.01,1.1,3.42,0.9C518.71,51.89,517.91,51.49,516.3,51.99z"/>
	<path d="M527.66,163.24c1.1,0.4,1.81,0.3,2.51-0.9C529.07,162.13,528.36,162.54,527.66,163.24z"/>
	<path d="M748.14,142.14c-3.6-2.19-6.59-3.49-10.05-4.52C739.08,141.76,743.91,142.45,748.14,142.14z"/>
	<path d="M795.98,92.79c1.31-2.01,1.31-4.12,0.2-6.13C795.28,88.67,795.18,90.68,795.98,92.79z"/>
	<path d="M751.06,142.94c2.21,1.4,4.02,1.6,5.93,0.9C755.08,141.83,754.37,141.73,751.06,142.94z"/>
	<path d="M766.43,152.09c0.61,1.3,1.91,2.01,3.12,2.81C768.75,153.59,767.94,152.39,766.43,152.09z"/>
	<path d="M796.28,82.94c0.9-1.21,1.3-2.01,0.5-3.52C795.78,80.63,796.28,81.64,796.28,82.94z"/>
	<path d="M787.24,156.41c1.4-0.2,2.31-0.6,2.71-2.11C788.34,154.3,787.74,155.1,787.24,156.41z"/>
	<path d="M780.7,136.61c0.2,1.01,0.61,1.41,1.41,1.51C782.31,137.21,781.71,136.91,780.7,136.61z"/>
	<path d="M737.59,149.87c0.1,1.11,0.81,1.21,1.31,1.71C739.3,150.38,738.7,149.98,737.59,149.87z"/>
	<path d="M778.09,134.69c-0.4,0.91-0.1,1.21,1.11,1.01C779,135,778.69,134.8,778.09,134.69z"/>
	<path d="M764.92,150.88c0,1.21,0.61,1.31,1.51,1.21C766.23,151.28,765.63,151.08,764.92,150.88z"/>
	<path d="M814.15,49.46c-4.52,1.71-6.73,4.52-8.94,11.86c-3.71,0.5-7.44,0.7-10.85,1.61c-3.72,0.99-6.83-1.51-10.85-1.41
		c1.11,1.91,2.92,0.8,3.62,1.81c1,1.11-0.2,2.51,0.7,3.62c2.32-1.59,28.52-5.05,30.25-4.92c3.75,0.28,5.66,3.34,2.61,6.13
		c-1.13,0.84,0.22,3.91,3.62-1.61c2.27-3.68-2.83-7.81-6.73-7.03c-3.21,0.65-6.43,1.01-9.75,1.41c0.41-8.14,8.25-12.87,15.18-9.65
		c8.44,3.92,11.87,15.89,6.73,23.62c-4.01,6.04-11.47,6.75-17.08,1.61c-1.31-1.2-2.11-2.91-3.73-3.94
		c-2.34,2.12,6.34,11.97,18.99,7.84C844.37,75.04,836.36,41.07,814.15,49.46z M830.05,77.62c0.5-1.21,0.81-1.71,1.51-1.91
		C831.66,76.51,831.05,76.81,830.05,77.62z M831.46,75.6c3.51-7.03,2.81-14.07-1.01-20.9C837.34,62.22,835.49,72.58,831.46,75.6z"/>
	<path d="M691.37,118.12c2.21-2.11,5.23-3.02,7.34-5.43c-7.41,3.17-6.47,2.59-8.65,3.52C689.76,117.62,691.17,117.32,691.37,118.12z
		"/>
	<path d="M690.77,104.85c0.7,1.91,2.11,2.92,2.61,4.62C693.58,106.76,693.58,106.76,690.77,104.85z"/>
	<path d="M682.73,109.37c-0.1,1.71,0.61,2.62,1.51,3.42C684.84,111.18,683.93,110.48,682.73,109.37z"/>
	<path d="M658,100.43c0.41,1.41,1.11,2.11,2.31,2.71C660.31,101.44,659.81,100.53,658,100.43z"/>
	<path d="M663.53,105.96c-0.4,1.11,0,1.51,0.4,1.91C666.87,110.21,666.16,106.71,663.53,105.96z"/>
	<path d="M665.84,93.39c0.61,1.61,1.71,1.71,3.52,2.31C668.25,94.09,667.45,93.49,665.84,93.39z"/>
	<path d="M691.97,121.03c0.61-1.2-0.7-1.91-0.6-2.91C688.85,119.72,691.77,120.03,691.97,121.03z"/>
	<path d="M686.45,108.07c-0.4,0.91-0.3,1.41,0.6,1.81C687.65,109.07,687.45,108.57,686.45,108.07z"/>
	<path d="M677.5,52.19c-3.92-3.32-8.84-2.92-12.86,1.11C668.76,50.68,673.18,51.99,677.5,52.19z"/>
	<path d="M687.95,72.19c-2.31-2.61-8.84-1.41-12.46,2.11C680.01,73.6,683.53,71.39,687.95,72.19z"/>
	<path d="M665.74,59.23c1.91-0.2,3.31,0.1,4.52,0.7c1.41-0.3,2.31-1.41,3.42-1.31c0.5-1.2,0.1-1.91-0.2-2.71
		C671.27,57.52,668.16,56.51,665.74,59.23z"/>
	<path d="M679.91,76.31c3.22,0.4,5.53-0.4,8.04-1.41C685.34,73.09,683.63,73.39,679.91,76.31z"/>
	<path d="M680.12,66.26c1.7-0.1,1.7-0.1,3.01-1.31C681.22,64.05,681.22,64.05,680.12,66.26z"/>
	<path d="M679.11,67.26c-0.3-1.4-0.4-2.41-1.61-2.71C676.9,65.96,677.5,66.56,679.11,67.26z"/>
	<path d="M644.74,161.13c-0.9-2.01-2.41-2.81-4.42-2.71C641.32,160.13,643.13,160.53,644.74,161.13z"/>
	<path d="M649.36,161.43c0.51-1.11-0.1-1.31-0.7-1.51C648.46,160.83,648.96,161.03,649.36,161.43z"/>
	<path d="M716.48,263.33c2.51,1.4,20.6,2.91,28.84,2.51c0.5,1.21,0.2,2.21-0.4,3.72c-6.34-0.2-12.77,0.5-19.3,0.5
		c2.72,2.31,6.23,1.42,9.25,2.21c3.11,0.82,6.43,1.31,9.55,1.11c1.11,0.7,0.3,2.21,1.61,2.91c1.71-4.12,0-8.34,1.1-12.66
		C736.78,265.04,726.83,262.63,716.48,263.33z"/>
	<path d="M750.66,270.87c0,0.4,0.1,0.7,0.2,1.11c10.66-2.21,21.21-4.52,31.66-7.74C781.96,263.13,786.62,262.65,750.66,270.87z"/>
	<path d="M783.32,251.57c-10.96,3.11-21.81,6.13-31.46,12.46C762.21,259.21,773.07,255.99,783.32,251.57z"/>
	<path d="M739.6,279.21c-5.12-2.01-10.05-1.31-14.67-2.21C731.46,281.82,736.59,282.83,739.6,279.21z"/>
	<path d="M741.71,257.6c-8.24,1.11-16.68,0.2-24.92,1.81C718.96,259.55,740.74,260.51,741.71,257.6z"/>
	<path d="M782.21,238.7c0-2.75-15.51,4.31-22.91,7.54C756.2,249.34,778.91,238.71,782.21,238.7z"/>
	<path d="M718.79,272.17c5.73,1.31,11.56,2.71,17.49,4.02C734.68,273.38,728.04,271.87,718.79,272.17z"/>
	<path d="M659.31,268.25c2.11-6.43,8.64-7.43,12.96-11.26C666.29,259.07,654.44,265.43,659.31,268.25z"/>
	<path d="M702.01,251.47c-4.72-1.21-9.64-0.8-14.47-1.41C692.27,251.77,697.09,252.07,702.01,251.47z"/>
	<path d="M660.61,277.3c1.21-0.2,0.61-1.71,1.41-2.11c1.01,0.6,0.91,1.91,2.21,2.51c-0.75-4.75-3.68-1,0.9-10.15
		C661.62,270.16,660.11,273.58,660.61,277.3z"/>
	<path d="M762.91,262.82c-3.21,0.5-6.03,1.91-8.64,3.62C757.49,265.94,760.2,264.43,762.91,262.82z"/>
	<path d="M774.47,283.13c-1.8-1.71-4.02-2.51-7.03-3.52C769.75,282.02,772.16,282.52,774.47,283.13z"/>
	<path d="M776.88,247.96c-2.51,0.4-4.72,1.4-6.83,2.81C772.56,250.36,774.78,249.36,776.88,247.96z"/>
	<path d="M663.23,252.78c-2.71,0.5-3.01,2.51-3.82,4.12C660.92,256,662.43,254.99,663.23,252.78z"/>
	<path d="M734.78,243.93c1.7-1,3.41-2.11,4.22-4.02C737.19,240.81,735.68,242.12,734.78,243.93z"/>
	<path d="M675.19,252.47c-1.31-0.5-2.51-0.5-3.82,0c-2.38-0.01-4.75-0.17-6.63,1.81C674.77,252,669.79,252.47,675.19,252.47z"/>
	<path d="M728.84,247.45c1.11,2.11,1.81,3.32,3.52,3.92C731.96,249.76,730.96,248.56,728.84,247.45z"/>
	<path d="M801.68,263.25c-1.91,0.13-3.54,0.74-4.79,2.09C798.63,265.05,800.29,264.56,801.68,263.25z"/>
	<path d="M801.91,263.23l-0.1-0.1C801.62,263.32,801.62,263.23,801.91,263.23z"/>
	<path d="M796.75,265.45c0.08,0,0.16-0.01,0.24-0.01C796.87,265.33,796.92,265.31,796.75,265.45z"/>
	<path d="M791.96,267.45c1.74-0.39,3.4-0.87,4.78-2C794.84,265.51,793.31,266.19,791.96,267.45z"/>
	<path d="M668.46,284.43c0.5,1.91,0.5,1.91,2.81,3.72C670.57,286.24,669.46,285.54,668.46,284.43z"/>
	<path d="M761.71,249.96c-0.79,0-1.82-0.44-3.92,1.01C758.91,250.7,761.61,250.01,761.71,249.96z"/>
	<path d="M736.19,253.19c0.69,1,1.6,1.4,2.49,1.8c2.83,3.14,4.07,1.31,0.29-0.36C739.08,254.53,737.9,253.07,736.19,253.19z"/>
	<path d="M741.51,256.9l0.1-0.1C741.39,256.8,741.46,256.71,741.51,256.9z"/>
	<path d="M743.82,258.81c-0.6-1.31-1.2-1.81-2.11-2.01C741.71,257.58,741.39,257.35,743.82,258.81z"/>
	<path d="M741.61,257.4l0.1,0.1C741.71,257.45,741.66,257.43,741.61,257.4z"/>
	<path d="M801.7,263.13c1.11,0.1,1.91-0.31,3.02-1.11C803.32,262.02,802.51,262.42,801.7,263.13z"/>
	<path d="M791.86,267.45c-0.04,0.04-0.07,0.06-0.11,0.1C792.02,267.55,791.99,267.58,791.86,267.45z"/>
	<path d="M788.34,268.86c1.26-0.09,2.42-0.39,3.41-1.31C790.44,267.52,789.39,268.1,788.34,268.86z"/>
	<path d="M788.44,268.96c-1,0-1.91,0.1-2.81,1.11C786.83,270.07,787.64,269.66,788.44,268.96z"/>
	<path d="M776.29,270.27c-0.23-0.13-4.85,1.42-18.8,6.43c1.71,1.6,2.91-0.61,4.22,0.3c-2.2,2.7-12.11,5.09,12.26-2.41
		c-3.62-0.2-6.83,1.41-10.25,1.91C764.7,275.4,776.67,270.49,776.29,270.27c1,0.1,1.81-0.31,2.51-1.01
		C777.89,269.36,776.99,269.56,776.29,270.27z"/>
	<path d="M779.7,272.07c-0.8-0.3-1.31,0.3-2.11,0.6C778.59,273.08,779.2,272.57,779.7,272.07z"/>
	<path d="M756.28,241.02c-3.91,2.44-1.14,2.85,0.5,0.5C756.63,241.37,756.37,241.22,756.28,241.02z"/>
	<path d="M755.79,248.16c1.3-0.1,2.11-0.61,2.91-1.11C757.69,246.95,756.89,247.15,755.79,248.16z"/>
	<path d="M710.05,272.78c0.71,0.2,1.21,0.3,1.61,0.5C711.36,272.68,710.86,272.47,710.05,272.78z"/>
	<path d="M708.55,256.49c0.32,0.22,1.01,0.23,0.8-0.2C709.05,256.19,708.75,256.09,708.55,256.49z"/>
	<path d="M714.07,273.88c-1.1-0.8-1.81-0.6-2.31-0.6C712.36,273.48,712.86,273.58,714.07,273.88z"/>
<path fill="#e6e6e6" d="m206.8 163.6c0-5.1 4.1-9.2 9.3-9.2s9.2 4.2 9.2 9.2-4.1 9.2-9.3 9.2-9.2-4.1-9.2-9.2zm17.3-.1c0-4.5-3.5-8.2-8.2-8.2s-8.2 3.7-8.2 8.3c0 4.5 3.5 8.2 8.2 8.2s8.2-3.7 8.2-8.3zm-13 0c0-2.8 2.1-5.1 5.1-5.1 1.9 0 2.9.6 3.9 1.5l-1.4 1.7c-.8-.7-1.5-1.1-2.5-1.1-1.7 0-2.8 1.4-2.8 3.1s1.1 3 2.8 3c1.1 0 1.7-.5 2.5-1.1l1.4 1.4c-1.1 1.1-2.1 1.7-4 1.7-2.9 0-5-2.3-5-5.1z"/><path fill="#e6e6e6" d="m226.6 154.7h3.4l4.2 13.2 4.4-13.3h2.6l4.4 13.3 4.2-13.2h3.3l-6.2 18h-2.7l-4.4-12.8-4.4 12.8h-2.7z"/><path fill="#e6e6e6" d="m252.8 165.8c0-3.9 3.1-7 7.2-7 4.2 0 7.2 3.2 7.2 7s-3.1 7-7.3 7c-4 0-7.1-3.1-7.1-7zm11.3 0c0-2.3-1.7-4.3-4.2-4.3s-4.1 2-4.1 4.3 1.7 4.3 4.1 4.3c2.7.1 4.2-1.9 4.2-4.3z"/><path fill="#e6e6e6" d="m269.5 159.1h3.1v3c.8-2 2.4-3.4 4.8-3.3v3.2h-.2c-2.7 0-4.6 1.7-4.6 5.4v5.1h-3.1z"/><path fill="#e6e6e6" d="m279.1 153.9h3.1v11.1l5.6-6h3.8l-5.4 5.5 5.5 8h-3.5l-4.1-5.8-1.9 2v3.9h-3.1z"/><path fill="#e6e6e6" d="m291.7 165.8c0-3.9 3.1-7 7.2-7 4.2 0 7.2 3.2 7.2 7s-3.1 7-7.3 7c-4 0-7.1-3.1-7.1-7zm11.3 0c0-2.3-1.7-4.3-4.2-4.3s-4.1 2-4.1 4.3 1.7 4.3 4.1 4.3c2.6.1 4.2-1.9 4.2-4.3z"/><path fill="#e6e6e6" d="m308.2 167.6v-8.6h3.1v7.6c0 2.1 1.1 3.3 2.9 3.3s3-1.3 3-3.3v-7.6h3.1v13.4h-3.1v-2.1c-.8 1.3-2.1 2.3-4.2 2.3-3.1.2-4.8-1.8-4.8-5z"/><path fill="#e6e6e6" d="m323.9 168.8v-7.1h-1.7v-2.6h1.7v-3.7h3.1v3.7h3.6v2.6h-3.6v6.6c0 1.2.6 1.7 1.7 1.7.7 0 1.3-.2 1.9-.5v2.5c-.8.5-1.7.7-2.8.7-2.3 0-3.9-.9-3.9-3.9z"/><path fill="#e6e6e6" d="m333.2 154.7h3.2v15h9.4v2.9h-12.5v-17.9z"/><path fill="#e6e6e6" d="m356 172.5v-1.7c-.9 1.1-2.3 2-4.4 2-2.6 0-4.8-1.4-4.8-4.2 0-3 2.3-4.4 5.4-4.4 1.7 0 2.6.2 3.7.5v-.2c0-1.9-1.2-2.9-3.3-2.9-1.5 0-2.6.3-3.9.8l-.8-2.5c1.5-.7 2.9-1.1 5.1-1.1 4 0 5.9 2.1 5.9 5.7v8zm.1-5.6c-.8-.3-1.9-.5-3.1-.5-2 0-3.1.8-3.1 2.1s1.1 2 2.6 2c2 0 3.5-1.1 3.5-2.9z"/><path fill="#e6e6e6" d="m364.9 170.5v2.1h-3.1v-18.7h3.1v7.4c1-1.4 2.4-2.5 4.5-2.5 3.2 0 6.3 2.5 6.3 7s-3.1 7-6.3 7c-2.1 0-3.5-1.1-4.5-2.3zm7.7-4.7c0-2.6-1.7-4.3-3.9-4.3s-3.9 1.7-3.9 4.4c0 2.6 1.8 4.3 3.9 4.3s3.9-1.7 3.9-4.4z"/><path fill="#e6e6e6" d="m376.9 170.8 1.4-2.1c1.4 1.1 3 1.7 4.4 1.7s2.1-.5 2.1-1.5-1.3-1.4-2.8-1.8c-.1 0-.2-.1-.2-.1-2-.6-4.2-1.4-4.2-4s2.1-4.1 4.8-4.1c1.7 0 3.5.6 5 1.5l-1.2 2.2c-1.3-.8-2.6-1.3-3.8-1.3s-1.9.5-1.9 1.4 1.3 1.4 2.8 1.8c.1 0 .2.1.2.1 2 .6 4.2 1.5 4.2 4 0 2.9-2.2 4.2-5 4.2-1.9 0-4-.7-5.8-2z"/><path fill="#e6e6e6" d="m505.6 163.6c0-5.1 4.1-9.2 9.3-9.2s9.2 4.2 9.2 9.2-4.1 9.2-9.3 9.2-9.2-4.1-9.2-9.2zm17.4-.1c0-4.5-3.5-8.2-8.2-8.2s-8.2 3.7-8.2 8.3c0 4.5 3.5 8.2 8.2 8.2s8.2-3.7 8.2-8.3zm-13.1 0c0-2.8 2.1-5.1 5.1-5.1 1.9 0 2.9.6 3.9 1.5l-1.4 1.7c-.8-.7-1.5-1.1-2.5-1.1-1.7 0-2.8 1.4-2.8 3.1s1.1 3 2.8 3c1.1 0 1.7-.5 2.5-1.1l1.4 1.4c-1.1 1.1-2.1 1.7-4 1.7-2.9 0-5-2.3-5-5.1z"/><path fill="#e6e6e6" d="m525.4 154.7h3.4l4.2 13.2 4.4-13.3h2.6l4.4 13.3 4.2-13.2h3.3l-6.2 18h-2.7l-4.4-12.8-4.4 12.8h-2.7z"/><path fill="#e6e6e6" d="m551.7 165.8c0-3.9 3.1-7 7.2-7 4.2 0 7.2 3.2 7.2 7s-3.1 7-7.3 7c-4.1 0-7.1-3.1-7.1-7zm11.2 0c0-2.3-1.7-4.3-4.2-4.3s-4.1 2-4.1 4.3 1.7 4.3 4.1 4.3c2.7.1 4.2-1.9 4.2-4.3z"/><path fill="#e6e6e6" d="m568.3 159.1h3.1v3c.8-2 2.4-3.4 4.8-3.3v3.2h-.2c-2.7 0-4.6 1.7-4.6 5.4v5.1h-3.1z"/><path fill="#e6e6e6" d="m577.9 153.9h3.1v11.1l5.6-6h3.8l-5.4 5.5 5.5 8h-3.5l-4.1-5.8-1.9 2v3.9h-3.1z"/><path fill="#e6e6e6" d="m590.6 165.8c0-3.9 3.1-7 7.2-7 4.2 0 7.2 3.2 7.2 7s-3.1 7-7.3 7c-4.1 0-7.1-3.1-7.1-7zm11.2 0c0-2.3-1.7-4.3-4.2-4.3s-4.1 2-4.1 4.3 1.7 4.3 4.1 4.3c2.6.1 4.2-1.9 4.2-4.3z"/><path fill="#e6e6e6" d="m607 167.6v-8.6h3.1v7.6c0 2.1 1.1 3.3 2.9 3.3s3-1.3 3-3.3v-7.6h3.1v13.4h-3.1v-2.1c-.8 1.3-2.1 2.3-4.2 2.3-3 .2-4.8-1.8-4.8-5z"/><path fill="#e6e6e6" d="m622.7 168.8v-7.1h-1.7v-2.6h1.7v-3.7h3.1v3.7h3.6v2.6h-3.6v6.6c0 1.2.6 1.7 1.7 1.7.7 0 1.3-.2 1.9-.5v2.5c-.8.5-1.7.7-2.8.7-2.3 0-3.9-.9-3.9-3.9z"/><path fill="#e6e6e6" d="m632 154.7h3.2v15h9.4v2.9h-12.6z"/><path fill="#e6e6e6" d="m654.8 172.5v-1.7c-.9 1.1-2.3 2-4.4 2-2.6 0-4.8-1.4-4.8-4.2 0-3 2.3-4.4 5.4-4.4 1.7 0 2.6.2 3.7.5v-.2c0-1.9-1.2-2.9-3.3-2.9-1.5 0-2.6.3-3.9.8l-.8-2.5c1.5-.7 2.9-1.1 5.1-1.1 4 0 5.9 2.1 5.9 5.7v8zm.1-5.6c-.8-.3-1.9-.5-3.1-.5-2 0-3.1.8-3.1 2.1s1.1 2 2.6 2c2 0 3.5-1.1 3.5-2.9z"/><path fill="#e6e6e6" d="m663.7 170.5v2.1h-3.1v-18.7h3.1v7.4c1-1.4 2.4-2.5 4.5-2.5 3.2 0 6.3 2.5 6.3 7s-3.1 7-6.3 7c-2.1 0-3.5-1.1-4.5-2.3zm7.8-4.7c0-2.6-1.7-4.3-3.9-4.3-2.1 0-3.9 1.7-3.9 4.4 0 2.6 1.8 4.3 3.9 4.3s3.9-1.7 3.9-4.4z"/><path fill="#e6e6e6" d="m675.8 170.8 1.4-2.1c1.4 1.1 3 1.7 4.4 1.7s2.1-.5 2.1-1.5-1.3-1.4-2.8-1.8c-.1 0-.2-.1-.2-.1-2-.6-4.2-1.4-4.2-4s2.1-4.1 4.8-4.1c1.7 0 3.5.6 5 1.5l-1.2 2.2c-1.3-.8-2.6-1.3-3.8-1.3s-1.9.5-1.9 1.4 1.3 1.4 2.8 1.8c.1 0 .2.1.2.1 2 .6 4.2 1.5 4.2 4 0 2.9-2.2 4.2-5 4.2-2 0-4.1-.7-5.8-2z"/><path fill="#e6e6e6" d="m61 298.6c0-5.1 4.1-9.2 9.3-9.2s9.2 4.2 9.2 9.2-4.1 9.2-9.3 9.2c-5.1 0-9.2-4.2-9.2-9.2zm17.4-.1c0-4.5-3.5-8.2-8.2-8.2s-8.2 3.7-8.2 8.3c0 4.5 3.5 8.2 8.2 8.2s8.2-3.7 8.2-8.3zm-13.1-.1c0-2.8 2.1-5.1 5.1-5.1 1.9 0 2.9.6 3.9 1.5l-1.4 1.7c-.8-.7-1.5-1.1-2.5-1.1-1.7 0-2.8 1.4-2.8 3.1s1.1 3 2.8 3c1.1 0 1.7-.5 2.5-1.1l1.4 1.4c-1.1 1.1-2.1 1.7-4 1.7-2.8.1-5-2.2-5-5.1z"/><path fill="#e6e6e6" d="m80.9 289.7h3.4l4.2 13.2 4.4-13.3h2.6l4.4 13.3 4.2-13.2h3.3l-6.2 18h-2.7l-4.4-12.8-4.4 12.8h-2.7z"/><path fill="#e6e6e6" d="m107.1 300.8c0-3.9 3.1-7 7.2-7s7.2 3.2 7.2 7-3.1 7-7.3 7c-4 0-7.1-3.1-7.1-7zm11.3 0c0-2.3-1.7-4.3-4.2-4.3s-4.1 2-4.1 4.3 1.7 4.3 4.1 4.3c2.6.1 4.2-1.9 4.2-4.3z"/><path fill="#e6e6e6" d="m123.7 294h3.1v3c.8-2 2.4-3.4 4.8-3.3v3.2h-.2c-2.7 0-4.6 1.7-4.6 5.4v5.1h-3.1z"/><path fill="#e6e6e6" d="m133.4 288.9h3.1v11.1l5.6-6h3.8l-5.4 5.5 5.5 8h-3.5l-4.1-5.8-1.9 1.9v3.9h-3.1z"/><path fill="#e6e6e6" d="m146 300.8c0-3.9 3.1-7 7.2-7s7.2 3.2 7.2 7-3.1 7-7.3 7c-4.1 0-7.1-3.1-7.1-7zm11.2 0c0-2.3-1.7-4.3-4.2-4.3s-4.1 2-4.1 4.3 1.7 4.3 4.1 4.3c2.6.1 4.2-1.9 4.2-4.3z"/><path fill="#e6e6e6" d="m162.4 302.6v-8.6h3.1v7.6c0 2.1 1.1 3.3 2.9 3.3s3-1.3 3-3.3v-7.6h3.1v13.4h-3.1v-2.1c-.8 1.3-2.1 2.3-4.2 2.3-3 .2-4.8-1.8-4.8-5z"/><path fill="#e6e6e6" d="m178.1 303.8v-7.1h-1.7v-2.7h1.7v-3.7h3.1v3.7h3.6v2.6h-3.6v6.6c0 1.2.6 1.7 1.7 1.7.7 0 1.3-.2 1.9-.5v2.5c-.8.5-1.7.7-2.8.7-2.3.1-3.9-.9-3.9-3.8z"/><path fill="#e6e6e6" d="m187.4 289.7h3.2v15h9.4v2.9h-12.5v-17.9z"/><path fill="#e6e6e6" d="m210.2 307.5v-1.7c-.9 1.1-2.3 2-4.4 2-2.6 0-4.8-1.4-4.8-4.2 0-3 2.3-4.4 5.4-4.4 1.7 0 2.6.2 3.7.5v-.2c0-1.9-1.2-2.9-3.3-2.9-1.5 0-2.6.3-3.9.8l-.8-2.5c1.5-.7 2.9-1.1 5.1-1.1 4 0 5.9 2.1 5.9 5.7v8zm.1-5.6c-.8-.3-1.9-.5-3.1-.5-2 0-3.1.8-3.1 2.1s1.1 2 2.6 2c2 0 3.5-1.1 3.5-2.9z"/><path fill="#e6e6e6" d="m219.2 305.5v2.1h-3.1v-18.7h3.1v7.4c1-1.4 2.4-2.5 4.5-2.5 3.2 0 6.3 2.5 6.3 7s-3.1 7-6.3 7c-2.2 0-3.6-1.1-4.5-2.3zm7.7-4.7c0-2.6-1.7-4.3-3.9-4.3s-3.9 1.7-3.9 4.4c0 2.6 1.8 4.3 3.9 4.3s3.9-1.7 3.9-4.4z"/><path fill="#e6e6e6" d="m231.2 305.8 1.4-2.1c1.4 1.1 3 1.7 4.4 1.7s2.1-.5 2.1-1.5-1.3-1.4-2.8-1.8c-.1 0-.2-.1-.2-.1-2-.6-4.2-1.4-4.2-4s2.1-4.1 4.8-4.1c1.7 0 3.5.6 5 1.5l-1.2 2.2c-1.3-.8-2.6-1.3-3.8-1.3s-1.9.5-1.9 1.4 1.3 1.4 2.8 1.8c.1 0 .2.1.2.1 2 .6 4.2 1.5 4.2 4 0 2.9-2.2 4.2-5 4.2-2 0-4.1-.7-5.8-2z"/><path fill="#e6e6e6" d="m360.6 298.6c0-5.1 4.1-9.2 9.3-9.2s9.2 4.2 9.2 9.2-4.1 9.2-9.3 9.2-9.2-4.2-9.2-9.2zm17.4-.1c0-4.5-3.5-8.2-8.2-8.2s-8.2 3.7-8.2 8.3c0 4.5 3.5 8.2 8.2 8.2s8.2-3.7 8.2-8.3zm-13.1-.1c0-2.8 2.1-5.1 5.1-5.1 1.9 0 2.9.6 3.9 1.5l-1.4 1.7c-.8-.7-1.5-1.1-2.5-1.1-1.7 0-2.8 1.4-2.8 3.1s1.1 3 2.8 3c1.1 0 1.7-.5 2.5-1.1l1.4 1.4c-1.1 1.1-2.1 1.7-4 1.7-2.8.1-5-2.2-5-5.1z"/><path fill="#e6e6e6" d="m380.5 289.7h3.4l4.2 13.2 4.4-13.3h2.6l4.4 13.3 4.2-13.2h3.3l-6.2 18h-2.7l-4.4-12.8-4.4 12.8h-2.7z"/><path fill="#e6e6e6" d="m406.7 300.8c0-3.9 3.1-7 7.2-7 4.2 0 7.2 3.2 7.2 7s-3.1 7-7.3 7c-4.1 0-7.1-3.1-7.1-7zm11.3 0c0-2.3-1.7-4.3-4.2-4.3s-4.1 2-4.1 4.3 1.7 4.3 4.1 4.3c2.7.1 4.2-1.9 4.2-4.3z"/><path fill="#e6e6e6" d="m423.3 294h3.1v3c.8-2 2.4-3.4 4.8-3.3v3.2h-.2c-2.7 0-4.6 1.7-4.6 5.4v5.1h-3.1z"/><path fill="#e6e6e6" d="m433 288.9h3.1v11.1l5.6-6h3.8l-5.4 5.5 5.5 8h-3.5l-4.1-5.8-1.9 2v3.9h-3.1z"/><path fill="#e6e6e6" d="m445.6 300.8c0-3.9 3.1-7 7.2-7 4.2 0 7.2 3.2 7.2 7s-3.1 7-7.3 7c-4.1 0-7.1-3.1-7.1-7zm11.3 0c0-2.3-1.7-4.3-4.2-4.3s-4.1 2-4.1 4.3 1.7 4.3 4.1 4.3c2.6.1 4.2-1.9 4.2-4.3z"/><path fill="#e6e6e6" d="m462.1 302.6v-8.6h3.1v7.6c0 2.1 1.1 3.3 2.9 3.3s3-1.3 3-3.3v-7.6h3.1v13.4h-3.1v-2.1c-.8 1.3-2.1 2.3-4.2 2.3-3.1.2-4.8-1.8-4.8-5z"/><path fill="#e6e6e6" d="m477.8 303.8v-7.1h-1.8v-2.7h1.7v-3.7h3.1v3.7h3.6v2.6h-3.6v6.6c0 1.2.6 1.7 1.7 1.7.7 0 1.3-.2 1.9-.5v2.5c-.8.5-1.7.7-2.8.7-2.2.1-3.8-.9-3.8-3.8z"/><path fill="#e6e6e6" d="m487.1 289.7h3.2v15h9.4v2.9h-12.5v-17.9z"/><path fill="#e6e6e6" d="m509.9 307.5v-1.7c-.9 1.1-2.3 2-4.4 2-2.6 0-4.8-1.4-4.8-4.2 0-3 2.3-4.4 5.4-4.4 1.7 0 2.6.2 3.7.5v-.2c0-1.9-1.2-2.9-3.3-2.9-1.5 0-2.6.3-3.9.8l-.8-2.5c1.5-.7 2.9-1.1 5.1-1.1 4 0 5.9 2.1 5.9 5.7v8zm.1-5.6c-.8-.3-1.9-.5-3.1-.5-2 0-3.1.8-3.1 2.1s1.1 2 2.6 2c2 0 3.5-1.1 3.5-2.9z"/><path fill="#e6e6e6" d="m518.8 305.5v2.1h-3.1v-18.7h3.1v7.4c1-1.4 2.4-2.5 4.5-2.5 3.2 0 6.3 2.5 6.3 7s-3.1 7-6.3 7c-2.2 0-3.5-1.1-4.5-2.3zm7.7-4.7c0-2.6-1.7-4.3-3.9-4.3s-3.9 1.7-3.9 4.4c0 2.6 1.8 4.3 3.9 4.3s3.9-1.7 3.9-4.4z"/><path fill="#e6e6e6" d="m530.8 305.8 1.4-2.1c1.4 1.1 3 1.7 4.4 1.7s2.1-.5 2.1-1.5-1.3-1.4-2.8-1.8c-.1 0-.2-.1-.2-.1-2-.6-4.2-1.4-4.2-4s2.1-4.1 4.8-4.1c1.7 0 3.5.6 5 1.5l-1.2 2.2c-1.3-.8-2.6-1.3-3.8-1.3s-1.9.5-1.9 1.4 1.3 1.4 2.8 1.8c.1 0 .2.1.2.1 2 .6 4.2 1.5 4.2 4 0 2.9-2.2 4.2-5 4.2-1.9 0-4.1-.7-5.8-2z"/><path fill="#e6e6e6" d="m659.5 298.6c0-5.1 4.1-9.2 9.3-9.2s9.2 4.2 9.2 9.2-4.1 9.2-9.3 9.2-9.2-4.2-9.2-9.2zm17.3-.1c0-4.5-3.5-8.2-8.2-8.2s-8.2 3.7-8.2 8.3c0 4.5 3.5 8.2 8.2 8.2 4.8 0 8.2-3.7 8.2-8.3zm-13-.1c0-2.8 2.1-5.1 5.1-5.1 1.9 0 2.9.6 3.9 1.5l-1.4 1.7c-.8-.7-1.5-1.1-2.5-1.1-1.7 0-2.8 1.4-2.8 3.1s1.1 3 2.8 3c1.1 0 1.7-.5 2.5-1.1l1.4 1.4c-1.1 1.1-2.1 1.7-4 1.7-2.9.1-5-2.2-5-5.1z"/><path fill="#e6e6e6" d="m679.3 289.7h3.4l4.2 13.2 4.4-13.3h2.6l4.4 13.3 4.2-13.2h3.3l-6.2 18h-2.6l-4.4-12.8-4.4 12.8h-2.7z"/><path fill="#e6e6e6" d="m705.5 300.8c0-3.9 3.1-7 7.2-7 4.2 0 7.2 3.2 7.2 7s-3.1 7-7.3 7c-4 0-7.1-3.1-7.1-7zm11.3 0c0-2.3-1.7-4.3-4.2-4.3s-4.1 2-4.1 4.3 1.7 4.3 4.1 4.3c2.7.1 4.2-1.9 4.2-4.3z"/><path fill="#e6e6e6" d="m722.1 294h3.1v3c.8-2 2.4-3.4 4.8-3.3v3.2h-.2c-2.7 0-4.6 1.7-4.6 5.4v5.1h-3.1z"/><path fill="#e6e6e6" d="m731.8 288.9h3.1v11.1l5.6-6h3.8l-5.4 5.5 5.5 8h-3.5l-4.1-5.8-1.9 2v3.9h-3.1z"/><path fill="#e6e6e6" d="m744.4 300.8c0-3.9 3.1-7 7.2-7 4.2 0 7.2 3.2 7.2 7s-3.1 7-7.3 7c-4.1 0-7.1-3.1-7.1-7zm11.3 0c0-2.3-1.7-4.3-4.2-4.3s-4.1 2-4.1 4.3 1.7 4.3 4.1 4.3c2.6.1 4.2-1.9 4.2-4.3z"/><path fill="#e6e6e6" d="m760.9 302.6v-8.6h3.1v7.6c0 2.1 1.1 3.3 2.9 3.3s3-1.3 3-3.3v-7.6h3.1v13.4h-3.1v-2.1c-.8 1.3-2.1 2.3-4.2 2.3-3.1.2-4.8-1.8-4.8-5z"/><path fill="#e6e6e6" d="m776.6 303.8v-7.1h-1.7v-2.7h1.7v-3.7h3.1v3.7h3.6v2.6h-3.6v6.6c0 1.2.6 1.7 1.7 1.7.7 0 1.3-.2 1.9-.5v2.5c-.8.5-1.7.7-2.8.7-2.3.1-3.9-.9-3.9-3.8z"/><path fill="#e6e6e6" d="m785.9 289.7h3.2v15h9.4v2.9h-12.5v-17.9z"/><path fill="#e6e6e6" d="m808.7 307.5v-1.7c-.9 1.1-2.3 2-4.4 2-2.6 0-4.8-1.4-4.8-4.2 0-3 2.3-4.4 5.4-4.4 1.7 0 2.6.2 3.7.5v-.2c0-1.9-1.2-2.9-3.3-2.9-1.5 0-2.6.3-3.9.8l-.8-2.5c1.5-.7 2.9-1.1 5.1-1.1 4 0 5.9 2.1 5.9 5.7v8zm.1-5.6c-.8-.3-1.9-.5-3.1-.5-2 0-3.1.8-3.1 2.1s1.1 2 2.6 2c2 0 3.5-1.1 3.5-2.9z"/><path fill="#e6e6e6" d="m817.6 305.5v2.1h-3.1v-18.7h3.1v7.4c1-1.4 2.4-2.5 4.5-2.5 3.2 0 6.3 2.5 6.3 7s-3.1 7-6.3 7c-2.1 0-3.5-1.1-4.5-2.3zm7.7-4.7c0-2.6-1.7-4.3-3.9-4.3-2.1 0-3.9 1.7-3.9 4.4 0 2.6 1.8 4.3 3.9 4.3 2.2 0 3.9-1.7 3.9-4.4z"/><path fill="#e6e6e6" d="m829.6 305.8 1.4-2.1c1.4 1.1 3 1.7 4.4 1.7s2.1-.5 2.1-1.5-1.3-1.4-2.8-1.8c-.1 0-.2-.1-.2-.1-2-.6-4.2-1.4-4.2-4s2.1-4.1 4.8-4.1c1.7 0 3.5.6 5 1.5l-1.2 2.2c-1.3-.8-2.6-1.3-3.8-1.3s-1.9.5-1.9 1.4 1.3 1.4 2.8 1.8c.1 0 .2.1.2.1 2 .6 4.2 1.5 4.2 4 0 2.9-2.2 4.2-5 4.2-1.9 0-4-.7-5.8-2z"/><path fill="#e6e6e6" d="m206.3 434.2c0-5.1 4.1-9.2 9.3-9.2s9.2 4.2 9.2 9.2-4.1 9.2-9.3 9.2-9.2-4.1-9.2-9.2zm17.4-.1c0-4.5-3.5-8.2-8.2-8.2s-8.2 3.7-8.2 8.3c0 4.5 3.5 8.2 8.2 8.2s8.2-3.7 8.2-8.3zm-13.1-.1c0-2.8 2.1-5.1 5.1-5.1 1.9 0 2.9.6 3.9 1.5l-1.4 1.7c-.8-.7-1.5-1.1-2.5-1.1-1.7 0-2.8 1.4-2.8 3.1s1.1 3 2.8 3c1.1 0 1.7-.5 2.5-1.1l1.4 1.4c-1.1 1.1-2.1 1.7-4 1.7-2.9.1-5-2.2-5-5.1z"/><path fill="#e6e6e6" d="m226.1 425.3h3.4l4.2 13.2 4.4-13.3h2.6l4.4 13.3 4.2-13.2h3.3l-6.2 18h-2.7l-4.4-12.8-4.4 12.8h-2.7z"/><path fill="#e6e6e6" d="m252.4 436.4c0-3.9 3.1-7 7.2-7 4.2 0 7.2 3.2 7.2 7s-3.1 7-7.3 7c-4.1 0-7.1-3.1-7.1-7zm11.2 0c0-2.3-1.7-4.3-4.2-4.3s-4.1 2-4.1 4.3 1.7 4.3 4.1 4.3c2.7.1 4.2-1.9 4.2-4.3z"/><path fill="#e6e6e6" d="m269 429.7h3.1v3c.8-2 2.4-3.4 4.8-3.3v3.2h-.2c-2.7 0-4.6 1.7-4.6 5.4v5.1h-3.1z"/><path fill="#e6e6e6" d="m278.6 424.5h3.1v11.1l5.6-6h3.8l-5.4 5.5 5.5 8h-3.5l-4.1-5.8-1.9 2v3.9h-3.1z"/><path fill="#e6e6e6" d="m291.3 436.4c0-3.9 3.1-7 7.2-7 4.2 0 7.2 3.2 7.2 7s-3.1 7-7.3 7c-4.1 0-7.1-3.1-7.1-7zm11.2 0c0-2.3-1.7-4.3-4.2-4.3s-4.1 2-4.1 4.3 1.7 4.3 4.1 4.3c2.6.1 4.2-1.9 4.2-4.3z"/><path fill="#e6e6e6" d="m307.7 438.2v-8.6h3.1v7.6c0 2.1 1.1 3.3 2.9 3.3s3-1.3 3-3.3v-7.6h3.1v13.4h-3.1v-2.1c-.8 1.3-2.1 2.3-4.2 2.3-3 .2-4.8-1.8-4.8-5z"/><path fill="#e6e6e6" d="m323.4 439.4v-7.1h-1.7v-2.6h1.7v-3.7h3.1v3.7h3.6v2.6h-3.6v6.6c0 1.2.6 1.7 1.7 1.7.7 0 1.3-.2 1.9-.5v2.5c-.8.5-1.7.7-2.8.7-2.3 0-3.9-.9-3.9-3.9z"/><path fill="#e6e6e6" d="m332.7 425.3h3.2v15h9.4v2.9h-12.5v-17.9z"/><path fill="#e6e6e6" d="m355.5 443.1v-1.7c-.9 1.1-2.3 2-4.4 2-2.6 0-4.8-1.4-4.8-4.2 0-3 2.3-4.4 5.4-4.4 1.7 0 2.6.2 3.7.5v-.2c0-1.9-1.2-2.9-3.3-2.9-1.5 0-2.6.3-3.9.8l-.8-2.5c1.5-.7 2.9-1.1 5.1-1.1 4 0 5.9 2.1 5.9 5.7v8zm.1-5.6c-.8-.3-1.9-.5-3.1-.5-2 0-3.1.8-3.1 2.1s1.1 2 2.6 2c2 0 3.5-1.1 3.5-2.9z"/><path fill="#e6e6e6" d="m364.4 441.1v2.1h-3.1v-18.7h3.1v7.4c1-1.4 2.4-2.5 4.5-2.5 3.2 0 6.3 2.5 6.3 7s-3.1 7-6.3 7c-2.1 0-3.5-1.1-4.5-2.3zm7.7-4.7c0-2.6-1.7-4.3-3.9-4.3-2.1 0-3.9 1.7-3.9 4.4 0 2.6 1.8 4.3 3.9 4.3 2.2 0 3.9-1.7 3.9-4.4z"/><path fill="#e6e6e6" d="m376.5 441.4 1.4-2.1c1.4 1.1 3 1.7 4.4 1.7s2.1-.5 2.1-1.5-1.3-1.4-2.8-1.8c-.1 0-.2-.1-.2-.1-2-.6-4.2-1.4-4.2-4s2.1-4.1 4.8-4.1c1.7 0 3.5.6 5 1.5l-1.2 2.2c-1.3-.8-2.6-1.3-3.8-1.3s-1.9.5-1.9 1.4 1.3 1.4 2.8 1.8c.1 0 .2.1.2.1 2 .6 4.2 1.5 4.2 4 0 2.9-2.2 4.2-5 4.2-2 0-4.1-.7-5.8-2z"/><path fill="#e6e6e6" d="m505.1 434.2c0-5.1 4.1-9.2 9.3-9.2s9.2 4.2 9.2 9.2-4.1 9.2-9.3 9.2-9.2-4.1-9.2-9.2zm17.4-.1c0-4.5-3.5-8.2-8.2-8.2s-8.2 3.7-8.2 8.3c0 4.5 3.5 8.2 8.2 8.2s8.2-3.7 8.2-8.3zm-13.1-.1c0-2.8 2.1-5.1 5.1-5.1 1.9 0 2.9.6 3.9 1.5l-1.4 1.7c-.8-.7-1.5-1.1-2.5-1.1-1.7 0-2.8 1.4-2.8 3.1s1.1 3 2.8 3c1.1 0 1.7-.5 2.5-1.1l1.4 1.4c-1.1 1.1-2.1 1.7-4 1.7-2.9.1-5-2.2-5-5.1z"/><path fill="#e6e6e6" d="m525 425.3h3.4l4.2 13.2 4.4-13.3h2.6l4.4 13.3 4.2-13.2h3.3l-6.2 18h-2.7l-4.4-12.8-4.4 12.8h-2.7z"/><path fill="#e6e6e6" d="m551.2 436.4c0-3.9 3.1-7 7.2-7 4.2 0 7.2 3.2 7.2 7s-3.1 7-7.3 7c-4.1 0-7.1-3.1-7.1-7zm11.2 0c0-2.3-1.7-4.3-4.2-4.3s-4.1 2-4.1 4.3 1.7 4.3 4.1 4.3c2.7.1 4.2-1.9 4.2-4.3z"/><path fill="#e6e6e6" d="m567.8 429.7h3.1v3c.8-2 2.4-3.4 4.8-3.3v3.2h-.2c-2.7 0-4.6 1.7-4.6 5.4v5.1h-3.1z"/><path fill="#e6e6e6" d="m577.5 424.5h3.1v11.1l5.6-6h3.8l-5.4 5.5 5.5 8h-3.5l-4.1-5.8-1.9 2v3.9h-3.1z"/><path fill="#e6e6e6" d="m590.1 436.4c0-3.9 3.1-7 7.2-7 4.2 0 7.2 3.2 7.2 7s-3.1 7-7.3 7c-4.1 0-7.1-3.1-7.1-7zm11.2 0c0-2.3-1.7-4.3-4.2-4.3s-4.1 2-4.1 4.3 1.7 4.3 4.1 4.3c2.6.1 4.2-1.9 4.2-4.3z"/><path fill="#e6e6e6" d="m606.5 438.2v-8.6h3.1v7.6c0 2.1 1.1 3.3 2.9 3.3s3-1.3 3-3.3v-7.6h3.1v13.4h-3.1v-2.1c-.8 1.3-2.1 2.3-4.2 2.3-3 .2-4.8-1.8-4.8-5z"/><path fill="#e6e6e6" d="m622.2 439.4v-7.1h-1.7v-2.6h1.7v-3.7h3.1v3.7h3.6v2.6h-3.6v6.6c0 1.2.6 1.7 1.7 1.7.7 0 1.3-.2 1.9-.5v2.5c-.8.5-1.7.7-2.8.7-2.3 0-3.9-.9-3.9-3.9z"/><path fill="#e6e6e6" d="m631.5 425.3h3.2v15h9.4v2.9h-12.5v-17.9z"/><path fill="#e6e6e6" d="m654.3 443.1v-1.7c-.9 1.1-2.3 2-4.4 2-2.6 0-4.8-1.4-4.8-4.2 0-3 2.3-4.4 5.4-4.4 1.7 0 2.6.2 3.7.5v-.2c0-1.9-1.2-2.9-3.3-2.9-1.5 0-2.6.3-3.9.8l-.8-2.5c1.5-.7 2.9-1.1 5.1-1.1 4 0 5.9 2.1 5.9 5.7v8zm.1-5.6c-.8-.3-1.9-.5-3.1-.5-2 0-3.1.8-3.1 2.1s1.1 2 2.6 2c2 0 3.5-1.1 3.5-2.9z"/><path fill="#e6e6e6" d="m663.3 441.1v2.1h-3.1v-18.7h3.1v7.4c1-1.4 2.4-2.5 4.5-2.5 3.2 0 6.3 2.5 6.3 7s-3.1 7-6.3 7c-2.2 0-3.6-1.1-4.5-2.3zm7.7-4.7c0-2.6-1.7-4.3-3.9-4.3s-3.9 1.7-3.9 4.4c0 2.6 1.8 4.3 3.9 4.3s3.9-1.7 3.9-4.4z"/><path fill="#e6e6e6" d="m675.3 441.4 1.4-2.1c1.4 1.1 3 1.7 4.4 1.7s2.1-.5 2.1-1.5-1.3-1.4-2.8-1.8c-.1 0-.2-.1-.2-.1-2-.6-4.2-1.4-4.2-4s2.1-4.1 4.8-4.1c1.7 0 3.5.6 5 1.5l-1.2 2.2c-1.3-.8-2.6-1.3-3.8-1.3s-1.9.5-1.9 1.4 1.3 1.4 2.8 1.8c.1 0 .2.1.2.1 2 .6 4.2 1.5 4.2 4 0 2.9-2.2 4.2-5 4.2-2 0-4.1-.7-5.8-2z"/></g>
</svg>
