<?xml version="1.0" encoding="utf-8"?>
<!-- Generator: Adobe Illustrator 23.0.1, SVG Export Plug-In . SVG Version: 6.00 Build 0)  -->
<svg version="1.2" baseProfile="tiny" id="Layer_1" xmlns="http://www.w3.org/2000/svg" xmlns:xlink="http://www.w3.org/1999/xlink"
	 x="0px" y="0px" viewBox="0 0 900 600" xml:space="preserve">
<g>
	<path d="M200.1,442.37l-0.1-0.1C199.96,442.5,199.86,442.9,200.1,442.37z"/>
	<path d="M424.03,82.36c-1.9,0.16-76.95,0.73-78.38-0.31c-1.89-3.78-3.09-2.67,74.88-2.67c3.06,0,4.69,0.23,4.53-1.95
		c-0.93-1.31,3.69-1.03-76.63-1.03c-2.57,0-4.94-0.1-6.48-2.37c-7.6,1.41-6.14-4.99-8.95-3.5c-3.13,1.67-7.92,0.82-8.74,5.86
		c-58.89,0-108.26-0.05-160.87,0c-9.4,0.01-12.58-5.24-18.41-2.67c-2.07,0.91-4.42-1.75-6.69,0.1c-5.78,5.78-69.42-0.87-70.56,3.91
		c0.72,1.95,2.26,1.44,3.7,1.44c63.55,0.17,59.53-0.27,61,0.41c0.41,3.7,0.71,2.98-3.7,2.98c-64.26,0-59.95-0.68-60.58,1.54
		c0.86,1.92-4.13,1.34,62.13,1.34c2.03,0,3.67-0.4,4.32,1.54c4.17,20.57,12.46,18.1,12.75,27.98c0.32,10.71-1.68,20.5,5.86,38.47
		c2.89,6.88,12.75,27.83,12.24,36.82c-0.38,6.79,1.77,13.27,2.37,19.95c0.51,5.69,0.43,18.52,12.55,28.29
		c-2.98-5.76-5.14-11.62-6.48-18.21c-1.54,1.54,0.21,2.88-0.82,4.01c-3.22-2.68-2.2-28.52-8.54-47.73
		c-9.51-28.85-1.65-1-12.65-35.28c-3.69-11.51-0.21-12.52-2.98-30.86c-0.19-1.28-11.31-15.16-11.31-19.44c0-3.39-0.82-6.38-3.6-8.54
		c1.44-1.85,1.13-4.22,2.78-5.97c0.41,2.26-1.27,4.69,1.34,6.07c1.83,0.97,3.09-0.21,4.53-1.44c-1.75-1.13-3.19-0.62-5.04,0.1
		c1.09-2.55,1.1-7.96,5.45-5.35c0.82,1.13,0.51,2.78,1.65,3.81c1.54-1.03,0.41-2.47,1.13-3.6c5.11-4.47,2.53,2.14,5.55,3.5
		c0.82-1.13-0.31-2.37,0.72-3.29c6.26-1.19,2.06,11.65,8.64,9.77c1.34,2.89-9.01,15.36-0.93,25.71c0.07,0.1,6.14,17.18,6.17,17.28
		c4.75,13.81,18.95,33.71,18.1,47.62c7.42,7.42,7.45,13.57,12.86,36c1.3,5.4,4.05,2.18,11.52,10.29
		c5.58,6.05,9.98,12.86,12.14,20.88c-0.41,0.62-1.44,0.82-1.13,2.26c2.67,1.13,2.88,3.91,3.5,6.69c-0.1,0.82-1.23,0.93-1.34,2.06
		c-0.12,3.33-2.12,17.12-3.7,22.32c-4.85-5.73-9.59-8.4-6.79-18.1c0.98-3.4,1.21-4.57-0.1-4.83c-4.31,5.24-2.73,21.78,6.69,24.99
		c-4.32,9.26-12.55,21.39-15.53,22.83c-1.65-6.17-3.91-12.14-7.41-17.49c-3.07-4.69-3.05-9.26-3-9.73
		c-4.37-15.88,3.15-13.71-9.55-34.09c-1.65,2.75,1.39,8.48,3.09,11.11c2.28,3.54,2.2,5.57,3.39,18.21
		c2.02,21.25,9.03,20.07,11.42,34.66c1.87,11.46,10.28,25.93,12.14,44.44c0.18,1.8-1.81,17.38,0.51,27.46
		c-2.26,2.57-2.67,5.86-1.34,6.99c1.13,0.62,1.54-0.82,2.37-0.72c0.82,0.62,0.93,1.75,2.06,1.85c0.21-0.62,0.31-1.23,0.51-1.85
		c1.03,0,1.65,1.85,2.88,0.62c0.48,0.48-0.77-1.09-1.03-1.85c-0.82-1.34-1.75,0.31-2.37-1.13c16.82,0.72,40.52,0.27,51.43,2.67
		c0.51,1.03-0.41,1.85,0.21,2.57c1.13-0.1,1.03-1.75,2.57-1.65c1.44,0,1.03,1.95,1.95,2.67c0.93-0.82,0.72-2.06,1.65-2.57
		c1.03,0.21,0.31,1.44,1.03,1.85c1.13,0,0.93-2.26,2.57-1.44c0.72,1.03-0.1,2.57,0.72,3.6c1.65,0,0.72-1.85,2.06-2.16
		c1.07,6.95,5.16,5.27,5.25,10.59c0.32,19.3,2.67,15.71,2.98,23.14c0.21,4.83-0.54,9.78,0.51,14.61c1.78,8.14,0.96,16.65,3.12,24.79
		c-3.45-5.75-1.31-6.81-4.97-17.38c-7.5-21.65-1.15-25.91-4.01-24.69c-4.27,12.53,5.87,30.16,10.18,52.66
		c1.61,8.42,1.65,17.28,5.45,25.3c-6.08,1.92-5.51,4.24-9.26,3.19c-5.66-1.58-6.03,0.49-26.23-1.03c-1.54-0.12-2.57-1.53-4.32-1.13
		c-1.85,0.42-3.91,0.1-6.07,0.1c5.79-22.79,8-15.56,10.59-27.15c1.38-6.17,1.6-18.43-1.75-26.33c1.07,7.88,2.38,26.98-2.16,32.81
		c-9.41,12.09-4.63,23.51-13.47,22.11c3.26-24.43,3-12.6-2.98-36.52c-4.01,0.55-3.14,7.93-4.42,10.29
		c-2.39,4.37-6.75,22.53-7.2,27.46c-2.06-0.41-1.03-3.39-3.5-3.39c-0.51,2.37,0.5,4.33,1.65,5.97c3.85,5.49,4.42,11.73,4.22,18.1
		c0.31-0.31,0.51-0.62,0.93-1.03c1.08,1.08-0.44,2.49-0.93,1.03c-1.34,1.54-1.03,3.5-1.03,5.25c0.34,3.26-1.35,3.83-5.25,6.17
		c-1.23-3.7,0.31-7.1-0.41-10.49c-1.23,3.29-1.39,6.68-0.72,10.08c0.77,3.91-2.39,6.2,1.65,7.3c-5.55,21.5,4.99,15.57-13.99,34.15
		c-13.77-6.1-12.55-16.49-13.47-22.94c-1.78-12.43,4.98-17.05,6.69-23.86c-3.89-2.59,2.29-4.66-3.7-11.93
		c-5.43-6.59-3.71-23.66,10.9-27.36c3.29,1.54,6.38,3.5,9.46,5.66c-0.1,2.26,0.18,4.43,0.72,6.58c2.63,10.53-0.11,3.76,1.23,14.5
		c0.31-3.19,2.16-6.07,1.75-9.36s-1.65-6.48-1.75-9.87c5.39,2.31,5.06,1.05,3.5-18.1c-1.09-13.35-0.93-12.86-2.57-12.96
		c-0.41,9.98,2.98,19.85,2.06,30.34c-4.01-3.5-8.18-6.04-12.45-8.54c-4.4-2.58-11.32,3.85-14.3,7.41c-1.54,0.21-2.88-0.1-4.32-0.93
		c0.41-2.88-0.21-5.55-0.62-8.33c-3.18-21.64,0.69-27.01,2.92-39.74c-1.95,2.6-7.08,19.86-5.18,35.73
		c0.48,4.02,1.34,7.92,1.13,12.14c-3.09-0.41-5.76-1.03-8.64-1.85c-0.88-11.69,3.44-14.91,1.54-26.64
		c-1.12-6.96,2.22-10.05,5.35-19.44c6.58-19.73,2.08-23.11,4.32-29.21c2.09-5.68,3.7-11.42,5.04-17.49c1.75,0,2.08-1.63,2.88-2.78
		c6.16-8.84,7.85-5.44,11.52-6.17c-2.78-1.13-5.66-0.93-7.61-2.37c-3.81,2.78-6.99,5.66-9.57,9.26c1.23,4.68-4.07,11.27-5.45,29.21
		c-1.75,22.68-10.62,26.7-8.95,39.6c2.16,16.63-5.99,23.39,0.51,30.55c1.03,1.37-0.87,2.6,1.75,21.29
		c2.54,18.1,2.38,12.1,12.65,18.51c-5.61,16.83-4.09,34.82,12.65,40.73c3.19-0.82,5.14-3.39,7.2-5.66
		c4.01-4.42,8.33-8.95,6.58-15.84c4.32,0.72,6.84,3.7,7.2,7.92c0.01,0.1-2.14,31.2,7.51,38.57c0.93,0.62,1.74,1.52,2.98,1.23
		c13.04-2.96,9.66-4.66,15.43-14.4c6.66-11.23,7.97-23.88-0.51-35.49c-0.1-1.03,0.51-2.37,0.72-3.81c0.2-1.34,0.3-2.58,1.75-3.29
		c3.59-1.77,5.97-4.32,5.14-8.64c3.39-1.44,6.38,0.41,9.67,0.51c-2.53,3.04,8.37,1.12,10.49-3.19c8.6-17.45,4.59-18.23,8.54-33.02
		c9.89-6.98,2.22,19.27-5.97-73.65c1.03-0.21,0.62,1.54,1.85,1.13c-0.02-0.1-3.57-14.91-3.6-15.02
		c-3.39-10.42,2.51-18.48-6.58-21.81c0.41-2.57,1.18-4.99-0.82-7.1c-1.6-1.68,0.31-66.12,11.93-88.77
		c5.02-9.78,7.6-20.26,6.79-31.06c-0.52-6.89,3.03-12.55,3.09-19.03c0-0.63,5.13-5.59,9.57-18.21c8.73-24.8,3.78-34.47,8.33-44.54
		c15.49-34.26,13.92-48.07,16.46-72.21c0.53-5.06,2.4,0.59,5.97-14.81c2.14-9.24,1.29-8.02,6.07-8.02c82.29,0,75.66,0.53,76.73-1.13
		C426.29,82.87,425.57,82.23,424.03,82.36z M207.3,388.88c-0.1,1.03-0.62,1.34-1.44,2.37C206.07,389.8,206.38,389.29,207.3,388.88z
		 M191.98,523.63c-1.03-6.58-3.16-13.06-2.57-19.85c0.32-3.7,0.41-7.51-0.41-12.03c4.11,1.44,8.02,1.03,12.14,1.85
		c-1.65,4.22-1.95,8.43-1.75,12.65c-3.34,1.73-8.92,3.46-8.02,5.25c2.57-0.93,5.04-1.75,7.92-2.78c0.21,4.32,3.6,6.79,5.35,10.29
		c-1.34,3.91,0.51,8.54-2.47,12.45C194.67,526.34,193.3,528.94,191.98,523.63z M231.78,500.69c0.72-1.03,2.16-0.51,2.47-2.16
		c-2.13-3.29,2.62-3.35,4.94-24.17c0.31-2.78,2.47-4.63,3.09-7.2c6.7,25.04-1.65,29.1,1.75,33.74c2.35,1.1,4.53-1.78,4.53,1.54
		C242.69,504.6,237.23,503.05,231.78,500.69z M266.04,533.81c-0.12,4.11-1.44,7.2-5.86,8.23c-2.64,12.2,0.55,4.23,3.91,24.89
		c0.55,3.39-1.02,6.38-2.16,9.26c-8.7,21.85-6.65,18.39-16.15,22.01c-8.27-6.04-9.19-31.89-8.33-36.93
		c0.31-2.98-2.16-5.35-1.95-8.23c-2.06-2.06-4.73-2.67-7.3-3.6c-1-3.49,2.04-9.51,0.31-13.17c-0.88-1.86,2.08-5.02,7.2-6.89
		c1.23-1.75,2.37-4.73,4.63-6.79c1.03-0.31,0.41,1.03,1.85,0.62c3.96-2.64,1.06-8.03,14.4-9.67c1.61-0.2,3.58,2.55,6.79,4.73
		C268.11,521.51,266.25,526.7,266.04,533.81z M293.91,502.02c-3.95,16.36-2.13,12.88-6.27,25.61c-2.76,8.49-14.02,3.99-19.03,3.7
		c-1.17-5.09,1.44-10.46-3.91-14.3c-11.56-8.29-15.91-6.17-22.01,2.37c-2.88,0.51-4.11,1.44-6.99,5.76
		c-0.62-0.51-1.23-1.54-0.62-1.65c2.16-0.39,1.73-2.16,1.95-3.39c2.7-15.11-4.54-12.32-2.06-16.05c9.75,5.2,13.55-1.09,33.02-3.39
		c8.79-1.04,10.9,2.77,17.79,9.26c0.41-2.88,0.41-2.88-7.3-8.95c5.14-1.65,10.18,0.1,15.33-0.41
		C294.32,501,294.12,501.51,293.91,502.02z M292.16,461.29c0-0.51,0-1.13-0.1-1.54C292.47,460.16,292.57,460.68,292.16,461.29z
		 M159.16,82.56c-2.32-4.26-16.79-2.98,163.75-2.98C322.63,83.56,333.36,82.56,159.16,82.56z M343.69,85.85
		c-2.52,8.06-0.67,9.89-8.43,24.17c-0.25,0.46-2.86,15.65-1.85,25.2c0.66,6.25-15.39,49.48-15.43,49.58
		c-3.05,7.42,1.97,23.43-13.58,54.93c-1.92,3.2-2.62,0.11-3.29,4.42c-2.18,14.09-3.5,12.48-3.09,15.02
		c1.89,11.43-4.27,27.96-4.83,30.45c-3.39-0.1-6.58,0.31-9.77-1.85c2.8,5.09,5.18,0.66,9.15,3.39c-0.72,2.06-1.44,4.11-2.06,6.07
		c-0.82,0.62-1.85-0.21-2.57,1.23c-8.13,27.26-9.98,55.75-8.54,84.55c-5.35-1.85-11.21-1.34-16.97-2.88
		c1.34-7.3,3.5-14.4,4.22-21.81c-2.47,6.99-3.7,14.3-5.76,21.5c-15.43-0.51-30.55-1.54-45.77-2.37c0.51-5.25-0.41-9.98,0.21-14.71
		c0.93-7.1-1.15-13.88-2.37-20.78c-4.28-24.35-10.68-26.91-10.29-37.85c1.85-0.51,3.58-1.35,4.63-3.09
		c13.66-22.56,12.2-17.47,14.71-30.45c0.82-4.22,0.83-8.53,2.67-12.65c1.37-3.07-1.44-7.42-0.82-9.57
		c9.62,6.01,12.58,5.33,14.5,13.68c1.21,5.25,6.25,6.65,10.39,3.19c3.7-3.09,5.59-9.68,13.58-13.58c-1.12,4.28-4.9,8.4-0.82,4.32
		c0.62-0.62,0.82-1.54,2.06-1.95c0,21.44-2.12,9.79,9.05,31.37c1.82,3.52,9.15,14.24,13.17,14.5c-2.45-4.63-2.09-1.71-12.65-17.38
		c-1.82-2.7-2.26-6.27-4.63-8.54c-6.05-10.59,1.23-22.79-3.39-26.64c2.47-1.75,4.94-3.5,7.1-5.55c3.29,0.51,6.69,0.82,9.15,3.29
		c1.34-0.21,1.83-1.14,2.37-1.95c6.07-9.22,9.56-1.33,10.39-9.87c-3.73,5.81-6.72,0.44-13.06,9.77c-2.16-2.37-4.11-4.63-7.3-4.42
		c-2.67-3.6,0.1-6.69,0.41-10.18c-1.65-0.41-2.98,0.62-2.78,1.85c0.52,3.19-2.06,6.58,0.82,9.57c-2.06,2.67-5.04,3.19-7.41,4.83
		c-3.46-6.12,8.74-21.31,10.49-21.7c0,1.34-1.03,2.78,0.1,4.22c0.51-1.75,1.75-3.09,2.67-4.94c-2.37,0-1.97-0.09-2.37,0.31
		c0.66-2.96,4.8-1.82,11.42-8.43c-0.31-0.72-0.93-0.21-1.34-0.41c-1.86,4.02-6.64-1.94-17.38,14.09
		c-7.15,10.66-3.91,10.33-5.35,2.16c6.34-8.87,4.47-15.07,3.19-32.5c-0.19-2.57-1.33-4.66-3.7-5.55c-4.2-1.59-7.82-4.31-11.73-6.38
		c-5.33-2.83-6.06,2.26-10.7-2.78c-6.99-7.59-1.22,1.51-6.58,3.5c0.1,0.93,0.1,1.65,0.21,2.57c-1.03,0.31-1.75,1.33-2.67,1.65
		c-7.43,2.52-10.77,13.12-9.26,14.4c3.67,3.12-3.07,18.97,0.51,23.35c2.78,0,3.59,1.85,3.7,4.53c0.53,13.13,4.99,16.98-1.03,13.37
		c0.39-5.21-10.31-20.39-13.99-24.07c-6.74-6.74-10.66-4.11-12.45-12.03c-2.72-12.06-5.72-27.7-11.42-32.81
		c-1.72-1.55,0.25-14.35-13.27-34.77c-5.23-7.9-10.42-29.81-13.89-34.05c-1.85-8.64,1.54-15.33,2.88-22.63c51.33,0,102.86,0,154.6,0
		c0.93,3.19,2.08,6.36,4.11,9.15c1.06,1.45,2.8,13.21-3.39,24.17c-5.05,8.94-8.63,18.52-10.08,28.9
		c-0.82,5.86-3.34,11.53-4.63,17.49c-2.27,10.48,0.03,12.59,6.58-15.63c6.96-29.95,13.01-30.01,14.09-38.78
		c2.2-17.89-2.67-19.42-4.22-24.07c4.22-3.6,5.45-9.05,8.85-13.27c1.85,1.95,0.62,4.11,2.06,5.76c2.92-2.92-1.59-6.78,2.98-5.86
		c0.72,1.95,2.06,3.81,0.72,6.27c2.37-0.51,2.16-2.37,2.37-3.91c2.16-0.31,1.34,2.57,3.09,2.57c1.34-0.1,0.11-1.72,1.13-2.06
		c1.45-0.48,2.19,0.2,2.37,1.44C343.86,80.6,344.5,83.28,343.69,85.85z M225.51,211.86c1.44-0.1,1.85,1.03,2.78,2.06
		C225.3,214.63,224.89,214.22,225.51,211.86z M226.02,216.07c-0.4,0.4,0.1,0.72-0.72,0.31C225.55,215.88,225.27,215.7,226.02,216.07
		z M235.38,243.64c0.82,0.41,0.41,1.75,1.44,1.95c1.2-0.1,0.85-1.36,1.2-2c-1.31-2.01-1.3-2.13,0.44-3.56
		c0.93,1.13-0.31,2.16-0.21,3.29c0.82,2.78,3.6,3.29,5.25,5.14c2.26-0.21,3.85-1.1,5.25-2.98c1.49-2.02,4.53-1.13,6.17-2.78
		c0.82,0.21,1.03,1.23,1.95,1.03c2.48-0.88,1.48-8.7,3.19,2.67c2.57-1.44,0.21-4.22,2.26-6.17c-0.21,2.47,0.62,4.42,0.1,6.79
		c-2.98,1.44-7.1,0.62-8.95,4.53c3.39-0.93,6.58-2.57,9.98-3.5c2.7,3.24-6.37-0.69-12.65,12.55c-1.8,3.78-5.35,5.25-9.46,3.6
		c-0.93-2.88-0.25-6.21-2.16-8.95c-3.52-5.05-2.08-0.3-8.64-6.48c-0.41-3.29-1.23-6.69-0.62-10.29c2.67,1.75,0.62,5.35,3.19,6.99
		C234.35,245.49,234.56,244.26,235.38,243.64z M234.77,239.22c0.71,2.12-0.93,2.96-0.93,2.67
		C233.33,240.97,233.53,240.04,234.77,239.22z M235.9,203.63c0.41,0.82,0.62,1.34,0.21,1.95
		C235.59,205.07,235.38,204.45,235.9,203.63z M242.89,217.41c-0.21,0.72-0.51,1.23-1.34,1.34
		C241.14,217.51,241.76,217.31,242.89,217.41z M242.48,200.44c0.62,0.72,0,0.93-0.41,1.23
		C241.76,201.06,241.66,200.65,242.48,200.44z M240.63,243.44c-0.41-0.93,0.1-1.65,0.82-2.57
		C242.99,242.51,241.35,242.82,240.63,243.44z M240.83,199.31c-0.72-1.75-0.1-2.06,0.82-2.37
		C242.07,198.18,240.83,198.07,240.83,199.31z M240.63,210.21c-1.03-0.82-0.93-1.34-0.51-1.95
		C241.35,208.57,240.83,209.29,240.63,210.21z M247.52,243.54c-1.34-0.1-1.34-1.03-1.75-2.26
		C247.21,242,247.52,242.61,247.52,243.54z M246.7,201.06c0.51,1.44,0.82,2.47,0.72,4.22C246.39,203.63,245.26,202.81,246.7,201.06z
		 M247.73,186.45c2.12-0.19,2.8,1.44,1.95,1.44C248.96,187.89,247.93,188.2,247.73,186.45z M248.65,237.78
		c-0.28,0-0.72,0.34-0.72-0.41C248.04,236.93,248.65,236.94,248.65,237.78z M250.4,201.06c0.93-0.41,1.34-0.1,1.13,0.82
		C251.22,201.67,250.91,201.37,250.4,201.06z M255.75,190.46c1.13,0.93,2.88,1.03,3.6,3.29C257.6,192.73,256.37,191.9,255.75,190.46
		z M257.5,231.3c-1.13-1.95-1.34-3.19,0.1-4.42C258.01,228.21,257.7,229.55,257.5,231.3z M256.47,241.58
		c-1.95-2.26-1.95-2.26-1.34-5.35C259.71,238.85,255.89,236.7,256.47,241.58z M254.72,208.87c0-1.34,0.41-1.54,0.82-1.85
		C255.95,207.74,255.34,207.95,254.72,208.87z M265.32,216.49c0.93,1.95,0.93,3.6,0.1,5.35
		C265.01,220.19,264.18,218.54,265.32,216.49z M264.8,208.67c0.72,0.31,0.72,0.72,0.93,1.44
		C265.21,209.59,264.7,209.49,264.8,208.67z M265.32,221.73c-0.93,1.75-0.62,3.91-2.16,5.35
		C263.16,225.02,263.88,223.17,265.32,221.73z M262.85,205.38c0.31-0.82,0.72-1.23,1.54-1.44
		C264.7,205.58,263.77,205.38,262.85,205.38z M264.39,197.66c-1.75-0.93-2.98-1.85-3.39-3.81
		C263.46,193.96,264.6,194.99,264.39,197.66z M230.34,226.87c0.51,1.44,0.62,2.67-0.51,3.91
		C229.42,229.45,229.52,228.11,230.34,226.87z M229.62,208.36c1.03,0,1.44,0.1,1.34,0.82C230.24,209.49,230.14,208.87,229.62,208.36
		z M231.47,236.65c-0.62-0.62-0.72-1.23-0.21-2.26C232.09,235.31,232.3,235.93,231.47,236.65z M225.71,199.62
		c0.62-3.19,0.82-3.5,6.17-7.1C229.83,194.89,227.26,196.74,225.71,199.62z M229.52,203.63c-1.34-0.21-1.54-1.54-2.57-2.06
		C228.45,198.56,229.19,198.27,229.52,203.63z M223.76,218.85c1.65,2.37,0.93,5.14,1.44,7.82
		C222.53,224.51,224.27,221.53,223.76,218.85z"/>
	<path d="M191.75,274.85c0.01,0.02,0.01,0.04,0.02,0.06C191.77,274.8,191.76,274.78,191.75,274.85z"/>
	<path d="M571.53,132.14l0.1,0.1C571.67,132.08,571.69,132.1,571.53,132.14z"/>
	<path d="M829.91,84.31c-1.86,0.15-68.96,0.53-70.36-0.1c-0.49-3.9-11.35-2.78,66.96-2.78c2.57,0,4.7,0.29,4.53-1.85
		c-0.88-1.41,5.14-1.13-72-1.13c-1.44-1.13-2.06-2.57-3.5-3.29c-7.41,1.14-5.69-5.34-9.87-3.39c-3.3,1.53-7.92,1.23-7.92,6.58
		c-54.9,0-25.61-0.97-52.46-7.61c-20.25-5.01-12.33-4.11-11.83-16.56c0.38-9.33,4.49-7.86,4.63-17.59c0.2-13.6-1.13-8.92-1.13-19.03
		c0-5.55-3.48-5.54-7.92-8.02c-9.92-5.54-9.96-5.95-11.01-5.45c-6.33,3.03-7.99-5.37-10.7-3.91c-1.13,1.13,0.31,2.37-0.21,3.5
		c-0.82,0.72-1.65,1.54-2.37,2.16c-0.72,0.82,0.21,1.85-0.31,2.57c-10.51,4.6-13.35,14.75-11.52,16.35
		c1.86,1.45,1.24,2.04-0.31,12.96c-1.95,13.78,1.11,8.29,3.91,11.93c2.13,15.25,2.17,14.46,0.93,16.25
		c-5.17,7.42-16.21,2.55-25.61,7.71c-10.99,6.04-36.39,4.63-40.73,4.63c-1.95-4.22-6.89-2.16-8.95-5.04
		c-1.95,0.1-2.98,1.44-4.73,1.85c-3.09-3.09-6.17,1.03-9.46,0.41c-0.72,0.62-0.21,2.06-1.65,2.67c-76.68,0-72.24-0.96-72.93,1.44
		c0.62,2.18-4.73,1.65,71.38,1.65c1.34,0.62,1.03,2.16,2.37,1.95c1.65-1.44,1.23-4.01,2.98-5.66c-0.21,5.14-0.21,5.14,2.57,6.48
		c1.03-0.41,2.06-0.93,2.98-1.85c-1.54-1.44-2.98-0.62-4.73-0.1c0.72-2.06,0.82-4.01,1.95-5.35c4.71-1.81,3.36,3.07,5.04,3.91
		c1.23-1.13,0.21-2.47,0.82-3.6c1.03-0.51,1.75-1.65,3.19-1.44c1.13,1.44,0.51,3.91,2.57,4.94c0.82-1.03-0.21-2.06,0.31-3.09
		c6.52-1.9,1.91,8.05,9.26,10.9c-7.33,15.13-5.11,19.23,0.72,33.64c-0.31,4.57-2.5,7.04-3.16,10.15c1.12-0.25,1.47-2.2,3.16-1.31
		c0.1-3.5,2.84-5.67,3.7-8.74c1.97-7.06,6.2-6.1,5.86-13.37c-0.62-13.3,4.84-27.34,18.31-29.73c3.08-0.55,5.97-1.43,8.85-2.78
		c3.29-1.54,6.99-1.34,10.9-2.16c0.21,11.42-0.51,22.32-2.57,32.92c-1.23,0.41-1.23-1.54-2.47-0.82c-1.13,2.06,1.34,2.98,1.54,4.73
		c-4.38,19.26-4.82,23.43-11.01,26.74c0-2.16-1.04-3.91-0.31-5.86c4.87-13.06-0.24-26.44-1.75-26.74c-0.3,6.9,4.7,19.83-7.1,39.4
		c-6.63,11-13.65,29.12-20.47,27.77c-11.37-2.24-8.21-1.84-10.29-7.1c-6.35-16.08-10.35-13.44-9.26-44.23
		c0.34-9.48-0.48-1.69-1.95-13.68c-1.27-10.28-5.69-8.26-6.38-18.41c-0.37-5.45-0.86-3.91-51.94-3.91c-25.4,0-24.44-0.57-24.79,1.75
		c1.05,1.68-4.33,1.13,70.05,1.13c5.25,0,3.04-1.04,6.07,7.41c6.32,17.63,4.59,7.65,6.58,40.22c0.86,14.17,1.75,14.57,11.11,34.25
		c0.62,1.13,1.13,2.27,2.37,2.78c19.01,7.79,20.12-12.97,33.22-30.65c4.71-6.35,0.33-6.62,6.17,7.61c6.6,16.08,8.1,18.28,6.89,24.48
		c-0.38,1.96-1.65,4.32,0.93,5.86c-2.78,2.47,0.41,4.42,0.21,6.89c-1.66,1.24-1.01,2.13-0.21,12.14c-0.82,0.72-1.95-0.51-2.57,0.51
		c-1.23,2.06-0.51,4.32-0.82,6.69c-2.78,1.34-4.11,3.91-5.55,7.3c2.67-1.44,3.7-3.6,5.55-4.83c0.93,1.23,1.75,0.62,2.57-0.1
		c0.41,0.62,0,1.44,0.72,1.85c0.93,0.31,0.51-1.23,1.44-0.93c0.51,2.57,0.51,2.57,4.11,2.98c1.85-2.67,1.85-2.78,0.72-4.73
		c-1.65,0.62-0.31,2.26-1.03,3.29c-3.48-9.75,8.25-0.3,31.06,1.03c0.51,0.72,0.93,1.44,1.34,2.26c1.03-0.82,1.13-2.78,3.19-2.16
		c0.51,0.51-0.72,1.85,0.51,2.16c1.03-0.1,0.62-1.13,1.23-1.44c0.41,0.31,0.51,1.03,1.23,1.03c0.93-0.41,0.1-1.85,1.34-2.26
		c1.95-0.31,4.22-1.12,6.38-0.82c2.26,0.32,4.32-1.13,6.38-0.72c0.72,0.82-0.1,2.26,1.34,2.57c0.93-0.62-0.1-2.37,1.54-2.57
		c1.03,0.62,0.51,2.16,1.65,2.88c2.06-0.62,4.42,0.31,7.1-1.13c-2.67-0.82-4.94,0.93-6.99-0.41c-0.31-3.19,1.54-2.06,2.78-1.54
		c0.82-0.51,0.72-1.85,1.95-1.85c0.62,1.13,0.93,2.78,2.88,2.47c0.51-4.11,0.51-4.11,1.34-4.63c0.21,1.44,0.31,2.88,0.51,4.22
		c4.42,0,8.33,7.41,7.51,12.45c-4.17-5-6.44-12.89-9.46-7.61c-0.62-0.31-0.82-1.44-2.06-0.82c0.1,1.65,0.82,3.09,1.95,4.42
		c0.62-1.13,0.62-2.57,2.26-3.19c4.83,7.02,5.44,8.12,6.89,9.15c3.49,2.91,3.09,11.6,6.48,18.31c2.74,5.42-3.1,7.04,0.51,14.5
		c1.58,3.27,2.57,6.69,2.88,10.8c-11.16-13.02-10.45-11.97-10.29-12.14c-3.04-6.08-4.39-3.67-0.46,0.26
		c0.46,1.15,4.4,6.93,8.49,10.95c4.87,4.8,4.88,10.39,6.38,23.66c0.23,2.05,1.75,2.77,1.75,0.72c0.75-11.53-5.18-27.13-5.66-33.22
		c0-1.59-3.78-1.73-1.54-7.92c3.18-8.8-6.28-16.86-5.76-28.8c0.47-10.68-7.78-11.47-8.13-14.4c-0.8-6.8-3.39-13.47-0.82-20.47
		c0.13-0.51-0.28-5.95-0.41-9.15c-3.71,2.78-0.5,8.16-1.13,9.67c-5.21-0.55-1.29,12.47-1.54,16.25c-6.89,5.45-30.14,7.71-45.46,4.22
		c-1.95-2.88-4.53-5.25-7.82-6.79c1.34,2.57,4.42,3.7,6.07,6.89c-6.79-2.16-13.89-0.82-19.44-4.83c-1.75-7.2-0.93-14.19-1.85-21.09
		c0-2.69,5.88,1.96,12.34,1.13c-4.42-1.65-9.67-1.44-12.86-5.14c2.49-14.95-2.72-20.53-7.92-38.57c6.89-4.94,8.25-12.75,9.98-20.37
		c10.76-47.4,0.38-45.66,8.23-44.23c0.62,1.13,0.7,2.16,0.82,3.29c1.6,14.5,16.52,27.4,34.46,18.82
		c12.48-5.97,18.98-16.5,19.44-22.32c9.44-0.47,3.92,0.6,8.33,26.33c1.84,10.76,8.44,27.43,9.46,28.9c1.14,1.63-0.33-0.91-5.97,25.1
		c-1.16,5.34-3.27,10.43-4.94,15.63c-0.77,2.39,0.31,4.73-0.21,7.1c1.85-0.72,2.47-2.26,2.06-4.22c-0.72-1.65-0.09-2.77,0.51-4.11
		c11.51-25.63,7.53-28.38,10.59-35.28c2.47,8.33,6.3,15.73,8.74,23.55c3.58,11.46,17.18,15.53,18,15.22
		c2.55-0.97,5.25-0.41,7.71-0.82c1.75-1.57,3.77-9.06,7.1-14.91c9.84-17.32,8.15-32.18,7.2-46.18c-0.44-6.55,2.45-0.04,5.86-15.84
		c1.79-8.3,0.75-7.2,5.97-7.2c73.31,0,67.88,0.52,69.02-1.13C832.18,84.93,831.45,84.18,829.91,84.31z M672.43,53.76
		c-0.31-0.41-0.41-0.62,0-1.03C672.43,53.14,672.43,53.35,672.43,53.76z M674.08,47.08c-0.41-1.34,0.1-2.37,1.03-3.7
		C675.42,45.12,674.8,46.05,674.08,47.08z M676.45,35.86c0.31,1.95,0.51,3.29-0.1,5.25C675.42,39.26,675.11,37.82,676.45,35.86z
		 M675.31,17.97c-1.54-1.44-3.09-1.95-3.19-4.01C674.49,13.85,675.31,15.09,675.31,17.97z M584.59,92.64
		c-4.95,9.9,1.37,17.92-4.42,22.63c-1.53,1.25-2.16,3.29-3.29,5.25c-5.04-11.01-5.55-21.7-0.1-32.61c3.19,0,6.48,0,10.08,0
		C586.03,89.66,585.31,91.2,584.59,92.64z M588.6,84.72c-16.9,0-16.53,0.97-16.87-3.09C595.49,81.64,591.35,80.61,588.6,84.72z
		 M618.64,205.17c-1.13-0.1-1.54-0.62-1.44-1.75C618.12,203.53,618.33,204.14,618.64,205.17z M669.76,13.13
		c-1.03-0.41-2.16-0.82-2.47-2.16C668.42,11.28,669.45,11.69,669.76,13.13z M668.73,46.46c-0.1,1.54-0.1,2.78-0.21,4.73
		C667.09,49.13,667.09,47.9,668.73,46.46z M667.29,11.08c-0.62,0.1-0.93-0.31-1.13-0.82C666.78,10.05,667.09,10.36,667.29,11.08z
		 M665.85,55.92c0.82,0.62,1.54,1.03,2.47,1.75c-0.93,1.03-0.82,2.26-1.34,3.5C664.82,59.83,665.65,57.98,665.85,55.92z
		 M661.22,7.06c-1.23,0.82-1.95,0.62-2.78,0C659.68,5.52,660.19,6.96,661.22,7.06z M659.37,57.77c-0.82,0-0.51-0.51-0.31-1.23
		C659.68,57.05,659.78,57.36,659.37,57.77z M657.73,21.05c0.63,4.07,0.97,3.5-0.21,3.5C657.42,23.52,655.87,22.6,657.73,21.05z
		 M658.24,63.53c-1.13-0.21-1.34-0.93-1.34-2.16C657.93,61.89,658.45,62.4,658.24,63.53z M653.3,20.33c0.51,0.62,0,0.93-0.62,1.34
		C652.58,20.85,652.48,20.33,653.3,20.33z M653.61,37.3c-0.21,0.72-0.41,1.34-1.44,1.23C652.17,37.61,652.58,37.2,653.61,37.3z
		 M652.17,60.76c1.65,1.65,0,1.95-0.62,2.78C651.04,62.4,651.66,61.68,652.17,60.76z M651.04,30c-0.41-0.72-0.82-1.34,0.1-1.95
		C651.96,28.56,652.07,29.18,651.04,30z M651.35,18.58c-0.21-1.23,0.21-1.54,1.13-1.54C652.58,17.97,651.86,18.17,651.35,18.58z
		 M651.76,6.04c-1.03,0.41-1.13-0.1-1.44-0.72C651.14,5.21,651.24,5.73,651.76,6.04z M649.39,59.93c0.62,1.13-0.1,2.06-0.62,2.98
		C647.64,61.06,647.64,61.06,649.39,59.93z M646.51,24.04c0.62,0.41,0.72,0.82,0.31,1.34C646.31,25.06,646.51,24.45,646.51,24.04z
		 M645.38,59.21c0.62,1.34,0.21,2.06-0.62,2.78C644.15,60.96,644.35,60.24,645.38,59.21z M642.4,56.74
		c-0.72-0.93-0.93-1.54-0.21-2.57C642.91,55,643.02,55.61,642.4,56.74z M641.78,28.77c-0.72,0.31-1.23,0.1-1.23-0.31
		C640.34,27.51,641.19,28.18,641.78,28.77z M641.06,44.09c-0.62-0.62-0.51-1.03-0.31-1.44C641.27,42.96,640.96,43.37,641.06,44.09z
		 M641.16,46.56c0.51,1.54,0.62,2.98-0.51,4.22C640.24,49.34,640.34,47.9,641.16,46.56z M637.77,21.16
		c0.51-0.93,0.72-1.65,1.65-1.95c1.03,1.23,0.72,2.67,1.03,4.11C639,23.21,638.59,22.08,637.77,21.16z M639.93,14.47
		c-1.34,1.54-2.06,3.39-3.6,4.73C636.95,17.25,637.87,15.5,639.93,14.47z M634.68,38.54c1.54,2.88,0.82,5.66,1.95,8.23
		C634.07,45.94,634.07,45.94,634.68,38.54z M635.71,32.26c1.95-0.93,2.47,0.41,3.39,1.75C636.95,34.94,636.02,34.22,635.71,32.26z
		 M657.73,96.55c-0.21-2.57-1.34-5.04-0.93-7.51c-2.57,1.95-2.06,4.63-1.85,7.3c-14.09,2.67-25.71-11.01-24.07-23.45
		c4.11-0.72,6.89-3.81,9.98-6.79c0-2.16,0-4.73,0-7.51c2.67,1.54,0.51,5.35,3.19,6.79c1.23,0,1.34-1.34,2.26-1.75
		c0.72,0.51,0.41,1.85,1.65,1.95c1.23-0.51,0.62-1.75,0.93-2.67c0.98,2.65,6.53,7.77,8.64,4.63c2.15-3.2,5.55-3.6,8.64-4.94
		c0.62,0.1,0.51,1.34,1.54,1.03c2.56-1.02,1.44-7.8,2.88,0.1c-0.31,1.03-1.65,0.51-1.75,1.95c2.98,3.39,6.17,6.69,11.42,7.51
		C678.73,82.51,667.34,96.29,657.73,96.55z M734.05,84.72c-19.82,0-16.78,0.79-20.26-2.98C739.95,81.74,735.18,80.95,734.05,84.72z
		 M725.82,97.79c-0.12-2.62-5.13-9.04-5.66-9.77c3.7,0,7.2,0,11.01,0c1.45,9.29,9.89,5.86,0.41,33.43
		c-4.32-2.16-5.75-5.35-5.14-9.77C727.07,107.05,726.03,102.41,725.82,97.79z M751.12,105.91c-5.27,7.51,1.95,25.4-3.6,37.75
		c-0.75,1.66-11.27,26.74-11.31,26.85c-5.25,0.41-10.18-4.73-14.91-15.74c-0.82,3.6,1.95,8.64,9.05,15.84
		c-7.61-1.75-12.24-5.76-14.09-13.06c-1.34,1.34-0.1,2.26-0.41,3.29c-8.86-16.92-8.12-19.98-12.14-30.55
		c-1.4-3.68,1.95-2.6,1.95-24.89c0-5.88-3.63,17.26-4.22,20.67c-5.04-7.92-10.18-29.73-9.77-41.14c2.67-1.13,4.94-3.09,8.02-4.01
		c-1.07-1.36-4.15-2.18-4.27-2.2c0.12,0.06,0.93,1.22,1.59,2c-1.75,1.13-3.81,1.03-5.55,1.85c-0.72-1.44-0.62-2.78-0.51-4.32
		c1.34,0.62,2.57,0.41,3.7-0.21c-1.03-1.03-2.78-0.82-3.91-2.16c2.03-1.08,0.86-0.51,16.97,6.89c7.7,3.53,12.62,9.58,15.22,17.69
		c1.52,4.74,1.29,9.46,1.34,14.3c0.08,7.31,10.67,11.65,9.57,24.48c0,3.85,3.58-3.95-1.44-15.84c1.23-2.47,2.37-5.04,3.7-7.71
		c1.13,0.82,0.51,3.09,2.57,3.09c0.72-1.23-0.21-1.85-0.72-2.37c-4.22-4.22,5.39-12.44-3.39-25.61c-0.41-0.62-0.82-1.34-0.93-2.16
		c3.29-4.22,5.25-9.26,8.33-13.78c2.37,1.75,1.03,3.91,2.26,5.55c1.75-1.65,0.62-3.7,0.93-5.35c2.79-2.79,3.9,3.49,2.67,5.76
		c2.37-0.41,2.37-2.06,2.16-3.91c0.21-0.1,0.41-0.1,0.72-0.21c4.21,5.42,2.67,1.06,3.39,0.93
		C760.94,76.41,754.88,100.55,751.12,105.91z"/>
	<path d="M708.02,290.85c-4.57,1.45-4.75,6.32-11.42,7.1c-3.6,0.42-7.1,0.19-10.7,0.62c-3.4,0.4-6.38,1.95-9.57,2.78
		c-2.42,0.63-12.24,1.95-12.24,1.34c0.73-1.84,6.15-7.45,3.7-17.07c-1.15-4.52-2.06-9.05-2.26-13.68
		c-3.52,9.06,4.35,14.09-1.03,26.02c-4.63-10.29-9.26-19.85-16.46-27.88c-3.21-0.27-8.01,10.34-15.33,16.56
		c1.34-4.63,2.88-9.87,3.09-15.33c-7.86,23.58-4.91,24.34-7.61,29.21c-8.33,15.02-25.62,0.42-27.88-8.85
		c-0.68-2.8-8.27-5.23-11.52-7.2c0.89-10.18,3.7-4.39,2.67-26.02c-4.21,3.11-0.71,10.05-4.42,20.88c-2.29,6.67,1.07,2.36,2.78,21.39
		c0.3,3.29,1.75,5.96,3.7,8.43c4.6,5.81,4.4,14.28,11.01,20.47c5.44,5.1-0.45,8.5,5.35,15.63c0.92,1.13,1.54,2.47,2.47,4.01
		c-1.75,3.09-1.07,6.82-2.57,9.87c-4.83,9.86-8.16,28.78-0.62,36.21c5.49,5.41,8.43,7.92,14.81,4.32c2.98-5.76,6.07-11.62,9.26-18
		c1.3,4.12,5.97,16.08,5.14,27.77c-0.69,9.78,3.72,15.28,6.27,14.09c-2.47-4.59-4.47-4.28-4.11-6.99
		c0.17-1.28,0.99-18.03-2.88-26.74c-1.74-3.91-2.29-8.15-3.7-12.14c-0.63-1.78,6.79-18.95,11.11-24.17c1.34-2-1.5-2.08-2.26-3.91
		c0.21-0.82,0.62-1.54,1.85-1.75c12.07,5.79,28.67-6.76,23.76,16.77c-2,9.58-6.39,10.82-7.92,12.86c2.41,3.74-1.22,5.99,1.54,9.98
		c2.26,3.26,1.21,6.66,0.1,13.68c-1.64,10.37-6.58,18.31-15.94,23.45c1.13,1.34,2.26,0.72,3.19-0.1
		c16.33-14.46,12.81-16.44,15.84-32.4c0.71-3.72-2.96-4.31-2.67-8.74c0.75-11.53,3.92-2.58,8.02-20.16
		c2.78-11.91-4.5-17.28-10.59-16.15c-4.06,0.75-12.98,1.53-16.35-1.65c4.36,0.56,2.03-3.42,21.5-10.18
		c4.42-1.54,9.06-2.66,13.06-5.14c3.61-2.25,8.27-2.44,11.01-5.97c5.49-7.07,9.78-2.69,12.86-10.8c0.31-0.82,0.41-2.26,1.13-2.26
		c3.02-0.18,4.06-12.03,3.29-16.25C707.1,293.43,708.74,292.71,708.02,290.85z M635.51,289.31c1.32-3.84,0.35-1.12,11.11-15.22
		c0.4-0.52,0.51-1.23,1.54-1.54c6.48,8.23,9.98,18.21,15.12,27.46c-4.57,6.48,7.88,6.45-24.38,25.51c-2.26-0.82-4.83-0.51-7.3-1.65
		c0.31-6.48-1.23-12.65-5.55-18.1C631.91,301.86,633.42,295.37,635.51,289.31z M606.4,329.12c-3.12-2.08-3.99-5.26-5.76-9.05
		c-8.61-18.43-9.98-15.31-9.98-32.3c3.6,2.06,7.82,2.67,8.64,7.71c-0.21,0.82-1.54,1.34-1.34,2.57c1.03,0.41,1.54-0.82,2.78-0.51
		c1.52,2.5,12.33,15.64,23.04,10.29c4.73,4.22,5.14,9.77,5.66,15.63C623.73,323.46,611.17,313.67,606.4,329.12z M636.43,360.28
		c-3.97,4.23-1.53,6.98-2.26,7.71c-4.02,8.05-1.83,10.97-11.62,30.55c-14.21,3.05,13.55-10.47-4.32-37.96
		c5.25,12.65,7.1,25.1-1.65,37.24c-5.14-1.75-8.44-5.14-9.05-10.49c-0.82-7.1-1.43-19.76,1.95-24.69
		c5.07-7.37,1.62-10.86,4.94-10.49c-0.62-4.01-1.99-7.27-4.42-10.18c-2.82-3.36-2.46-14.19,0.51-17.49
		c4.32-4.78,10.31-1.5,18.21,1.13c10.26,3.42,9.73-3.35,6.48,10.9C633.38,344.5,643.78,352.46,636.43,360.28z M638.8,330.04
		c4.94,5.25,1.85,11.62,2.88,18C635.51,342.49,637.15,336.32,638.8,330.04z M643.02,352.67c-0.51,0.93-1.34,1.44-2.26,2.37
		c-0.31-1.44,0.41-2.57,0-3.91C641.99,351.44,642.4,352.16,643.02,352.67z M703.29,302.58c-2.58,9.73-3.29,13.87-9.15,15.74
		c-8.71,2.77-8.64,7.94-24.69,12.96c-22.64,7.09-23.48,13.42-25.61,12.14c0.1-4.83,0.1-4.83,2.98-7.51c-0.82-0.62-1.65,0.21-2.67,0
		c-0.62-2.98-1.95-5.76-4.53-8.33c6.29-3.89,0.62,0.19,20.57-14.09c0.98-0.7,2.59-9.77,11.73-9.77c7.94,0,6.87-3.81,21.39-3.81
		c4.01,0,8.13,0.1,11.21-3.6C705.55,299.08,703.81,300.63,703.29,302.58z"/>
	<path d="M599.82,246.11c-0.72-1.54,1.05-2.27,0.72-3.6c-1.14-4.55,1.15-8.22,3.39-11.83c1.58-2.55,6.67-13.69,4.53-15.84
		c-2.5,1.14-0.16,4.09-6.48,12.75c-2.99,4.11-4.94,8.43-2.98,13.78c-1.65,1.65-2.37,3.6-2.26,5.76c0.14,3.02-0.79,4.08-5.25,10.59
		C596.84,255.29,613.02,230.26,599.82,246.11z"/>
	<path d="M663.18,216.38c1.53,3.58-0.01,13.74,3.5,18c-0.93-6.38,0-12.65-1.85-18.82c-7.71-0.51-15.12-0.93-22.22-1.44
		c-0.93-0.93,0.1-2.37-1.85-2.57c-0.41,1.13,0.62,2.26-0.1,3.39C648.47,215.35,655.77,216.59,663.18,216.38z"/>
	<path d="M171.2,167.73c-3.5,8.33-2.37,14.3,3.91,18.93C172.33,180.18,172.74,173.8,171.2,167.73z"/>
	<path d="M199.59,242.82c0.18,3.6,2.88,5.35,4.83,7.61c0.41,0.41,1.03,0.31,1.65-0.51c-4.42-5.35-6.07-11.93-7.2-19.34
		C195.41,234.65,199.38,238.7,199.59,242.82z"/>
	<path d="M205.14,246.52c1.84-0.71,2.02-5.15,5.25-4.63c2.77,0.45,3.19-1.13,3.39-3.39c-2.16,0.1-2.26,3.09-4.73,2.06
		c0.21-1.65-0.31-3.19-1.54-4.42c1.54-2.57,0.41-4.63-0.82-6.89c-2.02,2.2,2.73,9.72-1.54,14.71
		C204.53,244.57,204.32,245.7,205.14,246.52z"/>
	<path d="M614.73,100.56c0.21,1.34,1.44,2.47,3.29,2.67c-2.47-2.88-0.82-6.58-2.26-9.57c3.29-6.07,3.29-6.07,1.44-7.92
		C616.26,92.62,612.71,87.75,614.73,100.56z"/>
	<path d="M211.62,550.06c-3.18,1.56-2.16,4.32-2.06,6.99c2.57,0.62,5.06,1.76,6.79-1.13C218.5,552.34,214.75,548.52,211.62,550.06z
		 M213.06,556.23c-0.21-1.34,0-3.09-2.16-2.06C211.8,547.87,219.3,554.57,213.06,556.23z"/>
	<path d="M213.27,540.8c-4.86,0.26-4.95,8.23,0.1,8.23C218.57,549.03,218.51,540.8,213.27,540.8z M213.37,547.28
		c-2.58,0-3.24-4.06,0-4.53C216.54,543,216.31,547.28,213.37,547.28z"/>
	<path d="M217.18,534.12c-2.16,0-4.42-0.62-6.69,0c0.21,1.75,1.65,1.13,2.06,2.06c-0.21,1.65-2.78,1.44-2.37,3.5
		c1.13,0.31,1.95-1.13,3.39-0.1C217.63,542.47,218.36,536.14,217.18,534.12z M215.12,538.75c-1.13-1.13-1.03-1.95-0.41-2.98
		C216.77,536.28,216.35,537.31,215.12,538.75z"/>
	<path d="M183.44,192.62c-3.52,0.88,3.37,11.94,3.5,20.67C190.45,212.42,184.41,200.84,183.44,192.62z"/>
	<path d="M612.88,266.89c-6.69,4.11-13.68,7.41-20.98,9.87C596.42,277.28,609.18,271.21,612.88,266.89z"/>
	<path d="M193.42,259.38c-0.28,2.49,3.21,3.69,3.6,5.66c0.52,2.67,2.37,4.53,3.81,6.58c0.72,1.03,1.75,2.06,3.81,1.44
		C199.69,269.25,198.56,262.88,193.42,259.38z"/>
	<path d="M650.63,365.02c0.72-5.25,3.91-9.36,5.76-13.99C653.61,355.35,647.64,358.23,650.63,365.02z"/>
	<path d="M158.44,137.8c-1.95-3.81-0.31-8.23-1.85-12.86C154.12,130.08,154.84,134.3,158.44,137.8z"/>
	<path d="M562.27,142.84c-0.41-5.66,0.93-10.7,2.47-15.74c-3.02-0.32-2.8,2.83-4.01,12.86
		C560.52,140.99,560.52,142.12,562.27,142.84z"/>
	<path d="M205.04,419.12c1.03-7.41,1.13-15.02,2.16-22.42C205.25,404,204.42,411.51,205.04,419.12z"/>
	<path d="M646.41,421.59c0.41-6.38-3.91-12.55-0.72-18.93C642.91,406.26,643.43,418.71,646.41,421.59z"/>
	<path d="M186.42,236.34c1.65-4.11,1.03-8.23,0.72-12.34C185.39,228.01,184.67,232.12,186.42,236.34z"/>
	<path d="M649.7,268.64c5.76-2.06,8.54-10.08,6.07-16.87C656.49,258.35,655.26,264.32,649.7,268.64z"/>
	<path d="M174.28,199.21c-0.51,4.73-2.88,9.46,0,14.19C173.77,208.67,175,203.94,174.28,199.21z"/>
	<path d="M570.29,145.51c0.51-3.91,0.62-7.82,2.16-11.52c0.31-0.62-0.41-1.13-0.62-1.75C569.27,136.46,568.85,140.88,570.29,145.51z
		"/>
	<path d="M581.09,126.18c1.44-3.29,4.01-6.07,5.66-9.36c-0.41-0.21-0.72-0.41-1.13-0.72C583.05,118.87,581.51,122.27,581.09,126.18z
		"/>
	<path d="M191.98,275.12c1.75,3.39,4.63,5.35,8.33,6.07c-2.47-2.47-5.76-4.01-7.2-7.61C192.59,274.29,192.28,274.7,191.98,275.12z"
		/>
	<path d="M606.6,79.89c-5.14-0.51-9.46,3.29-8.02,7.1C598.89,81.84,603.52,82.36,606.6,79.89z"/>
	<path d="M188.89,221.73c1.03-2.78,1.85-5.55,3.7-8.02C188.99,215.77,187.66,218.65,188.89,221.73z"/>
	<path d="M149.29,101.8c-2.16-3.09-2.06-7.1-4.53-9.98C145.9,95.32,146,99.33,149.29,101.8z"/>
	<path d="M593.33,99.74c0,2.47,0.62,4.63,2.67,6.38C596.93,103.24,595.19,101.49,593.33,99.74z"/>
	<path d="M221.39,389.6c3.7,0.62,2.26,4.83,5.14,6.89c-0.72-3.29-0.83-6.17-3.19-8.23C222.52,387.54,221.91,388.16,221.39,389.6z"/>
	<path d="M623.88,221.32c4.7-8.81,4.65-8.05,2.26-8.85C625.63,215.05,623.58,217.41,623.88,221.32z"/>
	<path d="M617.4,214.43c-3.5,0.62-4.22,4.32-6.58,6.17C613.08,218.75,616.07,217.51,617.4,214.43z"/>
	<path d="M639,264.73c-1.65-4.32-3.81-8.33-7.3-11.52C639.66,266.95,637.95,265.25,639,264.73z"/>
	<path d="M266.24,389.39c2.78,0.72,5.55,0.62,8.43,0.21C271.9,388.16,269.12,388.67,266.24,389.39z"/>
	<path d="M652.17,386.82c-2.01,2.81-5.75,5.44-7.2,11.73C647.82,393.75,652.81,388.1,652.17,386.82z"/>
	<path d="M679.74,214.43c-0.31,2.67-0.21,5.25,1.34,7.61C681.28,219.37,681.79,216.59,679.74,214.43z"/>
	<path d="M171.61,155.18c-0.1-3.19,0.1-6.38-1.95-9.05C170.38,149.11,169.96,152.4,171.61,155.18z"/>
	<path d="M264.29,438.46c1.34-2.47,1.75-5.55,0.93-7.71C264.18,432.7,263.77,435.47,264.29,438.46z"/>
	<path d="M248.65,450.7c-0.41,3.09-2.67,5.45-2.57,8.54C247.42,456.56,249.37,453.99,248.65,450.7z"/>
	<path d="M571.53,165.98c1.34-2.57,2.88-5.04,2.16-8.13C572.97,160.53,571.01,162.9,571.53,165.98z"/>
	<path d="M163.07,150.24c0-3.39-2.06-5.97-3.39-8.85C160.19,144.59,161.43,147.47,163.07,150.24z"/>
	<path d="M579.76,138.52c1.54-1.75,2.16-3.7,0.82-5.86C580.07,134.61,579.04,136.46,579.76,138.52z"/>
	<path d="M636.84,210.52c-0.72,2.06,0.21,4.22-0.41,6.89C639.31,214.74,637.26,212.68,636.84,210.52z"/>
	<path d="M571.63,154.36c-1.13,1.03-2.26,1.85-3.81,1.13C568.02,158.37,571.32,159,571.63,154.36z"/>
	<path d="M557.85,93.05c0.62,2.16,0.72,4.63,2.47,6.69C560.42,96.86,559.8,95.21,557.85,93.05z"/>
	<path d="M589.73,138.11c-1.34,1.54-3.19,1.75-3.7,3.7C588.5,141.91,588.81,141.6,589.73,138.11z"/>
	<path d="M141.88,89.35c-0.72-1.54-0.31-3.7-2.98-4.73C139.52,86.78,140.24,88.32,141.88,89.35z"/>
	<path d="M593.03,261.33c2.06-0.93,3.81-1.65,5.35-3.09C595.08,258.66,594.47,259.07,593.03,261.33z"/>
	<path d="M564.43,149.11c-0.1,2.78-0.1,2.78,1.95,5.04C565.97,152.4,566.18,150.45,564.43,149.11z"/>
	<path d="M579.14,140.99c-0.72,1.44-2.06,2.67-2.06,4.83C578.83,144.38,579.76,143.04,579.14,140.99z"/>
	<path d="M220.57,381.68c-2.17,0.91-0.6,3.81,1.54,3.81C221.5,384.15,222.42,382.5,220.57,381.68z"/>
	<path d="M552.09,85.55c1.34,3.5,1.34,3.5,3.09,4.73C554.35,88.84,554.56,86.78,552.09,85.55z"/>
	<path d="M629.23,214.43c0.21-1.95,0.93-2.98,0.41-4.63C627.69,211.03,627.9,212.37,629.23,214.43z"/>
	<path d="M654.85,229.96c-0.62,2.26-0.41,4.42,0,6.48C655.46,234.28,655.57,232.12,654.85,229.96z"/>
	<path d="M651.86,382.6c2.26-0.72,2.37-0.72,1.13-3.5C652.89,380.34,651.66,381.16,651.86,382.6z"/>
	<path d="M667.19,257.63c-0.21,1.44-1.44,2.47-1.75,4.01C668.11,261.02,667.39,259.17,667.19,257.63z"/>
	<path d="M573.59,147.67c-0.82,1.03-0.93,2.16,0,3.39C573.89,149.94,574.1,148.8,573.59,147.67z"/>
	<path d="M689.51,246.42c-0.31-1.85-1.65-3.19-2.57-4.83C687.35,243.44,687.86,245.29,689.51,246.42z"/>
	<path d="M218.51,400.19c-0.72-1.65-1.75-2.78-3.19-3.5C216.05,398.14,217.07,399.37,218.51,400.19z"/>
	<path d="M263.05,385.28c1.13-0.1,2.16-0.1,3.29-0.21C264.29,383.63,264.29,383.63,263.05,385.28z"/>
	<path d="M224.48,381.47c-1.65,1.54-0.1,2.37,0.62,3.39C224.69,383.84,226.43,382.4,224.48,381.47z"/>
	<path d="M626.46,207.95c-1.65,1.65-1.23,3.09-0.21,4.42C626.15,211.03,627.59,209.8,626.46,207.95z"/>
	<path d="M564.64,87.4c0,1.13-0.1,2.26,1.03,3.6C566.59,89.25,565.56,88.32,564.64,87.4z"/>
	<path d="M655.46,242.72c-0.1,1.34-0.31,2.47,0.82,3.6C656.39,244.98,656.18,243.95,655.46,242.72z"/>
	<path d="M230.24,381.16c-2.99,1.71-0.12,2.09,1.34,2.67C231.06,382.71,230.65,381.99,230.24,381.16z"/>
	<path d="M650.83,374.07c0.62-1.44,0.62-2.78-0.62-4.01C650.42,371.39,650.63,372.73,650.83,374.07z"/>
	<path d="M151.14,86.57c0.62,0.93,0.21,2.26,1.54,3.6C152.68,87.71,152.68,87.71,151.14,86.57z"/>
	<path d="M273.96,401.12c-0.1-1.54-0.21-2.57-2.06-3.81C272.41,399.16,272.52,400.3,273.96,401.12z"/>
	<path d="M631.7,253.21c-0.31-1.54-1.34-2.57-2.37-3.6C629.75,251.05,630.26,252.38,631.7,253.21z"/>
	<path d="M172.02,162.48c-0.93,1.03-1.03,1.85,0.1,2.88C172.84,164.13,172.74,163.31,172.02,162.48z"/>
	<path d="M677.99,251.46c-1.65,0.93-2.06,1.95-2.26,3.09C676.65,253.82,677.47,253,677.99,251.46z"/>
	<path d="M233.33,388.47c0.72,0,1.54,0,2.26,0C234.77,388.26,234.05,387.95,233.33,388.47z"/>
	<path d="M250.4,388.98c-1.65-1.03-1.65-1.03-2.67,0.31C248.45,388.47,249.58,389.6,250.4,388.98z"/>
	<path d="M168.42,163.82c-0.31-1.44-0.62-2.47-1.54-3.19C166.88,161.66,167.08,162.79,168.42,163.82z"/>
	<path d="M564.84,127.2c1.03-0.93,1.95-1.85,1.75-3.7C565.15,124.63,564.12,125.56,564.84,127.2z"/>
	<path d="M639.72,221.63c1.26-3.15-2.67-1.95-0.72,0C639.21,221.83,639.31,221.94,639.72,221.63z"/>
	<path d="M594.47,93.67c0.82-1.13,0.62-1.95,0.21-3.09C593.64,91.61,593.33,92.44,594.47,93.67z"/>
	<path d="M619.15,79.07c-0.93-0.93-1.75-1.34-3.19-0.72C617.1,79.27,617.82,79.79,619.15,79.07z"/>
	<path d="M575.95,169.89c1.34,0.31,1.75-0.41,2.26-1.85C577.19,168.66,576.05,168.35,575.95,169.89z"/>
	<path d="M593.03,96.14c-0.41,1.13-0.21,1.75,0.93,2.37C594.36,97.27,593.95,96.65,593.03,96.14z"/>
	<path d="M246.49,391.66c1.75-0.21,0.93-1.54,1.13-2.47C247.21,390.01,245.98,390.32,246.49,391.66z"/>
	<path d="M601.05,257.22c0.82-0.31,1.44-0.62,2.16-0.93C602.18,256.09,601.36,256.09,601.05,257.22z"/>
	<path d="M691.46,249.81c-0.2-1.37-0.87-2.37-2.01-3.17C689.7,248.05,690.39,249.03,691.46,249.81z"/>
	<path d="M689.3,246.52c0.24,0.16,0.14,0.2,0.1-0.1L689.3,246.52z"/>
	<path d="M243.41,382.5c-0.82,0.62-1.03,1.13-0.21,2.47C243.51,383.84,244.43,383.43,243.41,382.5z"/>
	<path d="M644.15,211.34c-1.13,0.82-1.13,1.34-0.31,2.06C644.66,212.89,644.66,212.37,644.15,211.34z"/>
	<path d="M562.79,105.81c-0.62,0.62-0.31,1.13,0.41,1.65C563.71,106.53,563.51,106.01,562.79,105.81z"/>
	<path d="M148.78,81.02c-0.31-0.93-0.82-1.03-1.54-0.1C147.85,81.64,148.26,81.53,148.78,81.02z"/>
	<path d="M560.63,81.74c0.21,1.03,0.62,1.03,1.54,0.1C561.55,81.33,561.14,81.12,560.63,81.74z"/>
	<path d="M200.21,440.82c0,0.62,0,1.13,0,1.65C200.31,441.95,200.82,441.44,200.21,440.82z"/>
	<path d="M692.77,251.72c-0.12-0.84-0.43-1.51-1.31-1.9C691.57,250.7,691.85,251.39,692.77,251.72z"/>
	<path d="M692.9,251.77c-0.05-0.01-0.08-0.03-0.13-0.05C692.81,251.91,692.77,251.9,692.9,251.77z"/>
	<path d="M632.22,211.65c0.51-0.72,0.62-1.34-0.1-1.85C631.5,210.42,631.5,211.03,632.22,211.65z"/>
	<path d="M594.16,134.82c-0.62,0-0.93,0.21-1.34,0.93C593.95,136.15,594.16,135.74,594.16,134.82z"/>
	<path d="M238.26,382.91c-1.14-0.85-1.21,0.72-0.72,0.72C238.06,383.74,238.26,383.32,238.26,382.91z"/>
	<path d="M569.27,121.24c-1.2-0.51-1.76,1.03-0.82,1.03C569.06,122.27,569.16,121.86,569.27,121.24z"/>
	<path d="M289.38,209.18c0-1.23-1.34-0.31-1.44-1.23c2.37-12.55,7.61-24.07,13.58-35.28c-8.37,5.35-6.34,9.4-9.46,15.12
		c-2.47,4.53-8.26,21.28-6.27,25.92C287.12,212.37,287.43,210.11,289.38,209.18z"/>
	<path d="M248.45,333.03c-1.87,0.56-3.71,9.68-2.06,15.33c2.87,9.8-1.29,8.5-0.41,11.83c0.98,3.72,1.03,7.51,1.44,11.31
		c1.34-2.47,0.99-5.13,0.41-7.71c-1.69-7.55,2.44-6.8,0.62-12.34C244.87,340.58,252.25,335.14,248.45,333.03z"/>
	<path d="M251.33,291.16c-1.85-4.11-5.76-7.41-4.01-12.55c-3.29-2.57-7.41-4.01-7.61-9.15c-2.78,3.5-1.54,5.66,5.25,10.18
		C244.02,284.99,248.75,287.56,251.33,291.16z"/>
	<path d="M231.06,376.95c0.72-3.7-8.13-27.98-11.73-32.4C223.35,355.55,227.15,366.04,231.06,376.95z"/>
	<path d="M248.65,331.69c0.93-12.33,3.22-22.61-2.16-22.01C249.68,317.08,246.08,324.69,248.65,331.69z"/>
	<path d="M319.52,152.1c-1.74,2.99-1.95,6.99-4.32,10.59c4.53-1.34,8.33-15.43,6.17-21.29C319.32,145,321.49,148.71,319.52,152.1z"
		/>
	<path d="M315.2,166.29c0.5-0.89,0.12-1.6-1.03-1.64c-2.65,5.01,5.22,0.31-1.95,13.98c-0.53,1.02-1.54,2.26-0.1,4.01
		c3.39-3.6,3.19-8.23,5.14-11.93C316.41,168.6,314.53,167.8,315.2,166.29z"/>
	<path d="M278.38,265.45c-1.65,3.7-5.97,5.45-7.61,9.87C274.68,274.7,278.38,269.56,278.38,265.45z"/>
	<path d="M273.54,279.54c1.44,3.6,3.7,6.27,7.71,7.2C278.48,284.58,277.14,280.77,273.54,279.54z"/>
	<path d="M283.21,249.81c1.34,2.78,0.21,5.97,1.85,9.15C285.78,253,285.48,251.46,283.21,249.81z"/>
	<path d="M292.88,205.79c0.51,2.47,1.95,3.91,5.04,5.25C296.48,207.43,295.45,206.41,292.88,205.79z"/>
	<path d="M323.23,156.52c2.16-3.09,3.6-6.58,3.7-10.59C321.83,157.93,322.19,156,323.23,156.52z"/>
	<path d="M299.26,229.86c-1.85,2.26-1.75,5.76,0.72,8.33C298.95,235.1,299.88,232.53,299.26,229.86z"/>
	<path d="M252.05,360.8c-1.34,2.57-2.26,5.35-2.26,8.33C251.02,366.46,251.74,363.68,252.05,360.8z"/>
	<path d="M330.53,104.27c1.54,0.72,3.09,1.23,5.45,0.82C333.92,102.62,332.17,103.55,330.53,104.27z"/>
	<path d="M327.03,145.92c1.75-1.85,3.09-3.81,2.16-7.3C327.85,141.3,327.44,143.66,327.03,145.92z"/>
	<path d="M298.33,218.75c0.21,1.54,0.51,3.19,0.72,4.83C300.39,221.73,299.98,220.19,298.33,218.75z"/>
	<path d="M288.05,236.03c1.95-1.65,1.44-3.7,1.75-5.35C288.77,232.22,287.53,233.66,288.05,236.03z"/>
	<path d="M279.2,257.01c-0.82,1.54-1.54,2.78-1.54,4.53C279.92,259.48,279.92,259.48,279.2,257.01z"/>
	<path d="M234.05,257.32c0.51,1.65,1.23,3.09,2.47,4.32C236.1,260,236.1,258.14,234.05,257.32z"/>
	<path d="M321.89,140.16c0.62-1.65,0.62-2.78,0-4.42C320.76,137.39,320.96,138.52,321.89,140.16z"/>
	<path d="M249.17,272.34c2.26-0.72,2.88-2.06,3.5-4.22C250.91,269.46,249.99,270.49,249.17,272.34z"/>
	<path d="M336.19,85.24c0.72-0.93,1.23-1.65,0.62-2.88C335.67,83.08,335.36,83.9,336.19,85.24z"/>
	<path d="M276.53,319.86c0.72-0.82,1.34-1.54,1.95-2.26C277.25,317.8,276.63,318.63,276.53,319.86z"/>
	<path d="M279.72,315.85c0.82-0.93,2.16-1.54,2.26-2.98C280.74,313.48,280.02,314.51,279.72,315.85z"/>
	<path d="M311.7,186.55c0.41-0.82,1.65-1.44,0.72-2.67C311.09,184.39,311.4,185.42,311.7,186.55z"/>
	<path d="M312.73,161.15c0,1.65,0.72,2.47,1.44,3.39C313.87,163.51,314.69,162.07,312.73,161.15z"/>
	<path d="M310.47,155.9c0.1,1.03,0.41,1.85,1.65,2.57C312.12,157.03,312.22,155.9,310.47,155.9z"/>
	<path d="M321.58,128.34c-0.82,1.95-0.82,1.95,0.41,3.6C321.79,130.5,321.68,129.47,321.58,128.34z"/>
	<path d="M315.92,147.16c-0.82,0.51-1.03,1.03-0.62,1.75C316.44,148.6,316.23,147.88,315.92,147.16z"/>
	<path d="M329.4,79.07c-0.93-0.21-1.44,0-1.75,0.93C328.68,80.4,329.19,80.09,329.4,79.07z"/>
	<path d="M327.44,84.72c0-1.03-0.1-1.54-1.13-1.34C326.31,84,326.41,84.52,327.44,84.72z"/>
	<path d="M214.5,317.39c0.1,0.93,0.62,1.54,1.54,1.95C215.84,318.32,215.33,317.8,214.5,317.39z"/>
	<path d="M209.05,310.5c0.21,1.03,0.62,1.54,1.54,2.16C210.39,311.53,209.98,310.91,209.05,310.5z"/>
	<path d="M249.58,301.24c-0.62-0.93-1.13-1.75-2.47-1.23C247.73,300.93,248.34,301.55,249.58,301.24z"/>
	<path d="M222.53,372.52c-0.1-0.51-0.31-0.82-0.62-1.75C221.7,371.8,221.6,372.42,222.53,372.52z"/>
	<path d="M329.6,133.99c-0.21,0.51-0.21,1.03,0.21,1.85C330.22,135.12,330.63,134.4,329.6,133.99z"/>
	<path d="M236.41,263.29c0.72,0,0.35,0.2,0-1.54C236.51,262.16,236.51,262.77,236.41,263.29z"/>
	<path d="M281.98,312.87c0.62-0.21,1.13-0.51,0.82-1.34C281.67,311.53,281.98,312.25,281.98,312.87z"/>
	<path d="M211.93,313.89c-0.41,0.82-0.1,1.03,0.72,1.03C212.65,314.41,212.34,314.2,211.93,313.89z"/>
	<path d="M233.84,340.84c-0.07-0.1-14.31-18.94-16.77-20.37C236.28,348.31,235.84,342.04,233.84,340.84z"/>
	<path d="M331.25,117.43c0.31-0.21,0.21-0.51,0.1-0.82C331.04,116.81,331.04,117.12,331.25,117.43z"/>
	<path d="M334.54,91.51c-0.51,0-0.72,0.21-0.72,1.13C334.33,92.13,334.75,92.13,334.54,91.51z"/>
	<path d="M245.05,561.37c-6.51,4.59-2.61,25.51,0.31,33.64c0.22,0.61,0.51,1.54,2.26,0.93
		C244.34,586.77,241.41,569.88,245.05,561.37z"/>
	<path d="M231.37,549.24c1.03-5.45,2.06-10.49,2.98-15.53C230.96,536.28,229.42,545.43,231.37,549.24z"/>
	<path d="M247.11,531.55c-0.1,0.1-2.22-3.71,1.23-11.62c0.41-0.93,1.13-2.16-0.41-3.29c-1.76,5.02-5.05,11.67-0.93,15.02
		c0.31,3.7,2.47,6.69,3.6,10.08c0.51-3.5-1.48-6.39-2.06-9.57C248.46,531.65,247.73,531.55,247.11,531.55z"/>
	<path d="M250.19,546.67c-2.16,2.16-3.6,5.45-3.6,7.92C248.45,552.01,249.68,549.55,250.19,546.67z"/>
	<path d="M238.47,251.56c-1.44-2.16-3.29-3.6-6.38-4.63C233.94,249.81,236.62,250.02,238.47,251.56z"/>
	<path d="M662.46,142.63c0.31-6.79-4.83-12.34-3.6-19.23C655.26,128.85,657.52,139.65,662.46,142.63z"/>
	<path d="M635.82,120.52c-4.93-3.51-4.85-3.46-2.67-9.15c0.43-1.12,0.82-2.16-1.23-3.09C623.75,120.78,644.68,126.82,635.82,120.52z
		"/>
	<path d="M657.21,105.09c-1.03,4.94-1.34,9.87,0.82,14.61C657.31,114.86,659.27,109.82,657.21,105.09z"/>
	<path d="M667.29,108.89c-1.03,1.23-0.51,1.85,0,2.47c1.96,2.36,4.83,0.21,7.1,1.44C672.43,110.33,669.35,110.54,667.29,108.89z"/>
	<path d="M661.12,168.86c-0.62-3.5-0.41-6.99-0.62-10.59C659.58,161.87,658.34,165.47,661.12,168.86z"/>
	<path d="M665.54,108.07c-1.75-2.26-0.62-5.45-2.37-8.33C661.63,103.75,663.07,106.12,665.54,108.07z"/>
	<path d="M688.58,175.14c-3.56,0-6.95,1.26-10.18,2.57C681.93,177.29,685.46,176.87,688.58,175.14z"/>
	<path d="M631.52,176.37c0.47,0.05,0.92,0.06,1.32,0C632.45,176.33,632.01,176.34,631.52,176.37z"/>
	<path d="M623.06,175.75c3.04,1.27,6.22,0.73,8.46,0.62C629.27,176.14,626.2,175.07,623.06,175.75z"/>
	<path d="M619.67,182.75c2.78,1.47,5.18,2.25,8.54,1.75C624.95,183.89,622.42,182.43,619.67,182.75z"/>
	<path d="M648.26,156.83c2.06,1.65,4.01,2.26,6.27,2.06C652.79,157.65,650.94,156.52,648.26,156.83z"/>
	<path d="M658.45,177.3c0.51-1.65,1.23-3.29-0.1-4.94C657.73,174,657.93,175.65,658.45,177.3z"/>
	<path d="M632.94,95.32c-1.44,1.65-1.85,2.98-1.03,5.35C633.14,98.92,633.66,97.58,632.94,95.32z"/>
	<path d="M656.49,206.3c1.23-1.54,1.13-3.29,0.62-5.04C656.39,202.81,655.26,204.35,656.49,206.3z"/>
	<path d="M627.18,150.86c-1.75-0.72-3.39-1.54-5.35-1.23C623.68,150.14,625.32,151.27,627.18,150.86z"/>
	<path d="M651.55,144.18c-0.72,1.54-1.13,3.09,0,5.25C651.66,147.26,652.38,145.82,651.55,144.18z"/>
	<path d="M682.1,117.53c1.65-0.93,1.95-2.47,2.57-3.81C683.54,114.65,681.59,115.07,682.1,117.53z"/>
	<path d="M639.62,122.99c-0.81,0.4-0.27,0.66,2.78,4.01C641.99,125.15,641.37,123.5,639.62,122.99z"/>
	<path d="M657.73,199.62c1.13-2.06,0.1-3.39-0.21-4.83C656.8,196.22,656.7,197.56,657.73,199.62z"/>
	<path d="M632.73,107.45c0.82-1.54,0-2.57-0.82-4.11C631.5,105.19,631.19,106.43,632.73,107.45z"/>
	<path d="M659.99,149.52c-0.1,1.34-0.31,2.57-0.41,3.91C660.71,152.3,660.81,150.96,659.99,149.52z"/>
	<path d="M661.84,172.15c0.62,1.75,1.23,2.88,2.78,3.19C663.79,174.42,663.59,173.08,661.84,172.15z"/>
	<path d="M682.41,109.51c0.72-1.44,0.31-2.57-0.93-3.81C681.28,107.25,680.97,108.48,682.41,109.51z"/>
	<path d="M682.31,98.61c-0.31,1.03-0.31,1.95,0.51,3.29C683.54,100.15,682.82,99.43,682.31,98.61z"/>
	<path d="M668.83,205.58c1.65-0.41,2.57-1.13,3.19-2.26C670.89,203.73,669.76,204.14,668.83,205.58z"/>
	<path d="M652.27,165.36c-0.41,1.34-0.82,2.26-1.13,3.29C652.48,167.94,652.58,166.91,652.27,165.36z"/>
	<path d="M687.45,112.29c1.54-0.21,1.95-1.03,2.16-2.78C688.27,110.33,687.55,110.95,687.45,112.29z"/>
	<path d="M652.17,177.91c-0.21,0.72,0,1.34,0.72,1.85C652.99,179.05,653.61,178.12,652.17,177.91z"/>
	<path d="M681.18,120.21c-0.51-1.13-1.13-1.95-2.78-2.06C679.02,119.7,679.84,120.11,681.18,120.21z"/>
	<path d="M675.42,194.78c2.1-0.35,1.95,0.05,1.95-0.41C675.12,194.37,675.42,194.23,675.42,194.78z"/>
	<path d="M646.31,131.63c-0.1,0.62,0.1,1.03,0.62,1.65C647.34,132.24,647.34,131.63,646.31,131.63z"/>
	<path d="M625.43,131.22c0.58,0.58,1.06-1.03-0.1-1.03C625.02,130.5,624.91,130.91,625.43,131.22z"/>
	<path d="M687.04,123.19c-0.51-1.03-0.93-1.23-1.65-0.82C685.6,123.19,686.11,123.3,687.04,123.19z"/>
	<path d="M668.42,175.75c-0.1,0.93,0.41,1.03,1.44,1.03C669.55,175.96,669.25,175.45,668.42,175.75z"/>
	<path d="M682.51,178.74c0.93-0.21,1.54,0.1,2.06-0.51C683.95,178.12,683.44,178.02,682.51,178.74z"/>
	<path d="M657.42,185.11c0.51-0.93,0.93-1.54,0.21-2.37C657.01,183.37,656.8,183.98,657.42,185.11z"/>
	<path d="M653.92,138.11c-0.51,0.51-1.03,0.82-0.1,1.65C654.33,139.24,654.85,138.93,653.92,138.11z"/>
	<path d="M630.47,198.59c-0.21,0.41,0.21,0.51,0.41,0.62C631.08,198.79,630.78,198.69,630.47,198.59z"/>
	<path d="M698.15,102.93c-6.77-5.79-0.21-9.07-0.41-14.09c-5.04,4.57-5.24,16.54,1.95,16.87
		C699.9,103.96,698.87,103.55,698.15,102.93z"/>
	<path d="M742.28,146.95c2.16-3.19,3.39-11.52,2.16-13.78C743.72,137.8,743,142.22,742.28,146.95z"/>
	<path d="M713.27,109.2c1.54,2.98,3.39,4.63,6.27,5.86C716.87,111.16,715.94,110.23,713.27,109.2z"/>
	<path d="M736,156.42c-0.1,1.95-0.1,3.91,2.16,5.55C738.98,159.19,737.44,157.75,736,156.42z"/>
	<path d="M724.17,124.63c0.41-2.67-1.23-4.73-2.16-6.99C722.01,120.21,722.94,122.37,724.17,124.63z"/>
	<path d="M698.35,107.56c1.23,2.16,1.54,4.01,2.06,6.58C702.06,110.64,701.75,109.72,698.35,107.56z"/>
	<path d="M743.82,105.29c1.44,0.62,2.88,1.34,5.04,0.82C747.42,103.34,745.46,105.09,743.82,105.29z"/>
	<path d="M711.83,95.32c-0.31,1.85-0.51,3.29,0.51,5.04C713.37,98.3,713.37,96.86,711.83,95.32z"/>
	<path d="M741.76,127.41c0-1.85,0.31-3.09-1.03-4.73C740.12,124.63,740.53,125.76,741.76,127.41z"/>
	<path d="M709.88,143.56c-0.41,1.65-0.1,2.78,1.34,3.5C710.9,145.82,711.21,144.48,709.88,143.56z"/>
	<path d="M704.11,83.8c1.44,1.34,2.06,2.57,3.7,2.78C707.1,85.44,706.48,84.11,704.11,83.8z"/>
	<path d="M713.27,150.86c0.82,3.3,0.08,2.37,1.23,2.37C713.82,150.16,713.69,150.65,713.27,150.86z"/>
	<path d="M712.04,91.72c0.51-1.54,0.1-2.37-1.75-3.29C710.9,89.87,710.49,90.89,712.04,91.72z"/>
	<path d="M749.58,85.96c0.1-0.82,1.23-1.23,0.51-2.57C748.65,84.11,748.86,84.93,749.58,85.96z"/>
	<path d="M713.27,134.51c-0.41,0.62-0.51,1.13,0.31,1.34C714.09,135.23,713.68,134.92,713.27,134.51z"/>
	<path d="M734.77,152.3c-0.51,1.03-0.1,1.54,0.72,2.06C736.1,153.23,735.69,152.71,734.77,152.3z"/>
	<path d="M738.68,156.83c0.51-0.41,1.03-0.82,0.62-1.85C738.26,155.39,738.06,155.9,738.68,156.83z"/>
	<path d="M740.94,81.23c0.93,0.21,1.34-0.21,1.75-1.03C741.45,79.89,740.94,80.2,740.94,81.23z"/>
	<path d="M753.49,80.61c-0.31-0.21-0.62,0-0.93,0.51C753.5,81.83,754.18,81.07,753.49,80.61z"/>
	<path d="M736.41,145c-0.1-0.62,0.41-1.23-0.93-1.23C735.49,144.38,735.49,144.79,736.41,145z"/>
	<path d="M658.24,82.15c2.88-2.26,4.32-5.04,7.1-7.41C661.94,75.05,658.34,78.86,658.24,82.15z"/>
	<path d="M657.93,82.36c-2.06,2.26-2.26,4.42-1.13,6.69C658.55,87.19,658.75,85.03,657.93,82.36z"/>
	<path d="M635.82,72.59c1.75,1.54,3.81,1.95,5.97,2.16C637.15,71.45,637.15,71.45,635.82,72.59z"/>
	<path d="M651.96,79.48c1.34,1.54,1.34,3.91,2.57,5.97C655.87,82.15,655.26,80.92,651.96,79.48z"/>
	<path d="M647.85,76.19c1.03,1.85,2.16,2.98,4.11,3.19C650.94,78.04,650.52,75.88,647.85,76.19z"/>
	<path d="M641.68,74.85c1.23,0.93,2.37,1.85,4.11,0.93C644.56,74.23,643.02,74.95,641.68,74.85z"/>
	<path d="M645.69,68.68c-0.62-1.13-1.23-1.75-2.37-1.23C643.74,68.37,644.35,68.78,645.69,68.68z"/>
	<path d="M653.4,70.43c-0.62,0.82-0.31,1.44,0.21,2.06C654.54,71.66,654.23,71.04,653.4,70.43z"/>
	<path d="M632.52,78.14c-0.9,0.3-0.28,1.25,0.21,1.13C633.51,79.27,633.13,77.99,632.52,78.14z"/>
	<path d="M614.11,322.95c1.65,6.69,2.06,12.96,1.95,19.34C618.95,333.95,618.23,325.62,614.11,322.95z"/>
	<path d="M614.11,382.6c-1.95,1.95-1.95,1.95-1.44,7.3C617.55,392.1,618.58,384.55,614.11,382.6z M614.94,388.57
		c0.1-1.44-3.09-2.37-0.51-4.32C616.27,385.48,616.27,386.92,614.94,388.57z"/>
	<path d="M612.98,369.03c0.1,0.72-1.23,1.23-1.03,2.67c1.34-1.03,1.95,0.82,3.5,0.62c1.13-2.06,1.03-4.01,0.1-6.17
		c-1.34,0.21-2.78-0.62-3.81,0.51C611.54,367.9,612.88,367.79,612.98,369.03z M614.52,367.9c1.13,0.93,0.93,1.75,0.21,2.67
		C613.8,369.64,613.6,368.82,614.52,367.9z"/>
	<path d="M614.52,381.16c2.98-2.47,2.67-6.07-0.62-7.92C611.03,375.71,611.34,379.21,614.52,381.16z M613.91,374.58
		c2.06,1.54,1.95,2.98,0.82,4.73C612.26,378.28,612.67,376.74,613.91,374.58z"/>
	<path d="M659.99,322.43c3.09,4.12,12.05-0.67,13.37,0.41c1.35,1.11,2.89,0.63,4.11,0c2.74-1.42,11.74-4.13,12.75-6.89
		C680.97,320.99,670.99,323.05,659.99,322.43z"/>
	<path d="M697.94,301.45c0.84,1.68,0.65,1.16,1.65,1.95C699.49,302.07,699.07,301.55,697.94,301.45z"/>
	<path d="M698.66,306.69c-0.51,0.1-0.51,0.51-0.21,1.13C699.52,307.61,699.41,306.69,698.66,306.69z"/>
	<path d="M653.51,332.92c0.82,0,1.23-0.31,1.54-1.34C653.92,331.69,653.3,331.89,653.51,332.92z"/>
	<path d="M649.29,334.26c0.82,0.41,1.23,0.21,1.54-0.82C649.91,333.13,649.39,333.33,649.29,334.26z"/>
	<path d="M695.99,311.32c0.82,0,1.13-0.41,1.13-1.34C696.09,310.19,695.78,310.6,695.99,311.32z"/>
	<path d="M692.49,314.31c0.62,0.41,0.93,0,1.23-0.51C693.11,313.38,692.59,313.38,692.49,314.31z"/>
	<path d="M595.8,300.83c-0.21,0.51-0.31,1.13,0.41,1.75C598.17,300.62,596.59,299.26,595.8,300.83z"/>
<path fill="#e6e6e6" d="m206.8 163.6c0-5.1 4.1-9.2 9.3-9.2s9.2 4.2 9.2 9.2-4.1 9.2-9.3 9.2-9.2-4.1-9.2-9.2zm17.3-.1c0-4.5-3.5-8.2-8.2-8.2s-8.2 3.7-8.2 8.3c0 4.5 3.5 8.2 8.2 8.2s8.2-3.7 8.2-8.3zm-13 0c0-2.8 2.1-5.1 5.1-5.1 1.9 0 2.9.6 3.9 1.5l-1.4 1.7c-.8-.7-1.5-1.1-2.5-1.1-1.7 0-2.8 1.4-2.8 3.1s1.1 3 2.8 3c1.1 0 1.7-.5 2.5-1.1l1.4 1.4c-1.1 1.1-2.1 1.7-4 1.7-2.9 0-5-2.3-5-5.1z"/><path fill="#e6e6e6" d="m226.6 154.7h3.4l4.2 13.2 4.4-13.3h2.6l4.4 13.3 4.2-13.2h3.3l-6.2 18h-2.7l-4.4-12.8-4.4 12.8h-2.7z"/><path fill="#e6e6e6" d="m252.8 165.8c0-3.9 3.1-7 7.2-7 4.2 0 7.2 3.2 7.2 7s-3.1 7-7.3 7c-4 0-7.1-3.1-7.1-7zm11.3 0c0-2.3-1.7-4.3-4.2-4.3s-4.1 2-4.1 4.3 1.7 4.3 4.1 4.3c2.7.1 4.2-1.9 4.2-4.3z"/><path fill="#e6e6e6" d="m269.5 159.1h3.1v3c.8-2 2.4-3.4 4.8-3.3v3.2h-.2c-2.7 0-4.6 1.7-4.6 5.4v5.1h-3.1z"/><path fill="#e6e6e6" d="m279.1 153.9h3.1v11.1l5.6-6h3.8l-5.4 5.5 5.5 8h-3.5l-4.1-5.8-1.9 2v3.9h-3.1z"/><path fill="#e6e6e6" d="m291.7 165.8c0-3.9 3.1-7 7.2-7 4.2 0 7.2 3.2 7.2 7s-3.1 7-7.3 7c-4 0-7.1-3.1-7.1-7zm11.3 0c0-2.3-1.7-4.3-4.2-4.3s-4.1 2-4.1 4.3 1.7 4.3 4.1 4.3c2.6.1 4.2-1.9 4.2-4.3z"/><path fill="#e6e6e6" d="m308.2 167.6v-8.6h3.1v7.6c0 2.1 1.1 3.3 2.9 3.3s3-1.3 3-3.3v-7.6h3.1v13.4h-3.1v-2.1c-.8 1.3-2.1 2.3-4.2 2.3-3.1.2-4.8-1.8-4.8-5z"/><path fill="#e6e6e6" d="m323.9 168.8v-7.1h-1.7v-2.6h1.7v-3.7h3.1v3.7h3.6v2.6h-3.6v6.6c0 1.2.6 1.7 1.7 1.7.7 0 1.3-.2 1.9-.5v2.5c-.8.5-1.7.7-2.8.7-2.3 0-3.9-.9-3.9-3.9z"/><path fill="#e6e6e6" d="m333.2 154.7h3.2v15h9.4v2.9h-12.5v-17.9z"/><path fill="#e6e6e6" d="m356 172.5v-1.7c-.9 1.1-2.3 2-4.4 2-2.6 0-4.8-1.4-4.8-4.2 0-3 2.3-4.4 5.4-4.4 1.7 0 2.6.2 3.7.5v-.2c0-1.9-1.2-2.9-3.3-2.9-1.5 0-2.6.3-3.9.8l-.8-2.5c1.5-.7 2.9-1.1 5.1-1.1 4 0 5.9 2.1 5.9 5.7v8zm.1-5.6c-.8-.3-1.9-.5-3.1-.5-2 0-3.1.8-3.1 2.1s1.1 2 2.6 2c2 0 3.5-1.1 3.5-2.9z"/><path fill="#e6e6e6" d="m364.9 170.5v2.1h-3.1v-18.7h3.1v7.4c1-1.4 2.4-2.5 4.5-2.5 3.2 0 6.3 2.5 6.3 7s-3.1 7-6.3 7c-2.1 0-3.5-1.1-4.5-2.3zm7.7-4.7c0-2.6-1.7-4.3-3.9-4.3s-3.9 1.7-3.9 4.4c0 2.6 1.8 4.3 3.9 4.3s3.9-1.7 3.9-4.4z"/><path fill="#e6e6e6" d="m376.9 170.8 1.4-2.1c1.4 1.1 3 1.7 4.4 1.7s2.1-.5 2.1-1.5-1.3-1.4-2.8-1.8c-.1 0-.2-.1-.2-.1-2-.6-4.2-1.4-4.2-4s2.1-4.1 4.8-4.1c1.7 0 3.5.6 5 1.5l-1.2 2.2c-1.3-.8-2.6-1.3-3.8-1.3s-1.9.5-1.9 1.4 1.3 1.4 2.8 1.8c.1 0 .2.1.2.1 2 .6 4.2 1.5 4.2 4 0 2.9-2.2 4.2-5 4.2-1.9 0-4-.7-5.8-2z"/><path fill="#e6e6e6" d="m505.6 163.6c0-5.1 4.1-9.2 9.3-9.2s9.2 4.2 9.2 9.2-4.1 9.2-9.3 9.2-9.2-4.1-9.2-9.2zm17.4-.1c0-4.5-3.5-8.2-8.2-8.2s-8.2 3.7-8.2 8.3c0 4.5 3.5 8.2 8.2 8.2s8.2-3.7 8.2-8.3zm-13.1 0c0-2.8 2.1-5.1 5.1-5.1 1.9 0 2.9.6 3.9 1.5l-1.4 1.7c-.8-.7-1.5-1.1-2.5-1.1-1.7 0-2.8 1.4-2.8 3.1s1.1 3 2.8 3c1.1 0 1.7-.5 2.5-1.1l1.4 1.4c-1.1 1.1-2.1 1.7-4 1.7-2.9 0-5-2.3-5-5.1z"/><path fill="#e6e6e6" d="m525.4 154.7h3.4l4.2 13.2 4.4-13.3h2.6l4.4 13.3 4.2-13.2h3.3l-6.2 18h-2.7l-4.4-12.8-4.4 12.8h-2.7z"/><path fill="#e6e6e6" d="m551.7 165.8c0-3.9 3.1-7 7.2-7 4.2 0 7.2 3.2 7.2 7s-3.1 7-7.3 7c-4.1 0-7.1-3.1-7.1-7zm11.2 0c0-2.3-1.7-4.3-4.2-4.3s-4.1 2-4.1 4.3 1.7 4.3 4.1 4.3c2.7.1 4.2-1.9 4.2-4.3z"/><path fill="#e6e6e6" d="m568.3 159.1h3.1v3c.8-2 2.4-3.4 4.8-3.3v3.2h-.2c-2.7 0-4.6 1.7-4.6 5.4v5.1h-3.1z"/><path fill="#e6e6e6" d="m577.9 153.9h3.1v11.1l5.6-6h3.8l-5.4 5.5 5.5 8h-3.5l-4.1-5.8-1.9 2v3.9h-3.1z"/><path fill="#e6e6e6" d="m590.6 165.8c0-3.9 3.1-7 7.2-7 4.2 0 7.2 3.2 7.2 7s-3.1 7-7.3 7c-4.1 0-7.1-3.1-7.1-7zm11.2 0c0-2.3-1.7-4.3-4.2-4.3s-4.1 2-4.1 4.3 1.7 4.3 4.1 4.3c2.6.1 4.2-1.9 4.2-4.3z"/><path fill="#e6e6e6" d="m607 167.6v-8.6h3.1v7.6c0 2.1 1.1 3.3 2.9 3.3s3-1.3 3-3.3v-7.6h3.1v13.4h-3.1v-2.1c-.8 1.3-2.1 2.3-4.2 2.3-3 .2-4.8-1.8-4.8-5z"/><path fill="#e6e6e6" d="m622.7 168.8v-7.1h-1.7v-2.6h1.7v-3.7h3.1v3.7h3.6v2.6h-3.6v6.6c0 1.2.6 1.7 1.7 1.7.7 0 1.3-.2 1.9-.5v2.5c-.8.5-1.7.7-2.8.7-2.3 0-3.9-.9-3.9-3.9z"/><path fill="#e6e6e6" d="m632 154.7h3.2v15h9.4v2.9h-12.6z"/><path fill="#e6e6e6" d="m654.8 172.5v-1.7c-.9 1.1-2.3 2-4.4 2-2.6 0-4.8-1.4-4.8-4.2 0-3 2.3-4.4 5.4-4.4 1.7 0 2.6.2 3.7.5v-.2c0-1.9-1.2-2.9-3.3-2.9-1.5 0-2.6.3-3.9.8l-.8-2.5c1.5-.7 2.9-1.1 5.1-1.1 4 0 5.9 2.1 5.9 5.7v8zm.1-5.6c-.8-.3-1.9-.5-3.1-.5-2 0-3.1.8-3.1 2.1s1.1 2 2.6 2c2 0 3.5-1.1 3.5-2.9z"/><path fill="#e6e6e6" d="m663.7 170.5v2.1h-3.1v-18.7h3.1v7.4c1-1.4 2.4-2.5 4.5-2.5 3.2 0 6.3 2.5 6.3 7s-3.1 7-6.3 7c-2.1 0-3.5-1.1-4.5-2.3zm7.8-4.7c0-2.6-1.7-4.3-3.9-4.3-2.1 0-3.9 1.7-3.9 4.4 0 2.6 1.8 4.3 3.9 4.3s3.9-1.7 3.9-4.4z"/><path fill="#e6e6e6" d="m675.8 170.8 1.4-2.1c1.4 1.1 3 1.7 4.4 1.7s2.1-.5 2.1-1.5-1.3-1.4-2.8-1.8c-.1 0-.2-.1-.2-.1-2-.6-4.2-1.4-4.2-4s2.1-4.1 4.8-4.1c1.7 0 3.5.6 5 1.5l-1.2 2.2c-1.3-.8-2.6-1.3-3.8-1.3s-1.9.5-1.9 1.4 1.3 1.4 2.8 1.8c.1 0 .2.1.2.1 2 .6 4.2 1.5 4.2 4 0 2.9-2.2 4.2-5 4.2-2 0-4.1-.7-5.8-2z"/><path fill="#e6e6e6" d="m61 298.6c0-5.1 4.1-9.2 9.3-9.2s9.2 4.2 9.2 9.2-4.1 9.2-9.3 9.2c-5.1 0-9.2-4.2-9.2-9.2zm17.4-.1c0-4.5-3.5-8.2-8.2-8.2s-8.2 3.7-8.2 8.3c0 4.5 3.5 8.2 8.2 8.2s8.2-3.7 8.2-8.3zm-13.1-.1c0-2.8 2.1-5.1 5.1-5.1 1.9 0 2.9.6 3.9 1.5l-1.4 1.7c-.8-.7-1.5-1.1-2.5-1.1-1.7 0-2.8 1.4-2.8 3.1s1.1 3 2.8 3c1.1 0 1.7-.5 2.5-1.1l1.4 1.4c-1.1 1.1-2.1 1.7-4 1.7-2.8.1-5-2.2-5-5.1z"/><path fill="#e6e6e6" d="m80.9 289.7h3.4l4.2 13.2 4.4-13.3h2.6l4.4 13.3 4.2-13.2h3.3l-6.2 18h-2.7l-4.4-12.8-4.4 12.8h-2.7z"/><path fill="#e6e6e6" d="m107.1 300.8c0-3.9 3.1-7 7.2-7s7.2 3.2 7.2 7-3.1 7-7.3 7c-4 0-7.1-3.1-7.1-7zm11.3 0c0-2.3-1.7-4.3-4.2-4.3s-4.1 2-4.1 4.3 1.7 4.3 4.1 4.3c2.6.1 4.2-1.9 4.2-4.3z"/><path fill="#e6e6e6" d="m123.7 294h3.1v3c.8-2 2.4-3.4 4.8-3.3v3.2h-.2c-2.7 0-4.6 1.7-4.6 5.4v5.1h-3.1z"/><path fill="#e6e6e6" d="m133.4 288.9h3.1v11.1l5.6-6h3.8l-5.4 5.5 5.5 8h-3.5l-4.1-5.8-1.9 1.9v3.9h-3.1z"/><path fill="#e6e6e6" d="m146 300.8c0-3.9 3.1-7 7.2-7s7.2 3.2 7.2 7-3.1 7-7.3 7c-4.1 0-7.1-3.1-7.1-7zm11.2 0c0-2.3-1.7-4.3-4.2-4.3s-4.1 2-4.1 4.3 1.7 4.3 4.1 4.3c2.6.1 4.2-1.9 4.2-4.3z"/><path fill="#e6e6e6" d="m162.4 302.6v-8.6h3.1v7.6c0 2.1 1.1 3.3 2.9 3.3s3-1.3 3-3.3v-7.6h3.1v13.4h-3.1v-2.1c-.8 1.3-2.1 2.3-4.2 2.3-3 .2-4.8-1.8-4.8-5z"/><path fill="#e6e6e6" d="m178.1 303.8v-7.1h-1.7v-2.7h1.7v-3.7h3.1v3.7h3.6v2.6h-3.6v6.6c0 1.2.6 1.7 1.7 1.7.7 0 1.3-.2 1.9-.5v2.5c-.8.5-1.7.7-2.8.7-2.3.1-3.9-.9-3.9-3.8z"/><path fill="#e6e6e6" d="m187.4 289.7h3.2v15h9.4v2.9h-12.5v-17.9z"/><path fill="#e6e6e6" d="m210.2 307.5v-1.7c-.9 1.1-2.3 2-4.4 2-2.6 0-4.8-1.4-4.8-4.2 0-3 2.3-4.4 5.4-4.4 1.7 0 2.6.2 3.7.5v-.2c0-1.9-1.2-2.9-3.3-2.9-1.5 0-2.6.3-3.9.8l-.8-2.5c1.5-.7 2.9-1.1 5.1-1.1 4 0 5.9 2.1 5.9 5.7v8zm.1-5.6c-.8-.3-1.9-.5-3.1-.5-2 0-3.1.8-3.1 2.1s1.1 2 2.6 2c2 0 3.5-1.1 3.5-2.9z"/><path fill="#e6e6e6" d="m219.2 305.5v2.1h-3.1v-18.7h3.1v7.4c1-1.4 2.4-2.5 4.5-2.5 3.2 0 6.3 2.5 6.3 7s-3.1 7-6.3 7c-2.2 0-3.6-1.1-4.5-2.3zm7.7-4.7c0-2.6-1.7-4.3-3.9-4.3s-3.9 1.7-3.9 4.4c0 2.6 1.8 4.3 3.9 4.3s3.9-1.7 3.9-4.4z"/><path fill="#e6e6e6" d="m231.2 305.8 1.4-2.1c1.4 1.1 3 1.7 4.4 1.7s2.1-.5 2.1-1.5-1.3-1.4-2.8-1.8c-.1 0-.2-.1-.2-.1-2-.6-4.2-1.4-4.2-4s2.1-4.1 4.8-4.1c1.7 0 3.5.6 5 1.5l-1.2 2.2c-1.3-.8-2.6-1.3-3.8-1.3s-1.9.5-1.9 1.4 1.3 1.4 2.8 1.8c.1 0 .2.1.2.1 2 .6 4.2 1.5 4.2 4 0 2.9-2.2 4.2-5 4.2-2 0-4.1-.7-5.8-2z"/><path fill="#e6e6e6" d="m360.6 298.6c0-5.1 4.1-9.2 9.3-9.2s9.2 4.2 9.2 9.2-4.1 9.2-9.3 9.2-9.2-4.2-9.2-9.2zm17.4-.1c0-4.5-3.5-8.2-8.2-8.2s-8.2 3.7-8.2 8.3c0 4.5 3.5 8.2 8.2 8.2s8.2-3.7 8.2-8.3zm-13.1-.1c0-2.8 2.1-5.1 5.1-5.1 1.9 0 2.9.6 3.9 1.5l-1.4 1.7c-.8-.7-1.5-1.1-2.5-1.1-1.7 0-2.8 1.4-2.8 3.1s1.1 3 2.8 3c1.1 0 1.7-.5 2.5-1.1l1.4 1.4c-1.1 1.1-2.1 1.7-4 1.7-2.8.1-5-2.2-5-5.1z"/><path fill="#e6e6e6" d="m380.5 289.7h3.4l4.2 13.2 4.4-13.3h2.6l4.4 13.3 4.2-13.2h3.3l-6.2 18h-2.7l-4.4-12.8-4.4 12.8h-2.7z"/><path fill="#e6e6e6" d="m406.7 300.8c0-3.9 3.1-7 7.2-7 4.2 0 7.2 3.2 7.2 7s-3.1 7-7.3 7c-4.1 0-7.1-3.1-7.1-7zm11.3 0c0-2.3-1.7-4.3-4.2-4.3s-4.1 2-4.1 4.3 1.7 4.3 4.1 4.3c2.7.1 4.2-1.9 4.2-4.3z"/><path fill="#e6e6e6" d="m423.3 294h3.1v3c.8-2 2.4-3.4 4.8-3.3v3.2h-.2c-2.7 0-4.6 1.7-4.6 5.4v5.1h-3.1z"/><path fill="#e6e6e6" d="m433 288.9h3.1v11.1l5.6-6h3.8l-5.4 5.5 5.5 8h-3.5l-4.1-5.8-1.9 2v3.9h-3.1z"/><path fill="#e6e6e6" d="m445.6 300.8c0-3.9 3.1-7 7.2-7 4.2 0 7.2 3.2 7.2 7s-3.1 7-7.3 7c-4.1 0-7.1-3.1-7.1-7zm11.3 0c0-2.3-1.7-4.3-4.2-4.3s-4.1 2-4.1 4.3 1.7 4.3 4.1 4.3c2.6.1 4.2-1.9 4.2-4.3z"/><path fill="#e6e6e6" d="m462.1 302.6v-8.6h3.1v7.6c0 2.1 1.1 3.3 2.9 3.3s3-1.3 3-3.3v-7.6h3.1v13.4h-3.1v-2.1c-.8 1.3-2.1 2.3-4.2 2.3-3.1.2-4.8-1.8-4.8-5z"/><path fill="#e6e6e6" d="m477.8 303.8v-7.1h-1.8v-2.7h1.7v-3.7h3.1v3.7h3.6v2.6h-3.6v6.6c0 1.2.6 1.7 1.7 1.7.7 0 1.3-.2 1.9-.5v2.5c-.8.5-1.7.7-2.8.7-2.2.1-3.8-.9-3.8-3.8z"/><path fill="#e6e6e6" d="m487.1 289.7h3.2v15h9.4v2.9h-12.5v-17.9z"/><path fill="#e6e6e6" d="m509.9 307.5v-1.7c-.9 1.1-2.3 2-4.4 2-2.6 0-4.8-1.4-4.8-4.2 0-3 2.3-4.4 5.4-4.4 1.7 0 2.6.2 3.7.5v-.2c0-1.9-1.2-2.9-3.3-2.9-1.5 0-2.6.3-3.9.8l-.8-2.5c1.5-.7 2.9-1.1 5.1-1.1 4 0 5.9 2.1 5.9 5.7v8zm.1-5.6c-.8-.3-1.9-.5-3.1-.5-2 0-3.1.8-3.1 2.1s1.1 2 2.6 2c2 0 3.5-1.1 3.5-2.9z"/><path fill="#e6e6e6" d="m518.8 305.5v2.1h-3.1v-18.7h3.1v7.4c1-1.4 2.4-2.5 4.5-2.5 3.2 0 6.3 2.5 6.3 7s-3.1 7-6.3 7c-2.2 0-3.5-1.1-4.5-2.3zm7.7-4.7c0-2.6-1.7-4.3-3.9-4.3s-3.9 1.7-3.9 4.4c0 2.6 1.8 4.3 3.9 4.3s3.9-1.7 3.9-4.4z"/><path fill="#e6e6e6" d="m530.8 305.8 1.4-2.1c1.4 1.1 3 1.7 4.4 1.7s2.1-.5 2.1-1.5-1.3-1.4-2.8-1.8c-.1 0-.2-.1-.2-.1-2-.6-4.2-1.4-4.2-4s2.1-4.1 4.8-4.1c1.7 0 3.5.6 5 1.5l-1.2 2.2c-1.3-.8-2.6-1.3-3.8-1.3s-1.9.5-1.9 1.4 1.3 1.4 2.8 1.8c.1 0 .2.1.2.1 2 .6 4.2 1.5 4.2 4 0 2.9-2.2 4.2-5 4.2-1.9 0-4.1-.7-5.8-2z"/><path fill="#e6e6e6" d="m659.5 298.6c0-5.1 4.1-9.2 9.3-9.2s9.2 4.2 9.2 9.2-4.1 9.2-9.3 9.2-9.2-4.2-9.2-9.2zm17.3-.1c0-4.5-3.5-8.2-8.2-8.2s-8.2 3.7-8.2 8.3c0 4.5 3.5 8.2 8.2 8.2 4.8 0 8.2-3.7 8.2-8.3zm-13-.1c0-2.8 2.1-5.1 5.1-5.1 1.9 0 2.9.6 3.9 1.5l-1.4 1.7c-.8-.7-1.5-1.1-2.5-1.1-1.7 0-2.8 1.4-2.8 3.1s1.1 3 2.8 3c1.1 0 1.7-.5 2.5-1.1l1.4 1.4c-1.1 1.1-2.1 1.7-4 1.7-2.9.1-5-2.2-5-5.1z"/><path fill="#e6e6e6" d="m679.3 289.7h3.4l4.2 13.2 4.4-13.3h2.6l4.4 13.3 4.2-13.2h3.3l-6.2 18h-2.6l-4.4-12.8-4.4 12.8h-2.7z"/><path fill="#e6e6e6" d="m705.5 300.8c0-3.9 3.1-7 7.2-7 4.2 0 7.2 3.2 7.2 7s-3.1 7-7.3 7c-4 0-7.1-3.1-7.1-7zm11.3 0c0-2.3-1.7-4.3-4.2-4.3s-4.1 2-4.1 4.3 1.7 4.3 4.1 4.3c2.7.1 4.2-1.9 4.2-4.3z"/><path fill="#e6e6e6" d="m722.1 294h3.1v3c.8-2 2.4-3.4 4.8-3.3v3.2h-.2c-2.7 0-4.6 1.7-4.6 5.4v5.1h-3.1z"/><path fill="#e6e6e6" d="m731.8 288.9h3.1v11.1l5.6-6h3.8l-5.4 5.5 5.5 8h-3.5l-4.1-5.8-1.9 2v3.9h-3.1z"/><path fill="#e6e6e6" d="m744.4 300.8c0-3.9 3.1-7 7.2-7 4.2 0 7.2 3.2 7.2 7s-3.1 7-7.3 7c-4.1 0-7.1-3.1-7.1-7zm11.3 0c0-2.3-1.7-4.3-4.2-4.3s-4.1 2-4.1 4.3 1.7 4.3 4.1 4.3c2.6.1 4.2-1.9 4.2-4.3z"/><path fill="#e6e6e6" d="m760.9 302.6v-8.6h3.1v7.6c0 2.1 1.1 3.3 2.9 3.3s3-1.3 3-3.3v-7.6h3.1v13.4h-3.1v-2.1c-.8 1.3-2.1 2.3-4.2 2.3-3.1.2-4.8-1.8-4.8-5z"/><path fill="#e6e6e6" d="m776.6 303.8v-7.1h-1.7v-2.7h1.7v-3.7h3.1v3.7h3.6v2.6h-3.6v6.6c0 1.2.6 1.7 1.7 1.7.7 0 1.3-.2 1.9-.5v2.5c-.8.5-1.7.7-2.8.7-2.3.1-3.9-.9-3.9-3.8z"/><path fill="#e6e6e6" d="m785.9 289.7h3.2v15h9.4v2.9h-12.5v-17.9z"/><path fill="#e6e6e6" d="m808.7 307.5v-1.7c-.9 1.1-2.3 2-4.4 2-2.6 0-4.8-1.4-4.8-4.2 0-3 2.3-4.4 5.4-4.4 1.7 0 2.6.2 3.7.5v-.2c0-1.9-1.2-2.9-3.3-2.9-1.5 0-2.6.3-3.9.8l-.8-2.5c1.5-.7 2.9-1.1 5.1-1.1 4 0 5.9 2.1 5.9 5.7v8zm.1-5.6c-.8-.3-1.9-.5-3.1-.5-2 0-3.1.8-3.1 2.1s1.1 2 2.6 2c2 0 3.5-1.1 3.5-2.9z"/><path fill="#e6e6e6" d="m817.6 305.5v2.1h-3.1v-18.7h3.1v7.4c1-1.4 2.4-2.5 4.5-2.5 3.2 0 6.3 2.5 6.3 7s-3.1 7-6.3 7c-2.1 0-3.5-1.1-4.5-2.3zm7.7-4.7c0-2.6-1.7-4.3-3.9-4.3-2.1 0-3.9 1.7-3.9 4.4 0 2.6 1.8 4.3 3.9 4.3 2.2 0 3.9-1.7 3.9-4.4z"/><path fill="#e6e6e6" d="m829.6 305.8 1.4-2.1c1.4 1.1 3 1.7 4.4 1.7s2.1-.5 2.1-1.5-1.3-1.4-2.8-1.8c-.1 0-.2-.1-.2-.1-2-.6-4.2-1.4-4.2-4s2.1-4.1 4.8-4.1c1.7 0 3.5.6 5 1.5l-1.2 2.2c-1.3-.8-2.6-1.3-3.8-1.3s-1.9.5-1.9 1.4 1.3 1.4 2.8 1.8c.1 0 .2.1.2.1 2 .6 4.2 1.5 4.2 4 0 2.9-2.2 4.2-5 4.2-1.9 0-4-.7-5.8-2z"/><path fill="#e6e6e6" d="m206.3 434.2c0-5.1 4.1-9.2 9.3-9.2s9.2 4.2 9.2 9.2-4.1 9.2-9.3 9.2-9.2-4.1-9.2-9.2zm17.4-.1c0-4.5-3.5-8.2-8.2-8.2s-8.2 3.7-8.2 8.3c0 4.5 3.5 8.2 8.2 8.2s8.2-3.7 8.2-8.3zm-13.1-.1c0-2.8 2.1-5.1 5.1-5.1 1.9 0 2.9.6 3.9 1.5l-1.4 1.7c-.8-.7-1.5-1.1-2.5-1.1-1.7 0-2.8 1.4-2.8 3.1s1.1 3 2.8 3c1.1 0 1.7-.5 2.5-1.1l1.4 1.4c-1.1 1.1-2.1 1.7-4 1.7-2.9.1-5-2.2-5-5.1z"/><path fill="#e6e6e6" d="m226.1 425.3h3.4l4.2 13.2 4.4-13.3h2.6l4.4 13.3 4.2-13.2h3.3l-6.2 18h-2.7l-4.4-12.8-4.4 12.8h-2.7z"/><path fill="#e6e6e6" d="m252.4 436.4c0-3.9 3.1-7 7.2-7 4.2 0 7.2 3.2 7.2 7s-3.1 7-7.3 7c-4.1 0-7.1-3.1-7.1-7zm11.2 0c0-2.3-1.7-4.3-4.2-4.3s-4.1 2-4.1 4.3 1.7 4.3 4.1 4.3c2.7.1 4.2-1.9 4.2-4.3z"/><path fill="#e6e6e6" d="m269 429.7h3.1v3c.8-2 2.4-3.4 4.8-3.3v3.2h-.2c-2.7 0-4.6 1.7-4.6 5.4v5.1h-3.1z"/><path fill="#e6e6e6" d="m278.6 424.5h3.1v11.1l5.6-6h3.8l-5.4 5.5 5.5 8h-3.5l-4.1-5.8-1.9 2v3.9h-3.1z"/><path fill="#e6e6e6" d="m291.3 436.4c0-3.9 3.1-7 7.2-7 4.2 0 7.2 3.2 7.2 7s-3.1 7-7.3 7c-4.1 0-7.1-3.1-7.1-7zm11.2 0c0-2.3-1.7-4.3-4.2-4.3s-4.1 2-4.1 4.3 1.7 4.3 4.1 4.3c2.6.1 4.2-1.9 4.2-4.3z"/><path fill="#e6e6e6" d="m307.7 438.2v-8.6h3.1v7.6c0 2.1 1.1 3.3 2.9 3.3s3-1.3 3-3.3v-7.6h3.1v13.4h-3.1v-2.1c-.8 1.3-2.1 2.3-4.2 2.3-3 .2-4.8-1.8-4.8-5z"/><path fill="#e6e6e6" d="m323.4 439.4v-7.1h-1.7v-2.6h1.7v-3.7h3.1v3.7h3.6v2.6h-3.6v6.6c0 1.2.6 1.7 1.7 1.7.7 0 1.3-.2 1.9-.5v2.5c-.8.5-1.7.7-2.8.7-2.3 0-3.9-.9-3.9-3.9z"/><path fill="#e6e6e6" d="m332.7 425.3h3.2v15h9.4v2.9h-12.5v-17.9z"/><path fill="#e6e6e6" d="m355.5 443.1v-1.7c-.9 1.1-2.3 2-4.4 2-2.6 0-4.8-1.4-4.8-4.2 0-3 2.3-4.4 5.4-4.4 1.7 0 2.6.2 3.7.5v-.2c0-1.9-1.2-2.9-3.3-2.9-1.5 0-2.6.3-3.9.8l-.8-2.5c1.5-.7 2.9-1.1 5.1-1.1 4 0 5.9 2.1 5.9 5.7v8zm.1-5.6c-.8-.3-1.9-.5-3.1-.5-2 0-3.1.8-3.1 2.1s1.1 2 2.6 2c2 0 3.5-1.1 3.5-2.9z"/><path fill="#e6e6e6" d="m364.4 441.1v2.1h-3.1v-18.7h3.1v7.4c1-1.4 2.4-2.5 4.5-2.5 3.2 0 6.3 2.5 6.3 7s-3.1 7-6.3 7c-2.1 0-3.5-1.1-4.5-2.3zm7.7-4.7c0-2.6-1.7-4.3-3.9-4.3-2.1 0-3.9 1.7-3.9 4.4 0 2.6 1.8 4.3 3.9 4.3 2.2 0 3.9-1.7 3.9-4.4z"/><path fill="#e6e6e6" d="m376.5 441.4 1.4-2.1c1.4 1.1 3 1.7 4.4 1.7s2.1-.5 2.1-1.5-1.3-1.4-2.8-1.8c-.1 0-.2-.1-.2-.1-2-.6-4.2-1.4-4.2-4s2.1-4.1 4.8-4.1c1.7 0 3.5.6 5 1.5l-1.2 2.2c-1.3-.8-2.6-1.3-3.8-1.3s-1.9.5-1.9 1.4 1.3 1.4 2.8 1.8c.1 0 .2.1.2.1 2 .6 4.2 1.5 4.2 4 0 2.9-2.2 4.2-5 4.2-2 0-4.1-.7-5.8-2z"/><path fill="#e6e6e6" d="m505.1 434.2c0-5.1 4.1-9.2 9.3-9.2s9.2 4.2 9.2 9.2-4.1 9.2-9.3 9.2-9.2-4.1-9.2-9.2zm17.4-.1c0-4.5-3.5-8.2-8.2-8.2s-8.2 3.7-8.2 8.3c0 4.5 3.5 8.2 8.2 8.2s8.2-3.7 8.2-8.3zm-13.1-.1c0-2.8 2.1-5.1 5.1-5.1 1.9 0 2.9.6 3.9 1.5l-1.4 1.7c-.8-.7-1.5-1.1-2.5-1.1-1.7 0-2.8 1.4-2.8 3.1s1.1 3 2.8 3c1.1 0 1.7-.5 2.5-1.1l1.4 1.4c-1.1 1.1-2.1 1.7-4 1.7-2.9.1-5-2.2-5-5.1z"/><path fill="#e6e6e6" d="m525 425.3h3.4l4.2 13.2 4.4-13.3h2.6l4.4 13.3 4.2-13.2h3.3l-6.2 18h-2.7l-4.4-12.8-4.4 12.8h-2.7z"/><path fill="#e6e6e6" d="m551.2 436.4c0-3.9 3.1-7 7.2-7 4.2 0 7.2 3.2 7.2 7s-3.1 7-7.3 7c-4.1 0-7.1-3.1-7.1-7zm11.2 0c0-2.3-1.7-4.3-4.2-4.3s-4.1 2-4.1 4.3 1.7 4.3 4.1 4.3c2.7.1 4.2-1.9 4.2-4.3z"/><path fill="#e6e6e6" d="m567.8 429.7h3.1v3c.8-2 2.4-3.4 4.8-3.3v3.2h-.2c-2.7 0-4.6 1.7-4.6 5.4v5.1h-3.1z"/><path fill="#e6e6e6" d="m577.5 424.5h3.1v11.1l5.6-6h3.8l-5.4 5.5 5.5 8h-3.5l-4.1-5.8-1.9 2v3.9h-3.1z"/><path fill="#e6e6e6" d="m590.1 436.4c0-3.9 3.1-7 7.2-7 4.2 0 7.2 3.2 7.2 7s-3.1 7-7.3 7c-4.1 0-7.1-3.1-7.1-7zm11.2 0c0-2.3-1.7-4.3-4.2-4.3s-4.1 2-4.1 4.3 1.7 4.3 4.1 4.3c2.6.1 4.2-1.9 4.2-4.3z"/><path fill="#e6e6e6" d="m606.5 438.2v-8.6h3.1v7.6c0 2.1 1.1 3.3 2.9 3.3s3-1.3 3-3.3v-7.6h3.1v13.4h-3.1v-2.1c-.8 1.3-2.1 2.3-4.2 2.3-3 .2-4.8-1.8-4.8-5z"/><path fill="#e6e6e6" d="m622.2 439.4v-7.1h-1.7v-2.6h1.7v-3.7h3.1v3.7h3.6v2.6h-3.6v6.6c0 1.2.6 1.7 1.7 1.7.7 0 1.3-.2 1.9-.5v2.5c-.8.5-1.7.7-2.8.7-2.3 0-3.9-.9-3.9-3.9z"/><path fill="#e6e6e6" d="m631.5 425.3h3.2v15h9.4v2.9h-12.5v-17.9z"/><path fill="#e6e6e6" d="m654.3 443.1v-1.7c-.9 1.1-2.3 2-4.4 2-2.6 0-4.8-1.4-4.8-4.2 0-3 2.3-4.4 5.4-4.4 1.7 0 2.6.2 3.7.5v-.2c0-1.9-1.2-2.9-3.3-2.9-1.5 0-2.6.3-3.9.8l-.8-2.5c1.5-.7 2.9-1.1 5.1-1.1 4 0 5.9 2.1 5.9 5.7v8zm.1-5.6c-.8-.3-1.9-.5-3.1-.5-2 0-3.1.8-3.1 2.1s1.1 2 2.6 2c2 0 3.5-1.1 3.5-2.9z"/><path fill="#e6e6e6" d="m663.3 441.1v2.1h-3.1v-18.7h3.1v7.4c1-1.4 2.4-2.5 4.5-2.5 3.2 0 6.3 2.5 6.3 7s-3.1 7-6.3 7c-2.2 0-3.6-1.1-4.5-2.3zm7.7-4.7c0-2.6-1.7-4.3-3.9-4.3s-3.9 1.7-3.9 4.4c0 2.6 1.8 4.3 3.9 4.3s3.9-1.7 3.9-4.4z"/><path fill="#e6e6e6" d="m675.3 441.4 1.4-2.1c1.4 1.1 3 1.7 4.4 1.7s2.1-.5 2.1-1.5-1.3-1.4-2.8-1.8c-.1 0-.2-.1-.2-.1-2-.6-4.2-1.4-4.2-4s2.1-4.1 4.8-4.1c1.7 0 3.5.6 5 1.5l-1.2 2.2c-1.3-.8-2.6-1.3-3.8-1.3s-1.9.5-1.9 1.4 1.3 1.4 2.8 1.8c.1 0 .2.1.2.1 2 .6 4.2 1.5 4.2 4 0 2.9-2.2 4.2-5 4.2-2 0-4.1-.7-5.8-2z"/></g>
</svg>
