<?xml version="1.0" encoding="utf-8"?>
<!-- Generator: Adobe Illustrator 23.0.1, SVG Export Plug-In . SVG Version: 6.00 Build 0)  -->
<svg version="1.2" baseProfile="tiny" id="Layer_1" xmlns="http://www.w3.org/2000/svg" xmlns:xlink="http://www.w3.org/1999/xlink"
	 x="0px" y="0px" viewBox="0 0 900 600" xml:space="preserve">
<g>
	<path d="M854.92,527.49c6.06-0.24,4.25-4.97,3.65-8.55c-0.1-2.19,2.19-2.19,1.98-4.59c-0.21-1.46-2.61-1.36-4.27-2.81
		c4.08-2.78,1.88-11.56-0.52-14.59c-3.68-4.67-4.48-10.84-8.44-15.32c1.46-1.04,3.75-0.21,4.59-2.5c-1.56-2.81-4.8-0.63-6.88-2.08
		c-0.83-2.08,1.98-2.92,1.88-4.9c-1.98-1.77-2.92,1.15-4.48,0.94s-2.92-1.04-3.75-2.19c-1.56-0.42-2.4,0.83-4.07,0.94
		c-5.21-4.59-12.61-4.63-19.18-5.53c-21.95-3-27.78,6.2-30.02,7.82c-8.63,6.25-21.65,7.04-23.87,7.92
		c-1.15-0.31-1.56-1.36-2.19-2.08c0.21-1.36,1.88-2.19,1.77-4.07c-1.46-1.88-3.96-2.19-6.25-3.23c1.98-5.58-7.24-19.68-11.26-25.02
		c-4.07-5.41-11.13-5.28-23.56-7.3c-9.8-6.98-19.39-11.82-31.59-10.42c-25.58,2.92-33.67-8.9-62.03-5.73
		c-10.73,1.2-22.64,2.24-21.68,12.3c1.67,17.58,4.41,7.77-15.01,12.82c-5.21,1.36-10.74,1.46-14.49,6.57
		c-8.6-7.78-11.64,2.14-15.64,0.83c-4.58-1.49-9.8,0-14.07-2.92c-1.36-1.04-2.81-1.36-4.27,0.21c-3.02-4.38-6.78-1.56-9.7-1.56
		c-29.55-18.5-47.77-20.75-81.52-5.21c-9.39,4.32-10.27,11.21-18.87,15.43c-15.38,7.55-16.66,3.63-49.2,12.61
		c-16.58,4.58-20.3-2.54-21.89,7.09c-3.51,21.25-11.22,10.8-21.27,17.93c5.11,3.65,10.53,3.34,16.47,1.56
		c-1.67,13.86-4.07,27.31-0.52,40.86c-8.76,1.36-15.95-1.67-22.31-8.13c3.11-5.74-11.37-6.07-11.26-10.95
		c0.01-0.31-0.31-0.84-0.63-1.04c-16.62-10.61-12.95-2.68-8.86-2.4c7.06,0.48,6.75,7.32,17.51,14.49
		c-8.43,2.71-23.72,0.47-32.63-8.65c-9.79-10.03-47.87-13.89-53.48-14.8c-64.88-10.61-47.56-15.81-73.39-15.95
		c-6.94-0.04-28.06,1.46-33.15,5.42c0.61-10.08-7.62-15.57,9.28-33.36c-0.94-1.36-0.42-3.23,1.25-5.21
		c66.82,6.88,53.26,3.29,69.43,7.09c10.18,2.39,29.48-4.42,50.77-0.94c12.69,2.08,14.87,6.15,22.83,6.57
		c8.97,0.47,16.37,5.21,24.29,8.65c-0.73,0.83-1.88,0-2.61,1.25c7.86,5.7,15.3,1.56,15.95,1.56c9.8,0.05,19.6-0.1,29.61,1.25
		c8.14-6.11-25.84-4.78-39.41-2.19c0.1-3.13-1.88-3.84-3.86-4.8c-8.48-4.1-16.79-8.25-26.48-8.76c-6.18-0.32-9.83-8.9-42.01-7.71
		c-13.72,0.51-23.56,3.13-26.17,2.5c-16.84-4.04-53.2-5.2-67.66-7.92c1.25-1.25,3.44,0,4.27-2.19c-2.19-3.34-5.32-0.63-8.03-1.04
		c-1.15-0.94,0.31-1.88-0.31-2.81c-6.36-6.15-15.09-8.38-22.52-12.93c-8.16-5-18.47-2.25-24.29-4.8c-3.21-1.41-6.88,0.42-8.55,4.17
		c-2.5,5.63-6.3,10.55-8.44,16.47c-2.31,6.37-7.36,6.44-4.38,13.97c2.37,6-3.95,9.14-4.07,18.97c-0.08,7.17-9.94,9.31-14.39,31.27
		c-1.86,9.18-0.42,18.35,0.1,27.52c0.74,12.96,17.55,21.48,23.35,19.49c3.28-1.12,12.35,4.2,21.37-6.88
		c3.46-4.25,3.13-6.67-0.52-12.3c2.71-4.38-0.73-7.82-2.19-12.09c6.46-5.53,9.2-14.63,18.45-17.83c5.02-1.73,10.32-4.07,13.24-9.17
		c1.67-0.52,3.54,0.73,5-1.04c0.52-1.88-3.02-2.71-1.04-5.21c3.36-2.75,9.13,1.07,19.39-2.5c6.1-2.13,12.58,0.35,23.04,1.98
		c28.55,4.44,14.47,8.52,46.18,11.57c14.07,1.36,27.94,4.13,42.01,5.63c8.55,0.91,16.44,4.34,23.87,8.55
		c1.87,1.06,3.04,3.01,4.69,4.38c7.98,6.6,24.19,8.44,33.36,6.15c7.09,5.21,14.8,9.59,23.66,8.13c2.81,2.08,1.04,5.84,4.38,6.98
		c3.02-5.84,9.17-4.07,13.76-5.73c10.14,5.31,5.9,4.81,22.41,2.92c6.42-0.74,10.56,7.19,25.96,6.57c18-0.73,19.22,1.32,20.85-1.04
		c19.79,4.28,29.05,7.44,42.53,4.07c14.86-3.72,15.78,12.58,42.43-14.07c2.61-0.63,5.53,0.52,7.92-1.25
		c0.73-4.38,0.73-4.38,2.61-6.98c-1.88-1.15-1.67-3.02-1.25-5.21c5.1,2.95,2.99-6.81,11.26-72.97c2.5,1.15,4.59-2.4,7.19-0.31
		c-1.77,16.37-0.1,33.15-5.32,49.2c11.35-25.44,1.56-52.62,10.74-48.68c0.1,2.81-1.67,5.53-0.63,8.55c3.54-3.54-1.9-4.13,7.61-11.57
		c3.87-3.03,6.37,4.92,10.53,1.36c8.12-6.95,23.55-5.82,33.78-7.82c-4.69,5.24,0.47,2.43-2.29,11.99c-3.3,11.39-0.16,49.8-0.1,50.25
		c0.27,2.02-1.33,3.1-1.52,3.59c-49.51,33.41-16.06,14.7,0.36,0.58c2.32,0,1.82,1.54,2.3,2.92c2.49,7.16,6.89,13.55,8.34,21.16
		c0.42,2.19,3.13,3.75,3.44,6.46c-5,3.02-9.8-2.92-15.12,0.42c0.94-4.8,5-6.67,5.42-10.84c-4.48,2.29-6.88,6.67-10.22,10.22
		c-5.73,0.83-11.57,0.62-17.41-0.73c-22.21-5.15-33.39,2.45-39.82-2.71c-1.68-1.35-3.96-1.69-6.05-2.08
		c-1.14-0.22-1.88,0.21-2.08,1.98c11.6,1.22,7.22,8.74,19.7,5.32c7.64-2.1,23.95-0.2,31.59,2.19c8.4,2.63,22.64-1.91,28.46,1.15
		c1.98,1.04,4.8-0.63,7.61-0.94c2.29,3.54,3.83,7.73,6.05,11.57c17.15,29.79,18.41,36.58,34.61,35.13c5.85-0.52,19.3,0.43,32-3.65
		c5.03,3.35,19.31,9.33,18.45,3.34c-0.02,0-0.82-0.42,7.09,0.63c3.86,0.51,6.15-0.31,8.34-3.02c-1.36-1.98-3.65-2.18-5.63-2.81
		c-11.31-3.62-7.02-6.54-14.18-7.51c-3.02-0.41-5.53-2.08-8.24-3.02c7.09,0.52,14.34-0.17,19.7,6.05c2.55,2.96,9.12,2.57,10.11,5.63
		c0.54,1.66,4.38,0.83,5.94-1.15c-3.34-1.98-6.98-3.36-10.63-4.38c-12.1-3.38,3.3-7.53-26.06-8.97c-4.27-0.21-8.44-1.48-12.72-1.88
		c-29.72-2.78-14.4-0.44-25.85-3.65c-3.23-7.19-4.8-14.59-3.44-22.41c7.97-2.45,17.53,3.01,32.42-5.63
		c4.16-2.41,12.93,1.63,12.93-3.44c-0.52-0.31,0.71,0.52-1.36,0c-22.76-2.15-10.55,7.28-33.25,4.8
		c20.82-19.66,32.93-13.08,27.63-25.96c-1.89,11.53-20.4,12.51-29.5,25.75c-3.23-0.31-6.36,0-9.38,0.42
		c-0.52-13.14-1.25-25.75,8.03-36.49c3.23,1.36,6.88,1.96,10.74,1.46c4.4-0.57,10.54,7.29,25.85,3.02
		c0.11-0.03,32.1-6.22,29.81-12.3c8.44-10.95,13.34-22.73,16.78-35.55c1.25,3.86,0.21,9.17,7.61,9.59
		c-8.03,4.48-11.59,11.14-14.8,17.83c-10.25,21.34-37.82,24.65-36.8,30.44c0.5,2.82-1.25,4.59-2.08,6.88
		c-4.31,11.92-0.04,6.84,0.57,9.97c1.85,1.85,6.21-7.12,10.48-6.53c3.02,0.42,5.53-0.82,8.24-1.56c10.21-2.79,25.17,5.78,32.21,6.46
		c0.94,5.11,0.65,9.7,0.52,14.28c-0.18,6.67,6.25,11.86,12.72,9.8c5.31-1.69,5.32-1.67,8.34,1.15c1.25,0.31,2.08-0.94,3.23-0.83
		c1.15,0.63,1.67,2.07,3.02,2.4c1.25,0.3,2.18-0.54,3.23-0.94c6.4-2.44,3.32,2.06,6.88,2.71c10.71-3.24,13.04-11.14,20.02-9.49
		c4.2,0.99,7.1-0.74,17.41-7.09c1.56,0,1.77,2.08,3.34,1.88c0.62-0.44,0.64-0.96,0.5-1.55c7.19,8.57,10.77,7.75,18.79,6.45
		c-0.83-3.13,3.34-3.65,3.34-6.36c0-2.4-0.94-4.8,1.56-6.67c-2.4-3.65-6.67-5.21-8.03-9.59c1.98,0.42,2.71,3.13,5.21,2.61
		c-0.1-2.92-2.61-4.27-4.07-7.3c2.98,1.37,5.61,7,8.13,1.46C860.03,529.89,857.11,529.47,854.92,527.49z M124.77,511.44
		c-13.33-11.62-14.04-13.57-16.78-11.99c-2.29-1.04-3.02-3.75-5.32-3.44c-4.72,2.1,4.2,7.17,5.73,11.15
		c-2.71-0.83-5.2-3.42-8.03-1.15c-2.49,2-0.42,4.17,0,6.36c-6.78,1.15-7.71,2.08-3.34,10.22c-0.33,0.4-9.73,0.31-5.63,7.82
		c2.65,4.85,7.36,3.86,7.19,6.98c-2.5,0.31-5.53-1.88-7.82,1.15c2.71,4.38,7.19,5.21,11.36,6.25c0.63,1.46-0.94,2.61-0.31,4.07
		c2.5,1.98,2.4,4.8,1.88,8.13c-15.24,9.28-14.57,3.73-17.51,5.42c-3.74,2.15-10.62-2.01-14.07-4.48
		c-8.58-6.14-5.58-12.06-8.24-26.48c-0.44-2.39-1.68-4.69-0.83-7.19c3.3-9.81,5.31-20.23,12.41-28.56
		c4.69-5.51,3.83-10.07,5.73-13.34c6.52-11.21,1.09-15.79,1.56-17.2c5.21-8.65,10.42-16.99,14.49-26.58c3.65,3.02,7.4,2.3,10.95,2.5
		c12.33,0.71,7.95,0.04,35.44,13.14c-1.36,1.98-2.82,3.22-4.69,4.17c-13.21,6.75-7.42,10.81-13.97,16.16
		c-6.11,4.99-6.85,13.21-5.53,20.95c-0.52,1.46-2.29,1.56-2.4,3.13c0.94,2.4,6.36,7.71,8.97,8.76c1.04-1.36-1.36-2.29-0.52-3.86
		c1.36,2.08,3.34,3.23,5.32,4.48C128.74,510.08,126.23,510.92,124.77,511.44z M101.11,530.51c-0.63,1.15-1.36,1.77-1.98,0
		C99.86,529.89,100.49,529.99,101.11,530.51z M131.34,490.8c0.63,3.44,0.94,7.09,0.63,10.63c-3.44,0.94-7.04-1.15-7.09-4.38
		c-0.07-4.25-2.99-12.98,3.02-19.29c3.13-3.29,5.84-12.64,15.32-16.68C138.63,475.16,128.94,477.78,131.34,490.8z M534.26,474.43
		c-0.51,1.36-1.46,3.23-0.63,4.07c2.47,2.47-0.92,21.41-0.31,62.13c-3.54,0.94-7.51-0.83-10.32,2.29
		c-0.42,4.8-14.59,13.76-21.58,13.24c9.43-20.74,12.25-13.19,19.29-20.43c-13.24,0.21-18.35,9.7-22.31,20.33
		c-4.69-1.36-8.86-0.41-13.14,0.21c-5.79,0.84-6.31,4.38-23.25,0.31c-39.07-9.39-28.31,3.44-53.37-5.21
		c-0.63-1.15,1.15-1.88,0.1-2.92c-4.48-1.67-15.25-1.86-20.75,0.31c-8.58,3.39-10.78-6.65-21.37-4.48c-2.5,0.51-3.86,3.13-6.78,2.81
		c-4.99-14.32-5.29-19.66,4.07-65.78c1.66-0.91,9.69,0.69,15.22-1.77c10.77-4.79,30.37-5.28,41.28-9.07
		c24.03-8.35,22.81-13.81,32.53-19.7c14.85-9,30.75-11.36,47.85-8.55c8.24,1.36,15,5.87,22.2,9.17c2.29,1.05,4.17,2.4,4.59,4.69
		c-1.56,2.81-1.67,5.53-1.56,8.65c2.71-0.83,5.32,1.67,7.71-0.63c0.42-0.94-1.04-0.83-0.94-1.56c0.63-1.15,2.71-0.52,2.81-2.4
		c-1.98-0.73-3.96,1.15-5.84-0.1c1.67-1.46,3.96-0.63,5.32-1.46c1.36-1.04-0.21-1.36,0.1-2.08c0.83-0.21,1.67-0.42,2.71,0.42
		C536.45,462.65,536.4,468.72,534.26,474.43z M538.32,525.93c-1.25,0-0.94,1.89-0.94-12.61
		C538.79,512.19,538.32,513.03,538.32,525.93z M540.3,497.36c-3.23-13.76-3.86-27.31,1.04-40.66c1.88-0.31,3.23,0.31,4.59,1.77
		C543.54,471.3,541.76,484.33,540.3,497.36z M688.86,434.61c9.28-1.42,16.78,2.19,24.29,6.36c-4.27,0.83-8.23,0.51-12.2-1.15
		c-13.16-5.49-19.55-3.53-41.59-0.73C672.52,433.33,673.56,436.94,688.86,434.61z M609.32,447.22c-0.52-4.69,0.52-9.28-1.46-13.45
		c9.9-7.82,40.86-7.19,56.4-0.73C621.51,445.04,631.33,446.88,609.32,447.22z M746.82,468.9c-0.54,2.92-2.7,4.9-3.13,7.71
		c-1.62,10.54-7.61,18.77-15.22,25.33c-8.96,7.72-20.53,9.33-31.9,10.42c-5.73,0.55-8.13-0.63-10.42-2.81
		c5-1.36,10.74-0.83,14.28-6.15c-5.42-1.46-10.53,0.94-15.85,1.25c-5.42,0.32-10.95-0.1-16.89,2.08c0.63-4.8,2.4-8.86,1.88-13.14
		c-1.62-13.1-6.63-13.43-4.27-8.13c5.22,14.45-5.24,30.66-7.51,36.59c-2.11,5.53-4.17,33.59,2.4,54.83c2.61-2.29,4.68-0.7,6.67,0.1
		c8.27,3.36,3.26,0.02,19.91,3.13c3.76,0.7,8.24-0.73,10.74,3.75c5.42,0.73,10.32,3.75,16.05,3.75c3.23,4.17,7.82,6.46,13.76,8.13
		c-7.51,0.52-8.66,0.11-13.66-3.02c-14.2-8.9-15.61-6.14-25.12-6.88c-4.65-0.36-5.3,4.06,7.92,3.13c8.63-0.61,10.67,4.23,17.83,6.88
		c1.36,0.16,1.34,1.39,1.17,1.55c-0.08,0.32-7.97-0.33-13.58-3.74c-8.39-5.1-12.09,3.95-36.8,0.31c-5.73-0.84-11.77-0.95-15.22-7.19
		c-5.71-10.33-12.29-20.13-17.93-30.54c-20.76-38.32-22.51-83.91-16.68-100.81c0.6-0.89,9.23-1.99,14.7-4.17
		c29.11-11.61,23.67-6.46,31.9-7.92c16.37-2.9,31.37-6.52,39.93,1.56c2.09,1.97,4.69,2.66,7.61,2.5c5.21-0.29,10.32,0.64,15.53,0.21
		C730.32,447.19,750.39,449.51,746.82,468.9z M851.27,550.22c0.94,0.21,1.25,0.83,1.67,2.08
		C851.8,551.89,850.75,551.89,851.27,550.22z M846.06,524.57c-2.5,0.42-2.71-1.36-3.34-2.61
		C843.98,522.59,845.23,523.22,846.06,524.57z M837.62,478.91c-9.03,5.64-5.44-4.94-11.57-6.88
		C827.07,471.01,825.01,470.16,837.62,478.91z M829.7,486.52c0,1.25,0.95,0.94-6.25,0.94C825.53,486,827.61,485.69,829.7,486.52z
		 M831.57,516.34c-1.67,0.73-2.71,0.73-4.07-0.42C829.07,515.29,830.22,514.98,831.57,516.34z M821.25,526.45
		c0.24,0.49-0.69,1.69-1.46-0.1C820.52,525.82,821.04,525.82,821.25,526.45z M816.14,496.32c0.63,1.67,0.83,2.61,0.52,3.54
		c-3.02,1.56-4.69-0.52-6.67-2.29C811.87,495.38,814.16,498.2,816.14,496.32z M814.58,514.04c-0.46,0.23-1.12,0.02-0.73-1.15
		C814.59,513.14,815.13,513.5,814.58,514.04z M808.64,519.99c-0.63,0.21-1.04-0.21-1.15-0.83c0.1-0.21,0.21-0.42,0.31-0.73
		C810.32,519.14,811.51,518.84,808.64,519.99z M808.95,522.38c-1.04,0.42-1.46,1.15-2.5,0.94
		C806.76,522.28,807.49,522.07,808.95,522.38z M812.39,530.93c1.24,0-0.97,2.02-2.29,1.25
		C810.83,531.35,811.45,530.83,812.39,530.93z M804.57,485.06c1.46-1.15,2.81-0.94,4.17-0.63
		C807.6,485.38,806.45,485.9,804.57,485.06z M808.32,480.16c-1.36,0.94-2.71,1.56-4.69,0.94
		C805.09,479.64,806.66,479.75,808.32,480.16z M801.97,512.58c-0.73-0.63-1.25-1.04-1.77-1.46
		C801.24,510.81,801.76,511.12,801.97,512.58z M798.42,508.83c1.25,0.3,2.08,0.83,1.77,2.19c-4.8-1.36-8.86-0.31-12.2,3.65
		c2.19,0.83,2.19,0.83,5.11-0.94c4.32,5.18,0.48-1.11-4.07,6.46c-1.88-0.83-3.44-1.56-4.69-2.92
		C785.29,515.8,789.28,506.63,798.42,508.83z M798.84,513c-1.04,0.52-2.19,0.94-3.65,0.31C796.44,512.48,797.59,512.17,798.84,513z
		 M771.63,483.5c2.61-0.73,1.88,1.15,1.77,2.81C772.26,485.27,771.42,484.65,771.63,483.5z M769.34,484.23
		c-1.67,1.25-2.5,3.44-5.42,1.77C765.69,484.54,767.25,484.12,769.34,484.23z M767.88,499.45c-1.25-0.73-1.25-1.77-0.94-3.23
		C767.88,497.36,768.61,498.2,767.88,499.45z M817.19,558.04c0.31-7.4-4.27-14.28-9.17-13.76c3.13,3.54,5.73,7.3,5.53,12.2
		c-8.13-0.21-12.61,7.09-19.49,10.01c-0.83-2.71-1.04-5.21-1.15-7.61c1.04-0.73,2.4,0.52,3.23-0.73c-1.25-2.19-2.7-1.45-4.17-0.73
		c-2.39,1.17-2.19,3.34-1.77,5.32c-1.98,0.83-3.75,1.46-5.53,2.19c-1.98-2.19-1.15-6.57-5.11-7.19c-1.36,1.98,1.25,2.92,0.31,4.27
		c-2.62,2.84-2.7-3.03-9.28-0.52c-11.67,4.46-11-7.65-11.05-14.49c-0.09-12.37-9.19-10.68-14.59-13.55
		c-5.81-3.09-12.2-3.13-18.35-3.65c-6.15-0.52-11.99,2.19-17.83,4.38c0.94-8.86,7.09-15.01,13.55-13.86
		c29.38-23.03,14.23-13.75,32.11-37.22c0.85-1.28,3.02,0.25,3.96,1.46c0.42,1.25-0.21,2.81,0.52,3.96c1.15,0.63,1.88-1.88,3.13,0.1
		c-1.36,2.08-3.23,3.44-6.15,3.54c1.67,1.46,3.75,1.25,5,2.92c-1.46,3.86,1.88,5.63,3.96,7.92c8.89-2.7,12.98,8.19,21.68,5.63
		c-3.54,5.94-8.57,10.52-10.95,16.78c-0.32,0.83-1.56,1.67-2.29,1.77c-4.07,0.21-5.42,3.34-7.09,6.05c0.36,0-0.99,0.18-1.67,1.88
		c1.46,0.21,1.77-0.73,2.19-1.46c4.48-4.27,11.68-4.07,16.16-9.38c-4.34-0.93-4.5,0.25,0.31-5c2.08,1.98,5.21,1.46,6.36,4.07
		c1.98-1.15,1.98-3.23,3.54-4.48c3.34-0.31,7.09,0.21,10.53-2.19c0,2.29-2.5,3.34-1.88,5.32c2.33,0.58,2.22-2.88,4.59-1.77
		c-5.73,4.9-12.51,7.92-18.14,12.3c1.56,2.71,3.75,1.77,5.32,1.46c9.62-1.92,9.76,4.92,17.31,2.29c2.92,3.34,6.46,3.23,9.9,2.71
		c3.65,0.73,3.23,6.05,7.61,5.32c0.52,2.29,0.83,4.38,1.36,6.67C825.42,553.24,821.88,556.37,817.19,558.04z M806.14,531.56
		c-0.73,0.31-1.36,0.1-2.29-0.31C804.78,530.83,805.61,530.41,806.14,531.56z M797.8,530.31c-0.52,0.63-1.04,0.73-1.88,0.1
		C796.54,530.51,796.86,528.64,797.8,530.31z M826.99,517.8c2.19,1.36,5,0,6.25,3.23C829.07,521.13,829.07,521.13,826.99,517.8z
		 M833.34,506.23c1.46,1.56,2.4,2.4,2.81,4.17C834.28,509.56,832.72,509.25,833.34,506.23z M835.22,524.89
		c-1.04,0-1.25-0.42-0.83-1.36C834.91,523.84,835.43,524.16,835.22,524.89z M833.76,549.49c0.42,1.36,0.83,2.29,1.25,3.02
		C834.07,551.89,833.03,551.36,833.76,549.49z M839.49,551.68c2.9,0,0.2-1.11,9.07,5.84C844.71,557.2,842.21,555.12,839.49,551.68z
		 M834.7,531.45c3.13,0.21,2.5,2.29,1.98,3.96c3.75,4.59,8.03,8.13,13.24,10.63C842.73,545.11,836.05,538.54,834.7,531.45z
		 M846.38,531.45c1.04,0.42,1.67,0.63,1.15,1.88C847.1,532.7,846.38,532.7,846.38,531.45z M846.69,511.54c2.92,1.36,4.27,2.81,4.8,5
		C849.61,515.61,848.36,513.94,846.69,511.54z M853.57,526.03c-0.94-0.73-1.46-1.67-1.88-2.71c0.83-0.21,1.24-0.1,1.36,0.31
		C853.24,524.37,854.09,524.99,853.57,526.03z M853.67,502.16c-1.56-1.56-2.4,0.31-3.65,0.63c-1.15-0.63-2.19-1.25-3.34-1.77
		c2.29,0.42,3.86-1.67,6.05-2.4C852.94,499.76,854.09,500.49,853.67,502.16z"/>
	<path d="M115.81,309.82c0.42-0.94,1.04-1.36,2.19-1.36c-0.4,1.27-1.16,1.44-2.02,1.37c-4.2,6.88,20.71,0.35,16.62-12.42
		c-0.56-1.76-1.25-3.44-3.44-2.19c-1.25-2.92-2.4-5.53-3.65-8.55c-3.54-0.73-7.3-1.56-10.95-2.29c-2.61-2.5-3.02-6.15-5.21-8.24
		c-1.21-3.78,4.25-3.64,1.56-16.16c-1.59-7.42,2.88-3.99,0.21-8.44c3.23-5.53,6.36-10.84,9.8-16.58c-3.65-0.83-3.75,2.4-5.53,3.34
		c-1.25,0-2.61-0.1-4.8,0.94c2.81-3.34,6.05-4.9,6.78-7.92c12.98-8.39,29.11-5.76,35.03-8.86c5.84-3.06,3.98,3.22,28.56,0.1
		c57.33-7.27,51.4-14.15,80.69-4.69c11.39,3.68,21.89,0.83,32.73-4.07c7.71,2.61,16.05,4.59,23.87,0.42
		c2.92,1.25,2.92,4.27,5.63,5.53c1.56-4.9,5.64-6.65,9.7-8.65c4.83-2.39,7.8,2.93,16.47-1.88c15.51-8.59,14.07,1.9,31.8-4.07
		c18.9-6.36,19.47-4.96,19.81-7.51c14.4-1.2,30.43-1.88,39.82-8.03c10.74-7.03,13.49-0.23,21.47-6.36
		c14.53-11.16,10.81-20.71,19.49-21.89c0.83-0.11,1.56-0.73,1.98-1.36c1.15-1.25-0.63-2.61,0.21-3.75
		c1.28-0.64,5.15,2.54,10.74-0.73c2.3-1.35,5.33-0.3,7.3-2.19c5.15-4.96,12.32-4.54,18.14-7.4c3.93-1.93,11.59,0.81,17.1-0.42
		c0,1.77-2.19,1.77-2.08,3.54c1.67,0.52,2.4-1.14,3.44-1.67c21.44-10.95,18.68-14.09,32.21-18.24c11.71-3.6,9.09,4.61,24.08,1.67
		c0.94,2.92-0.23,5.94,0,8.86c0.57,7.3,2.57,14.39,3.75,21.68c2.36,14.57-0.56,17.11,5.11,24.5c7.06,9.2,1.83,15.45,4.48,27.94
		c0.55,2.58-2.29,4.68,0.83,19.39c7.96,37.42,1.09,22.56,19.08,63.8c3.64,8.35,2.6,12.79,8.03,20.22
		c8.6,11.77,7.95,17.27,16.89,16.89c11.51-0.49,27.11,3.84,38.36-3.23c8.1,2.86,12.05,9.52,18.76,5.42
		c5.32-3.25,10.06-0.03,14.39-3.44c0.51-1.44-1.51-2.17-0.85-3.6c4.15,2.41,6.28,4.04,8.88,0.89c-5.11-0.52-8.76-3.53-13.24-4.48
		c-15.06-3.2-7.96-8.58-18.66-6.67c-9.68,1.72-14.6,0.58-36.59-3.86c-9.11-1.84-1.5,3.22-9.9-4.07c1.56-8.24,0.63-16.58-0.94-24.92
		c1.46-0.42,2.61-1.47,4.17-0.94c7,2.37,14.49,2.93,21.58,5.53c21.48,7.85,22.05,2.36,27.1,6.15c-6.36,0-12.4,0.05-18.56,0
		c-5.47-0.05-4.03-3.06-6.78-3.13c-7.58-0.18-13.79-7.16-21.37-4.38c-0.28,3.38,2.6-1.55,11.05,3.75c3.14,1.97,6.57,2.71,10.22,3.02
		c-0.1,2.08-0.94,3.2-2.92,3.02c-13.51-1.21-5.81-4.67-22-2.61c1.85,3.7,3.58-0.17,14.28,3.54c11.16,3.87,8.86-0.29,15.74-0.42
		c8.34-0.16,16.68-0.21,25.33,1.56c-0.1-3.75,3.44-3.86,5.21-6.05c-13.25-10.19-52.61-7.28-64.32-13.14
		c-4.68-35.08,5.54-66.68-4.07-77.56c-3.21,2.14,4.15,7.8,1.25,20.02c-0.99,4.16,2.04,10.92-1.15,13.76
		c-0.44,0.39-2.33,33.1,3.96,67.45c0.59,3.24,0,6.36,0.63,9.59c1.04,0.73,2.19-0.73,3.75,0.52c0.31,0.21-0.83,1.36,0.21,2.08
		c1.36,0.21,2.19-1.57,4.07-1.15c5.11,1.14,10.53,1.34,15.74,2.4c27.2,5.51,29.69-2.35,32.32,5.53c-2.4-0.21-4.38-1.88-6.88-1.56
		c5.11,5.11,12.72,4.8,18.66,8.24c-17.01,4.93-16.61-10.12-30.86-8.86c-3.54,0.31-7.19,0.94-10.74-0.73
		c3.04,3.75,2.75,2.61,6.15,2.61c6.67-0.63,12.89-0.16,17.51,5.63c1.48,1.86,4.07,2.71,6.36,4.17c-7.8,4.07-13.84-9.55-22.83-3.96
		c-6.88,4.28-15.57,0.3-33.98,0.94c-2.81,0.1-4.82-0.92-6.05-3.34c-4.16-8.19-9.35-15.65-12.41-24.5
		c-8.85-25.6-12.25-25.32-14.18-34.71c-9.23-44.92-8.94-34.05-8.76-59c0.12-15.55-1.41-12.83-0.31-18.56
		c0.6-3.13,0.63-6.36-1.25-9.38c-1.98,1.04-0.42,2.81-1.36,4.07c-7.42-9.33-3.67-15.62-7.19-28.36c-2.8-10.12-1.88-20.43-1.67-30.86
		c0.1-4.9,1.88-8.86,3.44-13.14c2.91-7.96,1.39-9.23-1.67-26.58c-0.22-1.25-0.21-2.92-2.61-3.75c-0.63,5,1.15,9.49,1.77,14.7
		c-9.9,0.31-19.7,1.56-29.4-2.92c0.83-7.3,3.05-13.85,7.92-20.12c9.99-12.86,52.93-43.1,60.36-19.18c0.42,1.35,0.31,2.92,1.56,3.96
		c1.46-2.4,1.46-2.4-0.42-8.13c9.59,2.19,17.93,16.16,17.62,29.5c-1.04-0.1-0.31-1.67-1.67-1.77c-4.15,0.32,4.36,16.4-4.69,30.23
		c-17.23,26.35-2.53,15.46-17.62-0.1c-3.8-3.92-6.47-12.59-8.76-14.39c-1.46,1.78,1.23,12.89,8.86,18.56
		c5.53,4.11,4.65,8.44,5.63,28.46c0.2,4.17-5.35,7.25-3.23,13.03c1.67,1.04,1.77-1.36,3.44-0.94c1.15,6.67,2.89,13.57,1.04,20.64
		c-1.27,4.84,4.78,7.05,4.27,28.25c-0.07,2.8,2.63,2.28,3.23-5.21c1.02-12.66-5.57-16.14-4.27-25.12
		c1.24-8.55-0.73-16.89-3.96-25.23c2.92-5.53,1.56-11.78,1.56-17.83c9.45-11.55,16.99-18.18,17.62-29.71
		c0.14-2.5,1.88-4.17,2.61-6.05c8.76-2.08,17.51-1.36,26.37-1.46c1.67,3.75,2.69,7.62,3.86,11.47c2.05,6.79,9.17,9.27,15.01,5.11
		c2.5-1.78,4.8-3.65,7.3-1.04c1.67-0.21,2.19-1.25,3.13-1.88c1.04,0.52,2.19,1.04,3.23,1.56c2.4-0.52,3.44-3.23,6.05-3.44
		c3.59,0.24,0.94,9.46,16.05-11.78c8.76,0.1,13.03-6.78,17.83-12.51c9.37,0.72,13.96,6.71,22.93-0.42
		c-1.15-2.08,0.52-3.75,1.56-5.42c0-2.71-3.02-5-0.63-7.71c-3.13-3.34-8.24-3.13-10.42-7.09c-0.5-0.37-1.56-0.83-1.25-0.83
		c0.52,0.31,0.94,0.52,1.25,0.83c1.98-0.21,3.44,2.19,5.84,0.94c-0.83-2.61-3.65-3.02-5.21-5.11c1.98-0.31,3.13,1.56,5.21,1.46
		c1.36-0.21,1.25-1.88,2.08-2.61c-1.15-3.65-4.48-2.81-7.51-4.27c5.94-0.66,4.38-4.29,1.46-9.49c-0.1-1.56,1.46-2.08,1.25-3.23
		c-0.94-2.4-3.23-1.67-5.11-2.5c2.92-3.57-1.66-10.97-4.59-13.03c-4.7-3.32-7.3-8.76-12.2-11.78c0.52-1.98,3.44-1.46,3.23-3.96
		c-2.29-2.5-4.69,1.04-7.09,0c-1.36-1.77,1.36-3.44,0-5.53c-2.4,1.46-4.8,4.38-8.03,1.36c-1.56,2.19-3.54,2.59-5.84,1.77
		c-3.85-1.38-7.61,0.7-11.47,0.73c-7.82,0.05-14.6,3.75-21.58,6.67c-4.48,1.88-6.25,6.05-8.76,9.59
		c-7.03,9.94-18.94,12.27-20.43,16.47c-1.35,3.8-5.38,3.12-10.95,6.05c-3.13-0.94-5.73-2.5-7.82-4.48
		c-0.18-11.97-6.3-5.93-12.93-8.34c-10.07-3.65-20.86-4.24-30.96-7.82c-4.78-1.69-19.34,1.36-25.33,4.07
		c-6.17,2.78-13.03,3.23-19.6,4.9c-22.25,5.65-37.88,16.03-49.2,18.45c-6.78,1.45-12.19,5.95-18.14,9.07
		c-2.4,1.26-3.13,4.17-5.32,6.25c-8.93-3.97-9.18,4.62-13.45,5.53c-3.64,0.77-7.3,2.08-10.84,1.67c-3.54-0.42-6.98,0.83-10.63,0.1
		c-2.08-0.42-4.07,1.88-5.94,2.61c-9.49-2.4-18.66-5.23-28.25-4.59c-27.97,1.87-51.16,20.27-57.86,38.99
		c-1.58,4.42-14.65,13.7-22.31,17.2c-17.87,8.16-22.21,15.35-37.22,20.02c-2.2,0.69-4.38,1.36-5.32,4.27
		c2.08,3.65,1.74,7.92,1.46,11.99c-0.51,7.4-8.77,6.7-15.01,13.45c5.84,2.19,10.74,0.1,15.64-3.34
		c2.71,13.24,4.27,26.58,11.57,38.15c-7.71,4.07-15.22,3.02-22.93-0.83c0.28-6.52-12.1-2.19-13.55-6.78
		c-0.62-1.24-7.79-3.43-13.55-2.08c2.99,4.08,4.27-1.17,10.22,2.71c4.29,2.8,8.44,5.84,13.55,7.51c-10.63,4.8-21.18,7.22-32.21,1.36
		c-16.45-8.75-70.75,8.4-98.41,5.94c-17.63-1.57-22.78,0.84-26.9,2.19c-6.38,2.08-16.85,4.3-21.16,10.53
		c-11.05-3.86-16.37-13.03-21.89-22.52c2.81-4.48,8.76-2.81,11.99-6.57c-3.02-0.83-5.73,0.52-8.55,0.63
		c-0.52-3.54,1.04-4.79,4.38-5.42c57.81-10.85,52.8-12.54,66.41-13.66c16.5-1.35,37.66-19.47,63.59-16.68
		c11.79,1.27,8.98-3.96,34.19,0.52c-0.42,0.83-1.88,0.52-1.88,1.88c9.44,3.07,11.49-2.53,21.27-5.32
		c22.45-6.41,22.41-4.98,22.41-8.55c-6.88,0.21-23.48,4.48-37.53,11.99c-2.53-4.87-23.82-5.54-32.42-3.34
		c-5.61,1.44-13.49-4.92-41.49,5.32c-17.71,6.47-15.82,9.65-35.44,11.36c-11.17,0.97-7.02,1.93-20.64,4.59
		c-62.82,12.27-35.34,8.6-57.02,9.9c-16.16,0.97-18.73,7.74-25.96,6.57c-19.62-3.18-9.8,11.56-13.03,16.89
		c-3.87,6.4,1.26,8.93,2.5,19.81c1.17,10.27,9.91,10.05,13.76,22.93c3.89,13.02-4.58,13.6,17.83,39.51
		C92.32,321.26,115.91,309.86,115.81,309.82z M712.42,295.12c-5.42-2.81-11.68-1.15-17.72-3.86
		C701.26,290.43,709.5,292.1,712.42,295.12z M724.82,328.69c-0.83-0.21-1.88,0.21-3.02-0.94
		C723.15,328.17,723.88,328.48,724.82,328.69z M602.54,100.91c-0.52,6.05-3.44,10.95-4.69,16.78c-9.12-3.04-21.37-3.63-25.12-18.66
		C582.21,102.58,592.01,102.89,602.54,100.91z M769.75,76.52c0.43-1.29-0.91-1.74,10.01,2.81C775.28,79.96,772.36,78.6,769.75,76.52
		z M780.28,71.41c0.62,0.41,0.69,1.1-1.15,0.73C779.45,71.31,779.87,71.2,780.28,71.41z M774.76,58.69
		c-2.71-0.83-2.25-1.59-2.71-1.67c0.07-0.07,0.09-0.1,0.09-0.13c0.01,0.01,0.01,0.02,0.02,0.03
		C772.28,57.25,773.73,57.14,774.76,58.69z M773.4,47.33c-0.73-0.1-1.25-0.42-1.46-1.46C773.19,45.97,773.82,46.18,773.4,47.33z
		 M772.12,56.87c-0.16-0.12-1.95,0.51-2.68-1.52C770.77,55.36,771.5,55.96,772.12,56.87z M769.54,40.03
		c-2.08-0.63-3.96-1.67-6.25-3.86C766.52,36.8,768.29,37.95,769.54,40.03z M767.56,48.58c-2.29,1.77-3.44,0.1-4.8-1.25
		C764.44,47.43,765.9,48.58,767.56,48.58z M765.58,22.93c0.63,1.04,1.67,1.36,1.67,2.5c-2.08,0.42-3.75,3.75-6.57,0.73
		C762.87,26.06,763.81,24.08,765.58,22.93z M761.21,59.73c-0.47,4.34,11.98,7.42,15.22,8.44c-6.98-0.83-14.28-1.67-18.14-9.28
		C759.64,58.38,761.31,58.8,761.21,59.73z M755.89,51.39c0.63,0.1,0.94,0.42,1.15,0.94C756.1,52.64,755.78,52.33,755.89,51.39z
		 M747.55,48.16c2.4,0.73,4.9-1.88,6.25,1.46C751.51,50.66,749.63,51.19,747.55,48.16z M752.45,53.06c0,0.57-1.62,0.62-1.25-0.31
		C751.61,51.92,752.45,52.21,752.45,53.06z M751.82,11.47c-0.83,0.31-1.04-0.1-1.15-0.94C751.09,10.84,751.41,11.15,751.82,11.47z
		 M753.07,38.57c-1.46,0.1-2.71,0-3.23-1.77C751.82,36.9,751.82,36.9,753.07,38.57z M750.78,45.97c-1.15-0.1-2.29,1.46-3.86,0.21
		C748.38,45.87,749.22,44.1,750.78,45.97z M745.78,9.07c-7.06,7.61-6.19-2.77-12.72-3.23C733.49,4.53,732,4.7,745.78,9.07z
		 M744.42,58.8c-0.63,0.31-0.94,0-1.15-0.63C744.45,56.99,745.03,58.8,744.42,58.8z M735.04,20.75c3.96-2.4,3.96-2.4,6.15-1.46
		C739.21,20.22,737.12,20.64,735.04,20.75z M738.27,64.74c-0.31,1.04-1.04,1.77-2.71,2.4C736.5,65.68,736.6,64.42,738.27,64.74z
		 M731.18,31.8c0.82,1.23,0.66,0.59,1.67,2.61c-2.5,2.71-4.69,1.04-7.3,0.21C727.12,32.21,729.83,33.46,731.18,31.8z M730.97,56.29
		c-1.36-0.94-2.08-1.67-2.5-2.92C730.78,56.26,735.11,52.16,730.97,56.29z M732.02,66.93c-0.52,0.83-1.15,1.15-2.08,0.63
		C730.45,66.72,731.08,66.41,732.02,66.93z M727.32,58.07c-0.1-0.73,0.1-1.36,1.04-1.56C728.58,57.44,728.37,57.96,727.32,58.07z
		 M722.32,53.58c-0.52,1.36-1.46,1.46-2.08,1.77C720.44,54.42,721.07,53.9,722.32,53.58z M716.9,24.71
		c0.94-1.77,2.19-2.19,4.48-2.61C720.03,23.98,718.67,24.29,716.9,24.71z M720.13,18.24c-1.77,1.67-3.13,2.4-4.9,2.5
		C716.48,19.6,717.63,18.45,720.13,18.24z M717.63,48.58c1.25-0.42,2.5-0.42,3.02,1.04c-4.59,0.94-8.76,2.29-10.32,7.61
		c2.71,0.94,2.81-1.56,4.27-2.71c2.67,1.84,5.44,0.75,5.63,0.94c-3.98,0.66-7.09,2.3-7.09,6.05c-1.96-0.1-3.61-0.11-5.06-1.02
		c0-0.08-0.01-0.11-0.04-0.11C708.69,51.39,711.81,50.54,717.63,48.58z M720.03,52.02c0,0.29-1.38,1.77-3.44,1.25
		C717.63,52.12,718.67,51.39,720.03,52.02z M692.92,37.22c-0.42-0.21-0.73-0.42-0.73-1.04C693.24,36.07,693.24,36.49,692.92,37.22z
		 M687.71,31.9c0.31,0.94,0.83,1.67,0.42,3.13c-1.04-1.25-2.19-1.88-3.65-1.56C685.63,33.15,686.25,31.48,687.71,31.9z
		 M687.61,48.89c-1.56-0.83-2.08-1.67-2.08-3.23C686.56,46.49,687.29,47.22,687.61,48.89z M684.37,33.46
		c-0.63,2.19-1.88,3.65-5.11,4.17C680.93,35.03,682.71,34.3,684.37,33.46z M666.13,43.99c4.17-1.05,8.86-0.73,12.09-5.42
		c0.42,4.07-1.88,5.21-4.48,6.36c1.98,1.15,3.86,0.1,5.53,1.25c0.1,3.65,3.23,4.9,6.15,6.46c6.25-5.32,14,3.55,22-1.25
		c-0.94,2.55-4.73,12.77-5.21,16.99c-0.72,6.28-5.84,3.73-7.09,13.97c2.08-6.67,9.9-8.55,12.61-14.28c-0.94-1.77-2.4,0.21-3.13-1.25
		c1.89-2.77,2.8-4.45,3.2-5.41c0.07,0.57,0.41,1.28,1.38,1.86c1.67-0.63,3.65,0.1,5.42,0.94c1.25-1.77,0.83-3.75,1.98-5.11
		c3.02-1.67,7.19-1.46,8.65-5.73c1.67,2.61-2.5,5.32,1.04,7.19c-21.85,26.22-3.1,6.04,7.71,12.2c11.73-8.38,4.21-3.16,5.73-1.36
		c2.81-0.1,5.73,0.1,8.13-1.77c3.65-0.31,4.9,4.69,8.65,3.23c1.15,1.98,2.08,3.65,3.13,5.53c-3.54,3.13-5.63,7.4-9.59,10.11
		c-1.98-6.88-7.71-11.68-12.51-10.11c3.54,2.71,7.61,4.9,8.44,9.8c-7.51,2.5-9.59,10.53-15.01,15.22c-1.25-2.5-2.29-4.59-3.23-6.57
		c0.42-1.67,2.4-0.21,2.71-1.98c-1.82-2.28-7.43,1.38-4.07,5.94c-1.67,1.36-3.13,2.5-4.59,3.75c-2.4-1.67-2.92-5.63-6.57-5.32
		c-1.15,2.08,2.12,2.63,1.15,4.27c-1.68,2.84-3.25-2.58-9.07,2.4c-4.27,3.65-9.71,1.98-11.57-3.34c-2.44-6.98-3.22-11.19-6.57-13.86
		c-8.44,0.73-16.78-0.83-25.54,1.25c8.55-20.22-1.56-35.03-12.61-49.41C656.55,35.02,656.82,46.34,666.13,43.99z M724.2,68.28
		c-0.52,1.04-1.25,1.36-2.4,1.36C722.32,68.49,722.74,67.45,724.2,68.28z M478.07,73.7c3.54,15.95,9.7,31.48,9.49,48.27
		c2.4-16.89-4.17-32.53-7.4-48.37c5.21-3.79,2.48,2.39,5.11,6.78c0.94-2.08,0.25-3.75,0.31-5.32c0.24-5.52,4.05-8.8,9.38-7.61
		c6.69,1.49,0.86-5.61,20.54-12.82c10-3.66,32.2-15,56.81-20.75c-1.04,1.67-3.34,1.15-3.75,3.02c1.68,2.25,21.04-8.07,26.06-9.17
		c31.8-6.99,32.74,4.38,56.92,4.38c3.26,0,3.35,0.62,1.04,2.81c-5.19,4.93-5.1,6.35-0.52,11.68c21.55,25.08,9.56,42.85,7.4,47.64
		c-0.73-2.61-0.82-4.36,0.31-5.73c3.54-4.31,5.88-37.06-31.17-45.66c-10.55-2.45-55.15,22.91-57.75,40.66
		c-0.52,3.54-0.94,7.09-1.46,10.32c-1.25,0.94-2.81-0.1-3.44,1.77c4.99,1.83,6.05,14.63,15.12,19.49
		c5.02,2.69,10.01,5.94,16.47,4.69c0.21,2.29-0.21,4.17-1.15,6.05c-10.47,1.75-16.55-2.36-20.95-1.36
		c-22.48,5.15-22.34,15.5-38.78,16.37c-6.46,0.34-13.03-1.98-20.33,1.46c2.5-16.89,6.78-31.9,16.37-44.93
		c-12.2,12.51-15.01,28.67-17.72,45.56c-6.78,0.94-11.57,7.09-18.97,6.98c-6.34,5.48-15.12-0.47-12.82-1.98
		c4.13-2.72,0.97-4.56-11.78-72.35C474.21,76.2,475.15,72.66,478.07,73.7z M481.41,141.46c-0.63-2.61-1.25-5.21-1.88-7.71
		C480.88,136.04,481.93,138.54,481.41,141.46z M465.04,75.27c7.19-3.08,2.96,0.95,11.26,38.57
		C468.79,103.1,464.31,87.36,465.04,75.27z M307.94,150.53c1.25-0.94,2.92-1.05,4.38-1.56c11.74-4.1,9.25-6.26,19.6-11.57
		c15.08-7.74,34.46-15.59,44.41-34.09c19.9-36.99,77.14-33.17,75.58-22.62c-0.29,1.98,0.63,4.17,1.15,6.98
		c2.29-2.19,5.73,0.1,7.19-3.23c-0.1-0.73-0.94-0.52-1.36-0.94c0.31-1.25,2.19-1.25,2.08-2.92c-1.88-0.63-3.13,1.67-5.32,1.04
		c8.06-4.93,3.75-3.01,4.17-4.48c0.63-0.31,1.15-0.94,1.77-0.63c3.02,8.13,1.65,16.79,4.69,25.23c3.26,9.05,3.24,9.83,15.95,54.63
		c-3.13,1.36-6.78,1.36-8.65,4.59c0.94,4.69-9.38,17.2-15.95,18.97c-0.21-10.42,3.65-18.45,12.72-23.77
		c3.23,1.15,6.46,1.04,9.49-1.25c-1.15-3.23-3.65-0.42-5.21-1.56c0.31-1.46,2.38-1.87,1.88-4.07c-0.22-0.94-1.25-1.56-2.71-1.67
		c-2.39,12.34-16.12,1.22-19.49,32.73c-11.33,1.05-16.01,8.64-22.52,9.49c-25.81,3.36-33.57,3.42-43.05,9.28
		c-6.05,3.74-12.41,3.65-18.97,3.23c-0.94-0.73,0.63-2.08-1.56-2.92c-17.32,1.26-17.49,11.48-29.09,7.82
		c-11.3-3.57-12.55,6.23-15.85,5.63C313.73,199.86,312.9,193.3,307.94,150.53z M83.49,211.73c2.19-2.71,3.28-6.06,1.98-9.7
		c-1.38-3.85,2.78-4.69,6.88-3.44c-4,8.79-5.29,9.67-3.34,12.82c4.9,7.92,9.03,16.35,17.72,21.16c0.74,0.41,1.56,0.73,1.98,1.77
		c-3.28,5.4-7.11,2.57-13.55,0.21C87.04,231.58,78.05,218.46,83.49,211.73z M52.43,247.9c-8.65-6.22-2.31-10.83-7.82-20.33
		c-4.04-6.97,3.82-9.02,0.31-17.31c-1.36-3.21,0.39-5.6,4.9-4.8c12.03,2.15,19.13-7.45,31.9-6.15c-0.21,2.81-0.83,5.53,0.1,7.92
		c-5.63,8.55-5.54,12.2,0,20.54c3.48,5.24,19.25,15.75,30.75,13.34c1.34,0-0.07,2.55-0.83,3.65c-7.19-3.44-14.91-3-22.2-4.8
		c-1.25-0.31-2.19,0.52-2.29,2.08c1.15,2.5,4.17,1.98,6.36,3.44c-4.07,0.42-8.24-2.61-11.78,0.73c0.42,2.71,2.5,2.71,3.02,3.02
		c2.19,5.73,2.71,11.36,9.17,13.66c-3.65,3.34,0.21,4.8,1.36,6.88c-0.63,1.04-2.08,1.46-1.46,3.34c4.01,4.56,12.49-0.09,13.97,7.92
		c-2.61-1.15-5.11-2.19-8.44-3.65c0,3.65,2.19,4.61,4.48,5c13.63,2.34,6.08,3.33,19.39,6.15c6.78,11.75,2.3,7.81-10.84,16.99
		c-9.58,6.7-25.98,3.7-29.92-1.46c-5.39-7.06-20.02-21.88-20.54-29.5C61.39,265.32,60.81,253.93,52.43,247.9z M107.99,260.62
		c0.52,4.07-1.25,7.61-2.19,11.47c-1.04-0.31-8.34-5.42-9.9-6.98C100.48,262.7,106.1,268.82,107.99,260.62z M96.94,252.07
		c7.92,1.04,8.97,1.46,10.22,3.96C103.72,254.57,100.17,254.26,96.94,252.07z M100.48,246.49c2.63,0.19,6.28,0.68,7.93,1.83
		C105.63,248.32,103.05,247.81,100.48,246.49z M99.78,246.44C96.16,246.43,97.27,246.29,99.78,246.44L99.78,246.44z"/>
	<path d="M640.28,278.44c0.84-8.13-1.05-16.05-1.56-24.08c-0.21-3.34-2.08-6.46-3.23-9.49c-1.36,1.98-1.25,3.86-0.63,5.63
		c6.34,17.87,0.1,32.04,5.32,44.41c2.6,6.18,3.77,13.95,5.84,15.12c2.29-0.42,1.88-2.19,1.67-3.65
		C645,287.79,639.13,289.51,640.28,278.44z"/>
	<path d="M632.36,196.51c-2.08,2.81-1.98,2.81,4.9,9.38c-0.21,2.92,0.98,5.84,0.83,9.07c-0.24,5.2,6.43,10.49,6.36,16.47
		c-0.01,0.63,0.31,1.46,1.77,1.56c0.49-10.04-5.42-14.37-6.36-25.12c2.92,0.21,4.48,1.67,6.46,2.71
		C642.36,205.16,636.84,201.51,632.36,196.51z"/>
	<path d="M541.66,533.85c7.77-4.19,2.93-30.62,8.03-56.09C541.18,495.07,546.7,518.73,541.66,533.85z"/>
	<path d="M572.93,481.73c21.19-14.63,30.04-13.82,35.76-17.41c-0.42-0.52-0.73-1.04-0.83-1.77c-18.03,4.27-32.63,14.28-45.97,26.58
		C566.16,487.57,569.29,484.24,572.93,481.73z"/>
	<path d="M626.93,277.4c1.04,0.31,1.36-0.21,1.36-0.52c-4.05-32.84-5.13-15.93-4.9-35.76c0.03-2.19,0.31-4.59-1.88-6.25
		c-0.21,6.67-2.59,13.54,0.31,19.91C625.12,262.01,625.33,268.87,626.93,277.4z"/>
	<path d="M636.32,158.04c-13.34-11.36-14.69-24.29-16.99-25.44c-3.27,2.18,2.43,13.13,7.09,17.2c3.84,3.36,6.46,7.71,8.24,12.51
		C637.78,161.37,638.4,159.81,636.32,158.04z"/>
	<path d="M623.91,205.16c1.67-0.83,1.57-2.3,0.63-3.23c-2.68-2.63-2.14-5.83-1.98-8.86c0.25-4.74-4.42-16.75-2.81,3.65
		c-1.98-0.63-2.71-2.4-4.07-3.75c-0.63,4.9-0.62,4.79,3.65,7.4C621.2,201.51,621.62,204.32,623.91,205.16z"/>
	<path d="M272.28,495.18c-12.93,0.63-24.81-2.5-37.01-3.13C239.86,495.7,268.22,498.2,272.28,495.18z"/>
	<path d="M191.7,199.32c10.32-1.25,20.15-2.9,29.92-5.21c2.09-0.49,4.17-0.94,5.53-3.96C205.05,197.86,193.54,194.43,191.7,199.32z"
		/>
	<path d="M610.88,53.06c-1.25,8.24-7.82,13.66-11.36,20.75C605.67,72.76,612.97,59.73,610.88,53.06z"/>
	<path d="M627.56,216.21c-6.05,5.53-3.34,15.64,5.11,17.93C627.98,228.51,626.62,222.67,627.56,216.21z"/>
	<path d="M600.98,499.24c-14.25,7.62-25.24,24-28.88,34.4C576.11,530.38,582.49,512.44,600.98,499.24z"/>
	<path d="M606.71,79.23c2.71,7.09,1.15,14.39,1.04,21.58C611.61,96.53,610.98,83.4,606.71,79.23z"/>
	<path d="M561.68,503.62c-2.29,9.59-5.53,18.87-8.13,28.46C558.55,523.22,560.74,513.63,561.68,503.62z"/>
	<path d="M148.33,467.34c8.13,1.15,15.85,3.23,23.87,1.04C162.16,470.97,151.04,462.61,148.33,467.34z"/>
	<path d="M104.97,200.78c5.73-2.08,12.51,0.1,17.62-4.48c-5.97,2.31-16.75,0.37-18.14,3.75
		C104.65,200.36,104.86,200.78,104.97,200.78z"/>
	<path d="M296.26,492.78c-5.63-1.25-10.84,1.15-16.26,1.25C285.52,494.86,290.95,494.86,296.26,492.78z"/>
	<path d="M248.83,181.6c-2.08-1.25-5.84,0.1-15.12,5.73C238.93,186.08,244.03,184.41,248.83,181.6z"/>
	<path d="M575.54,468.59c4.17-2.19,7.71-5.42,10.32-9.49C581.59,461.4,578.56,465.05,575.54,468.59z"/>
	<path d="M616.41,136.36c-3.65,2.19-3.96,6.25-5.63,9.49C614.01,143.44,615.26,139.9,616.41,136.36z"/>
	<path d="M302.1,521.76c-0.52-4.07-4.27-3.75-6.57-5.11C296.89,519.36,298.97,521.34,302.1,521.76z"/>
	<path d="M329.93,501.12c2.5,1.36,5.11,2.5,8.13,0.73C335.35,498.2,332.54,500.49,329.93,501.12z"/>
	<path d="M289.8,176.91c-3.44-1.98-5.42,0.1-7.61,1.88C284.9,179.1,287.61,179.93,289.8,176.91z"/>
	<path d="M262.38,206.1c-1.77-3.44-4.8-2.5-7.51-2.5C257.06,205.26,259.25,206.83,262.38,206.1z"/>
	<path d="M566.26,478.08c1.25-3.13,1.15-6.57,1.88-9.8C565.74,471.2,565.74,474.64,566.26,478.08z"/>
	<path d="M273.22,181.81c-3.23-1.98-5.21-0.21-7.61,1.15C268.53,184.21,270.93,184.93,273.22,181.81z"/>
	<path d="M312.94,499.97c3.44,2.81,3.44,2.81,6.98,1.56C318.15,498.2,315.23,499.97,312.94,499.97z"/>
	<path d="M678.95,322.33c-1.56-1.77-3.13-1.35-4.38-1.25c-1.46,0.11-2.5-1.36-4.17-0.83C672.7,323.06,675.31,323.17,678.95,322.33z"
		/>
	<path d="M633.81,231.53c-1.67,3.86-1.56,4.59,1.04,7.4C633.08,236.75,635.38,233.93,633.81,231.53z"/>
	<path d="M320.76,501.95c2.29,0.52,4.07,1.98,6.05-0.1C324.93,499.14,323.16,500.18,320.76,501.95z"/>
	<path d="M279.58,180.45c-2.4-2.4-3.65-0.1-5.73,1.04C276.35,182.85,278.02,182.43,279.58,180.45z"/>
	<path d="M190.97,197.76c-2.71-1.36-4.38-0.42-6.57,1.46C187.22,200.15,188.89,199.32,190.97,197.76z"/>
	<path d="M182.63,199.01c-2.29-1.36-2.29-1.36-5.63,0.63C180.13,200.47,180.13,200.47,182.63,199.01z"/>
	<path d="M226.62,489.96c-2.08-2.19-3.96-1.98-5.94-0.94C222.35,490.69,224.12,490.8,226.62,489.96z"/>
	<path d="M227.98,490.8c2.19,1.56,4.07,1.25,6.05,0.83C232.05,489.34,232.05,489.34,227.98,490.8z"/>
	<path d="M604.83,160.23c3.02-1.15,2.81-3.13,2.92-5C605.46,156.06,605.88,158.04,604.83,160.23z"/>
	<path d="M308.25,484.44c-1.46-2.81-3.13-2.71-5.63-2.92C304.29,483.71,305.96,483.71,308.25,484.44z"/>
	<path d="M243.2,167.63c-0.94-1.25-2.08-0.42-3.75-0.42C240.97,168.94,242.66,168.71,243.2,167.63z"/>
	<path d="M251.44,168.78c2.19,1.15,3.44,1.15,5.32,0.31C254.88,167.32,253.62,167.94,251.44,168.78z"/>
	<path d="M291.78,477.04c0.83,1.46,2.19,1.56,4.07,1.88C294.7,476.83,293.13,477.14,291.78,477.04z"/>
	<path d="M632.77,286.68c-1.15,1.56-0.21,2.5,0.21,3.65C633.81,289.18,633.29,288.14,632.77,286.68z"/>
	<path d="M610.25,146.88c-2.29,0.83-1.77,2.4-2.61,4.27C609.63,150.01,610.15,148.87,610.25,146.88z"/>
	<path d="M100.8,216.1c2.08,1.04,2.81-0.21,3.96-1.15C103.09,214.44,102.15,215.17,100.8,216.1z"/>
	<path d="M616.61,132.39c1.77-0.54,0.73-1.37,0.73-3.86C615.78,129.79,615.68,131.04,616.61,132.39z"/>
	<path d="M126.76,194.94c-1.67-0.31-2.92,0.52-4.17,1.36C124.15,196.61,125.4,195.67,126.76,194.94z"/>
	<path d="M630.06,281.47c0.94-1.25,0.31-1.98-0.52-2.81C628.29,280.22,629.12,280.74,630.06,281.47z"/>
	<path d="M152.82,504.04c-1.25,0.73-1.15,1.56-0.21,2.81C154.38,505.81,154.59,504.97,152.82,504.04z"/>
	<path d="M619.01,226.32c1.36-1.36,0.63-1.98,0.1-2.81C617.55,224.86,618.91,225.28,619.01,226.32z"/>
	<path d="M620.47,233.2c1.25-0.52,1.04-1.15-0.21-1.88C619.64,232.16,619.64,232.78,620.47,233.2z"/>
	<path d="M617.55,124.47c0.42-0.83,0.1-1.36-0.83-1.46C615.49,124.49,617.16,125.26,617.55,124.47z"/>
	<path d="M621.1,184c0.63-0.83,0.73-1.46-0.63-2.08C619.64,183.16,620.26,183.58,621.1,184z"/>
	<path d="M619.12,177.53c0,1.8,1.25,1.49,1.25,0.83C620.47,177.64,620.05,177.43,619.12,177.53z"/>
	<path d="M646.95,311.7c0.81,0.81,1.35,0.24,0.94-0.31C647.58,311.08,646.95,310.92,646.95,311.7z"/>
	<path d="M650.29,316.91c-0.31,1.36,0.31,1.46,1.04,1.56C651.85,317.43,651.33,317.12,650.29,316.91z"/>
	<path d="M501.52,446.7c-1.29-4.91-25.88-0.87-28.15,1.36c-9.04,8.91-24.19,8.07-26.58,11.26c1.04,0.73,1.87,0.61,2.71,0.42
		c6.55-1.55,13.95-2.01,19.08-6.25C480.4,443.7,498.54,448.38,501.52,446.7z"/>
	<path d="M520.71,478.91c-13.14-1.25-24.92-4.27-35.13-12.41C489.54,475.06,512.99,483.81,520.71,478.91z"/>
	<path d="M526.75,535.83c3.75-2.92,3.86-3.23,0.52-6.15c-0.31,3.65-5.11,3.13-5.84,6.46c2.71,3.34,6.46,4.17,9.8,2.08
		C530.61,535.94,528.21,537.08,526.75,535.83z"/>
	<path d="M524.67,479.33c1.88-3.23,1.04-6.46,0.94-9.59c-1.88-0.63-1.25,1.15-1.98,1.67c-1.91-1.4-5.2-4.6-10.11-6.15
		C517.47,469.74,524.04,472.14,524.67,479.33z"/>
	<path d="M529.57,522.7c0.31-1.36,2.71-2.81-0.42-4.27c-0.63,1.88-3.02,2.08-3.65,4.38c0.63,1.67,2.92,2.4,2.61,4.48
		c1.88,0.52,2.71-0.42,3.54-1.25C531.76,524.26,530.09,523.95,529.57,522.7z"/>
	<path d="M515.7,523.32c-4.59,0-8.03,3.54-12.51,3.86C506.84,528.33,513.62,526.35,515.7,523.32z"/>
	<path d="M413.96,532.6c-4.07,2.61-8.24,5-13.24,6.36C405.1,540.31,411.14,537.5,413.96,532.6z"/>
	<path d="M527.48,466.82c-0.94,2.19,2.37,1.54,0.94,3.54c-1.17,1.65,0.94,1.56,1.56,2.4c-0.21-2.08,1.46-3.13,2.29-4.59
		C530.61,466.3,528.94,466.51,527.48,466.82z"/>
	<path d="M521.96,494.55c3.13,0,0.94-4.27,4.48-3.54c-1.36-1.67-2.19-2.61-3.65-4.27C523.1,489.96,519.77,491.84,521.96,494.55z"/>
	<path d="M438.35,477.97c0.41,0.41-0.76,1.05,10.42-5.94C444.81,473.28,441.06,474.74,438.35,477.97z"/>
	<path d="M527.48,504.66c0.21-1.77,0.1-3.34-1.36-4.59C524.67,502.89,524.67,502.89,527.48,504.66z"/>
	<path d="M521.23,526.76c-1.15,1.98-0.83,3.65-0.42,5.32C521.75,530.51,522.69,529.06,521.23,526.76z"/>
	<path d="M528.63,474.01c-0.52,2.81,1.36,2.61,3.13,2.92C531.34,475.06,529.46,475.16,528.63,474.01z"/>
	<path d="M528.84,483.5c-0.21-1.56-0.52-2.81,0.52-3.86C527.17,481,527.17,481,528.84,483.5z"/>
	<path d="M528.63,506.96c-2.08-0.52-3.34-0.1-3.86,2.4C526.54,508.94,527.59,508.21,528.63,506.96z"/>
	<path d="M433.87,481.31c0.24,0.12-6.36,4.12-14.7,13.66c-10.99,12.57-23.17,13.22-33.46,16.68c-11.66,3.92-13.48,11.22-22.31,27.1
		c6.62,0.36,7.66-4.86,10.22-11.47c4.85-12.57,13.36-12.62,25.85-16.89c16.53-5.64,18.72-13.8,29.81-23.87
		c1.25-1.13,4.59-3.65,5.06-4.83C440.96,478.34,438.37,475.58,433.87,481.31z"/>
	<path d="M529.88,511.96c-1.46-0.94-2.4-0.52-3.34,1.04C528.42,513.84,529.05,513,529.88,511.96z"/>
	<path d="M528.32,485.48c-0.94,0.52-1.46,0.63-1.15,1.36C527.8,486.84,528.11,486.42,528.32,485.48z"/>
	<path d="M635.17,465.26c4.03-1.07,1.88-6.22-1.88-5.11c-8.42,2.5-8.22,9.23-9.9,18.35c-0.6,3.24,1.15,5.84,2.92,9.7
		C630.67,471.08,628.06,467.14,635.17,465.26z"/>
	<path d="M639.34,512.69c0.51-4.17-1.17-8.03-1.56-11.99c-1.47-14.64,2.33-13.91,0.42-16.89c-6.26,8.12-1.13,16.8-1.36,25.44
		c-0.19,7.51,1.77,14.91,0.73,22.31c-0.1,0.52,0.1,1.15,0.21,2.71C642.67,526.81,637.82,525.11,639.34,512.69z"/>
	<path d="M697.3,489.96c4.59,6.15,10.01,11.47,15.53,16.89C721.17,502.68,699.52,491.61,697.3,489.96z"/>
	<path d="M653,484.54c-3.34-5.63-3.44-12.41-5.84-19.18C642.36,472.45,644.66,479.23,653,484.54z"/>
	<path d="M700.85,472.55c2.5-5.73,3.75-11.36,7.82-15.53C700.95,459.11,696.68,467.03,700.85,472.55z"/>
	<path d="M701.89,451.29c-4.69,3.54-3.02,10.22-7.09,13.97C701.58,462.13,705.02,455.25,701.89,451.29z"/>
	<path d="M664.46,456.5c7.51-4.27,7.61-4.38,5.84-8.34C666.55,449.31,664.78,451.7,664.46,456.5z"/>
	<path d="M648.83,564.81c0.31,6.05,3.23,10.63,5.84,15.32c2.92-0.94,2.58-2.28,1.46-3.75c-1.49-1.96-2.95-4.04-4.59-5.73
		C649.95,569.01,651.75,566.17,648.83,564.81z"/>
	<path d="M630.69,481.52c-1.67,6.05,1.15,11.88,0.94,17.93C633.29,496.43,632.98,489.13,630.69,481.52z"/>
	<path d="M663.32,456.92c-3.54,5.53-4.17,8.34-3.02,11.26C663.42,466.3,663.84,464.63,663.32,456.92z"/>
	<path d="M639.34,477.77c4.38-3.75,5.42-9.07,2.61-13.14C640.7,469.01,641.01,473.39,639.34,477.77z"/>
	<path d="M634.23,516.65c2.71-4.9,1.77-10.84-2.4-14.7C633.19,506.75,634.54,511.54,634.23,516.65z"/>
	<path d="M653,486.11c2.61,3.75,0.83,8.03,1.15,12.93C657.79,492.67,657.37,488.82,653,486.11z"/>
	<path d="M728.26,449.83c-3.75,0-7.4,0-11.15,0C719.19,450.56,727.32,450.66,728.26,449.83z"/>
	<path d="M642.68,548.24c-0.52-2.61-0.31-5.32-2.08-7.71C639.44,542.92,639.44,543.02,642.68,548.24z"/>
	<path d="M708.98,455.46c1.67-1.56,3.13-3.02,4.69-4.48C710.12,450.87,709.08,451.7,708.98,455.46z"/>
	<path d="M663.32,480.68c1.88-3.13-0.63-4.27-1.36-6.05C661.23,476.72,661.54,478.6,663.32,480.68z"/>
	<path d="M689.9,468.49c2.71,0.21,2.71,0.21,3.02-3.02C690.84,465.88,690.42,467.13,689.9,468.49z"/>
	<path d="M687.5,584.31c-1.98-2.48-3.64-1.88-6.25-1.77C683.2,584.19,684.81,584.85,687.5,584.31z"/>
	<path d="M675.62,582.43c-1.36-2.19-2.81-2.71-5.42-2.29C671.97,581.91,673.43,582.53,675.62,582.43z"/>
	<path d="M683.96,471.72c2.92,0,3.65-1.04,3.86-3.13C685.21,468.49,685,470.05,683.96,471.72z"/>
	<path d="M679.37,582.43c-0.83-1.25-1.56-1.15-2.5,0C677.91,583.58,678.64,583.26,679.37,582.43z"/>
	<path d="M645.7,559.81c0.83-1.04,0.21-1.46-0.21-2.08C644.76,558.66,645.59,559.08,645.7,559.81z"/>
	<path d="M102.36,466.4c-7.96,11.19,3.57,13.89,6.25,8.24C110.3,471.1,108.72,468.9,102.36,466.4z M106.32,474.33
		c-1.6,2.19-6.49,0.36-4.48-3.65c1.77,2.29,2.4,0.52,3.23-1.04C107.16,471.2,107.64,472.53,106.32,474.33z"/>
	<path d="M91.83,487.04c-1.77,2.19,0.83,3.34,0.1,5c-0.73,1.15-2.5-1.25-3.44,1.15c2.29,1.98,5.21,3.13,8.34,4.27
		C103.01,485.12,94.8,492.33,91.83,487.04z M94.13,493.51c0.1-1.25,0.42-2.19,2.29-2.29C96.32,494.03,96.32,494.03,94.13,493.51z"/>
	<path d="M99.13,477.77c-6.39-0.24-7.54,9.58-0.31,10.11C105.37,487.88,105.92,478.02,99.13,477.77z M99.23,485.58
		c-3.57,0.21-4.67-4.98-0.42-5.73C102.58,480.09,103,485.36,99.23,485.58z"/>
	<path d="M774.86,521.34c-8.24,2.71-14.18,10.42-23.35,11.36C755.99,534.68,769.34,528.22,774.86,521.34z"/>
	<path d="M804.78,547.4c0.73,2.5,0.83,4.8-0.31,6.98c2.08,1.88,4.07,2.4,6.25-0.21C807.07,553.24,808.43,548.45,804.78,547.4z"/>
	<path d="M743.9,516.02c3.75-1.36,6.98-2.5,11.15-3.96C749.32,511.12,745.88,512.27,743.9,516.02z"/>
	<path d="M769.23,506.43c-3.75-0.83-3.75-0.83-6.15,1.88C765.37,508.52,766.83,507.16,769.23,506.43z"/>
	<path d="M762.04,509.67c-1.77-0.1-2.81,0.1-3.44,1.56C760.16,511.96,760.89,511.02,762.04,509.67z"/>
	<path d="M670.72,526.55c2.5-4.07,4.9-8.44,9.8-10.53C675.51,515.61,671.76,519.78,670.72,526.55z"/>
	<path d="M338.27,174.61c10.38-7.52,20.71-12.51,27-30.13c2.78-7.78,11.72-18.67,11.99-20.85c-15.71,17.42-12.26,27.39-27.31,39.61
		c-18.38,14.94-19.77,5.43-25.75,40.66C335.69,200.53,324.19,184.81,338.27,174.61z"/>
	<path d="M380.7,105.29c7.15-4.66,15.39-8,19.6-16.26c2.74-5.38,23.5-9.63,25.02-11.15c-2.31-4.15-20.1,5.3-23.35,7.4
		c-6.01,3.88,2.64,2.22-23.04,18.87C376.93,105.44,379.12,106.32,380.7,105.29z"/>
	<path d="M452.32,102.58c-5.97-0.14-17.15,4.85-35.76-1.36C423.44,107.79,445.65,108.83,452.32,102.58z"/>
	<path d="M455.97,101.33c1.15-3.75-1.15-6.46-1.98-9.49c-1.88,0.42-0.52,1.46-1.04,2.4c-3.54-1.15-7.09-3.02-11.26-2.61
		C446.9,94.45,453.15,95.07,455.97,101.33z"/>
	<path d="M473.38,144.9c1.77-0.1,2.5-1.04,3.02-2.71c-3.34-0.42-1.98-4.17-4.38-6.25c-0.21,2.29-2.29,3.13-2.4,5.73
		C471.08,142.61,472.75,143.24,473.38,144.9z"/>
	<path d="M450.44,152.62c4.07-1.67,8.24-3.34,11.15-6.67c-0.42-0.52-0.83-1.04-1.15-1.46C456.7,146.57,454.3,150.64,450.44,152.62z"
		/>
	<path d="M358.6,193.17c4.69,0.1,10.11-5,10.74-10.22C366.11,186.92,363.29,190.67,358.6,193.17z"/>
	<path d="M457.43,116.03c3.54-0.31,1.25-3.86,3.44-4.59c-1.36-0.83-2.29-1.36-3.54-2.19C456.91,111.54,456.28,113.73,457.43,116.03z
		"/>
	<path d="M457.32,90.7c-0.1,2.08-0.1,2.08,2.08,2.71c-1.15-1.77,0-3.23,0.73-4.69C455.67,86.38,452.59,90.7,457.32,90.7z"/>
	<path d="M465.56,124.58c0.63-2.5-0.73-3.54-2.5-5C462.85,122.18,463.47,123.53,465.56,124.58z"/>
	<path d="M461.7,96.22c-1.15-0.31-2.29-0.73-3.65-1.15C459.2,97.16,459.2,97.16,461.7,96.22z"/>
	<path d="M467.96,151.26c0.42-1.56,0.73-3.23-1.04-4.9C465.87,148.55,467.44,149.91,467.96,151.26z"/>
	<path d="M381.12,119.15c-1.67,1.15-3.44,2.19-3.86,4.48C379.14,122.7,380.08,120.82,381.12,119.15z"/>
	<path d="M464.93,128.85c1.77-0.42,2.19-1.77,2.92-2.92C466.29,126.14,464.73,126.35,464.93,128.85z"/>
	<path d="M460.03,100.6c-1.77,1.36-1.04,2.19,0.52,3.02C460.87,102.48,460.35,101.54,460.03,100.6z"/>
	<path d="M471.29,129.68c-2.19,0.31-3.23,0.52-3.13,2.4C469.73,132.29,470.15,131.04,471.29,129.68z"/>
	<path d="M497.35,95.39c16.87-27.48,55.39-44.63,57.13-54.63c-24.88,23.75-38.66,22.94-57.86,53.37c-1.13,1.79-2.4,3.54-2.92,5.94
		C494.96,98.51,496.33,97.06,497.35,95.39z"/>
	<path d="M478.9,92.68c-2.61,16.85,7.81,36.01,9.28,53.69C493.46,141.09,481.18,115.42,478.9,92.68z"/>
	<path d="M499.13,141.57c0.42-8.55,1.04-17.1-1.25-25.85C497.88,144.21,497.46,141.99,499.13,141.57z"/>
	<path d="M540.83,90.28c2.63,4.83,9.27,0.06,12.3,4.8C557.41,90.36,546.52,88.74,540.83,90.28z"/>
	<path d="M632.15,42.32c1.46-7.3-0.42-9.8-7.82-10.22C627.56,35.13,631.21,37.63,632.15,42.32z"/>
	<path d="M561.36,106.75c-3.23,3.34-2.92,8.13-4.48,12.2C559.8,115.4,560.53,111.02,561.36,106.75z"/>
	<path d="M500.59,75.48c3.23-3.02,5.21-6.67,6.25-10.95C503.71,67.66,502.15,71.62,500.59,75.48z"/>
	<path d="M563.86,94.87c-2.92-2.81-4.9-3.34-9.07-2.81C557.3,95.28,560.63,94.87,563.86,94.87z"/>
	<path d="M493.29,78.5c-1.36,3.44-0.63,6.46,1.46,9.28C494.23,84.65,493.81,81.63,493.29,78.5z"/>
	<path d="M537.07,88.19c-1.67-1.46-2.92-1.98-4.69-1.04C533.32,89.34,534.68,89.44,537.07,88.19z"/>
	<path d="M549.06,103.1c1.36-1.25,2.4-2.71,2.29-4.59C549.69,99.66,549.69,101.54,549.06,103.1z"/>
	<path d="M551.35,98.51l0.1,0.1C551.42,98.37,551.48,98.43,551.35,98.51z"/>
	<path d="M551.44,98.44c1.07-0.83,1.48-2.15,1.58-3.47C551.72,95.77,551.29,97.04,551.44,98.44z"/>
	<path d="M485.78,83.19c0.28,0.28,0.21,0.04,0.21-0.63C485.73,82.56,485.78,82.46,485.78,83.19z"/>
	<path d="M546.04,108c-7.19,9.07-13.66,18.66-21.06,27.63c3.13-1.56,5.09-4.39,7.09-6.98C553.68,100.53,546.35,105.19,546.04,108z"
		/>
	<path d="M68.38,234.97c5.62-1.85,5.04-13.41-6.98-7.61C62.85,234.24,64.75,236.17,68.38,234.97z M63.89,231.01
		c1.46-0.52,2.92-1.15,1.77-3.13c2.4-0.52,3.6,0.01,3.96,1.77C70.18,232.39,65.64,234.51,63.89,231.01z"/>
	<path d="M75.36,241.65c0.13-7.2-10.15-6.56-9.9-0.21C65.71,247.82,75.24,248.2,75.36,241.65z M67.65,241.75
		c-0.21-3.57,5.73-4.18,5.73-0.42C73.38,244.57,67.85,245.27,67.65,241.75z"/>
	<path d="M73.07,248.11c-1.39,2.06-3.02,0.94-4.48,1.36c0.52,2.5,2.92,1.88,3.65,3.13c0.73,1.77-2.19,1.56-1.25,3.54
		c3.02,0.42,5.42-1.67,8.24-2.08C80.02,250.23,75.65,244.28,73.07,248.11z M74.84,249.36c1.88,0.31,1.88,1.56,1.88,3.02
		C74.11,252.07,74.11,252.07,74.84,249.36z"/>
	<path d="M700.12,66.82c-6.78,5.21-10.32,13.66-18.24,17.62C686.88,84.44,696.26,75.48,700.12,66.82z"/>
	<path d="M736.92,88.71c2.81,1.36,4.8,1.36,5.94-1.98c-3.54,0.21-3.86-4.38-7.71-4.9C736.08,84.44,738.06,86.11,736.92,88.71z"/>
	<path d="M678.43,64.53c-0.21-0.21-0.42-0.42-0.52-0.73c-3.96,0.94-6.88,3.44-9.38,6.46C669.66,71.77,667.94,72.49,678.43,64.53z"/>
	<path d="M686.04,58.27c1.25-1.15,2.61-2.29,4.27-3.75C687.09,55.04,687.09,55.04,686.04,58.27z"/>
	<path d="M672.07,46.08c-1.36-0.73-2.29-0.63-3.23,0.63C670.61,46.91,670.61,46.91,672.07,46.08z"/>
	<path d="M684.48,59.94c-1.36,0.21-1.98,0.94-2.92,2.4C683.75,62.24,684.37,61.51,684.48,59.94z"/>
	<path d="M667.17,46.18c-0.94-0.94-1.88-0.83-2.81,0C665.19,46.91,666.03,47.02,667.17,46.18z"/>
<path fill="#e6e6e6" d="m206.8 163.6c0-5.1 4.1-9.2 9.3-9.2s9.2 4.2 9.2 9.2-4.1 9.2-9.3 9.2-9.2-4.1-9.2-9.2zm17.3-.1c0-4.5-3.5-8.2-8.2-8.2s-8.2 3.7-8.2 8.3c0 4.5 3.5 8.2 8.2 8.2s8.2-3.7 8.2-8.3zm-13 0c0-2.8 2.1-5.1 5.1-5.1 1.9 0 2.9.6 3.9 1.5l-1.4 1.7c-.8-.7-1.5-1.1-2.5-1.1-1.7 0-2.8 1.4-2.8 3.1s1.1 3 2.8 3c1.1 0 1.7-.5 2.5-1.1l1.4 1.4c-1.1 1.1-2.1 1.7-4 1.7-2.9 0-5-2.3-5-5.1z"/><path fill="#e6e6e6" d="m226.6 154.7h3.4l4.2 13.2 4.4-13.3h2.6l4.4 13.3 4.2-13.2h3.3l-6.2 18h-2.7l-4.4-12.8-4.4 12.8h-2.7z"/><path fill="#e6e6e6" d="m252.8 165.8c0-3.9 3.1-7 7.2-7 4.2 0 7.2 3.2 7.2 7s-3.1 7-7.3 7c-4 0-7.1-3.1-7.1-7zm11.3 0c0-2.3-1.7-4.3-4.2-4.3s-4.1 2-4.1 4.3 1.7 4.3 4.1 4.3c2.7.1 4.2-1.9 4.2-4.3z"/><path fill="#e6e6e6" d="m269.5 159.1h3.1v3c.8-2 2.4-3.4 4.8-3.3v3.2h-.2c-2.7 0-4.6 1.7-4.6 5.4v5.1h-3.1z"/><path fill="#e6e6e6" d="m279.1 153.9h3.1v11.1l5.6-6h3.8l-5.4 5.5 5.5 8h-3.5l-4.1-5.8-1.9 2v3.9h-3.1z"/><path fill="#e6e6e6" d="m291.7 165.8c0-3.9 3.1-7 7.2-7 4.2 0 7.2 3.2 7.2 7s-3.1 7-7.3 7c-4 0-7.1-3.1-7.1-7zm11.3 0c0-2.3-1.7-4.3-4.2-4.3s-4.1 2-4.1 4.3 1.7 4.3 4.1 4.3c2.6.1 4.2-1.9 4.2-4.3z"/><path fill="#e6e6e6" d="m308.2 167.6v-8.6h3.1v7.6c0 2.1 1.1 3.3 2.9 3.3s3-1.3 3-3.3v-7.6h3.1v13.4h-3.1v-2.1c-.8 1.3-2.1 2.3-4.2 2.3-3.1.2-4.8-1.8-4.8-5z"/><path fill="#e6e6e6" d="m323.9 168.8v-7.1h-1.7v-2.6h1.7v-3.7h3.1v3.7h3.6v2.6h-3.6v6.6c0 1.2.6 1.7 1.7 1.7.7 0 1.3-.2 1.9-.5v2.5c-.8.5-1.7.7-2.8.7-2.3 0-3.9-.9-3.9-3.9z"/><path fill="#e6e6e6" d="m333.2 154.7h3.2v15h9.4v2.9h-12.5v-17.9z"/><path fill="#e6e6e6" d="m356 172.5v-1.7c-.9 1.1-2.3 2-4.4 2-2.6 0-4.8-1.4-4.8-4.2 0-3 2.3-4.4 5.4-4.4 1.7 0 2.6.2 3.7.5v-.2c0-1.9-1.2-2.9-3.3-2.9-1.5 0-2.6.3-3.9.8l-.8-2.5c1.5-.7 2.9-1.1 5.1-1.1 4 0 5.9 2.1 5.9 5.7v8zm.1-5.6c-.8-.3-1.9-.5-3.1-.5-2 0-3.1.8-3.1 2.1s1.1 2 2.6 2c2 0 3.5-1.1 3.5-2.9z"/><path fill="#e6e6e6" d="m364.9 170.5v2.1h-3.1v-18.7h3.1v7.4c1-1.4 2.4-2.5 4.5-2.5 3.2 0 6.3 2.5 6.3 7s-3.1 7-6.3 7c-2.1 0-3.5-1.1-4.5-2.3zm7.7-4.7c0-2.6-1.7-4.3-3.9-4.3s-3.9 1.7-3.9 4.4c0 2.6 1.8 4.3 3.9 4.3s3.9-1.7 3.9-4.4z"/><path fill="#e6e6e6" d="m376.9 170.8 1.4-2.1c1.4 1.1 3 1.7 4.4 1.7s2.1-.5 2.1-1.5-1.3-1.4-2.8-1.8c-.1 0-.2-.1-.2-.1-2-.6-4.2-1.4-4.2-4s2.1-4.1 4.8-4.1c1.7 0 3.5.6 5 1.5l-1.2 2.2c-1.3-.8-2.6-1.3-3.8-1.3s-1.9.5-1.9 1.4 1.3 1.4 2.8 1.8c.1 0 .2.1.2.1 2 .6 4.2 1.5 4.2 4 0 2.9-2.2 4.2-5 4.2-1.9 0-4-.7-5.8-2z"/><path fill="#e6e6e6" d="m505.6 163.6c0-5.1 4.1-9.2 9.3-9.2s9.2 4.2 9.2 9.2-4.1 9.2-9.3 9.2-9.2-4.1-9.2-9.2zm17.4-.1c0-4.5-3.5-8.2-8.2-8.2s-8.2 3.7-8.2 8.3c0 4.5 3.5 8.2 8.2 8.2s8.2-3.7 8.2-8.3zm-13.1 0c0-2.8 2.1-5.1 5.1-5.1 1.9 0 2.9.6 3.9 1.5l-1.4 1.7c-.8-.7-1.5-1.1-2.5-1.1-1.7 0-2.8 1.4-2.8 3.1s1.1 3 2.8 3c1.1 0 1.7-.5 2.5-1.1l1.4 1.4c-1.1 1.1-2.1 1.7-4 1.7-2.9 0-5-2.3-5-5.1z"/><path fill="#e6e6e6" d="m525.4 154.7h3.4l4.2 13.2 4.4-13.3h2.6l4.4 13.3 4.2-13.2h3.3l-6.2 18h-2.7l-4.4-12.8-4.4 12.8h-2.7z"/><path fill="#e6e6e6" d="m551.7 165.8c0-3.9 3.1-7 7.2-7 4.2 0 7.2 3.2 7.2 7s-3.1 7-7.3 7c-4.1 0-7.1-3.1-7.1-7zm11.2 0c0-2.3-1.7-4.3-4.2-4.3s-4.1 2-4.1 4.3 1.7 4.3 4.1 4.3c2.7.1 4.2-1.9 4.2-4.3z"/><path fill="#e6e6e6" d="m568.3 159.1h3.1v3c.8-2 2.4-3.4 4.8-3.3v3.2h-.2c-2.7 0-4.6 1.7-4.6 5.4v5.1h-3.1z"/><path fill="#e6e6e6" d="m577.9 153.9h3.1v11.1l5.6-6h3.8l-5.4 5.5 5.5 8h-3.5l-4.1-5.8-1.9 2v3.9h-3.1z"/><path fill="#e6e6e6" d="m590.6 165.8c0-3.9 3.1-7 7.2-7 4.2 0 7.2 3.2 7.2 7s-3.1 7-7.3 7c-4.1 0-7.1-3.1-7.1-7zm11.2 0c0-2.3-1.7-4.3-4.2-4.3s-4.1 2-4.1 4.3 1.7 4.3 4.1 4.3c2.6.1 4.2-1.9 4.2-4.3z"/><path fill="#e6e6e6" d="m607 167.6v-8.6h3.1v7.6c0 2.1 1.1 3.3 2.9 3.3s3-1.3 3-3.3v-7.6h3.1v13.4h-3.1v-2.1c-.8 1.3-2.1 2.3-4.2 2.3-3 .2-4.8-1.8-4.8-5z"/><path fill="#e6e6e6" d="m622.7 168.8v-7.1h-1.7v-2.6h1.7v-3.7h3.1v3.7h3.6v2.6h-3.6v6.6c0 1.2.6 1.7 1.7 1.7.7 0 1.3-.2 1.9-.5v2.5c-.8.5-1.7.7-2.8.7-2.3 0-3.9-.9-3.9-3.9z"/><path fill="#e6e6e6" d="m632 154.7h3.2v15h9.4v2.9h-12.6z"/><path fill="#e6e6e6" d="m654.8 172.5v-1.7c-.9 1.1-2.3 2-4.4 2-2.6 0-4.8-1.4-4.8-4.2 0-3 2.3-4.4 5.4-4.4 1.7 0 2.6.2 3.7.5v-.2c0-1.9-1.2-2.9-3.3-2.9-1.5 0-2.6.3-3.9.8l-.8-2.5c1.5-.7 2.9-1.1 5.1-1.1 4 0 5.9 2.1 5.9 5.7v8zm.1-5.6c-.8-.3-1.9-.5-3.1-.5-2 0-3.1.8-3.1 2.1s1.1 2 2.6 2c2 0 3.5-1.1 3.5-2.9z"/><path fill="#e6e6e6" d="m663.7 170.5v2.1h-3.1v-18.7h3.1v7.4c1-1.4 2.4-2.5 4.5-2.5 3.2 0 6.3 2.5 6.3 7s-3.1 7-6.3 7c-2.1 0-3.5-1.1-4.5-2.3zm7.8-4.7c0-2.6-1.7-4.3-3.9-4.3-2.1 0-3.9 1.7-3.9 4.4 0 2.6 1.8 4.3 3.9 4.3s3.9-1.7 3.9-4.4z"/><path fill="#e6e6e6" d="m675.8 170.8 1.4-2.1c1.4 1.1 3 1.7 4.4 1.7s2.1-.5 2.1-1.5-1.3-1.4-2.8-1.8c-.1 0-.2-.1-.2-.1-2-.6-4.2-1.4-4.2-4s2.1-4.1 4.8-4.1c1.7 0 3.5.6 5 1.5l-1.2 2.2c-1.3-.8-2.6-1.3-3.8-1.3s-1.9.5-1.9 1.4 1.3 1.4 2.8 1.8c.1 0 .2.1.2.1 2 .6 4.2 1.5 4.2 4 0 2.9-2.2 4.2-5 4.2-2 0-4.1-.7-5.8-2z"/><path fill="#e6e6e6" d="m61 298.6c0-5.1 4.1-9.2 9.3-9.2s9.2 4.2 9.2 9.2-4.1 9.2-9.3 9.2c-5.1 0-9.2-4.2-9.2-9.2zm17.4-.1c0-4.5-3.5-8.2-8.2-8.2s-8.2 3.7-8.2 8.3c0 4.5 3.5 8.2 8.2 8.2s8.2-3.7 8.2-8.3zm-13.1-.1c0-2.8 2.1-5.1 5.1-5.1 1.9 0 2.9.6 3.9 1.5l-1.4 1.7c-.8-.7-1.5-1.1-2.5-1.1-1.7 0-2.8 1.4-2.8 3.1s1.1 3 2.8 3c1.1 0 1.7-.5 2.5-1.1l1.4 1.4c-1.1 1.1-2.1 1.7-4 1.7-2.8.1-5-2.2-5-5.1z"/><path fill="#e6e6e6" d="m80.9 289.7h3.4l4.2 13.2 4.4-13.3h2.6l4.4 13.3 4.2-13.2h3.3l-6.2 18h-2.7l-4.4-12.8-4.4 12.8h-2.7z"/><path fill="#e6e6e6" d="m107.1 300.8c0-3.9 3.1-7 7.2-7s7.2 3.2 7.2 7-3.1 7-7.3 7c-4 0-7.1-3.1-7.1-7zm11.3 0c0-2.3-1.7-4.3-4.2-4.3s-4.1 2-4.1 4.3 1.7 4.3 4.1 4.3c2.6.1 4.2-1.9 4.2-4.3z"/><path fill="#e6e6e6" d="m123.7 294h3.1v3c.8-2 2.4-3.4 4.8-3.3v3.2h-.2c-2.7 0-4.6 1.7-4.6 5.4v5.1h-3.1z"/><path fill="#e6e6e6" d="m133.4 288.9h3.1v11.1l5.6-6h3.8l-5.4 5.5 5.5 8h-3.5l-4.1-5.8-1.9 1.9v3.9h-3.1z"/><path fill="#e6e6e6" d="m146 300.8c0-3.9 3.1-7 7.2-7s7.2 3.2 7.2 7-3.1 7-7.3 7c-4.1 0-7.1-3.1-7.1-7zm11.2 0c0-2.3-1.7-4.3-4.2-4.3s-4.1 2-4.1 4.3 1.7 4.3 4.1 4.3c2.6.1 4.2-1.9 4.2-4.3z"/><path fill="#e6e6e6" d="m162.4 302.6v-8.6h3.1v7.6c0 2.1 1.1 3.3 2.9 3.3s3-1.3 3-3.3v-7.6h3.1v13.4h-3.1v-2.1c-.8 1.3-2.1 2.3-4.2 2.3-3 .2-4.8-1.8-4.8-5z"/><path fill="#e6e6e6" d="m178.1 303.8v-7.1h-1.7v-2.7h1.7v-3.7h3.1v3.7h3.6v2.6h-3.6v6.6c0 1.2.6 1.7 1.7 1.7.7 0 1.3-.2 1.9-.5v2.5c-.8.5-1.7.7-2.8.7-2.3.1-3.9-.9-3.9-3.8z"/><path fill="#e6e6e6" d="m187.4 289.7h3.2v15h9.4v2.9h-12.5v-17.9z"/><path fill="#e6e6e6" d="m210.2 307.5v-1.7c-.9 1.1-2.3 2-4.4 2-2.6 0-4.8-1.4-4.8-4.2 0-3 2.3-4.4 5.4-4.4 1.7 0 2.6.2 3.7.5v-.2c0-1.9-1.2-2.9-3.3-2.9-1.5 0-2.6.3-3.9.8l-.8-2.5c1.5-.7 2.9-1.1 5.1-1.1 4 0 5.9 2.1 5.9 5.7v8zm.1-5.6c-.8-.3-1.9-.5-3.1-.5-2 0-3.1.8-3.1 2.1s1.1 2 2.6 2c2 0 3.5-1.1 3.5-2.9z"/><path fill="#e6e6e6" d="m219.2 305.5v2.1h-3.1v-18.7h3.1v7.4c1-1.4 2.4-2.5 4.5-2.5 3.2 0 6.3 2.5 6.3 7s-3.1 7-6.3 7c-2.2 0-3.6-1.1-4.5-2.3zm7.7-4.7c0-2.6-1.7-4.3-3.9-4.3s-3.9 1.7-3.9 4.4c0 2.6 1.8 4.3 3.9 4.3s3.9-1.7 3.9-4.4z"/><path fill="#e6e6e6" d="m231.2 305.8 1.4-2.1c1.4 1.1 3 1.7 4.4 1.7s2.1-.5 2.1-1.5-1.3-1.4-2.8-1.8c-.1 0-.2-.1-.2-.1-2-.6-4.2-1.4-4.2-4s2.1-4.1 4.8-4.1c1.7 0 3.5.6 5 1.5l-1.2 2.2c-1.3-.8-2.6-1.3-3.8-1.3s-1.9.5-1.9 1.4 1.3 1.4 2.8 1.8c.1 0 .2.1.2.1 2 .6 4.2 1.5 4.2 4 0 2.9-2.2 4.2-5 4.2-2 0-4.1-.7-5.8-2z"/><path fill="#e6e6e6" d="m360.6 298.6c0-5.1 4.1-9.2 9.3-9.2s9.2 4.2 9.2 9.2-4.1 9.2-9.3 9.2-9.2-4.2-9.2-9.2zm17.4-.1c0-4.5-3.5-8.2-8.2-8.2s-8.2 3.7-8.2 8.3c0 4.5 3.5 8.2 8.2 8.2s8.2-3.7 8.2-8.3zm-13.1-.1c0-2.8 2.1-5.1 5.1-5.1 1.9 0 2.9.6 3.9 1.5l-1.4 1.7c-.8-.7-1.5-1.1-2.5-1.1-1.7 0-2.8 1.4-2.8 3.1s1.1 3 2.8 3c1.1 0 1.7-.5 2.5-1.1l1.4 1.4c-1.1 1.1-2.1 1.7-4 1.7-2.8.1-5-2.2-5-5.1z"/><path fill="#e6e6e6" d="m380.5 289.7h3.4l4.2 13.2 4.4-13.3h2.6l4.4 13.3 4.2-13.2h3.3l-6.2 18h-2.7l-4.4-12.8-4.4 12.8h-2.7z"/><path fill="#e6e6e6" d="m406.7 300.8c0-3.9 3.1-7 7.2-7 4.2 0 7.2 3.2 7.2 7s-3.1 7-7.3 7c-4.1 0-7.1-3.1-7.1-7zm11.3 0c0-2.3-1.7-4.3-4.2-4.3s-4.1 2-4.1 4.3 1.7 4.3 4.1 4.3c2.7.1 4.2-1.9 4.2-4.3z"/><path fill="#e6e6e6" d="m423.3 294h3.1v3c.8-2 2.4-3.4 4.8-3.3v3.2h-.2c-2.7 0-4.6 1.7-4.6 5.4v5.1h-3.1z"/><path fill="#e6e6e6" d="m433 288.9h3.1v11.1l5.6-6h3.8l-5.4 5.5 5.5 8h-3.5l-4.1-5.8-1.9 2v3.9h-3.1z"/><path fill="#e6e6e6" d="m445.6 300.8c0-3.9 3.1-7 7.2-7 4.2 0 7.2 3.2 7.2 7s-3.1 7-7.3 7c-4.1 0-7.1-3.1-7.1-7zm11.3 0c0-2.3-1.7-4.3-4.2-4.3s-4.1 2-4.1 4.3 1.7 4.3 4.1 4.3c2.6.1 4.2-1.9 4.2-4.3z"/><path fill="#e6e6e6" d="m462.1 302.6v-8.6h3.1v7.6c0 2.1 1.1 3.3 2.9 3.3s3-1.3 3-3.3v-7.6h3.1v13.4h-3.1v-2.1c-.8 1.3-2.1 2.3-4.2 2.3-3.1.2-4.8-1.8-4.8-5z"/><path fill="#e6e6e6" d="m477.8 303.8v-7.1h-1.8v-2.7h1.7v-3.7h3.1v3.7h3.6v2.6h-3.6v6.6c0 1.2.6 1.7 1.7 1.7.7 0 1.3-.2 1.9-.5v2.5c-.8.5-1.7.7-2.8.7-2.2.1-3.8-.9-3.8-3.8z"/><path fill="#e6e6e6" d="m487.1 289.7h3.2v15h9.4v2.9h-12.5v-17.9z"/><path fill="#e6e6e6" d="m509.9 307.5v-1.7c-.9 1.1-2.3 2-4.4 2-2.6 0-4.8-1.4-4.8-4.2 0-3 2.3-4.4 5.4-4.4 1.7 0 2.6.2 3.7.5v-.2c0-1.9-1.2-2.9-3.3-2.9-1.5 0-2.6.3-3.9.8l-.8-2.5c1.5-.7 2.9-1.1 5.1-1.1 4 0 5.9 2.1 5.9 5.7v8zm.1-5.6c-.8-.3-1.9-.5-3.1-.5-2 0-3.1.8-3.1 2.1s1.1 2 2.6 2c2 0 3.5-1.1 3.5-2.9z"/><path fill="#e6e6e6" d="m518.8 305.5v2.1h-3.1v-18.7h3.1v7.4c1-1.4 2.4-2.5 4.5-2.5 3.2 0 6.3 2.5 6.3 7s-3.1 7-6.3 7c-2.2 0-3.5-1.1-4.5-2.3zm7.7-4.7c0-2.6-1.7-4.3-3.9-4.3s-3.9 1.7-3.9 4.4c0 2.6 1.8 4.3 3.9 4.3s3.9-1.7 3.9-4.4z"/><path fill="#e6e6e6" d="m530.8 305.8 1.4-2.1c1.4 1.1 3 1.7 4.4 1.7s2.1-.5 2.1-1.5-1.3-1.4-2.8-1.8c-.1 0-.2-.1-.2-.1-2-.6-4.2-1.4-4.2-4s2.1-4.1 4.8-4.1c1.7 0 3.5.6 5 1.5l-1.2 2.2c-1.3-.8-2.6-1.3-3.8-1.3s-1.9.5-1.9 1.4 1.3 1.4 2.8 1.8c.1 0 .2.1.2.1 2 .6 4.2 1.5 4.2 4 0 2.9-2.2 4.2-5 4.2-1.9 0-4.1-.7-5.8-2z"/><path fill="#e6e6e6" d="m659.5 298.6c0-5.1 4.1-9.2 9.3-9.2s9.2 4.2 9.2 9.2-4.1 9.2-9.3 9.2-9.2-4.2-9.2-9.2zm17.3-.1c0-4.5-3.5-8.2-8.2-8.2s-8.2 3.7-8.2 8.3c0 4.5 3.5 8.2 8.2 8.2 4.8 0 8.2-3.7 8.2-8.3zm-13-.1c0-2.8 2.1-5.1 5.1-5.1 1.9 0 2.9.6 3.9 1.5l-1.4 1.7c-.8-.7-1.5-1.1-2.5-1.1-1.7 0-2.8 1.4-2.8 3.1s1.1 3 2.8 3c1.1 0 1.7-.5 2.5-1.1l1.4 1.4c-1.1 1.1-2.1 1.7-4 1.7-2.9.1-5-2.2-5-5.1z"/><path fill="#e6e6e6" d="m679.3 289.7h3.4l4.2 13.2 4.4-13.3h2.6l4.4 13.3 4.2-13.2h3.3l-6.2 18h-2.6l-4.4-12.8-4.4 12.8h-2.7z"/><path fill="#e6e6e6" d="m705.5 300.8c0-3.9 3.1-7 7.2-7 4.2 0 7.2 3.2 7.2 7s-3.1 7-7.3 7c-4 0-7.1-3.1-7.1-7zm11.3 0c0-2.3-1.7-4.3-4.2-4.3s-4.1 2-4.1 4.3 1.7 4.3 4.1 4.3c2.7.1 4.2-1.9 4.2-4.3z"/><path fill="#e6e6e6" d="m722.1 294h3.1v3c.8-2 2.4-3.4 4.8-3.3v3.2h-.2c-2.7 0-4.6 1.7-4.6 5.4v5.1h-3.1z"/><path fill="#e6e6e6" d="m731.8 288.9h3.1v11.1l5.6-6h3.8l-5.4 5.5 5.5 8h-3.5l-4.1-5.8-1.9 2v3.9h-3.1z"/><path fill="#e6e6e6" d="m744.4 300.8c0-3.9 3.1-7 7.2-7 4.2 0 7.2 3.2 7.2 7s-3.1 7-7.3 7c-4.1 0-7.1-3.1-7.1-7zm11.3 0c0-2.3-1.7-4.3-4.2-4.3s-4.1 2-4.1 4.3 1.7 4.3 4.1 4.3c2.6.1 4.2-1.9 4.2-4.3z"/><path fill="#e6e6e6" d="m760.9 302.6v-8.6h3.1v7.6c0 2.1 1.1 3.3 2.9 3.3s3-1.3 3-3.3v-7.6h3.1v13.4h-3.1v-2.1c-.8 1.3-2.1 2.3-4.2 2.3-3.1.2-4.8-1.8-4.8-5z"/><path fill="#e6e6e6" d="m776.6 303.8v-7.1h-1.7v-2.7h1.7v-3.7h3.1v3.7h3.6v2.6h-3.6v6.6c0 1.2.6 1.7 1.7 1.7.7 0 1.3-.2 1.9-.5v2.5c-.8.5-1.7.7-2.8.7-2.3.1-3.9-.9-3.9-3.8z"/><path fill="#e6e6e6" d="m785.9 289.7h3.2v15h9.4v2.9h-12.5v-17.9z"/><path fill="#e6e6e6" d="m808.7 307.5v-1.7c-.9 1.1-2.3 2-4.4 2-2.6 0-4.8-1.4-4.8-4.2 0-3 2.3-4.4 5.4-4.4 1.7 0 2.6.2 3.7.5v-.2c0-1.9-1.2-2.9-3.3-2.9-1.5 0-2.6.3-3.9.8l-.8-2.5c1.5-.7 2.9-1.1 5.1-1.1 4 0 5.9 2.1 5.9 5.7v8zm.1-5.6c-.8-.3-1.9-.5-3.1-.5-2 0-3.1.8-3.1 2.1s1.1 2 2.6 2c2 0 3.5-1.1 3.5-2.9z"/><path fill="#e6e6e6" d="m817.6 305.5v2.1h-3.1v-18.7h3.1v7.4c1-1.4 2.4-2.5 4.5-2.5 3.2 0 6.3 2.5 6.3 7s-3.1 7-6.3 7c-2.1 0-3.5-1.1-4.5-2.3zm7.7-4.7c0-2.6-1.7-4.3-3.9-4.3-2.1 0-3.9 1.7-3.9 4.4 0 2.6 1.8 4.3 3.9 4.3 2.2 0 3.9-1.7 3.9-4.4z"/><path fill="#e6e6e6" d="m829.6 305.8 1.4-2.1c1.4 1.1 3 1.7 4.4 1.7s2.1-.5 2.1-1.5-1.3-1.4-2.8-1.8c-.1 0-.2-.1-.2-.1-2-.6-4.2-1.4-4.2-4s2.1-4.1 4.8-4.1c1.7 0 3.5.6 5 1.5l-1.2 2.2c-1.3-.8-2.6-1.3-3.8-1.3s-1.9.5-1.9 1.4 1.3 1.4 2.8 1.8c.1 0 .2.1.2.1 2 .6 4.2 1.5 4.2 4 0 2.9-2.2 4.2-5 4.2-1.9 0-4-.7-5.8-2z"/><path fill="#e6e6e6" d="m206.3 434.2c0-5.1 4.1-9.2 9.3-9.2s9.2 4.2 9.2 9.2-4.1 9.2-9.3 9.2-9.2-4.1-9.2-9.2zm17.4-.1c0-4.5-3.5-8.2-8.2-8.2s-8.2 3.7-8.2 8.3c0 4.5 3.5 8.2 8.2 8.2s8.2-3.7 8.2-8.3zm-13.1-.1c0-2.8 2.1-5.1 5.1-5.1 1.9 0 2.9.6 3.9 1.5l-1.4 1.7c-.8-.7-1.5-1.1-2.5-1.1-1.7 0-2.8 1.4-2.8 3.1s1.1 3 2.8 3c1.1 0 1.7-.5 2.5-1.1l1.4 1.4c-1.1 1.1-2.1 1.7-4 1.7-2.9.1-5-2.2-5-5.1z"/><path fill="#e6e6e6" d="m226.1 425.3h3.4l4.2 13.2 4.4-13.3h2.6l4.4 13.3 4.2-13.2h3.3l-6.2 18h-2.7l-4.4-12.8-4.4 12.8h-2.7z"/><path fill="#e6e6e6" d="m252.4 436.4c0-3.9 3.1-7 7.2-7 4.2 0 7.2 3.2 7.2 7s-3.1 7-7.3 7c-4.1 0-7.1-3.1-7.1-7zm11.2 0c0-2.3-1.7-4.3-4.2-4.3s-4.1 2-4.1 4.3 1.7 4.3 4.1 4.3c2.7.1 4.2-1.9 4.2-4.3z"/><path fill="#e6e6e6" d="m269 429.7h3.1v3c.8-2 2.4-3.4 4.8-3.3v3.2h-.2c-2.7 0-4.6 1.7-4.6 5.4v5.1h-3.1z"/><path fill="#e6e6e6" d="m278.6 424.5h3.1v11.1l5.6-6h3.8l-5.4 5.5 5.5 8h-3.5l-4.1-5.8-1.9 2v3.9h-3.1z"/><path fill="#e6e6e6" d="m291.3 436.4c0-3.9 3.1-7 7.2-7 4.2 0 7.2 3.2 7.2 7s-3.1 7-7.3 7c-4.1 0-7.1-3.1-7.1-7zm11.2 0c0-2.3-1.7-4.3-4.2-4.3s-4.1 2-4.1 4.3 1.7 4.3 4.1 4.3c2.6.1 4.2-1.9 4.2-4.3z"/><path fill="#e6e6e6" d="m307.7 438.2v-8.6h3.1v7.6c0 2.1 1.1 3.3 2.9 3.3s3-1.3 3-3.3v-7.6h3.1v13.4h-3.1v-2.1c-.8 1.3-2.1 2.3-4.2 2.3-3 .2-4.8-1.8-4.8-5z"/><path fill="#e6e6e6" d="m323.4 439.4v-7.1h-1.7v-2.6h1.7v-3.7h3.1v3.7h3.6v2.6h-3.6v6.6c0 1.2.6 1.7 1.7 1.7.7 0 1.3-.2 1.9-.5v2.5c-.8.5-1.7.7-2.8.7-2.3 0-3.9-.9-3.9-3.9z"/><path fill="#e6e6e6" d="m332.7 425.3h3.2v15h9.4v2.9h-12.5v-17.9z"/><path fill="#e6e6e6" d="m355.5 443.1v-1.7c-.9 1.1-2.3 2-4.4 2-2.6 0-4.8-1.4-4.8-4.2 0-3 2.3-4.4 5.4-4.4 1.7 0 2.6.2 3.7.5v-.2c0-1.9-1.2-2.9-3.3-2.9-1.5 0-2.6.3-3.9.8l-.8-2.5c1.5-.7 2.9-1.1 5.1-1.1 4 0 5.9 2.1 5.9 5.7v8zm.1-5.6c-.8-.3-1.9-.5-3.1-.5-2 0-3.1.8-3.1 2.1s1.1 2 2.6 2c2 0 3.5-1.1 3.5-2.9z"/><path fill="#e6e6e6" d="m364.4 441.1v2.1h-3.1v-18.7h3.1v7.4c1-1.4 2.4-2.5 4.5-2.5 3.2 0 6.3 2.5 6.3 7s-3.1 7-6.3 7c-2.1 0-3.5-1.1-4.5-2.3zm7.7-4.7c0-2.6-1.7-4.3-3.9-4.3-2.1 0-3.9 1.7-3.9 4.4 0 2.6 1.8 4.3 3.9 4.3 2.2 0 3.9-1.7 3.9-4.4z"/><path fill="#e6e6e6" d="m376.5 441.4 1.4-2.1c1.4 1.1 3 1.7 4.4 1.7s2.1-.5 2.1-1.5-1.3-1.4-2.8-1.8c-.1 0-.2-.1-.2-.1-2-.6-4.2-1.4-4.2-4s2.1-4.1 4.8-4.1c1.7 0 3.5.6 5 1.5l-1.2 2.2c-1.3-.8-2.6-1.3-3.8-1.3s-1.9.5-1.9 1.4 1.3 1.4 2.8 1.8c.1 0 .2.1.2.1 2 .6 4.2 1.5 4.2 4 0 2.9-2.2 4.2-5 4.2-2 0-4.1-.7-5.8-2z"/><path fill="#e6e6e6" d="m505.1 434.2c0-5.1 4.1-9.2 9.3-9.2s9.2 4.2 9.2 9.2-4.1 9.2-9.3 9.2-9.2-4.1-9.2-9.2zm17.4-.1c0-4.5-3.5-8.2-8.2-8.2s-8.2 3.7-8.2 8.3c0 4.5 3.5 8.2 8.2 8.2s8.2-3.7 8.2-8.3zm-13.1-.1c0-2.8 2.1-5.1 5.1-5.1 1.9 0 2.9.6 3.9 1.5l-1.4 1.7c-.8-.7-1.5-1.1-2.5-1.1-1.7 0-2.8 1.4-2.8 3.1s1.1 3 2.8 3c1.1 0 1.7-.5 2.5-1.1l1.4 1.4c-1.1 1.1-2.1 1.7-4 1.7-2.9.1-5-2.2-5-5.1z"/><path fill="#e6e6e6" d="m525 425.3h3.4l4.2 13.2 4.4-13.3h2.6l4.4 13.3 4.2-13.2h3.3l-6.2 18h-2.7l-4.4-12.8-4.4 12.8h-2.7z"/><path fill="#e6e6e6" d="m551.2 436.4c0-3.9 3.1-7 7.2-7 4.2 0 7.2 3.2 7.2 7s-3.1 7-7.3 7c-4.1 0-7.1-3.1-7.1-7zm11.2 0c0-2.3-1.7-4.3-4.2-4.3s-4.1 2-4.1 4.3 1.7 4.3 4.1 4.3c2.7.1 4.2-1.9 4.2-4.3z"/><path fill="#e6e6e6" d="m567.8 429.7h3.1v3c.8-2 2.4-3.4 4.8-3.3v3.2h-.2c-2.7 0-4.6 1.7-4.6 5.4v5.1h-3.1z"/><path fill="#e6e6e6" d="m577.5 424.5h3.1v11.1l5.6-6h3.8l-5.4 5.5 5.5 8h-3.5l-4.1-5.8-1.9 2v3.9h-3.1z"/><path fill="#e6e6e6" d="m590.1 436.4c0-3.9 3.1-7 7.2-7 4.2 0 7.2 3.2 7.2 7s-3.1 7-7.3 7c-4.1 0-7.1-3.1-7.1-7zm11.2 0c0-2.3-1.7-4.3-4.2-4.3s-4.1 2-4.1 4.3 1.7 4.3 4.1 4.3c2.6.1 4.2-1.9 4.2-4.3z"/><path fill="#e6e6e6" d="m606.5 438.2v-8.6h3.1v7.6c0 2.1 1.1 3.3 2.9 3.3s3-1.3 3-3.3v-7.6h3.1v13.4h-3.1v-2.1c-.8 1.3-2.1 2.3-4.2 2.3-3 .2-4.8-1.8-4.8-5z"/><path fill="#e6e6e6" d="m622.2 439.4v-7.1h-1.7v-2.6h1.7v-3.7h3.1v3.7h3.6v2.6h-3.6v6.6c0 1.2.6 1.7 1.7 1.7.7 0 1.3-.2 1.9-.5v2.5c-.8.5-1.7.7-2.8.7-2.3 0-3.9-.9-3.9-3.9z"/><path fill="#e6e6e6" d="m631.5 425.3h3.2v15h9.4v2.9h-12.5v-17.9z"/><path fill="#e6e6e6" d="m654.3 443.1v-1.7c-.9 1.1-2.3 2-4.4 2-2.6 0-4.8-1.4-4.8-4.2 0-3 2.3-4.4 5.4-4.4 1.7 0 2.6.2 3.7.5v-.2c0-1.9-1.2-2.9-3.3-2.9-1.5 0-2.6.3-3.9.8l-.8-2.5c1.5-.7 2.9-1.1 5.1-1.1 4 0 5.9 2.1 5.9 5.7v8zm.1-5.6c-.8-.3-1.9-.5-3.1-.5-2 0-3.1.8-3.1 2.1s1.1 2 2.6 2c2 0 3.5-1.1 3.5-2.9z"/><path fill="#e6e6e6" d="m663.3 441.1v2.1h-3.1v-18.7h3.1v7.4c1-1.4 2.4-2.5 4.5-2.5 3.2 0 6.3 2.5 6.3 7s-3.1 7-6.3 7c-2.2 0-3.6-1.1-4.5-2.3zm7.7-4.7c0-2.6-1.7-4.3-3.9-4.3s-3.9 1.7-3.9 4.4c0 2.6 1.8 4.3 3.9 4.3s3.9-1.7 3.9-4.4z"/><path fill="#e6e6e6" d="m675.3 441.4 1.4-2.1c1.4 1.1 3 1.7 4.4 1.7s2.1-.5 2.1-1.5-1.3-1.4-2.8-1.8c-.1 0-.2-.1-.2-.1-2-.6-4.2-1.4-4.2-4s2.1-4.1 4.8-4.1c1.7 0 3.5.6 5 1.5l-1.2 2.2c-1.3-.8-2.6-1.3-3.8-1.3s-1.9.5-1.9 1.4 1.3 1.4 2.8 1.8c.1 0 .2.1.2.1 2 .6 4.2 1.5 4.2 4 0 2.9-2.2 4.2-5 4.2-2 0-4.1-.7-5.8-2z"/></g>
</svg>
