<?xml version="1.0" encoding="utf-8"?>
<!-- Generator: Adobe Illustrator 23.0.1, SVG Export Plug-In . SVG Version: 6.00 Build 0)  -->
<svg version="1.2" baseProfile="tiny" id="Layer_1" xmlns="http://www.w3.org/2000/svg" xmlns:xlink="http://www.w3.org/1999/xlink"
	 x="0px" y="0px" viewBox="0 0 900 600" xml:space="preserve">
<g>
	<path d="M378.41,250.24c-1.92-3.6,0.96-5.07,0.51-18.18c-0.17-4.93,0.28-9.97,1.34-14.79c1.3-5.97-0.15-11.71-0.41-17.57
		c-0.33-7.52-0.56-6.41-2.67-6.88c-0.1-4.01-1.74-7.7-1.64-11.81c0.37-15.35-8.2-9.12-7.09-35.95c0.6-14.43-7.45-23.37-7.81-24.55
		c-1.88-6.3,3.91-16.94-1.64-26.3c-2.97-4.99-2.63-13.43-14.18-17.36c-13.43-4.56-15.65-0.37-19.11-3.08
		c0.92-4.73,0.21-9.86,2.57-14.59c1.96-3.92-2.1-15.12-1.95-8.63c0.15,6.89-2.08,13.56-2.47,20.34c-0.22,3.9-2.01,7.72-3.39,11.51
		c-1.7,4.67-9.82,3.14-15.2,3.29c-0.92,0.82,0.1,2.16-1.34,2.67c2.26,0.92,4.01-0.51,5.75,0c-0.31,2.05-2.36,2.16-3.18,3.49
		c4.36,1.82,4.93-1.95,11.51-5.24c1.59,4.57,4.13,20.91,1.95,34.52c-1.19,7.4-6.27,11.81-14.18,12.33
		c-0.31-2.88,0.41-5.86-0.82-9.25c-1.03,3.18-0.82,5.96-1.44,8.83c-8.73-2.26-15.7-6.17-18.9-15.61
		c-11.38-33.53-5.03-28.16-12.84-44.58c2.26-0.62,4.31-1.03,6.16-2.57c0.62,2.98,2.98,4.52,3.9,7.19
		c1.23-6.37-1.85-12.84,0.92-19.21c-1.44-0.41-3.29-0.21-3.18-2.57c0.62-0.31,1.75,0.41,2.67-0.92c1.31-9.81-1.17-3.69-2.05-9.86
		c2.47,0.41,3.39,2.36,4.83,10.48c3.08-3.6,3.49-7.91,5.24-11.71c1.75-3.8,4.83-6.99,5.86-10.58c1.34-1.23,2.47-0.41,3.49-0.72
		c0.1-1.64,1.95-1.54,2.57-2.57c0.21-1.64-1.44-2.57-1.34-4.01c-1.34-0.62-2.88,0.31-3.6-1.13c2.05-1.75,5.14-0.21,6.88,3.39
		c1.64,0.1,0.72-1.34,1.23-1.95c4.31-1.13,8.52-0.7,12.74,0.21c2.46,0.53,4.52-0.41,7.19-1.03c0,5.24,1.34,10.07,2.88,14.69
		c-9.55,4.73-10.79,6.57-8.42,11.61c1.03-1.03-0.1-2.57,1.23-3.6c2.16,0.92,4.21-0.41,6.57-0.82c0.03-0.1,2.42-8.61,2.05-9.35
		c-2.36-4.11-1.23-8.83-2.47-13.05c1.75-3.29,5.44-4.01,7.91-6.37c0.51-1.13-0.72-2.57,0.51-3.6c-1.75-1.85-3.7-0.21-5.44-0.62
		c0.82-1.54,3.29-1.23,3.8-3.39c-2.05-2.26-3.9-0.1-5.75,0.72c-0.31-2.36,0.72-4.62-0.82-6.88c-1.85,0.92-2.57,3.08-4.62,3.7
		c-0.21-0.62,0.41-1.85-0.92-1.85c-6.32,0-3.01,1.96-14.79,1.44c-2.88-0.13-5.75,0.31-8.32,0.1c-1.64,0.51-1.54,2.67-3.49,2.77
		c-1.03-0.31,0.41-2.05-1.44-2.47c-12.95,10.36-10.09-0.1-15.82,2.47c-0.41,1.75,1.34,2.26,1.95,3.6c-2.67,1.13-2.57,3.6-3.29,5.44
		c2.01,0.77,3.41-2.15,4.79,2.06c0.84,0,1.89-1.35,3.02-0.22c-0.43,3.03-2.78,0.71-2.98,0.31c-0.11-0.33-2.74,0.54-5.03,2.16
		c0.6-2.38,3.59-2.62,0.21-4.31c-3.48,0.58,0.89,0.56-1.75,4.52c-2.98,3.18-2.36,7.6-3.9,11.2c-3,6.96,2.57,13.12,2.16,14.18
		c-1.71,4.43,1.67,7.8,2.36,11.81c1.05,6.06,2.26,6.57-6.99,6.88c-10.83,0.37-9.82,4.07-14.18,2.98c-5.39-1.35-9.25-2.41-13.77,0.1
		c-6.14,3.41-12.31,4.32-16.44,17.57c-6.58,21.14-0.64,12.55-7.91,25.89c-2.58,4.73-5.87,13.53-5.03,18.39
		c2.19,12.73-1.53,29.51-3.49,38.52c-3.59,16.53,5.74,43.4,8.01,72.93c-39.85,6.18-31.01,67.86,10.79,57.22
		c3.61-0.92,3.18-3.42,9.35,0.21c-3.06,25.1-2.19,27.13-3.29,40.17c-1.41,16.84-2.62,21.33,0.1,34.72c0.33,1.64,0.54,2.9-0.82,4.42
		c-1.31,1.46-0.93,3.7-1.13,5.65c-1.15,11.43,0.96,4.41,6.88,6.47c0.62,2.05,0.33,4.41,0.51,6.57c0.36,4.31,1.78,8.42,2.36,12.74
		c1.95,14.38-14.62,22.76-8.53,64.82c0.06,0.4,10.55,66.97,7.5,71.5c-0.62,0.92-1.02,2.36-0.72,3.29c0.96,2.97-0.27,5.66-0.92,8.42
		c-1.73,7.32,2.71,4.82-1.13,11.09c-6.37,10.4,2.37,11.8,6.57,22.19c2.19,5.4,33.29,5.99,38.11,0.21c-1.44-2.57-1.42-5.66-2.88-8.01
		c-4.16-6.71-6.68-14.07-9.76-21.26c-0.73-1.69-4.05-4.45-1.23-5.86c-0.65-3.09-4.2-3.07-2.98-5.65c1.4-2.95,1.55-6.06,1.85-9.25
		c0.42-4.42-1.75-6.88-6.27-6.88c-3.51-12.76,10.05-56.54,10.79-58.55c3.49-9.62,0.56-46.18-0.31-47.05
		c-2.28,1.48-1.19-0.99-0.21,34.93c0.21,7.82-9.18,35.17-10.48,42.01c-1.34-9.35,0.31-18.49-0.62-27.53
		c-4.45,11.72,0.29,15.1-1.54,35.03c-0.64,6.98-1.23,13.97,0.72,21.06c-3.18,1.54-6.47,1.03-9.55,1.95
		c-1.03-2.67,0.51-5.65-1.54-8.32c-1.35,8.1,2.12,9.25-5.55,9.66c0-18.24-8.46-72.09-8.53-74.78c-0.86-34.13,13.92-40.42,7.91-64.31
		c-0.52-2.05-0.62-4.31-0.92-6.47c1.64-1.95,3.8-2.16,6.16-2.16c32.84,0,29.49-2.96,34.72-2.05c-1.75,4.21-1.93,8.54-3.7,12.64
		c-2.13,4.94-2.28,10.47-3.29,15.72c-2.15,11.16-6.38,8.35-8.83,15.41c6.41-2.29,12.24-14.64,11.92-22.91
		c-0.22-5.62,1.82-3.71,7.19-19.83c1.34-1.23,3.08-2.05,5.34-2.05c1.95,0,5.35-4,5.75-6.37c4.27-25.1,3.14-8.35,3.6,2.05
		c0.31,7.12,4.55,3.46,7.29,5.65c-1.16,20.87,10.1,20.37,4.11,50.34c-1.75,8.73-1.96,17.36,0.72,25.99
		c2.87,9.25,3.67,19.01,5.65,28.45c8.13,38.7,2.83,31.46,5.55,37.29c9.15-10.46-12.87-60.38-10.07-89.27
		c2.35-24.2,3.66-14.07,0.41-34.82c-0.79-5.06-4.27-8.78-3.8-15.82c0.21-1.03,1.64-0.82,1.64-1.44c29.53,6.74,39.17-1.55,36.06,6.37
		c-1.25,3.18-1.42,6.57-1.13,9.86c0.44,4.93-1.95,8.83-3.29,13.25c0.72,0.62,2.07,1.66,1.13,2.67c-2.62,2.82-1.64,6.16-1.85,9.45
		c3.47-5.78,1.25-16.26,5.24,7.81c3.58,21.65-4.01,56.56-4.01,88.34c-1.54,0.62-1.44-0.62-1.85-1.13
		c-3.29,2.47-7.19,1.85-10.79,2.88c-1.16-4.66,0.77-10.28-2.05-10.36c0,3.55,0,7.02,0,10.36c-1.95,1.54-5.96,1.03-4.21,5.34
		c-3.29,2.26-4.85,5.14-3.8,9.45c1.17,4.78-5.46,10.66-3.8,15.72c0.86,2.64-3.78,4.68-1.85,7.29c11.02,14.92,16.72,7.38,24.14,11.51
		c0.62,6.16,5.14,7.4,10.48,8.01c7.57,0.87,22.56,0.94,25.37-5.75c4.73-1.03,5.16-1.75,4.01-6.16c-1.62-6.16-4.73-5.9-10.99-14.38
		c-6.76-9.16-16.98-14.3-16.23-26.91c-1.34-1.44-2.98-0.82-4.73-1.23c-0.21-4.52-1.36-9.04-0.82-13.77
		c2.85-24.89,0.88-31.34,4.93-53.21c1.74-9.38-0.98-27.69-2.36-37.08c-0.86-5.87-3.59-7.2-0.62-10.17
		c1.38-1.38-0.22-13.86,0.41-15.1c1.62-3.2,2.16-6.78,3.29-10.17c9.93-1.81,14.24,12.52,8.12-56.91c-1.84-20.8,2.45,0.8-3.6-34.72
		c5.03,5.34,11.2,6.06,16.95,7.09c8.53,1.52,14.76,0.6,26.09-10.27C411.11,288.29,404.72,250.58,378.41,250.24z M322.84,45.2
		c1.23-0.51,1.95-1.13,2.98-0.51C324.99,45.82,324.17,45.2,322.84,45.2z M331.57,16.23c-0.92,0.72-0.72,2.05-2.05,2.47
		C327.88,16.73,329.69,15.55,331.57,16.23z M324.07,9.66c0.82,1.34,0.1,1.85-0.92,2.36C323.04,11.09,323.45,10.38,324.07,9.66z
		 M311.13,21.67c0.41,0.1,0.82,0.31,1.13,0.72C311.54,22.6,310.92,22.8,311.13,21.67z M308.25,21.57c-0.62,0-1.13-0.1-1.13-1.03
		C307.94,20.44,308.46,20.54,308.25,21.57z M309.89,19.11c0.54,0.54-0.15,0.92-0.51,0.92C309.17,19.52,309.48,19.21,309.89,19.11z
		 M308.87,13.25c-0.92,0.82-1.75,1.64-2.88,2.16C306.5,12.84,306.5,12.84,308.87,13.25z M293.66,30.41
		c1.44,1.64-0.21,1.95-0.92,3.08C292.74,31.95,292.74,31.13,293.66,30.41z M291.92,13.97c-0.41,1.23-0.92,1.85-2.36,1.54
		C290.17,14.59,290.68,13.97,291.92,13.97z M292.94,20.75c-0.51,1.95-1.95,3.08-4.01,4.42C289.55,22.5,291.51,21.88,292.94,20.75z
		 M287.91,36.67c0.41,1.34-0.51,1.64-1.44,2.16C286.06,37.08,286.78,36.78,287.91,36.67z M286.68,46.84
		c-0.1,0.51-0.1,1.13-0.92,0.92C285.86,47.25,286.16,46.95,286.68,46.84z M285.24,36.57c-0.82,0.41-1.34,0.72-2.47,1.34
		C283.49,36.47,283.7,35.34,285.24,36.57z M279.79,53.62c-0.34-0.34-0.21-0.09,0.1-0.72C280.7,53.31,280.04,53.37,279.79,53.62z
		 M280.31,35.03c-0.31,1.23-0.62,2.47-0.92,3.7C279.08,37.39,278.46,35.95,280.31,35.03z M276.2,47.97c1.13,0.1,1.64,0.92,2.26,1.75
		c-0.21,1.03-1.44,1.75-1.54,2.98C275.99,51.26,273.94,49.92,276.2,47.97z M269.42,574.95c-0.31,0.62-0.72,0.51-1.13-0.21
		C268.7,574.54,269.21,574.13,269.42,574.95z M268.5,572.18c-0.82,0.41-1.34-0.1-1.95-0.51
		C267.47,570.84,268.08,570.74,268.5,572.18z M242.4,545.06c1.03-1.34,2.47-1.75,4.21-1.44c0.62,7.4,0.21,8.32-4.11,9.14
		c-1.13-0.92-0.62-2.57-1.95-3.8C243.43,548.55,241.79,546.7,242.4,545.06z M245.69,555.02c5.7-3.44,1.11-5.92,3.7-11.09
		c12.92-2.04,11.81-3.85,11.81-0.41c2.67,1.23,4.58-8.62,0,12.43c-4.01,0.21-7.91,0.31-11.3,1.34c-0.43,12.87,3.15,7.45,9.35,9.55
		c2.55,0.87,5.44-1.13,7.7,1.13c-4.73,0.21-9.45-1.34-14.18,0.21c0.41,2.05,2.47,1.75,3.18,3.7c0.38,0.67-3.04,2.68,1.13,4.01
		c17.2,5.46,10.62-7.56,18.59,12.64c1.23-0.51-0.51-1.54,0.62-2.16c0.92,2.47,1.85,4.83,1.85,7.6c-7.08,1.52-5.75,0.29-7.6,0.82
		c-9,2.61-17.77,1.95-26.09-2.16c-0.62-3.39-2.35-6.08-4.83-8.32c-4.06-3.66-3.52-9.67-0.21-13.25c0.84-0.91,1.45-2.06,1.03-3.18
		c-1.79-4.75,0.62-9.45-0.21-14.38C241.79,555.33,243.4,556.41,245.69,555.02z M263.05,559.95c-1.64,0.31-2.88-0.1-4.01-0.72
		C260.28,559.34,261.72,558.41,263.05,559.95z M325.92,535.5c3.8-1.23,14.69-2.98,16.44-2.57c0.51,0.21,0.51,0.72,0.41,1.44
		c-4.12,2.06-10.47-0.76-12.22,2.88c0.31,2.16,1.95,3.49,2.77,5.14c-0.62,1.23-0.62,2.67-1.64,3.6c-2.05-0.92-4.62,1.13-6.37-1.64
		c-0.51-1.13,0.82-3.18-1.85-3.39C324.69,538.89,325.82,537.35,325.92,535.5z M359.92,559.65c1.03,0.72,1.85,1.23,2.05,2.67
		C360.02,561.2,355.42,561.57,359.92,559.65z M348,541.36c0.1,1.23,0.51,2.36,1.03,3.6c-8.22-0.92-9.04-0.62-9.45,2.88
		c-1.44,0.82-3.7-1.03-4.83,1.34c0.92,2.26,3.08,1.64,4.73,2.36c-0.62,0.82-2.36,0.82-2.05,2.67c1.85,2.16,4.62,0.31,6.88,1.13
		c-0.92,3.39-0.62,3.6,6.27,3.18c-6.73,5.94,1.44,3.38,1.54,3.39c3.49,3.39,7.29,2.16,11.4,1.54c2.67,5.96,9.96,8.63,11.71,15.31
		c-2.57,4.21-6.47,5.67-10.89,6.06c-5.33,0.47-3.22,2.6-19.41,0.21c-5.67-0.84-1.51-4.02-6.27-7.29
		c-4.25-2.92-16.16,1.43-22.19-10.27c4.25-6.21-0.21-7.71,2.98-11.3c2.61-2.94,2.77-6.47,2.98-10.27c3.49,3.8,5.05,4.35,9.04,2.88
		c2.99-1.1,3.08-4.01,3.6-6.47c-0.62-1.44-2.36-2.05-2.05-4.11C343,539.04,348,534.91,348,541.36z M329.1,77.87
		c8.35-1.55,24.27,2.06,27.32,15.82c0.77,3.48,3.08,13.04,1.03,17.16c-0.51-0.31-0.62-1.13-1.75-0.82
		c-0.82,2.16-0.69,4.91,0.41,6.68c2.22,3.56,1.34,8.83,5.96,10.99c7.97,19.92-0.09,29.31,6.99,38.83c5.06,6.8,2.09,24.86,6.47,30.41
		c0.67,0.85,1.38-1.71-0.31,53.01c-1.95,0-3.9,0.82-5.75-0.72c-0.72-3.8-1.54-7.7-3.8-11.09c0,3.8,2.47,7.09,1.95,10.99
		c-1.52,1.02-3.35,1.09-3.8-1.95c-4.13-28.12-12.43-34.21-12.43-56.29c0-11.77,2.09-14.08,0-16.33c-2.77-2.98-3.13-7.23-5.75-10.48
		c-2.02-2.5-2.26-6.37-3.39-9.76c3.18-2.05,2.16-6.47,5.34-8.94c0.41,3.8,0.82,7.29,3.08,10.17c0.28-2.51-3.01-8.4-1.64-13.35
		c3.16-11.41,1.06-23.02-0.21-39.04c-0.31,0-0.51,0-0.82,0c0.41,4.11-0.82,8.01-0.62,12.02c0.47,9.08,0.07,27.78-6.68,33.9
		c-2.36-3.18-4.2-6.47-4.73-9.86c-1.31-8.48-9.01-32.29-8.63-43.45c0.2-1.4-1.97-4.55-2.98-19.21
		C326.02,77.25,327.26,78.21,329.1,77.87z M337.22,246.64c0.1-0.72,0.1-1.23,0.1-1.64c-2.82-29.26,1.33-28.26,0.72-34.31
		c-1.1-10.91,2.11-17.97-0.21-19.83c3.29-10.48,0.31-21.16,3.08-31.95c1.95,3.39,2.16,6.88,4.21,9.55
		c8.4,10.94-0.64,23.69,6.37,43.35c2.17,6.1,10.88,32.24,10.07,38.73c-11.09,9.35-11.09,9.35-15.51,18.7
		c-1.13-3.39-2.37-6.57-4.31-9.45C337.38,253.31,342.78,249,337.22,246.64z M211.17,204.22c-2.97-9.14-3.49-21.06-0.92-30.41
		c0.72,3.49,0.62,7.09,3.9,10.17c0.21-4.83-1.44-9.04-0.92-12.94c-1.13-1.34-1.95-0.21-2.88-0.31c6.77-25.73,5.52-3.08,4.11-38.93
		c-0.3-7.71,5-17.44,8.94-24.04c0.72,0.1,0.31,1.23,1.23,0.92c1.23-1.85-1.03-2.67-1.34-4.11c2.42-7.52,1.29-12.34,3.7-16.54
		c5.99-10.43,13.39-17.28,24.86-13.87c0.62,2.16-2.26,1.03-1.95,3.49c5.8,0,6.73,0.43,8.12-1.13c9.46,5.37,11.73,36.9,11.92,46.74
		c0.34,17.66-16.58,24.65-22.19,24.65c-0.62,1.23,0.82,1.03,0.82,1.85c0,0.72-1.44,0.31-1.03,1.64c3.39-0.21,6.68-0.72,9.86-2.16
		c1.44,2.88,3.08,3.9,5.96,3.7c-1.13-1.54-2.98-2.16-4.01-4.21c18-9.16,15.51-42,7.91-60.71c-1.87-4.61-2.67-9.66-4.62-14.38
		c2.05-1.34,3.8-0.72,5.34-0.41c1.4,1.56,3.9,16.87,4.31,20.44c0.65,5.65,4.31,10.58,4.31,16.44c0,1.64,0.1,3.6,1.34,5.03
		c0.62,0.41,0.82-1.13,1.54-0.1c2.26,5.86,5.65,11.3,8.73,16.85c1.03-0.1,0.62-1.03,1.23-1.34c2.88,2.36,6.48,3.27,9.86,4.62
		c16.04,6.39,26.76-12.17,23.93-26.3c-1.54-7.7-1.85-15.61-2.98-23.42c0-0.62-0.1-1.23,1.23-1.54c-0.21,4.31,2.94,7.5,2.98,11.71
		c0.1,10.13,7.14,47.61,15.51,56.6c-2.36,1.64-2.36,4.11-2.05,6.47c0.9,7.03-4.37,65.22-4.83,67.59c-12.09,1.91-1.95,0.82,0.1,1.85
		c-2.25,27.49,15.72,16.36-38.11,17.46c-43.42,0.89-43.07,0.16-44.99-1.64c1.13-7.09-0.82-14.28-0.21-21.57
		c7.19-1.54,13.97,0.82,20.75-0.31c-25.73-3.9-20.2,3.8-20.75-9.86c-1.77-43.59-8.2-34.88-10.99-51.16
		c5.86-6.78,9.14-14.69,9.96-23.83c2.47,1.44,2.88,4.93,5.86,4.42c2.36-6.47,1.23-12.33-2.77-18.08c0-1.44,0.31-3.29-0.62-4.73
		c1.34-2.67,2.88-4.93,2.98-7.81c-1.95,2.47-4.61,4.62-4.93,7.81c-1.45,14.6-4.34,31.07-14.07,41.81c-1.76,1.94-1.03,4.11-1.34,6.16
		c1.95,0.1,1.75-2.05,3.18-2.36c0.92,2.67,2.98,4.73,2.98,7.7c0,2.36,0.61,4.73,1.34,7.09c5.79,18.92,4.51,48.01,4.73,54.86
		c0.45,14.3,0.83,6.21-9.45,9.14c-9.93-25.57,3.12-39.01-2.77-71.09c-0.75-4.1-3.6-7.91-2.26-12.43c0.1-0.1-0.21-0.31-0.41-0.72
		c-2.32,4.1-1.16,4.59,0.82,16.95c4.69,29.32-6.13,44.51,2.67,67.39c-8.2,1.87-14.92,12.08-15.92,13.35
		c0.82-4.93,0.33-9.66-1.03-14.18C216.55,238.21,219.67,230.37,211.17,204.22z M329.41,252.4c-1.85-0.27-1.13,2.16-3.08,1.75
		c-0.1-1.13,0.21-2.16,1.13-3.18c1.13,0.1,2.26,0.21,3.6,0.31c-0.51,1.13-0.21,2.26-1.23,2.98
		C329,253.83,330.23,252.51,329.41,252.4z M211.59,299.44c-5.55-0.22-8.93-4.12-12.53-6.99c-3.49-2.78-4.99-7.38-6.06-11.81
		c-0.54-2.25,0.72-4.21,0.62-6.47c-0.37-8.02,5.38-18.27,7.29-18.59c-3.41,8.18-0.19,1.53,3.49-1.34c0-2.39-5.85,0.71,10.99-6.57
		c1.34,1.34,1.62,2.36,1.44,3.6c-0.7,4.71-1.14,9.45-2.47,13.97c-3.32,11.3,3.91,12.41,2.98,17.98c-0.47,2.78,0.62,5.03,1.75,7.5
		c1.65,3.59,4.73,5.65,7.6,8.12C221.55,301.7,216.62,299.64,211.59,299.44z M220.21,261.43c1.47-7.8,11.4-15.92,18.49-16.03
		c13.8-5.18,48.44,25.61,17.36,52.8C248.7,304.65,212.23,303.86,220.21,261.43z M299.42,368.78c-0.51-0.51-1.34-0.21-1.64-1.03
		C298.45,363.01,299.49,367.85,299.42,368.78z M347.39,395.7c0.21-0.51,0.31-0.92,0.92-0.72C348.52,395.7,348.11,395.8,347.39,395.7
		z M357.76,390.97c-14.04-0.74-29.18,1.56-35.65,0.31c-6.78-1.31-13.56-3.29-20.34-4.93c-4.12-34.71-0.99-8.37,2.26-3.49
		c-2.71-22.92-9.44-21.91-3.08-23.73c3.29,5.55,5.24,11.61,8.42,16.95c-4.55-16.07-9.45-16.43-7.91-24.35
		c1.49-7.61,1.6-15.63,4.21-23.01c3.08-8.7-0.34-7.82,1.85-13.25c3.45-8.59,2.29-24.27-0.92-25.99c0.92,6.88,2.26,13.35,0.31,19.93
		c0-26-0.73,16.57-2.26,19.21c-5.02,8.68-11.5,30.19-11.61,45.82c-0.03,4.52-2.05,8.42-3.49,12.74
		c-18.39,2.26-36.78,2.26-55.27,3.18c4.43-20.47-2.36-15.7,0.1-33.9c2.11-15.56,1.7-44.91,4.83-53.52c3.6,0.82,7.19,1.95,10.99,0.21
		c1.21,5.15-5.94,17.41-1.95,19.72c-0.21-7.4,3.49-13.56,4.31-20.34c9.25-5.14,17.34-10.48,18.59-22.39
		c1.11-10.58-0.1-20.03-8.01-27.74c1.23-0.82,1.64,0.51,2.47,0.21c-0.31-2.16-0.31-2.16-3.29-1.75c-0.92-0.31-1.13-1.34-2.16-1.64
		c-1.03-0.31-2.05-0.62-2.16-1.95c22.5,1.23,44.99,0.62,67.9,2.98c-1.23,1.23-0.41,2.57-1.34,3.49c-1.95,0.41-2.57-0.92-3.18-2.26
		c-1.13,0.21-0.72,1.85-2.16,1.75c-1.75,0.31-0.82-2.16-2.26-2.47c-0.62,1.13-0.41,2.16-0.1,3.08c1.03,1.34,2.77,0.82,3.8,2.05
		c-0.51,6.16,0.92,11.51,5.55,15.82c-2.47-5.03-3.7-10.27-3.08-15.92c0.72,0,1.23-0.1,1.64-0.1c2.04,0,0.65,5.39,9.35,9.35
		c-1.54-3.49-5.24-5.44-5.65-9.25c2.26-0.62,4.11,0.82,6.27,0.21c-1.44-1.54-0.21-2.98,0.21-4.42c0.82,0.92,0,2.26,1.03,2.98
		c2.48-0.62,0.03,0.07,2.26,3.49c3.69,5.67,3.85,8.64,4.31,14.18c2.3-2.02-0.71-9.4,2.77-1.03c-3.77,6.93-1.95,23.38,5.24,28.04
		C353.3,301.01,359.72,358.08,357.76,390.97z M400.7,284.03c-1.2,12.4-6.04,15.66-10.68,20.44c-1.49,1.53-8.81,2.36-12.12,2.36
		c-14.74,0-32.91-10.73-31.23-25.17c-0.82-2.47,1.03-4.83,1.44-7.29C351.32,243.36,404.39,245.88,400.7,284.03z"/>
	<path d="M328.08,521.02l-0.1,0.1C328.1,521.12,328.08,521.18,328.08,521.02z"/>
	<path d="M699.63,280.75c-2.47-3.7-5.75-6.27-9.55-7.7c-4.88-39.58-1.24-32.04-4.01-40.17c-1.24-3.65,0.21-9.34-2.98-12.53
		c-1.02-1.23-0.17-3.09-0.92-12.22c-1.53-18.4-5.57-4.88-3.39-30.92c0.49-5.86,2.34-11.8-0.51-17.36
		c-6.3-12.25,2.96-28.34-8.42-42.73c-12.5-15.81-16.97-12.49-18.9-13.46c-7.4-4.21-16.43-5.66-21.67-13.25
		c-0.92-1.34-2.47-0.62-3.29-2.05c0.21-2.77,0.1-5.76,4.31-6.37c3.04-0.44,2.22-4.7,5.75-11.3c2.59-4.83,0.54-9.75,3.18-15.51
		c2.46-5.35-1.74-15.94-1.64-9.45c0.1,6.88-1.95,13.56-2.47,20.34c-0.31,4.11-2.4,8.1-4.01,12.02c-2.14,5.22-13.37,1.35-15.31,3.29
		c2.16,2.67,5.44,1.23,8.42,2.16c-1.13,5.96-1.44,12.02,0.1,18.39c3.7-2.67,1.64-6.27,2.26-9.25c1.64,0.62,2.67,1.44,2.36,3.29
		c-0.41,2.44,4.67,6.82,2.26,28.97c-0.87,8.02-5.86,12.94-15.2,13.77c-0.1-2.67,0.41-5.44-0.51-8.63c-1.44,2.67-0.92,5.44-1.85,8.01
		c-24.53-6.28-19.93-23.84-30.51-45.82c-6.26-13.01,8.4-3.01,9.04-15.82c0.33-6.48,1.64-13.05,0.72-19.52
		c-0.21-1.44,1.03-2.16,1.54-3.6c-1.75-0.41-3.49-0.41-3.6-2.67c2.53-1.44,2.3,2.45,3.29-6.47c-0.92-1.54-3.18-2.16-2.77-4.42
		c2.57,0.31,3.49,2.36,4.93,10.58c3.08-3.9,3.47-8.33,5.34-12.12c1.83-3.71,4.52-7.09,5.86-10.48c1.54-1.13,2.57,0.1,3.18-0.82
		c0.82-0.72,1.75-1.54,2.77-2.36c0.72-1.03-1.03-2.26-0.82-4.01c-1.34,1.23-2.98-0.1-4.52,0.41c0.92-0.51,1.13-1.85,2.36-1.95
		c0.82,0.31,1.75,0.51,2.16,1.54c2.26,0.72,2.26,0.72,3.39,3.18c1.64,0,0.72-1.34,1.13-2.05c4.31-1.13,8.74-0.67,13.05,0.21
		c2.37,0.48,4.52-0.51,7.19-1.03c-0.62,5.44,1.75,10.07,2.57,14.9c-8.42,3.39-10.68,5.44-8.22,11.4c0.92-1.03,0-2.57,1.03-3.7
		c2.16,0.72,4.31-0.31,6.68-1.03c1.5-6.01,2.41-8.42,2.05-9.14c-1.69-2.6-1.38-5.8-2.36-13.35c1.64-3.08,5.24-3.8,7.7-6.16
		c0.51-1.23-0.62-2.57,0.51-3.8c-1.64-1.44-3.39-0.31-4.93-0.82c0.62-1.54,2.88-1.13,3.18-3.18c-2.05-2.26-3.9-0.1-5.86,0.72
		c-0.1-2.26,0.72-4.52-0.51-6.68c-1.95,0.31-2.26,2.47-4.01,2.88c-1.13-1.44-3.07-1.61-4.52-0.92c-3.67,1.74-6.64,1.23-20.03,1.23
		c-1.95,0.51-1.75,2.98-3.9,2.77c-0.92-0.51,0.41-2.16-1.44-2.47c-2.47,2.57-5.34,4.73-9.76,4.93c-1.64-0.82-2.88-3.6-5.86-2.26
		c-0.62,1.75,1.34,2.16,1.75,3.39c-1.7,1.7-7.29,18.35-7.6,19.11c-1.96,4.72-1.85,9.45,0.41,13.97c2.69,5.37-0.76,3.91,1.03,7.81
		c4.5,9.82,1.73,10.18,4.31,14.69c1.92,3.35,0.41,12.64-2.77,14.79c-3.18,2.16-6.68,4.29-10.38,5.34
		c-10.03,2.85-15.83,8.46-25.06,12.12c-8.89,3.52-17.26,9.51-18.59,19c-0.94,6.67-3.76,9.72-2.05,17.26
		c0.85,3.74,1.76,11.04-0.62,14.07c-9,11.49-2.95,22.46-5.96,31.74c-6.4,19.79,0.68,18.22-2.26,34.41
		c-2.13,11.72,2.56,22.28,1.54,26.3c-1.19,4.69,4.08,14.23,6.78,29.38c-7.63-1.11-18.38,4.58-20.65,14.69
		c-0.6,2.67-2.26,5.03-2.77,7.81c-2.16,11.55,0.7,29.68,13.77,34.41c23.5,8.52,19.83-5.89,24.65,1.34
		c-0.51,10.07-0.97,20.23-2.26,30.3c-1.97,15.41,3.93,21.49,0.41,24.65c-1.17,1.05-1.71,9.19-0.82,12.64
		c2.36-0.92,4.52-1.54,6.99-0.51c-0.89,15.52,6.32,18.34,0.51,31.33c-13.39,30-6.18,50.56-0.51,93.27
		c1.36,10.24,1.19,21.8,2.16,25.06c1.78,6-2.19,5.77-1.44,9.14c1.46,4.87-2.94,9.9-0.82,14.48c1.73,3.74-6.64,9.15-2.47,15.41
		c7.76,11.64,7.57,15.51,20.96,16.33c5.16,0.32,22.33-0.05,25.06-4.42c-19.8-44.35-15.63-33.27-14.07-34.82
		c0.49-3.11-4.9-2.46-2.47-6.78c1.63-2.89,1.21-6.16,1.44-9.25c0.28-3.91-2.26-6.06-6.27-5.65c-3.45-13.81,10.44-57.91,10.68-58.55
		c5.24-14-3.5-89.38-0.51-16.64c0.46,11.07-6.67,33.07-10.48,46.12c-1.23-8.83,0.21-17.87-0.62-26.91
		c-4.28,10.5,0.18,16.48-1.34,33.08c-0.69,7.6-1.54,15.2,0.62,22.8c-3.39,1.23-6.57,1.23-9.66,1.75c-0.62-2.77,0.41-5.44-1.44-8.73
		c-0.21,3.49-0.31,6.27-0.41,9.04c-6.71,3.58-4.74-1.42-5.14-5.96c-2.94-34.01-9.57-53.59-7.19-87.32
		c1.37-19.38,11.08-14.27,5.55-51.16c1.54-1.85,3.39-2.13,5.55-2.16c38.2-0.47,30.54-2.85,35.23-2.16
		c-0.08,0.22-5.05,14.56-7.19,29.07c-1.39,9.42-6.49,8.27-8.63,14.69c6.53-2.35,11.77-14.96,11.71-22.7
		c-0.06-7.23,2.56-4.11,7.19-20.13c1.44-1.34,3.18-2,5.34-1.95c1.95,0.05,5.33-4.01,5.65-6.37c1.16-8.5,1.08-10.21,2.98-12.64
		c1.01,3.19,0.37,9.27,0.62,14.9c0.31,7.03,4.61,3.4,7.29,5.55c-0.32,5.84,2.62,18.8,2.67,18.9c8.7,19.96-4.73,35.62,2.16,57.83
		c1.16,3.76,9.49,45.34,10.17,55.68c0.49,7.44-0.62,7.5,1.03,9.14c7.05-7.76-8.58-58.07-10.48-74.48c-1.02-8.8,1.5-22.76,2.47-31.54
		c1.62-14.73-5.99-25.76-5.55-34.1c3.81-2.54,19.5,4.56,36.57,1.23c3.8,3.09-0.97,3.57,0,14.38c0.42,4.62-1.95,8.42-3.18,12.53
		c-0.21,1.03,1.44,1.03,1.13,2.57c-2.36,2.67-1.95,6.37-1.54,10.07c3.11-11.39,1.88-9.5,4.83,7.7c3.56,20.76-5.38,72.35-3.8,88.14
		c-1.64,0.72-1.54-0.62-2.05-1.03c-3.29,2.26-7.19,1.44-10.68,2.98c-0.82-3.7,0.21-7.09-1.23-10.99c-1.54,4.11-0.51,7.6-1.03,11.09
		c-1.75,1.34-5.75,0.82-3.9,5.03c-3.29,2.36-4.86,5.25-3.8,9.45c1.2,4.77-5.42,10.42-3.8,15.72c0.9,2.96-5.08,4.04,0.1,10.07
		c8.09,9.4,15.88,5.53,22.09,8.63c1.1,10.62,20.72,9.4,29.69,6.99c6.08-1.64,4.88-4.87,9.04-5.55c3.61-0.59,0.4-8.96-2.36-11.3
		c-5.17-4.38-8.54-10.26-13.15-15c-6.07-6.25-10.41-10.24-10.68-20.24c-1.13-1.85-3.18-0.82-4.83-1.54
		c-1.38-25.34,0.35-9.63,1.75-49.31c0.6-17.08,4.42-9.06,2.05-39.55c-1.71-22.02-5.38-21.75-3.8-23.63
		c4.74-5.64-0.71-13.82,3.08-20.13c1.23-2.05,0.51-4.83,2.16-6.78c11.59-2.32,12.32,13.23,7.7-60.61c0-3.57,2.33,1.68,13.46-1.23
		c6.68-1.75,13.04-4.32,17.36-10.27c4.41-6.07,8.39-12.33,8.83-19.93C710.85,287.59,701.62,283.4,699.63,280.75z M636.35,40.27
		c0.51,0,1.13-0.72,1.64,0.1C637.59,41.3,636.97,40.58,636.35,40.27z M641.39,11.92c2.16-1.23,2.91,0.65,0.62,2.26
		C641.39,13.35,641.18,12.64,641.39,11.92z M636.56,5.24c0.72,1.23,0.21,1.75-0.92,2.26C635.84,6.57,635.74,5.75,636.56,5.24z
		 M626.08,12.43c0.21,0.51-0.41,0.62-1.13,0.62C625.36,12.22,625.88,12.02,626.08,12.43z M625.46,18.18
		c-0.92,0.41-1.54-0.1-2.26-0.82C624.33,17.16,624.85,17.67,625.46,18.18z M621.36,8.32c-0.62,1.34-1.75,1.85-3.08,2.88
		C618.48,8.83,619.3,7.91,621.36,8.32z M606.77,26.09c0.21,1.44-0.62,1.95-1.54,2.26C605.54,27.53,604.92,26.3,606.77,26.09z
		 M604.1,9.76c-0.1,0.82-0.51,1.34-1.64,1.03C602.76,10.27,602.97,9.35,604.1,9.76z M605.43,16.33c-0.51,1.95-2.05,2.98-3.7,3.9
		C602.25,18.18,603.79,17.16,605.43,16.33z M591.77,34.82c-0.41-3.08-0.41-3.08,1.03-4.42C592.49,31.84,592.18,33.08,591.77,34.82z
		 M600.6,32.05c-0.1,1.34-0.72,1.85-1.64,2.05C598.55,32.77,599.17,32.26,600.6,32.05z M599.27,42.43c-0.1,0.62-0.41,1.03-1.13,1.54
		C598.24,42.84,598.45,42.32,599.27,42.43z M597.21,32.15c-0.41,0.31-0.82,1.03-1.64,0.82C595.81,31.06,597.63,31.53,597.21,32.15z
		 M590.85,15.31c2.16-0.92,2.16,1.44,3.49,1.75c0.82,0.31,1.64-1.23,2.67-0.1c0,0.72-0.41,1.23-1.13,1.85
		c-2.16-1.95-4.42-1.03-6.68,0.51C589.92,17.87,590.95,16.74,590.85,15.31z M589.61,48.38c-0.92-1.44-3.01-2.7-1.13-4.62
		c0.72-0.74,1.97,0.56,2.57,1.64C590.33,46.23,589.41,47.05,589.61,48.38z M581.19,575.88c-0.51,0.51-0.92,0.41-1.44,0
		C580.16,575.57,580.68,575.36,581.19,575.88z M580.27,573.1c-0.92,0.41-1.34,0-1.85-0.72C579.44,571.97,580.06,572.07,580.27,573.1
		z M560.85,545.16c3.9-0.72,7.7-2.05,11.4-2.26c1.03,0.51-0.1,1.64,0.92,1.85c1.03,0,1.23-1.44,2.47-1.23
		c-0.31,4.42-2.05,8.63-2.57,13.05c-4.11,1.03-8.12,0.31-11.71,2.16c0,12.48,2.33,7.32,9.25,9.35c2.56,0.75,5.44-0.92,7.81,1.03
		c-4.62,0.72-9.45-1.75-14.07,0.41c0.51,2.05,2.67,1.64,3.08,3.39c0.41,0.92-1.23,1.44-0.72,2.88c1.95,2.16,4.93,1.87,7.5,2.47
		c10.68,2.47,5.4-7.45,13.05,11.4c0.62-0.1,0.31-0.92,1.13-0.82c0.21,2.16,1.95,4.11,1.13,6.68c-11.4,0.92-22.8,4.62-33.49-1.75
		c-0.62-3.29-2.35-5.97-4.83-8.22c-3.81-3.46-3.45-9.62-0.31-13.05c1.03-1.12,1.64-2.36,1.13-3.8c-1.65-4.62,0.72-9.14,0-13.87
		c1.64,1.64,3.09,2.78,5.24,1.44C563.03,552.64,558.75,551.82,560.85,545.16z M574.2,560.67c-1.44,0.51-2.67,0.21-4.52-0.1
		C571.53,560.36,572.77,559.95,574.2,560.67z M554.38,548.96c-1.26-3.79,2.01-4.79,3.9-4.31c0.72,5.86,0.82,8.22-3.9,9.25
		c-1.13-0.92-0.92-2.57-1.64-3.49C552.94,549.27,553.97,549.68,554.38,548.96z M637.48,536.33c6.06-0.72,11.4-2.67,17.26-1.75
		c-3.7,2.88-8.73,0.21-12.22,3.29c0,2.57,1.75,3.8,2.57,5.55c-0.62,1.23-0.62,2.67-1.64,3.8c-1.85-1.44-4.73,1.23-5.96-1.13
		c-0.92-1.44,0-2.77-0.92-3.7C633.37,543.18,637.92,539.03,637.48,536.33z M673.95,563.04c-1.64-0.31-3.08-0.62-4.62-0.92
		C671.28,560.36,672.61,560.67,673.95,563.04z M660.6,545.88c-6.68-1.44-9.55-0.82-9.14,2.88c-1.44,1.03-3.9-1.34-5.03,1.34
		c0.92,2.36,3.08,1.54,4.73,2.16c-0.41,1.13-2.36,0.92-1.95,3.08c1.75,1.85,4.52,0.21,6.78,1.03c-0.1,0.72-0.92,1.44-0.31,2.26
		c1.54,2.05,4.01,0.51,6.06,1.13c-0.72,1.13-2.16,1.54-2.05,2.98c1.34,2.16,3.08-0.31,4.62,0.21c1.95,2.47,4.73,2.88,10.99,1.44
		c2.77,5.86,9.96,8.63,11.71,15.2c-2.47,4.11-6.16,5.74-10.27,6.06c-6.31,0.49-4.47,2.96-20.75,0c-5.01-0.91-1.35-7.72-9.04-8.22
		c-8.21,0-14.96-1.7-18.8-9.04c4.49-5.39-0.29-7.75,3.39-11.81c2.49-2.75,2.47-6.16,2.77-10.58c2.05,4.52,5.14,4.83,8.53,3.6
		c3.29-0.92,3.29-3.9,4.01-6.57c-0.82-1.34-2.47-2.16-2.16-4.21C661.7,540.64,657.6,533.91,660.6,545.88z M656.38,548.96
		c-1.46,0-1.85,0.1-1.64-0.31C654.84,548.65,656.38,548.67,656.38,548.96z M644.98,104.37c4.42,1.74,9.25,2.35,13.25,4.93
		c11.22,7.25,16.46,17.77,15,30.92c-1.88,16.9,7.97,22.63,4.62,31.13c-2.55,6.48-1.32,12.94-0.72,19.42
		c0.21,2.26-0.11,4.93,0.72,6.88c5.8,13.58,1.47,23.33,4.11,25.68c2.13,1.9,1.11,3.21,2.77,13.25c2.19,13.25-1.3,16.65,1.23,24.45
		c1.37,4.2,0.51,8.32,1.13,12.64c-4.42,0.41-8.42-0.1-12.43-0.82c-0.24-10.25-5.33-23.48-8.32-28.97
		c-5.45-9.99-2.82-23.6-6.78-36.06c-1.14-3.59,0.21-8.01-4.11-10.27c-11.52-32.92,5.56-29.38,8.22-53.42c0.42-3.8-0.92-7.7,0-11.61
		c0.21-0.62-0.21-1.13-1.54-1.44c-0.08,0.4-3.55,30.47-7.4,24.86c-9.89-14.42-12.18-43.21-16.74-54.75
		C640.77,101.8,642.62,103.44,644.98,104.37z M648.89,247.98c-2.08-18.73-0.14-28.18,2.16-53.42c1.54,3.8,3.51,7.29,4.42,11.2
		c3.05,13.16-0.98,22.31,8.42,39.04c3.68,6.55,10.01,26.72,8.32,28.97c-3.49,0.82-6.99,2.36-10.68,4.83
		c-0.21-3.18-3.24-4.41-3.7-7.19c-1.51-9.2-7.37-11.16-6.27-18.59C651.89,250.55,651.25,248.7,648.89,247.98z M580.57,87.21
		c0.1,8.32,10.38,40.06,19.11,50.13c1.03,0.51,0.51-1.34,1.64-0.82c2.98,2.26,6.89,3.07,10.58,4.31
		c18.01,6.07,32.11-16.42,20.44-44.07c1.95,0.62,1.73,1.96,2.05,2.98c10.07,32.23,8.62,49.42,21.16,59.38
		c-1.23,1.85-2.36,3.9-3.6,5.86c-1.95-0.1-3.49,0.62-4.93,1.95c1.13,0.92,2.36-0.21,3.49,0.72c-4.01,19.52-2.77,39.55-5.44,59.38
		c-1.75,0.92-3.7,0.31-5.44,1.03c1.85,1.03,3.8-0.21,5.55,0.82c-0.51,6.27,0.92,12.53,0.82,19.11c-28.25-3.18-56.19,0.1-84.34-1.75
		c1.85-7.6-0.62-15.31,0.21-23.11c7.6-1.23,14.69,0.51,21.78-0.1c-7.19-0.82-14.38-2.16-21.57-1.34c-0.26-0.42-0.41-0.56-0.47-0.59
		c0.23-0.1,1.23-1.85-0.66-21.9c-0.72-7.7-6.54-13.8-1.34-15.1c-1.95-3.6,0.82-6.27,1.34-9.86c10.52,11.83,1.06-2.22,0.72-2.67
		c3.78-16.85-2.03-13.42,4.83-16.85c1.95,1.64,4.11,3.29,7.4,3.7c-1.54-2.16-3.7-2.67-4.52-4.62
		C599.09,135.49,571.33,85.23,580.57,87.21z M640.15,253.22c-0.92-0.1-0.31,2.77-2.26,1.64c0.31-1.13,0.41-2.26,1.13-3.18
		c1.34,0.41,2.57,0,3.7,0.92c-0.51,0.82-0.1,2.05-1.13,2.67C640.56,254.96,642.21,253.32,640.15,253.22z M559.72,259.17
		c-0.31-3.6-0.41-6.37,0.1-9.14C559.93,252.81,561.57,255.58,559.72,259.17z M556.84,251.37c1.93,11-3.56,12.17-4.11,14.59
		c-0.79,3.48-3.08,4.83-6.47,4.83c-2.27-25.92,6.87-12.18,0.92-59.79c-0.78-6.26-2.13-9.48,8.94-20.54c0.1,4.01,0.54,7.6,0.72,11.3
		c0.92,19.46-0.49,39.96,2.47,43.66C556.84,246.85,556.41,248.91,556.84,251.37z M558.8,261.95c-0.82,2.26-0.62,4.93-2.36,6.88
		C556.23,266.16,557.36,264,558.8,261.95z M562.6,152.44c0.72,0.62,1.95,0.92,0.72,2.47C562.39,154.09,562.08,153.37,562.6,152.44z
		 M525,186.75c0.41,4.31,0.1,6.27-1.44,9.14C523.66,192.71,523.77,189.84,525,186.75z M524.59,210.79c0.19,0.22,4,9.07,2.88,1.95
		c-2.66-16.78,1.26-21.61,0.72-24.24c-1.13-5.53,0.62-11.2,0.1-16.85c3.47,7.81,1.37,8.17,2.57,12.12c1.03-5.03-0.82-17.16-2.77-19
		c-1.51-12.06,9.45-14.64,5.86-30.51c-1.3-5.76-0.21-11.4,1.13-17.05c2.89-12.18,16.42-13.03,39.24-26.81
		c9.13,37.45,8.61,49.6-6.99,60.71c-2.77-2.98-0.41-7.19-3.18-10.38c-5.91,9.33-1.59,11.18-4.11,25.06
		c-5.28,29.05-11.24,25.41-11.81,31.95c-0.92-2.67,0.31-5.24-0.1-8.32c-1.64,2.77-1.97,5.34-2.26,7.81
		c-2.12,17.8-2.59-3.1,1.54,32.77c0.87,7.51-3.33,28.71-4.73,34.21c1.13,2.98,1.23,5.55,1.13,8.01c-3.39,1.95-6.06,4.42-8.63,7.5
		C531.94,264.31,519.39,226.76,524.59,210.79z M527.05,326.87c-29.77-9.77-16.67-50.9-4.31-52.08c-2.36,1.34-4.58,2.79-5.65,5.34
		c-1.68,4.03-4.52,7.81-4.01,12.64c0,2.16-3.57,2.02,0.21,11.3c-2.26-6.88,1.13-12.84,2.88-19.11c2.06-7.4,8.83-9.04,14.48-13.46
		c0.31,3.39,1.25,5.54,2.16,7.81c1.15,2.89-0.29,1.23-4.42,24.96c-1.02,5.86,1.31,7.34,11.3,19.83
		C535.37,325.84,531.25,328.25,527.05,326.87z M532.29,310.23c-1.54-1.75-2.05-3.8-0.92-6.27
		C531.68,306.22,531.98,308.17,532.29,310.23z M537.94,282.08c1.53-3.7,4.81-6.08,7.91-8.53c2.35-1.86,5.24-1.12,8.01-1.13
		c27.65-0.15,24.85,31.33,24.96,32.46c1.85,19.41-23.98,24.68-31.43,20.54C531.59,316.65,531.19,298.47,537.94,282.08z
		 M610.88,369.4c-2.36-0.62-0.82-1.85-1.13-3.6C610.67,367.24,611.19,367.96,610.88,369.4z M659.16,396.83
		c0-0.51,0.31-0.82,0.82-1.03C660.29,396.62,660.08,396.93,659.16,396.83z M669.43,392c-38.9-0.88-18.73,4.53-55.68-4.52
		c-4.91-33.12-0.43-7.27,2.26-2.57c-0.82-8.01-3.39-15.51-5.86-23.22c1.34-0.31,2.05-0.82,2.88-0.62
		c3.18,5.55,5.14,11.51,8.32,16.95c-3.25-13.73-10.21-16.05-7.19-29.89c1.39-6.36,1.62-13.02,3.9-19.21c2.23-6.06-1-5.64,1.34-11.92
		c3.45-9.26,1.99-25.08-0.82-25.68c0.72,6.57,2.26,13.05,0.51,19.52c-0.21-2.88-0.31-5.65-0.41-8.53
		c-0.31,7.7-2.38,15.43-1.13,23.22c0.74,4.63-12.44,21.89-12.64,50.44c-0.03,4.52-2.05,8.42-3.49,12.74
		c-18.29,1.95-36.57,2.47-55.06,2.98c4.04-22.43-2.51-14.66,0-34.31c2.16-16.92,1.01-24.33,2.47-28.15
		c11.69,1.17,10.72,3.85,24.35-3.7c7.57-4.19,14.09-26.75,2.98-45.4c-4.65-7.8-9.32-8.22-17.67-10.89
		c1.23-5.96,2.47-11.81,8.53-14.79c0.31,0.51,0,1.75,1.13,2.26c0.92-0.62,0.51-1.95,1.23-2.67c1.44-0.51,2.67-0.31,3.6,1.13
		c1.03-2.47,3.08-1.03,4.93-1.44c-1.23-3.29-5.03,0-5.86-3.8c-1.75,4.31-3.8-0.1-5.65,1.23c-0.1-0.92-0.1-1.95-1.44-2.16
		c-1.75,1.23-0.31,4.21-2.67,5.44c-0.1-2.16-0.41-4.01,0.1-6.37c24.96,1.95,50.03,0.82,75.3,3.6c-1.13,1.23-0.41,2.47-1.23,3.29
		c-1.85,0.51-2.77-0.41-3.08-2.05c-1.23,0-0.82,1.75-2.26,1.64c-1.85,0.51-0.62-2.47-2.36-2.47c-1.25,3.75,1.14,3.87,3.7,4.93
		c-0.56,7.92,1.56,12.41,6.57,17.98c0-1.43-5.1-8.37-4.01-17.67c4.75-2.85,0.99,4.77,10.89,8.73c-1.34-3.49-5.24-5.34-5.44-9.25
		c2.05-0.92,4.01,1.13,5.96-0.1c-0.92-1.54,0.41-2.67,0.51-3.8c1.23,0.31-0.62,3.18,1.75,2.47c2.36,5.65,6.27,10.79,5.55,17.87
		c1.85-1.75,0.82-3.29,1.23-5.03c2.36,3.9,2.36,8.01,4.01,11.71c-5.03,4.21-4.11,10.58-6.78,15.72c-0.89-0.7-0.84-1.95-1.85-2.41
		c-0.06,2.14,1.85,3.67,1.54,5.91c-1.12,8.12,2.25,28.59,15.2,33.49C668.81,352.45,672.92,372.07,669.43,392z M704.56,314.34
		c-4.73,7.38-7.21,14.36-24.45,17.87c-3.59,0.73-7.4,1.98-10.27-2.05c-1.52-2.13-3.33,1.53-9.45-6.78
		c-3.69-5.01-7.34-18.03-3.49-31.13c5.81-19.8,27.37-18.97,35.13-14.69C703.45,283.86,713.61,300.23,704.56,314.34z"/>
	<path d="M626.08,40.78c-0.49-6.86-12.63-4.62-16.33-1.03c2.16,0.21,3.18-1.13,4.83-1.64c1.75,1.03,4.11,0.92,6.27,1.75
		c-3.08,0.72-6.37,0.82-9.14,2.67C627.52,45.4,618.65,40.78,626.08,40.78z"/>
	<path d="M309.48,47.77c0.51-2.16,2.16-2.67,4.21-2.36c-1.44-5.65-10.38-6.27-16.03-1.23c3.7-1.85,7.19-1.23,10.99,0.21
		c-3.39,0.92-6.68,0.51-9.25,2.98c1.64,0.1,3.29,0.3,5.03,0.41C306.09,47.87,307.63,47.77,309.48,47.77z"/>
	<path d="M640.98,441.42c0-0.04,0-0.07,0-0.11C640.87,441.31,640.8,441.29,640.98,441.42z"/>
	<path d="M640.98,441.42c0.23,8.79,1.64,17.59,1.44,26.39c-0.02,0.72,0,1.34,0.62,1.85C648.57,454.58,641.28,441.71,640.98,441.42z"
		/>
	<path d="M246.2,428.57c-3.49,2.98-5.55,6.47-6.06,11.51c2.05-3.29,2.57-6.78,5.75-9.14c-0.21,2.26-0.72,4.11-1.75,5.65
		c-5.44,8.22,0.49,13.99-2.67,22.5c-1.2,4.78,3.72-1.59,2.36-8.42c-2.11-10.61,1.12-11.52,4.31-20.65
		C247.33,429.39,246.72,428.98,246.2,428.57z"/>
	<path d="M331.36,468.22l0.1-0.1C331.42,468.12,331.41,468.05,331.36,468.22z"/>
	<path d="M329.92,442.74c-1.47,4.21,0.64,3.27,0.82,23.73C330.81,473.14,337.18,456.41,329.92,442.74z"/>
	<path d="M269.73,398.26c-11.16,14.74-17.1,10.41-23.22,9.55C254.73,416.22,268.75,407.41,269.73,398.26z"/>
	<path d="M581.6,398.78c-3.9,5.65-8.42,9.76-15,11.71c-2.57-0.1-5.24-1.64-8.22-1.44C567.09,417.5,581.6,407.24,581.6,398.78z"/>
	<path d="M598.96,68.31c-1.23-3.8-3.08-7.5-2.57-11.81c-4.11,3.39-0.1,7.4-0.92,11.09C608.34,77.77,618.07,81.22,598.96,68.31z"/>
	<path d="M286.57,72.83c-1.34-3.9-2.98-7.6-2.67-11.81c-4.01,3.39,0.21,7.29-0.72,10.89C291.64,80.37,308.57,86.89,286.57,72.83z"/>
	<path d="M306.91,107.55c1.12-0.63,2.36-1.23,1.34-2.98c-1.75,0.21-3.39,1.54-5.75,0.62c-2.77-3.39-7.4-3.6-11.71-4.83
		c1.75,1.64,4.31,2.05,6.47,3.49c0.31,0.82,0.62,1.75,1.03,2.88C301.26,105.7,303.71,109.36,306.91,107.55z"/>
	<path d="M612.62,110.63c-3.57-2.5-16.47-5.48-6.27-1.34c2.17,0.88,4.41,1.75,6.06,3.6c4.6,5.15,12.17-3.2,5.65-1.34
		C616.12,111.97,614.56,111.99,612.62,110.63z"/>
	<path d="M565.78,420.25c-0.76,4.84-2.67,9.86,2.88,14.38c-1.54-6.16-3.29-11.61,0.62-17.36
		C566.29,417.27,566.01,418.81,565.78,420.25z"/>
	<path d="M254.22,418.3c-0.83,5.03-3.18,10.27,2.67,15.1c-1.54-5.96-3.29-11.4,0.51-16.85C255.04,415.93,254.42,417.06,254.22,418.3
		z"/>
	<path d="M637.17,413.26c1.28,2.57,16.8-1.55,13.87-6.68C647.59,412.94,638.19,410.97,637.17,413.26z"/>
	<path d="M650.84,445.42c2.01-2.3,3.08-4.93,2.26-8.12c-3.18,9.31-6.59,6.19-5.75,18.28C650.13,448.16,648.24,448.4,650.84,445.42z"
		/>
	<path d="M325.3,412.44c0.92,1.64,2.36,1.32,3.6,0.92c6.97-2.23,11.56-2.96,10.38-7.91C335.66,411.96,326.43,410,325.3,412.44z"/>
	<path d="M341.12,441.51c0.82-1.34,1.03-3.29,0.21-5.03c-1.42,6.16-7.18,8.27-5.75,16.85C337.08,452.82,336.86,446.72,341.12,441.51
		z"/>
	<path d="M307.74,70.26c0,3.23,8.23,0.59,13.66,0.72C322.17,68.27,321.17,68.98,307.74,70.26z"/>
	<path d="M620.33,65.95c2.05,1.95,11.92,1.23,14.48-1.13C629.47,64.51,624.95,65.74,620.33,65.95z"/>
	<path d="M311.64,75.91c2.67,2.05,5.75,1.64,7.81-1.13C315.23,72.32,313.59,72.63,311.64,75.91z"/>
	<path d="M623.92,71.91c2.77,1.44,5.44,0.62,8.53-0.21C629.68,67.59,625.98,67.9,623.92,71.91z"/>
	<path d="M293.66,90.5c0.1,1.44,1.44,1.03,2.05,1.85c0.31,2.16,0.41,4.62,2.16,6.57c-0.82-3.49,0.21-7.19-2.26-10.38
		C294.28,88.96,293.97,89.78,293.66,90.5z"/>
	<path d="M326.12,429.9c0.1,4.62,1.95,8.73,3.7,12.84C329.21,438.33,329.1,433.7,326.12,429.9z"/>
	<path d="M605.95,83.72c-2.05-3.6-3.6-7.5-6.68-10.17C601.02,77.25,602.66,80.95,605.95,83.72z"/>
	<path d="M637.59,431.03c0.51,3.7,1.44,7.09,3.29,10.27C640.98,436.99,639.85,432.68,637.59,431.03z"/>
	<path d="M321.19,61.84c-2.28-2.05-9.01-0.55-6.16,2.05C316.47,61.94,319.24,64.51,321.19,61.84z"/>
	<path d="M293.46,88.04c-2.05-3.39-3.49-7.19-6.57-10.68C287.19,80.33,290.48,85.78,293.46,88.04z"/>
	<path d="M628.55,402.99c3.6,1.85,7.6,1.64,11.4,1.75C636.15,404.12,632.55,402.68,628.55,402.99z"/>
	<path d="M558.9,430.93c-0.1-0.05-0.12,0.01,0.1-0.21c-0.31-0.41-0.51-0.72-0.82-1.23c-3.7,2.88-5.65,6.57-6.27,11.61
		c2.26-3.29,2.67-7.29,5.96-9.35c-1.69,8.47-5.64,8.1-4.11,17.77c1.61,10.12-1.92,10.21-0.1,12.33c5.74-9.36-2.72-15.34,4.21-25.17
		C558.42,435.9,561,430.23,558.9,430.93z"/>
	<path d="M609.64,100.05c-0.92-3.49,0.31-7.6-2.98-10.27c0.1,1.85,1.03,3.49,1.03,5.44C607.8,96.97,608.31,98.72,609.64,100.05z"/>
	<path d="M338.04,419.43c-2.36,0.31-4.01,1.64-5.96,2.16C334.75,424.05,337.22,423.23,338.04,419.43z"/>
	<path d="M633.58,57.42c-3.18-1.95-5.75-1.23-6.47,1.75C628.96,57.83,631.73,59.58,633.58,57.42z"/>
	<path d="M649.6,420.56c-2.16,0.31-3.7,1.75-5.86,2.26C646.06,425.75,650.74,423.15,649.6,420.56z"/>
	<path d="M572.77,479.42c0-3.18,0-6.37,0-10.27C571.23,473.05,571.33,476.23,572.77,479.42z"/>
	<path d="M260.69,478.29c0.62-2.98,0.21-6.06,0.92-9.66C259.66,471.1,259.35,473.46,260.69,478.29z"/>
	<path d="M328.18,403.4c-3.39-0.62-6.68-1.13-10.07-1.75C315.02,401.65,320.38,404.22,328.18,403.4z"/>
	<path d="M547.91,460c1.23-3.9,0.62-7.29,0.82-10.58C548.52,452.71,547.5,456,547.91,460z"/>
	<path d="M643.95,469.86c0-0.1-0.62-0.1-0.82-0.21C641.1,475.3,643.64,485.57,643.95,469.86z"/>
	<path d="M330.64,476.64c1.85-2.36,2.16-6.88,0.72-8.42C330.44,470.89,330.23,473.66,330.64,476.64z"/>
	<path d="M236.75,448.29c-1.06,10.93-1.2,9.76-0.1,9.76C237.33,447.2,237.28,448.29,236.75,448.29z"/>
	<path d="M609.95,102.62c-1.13,2.36-0.62,4.01,0.51,5.65C612.01,106.22,612.01,105.81,609.95,102.62z"/>
	<path d="M310,104.06c2.47,0.51,4.83-0.1,7.19-0.82C314.72,103.24,312.15,102.11,310,104.06z"/>
	<path d="M270.76,403.61c-0.92,2.67,0.82,3.6,1.85,4.83C272.4,406.89,272.91,404.94,270.76,403.61z"/>
	<path d="M582.32,404.94c-0.72,2.47,1.03,3.29,1.85,5.14C584.37,406.48,584.37,406.38,582.32,404.94z"/>
	<path d="M629.47,110.33c-2.47-0.41-5.14-1.54-7.6,0.72C624.44,110.74,626.9,110.53,629.47,110.33z"/>
	<path d="M326.64,509.21c0.31-1.54,0.41-3.08-0.21-4.83C325.4,506.95,325.4,506.95,326.64,509.21z"/>
	<path d="M614.78,121.63c-0.41,1.85-0.51,3.7,0.92,5.65C616.42,124.91,616.12,123.17,614.78,121.63z"/>
	<path d="M638.3,510.23c0.41-1.54,0.72-3.08-0.41-4.93C637.28,507.26,637.07,508.8,638.3,510.23z"/>
	<path d="M327.36,513.93c-0.41,2.36-1.03,4.73,0.31,7.09C327.87,518.66,327.97,516.3,327.36,513.93z"/>
	<path d="M639.23,514.86c-1.03,2.05-0.62,4.11-0.1,6.16C639.85,518.97,639.64,516.91,639.23,514.86z"/>
	<path d="M303.52,120.6c1.13-1.95,1.13-1.95-0.51-5.24C302.7,117.62,302.7,119.06,303.52,120.6z"/>
	<path d="M572.66,466.37c1.23-1.95,1.44-3.6,1.54-5.34C573.07,462.47,572.66,464.11,572.66,466.37z"/>
	<path d="M260.79,465.24c1.44-1.95,1.44-3.49,1.64-5.03C261.1,461.34,261,462.88,260.79,465.24z"/>
	<path d="M246.51,516.91c-0.31,1.13-0.41,2.36,0.1,3.7C247.03,519.27,247.03,518.14,246.51,516.91z"/>
	<path d="M246.82,528.62c0.21-1.13,0.41-2.26,0.72-3.9C245.69,525.95,246.1,527.29,246.82,528.62z"/>
	<path d="M558.28,529.44c0.51-1.13,1.03-2.16,0.72-3.49C557.56,527.08,557.87,528.31,558.28,529.44z"/>
	<path d="M620.33,91.12c-1.54-0.21-2.16,0.21-2.36,1.44C619.3,92.76,619.51,91.84,620.33,91.12z"/>
	<path d="M558.38,518.35c-0.51,0.92-0.51,1.95-0.1,2.98C558.9,520.3,558.59,519.38,558.38,518.35z"/>
	<path d="M640.05,489.28c0.51-0.31,0.82-0.72,0.21-1.34C639.64,488.35,639.74,488.77,640.05,489.28z"/>
	<path d="M607.28,85.47c-0.51-0.21-0.92,0-1.13,0.51C606.37,88.38,609.29,86.27,607.28,85.47z"/>
	<path d="M576.36,451.78c-0.72,0.62-0.21,1.13-0.31,2.05C576.77,453.02,576.67,452.5,576.36,451.78z"/>
	<path d="M328.38,487.94c0.62-0.72,0.51-1.03,0.1-1.23C327.87,487.02,328.08,487.33,328.38,487.94z"/>
	<path d="M636.97,497.91c0.41-0.21,0.31-0.51,0.1-0.82C636.68,496.89,636.34,497.59,636.97,497.91z"/>
	<path d="M264.49,452.3c0.41-0.51,0.51-0.92,0-1.44C264.08,451.37,264.08,451.78,264.49,452.3z"/>
	<path d="M641.59,480.44c-1.03,0.62-0.51,1.13-0.62,1.85C642,481.68,641.69,481.06,641.59,480.44z"/>
	<path d="M325.4,496.37c0-0.21-0.21-0.31-0.21-0.51c-0.1,0.21-0.21,0.41-0.31,0.51C325.33,496.81,325.51,496.47,325.4,496.37z"/>
	<path d="M613.75,120.29c-0.21,0.92,0.51,1.03,0.92,1.34C614.47,121.11,614.68,120.29,613.75,120.29z"/>
	<path d="M621.66,90.71c0.92,0.31,0.82-0.51,1.03-0.82C621.77,89.68,621.46,89.99,621.66,90.71z"/>
	<path d="M213.95,189.42c0.23-1.54,1.13-2.98,0.21-4.62c-3.08,2.67-2.57,14.18,0.92,22.5C215.08,191.76,212.82,196.95,213.95,189.42
		z"/>
	<path d="M310.51,211.2c-1.75,2.47-2.05,5.96-1.34,12.94C311.64,222.81,312.26,216.75,310.51,211.2z"/>
	<path d="M253.7,105.81c-3.6,1.75-5.86,5.14-9.86,7.19C247.95,113.2,252.78,109.71,253.7,105.81z"/>
	<path d="M259.97,171.45c-0.36-2.37-3.22-0.52-6.47-8.32C250.09,166.32,254.75,170.24,259.97,171.45z"/>
	<path d="M311.23,194.56c-1.54,1.64-1.95,7.7-0.92,13.56C311.64,203.4,311.23,199.08,311.23,194.56z"/>
	<path d="M237.78,114.23c2.36,1.13,4.11,0.21,5.55-1.75c-2.05-0.41-3.7,1.95-5.55-0.21C231.92,118.78,229.78,120.35,237.78,114.23z"
		/>
	<path d="M221.24,243.97c4.22-11.95,3.82-10.58,2.57-10.89C222.37,236.47,220.63,239.86,221.24,243.97z"/>
	<path d="M305.48,149.36c-2.05,1.75-2.47,4.83-4.83,6.27C305.37,154.19,306.71,152.55,305.48,149.36z"/>
	<path d="M305.78,241.3c0.68-1.72,4.62-11.46,2.88-12.33C304.42,242.75,304.47,240.86,305.78,241.3z"/>
	<path d="M309.48,233.8c-1.13,3.29-1.75,6.68-1.23,10.17C310.2,240.79,309.38,237.19,309.48,233.8z"/>
	<path d="M306.5,203.5c-2.88-1.44-5.86-0.82-8.73-0.82C300.65,203.29,303.42,205.35,306.5,203.5z"/>
	<path d="M220.83,128.82c-3.29,0.82-4.52,2.88-4.01,6.88C218.98,133.44,219.19,130.97,220.83,128.82z"/>
	<path d="M320.88,205.04c-2.77,0.41-5.55-1.34-8.73-0.51C314.72,206.68,316.98,206.79,320.88,205.04z"/>
	<path d="M311.95,173.19c-0.62,2.16-1.85,4.31-1.03,6.68C312.77,177.92,312.46,175.56,311.95,173.19z"/>
	<path d="M256.89,143.4c0.72-2.16,1.85-3.8,0.72-5.96C255.45,139.09,255.55,140.94,256.89,143.4z"/>
	<path d="M272.3,157.48c-1.75-1.64-3.29-2.57-5.03-3.49C267.67,156.76,267.88,156.86,272.3,157.48z"/>
	<path d="M230.28,152.14c-0.62,1.54-1.95,3.08-0.41,5.34C230.49,155.42,230.8,153.88,230.28,152.14z"/>
	<path d="M215.18,207.3c-0.1,2.16,0.21,4.21,1.54,6.57C217.34,211,216,209.15,215.18,207.3z"/>
	<path d="M226.99,229.69c1.44-1.64,2.36-3.49,2.26-5.75c-3.37,4.9-1.31,4.12-3.7,6.99C226.69,230.93,226.79,230.31,226.99,229.69z"
		/>
	<path d="M300.85,215.82c1.34,0.51,2.57,1.23,4.01,0.62C303.63,215.31,302.29,215.21,300.85,215.82z"/>
	<path d="M252.88,177.2c0.1-2.36-1.23-3.39-2.05-4.73C249.59,174.84,251.44,175.56,252.88,177.2z"/>
	<path d="M291.2,203.7c-1.34-0.82-2.47-0.72-3.8-0.62C289.14,204.53,289.14,204.53,291.2,203.7z"/>
	<path d="M231.31,147.62c0.72-1.54,0.72-2.67,0.31-4.21C230.59,145.36,230.59,145.36,231.31,147.62z"/>
	<path d="M221.86,122.24c-1.44,1.95-1.75,3.18-1.03,4.83C222.47,125.84,222.27,124.5,221.86,122.24z"/>
	<path d="M247.95,75.71c-1.85-1.13-2.88,0-4.52,0.92C245.38,77.15,246.61,77.04,247.95,75.71z"/>
	<path d="M255.14,234.73c1.34,0,2.67,0,4.01,0C259.04,234.72,255.14,234.43,255.14,234.73z"/>
	<path d="M261.61,224.25c-1.64-0.1-3.29-0.21-4.83-0.41C258.22,225.17,259.97,224.15,261.61,224.25z"/>
	<path d="M263.15,173.5c-0.62-1.64-1.75-2.05-3.18-2.16C260.48,172.68,261.2,173.71,263.15,173.5z"/>
	<path d="M325.71,204.73c-0.92-0.72-1.64-1.03-2.36,0C324.07,205.45,324.69,205.55,325.71,204.73z"/>
	<path d="M256.68,223.94c-1.44-0.41-2.77-0.62-4.42-0.21C253.91,224.04,255.35,224.04,256.68,223.94z"/>
	<path d="M266.85,174.73c-0.31-1.03-0.92-1.64-2.05-1.75C265.41,174.32,265.41,174.32,266.85,174.73z"/>
	<path d="M276.71,158.81c-0.62-1.03-1.44-1.34-2.77-1.03C274.66,159.12,275.58,159.12,276.71,158.81z"/>
	<path d="M312.15,192.71c0.51-0.82,0.41-1.44,0.1-2.16C311.23,191.17,311.33,191.79,312.15,192.71z"/>
	<path d="M253.7,179.87c0.31,0.92,0.92,1.54,2.16,1.64C254.94,178.75,253.36,179.53,253.7,179.87z"/>
	<path d="M264.8,225.07c4.55,0,2.78-0.21,0-0.21C264.8,224.97,264.8,224.97,264.8,225.07z"/>
	<path d="M240.45,78.38c-1.03-0.51-1.13,0.51-1.54,0.92C239.73,79.41,240.45,79.41,240.45,78.38z"/>
	<path d="M230.18,209.25c-0.72,0.82-1.03,1.34-1.13,2.16C229.87,211,230.08,210.48,230.18,209.25z"/>
	<path d="M284.73,159.53c-0.82-0.82-1.44-0.82-2.05-0.51C283.29,159.84,283.29,159.84,284.73,159.53z"/>
	<path d="M239.22,88.75c-0.92,0.62-0.92,1.13-0.92,1.85C239.53,90.09,239.12,89.47,239.22,88.75z"/>
	<path d="M216.93,218.6c-0.21,0.51,0,0.82,0.51,1.03C217.65,219.11,217.34,218.8,216.93,218.6z"/>
	<path d="M231.31,138.78c-1.23,0.31-0.82,1.03-0.92,1.64C231.31,140.01,231.41,139.5,231.31,138.78z"/>
	<path d="M235.01,104.06c-0.92,0.41-0.72,1.03-0.21,1.64C235.21,105.19,235.21,104.68,235.01,104.06z"/>
	<path d="M287.5,337.86c-10.17,11.81-18.08,24.76-18.7,40.99C271.27,363.44,278.87,350.39,287.5,337.86z"/>
	<path d="M279.79,274.07c1.44-0.41,1.44-1.34,1.54-2.05c1.33-18.6,0.85-18.95-1.03-19.11C278.69,257.97,280.63,266.75,279.79,274.07
		z"/>
	<path d="M331.05,338.38c-7.19-5.96-14.59-11.71-21.16-18.39C310.82,324.51,323.76,334.68,331.05,338.38z"/>
	<path d="M313.49,359.33c-1.54-7.7-5.75-14.59-7.4-22.5C304.05,338.06,304.7,339.47,313.49,359.33z"/>
	<path d="M285.34,255.07c-1.23,5.34,2.16,9.96,1.95,15.2c0.41-0.1,0.82-0.21,1.23-0.21C286.1,253.06,286.71,254.61,285.34,255.07z"
		/>
	<path d="M339.58,293.69c-2.36-6.06-5.34-11.81-7.6-17.77C332.6,282.6,337.01,287.84,339.58,293.69z"/>
	<path d="M289.04,369.5c2.67-4.21,4.42-13.35,3.18-15.41C290.68,359.02,290.38,364.16,289.04,369.5z"/>
	<path d="M306.61,268.32c0.41-4.52-0.51-9.14,0.51-14.18C305.37,256.71,305.27,263.18,306.61,268.32z"/>
	<path d="M246.72,342.18c-3.32,6.85,1.29,8.1,0,15.2c1.61-2.69,1.54-3.12-0.21-9.86C246.11,345.97,246.82,344.33,246.72,342.18z"/>
	<path d="M243.22,383.68c-0.92-4.83,0.62-9.45,1.03-14.28C242.3,374.64,241.79,379.98,243.22,383.68z"/>
	<path d="M287.4,253.01c2.16,2.05,4.11,1.34,6.68,1.13C291.61,252.6,289.66,253.32,287.4,253.01z"/>
	<path d="M280.21,253.01c-2.57-1.54-5.14-0.92-7.6,0.31C275.17,254.35,277.74,252.4,280.21,253.01z"/>
	<path d="M297.77,325.64c0.35,0.7-0.09,1,5.65-3.39C302.61,320.63,299.71,323.94,297.77,325.64z"/>
	<path d="M314.52,301.09c1.44,1.44,3.18,2.16,5.24,2.26C318.11,302.22,316.47,301.19,314.52,301.09z"/>
	<path d="M312.67,250.96c-1.44,0.72-1.13,1.54-0.82,2.67C312.97,252.81,313.08,251.98,312.67,250.96z"/>
	<path d="M308.25,250.85c-0.82,0.82-0.72,1.54-0.1,2.36C309.28,252.5,309.59,251.78,308.25,250.85z"/>
	<path d="M246.82,357.48c-0.2,1.08-0.39,2.25-0.68,3.34C246.9,359.79,246.61,358.49,246.82,357.48z"/>
	<path d="M304.45,251.88c0.1,0.72,0.72,0.72,1.54,1.03C305.68,251.68,305.27,251.37,304.45,251.88z"/>
	<path d="M332.6,339.92c0.21,0.31,0.41,0.51,0.62,0.72C333.42,340.12,333.21,339.92,332.6,339.92z"/>
	<path d="M335.88,342.59C336.29,342.18,335.78,342.18,335.88,342.59L335.88,342.59z"/>
	<path d="M246.1,360.98c-0.21,0.82-0.51,1.75-0.72,2.67C246.49,362.78,246.1,360.11,246.1,360.98z"/>
	<path d="M244.66,366.42c0.92-0.72,0.82-1.75,0.62-2.77C244.87,364.57,244.87,365.5,244.66,366.42z"/>
	<path d="M244.24,369.23c0.5-0.88,0.43-1.85,0.52-2.81C244.18,367.29,244.16,368.26,244.24,369.23z"/>
	<path d="M244.24,369.23c-0.03,0.05-0.06,0.11-0.09,0.16C244.29,369.4,244.24,369.44,244.24,369.23z"/>
	<path d="M362.39,168.37c-4.62,4.11-5.75,7.5-4.11,11.3C359.68,179.2,358.15,179.25,362.39,168.37z"/>
	<path d="M351.91,168.78c1.34-4.62,1.44-9.04-1.23-13.25C352.22,159.84,352.42,164.26,351.91,168.78z"/>
	<path d="M357.35,191.17c2.16-1.64,2.26-2.16,0.41-5.34C357.56,187.99,357.45,189.53,357.35,191.17z"/>
	<path d="M357.87,184.08c1.75-1.34,1.23-2.88,0.41-4.31C356.02,181,358.38,182.64,357.87,184.08z"/>
	<path d="M364.34,235.86c0-1.54,0.72-3.6-1.95-4.21C363.21,232.98,362.59,234.93,364.34,235.86z"/>
	<path d="M362.28,231.75c0.21-1.75-0.21-3.29-1.23-4.62C360.54,228.87,361.15,230.41,362.28,231.75z"/>
	<path d="M353.86,115.26c-0.92,1.75-0.62,2.88,0.62,4.11C354.99,117.93,355.19,116.8,353.86,115.26z"/>
	<path d="M371.63,274.48c-6.71,3.41-0.84,9.18-0.51,10.99C389.21,289.09,379.98,270.24,371.63,274.48z M373.79,284.14
		c-1.44-1.95-2.88-4.01-1.03-5.96c2.15-2.26,3.9,0,5.96,1.34C378,282.19,376.56,283.83,373.79,284.14z"/>
	<path d="M246.72,282.19c2.47,0,7.81-5.44,7.81-7.91c0-3.29-4.73-7.3-8.53-7.19c-3.29,0.1-6.57,3.29-6.37,6.47
		C239.84,276.84,244.15,282.19,246.72,282.19z M245.38,279.93c0.51-0.82,1.34-0.62,2.36-0.21
		C246.72,280.34,246,281.16,245.38,279.93z M243.43,271.5c1.81-2.46,7-1.61,7.91,2.47c-1.13,3.49-3.7,4.21-7.09,4.21
		C243.84,275.92,241.56,274.05,243.43,271.5z"/>
	<path d="M221.24,280.03c0.92,4.21,2.36,8.12,5.75,11.09c-1.85-4.11-4.31-7.81-4.73-12.22C221.65,279,221.04,279.31,221.24,280.03z"
		/>
	<path d="M225.66,256.71c2.57-2.67,5.03-5.65,7.6-8.42C229.56,250.03,227.1,252.91,225.66,256.71z"/>
	<path d="M224.84,258.46c-2.88,1.23-3.9,4.11-3.29,8.53C222.58,264.11,222.78,261.13,224.84,258.46z"/>
	<path d="M221.04,270.47c-0.72,2.98-0.31,5.75,1.13,8.32C222.17,269.21,222.54,270.47,221.04,270.47z"/>
	<path d="M235.31,296.98c-1.75-1.75-3.8-2.98-6.27-3.6C230.8,295.23,232.85,296.46,235.31,296.98z"/>
	<path d="M238.19,298.42c1.85,0.72,3.9,0.31,5.75,0.62c0.1-0.31,0.21-0.51,0.21-0.82C237.76,297.54,238.19,297.57,238.19,298.42z"/>
	<path d="M235.93,247.16c1.85,0.31,3.29-0.31,4.83-1.13C239.81,244.45,237.64,246.02,235.93,247.16z"/>
	<path d="M331.05,561.08c0.71-5.2-4.43-8.34-7.81,0.1c3.36,3.26,3.6,3.29,7.81,0.78c0,0.23-1.65,2.76,0.92,4.66
		c2.51,1.85,5.75-0.45,5.75-3.7c0-2.67-2.19-4.17-4.73-2.98C332.38,560.25,331.77,560.78,331.05,561.08z M326.43,562.01
		c0.92-1.34,0.62-2.26-0.62-2.98C329.73,554.68,331.25,562.52,326.43,562.01z M336.09,563.04c0,3.04-3.63,3.57-3.9,0.82
		C332.97,560.45,336.09,560.62,336.09,563.04z"/>
	<path d="M336.91,568.27c0.72,0.92,1.44,0.51,1.95,0.21c3.42-1.37,1.04,1.34,2.16,2.26c1.95-1.64,2.47-4.11,3.7-6.06
		c-4.01-2.98-4.93-2.77-5.96,1.54C338.35,567.35,337.12,567.45,336.91,568.27z M342.46,565.5c-1.34,1.03-1.34,1.03-2.36-0.72
		C341.22,564.37,342.05,564.27,342.46,565.5z"/>
	<path d="M195.56,270.78c0.92-2.77,1.85-5.55,2.88-8.53C196.18,264,195.25,266.67,195.56,270.78z"/>
	<path d="M194.64,274.17c-0.62,2.05-0.31,4.01,0.41,5.96C195.35,278.18,194.43,276.23,194.64,274.17z"/>
	<path d="M195.05,283.32c0.79,3.53,1.99,3.66,1.75,3.9c0.79,2.75,2.58,1.9,0.51-0.51C197,285.58,196.48,284.65,195.05,283.32z"/>
	<path d="M599.37,338.89c-10.17,11.81-18.18,24.76-18.8,41.09C583.14,364.57,590.54,351.42,599.37,338.89z"/>
	<path d="M592.08,274.99c4.3-19.21-1.19-31.58-0.41-8.53C591.77,269.34,591.98,272.12,592.08,274.99z"/>
	<path d="M643.65,340.33c-7.19-6.57-15.31-12.22-22.29-19.11C627.21,329.44,635.33,335.09,643.65,340.33z"/>
	<path d="M624.75,359.13c-1.23-7.4-5.55-13.77-6.78-21.16C615.28,339,618.27,344.73,624.75,359.13z"/>
	<path d="M597.01,256.09c-1.03,5.34,2.05,10.07,2.05,15.31c0.41-0.1,0.92-0.21,1.34-0.31C598.01,254.35,598.45,255.73,597.01,256.09
		z"/>
	<path d="M571.02,271.09c1.44-5.24,2.77-10.58,4.31-16.23C572.97,256.3,570.4,265.95,571.02,271.09z"/>
	<path d="M601.22,370.12c1.64-4.83,3.6-9.66,3.18-14.9C602.56,360.05,602.15,365.19,601.22,370.12z"/>
	<path d="M650.63,293.28c0-2.54-0.8-1.46-6.88-16.23C644.57,283.01,647.55,288.14,650.63,293.28z"/>
	<path d="M558.49,343.61c-3.76,7.2,2.45,7.11-0.72,17.87C562.47,350.42,556.27,352.5,558.49,343.61z"/>
	<path d="M618.38,269.76c0.31-4.62-0.38-9.36,0.31-13.97C619.28,251.79,615.88,257.53,618.38,269.76z"/>
	<path d="M554.79,384.4c-0.41-3.39,0.31-6.78,0.51-10.07C553.97,377.62,553.56,381.01,554.79,384.4z"/>
	<path d="M590.43,253.42c-2.26-0.92-4.21,0.31-6.47,0.31C586.02,255.17,586.84,255.07,590.43,253.42z"/>
	<path d="M609.34,327.18c2.16-0.92,3.9-2.36,5.55-4.01C612.32,323.38,611.08,325.64,609.34,327.18z"/>
	<path d="M626.39,302.11c1.54,1.64,3.49,2.16,5.55,2.47C630.29,303.35,628.55,302.32,626.39,302.11z"/>
	<path d="M557.87,361.59c-0.59,2.82-1.72,5.66-1.92,8.58C557.03,367.41,557.97,364.55,557.87,361.59z"/>
	<path d="M555.95,370.17c-0.04,0.12-0.08,0.24-0.13,0.36C555.96,370.67,555.91,370.73,555.95,370.17z"/>
	<path d="M599.58,254.24c1.75,1.64,3.7,1.03,5.65,0.62C603.48,253.94,601.53,254.65,599.58,254.24z"/>
	<path d="M618.07,254.65c-0.31-1.03-0.31-2.26-2.05-1.85C616.22,254.14,617.86,253.63,618.07,254.65z"/>
	<path d="M620.23,251.98c-1.23,0.62-0.62,1.34-0.72,1.95C620.49,254.5,621.47,252.87,620.23,251.98z"/>
	<path d="M624.23,251.98c-1.03,0.82-1.23,1.44-0.31,2.47C624.54,253.73,624.95,253.11,624.23,251.98z"/>
	<path d="M555.3,374.33c0.62-1.23,0.51-2.47,0.51-3.7C554.99,371.76,555.2,372.99,555.3,374.33z"/>
	<path d="M645.91,342.18c0.21,0.1,0.31,0.31,0.51,0.41C646.63,342.18,646.21,342.18,645.91,342.18z"/>
	<path d="M622.07,211.61c-2.36,4.62-0.62,9.14-1.64,13.77C623.51,223.84,624.13,216.95,622.07,211.61z"/>
	<path d="M564.75,163.64c-2.36,3.8,1.13,7.81,6.47,8.01C567.84,170.01,566.29,166.83,564.75,163.64z"/>
	<path d="M623.1,195.9c-1.61,0-1.13-2.4-1.13,12.64C623.31,204.42,623,200.11,623.1,195.9z"/>
	<path d="M617.55,242.23c1.54-3.9,3.08-7.91,2.77-12.33C615.92,244.21,616.09,241.74,617.55,242.23z"/>
	<path d="M618.27,205.55c0-1.86,1.66-2.21-8.83-1.85C612.42,204.53,615.19,205.96,618.27,205.55z"/>
	<path d="M620.02,245.1c1.85-3.18,1.34-6.57,1.13-10.07C620.23,238.32,619.4,241.71,620.02,245.1z"/>
	<path d="M617.14,154.5c-2.05,1.85-2.57,4.83-4.93,6.16C617.04,159.33,618.48,157.58,617.14,154.5z"/>
	<path d="M624.23,206.17c2.67,1.85,5.44,1.54,8.83,0.1C623.24,205.04,624.23,204.98,624.23,206.17z"/>
	<path d="M623.92,174.12c-1.13,2.05-1.64,4.31-1.34,6.78C624.64,178.95,624.03,176.48,623.92,174.12z"/>
	<path d="M576.67,159.53c1.34,2.26,2.88,2.77,5.24,2.77C580.47,160.66,579.24,159.63,576.67,159.53z"/>
	<path d="M602.97,204.94c-1.44-1.34-2.57-1.03-3.9-0.82C600.19,205.86,601.32,205.66,602.97,204.94z"/>
	<path d="M612.83,216.85c1.23,0.51,2.36,1.54,4.21,0.62C615.5,216.03,614.16,216.34,612.83,216.85z"/>
	<path d="M566.09,225.17c1.85,0.1,3.7,0.21,5.55,0.41C569.89,224.25,567.94,225.17,566.09,225.17z"/>
	<path d="M623.82,193.64c0.82-0.62,0.21-1.34,0.41-2.05C622.73,191.43,623.04,193.48,623.82,193.64z"/>
	<path d="M572.56,172.78c0.51,1.44,0.51,1.44,2.47,1.75C574.62,173.3,573.79,172.78,572.56,172.78z"/>
	<path d="M645.39,165.59c-0.72-1.23-1.64-1.23-3.08-0.41C643.54,166,644.37,166.31,645.39,165.59z"/>
	<path d="M565.27,179.97c0.31,1.85,1.13,2.26,2.47,2.98C567.42,181.41,566.5,180.9,565.27,179.97z"/>
	<path d="M639.54,166c-0.62-1.13-1.64-0.82-2.98-0.72C637.59,166.52,638.41,167.03,639.54,166z"/>
	<path d="M564.34,235.34c0,0.41-0.23,0.09,2.67,0.41C567.01,235.21,567.42,235.34,564.34,235.34z"/>
	<path d="M571.64,225.48c1.44,0.62,2.88,0.31,4.31,0.31C574.51,225.48,573.07,225.28,571.64,225.48z"/>
	<path d="M587.35,163.85c-0.92-1.03-1.75-1.34-2.98-1.23C585.09,164.36,586.12,163.95,587.35,163.85z"/>
	<path d="M576.88,174.12c-0.92,0.51-0.72,0.72,1.85,2.05C578.42,174.73,577.8,174.22,576.88,174.12z"/>
	<path d="M595.47,164.36c-0.92-0.62-1.54-0.72-2.16-0.21C593.72,165.28,594.34,165.18,595.47,164.36z"/>
	<path d="M636.04,206.17c0.51,0.21,0.92,0,1.13-0.51C636.33,204.64,634.1,205.52,636.04,206.17z"/>
	<path d="M554.48,142.48c-3.48,1.97-6.47,4.52-9.45,7.09c0.82,0.41,1.54,0.92,2.47,0.21c12.1-9.28,15.87-10.77,15.51-15.92
		C559.93,136.52,558.09,140.44,554.48,142.48z"/>
	<path d="M560.54,101.49c-4.11-1.34-8.01,2.26-9.66,8.53C552.43,105.6,557.25,104.57,560.54,101.49z"/>
	<path d="M529.21,216.65c-2.67,2.67-2.77,12.84-0.41,16.44C528.9,227.74,528.29,222.5,529.21,216.65z"/>
	<path d="M556.33,149.26c-3.18,4.21-3.6,9.25-4.21,14.28C553.86,158.92,554.58,153.88,556.33,149.26z"/>
	<path d="M540.92,198.77c-0.21,3.08,0,5.34,1.54,7.29C542.98,203.7,542.36,201.44,540.92,198.77z"/>
	<path d="M530.85,244.28c0-2.57-0.1-4.42-1.85-6.37C529.21,240.27,529.62,242.02,530.85,244.28z"/>
	<path d="M536.09,145.05c-0.41,1.85,0,3.6,1.03,5.14C537.43,148.23,537.02,146.59,536.09,145.05z"/>
	<path d="M549.14,111.76c-2.16,1.44-1.85,2.98-1.54,4.52C548.52,115.15,549.24,113.92,549.14,111.76z"/>
	<path d="M539.48,189.94c-1.23,1.75-0.82,2.77,0.21,4.11C540.41,192.61,540.1,191.58,539.48,189.94z"/>
	<path d="M541.33,154.91c1.23-1.44,1.64-2.36,1.85-3.8C541.44,151.93,541.64,153.16,541.33,154.91z"/>
	<path d="M534.04,251.16c0.51-0.82-0.1-1.03-0.31-1.64C533.22,250.34,533.83,250.55,534.04,251.16z"/>
	<path d="M551.91,175.97c0.41-0.51,0.31-1.03,0.1-2.16C551.91,174.94,551.91,175.35,551.91,175.97z"/>
	<path d="M545.34,120.91c-0.82,0.62-0.92,1.13-0.92,1.75C545.25,123.21,545.34,122.04,545.34,120.91z"/>
	<path d="M542.36,169.19c0.31-0.62,0.62-1.23-0.51-1.34C541.23,168.67,541.74,168.98,542.36,169.19z"/>
	<path d="M562.08,101.18c-0.21,0-0.41-0.1-0.62-0.21C560.77,101.68,561.51,102.33,562.08,101.18z"/>
	<path d="M670.25,200.11c-2.05,2.88,1.03,4.11,1.23,6.16c-3.83,2.06,3.1,4.82,2.98,14.18c-0.01,0.72,0.51,1.54,1.75,1.75
		C673.88,206.72,674.39,203.12,670.25,200.11z"/>
	<path d="M671.69,187.27c-1.95,1.03-1.86,2.77-1.95,4.11c-0.39,5.92-4.09,6.84-6.57,8.83C667.38,202.27,672.1,195.18,671.69,187.27z
		"/>
	<path d="M670.25,164.87c0-13.31,0.27-11.61-0.82-11.61C669.84,157.17,667.99,161.07,670.25,164.87z"/>
	<path d="M670.77,137.34c-2.16,2.26-1.85,5.14-1.75,7.91C670.66,142.89,670.35,140.01,670.77,137.34z"/>
	<path d="M673.54,180.9c-1.75,1.95-2.16,3.7-2.16,5.96C673.44,185.21,673.54,183.47,673.54,180.9z"/>
	<path d="M680.94,251.06c0.21,2.57,0.51,4.93,2.16,6.68C682.37,255.48,681.65,253.22,680.94,251.06z"/>
	<path d="M674.67,174.43c-1.64,1.23-1.44,2.57-0.82,4.21C675.18,177.41,674.87,176.07,674.67,174.43z"/>
	<path d="M677.03,242.64c0.1,1.95,1.75,3.18,2.36,4.93C679.09,245.72,678.57,243.97,677.03,242.64z"/>
	<path d="M675.29,239.86c0.21,1.13,0.51,2.26,1.64,2.88C676.93,241.51,676.21,240.58,675.29,239.86z"/>
	<path d="M667.58,144.94c-1.13,0.31-1.03,0.82-0.51,1.54C667.99,146.28,668.2,145.77,667.58,144.94z"/>
	<path d="M667.68,231.64c0-0.31,0-0.62,0-1.85C667.53,231.48,667.32,231.64,667.68,231.64z"/>
	<path d="M675.18,299.65c-6.92,6.28,0.47,14.01,7.29,10.38c6.14-3.84,4.69-2.81,4.01-7.4C685.33,294.93,678.06,297.04,675.18,299.65
		z M681.86,307.25c-8.59,3.3-6.57-5.84-0.72-6.37C685.38,300.5,684.04,306.41,681.86,307.25z"/>
	<path d="M564.65,302.73c1.76-10.54-9.71-12.52-12.64-7.91c-3.22,5.08,1.5,6.72,4.42,12.02
		C559.91,306.55,564.06,306.3,564.65,302.73z M557.87,295.64c1.95,0.5,4.44,4.42,4.11,6.68c-0.47,3.19-2.98,1.85-5.03,2.26
		c-0.82-2.16-2.12-3.7-2.36-5.75C554.32,296.56,555.82,295.12,557.87,295.64z"/>
	<path d="M647.86,568.38c1.54,1.44,2.47-0.72,3.6-0.1c1.03,0.72-0.62,1.75,0.62,2.57c1.85-1.64,2.47-4.11,3.6-6.06
		c-1.32-2.27-5.86-3.08-5.86,0.1C649.81,566.53,648.99,567.45,647.86,568.38z M653.61,565.6c-1.23,1.44-1.95,0.82-2.67-0.62
		C652.28,564.17,653.1,564.37,653.61,565.6z"/>
	<path d="M642.11,561.08c0.31-2.26,0.1-4.43-2.47-4.93c-3.29-0.65-4.09,2.02-5.34,5.14c3.36,3.26,3.6,3.29,7.78,0.8
		c-2.61,5.74,6.71,7.51,6.71,0.95C648.78,560.02,646.6,558.52,642.11,561.08z M637.79,562.32c0.1-1.23,0.82-2.57-1.13-3.08
		c1.54-1.54,2.88-2.36,3.6-0.41C641.08,560.67,639.85,561.8,637.79,562.32z M644.88,565.5c-2.41,0-1.73-4.31,0.92-4.31
		C648,561.19,647.77,565.5,644.88,565.5z"/>
<path fill="#e6e6e6" d="m206.8 163.6c0-5.1 4.1-9.2 9.3-9.2s9.2 4.2 9.2 9.2-4.1 9.2-9.3 9.2-9.2-4.1-9.2-9.2zm17.3-.1c0-4.5-3.5-8.2-8.2-8.2s-8.2 3.7-8.2 8.3c0 4.5 3.5 8.2 8.2 8.2s8.2-3.7 8.2-8.3zm-13 0c0-2.8 2.1-5.1 5.1-5.1 1.9 0 2.9.6 3.9 1.5l-1.4 1.7c-.8-.7-1.5-1.1-2.5-1.1-1.7 0-2.8 1.4-2.8 3.1s1.1 3 2.8 3c1.1 0 1.7-.5 2.5-1.1l1.4 1.4c-1.1 1.1-2.1 1.7-4 1.7-2.9 0-5-2.3-5-5.1z"/><path fill="#e6e6e6" d="m226.6 154.7h3.4l4.2 13.2 4.4-13.3h2.6l4.4 13.3 4.2-13.2h3.3l-6.2 18h-2.7l-4.4-12.8-4.4 12.8h-2.7z"/><path fill="#e6e6e6" d="m252.8 165.8c0-3.9 3.1-7 7.2-7 4.2 0 7.2 3.2 7.2 7s-3.1 7-7.3 7c-4 0-7.1-3.1-7.1-7zm11.3 0c0-2.3-1.7-4.3-4.2-4.3s-4.1 2-4.1 4.3 1.7 4.3 4.1 4.3c2.7.1 4.2-1.9 4.2-4.3z"/><path fill="#e6e6e6" d="m269.5 159.1h3.1v3c.8-2 2.4-3.4 4.8-3.3v3.2h-.2c-2.7 0-4.6 1.7-4.6 5.4v5.1h-3.1z"/><path fill="#e6e6e6" d="m279.1 153.9h3.1v11.1l5.6-6h3.8l-5.4 5.5 5.5 8h-3.5l-4.1-5.8-1.9 2v3.9h-3.1z"/><path fill="#e6e6e6" d="m291.7 165.8c0-3.9 3.1-7 7.2-7 4.2 0 7.2 3.2 7.2 7s-3.1 7-7.3 7c-4 0-7.1-3.1-7.1-7zm11.3 0c0-2.3-1.7-4.3-4.2-4.3s-4.1 2-4.1 4.3 1.7 4.3 4.1 4.3c2.6.1 4.2-1.9 4.2-4.3z"/><path fill="#e6e6e6" d="m308.2 167.6v-8.6h3.1v7.6c0 2.1 1.1 3.3 2.9 3.3s3-1.3 3-3.3v-7.6h3.1v13.4h-3.1v-2.1c-.8 1.3-2.1 2.3-4.2 2.3-3.1.2-4.8-1.8-4.8-5z"/><path fill="#e6e6e6" d="m323.9 168.8v-7.1h-1.7v-2.6h1.7v-3.7h3.1v3.7h3.6v2.6h-3.6v6.6c0 1.2.6 1.7 1.7 1.7.7 0 1.3-.2 1.9-.5v2.5c-.8.5-1.7.7-2.8.7-2.3 0-3.9-.9-3.9-3.9z"/><path fill="#e6e6e6" d="m333.2 154.7h3.2v15h9.4v2.9h-12.5v-17.9z"/><path fill="#e6e6e6" d="m356 172.5v-1.7c-.9 1.1-2.3 2-4.4 2-2.6 0-4.8-1.4-4.8-4.2 0-3 2.3-4.4 5.4-4.4 1.7 0 2.6.2 3.7.5v-.2c0-1.9-1.2-2.9-3.3-2.9-1.5 0-2.6.3-3.9.8l-.8-2.5c1.5-.7 2.9-1.1 5.1-1.1 4 0 5.9 2.1 5.9 5.7v8zm.1-5.6c-.8-.3-1.9-.5-3.1-.5-2 0-3.1.8-3.1 2.1s1.1 2 2.6 2c2 0 3.5-1.1 3.5-2.9z"/><path fill="#e6e6e6" d="m364.9 170.5v2.1h-3.1v-18.7h3.1v7.4c1-1.4 2.4-2.5 4.5-2.5 3.2 0 6.3 2.5 6.3 7s-3.1 7-6.3 7c-2.1 0-3.5-1.1-4.5-2.3zm7.7-4.7c0-2.6-1.7-4.3-3.9-4.3s-3.9 1.7-3.9 4.4c0 2.6 1.8 4.3 3.9 4.3s3.9-1.7 3.9-4.4z"/><path fill="#e6e6e6" d="m376.9 170.8 1.4-2.1c1.4 1.1 3 1.7 4.4 1.7s2.1-.5 2.1-1.5-1.3-1.4-2.8-1.8c-.1 0-.2-.1-.2-.1-2-.6-4.2-1.4-4.2-4s2.1-4.1 4.8-4.1c1.7 0 3.5.6 5 1.5l-1.2 2.2c-1.3-.8-2.6-1.3-3.8-1.3s-1.9.5-1.9 1.4 1.3 1.4 2.8 1.8c.1 0 .2.1.2.1 2 .6 4.2 1.5 4.2 4 0 2.9-2.2 4.2-5 4.2-1.9 0-4-.7-5.8-2z"/><path fill="#e6e6e6" d="m505.6 163.6c0-5.1 4.1-9.2 9.3-9.2s9.2 4.2 9.2 9.2-4.1 9.2-9.3 9.2-9.2-4.1-9.2-9.2zm17.4-.1c0-4.5-3.5-8.2-8.2-8.2s-8.2 3.7-8.2 8.3c0 4.5 3.5 8.2 8.2 8.2s8.2-3.7 8.2-8.3zm-13.1 0c0-2.8 2.1-5.1 5.1-5.1 1.9 0 2.9.6 3.9 1.5l-1.4 1.7c-.8-.7-1.5-1.1-2.5-1.1-1.7 0-2.8 1.4-2.8 3.1s1.1 3 2.8 3c1.1 0 1.7-.5 2.5-1.1l1.4 1.4c-1.1 1.1-2.1 1.7-4 1.7-2.9 0-5-2.3-5-5.1z"/><path fill="#e6e6e6" d="m525.4 154.7h3.4l4.2 13.2 4.4-13.3h2.6l4.4 13.3 4.2-13.2h3.3l-6.2 18h-2.7l-4.4-12.8-4.4 12.8h-2.7z"/><path fill="#e6e6e6" d="m551.7 165.8c0-3.9 3.1-7 7.2-7 4.2 0 7.2 3.2 7.2 7s-3.1 7-7.3 7c-4.1 0-7.1-3.1-7.1-7zm11.2 0c0-2.3-1.7-4.3-4.2-4.3s-4.1 2-4.1 4.3 1.7 4.3 4.1 4.3c2.7.1 4.2-1.9 4.2-4.3z"/><path fill="#e6e6e6" d="m568.3 159.1h3.1v3c.8-2 2.4-3.4 4.8-3.3v3.2h-.2c-2.7 0-4.6 1.7-4.6 5.4v5.1h-3.1z"/><path fill="#e6e6e6" d="m577.9 153.9h3.1v11.1l5.6-6h3.8l-5.4 5.5 5.5 8h-3.5l-4.1-5.8-1.9 2v3.9h-3.1z"/><path fill="#e6e6e6" d="m590.6 165.8c0-3.9 3.1-7 7.2-7 4.2 0 7.2 3.2 7.2 7s-3.1 7-7.3 7c-4.1 0-7.1-3.1-7.1-7zm11.2 0c0-2.3-1.7-4.3-4.2-4.3s-4.1 2-4.1 4.3 1.7 4.3 4.1 4.3c2.6.1 4.2-1.9 4.2-4.3z"/><path fill="#e6e6e6" d="m607 167.6v-8.6h3.1v7.6c0 2.1 1.1 3.3 2.9 3.3s3-1.3 3-3.3v-7.6h3.1v13.4h-3.1v-2.1c-.8 1.3-2.1 2.3-4.2 2.3-3 .2-4.8-1.8-4.8-5z"/><path fill="#e6e6e6" d="m622.7 168.8v-7.1h-1.7v-2.6h1.7v-3.7h3.1v3.7h3.6v2.6h-3.6v6.6c0 1.2.6 1.7 1.7 1.7.7 0 1.3-.2 1.9-.5v2.5c-.8.5-1.7.7-2.8.7-2.3 0-3.9-.9-3.9-3.9z"/><path fill="#e6e6e6" d="m632 154.7h3.2v15h9.4v2.9h-12.6z"/><path fill="#e6e6e6" d="m654.8 172.5v-1.7c-.9 1.1-2.3 2-4.4 2-2.6 0-4.8-1.4-4.8-4.2 0-3 2.3-4.4 5.4-4.4 1.7 0 2.6.2 3.7.5v-.2c0-1.9-1.2-2.9-3.3-2.9-1.5 0-2.6.3-3.9.8l-.8-2.5c1.5-.7 2.9-1.1 5.1-1.1 4 0 5.9 2.1 5.9 5.7v8zm.1-5.6c-.8-.3-1.9-.5-3.1-.5-2 0-3.1.8-3.1 2.1s1.1 2 2.6 2c2 0 3.5-1.1 3.5-2.9z"/><path fill="#e6e6e6" d="m663.7 170.5v2.1h-3.1v-18.7h3.1v7.4c1-1.4 2.4-2.5 4.5-2.5 3.2 0 6.3 2.5 6.3 7s-3.1 7-6.3 7c-2.1 0-3.5-1.1-4.5-2.3zm7.8-4.7c0-2.6-1.7-4.3-3.9-4.3-2.1 0-3.9 1.7-3.9 4.4 0 2.6 1.8 4.3 3.9 4.3s3.9-1.7 3.9-4.4z"/><path fill="#e6e6e6" d="m675.8 170.8 1.4-2.1c1.4 1.1 3 1.7 4.4 1.7s2.1-.5 2.1-1.5-1.3-1.4-2.8-1.8c-.1 0-.2-.1-.2-.1-2-.6-4.2-1.4-4.2-4s2.1-4.1 4.8-4.1c1.7 0 3.5.6 5 1.5l-1.2 2.2c-1.3-.8-2.6-1.3-3.8-1.3s-1.9.5-1.9 1.4 1.3 1.4 2.8 1.8c.1 0 .2.1.2.1 2 .6 4.2 1.5 4.2 4 0 2.9-2.2 4.2-5 4.2-2 0-4.1-.7-5.8-2z"/><path fill="#e6e6e6" d="m61 298.6c0-5.1 4.1-9.2 9.3-9.2s9.2 4.2 9.2 9.2-4.1 9.2-9.3 9.2c-5.1 0-9.2-4.2-9.2-9.2zm17.4-.1c0-4.5-3.5-8.2-8.2-8.2s-8.2 3.7-8.2 8.3c0 4.5 3.5 8.2 8.2 8.2s8.2-3.7 8.2-8.3zm-13.1-.1c0-2.8 2.1-5.1 5.1-5.1 1.9 0 2.9.6 3.9 1.5l-1.4 1.7c-.8-.7-1.5-1.1-2.5-1.1-1.7 0-2.8 1.4-2.8 3.1s1.1 3 2.8 3c1.1 0 1.7-.5 2.5-1.1l1.4 1.4c-1.1 1.1-2.1 1.7-4 1.7-2.8.1-5-2.2-5-5.1z"/><path fill="#e6e6e6" d="m80.9 289.7h3.4l4.2 13.2 4.4-13.3h2.6l4.4 13.3 4.2-13.2h3.3l-6.2 18h-2.7l-4.4-12.8-4.4 12.8h-2.7z"/><path fill="#e6e6e6" d="m107.1 300.8c0-3.9 3.1-7 7.2-7s7.2 3.2 7.2 7-3.1 7-7.3 7c-4 0-7.1-3.1-7.1-7zm11.3 0c0-2.3-1.7-4.3-4.2-4.3s-4.1 2-4.1 4.3 1.7 4.3 4.1 4.3c2.6.1 4.2-1.9 4.2-4.3z"/><path fill="#e6e6e6" d="m123.7 294h3.1v3c.8-2 2.4-3.4 4.8-3.3v3.2h-.2c-2.7 0-4.6 1.7-4.6 5.4v5.1h-3.1z"/><path fill="#e6e6e6" d="m133.4 288.9h3.1v11.1l5.6-6h3.8l-5.4 5.5 5.5 8h-3.5l-4.1-5.8-1.9 1.9v3.9h-3.1z"/><path fill="#e6e6e6" d="m146 300.8c0-3.9 3.1-7 7.2-7s7.2 3.2 7.2 7-3.1 7-7.3 7c-4.1 0-7.1-3.1-7.1-7zm11.2 0c0-2.3-1.7-4.3-4.2-4.3s-4.1 2-4.1 4.3 1.7 4.3 4.1 4.3c2.6.1 4.2-1.9 4.2-4.3z"/><path fill="#e6e6e6" d="m162.4 302.6v-8.6h3.1v7.6c0 2.1 1.1 3.3 2.9 3.3s3-1.3 3-3.3v-7.6h3.1v13.4h-3.1v-2.1c-.8 1.3-2.1 2.3-4.2 2.3-3 .2-4.8-1.8-4.8-5z"/><path fill="#e6e6e6" d="m178.1 303.8v-7.1h-1.7v-2.7h1.7v-3.7h3.1v3.7h3.6v2.6h-3.6v6.6c0 1.2.6 1.7 1.7 1.7.7 0 1.3-.2 1.9-.5v2.5c-.8.5-1.7.7-2.8.7-2.3.1-3.9-.9-3.9-3.8z"/><path fill="#e6e6e6" d="m187.4 289.7h3.2v15h9.4v2.9h-12.5v-17.9z"/><path fill="#e6e6e6" d="m210.2 307.5v-1.7c-.9 1.1-2.3 2-4.4 2-2.6 0-4.8-1.4-4.8-4.2 0-3 2.3-4.4 5.4-4.4 1.7 0 2.6.2 3.7.5v-.2c0-1.9-1.2-2.9-3.3-2.9-1.5 0-2.6.3-3.9.8l-.8-2.5c1.5-.7 2.9-1.1 5.1-1.1 4 0 5.9 2.1 5.9 5.7v8zm.1-5.6c-.8-.3-1.9-.5-3.1-.5-2 0-3.1.8-3.1 2.1s1.1 2 2.6 2c2 0 3.5-1.1 3.5-2.9z"/><path fill="#e6e6e6" d="m219.2 305.5v2.1h-3.1v-18.7h3.1v7.4c1-1.4 2.4-2.5 4.5-2.5 3.2 0 6.3 2.5 6.3 7s-3.1 7-6.3 7c-2.2 0-3.6-1.1-4.5-2.3zm7.7-4.7c0-2.6-1.7-4.3-3.9-4.3s-3.9 1.7-3.9 4.4c0 2.6 1.8 4.3 3.9 4.3s3.9-1.7 3.9-4.4z"/><path fill="#e6e6e6" d="m231.2 305.8 1.4-2.1c1.4 1.1 3 1.7 4.4 1.7s2.1-.5 2.1-1.5-1.3-1.4-2.8-1.8c-.1 0-.2-.1-.2-.1-2-.6-4.2-1.4-4.2-4s2.1-4.1 4.8-4.1c1.7 0 3.5.6 5 1.5l-1.2 2.2c-1.3-.8-2.6-1.3-3.8-1.3s-1.9.5-1.9 1.4 1.3 1.4 2.8 1.8c.1 0 .2.1.2.1 2 .6 4.2 1.5 4.2 4 0 2.9-2.2 4.2-5 4.2-2 0-4.1-.7-5.8-2z"/><path fill="#e6e6e6" d="m360.6 298.6c0-5.1 4.1-9.2 9.3-9.2s9.2 4.2 9.2 9.2-4.1 9.2-9.3 9.2-9.2-4.2-9.2-9.2zm17.4-.1c0-4.5-3.5-8.2-8.2-8.2s-8.2 3.7-8.2 8.3c0 4.5 3.5 8.2 8.2 8.2s8.2-3.7 8.2-8.3zm-13.1-.1c0-2.8 2.1-5.1 5.1-5.1 1.9 0 2.9.6 3.9 1.5l-1.4 1.7c-.8-.7-1.5-1.1-2.5-1.1-1.7 0-2.8 1.4-2.8 3.1s1.1 3 2.8 3c1.1 0 1.7-.5 2.5-1.1l1.4 1.4c-1.1 1.1-2.1 1.7-4 1.7-2.8.1-5-2.2-5-5.1z"/><path fill="#e6e6e6" d="m380.5 289.7h3.4l4.2 13.2 4.4-13.3h2.6l4.4 13.3 4.2-13.2h3.3l-6.2 18h-2.7l-4.4-12.8-4.4 12.8h-2.7z"/><path fill="#e6e6e6" d="m406.7 300.8c0-3.9 3.1-7 7.2-7 4.2 0 7.2 3.2 7.2 7s-3.1 7-7.3 7c-4.1 0-7.1-3.1-7.1-7zm11.3 0c0-2.3-1.7-4.3-4.2-4.3s-4.1 2-4.1 4.3 1.7 4.3 4.1 4.3c2.7.1 4.2-1.9 4.2-4.3z"/><path fill="#e6e6e6" d="m423.3 294h3.1v3c.8-2 2.4-3.4 4.8-3.3v3.2h-.2c-2.7 0-4.6 1.7-4.6 5.4v5.1h-3.1z"/><path fill="#e6e6e6" d="m433 288.9h3.1v11.1l5.6-6h3.8l-5.4 5.5 5.5 8h-3.5l-4.1-5.8-1.9 2v3.9h-3.1z"/><path fill="#e6e6e6" d="m445.6 300.8c0-3.9 3.1-7 7.2-7 4.2 0 7.2 3.2 7.2 7s-3.1 7-7.3 7c-4.1 0-7.1-3.1-7.1-7zm11.3 0c0-2.3-1.7-4.3-4.2-4.3s-4.1 2-4.1 4.3 1.7 4.3 4.1 4.3c2.6.1 4.2-1.9 4.2-4.3z"/><path fill="#e6e6e6" d="m462.1 302.6v-8.6h3.1v7.6c0 2.1 1.1 3.3 2.9 3.3s3-1.3 3-3.3v-7.6h3.1v13.4h-3.1v-2.1c-.8 1.3-2.1 2.3-4.2 2.3-3.1.2-4.8-1.8-4.8-5z"/><path fill="#e6e6e6" d="m477.8 303.8v-7.1h-1.8v-2.7h1.7v-3.7h3.1v3.7h3.6v2.6h-3.6v6.6c0 1.2.6 1.7 1.7 1.7.7 0 1.3-.2 1.9-.5v2.5c-.8.5-1.7.7-2.8.7-2.2.1-3.8-.9-3.8-3.8z"/><path fill="#e6e6e6" d="m487.1 289.7h3.2v15h9.4v2.9h-12.5v-17.9z"/><path fill="#e6e6e6" d="m509.9 307.5v-1.7c-.9 1.1-2.3 2-4.4 2-2.6 0-4.8-1.4-4.8-4.2 0-3 2.3-4.4 5.4-4.4 1.7 0 2.6.2 3.7.5v-.2c0-1.9-1.2-2.9-3.3-2.9-1.5 0-2.6.3-3.9.8l-.8-2.5c1.5-.7 2.9-1.1 5.1-1.1 4 0 5.9 2.1 5.9 5.7v8zm.1-5.6c-.8-.3-1.9-.5-3.1-.5-2 0-3.1.8-3.1 2.1s1.1 2 2.6 2c2 0 3.5-1.1 3.5-2.9z"/><path fill="#e6e6e6" d="m518.8 305.5v2.1h-3.1v-18.7h3.1v7.4c1-1.4 2.4-2.5 4.5-2.5 3.2 0 6.3 2.5 6.3 7s-3.1 7-6.3 7c-2.2 0-3.5-1.1-4.5-2.3zm7.7-4.7c0-2.6-1.7-4.3-3.9-4.3s-3.9 1.7-3.9 4.4c0 2.6 1.8 4.3 3.9 4.3s3.9-1.7 3.9-4.4z"/><path fill="#e6e6e6" d="m530.8 305.8 1.4-2.1c1.4 1.1 3 1.7 4.4 1.7s2.1-.5 2.1-1.5-1.3-1.4-2.8-1.8c-.1 0-.2-.1-.2-.1-2-.6-4.2-1.4-4.2-4s2.1-4.1 4.8-4.1c1.7 0 3.5.6 5 1.5l-1.2 2.2c-1.3-.8-2.6-1.3-3.8-1.3s-1.9.5-1.9 1.4 1.3 1.4 2.8 1.8c.1 0 .2.1.2.1 2 .6 4.2 1.5 4.2 4 0 2.9-2.2 4.2-5 4.2-1.9 0-4.1-.7-5.8-2z"/><path fill="#e6e6e6" d="m659.5 298.6c0-5.1 4.1-9.2 9.3-9.2s9.2 4.2 9.2 9.2-4.1 9.2-9.3 9.2-9.2-4.2-9.2-9.2zm17.3-.1c0-4.5-3.5-8.2-8.2-8.2s-8.2 3.7-8.2 8.3c0 4.5 3.5 8.2 8.2 8.2 4.8 0 8.2-3.7 8.2-8.3zm-13-.1c0-2.8 2.1-5.1 5.1-5.1 1.9 0 2.9.6 3.9 1.5l-1.4 1.7c-.8-.7-1.5-1.1-2.5-1.1-1.7 0-2.8 1.4-2.8 3.1s1.1 3 2.8 3c1.1 0 1.7-.5 2.5-1.1l1.4 1.4c-1.1 1.1-2.1 1.7-4 1.7-2.9.1-5-2.2-5-5.1z"/><path fill="#e6e6e6" d="m679.3 289.7h3.4l4.2 13.2 4.4-13.3h2.6l4.4 13.3 4.2-13.2h3.3l-6.2 18h-2.6l-4.4-12.8-4.4 12.8h-2.7z"/><path fill="#e6e6e6" d="m705.5 300.8c0-3.9 3.1-7 7.2-7 4.2 0 7.2 3.2 7.2 7s-3.1 7-7.3 7c-4 0-7.1-3.1-7.1-7zm11.3 0c0-2.3-1.7-4.3-4.2-4.3s-4.1 2-4.1 4.3 1.7 4.3 4.1 4.3c2.7.1 4.2-1.9 4.2-4.3z"/><path fill="#e6e6e6" d="m722.1 294h3.1v3c.8-2 2.4-3.4 4.8-3.3v3.2h-.2c-2.7 0-4.6 1.7-4.6 5.4v5.1h-3.1z"/><path fill="#e6e6e6" d="m731.8 288.9h3.1v11.1l5.6-6h3.8l-5.4 5.5 5.5 8h-3.5l-4.1-5.8-1.9 2v3.9h-3.1z"/><path fill="#e6e6e6" d="m744.4 300.8c0-3.9 3.1-7 7.2-7 4.2 0 7.2 3.2 7.2 7s-3.1 7-7.3 7c-4.1 0-7.1-3.1-7.1-7zm11.3 0c0-2.3-1.7-4.3-4.2-4.3s-4.1 2-4.1 4.3 1.7 4.3 4.1 4.3c2.6.1 4.2-1.9 4.2-4.3z"/><path fill="#e6e6e6" d="m760.9 302.6v-8.6h3.1v7.6c0 2.1 1.1 3.3 2.9 3.3s3-1.3 3-3.3v-7.6h3.1v13.4h-3.1v-2.1c-.8 1.3-2.1 2.3-4.2 2.3-3.1.2-4.8-1.8-4.8-5z"/><path fill="#e6e6e6" d="m776.6 303.8v-7.1h-1.7v-2.7h1.7v-3.7h3.1v3.7h3.6v2.6h-3.6v6.6c0 1.2.6 1.7 1.7 1.7.7 0 1.3-.2 1.9-.5v2.5c-.8.5-1.7.7-2.8.7-2.3.1-3.9-.9-3.9-3.8z"/><path fill="#e6e6e6" d="m785.9 289.7h3.2v15h9.4v2.9h-12.5v-17.9z"/><path fill="#e6e6e6" d="m808.7 307.5v-1.7c-.9 1.1-2.3 2-4.4 2-2.6 0-4.8-1.4-4.8-4.2 0-3 2.3-4.4 5.4-4.4 1.7 0 2.6.2 3.7.5v-.2c0-1.9-1.2-2.9-3.3-2.9-1.5 0-2.6.3-3.9.8l-.8-2.5c1.5-.7 2.9-1.1 5.1-1.1 4 0 5.9 2.1 5.9 5.7v8zm.1-5.6c-.8-.3-1.9-.5-3.1-.5-2 0-3.1.8-3.1 2.1s1.1 2 2.6 2c2 0 3.5-1.1 3.5-2.9z"/><path fill="#e6e6e6" d="m817.6 305.5v2.1h-3.1v-18.7h3.1v7.4c1-1.4 2.4-2.5 4.5-2.5 3.2 0 6.3 2.5 6.3 7s-3.1 7-6.3 7c-2.1 0-3.5-1.1-4.5-2.3zm7.7-4.7c0-2.6-1.7-4.3-3.9-4.3-2.1 0-3.9 1.7-3.9 4.4 0 2.6 1.8 4.3 3.9 4.3 2.2 0 3.9-1.7 3.9-4.4z"/><path fill="#e6e6e6" d="m829.6 305.8 1.4-2.1c1.4 1.1 3 1.7 4.4 1.7s2.1-.5 2.1-1.5-1.3-1.4-2.8-1.8c-.1 0-.2-.1-.2-.1-2-.6-4.2-1.4-4.2-4s2.1-4.1 4.8-4.1c1.7 0 3.5.6 5 1.5l-1.2 2.2c-1.3-.8-2.6-1.3-3.8-1.3s-1.9.5-1.9 1.4 1.3 1.4 2.8 1.8c.1 0 .2.1.2.1 2 .6 4.2 1.5 4.2 4 0 2.9-2.2 4.2-5 4.2-1.9 0-4-.7-5.8-2z"/><path fill="#e6e6e6" d="m206.3 434.2c0-5.1 4.1-9.2 9.3-9.2s9.2 4.2 9.2 9.2-4.1 9.2-9.3 9.2-9.2-4.1-9.2-9.2zm17.4-.1c0-4.5-3.5-8.2-8.2-8.2s-8.2 3.7-8.2 8.3c0 4.5 3.5 8.2 8.2 8.2s8.2-3.7 8.2-8.3zm-13.1-.1c0-2.8 2.1-5.1 5.1-5.1 1.9 0 2.9.6 3.9 1.5l-1.4 1.7c-.8-.7-1.5-1.1-2.5-1.1-1.7 0-2.8 1.4-2.8 3.1s1.1 3 2.8 3c1.1 0 1.7-.5 2.5-1.1l1.4 1.4c-1.1 1.1-2.1 1.7-4 1.7-2.9.1-5-2.2-5-5.1z"/><path fill="#e6e6e6" d="m226.1 425.3h3.4l4.2 13.2 4.4-13.3h2.6l4.4 13.3 4.2-13.2h3.3l-6.2 18h-2.7l-4.4-12.8-4.4 12.8h-2.7z"/><path fill="#e6e6e6" d="m252.4 436.4c0-3.9 3.1-7 7.2-7 4.2 0 7.2 3.2 7.2 7s-3.1 7-7.3 7c-4.1 0-7.1-3.1-7.1-7zm11.2 0c0-2.3-1.7-4.3-4.2-4.3s-4.1 2-4.1 4.3 1.7 4.3 4.1 4.3c2.7.1 4.2-1.9 4.2-4.3z"/><path fill="#e6e6e6" d="m269 429.7h3.1v3c.8-2 2.4-3.4 4.8-3.3v3.2h-.2c-2.7 0-4.6 1.7-4.6 5.4v5.1h-3.1z"/><path fill="#e6e6e6" d="m278.6 424.5h3.1v11.1l5.6-6h3.8l-5.4 5.5 5.5 8h-3.5l-4.1-5.8-1.9 2v3.9h-3.1z"/><path fill="#e6e6e6" d="m291.3 436.4c0-3.9 3.1-7 7.2-7 4.2 0 7.2 3.2 7.2 7s-3.1 7-7.3 7c-4.1 0-7.1-3.1-7.1-7zm11.2 0c0-2.3-1.7-4.3-4.2-4.3s-4.1 2-4.1 4.3 1.7 4.3 4.1 4.3c2.6.1 4.2-1.9 4.2-4.3z"/><path fill="#e6e6e6" d="m307.7 438.2v-8.6h3.1v7.6c0 2.1 1.1 3.3 2.9 3.3s3-1.3 3-3.3v-7.6h3.1v13.4h-3.1v-2.1c-.8 1.3-2.1 2.3-4.2 2.3-3 .2-4.8-1.8-4.8-5z"/><path fill="#e6e6e6" d="m323.4 439.4v-7.1h-1.7v-2.6h1.7v-3.7h3.1v3.7h3.6v2.6h-3.6v6.6c0 1.2.6 1.7 1.7 1.7.7 0 1.3-.2 1.9-.5v2.5c-.8.5-1.7.7-2.8.7-2.3 0-3.9-.9-3.9-3.9z"/><path fill="#e6e6e6" d="m332.7 425.3h3.2v15h9.4v2.9h-12.5v-17.9z"/><path fill="#e6e6e6" d="m355.5 443.1v-1.7c-.9 1.1-2.3 2-4.4 2-2.6 0-4.8-1.4-4.8-4.2 0-3 2.3-4.4 5.4-4.4 1.7 0 2.6.2 3.7.5v-.2c0-1.9-1.2-2.9-3.3-2.9-1.5 0-2.6.3-3.9.8l-.8-2.5c1.5-.7 2.9-1.1 5.1-1.1 4 0 5.9 2.1 5.9 5.7v8zm.1-5.6c-.8-.3-1.9-.5-3.1-.5-2 0-3.1.8-3.1 2.1s1.1 2 2.6 2c2 0 3.5-1.1 3.5-2.9z"/><path fill="#e6e6e6" d="m364.4 441.1v2.1h-3.1v-18.7h3.1v7.4c1-1.4 2.4-2.5 4.5-2.5 3.2 0 6.3 2.5 6.3 7s-3.1 7-6.3 7c-2.1 0-3.5-1.1-4.5-2.3zm7.7-4.7c0-2.6-1.7-4.3-3.9-4.3-2.1 0-3.9 1.7-3.9 4.4 0 2.6 1.8 4.3 3.9 4.3 2.2 0 3.9-1.7 3.9-4.4z"/><path fill="#e6e6e6" d="m376.5 441.4 1.4-2.1c1.4 1.1 3 1.7 4.4 1.7s2.1-.5 2.1-1.5-1.3-1.4-2.8-1.8c-.1 0-.2-.1-.2-.1-2-.6-4.2-1.4-4.2-4s2.1-4.1 4.8-4.1c1.7 0 3.5.6 5 1.5l-1.2 2.2c-1.3-.8-2.6-1.3-3.8-1.3s-1.9.5-1.9 1.4 1.3 1.4 2.8 1.8c.1 0 .2.1.2.1 2 .6 4.2 1.5 4.2 4 0 2.9-2.2 4.2-5 4.2-2 0-4.1-.7-5.8-2z"/><path fill="#e6e6e6" d="m505.1 434.2c0-5.1 4.1-9.2 9.3-9.2s9.2 4.2 9.2 9.2-4.1 9.2-9.3 9.2-9.2-4.1-9.2-9.2zm17.4-.1c0-4.5-3.5-8.2-8.2-8.2s-8.2 3.7-8.2 8.3c0 4.5 3.5 8.2 8.2 8.2s8.2-3.7 8.2-8.3zm-13.1-.1c0-2.8 2.1-5.1 5.1-5.1 1.9 0 2.9.6 3.9 1.5l-1.4 1.7c-.8-.7-1.5-1.1-2.5-1.1-1.7 0-2.8 1.4-2.8 3.1s1.1 3 2.8 3c1.1 0 1.7-.5 2.5-1.1l1.4 1.4c-1.1 1.1-2.1 1.7-4 1.7-2.9.1-5-2.2-5-5.1z"/><path fill="#e6e6e6" d="m525 425.3h3.4l4.2 13.2 4.4-13.3h2.6l4.4 13.3 4.2-13.2h3.3l-6.2 18h-2.7l-4.4-12.8-4.4 12.8h-2.7z"/><path fill="#e6e6e6" d="m551.2 436.4c0-3.9 3.1-7 7.2-7 4.2 0 7.2 3.2 7.2 7s-3.1 7-7.3 7c-4.1 0-7.1-3.1-7.1-7zm11.2 0c0-2.3-1.7-4.3-4.2-4.3s-4.1 2-4.1 4.3 1.7 4.3 4.1 4.3c2.7.1 4.2-1.9 4.2-4.3z"/><path fill="#e6e6e6" d="m567.8 429.7h3.1v3c.8-2 2.4-3.4 4.8-3.3v3.2h-.2c-2.7 0-4.6 1.7-4.6 5.4v5.1h-3.1z"/><path fill="#e6e6e6" d="m577.5 424.5h3.1v11.1l5.6-6h3.8l-5.4 5.5 5.5 8h-3.5l-4.1-5.8-1.9 2v3.9h-3.1z"/><path fill="#e6e6e6" d="m590.1 436.4c0-3.9 3.1-7 7.2-7 4.2 0 7.2 3.2 7.2 7s-3.1 7-7.3 7c-4.1 0-7.1-3.1-7.1-7zm11.2 0c0-2.3-1.7-4.3-4.2-4.3s-4.1 2-4.1 4.3 1.7 4.3 4.1 4.3c2.6.1 4.2-1.9 4.2-4.3z"/><path fill="#e6e6e6" d="m606.5 438.2v-8.6h3.1v7.6c0 2.1 1.1 3.3 2.9 3.3s3-1.3 3-3.3v-7.6h3.1v13.4h-3.1v-2.1c-.8 1.3-2.1 2.3-4.2 2.3-3 .2-4.8-1.8-4.8-5z"/><path fill="#e6e6e6" d="m622.2 439.4v-7.1h-1.7v-2.6h1.7v-3.7h3.1v3.7h3.6v2.6h-3.6v6.6c0 1.2.6 1.7 1.7 1.7.7 0 1.3-.2 1.9-.5v2.5c-.8.5-1.7.7-2.8.7-2.3 0-3.9-.9-3.9-3.9z"/><path fill="#e6e6e6" d="m631.5 425.3h3.2v15h9.4v2.9h-12.5v-17.9z"/><path fill="#e6e6e6" d="m654.3 443.1v-1.7c-.9 1.1-2.3 2-4.4 2-2.6 0-4.8-1.4-4.8-4.2 0-3 2.3-4.4 5.4-4.4 1.7 0 2.6.2 3.7.5v-.2c0-1.9-1.2-2.9-3.3-2.9-1.5 0-2.6.3-3.9.8l-.8-2.5c1.5-.7 2.9-1.1 5.1-1.1 4 0 5.9 2.1 5.9 5.7v8zm.1-5.6c-.8-.3-1.9-.5-3.1-.5-2 0-3.1.8-3.1 2.1s1.1 2 2.6 2c2 0 3.5-1.1 3.5-2.9z"/><path fill="#e6e6e6" d="m663.3 441.1v2.1h-3.1v-18.7h3.1v7.4c1-1.4 2.4-2.5 4.5-2.5 3.2 0 6.3 2.5 6.3 7s-3.1 7-6.3 7c-2.2 0-3.6-1.1-4.5-2.3zm7.7-4.7c0-2.6-1.7-4.3-3.9-4.3s-3.9 1.7-3.9 4.4c0 2.6 1.8 4.3 3.9 4.3s3.9-1.7 3.9-4.4z"/><path fill="#e6e6e6" d="m675.3 441.4 1.4-2.1c1.4 1.1 3 1.7 4.4 1.7s2.1-.5 2.1-1.5-1.3-1.4-2.8-1.8c-.1 0-.2-.1-.2-.1-2-.6-4.2-1.4-4.2-4s2.1-4.1 4.8-4.1c1.7 0 3.5.6 5 1.5l-1.2 2.2c-1.3-.8-2.6-1.3-3.8-1.3s-1.9.5-1.9 1.4 1.3 1.4 2.8 1.8c.1 0 .2.1.2.1 2 .6 4.2 1.5 4.2 4 0 2.9-2.2 4.2-5 4.2-2 0-4.1-.7-5.8-2z"/></g>
</svg>
