<?xml version="1.0" encoding="utf-8"?>
<!-- Generator: Adobe Illustrator 23.0.1, SVG Export Plug-In . SVG Version: 6.00 Build 0)  -->
<svg version="1.2" baseProfile="tiny" id="Layer_1" xmlns="http://www.w3.org/2000/svg" xmlns:xlink="http://www.w3.org/1999/xlink"
	 x="0px" y="0px" viewBox="0 0 900 600" xml:space="preserve">
<g>
	<path d="M283,313.16c-3.23,1.62,0.77-3.33-1.54-11.19c-1.47-4.99-0.55-10.87-1.44-30.79c-1.25-28.08,3.35-43.97-0.92-45.68
		c-3.36-10.7-6.46-13.14-5.75-19.19c1.61-13.64-5.61-36.36-5.85-36.85c3.57-10.7,8.63-34.35,1.13-41.67
		c-1.54-1.51-2.32-5.39-8.52-8.31c-13.97-6.6-4.04-5.27-18.48-19.71c0.68-7.03,0.08-16.32,1.74-16.32c3.71,0.49,5.14-2.01,6.16-5.03
		c2.96-8.78,3.27-6.15,4-11.29c0.87-6.11,0.2-8.16,1.85-11.19c2.99-5.49-1.87-17.76-1.23-8.11c0.39,5.84-0.88,5.47-1.44,9.34
		c-1.04,12-0.78,9.33-4.82,21.76c-0.43,1.33-0.82,2.57-2.46,3.28c-14.24-0.38-11.56-0.53-13.14,0.41c2.26,2.36,5.34,1.23,8.11,2.26
		c-1.74,3.28-1.33,6.67-1.74,10.06c-1.94,16.01,0.62,8.31,1.85,8.31c10.8,13.29,5.62,10.07,0.92,10.78
		c-6.27,0.94-4.15,2.42-6.36,0.21c-0.68,5.41-2.03,4.98,1.95,3.49c2.21-0.83,7.08-3.12,10.37-2.26c0.62,4.24,0.81,11.79,0,16.63
		c-3.49,1.13-6.88,0.82-10.37,0.1c-0.72-1.74-0.72-3.9-2.87-4.82c-1.18,1.77,1.1,3.19,0,4.11c-6.44,3.22-28.5-23.9-37.77-42.6
		c-2.93-5.91-4.58-2.27,7.18-13.65c1.94,3.24,0.72,2.22,1.74,5.03c1.33,4.89,3,4.06,1.03-4.52c-1.42-6.15,0.8-9,1.23-16.73
		c0-1.64,0.82-3.08,2.46-3.8c0.1,0,0.1-0.41,0.21-0.62c-2.16-0.62-2.16-0.62-3.18-2.77c3.46-0.77,2.68,0.58,3.49-6.67
		c-1.54-1.33-3.18-2.16-2.98-4.21c2.74-0.98,2.75,0.75,3.39,3.59c0.83,3.69,1.68,3.27,1.44,3.39c0,0.92,0,1.85,0,3.08
		c3.33-1.54,4.19-11.09,6.26-13.55c5.4-6.42,3.35-10.13,7.9-9.44c0.23,0,0.66-0.43,0.31-1.13c0.82-0.62,2.46-0.31,2.67-2.05
		c-0.51-1.03-1.03-2.05-1.64-3.28c-5.77,0-4.82,0.1-2.16-2.57c7.54,3.77,5.93,6.5,6.67,2.77c12.21-1.53,14.08,1.79,18.27-0.31
		c4.12-1.65,0.79,6.95,4.93,12.62c-1.21,4.03,0.37,1.44-5.65,4.62c-5.29,2.79-3.47,6.49-2.98,9.44c0.31-1.95,0.51-3.08,0.82-4.62
		c2.46,1.33,4.62,0,6.88-0.51c3.68-14.12,1.83-1.38-0.31-22.79c1.74-3.18,5.44-3.9,7.8-6.26c0-5.05,1.77-4.41-4.72-4.41
		c0.92-1.64,3.18-1.44,3.49-3.28c-1.04-3.11-5.95,1.86-5.95-0.1c0.4-5.93,0.31-4.61-0.72-6.16c-3.85,3.85-2.8,2.72-4.62,3.55
		c0-0.39,0-0.84,0-1.4c-3.59-0.36,0.06-0.81-10.16,1.74c-0.92-0.31-1.64-0.72-2.46-0.72c-12.29,0-12.26,0.29-13.24,2.26
		c-0.14,0.21-1.08,0.79-1.85,0.41c-0.62-0.62,0.31-2.16-1.44-2.26c-2.46,2.87-5.44,4.82-9.65,4.93c-3.38-2.96-2.19-2.46-5.75-2.46
		c-0.21,1.74,1.54,2.16,1.85,3.59c-0.51,0.41-1.33,0.92-1.33,1.44c0.23,3.99-5.14,4.76,2.05,3.8c1.65,2.75,1.25,2,4.11,1.64
		c1.28,0.92-0.48,2.6-0.82,2.26c-2.87-1.97-4.66,0.02-6.26,0.82c-0.97-0.69-0.02-0.94,1.33-2.98c-2.06-1.47-2.03-1.29-2.98-0.82
		c0.31,0.51,0.82,1.44,0.62,1.54c-0.92,0.92-0.51,2.26-1.23,2.98c-2.16,2.16-1.08,3.64-2.98,8.42c-4.44,11.15,2.96,14.87,1.23,18.99
		c-1.93,4.61,5.08,1.37,1.54,25.46c-22.67,19.58-15.51,18.49-24.43,20.94c-5.79,1.59-4.27,0.77-8.83,4.62
		c-1.1,1.1-2.28,2.17-0.82,2.98c2.69-1.35,3.37-1.93,7.49-4.93c3.31-2.41,9.11-1.78,10.78-6.16c0-3.92,8.93,17.81,8.93,22.99
		c0,3.18,2.52,1.4,4,10.47c3.98,24.35-1.87,39-3.9,38.49c0.21,0.31,0.31,0.72,0.51,1.03c12.38-12.38,8.28-42.71,1.44-49.27
		c0.1-3.7-1.12-7.19-2.57-10.57c-7.04-16.51-8.49-13.66-2.46-17.96c1.8,1.11,1.2,1.98,10.67,17.55
		c20.34,33.41,29.43,31.92,43.93,32.64c8.49-4.92-6.68-46.54,12.93,11.09c1.69,4.96,2.46,3.6,2.46,5.54
		c0.71,9.56,2.08,13.33-13.86,31.92c0.89,5.68-0.7,13.96-1.13,17.45c-2.49,20.34-4.35,10.31-8.31,31.72
		c-0.7,5.59,0.9,3.97-2.87,19.19c-1.03,4.14-4.38,8.76-4.72,14.06c-2.94,4.42-5.88,2.77-14.78,2.77c-12.05,0-17.48,0.37-25.66-4.52
		c-10.76-6.43,5.85-10.1-2.57-44.34c3.59-2.46,4.42-6.16,4.72-9.96c0.23-2.92,1.29-21.35,0.21-28.94
		c-1.04-7.29,4.41,5.55,13.75,0.31c-1.2-1.2-4.75-2.24-9.44-4.82c-5.71-3.14-4.71,2.64-5.65-6.88c-0.69-6.99,3.39-4.35,3.39-10.16
		c-4.09,4.72-3.17,4.67-4.11,1.85c3.16-2.83,6.24-10.47,3.49-10.47c-4.82,8.44-8.06,11.06-3.59,35.62
		c1.32,7.26-1.48,5.49-2.57,28.02c-0.26,5.33-2.54,2.71-1.85,6.98c2.24,13.93,3.4,14.78,2.16,20.22c-0.99,4.33-3.87,13.72-3.8,19.4
		c0.06,4.94,0.94,21.84,2.05,26.69c0.79,3.45-0.5,5.07-1.03,10.47c-0.52,5.3-0.34,21.65,0.51,23.4c3.63,7.44,5.6,12.27,9.55,14.99
		c1.52,1.05,2.98,2.98,2.57,5.03c-0.41,2.05-0.73,4.31-1.85,6.26c-4.48,7.84-4.87,10.48-9.24,11.7c0.21,1.44,0.82,2.05,1.64,1.23
		c1.85-1.23,3.67-2.37,4.62-4.52c2.6-5.89,5.69-3.03,10.88-4.11c5.4-3.77,6.39-15.17-1.74-15.29c-5.3-0.08-2.56,0.22-9.85-8.31
		c-2.32-2.72-2.23-3.52-0.62-6.16c8.43-13.76,11.43-9.22,15.29-9.14c6.49,0.15,11.82,10.02,13.75,16.22
		c8.47,27.09-7.84,51.12-21.97,46.29c-6.35-2.17-17.19-13.86-12.01-16.22c-0.1-1.85,0.62-3.49,2.77-5.34
		c4.2-6.79,5.27-6.78,4.62-7.6c-6.17,2.47-7.34,10.39-8.11,12.11c-1.16-3.47-1.37,0.33,1.33-12.73
		c-1.51-8.05-1.83-28.13-18.48-36.23c-0.62-3.39-2.05-6.57-1.54-10.16c0.26-1.17-2.83-12.84-2.57-13.24
		c1.63-2.49-4.33-13.52-5.03-22.89c0-4.32-3.83,2.62-1.03-21.25c1.33,1.74,0.92,4.11,2.87,6.16c-1.45-9.4-3.43-11.35-2.57-15.91
		c1.43-7.58,0.69-9.73,2.05-12.32c0.59-1.12-0.23-5.49-0.31-9.44c-0.08-3.9,8.81,3.99-6.88-20.94c-7.58-12.05-6.57-16.37-6.57-31.1
		c0-2.48,0.18-2.03,2.16-2.87c-2.14-7.85-3.88-12.95-3.18-20.63c2.25-24.74,22.65-31.77,19.5-33.87
		c-21.4,16.64-16.47,17.48-21.66,26.17c-2.52,4.22-2.26,9.95-2.16,16.53c0.11,6.98,3.59,8.98,3.59,13.65
		c0,22.04-0.07,20.26,0.21,23.81c2.48,1.55,1.38,0.29,3.59,6.67c3.33,9.61,7.61,13.24,8.62,18.89c1.31,7.32-0.72,21.32-1.03,26.38
		c-0.3,5,0.1,8.09-3.39,11.19c-3.46-2-4.94,2.28-6.36,5.13c-2.44-0.27-1.48,1.73-9.24,8.62c-7.55,6.7-1.43,3.21-4.82,13.14
		c-6.24,18.28-3.91,21.94-5.95,27.2c-5.11,13.18-7.18,28.72-7.6,33.97c-0.43,5.48-0.88,5.34-7.7,25.97
		c-5.55,16.78-6.01,17.52,1.44,22.27c6.51,4.15,6.62,2.36,6.57,5.85c-0.18,12.47,0.22,17.57-8.21,24.12
		c-2.72-0.21-3.31,0.36-17.96,5.65c-1.83,0.66-12.3,1.75-23.81,18.48c-35.14,51.03-28.81,33.73-33.46,43.01
		c-4.92,9.8,5.02,16.11,8.42,16.42c14.18,1.31,13.23,0.36,13.55-3.08c2.39,0.96,0.74,0.34,0.82,4.31c0.05,2.67-1.13,4.93-2.57,6.98
		c-9.68,0.35-11.97,1.13-15.81,0.41c-4.2-0.79-3.57,2.95-1.95,3.59c4.73,2.36,13.92-1.15,16.73-1.85c1.23,2.16-0.41,3.28-1.13,4.62
		c-9.97,1.73-11.86,0.1-14.78,0.1c-3.86,0.35,0.39,8.28,11.09,4c0.62-0.31,1.33-0.62,1.95-0.82c0.72,1.64,0.72,1.64-0.1,4
		c-4.41,0-9.98,0.46-12.73,0.72c-2.54,0.42-3.9,3.28,1.64,5.13c-0.41,0.41-0.62,0.72-0.92,0.82c-4.25,1.96-1.26,8.18,10.98,3.59
		c0.62,2.67,1.15,5.13,1.44,7.7c0.9,8.02,8.01,19.41,2.77,23.09c-5.93,4.18-7.32,1.95-10.37,1.95c-3.55-0.22-9.85-3.15-10.06-4
		c-1.53-4.29-21.23-10.6-14.37-33.56c3.27-10.96-1.97-10.51-6.36-16.94c-1.58-2.64-0.08-2.09,0.31-8.62
		c0.29-4.83,1.64-9.44,3.49-13.45c13.31-5.07,9.75-2.56,19.81-11.91c1.33-0.51,2.16,0.72,2.87-0.41c-0.92-1.03-1.95-1.54-3.49-1.64
		c-18.51,15.59-23.01,6.76-25.04,25.66c-0.59,5.45-3.04,7.22-0.51,11.29c0.65,1.04,4.35,6.68,5.34,7.39
		c3.07,2.56,3.31-4.09,0.41,15.5c-0.16,1.07-1.25,8.45,0.21,9.55c0.41,0.31,1.03,0.1,1.74,0.1c4.28,14.83,25.86,30.86,37.57,21.55
		c4.5-3.58,2.83-11.63,1.44-14.68c-7.62-16.63-3.91-34.77,0.92-42.8c2.43-4.04,1.39-5.94,2.57-9.85c0.59-1.96-0.4-3.23-2.57-3.59
		c-0.72-0.12-1.54,0.41-1.95-0.72c2.94-6.51,7.93-10.98,9.55-13.34c3.95-5.77,4.03-0.22,44.65-26.99c6.62-4.37,4.48-6.99,16.83-9.14
		c9.92-1.73,4.62-2.14,10.67-4.11c8.45-2.74,9.54-8.41,13.34-15.7c2.06-4.53,6.08-5.7,7.6-11.6c10.08,1.68,2.76,1.3,14.68-0.1
		c1.72,9.46,2.83,11.47,1.23,16.11c-2.98,11.92,2.26,12.03-2.36,21.55c-2.76,5.68-9.4,20-8.72,26.28c0.14,1.33-1.04,4.3-1.23,6.16
		c-0.94,9,4.29,15.77,3.9,24.74c-0.6,13.85-0.45,17.96-1.33,20.53c-6.24,18.08-4.17,26.65-5.75,32.95c1.85,2.46,4.53,5.11,6.67,6.36
		c0.52,0.3,1.33,0.31,1.64,0.41c9.42-6.94,11.99-8.23,11.5-11.19c3.18-2.87,7.39-2.77,10.88-4.72c2.41,8.26,0.4,6.6-3.18,10.47
		c-1.43,1.55-2.26,3.18-1.44,5.44c5.3-1.28,7.83-7.57,9.14-2.36c-1.44,1.13-2.85,2.08-4.11,3.28c-2.58,2.47-1.57,8.45,6.77-0.31
		c4.07,2.85,1.43,2.78-0.92,4.52c-3.44,2.54-2.13,7.67,2.57,2.98c3.29-4.02,2.46-3.9,4.93-2.36c-6.94,4.96-2.56,7.79-0.92,6.16
		c2.82-2.82,2.09-3.82,3.39-4.21c4.15,2.64,1.01,4.87,2.77,6.36c3.37-1.01,3.25-1.05,4.21-0.41c5.5,5,8.05,1.68,12.01,5.03
		c0.45,4.49-0.08,5.1,1.54,9.96c-8.85,5.05-17.71,3.78-28.53,2.98c-6.86-0.51-13.42-5.3-25.15-4.11
		c-15.79,1.61-11.46,2.16-26.58-4.41c0-1.47,2.81-2.72,3.39-8.11c6.12-18.36,1.13-15.02,8.72-25.15c-1.02-3.39-2.85,0.07-4.62,2.46
		c-2.11,2.86-4.08,5.87-3.39,9.34c0.65,5.2-5.85,17.44-5.85,22.68c2.05,3.8,5.53,5.89,9.75,6.88c3.54,0.83,0.8-0.51,9.44-0.31
		c3.13,0.07,3.19,0.86,11.91-1.54c2.64-0.73,42.71,14.15,54.09-0.82c-0.51-0.62-1.13-1.23-1.64-1.85c1.27-3.96,0.29-10.87-3.8-11.8
		c-6.98-1.6-7.57-1.13-9.75-2.98c-5.46-3.97-4.94-3.18-5.85-4.82c-2.39-4.31-9.39-5.14-11.19-9.14c-1.06-2.35-3.39-4-3.28-6.88
		c0.35-1.04-1.5-0.22-2.46-4.72c-1.66-7.73-1.86-6.31-4.72-4.72c-0.82-4.82-1.14-9.24,0.31-13.65c2.63-7.98,3.55-23.72,7.39-26.28
		c1.17-0.78,8.79-20.58,10.16-33.46c1.43-13.39,0.09-1.61,2.98-29.56c0.32-3.12,5.34-3.86,5.34-27.92c3.49-4,4.11-9.44,5.85-14.37
		c6.03-2.51,8.57-3.81,8.72-6.57c2.24-41.27,0.99-17,15.29-17.76c1.33,0,8.37,3,16.32-4.11c4.52-4.04,5.81-8.02,8.42-13.55
		c8.67,17.33,12,14.52,18.58,15.91c24.22,5.1,33.15-38.92,14.68-57.99C297.29,309.28,287.31,310.4,283,313.16z M250.87,41.26
		c0-0.47-0.33-0.19,2.26-0.92C255.27,41.76,251.07,41.26,250.87,41.26z M258.98,11.5c0.1,0.31,0.31,0.62,0.21,0.72
		c-0.62,0.82-0.62,2.16-2.16,2.36C256.63,11.39,255.59,12.47,258.98,11.5z M251.39,5.44c0.92-0.1,1.23,0.41,0.92,1.03
		c-0.21,0.62-0.82,0.92-1.33,1.44C250.41,7.06,250.67,7.59,251.39,5.44z M248.61,19.5c0.6,0,0.69,0.41,0.31,0.41
		C248.32,19.91,248.23,19.5,248.61,19.5z M241.43,9.24c0.1,0,0.31,0.09,0.31,0.21C241.5,9.68,240.71,9.42,241.43,9.24z
		 M240.92,12.42c0.25,0,0.85,0.18,0.51,0.51C240.99,13.81,239.56,13.1,240.92,12.42z M242.04,18.78c-0.72,0.62-1.13,0.51-1.33-0.21
		c-0.82,0.1-1.54,0.1-2.16-0.82C239.7,17.04,239.97,18.44,242.04,18.78z M237.8,15.02c0,0.11,0.17,0.13-0.16,0.79
		C236.94,15.46,237.33,15.46,237.8,15.02z M236.19,17.55c-0.94,0.19-1.57-1.13-1.13-1.13c0.83-0.56,1.33,0.78,1.33,0.92
		C236.3,17.35,236.19,17.45,236.19,17.55z M236.91,8.72c-1.03,0.82-1.85,1.64-2.87,2.46C233.17,8.59,234.31,8.2,236.91,8.72z
		 M230.04,11.09c0.2,0,0.07,0.14-0.1,0.31C230.04,11.29,230.04,11.19,230.04,11.09z M227.88,6.47c0.85,0.43,0.41-0.09,0.41,0.72
		C227.69,6.88,227.71,6.81,227.88,6.47z M210.33,10.06c0.15,0.15,0.24,0.29,0.3,0.41C210.08,10.47,210,10.39,210.33,10.06z
		 M210.64,10.49C210.81,10.87,210.64,11.03,210.64,10.49L210.64,10.49z M220.49,29.36c-0.31-1.44-0.1-2.36,0.72-3.28
		C222.76,27.62,222.86,26.64,220.49,29.36z M219.16,9.55c-0.41,1.54-0.41,1.54-2.46,1.44C217.92,10.37,218.44,10.06,219.16,9.55z
		 M220.59,16.01c0.72,1.74-0.72,2.25-1.44,3.08c-1.24,1.43-1.33,1.33-2.57,1.23C217.21,18.27,219.16,17.45,220.59,16.01z
		 M216.38,16.01c0.26,0.26-0.41,1.03-0.41,0.41C216.08,16.32,216.28,16.22,216.38,16.01z M215.67,29.66
		c-0.39,0.77-0.27,0.68-0.41,0.41C215.36,29.97,215.56,29.77,215.67,29.66z M215.15,32.33c0.96,2.68-1.33,2.54-1.33,1.64
		C214.23,33.46,214.64,32.95,215.15,32.33z M214.23,42.9c-0.35,1.06,0.33,0.76-0.62,1.23C213.16,43.68,213.86,43.27,214.23,42.9z
		 M213.41,47.01c0,0.23-0.53,0.54-0.79,0.74C212.76,46.59,213.41,46.71,213.41,47.01z M213.2,32.33c-0.82,0.51-1.54,1.03-2.87,1.85
		C211.36,31.82,211.36,31.82,213.2,32.33z M201.3,41.67c-0.14-0.14-0.17-0.41,0.1-0.41C201.65,41.52,201.4,41.57,201.3,41.67z
		 M204.27,53.78c-0.29-0.58-0.26-0.66,0-0.92C204.75,53.81,204.57,53.49,204.27,53.78z M207.76,49.06c0,0.48,0.51,0.36-0.41,0.82
		C206.98,49.13,207.48,49.2,207.76,49.06z M207.15,30.59c1.4,0,0.78,1.03-0.21,4.72C206.22,33.36,206.12,32.02,207.15,30.59z
		 M202.73,46.5c-0.31-1.23,0.21-2.05,1.74-2.46c0.51,0.62,1.13,1.23,1.74,1.85c-2.25,4.12-1.33,2.37-1.33,3.28
		C203.8,48.08,203.35,48.35,202.73,46.5z M205.3,340.77c2.36,2.77,1.85,5.85,0.62,8.93c-2.46,1.44-5.13,2.77-8.42,1.64
		C204.13,338.08,199.48,341.74,205.3,340.77z M51.75,525.22c-13.39-2.57-7.94,0.04,0.21-4.52
		C52.47,523.06,52.47,523.06,51.75,525.22z M252.31,117.42c0.17,0.17,0.25,0.01,0.3,0.3C252.5,117.62,252.41,117.52,252.31,117.42z
		 M250.77,197.89c1.81-15.15-0.8-13.51,1.33-14.58c5.41-3.36,7.92-9.02,10.47-15.5c1.68-4.26,1.03-7.54,0.21-18.48
		c-0.43-5.74-2.86-3.67-2.36-6.16c0.35-3.66-7.8-23.26-7.8-25.35c0.6,0.12,16.21,8.07,16.73,20.94c0.88,21.86-4.1,26.58-3.18,30.38
		c0.82,3.38,1.38,38.68,11.6,55.12c3.85,4.89-0.17-10.46,1.33,75.34c0.04,2.37,2.22,5.38,1.03,10.47c-1.48,6.31,1.24,4.67,0.82,9.75
		c-0.71,8.6,4.53,14.04,4.21,17.14c0,0.51,0.41,1.13,0.72,1.74c-2.31,3.86,1.02,1.86-8.09,8.94c0.12-1.86,3-4.09,2.03-5.45
		c-3.12,1.11-4.35,5.84-6.98,7.6c-0.82-1.54,0.72-2.36,0.72-3.7c-0.21-0.41-0.92-1.03-0.82-1.33c0.43-1.33-0.32-2.46-0.21-3.59
		c0.47-4.73-1.31-9.14-2.46-13.55c-2.69-10.32-5.71-6.51-3.08-14.58c2.48-7.59-6.89-35.11-6.99-35.22
		c1.57-1.85-8.77-15.52-9.74-26.57c-0.73-8.37-0.62-16.43-0.62-31.31c1.34,0,1.63,0.71-0.41-5.23
		C247.2,208.81,250.21,202.6,250.77,197.89z M286.28,341.9c0.12-1.95,1.54-2.98,3.7-3.18c4.53,7.71-1.27,11.37-8.62,9.85
		C285.28,344.64,286.16,343.83,286.28,341.9z M259.9,277.65c0,0.03,0,0.07,0,0.1C259.59,277.44,259.8,277.54,259.9,277.65z
		 M234.04,264.3c1.13-4.42,1.13-5.46,1.74-5.95c2.89-2.89,2.08-10.95,4.72-18.68c2.04-3.06-4.84,4.84,6.47-24.22
		c1.16,1.45,2.12,2.63,2.49,4.21c-3.91,0.07-3.79,31.26,1.3,41.36c3.67,7.28,7.66,25.39,12.21,35.72
		c1.47,3.34,1.28,11.51,2.67,16.22c0.3,1.03,0.1,1.33-1.44,3.8c-1.49-0.8-5.26-6.35-12.73-7.29c-12.35-1.54-14.77,5.86-14.88,1.03
		c-0.21-9.35-1.13-5.11-0.72-9.14c0.85-8.2-0.21-17.6-0.21-17.65c0.36-3.28-0.62-6.06-3.49-8.01
		C231.64,261.9,232.16,271.61,234.04,264.3z M255.4,312.76c-0.59,0.08-1.16,0.05-1.45-0.63C254.4,312.32,254.88,312.51,255.4,312.76
		z M190.93,267.48c1.33,1.44,1.44,2.87,1.54,4.31c0,0.21-0.51,0.41-1.03,0.82C191.44,270.87,190.62,269.43,190.93,267.48z
		 M189.39,271.69c-1.62-0.93-1.37-0.38-1.64-3.39C188.57,269.54,189.7,269.95,189.39,271.69z M187.95,265.23
		c0.42,0.85,0.71,0.11-0.21,1.03C187.39,265.53,187.53,265.44,187.95,265.23z M171.84,314.8c18.83,16.02,15.56,47.3,3.49,59.74
		c-6.42,6.61-15.78,6.56-10.67,4.52c16.12-8.52,23.48-42.68,4.11-65.28C170.4,313.47,171.12,314.19,171.84,314.8z M166.09,314.19
		c17.44,11.76,16.47,49.16,0.82,61.69c-21.97,17.6-42.82-31.79-22.07-57.27C150.32,311.88,158.22,308.87,166.09,314.19z
		 M153.77,249.01c0.4,0,0.08,0.33-0.31,0.72C153.47,249.34,153.1,249.69,153.77,249.01z M152.03,252.7c0.27,0.13,0.26,0.08,0,0.21
		V252.7z M155.62,414.57c-17.83,8.92-13.2,4.81-5.03,5.13c-1.03,3.59-3.7,6.57-4,10.47c-1.93,1.93-4.48,2.32-11.91,4.62
		c-4.68,1.45-0.69,2.33-5.85,2.98c0-2.17,2.4-1.81,1.44-4.21c-6.5,3.61-5.39,5.44-13.55,9.34c-1.24,0.59-2.87,0.92-2.98,2.87
		c0,0.72-21.78,14.87-41.88,23.81c-2.92,1.3-3.38,1.7-9.14,8.21c-14.42,16.33-1.97,15.29-16.32,15.29c-0.82,0-1.34-0.12-7.6-4.41
		c-3.3-2.27-1.54-6.48-0.31-4c1.59,3.19,3.1,5.79,7.18,5.34c-6.15-9.22-4.91-6.89-1.23-13.24c-1.33,0.1-2.26,0.1-3.49,0.21
		c1.23-1.44,2.16-2.87,3.39-4c25.16-23.17,15.7-28.7,42.7-51.01c2.83-2.34,4.38,0.85,20.32-6.98c5.29-2.6,4.89-0.02,7.39-2.87
		c9.53-12.26,7.49-11.49,7.49-21.14c0-5.59,1.8,1.55,22.48,12.52c4.8,2.55,5.42,1.13,13.55,4.62
		C157.37,410.36,156.54,412.31,155.62,414.57z M169.07,559.91c-1.74-0.92-3.18-2.16-4.31-3.59c0-1.32-1.29,0.36,11.8-2.26
		C175.54,555.75,178.22,553.54,169.07,559.91z M217.51,403.79c-1.36,4.7-3.6,9.5-3.28,14.16c0.51,7.61-3.5,13.61-3.7,14.68
		c-0.9,4.91-3.18,9.12-3.18,9.75c0.74,6.2-1.95,8.5-1.74,25.15c0.02,1.76-4.61,25.95-8.11,31.82c-5.62,9.44-6.82,20.11-8.21,27.61
		c-0.98,5.25-4.06,9.43-4.62,19.6c0,0.99-6.82,5.14-6.98,5.23c-3.13-1-6.07,0.23-11.39,0.72c-0.99,0.49-0.4-0.03,1.54-20.22
		c0.73-7.62,3.18,2.83,2.77-32.23c-0.01-0.63-0.2-4.95-1.03-5.23c-1.84-0.64-3.87-12.79-3.28-16.73
		c2.61-17.71,11.64-32.59,11.7-36.54c0.42-28.75,4.51-11.99-0.72-31.41c2.41-4.13,1.05-4.07,6.47-13.55
		C208.81,408.18,219.67,398.41,217.51,403.79z M229.01,369.2c-0.63,1.88,0.74,7.69-0.51,23.81c-0.25,3.28-9.53,5.95-11.8,5.95
		c-4.15,0,1.36-0.82-11.19-0.82c-7.41,0-12.08,0.39-20.43-3.28c0.41-2.16,1.85-5.54,3.9-9.24c1.56-0.19,4.14,5.68,10.26,6.36
		c3.54,0,0.58-1.46-9.24-9.03c1.55-3.88,1.44-3.18,0-4.62c-1.7,1.13-9.6,21.78-12.62,23.4c-1.2,0.8,0.35,3.65-3.39,4.52
		c-16.72,3.9-32.82-8.56-48.86-18.37c-0.31-0.1-0.41-0.51-0.62-0.72c6.35-2.96-10.2-5.45-15.29-11.39
		c1.63-6.77,0.35-3.22,10.98-34.59c1.92-5.68,0.95-7.27,3.08-20.63c1.82-11.37,4.91-18.1,6.77-24.43c2.24-7.61-0.11-4,1.03-8.21
		c5.5-20.34,6.1-20.69,4.93-23.81c2.13-2.34,4.27-4.37,6.82-6c4.69-7.21,3.87-6.89,5.6-4.46c5.74-1.15,2.61,5.03,6.77-1.74
		c6.33,37.96,9.55,30.01,9.55,57.07c-5.74,0.96-21.39-2.49-27.92,23.09c-11.31,44.32,31.11,66.83,45.16,35
		c1.49-3.37,2.16-6.01,3.39-2.57c1.75,4.92,8.83,13.87,14.06,13.75c7.12-0.16,18.11,8.94,30.07-18.99
		C229.42,362.94,230.04,366.12,229.01,369.2z M229.52,350.62c-1.47,13.24-7.76,27.61-21.25,27.61
		c16.92-7.36,20.29-34.81,13.55-51.53c-2.88-7.14-6.52-9.81-9.24-12.52C212.59,311.47,232.63,322.58,229.52,350.62z M211.36,311.62
		c-0.88-0.44-1.78-0.13-7.29,0.21c-15.84,0.98-14.34,29.79-16.11-8.42c-0.33-7.06,1.58-8.11,0.21-23.4
		c-0.9-10.05-1.69-7.15,8.52-4.82c2.82,0.64,5.76,0.91,8.59,1.42c-1.74-1.52-4.09-1.52-6.13-2.13c-3.3-0.73-3,0-2.67-2.98
		c-2.79,0.7-2.32,1.57-2.67-1.95c15.99,5.99,13.75,0.71,13.75,7.39c1.23-0.21,0.82-1.13,1.03-1.64c0.21-0.72,0.41-1.33,0.62-2.16
		c1.85-0.21,3.7-0.92,4.72,1.44c0.86-2.16-0.76-1.37,9.44-2.05c0.62,1.44,0.51,2.77,0.21,4.21c-1.85,0-0.82-1.74-1.54-2.46
		c-1.33,0.41-0.21,1.85-1.23,2.67c-2.67,0.82-5.75,2.26-9.03,0.41c-2.39,1.79,0.06-0.81-1.03,6.06c4.03-3.46-5.31-3.71,13.04-5.13
		c3.92-0.3,5.44-0.1,4.82-1.74c-4.52,0.41-3.59,1.14-3.59-4c0.65-0.11,2.17-0.4,3.49-0.62c0.31,0.82,0.31,1.85,0.82,2.36
		c0.51,0.62,0.51,1.33,0.82,1.95c0.39,0.97,4.76,2.75,3.49,7.8c-0.52,2.05-0.21,3.89-0.21,14.27c0,5.51-4.64-13.95-7.39-14.99
		c0.68,3.38,4.39,17.74,7.18,20.53c2.38,1.79,0.21,8,0.21,26.07c0,4.05-1.89,11.75-2.36,12.21
		C229.52,341.59,231.78,318.64,211.36,311.62z M236.91,370.84c-3.93-2.62-4.94-5.7-4.82-8.83c0.23-6.24-0.61-11.67,2.16-25.97
		c2.2-11.36-2.86-17.38,7.6-21.14c13.6-4.9,20.94,15.82,20.32,32.23c-0.4,10.55-4.53,16.03-8.21,21.55
		c2.02,0.58,7.65-8.99,8.93-17.45c2.46-16.31-4.53-41.19-20.73-38.18c-2.26,0.42-4.14,2.61-6.67,4.82c-1.86-1.6,3.86-4.85,5.44-5.54
		c15.44-6.72,27.47,16.91,24.22,36.85C262.25,366.91,249.75,381.32,236.91,370.84z M252.41,375.26c-6.1,0,7.19,0.08,12.62-19.5
		c7.39-26.65-9.4-42.69-9.51-42.93C280.06,325.11,273.93,371.95,252.41,375.26z M271.09,354.22c0.72-1.54,2.05-1.74,3.39-2.57
		c0.41,0.41,0.82,0.72,1.44,1.23c4.1-2.24,1.05-1.81,13.55-2.57c4.69-3.03,6.64-13.37-1.33-14.37c-2,0-6.16-11.83-6.16-19.3
		c11.78-8.83,20.75,2.38,24.12,16.63C313.25,363.49,284.18,393.48,271.09,354.22z M311.12,354.93
		c-2.85,10.99-10.78,19.53-17.24,18.06c8.1-5.51,13.88-13.54,14.37-28.94c0.72-22.58-11.09-28.55-11.09-30.38
		C305.77,315.29,316.84,332.88,311.12,354.93z"/>
	<path d="M205.3,276.62h0.1C205.36,276.61,205.27,276.59,205.3,276.62z"/>
	<path d="M142.79,258.14l0.1-0.1C142.84,258.07,142.81,258.14,142.79,258.14z"/>
	<path d="M537.55,293.35l0.1-0.1C537.6,293.25,537.58,293.23,537.55,293.35z"/>
	<path d="M834.8,256.81c-0.65,1.61,2.01,1.46,5.03,3.18c-0.62,0.51-1.13,1.13-1.54,1.13c-4.33,0-5.31,3.08-6.77,3.08
		c-12.51,0.93-15.18-12.75-24.22-18.78c0.22,1.94-0.52,1.32,3.18,5.85c11.8,14.45,1.13,5.69-8.21,11.29c1.64,0.1,2.77,0.1,4.11,0.21
		c-1.61,2.57-12,13.98-14.37,15.4c1.54-1.54-10.94,4.69-16.01-0.21c-9.45-9.13-3.78,10.71,13.86,1.54
		c2.91,1.82,1.99,3.89,17.86-12.21c3.92-3.98,0.02-5.1,4.72-4.52c0,3.11-9.86,17.48-10.26,18.37c-2.6,5.66-13.23,8.01-12.73,12.01
		c-12.19,7.17-31.55,5.98-36.13,3.7c6.88-7.26,5.33-5.58,6.98-6.57c7.5-3.85,16.19-12.93,5.85-5.54
		c-12.97,8.11,3.52-4.53,1.74-17.55c-1.4,1.69-2.25,8.46-5.34,13.34c-0.07,0.1-6,9.26-6.98,9.85
		c-17.15,12.4-14.14,10.48-18.17,12.62c2.77,1.31,1.25,2.99,0.51,10.47c-2.17,22.09-0.19,19.93-1.74,23.4
		c-12.45,27.77-5.56,10.75-10.37,13.96c0,13.42,3.19,17.01,1.03,22.99c-11.28,31.22-11.26,24.72-16.11,50.6
		c-1.06,5.66-1.72,12.78-2.26,13.45c-2.13,3.02-3.95,14.2-4.62,17.96c-0.81,4.56,2.61,2.69,1.95,7.08
		c-0.03,0.17,4.19,11.86,5.65,13.04c1.55,1.25,2.77,5.15,4.31,7.18c2.4,3.17-0.48,5.81-1.33,7.18c-4.25-2.83,1.07-1-9.75,8.12
		c0.02-1.99,4.81-6.14,1.64-7.09c-2.07,0.86-3.03,5.14-5.65,6.16c4.36-17.45-0.87-29.57-5.14-36.82
		c6.61,12.24,8.92,32.34-1.53,48.01c-4.28,6.42-11.6,9.77-12.83,7.8c24.76-21.85,14.63-58.16,1.64-66.82
		c-0.18-0.18-0.35-0.21-0.24-0.21c0.05,0.04,0.14,0.11,0.24,0.21c2.15,0.15,4.31,1.17,6.35,2.86c-0.77-3.63-1.63-24.73-1.63-24.82
		c0-15.68,2.75-10.04,1.54-21.04c-2.6-23.6,1.4-37.46,7.9-59.33c4.22,0,4.32-16.14,3.49-20.84c-0.21,0.82,0,1.75-0.21,2.46
		c-3.33,11.44-0.97,7.02-2.57,8.62c-2.67-5.95-3.37-15.21-3.28-23.09c0.01-1.03,0.41-1.64,1.54-1.95c1.99,2.78,5.01,8.15,6.16,4.72
		c-4.27-6.65-3.87-7.02-5.34-7.8c-2.52,0.31-2.5,1.58-2.57-2.46c-0.18-11.56-0.09-11.22,0.51-13.04
		c5.79-14.48,9.75-20.32,6.47-20.32c-6.67,14.46-8,18.26-10.16,24.74c-5.74,1.43-15.44-5.34-17.45-5.34c-3.33,0-4.1-3.29-5.54-2.05
		c3.15,4.01,3.37,1.36,6.26,3.7c15.6,12.62,18.54-3.11,16.83,15.7c-5.67,2.83-17.78,3.08-25.97,1.85c-4.11-0.62-3.93-0.29-4.62,1.44
		c-12.16-0.79-15.86-4.38-21.04-3.18c-4.21-2.38-15.18-18.28-15.29-18.78c-0.23-1.02-0.32-2.15-0.41-3.18
		c-0.12-1.44-1.85-1.03-2.36-2.05c-3.21-6.43-0.68-2.12-2.87-7.6c1.1-0.83,1.03-0.76,1.03-1.03c-1.43-2.57-1.07-0.93-0.51-8.93
		c0.75-10.81,2.95-14.75,7.08-23.4c0.35-0.74,0.05-0.27,2.87-2.46c-1.89-0.8-2.72,0.52-3.9,0.88c0.04-4.16-1.49-0.71-6.77,0.04
		c-1.67,5.86-3.11,2.79-7.18,13.65c0,0.96,0.18,0.6,0.82,0.92c0.35,0.69-1.49,15.79,5.13,27.51c3.21,5.68,6.01,4.87,6.47,9.24
		c1.33,0.82,1.64,1.23,2.05,2.98c-1.82-1.46-5.53-7.02-7.18-8.42c-0.1,0.62-0.31,0.92-0.21,1.13c7.18,11.6,8.53,12.8,22.79,22.68
		c3.82,2.65,7.13,0.55,11.39,1.33c6.1,1.12,10.13,1.91,13.14-0.62c4.57,1.14,13.08,1.59,24.84-0.82c1.52,1.37,0,7.72,1.33,13.14
		c1.48,6.01,4.49,8.79,3.39,15.09c-0.07,0.42-2.36,12.63-2.67,12.93c-2.16,1.56-1.13,4-1.85,6.16c-4.21,17.18-2.9,15.29-6.88,15.29
		c-3.3,0-4.31-1.15-5.75-0.1c-2.09,1.52-4.68,0.82-7.22,0.15c3.21,0.92,6.23,1.63,9.17-0.36c7.71,0.92,7.81,0.04,6.98,3.49
		c-2.59,10.78-2.13,22.36-0.62,28.02c0.77,2.88,0.12,40.75-0.1,41.36c-16.22-4.51-8.21,0.52-13.24-6.77
		c-1.43-2.07-3.6-1.04-2.36,1.33c2.06,3.94,2.27,3.55,0,4C653.44,451.8,652,478.39,652,469.38c-0.63-6.88,6.9-22.8,10.47-25.25
		c2.41-1.41,4.2-4.61,7.6-10.16c2.52-4.12,0.05-5.69,3.39-11.91c5.67-10.56-16.32-30.51-23.81-49.99c4.1-1.97,6.76-0.9,7.74-0.27
		c-0.01-0.01-0.02-0.02-0.04-0.04c-2.82-3.33-9.62-0.55-14.06,0.51c-8.95,2.15-8.68,3.17-9.75-3.59c-0.56-5.59-1.55-2.26-1.85-2.26
		c-2.86-14.28-4.53-27.63-8.01-30.59c14.93-1.57-1-0.04-5.85-1.64c-19.08-6.32-48.2-4.58-69.28,1.74c3.56,1.78,4.12-4.11,47.93-4.11
		c8.39,0,21.24,3.07,15.4,3.18c-13.81,0.28-12.67,0.11-38.18,0.41c-12.5,0.15-35.81,3.05-16.63,1.95
		c16.34-0.93,16.63-1.23,61.38-1.23c-6.66,7.76-55.99,4.18-61.58,7.9c14.95,0.34,14.66-0.22,21.76-0.51
		c34.34-1.43,20.84-2.32,8.83,6.77c-3.24,2.46-11.17,5.47-19.5,4.82c-2.45-0.19-0.57,0.32-20.53-11.09
		c-12.55-7.17-12.12-10.23-15.29-9.65c-1.31,0.24-5.24-4.11-7.7-11.5c-0.77-3.06,0.84-15.48,1.74-20.84
		c14.11-11.38,11.38-8.97,11.9-9.66c-0.21,2.18,1.05,4.06,1.45,5.86c-1.03,1.54-2.87,1.74-3.59,3.39c1.95,0.51,3.08-1.13,4.93-1.44
		c1.85,1.85,3.7,4.31,7.29,4.41c-1.44-2.46-4-3.7-5.03-5.95c1.15-1.73,9.28-8.95,14.99-12.21c19.2,21.95,47.51,24.63,74.62,24.63
		c-8.75-1.29-51.57,0.17-73.49-25.56c0.92-0.41,1.54-0.82,2.36-1.23c8.36,12.54,6.79,6.87,8.62,10.16
		c0.08,0.01,10.78,4.35,11.8,4.14c0,0.02,0.01,0.03,0.01,0.07l0.1-0.1c-0.02,0-0.03,0-0.04,0c0.07-0.11-0.3-0.42-1.29-1.02
		c-7.29-3.78-14.28-6.6-17.35-14.78c4.76-2.77,9.39-5.52,9.72-8.2c-2.01,1.72-7.87,6.25-10.34,6.25c-1.72-4.58-0.84-4.02-1.74,1.44
		c-5.07,3.04-2.93,0.32-5.44-0.1c1.16,3.18,2.75,1.26-13.55,14.37c-2.18-1.51-1.46-4.8-3.89-4.26c1.63-1.99,15.95-11.11,19.9-15.96
		c0.41-0.51,0.92-0.82,1.44-1.13c4.21-1.87,7.14-6.02,11.7-9.44c14.58-10.94,21.57-19.26,22.58-20.32c11.42,0,1.88-0.28,0.62,3.7
		c2.45,1.13,11.87-4.83,18.37-2.46c1.74-1.44,3.8-2.46,5.85-3.49c1.13-2.16,3.28-3.18,5.23-4.52c12.03,2.83,11.75,2.25,14.68,0.92
		c-0.11-0.02-12.45-1.95-14.78-2.77c-3.82-1.35-7.85,5.52-12.32,6.57c-0.7-2.11-2.42-2.08-5.34-1.44c-7.45,1.63-8.67,0.78-15.6,1.64
		c0.47,1.9,1.05,1.97-19.71,18.37c-9.18,7.25-13.93,13.38-20.73,17.96c-22.33,15.06-20.75,16.95-25.04,18.27
		c-8.63,3.18-21.02,13.4-13.75,9.85c14.73-7.19,12.91-8.09,11.09,2.87c-3.08,0.82-5.75,1.74-8.52,4.11c9.65,0,8.11-10.59,8.11,10.16
		c4.47,3.58,0.63,5.66,13.55,14.27c0.31,0.21,0.62,0.62,1.13,1.13c-13.83,0.9-11.08-3.84-15.4,0c-1.6,0.22-10.35,0.82-11.6-0.1
		c-2.68-1.98-7.28-2.97-13.55-6.57c-1.56-0.89-3.18-1.13-4.93-0.41c0,0.41,0.1,0.82,0.21,1.44c-27.07,2.95-57.58-9.59-57.58,1.54
		c-1.23,1.33-2.67,1.44-4,1.03c-3.29-4.52-6.77-6.82-4.93-16.01c0.45-2.23,3.82-3.24,1.13-5.44c-2.39,0.6-6.29,6.44-7.6,8.52
		c0.41,1.74,1.74,0.51,2.57,1.03c0.46,5.94,0.75,4.74-2.87,1.85c-0.54,3.25,6.27,9.56,8.72,11.8c7.69,0,8.15-0.34,10.37,1.54
		c-3.18,7.95,3.35,5.51-9.44,5.75c-4.33,0.08-5.62-0.88-9.44-2.16c-2.62,3.4,3.26,7.19,16.63,4.52c1.1,1.28-0.5,1.88-3.28,4.41
		c-9.07-0.76-7.77-1.12-12.73-2.77c-1.93-0.48-3.51,1.52-1.95,3.08c3.77,3.3,3.01,1.84,0.62,2.67c-4.37,1.51,0.2,8.39,12.32,4.93
		c1.18,4.7-0.56,26.93-1.64,28.43c-5.65,7.87-13.73,6.54-17.76,2.36c-1.38-1.44-6.98-4.42-9.14-6.06c-2.77-2.1-3-3.89-3.8-7.29
		c-2.33-9.94,4.52-10.95,4.52-22.48c0-0.92,0.51-1.85,0.82-2.98c-8.52-12.78-9.82-7.85-1.54-31.31c4.37-0.55,6.52,0.28,10.88-2.87
		c6.26-4.53,10.06-2.92,12.21-6.36c4.55,1.89,3.14,0.98,3.59,3.7c0.67,0.17,0.81,0.36,1.54,0c5.5-3.78,7.71-1.86,27.51-11.19
		c17-8.01,28.96-5.58,54.3,1.03c-0.1-1.23-0.82-2.05-1.95-2.36c-49.68-13.73-39.96-1.71-73.39,7.29c-1.95,0.52-3.9,1.33-6.06,2.16
		c-1.85-1.03-4-2.26-6.77-2.36c-3.25,3.04-7.04,1.58-12.73,5.75c-9.96,7.29-9.59-9.21-18.27,26.58c7.64,17.37,3.67,6.41,8.42,12.11
		c-0.72,5.44-2.98,10.26-5.23,14.99c-3.62,2.23-5.11,21.14,23.92,28.64c2.6,0.67,6.09,1.08,7.9-0.92c1.02-1.13,0.31-2.26,0.21-3.39
		c3.28-2.26,4.52-5.44,4.52-9.24c0-0.11,1.11-28.12,1.13-28.23c0.91-5.4,5.82-6.22,4.31-12.62c3.78-4.72,2.03-5.01-2.46-8.01
		c8.29-3.72,31.8-0.85,35.21-0.1c8.55,1.87,14.16,1.04,22.68,0.1c3.3-0.36,1.15-0.46,15.6,5.75c2.16,0.93,5.07,0.65,10.88,0
		c7.08-0.8,4.16,1.03,10.78,1.03c9.17,0,9.91-1.54,13.34,0.62c20.73,13.01,20.33,12.64,21.76,12.83
		c21.45,2.88,17.57-8.35,53.89-16.63c9.84-2.24,4.04,2.4,10.37,23.92c1.61,1.11,1.84,3.24,2.26,8.21c3.88,2.33,1.56,5.34,4.72,8.21
		c2.17-1.81-0.52-1.61,6.57-5.75c0.9-0.41,4.31-2.37,4.31-1.13c15.43,34.72,20.14,26.1,23.4,46.09c0.64,3.94-0.78,5.24-1.74,9.44
		c-2.27,7.46-2.78,4.32-4.41,6.77c-14.32,17.73-18.11,38.37-14.68,50.09c2,6.81,3.05,11.18,2.05,18.48
		c-1.88,13.75-1.87,19-3.28,24.33c-6.57,24.68,0.03,8.51-3.08,20.94c-6.78,1.13-2.29,1.84-7.6,10.88
		c-10.82,18.43-0.22,5.36-10.26,27.41c-1.15,2.53,1.24,2.78,4.62,4.31c13.91,6.32,22.78,4.66,32.43,1.44
		c28.95,13.16,60.25,2.18,60.25-3.28c0.15-2.59-0.58-12.97-5.75-13.24c-4.97,0-6.97-0.3-8.93-1.44
		c-38.07-21.98-16.55-23.14-34.8-33.56c0.42-3.61,3.63-22.25,6.77-23.3c9.36-2.01,14.59-10.29,17.86-19.3
		c0.53,0.27,7.5,16.74,15.5,16.32c3.39-0.18,11.35,4.35,19.81-2.77c4.34-3.65,5.54-6.94,8.01-10.78c11.47,3.82,19.41,0.35,24.94-7.7
		c5.78-8.41,3.49-12.47,5.95-6.57c1.92,4.6,7.85,12.52,12.83,12.52c2.54,0,5.42,1.17,9.03,1.13c19.45-0.21,27.3-35.93,14.37-55.02
		c-0.7-1.04-1.23-2.26-2.77-2.16c0.21,0.51,0.21,1.03,0.51,1.33c13.53,17.19,7.29,53.58-12.32,54.4c4.08-2.92,7.92-4.59,11.8-13.34
		c4.87-10.96,4.32-25.64,0.41-35.1c-3.46-8.38-7.48-10.15-8.45-11.61c3.34-0.33,5.64,3.63,7.16,3.51
		c-3.16-6.66-14.68-7.66-20.48-4.63c-1.52,0,0.95-17.02,1.13-18.06c1.94-11.25,4.01-11.87,7.08-31.51
		c4.96-31.68,10.95-24.82,4.62-45.78c-1.29-4.28-0.03-6.29,3.18-18.99c0.86-3.38,2.08-0.69,2.16-7.08
		c0.12-9.93,2.25-15.69,2.87-21.45c0.72-6.63,11.75-15.19,12.83-16.53c6.71-8.29,5.39-13.49,6.98-14.68
		c6.46-0.76,2.61,1.22,9.75-3.7c3.51,0,4.7,0.26,5.83-4.52C838.57,258.19,835.84,254.73,834.8,256.81z M624.92,244.1
		c-1.29,1.82,0.02,1.89-3.51,0.29C622.95,244.3,623.95,244.19,624.92,244.1z M622.33,245.31c0,0-0.39,0.3-0.6,0.5
		c-0.82-1.12-0.1,0.42-1.65-0.09C619.49,244.56,621.86,244.05,622.33,245.31z M621.66,245.93c-0.21,0.34-0.46,0-0.56,0
		C621.25,245.93,621.45,245.93,621.66,245.93z M621,248.08c1.03,0.1,1.03-1.64,2.26-1.33c-2.51,5.02-2.09,4.6-4.11,3.39
		C619.46,248.91,619.87,248.08,621,248.08z M620.07,252.29c-0.41,2.67-0.41,2.67-2.67,2.05
		C617.82,251.68,617.92,251.57,620.07,252.29z M616.58,250.34c0.1-1.23,0.82-1.95,1.64-2.77
		C618.33,249.21,618.33,249.21,616.58,250.34c0.51,1.74-0.62,2.87-1.54,4.21C614.74,252.4,614.74,252.4,616.58,250.34z
		 M617.82,279.7c-0.82-1.54-1.95-2.87-1.74-5.03C618.64,275.9,617.61,277.95,617.82,279.7z M616.07,264.82
		c0.2,0.53,2.58,2.46-0.1,6.36c-1.36-0.41-3.35-12.93-0.92-15.7c-0.64,6.77-1.63,5.85,2.87,4.72
		C617.92,262.15,617.61,263.69,616.07,264.82z M615.97,258.96c0.21-2.98,0.21-2.98,2.77-2.57
		C618.74,258.75,618.29,258.67,615.97,258.96z M627.26,299.61c0.21,0.21,0.51,0.51,0.72,0.72
		C627.67,300.12,627.46,299.82,627.26,299.61z M611.04,243.26c-2.16,0.51-3.9,0.31-5.75,0.31
		C608.78,241.93,608.89,241.93,611.04,243.26z M421.67,355.76c0.56,0-0.07-0.31,1.23,0.21
		C422.18,355.96,421.87,355.86,421.67,355.76z M431.21,356.99c-0.49,2.16-0.57,1.74-6.06-0.51
		C427.5,355.61,431.78,354.48,431.21,356.99z M620.59,335.64c0-0.55-0.29-0.64,1.44-0.21C621.2,335.54,620.89,335.54,620.59,335.64z
		 M637.01,376.49c-0.79-2.88-1.08-2.14,3.18-2.67C638.96,374.85,638.24,375.46,637.01,376.49z M680.63,450.49
		c21.14,10.76,18.53,62.71-5.23,66.1c-9.38,1.34-17.06-8.09-20.02-17.04C645.97,471.07,662.49,441.26,680.63,450.49z M680.43,548.72
		c-0.45,0.54-4.87,5.7-5.54,6.47c-6.14,6.92-2.12,9.98,3.7,3.9c5.06-5.28,3.34-3.64,4.41-1.85c1.34,2.24,0.93,1.06-4.11,6.26
		c-3.75,3.87-1.7,9.99,5.13,1.33c2.82-3.57,2.07-2.72,2.77-3.18c5.55,2.47-1.43,4.08-3.49,9.24c-0.2,0.81,0.86,2.37,1.95,1.64
		c3.53-2.99,5.01-5.21,6.26-6.88c2.21,1.72,2.76,1.86,2.05,2.57c-3.21,3.21-6.74,5.38-4.52,7.6c2.33,2.33,4.86-1.79,7.7-5.44
		c1.74,0.72,3.28,1.85,4.62,3.18c-1.03,1.44-3.18,1.85-3.39,3.8c1.03,1.45,2.44,0.54,4.21-0.51c2.55-1.53,2.01-2.51,5.65,0.1
		c3.11,2.24,4.88,2.08,11.6,2.87c1.62,9.73,2.23,9.3,0,10.47c-22.85,12.02-51.08-0.9-60.35,0.82c-7.59,1.41-18.67,0.88-27.3-2.26
		c0.51-1.44,1.03-2.67,1.85-3.8c3.67-8.76,1.09-10.09,4.41-17.76c3.33-7.68,5.51-10.24,5.23-14.27c-0.19-1.14,1.23-2.42,1.23-0.31
		c0.22,3.44,2.18,8.75,5.23,11.39c2.27,1.97,2.95,1.05,11.39-3.8c1.8-1.03,4.04-2.43,4.93-4.21c1.25-2.5-2.67-2.24-2.77-2.26
		c1.87-2.18-0.79,0.45,10.67-8.21C677.03,543.33,678.19,545.53,680.43,548.72z M650.87,558.99c0.17,0,0.31-0.05,0.31,0.31
		c0.82,0,1.64,0,2.57,0C652.17,560.98,652.44,560.56,650.87,558.99z M677.14,521.42c-4.18,11.54-4.92,16.49-6.26,23.2
		c-3.49,3.28-7.6,5.65-9.55,10.26c-4.93-0.62-9.65-0.62-14.27-2.67c2.91-10.56,3.08-11.58,2.46-13.45c-0.92-1.83,2.15-7.23,4.93-35
		c2.22-0.56,1.33,5.38,9.96,11.19C673.9,521.35,678.94,516.47,677.14,521.42z M709.06,442.69c4.93-2.11,0.48-15.25,11.91-45.68
		c4.48-11.92,6.2-13.69,5.44-16.53c-0.2-0.74,0.15-1,2.57-8.01c1.53-4.46,0.72-4.9,0.72-16.53c6.2-4.51,8.36-14.59,10.37-23.09
		c1.32-5.57-0.87-3.06-0.51-7.9c0.92-12.51,1.12-12.49,2.05-22.48c7.84-3.92,4.81-3.77,13.55-4.21c4.57,3.3,8.36,2.72,14.78,2.98
		c0.03,0.1,1.03,26.68,0.21,35.41c-0.01,0.1-8.76,33.98-3.59,54.4c0.77,3.05-0.39-0.01,0.92,25.66c0.21,4.14,0.83,7.55,0.72,8.42
		c-2.02,28.29-1.4,12.66-12.93,10.78c-14.39-2.35-19.39,6.24-22.99,11.8c-3.25,4.06,2.63-0.21-12.93,1.13
		c-7.38,0.63-8.73,6.79-10.57,7.8C708.04,453.37,708.14,448.85,709.06,442.69z M712.76,491.45c0,1.13,0.3,1.95,0,2.36
		c-1.87,2.53-5.37,2.78-3.49,2.16C709.27,495.31,708.87,495.93,712.76,491.45z M714.5,513.52c-6.38-2.4-11.16-10.24-11.8-12.32
		c-0.87-2.83-0.44-2.07,1.4-2.32c-0.86,0.74-0.79,0.8,0.3-0.04c1.03-0.19,0.53-0.02,2.62-0.31c9.1-1.26,7.41-8.14,11.29-7.8
		c7.54,0.66,8.55-15.5,2.36-15.5c-1.74,0-3.59-0.51-5.34,0.31c-2.46-2.98-5.44-9.96-6.47-15.4c20.56-30.84,43.39,22.66,22.58,48.04
		C727.16,513.4,720.89,515.92,714.5,513.52z M717.38,478.52c1.44-0.1,2.77-0.31,4-0.41c2.61,3.38,2.15,10.23-2.36,9.75
		C720.66,484.37,718.71,481.59,717.38,478.52z M725.28,515.36c2.06-2.06,7.85-3.71,12.32-14.58c5.96-14.5,4.67-35.53-6.06-46.8
		c-0.41-0.31-0.62-0.92-0.92-1.44c-1.13,0.1-1.74-0.51-2.26-1.33c1.03,0,1.95,0.21,2.46,1.33c0.72-0.31,1.34-0.11,1.95,0.31
		C752.28,466.11,749.33,513.07,725.28,515.36z M743.24,461.48c0.62,0,0.67-0.11,0.41,0.41
		C743.49,461.72,743.38,461.61,743.24,461.48z M749.5,471.12c-0.14,1.85-0.92,3.28-2.87,4.82c-0.21-1.23-0.51-1.85-0.31-2.46
		c0.49-1.96,3.65-4.29,0.51-8.21C738.9,464.28,750.42,458.58,749.5,471.12z M749.61,476.28c0,0.14,0,0.31,0,0.49
		C748.51,476.77,749.36,476.3,749.61,476.28z M745.6,469.89c-0.31-0.92-0.51-1.74-0.92-2.98
		C744.79,466.97,747.52,467.42,745.6,469.89z M744.06,499.97c3.3-3.3,3.92,3.1,13.75-5.13c1.5-1.26,0.67-2.46,0.21-1.54
		c-2.86,3.07-6.34,5.02-10.53,5.64c-0.47-0.93-1.82-0.24-2.61-1.02c4.42-17.98-0.64-15.58,4.11-20.32c-1.42,0,0.1,1.02-1.95,0.62
		c0.54-0.86,1.85-1.64,1.85-0.62c0.28-0.18,0.47-0.45,0.73-0.72c0.73-0.18,0.54-0.45,0.12-0.73c5.36-16.09-6.55-15.07-6.66-14.78
		c-1.98-0.03-2.88-5.17-6.3-5.79c-0.03-1.61-1.54-2.43-2.26-3.86c5.22-16.45,27.3-16.84,30.18,13.86
		c0.89,9.45-0.28,16.86-5.03,25.15c-1.03,1.79-1.41,3.05,0.1,1.54c16.91-20.66-2.54-67.25-19.91-50.19
		c-6.84,6.72-5.86,10.38-7.49,8.42c11.61-28.64,42.43-6.43,34.59,29.15C762.62,499.3,748.6,504.51,744.06,499.97z M771.47,484.37
		c-6,19.36-20.72,18.6-16.94,16.63c14.22-7.39,21.02-37.07,6.88-57.68c-1.31-1.91-4.42-3.95-4.31-4.72c-0.1-0.1-0.31-0.1-0.51-0.1
		c-0.1,0-0.21-0.1-0.31-0.1C759.13,435.53,780.8,454.26,771.47,484.37z M810.06,285.96c-0.48,1.19,1.73-0.26-3.18,5.75
		c-0.72,1.03-1.32,2.16-1.33,3.39c-0.05,3.49-1.15,6.98-1.64,10.47c-4.93,35.16-9.01,29.98-7.08,39.82c1.7,8.68,2.58,8.8,1.54,12.21
		c-4.21,13.8-1.46,1.62-13.96,70.72c-4.59,25.4,0.29,16.49,1.44,32.74c0.46,6.49,0.71,7.27-0.82,8.42c-2.22,1.9-1.67-1.58-4.52,2.98
		c1.19,2.23,5.83-3.94-3.18,6.36c2.74,0.31,2.19,0.73,6.61-3.25c0.53,3.02-0.15,1.02,5.6,1.51c4.74,0.4,6.81-5.47,6.36-9.75
		c-0.73-7.05-8.42-3.85-8.42-6.57c0.31-3.71-1.07-1.78-1.33-14.47c-0.03-1.33,0.1-2.77-1.03-3.8c4.85-5.65,13.51-1.62,15.7,0.82
		c16.2,18,8.32,52.41-8.01,55.84c-10.5,2.2-21.36-12.1-18.68-21.04c2.26-1.54,3.59-3.8,5.44-5.54c-0.78-1.96-1.69-0.83-4,0.62
		c-1.92-0.55,0.16-5.1-2.16-14.06c-4.01-15.52-8.85-14.32-5.34-17.24c1.81-1.81,1.33-3.48,1.33-10.98c0-18.71,1.72,2.81,0-23.71
		c-2.85-44.03-2.16,0.18-2.16-43.73c0-0.14,4.07-23.17,4.93-23.92c2.35-2.35-2.08-17.12,0.1-38.29c1.54-1.23,3.59-0.82,5.44-1.74
		c0.55,2.46,0.41,0.78,0.41,9.34c2.36-3.28,1.03-6.67,1.74-9.75c5.44-2.36,10.78-4.72,14.99-8.62c1.49-0.46,5.29,3.19,1.44-1.95
		c0.31-0.41,0.51-0.82,0.82-0.92c7.63-3.67,14.64-19.28,17.96-22.99c3.51-3.51,0.11-7.1,7.29-0.82
		C820.12,272.83,818.34,273.89,810.06,285.96z M788.1,465.48c1.33-0.82,2.98,0.62,4.21-0.62c2.36,2.77,2.16,5.75,0.72,8.72
		c-3.22,2.51-8.93,1.85-8.83,1.74C788.73,470.81,788.15,467.55,788.1,465.48z"/>
	<path d="M693.15,456.92c0.69,1.06,1.51,2.32,2.36,3.77C694.77,459.32,693.98,458.07,693.15,456.92z"/>
	<path d="M689.35,452.71c-0.07-0.06-0.14-0.13-0.21-0.18c0.04,0.18,0.08,0.34,0.12,0.43C689.28,452.88,689.32,452.8,689.35,452.71z"
		/>
	<path d="M657.37,371.8C657.94,372.36,657.92,372.16,657.37,371.8L657.37,371.8z"/>
	<path d="M693.15,456.92c-1.16-1.79-1.98-3.03-2.05-3.75c-0.42-4.6-1.19-1.95-1.75-0.45C690.68,453.85,691.95,455.26,693.15,456.92z
		"/>
	<path d="M868.73,231.21c0.25,0.25,0.48,0.48,0.66,0.66C869.91,228.4,869.66,229.88,868.73,231.21z"/>
	<path d="M851.84,254.65c-0.4,0.13,1.8,0.92,3.01-0.22C853.83,254.4,852.72,254.3,851.84,254.65z"/>
	<path d="M845.78,251.06c-1.67,2.5-1.79,1.06,0.51,4.52c-0.34,0.17,1.17-0.42,1.44-0.51c1.67-0.6,0.88,0.8,3.85-0.32
		C845.17,253.57,848.89,252.62,845.78,251.06z"/>
	<path d="M859.43,237.31c-9.94-2.21-14.02-0.76-17.45-3.28c-0.57-0.5-4.67-1.75-4.11,0.51c6.56,2.05,5.11,1.34,6.06,3.7
		c2.2,1.1,3.87,2.38,5.95,1.64c2.66-0.94,5.23-0.21,8.21-0.41c-5.27,18.43-2.16,15-2.16,13.86c0-3.28,1.36-6.15,1.85-9.34
		c0.44-2.87,1.74-5.54,4.11-7.49c1.03,0.21,2.05,0.51,2.77-0.41c0.93-1.18,4.26-4.67,4-4.93
		C865.64,230.74,865.94,234.87,859.43,237.31z"/>
	<path d="M666.98,375.05c9.97,3.25-2.58-1.4-9.16-2.95C658.44,372.41,664.03,374.09,666.98,375.05z"/>
	<path d="M842.92,256.81c-0.02,0.03-0.02,0.07-0.03,0.1C845.2,256.23,849.12,254.5,842.92,256.81z"/>
	<path d="M807.81,444.44c0.07-0.37-0.09-0.76-0.87-0.61C807.23,444.28,807.27,444.54,807.81,444.44z"/>
	<path d="M508.81,308.34l0.1,0.1C508.99,308.36,508.98,308.4,508.81,308.34z"/>
	<path d="M812.42,206.1l0.1-0.1C812.48,206,812.45,206.06,812.42,206.1z"/>
	<path d="M885.92,210.62c0.51-0.41,1.03-0.72,2.05-1.44c-10.63-4.55-3.82-2.8-11.29-9.44c1-3.51-0.82-3.29-0.82-5.75
		c0.25-3.03-4.42-5.7-4-12.11c-9.15-13.73-5.6-5.32-13.86-9.03c-1.13-0.51-2.26-0.72-3.59-1.13c-0.21-2.26-2.14-3.01-3.9-3.7
		c-4.72-1.83-8.81,5.48-7.8,1.44c0.43-1.72,2.1-4.93,0.41-4.93c-1.31,0.33-1.34,0.54-2.26,2.98c-1.49,3.36,0.8,2.67-6.57,2.67
		c-0.31,0.31-0.72,0.82-1.23,1.44c-1.23,0-2.56-0.08-3.9,0c-4.28,0.25-10.2,3-9.03,7.29c-2.89,2.17-6.37,4.22-8.01,5.13
		c-5.07,2.81-4.01,6.78-6.77,8.62c-0.85-5.09-0.99,0.57-4.72,5.03c-2.91,3.47-0.55,3.33-2.57,5.85c-1.23,1.54-2.77,2.67-3.7,4.52
		c-1.92,2.88-12.91,3.34-14.99,3.8c-10.88,2.39-12.49-5.54-32.95-5.54c-15.37-0.98-36.23,10.03-36.34,10.06
		c-0.4,0.12-29.49,7.97-32.95,11.91c-2.44,2.79-32.84,14.07-44.34,12.32c-2.77-0.42-4.06,3.69,5.95,2.46
		c12.65-1.55,35.52-10.03,42.08-13.65c16.61-9.17,45.48-15.61,48.04-16.53c15.11-5.44,32.1-4.53,42.39,0.62
		c-1.99,1.71-4.42,2.96-3.7,6.77c0.1,0.41,0.31,0.92,1.03,0.62c0.21-0.82,0.49-1.75,0.82-2.67c1.5-4.15,8.29-3.86,10.88-2.87
		c1.54-1.54,2.33-2.83,6.57-2.36c3.97,0.72,12.23-1.43,14.88-2.77c5.98-3.03,0.5,7.67,6.67,14.37c0.26,7.13-4.85,9.65,0.82,9.65
		c2.52-5.77,1.3-12.29-0.1-13.34c-1.7-1.51-1.31-2.36,0-10.98c0.31-2.04,1.32-3.37,3.35-3.89c1.14-1.78,3.03-2.64,4.87-3.4
		c4.25-1.77,7.43,2.83,7.7,5.13c0.13,1.13,1.44,0.62,1.95,1.54c-1.1,6.6-11.92,16.64,0.51,11.19c1.22-0.54,2.77-1.03,3.08-2.77
		c0-0.64,3.85-2.83,8.31-2.67c1.54,1.03,3.08,0.23,4.62-0.1c9.64-2.06,8.97-1.67,10.47,1.33c1.23,0.41,2.57,0.72,3.8,1.13
		c3.45,5.08,5.72,4.98,8.93,8.62c3.61,4.1,0.7,2.84,4.82,3.59c2.34,0.43,2.44,0.15,3.9-2.77c7.89,3.09,13.69,0.46,8.31-6.26
		c2.71-3.94,4.44-4.78,1.54-7.2C885.2,212.15,888.58,212.4,885.92,210.62z M798.88,206.21c-0.31,0-0.51-0.1-0.72-0.1
		c0.21-0.1,0.31-0.41,0.51-0.51C799.58,205.59,799.01,206.21,798.88,206.21z M804.52,207.34c0.31-0.51,0.62-0.92,1.44-0.72
		C805.96,207.54,805.55,207.75,804.52,207.34z M800.11,203.64c2.46-0.41,4-1.54,5.95-0.82
		C804.52,204.26,802.78,204.36,800.11,203.64z M812.83,189.17c-0.71,0-0.31,0.02-0.31-0.31
		C812.9,188.86,812.83,188.78,812.83,189.17z M819.51,198.41c0.1,0,0.1,0.1,0.21,0.21C818.95,198.99,818.45,198.41,819.51,198.41z
		 M827.1,192.35c0.31,0,0.1,0.51-0.1,0.31C826.62,192.28,826.92,192.35,827.1,192.35z M825.05,202.1c0.11,0,0.18,0.08,0.25,0.15
		C825.22,202.2,825.15,202.15,825.05,202.1z M824.84,180.65c0.27-0.55,0.12-0.66,0.82-0.31C825.39,180.89,825.54,181,824.84,180.65z
		 M825.66,218.32c0.82-1.13,1.64-2.26,2.36-3.28C830.4,215.33,828.14,217.53,825.66,218.32z M827.2,207.23
		c-0.29-1.25-0.49-2.52-0.77-3.86c3.47,2.83,3.24,2.28,4.98,4.37C829.67,209.39,828.64,207.75,827.2,207.23z M830.18,187.01
		c1.95-1.44,1.95-1.44,3.18-0.1C832.34,187.01,831.41,187.01,830.18,187.01z M834.8,200.87c-0.53-0.53,0.27-0.55,0.62-0.21
		C835.21,200.77,835.01,200.77,834.8,200.87z M839.52,210.52c-0.41,0-0.82-0.1-1.64-0.1c1.5-0.85,0.86-0.74,2.16-0.31
		C839.83,210.21,839.73,210.52,839.52,210.52z M831.82,176.85c2.87-0.41,2.67-0.1,11.29-0.1
		C839.32,177.78,835.62,177.88,831.82,176.85z M846.71,185.99c0-0.1,0-0.21,0-0.31C849.31,185.68,848.67,186.48,846.71,185.99z
		 M850.61,179.93c1.95-1.33,1.95-1.33,3.28,1.03C852.35,181.27,851.43,180.75,850.61,179.93z M853.79,193.38
		c0.14,0,0.27-0.03,0.3,0.22C853.98,193.5,853.87,193.42,853.79,193.38z M854.82,194.3c-0.09-0.04-0.37-0.36-0.64-0.62
		c0.37-0.01,0.66-0.09,0.95,0c0.21,0,0.41,0.21,1.03,0.41C855.43,194.2,855.12,194.4,854.82,194.3z M856.25,206.72
		c-0.1-0.72,0.61-1.42,1.33-1.23C860.22,206.19,856.88,209.22,856.25,206.72z M858.92,214.73c1.23-0.62,1.23-0.62,2.98,0
		C860.46,215.24,860.46,215.24,858.92,214.73z M862.21,204.05c0.92,0.51,1.54,1.33,1.74,2.46C862.82,206,862.82,206,862.21,204.05z
		 M871.75,226.12c-0.82-0.62-1.44-1.13-2.05-1.74c1.64-0.51,1.95-0.41,2.57,0.72C872.37,225.2,871.96,225.61,871.75,226.12z
		 M882.94,210.42c-2.06,0-1.74,0.1-1.74-0.31C883.16,210.11,882.94,209.7,882.94,210.42z M884.38,213.25
		c-0.11-0.05-0.26-0.08-0.41-0.16C884.4,212.73,884.4,212.97,884.38,213.25z M884.52,213.39c0.21,0,0.41,0,0.62,0
		C884.95,213.7,884.7,213.82,884.52,213.39z"/>
	<path d="M703.93,249.42c-0.04,0.16-0.06,0.1,0.1,0.1L703.93,249.42z"/>
	<path d="M689.56,265.33c-1.64,0.31-2.87-1.13-4.62-0.72c7.79,9.15,16.32,5.13,16.73,5.13c2.54,1.27,2.4,2.67,1.54-13.86
		c-0.31-5.9,2.04-8.12-1.13-4.93c-1.42,1.43-0.71,3.88-3.7-0.1c-2.15-2.46-2.81-2.78,4.21-11.39
		c11.97-14.68,23.86-17.19,25.15-21.04c-28.01,13.22-27.74,27.24-31.72,25.25c0.1,1.33,0.92,2.87-1.13,3.7
		c-0.23,0.15-0.58,2.59-1.13,3.28C688.87,256.9,690.09,263.21,689.56,265.33z M695.72,251.27c1.33,1.64,2.77,3.28,4.72,5.65
		c-0.21,2.87,0.72,6.77,0.62,10.98C692.05,266.39,692.66,254.44,695.72,251.27z"/>
	<path d="M773.22,267.69c2.73-5.54,4.05-10.33,3.49-22.89c-0.29-6.53-2.89-6.75-7.49-17.24c-1.57-3.57-1.07-2.59-2.57-3.9
		c0.76,3.79,0.33,0.9,4,10.78c1.75,4.72,1.47,2.64,0,4.11c0.31,1.54,0.61,2.98,0.72,4.41c0.1,1.33,1.33,1.03,1.95,1.74
		C775.88,257.84,765.2,283.96,773.22,267.69z M771.88,238.03c-0.1-0.1-0.14-0.24,0.21,0.1
		C771.98,238.13,771.88,238.13,771.88,238.03z"/>
	<path d="M731.34,220.47c9.21,1.2,27.82,2.44,31.92,11.6c3.16,7.05,5.87,14.27,6.57,22.07c0.09,1.03,0.51,1.85,1.64,2.57
		c-0.21-7.08-1.74-13.65-3.9-20.02c0-0.92,1.54-1.03,1.13-2.16c-2.9,0.97-1.4,1.03-3.7-3.18
		C760.73,221.96,741.05,217.38,731.34,220.47z"/>
	<path d="M238.56,41.57c0.72-0.72,2.05,0.21,2.57-0.92c-0.18-3.57-5.44-4-8.31-3.28c-3.08-1.13-5.13,0.72-7.6,2.46
		c2.16,0.72,3.08-1.23,3.9-1.33c6.75,1.47,7.1,1.17,6.98,2.26c-2.77-0.41-5.34,1.18-8.11,1.23c-0.41,0.01-1.03,0.51-0.51,1.54
		C239.91,43.52,235.67,43.97,238.56,41.57z"/>
	<path d="M812.42,206.1l-0.21,0.1C812.26,206.2,812.39,206.12,812.42,206.1z"/>
	<path d="M812.12,209.39c2.26-1.23,4.52-2.16,7.29-1.23c0.6,4.77,0.39,3.75,0.51,4.62c-2.05,1.74-6.37-0.9-5.65,2.46
		c0.48,2.22,3.11,3.02,3.9,1.44c1.01-1.35-1.61-0.57,3.7-2.98c0.1-2.67,0.1-5.23-0.1-7.8c0-0.41-0.51-0.72-0.72-1.03
		C818.49,205.3,807.39,205.84,812.12,209.39z"/>
	<path d="M711.12,364.07c1.53,1.14,3.18,2.16,4.72,3.18c-0.1-0.72-0.1-1.54-0.41-2.05c-3.39-4.07-3.23-7.51-4.82-10.16
		C709,352.37,705.36,359.8,711.12,364.07z"/>
	<path d="M42.92,532.4c-1.63,0.72-1.55,4.11,1.85,4.11C56.07,536.51,51.71,528.5,42.92,532.4z"/>
	<path d="M224.8,77.6c-0.59-1.18,0.94,0.03-10.98-8.83c-0.27-0.9-2.34-7.42-2.36-7.49c-2.01,5.22,0.94,4.75-0.92,7.08
		c4.31,3.39,8.72,6.47,13.24,9.44C223.98,77.9,224.39,77.7,224.8,77.6z"/>
	<path d="M703.01,379.16c0.6-16.16,1.64-13.88,0.92-17.24C701.35,365.88,700.99,380.17,703.01,379.16z"/>
	<path d="M239.48,72.57c2.57,2.05,5.01,0.66,7.39,0c0.92-0.25,0.11-2.57-3.08-2.57C241.39,70,239.72,70.18,239.48,72.57z"/>
	<path d="M246.36,65.79c-9.05,1.23-8.02,0.29-10.57,0.92c-0.19,2.04,0.09,1.62,13.24,0.31C249.6,67.02,249.66,65.34,246.36,65.79z"
		/>
	<path d="M156.03,187.12c5.39,3.59-1.09-6.39-4.93-5.75C152.03,184.14,153.88,185.68,156.03,187.12z"/>
	<path d="M171.53,226.12c-6.94-8.92-5.05-7.35-6.36-8.01C163.04,218.11,166.87,226.12,171.53,226.12z"/>
	<path d="M800.21,220.47c-6.12,4.83-8.91,11.17-4.72,6.98C800.51,221.84,802.04,220.78,800.21,220.47z"/>
	<path d="M739.04,258.45c1.85-4.41,2.16-8.52,1.74-12.62c-0.1-0.41-0.51-0.72-1.13-1.74C739.14,258.53,738.36,255.75,739.04,258.45z
		"/>
	<path d="M224.38,115.76c0,0.01,0,0.01,0.01,0.02C224.55,115.78,224.5,115.79,224.38,115.76z"/>
	<path d="M213.82,110.65c-0.41-0.1-0.92,0-1.85,0C219.14,115.52,235.3,119.11,213.82,110.65z"/>
	<path d="M741.29,239.87c5.42,3.87,4.29,2.33,8.31,5.85c-0.41-2.26-0.41-2.47-1.64-3.39C746.02,240.89,744.17,239.36,741.29,239.87z
		"/>
	<path d="M167.63,107.06c-0.31,0-0.51,0.51-0.92,0.92C178.18,111.39,176.06,105.52,167.63,107.06z"/>
	<path d="M218.64,76.78c1.23,3.08,1.44,5.85,2.67,8.62c0.31-0.51,0.62-0.82,0.62-1.13C221.44,80.11,221.52,77.1,218.64,76.78z"/>
	<path d="M193.19,119.58c1.44,3.39,2.46,6.77,3.08,10.47C198.01,127.19,196.05,121.29,193.19,119.58z"/>
	<path d="M243.28,60.05c0.91-0.43,1.64-1.13,2.87-0.62c0.51-0.1,1.13,0,1.64-0.1c0.83-0.42,0.92-1.85,0-1.85
		C240.8,56.66,241.89,60.7,243.28,60.05z"/>
	<path d="M156.13,155.71c-3.95-4.34-2.62-3.27-5.34-7.49C150.07,152.22,153.34,155.71,156.13,155.71z"/>
	<path d="M656.72,294.07c2.05,1.54,4.11,1.95,8.83,1.64C662.77,294.48,659.9,293.97,656.72,294.07z"/>
	<path d="M725.38,327.53c-0.02,0.91,1.44-0.1,1.54-4.11C726.99,320.77,725.67,313.9,725.38,327.53z"/>
	<path d="M224.39,115.78v0.1C224.47,115.86,224.52,115.86,224.39,115.78z"/>
	<path d="M230.34,120.09c-2.96-3.45-4.07-5.06-5.87-4.24C229.16,120.54,229.75,121.28,230.34,120.09z"/>
	<path d="M704.45,405.02c0.58-2.67,1.02-4.82-0.62-5.23C702.77,399.79,701.65,402.55,704.45,405.02z"/>
	<path d="M806.06,236.69c-0.31,3.59,0.1,4.62,1.85,5.44C808.11,238.74,807.7,237.51,806.06,236.69z"/>
	<path d="M708.55,277.44c-0.21-2.26-1.74-4.21-2.05-6.57C704.91,267.69,705.41,276.39,708.55,277.44z"/>
	<path d="M645.53,244.59c-0.21,0.1-0.21,0.51-0.51,1.13C653.95,243.17,651.52,241.7,645.53,244.59z"/>
	<path d="M706.19,478.72c0,1.88,0.25,1.6,1.13,5.34C708.45,481.8,708.14,480.77,706.19,478.72z"/>
	<path d="M707.01,321.47c-0.72-1.44-0.62-3.39-2.87-4.52C706.39,322.3,706.31,322.18,707.01,321.47z"/>
	<path d="M680.53,262.35c-0.41-0.21-0.92-0.31-1.13,0.51C682.79,265.95,686.12,264.22,680.53,262.35z"/>
	<path d="M161.47,254.55c0.41,1.95,1.16,4.02,2.05,2.46C162.25,251.28,161.38,254.12,161.47,254.55z"/>
	<path d="M760.49,247.67c-0.31-1.85-0.31-1.85-1.74-3.49C758.54,246.13,758.54,246.13,760.49,247.67z"/>
	<path d="M703.42,383.98c-0.72,1.85-0.72,1.85-0.1,3.59C704.03,386.45,704.14,385.52,703.42,383.98z"/>
	<path d="M703.62,392.71c-0.82,1.33-0.82,1.33,0.1,2.87C704.24,394.04,704.24,394.04,703.62,392.71z"/>
	<path d="M692.13,443.72c0.51-2.05,0.82-3.59-0.1-5.65C691.41,440.02,691,441.67,692.13,443.72z"/>
	<path d="M191.24,341.39c1.13-1.33,0.82-2.05-1.33-2.77C190.21,339.54,190.31,340.67,191.24,341.39z"/>
	<path d="M705.68,245.11c-0.48,1.95-0.72,3.7-0.82,3.59c-0.11,0.11-1.69,1.9,0.1,0.1C704.46,248.3,706.84,249.22,705.68,245.11z"/>
	<path d="M720.05,375.26c0.51-1.74,0.1-2.77-1.03-4.11C718.82,372.79,719.64,373.82,720.05,375.26z"/>
	<path d="M662.67,286.47c-0.21,0-1.06,1,1.74,2.05C663.9,286.88,663.49,286.27,662.67,286.47z"/>
	<path d="M738.21,261.12c-1.03,0.82-0.92,1.74-0.72,2.77C738.32,263.07,738.52,262.25,738.21,261.12z"/>
	<path d="M706.7,242.13c1.23-1.74,1.23-1.74,1.23-3.08C706.81,239.57,706.6,240.49,706.7,242.13z"/>
	<path d="M165.58,263.89c0.31-1.23-0.1-2.05-1.13-2.77C164.24,262.76,164.24,262.76,165.58,263.89z"/>
	<path d="M786.46,241.31c1.03-0.21,1.64-0.82,2.05-1.74C786.66,239.77,786.66,239.77,786.46,241.31z"/>
	<path d="M722,336.25c-0.69,0-1.88,0.94-1.03,2.16C721.41,337.75,722.83,336.25,722,336.25z"/>
	<path d="M671.19,259.27c0.62,0.92,1.03,1.54,2.05,1.64C673.04,259.99,672.63,259.38,671.19,259.27z"/>
	<path d="M736.78,270.56c0.72-0.92,0.92-1.74,0.72-2.98C736.37,268.51,736.37,269.43,736.78,270.56z"/>
	<path d="M207.45,87.25c-0.23,2.78,1.84,3.06,0.82,1.03C208.17,87.86,207.76,87.55,207.45,87.25z"/>
	<path d="M769.42,260.71c-0.72,1.33-0.82,2.16,0,3.49C769.42,262.97,769.42,262.15,769.42,260.71z"/>
	<path d="M165.47,197.89c0-0.62,0-1.33,0-2.57C165.06,197.07,165.06,197.07,165.47,197.89z"/>
	<path d="M211.56,96.69c-0.51-1.44-0.82-2.05-1.13-2.98C209.92,94.94,210.53,95.46,211.56,96.69z"/>
	<path d="M237.02,88.27c-0.52,0-0.41-0.43-0.41,2.57C236.88,90.84,237.02,91.23,237.02,88.27z"/>
	<path d="M713.27,281.24c-0.1-0.1-2.74-1.51,0.1,1.33C714.09,281.85,713.58,281.55,713.27,281.24z"/>
	<path d="M163.22,161.56c0.34,0.68,2.05,1.47,2.05,0.72C163.64,161.05,163.77,161.28,163.22,161.56z"/>
	<path d="M188.67,336.77c-0.1,1.03,0.51,1.54,1.33,1.85C189.9,337.79,190.01,336.87,188.67,336.77z"/>
	<path d="M223.06,89.91c-0.85-0.42-0.8-1.08-1.23,0.21C222.75,90.74,222.85,90.54,223.06,89.91z"/>
	<path d="M225.21,124.81c-1.12-0.67-1.13-1.34-1.74-0.72C223.2,124.36,224.15,125.61,225.21,124.81z"/>
	<path d="M703.93,469.48c-1.05,0-0.14,2.14,0,2.67C703.93,470.71,703.93,470.1,703.93,469.48z"/>
	<path d="M797.95,260.71c0,0.68-0.07,0.75,1.95,0.41C799.9,260.57,800.28,260.71,797.95,260.71z"/>
	<path d="M694.85,237.5c-0.28,0-0.28,2.18,0,2.18C695.13,239.68,695.13,237.5,694.85,237.5z"/>
	<path d="M648.61,292.84c0.82,0,1.33,0,1.85,0C649.94,292.63,649.53,292.12,648.61,292.84z"/>
	<path d="M791.49,236.28c-0.29-0.43-0.19-0.63-1.03,0.21c-0.1,0.1,0.1,0.31,0.31,0.51C790.97,236.69,791.28,236.49,791.49,236.28z"
		/>
	<path d="M779.27,270.56c-0.82,0.1-0.92,0.51-0.82,1.13C779.07,271.59,779.27,271.18,779.27,270.56z"/>
	<path d="M705.11,473.37c-0.28,0-0.28,2.07,0,2.07C705.4,475.45,705.4,473.37,705.11,473.37z"/>
	<path d="M162.09,110.96c0.56-0.56,0.42-0.29,0.21-0.72C161.67,110.55,161.72,110.59,162.09,110.96z"/>
	<path d="M196.68,144.72c-0.92,0.46-0.41,0.45-0.41,0.92c0.1-0.1,0.31-0.21,0.51-0.31C196.68,145.14,196.68,144.93,196.68,144.72z"
		/>
	<path d="M195.75,149.45c0,0.1,0.1,0.31,0.1,0.51C196.88,149.45,196.13,148.69,195.75,149.45z"/>
	<path d="M793.85,232.59c0,3.14,0.72,0.31,0.72,0.21c0-0.1-0.21-0.31-0.31-0.51C794.15,232.38,793.85,232.48,793.85,232.59z"/>
	<path d="M236.71,109.62c-0.11,0-0.21,0.24-0.21,0.41C237.04,110.03,236.71,109.79,236.71,109.62z"/>
	<path d="M666.57,257.12c-0.37-0.74-0.24-0.65-0.51-0.51C666.5,257.49,666.25,257.44,666.57,257.12z"/>
	<path d="M720.35,378.95c0,0.1,0.21,1.11,0.72,0.1C720.55,378,720.35,378.85,720.35,378.95z"/>
	<path d="M778.35,271.59c-0.1,0.21-0.31,0.41-0.51,0.62C778.37,272.74,778.03,272.54,778.35,271.59z"/>
	<path d="M722.72,332.05c0.1,0,0.1,0.1,0.21,0.1C722.92,331.74,722.99,331.77,722.72,332.05z"/>
	<path d="M692.85,427.91c-0.25-0.25-0.41-0.11-0.41,0C692.68,428.16,692.85,428.02,692.85,427.91z"/>
	<path d="M695.62,243.47c0.1,0.1,0.31,0.1,0.51,0.21C695.93,243.47,696.13,242.85,695.62,243.47z"/>
	<path d="M791.69,276.11c0.17-0.09,0.37-0.1,0.69-0.1C792.17,275.41,791.89,275.52,791.69,276.11z"/>
	<path d="M792.41,276.11l0.1-0.1C792.34,276,792.38,275.98,792.41,276.11z"/>
	<path d="M716.45,367.56c-0.21-0.1-0.31-0.21-0.51-0.31C715.84,367.66,715.94,368.07,716.45,367.56z"/>
	<path d="M708.96,277.75c-0.21,0-0.31-0.1-0.51-0.21C708.65,277.75,708.45,278.26,708.96,277.75z"/>
	<path d="M664.4,288.7c0.01,0.04,0.01,0.09,0.01,0.14C664.77,288.83,664.57,288.8,664.4,288.7z"/>
	<path d="M664.31,288.63c0.03,0.03,0.06,0.05,0.09,0.07C664.39,288.66,664.37,288.63,664.31,288.63z"/>
	<path d="M719.94,290.48c0.27-0.13,0.26-0.08,0-0.21V290.48z"/>
	<path d="M650.35,292.94l0.21,0.21C650.43,292.76,650.49,292.8,650.35,292.94z"/>
	<path d="M241.43,179.42c-0.21-3.18-2.67-5.13-4-7.6c-0.52-1.98,0.4-8.4-1.13-5.34c-0.31,2.36,0.31,4.82-0.72,7.18
		C235.1,174.64,237.67,180.17,241.43,179.42z"/>
	<path d="M217.82,260.2c2.73-3.9,4.7-8.9,3.9-13.55c-0.46,1.74-2.7,8.88-5.13,13.75C217.21,260.3,217.72,260.4,217.82,260.2z"/>
	<path d="M195.96,242.64c-0.95,3.04,0.58,3.39,2.36,18.99C199.24,256.91,197.91,247.26,195.96,242.64z"/>
	<path d="M230.96,195.12c-0.41,0-0.31-0.79-0.31,6.47C231.08,201.59,230.96,202.03,230.96,195.12z"/>
	<path d="M194.42,194.3c0.82,1.44,0.72,2.98,2.26,3.7C196.06,195.22,195.96,195.12,194.42,194.3z"/>
	<path d="M196.06,209.39c0.21,0.21,0.62,0,1.13,0c-0.62-0.92-1.03-1.54-1.74-2.46C194.73,208.47,195.55,208.88,196.06,209.39z"/>
	<path d="M224.29,240.28c0.31-0.92,0.62-1.74,0.82-2.46C223.98,238.23,223.57,239.05,224.29,240.28z"/>
	<path d="M203.55,216.68c0.62-0.72,1.13-1.33,1.74-1.95C203.55,214.52,203.55,214.52,203.55,216.68z"/>
	<path d="M218.75,200.36c0.92-0.92,0.92-0.92,1.13-1.95C219.37,198.91,219.19,198.59,218.75,200.36z"/>
	<path d="M208.17,212.06c0.68-2.72-0.88-0.47-0.31,0.1C207.97,212.16,208.17,212.16,208.17,212.06z"/>
	<path d="M211.97,181.47c-0.1,0-0.21,0.31-0.31,0.51C212.92,182.61,212.56,181.18,211.97,181.47z"/>
	<path d="M197.19,199.74c0.51,0.21,0.82,0.51,1.33,1.03C198.42,199.54,197.7,199.95,197.19,199.74z"/>
	<path d="M225.72,232.38c-0.13,0.13-0.1,0.04-0.1,0.41C225.75,232.66,225.72,232.75,225.72,232.38z"/>
	<path d="M196.74,198.16c0.15,0.46,0.32,0.87,0.47,1.27C197.1,198.97,197.32,198.39,196.74,198.16z"/>
	<path d="M196.57,198.1c0.06,0.01,0.11,0.04,0.16,0.06C196.66,197.96,196.71,197.97,196.57,198.1z"/>
	<path d="M196.16,235.56v0.21C196.29,235.51,196.3,235.56,196.16,235.56z"/>
	<path d="M216.9,181.37c-0.25,0.25-0.11,0.41,0,0.41C217.63,181.78,217.63,181.37,216.9,181.37z"/>
	<path d="M247.59,181.37c-0.39,0.13-0.38,0.07-0.1,0.21L247.59,181.37z"/>
	<path d="M218.75,200.36v-0.1C218.47,200.39,218.47,200.36,218.75,200.36z"/>
	<path d="M142.89,258.35l-0.1,0.1C142.91,258.45,142.89,258.48,142.89,258.35z"/>
	<path d="M144.12,259.07c0.36-0.72-0.9-0.62-1.23-0.62c0,0.84-6.47,13.97-6.47,30.9C139.3,288.49,137.63,274.66,144.12,259.07z"/>
	<path d="M121.65,375.87c-0.21,0.3,0,0.92,0,1.74c6.16-4.62,3.01-10.68,6.88-18.78c0.53-1.12,0.51-2.26,0-3.7
		C122.88,368.99,125.55,370.24,121.65,375.87z"/>
	<path d="M143.82,279.08c3.2-6.72,4.82-14.06,8.72-20.53c0.1-0.1,0-0.41-0.1-0.72C148.54,260.43,141.21,284.55,143.82,279.08z"/>
	<path d="M141.31,291.73c-1.48,2.21-2.74,6.24-2.83,9.32C139.33,299.35,141.1,294.02,141.31,291.73z"/>
	<path d="M141.35,291.4c-0.01,0.11-0.03,0.22-0.04,0.33C141.5,291.47,141.46,291.51,141.35,291.4z"/>
	<path d="M150.08,299.3c-0.96,8.13,1.11-1.26,0.31-2.46C149.56,297.66,150.18,298.48,150.08,299.3z"/>
	<path d="M138.36,301.27c-1.12,1.99-1.32,4.17-1.42,6.34C137.82,305.94,138.33,303.88,138.36,301.27z"/>
	<path d="M138.38,300.95c0,0.11-0.01,0.22-0.02,0.33C138.51,301.01,138.5,301.07,138.38,300.95z"/>
	<path d="M136.02,313.57c-0.29,0-0.21-0.54-0.21,4.93C136.1,318.5,136.02,319.04,136.02,313.57z"/>
	<path d="M143,287.81c0.78-1.07,1.37-2.15,1.33-3.57C143.46,285.31,142.8,286.33,143,287.81z"/>
	<path d="M144.39,284.07c-0.12-0.12-0.07,0.27-0.01,0.09c0.1,0.1,0.04,0.04,0.04-0.1L144.39,284.07z"/>
	<path d="M142.79,287.7c0,0.07-0.01,0.13-0.01,0.21C142.93,287.79,142.89,287.81,142.79,287.7z"/>
	<path d="M141.46,291.5c0.88-0.98,1.38-2.16,1.32-3.59C141.73,288.82,141.26,290.01,141.46,291.5z"/>
	<path d="M136.84,311.31c0-1.23,0-2.57,0-3.8C136.32,308.85,136.32,310.08,136.84,311.31z"/>
	<path d="M170.81,387.78l0.1,0.1C171.17,387.75,171.08,387.78,170.81,387.78z"/>
	<path d="M173.99,387.68c0.41-0.1,0.72-0.51,1.13-0.72c-0.92,0.21-1.95,0.21-3.08,0.31C171.92,387.27,169.28,388.14,173.99,387.68z"
		/>
	<path d="M152.95,267.28c-0.41,0-0.31-0.32-0.31,2.05C153.05,269.33,152.95,269.35,152.95,267.28z"/>
	<path d="M175.36,386.96c-0.08,0-0.15,0-0.24,0C175.24,387.08,175.19,387.09,175.36,386.96z"/>
	<path d="M178.1,386.24c-0.87,0.29-1.94,0.04-2.74,0.72C178.18,386.96,177.5,386.84,178.1,386.24z"/>
	<path d="M170.91,387.88c-0.72,0.1-1.44,0.1-2.46,0.21C169.48,388.6,170.3,388.5,170.91,387.88z"/>
	<path d="M180.29,385.64c-0.76,0.07-1.51,0.03-2.08,0.7C178.89,386.24,179.76,386.6,180.29,385.64z"/>
	<path d="M181.69,384.86c-0.67,0.39-1.07,0.59-1.26,0.69C180.53,385.5,181.68,385.98,181.69,384.86z"/>
	<path d="M180.43,385.56C180.43,385.56,180.43,385.56,180.43,385.56C180.43,385.56,180.43,385.56,180.43,385.56z"/>
	<path d="M180.46,385.62c-0.04-0.04-0.04-0.06-0.03-0.06C180.22,385.67,180.25,385.66,180.46,385.62z"/>
	<path d="M147.51,277.85c0.05-0.11,0.06-0.09,0.01-0.02C147.51,277.78,147.52,277.79,147.51,277.85z"/>
	<path d="M147.31,278.16l0.1,0.1C147.62,277.59,147.47,277.92,147.31,278.16z"/>
	<path d="M148.44,275.59c0-0.15,0.3-0.51-0.1-0.1L148.44,275.59z"/>
	<path d="M181.69,384.7c0.01,0.06,0,0.1,0,0.16C181.83,384.8,181.8,384.81,181.69,384.7z"/>
	<path d="M182.72,384.39c-0.62,0-0.37,0.13-0.92,0.41C182.88,384.8,182.26,384.85,182.72,384.39z"/>
	<path d="M146.59,279.7l0.1,0.1C146.78,279.24,146.78,279.36,146.59,279.7z"/>
	<path d="M146.74,279.41c0.16-0.3,0.33-0.63,0.48-0.98C146.83,278.64,146.78,279,146.74,279.41z"/>
	<path d="M147.31,278.26c-0.02,0.06-0.06,0.12-0.08,0.17C147.44,278.33,147.46,278.41,147.31,278.26z"/>
	<path d="M145.87,281.14c-0.11,0.53,0.18-0.51,0.54-1.25C145.7,280.22,146.01,281.28,145.87,281.14z"/>
	<path d="M146.49,279.7c-0.03,0.05-0.05,0.12-0.08,0.17C146.59,279.76,146.65,279.87,146.49,279.7z"/>
	<path d="M145.15,282.67c0.66-0.29,0.63-0.83,0.7-1.4C145.17,281.52,145.24,282.09,145.15,282.67z"/>
	<path d="M144.43,284.07c0.7-0.25,0.62-0.91,0.62-1.5C144.48,282.95,144.44,283.51,144.43,284.07z"/>
	<path d="M204.79,413.13c-3.21,4.81-0.58,6.72,4.21-2.46C209.17,410.4,209.1,406.66,204.79,413.13z"/>
	<path d="M202.22,441.46c2.61-0.65,4.62-3.35,4.62-3.9C206.84,434.46,201.07,439.16,202.22,441.46z"/>
	<path d="M182.92,448.24c-0.21,0.92-0.53,1.44-0.41,1.95C186.19,466.54,186.42,451.23,182.92,448.24z"/>
	<path d="M174.71,548.93c0,0.1,2.25,4.02,0.92-7.49C174.51,543.8,174.4,546.36,174.71,548.93z"/>
	<path d="M191.34,421.34c-1.85-1.33-3.59-2.46-5.75-4C185.72,420.22,189.34,422.34,191.34,421.34z"/>
	<path d="M181.79,496.89c1.51-0.98,2.92-2.6,2.16-4.52C182.82,493.71,182.2,494.84,181.79,496.89z"/>
	<path d="M189.7,470.51c0.31-1.54,0-2.57-1.03-4.21C188.36,468.25,188.77,469.38,189.7,470.51z"/>
	<path d="M189.8,477.08c0-0.92,0-1.85,0-2.98C188.57,476.05,188.57,476.05,189.8,477.08z"/>
	<path d="M200.06,419.29c1.54-0.62,1.54-0.62,1.64-2.26C200.78,417.65,200.06,418.16,200.06,419.29z"/>
	<path d="M187.03,459.94c-0.1,1.03-0.1,1.95,1.23,2.26C188.26,461.17,188.16,460.35,187.03,459.94z"/>
	<path d="M178.41,524.29c0.92-1.44,0.92-1.44,0.62-2.36C178.1,522.55,177.89,523.27,178.41,524.29z"/>
	<path d="M180.56,442.28c0.62-0.82,0.72-1.54-0.1-2.26C180.46,440.74,180.56,441.56,180.56,442.28z"/>
	<path d="M177.07,532.09c0.41,0,0.31,0.2,0.31-1.13C176.97,530.96,177.07,530.77,177.07,532.09z"/>
	<path d="M195.75,421.14c-0.41,0.1-0.41,0.31,0,0.41C196.23,421.55,196.13,421.14,195.75,421.14z"/>
	<path d="M186.52,459.73c0.21,0.1,0.31,0.1,0.51,0.21C187.03,459.53,187.03,459.22,186.52,459.73z"/>
	<path d="M275.51,340.46c-1.23,0.92-1.23,1.33-0.21,2.87C275.92,342,275.92,342,275.51,340.46z"/>
	<path d="M280.23,335.23c-0.21,1.54-1.13,2.98-0.21,4.82C280.84,338.31,280.95,336.77,280.23,335.23z"/>
	<path d="M266.27,217.19c-1.54,1.23-1.95,2.46-1.74,4.31C265.96,220.17,266.37,218.93,266.27,217.19z"/>
	<path d="M273.45,335.02c-0.72,0.92-0.72,1.64,0,2.67C274.27,336.66,274.17,335.95,273.45,335.02z"/>
	<path d="M273.56,331.94c0,0.1,0.21-0.1,0.21-0.21c0-0.31-0.1-0.62-0.21-1.33C273.09,332.26,272.93,331.31,273.56,331.94z"/>
	<path d="M253.23,221.6c0.1-0.62-0.1-1.13-1.03-1.13C252.21,221.19,252.51,221.6,253.23,221.6z"/>
	<path d="M253.94,222.24c-0.02-0.46-0.23-0.73-0.71-0.64C253.23,222.08,253.43,222.36,253.94,222.24z"/>
	<path d="M254.77,222.94c-0.26-0.08-0.49-0.26-0.69-0.48C254.15,222.81,254.35,223.02,254.77,222.94z"/>
	<path d="M253.95,222.32c0.27,0.33,0.02-0.02,0.1-0.1C253.89,222.26,253.95,222.2,253.95,222.32z"/>
	<path d="M254.67,223.04l0.1,0.1C254.77,222.89,254.81,222.9,254.67,223.04z"/>
	<path d="M106.97,429.97c-5.33,3.86-12.34,17.41,1.33,0C107.58,429.97,107.17,429.76,106.97,429.97z"/>
	<path d="M117.23,414.67c2.16,0.31,2.36,0.1,4.31-2.98C119.7,412.21,118.26,412.93,117.23,414.67z"/>
	<path d="M136.02,422.88c1.13,0,1.74,0,2.87-0.1C137.76,421.86,137.04,421.75,136.02,422.88z"/>
	<path d="M49.59,472.25c1.74-0.82,1.74-0.82,2.36-1.85C50.72,470.1,50.21,470.71,49.59,472.25z"/>
	<path d="M47.03,472.77c-0.62-0.1-1.13,0.31-1.13,1.03c0,0.31,0.31,0.51,0.62,1.03c0.51-0.51,0.92-0.92,1.13-1.44
		C47.74,473.38,47.23,472.77,47.03,472.77z"/>
	<path d="M82.54,447.52c0,0.46,0.3,0.21,0.92-0.21C83.32,447.02,83.2,446.86,82.54,447.52z"/>
	<path d="M54.11,468.76c0,0.67,0.76-0.03,1.03-0.21C55.28,468.56,55.16,466.66,54.11,468.76z"/>
	<path d="M95.37,441.26c0,0.1,0.41,0.1,0.51,0c0.21-0.41,0.41-0.82,0.62-1.23C95.9,440.42,94.98,440.49,95.37,441.26z"/>
	<path d="M125.14,403.18c0,0.77,0.47,0.31,0.72,0.31C125.85,402.6,125.14,402.84,125.14,403.18z"/>
	<path d="M134.58,425.14c0.37,0,0.31-0.15,0.31-0.31C134.56,424.83,134.58,424.43,134.58,425.14z"/>
	<path d="M122.57,408.1c0.1,0.1,0.1,0.31,0.21,0.51c0.1-0.1,0.21-0.1,0.21-0.21C122.71,407.86,122.91,407.76,122.57,408.1z"/>
	<path d="M89.11,443.92c0.1,0.1,0.21,0.31,0.31,0.41C90.46,443.3,89.79,443.92,89.11,443.92z"/>
	<path d="M96.68,440.03c0.04-0.01,0.08-0.01,0.12-0.01C96.81,439.67,96.85,439.87,96.68,440.03z"/>
	<path d="M90.03,443.82c0-0.1,0.1-0.21,0.1-0.31C90.03,443.51,89.93,443.62,90.03,443.82z"/>
	<path d="M211.36,305.77c-0.1-1.95-0.21-4-0.31-6.06c-0.92,2.46-0.21,5.03-0.31,7.49c-2.26,2.58-2.07,2.14-1.54,2.67
		c2.36-0.51,3.39-2.77,4.93-4.31c0.41-0.41,1.13-0.92,0.51-1.85C213.51,304.23,213.1,305.97,211.36,305.77z"/>
	<path d="M224.39,307.62c-0.17-2.67-2.22-18.49-2.26-18.78C220.69,284.5,221.91,297.84,224.39,307.62z"/>
	<path d="M198.83,297.46c1.08-0.69,1.77-1.65,2-2.89C199.61,295.09,198.94,296.08,198.83,297.46z"/>
	<path d="M200.89,294.38c-0.01,0.06-0.04,0.12-0.05,0.18C201.05,294.48,200.99,294.48,200.89,294.38z"/>
	<path d="M196.01,300.96c0,0-0.04,0.04-0.15,0.08l0.1,0.1C195.98,301.01,196.01,300.97,196.01,300.96
		C196.01,300.97,196.01,300.97,196.01,300.96c1.23-0.53,1.91-1.52,2-2.89C196.93,298.76,196.25,299.64,196.01,300.96z"/>
	<path d="M195.75,300.95c-0.01,0.06-0.03,0.11-0.05,0.17C195.91,301.04,195.86,301.05,195.75,300.95z"/>
	<path d="M193.7,304.02c0.99-0.78,1.76-1.58,2-2.9C194.48,301.65,193.9,302.74,193.7,304.02z"/>
	<path d="M219.16,276.21c0.36-1.44,0.08-2.08-0.41-0.1C218.57,276.28,219.16,276.57,219.16,276.21z"/>
	<path d="M202.54,292.13c-0.04,0-0.06,0.01-0.11-0.01C202.46,292.32,202.54,292.26,202.54,292.13z"/>
	<path d="M201.09,294.48c0.78-0.49,1.47-1.08,1.34-2.21C201.56,292.77,200.99,293.39,201.09,294.48z"/>
	<path d="M203.35,291.6c0.68-0.57,1.15-1.25,1.29-2.19C203.73,289.84,203.26,290.54,203.35,291.6z"/>
	<path d="M204.72,289.17c0.91-0.43,1.2-1.21,1.4-2.08C205.35,287.57,204.86,288.25,204.72,289.17z"/>
	<path d="M204.72,289.18c-0.19,0.07-0.16,0.05-0.06,0.14c0,0.15-0.1,0.09,0.12,0.02C204.68,289.24,204.69,289.29,204.72,289.18z"/>
	<path d="M210.29,278.12c0.07,0.02,0.2,0.04,0.35,0.04C210.48,278.16,210.35,278.13,210.29,278.12z"/>
	<path d="M206.22,287.19c0.1-0.31,0.21-0.51,0.1-0.31C206.33,286.58,206.33,286.88,206.22,287.19z"/>
	<path d="M221.62,287.81c-0.1-0.21-0.21-0.51-0.1-0.21C221.31,287.29,221.52,287.6,221.62,287.81z"/>
	<path d="M205.5,276.93l-0.1-0.21C205.27,276.86,205.25,276.8,205.5,276.93z"/>
	<path d="M202.54,292.13c0.5,0.1,0.62-0.25,0.71-0.63C202.77,291.41,202.57,291.76,202.54,292.13z"/>
	<path d="M198.73,297.25c0,0.17-0.06,0.07,0.1,0.1L198.73,297.25z"/>
	<path d="M198.01,298.07c0.48,0.09,0.69-0.17,0.71-0.72C198.22,297.31,198.1,297.6,198.01,298.07z"/>
	<path d="M192.88,304.54c0.14,0.14,0.66-0.37,0.82-0.62C193.39,304.13,193.19,304.33,192.88,304.54z"/>
	<path d="M146.59,318.5c-7.97,8.99-6.09,17.41-5.34,12.62c4.62-20.42,25.89-23.84,32.54,2.36c4.38,17.29-0.86,42.4-16.94,43.31
		c0.62,0.72,1.33,0.82,1.74,0.41C192.96,368.04,171.34,290.58,146.59,318.5z"/>
	<path d="M140.43,332.56l0.1,0.1C140.53,332.46,140.59,332.52,140.43,332.56z"/>
	<path d="M157.57,354.63c-0.07,0.07-0.09,0.09,0,0.1l0.1,0.1c0-0.14,0.01-0.08-0.09-0.1c0.02,0,0.05,0,0.09,0L157.57,354.63z"/>
	<path d="M150.8,338.41c0.02,0.02,0.07,0.1,0.1,0.1L150.8,338.41z"/>
	<path d="M157.5,354.72c-2.13-0.09-1.98-0.38,0.17-0.81c8.22-8.22,0.05-21.43-5.85-15.4c-0.62,0-1.37,0.1-0.1,0.1
		c-0.47,0.91-1.03-0.81-1.44,0.1C143.55,348.33,152.45,360.54,157.5,354.72z M152.44,341.64c0.02-0.02,0.1-0.1,0.2-0.15
		c-0.33,4.99-0.08,4.4,0.41,4.72c0.1-0.62,0.11-1.02,0.21-1.54c0.11-0.61,0.31-1.13,0.51-1.95c4.73,1.35-0.04,5.74,2.16,6.36
		c2.89-2.7,2.84-9.13-2.16-8.11c-0.36,0.07-1.2,0.5-1.28,0.59c-0.02,0.04-0.03,0.05-0.04,0.06c0-0.01,0-0.03,0-0.04
		c-0.3,0.1,0.96-3.62,3.89-2.45c4.47,1.49,3.89,13.79-1.23,13.45C151.91,352.36,149.67,345.66,152.44,341.64z M149.98,348.98
		c0.05,0.2,0.16,0.58,0.29,1.01C149.87,349.21,149.67,348.98,149.98,348.98z M150.41,350.42c0.17,0.51,0.35,1.02,0.5,1.34
		C150.4,351.46,150.45,350.93,150.41,350.42z M151.16,352.09c0.72,0.64,1.38,1.28,2.01,1.92
		C151.8,354.09,151.36,353.17,151.16,352.09z M153.39,354.13c0.27,0.02,0.54,0.1,0.89,0.18
		C153.81,354.79,153.52,354.57,153.39,354.13z"/>
	<path d="M152.45,341.58c0.01,0,0.02,0,0.04-0.02L152.45,341.58C152.45,341.58,152.45,341.58,152.45,341.58z"/>
	<path d="M139.51,354.11c-0.21-2.05,0.1-3.39-0.62-4.93C138.38,351.86,138.38,351.86,139.51,354.11z"/>
	<path d="M139.3,337.9c-0.82,1.03-0.82,1.95-0.51,3.08C139.4,339.95,139.71,339.13,139.3,337.9z"/>
	<path d="M139.51,336.25c1.13-1.23,1.23-2.36,1.13-3.59C139.51,333.48,139.51,334.71,139.51,336.25z"/>
	<path d="M160.03,353.09c-1.41-0.71-0.71-0.73-2.36,0.92c0,0.28,0,0.47,0,0.72C158.94,354.97,159.53,354.08,160.03,353.09z"/>
	<path d="M155.72,376.18c-3.19-0.38-2.26,0.31-2.16,0.31C156.22,376.73,158.3,376.83,155.72,376.18z"/>
	<path d="M153.31,376.08c-0.02-0.03-0.03-0.07-0.05-0.1C153.12,376.11,153.12,376.08,153.31,376.08z"/>
	<path d="M138.07,345.29c0.41,0,0.31,0.33,0.31-2.16C137.83,343.13,137.71,342.8,138.07,345.29z"/>
	<path d="M151.31,375.98c0.82,0,1.33,0,1.95,0C152.34,375.36,152.34,375.36,151.31,375.98z"/>
	<path d="M153.16,337.07c0.03-0.04,0.07-0.06,0.1-0.1C153.08,336.97,153.07,336.95,153.16,337.07z"/>
	<path d="M152.75,336.56c-0.1,0-1.09,0.41,0.35,0.41C153.01,336.81,152.92,336.64,152.75,336.56z"/>
	<path d="M154.7,335.74c-0.26,0-0.71,0.51,0.21,0.51C155.21,335.94,154.84,335.74,154.7,335.74z"/>
	<path d="M149.46,373.82c0.14,0,0.16,0.03-0.1-0.1L149.46,373.82z"/>
	<path d="M243.17,351.44c5.36-1.79,4.35-1.99,4.25-1.89c-0.15,0,5.19-13.16-4.04-14.74c-3.04,1.01-2.66,0.79-3.29,1.44
		c-0.03,0-0.07,0-0.1,0c0,0.08-0.01,0.1,0.01,0.09c0,0-0.01,0.01-0.01,0.01c-0.28,0.47-0.73,1.44-0.82,1.44
		c0,0.85-2.58-1.62-2.05,8.41C237.12,355.44,250.89,352.3,243.17,351.44z M239.07,347.34c0,0.26,0.07,0.51,0.15,0.77
		C238.93,347.99,238.64,347.77,239.07,347.34z M239.43,348.58c0.15,0.31,0.32,0.62,0.47,0.93
		C239.54,349.32,239.47,348.94,239.43,348.58z M240.92,350.83c0-0.15-0.02-0.28-0.05-0.4c0.11,0.06,0.22,0.12,0.36,0.19
		C241.12,350.73,241.02,350.73,240.92,350.83z M239.99,340.67c0.21,0,0.41,0,0.62,0c0.7,7.03,0.49-0.31,2.26-0.31
		c1.62,0,1.19,1.21,0.82,6.36c1.44-1.44,2.18-2.67,2.26-4.21c0.22-4.38-2.63-3.8-5.13-3.8c1.33-1.6,2.03-2.89,4.11-1.64
		c5.3,3.18,0.98,15.36-3.08,11.8C239.12,346.84,239.99,343.6,239.99,340.67z"/>
	<path d="M238.56,337.9l-0.1-0.1C238.51,337.9,238.56,338,238.56,337.9z"/>
	<path d="M245.23,371.77c-3.83-1.28,3.3,3.6,8.72-3.08C251.51,368.5,250.5,372.03,245.23,371.77z"/>
	<path d="M239.46,370.31c0.53,1.25,1.52,1.45,2.79,1.25C241.57,370.6,240.37,370.71,239.46,370.31z"/>
	<path d="M239.27,370.23c0.29,0.14,0.16,0.09,0.1-0.1L239.27,370.23z"/>
	<path d="M239.27,336.46l-0.1-0.1C239.17,336.73,239.14,336.73,239.27,336.46z"/>
	<path d="M239.17,337.79c0-0.38,0-0.76,0-1.14C238.33,338.29,238.43,337.79,239.17,337.79z"/>
	<path d="M247.48,350.24c0.11-0.08,0.26-0.15,0.41-0.24C247.38,349.49,247.48,349.8,247.48,350.24z"/>
	<path d="M247.38,350.32l0.1,0.1C247.48,350.27,247.51,350.19,247.38,350.32z"/>
	<path d="M246.56,350.42c0.04,0,0.06,0,0.1,0C246.66,350.29,246.69,350.29,246.56,350.42z"/>
	<path d="M246.66,351.03c0.43,0.04,0.62-0.25,0.62-0.72C246.59,350.68,246.66,349.95,246.66,351.03z"/>
	<path d="M246.56,351.03c0.05,0.05,0.03,0.03,0.1,0.1C246.66,350.97,246.68,351.06,246.56,351.03z"/>
	<path d="M246.05,351.86c-0.12-0.06-0.11-0.03-0.11-0.2C245.7,351.9,245.77,351.76,246.05,351.86z"/>
	<path d="M245.93,351.66c0.2-0.2,0.45-0.45,0.63-0.63C246.12,351.03,245.92,351.27,245.93,351.66z"/>
	<path d="M239.38,370.13c-0.1-0.1-0.31-0.1-0.41-0.1C239.07,370.02,239.17,370.13,239.38,370.13z"/>
	<path d="M242.15,371.67C242.46,371.87,242.25,371.56,242.15,371.67L242.15,371.67z"/>
	<path d="M241,334.6c0.03-0.01,0.06-0.03,0.12-0.09C241.09,334.54,241.04,334.57,241,334.6z"/>
	<path d="M240.81,335.64l0.1-0.1C240.8,335.54,240.77,335.51,240.81,335.64z"/>
	<path d="M240.79,335.54c-0.05-0.21-0.07-0.41-0.07-0.62C239.96,335.68,240.11,335.54,240.79,335.54z"/>
	<path d="M240.18,335.54c-0.03,0-0.06,0-0.08,0C240.09,335.69,240.07,335.64,240.18,335.54z"/>
	<path d="M240.77,334.78c0.27-0.23,0.27-0.16,0.14-0.16C240.29,334.61,240.97,335.04,240.77,334.78z"/>
	<path d="M239.27,336.25v0.1C239.45,336.23,239.38,336.25,239.27,336.25z"/>
	<path d="M240.09,335.64l-0.1-0.1C239.99,335.81,239.96,335.74,240.09,335.64z"/>
	<path d="M239.99,335.73c-0.21,0.16-0.39,0.36-0.61,0.52C240.11,336.25,239.99,336.39,239.99,335.73z"/>
	<path d="M650.46,334.41c-7.76,2.23-13.18-1-5.23,2.67c-0.1,2.57,0.72,5.03,0.62,7.8c-5.12-0.4-3.71-0.18,0.31,1.64
		c-0.21,2.26,0.92,4.21,0.41,6.36c-4.56-0.52,1.82,1.1,0.62,5.03c-1.44,0.21-2.46-1.33-3.9-0.62c1.23,1.74,3.39,2.05,4.72,3.59
		c1.25,5,1.71,8.03,3.28,7.8c-2-8.82-4.31-7.61,7.08-3.18c14.19,5.51,18.59,2.39,24.74,4.21c2.09,0.62,2.62-0.46,2.36-0.72
		c-3.73-2.99-3.81-1.37-9.24-2.77c-25.36-6.55-30.45-10.61-28.43-19.19c0.1,0.03,19.01,5.33,23.03,5.62
		c-1.91-1.43-18.23-4.9-23.75-7.27c-1.2-9.22-0.83-6.21-0.51-8.11c0.1,0.04,38.88,15.92,38.29,11.19
		c-11.42-2.72-24.22-6.1-34.8-11.09c-2.58-1.21-1.46-1.5,1.03-2.16C687.36,325.58,681.59,325.45,650.46,334.41z M648.61,356.37
		c12.66,6.93,12.74,7.6,11.7,7.08C649.98,359.5,647.78,359.67,648.61,356.37z"/>
	<path d="M676.12,327.63c-0.04,0.05-0.08,0.08-0.12,0.13C676.28,327.72,676.25,327.77,676.12,327.63z"/>
	<path d="M644.61,352.57c-0.04-0.01-0.06-0.02-0.1-0.02c0,0.08-0.01,0.12,0,0.12l0,0C644.8,352.72,644.74,352.75,644.61,352.57z"/>
	<path d="M673.24,352.57c-0.82,0-2.18,0.08-2.42,0.08C671.71,353.37,672.44,353.17,673.24,352.57z"/>
	<path d="M642.55,344.47l-0.1,0.1C642.66,344.61,642.61,344.59,642.55,344.47z"/>
	<path d="M573.17,274.36c0,0.19-0.12,0.32,0.1,0.1L573.17,274.36z"/>
	<path d="M600.16,294.27c6.82,4.46,20.12,9.63,23.4,8.31c-47.97-27.98-23.31-10.74-41.57-31.61
		C582.06,271.08,588.33,286.54,600.16,294.27z M616.48,299.61c0.1,0,0.21,0.21,0.31,0.31C615.79,300.42,615.75,299.25,616.48,299.61
		z M598.72,290.48c17.83,9.09,15.89,7.93,16.95,9.04C608.66,299.81,592.58,286.38,598.72,290.48z"/>
	<path d="M611.25,249.73c-5.5-0.87-20.8,4.56-24.94,8.01c3.41,3.41-1.07,2.71,7.39,3.18c-0.72,1.13-2.36,0.62-2.77,2.05
		c7.47-3.73,38.49-2.46-0.41-4.93c0.1-0.04,13.65-5.8,13.75-5.85C606.34,251.2,608.78,251.16,611.25,249.73z"/>
	<path d="M669.03,338.31c0.89,0.45,6.82,0.54,10.78-1.23c2.58-1.15,4.84-1.07,9.65-1.33c3.22,0,2.34-1.61,2.16-1.74
		c-3.58-2.68-19.91-0.82-23.2,1.23C667.36,336.02,667.39,337.84,669.03,338.31z"/>
	<path d="M635.16,333.17c-4.16,1.45-7.12,3.83-3.7,2.98c40-12.86,31.49-9.01,43.93-11.09c-3.64-0.84-11.59,0.7-15.6,1.44
		c-9.8,1.8-9.42,3.35-7.18-1.13C647.64,329.22,644.49,329.92,635.16,333.17z M650.97,328.45c-0.17,0-0.04-0.07,0.18-0.09
		C651.08,328.39,651.02,328.43,650.97,328.45z"/>
	<path d="M573.22,316.39c-2.28,0.08-3.37,0.18-4.02,0.29C570.5,316.57,571.83,316.48,573.22,316.39z"/>
	<path d="M573.22,316.39c4.9-0.17,15.34-0.21,38.95,0.16C669.93,317.45,607.7,314.23,573.22,316.39z"/>
	<path d="M569.21,316.68c-1.42,0.12-2.77,0.24-4.05,0.38C568.26,317.06,568,316.87,569.21,316.68z"/>
	<path d="M675.71,339.64c-9.79-1.57,1.29,4.76,17.04,0.82c1.17-0.47,2.48-1.36,1.44-2.05C693.74,338.51,686.07,341.3,675.71,339.64z
		"/>
	<path d="M603.24,266.15c1.98-1.98-1.57-0.95-11.91-1.74C590.14,266.8,600.57,266.31,603.24,266.15z"/>
	<path d="M656.92,321.06c2.64-1.62,8.9-7.67-3.5,1.17C654.73,322.39,655.86,321.71,656.92,321.06z"/>
	<path d="M653.42,322.23c-0.14-0.01-0.22-0.03-0.26-0.03c0.04,0.01,0.12,0.04,0.17,0.1C653.36,322.27,653.39,322.25,653.42,322.23z"
		/>
	<path d="M653.16,322.2C653.12,322.19,653.11,322.19,653.16,322.2L653.16,322.2z"/>
	<path d="M530.16,305.26c-2.77,1.54-2.77,1.54-3.8,3.28C528.21,308.13,529.44,307.62,530.16,305.26z"/>
	<path d="M536.11,305.56c0.21,0.1,0.51-0.1,1.03-0.21c-0.72-0.92-1.33-1.64-1.95-2.46C534.68,304.85,534.68,304.95,536.11,305.56z"
		/>
	<path d="M653.33,322.4l-0.1-0.1C653.18,322.49,653,324.2,653.33,322.4z"/>
	<path d="M653.17,323.23c-0.15,0.75-0.3,1.5-0.45,2.25C653.21,324.77,653.17,323.97,653.17,323.23z"/>
	<path d="M641.7,350.5c-0.02-0.03-0.05-0.05-0.07-0.08C641.52,350.53,641.46,350.54,641.7,350.5z"/>
	<path d="M643.89,351.75c-0.59-0.77-1.25-1.35-2.19-1.25C642.29,351.2,642.8,351.95,643.89,351.75z"/>
	<path d="M691.1,326.5c-0.35-0.35-0.23-0.19-1.74,0C691.15,326.95,690.73,326.88,691.1,326.5z"/>
	<path d="M676.53,353.81c-0.51-0.21-0.62-0.31-0.62-0.21C674.48,353.6,676.42,353.79,676.53,353.81z"/>
	<path d="M640.29,344.36c0.92,0,1.54,0,2.16,0C641.83,343.85,641.32,343.54,640.29,344.36z"/>
	<path d="M583.97,299.58c0.02,0.04,0.05,0.08,0.07,0.13C584.18,299.58,584.19,299.62,583.97,299.58z"/>
	<path d="M581.89,298.99c0.56,0.66,1.4,0.46,2.08,0.59C583.53,298.73,582.67,298.99,581.89,298.99z"/>
	<path d="M588.67,263.58c0.79,0,1.58-0.01,2.09-0.66C589.99,262.75,589.15,262.72,588.67,263.58z"/>
	<path d="M590.82,262.87c-0.02,0.02-0.04,0.04-0.06,0.06C590.96,262.97,590.97,263.02,590.82,262.87z"/>
	<path d="M585.79,265.02l0.1,0.1C585.89,265,585.92,264.98,585.79,265.02z"/>
	<path d="M587.13,264.2c-1.07,0-1.24,0.4-1.23,0.8C587.06,264.8,587.23,264.2,587.13,264.2z"/>
	<path d="M588.56,263.48c-0.49,0.1-1.07,0.02-1.39,0.72C587.75,264.23,588.38,264.33,588.56,263.48z"/>
	<path d="M584.46,265.84c0-0.22,0.09-0.18-0.1-0.1L584.46,265.84z"/>
	<path d="M584.48,265.68c0.45-0.21,0.85-0.47,1.31-0.66C585.22,265.11,584.55,264.87,584.48,265.68z"/>
	<path d="M582.95,266.49c-0.1-0.1-1.47,0.64-1.57,0.69c1.66-0.65,2.86-1.33,2.87-1.33C583.77,265.84,583.12,265.68,582.95,266.49z"
		/>
	<path d="M638.45,343.44l0.1,0.1C639.12,343.54,638.89,343.22,638.45,343.44z"/>
	<path d="M584.49,299.81c-0.01,0-0.01,0.01-0.03,0.01C584.53,299.82,584.52,299.82,584.49,299.81z"/>
	<path d="M584.05,299.71c0.2,0.06,0.37,0.08,0.44,0.09C584.57,299.8,584.32,299.71,584.05,299.71z"/>
	<path d="M581.28,267.18c-0.15,0.15-0.15,0.13,0.1,0C581.34,267.18,581.31,267.18,581.28,267.18z"/>
	<path d="M579.12,268.61c0.15-0.15,0.15-0.13-0.1,0C578.88,268.89,578.85,268.89,579.12,268.61z"/>
	<path d="M580.86,269.84c0.65,0.65,0.33,0.1,0.21,0.1C581.07,269.84,580.97,269.84,580.86,269.84z"/>
	<path d="M576.25,270.77h-0.1C576.14,270.9,576.12,270.9,576.25,270.77z"/>
	<path d="M582.1,270.87c-0.09-0.37-0.36-0.64-0.71-0.62C581.42,270.7,581.62,270.96,582.1,270.87z"/>
	<path d="M581.39,270.26c0-0.04-0.01-0.06-0.01-0.1C581.25,270.28,581.24,270.26,581.39,270.26z"/>
	<path d="M576.14,270.87l-0.1-0.1C575.52,271.55,574.91,272.1,576.14,270.87z"/>
	<path d="M575.53,271.69l-0.1-0.1C574.82,271.99,573.88,272.79,575.53,271.69z"/>
	<path d="M574.5,272.41c0-0.1,0.1-0.1,0.1-0.21C574.5,272.31,574.5,272.31,574.5,272.41z"/>
	<path d="M573.4,274.43c0.06-0.06,0.07-0.08,0.07-0.17C573.44,274.33,573.42,274.38,573.4,274.43z"/>
	<path d="M573.37,274.46c-0.1,0-0.21,0.1-0.1,0.21C573.31,274.63,573.43,274.43,573.37,274.46z"/>
	<path d="M639.37,348.06l-0.1-0.1C639.4,348.21,639.37,348.2,639.37,348.06z"/>
	<path d="M640.81,349.6c-0.76-1.13-2.17-2.17-0.77-0.77C639.93,348.93,640.7,349.53,640.81,349.6z"/>
	<path d="M641.42,350.52l0.1-0.1C641.35,350.13,641.47,350.33,641.42,350.52z"/>
	<path d="M641.42,350.27c-0.03-0.33-0.3-0.49-0.72-0.57C641.05,349.78,641.25,350.02,641.42,350.27z"/>
	<path d="M643.78,351.86c-0.09,0.47,0.26,0.6,0.72,0.7C644.53,352.06,644.26,351.95,643.78,351.86z"/>
	<path d="M676.22,327.63c0-0.1,0.1-0.21,0.1-0.31C676.22,327.32,676.22,327.43,676.22,327.63z"/>
	<path d="M775.27,342.41c-1.41,2.12,2.15,7.81,6.06,8.62C778.07,347.37,778.09,347.59,775.27,342.41z"/>
	<path d="M780.71,374.23c0,2.92,2.52,5.59,4.62,7.8C784.4,378.95,782.25,375.36,780.71,374.23z"/>
	<path d="M780.4,468.05c0.21-2.77,0.21-2.77-0.41-4C779.27,465.99,779.37,465.99,780.4,468.05z"/>
	<path d="M776.09,369.51c-0.31-1.85-0.62-3.7-1.03-6.06C774.14,366.12,775.06,367.87,776.09,369.51z"/>
	<path d="M780.5,397.53c-0.41,1.33-0.41,1.33,1.44,2.77C781.73,399.17,781.53,398.15,780.5,397.53z"/>
	<path d="M783.17,404.92c0.1,1.33,0.1,1.33,0.92,2.26C784.2,405.33,784.2,405.33,783.17,404.92z"/>
	<path d="M788.2,349.6c1.58-0.68,0.54,0.18,2.57-1.85C789.23,347.24,788.93,347.69,788.2,349.6z"/>
	<path d="M784.92,354.73c-0.21,0.41,0.31,1.23,0.92,1.13C787.14,355.21,785.5,354.14,784.92,354.73z"/>
	<path d="M776.81,322.71c0.1-0.41,0.31-0.82,0.41-1.23C776.74,320.52,775.39,322.71,776.81,322.71z"/>
	<path d="M776.09,328.04c0.9-0.9,0.22-1.12-0.21-1.33C775.42,328.09,775.47,327.42,776.09,328.04z"/>
	<path d="M800.31,291.09c0.5,0.5,0.5,0.53,1.03,0C800.48,290.66,801.12,290.69,800.31,291.09z"/>
	<path d="M779.68,459.83c-0.2,0-0.31-0.12-0.31,0.92C779.57,460.76,779.68,460.88,779.68,459.83z"/>
	<path d="M782.14,351.96c-0.2-0.11-0.28-0.39-0.92-0.82C781.8,352,782.02,351.96,782.14,351.96z"/>
	<path d="M419.72,367.46c4.71,1.31,11.07-1.53,7.7-3.18C419.06,360.19,415.19,366.19,419.72,367.46z"/>
	<path d="M417.36,371.67c-0.61,3.07,6.05,4.71,10.26,2.46c-0.62-0.51-0.92-0.92-1.13-0.92C418.3,370.91,417.53,370.43,417.36,371.67
		z"/>
	<path d="M483.87,320.96c-16.79,0-0.34,3.82,4.62-0.31c0.31-0.31,0.82-0.92,0-1.54C487.15,320.45,485.61,320.96,483.87,320.96z"/>
	<path d="M518.46,332.66c-6.76-3.24-13.21-1.24-0.82,1.03C518.15,333.78,518.56,333.38,518.46,332.66z"/>
	<path d="M470.01,322.19c1.13,0,2.16,0,3.39,0C472.67,320.6,469.66,320.95,470.01,322.19z"/>
	<path d="M464.88,322.91c-0.92-0.51-1.95-0.82-3.49,0C462.83,322.91,463.85,322.91,464.88,322.91z"/>
	<path d="M510.35,315.52c-0.82-0.62-1.23,0.21-1.64,0.62C509.53,316.65,509.94,316.14,510.35,315.52z"/>
	<path d="M456.26,323.01c-0.21-0.1-0.41,0.1-0.62,0.1c0.43,0.87-0.41,0.26,1.44,0.72C457.08,323.45,457.42,323.4,456.26,323.01z"/>
	<path d="M504.09,309.87c0.41-0.1,1.03-0.1,1.64-0.1C504.91,309.36,504.91,309.36,504.09,309.87z"/>
	<path d="M504.19,316.96c0-0.38-0.28-0.1-0.41-0.1C503.78,317.24,504.06,316.96,504.19,316.96z"/>
	<path d="M498.55,311.11c0-0.18,0.09-0.31-0.62-0.31C497.69,310.8,497.34,311.11,498.55,311.11z"/>
	<path d="M509.02,307.82l0.21-0.21C509.09,307.48,509.14,307.43,509.02,307.82z"/>
	<path d="M503.68,309.98c0,0,0,0.1,0,0.21C504.1,309.76,503.78,309.98,503.68,309.98z"/>
	<path d="M503.89,309.9c0.05-0.04,0.09-0.08,0.09-0.12C503.96,309.8,503.92,309.85,503.89,309.9z"/>
	<path d="M687.92,465.38c8.12,19,1.99,48.34-16.32,48.34c15.56,6.77,31.66-33.7,12.52-57.58c-12.21-15.24-27.1,1.84-27.1,12.62
		C663.79,448.46,679.53,445.74,687.92,465.38z"/>
	<path d="M673.04,492.17l-0.1-0.1C672.93,492.12,672.99,492.12,673.04,492.17z"/>
	<path d="M672.92,492.09c-1.94-1.15-0.63,0.1,1.65-2.19c-0.78,0.78,3.18-2.6,2.16-9.55c-0.71-4.79-2.9-5.31-6.36-7.29
		c-0.37,1.83-2.27,1.81-1.44,1.03c0.29-0.87-0.51-0.7-0.51,0.1c0,0.34,0.44,0.28,0.21,0.51c0.11,0-1.17,1.34-1.38,1.34
		c0.06,0.19-0.33,0.92-0.79,1.17c0-0.35,0-0.7,0-1.04c-3.75,0.72-4.47,19.34,6.06,16.4C672.72,492.58,672.82,492.3,672.92,492.09z
		 M666.06,487.75c0-0.11,0.41-2.42,0.41,0.68C666.3,488.2,666.14,488.01,666.06,487.75z M667.38,489.37
		c0.76,0.65,1.56,1.16,1.89,2.13C668.09,491.2,667.28,490.7,667.38,489.37z M669.72,491.65c0.01,0,0.02,0,0.03,0
		C669.88,491.71,669.83,491.69,669.72,491.65z M668.83,488.27c-4.16-6,0.46-15.21,4.52-11.5
		C678.39,481.39,673.07,494.37,668.83,488.27z"/>
	<path d="M656.92,468.66c-1.03,1.23-1.54,2.46-1.03,4C656.31,471.33,657.33,470.2,656.92,468.66z"/>
	<path d="M655.07,486.52c-0.72,1.74-0.41,3.08,0.1,5.03C655.59,489.6,655.69,488.27,655.07,486.52z"/>
	<path d="M669.55,513.62c-0.04,0-0.09-0.01-0.13-0.01C669.45,513.76,669.42,513.74,669.55,513.62z"/>
	<path d="M669.14,512.9c-3.86-1.47-1.87,0.48,0.28,0.7C669.34,513.32,669.32,512.99,669.14,512.9z"/>
	<path d="M666.57,512.18c0.38,0.08,0.32,0.14,0.21-0.1L666.57,512.18z"/>
	<path d="M673.34,492.37c0.06-0.18,0.11-0.06-0.1-0.1L673.34,492.37z"/>
	<path d="M673.4,492.27c1.14,0.02,1.93-0.77,2.62-1.85C674.58,490.13,674.57,489.51,673.4,492.27z"/>
	<path d="M654.25,482.72c0.41,0,0.31,0.36,0.31-2.36C653.92,480.36,654,480.95,654.25,482.72z"/>
	<path d="M654.97,474.51c0,1.64,0,2.36,0,3.39C655.69,476.87,655.59,476.05,654.97,474.51z"/>
	<polygon points="666.57,476.15 666.57,476.15 666.57,476.15 	"/>
	<path d="M666.47,476.17c0.04-0.01,0.07-0.02,0.1-0.02C666.44,476.03,666.47,476.02,666.47,476.17z"/>
	<path d="M666.57,476.15c0.27-0.07,0.35-0.08,0.69-0.1C666.92,475.12,667.07,474.65,666.57,476.15z"/>
	<path d="M669.75,513.82c0.54,0-0.2-0.1-0.31-0.1C669.55,513.72,669.65,513.82,669.75,513.82z"/>
	<path d="M666.47,511.87c0-0.1-0.1-0.1-0.21-0.1C666.4,511.91,666.64,512.05,666.47,511.87z"/>
	<path d="M666.67,512.08c-0.04-0.04-0.09-0.07-0.15-0.11C666.62,512.2,666.51,512.24,666.67,512.08z"/>
	<path d="M679.3,423.5c-2.17-2.71-1.27-6.82-3.7-8.31c0.62,3.49,2.46,8.83,3.59,10.57C680.02,425.04,679.71,424.11,679.3,423.5z"/>
	<path d="M745.19,460.14c-0.41,0.1-0.41,0.31,0,0.41C745.64,460.55,745.58,460.14,745.19,460.14z"/>
	<path d="M659.08,533.63c-1.85,1.23-3.12,3.51-2.36,5.23c1.11,2.54-3.65,12.86-0.21,13.55c0.74-1.1,0.35-1.32,1.95-9.03
		c0.57-2.75,0.37-2.75-0.51-4.52C658.05,536.82,659.69,535.48,659.08,533.63z"/>
	<path d="M659.18,522.75c-0.92,1.37,0.12,1.55,0.41,1.74C661.31,521.92,659.33,522.46,659.18,522.75z"/>
	<path d="M659.08,526.96c-0.9,0-1.68,1.4-0.21,2.87C659.28,528.48,659.84,526.96,659.08,526.96z"/>
	<path d="M673.76,481.39c-0.22-5.43-7.83-3.87-5.23,2.05c0.51-0.92,0.62-1.85,0.92-2.77c0.33-1,1.79-0.76,2.05,0.1
		c0.67,2.16-0.8,3.99,0.21,5.75C673.24,484.88,673.96,483.34,673.76,481.39z"/>
<path fill="#e6e6e6" d="m206.8 163.6c0-5.1 4.1-9.2 9.3-9.2s9.2 4.2 9.2 9.2-4.1 9.2-9.3 9.2-9.2-4.1-9.2-9.2zm17.3-.1c0-4.5-3.5-8.2-8.2-8.2s-8.2 3.7-8.2 8.3c0 4.5 3.5 8.2 8.2 8.2s8.2-3.7 8.2-8.3zm-13 0c0-2.8 2.1-5.1 5.1-5.1 1.9 0 2.9.6 3.9 1.5l-1.4 1.7c-.8-.7-1.5-1.1-2.5-1.1-1.7 0-2.8 1.4-2.8 3.1s1.1 3 2.8 3c1.1 0 1.7-.5 2.5-1.1l1.4 1.4c-1.1 1.1-2.1 1.7-4 1.7-2.9 0-5-2.3-5-5.1z"/><path fill="#e6e6e6" d="m226.6 154.7h3.4l4.2 13.2 4.4-13.3h2.6l4.4 13.3 4.2-13.2h3.3l-6.2 18h-2.7l-4.4-12.8-4.4 12.8h-2.7z"/><path fill="#e6e6e6" d="m252.8 165.8c0-3.9 3.1-7 7.2-7 4.2 0 7.2 3.2 7.2 7s-3.1 7-7.3 7c-4 0-7.1-3.1-7.1-7zm11.3 0c0-2.3-1.7-4.3-4.2-4.3s-4.1 2-4.1 4.3 1.7 4.3 4.1 4.3c2.7.1 4.2-1.9 4.2-4.3z"/><path fill="#e6e6e6" d="m269.5 159.1h3.1v3c.8-2 2.4-3.4 4.8-3.3v3.2h-.2c-2.7 0-4.6 1.7-4.6 5.4v5.1h-3.1z"/><path fill="#e6e6e6" d="m279.1 153.9h3.1v11.1l5.6-6h3.8l-5.4 5.5 5.5 8h-3.5l-4.1-5.8-1.9 2v3.9h-3.1z"/><path fill="#e6e6e6" d="m291.7 165.8c0-3.9 3.1-7 7.2-7 4.2 0 7.2 3.2 7.2 7s-3.1 7-7.3 7c-4 0-7.1-3.1-7.1-7zm11.3 0c0-2.3-1.7-4.3-4.2-4.3s-4.1 2-4.1 4.3 1.7 4.3 4.1 4.3c2.6.1 4.2-1.9 4.2-4.3z"/><path fill="#e6e6e6" d="m308.2 167.6v-8.6h3.1v7.6c0 2.1 1.1 3.3 2.9 3.3s3-1.3 3-3.3v-7.6h3.1v13.4h-3.1v-2.1c-.8 1.3-2.1 2.3-4.2 2.3-3.1.2-4.8-1.8-4.8-5z"/><path fill="#e6e6e6" d="m323.9 168.8v-7.1h-1.7v-2.6h1.7v-3.7h3.1v3.7h3.6v2.6h-3.6v6.6c0 1.2.6 1.7 1.7 1.7.7 0 1.3-.2 1.9-.5v2.5c-.8.5-1.7.7-2.8.7-2.3 0-3.9-.9-3.9-3.9z"/><path fill="#e6e6e6" d="m333.2 154.7h3.2v15h9.4v2.9h-12.5v-17.9z"/><path fill="#e6e6e6" d="m356 172.5v-1.7c-.9 1.1-2.3 2-4.4 2-2.6 0-4.8-1.4-4.8-4.2 0-3 2.3-4.4 5.4-4.4 1.7 0 2.6.2 3.7.5v-.2c0-1.9-1.2-2.9-3.3-2.9-1.5 0-2.6.3-3.9.8l-.8-2.5c1.5-.7 2.9-1.1 5.1-1.1 4 0 5.9 2.1 5.9 5.7v8zm.1-5.6c-.8-.3-1.9-.5-3.1-.5-2 0-3.1.8-3.1 2.1s1.1 2 2.6 2c2 0 3.5-1.1 3.5-2.9z"/><path fill="#e6e6e6" d="m364.9 170.5v2.1h-3.1v-18.7h3.1v7.4c1-1.4 2.4-2.5 4.5-2.5 3.2 0 6.3 2.5 6.3 7s-3.1 7-6.3 7c-2.1 0-3.5-1.1-4.5-2.3zm7.7-4.7c0-2.6-1.7-4.3-3.9-4.3s-3.9 1.7-3.9 4.4c0 2.6 1.8 4.3 3.9 4.3s3.9-1.7 3.9-4.4z"/><path fill="#e6e6e6" d="m376.9 170.8 1.4-2.1c1.4 1.1 3 1.7 4.4 1.7s2.1-.5 2.1-1.5-1.3-1.4-2.8-1.8c-.1 0-.2-.1-.2-.1-2-.6-4.2-1.4-4.2-4s2.1-4.1 4.8-4.1c1.7 0 3.5.6 5 1.5l-1.2 2.2c-1.3-.8-2.6-1.3-3.8-1.3s-1.9.5-1.9 1.4 1.3 1.4 2.8 1.8c.1 0 .2.1.2.1 2 .6 4.2 1.5 4.2 4 0 2.9-2.2 4.2-5 4.2-1.9 0-4-.7-5.8-2z"/><path fill="#e6e6e6" d="m505.6 163.6c0-5.1 4.1-9.2 9.3-9.2s9.2 4.2 9.2 9.2-4.1 9.2-9.3 9.2-9.2-4.1-9.2-9.2zm17.4-.1c0-4.5-3.5-8.2-8.2-8.2s-8.2 3.7-8.2 8.3c0 4.5 3.5 8.2 8.2 8.2s8.2-3.7 8.2-8.3zm-13.1 0c0-2.8 2.1-5.1 5.1-5.1 1.9 0 2.9.6 3.9 1.5l-1.4 1.7c-.8-.7-1.5-1.1-2.5-1.1-1.7 0-2.8 1.4-2.8 3.1s1.1 3 2.8 3c1.1 0 1.7-.5 2.5-1.1l1.4 1.4c-1.1 1.1-2.1 1.7-4 1.7-2.9 0-5-2.3-5-5.1z"/><path fill="#e6e6e6" d="m525.4 154.7h3.4l4.2 13.2 4.4-13.3h2.6l4.4 13.3 4.2-13.2h3.3l-6.2 18h-2.7l-4.4-12.8-4.4 12.8h-2.7z"/><path fill="#e6e6e6" d="m551.7 165.8c0-3.9 3.1-7 7.2-7 4.2 0 7.2 3.2 7.2 7s-3.1 7-7.3 7c-4.1 0-7.1-3.1-7.1-7zm11.2 0c0-2.3-1.7-4.3-4.2-4.3s-4.1 2-4.1 4.3 1.7 4.3 4.1 4.3c2.7.1 4.2-1.9 4.2-4.3z"/><path fill="#e6e6e6" d="m568.3 159.1h3.1v3c.8-2 2.4-3.4 4.8-3.3v3.2h-.2c-2.7 0-4.6 1.7-4.6 5.4v5.1h-3.1z"/><path fill="#e6e6e6" d="m577.9 153.9h3.1v11.1l5.6-6h3.8l-5.4 5.5 5.5 8h-3.5l-4.1-5.8-1.9 2v3.9h-3.1z"/><path fill="#e6e6e6" d="m590.6 165.8c0-3.9 3.1-7 7.2-7 4.2 0 7.2 3.2 7.2 7s-3.1 7-7.3 7c-4.1 0-7.1-3.1-7.1-7zm11.2 0c0-2.3-1.7-4.3-4.2-4.3s-4.1 2-4.1 4.3 1.7 4.3 4.1 4.3c2.6.1 4.2-1.9 4.2-4.3z"/><path fill="#e6e6e6" d="m607 167.6v-8.6h3.1v7.6c0 2.1 1.1 3.3 2.9 3.3s3-1.3 3-3.3v-7.6h3.1v13.4h-3.1v-2.1c-.8 1.3-2.1 2.3-4.2 2.3-3 .2-4.8-1.8-4.8-5z"/><path fill="#e6e6e6" d="m622.7 168.8v-7.1h-1.7v-2.6h1.7v-3.7h3.1v3.7h3.6v2.6h-3.6v6.6c0 1.2.6 1.7 1.7 1.7.7 0 1.3-.2 1.9-.5v2.5c-.8.5-1.7.7-2.8.7-2.3 0-3.9-.9-3.9-3.9z"/><path fill="#e6e6e6" d="m632 154.7h3.2v15h9.4v2.9h-12.6z"/><path fill="#e6e6e6" d="m654.8 172.5v-1.7c-.9 1.1-2.3 2-4.4 2-2.6 0-4.8-1.4-4.8-4.2 0-3 2.3-4.4 5.4-4.4 1.7 0 2.6.2 3.7.5v-.2c0-1.9-1.2-2.9-3.3-2.9-1.5 0-2.6.3-3.9.8l-.8-2.5c1.5-.7 2.9-1.1 5.1-1.1 4 0 5.9 2.1 5.9 5.7v8zm.1-5.6c-.8-.3-1.9-.5-3.1-.5-2 0-3.1.8-3.1 2.1s1.1 2 2.6 2c2 0 3.5-1.1 3.5-2.9z"/><path fill="#e6e6e6" d="m663.7 170.5v2.1h-3.1v-18.7h3.1v7.4c1-1.4 2.4-2.5 4.5-2.5 3.2 0 6.3 2.5 6.3 7s-3.1 7-6.3 7c-2.1 0-3.5-1.1-4.5-2.3zm7.8-4.7c0-2.6-1.7-4.3-3.9-4.3-2.1 0-3.9 1.7-3.9 4.4 0 2.6 1.8 4.3 3.9 4.3s3.9-1.7 3.9-4.4z"/><path fill="#e6e6e6" d="m675.8 170.8 1.4-2.1c1.4 1.1 3 1.7 4.4 1.7s2.1-.5 2.1-1.5-1.3-1.4-2.8-1.8c-.1 0-.2-.1-.2-.1-2-.6-4.2-1.4-4.2-4s2.1-4.1 4.8-4.1c1.7 0 3.5.6 5 1.5l-1.2 2.2c-1.3-.8-2.6-1.3-3.8-1.3s-1.9.5-1.9 1.4 1.3 1.4 2.8 1.8c.1 0 .2.1.2.1 2 .6 4.2 1.5 4.2 4 0 2.9-2.2 4.2-5 4.2-2 0-4.1-.7-5.8-2z"/><path fill="#e6e6e6" d="m61 298.6c0-5.1 4.1-9.2 9.3-9.2s9.2 4.2 9.2 9.2-4.1 9.2-9.3 9.2c-5.1 0-9.2-4.2-9.2-9.2zm17.4-.1c0-4.5-3.5-8.2-8.2-8.2s-8.2 3.7-8.2 8.3c0 4.5 3.5 8.2 8.2 8.2s8.2-3.7 8.2-8.3zm-13.1-.1c0-2.8 2.1-5.1 5.1-5.1 1.9 0 2.9.6 3.9 1.5l-1.4 1.7c-.8-.7-1.5-1.1-2.5-1.1-1.7 0-2.8 1.4-2.8 3.1s1.1 3 2.8 3c1.1 0 1.7-.5 2.5-1.1l1.4 1.4c-1.1 1.1-2.1 1.7-4 1.7-2.8.1-5-2.2-5-5.1z"/><path fill="#e6e6e6" d="m80.9 289.7h3.4l4.2 13.2 4.4-13.3h2.6l4.4 13.3 4.2-13.2h3.3l-6.2 18h-2.7l-4.4-12.8-4.4 12.8h-2.7z"/><path fill="#e6e6e6" d="m107.1 300.8c0-3.9 3.1-7 7.2-7s7.2 3.2 7.2 7-3.1 7-7.3 7c-4 0-7.1-3.1-7.1-7zm11.3 0c0-2.3-1.7-4.3-4.2-4.3s-4.1 2-4.1 4.3 1.7 4.3 4.1 4.3c2.6.1 4.2-1.9 4.2-4.3z"/><path fill="#e6e6e6" d="m123.7 294h3.1v3c.8-2 2.4-3.4 4.8-3.3v3.2h-.2c-2.7 0-4.6 1.7-4.6 5.4v5.1h-3.1z"/><path fill="#e6e6e6" d="m133.4 288.9h3.1v11.1l5.6-6h3.8l-5.4 5.5 5.5 8h-3.5l-4.1-5.8-1.9 1.9v3.9h-3.1z"/><path fill="#e6e6e6" d="m146 300.8c0-3.9 3.1-7 7.2-7s7.2 3.2 7.2 7-3.1 7-7.3 7c-4.1 0-7.1-3.1-7.1-7zm11.2 0c0-2.3-1.7-4.3-4.2-4.3s-4.1 2-4.1 4.3 1.7 4.3 4.1 4.3c2.6.1 4.2-1.9 4.2-4.3z"/><path fill="#e6e6e6" d="m162.4 302.6v-8.6h3.1v7.6c0 2.1 1.1 3.3 2.9 3.3s3-1.3 3-3.3v-7.6h3.1v13.4h-3.1v-2.1c-.8 1.3-2.1 2.3-4.2 2.3-3 .2-4.8-1.8-4.8-5z"/><path fill="#e6e6e6" d="m178.1 303.8v-7.1h-1.7v-2.7h1.7v-3.7h3.1v3.7h3.6v2.6h-3.6v6.6c0 1.2.6 1.7 1.7 1.7.7 0 1.3-.2 1.9-.5v2.5c-.8.5-1.7.7-2.8.7-2.3.1-3.9-.9-3.9-3.8z"/><path fill="#e6e6e6" d="m187.4 289.7h3.2v15h9.4v2.9h-12.5v-17.9z"/><path fill="#e6e6e6" d="m210.2 307.5v-1.7c-.9 1.1-2.3 2-4.4 2-2.6 0-4.8-1.4-4.8-4.2 0-3 2.3-4.4 5.4-4.4 1.7 0 2.6.2 3.7.5v-.2c0-1.9-1.2-2.9-3.3-2.9-1.5 0-2.6.3-3.9.8l-.8-2.5c1.5-.7 2.9-1.1 5.1-1.1 4 0 5.9 2.1 5.9 5.7v8zm.1-5.6c-.8-.3-1.9-.5-3.1-.5-2 0-3.1.8-3.1 2.1s1.1 2 2.6 2c2 0 3.5-1.1 3.5-2.9z"/><path fill="#e6e6e6" d="m219.2 305.5v2.1h-3.1v-18.7h3.1v7.4c1-1.4 2.4-2.5 4.5-2.5 3.2 0 6.3 2.5 6.3 7s-3.1 7-6.3 7c-2.2 0-3.6-1.1-4.5-2.3zm7.7-4.7c0-2.6-1.7-4.3-3.9-4.3s-3.9 1.7-3.9 4.4c0 2.6 1.8 4.3 3.9 4.3s3.9-1.7 3.9-4.4z"/><path fill="#e6e6e6" d="m231.2 305.8 1.4-2.1c1.4 1.1 3 1.7 4.4 1.7s2.1-.5 2.1-1.5-1.3-1.4-2.8-1.8c-.1 0-.2-.1-.2-.1-2-.6-4.2-1.4-4.2-4s2.1-4.1 4.8-4.1c1.7 0 3.5.6 5 1.5l-1.2 2.2c-1.3-.8-2.6-1.3-3.8-1.3s-1.9.5-1.9 1.4 1.3 1.4 2.8 1.8c.1 0 .2.1.2.1 2 .6 4.2 1.5 4.2 4 0 2.9-2.2 4.2-5 4.2-2 0-4.1-.7-5.8-2z"/><path fill="#e6e6e6" d="m360.6 298.6c0-5.1 4.1-9.2 9.3-9.2s9.2 4.2 9.2 9.2-4.1 9.2-9.3 9.2-9.2-4.2-9.2-9.2zm17.4-.1c0-4.5-3.5-8.2-8.2-8.2s-8.2 3.7-8.2 8.3c0 4.5 3.5 8.2 8.2 8.2s8.2-3.7 8.2-8.3zm-13.1-.1c0-2.8 2.1-5.1 5.1-5.1 1.9 0 2.9.6 3.9 1.5l-1.4 1.7c-.8-.7-1.5-1.1-2.5-1.1-1.7 0-2.8 1.4-2.8 3.1s1.1 3 2.8 3c1.1 0 1.7-.5 2.5-1.1l1.4 1.4c-1.1 1.1-2.1 1.7-4 1.7-2.8.1-5-2.2-5-5.1z"/><path fill="#e6e6e6" d="m380.5 289.7h3.4l4.2 13.2 4.4-13.3h2.6l4.4 13.3 4.2-13.2h3.3l-6.2 18h-2.7l-4.4-12.8-4.4 12.8h-2.7z"/><path fill="#e6e6e6" d="m406.7 300.8c0-3.9 3.1-7 7.2-7 4.2 0 7.2 3.2 7.2 7s-3.1 7-7.3 7c-4.1 0-7.1-3.1-7.1-7zm11.3 0c0-2.3-1.7-4.3-4.2-4.3s-4.1 2-4.1 4.3 1.7 4.3 4.1 4.3c2.7.1 4.2-1.9 4.2-4.3z"/><path fill="#e6e6e6" d="m423.3 294h3.1v3c.8-2 2.4-3.4 4.8-3.3v3.2h-.2c-2.7 0-4.6 1.7-4.6 5.4v5.1h-3.1z"/><path fill="#e6e6e6" d="m433 288.9h3.1v11.1l5.6-6h3.8l-5.4 5.5 5.5 8h-3.5l-4.1-5.8-1.9 2v3.9h-3.1z"/><path fill="#e6e6e6" d="m445.6 300.8c0-3.9 3.1-7 7.2-7 4.2 0 7.2 3.2 7.2 7s-3.1 7-7.3 7c-4.1 0-7.1-3.1-7.1-7zm11.3 0c0-2.3-1.7-4.3-4.2-4.3s-4.1 2-4.1 4.3 1.7 4.3 4.1 4.3c2.6.1 4.2-1.9 4.2-4.3z"/><path fill="#e6e6e6" d="m462.1 302.6v-8.6h3.1v7.6c0 2.1 1.1 3.3 2.9 3.3s3-1.3 3-3.3v-7.6h3.1v13.4h-3.1v-2.1c-.8 1.3-2.1 2.3-4.2 2.3-3.1.2-4.8-1.8-4.8-5z"/><path fill="#e6e6e6" d="m477.8 303.8v-7.1h-1.8v-2.7h1.7v-3.7h3.1v3.7h3.6v2.6h-3.6v6.6c0 1.2.6 1.7 1.7 1.7.7 0 1.3-.2 1.9-.5v2.5c-.8.5-1.7.7-2.8.7-2.2.1-3.8-.9-3.8-3.8z"/><path fill="#e6e6e6" d="m487.1 289.7h3.2v15h9.4v2.9h-12.5v-17.9z"/><path fill="#e6e6e6" d="m509.9 307.5v-1.7c-.9 1.1-2.3 2-4.4 2-2.6 0-4.8-1.4-4.8-4.2 0-3 2.3-4.4 5.4-4.4 1.7 0 2.6.2 3.7.5v-.2c0-1.9-1.2-2.9-3.3-2.9-1.5 0-2.6.3-3.9.8l-.8-2.5c1.5-.7 2.9-1.1 5.1-1.1 4 0 5.9 2.1 5.9 5.7v8zm.1-5.6c-.8-.3-1.9-.5-3.1-.5-2 0-3.1.8-3.1 2.1s1.1 2 2.6 2c2 0 3.5-1.1 3.5-2.9z"/><path fill="#e6e6e6" d="m518.8 305.5v2.1h-3.1v-18.7h3.1v7.4c1-1.4 2.4-2.5 4.5-2.5 3.2 0 6.3 2.5 6.3 7s-3.1 7-6.3 7c-2.2 0-3.5-1.1-4.5-2.3zm7.7-4.7c0-2.6-1.7-4.3-3.9-4.3s-3.9 1.7-3.9 4.4c0 2.6 1.8 4.3 3.9 4.3s3.9-1.7 3.9-4.4z"/><path fill="#e6e6e6" d="m530.8 305.8 1.4-2.1c1.4 1.1 3 1.7 4.4 1.7s2.1-.5 2.1-1.5-1.3-1.4-2.8-1.8c-.1 0-.2-.1-.2-.1-2-.6-4.2-1.4-4.2-4s2.1-4.1 4.8-4.1c1.7 0 3.5.6 5 1.5l-1.2 2.2c-1.3-.8-2.6-1.3-3.8-1.3s-1.9.5-1.9 1.4 1.3 1.4 2.8 1.8c.1 0 .2.1.2.1 2 .6 4.2 1.5 4.2 4 0 2.9-2.2 4.2-5 4.2-1.9 0-4.1-.7-5.8-2z"/><path fill="#e6e6e6" d="m659.5 298.6c0-5.1 4.1-9.2 9.3-9.2s9.2 4.2 9.2 9.2-4.1 9.2-9.3 9.2-9.2-4.2-9.2-9.2zm17.3-.1c0-4.5-3.5-8.2-8.2-8.2s-8.2 3.7-8.2 8.3c0 4.5 3.5 8.2 8.2 8.2 4.8 0 8.2-3.7 8.2-8.3zm-13-.1c0-2.8 2.1-5.1 5.1-5.1 1.9 0 2.9.6 3.9 1.5l-1.4 1.7c-.8-.7-1.5-1.1-2.5-1.1-1.7 0-2.8 1.4-2.8 3.1s1.1 3 2.8 3c1.1 0 1.7-.5 2.5-1.1l1.4 1.4c-1.1 1.1-2.1 1.7-4 1.7-2.9.1-5-2.2-5-5.1z"/><path fill="#e6e6e6" d="m679.3 289.7h3.4l4.2 13.2 4.4-13.3h2.6l4.4 13.3 4.2-13.2h3.3l-6.2 18h-2.6l-4.4-12.8-4.4 12.8h-2.7z"/><path fill="#e6e6e6" d="m705.5 300.8c0-3.9 3.1-7 7.2-7 4.2 0 7.2 3.2 7.2 7s-3.1 7-7.3 7c-4 0-7.1-3.1-7.1-7zm11.3 0c0-2.3-1.7-4.3-4.2-4.3s-4.1 2-4.1 4.3 1.7 4.3 4.1 4.3c2.7.1 4.2-1.9 4.2-4.3z"/><path fill="#e6e6e6" d="m722.1 294h3.1v3c.8-2 2.4-3.4 4.8-3.3v3.2h-.2c-2.7 0-4.6 1.7-4.6 5.4v5.1h-3.1z"/><path fill="#e6e6e6" d="m731.8 288.9h3.1v11.1l5.6-6h3.8l-5.4 5.5 5.5 8h-3.5l-4.1-5.8-1.9 2v3.9h-3.1z"/><path fill="#e6e6e6" d="m744.4 300.8c0-3.9 3.1-7 7.2-7 4.2 0 7.2 3.2 7.2 7s-3.1 7-7.3 7c-4.1 0-7.1-3.1-7.1-7zm11.3 0c0-2.3-1.7-4.3-4.2-4.3s-4.1 2-4.1 4.3 1.7 4.3 4.1 4.3c2.6.1 4.2-1.9 4.2-4.3z"/><path fill="#e6e6e6" d="m760.9 302.6v-8.6h3.1v7.6c0 2.1 1.1 3.3 2.9 3.3s3-1.3 3-3.3v-7.6h3.1v13.4h-3.1v-2.1c-.8 1.3-2.1 2.3-4.2 2.3-3.1.2-4.8-1.8-4.8-5z"/><path fill="#e6e6e6" d="m776.6 303.8v-7.1h-1.7v-2.7h1.7v-3.7h3.1v3.7h3.6v2.6h-3.6v6.6c0 1.2.6 1.7 1.7 1.7.7 0 1.3-.2 1.9-.5v2.5c-.8.5-1.7.7-2.8.7-2.3.1-3.9-.9-3.9-3.8z"/><path fill="#e6e6e6" d="m785.9 289.7h3.2v15h9.4v2.9h-12.5v-17.9z"/><path fill="#e6e6e6" d="m808.7 307.5v-1.7c-.9 1.1-2.3 2-4.4 2-2.6 0-4.8-1.4-4.8-4.2 0-3 2.3-4.4 5.4-4.4 1.7 0 2.6.2 3.7.5v-.2c0-1.9-1.2-2.9-3.3-2.9-1.5 0-2.6.3-3.9.8l-.8-2.5c1.5-.7 2.9-1.1 5.1-1.1 4 0 5.9 2.1 5.9 5.7v8zm.1-5.6c-.8-.3-1.9-.5-3.1-.5-2 0-3.1.8-3.1 2.1s1.1 2 2.6 2c2 0 3.5-1.1 3.5-2.9z"/><path fill="#e6e6e6" d="m817.6 305.5v2.1h-3.1v-18.7h3.1v7.4c1-1.4 2.4-2.5 4.5-2.5 3.2 0 6.3 2.5 6.3 7s-3.1 7-6.3 7c-2.1 0-3.5-1.1-4.5-2.3zm7.7-4.7c0-2.6-1.7-4.3-3.9-4.3-2.1 0-3.9 1.7-3.9 4.4 0 2.6 1.8 4.3 3.9 4.3 2.2 0 3.9-1.7 3.9-4.4z"/><path fill="#e6e6e6" d="m829.6 305.8 1.4-2.1c1.4 1.1 3 1.7 4.4 1.7s2.1-.5 2.1-1.5-1.3-1.4-2.8-1.8c-.1 0-.2-.1-.2-.1-2-.6-4.2-1.4-4.2-4s2.1-4.1 4.8-4.1c1.7 0 3.5.6 5 1.5l-1.2 2.2c-1.3-.8-2.6-1.3-3.8-1.3s-1.9.5-1.9 1.4 1.3 1.4 2.8 1.8c.1 0 .2.1.2.1 2 .6 4.2 1.5 4.2 4 0 2.9-2.2 4.2-5 4.2-1.9 0-4-.7-5.8-2z"/><path fill="#e6e6e6" d="m206.3 434.2c0-5.1 4.1-9.2 9.3-9.2s9.2 4.2 9.2 9.2-4.1 9.2-9.3 9.2-9.2-4.1-9.2-9.2zm17.4-.1c0-4.5-3.5-8.2-8.2-8.2s-8.2 3.7-8.2 8.3c0 4.5 3.5 8.2 8.2 8.2s8.2-3.7 8.2-8.3zm-13.1-.1c0-2.8 2.1-5.1 5.1-5.1 1.9 0 2.9.6 3.9 1.5l-1.4 1.7c-.8-.7-1.5-1.1-2.5-1.1-1.7 0-2.8 1.4-2.8 3.1s1.1 3 2.8 3c1.1 0 1.7-.5 2.5-1.1l1.4 1.4c-1.1 1.1-2.1 1.7-4 1.7-2.9.1-5-2.2-5-5.1z"/><path fill="#e6e6e6" d="m226.1 425.3h3.4l4.2 13.2 4.4-13.3h2.6l4.4 13.3 4.2-13.2h3.3l-6.2 18h-2.7l-4.4-12.8-4.4 12.8h-2.7z"/><path fill="#e6e6e6" d="m252.4 436.4c0-3.9 3.1-7 7.2-7 4.2 0 7.2 3.2 7.2 7s-3.1 7-7.3 7c-4.1 0-7.1-3.1-7.1-7zm11.2 0c0-2.3-1.7-4.3-4.2-4.3s-4.1 2-4.1 4.3 1.7 4.3 4.1 4.3c2.7.1 4.2-1.9 4.2-4.3z"/><path fill="#e6e6e6" d="m269 429.7h3.1v3c.8-2 2.4-3.4 4.8-3.3v3.2h-.2c-2.7 0-4.6 1.7-4.6 5.4v5.1h-3.1z"/><path fill="#e6e6e6" d="m278.6 424.5h3.1v11.1l5.6-6h3.8l-5.4 5.5 5.5 8h-3.5l-4.1-5.8-1.9 2v3.9h-3.1z"/><path fill="#e6e6e6" d="m291.3 436.4c0-3.9 3.1-7 7.2-7 4.2 0 7.2 3.2 7.2 7s-3.1 7-7.3 7c-4.1 0-7.1-3.1-7.1-7zm11.2 0c0-2.3-1.7-4.3-4.2-4.3s-4.1 2-4.1 4.3 1.7 4.3 4.1 4.3c2.6.1 4.2-1.9 4.2-4.3z"/><path fill="#e6e6e6" d="m307.7 438.2v-8.6h3.1v7.6c0 2.1 1.1 3.3 2.9 3.3s3-1.3 3-3.3v-7.6h3.1v13.4h-3.1v-2.1c-.8 1.3-2.1 2.3-4.2 2.3-3 .2-4.8-1.8-4.8-5z"/><path fill="#e6e6e6" d="m323.4 439.4v-7.1h-1.7v-2.6h1.7v-3.7h3.1v3.7h3.6v2.6h-3.6v6.6c0 1.2.6 1.7 1.7 1.7.7 0 1.3-.2 1.9-.5v2.5c-.8.5-1.7.7-2.8.7-2.3 0-3.9-.9-3.9-3.9z"/><path fill="#e6e6e6" d="m332.7 425.3h3.2v15h9.4v2.9h-12.5v-17.9z"/><path fill="#e6e6e6" d="m355.5 443.1v-1.7c-.9 1.1-2.3 2-4.4 2-2.6 0-4.8-1.4-4.8-4.2 0-3 2.3-4.4 5.4-4.4 1.7 0 2.6.2 3.7.5v-.2c0-1.9-1.2-2.9-3.3-2.9-1.5 0-2.6.3-3.9.8l-.8-2.5c1.5-.7 2.9-1.1 5.1-1.1 4 0 5.9 2.1 5.9 5.7v8zm.1-5.6c-.8-.3-1.9-.5-3.1-.5-2 0-3.1.8-3.1 2.1s1.1 2 2.6 2c2 0 3.5-1.1 3.5-2.9z"/><path fill="#e6e6e6" d="m364.4 441.1v2.1h-3.1v-18.7h3.1v7.4c1-1.4 2.4-2.5 4.5-2.5 3.2 0 6.3 2.5 6.3 7s-3.1 7-6.3 7c-2.1 0-3.5-1.1-4.5-2.3zm7.7-4.7c0-2.6-1.7-4.3-3.9-4.3-2.1 0-3.9 1.7-3.9 4.4 0 2.6 1.8 4.3 3.9 4.3 2.2 0 3.9-1.7 3.9-4.4z"/><path fill="#e6e6e6" d="m376.5 441.4 1.4-2.1c1.4 1.1 3 1.7 4.4 1.7s2.1-.5 2.1-1.5-1.3-1.4-2.8-1.8c-.1 0-.2-.1-.2-.1-2-.6-4.2-1.4-4.2-4s2.1-4.1 4.8-4.1c1.7 0 3.5.6 5 1.5l-1.2 2.2c-1.3-.8-2.6-1.3-3.8-1.3s-1.9.5-1.9 1.4 1.3 1.4 2.8 1.8c.1 0 .2.1.2.1 2 .6 4.2 1.5 4.2 4 0 2.9-2.2 4.2-5 4.2-2 0-4.1-.7-5.8-2z"/><path fill="#e6e6e6" d="m505.1 434.2c0-5.1 4.1-9.2 9.3-9.2s9.2 4.2 9.2 9.2-4.1 9.2-9.3 9.2-9.2-4.1-9.2-9.2zm17.4-.1c0-4.5-3.5-8.2-8.2-8.2s-8.2 3.7-8.2 8.3c0 4.5 3.5 8.2 8.2 8.2s8.2-3.7 8.2-8.3zm-13.1-.1c0-2.8 2.1-5.1 5.1-5.1 1.9 0 2.9.6 3.9 1.5l-1.4 1.7c-.8-.7-1.5-1.1-2.5-1.1-1.7 0-2.8 1.4-2.8 3.1s1.1 3 2.8 3c1.1 0 1.7-.5 2.5-1.1l1.4 1.4c-1.1 1.1-2.1 1.7-4 1.7-2.9.1-5-2.2-5-5.1z"/><path fill="#e6e6e6" d="m525 425.3h3.4l4.2 13.2 4.4-13.3h2.6l4.4 13.3 4.2-13.2h3.3l-6.2 18h-2.7l-4.4-12.8-4.4 12.8h-2.7z"/><path fill="#e6e6e6" d="m551.2 436.4c0-3.9 3.1-7 7.2-7 4.2 0 7.2 3.2 7.2 7s-3.1 7-7.3 7c-4.1 0-7.1-3.1-7.1-7zm11.2 0c0-2.3-1.7-4.3-4.2-4.3s-4.1 2-4.1 4.3 1.7 4.3 4.1 4.3c2.7.1 4.2-1.9 4.2-4.3z"/><path fill="#e6e6e6" d="m567.8 429.7h3.1v3c.8-2 2.4-3.4 4.8-3.3v3.2h-.2c-2.7 0-4.6 1.7-4.6 5.4v5.1h-3.1z"/><path fill="#e6e6e6" d="m577.5 424.5h3.1v11.1l5.6-6h3.8l-5.4 5.5 5.5 8h-3.5l-4.1-5.8-1.9 2v3.9h-3.1z"/><path fill="#e6e6e6" d="m590.1 436.4c0-3.9 3.1-7 7.2-7 4.2 0 7.2 3.2 7.2 7s-3.1 7-7.3 7c-4.1 0-7.1-3.1-7.1-7zm11.2 0c0-2.3-1.7-4.3-4.2-4.3s-4.1 2-4.1 4.3 1.7 4.3 4.1 4.3c2.6.1 4.2-1.9 4.2-4.3z"/><path fill="#e6e6e6" d="m606.5 438.2v-8.6h3.1v7.6c0 2.1 1.1 3.3 2.9 3.3s3-1.3 3-3.3v-7.6h3.1v13.4h-3.1v-2.1c-.8 1.3-2.1 2.3-4.2 2.3-3 .2-4.8-1.8-4.8-5z"/><path fill="#e6e6e6" d="m622.2 439.4v-7.1h-1.7v-2.6h1.7v-3.7h3.1v3.7h3.6v2.6h-3.6v6.6c0 1.2.6 1.7 1.7 1.7.7 0 1.3-.2 1.9-.5v2.5c-.8.5-1.7.7-2.8.7-2.3 0-3.9-.9-3.9-3.9z"/><path fill="#e6e6e6" d="m631.5 425.3h3.2v15h9.4v2.9h-12.5v-17.9z"/><path fill="#e6e6e6" d="m654.3 443.1v-1.7c-.9 1.1-2.3 2-4.4 2-2.6 0-4.8-1.4-4.8-4.2 0-3 2.3-4.4 5.4-4.4 1.7 0 2.6.2 3.7.5v-.2c0-1.9-1.2-2.9-3.3-2.9-1.5 0-2.6.3-3.9.8l-.8-2.5c1.5-.7 2.9-1.1 5.1-1.1 4 0 5.9 2.1 5.9 5.7v8zm.1-5.6c-.8-.3-1.9-.5-3.1-.5-2 0-3.1.8-3.1 2.1s1.1 2 2.6 2c2 0 3.5-1.1 3.5-2.9z"/><path fill="#e6e6e6" d="m663.3 441.1v2.1h-3.1v-18.7h3.1v7.4c1-1.4 2.4-2.5 4.5-2.5 3.2 0 6.3 2.5 6.3 7s-3.1 7-6.3 7c-2.2 0-3.6-1.1-4.5-2.3zm7.7-4.7c0-2.6-1.7-4.3-3.9-4.3s-3.9 1.7-3.9 4.4c0 2.6 1.8 4.3 3.9 4.3s3.9-1.7 3.9-4.4z"/><path fill="#e6e6e6" d="m675.3 441.4 1.4-2.1c1.4 1.1 3 1.7 4.4 1.7s2.1-.5 2.1-1.5-1.3-1.4-2.8-1.8c-.1 0-.2-.1-.2-.1-2-.6-4.2-1.4-4.2-4s2.1-4.1 4.8-4.1c1.7 0 3.5.6 5 1.5l-1.2 2.2c-1.3-.8-2.6-1.3-3.8-1.3s-1.9.5-1.9 1.4 1.3 1.4 2.8 1.8c.1 0 .2.1.2.1 2 .6 4.2 1.5 4.2 4 0 2.9-2.2 4.2-5 4.2-2 0-4.1-.7-5.8-2z"/></g>
</svg>
