<?xml version="1.0" encoding="utf-8"?>
<!-- Generator: Adobe Illustrator 23.0.1, SVG Export Plug-In . SVG Version: 6.00 Build 0)  -->
<svg version="1.2" baseProfile="tiny" id="Layer_1" xmlns="http://www.w3.org/2000/svg" xmlns:xlink="http://www.w3.org/1999/xlink"
	 x="0px" y="0px" viewBox="0 0 900 600" xml:space="preserve">
<g>
	<path d="M895.46,249.59c-38.39,1.21-35.67,0.77-36.3,0.2c-1.38-8.03-2.06-20.1-12.91-31.06c-6.95-7.02-23.87-10.95-31.97-2.62
		c-15.73,16.2-12.5,22.09-14.72,35.09c-3.83,1.21-7.97-0.71-11.5,1.61c-2.63-3.94-7.62-2.25-11.6-4.54
		c-3.62,2.86-11.26-6.77-12.1,3.93c-72.53,0.42-49.99,6.4-48.4-15.33c0.54-7.38,4.18-8.59,0.4-16.13
		c-4.69,38.96-5.73,31.98-19.97,32.87c3.33,3.23,6.86,1.31,9.98,2.42c0,9.63-0.9,9.22,3.93,9.98c-1.71-1.71-2.82-3.33-2.02-5.55
		c4.24,1.21,8.95,7.86,8.27,12c-0.94,5.64-0.98,11.4-1.61,17.04c-0.77,6.83-9.05,11.77-16.03,10.99
		c-8.07-0.9-12.91-6.05-18.66-10.59c1.51-1.01,3.33,0,4.34-1.51c-0.1-0.03-0.83-0.5-2.02-0.5c-6.87,0.88-11.6-8.28-12.2-10.19
		c-2.19-6.96-7.92-10.58-9.48-13.92c4.13-1.92,7.97-4.24,13.01-4.84c1.61-1.61,2.49-3.73,2.22-6.66c-0.56-5.94,0.99-11.9,0.61-17.85
		c-0.11-1.61-0.3-3.43,1.61-4.74c-1.41-0.61-3.23-0.3-3.23-2.32c0.61-0.71,1.82,0.1,2.32-1.21c0.2-1.51,0.3-3.13,0.5-4.84
		c-1.01-1.11-2.72-1.71-2.42-3.63c2.32,0.3,2.32,0.3,2.42,3.63c1.21,1.41,1.31,3.23,1.11,4.44c14.93-30.8,5.96-14.02,14.92-22.39
		c-0.61-1.21-1.01-2.22-1.41-3.03c-0.91-0.91-2.62,0.2-2.92-1.61c1.51-1.41,2.42,0.5,3.53,0.71c1.61,0.3,1.41,2.32,2.62,2.92
		c3.18-5.5,10.99,0.5,18.45-2.52c-0.4,4.84,1.31,8.87,2.12,13.01c-8.17,4.03-8.57,4.64-7.36,9.88c1.11-0.61,0.1-2.02,1.31-2.82
		c1.82,0.3,3.73-0.1,5.85-1.11c0.2-2.72,2.45-5.46,1.41-8.17c-1.47-3.85-1.01-7.87-1.92-11.4c1.82-2.82,5.04-3.43,6.96-5.65
		c-0.4-1.11,0.4-2.32-0.1-3.43c-1.41-0.71-2.72,0-4.13-0.2c0.81-1.41,3.13-1.01,2.92-3.23c-1.82-1.21-3.33,0.2-5.04,0.81
		c0-10.18-1.06-4.05-3.93-3.23c-3.23-2.63-7.33,1.14-9.98,0.61c-4.03-0.81-8.07,0-11.7-0.2c-1.51,0.5-1.41,2.32-2.92,2.32
		c-0.91-0.3,0.1-2.32-1.82-2.02c-2.02,2.42-4.64,4.24-8.27,4.13c-1.51-1.21-2.82-3.03-5.24-1.82c0,1.41,1.41,1.92,1.61,2.72
		c-1.21,2.12-2.62,4.14-3.13,6.15c-1.84,7.27-5.71,13.77-4.24,19.87c0.73,3.02,3.13,5.65,1.71,9.08c-0.1,0.2,0.1,0.6,0.3,0.91
		c2.94,4.43,1.54,10.37,4.84,14.72c0.64,0.84-1.37,7.02,0.1,12.61c-26.42,0.5-52.34,1.01-78.25,1.51c-0.78-1.75-1.9-7.48-5.34-6.96
		c-4.41,0.67-10.5-0.65-13.11,1.82c2.42,1.71,3.93,3.83,3.83,7.26c-2.12-2.92-4.03-5.45-5.45-8.17c-6.25-1.01-12.61,1.92-12.91,6.15
		c2.62-0.81,4.16-5.29,7.56-2.92c1.42,0.99,3.33,2.72,2.32,5.14c-2.82,0.81-2.82-1.61-3.63-3.03c-2.72,1.61-19.97,2.32-24.71,1.21
		c-0.71-7.56-1.98-14.84-5.14-21.88c-7.96-17.7-13.95-21.03-28.94-21.28c-0.71,1.21-1.42,2.6-2.82,2.82
		c-5.75,0.93-17.02,17-18.76,42.25c-33.6,0-41.34,1.1-58.49,0.71c-3.03-0.07-5.45,2.12-5.65,4.84c-0.67,9.35,8.31,4.94,64.74,4.94
		c0.84,1.5,1.11,9.88,4.24,19.66c1.17,3.65,0.21,5.27-1.31,9.08c1.49,5.65,4.51,1.29,10.59,10.19
		c19.24,28.17,45.58-7.69,42.05-40.84c5.75,0,10.89,0,16.34,0c0.49,5.43,6.24,2.21,7.76,9.28c1.15,5.34-0.18,17.01,1.01,43.16
		c0.71,15.7,10.4,42.54,26.93,38.52c0.33,0,1.63,1.2,3.43-0.61c2.42-2.42,5.75-2.82,9.18-4.84c-10.61,13.71-34.06,8.1-28.94,25.01
		c2.78,9.19-1.67,15.31-0.5,17.55c3.02,5.78-0.97,11.95,14.72,26.22c2.24,2.04,10.15,1.74,11.29,8.77
		c-20.58,20.08-14.8,22.84-16.74,85.01c-0.1,0.91,0.4,1.82-0.2,2.52c-1.31,0.4-2.42-0.71-3.63,0.1c-1.28,0-3.11,10.71-8.47,16.13
		c-0.1,0.1-0.1,0.2-0.1,0.3c-0.18,10.72-5.58,20.96-0.1,22.08c1.92,0.39,3.83,1.21,5.95,2.32c0-3.93-3.03-3.93-5.14-4.94
		c0.2-1.41-0.81-2.62-0.91-3.73c1.95-4.89,3.76-8.2,1.92-12c-2.01-4.15,3.88-4.31,5.95-11.29c3.63-0.2,6.25,2.42,9.28,3.53
		c1.61-1.71,0.61-3.63,1.01-5.34c3.13-0.91,8.77-1.51,10.79-1.21c0.5,1.01-0.3,1.92-0.4,2.92c-0.2,1.92,1.11,3.13,2.52,2.42
		c0.5-0.71-0.81-1.51,0.2-2.22c0.81-0.2,1.51,0.2,2.22,1.11c-1.21,1.31-0.5,3.03-0.71,4.74c-5.14-1.92-16.97-1.52-17.55,0.5
		c-0.32,1.11,1.31,0.71,1.31,1.41c-1.39,3.25,0.87,1.98,1.92,2.72c0.1,0.81-1.21,1.11-0.5,2.22c1.61,1.01,3.73,0.4,5.75,1.01
		c-1.11,1.01-2.72,0.71-3.33,2.22c1.21,1.71,3.13,0.91,4.64,1.31c0,0.6-0.81,1.01-0.3,1.92c3.73,0.81,7.36,0.5,10.89-1.31
		c1.11-1.01-1.11-2.42,1.01-3.33c1.21,3.43,5.85,4.53,5.95,8.87c0.01,0.6,0.8,1.12,1.31,1.51c3.8,2.91-0.21,7.73,3.23,10.99
		c-3.44,5.73-34.2,0.27-37.51-1.31c-0.4-3.83,0.5-8.07-1.61-12c-1.92,4.34-0.96,8.77-1.01,13.11c-0.02,1.31,1.01,2.59,2.22,2.82
		c4.19,0.8,7.73,2.32,11.4,2.32c3.07-0.72,27.01,3.22,28.03-3.93c1.24-8.67-3.22-17.18-6.96-19.97c-3.87-2.89-6.81-12.02-4.94-17.35
		c-1.11-2.52-3.23-1.11-4.94-1.01c-0.72-5.64-1.9-4.69-13.11-3.83c-7.44-6.13,0.66-6.67-2.62-53.65
		c-0.54-7.76,0.08-15.65,4.84-22.39c2.71-3.84,4.58-8.55,8.67-11.4c2.04-1.42,0.07-2.35,3.13-5.75c0-2.09-3.55-11.35-9.48-16.24
		c-1.93-1.59-1.91-13.46,3.73-19.56c5.23-5.66,12.11-7.73,18.96-9.68c4.54-1.29,8.76,1.02,10.79,5.55
		c6.85,15.26,13.52,16.02,13.61,20.98c0.22,11.79-0.11,4.67-9.28,26.72c-1.8,4.34-5.34,7.97-5.45,12.91
		c-0.91,0.5-1.41-1.11-2.52,0.2c0.2,11.46-6.5,27.34-11.29,33.08c-0.61-4.84,2.32-8.87,0.81-13.21
		c-1.11,11.29-16.41,49.72-9.08,52.34c0.91-3.73,0.39-7.26,0.81-10.69c0.68-5.55,2.66-10.89,3.53-16.44
		c0.63-4.03,1.99-7.59,5.45-10.29c9.2-7.17,14.27-41.58,17.95-44.47c6.56-5.16,3.59-11.51,6.76-13.41c2.97,0,5.19,1.81,22.49,4.44
		c20.07,3.05,6.24,3.29,27.53,5.14c4.85,0.42,5.11-1.74,11.4-3.03c10.88-2.23,15.01-6.13,29.35-6.55
		c-0.93,4.67-9.43,14.4-9.88,28.64c-1.17,37-6.96,33.32-9.48,53.25c-4.95,1.98,0.24,5.9-6.35,1.11c-4.87,1.79,2.61,10.51-1.01,15.43
		c-2.09,2.84-3.4,6.07-5.45,8.77c-2.38,3.13,0.04,3.13-1.41,10.39c3.93,0.81,7.56,1.82,11.19,2.52c11.67,2.27,10.41-2.09,13.71-0.5
		c6.1,2.93,12.89,3.47,18.96,6.05c8.15,3.46,18.06-0.25,26.22-1.92c4.42-0.9,9.04-8.75,5.45-11.29c-2.95-2.09-5.64-4.67-9.38-5.55
		c-2.21-0.52-4.72-0.93-6.25-2.62c-5.17-5.71-12.71-8.87-17.35-15.63c-0.61-3.33,3.13-8.37-3.13-10.19
		c2.72-10.69,7.33-20.19,12.61-29.45c2.3-4.04,2.93-8.77,5.65-12.4c2.63-3.52,4.24-7.56,6.15-11.4c3.89-7.79,0.83-4.14,4.03-17.24
		c4.9-20.01,0.9-19.24,4.74-22.69c0.1-0.1,1.94-8.35-7.56-15.03c1.17-5.15-22.72-19.03-41.65-18.45
		c-11.19,0.34-21.99-2.45-33.08-3.13c-2.24-0.14-2.4-1.43-4.84-5.95c13.36-11.04,22.2-17.1,25.72-27.53
		c0.44-1.75,4.77-3.08,11.9-13.11c6.76,5.75,14.39,9.42,21.48,14.02c2.51,1.63,5.64,1.88,8.57,2.32c2.2,0.33,9.72-7.4,10.59-8.37
		c12.41-13.84,14.36-28.46,18.25-37.61c7.98-18.76,13.7-27.4,3.73-37.51c14.1,0,11.97-0.83,12.3,2.52
		c1.88,18.78,10.49,39.72,26.32,38.12c11.61-1.18,25.64-2.42,31.87-33.18c2.2-10.88-1.75-9.1,7.66-9.48
		c30.36-1.21,34.69,0.59,34.69-4.94C900,250.7,898.29,249.5,895.46,249.59z M714.45,217.52c0.4-0.4,0.81-0.4,1.41,0
		C715.15,218.13,714.85,217.83,714.45,217.52z M720.5,192.52c-0.1,0.81-0.4,1.41-1.41,2.12
		C718.48,193.12,718.38,192.31,720.5,192.52z M714.55,186.87c0.61,1.01,0,1.41-0.81,1.82C713.64,187.88,713.54,187.17,714.55,186.87
		z M705.07,198.26c-0.91,0.4-1.41-0.2-1.71-0.91C703.86,197.66,704.46,197.86,705.07,198.26z M699.62,196.65
		c0-0.4,0.68-0.82,0.91,0.3C700.03,197.05,699.73,197.05,699.62,196.65z M701.04,189.29c-0.4,1.31-1.31,1.71-2.32,2.22
		C698.52,189.39,699.73,189.59,701.04,189.29z M675.22,211.47c-0.71-0.91-0.4-1.71,0.5-2.62
		C676.03,210.06,675.72,210.77,675.22,211.47z M679.25,210.77c-0.45,0-0.42-1.09,0.3-0.91
		C679.74,209.86,680.22,210.77,679.25,210.77z M687.62,204.82c1.31,1.21,0.2,1.61-0.2,2.22
		C686.82,206.13,687.22,205.63,687.62,204.82z M685.91,190.7c-0.1,0.81-0.3,1.21-1.21,0.91C684.8,190.9,685.1,190.5,685.91,190.7z
		 M687.22,196.65c-0.81,1.41-1.71,2.62-3.73,3.63C684.4,198.16,685.71,197.36,687.22,196.65z M682.38,210.47
		c0.71,1.11,0.2,1.41-0.91,1.31C681.37,211.07,681.78,210.67,682.38,210.47z M674.82,195.24c1.51,0.3,1.52,1.49,2.42,1.92
		c0.82,0.38,1.61-0.91,2.82,0.3c-2.32,1.61-5.34-0.91-7.26,1.61C673.91,197.96,674.01,196.55,674.82,195.24z M673.51,224.48
		c-1.11-1.01-2.22-1.92-1.61-3.63c1.41-1.11,1.92,0.1,2.52,0.91C674.51,222.87,672.7,223.17,673.51,224.48z M428.96,266.74
		c-2.92-1.92-1.41-4.03-0.61-6.25C431.75,260.68,432.85,265.44,428.96,266.74z M436.52,266.13c-5.6,0.06-0.54,0.51-2.92-5.14
		c75.46,0,77.12-3.25,77.45,1.11C511.25,264.86,515.07,265.26,436.52,266.13z M514.78,275.51c6.8,7.48,12.22,18.68,0.81,21.28
		c-1.74-3.73-5.14-15.95-5.14-23.19c0-2.42-1.51-3.93-3.43-5.75c8.38-1.93,7.74-10.34,0.61-10.99c-0.34-0.91,0.57-1.18,2.32-2.92
		c8.76-0.18,7.84,5.9,5.95,13.92C512.26,270.17,511.85,272.29,514.78,275.51z M492.19,267.54c23.52,0,14.87-0.22,3.93,19.66
		C494,280.85,493.3,274.3,492.19,267.54z M494.81,296.89c3.13-8.98,8.47-16.74,14.12-24.5c-2.12,9.08-1.71,18.45-3.13,27.53
		C500.96,300.32,497.74,299.41,494.81,296.89z M523.05,313.23c-8.19,6.06-14.46-4.58-19.97-10.08c2.78-0.88,5.53,1.28,6.15-6.96
		c1.17-15.57,0.55-10.65,3.73-1.01c2.37,7.18,9.73,2.15,12.2-3.93c-0.94-2.32-2.09-11.14-7.36-15.83c-2.82-2.12-3.33-4.64-1.92-7.46
		c10.35-7.92-2.18-23.14-9.98-12.91c-1.98,2.6,1.77,1.92-14.22,1.92c-2.57-2.57,11.31-58.51,30.25-35.6
		C543.73,247.71,538.75,301.6,523.05,313.23z M530.41,309.09c-0.91,1.71-2.32,3.13-4.64,4.34c16.08-21.5,20.46-63.71-5.55-97.52
		c5.03-0.44,22.16,16.64,22.49,42.25C543.12,290.04,539.06,295.54,530.41,309.09z M610.88,533.67c0.31-0.92,0.71,0.2,0.81,0.3
		C611.1,534.56,610.75,534.21,610.88,533.67z M592.63,520.46c0.1,1.31-0.71,2.52-0.3,4.03c-1.71-0.3-2.92-0.91-4.24-1.82
		C588.09,518.08,589.79,519.45,592.63,520.46z M780.3,253.22c-2.32,0-3.83-0.61-4.44-2.92C778.08,250.2,779.09,251.51,780.3,253.22z
		 M773.64,252.01c-0.16,0.16-1.02,0.44-1.92-1.82C773.14,250.1,773.34,251.11,773.64,252.01z M709,258.87
		c-3.18-3.63,0.66-2.75,56.67-3.93c0.13,3.75,1.65,2.42-45.48,3.73C716.47,258.77,712.73,259.17,709,258.87z M759.12,260.38
		c1.21,2.82,2.22,5.45,3.03,8.37c3.53,1.82,7.76,2.32,10.79,5.14c-2.72,5.34-6.09,10.38-6.96,16.64c-0.21,1.51-1.31,2.82-2.52,3.03
		c-4.14,0.7-6.96,3.83-10.49,5.95c-2.42-5.14-6.26-8.96-10.39-12.61c-5.66-5-1.38-20.65-15.83-24.4
		C718.93,260.94,744.77,260.77,759.12,260.38z M582.85,251.91c-0.81,0.3-0.81-0.2-0.81-1.21
		C582.55,251.31,582.65,251.61,582.85,251.91z M584.26,259.78c2.52,0.61,4.77,1.21,4.54-2.22c-0.09-1.31,2.02-0.71,1.82-2.22
		c-1.41-2.12-5.34-1.21-6.05-4.74c2.32,0,4.54,0.5,6.55-0.5c1.71,1.21,2.32,2.92,3.03,4.94c-1.51,0.4-3.43,0.71-3.23,3.23
		c25.61-0.5,51.43-1.01,77.75-1.51c-5.04,3.23-9.98,3.52-15.03,3.63C558.51,262.38,585.42,263.39,584.26,259.78z M583.55,254.33
		c1.82,0.2,2.62,1.11,2.52,3.13C583.45,257.66,584.06,255.64,583.55,254.33z M610.98,298.4c-4.64,3.23-8.57,7.16-12.3,11.9
		c-3.83-10.89-5.81-21.89-7.97-32.87c-0.5-2.55,0.06-2.77,4.13-12.61c62.35-1.73,54.98-2.88,52.24,2.22
		C623.06,264.71,609.56,280.8,610.98,298.4z M575.28,251.61c1.57,4.44,7.15,7.3,3.23,10.29c-4.87-0.75-0.7-4.18-5.04-10.69
		C574.28,250.5,575,250.8,575.28,251.61z M545.23,263.21c-0.71-1.41-0.5-2.52-0.2-4.54c24.22,0,25.89-1.25,30.66,3.73
		C565.4,262.7,555.32,262.9,545.23,263.21z M717.78,509.87c4.03-0.28,7.97-0.1,12.3,1.01C722.16,516.87,711.67,510.3,717.78,509.87z
		 M745.51,518.44c-0.5,1.31-1.51,0.71-2.42,0.71C743.79,518.44,744.4,517.84,745.51,518.44z M741.58,506.34
		c0.2,3.93-0.5,6.86,1.21,9.68c-4.74-3.63-7.66,1.21-11.8,1.71c1.41,1.41,2.72,0.3,3.83,0.81c0.61,0.61-0.61,0.91-0.1,1.51
		c0.91,0.81,2.12,0.1,3.23,0.4c-0.2,0.5-0.5,1.01-0.71,1.51c0.71,1.11,3.03,0.61,2.32,2.62c3.93,1.01,7.26-0.61,10.69-1.71
		c-1.51,1.92-4.54,1.31-5.75,3.83c1.82,1.41,3.63,0.2,5.34,0.2c0.36,0.65-4.53,4.49,8.47,2.52c3.03,2.92,7.05,4.67,11.29,5.65
		c2.72,0.63,4.24,2.92,6.76,4.44c-0.61,3.03-2.22,5.56-5.14,6.15c-27.5,5.55-17.6,1.97-34.49-1.41c-3.11-0.62-4-5.58-13.41-2.52
		c-5.84,1.9-11.07-0.12-18.05-1.51c-1.84-13.78,10.78-11.52,6.66-26.22C723.02,517.13,733.1,515.92,741.58,506.34z M730.08,379.38
		c15.21,1.2,29.4,9.77,39.33,20.67c2.55,2.8,3.74,5.96,1.82,9.68c-2.51,4.85-1.72,10.28-2.62,15.43c-1.22,6.96-3.1,13.82-4.24,20.77
		c-0.03,0.2-20.55,39.36-24.81,54.76c-0.7,2.52-0.73,5.4-3.33,7.16c-1.02,0.69-1.92,2.02-3.13,0.71
		c-14.33-4.66-16.83,6.05-10.59-16.64c9.99-36.31,2.98-34.55,6.96-41.65c0.02-0.04,3.11-13.29,8.37-21.98
		c2.35-3.89,1.08-5.59,4.44-6.66c-16.31-2.09-15.8,1.36-41.95,7.46c-2.62-3.33-6.6-4.78-9.88-7.16c-3.56-2.58-4.37-11.79,1.41-17.85
		c7.97-8.36,7.29-7.72,10.08-8.37c11.36-2.65,5.31-2.41,4.34-4.03C713.74,382.94,718.06,378.43,730.08,379.38z M686.92,374.84
		c5.77,2.65,6.08,0.05,27.13,4.34c-5.65,3.93-8.85,10.78-15.93,12.91c-0.7,0.21-1.61,0.3-1.82,0.91c-1.33,5.6-1.13-1.04-30.96,19.06
		c-3.43,2.31-6.76,4.74-9.18,8.17c9.43-7.2,24.57-17.46,35.5-22.19c-0.16,2.03-9.45,6.94-6.05,23.09c0.6,2.84,3.11,3.76,12.2,8.47
		c0,1.41-0.71,1.71-1.61,1.61c-21.54-0.8-10.74-2.79-29.55-5.34c-6.56-0.89-13.01-2.62-19.97-3.23c4.03-5.34,4.24-10.99,3.43-16.84
		c13.67-0.81,36.2-10.74,48.81-16.34c-3.33,0.43-37.41,12.77-37.51,12.81c-11.86,4.09-13.41,1.67-16.03-3.43
		c-1.89-3.68-2.49-1.54-8.27-10.69c-2.4-3.8-7.52-15.43-14.92-14.02c0.61,2.12,2.72,2.52,4.44,4.24c-3.33,0.61-6.36,0.29-9.18,1.61
		c-13.79,6.51-22.99,11.63-21.28,26.32c0.43,3.7,3.03,4.27,7.66,16.64c-2.82-1.51-3.43-4.54-4.74-6.96c-1.71,0-1.31,1.41-2.02,2.32
		c-24.66-27.13-9.38-25.29-6.05-46.09c0.88-5.47,10.12-4,13.21-2.22c3.03-2.32,5.55-0.1,8.87,0.61c-2.12,0.71-3.83,0.5-5.34,1.71
		c3.33,0.3,6.35-0.07,9.38,0.4c1.41,0.22,1.92-0.91,2.42-2.22c-9.66-3.1-16.3-5.84-24.91-4.84c-6.17,0.71-7.52,4.29-9.18,9.68
		c-8.12-12.18,20.18-9.28,26.82-22.89c0.71,0.5,1.21,1.01,1.41,1.92c-3.67,0.46-9.29,8.81-2.62,5.95
		c-2.98,7.19,18.14,10.07,21.48,13.11c8.15,7.42,7.31-0.18,10.89,5.95c8.25-1.14,10.24,5.14,12.4,0.61c2.32,1.61,5.55-0.5,7.76,1.92
		C670.9,375.76,681.68,381.43,686.92,374.84z M618.65,361.33c0.3,2.72,3.03,3.33,4.13,5.34c-1.92,0.71-3.93,0-9.08-3.53
		C615.42,362.54,616.93,361.93,618.65,361.33z M614.41,355.88c0.71,0.1,0.91,0.4,0.71,1.11
		C614.31,357.09,614.01,356.69,614.41,355.88z M613.81,350.64c-1.41-0.71-0.91-1.31,0-2.02
		C614.11,349.33,614.21,349.93,613.81,350.64z M623.29,361.73c1.21,0.91,2.52,1.71,3.73,2.52
		C625,364.25,623.89,363.45,623.29,361.73z M631.66,370.71c-2.32-0.71-5.04-0.5-6.86-2.52
		C627.12,368.89,630.04,367.68,631.66,370.71z M637,372.42c2.12,0.81,3.83,0.61,3.73,2.72C639.42,374.64,638.21,374.24,637,372.42z
		 M646.78,376.86c1.31-0.81,1.71,0.61,2.52,0.91c0.61,0.4,1.61-0.1,1.92,1.01c-1.11,0.5-1.61,0.1-1.92-1.01
		C648.3,377.97,647.49,377.76,646.78,376.86z M680.16,372.42c0.81-1.92,3.03-1.11,3.93-2.42c1.82,0.4,2.22,1.61,2.42,2.82
		c-0.81,1.11-2.12,0.71-2.92,1.51C682.18,373.73,681.78,371.92,680.16,372.42z M713.34,335.91c-4.75,4.13-1.69,5.46-5.95,10.59
		c-9.77,11.76-23.21,20.58-27.73,22.89c-2.89,1.47-2.65,4.16-2.52,4.03c3.92-1.2,3-2.08,2.02,1.92c-1.71-1.31-3.03,0.91-5.04,0.2
		c6.31-5.61-2.79,0.41-7.76,1.61c-6.82,1.66-18.01-2.09-19.36-4.24c1.41-1.11,3.03,0.71,4.74-0.5c-10.11-3.97-4.17,4.31-18.25-6.35
		c1.41-0.91,3.03-1.31,4.54-1.92c-2.42-0.3-4.84-0.4-6.96,0.71c-7.76-3.73-13.11-9.38-15.53-18.15c0.4-0.71,1.31-1.61,2.82-2.52
		c1.71,5.65,6.25,9.08,10.79,13.61c-7.68-16.89-5.47-10.85-7.16-11.09c-2.51-4.33-2.36-3.34,2.02-9.68
		c3.98-5.76-0.83,0.5,9.88,14.32c0.48,0.24,0.44,1.43,2.22,2.12c-0.36-0.86-1.56-2.64-1.86-2.49c-9.25-18.09-9.31-15.8-3.29-24.23
		c1.4,0.56,2.48,3.81,3.13,2.52c-4.81-6.47,2.92-14.71,0-17.95c-2.05,0-2.68,4.23-2.62,4.84c0.6,6.05-3.13,9.98-6.35,14.32
		c-17.13,23.08-19.55,17.13-26.32,23.9c-3.53-0.1-7.16-0.4-10.59,0.2c-5.24-4.24-8.36-9.79-10.39-16.13
		c-3.89-12.15-5.42-9.58-4.74-37.01c0.65-26.14-1.15-31.62-7.46-35.19c10.23-2.49,17.04,1.88,18.35,0.3
		c2.22-2.22,4.84-1.01,7.56-1.41c0,6.35-4.61,7.43-2.82,12.71c0.94,2.78,4.3,26.95,8.87,36.1c1.94,3.87,0.56,6.01,3.23,17.45
		c1.11,4.75,3.24,3.54,2.62-0.71c-1.94-13.41-4.18-17.12,2.32-23.7c4.06-4.11,8.17-7.97,14.12-8.98c-0.81-2.72-0.81-2.72-6.45-0.61
		c-0.5-15.53,17.35-32.67,34.19-28.03c3.05-0.28,0.12-7.3,7.16,10.29c-1.71,1.01-3.63,0.61-4.94,2.12c1.92,0.81,3.63-0.4,5.65-0.3
		c0.1,2.02,0.71,3.93-0.5,5.75c2.52,2.22,0.72,4.84,0.5,7.16c-0.9,9.49-4.64,17.82-12.81,22.59c-4.74-11.6-8.87-16.94-13.11-16.24
		c16.22,24.98,10.39,13.81,3.83,22.19c1.13,1.76,4.03,0.21,3.33,0.91c0.53-0.53-0.19,1.96,2.72,1.82c-0.39-1.37-1.72-1.41-2.54-1.97
		c7.57-6.43,3.83,3.06,25.43,7.01c-6.35-3.63-12.91-5.95-18.96-10.08c11.15-6.63,15.45-20.01,15.23-30.76
		c-0.14-6.82-3.58-14.46-7.66-23.9c1.71-1.41,3.93-0.81,5.04-2.62c1.41,2.42,3.62,3.64,5.24,5.34c8.39,8.8,5.7,10.59,10.49,15.93
		c9.5,10.6,17.05,18.29,25.82,18.56c13.46,0.4,20.37-7.49,20.37-14.42c0-11.25,5.11-13.95-3.33-26.22c3.98-2.12,6.85,8.49,7.16,11.4
		c2.41,22.41,9.68,25.32,7.56,33.68C727.96,312.76,729.37,321.95,713.34,335.91z M789.27,265.02c3.94,5.91-2.93,18.08-3.53,19.87
		c-12.81,38.33-14.5,40.72-29.75,55.97c-6.77-0.55-7.71-1.14-29.75-15.83c4.01-6.89,7.35-22.53,5.34-25.92
		c-0.63-1.27,2.59-7.13,1.82-12.71c-1.82,1.31-1.82,1.31-3.13,10.29c-3.73-5.45-4.41-11.77-6.25-17.55
		c-2.25-7.05,1.15-6.7-5.24-17.45c15.94,7.44,12.13,5.08,15.83,13.82c2.85,6.73,2.41,9.45,7.97,14.92
		c11.18,11.02,10.3,26.26,17.04,28.03c-0.81-2.52-1.51-4.94,0.5-6.96c-1.31-0.91-1.51,0.61-2.52,0.4c-1.21-2.82-3.33-5.55-3.93-9.08
		c2.42-1.82,4.44-3.62,7.66-4.44c3.53-0.9,6.59-3.73,7.16-7.97c0.49-3.63,5.8-15.58,6.45-16.54c1.33-1.95-1.26-3.99,2.72-7.97
		c-1.82-0.81-1.82-0.81-4.54,5.55c-2.72-1.82-5.85-2.42-8.98-3.53c-4.09-10-3.37-6.02,2.72-7.16c2.62-1.31-0.5-4.94,2.62-5.65
		c-0.61-2.22-2.92-3.33-2.72-5.65c3.87-1.94,2.13,2.43,4.03,3.83c2.41,1.77,1.62,0.22,2.92-1.31
		C776.73,258.21,782.72,255.18,789.27,265.02z M784.13,256.95c-0.2-1.82-0.61-3.43-1.61-4.84c2.92-0.81,2.02,2.22,2.92,2.72
		c10.59-0.91,20.87-0.4,31.56-0.91C816.06,256.94,817.98,255.95,784.13,256.95z M813.38,259.27c1.61,0,2.82-1.01,4.24-1.51
		c3.48-0.99,3.45-7.52-1.21-7.06c-2.35,0-0.36-1.68,1.21-2.82C828.67,253.41,819.14,273.46,813.38,259.27z M820.74,247.27
		c14.62-2.77,15.12,19.36,1.11,17.85C824.97,258.77,826.38,252.82,820.74,247.27z M801.98,259.78c2.72-0.81,5.34-0.3,8.07-0.61
		c4.18,5.22,5.58,7.57,9.68,7.36c1.61-0.08,3.43,0.55,5.24,0.4c13.73-1.11,12.07-21.29-0.6-21.38c-6.12-0.04-10.77-0.86-12,5.55
		c-3.73,0-7.06,0-10.29,0c-0.4-14.52,5.38-26.19,16.24-35.19c4.33-3.59,7.65-2.52,13.41-2.12c6.07,0.42,12.14,9.99,13.51,13.11
		c1.94,4.41,11.22,13.89,4.24,47.19C842.46,307.55,804.71,310.5,801.98,259.78z M854.52,272.69c-2.14,8.87-2.52,9.38-9.88,18.86
		c-0.61-0.3-0.3-0.7-0.1-1.01c9.74-15.33,13.81-44.04,2.52-65.25c-1.11-2.42-3.23-4.44-4.34-7.16
		C858.06,230.96,859.23,253.15,854.52,272.69z M885.48,254.23c-2.85,0.14-21.54,0.86-25.61,0.2
		C862.75,251.89,923.45,252.4,885.48,254.23z"/>
	<path d="M243.01,115.37l-0.1-0.1C242.95,115.35,242.85,115.32,243.01,115.37z"/>
	<path d="M463.95,131.51c5.84,0.21,11.76,1.39,11.5-3.93c-0.21-4.38-0.97-3.13-37.11-4.44c-4.16-0.38-3.06,0.73-4.13-9.28
		c-1.75-16.37-10.3-28.43-26.82-31.46c-11.9-2.18-17.55,5.39-23.9,13.11c-6.31,7.66-6.37,16.43-8.07,24.71
		c-1.03,0.34-9.94,1.29-12.91-2.62c-0.91-1.2-2.42-2.51-4.03-2.32c-4.29,0.49-11.29-4.33-14.92-4.24c-1.61,2.92-4.74,5.04-6.45,8.07
		c-56.91-2.19-51.23,1.81-51.23-14.32c2.52-1.31,3.52-3.63,4.24-6.25c0.99-3.63,3.38-6.86,3.33-10.99c-0.1-8.6,4.62-8.61,0.5-17.14
		c-1.61,11.19-2.12,22.49-7.56,32.77c-4.24,0-7.97,0-12.4,0c3.23,3.23,6.76,1.11,9.88,2.22c-0.2,3.83-0.3,7.66,0.71,11.9
		c11.7,5.14,12.2,15.23,10.69,26.22c-6.45,3.03-12.1,7.56-19.46,4.34c-0.2-4.03-5.95-9.58-10.19-9.88
		c-2.64-0.19-12.59-2.09-14.12-4.24c-5.89-8.26-7.66-20.3-11.19-20.07c-5.38,2.55-2.14,1.42-67.87-1.11
		c-1.27-1.27-1.15-7.05-5.75-6.35c-2.05,0.31,0.4-0.1-13.41-0.1c1.79,3.58-0.44,0.65,4.44,2.32c3.11,1.07,3.83,3.63,1.92,7.46
		c1.41,0.5,2.82,1.11,4.03,1.51c12.86-1.84-28.26-3.38,69.08,0.61c-0.44,4.22-24.8,2.73-74.83,0.81c1.77-4.53-1.63-7.32-3.4-10.65
		c-0.39-0.24-1.74-0.37-3.46-0.85c-1.41-0.39-2.12,0.4-2.42,1.61c0.32,0.12,0.63,0.25,0.93,0.39c-0.23-0.22-0.5-0.42-0.83-0.59
		c5.03-0.19,5,2.16,8.47,7.56c-2.12,0.61-3.53-0.71-5.14-0.61c-1.45-2.56-0.47-5.44-3.43-6.76c-3.14-1.89-6.45,2.65-9.48,2.62
		c-21.01-0.17-19.07-0.21-19.06-3.73c0.07-16.08-8.56-33.11-14.62-37.72c-4.93-3.75-10.69-4.24-16.54-4.94
		c-0.91,0.81-1.41,2.23-2.72,2.42c-7.79,1.1-18.57,19.16-21.68,40.94c-7.01-0.29-51.24-1.9-58.19-2.52
		c-7.6-0.68-9.77,10.82,1.51,10.99c58.96,0.9,54.29,1.52,56.77,2.12c1.7,21.72,4.98,21.13,1.92,27.03c-1.65,2.75,0.61,5.1,2.32,5.75
		c4.48,1.7,4.91,4.74,10.59,11.7c17.76,21.75,40.13-12.58,40.74-42.56c5.85,0,11.29,0,16.64,0c0.81,1.92,0.3,3.53,1.41,4.64
		c0.71,0.2,0.4-1.21,1.51-0.61c-2.1,4.57,7.4,4.4,8.17,11.5c0.53,4.94,1.8,9.88,1.61,14.92c-0.59,15.97,1.28,33.24,10.79,46.09
		c4.42,5.98,9.02,27.88,28.03,14.92c4.85-3.31,8.77-8.08,14.52-10.19c1.45-0.53,6.22-6.13,8.98-12.61
		c2.92,9.28,6.35,17.75,6.45,27.03c5.9-13.77-8.13-24.35-2.72-36c3.43-0.71,6.35-2.72,8.87-5.04c5.55,3.43,6.76,3.43,7.66,0.1
		c-1.41-1.01-3.43-1.61-4.13-3.53c6.89-5.34,6.36-12.19,8.27-15.53c6.42-11.27,0.75-21.37,1.51-24.71
		c1.27-5.52-3.02-11.49-2.62-13.61c5.81-1.45,1.2-8.62,14.62,15.63c0.72,1.3,1.43,2.52,1.71,4.03c0.65,3.52,6.15,8.07,9.48,8.27
		c-0.23-2.48-3.28-2-6.96-9.08c9.98,0,17.14,3.53,20.57,10.29c-4.64-1.01-9.18-1.11-13.61-1.21c4.44,1.71,9.5,1.97,14.12,3.83
		c8.61,3.47,26.1-4.38,23.09-14.32c-1.55-5.13-1.11-10.89-5.24-15.53c11.17,1.4,6.65,13.97,12.71,17.75c0.68,0-2.4-7.88-2.72-12.5
		c2.46-1.12,1.65,1.65,4.24,2.72c10.58,4.37,7.84,17.31,10.74,21.73c0.69-0.1,1.69-5.78-0.35-12.87
		c-2.92-10.12-8.31-8.09-7.26-10.19c43.51,1.54,14.33,0.53,37.01,8.87c12.47,4.59,0.01,6.83-0.61,16.64
		c-0.14,2.25-4.38,5.06-4.62,7.62c-0.55-0.28-5.44,1.4-10,5.18c-4.77-11.14-21.53-17.81-11.09-9.88
		c13.21,10.03,5.34,13.31,14.52,27.63c5.71-6.17,7.22-13.29-0.1-3.53c-1.71-3.93-2.82-7.56-2.92-11.5c5.25-5.01,9.67-4.96,9.67-7.76
		c3.01,0,5.98-7.54,6.46-8.47c4.96-9.57,6.79-9.73,5.24-13.51c8.24-3.74,1.98,0.87-13.92-7.66c-0.61-0.61-1.01-1.51-0.61-2.52
		c1.31-0.71,2.72,0.2,4.24-0.3c6.48-5.99-4.44-10.49,1.71-14.82c3.83,0.91,4.84,4.44,4.84,8.47c2.42,2.42,6.11,3.58,8.27,6.45
		c0.34,0.46,1.57,1.12,2.13,0.44c-2.82-3.67-2.84-3.81-3.43-9.52c1.21,0.5,0.3,2.02,1.31,2.82c2.02-0.2,1.21-1.82,1.31-3.33
		c13.71,7.31-25.2,3.07,32.37,6.15c-0.82,3.61-3.08,1.11-31.56,1.11c-1.11,1.21,1.4,1.93,0.19,3.03c-0.17-0.21-0.21-0.01-0.17,0.09
		c4.38,0,5.38-0.6,6.93,1.62c4.08,5.87,2.39,4.85-7.45,39.02c2.23-1.92,3.16-4.67,4.02-7.25c11.12-33.31,7.16-25.5,5.55-33.58
		c1.71-0.2,3.23-0.3,5.04,0.3c1.75,22.71,5.46,45.09,30.96,41.65c19.48-2.63,24.93-20.54,28.84-39.52
		C435.31,130.36,433.03,130.41,463.95,131.51z M435.01,126.26c35.58,0.56,54.4,2.79,18.96,2.22
		C432.41,128.14,435.01,128,435.01,126.26z M163.34,115.17c-0.61-2.52-0.61-5.14-1.82-7.46
		C165.86,109.12,166.47,111.74,163.34,115.17z M169.19,112.45c-3.03,0.1-1.51-3.03-3.03-4.03
		C169.29,108.41,169.39,108.61,169.19,112.45z M4.21,114.16c-3.03-1.82-1.21-3.93-0.61-6.05C7.32,107.52,7.99,113.08,4.21,114.16z
		 M199.04,135.54c-1.86,3.48-5.71,13.33-4.84,16.24c2.32,6.11-4.78,3.79-10.39,14.22c-3.14,5.84-2.17,4.57-6.05-0.5
		c-2.22-2.89,1.58-1.07-3.63-11.5c-3.33-6.66-5.05-13.73-5.95-20.98c-0.55-4.44,2.32-7.46,4.64-10.79
		C235.74,124.13,207.17,120.3,199.04,135.54z M154.06,118.5c-1.41,0.2-2.22,0.3-3.23-0.5C152.25,116.78,152.85,117.89,154.06,118.5z
		 M147.41,109.82c1.71,1.71,1.11,3.93,1.51,5.95c-2.22-1.11-3.03-3.43-5.04-4.74C144.99,110.33,145.99,109.62,147.41,109.82z
		 M9.05,113.76c0.4-1.41,0.81-2.82,0.2-4.34c3.93,0,7.66-0.12,11.4,0c71,2.35,65.59,1.34,65.45,6.05
		C83.27,116.68,25.18,115.47,9.05,113.76z M95.27,139.47c1.52,5.75,0.1,8.17-6.05,9.78c-2.11-0.7-4.02-17.15-4.13-19.36
		c-0.19-3.63,0.61-7.36-3.33-9.98c9.46-2.31,7.95-10.31,1.01-10.89c0.61-1.31,1.71-2.12,2.82-2.82c9.23,0.18,7.17,7.06,4.94,14.62
		C82.54,123.81,92.49,128.98,95.27,139.47z M67.24,119c23.88,0,14.03,0.78,2.52,20.17C68.04,132.21,67.84,125.66,67.24,119z
		 M67.94,148.35c3.73-9.08,9.48-16.54,15.63-23.9c-2.42,9.08-3.03,18.35-4.74,27.63C74.5,151.88,70.87,151.07,67.94,148.35z
		 M89.72,168.11c-6.55-2.52-10.19-7.66-13.71-13.21c1.61-0.71,3.6,0.29,4.64-1.51c1.8-3.12,1.59-8.54,3.33-14.52
		c1.57,7.57,1.7,15.13,8.27,11.7c5.32-2.78,5.84-5.77,5.34-8.57c-2.65-15.09-10.46-14.57-7.06-21.08c11.19-10.63-2-23.02-9.18-13.82
		c-1.38,1.76,1.24,1.31-12.91,1.31c-0.4,0-0.91-0.1-1.82-0.2c1.21-6.45,2.43-12.8,4.94-18.76c22.95-54.51,47.37,10.98,37.21,49.92
		C106.22,149.19,99.82,167.19,89.72,168.11z M118.16,110.93c-0.15,3.89,0.68,25.09-7.66,40.54c-1.25,2.31-7.57,12.85-12.4,14.82
		c14.73-16.72,26.18-58.55,0.4-97.21C104.37,69.34,119.04,87.66,118.16,110.93z M120.48,113.45c27.58,1.05,23.63-0.13,26.82,4.84
		C120.09,117.7,118.47,118.49,120.48,113.45z M235.14,137.86c-0.5,0.61-1.92,0.1-2.32,1.31c0.61,0.91,1.71,0.1,2.62,0.81
		c0.2,3.03-0.35,6.13,0.61,9.28c0.43,1.4-0.39,2.93-1.01,4.24c-4.63,9.83-0.67,9.98-9.38,16.94c-4.84-2.62-4.84-2.62-6.25-1.31
		c0.3,1.82,2.22,2.42,3.13,3.83c-1.41,2.52-2.22,3.23-5.34,4.64c-1.11-2.92,1.31-6.05-0.1-9.08c-5.51,1.91,0.52,5.11-6.25,16.94
		c-4.15,7.25-3.68,12.04-8.37,14.12c-11.41,5.06-15.15,14.71-24.1,14.02c-4.42-0.34-11.16-5.6-12.4-10.89
		c-1.37-5.83-9.5-10.11-12.2-28.14c-1.77-11.81,0.47-12.35-3.73-38.93c-0.59-3.73-3.53-6.76-8.47-10.08c0-5.9-3.58-4.54,28.64-3.53
		c-1.21,4.1-4.99,6.01-3.83,12.2c5.37,28.73,2.74,10.88-2.32,6.15c-0.91,3.13,1.41,4.34,2.72,6.25c-1.01,1.82,0.09,3.34,1.21,4.84
		c5.77,7.73,2.94,8.95,5.37,10.06c-3.09-10.59,1.9-1.93,2.29,4.15c2.22,4.03,4.94,7.87,6.66,12.1s1.82,9.08,4.24,13.41
		c2.37-5.38-3.67-13.64-4.54-18.25c4.84-7.66,9.58-15.43,18.45-19.16c-1.19-2.23-2.4,0.29-3.93,0.1
		c-2.12-2.89,3.59-11.29,5.04-17.35c0.77-3.21,8.98-7.21,11.6-10.29c1.11-1.31,3.22-1.53,5.14-1.71c4.84-0.46,9.28-2.22,14.12-3.03
		C235.64,126.36,236.65,131.81,235.14,137.86z M341.13,117.59c1.72,1.96,0.19,2.37-2.02,1.71
		C339.21,117.79,340.62,118.3,341.13,117.59z M340.62,124.85c-42.95-2.01-34.61-0.83-37.72-1.01c-0.91-0.81-0.4-2.12-1.71-2.42
		c1.42-0.94-5.04-1.05,41.95,1.01C343.75,125.05,342.14,124.92,340.62,124.85z M351.92,116.48c2.32,0.91,2.02,3.33,3.53,4.84
		C351.82,120.21,351.01,119.1,351.92,116.48z M395.18,123.84c-0.16-2.93-2.42-2.42-4.34-2.62c0.81-1.71,0.81-1.71,2.52-2.92
		c5.75,3.43,5.85,12.91-0.1,17.04c-2.32-1.31-4.34-2.82-5.14-5.65C391.15,127.92,395.48,129.32,395.18,123.84z M396.39,117.99
		c9.52-1.03,13.26,7.65,8.87,14.92c-2.08,3.45-5.34,3.43-9.08,3.03C400.83,128.48,400.72,123.64,396.39,117.99z M391.85,167.81
		c-11.68-6.7-15.13-24.06-15.13-37.51c0.45-1.34-0.67-1.01,8.27-1.01c1.49,1.12,2.93,9.51,16.13,8.37
		c4.74-0.41,8.89-5.75,8.17-10.49c-1.38-8.98-3.33-10.74-12.4-10.99c-6.05-0.17-6.15-0.1-9.48,5.04c-1.61,0.61-3.33,0-5.04-0.1
		c-1.71-0.1-3.43,0.2-4.94-0.4c0.85-29.19,29.38-48.23,40.74-27.93c5.61,10.02,13.62,20.06,6.05,49.92
		c-1.79,7.07-4.23,13.72-8.87,19.46C410.61,168.02,398.32,171.52,391.85,167.81z M432.29,122.43c-1.2,26.76-8.05,33.5-14.22,40.84
		c-1.91-1.91,6.41-3.2,10.89-35.3c2.2-15.73-2.4-25.94-9.48-38.02C423.78,91.73,433,106.49,432.29,122.43z"/>
	<path d="M315.11,145.83c0.17,1,0.43,1.96,0.92,2.77C315.67,145.09,315.07,145.46,315.11,145.83z"/>
	<path d="M278.38,265.63C278.51,265.78,278.37,265.48,278.38,265.63L278.38,265.63z"/>
	<path d="M360.69,540.93c0.69-2.81-2.2-7.29-8.17-7.76c-10.21-0.8-13.35-15.49-31.46-25.72c-2.77-10.52,3.25-58.82,3.43-60.41
		c3.03-27.38-2.69-24.14,2.42-42.86c1.21-4.44-0.29-6.89-2.42-12.5c-5.82-15.32-0.44-11.34-4.03-26.32
		c4.64-2.52,4.53-2.52,3.13-7.56c-2.02-7.26-4.64-14.42-5.65-21.88c-2.23-16.55-7.35-15.1-5.75-22.19
		c1.49-6.59-3.95-17.6-7.87-22.89c-1.24-0.62-3.72,3.57-4.24-12.3c-0.39-11.93-7.06-11.31-8.17-13.31c1.41-2.32-1.61-6.15,2.62-7.97
		c-1.31-2.52-1.1-5.04-0.2-7.46c3.99-10.76-0.63-18.17,5.04-30.86c3.01-6.73,6.44-15.92,7.76-24.5c9.77,5.24,7.51,8.86,23.4,15.63
		c5.31,2.26,5.53-1.24,12.5-7.87c9.34-8.87,14.89-19.7,16.82-32.47c-1.5-0.19-2,0.82-2.3,2.02c-4.77,15.26-1.26,11.69-21.58,35.09
		c-5.94,6.83-18.17-8.41-28.74-15.33c1.68-18.48,12.11-16.35,9.07-40.66c-2.78-9.98-2.09-2.84-2.5-2.09
		c-3.45-3.04-6.1-9.16-7.87-10.43c-1.51-0.05-3.03-0.83,7.46,19.2c-0.61,9.08-3,18.07-8.57,25.92c-1.69,2.38-1.34,3.62-1.51,16.13
		c-0.06,4.68-1.15,0.33-2.72,7.46c-1.51,6.84-4.84,13.01-7.26,19.46c-2.52,1.41-5.65,0.1-8.17,1.61c2.72,0.5,5.34-0.5,7.76,0.1
		c0.91,10.19-0.1,19.97-2.62,30.56c-2.62,2.92-7.56,3.03-11.9,4.94c0.2-1.41,1.92-1.21,1.92-2.72c-10,3.18-6.37,5.85-14.22,4.54
		c-6-0.67-7.13-0.16-9.38-2.22c-1.21-1.11-2.52-2.22-4.44-2.32c1.01,1.01,2.02,1.92,3.63,3.43c-26.92-1.09-31.72-1.66-37.11-4.84
		c-3.02-1.78,0.19-1.55-0.4-3.33c-0.91-1.41-2.42-2.82-2.92-4.94c-3.86,1.54,0.18,5.36,0.3,5.85c-0.91,0.91-2.12,0.1-2.92,0.91
		c-1.53,10.91-5.99,10.67-7.76,18.35c-4.66,20.21,0.03,30.06-4.54,40.84c-1.38,3.26-4.3,19.12-3.63,29.35
		c0.66,10.06-0.57,0.21-1.51,27.93c-0.19,2.11,2.57,2.67,4.44,3.23c-0.5,3.63,2.82,6.15,2.92,9.88c-4.63,3.7-3.56,23.54-9.48,31.56
		c-9.74,13.2-20.29,22.78-18.45,40.44c1.16,11.18-1.23,14.31-0.91,26.72c0.27,10.16,0.65,1.91-3.73,31.36
		c-1.41,0.2-2.82-1.71-4.54-0.1c-0.5,1.71,0.81,3.83-0.81,5.45c-1.01,0.5-2.82-0.2-3.23,1.71c5.14,3.63,10.69,4.03,11.6,0.81
		c-2.19-1.41-6.52,1.64-3.53-4.34c1.92,1.41,4.64,1.11,6.35,3.13c-0.91,2.82-0.1,5.14,2.32,7.06c1.73-16.88,6.8-7.33,12.2-7.87
		c0.71,2.82,2.32,5.34,1.61,8.27c-5.65,1.01-11.5,0.5-16.13,4.13c0.34,1.01-1.34,1.03,10.69-0.2c-3.43,1.82-7.06,2.12-9.38,5.14
		c2.72,1.11,4.94-0.5,7.36-0.3c-2.02,1.61-5.24,1.51-6.45,4.13c1.01,1.41,2.42,0.1,3.33,0.91c-2.41,5.07,5.44,2.29,8.87,1.71
		c1.51,2.42,3.93,0.91,6.15,1.01c-0.61,1.01-1.83,1.62-0.91,2.82c1.25,1.64,6.28-0.81,8.17-2.82c3.63,1.82,6.25,4.13,7.26,7.97
		c-3.76,5.37,0.06,4.04-4.74,7.46c-5.59,3.98-31.42,0.71-32.57,0.1c-0.5-2.32-2.62-3.73-4.13-5.45c-1.21,0.2-0.71,1.21-1.31,1.71
		c-2.06-2.06-12.16-1.1-9.38-4.44c0.91,0.2,1.31,1.92,2.62,0.91c0.98-1.54-1.96-6.22-0.2-9.28c3.18-5.52,2.02-11.4,2.02-17.14
		c0-1.82-0.4-3.53-2.62-4.34c-2.56,8.65,2.49,9.62-1.21,17.85c-1.32,2.92-1.82,5.85-1.31,9.18c-2.32,1.31-1.61,3.53-2.02,5.45
		c3.93,3.53,8.67,2.82,13.11,3.23c1.51,3.63,4.13,5.55,7.76,5.55c18.1,0,30.48,3.37,34.39-5.04c3-6.47,1.86-10.52-3.53-14.72
		c-1.02-0.79-2.02-1.61-3.13-2.12c-7.77-4.19-8.73-17.24-11.6-24c-0.86-2.02,3.16-29.21,15.53-53.65c5.75-11.35,5.14-23.9,6.55-36.1
		c-1.51-0.4-1.41,1.61-2.72,1.82c-3.68-6.3-3.49-6.64-4.94-7.36c-0.74,3.7,6.08,5.08,3.83,19.46
		c-5.15,32.93-14.56,30.12-18.86,63.73c-0.48,3.73-2.52,7.06-1.82,10.99c-3.83,0.2-6.25-3.33-9.78-1.82
		c-0.5,1.41-1.31,2.72-3.13,3.33c-6.67-3.59-3.39-2.21-3.03-9.28c0.91-17.77,4.57-33.98,3.83-59.4c-0.2-6.95-0.41-10.33,11.8-26.02
		c13.6-17.47,6.99-13.4,12.4-25.31c1.93-4.24,5.19-17.85-0.3-22.19c-3.32-2.62,3.68-6.25,18.15-0.61c2.15,9.14-7.46,5.02-9.58,12.91
		c4.84-0.91,7.56-4.64,11.6-5.85c0.81-2.22,0.2-4.64,1.01-6.96c4.54,0.2,9.08,0.1,13.61,1.01c0.5,9.18-4.64,16.64-6.86,25.21
		c-1.51-2.32,0.3-5.24-2.52-7.46c-0.71,4.34-0.55,8.15-1.61,11.9c-3.72,13.1-7.64,14.81-9.68,20.47
		c10.1-7.12,11.29-17.68,15.73-25.21c7.55-12.79,5.62-14.56,7.36-24.4c3.78-0.16,6.4,5.57,7.36-2.02
		c1.39-10.88,0.78-12.44,3.53-14.62c2.99-2.37,3.29-4.51,7.56-13.71c3.03,9.08,6.66,17.55,7.76,26.72c0.09,1.43,0.3,3.04,1.87,3.8
		c-0.45,0.74-1.86,0.89-1.66,2.55c3.23,1.82,6.76-0.2,10.19,0.2c8.05,10.63,11.47,9.91,12.5,16.74c0.53,3.48,3.59,12.75,7.06,13.41
		c1.06-2.83-3.7-7.47-3.73-11.6c-0.09-10.01-6.91-10.07-12.5-19.26c6.35-2.82,12.62-5.41,18.96-7.46c6.46-2.09,11.7-6.66,18.35-8.27
		c1.7,4.12,2.05,17.94,4.64,23.6c1.4,3.07,4.58,10.23,2.52,12.91c-2.04,2.66-3.54,13.91-3.13,18.76c-3.03,1.71-5.24,3.83-6.86,6.76
		c4.97-1.91,9.57-14.41,7.66,13.31c-0.53,7.69-6.74,50.02-3.53,64.94c-3.53,3.93-8.37,2.32-12.91,4.13c0-8.89-1.16-20.49,0.1-27.43
		c-2.12,8.87-1.51,18.05-2.22,27.23c-4.03,1.92-4.03,1.92-6.66-2.12c-2.42,0.5-2.91,2.91-2.12,4.13c3.67,5.68-0.91,9.66-0.91,11.4
		c-0.61,5.34-1.31,10.59-2.62,16.03c1.71,0.5,1.41,2.42,2.62,3.33c5.32,0.82,12.44,0.7,22.29,4.64c14.24,5.7,20.54,2.35,29.45,3.13
		c5.99,0.52,18.43-1.99,15.73-7.46C360.7,543.24,360.39,542.14,360.69,540.93z M313.5,150.06c0.91,0.1,1.11,0.61,0.71,1.31
		C313.6,151.17,313.09,150.87,313.5,150.06z M201.96,544.96c-1.31,0.71-2.22,0.5-3.43,0.1c-0.2-1.71-1.51-3.03-2.02-4.84
		C198.23,541.94,199.74,543.65,201.96,544.96z M194.3,535.99c-0.3-0.5-1.01-0.71-1.01-1.71C194.3,534.58,194.1,535.38,194.3,535.99z
		 M194.2,536.09c1.01,0.2,0.61,1.41,1.92,1.92C184.16,540.6,193.4,538.96,194.2,536.09z M297.06,280.25
		c-3.63-4.13-5.24-9.18-7.66-13.92C293.8,272.67,297.8,269.46,297.06,280.25z M289.29,261.39c-0.71,1.21-2.12,1.01-2.82,2.32
		C286.03,262.38,285.22,263.24,289.29,261.39z M268.52,380.69c1.63-3.26-2.87-18.18-4.03-20.56c-3.76-7.73-5.84-14.13-2.82-20.47
		c1.63-3.42,1.31-7.56,3.83-11.4c-3.33,2.22-4.82,4.85-5.75,7.97c-12.89,43.35-12.71,11.11-15.23,42.96
		c-10.28-4.38-11.72-0.6-29.95-5.65c-5.14-1.42-10.39-1.11-15.43-0.1c-1.31-1.01,0.5-3.53-2.32-3.73
		c5.39-15.09,2.46-28.75,3.03-33.98c-0.4-0.3,0.71-0.4,0.3-0.1c0.11,0.21,1.1,0.89,1.41,1.11c-2.22-8.77,1.21-16.24,3.73-23.7
		c1.41-0.1,0.71,1.41,1.71,1.61c0.61-3.23,0-6.55,0.81-9.58c-0.66-2.2-4.08,3.5-0.1-16.64c3.73-18.87-1.23-12.37,7.26-24.5
		c3.73,3.33,8.57,2.32,13.21,3.33c-0.1-1.21,0.1-2.29-1.61-2.12c-1.21,0.12-1.82-1.01-3.03-1.11c-0.81,0-1.61-1.92-2.62-0.2
		c-1.11,0.3-1.21-3.43-2.92-0.5c-0.61-1.01-0.81-2.32-2.22-2.82c0.5-0.1,0.61-0.2,0.71-0.2c12.84,5.49,24.91,4.9,49.72,6.55
		c-0.71,2.62,2.42,1.31,2.92,3.13c2.24-4.14,7.61-3.33,15.23-6.96c0.2,2.82-4.34,0.61-3.33,3.83c1.01,0.71,1.31-0.61,2.02-0.71
		c1.01,0,0.71,1.82,1.61,1.51c1.51-0.2,1.11-1.71,2.22-2.02c1.19,1.66,8.94,15.05,10.29,18.76c2.91,8.03,7.13,5.36,12.1,23.7
		c1.31,4.85-2.41,7.91,1.92,14.62c4.47,6.93,1.89,7.12,10.79,39.43C308.06,368.33,283.75,379.34,268.52,380.69z M340.32,529.63
		c0.67-0.67,1.06,0.6,0.3,0.6C340.22,530.24,340.12,529.94,340.32,529.63z M321.16,510.17c2.72,1.51,4.44,3.93,6.86,6.05
		c-4.34,1.31-8.37,2.22-12.71,2.82C318.24,516.83,317.53,512.29,321.16,510.17z M311.08,544.06c-4.64-2.08-2.37,0.98-15.63-1.82
		c-0.89-21.25,3.68-19.14,4.34-22.89c0.77-4.44,0.81-4.43,5.24-5.34c14-2.87,10.36-1.99,8.87,1.71c-4.03,1.21-7.87,2.02-12,2.62
		c2.72,2.42,3.43,2.42,10.89,0.2c1.31,0.3,0.3,2.42,1.92,2.42c1.82,0,0.91,1.61,1.61,2.52c3.84,0.69,12.17-0.72,17.75-2.12
		c-1.82,1.61-3.93,1.31-5.95,1.41c-2.02,1.21-4.54,1.41-6.35,3.03c0.61,1.92,2.32,0.81,3.23,1.61c0.2,2.72,0.2,2.72,6.45,2.52
		c1.11,3.83,8.47,5.75,13.11,3.23c11.68,7.3,10.9-3.18,14.52,13.11C355.51,549.55,330.15,552.6,311.08,544.06z"/>
	<path d="M250.97,108.92c1.72-1.51,2.42-3.43,2.32-5.55c-0.3-6.15,1.01-12.3,0.71-18.45c-0.1-2.02-0.1-3.93,1.31-5.75
		c-1.41-0.4-2.92-0.4-3.03-2.12c0.61-0.5,1.82,0,2.32-1.11c0.4-1.11-0.2-2.72,0.71-3.63c1.61,0.81,0.81,2.72,2.22,4.54
		c2.72-7.46,5.55-14.22,9.78-20.47c2.32,0.71,3.13-1.41,4.84-2.32c-0.58-1.47-1.18-2.66-1.67-3.84c2.08-0.56,2.39,1.53,3.39,2.83
		c2.37-5.92,10.43,0.01,18.45-2.72c-0.71,4.74,1.41,8.87,2.02,13.01c-8.37,3.23-8.57,5.65-7.46,9.58c0,0.1,0.3,0.1,0.61,0.2
		c0.3-0.81,0-1.92,0.81-2.82c1.92,0.2,3.83-0.2,5.85-1.11c0.4-2.72,2.52-5.44,1.51-8.17c-1.42-3.83-1.01-7.87-1.82-11.4
		c1.82-2.92,4.94-3.43,6.96-5.65c-0.3-1.11,0.61-2.32-0.1-3.43c-1.41-0.91-2.72,0.1-4.13-0.2c0.81-1.41,3.13-1.11,3.03-3.23
		c-1.71-1.41-3.23,0.3-4.74,0.4c-0.61-1.71,0.4-3.63-0.81-5.34c-1.61,0.5-2.12,2.32-3.63,2.62c-2.73-3.36-6.71,1.17-9.68,0.5
		c-4.13-0.93-8.07,0-11.8-0.3c-1.51,0.4-1.41,2.52-3.23,2.22c-0.61-0.5,0.4-1.92-1.31-2.02c-2.22,2.42-4.84,4.34-8.67,4.13
		c-1.41-1.41-2.72-2.92-4.94-1.92c-0.4,1.61,1.51,1.92,1.61,3.03c-1.61,1.92-2.85,4.03-3.33,5.95c-1.7,6.8-5.51,13.53-4.34,19.36
		c0.65,3.22,3.18,6.03,1.92,9.68c-0.1,0.3,0.3,0.81,0.5,1.21c2.22,3.61,2.05,10.2,3.23,11.7c3.17,4.04-0.02,7.49,1.31,14.22
		c0.32,1.61,0.29,3.41-1.11,4.44c-2.44,1.79-4.03,4.34-6.35,6.25c-0.71,0.5-1.41,1.11-1.11,2.22
		C246.74,114.56,248.45,111.14,250.97,108.92z M291.51,67.57c0.4-0.71,0.81-0.91,1.51-0.5C292.82,68.18,292.12,67.67,291.51,67.57z
		 M297.86,42.16c-0.1,0.91-0.5,1.61-1.51,2.22C295.85,42.86,295.95,41.96,297.86,42.16z M291.81,36.51c0.61,1.21,0,1.61-1.01,1.92
		C290.91,37.62,291.01,37.02,291.81,36.51z M278.2,39.33c-0.4,0.91-1.01,1.51-2.12,1.61C275.98,39.23,276.89,39.03,278.2,39.33z
		 M270.54,50.13c-1.25,0.42-2.11,0.34-3.13-0.59C268.92,48.31,269.83,48.21,270.54,50.13z M265.09,54.76
		c1.11,0.91,0.3,1.31-0.4,1.82C264.38,55.87,264.28,55.27,265.09,54.76z M263.28,40.24c0,0.91-0.4,1.41-1.61,1.41
		C261.86,40.54,262.47,40.34,263.28,40.24z M264.38,46.29c-0.4,1.61-1.82,2.42-3.03,3.33C261.56,47.81,263.07,47.1,264.38,46.29z
		 M260.05,60.01c0,1.21-0.4,1.61-1.21,1.71C258.43,60.61,259.14,60.31,260.05,60.01z M252.99,58.49c0.61,1.31-0.3,2.12-0.61,3.23
		C252.28,60.51,251.78,59.5,252.99,58.49z M252.79,67.37c2.02,0.5,2.02,0.5,2.42,3.23C253.59,69.79,252.69,68.98,252.79,67.37z
		 M250.27,73.92c-1.01-1.11-2.22-2.12-0.71-3.63c1.31-0.3,1.71,0.61,2.22,1.41C251.28,72.41,250.77,73.12,250.27,73.92z
		 M250.27,48.81c0.91-1.11,1.31-2.42,1.82-3.83c1.61,0.81,2.72,2.82,4.94,2.02C254.91,48.41,252.08,46.39,250.27,48.81z"/>
	<path d="M294.23,413.46c-0.71,1.11-1.01,1.31-1.01,1.51c-2.35,16.43-9.19,26.8-2.02,42.86c8.66,19.39,6.29,19.52,6.55,26.62
		c0.21,5.75,0.82,11.4,0.3,17.14c-0.29,3.23,1.31,6.25,1.71,9.38c0,1.36,3.47,0.95,2.12-2.82c-0.76-2.12-1.32-34.62-1.31-36.1
		c0-0.53-6.2-12.4-6.25-12.5C285.54,443.18,297.3,430.62,294.23,413.46z"/>
	<path d="M216.69,216.31c-2.83,3.03-1.53,4.24,0,11.19c0.56,2.53-0.61,5.14,0.91,7.26c-2.82,5.24-3.23,10.19-1.21,15.13
		c3.36-1.81,1.16-6.19,1.71-8.07c5.04,1.51,10.08,2.42,15.23,2.12c-0.81-0.81-1.92-0.61-2.72-0.81c-15.73-3-13.43-2.34-10.39-7.66
		c2.02-0.3,3.93,0.3,6.05-0.3c-5.73-1.3-8.65-0.1-6.86-9.38c13.31,1.92,26.62,1.51,39.83,0.2c-4.64-0.07-31.32-0.65-39.83-2.22
		c-0.91-1.51-1.71-2.92-2.52-4.24C216.38,218.53,218.4,217.52,216.69,216.31z"/>
	<path d="M299.98,401.56c4.13,3.83,9.08,1.01,13.31,1.61c0.91-1.01,1.82-1.71,2.02-3.03C308.83,401.94,301.8,395.86,299.98,401.56z"
		/>
	<path d="M279.01,69.59c0.4-1.51,1.82-2.02,3.43-2.02c0.89-5.76-11.11-3.99-13.61-1.01c1.61,0.5,2.42-1.21,4.03-1.21
		c1.21,1.21,3.23,0.3,5.24,1.51c-2.82,0.81-5.65,0.4-7.76,2.22C273.16,69.79,275.88,70.19,279.01,69.59z"/>
	<path d="M705.17,217.12c-1.71-4.24-9.78-4.64-13.82,0c3.13-1.92,6.15-1.01,9.78-0.1c-3.13,0.81-5.95,0.71-8.17,2.32
		C697.41,220.45,701.64,220.65,705.17,217.12z"/>
	<path d="M186.43,470.04c-3.2,0.87-2.98,2.73-1.82,12.4c0.18,1.52,0.2,3.33,2.82,4.74C185.37,481.13,190.29,476.72,186.43,470.04z"
		/>
	<path d="M306.03,424.56c0.3-1.51,0-3.53-2.12-4.24c-0.92,1.18,1.67,5.84-0.2,11.19c-1.1,3.13-0.4,5.95,1.21,8.98
		C308.46,437.99,304.62,431.71,306.03,424.56z"/>
	<path d="M267.81,99.94c1.49-2.24-4.87-5.16-8.87-8.07c-1.31-3.43-2.52-6.76-2.02-10.99c-3.93,3.83-0.1,7.26-1.01,10.59
		C259.95,94.4,263.88,97.12,267.81,99.94z"/>
	<path d="M691.15,249.19c-6.86-7.49-11.05-3.09-11.9-17.95c-3.23,3.83,0,7.16-0.6,10.59C692.64,251.51,689.93,250.41,691.15,249.19z
		"/>
	<path d="M186.43,459.85c-1.53,2.81-0.2,6.15,0.61,9.18c3.66,0-0.78,1.53,2.52-18.25C186.03,453.2,188.03,456.92,186.43,459.85z"/>
	<path d="M625,410.34c-7.46,4.35-2.8,11.04,0.2,17.04c0.4,0.71,0.4,1.92,1.82,1.92c0.5-2.92-0.58-5.57-2.42-7.46
		C620.26,417.38,625.4,412.34,625,410.34z"/>
	<path d="M200.65,424.15c-0.67,2-2.83,9.38-1.11,10.59c3.46,2.43,3.29,9.25,7.97,10.19c-3.13-3.53-3.93-8.57-7.56-11.4
		C199.74,430.2,201.56,427.28,200.65,424.15z"/>
	<path d="M612.8,433.93c-2.22,6.45-4.44,12.3-5.45,18.66C610.78,447.45,614.11,436.56,612.8,433.93z"/>
	<path d="M602.92,486.37c1.11-6.76,0.71-13.71,3.03-20.27C602.61,470.24,601.5,478.2,602.92,486.37z"/>
	<path d="M239.58,178.5c-2.22-0.81-3.13-3.43-5.75-3.23c-2.43,4.87,8.71,4.43,11.7,5.65C243.61,179.71,242.4,176.38,239.58,178.5z"
		/>
	<path d="M305.02,449.06c-0.62-2.21,0.81-4.94-1.71-6.76c-0.91,4.74,1.01,9.28,0.61,13.92C306.13,453.9,305.71,451.49,305.02,449.06
		z"/>
	<path d="M671.59,276.92c5.65,4.13,12.91,3.23,19.16,5.85C685.1,278.54,677.64,280.05,671.59,276.92z"/>
	<path d="M636.08,407.49c-1.51-3.42-4.33-5.94-6.14-9.06c2.68,11.28,15.74,10.58,10.89,22.69
		C646.44,416.17,640.55,406.47,636.08,407.49z"/>
	<path d="M613.61,545.37c-2.52,0.5-5.24,1.21-8.27,0.91C609.6,550.92,616.11,548.29,613.61,545.37z"/>
	<path d="M703.56,244.95c2.42,1.41,3.63,1.31,7.06-0.2C707.99,241.53,705.37,241.63,703.56,244.95z"/>
	<path d="M288.39,88.65c-1.71-0.21-10.19,1.11-11.29,2.02c4.34,0.91,8.27-0.4,12.4-0.4C289.8,88.85,289.19,88.75,288.39,88.65z"/>
	<path d="M203.98,407.41c-4.88,1.11,0.37,8.43,0,13.11c2.62-2.92,0.3-4.74-0.3-6.55C204.08,411.85,204.58,409.73,203.98,407.41z"/>
	<path d="M280.82,95.1c2.42,1.01,4.64,0.71,7.26-0.5C286.59,91.6,281.61,90.9,280.82,95.1z"/>
	<path d="M700.23,239.81c0,0.5,0.1,0.91,0.1,1.41c4.03,0.3,7.97-0.2,11.9-1.61C708.2,238.8,704.26,239.61,700.23,239.81z"/>
	<path d="M282.44,134.13c4.03,0.61,6.86-2.52,10.49-3.13C288.69,129.69,285.66,132.31,282.44,134.13z"/>
	<path d="M183.41,512.79c1.41-3.03-0.5-5.75-0.4-8.57C180.58,507.55,180.68,510.68,183.41,512.79z"/>
	<path d="M220.32,217.12c3.93,0.91,7.76,0.4,11.6-0.1C228.08,216.82,224.15,216.01,220.32,217.12z"/>
	<path d="M259.24,132.82c4.13,1.61,8.57,2.02,13.01,2.42C268.12,133.22,263.68,132.92,259.24,132.82z"/>
	<path d="M690.85,268.25c0.2,3.33,1.21,6.25,3.63,8.57C694.18,273.59,693.37,270.57,690.85,268.25z"/>
	<path d="M212.75,416.79c-0.3-2.82-0.61-5.34-1.01-8.37C209.43,411.45,209.83,413.97,212.75,416.79z"/>
	<path d="M266.1,106.5c-2.62-3.73-4.03-7.36-6.76-10.19C259.85,99.44,262.97,104.18,266.1,106.5z"/>
	<path d="M615.82,432.12c0.81,3.23,3.13,5.34,5.55,7.36C619.96,436.66,619.05,433.43,615.82,432.12z"/>
	<path d="M272.35,181.32c3.13-0.91,4.34-3.83,6.05-6.15C275.68,176.48,273.46,178.3,272.35,181.32z"/>
	<path d="M275.68,238.8c-2.32,0-5.55,0-8.77,0C270.54,239.81,272.35,239.71,275.68,238.8z"/>
	<path d="M682.38,246.47c-0.3,0.2-0.61,0.4-1.01,0.61C689.31,260.17,690.74,260.26,682.38,246.47z"/>
	<path d="M615.72,408.93c2.32-1.51,5.24-2.52,5.04-6.25C619.05,404.69,616.63,406.2,615.72,408.93z"/>
	<path d="M311.98,410.64c-0.91,3.23,2.02,4.64,3.23,6.96C316.12,414.37,312.59,413.26,311.98,410.64z"/>
	<path d="M602.51,497.77c-0.61,3.73-1.61,7.36-0.2,10.99C602.21,505.13,603.72,501.4,602.51,497.77z"/>
	<path d="M273.76,131.71c-0.61-2.42-0.2-5.04-2.92-7.16C270.84,128.28,271.65,130.09,273.76,131.71z"/>
	<path d="M712.03,232.25c-2.66-1.46-7.95-0.26-5.24,2.22C707.79,232.45,710.31,234.77,712.03,232.25z"/>
	<path d="M610.28,420.62c-0.61,3.13,0,5.24,1.82,6.96C611.89,425.36,612.7,422.94,610.28,420.62z"/>
	<path d="M282.94,171.04c0.3,3.33,1.61,4.74,5.45,4.84C285.86,174.36,285.76,171.44,282.94,171.04z"/>
	<path d="M288.99,82.39c-2.42-1.71-4.54-1.21-5.55,1.41C285.16,82.8,287.48,84.21,288.99,82.39z"/>
	<path d="M302.81,148.45c-1.92-0.1-4.03-0.61-4.94,2.22C300.08,150.87,301.6,149.96,302.81,148.45z"/>
	<path d="M315.71,402.57c-1.61,1.71-1.21,3.83-1.41,5.75C316.72,405.09,316.82,404.39,315.71,402.57z"/>
	<path d="M183.71,494.94c-1.51,2.82-1.51,3.23,0.5,5.14C184.62,498.17,184.62,498.17,183.71,494.94z"/>
	<path d="M224.85,253.73c-2.72-0.5-4.64-1.51-6.86-1.11C219.81,253.93,221.83,254.74,224.85,253.73z"/>
	<path d="M246.84,180.11c1.11,2.22,3.03,2.02,4.84,2.22C250.37,181.22,249.46,179.2,246.84,180.11z"/>
	<path d="M190.37,443.11c-1.11,1.82-1.51,3.53,0.2,5.55C191.17,446.44,191.27,444.72,190.37,443.11z"/>
	<path d="M281.53,171.24c0.61-0.1,1.01-0.2,1.41-0.3c0-1.21,1.21-2.52,0.1-4.24C281.33,167.91,281.12,169.32,281.53,171.24z"/>
	<path d="M274.97,135.84c1.71,1.51,2.82,0.3,4.64-0.3C277.6,134.53,276.39,134.33,274.97,135.84z"/>
	<path d="M707.29,282.27c-2.52,0.91-4.64,1.61-7.16,2.52C703.86,285.49,704.87,285.09,707.29,282.27z"/>
	<path d="M269.53,116.98c-0.2-2.32-0.3-3.93-1.82-5.14C268.02,113.45,267.51,115.37,269.53,116.98z"/>
	<path d="M278.4,110.73c0.91-1.21,3.13-1.51,2.62-3.83C279.91,107.91,278.6,108.82,278.4,110.73z"/>
	<path d="M224.85,388.45c-0.61,1.82,0.4,2.82,2.82,4.03C226.67,390.67,226.57,389.16,224.85,388.45z"/>
	<path d="M692.57,267.24c-0.71-2.12-0.71-3.73-2.02-5.04C690.75,263.71,690.15,265.63,692.57,267.24z"/>
	<path d="M703.86,256.65c-1.41,1.61-2.62,2.62-2.92,4.34C702.25,259.98,704.16,259.37,703.86,256.65z"/>
	<path d="M311.58,438.57c0.81-1.51,0.4-3.23,1.51-5.24C310.07,434.74,311.28,436.86,311.58,438.57z"/>
	<path d="M216.99,417.3c1.71-1.01,2.12-2.02,1.41-3.83C216.99,414.57,216.58,415.58,216.99,417.3z"/>
	<path d="M288.59,176.58c1.01,2.12,2.32,2.62,3.83,3.13C291.71,178.2,290.81,177.19,288.59,176.58z"/>
	<path d="M285.97,255.85c0.71-0.4,1.61-0.4,1.92-1.51c-2.82,0.4-2.82,0.4-4.03,2.92C284.55,256.85,285.26,256.35,285.97,255.85z"/>
	<path d="M624.29,435.85c1.01-1.41,1.41-2.32,0.91-3.93C623.19,432.72,623.59,433.93,624.29,435.85z"/>
	<path d="M183.71,489.2c-0.3,2.42-0.3,2.42,1.01,3.73C185.32,491.62,185.02,490.61,183.71,489.2z"/>
	<path d="M317.43,397.33c1.41-0.5,2.12-1.51,2.62-3.33C318.24,394.71,317.73,395.92,317.43,397.33z"/>
	<path d="M216.48,421.23c-1.21-1.61-2.02-2.72-3.83-3.13C213.16,420.22,214.57,420.52,216.48,421.23z"/>
	<path d="M283.24,140.18c-1.71,0-2.92,0.2-4.84,1.41C280.62,141.89,281.83,141.59,283.24,140.18z"/>
	<path d="M261.56,230.53c0-0.14,0.39-0.1-2.62-0.1C259.08,230.58,258.67,230.53,261.56,230.53z"/>
	<path d="M620.76,466.2c1.11-0.91,1.11-1.92,0.71-3.53C620.76,463.99,620.06,464.89,620.76,466.2z"/>
	<path d="M613.71,409.33c-1.31,0.5-1.61,1.21-1.21,2.62C613.71,411.35,614.21,410.64,613.71,409.33z"/>
	<path d="M304.52,462.17c0.71-0.61,0.91-1.21,0.4-2.02C304.02,460.76,304.32,461.36,304.52,462.17z"/>
	<path d="M191.98,440.49c1.31-1.01,1.31-2.02,0.81-3.53C191.68,438.07,191.98,439.18,191.98,440.49z"/>
	<path d="M235.04,244.05c-0.61,0-1.21,0-1.71,0C233.83,244.05,234.33,244.75,235.04,244.05z"/>
	<path d="M690.15,288.32c0-0.18-0.32-0.2-0.81-0.2C689.34,288.29,689.66,288.32,690.15,288.32z"/>
	<path d="M217.8,421.53c0.2,0.3,0.5,0.5,1.01,0.2C218.6,421.13,218.2,421.13,217.8,421.53z"/>
	<path d="M626.61,311.41c-2.72,5.04-3.63,10.89-5.95,16.24c4.24-3.13,5.74-8,7.46-12.81C628.6,313.52,628.83,312.12,626.61,311.41z"
		/>
	<path d="M580.93,271.88c2.01,12.08,0.8,18.07,8.77,22.89C579.89,279.9,586.47,275.71,580.93,271.88z"/>
	<path d="M630.35,330.67c1.31,5.95,10.69,14.72,16.34,15.23C640.13,341.66,634.48,336.92,630.35,330.67z"/>
	<path d="M593.23,330.17c-0.61-5.34-1.61-9.98-4.64-14.02C589.2,320.49,591.52,328.45,593.23,330.17z"/>
	<path d="M665.34,367.48c-3.73,2.12-7.26,3.93-11.5,6.25C657.88,374.34,662.61,371.61,665.34,367.48z"/>
	<path d="M695.09,312.42c-1.82,3.13-2.22,6.66-1.41,10.29C696.14,310.73,696.09,312.92,695.09,312.42z"/>
	<path d="M692.46,331.58c2.42,0.71,4.03,3.33,7.06,3.03C696.09,330.97,694.68,330.37,692.46,331.58z"/>
	<path d="M716.16,304.35c2.62,0.4,4.13-0.2,5.55-2.02C719.59,302.13,718.08,302.43,716.16,304.35z"/>
	<path d="M673.91,334.3c1.71-0.3,3.53-0.4,5.85-0.4C677.24,332.28,675.42,332.18,673.91,334.3z"/>
	<path d="M624.29,294.97c2.22,2.32,2.22,2.32,4.44,1.01C627.02,295.68,626.01,294.37,624.29,294.97z"/>
	<path d="M681.98,333.7c1.71-0.2,2.82-0.91,3.83-1.71C684.2,331.48,683.29,332.39,681.98,333.7z"/>
	<path d="M601.3,337.33c-0.5,1.11-1.11,2.22,0.3,4.13C602.14,336.62,602.19,337.77,601.3,337.33z"/>
	<path d="M615.32,330.37c2.72-1.01,2.72-1.01,3.23-2.62C617.34,328.05,616.33,328.76,615.32,330.37z"/>
	<path d="M638.61,362.44c-0.81-0.71-1.11-1.01-1.41-1.31C637.1,361.93,637.4,362.13,638.61,362.44z"/>
	<path d="M692.36,325.73c-0.71,0.81-1.11,1.51-1.11,2.52C692.26,327.75,692.97,327.24,692.36,325.73z"/>
	<path d="M610.58,333.6c1.11-0.5,1.71-0.71,1.82-1.61C611.59,331.98,611.08,332.39,610.58,333.6z"/>
	<path d="M587.99,314.54c-0.2,0.71,0,1.21,0.71,1.51C588.6,315.54,588.9,314.84,587.99,314.54z"/>
	<path d="M681.27,350.34c1.74,0.87-11.23,4.51-13.31,13.71c4.51-6.76,14.84-12.15,14.42-15.03
		C681.47,349.02,681.47,349.73,681.27,350.34z"/>
	<path d="M740.16,411.65c1.01,0.19,2.02-0.5,3.03,0c5.04,2.92,9.97,0.87,14.92-0.3c2.21-0.52,3.83-2.12,4.24-4.94
		C753.5,411.6,724.92,408.85,740.16,411.65z"/>
	<path d="M746.52,424.86c-3.41,0.85,4.37,15.04,2.32,21.08C751.76,441.09,750.05,427.98,746.52,424.86z"/>
	<path d="M747.22,455.21c2.62-4.34,2.62-4.34,1.11-6.15C747.02,451.08,747.02,451.38,747.22,455.21z"/>
	<path d="M766.08,413.26c0.3-2.22,0.5-4.44-0.91-7.06C764.16,409.23,764.26,411.35,766.08,413.26z"/>
	<path d="M724.94,399.65c-1.92-1.61-3.83-1.31-5.65-1.21C720.6,400.86,722.41,400.66,724.94,399.65z"/>
	<path d="M766.79,414.07c0,2.42,0.91,4.03,1.51,5.75C769.11,417.7,769.31,415.88,766.79,414.07z"/>
	<path d="M735.02,502.71c-1.01,1.82-2.12,3.63-1.92,5.85C735.32,507.15,734.62,504.73,735.02,502.71z"/>
	<path d="M763.66,404.49c0.91-1.41,1.51-2.92,2.62-4.13C763.76,400.66,763.66,402.57,763.66,404.49z"/>
	<path d="M714.65,397.03c-1.51-0.81-2.32-1.71-4.13-1.11C711.83,397.13,712.73,397.63,714.65,397.03z"/>
	<path d="M727.86,412.46c-1.61-0.81-2.82-0.5-4.34-0.3C725.04,414.07,726.25,413.36,727.86,412.46z"/>
	<path d="M744.7,460.76c1.82-1.71,1.82-1.71,1.82-3.33C745.61,458.14,745,459.04,744.7,460.76z"/>
	<path d="M734.21,411.14c-1.11-0.61-1.82-0.3-2.52,0.81C733,412.56,733.81,412.46,734.21,411.14z"/>
	<path d="M722.92,506.04c0.81-1.41,0.91-2.52,0.1-4.44C722.72,503.52,722.11,504.52,722.92,506.04z"/>
	<path d="M719.39,398.34c-0.91-1.01-1.82-0.91-3.23-0.3C717.37,399.04,718.38,399.04,719.39,398.34z"/>
	<path d="M737.44,473.57c0.61,0,1.01-0.3,0.71-1.21C737.44,472.66,736.94,472.96,737.44,473.57z"/>
	<path d="M687.02,385.73c-3.13-0.3-32.77,8.07-34.89,10.08C664.73,393.8,675.72,389.46,687.02,385.73z"/>
	<path d="M590.11,394.1c-3.63,2.82-2.42,7.76,2.62,10.99C590.01,401.87,590.01,398.14,590.11,394.1z"/>
	<path d="M671.09,379.88c-10.35,5.52-10.62,5.71-10.89,6.96C665.04,385.63,669.67,382.81,671.09,379.88z"/>
	<path d="M644.46,389.87c-2.92-2.52-5.34-5.45-8.67-7.56C637.91,385.73,640.43,388.66,644.46,389.87z"/>
	<path d="M671.89,425.16c3.23-0.5,6.45-1.21,9.18-3.13C677.84,422.54,674.51,422.84,671.89,425.16z"/>
	<path d="M658.78,388.15c0.61-0.61,1.01-0.91,1.41-1.31C659.59,386.94,658.88,386.94,658.78,388.15z"/>
	<path d="M742.79,327.34c-0.4-3.43-3.73-4.84-5.24-7.56C737.94,323.21,741.68,324.42,742.79,327.34z"/>
	<path d="M745.51,329.66c0.4,2.22,0.5,4.64,3.43,6.15C749.04,332.59,747.42,331.07,745.51,329.66z"/>
	<path d="M773.85,296.18c0.5-0.5,1.11-0.81,0.4-1.61C773.34,294.87,773.54,295.48,773.85,296.18z"/>
	<path d="M776.37,270.27c0.71,0.3,1.21,0.2,1.51-0.91C777.17,269.26,776.57,268.95,776.37,270.27z"/>
	<path d="M735.52,534.48c3.76,0.08,3.66,0.23,4.13-3.03c0.83-5.73-7.79-6.72-8.17-1.21C731.34,532.46,733.1,534.42,735.52,534.48z
		 M733.41,530.14c0.2-2.41,4.35-3.11,4.54,0.81c-1.41-0.2-2.72-0.2-2.22,1.71C733.81,532.56,733.29,531.55,733.41,530.14z"/>
	<path d="M726.55,525.8c-5.4,0.25-5.1,8.09,0.3,7.97C732.59,533.64,732.05,525.55,726.55,525.8z M726.85,532.16
		c-3.39-0.45-2.88-4.44-0.2-4.64C729.73,527.29,730.02,531.67,726.85,532.16z"/>
	<path d="M715.86,525.5c-0.3,2.32-0.81,4.64-0.5,6.96c2.23,0.59,1.41-3.83,3.83-0.71c0.4,0.51,0.71,1.21,2.02,1.11
		c-0.2-1.31-0.69-2.51,0.4-3.73C724.19,526.23,718.44,524.47,715.86,525.5z M719.69,528.32c-1.11,0.81-2.12,0.91-2.42-1.11
		C720.02,526.3,720.38,527.98,719.69,528.32z"/>
	<path d="M219.91,166.4c-2.02-4.44-3.33-8.77-6.55-12.2C211.44,157.62,214.77,163.78,219.91,166.4z"/>
	<path d="M209.73,162.36c1.11,3.63,0.2,7.06-1.01,10.59C215.9,165.77,212.94,159.34,209.73,162.36z"/>
	<path d="M175.04,187.37c-1.11-6.05-3.73-11.6-6.05-17.24C170,176.18,172.42,181.83,175.04,187.37z"/>
	<path d="M160.42,131.3c-1.51,2.62-0.91,4.64,2.12,6.76C161.73,135.64,162.53,133.12,160.42,131.3z"/>
	<path d="M204.38,180.62c1.61-1.71,3.53-3.13,4.03-5.75C205.49,175.78,204.69,177.99,204.38,180.62z"/>
	<path d="M206.2,150.67c2.12,1.31,4.44,0.81,6.66,2.02C211.64,149.35,210.43,149.05,206.2,150.67z"/>
	<path d="M154.26,133.72c-0.5,2.92-0.2,5.65,2.32,7.66C155.57,138.97,155.78,136.14,154.26,133.72z"/>
	<path d="M203.27,184.75c-2.52,1.21-5.04,1.71-7.06,3.83C199.85,188.08,201.66,187.07,203.27,184.75z"/>
	<path d="M164.25,160.35c-0.5-2.62-0.91-5.34-2.62-7.46C161.63,155.71,163.44,157.83,164.25,160.35z"/>
	<path d="M204.48,151.27c-1.71-0.4-2.72-0.2-3.43,1.51C202.67,153.09,203.37,152.28,204.48,151.27z"/>
	<path d="M156.48,141.49c0.3,0.91,0.61,1.92,1.11,3.53C158,143,157.49,142.09,156.48,141.49z"/>
	<path d="M175.04,165.79c-0.2-1.21-0.5-2.42-1.41-3.33C173.52,163.78,174.03,164.88,175.04,165.79z"/>
	<path d="M326.3,201.29c-1.82-2.22-2.32-5.14-4.84-7.56C321.36,199.17,323.28,201.99,326.3,201.29z"/>
	<path d="M342.03,170.73c-0.72,0.54-2.09,0.84-1.11,2.02C341.53,172.25,342.84,172.25,342.03,170.73z"/>
	<path d="M345.87,165.49c-1.11,0.4-1.71,0.81-1.51,1.82C345.46,167.41,345.56,166.6,345.87,165.49z"/>
	<path d="M353.46,133.84c-0.42,1.22,1.18,1.05,1.41,0.35C355.4,132.64,353.8,132.85,353.46,133.84z"/>
	<path d="M317.23,188.28c-0.3-1.21-0.91-1.61-2.02-1.82C315.51,187.88,316.12,188.18,317.23,188.28z"/>
	<path d="M319.24,190.5c0.2,0.71,0.1,1.51,1.41,1.71C320.45,191.41,320.55,190.7,319.24,190.5z"/>
	<path d="M213.56,276.42c-0.31-1.31-0.2-2.92-2.02-4.03c-0.1,2.32,0.7,4.14,1.21,6.15c4.53,17.81,17.64,12.53,16.64,25.61
		c-0.52,6.76,0.3,13.41,4.03,19.66c4.57-3.42-1.26-4.12-1.61-21.68C231.57,289.97,217.78,294.39,213.56,276.42z"/>
	<path d="M280.92,297.29c5.34,4.13,9.28,8.67,12,14.32c-0.71,1.61-2.92,2.92-0.91,6.05c2.42-4.94,6.55-7.66,10.39-10.69
		c-3.03,0.5-5.65,1.71-8.07,3.53C292.92,303.65,285.97,296.28,280.92,297.29z"/>
	<path d="M290.5,347.21c-8.67-4.03-17.55-7.56-26.52-10.99C272.15,341.66,280.92,345.29,290.5,347.21z"/>
	<path d="M269.63,275.81c-2.62,7.36-2.62,14.72,0,22.08C269.43,290.54,269.63,283.17,269.63,275.81z"/>
	<path d="M261.56,274.3c-1.71,9.48-0.3,18.66,2.32,27.73C263.07,292.75,261.16,283.68,261.56,274.3z"/>
	<path d="M276.49,272.69c3.53,4.24,2.12,9.48,3.13,14.22C281.43,278.23,280.52,273.9,276.49,272.69z"/>
	<path d="M209.22,288.92c-2.32,5.85-1.01,11.6,0.3,17.45c0-2.92-0.1-5.95-0.2-8.87C209.23,294.67,210.94,291.75,209.22,288.92z"/>
	<path d="M269.33,333.9c4.84-3.13,10.19-4.44,15.63-5.24C277.39,327.54,269.93,330.07,269.33,333.9z"/>
	<path d="M264.99,304.55c0.61,6.45-0.4,12.91-0.91,19.36C266.3,317.56,266.2,311.11,264.99,304.55z"/>
	<path d="M251.01,267.21c-0.89,0.45,0.42,1.47-0.34,1.95c-1.01-0.1-0.71-1.71-2.02-1.51c-0.91,0.4-1.21,1.41-0.61,2.22
		c1.31,1.51,2.92,0.71,4.64,0.4C252.59,269.95,251.9,266.68,251.01,267.21z"/>
	<path d="M276.82,270.92c-2.49,0.3-5.03-0.21-7.49,0.55C271.96,272.32,274.38,271.47,276.82,270.92z"/>
	<path d="M276.82,270.92c0.46-0.06,0.92-0.13,1.38-0.25C277.74,270.73,277.28,270.82,276.82,270.92z"/>
	<path d="M232.52,267.64c3.05,2.7,10.29,4.75,7.26,0C237.26,271.17,235.04,266.53,232.52,267.64z"/>
	<path d="M268.72,320.39c-2.12,0.91-2.12,0.91-1.21,2.62C267.91,322.2,268.62,321.49,268.72,320.39z"/>
	<path d="M223.54,271.58c-0.91,1.21-0.91,1.21-0.3,2.72C224.15,273.39,224.05,272.59,223.54,271.58z"/>
	<path d="M244.01,268.85c-1.21,1.51-0.4,1.92,1.21,2.32C245.53,269.66,245.22,269.06,244.01,268.85z"/>
	<path d="M259.44,269.96c0.72-1.01,0.09-1.63-0.71-2.62C258.31,268.61,258.66,269.28,259.44,269.96z"/>
	<path d="M278,268.45c0.91-0.4,1.41-1.21,1.41-2.32c-0.3-0.06-0.88-0.09-1.31-0.2C278.4,266.74,276.79,267.44,278,268.45z"/>
	<path d="M255.61,267.64c-0.4,1.31-0.3,1.92,1.01,1.82C256.82,268.75,256.32,268.35,255.61,267.64z"/>
	<path d="M321.06,529.43c-5.01-0.6-8.49,7.99,2.72,7.56C324.79,531.75,324.08,530.04,321.06,529.43z M320.55,535.58
		c-3.73-0.98-2.34-4.65-0.2-4.44c1.31,0,2.32,0.71,2.32,2.52C321.66,533.97,319.65,533.06,320.55,535.58z"/>
	<path d="M311.48,528.12c-5.12,0-5.33,7.53-0.1,7.76C316.61,536.13,317.1,528.12,311.48,528.12z M311.48,534.17
		c-2.74,0-3.14-3.97-0.1-4.44C314.69,530.01,314.34,534.17,311.48,534.17z"/>
	<path d="M300.59,528.02c0.4,2.12-1.01,4.34-0.1,6.55c1.51,0,1.01-1.61,2.22-1.92c1.51,0.3,1.51,2.62,3.53,2.32
		c-0.5-1.41-0.8-2.52,0.2-3.83C308.75,528.14,303.02,526.23,300.59,528.02z M302,529.94c1.21-1.11,2.12-0.91,3.53,0.3
		C303.92,531.05,303.01,531.45,302,529.94z"/>
<path fill="#e6e6e6" d="m206.8 163.6c0-5.1 4.1-9.2 9.3-9.2s9.2 4.2 9.2 9.2-4.1 9.2-9.3 9.2-9.2-4.1-9.2-9.2zm17.3-.1c0-4.5-3.5-8.2-8.2-8.2s-8.2 3.7-8.2 8.3c0 4.5 3.5 8.2 8.2 8.2s8.2-3.7 8.2-8.3zm-13 0c0-2.8 2.1-5.1 5.1-5.1 1.9 0 2.9.6 3.9 1.5l-1.4 1.7c-.8-.7-1.5-1.1-2.5-1.1-1.7 0-2.8 1.4-2.8 3.1s1.1 3 2.8 3c1.1 0 1.7-.5 2.5-1.1l1.4 1.4c-1.1 1.1-2.1 1.7-4 1.7-2.9 0-5-2.3-5-5.1z"/><path fill="#e6e6e6" d="m226.6 154.7h3.4l4.2 13.2 4.4-13.3h2.6l4.4 13.3 4.2-13.2h3.3l-6.2 18h-2.7l-4.4-12.8-4.4 12.8h-2.7z"/><path fill="#e6e6e6" d="m252.8 165.8c0-3.9 3.1-7 7.2-7 4.2 0 7.2 3.2 7.2 7s-3.1 7-7.3 7c-4 0-7.1-3.1-7.1-7zm11.3 0c0-2.3-1.7-4.3-4.2-4.3s-4.1 2-4.1 4.3 1.7 4.3 4.1 4.3c2.7.1 4.2-1.9 4.2-4.3z"/><path fill="#e6e6e6" d="m269.5 159.1h3.1v3c.8-2 2.4-3.4 4.8-3.3v3.2h-.2c-2.7 0-4.6 1.7-4.6 5.4v5.1h-3.1z"/><path fill="#e6e6e6" d="m279.1 153.9h3.1v11.1l5.6-6h3.8l-5.4 5.5 5.5 8h-3.5l-4.1-5.8-1.9 2v3.9h-3.1z"/><path fill="#e6e6e6" d="m291.7 165.8c0-3.9 3.1-7 7.2-7 4.2 0 7.2 3.2 7.2 7s-3.1 7-7.3 7c-4 0-7.1-3.1-7.1-7zm11.3 0c0-2.3-1.7-4.3-4.2-4.3s-4.1 2-4.1 4.3 1.7 4.3 4.1 4.3c2.6.1 4.2-1.9 4.2-4.3z"/><path fill="#e6e6e6" d="m308.2 167.6v-8.6h3.1v7.6c0 2.1 1.1 3.3 2.9 3.3s3-1.3 3-3.3v-7.6h3.1v13.4h-3.1v-2.1c-.8 1.3-2.1 2.3-4.2 2.3-3.1.2-4.8-1.8-4.8-5z"/><path fill="#e6e6e6" d="m323.9 168.8v-7.1h-1.7v-2.6h1.7v-3.7h3.1v3.7h3.6v2.6h-3.6v6.6c0 1.2.6 1.7 1.7 1.7.7 0 1.3-.2 1.9-.5v2.5c-.8.5-1.7.7-2.8.7-2.3 0-3.9-.9-3.9-3.9z"/><path fill="#e6e6e6" d="m333.2 154.7h3.2v15h9.4v2.9h-12.5v-17.9z"/><path fill="#e6e6e6" d="m356 172.5v-1.7c-.9 1.1-2.3 2-4.4 2-2.6 0-4.8-1.4-4.8-4.2 0-3 2.3-4.4 5.4-4.4 1.7 0 2.6.2 3.7.5v-.2c0-1.9-1.2-2.9-3.3-2.9-1.5 0-2.6.3-3.9.8l-.8-2.5c1.5-.7 2.9-1.1 5.1-1.1 4 0 5.9 2.1 5.9 5.7v8zm.1-5.6c-.8-.3-1.9-.5-3.1-.5-2 0-3.1.8-3.1 2.1s1.1 2 2.6 2c2 0 3.5-1.1 3.5-2.9z"/><path fill="#e6e6e6" d="m364.9 170.5v2.1h-3.1v-18.7h3.1v7.4c1-1.4 2.4-2.5 4.5-2.5 3.2 0 6.3 2.5 6.3 7s-3.1 7-6.3 7c-2.1 0-3.5-1.1-4.5-2.3zm7.7-4.7c0-2.6-1.7-4.3-3.9-4.3s-3.9 1.7-3.9 4.4c0 2.6 1.8 4.3 3.9 4.3s3.9-1.7 3.9-4.4z"/><path fill="#e6e6e6" d="m376.9 170.8 1.4-2.1c1.4 1.1 3 1.7 4.4 1.7s2.1-.5 2.1-1.5-1.3-1.4-2.8-1.8c-.1 0-.2-.1-.2-.1-2-.6-4.2-1.4-4.2-4s2.1-4.1 4.8-4.1c1.7 0 3.5.6 5 1.5l-1.2 2.2c-1.3-.8-2.6-1.3-3.8-1.3s-1.9.5-1.9 1.4 1.3 1.4 2.8 1.8c.1 0 .2.1.2.1 2 .6 4.2 1.5 4.2 4 0 2.9-2.2 4.2-5 4.2-1.9 0-4-.7-5.8-2z"/><path fill="#e6e6e6" d="m505.6 163.6c0-5.1 4.1-9.2 9.3-9.2s9.2 4.2 9.2 9.2-4.1 9.2-9.3 9.2-9.2-4.1-9.2-9.2zm17.4-.1c0-4.5-3.5-8.2-8.2-8.2s-8.2 3.7-8.2 8.3c0 4.5 3.5 8.2 8.2 8.2s8.2-3.7 8.2-8.3zm-13.1 0c0-2.8 2.1-5.1 5.1-5.1 1.9 0 2.9.6 3.9 1.5l-1.4 1.7c-.8-.7-1.5-1.1-2.5-1.1-1.7 0-2.8 1.4-2.8 3.1s1.1 3 2.8 3c1.1 0 1.7-.5 2.5-1.1l1.4 1.4c-1.1 1.1-2.1 1.7-4 1.7-2.9 0-5-2.3-5-5.1z"/><path fill="#e6e6e6" d="m525.4 154.7h3.4l4.2 13.2 4.4-13.3h2.6l4.4 13.3 4.2-13.2h3.3l-6.2 18h-2.7l-4.4-12.8-4.4 12.8h-2.7z"/><path fill="#e6e6e6" d="m551.7 165.8c0-3.9 3.1-7 7.2-7 4.2 0 7.2 3.2 7.2 7s-3.1 7-7.3 7c-4.1 0-7.1-3.1-7.1-7zm11.2 0c0-2.3-1.7-4.3-4.2-4.3s-4.1 2-4.1 4.3 1.7 4.3 4.1 4.3c2.7.1 4.2-1.9 4.2-4.3z"/><path fill="#e6e6e6" d="m568.3 159.1h3.1v3c.8-2 2.4-3.4 4.8-3.3v3.2h-.2c-2.7 0-4.6 1.7-4.6 5.4v5.1h-3.1z"/><path fill="#e6e6e6" d="m577.9 153.9h3.1v11.1l5.6-6h3.8l-5.4 5.5 5.5 8h-3.5l-4.1-5.8-1.9 2v3.9h-3.1z"/><path fill="#e6e6e6" d="m590.6 165.8c0-3.9 3.1-7 7.2-7 4.2 0 7.2 3.2 7.2 7s-3.1 7-7.3 7c-4.1 0-7.1-3.1-7.1-7zm11.2 0c0-2.3-1.7-4.3-4.2-4.3s-4.1 2-4.1 4.3 1.7 4.3 4.1 4.3c2.6.1 4.2-1.9 4.2-4.3z"/><path fill="#e6e6e6" d="m607 167.6v-8.6h3.1v7.6c0 2.1 1.1 3.3 2.9 3.3s3-1.3 3-3.3v-7.6h3.1v13.4h-3.1v-2.1c-.8 1.3-2.1 2.3-4.2 2.3-3 .2-4.8-1.8-4.8-5z"/><path fill="#e6e6e6" d="m622.7 168.8v-7.1h-1.7v-2.6h1.7v-3.7h3.1v3.7h3.6v2.6h-3.6v6.6c0 1.2.6 1.7 1.7 1.7.7 0 1.3-.2 1.9-.5v2.5c-.8.5-1.7.7-2.8.7-2.3 0-3.9-.9-3.9-3.9z"/><path fill="#e6e6e6" d="m632 154.7h3.2v15h9.4v2.9h-12.6z"/><path fill="#e6e6e6" d="m654.8 172.5v-1.7c-.9 1.1-2.3 2-4.4 2-2.6 0-4.8-1.4-4.8-4.2 0-3 2.3-4.4 5.4-4.4 1.7 0 2.6.2 3.7.5v-.2c0-1.9-1.2-2.9-3.3-2.9-1.5 0-2.6.3-3.9.8l-.8-2.5c1.5-.7 2.9-1.1 5.1-1.1 4 0 5.9 2.1 5.9 5.7v8zm.1-5.6c-.8-.3-1.9-.5-3.1-.5-2 0-3.1.8-3.1 2.1s1.1 2 2.6 2c2 0 3.5-1.1 3.5-2.9z"/><path fill="#e6e6e6" d="m663.7 170.5v2.1h-3.1v-18.7h3.1v7.4c1-1.4 2.4-2.5 4.5-2.5 3.2 0 6.3 2.5 6.3 7s-3.1 7-6.3 7c-2.1 0-3.5-1.1-4.5-2.3zm7.8-4.7c0-2.6-1.7-4.3-3.9-4.3-2.1 0-3.9 1.7-3.9 4.4 0 2.6 1.8 4.3 3.9 4.3s3.9-1.7 3.9-4.4z"/><path fill="#e6e6e6" d="m675.8 170.8 1.4-2.1c1.4 1.1 3 1.7 4.4 1.7s2.1-.5 2.1-1.5-1.3-1.4-2.8-1.8c-.1 0-.2-.1-.2-.1-2-.6-4.2-1.4-4.2-4s2.1-4.1 4.8-4.1c1.7 0 3.5.6 5 1.5l-1.2 2.2c-1.3-.8-2.6-1.3-3.8-1.3s-1.9.5-1.9 1.4 1.3 1.4 2.8 1.8c.1 0 .2.1.2.1 2 .6 4.2 1.5 4.2 4 0 2.9-2.2 4.2-5 4.2-2 0-4.1-.7-5.8-2z"/><path fill="#e6e6e6" d="m61 298.6c0-5.1 4.1-9.2 9.3-9.2s9.2 4.2 9.2 9.2-4.1 9.2-9.3 9.2c-5.1 0-9.2-4.2-9.2-9.2zm17.4-.1c0-4.5-3.5-8.2-8.2-8.2s-8.2 3.7-8.2 8.3c0 4.5 3.5 8.2 8.2 8.2s8.2-3.7 8.2-8.3zm-13.1-.1c0-2.8 2.1-5.1 5.1-5.1 1.9 0 2.9.6 3.9 1.5l-1.4 1.7c-.8-.7-1.5-1.1-2.5-1.1-1.7 0-2.8 1.4-2.8 3.1s1.1 3 2.8 3c1.1 0 1.7-.5 2.5-1.1l1.4 1.4c-1.1 1.1-2.1 1.7-4 1.7-2.8.1-5-2.2-5-5.1z"/><path fill="#e6e6e6" d="m80.9 289.7h3.4l4.2 13.2 4.4-13.3h2.6l4.4 13.3 4.2-13.2h3.3l-6.2 18h-2.7l-4.4-12.8-4.4 12.8h-2.7z"/><path fill="#e6e6e6" d="m107.1 300.8c0-3.9 3.1-7 7.2-7s7.2 3.2 7.2 7-3.1 7-7.3 7c-4 0-7.1-3.1-7.1-7zm11.3 0c0-2.3-1.7-4.3-4.2-4.3s-4.1 2-4.1 4.3 1.7 4.3 4.1 4.3c2.6.1 4.2-1.9 4.2-4.3z"/><path fill="#e6e6e6" d="m123.7 294h3.1v3c.8-2 2.4-3.4 4.8-3.3v3.2h-.2c-2.7 0-4.6 1.7-4.6 5.4v5.1h-3.1z"/><path fill="#e6e6e6" d="m133.4 288.9h3.1v11.1l5.6-6h3.8l-5.4 5.5 5.5 8h-3.5l-4.1-5.8-1.9 1.9v3.9h-3.1z"/><path fill="#e6e6e6" d="m146 300.8c0-3.9 3.1-7 7.2-7s7.2 3.2 7.2 7-3.1 7-7.3 7c-4.1 0-7.1-3.1-7.1-7zm11.2 0c0-2.3-1.7-4.3-4.2-4.3s-4.1 2-4.1 4.3 1.7 4.3 4.1 4.3c2.6.1 4.2-1.9 4.2-4.3z"/><path fill="#e6e6e6" d="m162.4 302.6v-8.6h3.1v7.6c0 2.1 1.1 3.3 2.9 3.3s3-1.3 3-3.3v-7.6h3.1v13.4h-3.1v-2.1c-.8 1.3-2.1 2.3-4.2 2.3-3 .2-4.8-1.8-4.8-5z"/><path fill="#e6e6e6" d="m178.1 303.8v-7.1h-1.7v-2.7h1.7v-3.7h3.1v3.7h3.6v2.6h-3.6v6.6c0 1.2.6 1.7 1.7 1.7.7 0 1.3-.2 1.9-.5v2.5c-.8.5-1.7.7-2.8.7-2.3.1-3.9-.9-3.9-3.8z"/><path fill="#e6e6e6" d="m187.4 289.7h3.2v15h9.4v2.9h-12.5v-17.9z"/><path fill="#e6e6e6" d="m210.2 307.5v-1.7c-.9 1.1-2.3 2-4.4 2-2.6 0-4.8-1.4-4.8-4.2 0-3 2.3-4.4 5.4-4.4 1.7 0 2.6.2 3.7.5v-.2c0-1.9-1.2-2.9-3.3-2.9-1.5 0-2.6.3-3.9.8l-.8-2.5c1.5-.7 2.9-1.1 5.1-1.1 4 0 5.9 2.1 5.9 5.7v8zm.1-5.6c-.8-.3-1.9-.5-3.1-.5-2 0-3.1.8-3.1 2.1s1.1 2 2.6 2c2 0 3.5-1.1 3.5-2.9z"/><path fill="#e6e6e6" d="m219.2 305.5v2.1h-3.1v-18.7h3.1v7.4c1-1.4 2.4-2.5 4.5-2.5 3.2 0 6.3 2.5 6.3 7s-3.1 7-6.3 7c-2.2 0-3.6-1.1-4.5-2.3zm7.7-4.7c0-2.6-1.7-4.3-3.9-4.3s-3.9 1.7-3.9 4.4c0 2.6 1.8 4.3 3.9 4.3s3.9-1.7 3.9-4.4z"/><path fill="#e6e6e6" d="m231.2 305.8 1.4-2.1c1.4 1.1 3 1.7 4.4 1.7s2.1-.5 2.1-1.5-1.3-1.4-2.8-1.8c-.1 0-.2-.1-.2-.1-2-.6-4.2-1.4-4.2-4s2.1-4.1 4.8-4.1c1.7 0 3.5.6 5 1.5l-1.2 2.2c-1.3-.8-2.6-1.3-3.8-1.3s-1.9.5-1.9 1.4 1.3 1.4 2.8 1.8c.1 0 .2.1.2.1 2 .6 4.2 1.5 4.2 4 0 2.9-2.2 4.2-5 4.2-2 0-4.1-.7-5.8-2z"/><path fill="#e6e6e6" d="m360.6 298.6c0-5.1 4.1-9.2 9.3-9.2s9.2 4.2 9.2 9.2-4.1 9.2-9.3 9.2-9.2-4.2-9.2-9.2zm17.4-.1c0-4.5-3.5-8.2-8.2-8.2s-8.2 3.7-8.2 8.3c0 4.5 3.5 8.2 8.2 8.2s8.2-3.7 8.2-8.3zm-13.1-.1c0-2.8 2.1-5.1 5.1-5.1 1.9 0 2.9.6 3.9 1.5l-1.4 1.7c-.8-.7-1.5-1.1-2.5-1.1-1.7 0-2.8 1.4-2.8 3.1s1.1 3 2.8 3c1.1 0 1.7-.5 2.5-1.1l1.4 1.4c-1.1 1.1-2.1 1.7-4 1.7-2.8.1-5-2.2-5-5.1z"/><path fill="#e6e6e6" d="m380.5 289.7h3.4l4.2 13.2 4.4-13.3h2.6l4.4 13.3 4.2-13.2h3.3l-6.2 18h-2.7l-4.4-12.8-4.4 12.8h-2.7z"/><path fill="#e6e6e6" d="m406.7 300.8c0-3.9 3.1-7 7.2-7 4.2 0 7.2 3.2 7.2 7s-3.1 7-7.3 7c-4.1 0-7.1-3.1-7.1-7zm11.3 0c0-2.3-1.7-4.3-4.2-4.3s-4.1 2-4.1 4.3 1.7 4.3 4.1 4.3c2.7.1 4.2-1.9 4.2-4.3z"/><path fill="#e6e6e6" d="m423.3 294h3.1v3c.8-2 2.4-3.4 4.8-3.3v3.2h-.2c-2.7 0-4.6 1.7-4.6 5.4v5.1h-3.1z"/><path fill="#e6e6e6" d="m433 288.9h3.1v11.1l5.6-6h3.8l-5.4 5.5 5.5 8h-3.5l-4.1-5.8-1.9 2v3.9h-3.1z"/><path fill="#e6e6e6" d="m445.6 300.8c0-3.9 3.1-7 7.2-7 4.2 0 7.2 3.2 7.2 7s-3.1 7-7.3 7c-4.1 0-7.1-3.1-7.1-7zm11.3 0c0-2.3-1.7-4.3-4.2-4.3s-4.1 2-4.1 4.3 1.7 4.3 4.1 4.3c2.6.1 4.2-1.9 4.2-4.3z"/><path fill="#e6e6e6" d="m462.1 302.6v-8.6h3.1v7.6c0 2.1 1.1 3.3 2.9 3.3s3-1.3 3-3.3v-7.6h3.1v13.4h-3.1v-2.1c-.8 1.3-2.1 2.3-4.2 2.3-3.1.2-4.8-1.8-4.8-5z"/><path fill="#e6e6e6" d="m477.8 303.8v-7.1h-1.8v-2.7h1.7v-3.7h3.1v3.7h3.6v2.6h-3.6v6.6c0 1.2.6 1.7 1.7 1.7.7 0 1.3-.2 1.9-.5v2.5c-.8.5-1.7.7-2.8.7-2.2.1-3.8-.9-3.8-3.8z"/><path fill="#e6e6e6" d="m487.1 289.7h3.2v15h9.4v2.9h-12.5v-17.9z"/><path fill="#e6e6e6" d="m509.9 307.5v-1.7c-.9 1.1-2.3 2-4.4 2-2.6 0-4.8-1.4-4.8-4.2 0-3 2.3-4.4 5.4-4.4 1.7 0 2.6.2 3.7.5v-.2c0-1.9-1.2-2.9-3.3-2.9-1.5 0-2.6.3-3.9.8l-.8-2.5c1.5-.7 2.9-1.1 5.1-1.1 4 0 5.9 2.1 5.9 5.7v8zm.1-5.6c-.8-.3-1.9-.5-3.1-.5-2 0-3.1.8-3.1 2.1s1.1 2 2.6 2c2 0 3.5-1.1 3.5-2.9z"/><path fill="#e6e6e6" d="m518.8 305.5v2.1h-3.1v-18.7h3.1v7.4c1-1.4 2.4-2.5 4.5-2.5 3.2 0 6.3 2.5 6.3 7s-3.1 7-6.3 7c-2.2 0-3.5-1.1-4.5-2.3zm7.7-4.7c0-2.6-1.7-4.3-3.9-4.3s-3.9 1.7-3.9 4.4c0 2.6 1.8 4.3 3.9 4.3s3.9-1.7 3.9-4.4z"/><path fill="#e6e6e6" d="m530.8 305.8 1.4-2.1c1.4 1.1 3 1.7 4.4 1.7s2.1-.5 2.1-1.5-1.3-1.4-2.8-1.8c-.1 0-.2-.1-.2-.1-2-.6-4.2-1.4-4.2-4s2.1-4.1 4.8-4.1c1.7 0 3.5.6 5 1.5l-1.2 2.2c-1.3-.8-2.6-1.3-3.8-1.3s-1.9.5-1.9 1.4 1.3 1.4 2.8 1.8c.1 0 .2.1.2.1 2 .6 4.2 1.5 4.2 4 0 2.9-2.2 4.2-5 4.2-1.9 0-4.1-.7-5.8-2z"/><path fill="#e6e6e6" d="m659.5 298.6c0-5.1 4.1-9.2 9.3-9.2s9.2 4.2 9.2 9.2-4.1 9.2-9.3 9.2-9.2-4.2-9.2-9.2zm17.3-.1c0-4.5-3.5-8.2-8.2-8.2s-8.2 3.7-8.2 8.3c0 4.5 3.5 8.2 8.2 8.2 4.8 0 8.2-3.7 8.2-8.3zm-13-.1c0-2.8 2.1-5.1 5.1-5.1 1.9 0 2.9.6 3.9 1.5l-1.4 1.7c-.8-.7-1.5-1.1-2.5-1.1-1.7 0-2.8 1.4-2.8 3.1s1.1 3 2.8 3c1.1 0 1.7-.5 2.5-1.1l1.4 1.4c-1.1 1.1-2.1 1.7-4 1.7-2.9.1-5-2.2-5-5.1z"/><path fill="#e6e6e6" d="m679.3 289.7h3.4l4.2 13.2 4.4-13.3h2.6l4.4 13.3 4.2-13.2h3.3l-6.2 18h-2.6l-4.4-12.8-4.4 12.8h-2.7z"/><path fill="#e6e6e6" d="m705.5 300.8c0-3.9 3.1-7 7.2-7 4.2 0 7.2 3.2 7.2 7s-3.1 7-7.3 7c-4 0-7.1-3.1-7.1-7zm11.3 0c0-2.3-1.7-4.3-4.2-4.3s-4.1 2-4.1 4.3 1.7 4.3 4.1 4.3c2.7.1 4.2-1.9 4.2-4.3z"/><path fill="#e6e6e6" d="m722.1 294h3.1v3c.8-2 2.4-3.4 4.8-3.3v3.2h-.2c-2.7 0-4.6 1.7-4.6 5.4v5.1h-3.1z"/><path fill="#e6e6e6" d="m731.8 288.9h3.1v11.1l5.6-6h3.8l-5.4 5.5 5.5 8h-3.5l-4.1-5.8-1.9 2v3.9h-3.1z"/><path fill="#e6e6e6" d="m744.4 300.8c0-3.9 3.1-7 7.2-7 4.2 0 7.2 3.2 7.2 7s-3.1 7-7.3 7c-4.1 0-7.1-3.1-7.1-7zm11.3 0c0-2.3-1.7-4.3-4.2-4.3s-4.1 2-4.1 4.3 1.7 4.3 4.1 4.3c2.6.1 4.2-1.9 4.2-4.3z"/><path fill="#e6e6e6" d="m760.9 302.6v-8.6h3.1v7.6c0 2.1 1.1 3.3 2.9 3.3s3-1.3 3-3.3v-7.6h3.1v13.4h-3.1v-2.1c-.8 1.3-2.1 2.3-4.2 2.3-3.1.2-4.8-1.8-4.8-5z"/><path fill="#e6e6e6" d="m776.6 303.8v-7.1h-1.7v-2.7h1.7v-3.7h3.1v3.7h3.6v2.6h-3.6v6.6c0 1.2.6 1.7 1.7 1.7.7 0 1.3-.2 1.9-.5v2.5c-.8.5-1.7.7-2.8.7-2.3.1-3.9-.9-3.9-3.8z"/><path fill="#e6e6e6" d="m785.9 289.7h3.2v15h9.4v2.9h-12.5v-17.9z"/><path fill="#e6e6e6" d="m808.7 307.5v-1.7c-.9 1.1-2.3 2-4.4 2-2.6 0-4.8-1.4-4.8-4.2 0-3 2.3-4.4 5.4-4.4 1.7 0 2.6.2 3.7.5v-.2c0-1.9-1.2-2.9-3.3-2.9-1.5 0-2.6.3-3.9.8l-.8-2.5c1.5-.7 2.9-1.1 5.1-1.1 4 0 5.9 2.1 5.9 5.7v8zm.1-5.6c-.8-.3-1.9-.5-3.1-.5-2 0-3.1.8-3.1 2.1s1.1 2 2.6 2c2 0 3.5-1.1 3.5-2.9z"/><path fill="#e6e6e6" d="m817.6 305.5v2.1h-3.1v-18.7h3.1v7.4c1-1.4 2.4-2.5 4.5-2.5 3.2 0 6.3 2.5 6.3 7s-3.1 7-6.3 7c-2.1 0-3.5-1.1-4.5-2.3zm7.7-4.7c0-2.6-1.7-4.3-3.9-4.3-2.1 0-3.9 1.7-3.9 4.4 0 2.6 1.8 4.3 3.9 4.3 2.2 0 3.9-1.7 3.9-4.4z"/><path fill="#e6e6e6" d="m829.6 305.8 1.4-2.1c1.4 1.1 3 1.7 4.4 1.7s2.1-.5 2.1-1.5-1.3-1.4-2.8-1.8c-.1 0-.2-.1-.2-.1-2-.6-4.2-1.4-4.2-4s2.1-4.1 4.8-4.1c1.7 0 3.5.6 5 1.5l-1.2 2.2c-1.3-.8-2.6-1.3-3.8-1.3s-1.9.5-1.9 1.4 1.3 1.4 2.8 1.8c.1 0 .2.1.2.1 2 .6 4.2 1.5 4.2 4 0 2.9-2.2 4.2-5 4.2-1.9 0-4-.7-5.8-2z"/><path fill="#e6e6e6" d="m206.3 434.2c0-5.1 4.1-9.2 9.3-9.2s9.2 4.2 9.2 9.2-4.1 9.2-9.3 9.2-9.2-4.1-9.2-9.2zm17.4-.1c0-4.5-3.5-8.2-8.2-8.2s-8.2 3.7-8.2 8.3c0 4.5 3.5 8.2 8.2 8.2s8.2-3.7 8.2-8.3zm-13.1-.1c0-2.8 2.1-5.1 5.1-5.1 1.9 0 2.9.6 3.9 1.5l-1.4 1.7c-.8-.7-1.5-1.1-2.5-1.1-1.7 0-2.8 1.4-2.8 3.1s1.1 3 2.8 3c1.1 0 1.7-.5 2.5-1.1l1.4 1.4c-1.1 1.1-2.1 1.7-4 1.7-2.9.1-5-2.2-5-5.1z"/><path fill="#e6e6e6" d="m226.1 425.3h3.4l4.2 13.2 4.4-13.3h2.6l4.4 13.3 4.2-13.2h3.3l-6.2 18h-2.7l-4.4-12.8-4.4 12.8h-2.7z"/><path fill="#e6e6e6" d="m252.4 436.4c0-3.9 3.1-7 7.2-7 4.2 0 7.2 3.2 7.2 7s-3.1 7-7.3 7c-4.1 0-7.1-3.1-7.1-7zm11.2 0c0-2.3-1.7-4.3-4.2-4.3s-4.1 2-4.1 4.3 1.7 4.3 4.1 4.3c2.7.1 4.2-1.9 4.2-4.3z"/><path fill="#e6e6e6" d="m269 429.7h3.1v3c.8-2 2.4-3.4 4.8-3.3v3.2h-.2c-2.7 0-4.6 1.7-4.6 5.4v5.1h-3.1z"/><path fill="#e6e6e6" d="m278.6 424.5h3.1v11.1l5.6-6h3.8l-5.4 5.5 5.5 8h-3.5l-4.1-5.8-1.9 2v3.9h-3.1z"/><path fill="#e6e6e6" d="m291.3 436.4c0-3.9 3.1-7 7.2-7 4.2 0 7.2 3.2 7.2 7s-3.1 7-7.3 7c-4.1 0-7.1-3.1-7.1-7zm11.2 0c0-2.3-1.7-4.3-4.2-4.3s-4.1 2-4.1 4.3 1.7 4.3 4.1 4.3c2.6.1 4.2-1.9 4.2-4.3z"/><path fill="#e6e6e6" d="m307.7 438.2v-8.6h3.1v7.6c0 2.1 1.1 3.3 2.9 3.3s3-1.3 3-3.3v-7.6h3.1v13.4h-3.1v-2.1c-.8 1.3-2.1 2.3-4.2 2.3-3 .2-4.8-1.8-4.8-5z"/><path fill="#e6e6e6" d="m323.4 439.4v-7.1h-1.7v-2.6h1.7v-3.7h3.1v3.7h3.6v2.6h-3.6v6.6c0 1.2.6 1.7 1.7 1.7.7 0 1.3-.2 1.9-.5v2.5c-.8.5-1.7.7-2.8.7-2.3 0-3.9-.9-3.9-3.9z"/><path fill="#e6e6e6" d="m332.7 425.3h3.2v15h9.4v2.9h-12.5v-17.9z"/><path fill="#e6e6e6" d="m355.5 443.1v-1.7c-.9 1.1-2.3 2-4.4 2-2.6 0-4.8-1.4-4.8-4.2 0-3 2.3-4.4 5.4-4.4 1.7 0 2.6.2 3.7.5v-.2c0-1.9-1.2-2.9-3.3-2.9-1.5 0-2.6.3-3.9.8l-.8-2.5c1.5-.7 2.9-1.1 5.1-1.1 4 0 5.9 2.1 5.9 5.7v8zm.1-5.6c-.8-.3-1.9-.5-3.1-.5-2 0-3.1.8-3.1 2.1s1.1 2 2.6 2c2 0 3.5-1.1 3.5-2.9z"/><path fill="#e6e6e6" d="m364.4 441.1v2.1h-3.1v-18.7h3.1v7.4c1-1.4 2.4-2.5 4.5-2.5 3.2 0 6.3 2.5 6.3 7s-3.1 7-6.3 7c-2.1 0-3.5-1.1-4.5-2.3zm7.7-4.7c0-2.6-1.7-4.3-3.9-4.3-2.1 0-3.9 1.7-3.9 4.4 0 2.6 1.8 4.3 3.9 4.3 2.2 0 3.9-1.7 3.9-4.4z"/><path fill="#e6e6e6" d="m376.5 441.4 1.4-2.1c1.4 1.1 3 1.7 4.4 1.7s2.1-.5 2.1-1.5-1.3-1.4-2.8-1.8c-.1 0-.2-.1-.2-.1-2-.6-4.2-1.4-4.2-4s2.1-4.1 4.8-4.1c1.7 0 3.5.6 5 1.5l-1.2 2.2c-1.3-.8-2.6-1.3-3.8-1.3s-1.9.5-1.9 1.4 1.3 1.4 2.8 1.8c.1 0 .2.1.2.1 2 .6 4.2 1.5 4.2 4 0 2.9-2.2 4.2-5 4.2-2 0-4.1-.7-5.8-2z"/><path fill="#e6e6e6" d="m505.1 434.2c0-5.1 4.1-9.2 9.3-9.2s9.2 4.2 9.2 9.2-4.1 9.2-9.3 9.2-9.2-4.1-9.2-9.2zm17.4-.1c0-4.5-3.5-8.2-8.2-8.2s-8.2 3.7-8.2 8.3c0 4.5 3.5 8.2 8.2 8.2s8.2-3.7 8.2-8.3zm-13.1-.1c0-2.8 2.1-5.1 5.1-5.1 1.9 0 2.9.6 3.9 1.5l-1.4 1.7c-.8-.7-1.5-1.1-2.5-1.1-1.7 0-2.8 1.4-2.8 3.1s1.1 3 2.8 3c1.1 0 1.7-.5 2.5-1.1l1.4 1.4c-1.1 1.1-2.1 1.7-4 1.7-2.9.1-5-2.2-5-5.1z"/><path fill="#e6e6e6" d="m525 425.3h3.4l4.2 13.2 4.4-13.3h2.6l4.4 13.3 4.2-13.2h3.3l-6.2 18h-2.7l-4.4-12.8-4.4 12.8h-2.7z"/><path fill="#e6e6e6" d="m551.2 436.4c0-3.9 3.1-7 7.2-7 4.2 0 7.2 3.2 7.2 7s-3.1 7-7.3 7c-4.1 0-7.1-3.1-7.1-7zm11.2 0c0-2.3-1.7-4.3-4.2-4.3s-4.1 2-4.1 4.3 1.7 4.3 4.1 4.3c2.7.1 4.2-1.9 4.2-4.3z"/><path fill="#e6e6e6" d="m567.8 429.7h3.1v3c.8-2 2.4-3.4 4.8-3.3v3.2h-.2c-2.7 0-4.6 1.7-4.6 5.4v5.1h-3.1z"/><path fill="#e6e6e6" d="m577.5 424.5h3.1v11.1l5.6-6h3.8l-5.4 5.5 5.5 8h-3.5l-4.1-5.8-1.9 2v3.9h-3.1z"/><path fill="#e6e6e6" d="m590.1 436.4c0-3.9 3.1-7 7.2-7 4.2 0 7.2 3.2 7.2 7s-3.1 7-7.3 7c-4.1 0-7.1-3.1-7.1-7zm11.2 0c0-2.3-1.7-4.3-4.2-4.3s-4.1 2-4.1 4.3 1.7 4.3 4.1 4.3c2.6.1 4.2-1.9 4.2-4.3z"/><path fill="#e6e6e6" d="m606.5 438.2v-8.6h3.1v7.6c0 2.1 1.1 3.3 2.9 3.3s3-1.3 3-3.3v-7.6h3.1v13.4h-3.1v-2.1c-.8 1.3-2.1 2.3-4.2 2.3-3 .2-4.8-1.8-4.8-5z"/><path fill="#e6e6e6" d="m622.2 439.4v-7.1h-1.7v-2.6h1.7v-3.7h3.1v3.7h3.6v2.6h-3.6v6.6c0 1.2.6 1.7 1.7 1.7.7 0 1.3-.2 1.9-.5v2.5c-.8.5-1.7.7-2.8.7-2.3 0-3.9-.9-3.9-3.9z"/><path fill="#e6e6e6" d="m631.5 425.3h3.2v15h9.4v2.9h-12.5v-17.9z"/><path fill="#e6e6e6" d="m654.3 443.1v-1.7c-.9 1.1-2.3 2-4.4 2-2.6 0-4.8-1.4-4.8-4.2 0-3 2.3-4.4 5.4-4.4 1.7 0 2.6.2 3.7.5v-.2c0-1.9-1.2-2.9-3.3-2.9-1.5 0-2.6.3-3.9.8l-.8-2.5c1.5-.7 2.9-1.1 5.1-1.1 4 0 5.9 2.1 5.9 5.7v8zm.1-5.6c-.8-.3-1.9-.5-3.1-.5-2 0-3.1.8-3.1 2.1s1.1 2 2.6 2c2 0 3.5-1.1 3.5-2.9z"/><path fill="#e6e6e6" d="m663.3 441.1v2.1h-3.1v-18.7h3.1v7.4c1-1.4 2.4-2.5 4.5-2.5 3.2 0 6.3 2.5 6.3 7s-3.1 7-6.3 7c-2.2 0-3.6-1.1-4.5-2.3zm7.7-4.7c0-2.6-1.7-4.3-3.9-4.3s-3.9 1.7-3.9 4.4c0 2.6 1.8 4.3 3.9 4.3s3.9-1.7 3.9-4.4z"/><path fill="#e6e6e6" d="m675.3 441.4 1.4-2.1c1.4 1.1 3 1.7 4.4 1.7s2.1-.5 2.1-1.5-1.3-1.4-2.8-1.8c-.1 0-.2-.1-.2-.1-2-.6-4.2-1.4-4.2-4s2.1-4.1 4.8-4.1c1.7 0 3.5.6 5 1.5l-1.2 2.2c-1.3-.8-2.6-1.3-3.8-1.3s-1.9.5-1.9 1.4 1.3 1.4 2.8 1.8c.1 0 .2.1.2.1 2 .6 4.2 1.5 4.2 4 0 2.9-2.2 4.2-5 4.2-2 0-4.1-.7-5.8-2z"/></g>
</svg>
