<?xml version="1.0" encoding="utf-8"?>
<!-- Generator: Adobe Illustrator 23.0.1, SVG Export Plug-In . SVG Version: 6.00 Build 0)  -->
<svg version="1.2" baseProfile="tiny" id="Layer_1" xmlns="http://www.w3.org/2000/svg" xmlns:xlink="http://www.w3.org/1999/xlink"
	 x="0px" y="0px" viewBox="0 0 900 600" xml:space="preserve">
<g>
	<path d="M422.89,189.08c7.95,0.8,10-0.41,14.08-8.67c12.06-0.56,2.86-15.14,5.61-27.04c1.32-0.71-1.55-0.53,51.12,0.71
		c3.67,0.09,5.09-1.43,5.2-5.71c0.09-3.37-1.22-4.65-4.8-4.69c-8.71-0.11-42.7-1.02-51.43-1.02c-0.33-5.01-0.25-18.03-4.59-28.16
		c-3.5-8.19-7.54-6.56-11.63-7.14c-13.51-0.81-15.11,17.21-17.45,34.49c-18.16-0.41-36.23-0.92-54.18-0.92
		c-2.76-3.27-2.55-10.1-9.59-7.86c0,0.82,0.51,1.22,0.82,1.12c5.69-0.49,4.93,5.98,8.67,10.31c-0.31,3.67-1.32,6.84-4.39,9.29
		c-26.17,20.83-2.26,36.2-16.94,59.39c-0.32,0.5-0.71-0.31-1.22-0.41c-2.58,27.38-16.22,19.29-16.33,19.29
		c-7.14-1.73-9.34-8.2-13.06-13.27c-14.45-19.7-11.45-34.64-10.71-47.35c21.57-23.53,4.06-21.59,22.35-21.02
		c0,2.96-1.02,5.92,0.61,8.57c1.53-0.41,0.51-2.14,1.84-2.96c2.9,12.17,1.04,3.92-1.94,4.08c-2.16,3.84,7.19,4.17,3.06,16.53
		c-9.59,28.67-4.67,7.08-14.69,31.63c6.57-4.38,2.98-7.39,7.35-11.53c6.94-6.58,6.27-9.29,8.37-16.53
		c2.65-9.17,1.54-6.13,1.02-18.37c-0.11-2.55-0.82-4.9-1.43-7.45c1.33-3.16,4.08-5.71,4.39-9.59c-5.22,4.76,1.73,2.91-64.29,1.73
		c-55.69-0.99-51.9-1.41-54.29-0.61c-2.49-8.45-6.44-5.65,90.72-4.18c33.61,0.51,23.65,2.64,27.65,2.04
		c0.1-1.84-1.12-2.65-1.73-3.88c-1.12,0-2.14,0-3.16,0c-1.2-2-0.97-13.26-10.31-21.02c-11.28-9.37-15.84-5.09-25.61-12.86
		c-13.07-10.39-19.52-7.91-18.37-13.16c1.76-1.76,4.95,0.72,8.16-8.78c1.87-5.53,3.42-10.92,3.37-16.73
		c-0.03-3.95,3.83-2.9,0.2-14.69c0-0.1-0.41-0.2-0.61-0.31c-1.12,12.76-1.22,25.71-6.94,37.35c-5.61,1.02-10.61-0.31-15.71-1.22
		c4.79,4.41,12.81-0.5,9.18,16.43c5.09-3.89-1.41-9.93,8.57-3.47c4.02,11.66,0.75,34-11.43,35c0-1.1-4.65,5.1-15.71,0.51
		c-11.92-4.94-22.18-6.45-24.8-20.92c-0.83-4.6-4.82-12.6-1.53-17.45c0.7-1.03,0.2-2.24,0.71-3.67c3.27-0.51,5.41-3.15,8.27-4.69
		c3.53-1.91,4.42-10.52,3.88-16.02c-0.4-4.04,3.12-8.67,1.84-10.92c-1.33,0.31-2.76,0.1-2.86-2.14c0.51-0.51,1.73,0.1,2.45-1.22
		c0.31-1.22-0.1-2.96,0.92-5.1c0.61,1.94,2.14,3.16,1.02,5.1c1.94,0.1,2.14-1.12,2.55-1.94c0.92-2.35,1.84-4.8,2.45-7.25
		c1.62-6.48,3.29-4.57,5.31-11.12c0.63-2.04,1.73-3.27,4.39-2.14c-0.82-2.45,1.84-1.73,2.35-3.67c0-0.92-1.33-1.84-1.53-3.06
		c-1.02-1.12-2.76,0.2-3.37-1.43c2.04-1.53,5-0.1,6.63,3.37c1.63,0,0.71-1.33,1.12-2.14c4.29-1.12,8.68-0.83,12.96-0.1
		c2.35,0.4,4.29-0.61,6.53-1.12c1.02,3.67,0.49,7.77,2.55,11.02c4.27,6.73-12.57,5.11-6.84,15.31c1.02-1.02-0.1-2.55,1.02-3.67
		c2.14,0.82,4.18-0.51,6.43-1.02c1.56-6.48,2.37-8.6,1.84-9.49c-2.45-4.08-1.63-8.78-2.76-12.96c1.63-3.37,5.31-4.08,7.76-6.73
		c-0.1-1.12-0.51-2.45,0.2-3.57c-1.63-1.43-3.27-0.1-5-0.51c0.61-1.53,2.96-1.33,3.27-3.37c-2.14-2.04-3.78-0.31-5.61,0.92
		c-0.61-2.14,0.71-4.69-1.02-6.73c-1.73,0.41-1.94,2.45-3.78,2.96c-1.02-1.33-2.75-1.61-4.39-0.82c-5.5,2.67-11.22,1.31-20.31,1.94
		c-1.43,0.71-1.22,3.06-3.27,3.06c-1.02-0.51,0.61-2.14-1.53-2.55c-11.09,11.57-9.78,0.64-15.41,3.16
		c-0.51,1.63,1.43,2.14,1.84,3.37c-1.41,1.7-1.72,3.99-2.51,6.1c-0.51-0.19-1.27-0.34-1.06,0.63c0.84,3.98-8.63,17.61-2.24,26.84
		c0.41,0.71,1.01,1.33,1.02,2.14c0.05,7.35,3.05,13.88,4.8,20.82c1.42,5.62-1.63,12.66-6.94,14.69
		c-9.38,3.59-18.55,7.47-26.63,13.57c-5.94,4.48-18.12,0.61-25.2,15.2c-2.63,5.42-6.12,10.31-7.04,16.84
		c-18.57-0.41-37.14-0.82-55.41-1.12c-1.6-2.03,0.06-12.46-1.33-29.59c-0.31-3.88-0.42-3.95-4.29-5.1c-1.33-0.4-2.65-0.59-4.08-0.41
		c-6.54,0.85-5.69,0.71-7.14,28.78c-2.55,0.92-1.73,3.78-3.16,5.82c-28.16-0.61-56.33-1.22-84.9-1.84
		c-0.82,3.57-1.43,6.84,0.1,10.41c28.06,0.61,55.92,1.22,84.39,1.84c-6.08,3.56-7.84,11.87-9.08,15.1c-1.9,4.96,5.2,10.1,8.88,2.76
		c8.21,10.69-3.25,24.8,15.1,20.82c5.64-1.22,3.11-33.59,4.8-38.16c17.14,0.41,34.39,0.71,51.84,1.12
		c1.73,18.18-3.79,15.42-10.71,28.27c-4.83,8.96,0.23,9.16-8.16,19.49c-6.51,8.01,0.73,13.27,1.84,23.37
		c0.35,3.25,5.04,9.34,5.1,9.49c2.45,5.2,5.71,5.61,10.82,2.86c26.68-14.37,25.01-21.57,30.2-37.14c1.02,1.94,1.03,3.57,1.43,5.1
		c12.38,47.19,3.1,56.95,7.65,55c0.51,1.53,1.22,2.96,0.2,4.59c-1.63-0.82-0.1-2.65-1.33-3.78c-3.65-0.43,0.71,3.22-3.57,10.92
		c-6.72,12.1-7.91,30.98-7.65,46.12c0.12,7.34-4.18,12.02-4.18,13.06c0,5.71-2.42,11.02-2.35,16.84
		c0.17,13.47-1.61,26.74-6.12,39.49c-1.63,4.59-1.33,9.49-2.96,14.08c5.71,2.35,11.12,5.1,17.14,6.12
		c3.08,41.86,1.34,23.32-0.82,44.59c-2.07,20.41,16.23,96.32,23.37,101.23c0.51-1.65-2.28-6.41,3-5.62c-3.6,5.13-0.07,6.17-2.9,8.68
		c-0.92,0.2-0.92-1.43-2.24-0.92c0.71,2.55-1.84,4.29-1.94,6.84c-0.65,16.3,1.5-1.58-4.49,18.57c1.84,2.45,4.9,3.27,6.22,6.22
		c0.51-2.14,0.51-2.14-3.88-6.73c0.21-2.15,4.37-7.94,3.57-14.49c-1.3-10.57,6.53-4.45,6.53-15.61c4.59-2.45,9.18-3.47,14.18-2.76
		c0.2,2.55-0.41,4.29-1.02,6.22c1.43,0.2,2.35,0.82,1.63,2.65c-3.57-1.43-7.23-2.01-10.92-0.31c-6.96,3.23-2.35,4.49-2.45,4.59
		c0.1,0.61-0.2,1.43,0.61,2.04c3.16-2.24,6.63-0.41,10.1-0.31c-3.27,1.12-7.14,0.82-9.9,3.98c2.9,2.51,5.95-3.08,16.63,0.31
		c0.84-0.42,0.17-1.46,0.5-1.13c0.37,0.37-2.27,3.53,9.19,16.75c3.2,3.69,0.57,4.6,3.88,10.92c0.61-0.31,0.92-0.51,0.92-0.61
		c-0.41-4.59,0.2-9.28-4.08-12.76c-8.28-6.72-3.92-11.5-11.94-25.2c-2.53-4.32,1.13-7.75-2.45-10.61c-0.61-0.41-0.61-1.63-0.92-2.55
		c-0.82-0.2-1.53-0.41-2.24-0.61c-1.55-2.32-3.72-22.62-0.61-42.25c1.38-8.71,5.12-15.05,1.33-36.63
		c-6.9-39.22,0.31-16.27,1.63-44.29c0.11-2.35,1.43-4.08,1.84-6.33c14.75-2.95,4.94-1.07,8.98-41.12c-1.84,3.06-2.02,6.53-2.45,9.8
		c-2.68,20.64,4.24,28.92-4.9,28.37c-18.16-1.09-11.61,2.7-29.39-1.33c-12.36-2.8-22.27-3.37-29.08-7.65
		c1.94-8.57,4.59-17.04,7.04-25.61c-0.16,4.04-0.71,11.93-2.35,20.1c4.37-4.62,2.84-51.21,5.82-54.18
		c3.98,2.86,4.29,7.45,5.92,11.53c2.04-5.92-1.53-9.8-5.2-13.67c-0.65-7.83,4.78-8.46,4.18-23.88c-0.79-20.28,2.2-20.69,1.84-23.27
		c-0.58-11.25,5.93-18.3,7.96-23.37c4.9,0.31,9.59,2.24,14.69,2.24c0.61,3.16,0.51,6.22,2.24,9.59c0.82-3.06,0-5.61,0.31-8.67
		c9.9,2.45,19.59,5,29.49,3.78c1.53,2.04,1.43,4.49,3.37,6.12c0.51-1.94-0.82-3.57-0.61-5.61c3.8,0.66,9.76-2.05,14.08,0.2
		c0,3.88,2.65,6.53,4.69,9.49c-1.09-9.12-4.04-9.21-0.61-10.71c-4.08-0.61-7.14-1.02-10.2-1.12c3.67-1.53,7.65,0.1,11.43-1.22
		c0.51,1.02-0.2,1.73-0.41,2.65c0.51,1.02,1.94,0.51,2.65,1.53c0.1,2.35-0.61,5,0.71,8.16c0.92-2.96,1.73-5.1,1.94-7.96
		c4.18,0.41,8.16-0.41,12.55-0.92c2.14-1.02-0.51-3.78,1.53-5.31c-0.15,4.93,1.45,10.28,1.16,10.14c-0.57-0.57-1.78-1.21-2.49-1.06
		c6.45,12.9,2.61,3,2.65,1.23c2.51,2.51,3.87,10.78,4.49,14.28c0.41,1.63,0.2,2.96-1.73,3.47c0.61,3.06,3.88,5.61,0.71,8.57
		c0.82,0.82,1.33-0.41,2.35,0.31c-1.02,34.29,0.51,68.88,0,103.47c-39.14,8.88-23.46,7.72-54.59-4.39c0.19,4.45,8.91,3.17,7.96,8.88
		c-0.29,1.17,6.45,3.06,4.69,23.98c-2.11,25.16-2.43,28.17,0.31,44.8c0.02,0.1,11.68,22.75,15,39.39c1.2,6.03,1.66,12.03,3.67,17.96
		c0.73,2.14,0.59,4.69-0.2,7.14c-3.63,11.24,0.56,9.79-2.35,13.78c-2.95,4.04-2.5,8.13-3.16,8.98c-3.5,4.48,0.84,9.02,5.1,10.1
		c6.65,1.69,6.17,0.19,16.33,2.45c1.22,4.49,5.2,5.11,9.08,5.82c21.16,3.87,18.74-7.81,28.78-1.84c-4.08,0.82-7.86,0.82-11.22,2.45
		c4.49-0.2,9.08-0.31,13.78-1.73c0.74-10.91-4.48-18.55-14.08-23.78c-2.88-1.57-0.73-5.02-5.61-8.67
		c-8.71-6.51-6.89-9.91-11.7-10.18c0.58,2.35-3.76,0.57-9.93,5.08c-0.67,0.67-0.57,1.53,0.71,1.53c0.1,1.12-1.43,2.65,0.71,3.37
		c1.84-2.14,5.41-2.55,10.1-1.02c-2.35,1.02-5.92,0.2-6.73,4.39c3.87-0.25,13.93-2.3,16.43,0.2c-4.69,0.92-9.9,0.51-13.98,3.98
		c2.21,3.21,15.69-3.62,16.12,0.71c-3.88,0-7.86-0.1-11.22,2.45c4.39,1.33,8.47,0,12.55-0.41c4.59,1.84,7.57,5.68,11.53,8.27
		c0.92,0.6,1.84,1.43,1.84,2.45c0.2,3.06,1.43,5.82,2.14,9.08c-13.8-3.12-15.6,4.02-21.22,3.27c-21.89-2.93-11.61-4.77-18.47-11.63
		c-0.92,1.43,1.02,2.45,0,3.88c-2.66-1.78-4.23-0.75-14.9-2.24c-12.16-1.71,2.34-14.52,0.71-28.16c10.2,6.12,4.26-1.11,13.78-4.29
		c-3.37-1.12-2.55-4.29-4.08-6.43c3.98-1.33,8.06-0.31,11.63-2.14c0.51,1.94,0.19,3.57,0.31,5.2c0.44,5.97,3.64,0.12,2.04-4.69
		c-1.14-3.41-2.71-2.76-9.08-2.76c-0.59-2.2-1.73-19.41-1.73,0c-2.86,1.12-5.61,0.61-8.27,1.02c-1.22-3.06-1.02-6.12-2.55-9.39
		c-1.73,6.74,3.22,10.86-2.24,10.41c-4.04-26.78-1.92-20.14-11.53-42.04c-12.6-28.7-4.7-34.27-7.14-51.02
		c-0.47-3.25,4-6.51,0.92-17.86c-1.13-4.18-2.45-8.37-3.88-13.16c22.05,11.61,24.71,0.06,35,1.43c0.66,14.48-4.53,4.29,2.24,46.12
		c1.38,8.53,1.63,69.63,1.63,69.8c0,4.6,2.06,4.47,2.04,2.76c-0.78-60.93,2.7-59.61-2.55-79.39c-2.24-8.45-1.33-19.1-1.84-22.45
		c-0.94-6.22,1.53-12.04,1.63-18.16c2.86-0.61,5.2-2.35,8.16-2.14c-3.1-11.72,1.99-30.29-0.31-39.69c-0.67-2.74,1.16-2.15,0.41-9.59
		c-3.15-31.21,5.74-45.9-3.88-76.63c-0.99-3.17-3.16-5.82-3.78-9.18c-0.41-2.24,0.91-3.98,0.41-6.22
		c-2.7-12.14,0.89-32.36-1.43-42.65c-0.46-2.03,4.13-12.49,5.41-14.29c1.02-1.43,0.1-3.47,1.22-5.41
		c3.16,12.25,12.25,20.71,17.14,30.92c4.39-0.51,6.53,2.24,9.18,3.78c12.24-1.11,11.84-1.93,16.84-16.63
		c3.24-9.53,7.51-8.44,7.25-18.67c-0.07-2.69-1.62-21.41-1.12-28.67c0.43-6.24,12.37-17.63,16.33-20.31
		c17.25,0.41,34.69,0.92,52.45,1.33C409.67,164.18,408.55,187.64,422.89,189.08z M443.09,144.9c18.06,0.41,35.92,0.71,53.78,1.12
		c0.82,2.04,0.92,3.67-0.41,5.51c-17.76-0.41-35.51-0.71-53.37-1.12C442.68,148.47,442.68,146.94,443.09,144.9z M318.91,150.2
		c0.1,0.82-0.31,1.22-0.92,1.53C317.78,150.92,317.58,150.2,318.91,150.2z M299.11,115.51c9.46,2.72,15.58,15.4,16.22,23.67
		c-2.34,0.63-13.97-0.1-31.94-0.1c-1.22-11.12-1.22-21.94-4.69-32.25C286.43,110.88,279.6,109.9,299.11,115.51z M272.99,102.75
		c0.66-0.09,0.78,0.02,3.06,1.73c1.84,9.59,4.8,18.88,3.57,28.78c2.04,1.02,0.61,3.27,0.82,5c-5.92,0-11.43,0-17.35,0
		C276.66,128.87,275.54,116.02,272.99,102.75z M272.58,48.46c0.61-0.1,1.22-0.51,2.45,0.2C273.8,49.08,273.09,49.49,272.58,48.46z
		 M279.31,19.69c-0.31,1.12-0.82,2.04-1.84,2.96c-0.31-0.92-0.51-1.53-0.82-2.45C277.68,19.89,278.4,19.48,279.31,19.69z
		 M272.07,13.67c0.51,1.33-0.2,1.94-1.43,2.86C271.05,15.1,271.15,14.18,272.07,13.67z M255.54,24.99c0.71-0.31,0.92,0.2,1.12,0.92
		C255.74,25.91,255.33,25.81,255.54,24.99z M261.86,21.02c-0.1,0.61-0.41,0.92-1.12,0.61C261.05,21.32,261.15,20.4,261.86,21.02z
		 M262.27,27.24c-1.43,0.2-2.24-0.31-3.57-1.43C260.44,26.12,261.35,26.22,262.27,27.24z M257.07,17.34
		c-1.02,1.12-1.84,1.94-2.96,2.55C254.11,17.95,254.62,16.83,257.07,17.34z M242.48,35c1.22,1.53,0,2.04-0.71,2.76
		C241.76,36.93,241.46,35.91,242.48,35z M238.19,19.99c0.41-0.61,0.92-1.22,1.94-1.12C239.67,21.18,237.63,20.55,238.19,19.99z
		 M241.46,25.71c-0.71,1.84-1.94,3.06-3.57,3.98C238.29,27.55,239.82,26.63,241.46,25.71z M229.11,40.2
		c0.51,1.33-0.61,2.45-0.51,3.67C228.09,41.63,228.09,41.63,229.11,40.2z M228.7,50c3.06-0.31,2.96,1.73,3.37,3.88
		C229.92,53.06,229.01,51.83,228.7,50z M237.27,38.57c0.2,0.61-0.2,0.71-0.61,0.82C236.46,38.77,236.76,38.57,237.27,38.57z
		 M236.86,41.63c0.1,1.12-0.31,1.63-1.43,1.94C235.44,42.24,235.95,41.83,236.86,41.63z M236.15,51.93c0,0.71-0.2,1.12-1.12,1.43
		C235.13,52.44,235.33,51.83,236.15,51.93z M234.52,41.32c-1.02,0.61-1.53,1.02-2.04,1.43C232.68,41.93,232.48,40.81,234.52,41.32z
		 M230.84,19.38c0.61-0.1,0.71,0.31,0.71,0.92C231.15,20.1,230.44,20.2,230.84,19.38z M228.19,24.89c1.02,0.41,1.22,1.75,2.14,1.94
		c1.12,0.23,1.84-1.02,2.76-0.2c0.31,0.82-0.31,1.22-1.02,1.73c-2.35-1.63-4.49-0.82-6.63,1.22c-0.17-2.83,3.81-2.58-0.51-3.98
		C226.05,25.4,227.07,25.1,228.19,24.89z M226.86,58.26c-0.92-1.43-3.06-2.35-1.63-4.39c0.58-1.17,2.08-0.53,2.86,1.22
		C227.48,55.91,226.66,56.93,226.86,58.26z M1.86,140.71c-0.31-2.76-0.31-2.76,0.71-5.51c27.65,0.61,55.41,1.22,83.06,1.84
		c0.51,1.94,0.41,3.37,0,5.51C57.68,142.04,29.72,141.43,1.86,140.71z M82.88,164.28c-9.26,1.11-4.24-6.11,0.41-14.18
		C88.89,140.37,84.26,161.15,82.88,164.28z M88.19,165.1c0-15.52-0.17-13.98,0.41-13.98C88.6,166.64,88.77,165.1,88.19,165.1z
		 M88.09,147.75c-0.82-5.51-0.71-10.92,0.92-16.33C88.6,136.83,89.11,142.34,88.09,147.75z M226.46,552.66
		c2.76,0.81,3.27,3.57,3.67,6.12c-0.67-0.67-2.87-1.94-4.18-2.55c0.56-0.48,1.24-0.03,1.7-0.24c1.73-0.79-4.71-5.72-14.87-2.82
		C217.17,549.29,221.87,551.32,226.46,552.66z M223.9,537.96c-3.77,0.54-9.43,1.52-12.7,2.43
		C205.97,541.84,219.86,535.37,223.9,537.96z M190.94,410.1c3.2-13.46-8.94-0.95,31.74-6.43c0.61,4.8-3.57,5.1-5.31,6.94
		c-0.31,2.45-0.92,4.8-0.92,7.25c0,2.86-3.67,3.16-4.08,6.12c2.24-1.12,3.78-2.45,5.82-3.06c2.48-5.48-0.99-11.28,3.37-10.41
		c3.58,9.11-5.03,7.13-2.96,30.51c0.67,7.53,4.63,21.37,3.57,31.53c-1.32,12.76-3.67,25.41-4.69,38.37c-0.51-3.06-1.02-6.12-1.63-10
		c-1.02,5.71-0.12,10.52,1.63,15c2.32,5.93,1.33,12.25,3.06,18.27c-20.89,6.08-14.58,6.66-17.55-0.51
		c-5.91-14.25-7.67-31.04-15-61.63c-2.91-12.15-2.73-24.38-0.2-36.63c1.81-8.78,0.86-15.4-1.02-34.18
		C190.84,403.37,188.39,407.96,190.94,410.1z M176.76,367.02C176.76,362.98,176.89,363.67,176.76,367.02L176.76,367.02z
		 M288.4,542.35c2.14-0.31,4.59-1.94,6.33,1.22C286.96,542.84,288.4,543.18,288.4,542.35z M275.33,531.84
		c1.12,2.14,2.55,3.98,2.45,6.33c-5.25,4.66-3.47,4.62-5,5.2c-2.65-1.22-3.16-2.76-3.27-9.59
		C270.84,531.74,272.88,531.74,275.33,531.84z M205.43,148.26c0.39,10.22-13.27,23.17-2.86,7.55
		C204.13,153.48,204.52,150.71,205.43,148.26z M216.05,96.32c-2.24,3.57-2.37,7.15-1.53,10.82c2.76,12.07,2.89,19.19,14.59,26.74
		c7.21,4.65,20.07,3.57-17.14,3.57C218.62,115.72,204.89,93.53,216.05,96.32z M100.84,181.63c-3.27,1.12-6.22,1.12-9.29-0.1
		c-2.55-26.22-0.71-52.65,0.82-78.98c3.67-1.33,6.73-0.82,10,0C99.98,124.78,99.68,162.94,100.84,181.63z M103.29,147.65
		c-3.1,65.25-1.71-27.93,0.31-33.27c0,28.47-1.22,20.97-1.22,28.27C102.37,144.38,103.38,145.81,103.29,147.65z M181.96,199.79
		c-4.09,15.69-17.65,24.57-32.86,30c-1.22-2.14-2.76-3.78-3.47-5.61c-1.22-2.65-4.3-4.7-3.88-7.86c1.08-8.04-6.58-11.93-2.76-18.37
		c3.16-5.31,6.31-10.41,8.16-16.53c2.02-6.64,7-11.86,10.61-17.76c3.8-6.2,0.46-12.26,2.24-16.74c2.24-0.61,4.39-0.41,6.73-0.1
		c0.34,5.16,7.01,6.87,6.33,11.33c-0.77,5.01-2.66,9.48-6.12,13.27c-6.29,6.86-6.34,11.13-13.57,14.8c-3.58,1.82-5.92,4.8-7.76,8.27
		c3.27-1.73,5.41-4.8,8.78-6.33c11.45-6.61,26.48-26.63,17.65-36.74c-8.13-9.31,14.25-6.22-67.96-8.16
		c-0.31-2.04-0.61-3.67,0.41-5.51c85.24,1.59,62.52-0.22,64.29,6.84c4.05-5.32,7.4-18.66,12.96-15.71c1.53,2.65-1.02,4.8-0.61,7.45
		c2.76-1.63,1.84-4.39,2.45-6.73c2-1.34,3.19-2.73,5.2-1.63c2.94,1.61-0.35,6.78,0.71,8.67c5.16-6.24-0.72-14.76-5.51-8.78
		c-5.31-2.24-7.76-0.41-12.35,8.78c-2.55,0.1-5.1,0.41-7.55-0.31c2.24-7.72,10.27-26.1,21.12-26.94
		c12.13-0.94,16.13-11.39,24.8-10.92c-2.24,3.88-1.02,7.76,0.1,11.33c-1.12,0.92-2.35,0.2-3.16,1.12c1.12,0.61,2.65,0.2,3.67,1.53
		c0.82,5.2,1.33,10.61,0.31,16.02c-1.53,0.2-2.55,0.31-3.78,0.51c1.12,1.53,2.76,0.1,3.67,1.43c-0.41,2.14-0.82,4.39-1.22,6.73
		c-1.63,0.1-3.27,0.41-4.9,0.1c-1.29-3.45,0.01-6.54-4.9-7.24c-2.24-0.19-3.3-4.99-7.35-1.84c8.29,0.79,1.19,6.51,3.78,9.49
		c2.14-1.94,0.41-5,2.55-6.63c2.35,0.2,3.48,1.33,3.57,3.78c0.46,12.4,2.34,14.97-3.37,22.65c-0.52,0.52-6.82,11.08-7.86,16.73
		C188.57,188.25,185.56,185.99,181.96,199.79z M199.41,258.98c-0.1-0.51,0-1.12,0.82-1.12C201.55,258.91,199.9,260.19,199.41,258.98
		z M198.9,255.51c2.86-1.02,3.06-0.92,3.67,1.22C201.66,255.31,200.43,255,198.9,255.51z M203.5,260.71
		c-0.31-1.73,0.1-2.45,1.22-3.47C204.82,258.57,205.33,259.49,203.5,260.71z M209.62,260.71c-1.12,0.31-2.04,0.31-3.16-0.31
		c0.82-1.33,0.61-3.37,2.96-3.47C209.72,258.37,209.92,259.49,209.62,260.71z M212.07,261.43c0-0.71-0.31-1.33,0.71-1.94
		C212.68,260.2,212.99,260.82,212.07,261.43z M214.72,262.35c-0.83-0.83-0.19-2.05,1.43-1.94
		C216.35,261.63,216.66,262.75,214.72,262.35z M219.11,263.47c-2.19-0.88-1.04-1.71,0.41-1.84
		C219.21,262.24,220.23,262.86,219.11,263.47z M221.86,263.77c1.08-3.24,4.79,0.62,7.35,0.2c2.95-0.48,5.74,1.69,8.67,0.31
		c0.41-0.2,1.22,0.51,1.84,0.82C234.49,266.41,227.09,265.1,221.86,263.77z M239.62,265c0.82-0.92,1.73-0.71,2.65-0.2
		C241.35,265.41,240.44,265,239.62,265z M245.64,265.41c0.92-0.41,1.63-0.51,2.14,0.2C247.07,265.92,246.46,265.92,245.64,265.41z
		 M265.54,265.51c1.02,0.71,2.04,1.33,3.27,1.43C267.58,266.73,265.84,267.86,265.54,265.51z M271.35,266.63
		c-0.92-0.71-1.63-1.02-1.73-2.24C272.17,263.57,271.35,265.2,271.35,266.63z M274.31,265.71c-0.82-0.51-1.22-1.12-1.12-2.14
		C274.93,263.88,274.93,263.88,274.31,265.71z M288.09,197.76c-1.39,12.12-8.98,20.68-6.43,27.35c2.45,6.4-0.56,18.79,0.61,29.08
		c0.71,6.23,0.1,6.79-6.02,6.73c-0.82-0.01-1.84,0.41-2.55-0.41c0.92-3.27,2.24-6.53-0.51-9.59c1.02,3.88-1.12,7.04-1.94,10.51
		c-0.42,0.08-20.58,2.45-27.96,1.12c-1.22-0.22-1.84-1.12-2.35-1.63c-16.89-0.5-29.09-7.77-45.82-7.77
		c3.89-1.77,1.62-31.96-2.14-47.65c-1.88-7.85-3.6-15.62-1.53-23.66c2.97-11.55,3.5-8.85,8.67-15.51c1.33-0.2,2.65,0.92,4.08,0
		c-0.51-1.12-2.14-1.12-2.65-2.55c3.57-4.49,5.41-10,6.63-15.82c13.16-0.2,26.02,0.2,38.67,0.71c1.5,2.84-0.81,6.69,1.02,8.98
		c1.22-2.96-0.2-6.02,0.71-8.98c11.63,0,23.16,0.2,34.9,0.71c6.56,28.3,3.78,19.61-1.33,21.22
		C289.8,175.96,291.92,164.25,288.09,197.76z M289.93,170c-0.82-6.84-2.55-13.47-4.18-20.1c5.82,0,11.02,0,16.43-0.1
		C299.68,161.02,291.06,166.23,289.93,170z M438.6,177.75c0.92-3.98,1.73-7.65,2.76-12.04C442.07,174.39,441.66,176.32,438.6,177.75
		z M439.83,124.08c3.62,18.6,3.14,68.64-16.12,62.86c10.97-12.44,14.37-61.56,2.35-77.86C432.04,108.53,436.73,108.17,439.83,124.08
		z M412.48,129.59c7.5-41.5,24.64-14.91,18.88,31.02c-4.35,34.69-17.68,34.07-20.41,1.84c-0.28-3.37-0.92-6.73-0.41-10.2
		c5.73-0.38,3.39,0.33,5,2.76c1.05,4.4,6.67,5.2,8.16,0.2c1.74-5.83,3.14-20.58-3.27-20.71c-5.24-0.11-4.13,5.19-5.92,7.14
		C411.24,141.03,409.79,144.49,412.48,129.59z M416.46,141.12c2.4-13.61,7.98,8.04,1.53,15.71c-1.33-1.12-1.73-2.55-1.53-4.29
		c0.92-0.61,2.04,0,3.06-1.12C422.35,138.7,418.14,143.18,416.46,141.12z M421.05,136.32c3.57,4.39,3.37,15.71-0.41,20.51
		C422.48,150.1,422.58,143.36,421.05,136.32z M356.76,142.85c20.82,0.51,41.12,1.02,61.33,1.43c0.92,2.14,0.82,3.67-0.2,5.41
		C335.93,148.46,360.66,149.35,356.76,142.85z"/>
	<path d="M701.95,273.2C701.9,273.24,701.9,273.29,701.95,273.2L701.95,273.2z"/>
	<path d="M899.53,311.22c-1.14-4.28-0.82-3.34-52.14-3.67c-4.65-0.03-3.75,1.34-4.49-8.27c-0.46-5.97-1.86-14.41-4.29-19.8
		c-3.92-8.7-8.74-6.28-10.41-6.84c-7.35-0.51-9.92,1.01-12.86,7.76c-14.06,32.25,16.05,26.12-56.53,26.12
		c-3.89-4.1-0.51-8.56-6.43-10.92c-3.39-1.36-10.93-3.36-10.71-8.47c0.71-16.52-2.77-20.28-0.51-46.63
		c0.8-9.29,0.27-20.79-4.08-29.08c-4.78-9.13,0-21.38-1.63-30.71c-1.31-7.5-5.39-10.71-2.35-21.74c6.07-21.96-2.07-36.68-8.67-40.92
		c-14.23-9.14-15.85-4.79-25.71-12.76c-11.21-9.05-19.05-7.53-17.25-12.55c1.73-1.73,4.43,1.59,8.27-9.08
		c5-13.91,1.61-13.55,4.29-20c1.68-4.06-0.1-7.65-1.33-11.33c-1.43,12.86-1.63,25.82-7.25,37.45c-8.34,1.82-15.92-3.06-15.92-0.41
		c3.16,1.02,6.22,2.14,9.39,3.16c0.61,4.08,1.12,8.16,0.31,12.35c4.46-2.91-1.86-9.51,8.37-3.27c4.12,12.73-0.06,35.76-12.25,34.39
		c-2.75-0.31-5.41,0.82-8.06,1.43c2.65,1.12,5.1-0.61,7.65-0.41c-6.44,2.94-10.18,3.02-28.47-5.51
		c-9.26-4.32-10.44-12.6-12.86-22.55c-2.42-9.98,0.61-8.52,0.61-12.04c0-1.85-3.78,1.21-3.37,6.53c1.29,16.55,5.76,28.19,20.1,32.96
		c11.34,3.77,14.45,7.45,23.67,3.67c11.53-4.71,12.64-6.08,14.8-12.65c6.52-19.84-4.58-28.39,3.16-22.86
		c3.37,11.33,3.77,22.86,5.2,34.29c1.49,11.83,3.74,11.15,6.22,31.63c-1.84,0.82-3.37,0.1-5.61,0c2.14,1.84,4.18,2.04,6.02,2.35
		c2.04,1.63,2.43,3.77,2.14,6.22c-2.64,22.82-1.63,22.71-6.02,33.16c-5.33,12.7-0.52,12.92-1.12,20.71
		c-0.68,8.82-1.35,17.72-0.1,25.61c-2.35,3.88-5.82,2.14-9.18,2.45c1.12-3.47,2.24-6.73-0.2-9.9c0.71,3.78-1.22,6.94-2.04,10.61
		c-10.1-0.2-20.31,3.67-32.35-0.71c-10.21-0.43-24.25-5.71-36.94-7.76c-9.32-1.5-3.74,1.83-6.02,4.49c-1.53-1.02,0-2.86-1.43-3.88
		c-3.42,0.8,0.7,3.45-2.96,10.31c-1.2,2.26-3.39,3.98-3.78,6.53c-0.75,4.89-2.04,9.69-0.61,14.69c0.22,1.11-1.39,10.72-1.12-8.88
		c0.25-18.33-1.72-2.5,1.94-42.14c0.6-6.53-1.22-12.86-1.63-19.59c2.86-1.22,1.94-5.41,4.9-7.65c6.28,26.7,1.77,44.85,4.51,46.02
		c4.71-25.46-6.4-49.93-2.37-60.21c1.63,1.02,2.35,3.37,4.9,4.18c-0.82-2.86-2.86-4.39-4.69-6.53c0.51-5.41,1.12-11.22,0-16.94
		c1.84-2.76,4.49-4.69,6.12-7.45c1.43,0,2.76,0.71,4.18,0.31c-0.2-1.53-1.84-1.22-2.65-2.76c-0.1-0.41,0.51-1.02,0.92-1.63
		c2.12-2.46,2.04-2.16,8.78-21.94c4.99-14.66,1.99-25.15-0.31-42.76c29.52-13.12,13.33-12.62,21.53-34.29
		c-2.04-0.1-3.67-0.2-3.78-2.45c0.61-0.51,1.73,0.31,2.65-1.02c0.1-1.53,0.31-3.57,0.51-5.41c-1.02-1.53-3.37-2.14-2.86-4.49
		c5.15,0.9,4.08,14.3,6.53,8.57c0.61-1.22,1.23-2.55,1.43-3.88c0.92-6.02,5-10.51,6.94-16.02c0.72-2.04,2.45-1.73,4.08-1.53
		c-0.51-2.24,1.94-1.63,2.45-3.27c-0.1-1.22-1.63-2.14-1.63-3.67c-1.63,0-2.86,0-4.29,0c0.51-0.82,0.92-1.63,2.14-2.04
		c1.94,1.33,5,1.33,5.31,4.69c1.84-0.2,1.02-1.33,1.12-2.24c9.8-2.33,12.15,1.75,19.69-1.53c1.98,13.84,4.27,12.27,2.76,15.2
		c-5.12,3.15-9.91,2.6-7.55,11.63c1.22-1.33,0.31-2.76,1.22-3.98c2.04,0.31,4.18-0.2,6.53-1.22c0.92-2.24,1.22-4.9,1.94-7.45
		c0.57-2.87-0.23,0.57-1.84-8.27c-2.07-11.37,0.54-7.23,6.53-12.96c0.71-1.33-0.71-2.76,0.51-3.98c-1.94-1.33-3.57,0-5.2-0.41
		c0.82-1.53,3.06-1.33,3.47-3.37c-2.35-2.35-3.98,0.1-6.02,0.92c-0.2-2.35,0.92-4.69-0.82-6.94c-1.84,1.22-2.65,3.47-4.69,4.18
		c-0.31-0.51,0.61-0.92-0.1-1.84c-3.78-1.63-7.04,2.36-11.22,1.63c-3.98-0.7-8.16-0.1-12.35,0.1c-1.53,0.71-1.33,3.06-3.47,3.16
		c-0.71-0.51,0.51-2.14-1.33-2.45c-10.62,10.18-8.53,2.38-15.51,2.96c-0.41,1.73,1.53,2.14,1.94,3.37c-1.53,1.72-2.14,3.87-2.24,6.1
		c-0.39-0.08-0.87-0.09-1.53-0.18c1.89,3.96-5.95,13.57-3.88,22.96c1.18,5.38,3.99,5.96,2.45,9.69c-0.63,1.53,11.86,26.87,0.1,32.04
		c-9.55,4.2-14.4,4.67-25.71,12.45c-10.56,7.26-21.29,2.53-27.76,16.53c-2.21,4.78-5.86,8.02-7.35,16.33
		c-0.33,1.82-3.31,11.29-1.43,16.12c4.36,11.21-5.12,10.55-2.24,33.98c1.48,12.01,3.44,14.21,1.22,17.96
		c-5.4,9.13-0.42,17.53-1.02,24.9c-2.07,25.2,8.03,30.37,3.67,32.86c2.55,7.25,4.6,14.69,5.92,22.35c0.62,3.57-0.32,6.41-2.96,8.67
		c-18.7,16.01,23.79,10.98-75.61,10.1c-1.1-1.71-0.1-15.6-1.22-29.9c-0.22-2.75-1.22-4.32-4.08-4.59
		c-11.59-1.1-9.42-1.85-11.33,25.71c-0.09,1.33,0.12,2.68-1.33,3.67c-8.74,6.03,27.76,5.11-86.42,3.47
		c-1.33,3.47-1.73,6.63,0.1,10.41c27.96,0.41,56.02,0.92,84.08,1.33c-4.91,1.64-8.35,14.08-9.08,16.02
		c-1.52,4.06,6.06,8.18,8.57,3.16c2.68-5.35-0.51,1.8,3.88,4.29c0.56,12.8-1.14,16.94,11.43,15.1c6.68-0.98,2.7-35.08,5.41-38.57
		c69.48,1.82,71.6-0.73,71.53,2.35c-0.1,4.8,3.26,6.04,6.84,7.25c1.22,0.41,2.24,1.22,3.98,1.33c2.96-2.76,2.86-6.94,4.29-10.51
		c-2.86,1.84-2.04,6.02-5.31,7.96c-7.39-2.57-8.66-2.2-7.76-7.04c1.6,0,3.61-1.47,4.64,1.11c1.19-0.23,1.8-1.33,2.7-2.13
		c3.37,1.89,8.84-1.48,5.26-8.89c2.21,1.53,1.21-1.44,2.3-2.74c3.78,2.55,2.14,6.84,3.37,10c-0.51,1.12-1.84,0.71-2.35,1.63
		c0.71,1.43,1.94,0,2.86,0.41c0.31,5.71-1.53,7.65-7.04,7.35c0.71,1.84,2.36,2.27,3.57,1.73c2.88-1.27,5.51-0.61,8.27,0
		c1.34,0.45,1.27-0.51,1.94-1.84c10.77-2.28,2.38-6.78,10.92-5.71c1.12,3.47,0.71,7.35,2.65,10.61c-0.31-3.47-0.61-6.84-0.92-10.31
		c13.67,0,27.25,0,41.02,0c1.43,8.98,1.22,17.35-0.51,25.71c3.67-8.16,2.55-16.73,2.24-25c5.91-3.18,3.2,6.39,5.2,14.39
		c0.51-4.9-0.71-9.59-0.41-14.59c4.69,0,9.39,0,14.08,0c13.14,20.27,12.44,19.26,13.47,19.9c1.93-0.18,2.25,1.61-8.27-15.41
		c-3.44-5.57-7.27-4.18,22.65-4.18c0.71,0.92,0.6,1.53,0.51,2.14c-0.8,5.67,0.28,85.86,0.59,85.92c0,0.46-0.09,0.07,1.74,0.82
		c0.92-0.71,0.2-1.33,0.1-1.94c-2.6-10.12,2.19-26.55-0.1-38.37c-0.42-2.14,0.82-4.29,0.61-6.53c-1.73-18.85-0.06-25.73-1.84-30.71
		c2.65-3.16,0.82-7.25,2.24-10.82c4.18,0,8.37,0,12.65,0c2.7,8.1,6.48,7.33,14.69,8.78c4.69,0.82,5.25-7.88,4.18-11.84
		c-0.61-2.25-0.1-3.98,1.43-5.71c4.29,1.33,3.61,5.4,3.88,8.37c0.36,3.98-1.73,7.35-6.12,8.88c2.73,2.46,6.71-0.75,8.27-1.02
		c4.99-0.86,5.82-1.73,6.22-7.04c17.76,0.31,35.61,0.61,53.47,1.02c0.71,5.51,0.64,10.81,1.53,16.02
		c3.15,18.38,6.02,20.4,16.22,20.92c7.25,0.37,9.12-5.65,10.92-8.88c8.03-0.7,7.15-8.83,5.2-16.63c-0.89-3.58-0.41-7.04,0-10.51
		c1.33-0.82,2.65-0.52,3.88-0.51C894.49,318.17,902.22,321.31,899.53,311.22z M689.32,48.77c1.02-0.41,1.73-0.82,2.76-0.2
		C691.06,49.28,690.34,48.97,689.32,48.77z M694.32,19.99c0.55,0.08,4.32-1.62,0.61,2.55C694.12,21.63,694.12,20.91,694.32,19.99z
		 M689.42,13.16c0.51,1.94-0.2,2.45-1.22,2.96C688.2,15.1,688.61,14.38,689.42,13.16z M680.65,27.85c-1.94-0.41-3.16-0.61-4.29-1.94
		C677.99,26.12,679.12,26.53,680.65,27.85z M675.85,23.57c0,0.51-0.31,0.82-0.92,0.71C675.04,23.77,675.04,23.16,675.85,23.57z
		 M672.89,24.89c0.82-0.2,1.12,0.1,1.12,0.82C673.2,26.12,672.79,25.91,672.89,24.89z M674.42,17.24c-0.92,1.22-1.73,1.94-2.96,2.45
		C671.36,17.65,672.18,16.93,674.42,17.24z M666.26,16.12c-0.2,0-0.41,0.2-0.51,0.1C665.21,15.95,665.63,14.87,666.26,16.12z
		 M659.83,35.2c0.51,1.33,0.51,1.33-0.92,2.45C659.32,36.93,658.4,35.81,659.83,35.2z M657.59,18.67c-0.67,2.02-1.72,2.27-2.14,1.43
		C655.95,19.48,656.46,18.87,657.59,18.67z M658.81,25.61c-0.71,1.73-1.84,3.27-3.98,4.49C655.44,27.55,657.38,26.83,658.81,25.61z
		 M654.52,41.32c-0.1,1.53-0.71,2.04-1.73,2.45C652.59,42.14,653.3,41.83,654.52,41.32z M653.5,52.04c-0.1,0.31-0.2,0.71-0.71,0.92
		C652.59,52.24,652.48,51.73,653.5,52.04z M645.85,43.97c0-1.33-1.02-2.76,0.71-3.78C646.36,41.42,646.16,42.75,645.85,43.97z
		 M651.67,41.42c-0.61,0.71-1.22,1.12-2.35,1.43C649.83,41.63,650.03,40.51,651.67,41.42z M645.44,24.89
		c1.12,0.41,1.33,1.73,3.27,2.04c0.92-1.72,2.85,0.15,0.61,1.43c-5.4-1.96-3.66,0.07-6.72,1.02c0-1.53,1.63-1.84,1.53-3.16
		C640.96,24.72,641.28,25.92,645.44,24.89z M643.2,53.16c1.02,0.2,1.63,0.92,2.35,1.94c-0.82,0.92-1.43,1.84-1.43,3.47
		C642.79,56.53,640.95,55.1,643.2,53.16z M402.79,308.47c-0.82-1.94-0.2-3.47,0-5.51c28.27,0.41,56.02,0.82,83.98,1.22
		C486.41,311.75,497.04,309.86,402.79,308.47z M479.22,330.51c-1.15-1.2-0.82-2.65-0.1-3.88c4.63-7.06,4.63-12.52,8.16-11.63
		C485.31,321.96,485.79,337.38,479.22,330.51z M489.42,299.08c0,5.1,0,10.51,0,16.53C487.79,312.76,488.09,303.06,489.42,299.08z
		 M489.52,332.25c-0.96-4.02-0.13-7.89,0-11.73C489.52,324.43,489.52,328.31,489.52,332.25z M706.46,206.12
		c2.24,4.8,1,9.18,0.51,13.37c-2.19,18.59,5.98,25.06,8.06,38.67c0.31,2.04-0.54,3.99,0.31,6.02c2.73,6.59,11.57,31.37,7.86,40.82
		c-3.98,0-8.06,0-12.35,0c0.37-4.11-2.46-25.26-7.45-33.27c-2.48-3.99,0.83-5.2-0.51-10.31c-2.21-8.43,0.91-28.67-1.12-41.84
		C701.51,218.53,702.11,217.81,706.46,206.12z M700.44,262.55c0,1.63,0.92,3.37-0.82,4.59
		C700.14,265.71,697.99,263.67,700.44,262.55z M695.24,263.98c0.1,0.41,0.41,1.02-0.41,0.82
		C694.22,264.64,694.32,263.06,695.24,263.98z M690.55,263.26c2.55,0.2,2.04,1.33,1.02,2.86
		C690.95,265.2,690.34,264.59,690.55,263.26z M688.4,264.18c0.41,0.71,0.41,1.33,0,2.04C686.07,264.89,686.92,263.69,688.4,264.18z
		 M686.57,266.73c-3.06,0.31-3.06,0.31-3.67-1.33C684.12,265.92,685.04,267.04,686.57,266.73z M665.65,265.82
		c-1.02-0.1-1.84,0.41-2.86-0.71C663.81,265.2,664.63,264.8,665.65,265.82z M659.32,264.9c-0.61,0.31-1.12,0.31-1.84-0.31
		C658.4,264.49,659.01,264.08,659.32,264.9z M644.73,263.57c2.02,1.26,4.16-0.58,5.92,0.82c1.71,1.36,4.29-1.63,6.02,1.12
		c-6.12,0.61-11.73-0.2-17.35-2.04C641.16,261.84,643.29,262.67,644.73,263.57z M637.08,263.57c-0.82-0.41-1.73-0.1-1.63-1.63
		C636.57,261.53,636.97,262.04,637.08,263.57z M633.3,260.41c0.71,1.02,0.51,1.73-0.82,1.84C631.59,262.24,631.3,260.1,633.3,260.41
		z M630.03,259.28c0.31,1.02,0.41,1.73-0.51,2.14C628.91,260.61,629.01,260,630.03,259.28z M626.67,256.53
		c0.31,1.63,0.51,2.86,0.71,4.08c-1.33,0.41-2.35,0.31-3.47-0.1C624.32,258.98,624.73,257.55,626.67,256.53z M621.87,257.86
		c0.2,0.82,0.61,1.63-0.82,2.65C620.65,259.08,620.65,258.37,621.87,257.86z M619.93,256.73c-1.02-1.53-2.45-1.43-3.88-1.33
		C619.32,254.8,619.32,254.8,619.93,256.73z M616.97,259.39c-0.61-0.82-0.1-1.22,0.51-1.63
		C618.76,259.04,617.33,259.74,616.97,259.39z M606.56,276.33c-0.2-6.43,3.47-11.02,6.12-16.22c4.9,0.61,9.8,2.14,14.9,2.45
		c0,3.27,0.31,6.22,1.94,8.78c0.71-2.55-0.1-5.1,0.61-7.96c9.8,2.65,19.59,4.8,29.59,3.88c5.79,12.74,2.03,2.33,2.35,0.31
		c4.8,0.61,9.39-1.84,14.08,0.2c0.31,3.78,2.35,6.63,4.8,9.69c0.2-4.08-2.96-7.14-1.94-11.02c-2.96-0.71-5.92-0.71-8.88-1.12
		c3.67-1.12,7.55,0,11.12-0.92c0.71,1.12-0.71,1.84,0,2.76c0.61,0.61,1.84,0.41,2.45,1.43c0,2.35-0.41,4.8,0.51,7.24
		c5.21-9.56-2.65-6.49,7.04-7.14c2.86-0.19,5.71-0.41,8.47-1.53c1.84,1.73,1.22,4.29,2.24,6.02c-0.01,0.02-0.01,0.02-0.02,0.04
		c0.15-0.12,0.73-0.14,1.86,3.43c5.4,17.12,0.82,11.72,0.82,14.49c3.45,6.9,1.79,4.94,0.82,7.86c0.61,0.82,1.43-0.41,2.04,0.71
		c-0.62,4.34,2.65,5.88-7.04,5c-0.82-12.04-1.12-12.96-4.59-13.16c0.82,4.29,3.98,8.06,2.96,12.55c-11.43,0-22.45,0-33.67,0
		c0-19.73,0.25-5.89-2.24,0c-3.16-3.57-1.12-8.37-2.45-13.16c-0.51,4.8,0.31,8.98-0.61,12.76c-45.75,0-42.94,2.08-32.65-6.73
		c-2.04-0.31-3.07,1.01-3.98,2.24c-4.64,6.3-13.25,5.01-14.39,2.55c3.11-19.71-0.18-7.19-0.82-6.43c-5.03-4.1-2.47-8.5,0.51-17.45
		C608.2,276.73,606.67,277.14,606.56,276.33z M610.44,170.81c-0.82-4.49-1.53-8.47-2.24-12.45
		C615.38,167.18,617.58,163.26,610.44,170.81z M492.48,349.08c-2.55-26.63-1.22-53.06,0.41-79.29c3.67-1.53,6.73-0.82,9.8-0.2
		c-1.94,26.53-2.45,52.86-1.02,79.49C498.6,349.59,495.85,349.9,492.48,349.08z M503.81,313.67c0.36,7.56-0.31,15.2-0.51,23.16
		c-2.89-2.57,0.92-70.98,0.92-53.37c0,17.92,0.66,18.14-1.22,19.08C502.48,306.33,503.63,310,503.81,313.67z M504.62,310
		c-0.31-1.94-0.31-3.47,0-5.51c93.43,1.54,70.13,0.06,75.31,4.08C585.67,312.1,598.21,311.45,504.62,310z M591.5,303.16
		c-0.6-0.14-1.04-0.52-1.48-1.02c0.29-0.38,1.57,0.09,1.27-0.95c-0.54-1.84-3.51-0.3-3.81-3.23c-1.53,3.47,0.09,4.71,1.94,6.02
		c3.05,2.17,2.76,6.22-0.71,7.86c-2.04-2.35-4.9-3.47-7.66-5.1c-0.1-2.76-0.51-5.51-2.35-7.25c6.43-7.42,11.96-9.81,6.22-26.22
		c-2.56-7.33,1.33-3.47-4.49-21.53c-4.57-14.19-1.95-25.05-3.27-31.84c-3.59-18.57,4.33-14.57,2.24-25.31
		c-1.21-6.22-4.1-17.47-2.55-23.16c3.91-14.35,4.92-18.85,3.06-23.16c-0.72-1.68,1.14-16.84,8.98-28.88
		c9.26-14.21,13.69-4.83,30-17.96c2.15-1.73,4.59-2.86,8.06-2.96c-2.04,3.98-1.02,7.76,0.1,11.43c-1.12,1.02-2.45,0.1-3.37,1.12
		c3.33,1.82,5.18-3.49,4.39,17.45c-1.53,0.2-2.76,0.31-4.08,0.51c1.12,1.43,2.76,0.1,3.67,1.43c-0.24,3.28-6.82,34.56-12.86,32.55
		c-9.05-11.48-7.06-29.04-9.69-22.45c-1.33,3.98,1.34,7.45,1.12,11.43c-0.72,13.31,6.35,23.24,0,47.55
		c-0.91,3.47-0.11,7.44-2.45,10.31c-6.45,7.88,0.58,11.31-2.55,36.43c-0.96,7.7-2.61,40.87,1.73,46.84c1.33,1.83-0.51,3.78-0.1,5.61
		c1.73-0.2,0.61-2.45,2.24-2.86c0.51,1.84,1.63,3.57,0.82,6.12c-1.63-3.06-5.1-1.43-6.84-3.27
		C590.1,299.24,593.62,303.67,591.5,303.16z M599.22,319.18c5.03-9.39-5.72-22.04,4.69-16.84
		C605.1,316.2,607.86,319.67,599.22,319.18z M606.77,318.16c0.83-6.06-3.16-20.35,0.82-14.39
		C610.28,308.37,612.6,317.12,606.77,318.16z M611.97,311.63c-0.2-1.94-0.41-3.57-0.61-5.51c127.67,2.99,118.88-1.58,116.43,7.24
		C689.02,312.76,650.55,312.25,611.97,311.63z M748.51,308.37c0.31,0.71,0.51,1.12,0.92,1.94
		C748.1,309.8,748.1,309.29,748.51,308.37z M754.12,318.78c-1.33,1.12-2.55,2.76-5.31,3.16c1.63-3.57,0-6.63,0.61-9.69
		C750.75,314.59,755.04,314.69,754.12,318.78z M754.73,313.06c-1.73,0.31-2.44-0.72-3.27-1.73c-1.82-2.26,0.2-4.39,0.51-6.63
		c-2.55-0.61-2.35,2.55-4.39,2.55c-1.73-1.22-3.67-2.96-6.02-0.82c0-2.35-1.73-2.24-3.47-2.86c0.61,1.94-1.73,2.55-1.33,4.29
		c1.12,0.61,1.02-1.33,2.65-0.51c4.6,17.02-0.09,11.15-1.94,12.45c0.2,1.12,2.35,0.61,1.53,2.45c-0.82,0.92-2.04,0.2-3.06,0.2
		c-0.61-0.71,0.61-1.33,0.1-1.84c-0.57-0.48-1.73-0.1-1.63,0c-3.57,2.76-7.45,0.71-8.67-4.49c1.73-1.53,1.73,1.43,3.37,1.12
		c1.12-2.35,0.51-5.2,1.33-8.06c1.43,0.2,1.33-1.84,2.86-2.04c2.96,0.92,0.92,3.37,1.12,4.9c0.3,2.25,0,4.8-1.43,6.84
		c-0.82,0.92-2.04-0.82-2.76,0.41c2.26,3.62,6.77,2.02,5.41-11.53c-0.63-6.31-10.12,2.09-9.49-6.02
		c1.1-14.19-9.09-44.64-13.78-58.06c-5.67-16.25-0.88-23.29-3.27-36.02c-0.1-0.1,0.1-0.31,0.2-0.41c0.61,0.1,0.61,1.73,1.84,0.82
		c-4.59-20.12-1.85-12.03-1.94-19.08c-0.19-14.62,1.41-14.33,0.51-17.76c11.88-9.9,16.26-26.44,13.37-33.47
		c-0.41,2.14-1.12,3.16-2.65,3.67c1.21,3.62-0.66,13.92-9.49,23.78c-1.35,1.51-2.86,2.76-3.27,4.9c-1.87-1.04-1.57-8.22-2.14-10.51
		c-2.26-9.08-4.79-18.06-5.41-27.45c-1.63-24.91-5.09-22.88-3.78-25.51c2.04,1.33,3.69,3.04,5.71,4.08
		c5.24,2.69,11.15,3.5,16.53,5.82c8.53,3.67,13.72,15.82,14.29,25.2c0.96,15.94-6.15,19.87-1.12,33.57
		c2.3,6.26,2.12,11.31,1.33,19.49c-2.02,20.78,11.9,24.47,4.29,52.14c-0.7,2.55-1.53,5.1-0.71,7.96c0.31-0.71,0.1-1.84,1.33-1.73
		c-1.53,13.06,2.86,25.92,1.33,38.98c1.43,0.71,1.84-0.61,2.04-0.61c9.57,7.18,12.32,4.56,13.57,11.12
		C755.53,305.78,758.16,308.56,754.73,313.06z M757.18,313.98c0.1-2.45,0.92-4.08,2.14-5.92c20.1,1.12,40,0.41,59.8,1.53
		c0.31,1.94,0.61,3.57-0.51,5.2C798.2,314.49,777.79,314.29,757.18,313.98z M818.71,321.84c-1.22-1.22-1.63-2.65-1.63-4.39
		c1.02-0.2,1.94-0.31,2.96-0.51c1.33-3.16,1.33-6.33,0.71-9.39c-1.22-1.12-2.55-0.41-3.67-1.33c0.41-1.63,0.51-3.57,2.24-5
		C822.79,306.43,822.38,318.06,818.71,321.84z M821.57,301.12c3.98,4.69,3.47,17.96-0.31,20.51
		C823.2,315,823.51,308.27,821.57,301.12z M816.77,347.96c-4.83-9.57-5.31-20-5.61-30.51c5.12-1.28,4.42,1.07,5,3.06
		c1.12,3.82,6.62,4.86,7.96,0.31c1.81-6.16,3.04-20.97-3.27-21.12c-6.84-0.16-2.6,9.33-9.08,6.63c-0.37-13.89,7.64-41.1,15.2-29.39
		C841.38,299.24,827.88,369.95,816.77,347.96z M840.65,342.65c-1.61-0.4-1.36,1.33,1.43-11.22
		C842.28,335.31,843.41,339.39,840.65,342.65z M836.26,346.33c-2.72,5.53-5.31,6.84-11.84,5.82c11.75-12.73,13.87-62.79,2.14-78.06
		c5.99-0.74,10.47-1.03,13.67,13.47C844.05,304.82,843.37,331.86,836.26,346.33z M897.59,315.41c-18.06,0-35.92,0-53.78,0
		c0-2.24-0.31-3.88,0.2-5.2c17.96,0,35.71,0,53.06,0C898.71,312.35,898.51,314.08,897.59,315.41z"/>
	<path d="M707.79,403.78l0.1,0.1C707.89,403.79,707.92,403.82,707.79,403.78z"/>
	<path d="M583.71,314.59l0.1,0.1C583.73,314.53,583.79,314.59,583.71,314.59z"/>
	<path d="M726.36,556.54c-2.77-1.7-0.67-5.17-5.61-8.78c-2.54-1.85-5.16-3.9-6.73-6.84c-0.99-1.85-3.16-2.35-4.69-3.67
		c-0.2,0.61,0,1.33-0.51,1.94c-3.67,0.92-7.25,1.94-10.82,4.9c2.65,0.51,0.41,2.96,2.24,3.88c2.45-2.55,6.53-1.94,10.1-0.92
		c-5.61,1.53-5.61,1.53-6.22,4.18c1.94,0.41,3.78-0.71,5.71-0.61c8.47,0,8.97-1.06,10.41,1.02c-9.29,0.82-12.25,1.84-13.67,4.49
		c2.02,2.02,15.59-4.02,15.82,0.2c-3.88-0.1-7.76-0.31-11.02,2.45c4.18,1.22,8.27,0,12.65-0.51c1.8,0.79,12.63,8.68,12.86,10.2
		c0.49,3.27,1.63,6.33,2.35,9.69c-17.23-3.96-10.34,6.61-31.12,1.94c-7.79-1.75-3.91-6.67-8.67-10.1c-0.71,1.43,1.12,2.35,0.2,3.98
		c-3.75-3.98-19,1.29-20.2-7.76c2.72-2.72,1.21-8.12,3.88-10.61c3.07-2.87,0.82-5.89,2.24-12.14c1.12,0,1.22,1.02,1.94,1.43
		c6.69,3.35,4.36-3.74,11.73-5.82c-3.06-1.33-2.76-4.18-4.08-6.53c3.98-1.12,8.06-0.31,11.63-2.04c0.92,2.55-0.51,5.2,0.82,7.35
		c1.82,0.55,2.24-1.86,2.24-3.67c0.46-6.64-3.61-6.02-9.69-6.02c-0.92-3.16-0.31-6.43-0.92-9.29c-1.02,2.76-0.82,5.92-0.51,9.08
		c-2.76,1.33-5.51,0.51-8.47,1.22c-0.71-3.16-1.43-6.12-2.04-9.18c-2.11,0-0.26,6.63,0.2,8.88c-0.27,0.61-3.06,2.19-3.06-0.2
		c-6.45-43.54-20.03-46.25-18.37-73.37c1.1-17.92-0.83-17.1,0.2-20.71c3.87-8.58,0.18-16.21-3.16-28.47
		c6.04,2.45,9.85,5.92,15.2,5.1c19.68-3.01,14.47-5.62,19.39-3.98c0.78,9.38-1.32,7.23-0.82,17.76c0.42,8.8-0.97,8.26-0.31,10.71
		c8.27,30.5,1.97,88.26,6.43,91.53c1.7-1.7-0.33,1.07,0.71-52.04c0.01-0.31,0.77-20.53-1.43-24.39c-2.82-6.26-4.05-30.09-2.24-36.63
		c0.71-2.55,0.61-5.2,0.92-7.76c1.81-1.6,4.39-1.14,5.84-2.88c-5.2-0.95-2.49,1.09-29.92,5.12c-3.43,0.5-20.79-9.88-25.06-10
		c0.61-2.79-1.11-19.56,0.78-35c-1.59,1.59-2.58,9.53-2.65,10.92c-1.15,21.17,3.35,27.49-4.18,27.04
		c-16.75-1.01-12.06,2.85-29.8-1.12c-40.03-8.97-29.02,0.02-22.45-34.39c-0.51,7.04-0.82,14.08-2.35,21.02
		c2.44-2.82,4.12-18.82,3.57-23.27c-0.97-7.89,1.33-11.83,1.33-27.04c0-5.62,2.83-6.74,6.94,7.65c1.73-5.82-1.33-9.9-5.31-13.57
		c-0.2-2.76,1.12-5.51,0-8.16c-6.76-1.93-1.51,31.99-11.02,58.06c-1.64,4.49-1.33,9.29-2.76,13.78c5.82,2.14,11.02,5.2,17.14,5.92
		c1.56,30.76,3.3,25.49-0.51,42.14c-4.99,21.82,18.75,97.14,18.78,97.25c0.51,2.45,2.04,4.59,4.29,6.43
		c1.67-4.16-4.85-4.21,6.53-6.94c8.06-4.45,16.35-1.02,0,0c-0.1,0.51-0.51,0.72-0.92,0.82c-7.22,1.62-2.9,6.72-5.71,9.18
		c-0.92,0.41-1.02-1.22-2.14-0.71c0.47,2.1-1.68,3.61-1.63,5.61c0.15,7.05-2.76,13.27-4.8,19.69c1.84,2.65,5,3.47,6.63,6.02
		c0.61-3.47-2.96-4.08-4.29-6.53c2.53-6.96,3.95-8.2,3.67-13.47c-0.62-11.86,6.22-6.58,6.22-13.47c0-4.39,3.42-4.89,12.35-6.33
		c0.71-0.11,1.43,0.51,2.24,0.82c0.1,2.04-0.2,3.98-1.12,5.92c1.63,0.31,2.35,1.22,2.14,3.06c-5.61-2.76-10.71-2.24-15.31,2.35
		c0.71,1.33,1.73,2.14,1.53,3.88c3.67-2.65,7.14-0.71,10.71-0.61c-3.37,1.12-7.35,0.82-10,3.88c1.02,1.33,1.94,0.82,2.76,0.61
		c10.36-3.22,13.2,0.58,14.58-0.53c0.37,0.37,0.42,0.43,0.42,0.53c0,10.16,10.51,14.51,10.61,19.59c0.05,2.45,0.82,4.69,1.94,6.63
		c0.92,0.1,1.33-0.41,1.22-0.71c-1.12-4.39,0-9.29-4.59-12.65c-2.65-1.94-4.82-5.2-5.41-8.67c-1.76-10.37-7.74-17.99-7.35-18.78
		c1.43-3.98-0.51-7.24-2.65-11.02c-0.2-0.31-1.43,0.41-2.04-0.41c-5.2-28.17,1.18-48.14,1.63-51.43
		c3.29-23.95-4.64-33.51-3.27-52.04c0-3.49,0.21,3.02,3.67-13.47c0.98-4.69-0.72-6.9,2.76-12.76c3.29-0.19,7.12-0.31,7.78-4.83
		c0.51,0.9,1.49,1.35,2.43,1.87c9.85,5.47,2.11-0.1,7.14,7.96c8.24,13.18-1.75,35.64,3.27,65.72c0.24,1.45,12.54,22.51,16.63,49.08
		c1.08,6.98,4.18,10.72,2.24,16.43c-2.59,7.66-0.92,10.62-1.43,11.63c-2.24,3.67-2.96,7.96-4.69,11.73c-1.12,2.45-1,4.16,0.51,5.92
		c5.7,6.65,13.23,2.87,21.53,6.12c1.53,6.89,17.12,6.98,24.08,6.22c3.16-3.57,8.67-4.59,13.57-2.45c-24.27,4.47-2.68,2.47,2.55,0.61
		C741.88,569.41,735.79,562.32,726.36,556.54z M705.04,542.96c2.45-0.61,5-2.65,7.14,0.61
		C709.73,543.37,707.38,543.17,705.04,542.96z M692.69,531.94c1.22,1.94,2.55,3.88,2.76,6.43c-2.55,0.82-3.37,3.37-5.31,5.31
		c-3.67-2.55-2.45-6.63-3.47-9.59C688.3,531.74,690.34,531.53,692.69,531.94z M647.34,557.95c1.18,2.95-0.45-0.38-4.34-1.62
		c0.71-0.92,1.63,0.1,2.35-0.61c-0.33-1.95-0.77-2.15,0.07-1.47C644.61,552.93,646.85,555.3,647.34,557.95z M644.93,553.98
		c-4.18-1.63-8.57-1.84-13.06-1.63c2.55-1.53,5.3-1.62,7.86-0.71C641.47,552.26,643.93,551.64,644.93,553.98z M636.26,411.53
		c0.82-0.41,1.73-0.82,2.65-1.22c1.84,3.57,0.31,7.04-0.71,10.1c-7.65,18.41,4.08,33.96,0.82,57.96
		c-6.59,48.51-1.88,31.49-6.02,24.59c0.2,10.61,5.1,20.61,4.49,31.63c-5.1,1.33-10.51,2.86-15.71,4.9
		c-1.1-7.39-5.79-14.97-9.59-35.31c-6.3-33.68-9.74-36.61-8.67-56.53c1.4-26.12,4.51-0.13,0.71-46.43c3.98,2.24,1.73,6.63,4.18,8.98
		c0.2-2.14-0.2-4.29,0.41-6.73c10.41,3.47,20.82,0.41,31.12,0.41c1.02,4.8-3.57,4.8-5.41,7.25c-0.31,2.14-0.77,4.49-0.82,6.94
		c-0.05,2.86-3.67,3.27-4.18,6.12C636.67,420.41,637.38,419.08,636.26,411.53z"/>
	<path d="M612.99,354.69c-0.74,1.11-0.56,1.08-0.41,1.84c15.6-11.14,9.36-6.27,20-11.94c1.67-1.04,17.05,0.78,20-1.33
		C645.62,343.5,625.84,337.97,612.99,354.69z"/>
	<path d="M221.05,342.55c-11.66-0.33-23.66,7.57-26.22,13.98c5.63-2.2,0.01-1.48,20.31-11.84c2.95-1.31,17.19,0.88,20-1.53
		C230.33,343.67,225.74,342.69,221.05,342.55z"/>
	<path d="M640.14,588.98c5.92-1.73,11.94-4.08,18.67-4.49c-3.78-2.04-14.8,0.41-21.43,4.59c-11.12-1.84-11.12-1.84-15.51-7.35
		c-1.78,9.48,10.56,7.53,18.78,10.2C641.67,590.41,639.93,590.21,640.14,588.98z"/>
	<path d="M270.54,395.92c-2.35-2.55-4.15-3.11-6.22-1.94c-3.02,1.71-1.73,4.39-1.43,6.94c3.06,0.51,6.02,1.12,7.86-2.65
		c1.53,1.33,2.97,2.89,5.1,2.35C283.48,398.66,276.77,387.25,270.54,395.92z M266.15,399.8c1.73-3.47-1.43-1.22-1.94-2.45
		c0-2.82,3.76-3.07,4.39-0.92C269.02,397.86,268.7,399.19,266.15,399.8z M275.03,398.98c-2.5,0-3.29-3.93,0-4.69
		C278.63,394.8,277.79,398.98,275.03,398.98z"/>
	<path d="M680.44,400.92c3.37,0.61,6.33,1.02,7.86-2.65c7.18,5.88,10.76-1.72,7.04-4.69c-2.27-1.81-4.9-1.02-7.14,2.24
		c-1.53-2.14-3.57-3.27-6.12-2.04C678.91,395.51,680.34,398.27,680.44,400.92z M695.14,396.84c-0.44,3.07-4.59,2.77-4.59-0.1
		C690.34,393.37,695.35,393.73,695.14,396.84z M686.36,396.74c0.18,1.64-0.31,2.76-2.45,2.86c1.12-2.65-1.33-1.43-2.14-1.84
		C681.96,393.91,686.12,394.51,686.36,396.74z"/>
	<path d="M240.95,584.29c-3.98-1.63-14.9,1.02-21.12,4.9c-5.41-1.63-12.55,0.1-15.1-8.06c-2.69,10.23,9.71,7.9,18.47,10.82
		c1.02-1.53-0.61-1.63-0.82-2.86C228.5,587.25,234.41,585.01,240.95,584.29z"/>
	<path d="M305.13,202.45c-12.09-13.98-8.92-18.42-11.33-27.35c-1.64,2.47,0.38,5.75-0.41,9.9
		C292.14,191.59,299.65,202.45,305.13,202.45z"/>
	<path d="M258.8,51.63c0.1-2.14,2.24-1.94,3.67-2.45c-1.22-5.31-10.2-5.61-16.02-0.61c2.04,0.71,3.06-1.22,4.8-1.53
		c1.63,1.02,3.67,0.92,5.71,1.33c-2.86,1.12-5.92,1.33-8.57,2.96C251.76,52.14,255.03,52.44,258.8,51.63z"/>
	<path d="M679.83,49.69c-0.1-2.14-0.61-3.59-2.24-3.88c-4.79-0.86-9.69-1.53-13.78,2.55c1.73,0.31,1.73,0.31,4.69-1.33
		c1.73,1.43,4.18,0.31,6.22,1.53c-3.06,1.12-6.33,0.92-9.8,2.96C680.38,54.23,674.46,48.16,679.83,49.69z"/>
	<path d="M674.93,384.7c-3.78-10.92-8.88-21.12-16.73-29.69C663.71,364.9,669.83,374.59,674.93,384.7z"/>
	<path d="M257.48,384.29c-3.78-10.82-8.88-20.82-16.63-29.29C246.35,364.8,252.37,374.29,257.48,384.29z"/>
	<path d="M667.79,224.28c-0.51-9.18,4.49-17.45,2.04-26.43c-0.61,0.2-1.02,0.31-1.02,0.41
		C669.63,208.57,662.39,217.86,667.79,224.28z"/>
	<path d="M696.67,413.47c-1.53,1.94-0.92,4.29-1.33,6.53c-1.53,1.94-4.29,2.35-5.2,4.39c0.2,1.33,1.43,1.33,1.84,2.04
		c0.51,3.37-1.02,6.43-0.61,9.69c2.96-2.45,3.67-6.63,1.84-11.22C698.61,422.45,696.57,417.66,696.67,413.47z"/>
	<path d="M279.52,413.47c-1.94,1.73-0.82,4.18-1.53,6.53c-1.12,1.94-4.08,2.14-5.1,4.29c-0.2,1.53,1.53,1.33,1.94,2.86
		c0,2.76-0.92,5.82-0.41,9.08c2.55-3.37,3.47-7.04,1.43-11.22C281.05,422.45,279.52,417.76,279.52,413.47z"/>
	<path d="M654.12,77.65c-1.43-3.78-2.96-7.35-2.96-11.43c-1.48,5.2-0.21,11.27,0.92,11.84C663.76,86.74,672.65,90.52,654.12,77.65z"
		/>
	<path d="M236.66,77.65c-1.33-3.67-2.96-7.24-2.76-11.33c-1.53,3.67-1.12,7.45,0.31,11.02C235.74,81.17,262.09,94.14,236.66,77.65z"
		/>
	<path d="M642.99,367.76c-2.96,1.12-4.67,3.47-4.8,6.22c-0.37,7.94-2.8,16.47-1.94,23.37c1.22-0.41,0.82-1.43,0.82-2.04
		c0-6.84,2.23-13.36,2.55-20.1C639.76,372.35,641.26,370,642.99,367.76z"/>
	<path d="M248.8,329.59c0-12.45-2.96-24.9-0.71-37.55C244.01,304.69,247.88,317.14,248.8,329.59z"/>
	<path d="M220.54,375.21c0,6.71-3.11,18.7-1.12,21.94c-0.1-6.63,2.26-12.86,2.45-19.39c0.11-3.67,1.33-6.94,3.98-9.69
		C224.58,366.93,220.54,371.06,220.54,375.21z"/>
	<path d="M243.9,309.9c-3.32,10.34,1.14,7.43-2.76,30.82C245.7,336.96,243.46,320.06,243.9,309.9z"/>
	<path d="M222.99,559.7c-3.24,0.07-8.16,0.07-7.86,3.27c4.49,0.31,8.98-1.33,13.98-0.71C227.37,559.9,225.23,559.65,222.99,559.7z"
		/>
	<path d="M631.97,562.96c5.1,0.1,9.59-1.22,14.29-0.82C642.89,558.58,635.14,558.78,631.97,562.96z"/>
	<path d="M280.33,399.8c1.94,0.1,1.94-1.84,3.06-2.24c1.63-0.31,0.71,1.94,2.55,1.84c0.61-2.35,0.31-4.69-0.31-7.04
		c-2.74-1.17-8.18,0.83-5.71,3.67C281.35,397.35,280.23,398.47,280.33,399.8z M284.42,394.29c-0.61,1.94-1.63,1.84-3.67,0.41
		C282.38,393.98,283.19,393.16,284.42,394.29z"/>
	<path d="M701.16,397.55c1.63-0.31,0.71,1.94,2.55,1.84c0.61-2.35,0.2-4.69-0.2-7.04c-2.35-1.1-8.11,0.2-5.92,3.37
		c1,1.44,0.92,2.55,0.31,4.08C700.04,399.9,699.93,397.86,701.16,397.55z M702.08,394.29c-0.61,1.94-1.63,1.84-3.67,0.41
		C700.04,393.98,700.85,393.16,702.08,394.29z"/>
	<path d="M228.19,112.24c6.22,3.37,13.57,3.47,18.37,8.78C245.03,116.43,234.82,111.63,228.19,112.24z"/>
	<path d="M663.81,121.12c-1.33-4.59-10.31-8.98-18.67-9.08C648.93,114.67,660.42,116.16,663.81,121.12z"/>
	<path d="M239.62,384.39c3.88,1.43,2.76,5.92,5.51,8.98c-0.41-7.86-6.94-12.86-7.04-20C237.27,377.25,238.8,380.82,239.62,384.39z"
		/>
	<path d="M655.03,375.21c0.61,2.96,0.63,6.21,2.04,8.67c0.93,1.63,2.54,3.07,3.27,5c0.5,1.33,0.61,2.76,1.84,3.67
		c-0.1-7.14-6.63-12.04-6.22-19.39C654.63,373.57,654.83,374.49,655.03,375.21z"/>
	<path d="M636.57,166.12c5.71-1.63,11.63-0.82,17.76-2.14C650.85,162.04,641.06,163.16,636.57,166.12z"/>
	<path d="M243.39,291.84c-1.05,0-0.61-2.1-0.61,14.08c2.04-5.51,3.06-11.22,3.06-17.14C244.1,292.76,243.39,308.24,243.39,291.84z"
		/>
	<path d="M348.5,143.06c-3.22-7.14-5.14-15.77-11.84-9.59c1.84,0,3.67,0,5.2,0C344.93,136.43,344.72,141.02,348.5,143.06z"/>
	<path d="M278.5,291.43c0.51,4.8,3.98,8.67,3.16,13.57C284.11,299.08,282.48,292.45,278.5,291.43z"/>
	<path d="M678.91,80.2c2.65,1.43,5.61,1.22,7.86-0.71C684.32,76.02,680.75,76.32,678.91,80.2z"/>
	<path d="M684.83,166.73c4.18,2.86,10.1,3.98,13.57,2.86C696.87,168.06,689.83,166.53,684.83,166.73z"/>
	<path d="M257.58,74.38c0.1,0.31,0.1,0.71,0.2,1.02C263.36,77.43,286.23,71.65,257.58,74.38z"/>
	<path d="M215.64,281.73c-2.65,4.59-1.33,12.14,2.24,14.18C215.13,291.43,216.56,286.33,215.64,281.73z"/>
	<path d="M674.93,75.1c2.04,1.33,11.43,0.51,13.67-1.12C686.77,72.95,676.67,73.77,674.93,75.1z"/>
	<path d="M261.35,80.2c5.5,2.55,12.62-1.58,4.29-2.96C263.5,76.89,262.27,78.06,261.35,80.2z"/>
	<path d="M275.74,335.61c0.2-0.2,0.51-0.31,0.71-0.51C263.27,313.01,255.25,303.9,275.74,335.61z"/>
	<path d="M657.99,96.02c0.82,5.92,3.88,11.22,4.69,17.25C663.91,110.3,661.16,100.1,657.99,96.02z"/>
	<path d="M266.15,457.86c-1.84,7.55-1.84,8.88,0.1,15.51C267.48,468.06,265.64,462.96,266.15,457.86z"/>
	<path d="M245.74,112.75c-0.82-5.82-1.63-11.73-4.9-16.84C241.46,101.83,244.31,107.14,245.74,112.75z"/>
	<path d="M683.61,457.76c-2.86,5.2-0.92,10.41-0.1,15.51C685.04,468.17,682.99,462.96,683.61,457.76z"/>
	<path d="M263.5,419.39c-2.14,0.82-4.39,0.2-6.94,1.53c3.49,2.45,9.68,2.52,10-6.33C264.52,415.72,264.93,417.96,263.5,419.39z"/>
	<path d="M680.75,419.39c-1.84,0.92-4.39,0.1-6.63,1.63c2.65,1.84,5.31,1.43,7.35,0.41c2.24-1.12,2.35-3.88,2.65-6.73
		C681.77,415.82,682.28,418.17,680.75,419.39z"/>
	<path d="M647.38,590.41c4.49,1.73,8.78-0.1,13.16-1.02C655.95,587.86,651.67,589.8,647.38,590.41z"/>
	<path d="M230.13,590.62c4.39,1.53,8.67-0.2,13.37-0.51C241.15,588.07,240.23,588.07,230.13,590.62z"/>
	<path d="M250.84,120.2c2.14,0.51,13.98-3.06,17.65-5.51C263.81,116.14,251.49,118.28,250.84,120.2z"/>
	<path d="M685.24,115.2c-5.71,1.43-11.84,1.84-17.04,5.41C673.91,118.77,679.93,118.16,685.24,115.2z"/>
	<path d="M337.89,139.69c0.4,1.63,1.02,2.96,3.06,3.06c-2.35-2.65-2.45-6.43-4.29-9.29c-2.24-0.71-4.49-1.73-6.73,0.2
		C331.71,135.46,335.87,131.53,337.89,139.69z"/>
	<path d="M327.68,136.53c1.94,1.73,2.45,4.8,5.61,6.63c-1.43-3.57-3.47-5.82-5.1-8.16c-5-0.51-5.82-0.1-7.45,3.27
		C323.09,137.45,324.93,135.51,327.68,136.53z"/>
	<path d="M267.68,290.61c0,4.29,2.55,6.12,5.82,7.35C271.15,296.02,272.07,291.43,267.68,290.61z"/>
	<path d="M635.95,567.25c3.47-0.41,6.33-1.33,9.39-2.55C641.77,562.86,637.79,563.78,635.95,567.25z"/>
	<path d="M257.78,289.9c0.61,4.49,2.55,8.57,2.45,13.06C260.64,291.33,260.54,291.02,257.78,289.9z"/>
	<path d="M218.9,566.33c1.63,0.92,4.8,0.2,8.88-1.73C224.72,562.96,221.25,563.68,218.9,566.33z"/>
	<path d="M237.68,84.38c0.96,3.05,1.94,6.02,3.37,8.98c1.08-4.06-2.71-7.81-1.94-11.84C236.76,81.53,237.29,83.15,237.68,84.38z"/>
	<path d="M658.71,93.77c0-4.59-2.24-8.16-2.86-12.55C654.32,83.77,655.75,89.38,658.71,93.77z"/>
	<path d="M694.02,449.29c1.84-3.67,1.63-7.24,2.24-11.43C693.91,440.31,693.1,445.31,694.02,449.29z"/>
	<path d="M667.28,230c-0.82,3.67,1.02,7.14,1.02,10.71C670.24,236.94,668.4,233.47,667.28,230z"/>
	<path d="M196.66,267.86c-1.19,1.56-2.24,3.27-3.37,5c3.98-2.04,5.71-5.61,6.63-9.59C197.58,263.98,197.81,266.35,196.66,267.86z"/>
	<path d="M278.09,438.57c-1.53,3.37-1.94,6.73-1.53,10.31C278.19,445.51,278.6,442.04,278.09,438.57z"/>
	<path d="M241.66,309.9c-3.16,4.49-5.2,9.39-6.94,14.49C235.53,324.93,234.86,326.57,241.66,309.9z"/>
	<path d="M270.03,66.42c1.43-1.43-5.38-3.54-5.71,1.43C266.05,66.22,268.4,67.85,270.03,66.42z"/>
	<path d="M201.35,324.9c0.61-3.98-0.2-7.86-1.33-11.63C199.92,317.25,200.23,321.12,201.35,324.9z"/>
	<path d="M687.79,65.91c-1.43-2.14-3.36-0.9-5-0.71c-1.02,0.11-1.94,0.92-1.33,3.37C683.3,66.02,686.26,68.26,687.79,65.91z"/>
	<path d="M692.69,459.49c2.24-2.24,2.76-5.82,1.02-8.67C692.99,453.78,692.38,456.53,692.69,459.49z"/>
	<path d="M681.26,190.1c-0.51-5.1-3.78-8.67-7.04-12.04C676.57,182.14,679.63,185.71,681.26,190.1z"/>
	<path d="M228.5,267.86c-0.31,3.47,2.24,5.71,3.47,8.47C231.25,273.26,231.15,270,228.5,267.86z"/>
	<path d="M667.99,245.2c-1.33,3.06-0.61,6.12-0.71,9.18C669.22,251.43,668.4,248.37,667.99,245.2z"/>
	<path d="M664.83,148.77c-0.2,2.86-0.92,5.82-0.1,9.29C666.06,154.79,666.06,152.45,664.83,148.77z"/>
	<path d="M275.44,459.39c2.04-2.76,2.35-4.9,1.12-9.08C275.33,453.78,275.44,456.64,275.44,459.39z"/>
	<path d="M315.84,224.69c4.29-0.41,6.73-3.57,7.35-9.08C321.66,219.49,320.13,223.06,315.84,224.69z"/>
	<path d="M209.41,297.04c-2.24,0.51-5,2.96-8.78,7.86C202.68,304.49,204.41,302.96,209.41,297.04z"/>
	<path d="M612.89,179.49c-0.51,3.27,1.12,5.41,5.51,7.14C616.16,184.28,614.63,182.04,612.89,179.49z"/>
	<path d="M646.67,352.76c-2.96-0.31-4.69,1.84-6.73,3.27C642.28,355,645.14,355.51,646.67,352.76z"/>
	<path d="M681.67,450.72c0.31-3.57-0.51-6.84-2.45-9.08C679.32,444.8,680.44,447.55,681.67,450.72z"/>
	<path d="M657.79,344.08c-1.63,3.06-2.86,6.12-3.06,9.49C656.46,350.61,657.28,347.45,657.79,344.08z"/>
	<path d="M264.31,449.8c-0.1-2.96-0.51-5.82-2.24-8.27C261.76,444.7,263.09,447.25,264.31,449.8z"/>
	<path d="M237.17,353.47c2.14-2.96,2.65-6.43,3.57-9.8C238.7,346.63,238.09,350.1,237.17,353.47z"/>
	<path d="M258.09,93.87c-2.24,1.22-4.29,2.24-6.33,3.16C256.25,97.55,256.76,97.34,258.09,93.87z"/>
	<path d="M305.03,218.77c0.61-2.45,0.51-3.37-0.92-8.06C302.78,214.08,304.21,216.43,305.03,218.77z"/>
	<path d="M674.32,419.19c-1.84-1.94-3.37-4.08-5.1-6.53C669.32,416.23,670.34,417.45,674.32,419.19z"/>
	<path d="M227.48,567.86c-2.65-0.41-5,0-7.65,0C222.07,570,224.72,569.9,227.48,567.86z"/>
	<path d="M229.41,352.76c-3.06-0.41-4.69,1.84-6.73,3.27C224.92,355,227.99,355.51,229.41,352.76z"/>
	<path d="M675.24,93.98c-2.14,1.12-3.98,2.35-6.33,3.06C672.48,98.26,674.42,97.34,675.24,93.98z"/>
	<path d="M638.2,192.34c-2.55,2.24-2.45,5.2-2.76,8.16C637.28,198.16,636.87,195,638.2,192.34z"/>
	<path d="M645.14,567.86c-3.06,0-5.41,0-7.96,0C639.32,569.9,641.46,569.9,645.14,567.86z"/>
	<path d="M225.74,269.69c-2.14,2.14-1.12,5-1.84,7.55C225.44,274.9,225.64,272.35,225.74,269.69z"/>
	<path d="M647.38,257.75c-1.02-3.16-3.98-4.59-6.33-6.63C642.38,254.08,645.44,255.41,647.38,257.75z"/>
	<path d="M331.87,155.2c-0.41,2.24-2.35,4.18-0.61,6.63C331.66,159.69,332.78,157.55,331.87,155.2z"/>
	<path d="M325.74,170.1c2.45,1.33,5,0.92,7.55,0.61C330.85,169.79,328.29,169.59,325.74,170.1z"/>
	<path d="M256.76,419.19c-1.63-2.04-3.16-4.08-5-6.02C251.97,416.33,253.91,418.17,256.76,419.19z"/>
	<path d="M665.04,223.57c-2.45,0.51-4.8,1.02-7.24,1.53C660.44,225.61,663.1,226.33,665.04,223.57z"/>
	<path d="M259.11,136.22c-2.96-1.43-5.61,0.51-8.47,0.92C253.7,138.16,256.35,136.22,259.11,136.22z"/>
	<path d="M686.06,367.45c1.84,1.73,3.67,3.47,5.51,5.2C690.24,370.51,688.61,368.47,686.06,367.45z"/>
	<path d="M250.13,345.82c-0.61-2.04-1.73-3.78-3.47-5.92C246.66,343.06,248.39,344.39,250.13,345.82z"/>
	<path d="M629.12,332.04c0.92-1.73,1.84-3.37,0.2-5.31C629.42,328.47,628.91,330.31,629.12,332.04z"/>
	<path d="M621.05,188.98c1.63,1.73,3.67,2.65,6.12,2.55C625.03,190.92,623.71,188.67,621.05,188.98z"/>
	<path d="M661.06,178.37c2.55-1.12,2.65-3.57,3.06-5.71C662.18,173.98,662.08,176.43,661.06,178.37z"/>
	<path d="M691.97,235.41c-0.2,3.16-0.82,5.71-0.31,8.37C691.97,241.22,693.3,238.67,691.97,235.41z"/>
	<path d="M663.71,340.92c0.61,1.94,1.63,3.67,3.98,4.49C664.21,339.5,664.88,340.14,663.71,340.92z"/>
	<path d="M703.3,187.55c-2.04,0.92-2.55,3.06-3.98,4.39C701.77,191.53,702.59,189.49,703.3,187.55z"/>
	<path d="M685.75,204.08c0.1-2.96-0.82-5-1.84-6.94C684.02,199.39,684.22,201.53,685.75,204.08z"/>
	<path d="M350.54,145.92c-2.14,0.51-2.45,2.35-2.96,3.88C349.42,149.38,350.74,148.47,350.54,145.92z"/>
	<path d="M669.42,188.26c1.02-2.14,0.2-4.18,0.31-6.33C668.57,181.94,668.74,181.42,669.42,188.26z"/>
	<path d="M190.43,277.35c-1.84,0.82-1.12,2.24-1.33,3.98C190.74,280,190.64,278.67,190.43,277.35z"/>
	<path d="M211.76,326.74c0.82,1.84-0.31,3.47-0.2,5.31C213.19,329.29,213.19,328.98,211.76,326.74z"/>
	<path d="M698.71,200.2c2.04,0,3.37-0.31,4.18-2.65C701.06,198.37,699.83,198.77,698.71,200.2z"/>
	<path d="M621.87,200.71c-1.33-0.82-2.55-1.73-4.08-2.76C618.61,200.2,618.61,200.2,621.87,200.71z"/>
	<path d="M228.19,289.08c0.71-1.94,0.92-3.27-0.41-4.8C226.86,285.92,226.97,287.24,228.19,289.08z"/>
	<path d="M254.21,354.49c3.63,3.3,3.09,3.34,3.78,2.65C254.11,353.62,254.76,353.95,254.21,354.49z"/>
	<path d="M206.66,571.23c-1.12,1.43-0.92,2.55-0.61,3.98C207.48,574.09,207.17,572.86,206.66,571.23z"/>
	<path d="M313.7,162.45c-1.33-1.63-2.55-0.82-3.78-0.2C311.05,162.55,312.17,163.77,313.7,162.45z"/>
	<path d="M675.55,357.45c-0.36,0.37-1.13,0.09,3.16,3.67C679.66,360.65,679.42,361.01,675.55,357.45z"/>
	<path d="M265.33,475.31c-1.22,1.33-0.61,2.45,0,3.67C266.15,477.86,266.46,476.64,265.33,475.31z"/>
	<path d="M269.72,367.96c-1.02-1.53-2.24-2.76-3.98-3.47C266.76,366.02,268.09,367.25,269.72,367.96z"/>
	<path d="M633.1,209.08c1.22-1.22,1.63-2.65,1.22-4.69C633.2,206.02,633.2,207.55,633.1,209.08z"/>
	<path d="M683.91,365.21c-0.71-1.33-1.73-2.35-3.37-3.06C681.26,363.98,682.69,364.39,683.91,365.21z"/>
	<path d="M263.4,428.37c-0.61,1.22-0.1,2.14,0.71,3.88C264.62,430.21,264.82,429.19,263.4,428.37z"/>
	<path d="M192.37,295.41c0.31-1.73,1.02-3.06-0.1-4.9C191.15,292.35,191.35,293.67,192.37,295.41z"/>
	<path d="M682.69,475.21c-1.22,1.33-0.31,2.55-0.1,3.78C683.5,477.76,683.71,476.64,682.69,475.21z"/>
	<path d="M631.67,166.53c-1.73-0.82-2.86-0.82-4.59,0C628.91,167.75,629.93,167.24,631.67,166.53z"/>
	<path d="M683.5,166.22c-1.43-1.22-2.35-0.41-3.67,0.1C681.36,167.04,682.28,167.04,683.5,166.22z"/>
	<path d="M325.03,201.02c-1.63,0.92-2.45,1.53-3.06,2.76C323.4,203.47,324.11,202.65,325.03,201.02z"/>
	<path d="M338.91,158.98c1.22-0.82,1.84-1.43,1.63-2.65C339.01,156.53,339.01,157.55,338.91,158.98z"/>
	<path d="M264.52,363.57c-0.71-1.53-1.73-2.04-2.76-2.55C262.17,362.14,262.99,362.76,264.52,363.57z"/>
	<path d="M305.33,163.36c-0.61-1.33-1.53-0.71-2.76-0.51C303.6,164.18,304.42,164.08,305.33,163.36z"/>
	<path d="M693.2,194.18c1.33,0.61,2.35,0.31,3.37-1.02C695.04,192.86,694.02,193.06,693.2,194.18z"/>
	<path d="M680.65,427.96c-0.51,1.94,0.1,2.86,0.71,4.08C681.97,430.51,681.97,429.39,680.65,427.96z"/>
	<path d="M244.21,278.06c-0.51,1.22-0.51,2.45-0.1,4.29C244.82,280.41,244.52,279.29,244.21,278.06z"/>
	<path d="M265.64,487.66c0.31-1.02,0.51-2.04-0.61-2.96C264.52,485.82,265.23,486.74,265.64,487.66z"/>
	<path d="M687.59,513.88c-0.31,1.22-0.51,2.14,0.82,3.37C687.99,515.72,687.89,515,687.59,513.88z"/>
	<path d="M255.03,101.32c-1.43,0-1.84,0.41-2.24,1.53C254.11,103.06,254.21,102.24,255.03,101.32z"/>
	<path d="M211.76,281.02c-0.51,1.12,0.1,1.94,0.71,2.65C212.58,282.75,213.19,281.63,211.76,281.02z"/>
	<path d="M691.97,229.79c-0.41,0.92-0.1,1.53,0.51,2.14C692.79,231.02,692.89,230.3,691.97,229.79z"/>
	<path d="M682.79,487.86c0.61-0.82,0.51-1.63-0.1-2.65C682.28,486.33,682.38,487.04,682.79,487.86z"/>
	<path d="M687.28,510.92c0.51-1.33,0-1.84-0.1-2.55C686.16,509.29,686.77,509.9,687.28,510.92z"/>
	<path d="M270.33,514.39c-0.51,1.02-0.2,1.53,0.1,2.14C271.15,516.02,270.64,515.41,270.33,514.39z"/>
	<path d="M616.36,205.2c-0.2-0.92-0.41-1.63-1.53-1.63C614.73,204.69,615.34,205,616.36,205.2z"/>
	<path d="M341.76,149.59c0.82,0.47,2.01-1.05,1.02-2.04C341.87,147.96,341.66,148.67,341.76,149.59z"/>
	<path d="M623.91,571.64c-0.82,1.12-0.71,2.14-0.2,3.57C624.42,573.88,624.42,572.86,623.91,571.64z"/>
	<path d="M670.95,325.51c-0.51,0.71,0.31,1.02,0.82,1.33C671.46,326.43,671.26,325.92,670.95,325.51z"/>
	<path d="M671.77,101.22c-1.02,0.1-1.43,0.82-2.14,2.04C671.16,102.75,671.97,102.55,671.77,101.22z"/>
	<path d="M746.77,317.96c-0.82-0.41-1.33-0.51-1.94,0.41C745.55,319.08,746.06,318.98,746.77,317.96z"/>
	<path d="M690.95,205.2c-0.1,1.12,0.1,1.63,0.71,1.94C692.08,206.32,691.46,205.92,690.95,205.2z"/>
	<path d="M334.21,198.37c0.71-0.61,0.1-1.12,0.41-2.14C333.91,197.24,334.01,197.75,334.21,198.37z"/>
	<path d="M324.52,185.61c0.1,0,0.1,0,0.2,0C324.49,184.69,324.52,183.87,324.52,185.61z"/>
	<path d="M659.22,163.16c0-0.66-1.33-0.72-1.33,0.2C657.89,164.02,659.22,164.17,659.22,163.16z"/>
	<path d="M197.07,290.71c0.41-0.51,0.31-0.92-0.31-1.53C196.25,290,196.46,290.41,197.07,290.71z"/>
	<path d="M649.73,182.65c-0.65-0.07-1.13,0.14-1.33,0.92c0.95,0.14,1.56-0.92,1.34-0.92c12.01-6.2,9.95-4.72,9.48-6.12
		C656.16,178.77,652.18,179.28,649.73,182.65z"/>
	<path d="M699.22,183.16c0.82-0.2,1.22-0.41,1.02-1.43C699.42,181.94,699.02,182.24,699.22,183.16z"/>
	<path d="M333.6,148.47c-0.71,0.2-1.02,0.61-0.31,1.22C334.11,149.49,334.11,149.08,333.6,148.47z"/>
	<path d="M665.34,126.22c0.61-0.1,0.2-0.51,0.2-0.92C665.14,125.61,665.24,125.92,665.34,126.22z"/>
	<path d="M583.71,316.84c0.31-0.82,0.71-1.33,1.12-1.84C584.32,315.41,583.09,315.2,583.71,316.84z"/>
	<path d="M269.72,510.62c0.71-0.61,0.51-1.12,0.2-1.84C269.11,509.49,269.62,510,269.72,510.62z"/>
	<path d="M203.19,333.27c0.1,0,0.2,0,0.31,0C203.5,329.99,203.32,332.86,203.19,333.27z"/>
	<path d="M693.51,335c-0.55,0.55,0.4,1.32,0.82,1.53C694.53,335.71,694.02,335.41,693.51,335z"/>
	<path d="M250.33,224.28c-0.2-9.08,4.39-17.35,1.63-26.12C252.13,206.71,245.18,220.95,250.33,224.28z"/>
	<path d="M281.15,169.59c-4.18-2.14-8.67-2.45-13.16-2.76C272.07,169.49,276.46,170.41,281.15,169.59z"/>
	<path d="M219.31,166.02c5.71-1.43,11.53-1.02,17.86-1.84C233.7,162.04,224.11,163.16,219.31,166.02z"/>
	<path d="M256.15,177.24c2.76,4.59,6.53,8.57,7.96,13.88C264.01,186.73,261.15,181.63,256.15,177.24z"/>
	<path d="M250.74,240.71c1.84-2.55,1.02-8.27-1.33-10.92C249.11,233.57,250.64,236.94,250.74,240.71z"/>
	<path d="M223.6,251.22c0.76,1.3,6.83,7.22,6.83,7.12C229.4,254.89,226.24,253.26,223.6,251.22z"/>
	<path d="M218.09,200.61c1.84-2.55,1.53-5.92,3.06-8.57C218.29,194.18,218.5,197.45,218.09,200.61z"/>
	<path d="M200.43,186.43c-1.53-2.24-3.37-4.18-4.59-6.73C194.62,182.24,195.84,183.98,200.43,186.43z"/>
	<path d="M240.13,225.1c2.86,0.51,5.61,1.12,7.96-0.92C247.27,223.36,249.26,223.28,240.13,225.1z"/>
	<path d="M246.76,172.65c-2.04,1.43-1.94,3.98-3.06,5.82C246.25,177.24,246.35,174.9,246.76,172.65z"/>
	<path d="M249.82,254.49c2.04-2.96,0.92-6.12,0.82-9.18C249.62,248.26,250.33,251.43,249.82,254.49z"/>
	<path d="M273.8,244.49c1.43-2.55,1.33-5.31,0.82-8.16C274.31,238.98,274.11,241.73,273.8,244.49z"/>
	<path d="M268.29,203.57c-0.1-2.35-0.41-4.59-1.94-6.53C266.56,199.28,266.97,201.53,268.29,203.57z"/>
	<path d="M209.92,191.53c-2.14-0.61-3.57-2.86-6.53-2.96C205.23,191.12,207.58,191.32,209.92,191.53z"/>
	<path d="M251.86,181.12c-0.82,2.96,0.31,5.31,0.51,7.76C253.19,186.32,252.58,183.98,251.86,181.12z"/>
	<path d="M281.97,192.04c2.35-0.61,3.27-2.45,3.98-4.49C283.91,188.37,283.4,190.61,281.97,192.04z"/>
	<path d="M215.54,209.49c1.73-1.33,1.43-2.96,1.22-4.59C216.35,206.32,215.33,207.65,215.54,209.49z"/>
	<path d="M204.62,200.81c-1.33-0.92-2.65-1.73-3.98-2.65C201.05,200.51,202.78,200.71,204.62,200.81z"/>
	<path d="M210.03,166.43c1.22,1.53,2.35,0.92,4.18,0C212.58,165.61,211.35,165.71,210.03,166.43z"/>
	<path d="M281.86,199.79c1.94,0.51,2.86-0.1,3.88-2.35C283.91,198.16,282.78,198.47,281.86,199.79z"/>
	<path d="M262.78,166.12c0.41,0.82,1.12,0.71,1.63,0.61C266.45,166.73,266.69,164.56,262.78,166.12z"/>
	<path d="M196.15,193.88c-0.1,2.14,0.82,2.86,2.55,3.47C198.09,195.81,197.58,194.79,196.15,193.88z"/>
	<path d="M275.95,194.08c1.22,0.71,2.14,0.31,3.47-0.92C277.68,192.86,276.76,192.96,275.95,194.08z"/>
	<path d="M275.13,232.14c0.41-1.02,0-1.53-0.31-2.24C274.11,230.71,274.42,231.33,275.13,232.14z"/>
	<path d="M274.01,206.22c-0.2,0.92,0.2,1.53,1.02,1.84C275.23,207.04,274.31,206.84,274.01,206.22z"/>
	<path d="M197.48,203.57c-0.1,1.02,0.41,1.33,1.33,1.43C198.8,203.98,198.39,203.67,197.48,203.57z"/>
	<path d="M283.8,182.04c-1.63-0.41-1.94,0.1-2.14,0.92C282.58,183.37,282.78,182.65,283.8,182.04z"/>
	<path d="M241.97,163.06c-0.82-0.61-1.33-0.51-1.43,0.61C241.35,164.18,241.76,163.98,241.97,163.06z"/>
	<path d="M260.33,225.92c0.41,0.51,0.92,0.71,1.43,0.1C261.25,225.51,260.84,225.41,260.33,225.92z"/>
	<path d="M231.35,183.37c-0.55-0.05-0.94,0.23-1.33,0.71c0.73,0.18-1.25,0.54,12.35-6.63c-0.1-0.2-0.31-0.51-0.41-0.82
		C238.29,178.67,234.21,179.9,231.35,183.37z"/>
	<path d="M179.62,180.51c-4.06,3.19-13.57,17.25-15.41,22.55c2.04-1.84,3.77-4.29,4.9-6.53c3.14-6.23,8.52-10.44,12.55-15.92
		c1.36-1.85,6.32-3.4,5.41-8.16C185.03,175.61,182.59,178.18,179.62,180.51z"/>
	<path d="M187.17,179.69c-3.37,6.22-8.88,11.33-9.39,18.98C179.72,191.73,185.23,186.63,187.17,179.69z"/>
	<path d="M181.96,118.77c2.14-1.33,5-1.73,6.33-4.29C185.94,113.47,184.52,114.38,181.96,118.77z"/>
	<path d="M174.11,127.85c1.73-3.27,3.88-5.51,5.92-8.16C176.66,120.4,175.13,122.55,174.11,127.85z"/>
	<path d="M194.31,153.77c-1.02,3.37-3.78,5.71-4.69,9.08C191.76,160.1,194.52,157.75,194.31,153.77z"/>
	<path d="M200.23,146.32c-2.45,1.73-2.65,4.18-3.78,6.02C199.21,151.53,199.92,149.28,200.23,146.32z"/>
	<path d="M142.17,209.79c2.24,0.41,3.37-0.61,4.18-2.24C144.92,207.96,143.19,207.96,142.17,209.79z"/>
	<path d="M185.54,143.36c-1.12-0.92-1.94-1.43-3.67-1.63C182.78,143.67,183.7,144.28,185.54,143.36z"/>
	<path d="M153.39,211.12c1.43-0.1,2.14-0.61,3.06-2.04C154.72,209.18,154.01,209.79,153.39,211.12z"/>
	<path d="M186.56,156.53c1.22-1.33,1.22-1.33,1.02-3.98C186.86,154.28,186.45,155.3,186.56,156.53z"/>
	<path d="M170.03,134.69c1.22-0.82,1.33-1.73,1.02-3.27C169.82,132.55,169.62,133.47,170.03,134.69z"/>
	<path d="M189.52,145.61c-0.92,1.84-0.71,3.06-0.31,4.39C190.13,148.36,190.13,148.36,189.52,145.61z"/>
	<path d="M165.13,160c-1.53-0.61-2.35-0.41-3.06,0.61C163.39,161.43,164.01,160.61,165.13,160z"/>
	<path d="M170.13,212.35c1.22-0.41,1.84-0.92,1.63-2.45C170.84,210.51,170.23,211.12,170.13,212.35z"/>
	<path d="M150.13,204.69c0.71-0.31,1.53-0.61,1.43-1.63C150.23,202.96,149.72,203.37,150.13,204.69z"/>
	<path d="M173.19,142.55c0.2,1.12,0.71,1.33,1.94,1.33C174.62,142.85,174.21,142.55,173.19,142.55z"/>
	<path d="M200.54,110.61c-0.61-0.51-1.02,0-1.73,0.31C199.72,111.22,200.23,111.32,200.54,110.61z"/>
	<path d="M183.19,151.32c0.51-0.51,0.51-0.92,0-1.43C182.58,150.41,182.58,150.81,183.19,151.32z"/>
	<path d="M192.78,143.67c0-0.71-0.31-1.12-1.12-0.82C191.66,143.57,191.86,144.08,192.78,143.67z"/>
	<path d="M173.39,208.16c0.71-0.31,0.92-0.61,1.02-1.12C173.7,206.84,173.5,207.24,173.39,208.16z"/>
	<path d="M175.74,202.75c0.61,0.1,0.82-0.1,0.71-1.02C175.84,202.04,175.54,202.24,175.74,202.75z"/>
	<path d="M198.7,412.35c-1.43,2.24-1.02,8.98,0.82,11.12C199.01,419.9,200.33,416.12,198.7,412.35z"/>
	<path d="M190.33,447.66c-0.71,3.16-1.43,6.22-0.61,9.39C191.05,453.98,191.05,450.82,190.33,447.66z"/>
	<path d="M215.74,498.27c-0.41-2.96-0.71-5.92-1.02-8.88C213.7,492.45,213.5,495.51,215.74,498.27z"/>
	<path d="M213.9,427.25c-1.84,2.04-1.73,4.29-2.45,6.22C213.39,431.94,214.41,430.1,213.9,427.25z"/>
	<path d="M191.86,443.06c0.51-1.53,1.12-3.16,0.61-5.2C190.54,439.59,191.15,441.33,191.86,443.06z"/>
	<path d="M212.68,466.94c0.61-1.94,0.1-3.37-0.2-4.69C211.66,463.68,211.66,465,212.68,466.94z"/>
	<path d="M212.17,482.66c-0.31,1.73-0.1,2.86,1.12,3.78C213.7,484.9,213.6,483.78,212.17,482.66z"/>
	<path d="M189.41,468.17c-0.61,1.33-0.2,2.24,0.71,3.47C190.74,470.21,190.43,469.29,189.41,468.17z"/>
	<path d="M191.35,414.9c-0.82,1.43-0.31,2.24,0.1,3.27C192.27,417.04,191.76,416.23,191.35,414.9z"/>
	<path d="M189.62,460.62c-0.61,0.61-0.51,1.12,0,1.94C190.23,461.74,190.23,461.23,189.62,460.62z"/>
	<path d="M212.58,474.9c0.92-0.82,0-1.02,0.2-1.94C211.97,474.08,212.17,474.49,212.58,474.9z"/>
	<path d="M214.21,409.08c-0.61-0.71-0.92-1.43-1.73-1.02C212.48,408.88,212.99,409.08,214.21,409.08z"/>
	<path d="M299.82,560.82c2.76,1.12,5.61,0.71,9.08,1.22C305.74,559.09,302.78,560,299.82,560.82z"/>
	<path d="M279.72,567.56c0-1.53-0.92-1.43-1.73-1.53C277.68,567.56,278.7,567.56,279.72,567.56z"/>
	<path d="M301.76,128.77c0.41,1.94,0.92,3.88,1.33,6.02C304.42,132.65,304.21,131.63,301.76,128.77z"/>
	<path d="M286.15,118.06c-0.51-1.02-1.33-0.92-2.45-0.31C284.72,118.26,285.33,118.26,286.15,118.06z"/>
	<path d="M589.63,177.96c-1.94,0.41-2.16,1.53-2.04,2.65c0.45,4.19-1.22,8.78,2.65,12.25C589.22,187.96,588.61,183.16,589.63,177.96
		z"/>
	<path d="M605.75,113.57c-3.67,0.41-5,2.86-6.43,5.1C601.46,117.34,604.63,117.14,605.75,113.57z"/>
	<path d="M595.85,210.92c-0.31-3.16-1.84-5.82-3.88-8.16C592.07,206.02,593.5,208.77,595.85,210.92z"/>
	<path d="M591.77,127.24c1.33-2.76,3.67-4.9,5.61-7.76C593.91,120.51,592.48,122.55,591.77,127.24z"/>
	<path d="M586.36,207.86c-2.14,2.04-2.24,3.98-2.35,6.53C586.05,212.55,586.36,210.61,586.36,207.86z"/>
	<path d="M602.18,155.81c1.76-1.65,2.62-2.99,1.63-5.2C601.77,151.73,601.67,153.36,602.18,155.81z"/>
	<path d="M597.79,289.09c0.74-1.23,0.69-2.01,0.57-2.92C597.67,282.8,596.44,286.99,597.79,289.09z"/>
	<path d="M580.75,221.94c1.63-1.73,1.12-3.47,1.63-5C581.16,218.26,580.65,219.79,580.75,221.94z"/>
	<path d="M596.77,267.96c0.61-2.24-0.1-3.78-0.61-5.41C595.44,264.39,596.26,265.82,596.77,267.96z"/>
	<path d="M607.89,131.32c-0.71,1.43-0.71,2.65,0.1,4.29C609.32,133.87,608.71,132.75,607.89,131.32z"/>
	<path d="M593.1,157.85c-1.84-0.2-2.35,1.22-3.27,2.14C591.26,160,592.48,159.49,593.1,157.85z"/>
	<path d="M588.4,131.63c-1.43,0.61-1.22,1.73-0.82,2.86C588.3,133.67,588.91,132.85,588.4,131.63z"/>
	<path d="M595.34,160.61c-1.63,0.61-2.45,1.12-2.96,2.45C594.22,163.06,594.63,162.04,595.34,160.61z"/>
	<path d="M589.12,176.32c0.92-1.53,0.92-2.65,0-3.78C588.5,173.67,588.4,174.79,589.12,176.32z"/>
	<path d="M597.79,220.71c0.1-1.02-0.2-1.94-1.22-3.27C596.67,219.08,596.77,220,597.79,220.71z"/>
	<path d="M589.83,168.57c1.02-0.51,1.22-1.12,0.82-2.04C589.63,166.83,589.52,167.45,589.83,168.57z"/>
	<path d="M597.99,156.83c1.22,0.82,1.73,0.41,2.04-0.82C598.81,155.61,598.4,156.12,597.99,156.83z"/>
	<path d="M594.01,288.27c0.61,0.71,1.12,0.92,1.63,0.31C595.34,287.65,594.73,287.96,594.01,288.27z"/>
	<path d="M597.69,273.26c-0.72,0.72-0.69,0.98-0.41,1.94C597.98,274.61,597.59,274,597.69,273.26z"/>
	<path d="M589.12,159.18c-1.53,0.2-1.84,0.61-2.04,1.22C587.99,160.81,588.09,159.9,589.12,159.18z"/>
	<path d="M597.89,220.71c-0.1,0.61,0,1.33,0.51,1.84C598.61,221.73,598.5,221.12,597.89,220.71z"/>
	<path d="M617.99,110.4c-0.71-0.2-1.12,0.1-1.53,0.61C617.08,111.32,617.59,111.32,617.99,110.4z"/>
	<path d="M584.52,161.43c-1.02-0.51-1.43,0.1-1.84,1.02C583.91,162.65,584.42,162.34,584.52,161.43z"/>
	<path d="M730.14,197.65c2.45-3.98,0.92-8.37,1.12-12.65C729.32,188.98,729.73,193.26,730.14,197.65z"/>
	<path d="M730.65,203.47c-1.17-0.78,0.64-2.6-10,11.22C722.94,215.84,729.34,205.63,730.65,203.47z"/>
	<path d="M721.97,154.08c-0.32,3.48,1.86,5.84,4.08,8.06C725.04,159.39,724.73,156.12,721.97,154.08z"/>
	<path d="M718.71,213.26c-2.24-0.2-4.29-0.41-6.33-0.82C715.24,215.51,716.26,215.61,718.71,213.26z"/>
	<path d="M714.73,221.63c0.1,3.16,2.45,3.98,4.69,5C718.3,224.49,716.06,223.57,714.73,221.63z"/>
	<path d="M725.34,240c0.1-2.45-1.33-4.18-2.65-6.12C722.89,236.22,723.51,238.37,725.34,240z"/>
	<path d="M733.2,289.59c1.02-2.45,1.02-2.55-0.82-5.31C732.59,285.92,732.89,287.55,733.2,289.59z"/>
	<path d="M720.95,135c0.71-2.65,0-4.59-1.53-6.22C719.73,130.81,719.73,132.75,720.95,135z"/>
	<path d="M725.44,240c-0.51,2.04,0.1,3.67,1.53,5.51C727.89,242.96,726.26,241.63,725.44,240z"/>
	<path d="M731.36,183.06c0.31-1.63,0.41-2.96-0.82-4.49C729.83,180.41,729.73,181.73,731.36,183.06z"/>
	<path d="M731.77,281.94c1.02-1.53,1.02-1.53-0.1-3.98C730.75,279.39,731.36,280.51,731.77,281.94z"/>
	<path d="M729.12,173.77c-0.61,1.43-0.31,2.24,0.51,3.16C730.34,175.71,730.24,174.79,729.12,173.77z"/>
	<path d="M728.3,293.57c1.22,1.02,1.22,1.02,3.67,0.2C730.55,292.96,729.53,293.27,728.3,293.57z"/>
	<path d="M721.57,230c-0.61,1.12,0.1,1.53,1.12,2.35C722.79,231.02,722.69,230.3,721.57,230z"/>
	<path d="M728.1,287.35c0-1.43-0.51-2.24-1.33-3.27C726.46,285.82,726.46,285.82,728.1,287.35z"/>
	<path d="M733.75,222.77c-0.47-0.94-0.59-2.24-3.41-4.31c0.61,2.19,2.78,4.56,3.08,4.63c0.37,0.62,0.1,1.6,1.1,2
		C735.14,223.87,733.91,222.77,733.75,222.77z"/>
	<path d="M736.77,300c-0.71,1.33,0,1.94,0.82,2.96C738.1,301.43,737.79,300.71,736.77,300z"/>
	<path d="M730.85,272.24c-0.41,0.92-0.31,1.63,0.2,2.35C732.09,274.48,731.9,272.69,730.85,272.24z"/>
	<path d="M725.04,279.69c-0.71,0.92,0,1.43,0.71,2.14C726.36,280.61,725.75,280.2,725.04,279.69z"/>
	<path d="M729.73,291.33c0.92-1.22-0.1-1.43-0.61-1.84C728.81,290.41,729.02,290.92,729.73,291.33z"/>
	<path d="M722.08,271.73c0.41,0.82,0.51,1.22,0.71,1.53C723.2,272.75,722.79,272.45,722.08,271.73z"/>
	<path d="M727.18,163.57c-0.61,0.92-0.2,1.63,0.61,2.55C728.2,164.9,728.3,164.18,727.18,163.57z"/>
	<path d="M701.36,117.75c0.71,0.82,1.43,0.41,2.14,0.31C702.99,117.34,702.28,117.24,701.36,117.75z"/>
	<path d="M635.75,296.53c-2.96-4.9-2.24-10-2.76-14.8C630.34,286.12,631.67,293.78,635.75,296.53z"/>
	<path d="M690.85,297.96c-2.35-1.94-1.53-6.43-5.82-7.24C685.04,294.9,687.48,296.84,690.85,297.96z"/>
	<path d="M675.24,289.69c0.41,4.59,2.35,8.67,2.55,13.06C678.3,292.75,677.99,291.22,675.24,289.69z"/>
	<path d="M616.97,263.06c-2.04,3.27-3.88,6.53-6.02,9.8C614.63,270.61,616.46,267.24,616.97,263.06z"/>
	<path d="M645.75,267.86c-0.2,3.47,2.24,5.71,3.67,8.47C648.4,273.37,648.61,269.9,645.75,267.86z"/>
	<path d="M661.77,300.41c1.02-3.78,1.22-7.65,1.43-11.63C662.18,292.55,661.57,296.43,661.77,300.41z"/>
	<path d="M701.64,273.4c-0.89-0.5-1.07-1.96-2.73-1.77c0.71,3.16,3.06,5.41,4.08,8.37C703.02,279.12,701.74,273.5,701.64,273.4z"/>
	<path d="M643.1,269.59c-2.04,2.14-1.43,5.1-1.63,7.76C642.59,274.8,643.3,272.24,643.1,269.59z"/>
	<path d="M645.14,284.29c-1.12,1.63-0.71,2.96,0.31,4.59C646.46,287.14,646.46,285.82,645.14,284.29z"/>
	<path d="M661.87,278.47c-0.92,1.73-0.92,1.73,0,3.78C662.28,280.92,662.18,279.8,661.87,278.47z"/>
	<path d="M629.32,280.92c-0.61,1.22-0.41,2.14,0.71,3.37C630.24,282.75,630.14,281.94,629.32,280.92z"/>
	<path d="M614.22,290.71c0.41-0.51,0.31-1.02-0.1-1.43C613.81,289.8,613.71,290.2,614.22,290.71z"/>
	<path d="M695.14,271.94c0.2-0.61-0.1-0.71-0.61-0.71C694.32,271.84,694.53,272.04,695.14,271.94z"/>
	<path d="M615.54,412.76c-0.31,3.57-0.61,7.25,0.92,10.71C616.36,419.9,617.48,416.23,615.54,412.76z"/>
	<path d="M607.07,456.84c1.53-3.06,1.33-6.12,0.71-9.29C606.46,450.61,606.77,453.78,607.07,456.84z"/>
	<path d="M633.1,498.58c-0.71-3.37-0.61-6.22-0.82-9.49C630.44,491.74,630.75,495.41,633.1,498.58z"/>
	<path d="M631.16,427.25c-1.53,2.14-1.84,4.29-2.45,6.33C630.75,432.15,631.57,430.21,631.16,427.25z"/>
	<path d="M629.93,461.74c-1.33,1.73-0.92,3.06,0,4.49C630.54,464.9,630.44,463.47,629.93,461.74z"/>
	<path d="M609.22,438.27c-1.12,1.53-0.71,3.27,0.2,4.9C610.13,437.52,610.31,438.27,609.22,438.27z"/>
	<path d="M630.75,486.74c0.41-1.73-0.2-2.86-0.82-3.98C629.42,484.6,629.42,484.6,630.75,486.74z"/>
	<path d="M607.38,471.94c0.61-1.73,0.51-2.76-0.82-3.98C606.36,469.7,606.77,470.51,607.38,471.94z"/>
	<path d="M608.61,415.41c-0.71,1.02-0.31,1.94,0,3.16C609.32,417.35,609.22,416.43,608.61,415.41z"/>
	<path d="M607.07,460.62c-0.82,0.61-0.51,1.12-0.1,1.63C607.69,461.74,607.69,461.23,607.07,460.62z"/>
	<path d="M629.63,408.06c0.2,0.82,0.71,1.02,2.04,1.12C630.95,408.27,630.54,407.76,629.63,408.06z"/>
	<path d="M630.03,474.6c0.41-0.51,0.31-0.92-0.1-1.43C629.52,473.68,629.52,474.08,630.03,474.6z"/>
	<path d="M717.18,561.03c2.65,1.02,5.51,0.51,8.57,1.02C723.1,559.6,721.36,559.39,717.18,561.03z"/>
	<path d="M697.08,567.45c0-1.53-0.92-1.33-2.04-1.53C695.34,567.15,695.85,567.66,697.08,567.45z"/>
<path fill="#e6e6e6" d="m206.8 163.6c0-5.1 4.1-9.2 9.3-9.2s9.2 4.2 9.2 9.2-4.1 9.2-9.3 9.2-9.2-4.1-9.2-9.2zm17.3-.1c0-4.5-3.5-8.2-8.2-8.2s-8.2 3.7-8.2 8.3c0 4.5 3.5 8.2 8.2 8.2s8.2-3.7 8.2-8.3zm-13 0c0-2.8 2.1-5.1 5.1-5.1 1.9 0 2.9.6 3.9 1.5l-1.4 1.7c-.8-.7-1.5-1.1-2.5-1.1-1.7 0-2.8 1.4-2.8 3.1s1.1 3 2.8 3c1.1 0 1.7-.5 2.5-1.1l1.4 1.4c-1.1 1.1-2.1 1.7-4 1.7-2.9 0-5-2.3-5-5.1z"/><path fill="#e6e6e6" d="m226.6 154.7h3.4l4.2 13.2 4.4-13.3h2.6l4.4 13.3 4.2-13.2h3.3l-6.2 18h-2.7l-4.4-12.8-4.4 12.8h-2.7z"/><path fill="#e6e6e6" d="m252.8 165.8c0-3.9 3.1-7 7.2-7 4.2 0 7.2 3.2 7.2 7s-3.1 7-7.3 7c-4 0-7.1-3.1-7.1-7zm11.3 0c0-2.3-1.7-4.3-4.2-4.3s-4.1 2-4.1 4.3 1.7 4.3 4.1 4.3c2.7.1 4.2-1.9 4.2-4.3z"/><path fill="#e6e6e6" d="m269.5 159.1h3.1v3c.8-2 2.4-3.4 4.8-3.3v3.2h-.2c-2.7 0-4.6 1.7-4.6 5.4v5.1h-3.1z"/><path fill="#e6e6e6" d="m279.1 153.9h3.1v11.1l5.6-6h3.8l-5.4 5.5 5.5 8h-3.5l-4.1-5.8-1.9 2v3.9h-3.1z"/><path fill="#e6e6e6" d="m291.7 165.8c0-3.9 3.1-7 7.2-7 4.2 0 7.2 3.2 7.2 7s-3.1 7-7.3 7c-4 0-7.1-3.1-7.1-7zm11.3 0c0-2.3-1.7-4.3-4.2-4.3s-4.1 2-4.1 4.3 1.7 4.3 4.1 4.3c2.6.1 4.2-1.9 4.2-4.3z"/><path fill="#e6e6e6" d="m308.2 167.6v-8.6h3.1v7.6c0 2.1 1.1 3.3 2.9 3.3s3-1.3 3-3.3v-7.6h3.1v13.4h-3.1v-2.1c-.8 1.3-2.1 2.3-4.2 2.3-3.1.2-4.8-1.8-4.8-5z"/><path fill="#e6e6e6" d="m323.9 168.8v-7.1h-1.7v-2.6h1.7v-3.7h3.1v3.7h3.6v2.6h-3.6v6.6c0 1.2.6 1.7 1.7 1.7.7 0 1.3-.2 1.9-.5v2.5c-.8.5-1.7.7-2.8.7-2.3 0-3.9-.9-3.9-3.9z"/><path fill="#e6e6e6" d="m333.2 154.7h3.2v15h9.4v2.9h-12.5v-17.9z"/><path fill="#e6e6e6" d="m356 172.5v-1.7c-.9 1.1-2.3 2-4.4 2-2.6 0-4.8-1.4-4.8-4.2 0-3 2.3-4.4 5.4-4.4 1.7 0 2.6.2 3.7.5v-.2c0-1.9-1.2-2.9-3.3-2.9-1.5 0-2.6.3-3.9.8l-.8-2.5c1.5-.7 2.9-1.1 5.1-1.1 4 0 5.9 2.1 5.9 5.7v8zm.1-5.6c-.8-.3-1.9-.5-3.1-.5-2 0-3.1.8-3.1 2.1s1.1 2 2.6 2c2 0 3.5-1.1 3.5-2.9z"/><path fill="#e6e6e6" d="m364.9 170.5v2.1h-3.1v-18.7h3.1v7.4c1-1.4 2.4-2.5 4.5-2.5 3.2 0 6.3 2.5 6.3 7s-3.1 7-6.3 7c-2.1 0-3.5-1.1-4.5-2.3zm7.7-4.7c0-2.6-1.7-4.3-3.9-4.3s-3.9 1.7-3.9 4.4c0 2.6 1.8 4.3 3.9 4.3s3.9-1.7 3.9-4.4z"/><path fill="#e6e6e6" d="m376.9 170.8 1.4-2.1c1.4 1.1 3 1.7 4.4 1.7s2.1-.5 2.1-1.5-1.3-1.4-2.8-1.8c-.1 0-.2-.1-.2-.1-2-.6-4.2-1.4-4.2-4s2.1-4.1 4.8-4.1c1.7 0 3.5.6 5 1.5l-1.2 2.2c-1.3-.8-2.6-1.3-3.8-1.3s-1.9.5-1.9 1.4 1.3 1.4 2.8 1.8c.1 0 .2.1.2.1 2 .6 4.2 1.5 4.2 4 0 2.9-2.2 4.2-5 4.2-1.9 0-4-.7-5.8-2z"/><path fill="#e6e6e6" d="m505.6 163.6c0-5.1 4.1-9.2 9.3-9.2s9.2 4.2 9.2 9.2-4.1 9.2-9.3 9.2-9.2-4.1-9.2-9.2zm17.4-.1c0-4.5-3.5-8.2-8.2-8.2s-8.2 3.7-8.2 8.3c0 4.5 3.5 8.2 8.2 8.2s8.2-3.7 8.2-8.3zm-13.1 0c0-2.8 2.1-5.1 5.1-5.1 1.9 0 2.9.6 3.9 1.5l-1.4 1.7c-.8-.7-1.5-1.1-2.5-1.1-1.7 0-2.8 1.4-2.8 3.1s1.1 3 2.8 3c1.1 0 1.7-.5 2.5-1.1l1.4 1.4c-1.1 1.1-2.1 1.7-4 1.7-2.9 0-5-2.3-5-5.1z"/><path fill="#e6e6e6" d="m525.4 154.7h3.4l4.2 13.2 4.4-13.3h2.6l4.4 13.3 4.2-13.2h3.3l-6.2 18h-2.7l-4.4-12.8-4.4 12.8h-2.7z"/><path fill="#e6e6e6" d="m551.7 165.8c0-3.9 3.1-7 7.2-7 4.2 0 7.2 3.2 7.2 7s-3.1 7-7.3 7c-4.1 0-7.1-3.1-7.1-7zm11.2 0c0-2.3-1.7-4.3-4.2-4.3s-4.1 2-4.1 4.3 1.7 4.3 4.1 4.3c2.7.1 4.2-1.9 4.2-4.3z"/><path fill="#e6e6e6" d="m568.3 159.1h3.1v3c.8-2 2.4-3.4 4.8-3.3v3.2h-.2c-2.7 0-4.6 1.7-4.6 5.4v5.1h-3.1z"/><path fill="#e6e6e6" d="m577.9 153.9h3.1v11.1l5.6-6h3.8l-5.4 5.5 5.5 8h-3.5l-4.1-5.8-1.9 2v3.9h-3.1z"/><path fill="#e6e6e6" d="m590.6 165.8c0-3.9 3.1-7 7.2-7 4.2 0 7.2 3.2 7.2 7s-3.1 7-7.3 7c-4.1 0-7.1-3.1-7.1-7zm11.2 0c0-2.3-1.7-4.3-4.2-4.3s-4.1 2-4.1 4.3 1.7 4.3 4.1 4.3c2.6.1 4.2-1.9 4.2-4.3z"/><path fill="#e6e6e6" d="m607 167.6v-8.6h3.1v7.6c0 2.1 1.1 3.3 2.9 3.3s3-1.3 3-3.3v-7.6h3.1v13.4h-3.1v-2.1c-.8 1.3-2.1 2.3-4.2 2.3-3 .2-4.8-1.8-4.8-5z"/><path fill="#e6e6e6" d="m622.7 168.8v-7.1h-1.7v-2.6h1.7v-3.7h3.1v3.7h3.6v2.6h-3.6v6.6c0 1.2.6 1.7 1.7 1.7.7 0 1.3-.2 1.9-.5v2.5c-.8.5-1.7.7-2.8.7-2.3 0-3.9-.9-3.9-3.9z"/><path fill="#e6e6e6" d="m632 154.7h3.2v15h9.4v2.9h-12.6z"/><path fill="#e6e6e6" d="m654.8 172.5v-1.7c-.9 1.1-2.3 2-4.4 2-2.6 0-4.8-1.4-4.8-4.2 0-3 2.3-4.4 5.4-4.4 1.7 0 2.6.2 3.7.5v-.2c0-1.9-1.2-2.9-3.3-2.9-1.5 0-2.6.3-3.9.8l-.8-2.5c1.5-.7 2.9-1.1 5.1-1.1 4 0 5.9 2.1 5.9 5.7v8zm.1-5.6c-.8-.3-1.9-.5-3.1-.5-2 0-3.1.8-3.1 2.1s1.1 2 2.6 2c2 0 3.5-1.1 3.5-2.9z"/><path fill="#e6e6e6" d="m663.7 170.5v2.1h-3.1v-18.7h3.1v7.4c1-1.4 2.4-2.5 4.5-2.5 3.2 0 6.3 2.5 6.3 7s-3.1 7-6.3 7c-2.1 0-3.5-1.1-4.5-2.3zm7.8-4.7c0-2.6-1.7-4.3-3.9-4.3-2.1 0-3.9 1.7-3.9 4.4 0 2.6 1.8 4.3 3.9 4.3s3.9-1.7 3.9-4.4z"/><path fill="#e6e6e6" d="m675.8 170.8 1.4-2.1c1.4 1.1 3 1.7 4.4 1.7s2.1-.5 2.1-1.5-1.3-1.4-2.8-1.8c-.1 0-.2-.1-.2-.1-2-.6-4.2-1.4-4.2-4s2.1-4.1 4.8-4.1c1.7 0 3.5.6 5 1.5l-1.2 2.2c-1.3-.8-2.6-1.3-3.8-1.3s-1.9.5-1.9 1.4 1.3 1.4 2.8 1.8c.1 0 .2.1.2.1 2 .6 4.2 1.5 4.2 4 0 2.9-2.2 4.2-5 4.2-2 0-4.1-.7-5.8-2z"/><path fill="#e6e6e6" d="m61 298.6c0-5.1 4.1-9.2 9.3-9.2s9.2 4.2 9.2 9.2-4.1 9.2-9.3 9.2c-5.1 0-9.2-4.2-9.2-9.2zm17.4-.1c0-4.5-3.5-8.2-8.2-8.2s-8.2 3.7-8.2 8.3c0 4.5 3.5 8.2 8.2 8.2s8.2-3.7 8.2-8.3zm-13.1-.1c0-2.8 2.1-5.1 5.1-5.1 1.9 0 2.9.6 3.9 1.5l-1.4 1.7c-.8-.7-1.5-1.1-2.5-1.1-1.7 0-2.8 1.4-2.8 3.1s1.1 3 2.8 3c1.1 0 1.7-.5 2.5-1.1l1.4 1.4c-1.1 1.1-2.1 1.7-4 1.7-2.8.1-5-2.2-5-5.1z"/><path fill="#e6e6e6" d="m80.9 289.7h3.4l4.2 13.2 4.4-13.3h2.6l4.4 13.3 4.2-13.2h3.3l-6.2 18h-2.7l-4.4-12.8-4.4 12.8h-2.7z"/><path fill="#e6e6e6" d="m107.1 300.8c0-3.9 3.1-7 7.2-7s7.2 3.2 7.2 7-3.1 7-7.3 7c-4 0-7.1-3.1-7.1-7zm11.3 0c0-2.3-1.7-4.3-4.2-4.3s-4.1 2-4.1 4.3 1.7 4.3 4.1 4.3c2.6.1 4.2-1.9 4.2-4.3z"/><path fill="#e6e6e6" d="m123.7 294h3.1v3c.8-2 2.4-3.4 4.8-3.3v3.2h-.2c-2.7 0-4.6 1.7-4.6 5.4v5.1h-3.1z"/><path fill="#e6e6e6" d="m133.4 288.9h3.1v11.1l5.6-6h3.8l-5.4 5.5 5.5 8h-3.5l-4.1-5.8-1.9 1.9v3.9h-3.1z"/><path fill="#e6e6e6" d="m146 300.8c0-3.9 3.1-7 7.2-7s7.2 3.2 7.2 7-3.1 7-7.3 7c-4.1 0-7.1-3.1-7.1-7zm11.2 0c0-2.3-1.7-4.3-4.2-4.3s-4.1 2-4.1 4.3 1.7 4.3 4.1 4.3c2.6.1 4.2-1.9 4.2-4.3z"/><path fill="#e6e6e6" d="m162.4 302.6v-8.6h3.1v7.6c0 2.1 1.1 3.3 2.9 3.3s3-1.3 3-3.3v-7.6h3.1v13.4h-3.1v-2.1c-.8 1.3-2.1 2.3-4.2 2.3-3 .2-4.8-1.8-4.8-5z"/><path fill="#e6e6e6" d="m178.1 303.8v-7.1h-1.7v-2.7h1.7v-3.7h3.1v3.7h3.6v2.6h-3.6v6.6c0 1.2.6 1.7 1.7 1.7.7 0 1.3-.2 1.9-.5v2.5c-.8.5-1.7.7-2.8.7-2.3.1-3.9-.9-3.9-3.8z"/><path fill="#e6e6e6" d="m187.4 289.7h3.2v15h9.4v2.9h-12.5v-17.9z"/><path fill="#e6e6e6" d="m210.2 307.5v-1.7c-.9 1.1-2.3 2-4.4 2-2.6 0-4.8-1.4-4.8-4.2 0-3 2.3-4.4 5.4-4.4 1.7 0 2.6.2 3.7.5v-.2c0-1.9-1.2-2.9-3.3-2.9-1.5 0-2.6.3-3.9.8l-.8-2.5c1.5-.7 2.9-1.1 5.1-1.1 4 0 5.9 2.1 5.9 5.7v8zm.1-5.6c-.8-.3-1.9-.5-3.1-.5-2 0-3.1.8-3.1 2.1s1.1 2 2.6 2c2 0 3.5-1.1 3.5-2.9z"/><path fill="#e6e6e6" d="m219.2 305.5v2.1h-3.1v-18.7h3.1v7.4c1-1.4 2.4-2.5 4.5-2.5 3.2 0 6.3 2.5 6.3 7s-3.1 7-6.3 7c-2.2 0-3.6-1.1-4.5-2.3zm7.7-4.7c0-2.6-1.7-4.3-3.9-4.3s-3.9 1.7-3.9 4.4c0 2.6 1.8 4.3 3.9 4.3s3.9-1.7 3.9-4.4z"/><path fill="#e6e6e6" d="m231.2 305.8 1.4-2.1c1.4 1.1 3 1.7 4.4 1.7s2.1-.5 2.1-1.5-1.3-1.4-2.8-1.8c-.1 0-.2-.1-.2-.1-2-.6-4.2-1.4-4.2-4s2.1-4.1 4.8-4.1c1.7 0 3.5.6 5 1.5l-1.2 2.2c-1.3-.8-2.6-1.3-3.8-1.3s-1.9.5-1.9 1.4 1.3 1.4 2.8 1.8c.1 0 .2.1.2.1 2 .6 4.2 1.5 4.2 4 0 2.9-2.2 4.2-5 4.2-2 0-4.1-.7-5.8-2z"/><path fill="#e6e6e6" d="m360.6 298.6c0-5.1 4.1-9.2 9.3-9.2s9.2 4.2 9.2 9.2-4.1 9.2-9.3 9.2-9.2-4.2-9.2-9.2zm17.4-.1c0-4.5-3.5-8.2-8.2-8.2s-8.2 3.7-8.2 8.3c0 4.5 3.5 8.2 8.2 8.2s8.2-3.7 8.2-8.3zm-13.1-.1c0-2.8 2.1-5.1 5.1-5.1 1.9 0 2.9.6 3.9 1.5l-1.4 1.7c-.8-.7-1.5-1.1-2.5-1.1-1.7 0-2.8 1.4-2.8 3.1s1.1 3 2.8 3c1.1 0 1.7-.5 2.5-1.1l1.4 1.4c-1.1 1.1-2.1 1.7-4 1.7-2.8.1-5-2.2-5-5.1z"/><path fill="#e6e6e6" d="m380.5 289.7h3.4l4.2 13.2 4.4-13.3h2.6l4.4 13.3 4.2-13.2h3.3l-6.2 18h-2.7l-4.4-12.8-4.4 12.8h-2.7z"/><path fill="#e6e6e6" d="m406.7 300.8c0-3.9 3.1-7 7.2-7 4.2 0 7.2 3.2 7.2 7s-3.1 7-7.3 7c-4.1 0-7.1-3.1-7.1-7zm11.3 0c0-2.3-1.7-4.3-4.2-4.3s-4.1 2-4.1 4.3 1.7 4.3 4.1 4.3c2.7.1 4.2-1.9 4.2-4.3z"/><path fill="#e6e6e6" d="m423.3 294h3.1v3c.8-2 2.4-3.4 4.8-3.3v3.2h-.2c-2.7 0-4.6 1.7-4.6 5.4v5.1h-3.1z"/><path fill="#e6e6e6" d="m433 288.9h3.1v11.1l5.6-6h3.8l-5.4 5.5 5.5 8h-3.5l-4.1-5.8-1.9 2v3.9h-3.1z"/><path fill="#e6e6e6" d="m445.6 300.8c0-3.9 3.1-7 7.2-7 4.2 0 7.2 3.2 7.2 7s-3.1 7-7.3 7c-4.1 0-7.1-3.1-7.1-7zm11.3 0c0-2.3-1.7-4.3-4.2-4.3s-4.1 2-4.1 4.3 1.7 4.3 4.1 4.3c2.6.1 4.2-1.9 4.2-4.3z"/><path fill="#e6e6e6" d="m462.1 302.6v-8.6h3.1v7.6c0 2.1 1.1 3.3 2.9 3.3s3-1.3 3-3.3v-7.6h3.1v13.4h-3.1v-2.1c-.8 1.3-2.1 2.3-4.2 2.3-3.1.2-4.8-1.8-4.8-5z"/><path fill="#e6e6e6" d="m477.8 303.8v-7.1h-1.8v-2.7h1.7v-3.7h3.1v3.7h3.6v2.6h-3.6v6.6c0 1.2.6 1.7 1.7 1.7.7 0 1.3-.2 1.9-.5v2.5c-.8.5-1.7.7-2.8.7-2.2.1-3.8-.9-3.8-3.8z"/><path fill="#e6e6e6" d="m487.1 289.7h3.2v15h9.4v2.9h-12.5v-17.9z"/><path fill="#e6e6e6" d="m509.9 307.5v-1.7c-.9 1.1-2.3 2-4.4 2-2.6 0-4.8-1.4-4.8-4.2 0-3 2.3-4.4 5.4-4.4 1.7 0 2.6.2 3.7.5v-.2c0-1.9-1.2-2.9-3.3-2.9-1.5 0-2.6.3-3.9.8l-.8-2.5c1.5-.7 2.9-1.1 5.1-1.1 4 0 5.9 2.1 5.9 5.7v8zm.1-5.6c-.8-.3-1.9-.5-3.1-.5-2 0-3.1.8-3.1 2.1s1.1 2 2.6 2c2 0 3.5-1.1 3.5-2.9z"/><path fill="#e6e6e6" d="m518.8 305.5v2.1h-3.1v-18.7h3.1v7.4c1-1.4 2.4-2.5 4.5-2.5 3.2 0 6.3 2.5 6.3 7s-3.1 7-6.3 7c-2.2 0-3.5-1.1-4.5-2.3zm7.7-4.7c0-2.6-1.7-4.3-3.9-4.3s-3.9 1.7-3.9 4.4c0 2.6 1.8 4.3 3.9 4.3s3.9-1.7 3.9-4.4z"/><path fill="#e6e6e6" d="m530.8 305.8 1.4-2.1c1.4 1.1 3 1.7 4.4 1.7s2.1-.5 2.1-1.5-1.3-1.4-2.8-1.8c-.1 0-.2-.1-.2-.1-2-.6-4.2-1.4-4.2-4s2.1-4.1 4.8-4.1c1.7 0 3.5.6 5 1.5l-1.2 2.2c-1.3-.8-2.6-1.3-3.8-1.3s-1.9.5-1.9 1.4 1.3 1.4 2.8 1.8c.1 0 .2.1.2.1 2 .6 4.2 1.5 4.2 4 0 2.9-2.2 4.2-5 4.2-1.9 0-4.1-.7-5.8-2z"/><path fill="#e6e6e6" d="m659.5 298.6c0-5.1 4.1-9.2 9.3-9.2s9.2 4.2 9.2 9.2-4.1 9.2-9.3 9.2-9.2-4.2-9.2-9.2zm17.3-.1c0-4.5-3.5-8.2-8.2-8.2s-8.2 3.7-8.2 8.3c0 4.5 3.5 8.2 8.2 8.2 4.8 0 8.2-3.7 8.2-8.3zm-13-.1c0-2.8 2.1-5.1 5.1-5.1 1.9 0 2.9.6 3.9 1.5l-1.4 1.7c-.8-.7-1.5-1.1-2.5-1.1-1.7 0-2.8 1.4-2.8 3.1s1.1 3 2.8 3c1.1 0 1.7-.5 2.5-1.1l1.4 1.4c-1.1 1.1-2.1 1.7-4 1.7-2.9.1-5-2.2-5-5.1z"/><path fill="#e6e6e6" d="m679.3 289.7h3.4l4.2 13.2 4.4-13.3h2.6l4.4 13.3 4.2-13.2h3.3l-6.2 18h-2.6l-4.4-12.8-4.4 12.8h-2.7z"/><path fill="#e6e6e6" d="m705.5 300.8c0-3.9 3.1-7 7.2-7 4.2 0 7.2 3.2 7.2 7s-3.1 7-7.3 7c-4 0-7.1-3.1-7.1-7zm11.3 0c0-2.3-1.7-4.3-4.2-4.3s-4.1 2-4.1 4.3 1.7 4.3 4.1 4.3c2.7.1 4.2-1.9 4.2-4.3z"/><path fill="#e6e6e6" d="m722.1 294h3.1v3c.8-2 2.4-3.4 4.8-3.3v3.2h-.2c-2.7 0-4.6 1.7-4.6 5.4v5.1h-3.1z"/><path fill="#e6e6e6" d="m731.8 288.9h3.1v11.1l5.6-6h3.8l-5.4 5.5 5.5 8h-3.5l-4.1-5.8-1.9 2v3.9h-3.1z"/><path fill="#e6e6e6" d="m744.4 300.8c0-3.9 3.1-7 7.2-7 4.2 0 7.2 3.2 7.2 7s-3.1 7-7.3 7c-4.1 0-7.1-3.1-7.1-7zm11.3 0c0-2.3-1.7-4.3-4.2-4.3s-4.1 2-4.1 4.3 1.7 4.3 4.1 4.3c2.6.1 4.2-1.9 4.2-4.3z"/><path fill="#e6e6e6" d="m760.9 302.6v-8.6h3.1v7.6c0 2.1 1.1 3.3 2.9 3.3s3-1.3 3-3.3v-7.6h3.1v13.4h-3.1v-2.1c-.8 1.3-2.1 2.3-4.2 2.3-3.1.2-4.8-1.8-4.8-5z"/><path fill="#e6e6e6" d="m776.6 303.8v-7.1h-1.7v-2.7h1.7v-3.7h3.1v3.7h3.6v2.6h-3.6v6.6c0 1.2.6 1.7 1.7 1.7.7 0 1.3-.2 1.9-.5v2.5c-.8.5-1.7.7-2.8.7-2.3.1-3.9-.9-3.9-3.8z"/><path fill="#e6e6e6" d="m785.9 289.7h3.2v15h9.4v2.9h-12.5v-17.9z"/><path fill="#e6e6e6" d="m808.7 307.5v-1.7c-.9 1.1-2.3 2-4.4 2-2.6 0-4.8-1.4-4.8-4.2 0-3 2.3-4.4 5.4-4.4 1.7 0 2.6.2 3.7.5v-.2c0-1.9-1.2-2.9-3.3-2.9-1.5 0-2.6.3-3.9.8l-.8-2.5c1.5-.7 2.9-1.1 5.1-1.1 4 0 5.9 2.1 5.9 5.7v8zm.1-5.6c-.8-.3-1.9-.5-3.1-.5-2 0-3.1.8-3.1 2.1s1.1 2 2.6 2c2 0 3.5-1.1 3.5-2.9z"/><path fill="#e6e6e6" d="m817.6 305.5v2.1h-3.1v-18.7h3.1v7.4c1-1.4 2.4-2.5 4.5-2.5 3.2 0 6.3 2.5 6.3 7s-3.1 7-6.3 7c-2.1 0-3.5-1.1-4.5-2.3zm7.7-4.7c0-2.6-1.7-4.3-3.9-4.3-2.1 0-3.9 1.7-3.9 4.4 0 2.6 1.8 4.3 3.9 4.3 2.2 0 3.9-1.7 3.9-4.4z"/><path fill="#e6e6e6" d="m829.6 305.8 1.4-2.1c1.4 1.1 3 1.7 4.4 1.7s2.1-.5 2.1-1.5-1.3-1.4-2.8-1.8c-.1 0-.2-.1-.2-.1-2-.6-4.2-1.4-4.2-4s2.1-4.1 4.8-4.1c1.7 0 3.5.6 5 1.5l-1.2 2.2c-1.3-.8-2.6-1.3-3.8-1.3s-1.9.5-1.9 1.4 1.3 1.4 2.8 1.8c.1 0 .2.1.2.1 2 .6 4.2 1.5 4.2 4 0 2.9-2.2 4.2-5 4.2-1.9 0-4-.7-5.8-2z"/><path fill="#e6e6e6" d="m206.3 434.2c0-5.1 4.1-9.2 9.3-9.2s9.2 4.2 9.2 9.2-4.1 9.2-9.3 9.2-9.2-4.1-9.2-9.2zm17.4-.1c0-4.5-3.5-8.2-8.2-8.2s-8.2 3.7-8.2 8.3c0 4.5 3.5 8.2 8.2 8.2s8.2-3.7 8.2-8.3zm-13.1-.1c0-2.8 2.1-5.1 5.1-5.1 1.9 0 2.9.6 3.9 1.5l-1.4 1.7c-.8-.7-1.5-1.1-2.5-1.1-1.7 0-2.8 1.4-2.8 3.1s1.1 3 2.8 3c1.1 0 1.7-.5 2.5-1.1l1.4 1.4c-1.1 1.1-2.1 1.7-4 1.7-2.9.1-5-2.2-5-5.1z"/><path fill="#e6e6e6" d="m226.1 425.3h3.4l4.2 13.2 4.4-13.3h2.6l4.4 13.3 4.2-13.2h3.3l-6.2 18h-2.7l-4.4-12.8-4.4 12.8h-2.7z"/><path fill="#e6e6e6" d="m252.4 436.4c0-3.9 3.1-7 7.2-7 4.2 0 7.2 3.2 7.2 7s-3.1 7-7.3 7c-4.1 0-7.1-3.1-7.1-7zm11.2 0c0-2.3-1.7-4.3-4.2-4.3s-4.1 2-4.1 4.3 1.7 4.3 4.1 4.3c2.7.1 4.2-1.9 4.2-4.3z"/><path fill="#e6e6e6" d="m269 429.7h3.1v3c.8-2 2.4-3.4 4.8-3.3v3.2h-.2c-2.7 0-4.6 1.7-4.6 5.4v5.1h-3.1z"/><path fill="#e6e6e6" d="m278.6 424.5h3.1v11.1l5.6-6h3.8l-5.4 5.5 5.5 8h-3.5l-4.1-5.8-1.9 2v3.9h-3.1z"/><path fill="#e6e6e6" d="m291.3 436.4c0-3.9 3.1-7 7.2-7 4.2 0 7.2 3.2 7.2 7s-3.1 7-7.3 7c-4.1 0-7.1-3.1-7.1-7zm11.2 0c0-2.3-1.7-4.3-4.2-4.3s-4.1 2-4.1 4.3 1.7 4.3 4.1 4.3c2.6.1 4.2-1.9 4.2-4.3z"/><path fill="#e6e6e6" d="m307.7 438.2v-8.6h3.1v7.6c0 2.1 1.1 3.3 2.9 3.3s3-1.3 3-3.3v-7.6h3.1v13.4h-3.1v-2.1c-.8 1.3-2.1 2.3-4.2 2.3-3 .2-4.8-1.8-4.8-5z"/><path fill="#e6e6e6" d="m323.4 439.4v-7.1h-1.7v-2.6h1.7v-3.7h3.1v3.7h3.6v2.6h-3.6v6.6c0 1.2.6 1.7 1.7 1.7.7 0 1.3-.2 1.9-.5v2.5c-.8.5-1.7.7-2.8.7-2.3 0-3.9-.9-3.9-3.9z"/><path fill="#e6e6e6" d="m332.7 425.3h3.2v15h9.4v2.9h-12.5v-17.9z"/><path fill="#e6e6e6" d="m355.5 443.1v-1.7c-.9 1.1-2.3 2-4.4 2-2.6 0-4.8-1.4-4.8-4.2 0-3 2.3-4.4 5.4-4.4 1.7 0 2.6.2 3.7.5v-.2c0-1.9-1.2-2.9-3.3-2.9-1.5 0-2.6.3-3.9.8l-.8-2.5c1.5-.7 2.9-1.1 5.1-1.1 4 0 5.9 2.1 5.9 5.7v8zm.1-5.6c-.8-.3-1.9-.5-3.1-.5-2 0-3.1.8-3.1 2.1s1.1 2 2.6 2c2 0 3.5-1.1 3.5-2.9z"/><path fill="#e6e6e6" d="m364.4 441.1v2.1h-3.1v-18.7h3.1v7.4c1-1.4 2.4-2.5 4.5-2.5 3.2 0 6.3 2.5 6.3 7s-3.1 7-6.3 7c-2.1 0-3.5-1.1-4.5-2.3zm7.7-4.7c0-2.6-1.7-4.3-3.9-4.3-2.1 0-3.9 1.7-3.9 4.4 0 2.6 1.8 4.3 3.9 4.3 2.2 0 3.9-1.7 3.9-4.4z"/><path fill="#e6e6e6" d="m376.5 441.4 1.4-2.1c1.4 1.1 3 1.7 4.4 1.7s2.1-.5 2.1-1.5-1.3-1.4-2.8-1.8c-.1 0-.2-.1-.2-.1-2-.6-4.2-1.4-4.2-4s2.1-4.1 4.8-4.1c1.7 0 3.5.6 5 1.5l-1.2 2.2c-1.3-.8-2.6-1.3-3.8-1.3s-1.9.5-1.9 1.4 1.3 1.4 2.8 1.8c.1 0 .2.1.2.1 2 .6 4.2 1.5 4.2 4 0 2.9-2.2 4.2-5 4.2-2 0-4.1-.7-5.8-2z"/><path fill="#e6e6e6" d="m505.1 434.2c0-5.1 4.1-9.2 9.3-9.2s9.2 4.2 9.2 9.2-4.1 9.2-9.3 9.2-9.2-4.1-9.2-9.2zm17.4-.1c0-4.5-3.5-8.2-8.2-8.2s-8.2 3.7-8.2 8.3c0 4.5 3.5 8.2 8.2 8.2s8.2-3.7 8.2-8.3zm-13.1-.1c0-2.8 2.1-5.1 5.1-5.1 1.9 0 2.9.6 3.9 1.5l-1.4 1.7c-.8-.7-1.5-1.1-2.5-1.1-1.7 0-2.8 1.4-2.8 3.1s1.1 3 2.8 3c1.1 0 1.7-.5 2.5-1.1l1.4 1.4c-1.1 1.1-2.1 1.7-4 1.7-2.9.1-5-2.2-5-5.1z"/><path fill="#e6e6e6" d="m525 425.3h3.4l4.2 13.2 4.4-13.3h2.6l4.4 13.3 4.2-13.2h3.3l-6.2 18h-2.7l-4.4-12.8-4.4 12.8h-2.7z"/><path fill="#e6e6e6" d="m551.2 436.4c0-3.9 3.1-7 7.2-7 4.2 0 7.2 3.2 7.2 7s-3.1 7-7.3 7c-4.1 0-7.1-3.1-7.1-7zm11.2 0c0-2.3-1.7-4.3-4.2-4.3s-4.1 2-4.1 4.3 1.7 4.3 4.1 4.3c2.7.1 4.2-1.9 4.2-4.3z"/><path fill="#e6e6e6" d="m567.8 429.7h3.1v3c.8-2 2.4-3.4 4.8-3.3v3.2h-.2c-2.7 0-4.6 1.7-4.6 5.4v5.1h-3.1z"/><path fill="#e6e6e6" d="m577.5 424.5h3.1v11.1l5.6-6h3.8l-5.4 5.5 5.5 8h-3.5l-4.1-5.8-1.9 2v3.9h-3.1z"/><path fill="#e6e6e6" d="m590.1 436.4c0-3.9 3.1-7 7.2-7 4.2 0 7.2 3.2 7.2 7s-3.1 7-7.3 7c-4.1 0-7.1-3.1-7.1-7zm11.2 0c0-2.3-1.7-4.3-4.2-4.3s-4.1 2-4.1 4.3 1.7 4.3 4.1 4.3c2.6.1 4.2-1.9 4.2-4.3z"/><path fill="#e6e6e6" d="m606.5 438.2v-8.6h3.1v7.6c0 2.1 1.1 3.3 2.9 3.3s3-1.3 3-3.3v-7.6h3.1v13.4h-3.1v-2.1c-.8 1.3-2.1 2.3-4.2 2.3-3 .2-4.8-1.8-4.8-5z"/><path fill="#e6e6e6" d="m622.2 439.4v-7.1h-1.7v-2.6h1.7v-3.7h3.1v3.7h3.6v2.6h-3.6v6.6c0 1.2.6 1.7 1.7 1.7.7 0 1.3-.2 1.9-.5v2.5c-.8.5-1.7.7-2.8.7-2.3 0-3.9-.9-3.9-3.9z"/><path fill="#e6e6e6" d="m631.5 425.3h3.2v15h9.4v2.9h-12.5v-17.9z"/><path fill="#e6e6e6" d="m654.3 443.1v-1.7c-.9 1.1-2.3 2-4.4 2-2.6 0-4.8-1.4-4.8-4.2 0-3 2.3-4.4 5.4-4.4 1.7 0 2.6.2 3.7.5v-.2c0-1.9-1.2-2.9-3.3-2.9-1.5 0-2.6.3-3.9.8l-.8-2.5c1.5-.7 2.9-1.1 5.1-1.1 4 0 5.9 2.1 5.9 5.7v8zm.1-5.6c-.8-.3-1.9-.5-3.1-.5-2 0-3.1.8-3.1 2.1s1.1 2 2.6 2c2 0 3.5-1.1 3.5-2.9z"/><path fill="#e6e6e6" d="m663.3 441.1v2.1h-3.1v-18.7h3.1v7.4c1-1.4 2.4-2.5 4.5-2.5 3.2 0 6.3 2.5 6.3 7s-3.1 7-6.3 7c-2.2 0-3.6-1.1-4.5-2.3zm7.7-4.7c0-2.6-1.7-4.3-3.9-4.3s-3.9 1.7-3.9 4.4c0 2.6 1.8 4.3 3.9 4.3s3.9-1.7 3.9-4.4z"/><path fill="#e6e6e6" d="m675.3 441.4 1.4-2.1c1.4 1.1 3 1.7 4.4 1.7s2.1-.5 2.1-1.5-1.3-1.4-2.8-1.8c-.1 0-.2-.1-.2-.1-2-.6-4.2-1.4-4.2-4s2.1-4.1 4.8-4.1c1.7 0 3.5.6 5 1.5l-1.2 2.2c-1.3-.8-2.6-1.3-3.8-1.3s-1.9.5-1.9 1.4 1.3 1.4 2.8 1.8c.1 0 .2.1.2.1 2 .6 4.2 1.5 4.2 4 0 2.9-2.2 4.2-5 4.2-2 0-4.1-.7-5.8-2z"/></g>
</svg>
